<?xml version="1.0" encoding="UTF-8" standalone="no"?>
<!DOCTYPE svg PUBLIC "-//W3C//DTD SVG 1.1//EN"
 "http://www.w3.org/Graphics/SVG/1.1/DTD/svg11.dtd">
<!-- Generated by graphviz version 6.0.1 (20220911.1526)
 -->
<!-- Pages: 1 -->
<svg width="4387pt" height="2202pt"
 viewBox="0.00 0.00 4386.81 2202.00" xmlns="http://www.w3.org/2000/svg" xmlns:xlink="http://www.w3.org/1999/xlink">
<g id="graph0" class="graph" transform="scale(1 1) rotate(0) translate(4 2198)">
<polygon fill="white" stroke="none" points="-4,4 -4,-2198 4382.81,-2198 4382.81,4 -4,4"/>
<g id="clust1" class="cluster">
<title>cluster_s1</title>
<polygon fill="none" stroke="black" points="18.4,-60 18.4,-273 580.39,-273 580.39,-60 18.4,-60"/>
<text text-anchor="middle" x="299.39" y="-257.8" font-family="Times,serif" font-size="14.00">ArithmeticCombinator[0]</text>
</g>
<g id="clust4" class="cluster">
<title>cluster_s6</title>
<polygon fill="none" stroke="black" points="970.47,-1586 970.47,-1799 1667.25,-1799 1667.25,-1586 970.47,-1586"/>
<text text-anchor="middle" x="1318.86" y="-1783.8" font-family="Times,serif" font-size="14.00">ArithmeticCombinator[1]</text>
</g>
<g id="clust7" class="cluster">
<title>cluster_s11</title>
<polygon fill="none" stroke="black" points="2027.34,-372 2027.34,-585 2747.13,-585 2747.13,-372 2027.34,-372"/>
<text text-anchor="middle" x="2387.24" y="-569.8" font-family="Times,serif" font-size="14.00">ArithmeticCombinator[2]</text>
</g>
<g id="clust10" class="cluster">
<title>cluster_s15</title>
<polygon fill="none" stroke="black" points="1494.46,-613 1494.46,-826 2747.13,-826 2747.13,-613 1494.46,-613"/>
<text text-anchor="middle" x="2120.8" y="-810.8" font-family="Times,serif" font-size="14.00">ArithmeticCombinator[3]</text>
</g>
<g id="clust13" class="cluster">
<title>cluster_s20</title>
<polygon fill="none" stroke="black" points="2574.34,-1001 2574.34,-1214 3752.61,-1214 3752.61,-1001 2574.34,-1001"/>
<text text-anchor="middle" x="3163.48" y="-1198.8" font-family="Times,serif" font-size="14.00">ArithmeticCombinator[4]</text>
</g>
<g id="clust16" class="cluster">
<title>cluster_s25</title>
<polygon fill="none" stroke="black" points="4096.61,-1152 4096.61,-1365 4370.81,-1365 4370.81,-1152 4096.61,-1152"/>
<text text-anchor="middle" x="4233.71" y="-1349.8" font-family="Times,serif" font-size="14.00">ArithmeticCombinator[5]</text>
</g>
<g id="clust19" class="cluster">
<title>cluster_s52</title>
<polygon fill="none" stroke="black" points="1361.27,-60 1361.27,-605 1790.04,-605 1790.04,-60 1361.27,-60"/>
<text text-anchor="middle" x="1575.66" y="-589.8" font-family="Times,serif" font-size="14.00">ConcurrencyLimiter[12]</text>
</g>
<g id="clust20" class="cluster">
<title>cluster_s56</title>
<polygon fill="none" stroke="black" points="1445.06,-110 1445.06,-269 1706.25,-269 1706.25,-110 1445.06,-110"/>
<text text-anchor="middle" x="1575.66" y="-253.8" font-family="Times,serif" font-size="14.00">LoadActuator[12.LoadActuator]</text>
</g>
<g id="clust22" class="cluster">
<title>cluster_s53</title>
<polygon fill="none" stroke="black" points="1411.27,-319 1411.27,-532 1740.04,-532 1740.04,-319 1411.27,-319"/>
<text text-anchor="middle" x="1575.66" y="-516.8" font-family="Times,serif" font-size="14.00">Scheduler[12.Scheduler]</text>
</g>
<g id="clust24" class="cluster">
<title>cluster_s58</title>
<polygon fill="none" stroke="black" points="2027.34,-1586 2027.34,-1799 2747.13,-1799 2747.13,-1586 2027.34,-1586"/>
<text text-anchor="middle" x="2387.24" y="-1783.8" font-family="Times,serif" font-size="14.00">Decider[13]</text>
</g>
<g id="clust27" class="cluster">
<title>cluster_s41</title>
<polygon fill="none" stroke="black" points="672.39,-274 672.39,-487 1143.27,-487 1143.27,-274 672.39,-274"/>
<text text-anchor="middle" x="907.83" y="-471.8" font-family="Times,serif" font-size="14.00">EMA[10]</text>
</g>
<g id="clust30" class="cluster">
<title>cluster_s32</title>
<polygon fill="none" stroke="black" points="1494.46,-1419 1494.46,-1578 2747.13,-1578 2747.13,-1419 1494.46,-1419"/>
<text text-anchor="middle" x="2120.8" y="-1562.8" font-family="Times,serif" font-size="14.00">FirstValid[7]</text>
</g>
<g id="clust33" class="cluster">
<title>cluster_s45</title>
<polygon fill="none" stroke="black" points="3058.13,-118 3058.13,-493 3752.61,-493 3752.61,-118 3058.13,-118"/>
<text text-anchor="middle" x="3405.37" y="-477.8" font-family="Times,serif" font-size="14.00">Gradient[11]</text>
</g>
<g id="clust36" class="cluster">
<title>cluster_s29</title>
<polygon fill="none" stroke="black" points="2014.04,-1252 2014.04,-1411 2747.13,-1411 2747.13,-1252 2014.04,-1252"/>
<text text-anchor="middle" x="2380.59" y="-1395.8" font-family="Times,serif" font-size="14.00">Min[6]</text>
</g>
<g id="clust39" class="cluster">
<title>cluster_s39</title>
<polygon fill="none" stroke="black" points="8,-313 8,-472 191.19,-472 191.19,-313 8,-313"/>
<text text-anchor="middle" x="99.6" y="-456.8" font-family="Times,serif" font-size="14.00">PromQL[9]</text>
</g>
<g id="clust41" class="cluster">
<title>cluster_s36</title>
<polygon fill="none" stroke="black" points="2019.24,-834 2019.24,-993 2747.13,-993 2747.13,-834 2019.24,-834"/>
<text text-anchor="middle" x="2383.19" y="-977.8" font-family="Times,serif" font-size="14.00">Sqrt[8]</text>
</g>
<g id="clust44" class="cluster">
<title>cluster_s62</title>
<polygon fill="none" stroke="black" points="2574.34,-1919 2574.34,-2186 3752.61,-2186 3752.61,-1919 2574.34,-1919"/>
<text text-anchor="middle" x="3163.48" y="-2170.8" font-family="Times,serif" font-size="14.00">Switcher[14]</text>
</g>
<!-- n4 -->
<g id="node1" class="node">
<title>n4</title>
<ellipse fill="none" stroke="black" cx="99.6" cy="-128" rx="31.4" ry="18"/>
<text text-anchor="middle" x="99.6" y="-124.3" font-family="Times,serif" font-size="14.00">2.00</text>
</g>
<!-- n3 -->
<g id="node4" class="node">
<title>n3</title>
<ellipse fill="none" stroke="black" cx="314.19" cy="-128" rx="27" ry="18"/>
<text text-anchor="middle" x="314.19" y="-124.3" font-family="Times,serif" font-size="14.00">rhs</text>
</g>
<!-- n4&#45;&gt;n3 -->
<g id="edge1" class="edge">
<title>n4&#45;&gt;n3</title>
<path fill="none" stroke="black" d="M130.8,-128C130.8,-128 277.03,-128 277.03,-128"/>
<polygon fill="black" stroke="black" points="277.03,-131.5 287.03,-128 277.03,-124.5 277.03,-131.5"/>
</g>
<!-- n2 -->
<g id="node2" class="node">
<title>n2</title>
<ellipse fill="none" stroke="black" cx="314.19" cy="-182" rx="27" ry="18"/>
<text text-anchor="middle" x="314.19" y="-178.3" font-family="Times,serif" font-size="14.00">lhs</text>
</g>
<!-- n5 -->
<g id="node3" class="node">
<title>n5</title>
<ellipse fill="none" stroke="black" cx="488.79" cy="-168" rx="41.69" ry="18"/>
<text text-anchor="middle" x="488.79" y="-164.3" font-family="Times,serif" font-size="14.00">output</text>
</g>
<!-- n42 -->
<g id="node30" class="node">
<title>n42</title>
<ellipse fill="none" stroke="black" cx="798.43" cy="-342" rx="76.09" ry="18"/>
<text text-anchor="middle" x="798.43" y="-338.3" font-family="Times,serif" font-size="14.00">max_envelope</text>
</g>
<!-- n5&#45;&gt;n42 -->
<g id="edge27" class="edge">
<title>n5&#45;&gt;n42</title>
<path fill="none" stroke="black" d="M488.81,-186.29C488.81,-230.97 488.81,-342 488.81,-342 488.81,-342 712.29,-342 712.29,-342"/>
<polygon fill="black" stroke="black" points="712.29,-345.5 722.29,-342 712.29,-338.5 712.29,-345.5"/>
<text text-anchor="middle" x="626.39" y="-264.8" font-family="Times,serif" font-size="14.00">MAX_EMA</text>
</g>
<!-- n3&#45;&gt;n5 -->
<!-- n9 -->
<g id="node5" class="node">
<title>n9</title>
<ellipse fill="none" stroke="black" cx="1051.67" cy="-1708" rx="31.4" ry="18"/>
<text text-anchor="middle" x="1051.67" y="-1704.3" font-family="Times,serif" font-size="14.00">1.10</text>
</g>
<!-- n8 -->
<g id="node8" class="node">
<title>n8</title>
<ellipse fill="none" stroke="black" cx="1307.27" cy="-1708" rx="27" ry="18"/>
<text text-anchor="middle" x="1307.27" y="-1704.3" font-family="Times,serif" font-size="14.00">rhs</text>
</g>
<!-- n9&#45;&gt;n8 -->
<g id="edge3" class="edge">
<title>n9&#45;&gt;n8</title>
<path fill="none" stroke="black" d="M1083.01,-1708C1083.01,-1708 1269.96,-1708 1269.96,-1708"/>
<polygon fill="black" stroke="black" points="1269.96,-1711.5 1279.96,-1708 1269.96,-1704.5 1269.96,-1711.5"/>
</g>
<!-- n7 -->
<g id="node6" class="node">
<title>n7</title>
<ellipse fill="none" stroke="black" cx="1307.27" cy="-1654" rx="27" ry="18"/>
<text text-anchor="middle" x="1307.27" y="-1650.3" font-family="Times,serif" font-size="14.00">lhs</text>
</g>
<!-- n10 -->
<g id="node7" class="node">
<title>n10</title>
<ellipse fill="none" stroke="black" cx="1575.66" cy="-1708" rx="41.69" ry="18"/>
<text text-anchor="middle" x="1575.66" y="-1704.3" font-family="Times,serif" font-size="14.00">output</text>
</g>
<!-- n60 -->
<g id="node28" class="node">
<title>n60</title>
<ellipse fill="none" stroke="black" cx="2104.34" cy="-1654" rx="27" ry="18"/>
<text text-anchor="middle" x="2104.34" y="-1650.3" font-family="Times,serif" font-size="14.00">rhs</text>
</g>
<!-- n10&#45;&gt;n60 -->
<g id="edge29" class="edge">
<title>n10&#45;&gt;n60</title>
<path fill="none" stroke="black" d="M1613.81,-1700.49C1613.81,-1685.65 1613.81,-1654 1613.81,-1654 1613.81,-1654 2067.27,-1654 2067.27,-1654"/>
<polygon fill="black" stroke="black" points="2067.27,-1657.5 2077.27,-1654 2067.27,-1650.5 2067.27,-1657.5"/>
<text text-anchor="middle" x="1902.04" y="-1684.8" font-family="Times,serif" font-size="14.00">LATENCY_SETPOINT</text>
</g>
<!-- n47 -->
<g id="node39" class="node">
<title>n47</title>
<ellipse fill="none" stroke="black" cx="3193.28" cy="-402" rx="48.99" ry="18"/>
<text text-anchor="middle" x="3193.28" y="-398.3" font-family="Times,serif" font-size="14.00">setpoint</text>
</g>
<!-- n10&#45;&gt;n47 -->
<g id="edge28" class="edge">
<title>n10&#45;&gt;n47</title>
<path fill="none" stroke="black" d="M1610.81,-1698.25C1610.81,-1636.01 1610.81,-1297 1610.81,-1297 1610.81,-1297 3152.81,-1297 3152.81,-1297 3152.81,-1297 3152.81,-422.05 3152.81,-422.05"/>
<polygon fill="black" stroke="black" points="3156.31,-422.05 3152.81,-412.05 3149.31,-422.05 3156.31,-422.05"/>
<text text-anchor="middle" x="2379.84" y="-1870.8" font-family="Times,serif" font-size="14.00">LATENCY_SETPOINT</text>
</g>
<!-- n8&#45;&gt;n10 -->
<!-- n12 -->
<g id="node9" class="node">
<title>n12</title>
<ellipse fill="none" stroke="black" cx="2104.34" cy="-440" rx="27" ry="18"/>
<text text-anchor="middle" x="2104.34" y="-436.3" font-family="Times,serif" font-size="14.00">lhs</text>
</g>
<!-- n14 -->
<g id="node10" class="node">
<title>n14</title>
<ellipse fill="none" stroke="black" cx="2655.54" cy="-494" rx="41.69" ry="18"/>
<text text-anchor="middle" x="2655.54" y="-490.3" font-family="Times,serif" font-size="14.00">output</text>
</g>
<!-- n57 -->
<g id="node23" class="node">
<title>n57</title>
<ellipse fill="none" stroke="black" cx="1575.66" cy="-178" rx="80.69" ry="18"/>
<text text-anchor="middle" x="1575.66" y="-174.3" font-family="Times,serif" font-size="14.00">load_multiplier</text>
</g>
<!-- n14&#45;&gt;n57 -->
<g id="edge32" class="edge">
<title>n14&#45;&gt;n57</title>
<path fill="none" stroke="black" d="M2655.81,-475.88C2655.81,-409.29 2655.81,-182 2655.81,-182 2655.81,-182 1664.64,-182 1664.64,-182"/>
<polygon fill="black" stroke="black" points="1664.64,-178.5 1654.64,-182 1664.64,-185.5 1664.64,-178.5"/>
<text text-anchor="middle" x="2104.34" y="-551.8" font-family="Times,serif" font-size="14.00">LOAD_MULTIPLIER</text>
</g>
<!-- n13 -->
<g id="node11" class="node">
<title>n13</title>
<ellipse fill="none" stroke="black" cx="2104.34" cy="-494" rx="27" ry="18"/>
<text text-anchor="middle" x="2104.34" y="-490.3" font-family="Times,serif" font-size="14.00">rhs</text>
</g>
<!-- n13&#45;&gt;n14 -->
<!-- n17 -->
<g id="node12" class="node">
<title>n17</title>
<ellipse fill="none" stroke="black" cx="1575.66" cy="-735" rx="31.4" ry="18"/>
<text text-anchor="middle" x="1575.66" y="-731.3" font-family="Times,serif" font-size="14.00">2.00</text>
</g>
<!-- n16 -->
<g id="node13" class="node">
<title>n16</title>
<ellipse fill="none" stroke="black" cx="2104.34" cy="-735" rx="27" ry="18"/>
<text text-anchor="middle" x="2104.34" y="-731.3" font-family="Times,serif" font-size="14.00">lhs</text>
</g>
<!-- n17&#45;&gt;n16 -->
<g id="edge6" class="edge">
<title>n17&#45;&gt;n16</title>
<path fill="none" stroke="black" d="M1607.14,-735C1607.14,-735 2067.21,-735 2067.21,-735"/>
<polygon fill="black" stroke="black" points="2067.21,-738.5 2077.21,-735 2067.21,-731.5 2067.21,-738.5"/>
</g>
<!-- n19 -->
<g id="node14" class="node">
<title>n19</title>
<ellipse fill="none" stroke="black" cx="2655.54" cy="-681" rx="41.69" ry="18"/>
<text text-anchor="middle" x="2655.54" y="-677.3" font-family="Times,serif" font-size="14.00">output</text>
</g>
<!-- n49 -->
<g id="node36" class="node">
<title>n49</title>
<ellipse fill="none" stroke="black" cx="3193.28" cy="-348" rx="30.59" ry="18"/>
<text text-anchor="middle" x="3193.28" y="-344.3" font-family="Times,serif" font-size="14.00">max</text>
</g>
<!-- n19&#45;&gt;n49 -->
<g id="edge41" class="edge">
<title>n19&#45;&gt;n49</title>
<path fill="none" stroke="black" d="M2697.2,-681C2767.67,-681 2902.81,-681 2902.81,-681 2902.81,-681 2902.81,-345 2902.81,-345 2902.81,-345 3153.01,-345 3153.01,-345"/>
<polygon fill="black" stroke="black" points="3153.01,-348.5 3163.01,-345 3153.01,-341.5 3153.01,-348.5"/>
<text text-anchor="middle" x="2902.63" y="-587.8" font-family="Times,serif" font-size="14.00">NORMAL_CONCURRENCY_LIMIT</text>
</g>
<!-- n18 -->
<g id="node15" class="node">
<title>n18</title>
<ellipse fill="none" stroke="black" cx="2104.34" cy="-681" rx="27" ry="18"/>
<text text-anchor="middle" x="2104.34" y="-677.3" font-family="Times,serif" font-size="14.00">rhs</text>
</g>
<!-- n18&#45;&gt;n19 -->
<!-- n23 -->
<g id="node16" class="node">
<title>n23</title>
<ellipse fill="none" stroke="black" cx="2655.54" cy="-1123" rx="31.4" ry="18"/>
<text text-anchor="middle" x="2655.54" y="-1119.3" font-family="Times,serif" font-size="14.00">5.00</text>
</g>
<!-- n22 -->
<g id="node17" class="node">
<title>n22</title>
<ellipse fill="none" stroke="black" cx="3193.28" cy="-1123" rx="27" ry="18"/>
<text text-anchor="middle" x="3193.28" y="-1119.3" font-family="Times,serif" font-size="14.00">lhs</text>
</g>
<!-- n23&#45;&gt;n22 -->
<g id="edge8" class="edge">
<title>n23&#45;&gt;n22</title>
<path fill="none" stroke="black" d="M2686.77,-1123C2686.77,-1123 3156.2,-1123 3156.2,-1123"/>
<polygon fill="black" stroke="black" points="3156.2,-1126.5 3166.2,-1123 3156.2,-1119.5 3156.2,-1126.5"/>
</g>
<!-- n24 -->
<g id="node18" class="node">
<title>n24</title>
<ellipse fill="none" stroke="black" cx="3661.02" cy="-1123" rx="41.69" ry="18"/>
<text text-anchor="middle" x="3661.02" y="-1119.3" font-family="Times,serif" font-size="14.00">output</text>
</g>
<!-- n22&#45;&gt;n24 -->
<!-- n27 -->
<g id="node20" class="node">
<title>n27</title>
<ellipse fill="none" stroke="black" cx="4173.61" cy="-1220" rx="27" ry="18"/>
<text text-anchor="middle" x="4173.61" y="-1216.3" font-family="Times,serif" font-size="14.00">lhs</text>
</g>
<!-- n24&#45;&gt;n27 -->
<g id="edge30" class="edge">
<title>n24&#45;&gt;n27</title>
<path fill="none" stroke="black" d="M3702.98,-1123C3825.45,-1123 4173.81,-1123 4173.81,-1123 4173.81,-1123 4173.81,-1191.76 4173.81,-1191.76"/>
<polygon fill="black" stroke="black" points="4170.31,-1191.76 4173.81,-1201.76 4177.31,-1191.76 4170.31,-1191.76"/>
<text text-anchor="middle" x="3924.61" y="-1175.8" font-family="Times,serif" font-size="14.00">CONCURRENCY_INCREMENT_SINGLE_TICK</text>
</g>
<!-- n21 -->
<g id="node19" class="node">
<title>n21</title>
<ellipse fill="none" stroke="black" cx="3193.28" cy="-1069" rx="27" ry="18"/>
<text text-anchor="middle" x="3193.28" y="-1065.3" font-family="Times,serif" font-size="14.00">rhs</text>
</g>
<!-- n28 -->
<g id="node21" class="node">
<title>n28</title>
<ellipse fill="none" stroke="black" cx="4279.21" cy="-1247" rx="41.69" ry="18"/>
<text text-anchor="middle" x="4279.21" y="-1243.3" font-family="Times,serif" font-size="14.00">output</text>
</g>
<!-- n27&#45;&gt;n28 -->
<!-- n30 -->
<g id="node41" class="node">
<title>n30</title>
<ellipse fill="none" stroke="black" cx="2104.34" cy="-1320" rx="40.09" ry="18"/>
<text text-anchor="middle" x="2104.34" y="-1316.3" font-family="Times,serif" font-size="14.00">inputs</text>
</g>
<!-- n28&#45;&gt;n30 -->
<g id="edge42" class="edge">
<title>n28&#45;&gt;n30</title>
<path fill="none" stroke="black" d="M4237.23,-1247C3935.15,-1247 2104.81,-1247 2104.81,-1247 2104.81,-1247 2104.81,-1291.96 2104.81,-1291.96"/>
<polygon fill="black" stroke="black" points="2101.31,-1291.96 2104.81,-1301.96 2108.31,-1291.96 2101.31,-1291.96"/>
<text text-anchor="middle" x="3448.92" y="-1323.8" font-family="Times,serif" font-size="14.00">CONCURRENCY_INCREMENT_INTEGRAL</text>
</g>
<!-- n26 -->
<g id="node22" class="node">
<title>n26</title>
<ellipse fill="none" stroke="black" cx="4173.61" cy="-1274" rx="27" ry="18"/>
<text text-anchor="middle" x="4173.61" y="-1270.3" font-family="Times,serif" font-size="14.00">rhs</text>
</g>
<!-- n55 -->
<g id="node24" class="node">
<title>n55</title>
<ellipse fill="none" stroke="black" cx="1575.66" cy="-441" rx="113.98" ry="18"/>
<text text-anchor="middle" x="1575.66" y="-437.3" font-family="Times,serif" font-size="14.00">accepted_concurrency</text>
</g>
<!-- n55&#45;&gt;n18 -->
<g id="edge20" class="edge">
<title>n55&#45;&gt;n18</title>
<path fill="none" stroke="black" d="M1665.81,-452.25C1665.81,-499.7 1665.81,-681 1665.81,-681 1665.81,-681 2067.24,-681 2067.24,-681"/>
<polygon fill="black" stroke="black" points="2067.24,-684.5 2077.24,-681 2067.24,-677.5 2067.24,-684.5"/>
<text text-anchor="middle" x="1902.04" y="-495.8" font-family="Times,serif" font-size="14.00">ACCEPTED_CONCURRENCY</text>
</g>
<!-- n50 -->
<g id="node35" class="node">
<title>n50</title>
<ellipse fill="none" stroke="black" cx="3193.28" cy="-240" rx="85.29" ry="18"/>
<text text-anchor="middle" x="3193.28" y="-236.3" font-family="Times,serif" font-size="14.00">control_variable</text>
</g>
<!-- n55&#45;&gt;n50 -->
<g id="edge23" class="edge">
<title>n55&#45;&gt;n50</title>
<path fill="none" stroke="black" d="M1682.29,-434.67C1746.06,-434.67 1814.81,-434.67 1814.81,-434.67 1814.81,-434.67 1814.81,-240 1814.81,-240 1814.81,-240 3098.09,-240 3098.09,-240"/>
<polygon fill="black" stroke="black" points="3098.09,-243.5 3108.09,-240 3098.09,-236.5 3098.09,-243.5"/>
<text text-anchor="middle" x="2379.84" y="-310.8" font-family="Times,serif" font-size="14.00">ACCEPTED_CONCURRENCY</text>
</g>
<!-- n55&#45;&gt;n30 -->
<g id="edge21" class="edge">
<title>n55&#45;&gt;n30</title>
<path fill="none" stroke="black" d="M1641.81,-455.89C1641.81,-571.4 1641.81,-1320 1641.81,-1320 1641.81,-1320 2053.7,-1320 2053.7,-1320"/>
<polygon fill="black" stroke="black" points="2053.7,-1323.5 2063.7,-1320 2053.7,-1316.5 2053.7,-1323.5"/>
<text text-anchor="middle" x="1902.04" y="-1110.8" font-family="Times,serif" font-size="14.00">ACCEPTED_CONCURRENCY</text>
</g>
<!-- n37 -->
<g id="node44" class="node">
<title>n37</title>
<ellipse fill="none" stroke="black" cx="2104.34" cy="-902" rx="35.19" ry="18"/>
<text text-anchor="middle" x="2104.34" y="-898.3" font-family="Times,serif" font-size="14.00">input</text>
</g>
<!-- n55&#45;&gt;n37 -->
<g id="edge22" class="edge">
<title>n55&#45;&gt;n37</title>
<path fill="none" stroke="black" d="M1684.36,-446.33C1830.94,-446.33 2073.81,-446.33 2073.81,-446.33 2073.81,-446.33 2073.81,-882.9 2073.81,-882.9"/>
<polygon fill="black" stroke="black" points="2070.31,-882.9 2073.81,-892.9 2077.31,-882.9 2070.31,-882.9"/>
<text text-anchor="middle" x="1902.04" y="-542.8" font-family="Times,serif" font-size="14.00">ACCEPTED_CONCURRENCY</text>
</g>
<!-- n54 -->
<g id="node25" class="node">
<title>n54</title>
<ellipse fill="none" stroke="black" cx="1575.66" cy="-387" rx="114.28" ry="18"/>
<text text-anchor="middle" x="1575.66" y="-383.3" font-family="Times,serif" font-size="14.00">incoming_concurrency</text>
</g>
<!-- n54&#45;&gt;n13 -->
<g id="edge24" class="edge">
<title>n54&#45;&gt;n13</title>
<path fill="none" stroke="black" d="M1680.01,-394.5C1787.61,-394.5 1939.81,-394.5 1939.81,-394.5 1939.81,-394.5 1939.81,-494 1939.81,-494 1939.81,-494 2067.17,-494 2067.17,-494"/>
<polygon fill="black" stroke="black" points="2067.17,-497.5 2077.17,-494 2067.17,-490.5 2067.17,-497.5"/>
<text text-anchor="middle" x="1902.04" y="-389.8" font-family="Times,serif" font-size="14.00">INCOMING_CONCURRENCY</text>
</g>
<!-- n59 -->
<g id="node26" class="node">
<title>n59</title>
<ellipse fill="none" stroke="black" cx="2104.34" cy="-1708" rx="27" ry="18"/>
<text text-anchor="middle" x="2104.34" y="-1704.3" font-family="Times,serif" font-size="14.00">lhs</text>
</g>
<!-- n61 -->
<g id="node27" class="node">
<title>n61</title>
<ellipse fill="none" stroke="black" cx="2655.54" cy="-1681" rx="41.69" ry="18"/>
<text text-anchor="middle" x="2655.54" y="-1677.3" font-family="Times,serif" font-size="14.00">output</text>
</g>
<!-- n66 -->
<g id="node50" class="node">
<title>n66</title>
<ellipse fill="none" stroke="black" cx="3193.28" cy="-2041" rx="40.89" ry="18"/>
<text text-anchor="middle" x="3193.28" y="-2037.3" font-family="Times,serif" font-size="14.00">switch</text>
</g>
<!-- n61&#45;&gt;n66 -->
<g id="edge26" class="edge">
<title>n61&#45;&gt;n66</title>
<path fill="none" stroke="black" d="M2692.81,-1689.2C2692.81,-1742.78 2692.81,-2041 2692.81,-2041 2692.81,-2041 3142.32,-2041 3142.32,-2041"/>
<polygon fill="black" stroke="black" points="3142.32,-2044.5 3152.32,-2041 3142.32,-2037.5 3142.32,-2044.5"/>
<text text-anchor="middle" x="2902.63" y="-1758.8" font-family="Times,serif" font-size="14.00">IS_OVERLOAD</text>
</g>
<!-- n60&#45;&gt;n61 -->
<!-- n43 -->
<g id="node29" class="node">
<title>n43</title>
<ellipse fill="none" stroke="black" cx="798.43" cy="-396" rx="35.19" ry="18"/>
<text text-anchor="middle" x="798.43" y="-392.3" font-family="Times,serif" font-size="14.00">input</text>
</g>
<!-- n44 -->
<g id="node31" class="node">
<title>n44</title>
<ellipse fill="none" stroke="black" cx="1051.67" cy="-396" rx="41.69" ry="18"/>
<text text-anchor="middle" x="1051.67" y="-392.3" font-family="Times,serif" font-size="14.00">output</text>
</g>
<!-- n43&#45;&gt;n44 -->
<!-- n44&#45;&gt;n7 -->
<g id="edge31" class="edge">
<title>n44&#45;&gt;n7</title>
<path fill="none" stroke="black" d="M1088.81,-404.37C1088.81,-513.51 1088.81,-1654 1088.81,-1654 1088.81,-1654 1270.04,-1654 1270.04,-1654"/>
<polygon fill="black" stroke="black" points="1270.04,-1657.5 1280.04,-1654 1270.04,-1650.5 1270.04,-1657.5"/>
<text text-anchor="middle" x="1206.77" y="-1028.8" font-family="Times,serif" font-size="14.00">LATENCY_EMA</text>
</g>
<!-- n34 -->
<g id="node32" class="node">
<title>n34</title>
<ellipse fill="none" stroke="black" cx="1575.66" cy="-1487" rx="31.4" ry="18"/>
<text text-anchor="middle" x="1575.66" y="-1483.3" font-family="Times,serif" font-size="14.00">0.00</text>
</g>
<!-- n33 -->
<g id="node33" class="node">
<title>n33</title>
<ellipse fill="none" stroke="black" cx="2104.34" cy="-1487" rx="40.09" ry="18"/>
<text text-anchor="middle" x="2104.34" y="-1483.3" font-family="Times,serif" font-size="14.00">inputs</text>
</g>
<!-- n34&#45;&gt;n33 -->
<g id="edge13" class="edge">
<title>n34&#45;&gt;n33</title>
<path fill="none" stroke="black" d="M1607.14,-1487C1607.14,-1487 2053.86,-1487 2053.86,-1487"/>
<polygon fill="black" stroke="black" points="2053.86,-1490.5 2063.86,-1487 2053.86,-1483.5 2053.86,-1490.5"/>
</g>
<!-- n35 -->
<g id="node34" class="node">
<title>n35</title>
<ellipse fill="none" stroke="black" cx="2655.54" cy="-1487" rx="41.69" ry="18"/>
<text text-anchor="middle" x="2655.54" y="-1483.3" font-family="Times,serif" font-size="14.00">output</text>
</g>
<!-- n33&#45;&gt;n35 -->
<!-- n65 -->
<g id="node47" class="node">
<title>n65</title>
<ellipse fill="none" stroke="black" cx="3193.28" cy="-1987" rx="48.19" ry="18"/>
<text text-anchor="middle" x="3193.28" y="-1983.3" font-family="Times,serif" font-size="14.00">on_false</text>
</g>
<!-- n35&#45;&gt;n65 -->
<g id="edge33" class="edge">
<title>n35&#45;&gt;n65</title>
<path fill="none" stroke="black" d="M2697.23,-1487C2818.05,-1487 3159.81,-1487 3159.81,-1487 3159.81,-1487 3159.81,-1963.88 3159.81,-1963.88"/>
<polygon fill="black" stroke="black" points="3156.31,-1963.88 3159.81,-1973.88 3163.31,-1963.88 3156.31,-1963.88"/>
<text text-anchor="middle" x="2902.63" y="-1568.8" font-family="Times,serif" font-size="14.00">CONCURRENCY_INCREMENT_NORMAL</text>
</g>
<!-- n51 -->
<g id="node38" class="node">
<title>n51</title>
<ellipse fill="none" stroke="black" cx="3661.02" cy="-321" rx="41.69" ry="18"/>
<text text-anchor="middle" x="3661.02" y="-317.3" font-family="Times,serif" font-size="14.00">output</text>
</g>
<!-- n50&#45;&gt;n51 -->
<!-- n48 -->
<g id="node37" class="node">
<title>n48</title>
<ellipse fill="none" stroke="black" cx="3193.28" cy="-294" rx="50.89" ry="18"/>
<text text-anchor="middle" x="3193.28" y="-290.3" font-family="Times,serif" font-size="14.00">optimize</text>
</g>
<!-- n51&#45;&gt;n12 -->
<g id="edge25" class="edge">
<title>n51&#45;&gt;n12</title>
<path fill="none" stroke="black" d="M3619.79,-318C3373.28,-318 2104.81,-318 2104.81,-318 2104.81,-318 2104.81,-412 2104.81,-412"/>
<polygon fill="black" stroke="black" points="2101.31,-412 2104.81,-422 2108.31,-412 2101.31,-412"/>
<text text-anchor="middle" x="2902.63" y="-451.8" font-family="Times,serif" font-size="14.00">DESIRED_CONCURRENCY</text>
</g>
<!-- n46 -->
<g id="node40" class="node">
<title>n46</title>
<ellipse fill="none" stroke="black" cx="3193.28" cy="-186" rx="38.19" ry="18"/>
<text text-anchor="middle" x="3193.28" y="-182.3" font-family="Times,serif" font-size="14.00">signal</text>
</g>
<!-- n31 -->
<g id="node42" class="node">
<title>n31</title>
<ellipse fill="none" stroke="black" cx="2655.54" cy="-1320" rx="41.69" ry="18"/>
<text text-anchor="middle" x="2655.54" y="-1316.3" font-family="Times,serif" font-size="14.00">output</text>
</g>
<!-- n30&#45;&gt;n31 -->
<!-- n31&#45;&gt;n33 -->
<g id="edge43" class="edge">
<title>n31&#45;&gt;n33</title>
<path fill="none" stroke="black" d="M2616.03,-1326C2539.79,-1326 2379.81,-1326 2379.81,-1326 2379.81,-1326 2379.81,-1481 2379.81,-1481 2379.81,-1481 2152.35,-1481 2152.35,-1481"/>
<polygon fill="black" stroke="black" points="2152.35,-1477.5 2142.35,-1481 2152.35,-1484.5 2152.35,-1477.5"/>
<text text-anchor="middle" x="2379.84" y="-1408.8" font-family="Times,serif" font-size="14.00">CONCURRENCY_INCREMENT_INTEGRAL_CAPPED</text>
</g>
<!-- n40 -->
<g id="node43" class="node">
<title>n40</title>
<ellipse fill="none" stroke="black" cx="99.6" cy="-381" rx="41.69" ry="18"/>
<text text-anchor="middle" x="99.6" y="-377.3" font-family="Times,serif" font-size="14.00">output</text>
</g>
<!-- n40&#45;&gt;n2 -->
<g id="edge35" class="edge">
<title>n40&#45;&gt;n2</title>
<path fill="none" stroke="black" d="M134.81,-371.4C134.81,-331.65 134.81,-182 134.81,-182 134.81,-182 276.95,-182 276.95,-182"/>
<polygon fill="black" stroke="black" points="276.95,-185.5 286.95,-182 276.95,-178.5 276.95,-185.5"/>
<text text-anchor="middle" x="234.19" y="-369.8" font-family="Times,serif" font-size="14.00">LATENCY</text>
</g>
<!-- n40&#45;&gt;n59 -->
<g id="edge38" class="edge">
<title>n40&#45;&gt;n59</title>
<path fill="none" stroke="black" d="M99.81,-399.38C99.81,-557.39 99.81,-1681 99.81,-1681 99.81,-1681 2104.81,-1681 2104.81,-1681 2104.81,-1681 2104.81,-1681.88 2104.81,-1681.88"/>
<polygon fill="black" stroke="black" points="2101.31,-1679.84 2104.81,-1689.84 2108.31,-1679.84 2101.31,-1679.84"/>
<text text-anchor="middle" x="927.47" y="-1895.8" font-family="Times,serif" font-size="14.00">LATENCY</text>
</g>
<!-- n40&#45;&gt;n43 -->
<g id="edge36" class="edge">
<title>n40&#45;&gt;n43</title>
<path fill="none" stroke="black" d="M137.66,-388.5C137.66,-388.5 756.5,-388.5 756.5,-388.5"/>
<polygon fill="black" stroke="black" points="756.5,-392 766.5,-388.5 756.5,-385 756.5,-392"/>
<text text-anchor="middle" x="394.19" y="-399.8" font-family="Times,serif" font-size="14.00">LATENCY</text>
</g>
<!-- n40&#45;&gt;n46 -->
<g id="edge37" class="edge">
<title>n40&#45;&gt;n46</title>
<path fill="none" stroke="black" d="M137.81,-373.78C137.81,-341.62 137.81,-213 137.81,-213 137.81,-213 3193.81,-213 3193.81,-213 3193.81,-213 3193.81,-212.12 3193.81,-212.12"/>
<polygon fill="black" stroke="black" points="3197.31,-214.16 3193.81,-204.16 3190.31,-214.16 3197.31,-214.16"/>
<text text-anchor="middle" x="1206.77" y="-3.8" font-family="Times,serif" font-size="14.00">LATENCY</text>
</g>
<!-- n38 -->
<g id="node45" class="node">
<title>n38</title>
<ellipse fill="none" stroke="black" cx="2655.54" cy="-902" rx="41.69" ry="18"/>
<text text-anchor="middle" x="2655.54" y="-898.3" font-family="Times,serif" font-size="14.00">output</text>
</g>
<!-- n37&#45;&gt;n38 -->
<!-- n38&#45;&gt;n21 -->
<g id="edge34" class="edge">
<title>n38&#45;&gt;n21</title>
<path fill="none" stroke="black" d="M2692.81,-910.05C2692.81,-943.41 2692.81,-1069 2692.81,-1069 2692.81,-1069 3156.01,-1069 3156.01,-1069"/>
<polygon fill="black" stroke="black" points="3156.01,-1072.5 3166.01,-1069 3156.01,-1065.5 3156.01,-1072.5"/>
<text text-anchor="middle" x="2902.63" y="-988.8" font-family="Times,serif" font-size="14.00">SQRT_CONCURRENCY_INCREMENT</text>
</g>
<!-- n64 -->
<g id="node46" class="node">
<title>n64</title>
<ellipse fill="none" stroke="black" cx="2655.54" cy="-2095" rx="31.4" ry="18"/>
<text text-anchor="middle" x="2655.54" y="-2091.3" font-family="Times,serif" font-size="14.00">0.00</text>
</g>
<!-- n63 -->
<g id="node48" class="node">
<title>n63</title>
<ellipse fill="none" stroke="black" cx="3193.28" cy="-2095" rx="46.29" ry="18"/>
<text text-anchor="middle" x="3193.28" y="-2091.3" font-family="Times,serif" font-size="14.00">on_true</text>
</g>
<!-- n64&#45;&gt;n63 -->
<g id="edge18" class="edge">
<title>n64&#45;&gt;n63</title>
<path fill="none" stroke="black" d="M2686.77,-2095C2686.77,-2095 3136.87,-2095 3136.87,-2095"/>
<polygon fill="black" stroke="black" points="3136.87,-2098.5 3146.87,-2095 3136.87,-2091.5 3136.87,-2098.5"/>
</g>
<!-- n67 -->
<g id="node49" class="node">
<title>n67</title>
<ellipse fill="none" stroke="black" cx="3661.02" cy="-1987" rx="41.69" ry="18"/>
<text text-anchor="middle" x="3661.02" y="-1983.3" font-family="Times,serif" font-size="14.00">output</text>
</g>
<!-- n67&#45;&gt;n26 -->
<g id="edge39" class="edge">
<title>n67&#45;&gt;n26</title>
<path fill="none" stroke="black" d="M3702.98,-1987C3825.45,-1987 4173.81,-1987 4173.81,-1987 4173.81,-1987 4173.81,-1302.34 4173.81,-1302.34"/>
<polygon fill="black" stroke="black" points="4177.31,-1302.34 4173.81,-1292.34 4170.31,-1302.34 4177.31,-1302.34"/>
<text text-anchor="middle" x="3924.61" y="-1673.8" font-family="Times,serif" font-size="14.00">CONCURRENCY_INCREMENT</text>
</g>
<!-- n67&#45;&gt;n48 -->
<g id="edge40" class="edge">
<title>n67&#45;&gt;n48</title>
<path fill="none" stroke="black" d="M3619.29,-1987C3557.73,-1987 3449.81,-1987 3449.81,-1987 3449.81,-1987 3449.81,-309 3449.81,-309 3449.81,-309 3231.71,-309 3231.71,-309"/>
<polygon fill="black" stroke="black" points="3231.71,-305.5 3221.71,-309 3231.71,-312.5 3231.71,-305.5"/>
<text text-anchor="middle" x="3448.92" y="-1285.8" font-family="Times,serif" font-size="14.00">CONCURRENCY_INCREMENT</text>
</g>
<!-- n66&#45;&gt;n67 -->
</g>
</svg>
