<svg xmlns="http://www.w3.org/2000/svg" xmlns:xlink="http://www.w3.org/1999/xlink" width="5952" height="2560pt" viewBox="0 0 4463.85 2560"><g id="graph0" class="graph" transform="scale(1 1) rotate(0) translate(4 2556)"><polygon fill="#fff" stroke="none" points="-4 4 -4 -2556 4459.85 -2556 4459.85 4 -4 4"/><g id="clust1" class="cluster"><title>cluster_s1</title><polygon fill="none" stroke="#000" points="18.4 -1373 18.4 -1586 580.39 -1586 580.39 -1373 18.4 -1373"/><text x="299.39" y="-1570.8" font-family="Times,serif" font-size="14" text-anchor="middle">ArithmeticCombinator[0]</text></g><g id="clust4" class="cluster"><title>cluster_s6</title><polygon fill="none" stroke="#000" points="970.47 -1598 970.47 -1811 1736.25 -1811 1736.25 -1598 970.47 -1598"/><text x="1353.36" y="-1795.8" font-family="Times,serif" font-size="14" text-anchor="middle">ArithmeticCombinator[1]</text></g><g id="clust7" class="cluster"><title>cluster_s11</title><polygon fill="none" stroke="#000" points="2096.34 -396 2096.34 -609 2821.98 -609 2821.98 -396 2096.34 -396"/><text x="2459.16" y="-593.8" font-family="Times,serif" font-size="14" text-anchor="middle">ArithmeticCombinator[2]</text></g><g id="clust10" class="cluster"><title>cluster_s15</title><polygon fill="none" stroke="#000" points="1563.46 -2331 1563.46 -2544 2821.98 -2544 2821.98 -2331 1563.46 -2331"/><text x="2192.72" y="-2528.8" font-family="Times,serif" font-size="14" text-anchor="middle">ArithmeticCombinator[3]</text></g><g id="clust13" class="cluster"><title>cluster_s20</title><polygon fill="none" stroke="#000" points="2649.19 -175 2649.19 -388 3713.37 -388 3713.37 -175 2649.19 -175"/><text x="3181.28" y="-372.8" font-family="Times,serif" font-size="14" text-anchor="middle">ArithmeticCombinator[4]</text></g><g id="clust16" class="cluster"><title>cluster_s25</title><polygon fill="none" stroke="#000" points="4115.51 -671 4115.51 -884 4447.85 -884 4447.85 -671 4115.51 -671"/><text x="4281.68" y="-868.8" font-family="Times,serif" font-size="14" text-anchor="middle">ArithmeticCombinator[5]</text></g><g id="clust19" class="cluster"><title>cluster_s56</title><polygon fill="none" stroke="#000" points="1430.27 -456 1430.27 -1001 1859.04 -1001 1859.04 -456 1430.27 -456"/><text x="1644.66" y="-985.8" font-family="Times,serif" font-size="14" text-anchor="middle">ConcurrencyLimiter[13]</text></g><g id="clust20" class="cluster"><title>cluster_s60</title><polygon fill="none" stroke="#000" points="1514.06 -506 1514.06 -665 1775.25 -665 1775.25 -506 1514.06 -506"/><text x="1644.66" y="-649.8" font-family="Times,serif" font-size="14" text-anchor="middle">LoadActuator[13.LoadActuator]</text></g><g id="clust22" class="cluster"><title>cluster_s57</title><polygon fill="none" stroke="#000" points="1480.27 -715 1480.27 -928 1809.04 -928 1809.04 -715 1480.27 -715"/><text x="1644.66" y="-912.8" font-family="Times,serif" font-size="14" text-anchor="middle">Scheduler[13.Scheduler]</text></g><g id="clust24" class="cluster"><title>cluster_s62</title><polygon fill="none" stroke="#000" points="2096.34 -1450 2096.34 -1663 2821.98 -1663 2821.98 -1450 2096.34 -1450"/><text x="2459.16" y="-1647.8" font-family="Times,serif" font-size="14" text-anchor="middle">Decider[14]</text></g><g id="clust27" class="cluster"><title>cluster_s45</title><polygon fill="none" stroke="#000" points="672.39 -1377 672.39 -1590 1143.27 -1590 1143.27 -1377 672.39 -1377"/><text x="907.83" y="-1574.8" font-family="Times,serif" font-size="14" text-anchor="middle">EMA[11]</text></g><g id="clust30" class="cluster"><title>cluster_s32</title><polygon fill="none" stroke="#000" points="1563.46 -1171 1563.46 -1330 2821.98 -1330 2821.98 -1171 1563.46 -1171"/><text x="2192.72" y="-1314.8" font-family="Times,serif" font-size="14" text-anchor="middle">FirstValid[7]</text></g><g id="clust33" class="cluster"><title>cluster_s49</title><polygon fill="none" stroke="#000" points="4057.37 -1627 4057.37 -2002 4447.85 -2002 4447.85 -1627 4057.37 -1627"/><text x="4252.61" y="-1986.8" font-family="Times,serif" font-size="14" text-anchor="middle">Gradient[12]</text></g><g id="clust36" class="cluster"><title>cluster_s36</title><polygon fill="none" stroke="#000" points="2643.34 -2164 2643.34 -2323 3713.37 -2323 3713.37 -2164 2643.34 -2164"/><text x="3178.35" y="-2307.8" font-family="Times,serif" font-size="14" text-anchor="middle">Max[8]</text></g><g id="clust39" class="cluster"><title>cluster_s29</title><polygon fill="none" stroke="#000" points="2083.04 -1004 2083.04 -1163 2821.98 -1163 2821.98 -1004 2083.04 -1004"/><text x="2452.51" y="-1147.8" font-family="Times,serif" font-size="14" text-anchor="middle">Min[6]</text></g><g id="clust42" class="cluster"><title>cluster_s43</title><polygon fill="none" stroke="#000" points="8 -1594 8 -1753 191.19 -1753 191.19 -1594 8 -1594"/><text x="99.6" y="-1737.8" font-family="Times,serif" font-size="14" text-anchor="middle">PromQL[10]</text></g><g id="clust44" class="cluster"><title>cluster_s40</title><polygon fill="none" stroke="#000" points="2088.24 -8 2088.24 -167 2821.98 -167 2821.98 -8 2088.24 -8"/><text x="2455.11" y="-151.8" font-family="Times,serif" font-size="14" text-anchor="middle">Sqrt[9]</text></g><g id="clust47" class="cluster"><title>cluster_s66</title><polygon fill="none" stroke="#000" points="2643.34 -1889 2643.34 -2156 3713.37 -2156 3713.37 -1889 2643.34 -1889"/><text x="3178.35" y="-2140.8" font-family="Times,serif" font-size="14" text-anchor="middle">Switcher[15]</text></g><g id="clust50" class="cluster"><title>cluster_s72</title><polygon fill="none" stroke="#000" points="2649.19 -617 2649.19 -884 3713.37 -884 3713.37 -617 2649.19 -617"/><text x="3181.28" y="-868.8" font-family="Times,serif" font-size="14" text-anchor="middle">Switcher[16]</text></g><g id="node1" class="node"><title>n4</title><ellipse cx="99.6" cy="-1441" fill="none" stroke="#000" rx="31.4" ry="18"/><text x="99.6" y="-1437.3" font-family="Times,serif" font-size="14" text-anchor="middle">2.00</text></g><g id="node4" class="node"><title>n3</title><ellipse cx="314.19" cy="-1441" fill="none" stroke="#000" rx="27" ry="18"/><text x="314.19" y="-1437.3" font-family="Times,serif" font-size="14" text-anchor="middle">rhs</text></g><g id="edge1" class="edge"><title>n4-&gt;n3</title><path fill="none" stroke="#000" d="M130.8,-1441C130.8,-1441 277.03,-1441 277.03,-1441"/><polygon fill="#000" stroke="#000" points="277.03 -1444.5 287.03 -1441 277.03 -1437.5 277.03 -1444.5"/></g><g id="node2" class="node"><title>n2</title><ellipse cx="314.19" cy="-1495" fill="none" stroke="#000" rx="27" ry="18"/><text x="314.19" y="-1491.3" font-family="Times,serif" font-size="14" text-anchor="middle">lhs</text></g><g id="node3" class="node"><title>n5</title><ellipse cx="488.79" cy="-1442" fill="none" stroke="#000" rx="41.69" ry="18"/><text x="488.79" y="-1438.3" font-family="Times,serif" font-size="14" text-anchor="middle">output</text></g><g id="node30" class="node"><title>n46</title><ellipse cx="798.43" cy="-1445" fill="none" stroke="#000" rx="76.09" ry="18"/><text x="798.43" y="-1441.3" font-family="Times,serif" font-size="14" text-anchor="middle">max_envelope</text></g><g id="edge48" class="edge"><title>n5-&gt;n46</title><path fill="none" stroke="#000" d="M530.55,-1443.5C530.55,-1443.5 712.63,-1443.5 712.63,-1443.5"/><polygon fill="#000" stroke="#000" points="712.63 -1447 722.63 -1443.5 712.63 -1440 712.63 -1447"/><text x="626.39" y="-1446.8" font-family="Times,serif" font-size="14" text-anchor="middle">MAX_EMA</text></g><g id="node5" class="node"><title>n9</title><ellipse cx="1051.67" cy="-1720" fill="none" stroke="#000" rx="31.4" ry="18"/><text x="1051.67" y="-1716.3" font-family="Times,serif" font-size="14" text-anchor="middle">1.10</text></g><g id="node8" class="node"><title>n8</title><ellipse cx="1307.27" cy="-1720" fill="none" stroke="#000" rx="27" ry="18"/><text x="1307.27" y="-1716.3" font-family="Times,serif" font-size="14" text-anchor="middle">rhs</text></g><g id="edge3" class="edge"><title>n9-&gt;n8</title><path fill="none" stroke="#000" d="M1083.01,-1720C1083.01,-1720 1269.96,-1720 1269.96,-1720"/><polygon fill="#000" stroke="#000" points="1269.96 -1723.5 1279.96 -1720 1269.96 -1716.5 1269.96 -1723.5"/></g><g id="node6" class="node"><title>n7</title><ellipse cx="1307.27" cy="-1666" fill="none" stroke="#000" rx="27" ry="18"/><text x="1307.27" y="-1662.3" font-family="Times,serif" font-size="14" text-anchor="middle">lhs</text></g><g id="node7" class="node"><title>n10</title><ellipse cx="1644.66" cy="-1720" fill="none" stroke="#000" rx="41.69" ry="18"/><text x="1644.66" y="-1716.3" font-family="Times,serif" font-size="14" text-anchor="middle">output</text></g><g id="node28" class="node"><title>n64</title><ellipse cx="2173.34" cy="-1572" fill="none" stroke="#000" rx="27" ry="18"/><text x="2173.34" y="-1568.3" font-family="Times,serif" font-size="14" text-anchor="middle">rhs</text></g><g id="edge30" class="edge"><title>n10-&gt;n64</title><path fill="none" stroke="#000" d="M1681.85,-1711.62C1681.85,-1680.31 1681.85,-1572 1681.85,-1572 1681.85,-1572 2136.22,-1572 2136.22,-1572"/><polygon fill="#000" stroke="#000" points="2136.22 -1575.5 2146.22 -1572 2136.22 -1568.5 2136.22 -1575.5"/><text x="1971.04" y="-1635.8" font-family="Times,serif" font-size="14" text-anchor="middle">LATENCY_SETPOINT</text></g><g id="node39" class="node"><title>n51</title><ellipse cx="4192.51" cy="-1749" fill="none" stroke="#000" rx="48.99" ry="18"/><text x="4192.51" y="-1745.3" font-family="Times,serif" font-size="14" text-anchor="middle">setpoint</text></g><g id="edge29" class="edge"><title>n10-&gt;n51</title><path fill="none" stroke="#000" d="M1669.46,-1734.5C1669.46,-1734.5 4153.44,-1734.5 4153.44,-1734.5"/><polygon fill="#000" stroke="#000" points="4153.44 -1738 4163.44 -1734.5 4153.44 -1731 4153.44 -1738"/><text x="2977.48" y="-1726.8" font-family="Times,serif" font-size="14" text-anchor="middle">LATENCY_SETPOINT</text></g><g id="node9" class="node"><title>n12</title><ellipse cx="2173.34" cy="-518" fill="none" stroke="#000" rx="27" ry="18"/><text x="2173.34" y="-514.3" font-family="Times,serif" font-size="14" text-anchor="middle">lhs</text></g><g id="node10" class="node"><title>n14</title><ellipse cx="2730.39" cy="-464" fill="none" stroke="#000" rx="41.69" ry="18"/><text x="2730.39" y="-460.3" font-family="Times,serif" font-size="14" text-anchor="middle">output</text></g><g id="node23" class="node"><title>n61</title><ellipse cx="1644.66" cy="-574" fill="none" stroke="#000" rx="80.69" ry="18"/><text x="1644.66" y="-570.3" font-family="Times,serif" font-size="14" text-anchor="middle">load_multiplier</text></g><g id="edge31" class="edge"><title>n14-&gt;n61</title><path fill="none" stroke="#000" d="M2694.85,-473.38C2694.85,-499.98 2694.85,-574 2694.85,-574 2694.85,-574 1735.32,-574 1735.32,-574"/><polygon fill="#000" stroke="#000" points="1735.32 -570.5 1725.32 -574 1735.32 -577.5 1735.32 -570.5"/><text x="2173.34" y="-416.8" font-family="Times,serif" font-size="14" text-anchor="middle">LOAD_MULTIPLIER</text></g><g id="node11" class="node"><title>n13</title><ellipse cx="2173.34" cy="-464" fill="none" stroke="#000" rx="27" ry="18"/><text x="2173.34" y="-460.3" font-family="Times,serif" font-size="14" text-anchor="middle">rhs</text></g><g id="node12" class="node"><title>n17</title><ellipse cx="1644.66" cy="-2453" fill="none" stroke="#000" rx="31.4" ry="18"/><text x="1644.66" y="-2449.3" font-family="Times,serif" font-size="14" text-anchor="middle">2.00</text></g><g id="node13" class="node"><title>n16</title><ellipse cx="2173.34" cy="-2453" fill="none" stroke="#000" rx="27" ry="18"/><text x="2173.34" y="-2449.3" font-family="Times,serif" font-size="14" text-anchor="middle">lhs</text></g><g id="edge6" class="edge"><title>n17-&gt;n16</title><path fill="none" stroke="#000" d="M1676.14,-2453C1676.14,-2453 2136.21,-2453 2136.21,-2453"/><polygon fill="#000" stroke="#000" points="2136.21 -2456.5 2146.21 -2453 2136.21 -2449.5 2136.21 -2456.5"/></g><g id="node14" class="node"><title>n19</title><ellipse cx="2730.39" cy="-2399" fill="none" stroke="#000" rx="41.69" ry="18"/><text x="2730.39" y="-2395.3" font-family="Times,serif" font-size="14" text-anchor="middle">output</text></g><g id="node42" class="node"><title>n37</title><ellipse cx="3191.08" cy="-2232" fill="none" stroke="#000" rx="40.09" ry="18"/><text x="3191.08" y="-2228.3" font-family="Times,serif" font-size="14" text-anchor="middle">inputs</text></g><g id="edge44" class="edge"><title>n19-&gt;n37</title><path fill="none" stroke="#000" d="M2772.15,-2399C2885.75,-2399 3191.85,-2399 3191.85,-2399 3191.85,-2399 3191.85,-2260.19 3191.85,-2260.19"/><polygon fill="#000" stroke="#000" points="3195.35 -2260.19 3191.85 -2250.19 3188.35 -2260.19 3195.35 -2260.19"/><text x="2977.48" y="-2330.8" font-family="Times,serif" font-size="14" text-anchor="middle">UPPER_CONCURRENCY_LIMIT</text></g><g id="node15" class="node"><title>n18</title><ellipse cx="2173.34" cy="-2399" fill="none" stroke="#000" rx="27" ry="18"/><text x="2173.34" y="-2395.3" font-family="Times,serif" font-size="14" text-anchor="middle">rhs</text></g><g id="node16" class="node"><title>n22</title><ellipse cx="2730.39" cy="-297" fill="none" stroke="#000" rx="31.4" ry="18"/><text x="2730.39" y="-293.3" font-family="Times,serif" font-size="14" text-anchor="middle">5.00</text></g><g id="node17" class="node"><title>n21</title><ellipse cx="3191.08" cy="-297" fill="none" stroke="#000" rx="27" ry="18"/><text x="3191.08" y="-293.3" font-family="Times,serif" font-size="14" text-anchor="middle">lhs</text></g><g id="edge8" class="edge"><title>n22-&gt;n21</title><path fill="none" stroke="#000" d="M2761.69,-297C2761.69,-297 3153.86,-297 3153.86,-297"/><polygon fill="#000" stroke="#000" points="3153.86 -300.5 3163.86 -297 3153.86 -293.5 3153.86 -300.5"/></g><g id="node18" class="node"><title>n24</title><ellipse cx="3621.77" cy="-270" fill="none" stroke="#000" rx="41.69" ry="18"/><text x="3621.77" y="-266.3" font-family="Times,serif" font-size="14" text-anchor="middle">output</text></g><g id="node20" class="node"><title>n26</title><ellipse cx="4192.51" cy="-739" fill="none" stroke="#000" rx="27" ry="18"/><text x="4192.51" y="-735.3" font-family="Times,serif" font-size="14" text-anchor="middle">lhs</text></g><g id="edge34" class="edge"><title>n24-&gt;n26</title><path fill="none" stroke="#000" d="M3663.76,-270C3795.65,-270 4192.85,-270 4192.85,-270 4192.85,-270 4192.85,-710.9 4192.85,-710.9"/><polygon fill="#000" stroke="#000" points="4189.35 -710.9 4192.85 -720.9 4196.35 -710.9 4189.35 -710.9"/><text x="3885.37" y="-521.8" font-family="Times,serif" font-size="14" text-anchor="middle">CONCURRENCY_INCREMENT_SINGLE_TICK</text></g><g id="node19" class="node"><title>n23</title><ellipse cx="3191.08" cy="-243" fill="none" stroke="#000" rx="27" ry="18"/><text x="3191.08" y="-239.3" font-family="Times,serif" font-size="14" text-anchor="middle">rhs</text></g><g id="node21" class="node"><title>n28</title><ellipse cx="4356.25" cy="-793" fill="none" stroke="#000" rx="41.69" ry="18"/><text x="4356.25" y="-789.3" font-family="Times,serif" font-size="14" text-anchor="middle">output</text></g><g id="node44" class="node"><title>n30</title><ellipse cx="2173.34" cy="-1072" fill="none" stroke="#000" rx="40.09" ry="18"/><text x="2173.34" y="-1068.3" font-family="Times,serif" font-size="14" text-anchor="middle">inputs</text></g><g id="edge35" class="edge"><title>n28-&gt;n30</title><path fill="none" stroke="#000" d="M4356.85,-811.17C4356.85,-813.45 4356.85,-815 4356.85,-815 4356.85,-815 2204.85,-815 2204.85,-815 2204.85,-815 2204.85,-1050.63 2204.85,-1050.63"/><polygon fill="#000" stroke="#000" points="2201.35 -1050.63 2204.85 -1060.63 2208.35 -1050.63 2201.35 -1050.63"/><text x="3409.68" y="-967.8" font-family="Times,serif" font-size="14" text-anchor="middle">CONCURRENCY_INCREMENT_INTEGRAL</text></g><g id="node22" class="node"><title>n27</title><ellipse cx="4192.51" cy="-793" fill="none" stroke="#000" rx="27" ry="18"/><text x="4192.51" y="-789.3" font-family="Times,serif" font-size="14" text-anchor="middle">rhs</text></g><g id="node24" class="node"><title>n58</title><ellipse cx="1644.66" cy="-837" fill="none" stroke="#000" rx="113.98" ry="18"/><text x="1644.66" y="-833.3" font-family="Times,serif" font-size="14" text-anchor="middle">accepted_concurrency</text></g><g id="edge24" class="edge"><title>n58-&gt;n18</title><path fill="none" stroke="#000" d="M1710.85,-851.96C1710.85,-1011.81 1710.85,-2399 1710.85,-2399 1710.85,-2399 2136.14,-2399 2136.14,-2399"/><polygon fill="#000" stroke="#000" points="2136.14 -2402.5 2146.14 -2399 2136.14 -2395.5 2136.14 -2402.5"/><text x="1971.04" y="-1803.8" font-family="Times,serif" font-size="14" text-anchor="middle">ACCEPTED_CONCURRENCY</text></g><g id="node35" class="node"><title>n54</title><ellipse cx="4192.51" cy="-1695" fill="none" stroke="#000" rx="85.29" ry="18"/><text x="4192.51" y="-1691.3" font-family="Times,serif" font-size="14" text-anchor="middle">control_variable</text></g><g id="edge27" class="edge"><title>n58-&gt;n54</title><path fill="none" stroke="#000" d="M1734.85,-847.97C1734.85,-946.84 1734.85,-1680.5 1734.85,-1680.5 1734.85,-1680.5 4132.02,-1680.5 4132.02,-1680.5"/><polygon fill="#000" stroke="#000" points="4132.02 -1684 4142.02 -1680.5 4132.02 -1677 4132.02 -1684"/><text x="2977.48" y="-1393.8" font-family="Times,serif" font-size="14" text-anchor="middle">ACCEPTED_CONCURRENCY</text></g><g id="edge25" class="edge"><title>n58-&gt;n30</title><path fill="none" stroke="#000" d="M1752.05,-843C1898.76,-843 2143.85,-843 2143.85,-843 2143.85,-843 2143.85,-1049.69 2143.85,-1049.69"/><polygon fill="#000" stroke="#000" points="2140.35 -1049.69 2143.85 -1059.69 2147.35 -1049.69 2140.35 -1049.69"/><text x="1971.04" y="-893.8" font-family="Times,serif" font-size="14" text-anchor="middle">ACCEPTED_CONCURRENCY</text></g><g id="node47" class="node"><title>n41</title><ellipse cx="2173.34" cy="-76" fill="none" stroke="#000" rx="35.19" ry="18"/><text x="2173.34" y="-72.3" font-family="Times,serif" font-size="14" text-anchor="middle">input</text></g><g id="edge26" class="edge"><title>n58-&gt;n41</title><path fill="none" stroke="#000" d="M1751.93,-831C1898.09,-831 2141.85,-831 2141.85,-831 2141.85,-831 2141.85,-93.97 2141.85,-93.97"/><polygon fill="#000" stroke="#000" points="2145.35 -93.97 2141.85 -83.97 2138.35 -93.97 2145.35 -93.97"/><text x="1971.04" y="-787.8" font-family="Times,serif" font-size="14" text-anchor="middle">ACCEPTED_CONCURRENCY</text></g><g id="node25" class="node"><title>n59</title><ellipse cx="1644.66" cy="-783" fill="none" stroke="#000" rx="114.28" ry="18"/><text x="1644.66" y="-779.3" font-family="Times,serif" font-size="14" text-anchor="middle">incoming_concurrency</text></g><g id="edge28" class="edge"><title>n59-&gt;n13</title><path fill="none" stroke="#000" d="M1742.85,-773.45C1742.85,-720.38 1742.85,-464 1742.85,-464 1742.85,-464 2136.09,-464 2136.09,-464"/><polygon fill="#000" stroke="#000" points="2136.09 -467.5 2146.09 -464 2136.09 -460.5 2136.09 -467.5"/><text x="1971.04" y="-527.8" font-family="Times,serif" font-size="14" text-anchor="middle">INCOMING_CONCURRENCY</text></g><g id="node26" class="node"><title>n63</title><ellipse cx="2173.34" cy="-1518" fill="none" stroke="#000" rx="27" ry="18"/><text x="2173.34" y="-1514.3" font-family="Times,serif" font-size="14" text-anchor="middle">lhs</text></g><g id="node27" class="node"><title>n65</title><ellipse cx="2730.39" cy="-1572" fill="none" stroke="#000" rx="41.69" ry="18"/><text x="2730.39" y="-1568.3" font-family="Times,serif" font-size="14" text-anchor="middle">output</text></g><g id="node53" class="node"><title>n67</title><ellipse cx="3191.08" cy="-2011" fill="none" stroke="#000" rx="40.89" ry="18"/><text x="3191.08" y="-2007.3" font-family="Times,serif" font-size="14" text-anchor="middle">switch</text></g><g id="edge42" class="edge"><title>n65-&gt;n67</title><path fill="none" stroke="#000" d="M2730.85,-1590.03C2730.85,-1672.64 2730.85,-2011 2730.85,-2011 2730.85,-2011 3139.83,-2011 3139.83,-2011"/><polygon fill="#000" stroke="#000" points="3139.83 -2014.5 3149.83 -2011 3139.83 -2007.5 3139.83 -2014.5"/><text x="2977.48" y="-1802.8" font-family="Times,serif" font-size="14" text-anchor="middle">IS_OVERLOAD_SWITCH</text></g><g id="node58" class="node"><title>n76</title><ellipse cx="3191.08" cy="-793" fill="none" stroke="#000" rx="40.89" ry="18"/><text x="3191.08" y="-789.3" font-family="Times,serif" font-size="14" text-anchor="middle">switch</text></g><g id="edge43" class="edge"><title>n65-&gt;n76</title><path fill="none" stroke="#000" d="M2772.15,-1572C2885.75,-1572 3191.85,-1572 3191.85,-1572 3191.85,-1572 3191.85,-821.11 3191.85,-821.11"/><polygon fill="#000" stroke="#000" points="3195.35 -821.11 3191.85 -811.11 3188.35 -821.11 3195.35 -821.11"/><text x="2977.48" y="-1503.8" font-family="Times,serif" font-size="14" text-anchor="middle">IS_OVERLOAD_SWITCH</text></g><g id="node29" class="node"><title>n47</title><ellipse cx="798.43" cy="-1499" fill="none" stroke="#000" rx="35.19" ry="18"/><text x="798.43" y="-1495.3" font-family="Times,serif" font-size="14" text-anchor="middle">input</text></g><g id="node31" class="node"><title>n48</title><ellipse cx="1051.67" cy="-1499" fill="none" stroke="#000" rx="41.69" ry="18"/><text x="1051.67" y="-1495.3" font-family="Times,serif" font-size="14" text-anchor="middle">output</text></g><g id="edge47" class="edge"><title>n48-&gt;n7</title><path fill="none" stroke="#000" d="M1088.85,-1507.22C1088.85,-1541.24 1088.85,-1669.33 1088.85,-1669.33 1088.85,-1669.33 1270.48,-1669.33 1270.48,-1669.33"/><polygon fill="#000" stroke="#000" points="1270.48 -1672.83 1280.48 -1669.33 1270.48 -1665.83 1270.48 -1672.83"/><text x="1206.77" y="-1585.8" font-family="Times,serif" font-size="14" text-anchor="middle">LATENCY_EMA</text></g><g id="node32" class="node"><title>n34</title><ellipse cx="1644.66" cy="-1239" fill="none" stroke="#000" rx="31.4" ry="18"/><text x="1644.66" y="-1235.3" font-family="Times,serif" font-size="14" text-anchor="middle">0.00</text></g><g id="node33" class="node"><title>n33</title><ellipse cx="2173.34" cy="-1239" fill="none" stroke="#000" rx="40.09" ry="18"/><text x="2173.34" y="-1235.3" font-family="Times,serif" font-size="14" text-anchor="middle">inputs</text></g><g id="edge13" class="edge"><title>n34-&gt;n33</title><path fill="none" stroke="#000" d="M1676.14,-1239C1676.14,-1239 2122.86,-1239 2122.86,-1239"/><polygon fill="#000" stroke="#000" points="2122.86 -1242.5 2132.86 -1239 2122.86 -1235.5 2122.86 -1242.5"/></g><g id="node34" class="node"><title>n35</title><ellipse cx="2730.39" cy="-1239" fill="none" stroke="#000" rx="41.69" ry="18"/><text x="2730.39" y="-1235.3" font-family="Times,serif" font-size="14" text-anchor="middle">output</text></g><g id="node50" class="node"><title>n70</title><ellipse cx="3191.08" cy="-1957" fill="none" stroke="#000" rx="48.19" ry="18"/><text x="3191.08" y="-1953.3" font-family="Times,serif" font-size="14" text-anchor="middle">on_false</text></g><g id="edge45" class="edge"><title>n35-&gt;n70</title><path fill="none" stroke="#000" d="M2769.85,-1245C2873.55,-1245 3145.85,-1245 3145.85,-1245 3145.85,-1245 3145.85,-1940.84 3145.85,-1940.84"/><polygon fill="#000" stroke="#000" points="3142.35 -1940.84 3145.85 -1950.84 3149.35 -1940.84 3142.35 -1940.84"/><text x="2977.48" y="-1764.8" font-family="Times,serif" font-size="14" text-anchor="middle">CONCURRENCY_INCREMENT_NORMAL</text></g><g id="node55" class="node"><title>n75</title><ellipse cx="3191.08" cy="-739" fill="none" stroke="#000" rx="48.19" ry="18"/><text x="3191.08" y="-735.3" font-family="Times,serif" font-size="14" text-anchor="middle">on_false</text></g><g id="edge46" class="edge"><title>n35-&gt;n75</title><path fill="none" stroke="#000" d="M2769.66,-1233C2873.58,-1233 3147.85,-1233 3147.85,-1233 3147.85,-1233 3147.85,-757.16 3147.85,-757.16"/><polygon fill="#000" stroke="#000" points="3151.35 -757.16 3147.85 -747.16 3144.35 -757.16 3151.35 -757.16"/><text x="2977.48" y="-831.8" font-family="Times,serif" font-size="14" text-anchor="middle">CONCURRENCY_INCREMENT_NORMAL</text></g><g id="node38" class="node"><title>n55</title><ellipse cx="4356.25" cy="-1695" fill="none" stroke="#000" rx="41.69" ry="18"/><text x="4356.25" y="-1691.3" font-family="Times,serif" font-size="14" text-anchor="middle">output</text></g><g id="node36" class="node"><title>n53</title><ellipse cx="4192.51" cy="-1911" fill="none" stroke="#000" rx="30.59" ry="18"/><text x="4192.51" y="-1907.3" font-family="Times,serif" font-size="14" text-anchor="middle">max</text></g><g id="node37" class="node"><title>n52</title><ellipse cx="4192.51" cy="-1857" fill="none" stroke="#000" rx="50.89" ry="18"/><text x="4192.51" y="-1853.3" font-family="Times,serif" font-size="14" text-anchor="middle">optimize</text></g><g id="edge41" class="edge"><title>n55-&gt;n12</title><path fill="none" stroke="#000" d="M4316.96,-1689C4305.91,-1689 4296.85,-1689 4296.85,-1689 4296.85,-1689 4296.85,-518 4296.85,-518 4296.85,-518 2210.58,-518 2210.58,-518"/><polygon fill="#000" stroke="#000" points="2210.58 -514.5 2200.58 -518 2210.58 -521.5 2210.58 -514.5"/><text x="3409.68" y="-1005.8" font-family="Times,serif" font-size="14" text-anchor="middle">DESIRED_CONCURRENCY</text></g><g id="node40" class="node"><title>n50</title><ellipse cx="4192.51" cy="-1803" fill="none" stroke="#000" rx="38.19" ry="18"/><text x="4192.51" y="-1799.3" font-family="Times,serif" font-size="14" text-anchor="middle">signal</text></g><g id="node41" class="node"><title>n38</title><ellipse cx="2730.39" cy="-2232" fill="none" stroke="#000" rx="37.09" ry="18"/><text x="2730.39" y="-2228.3" font-family="Times,serif" font-size="14" text-anchor="middle">10.00</text></g><g id="edge16" class="edge"><title>n38-&gt;n37</title><path fill="none" stroke="#000" d="M2767.7,-2232C2767.7,-2232 3140.47,-2232 3140.47,-2232"/><polygon fill="#000" stroke="#000" points="3140.47 -2235.5 3150.47 -2232 3140.47 -2228.5 3140.47 -2235.5"/></g><g id="node43" class="node"><title>n39</title><ellipse cx="3621.77" cy="-2232" fill="none" stroke="#000" rx="41.69" ry="18"/><text x="3621.77" y="-2228.3" font-family="Times,serif" font-size="14" text-anchor="middle">output</text></g><g id="edge36" class="edge"><title>n39-&gt;n53</title><path fill="none" stroke="#000" d="M3663.76,-2232C3795.65,-2232 4192.85,-2232 4192.85,-2232 4192.85,-2232 4192.85,-1939.18 4192.85,-1939.18"/><polygon fill="#000" stroke="#000" points="4196.35 -1939.18 4192.85 -1929.18 4189.35 -1939.18 4196.35 -1939.18"/><text x="3885.37" y="-2092.8" font-family="Times,serif" font-size="14" text-anchor="middle">MAX_CONCURRENCY</text></g><g id="node45" class="node"><title>n31</title><ellipse cx="2730.39" cy="-1072" fill="none" stroke="#000" rx="41.69" ry="18"/><text x="2730.39" y="-1068.3" font-family="Times,serif" font-size="14" text-anchor="middle">output</text></g><g id="edge49" class="edge"><title>n31-&gt;n33</title><path fill="none" stroke="#000" d="M2691.07,-1078C2614.29,-1078 2451.85,-1078 2451.85,-1078 2451.85,-1078 2451.85,-1233 2451.85,-1233 2451.85,-1233 2221.48,-1233 2221.48,-1233"/><polygon fill="#000" stroke="#000" points="2221.48 -1229.5 2211.48 -1233 2221.48 -1236.5 2221.48 -1229.5"/><text x="2448.84" y="-1160.8" font-family="Times,serif" font-size="14" text-anchor="middle">CONCURRENCY_INCREMENT_INTEGRAL_CAPPED</text></g><g id="node46" class="node"><title>n44</title><ellipse cx="99.6" cy="-1662" fill="none" stroke="#000" rx="41.69" ry="18"/><text x="99.6" y="-1658.3" font-family="Times,serif" font-size="14" text-anchor="middle">output</text></g><g id="edge37" class="edge"><title>n44-&gt;n2</title><path fill="none" stroke="#000" d="M134.85,-1652.05C134.85,-1616.1 134.85,-1495 134.85,-1495 134.85,-1495 276.95,-1495 276.95,-1495"/><polygon fill="#000" stroke="#000" points="276.95 -1498.5 286.95 -1495 276.95 -1491.5 276.95 -1498.5"/><text x="234.19" y="-1564.8" font-family="Times,serif" font-size="14" text-anchor="middle">LATENCY</text></g><g id="edge40" class="edge"><title>n44-&gt;n63</title><path fill="none" stroke="#000" d="M137.85,-1654.71C137.85,-1626.57 137.85,-1526.5 137.85,-1526.5 137.85,-1526.5 2139.42,-1526.5 2139.42,-1526.5"/><polygon fill="#000" stroke="#000" points="2139.42 -1530 2149.42 -1526.5 2139.42 -1523 2139.42 -1530"/><text x="927.47" y="-1315.8" font-family="Times,serif" font-size="14" text-anchor="middle">LATENCY</text></g><g id="edge38" class="edge"><title>n44-&gt;n47</title><path fill="none" stroke="#000" d="M140.73,-1658.67C290.62,-1658.67 798.85,-1658.67 798.85,-1658.67 798.85,-1658.67 798.85,-1527.01 798.85,-1527.01"/><polygon fill="#000" stroke="#000" points="802.35 -1527.01 798.85 -1517.01 795.35 -1527.01 802.35 -1527.01"/><text x="394.19" y="-1661.8" font-family="Times,serif" font-size="14" text-anchor="middle">LATENCY</text></g><g id="edge39" class="edge"><title>n44-&gt;n50</title><path fill="none" stroke="#000" d="M99.85,-1680.14C99.85,-1718.23 99.85,-1803 99.85,-1803 99.85,-1803 4143.97,-1803 4143.97,-1803"/><polygon fill="#000" stroke="#000" points="4143.97 -1806.5 4153.97 -1803 4143.97 -1799.5 4143.97 -1806.5"/><text x="1387.27" y="-1882.8" font-family="Times,serif" font-size="14" text-anchor="middle">LATENCY</text></g><g id="node48" class="node"><title>n42</title><ellipse cx="2730.39" cy="-76" fill="none" stroke="#000" rx="41.69" ry="18"/><text x="2730.39" y="-72.3" font-family="Times,serif" font-size="14" text-anchor="middle">output</text></g><g id="edge32" class="edge"><title>n42-&gt;n23</title><path fill="none" stroke="#000" d="M2766.85,-84.98C2766.85,-119.67 2766.85,-243 2766.85,-243 2766.85,-243 3153.9,-243 3153.9,-243"/><polygon fill="#000" stroke="#000" points="3153.9 -246.5 3163.9 -243 3153.9 -239.5 3153.9 -246.5"/><text x="2977.48" y="-162.8" font-family="Times,serif" font-size="14" text-anchor="middle">SQRT_CONCURRENCY_INCREMENT</text></g><g id="node49" class="node"><title>n69</title><ellipse cx="2730.39" cy="-2065" fill="none" stroke="#000" rx="37.09" ry="18"/><text x="2730.39" y="-2061.3" font-family="Times,serif" font-size="14" text-anchor="middle">10.00</text></g><g id="node51" class="node"><title>n68</title><ellipse cx="3191.08" cy="-2065" fill="none" stroke="#000" rx="46.29" ry="18"/><text x="3191.08" y="-2061.3" font-family="Times,serif" font-size="14" text-anchor="middle">on_true</text></g><g id="edge20" class="edge"><title>n69-&gt;n68</title><path fill="none" stroke="#000" d="M2767.7,-2065C2767.7,-2065 3134.65,-2065 3134.65,-2065"/><polygon fill="#000" stroke="#000" points="3134.65 -2068.5 3144.65 -2065 3134.65 -2061.5 3134.65 -2068.5"/></g><g id="node52" class="node"><title>n71</title><ellipse cx="3621.77" cy="-1957" fill="none" stroke="#000" rx="41.69" ry="18"/><text x="3621.77" y="-1953.3" font-family="Times,serif" font-size="14" text-anchor="middle">output</text></g><g id="edge33" class="edge"><title>n71-&gt;n52</title><path fill="none" stroke="#000" d="M3663.44,-1957C3788.64,-1957 4152.85,-1957 4152.85,-1957 4152.85,-1957 4152.85,-1878.47 4152.85,-1878.47"/><polygon fill="#000" stroke="#000" points="4156.35 -1878.47 4152.85 -1868.47 4149.35 -1878.47 4156.35 -1878.47"/><text x="3885.37" y="-1912.8" font-family="Times,serif" font-size="14" text-anchor="middle">CONCURRENCY_INCREMENT</text></g><g id="node54" class="node"><title>n74</title><ellipse cx="2730.39" cy="-685" fill="none" stroke="#000" rx="31.4" ry="18"/><text x="2730.39" y="-681.3" font-family="Times,serif" font-size="14" text-anchor="middle">0.00</text></g><g id="node56" class="node"><title>n73</title><ellipse cx="3191.08" cy="-685" fill="none" stroke="#000" rx="46.29" ry="18"/><text x="3191.08" y="-681.3" font-family="Times,serif" font-size="14" text-anchor="middle">on_true</text></g><g id="edge22" class="edge"><title>n74-&gt;n73</title><path fill="none" stroke="#000" d="M2761.69,-685C2761.69,-685 3134.82,-685 3134.82,-685"/><polygon fill="#000" stroke="#000" points="3134.82 -688.5 3144.82 -685 3134.82 -681.5 3134.82 -688.5"/></g><g id="node57" class="node"><title>n77</title><ellipse cx="3621.77" cy="-793" fill="none" stroke="#000" rx="41.69" ry="18"/><text x="3621.77" y="-789.3" font-family="Times,serif" font-size="14" text-anchor="middle">output</text></g><g id="edge50" class="edge"><title>n77-&gt;n27</title><path fill="none" stroke="#000" d="M3663.74,-793C3663.74,-793 4155.33,-793 4155.33,-793"/><polygon fill="#000" stroke="#000" points="4155.33 -796.5 4165.33 -793 4155.33 -789.5 4155.33 -796.5"/><text x="3885.37" y="-796.8" font-family="Times,serif" font-size="14" text-anchor="middle">CONCURRENCY_INCREMENT_FEEDBACK</text></g></g></svg>