<svg xmlns="http://www.w3.org/2000/svg" xmlns:xlink="http://www.w3.org/1999/xlink" width="3893pt" height="2908" viewBox="0 0 3893.33 2181"><g id="graph0" class="graph" transform="scale(1 1) rotate(0) translate(4 2177)"><polygon fill="#fff" stroke="none" points="-4 4 -4 -2177 3889.33 -2177 3889.33 4 -4 4"/><g id="clust1" class="cluster"><title>cluster_s1</title><polygon fill="none" stroke="#000" points="14.15 -1164 14.15 -1377 530.59 -1377 530.59 -1164 14.15 -1164"/><text x="272.37" y="-1361.8" font-family="Times,serif" font-size="14" text-anchor="middle">ArithmeticCombinator[0]</text></g><g id="clust4" class="cluster"><title>cluster_s6</title><polygon fill="none" stroke="#000" points="879.38 -1885 879.38 -2098 1521.96 -2098 1521.96 -1885 879.38 -1885"/><text x="1200.67" y="-2082.8" font-family="Times,serif" font-size="14" text-anchor="middle">ArithmeticCombinator[1]</text></g><g id="clust7" class="cluster"><title>cluster_s11</title><polygon fill="none" stroke="#000" points="1831.6 -396 1831.6 -609 2449.25 -609 2449.25 -396 1831.6 -396"/><text x="2140.43" y="-593.8" font-family="Times,serif" font-size="14" text-anchor="middle">ArithmeticCombinator[2]</text></g><g id="clust10" class="cluster"><title>cluster_s15</title><polygon fill="none" stroke="#000" points="1361.82 -793 1361.82 -1006 2449.25 -1006 2449.25 -793 1361.82 -793"/><text x="1905.53" y="-990.8" font-family="Times,serif" font-size="14" text-anchor="middle">ArithmeticCombinator[3]</text></g><g id="clust13" class="cluster"><title>cluster_s20</title><polygon fill="none" stroke="#000" points="2289.1 -8 2289.1 -221 3322.03 -221 3322.03 -8 2289.1 -8"/><text x="2805.57" y="-205.8" font-family="Times,serif" font-size="14" text-anchor="middle">ArithmeticCombinator[4]</text></g><g id="clust16" class="cluster"><title>cluster_s25</title><polygon fill="none" stroke="#000" points="3620.03 -1331 3620.03 -1544 3877.33 -1544 3877.33 -1331 3620.03 -1331"/><text x="3748.68" y="-1528.8" font-family="Times,serif" font-size="14" text-anchor="middle">ArithmeticCombinator[5]</text></g><g id="clust19" class="cluster"><title>cluster_s55</title><polygon fill="none" stroke="#000" points="1246.52 -240 1246.52 -785 1631.11 -785 1631.11 -240 1246.52 -240"/><text x="1438.82" y="-769.8" font-family="Times,serif" font-size="14" text-anchor="middle">ConcurrencyLimiter[13]</text></g><g id="clust20" class="cluster"><title>cluster_s59</title><polygon fill="none" stroke="#000" points="1323.17 -290 1323.17 -449 1554.46 -449 1554.46 -290 1323.17 -290"/><text x="1438.82" y="-433.8" font-family="Times,serif" font-size="14" text-anchor="middle">LoadActuator[13.LoadActuator]</text></g><g id="clust22" class="cluster"><title>cluster_s56</title><polygon fill="none" stroke="#000" points="1296.52 -499 1296.52 -712 1581.11 -712 1581.11 -499 1296.52 -499"/><text x="1438.82" y="-696.8" font-family="Times,serif" font-size="14" text-anchor="middle">Scheduler[13.Scheduler]</text></g><g id="clust24" class="cluster"><title>cluster_s61</title><polygon fill="none" stroke="#000" points="1831.6 -1902 1831.6 -2115 2449.25 -2115 2449.25 -1902 1831.6 -1902"/><text x="2140.43" y="-2099.8" font-family="Times,serif" font-size="14" text-anchor="middle">Decider[14]</text></g><g id="clust27" class="cluster"><title>cluster_s41</title><polygon fill="none" stroke="#000" points="616.59 -1378 616.59 -1591 1039.52 -1591 1039.52 -1378 616.59 -1378"/><text x="828.06" y="-1575.8" font-family="Times,serif" font-size="14" text-anchor="middle">EMA[10]</text></g><g id="clust30" class="cluster"><title>cluster_s52</title><polygon fill="none" stroke="#000" points="2759.9 -462 2759.9 -621 3322.03 -621 3322.03 -462 2759.9 -462"/><text x="3040.96" y="-605.8" font-family="Times,serif" font-size="14" text-anchor="middle">Extrapolator[12]</text></g><g id="clust33" class="cluster"><title>cluster_s32</title><polygon fill="none" stroke="#000" points="1361.82 -1718 1361.82 -1877 2449.25 -1877 2449.25 -1718 1361.82 -1718"/><text x="1905.53" y="-1861.8" font-family="Times,serif" font-size="14" text-anchor="middle">FirstValid[7]</text></g><g id="clust36" class="cluster"><title>cluster_s45</title><polygon fill="none" stroke="#000" points="2720.25 -807 2720.25 -1182 3322.03 -1182 3322.03 -807 2720.25 -807"/><text x="3021.14" y="-1166.8" font-family="Times,serif" font-size="14" text-anchor="middle">Gradient[11]</text></g><g id="clust39" class="cluster"><title>cluster_s29</title><polygon fill="none" stroke="#000" points="1826.11 -1164 1826.11 -1323 2449.25 -1323 2449.25 -1164 1826.11 -1164"/><text x="2137.68" y="-1307.8" font-family="Times,serif" font-size="14" text-anchor="middle">Min[6]</text></g><g id="clust42" class="cluster"><title>cluster_s39</title><polygon fill="none" stroke="#000" points="8 -1417 8 -1576 174.29 -1576 174.29 -1417 8 -1417"/><text x="91.15" y="-1560.8" font-family="Times,serif" font-size="14" text-anchor="middle">PromQL[9]</text></g><g id="clust44" class="cluster"><title>cluster_s36</title><polygon fill="none" stroke="#000" points="1830.01 -229 1830.01 -388 2449.25 -388 2449.25 -229 1830.01 -229"/><text x="2139.63" y="-372.8" font-family="Times,serif" font-size="14" text-anchor="middle">Sqrt[8]</text></g><g id="clust47" class="cluster"><title>cluster_s65</title><polygon fill="none" stroke="#000" points="2289.1 -1331 2289.1 -1598 3322.03 -1598 3322.03 -1331 2289.1 -1331"/><text x="2805.57" y="-1582.8" font-family="Times,serif" font-size="14" text-anchor="middle">Switcher[15]</text></g><g id="node1" class="node"><title>n4</title><ellipse cx="91.15" cy="-1232" fill="none" stroke="#000" rx="27" ry="18"/><text x="91.15" y="-1228.3" font-family="Times,serif" font-size="14" text-anchor="middle">2.00</text></g><g id="node4" class="node"><title>n3</title><ellipse cx="289.29" cy="-1232" fill="none" stroke="#000" rx="27" ry="18"/><text x="289.29" y="-1228.3" font-family="Times,serif" font-size="14" text-anchor="middle">rhs</text></g><g id="edge1" class="edge"><title>n4-&gt;n3</title><path fill="none" stroke="#000" d="M118.28,-1232C118.28,-1232 252.17,-1232 252.17,-1232"/><polygon fill="#000" stroke="#000" points="252.17 -1235.5 262.17 -1232 252.17 -1228.5 252.17 -1235.5"/></g><g id="node2" class="node"><title>n2</title><ellipse cx="289.29" cy="-1286" fill="none" stroke="#000" rx="27" ry="18"/><text x="289.29" y="-1282.3" font-family="Times,serif" font-size="14" text-anchor="middle">lhs</text></g><g id="node3" class="node"><title>n5</title><ellipse cx="447.44" cy="-1259" fill="none" stroke="#000" rx="33.29" ry="18"/><text x="447.44" y="-1255.3" font-family="Times,serif" font-size="14" text-anchor="middle">output</text></g><g id="node30" class="node"><title>n43</title><ellipse cx="728.98" cy="-1446" fill="none" stroke="#000" rx="62.29" ry="18"/><text x="728.98" y="-1442.3" font-family="Times,serif" font-size="14" text-anchor="middle">max_envelope</text></g><g id="edge26" class="edge"><title>n5-&gt;n43</title><path fill="none" stroke="#000" d="M448.33,-1277.27C448.33,-1324.32 448.33,-1446 448.33,-1446 448.33,-1446 656.35,-1446 656.35,-1446"/><polygon fill="#000" stroke="#000" points="656.35 -1449.5 666.35 -1446 656.35 -1442.5 656.35 -1449.5"/><text x="573.59" y="-1369.8" font-family="Times,serif" font-size="14" text-anchor="middle">MAX_EMA</text></g><g id="node5" class="node"><title>n8</title><ellipse cx="956.38" cy="-2007" fill="none" stroke="#000" rx="27" ry="18"/><text x="956.38" y="-2003.3" font-family="Times,serif" font-size="14" text-anchor="middle">1.10</text></g><g id="node8" class="node"><title>n7</title><ellipse cx="1192.52" cy="-2007" fill="none" stroke="#000" rx="27" ry="18"/><text x="1192.52" y="-2003.3" font-family="Times,serif" font-size="14" text-anchor="middle">rhs</text></g><g id="edge3" class="edge"><title>n8-&gt;n7</title><path fill="none" stroke="#000" d="M983.47,-2007C983.47,-2007 1155.39,-2007 1155.39,-2007"/><polygon fill="#000" stroke="#000" points="1155.39 -2010.5 1165.39 -2007 1155.39 -2003.5 1155.39 -2010.5"/></g><g id="node6" class="node"><title>n9</title><ellipse cx="1192.52" cy="-1953" fill="none" stroke="#000" rx="27" ry="18"/><text x="1192.52" y="-1949.3" font-family="Times,serif" font-size="14" text-anchor="middle">lhs</text></g><g id="node7" class="node"><title>n10</title><ellipse cx="1438.82" cy="-1953" fill="none" stroke="#000" rx="33.29" ry="18"/><text x="1438.82" y="-1949.3" font-family="Times,serif" font-size="14" text-anchor="middle">output</text></g><g id="node28" class="node"><title>n63</title><ellipse cx="1908.6" cy="-1970" fill="none" stroke="#000" rx="27" ry="18"/><text x="1908.6" y="-1966.3" font-family="Times,serif" font-size="14" text-anchor="middle">rhs</text></g><g id="edge39" class="edge"><title>n10-&gt;n63</title><path fill="none" stroke="#000" d="M1468.2,-1961.5C1468.2,-1961.5 1874.71,-1961.5 1874.71,-1961.5"/><polygon fill="#000" stroke="#000" points="1874.71 -1965 1884.71 -1961.5 1874.71 -1958 1874.71 -1965"/><text x="1728.61" y="-1973.8" font-family="Times,serif" font-size="14" text-anchor="middle">LATENCY_SETPOINT</text></g><g id="node41" class="node"><title>n47</title><ellipse cx="2838.49" cy="-1091" fill="none" stroke="#000" rx="38.19" ry="18"/><text x="2838.49" y="-1087.3" font-family="Times,serif" font-size="14" text-anchor="middle">setpoint</text></g><g id="edge38" class="edge"><title>n10-&gt;n47</title><path fill="none" stroke="#000" d="M1467,-1943.5C1477.23,-1943.5 1486.33,-1943.5 1486.33,-1943.5 1486.33,-1943.5 1486.33,-1091 1486.33,-1091 1486.33,-1091 2789.84,-1091 2789.84,-1091"/><polygon fill="#000" stroke="#000" points="2789.84 -1094.5 2799.84 -1091 2789.84 -1087.5 2789.84 -1094.5"/><text x="2120.1" y="-1102.8" font-family="Times,serif" font-size="14" text-anchor="middle">LATENCY_SETPOINT</text></g><g id="node9" class="node"><title>n12</title><ellipse cx="1908.6" cy="-518" fill="none" stroke="#000" rx="27" ry="18"/><text x="1908.6" y="-514.3" font-family="Times,serif" font-size="14" text-anchor="middle">lhs</text></g><g id="node10" class="node"><title>n14</title><ellipse cx="2366.1" cy="-491" fill="none" stroke="#000" rx="33.29" ry="18"/><text x="2366.1" y="-487.3" font-family="Times,serif" font-size="14" text-anchor="middle">output</text></g><g id="node32" class="node"><title>n53</title><ellipse cx="2838.49" cy="-530" fill="none" stroke="#000" rx="28.7" ry="18"/><text x="2838.49" y="-526.3" font-family="Times,serif" font-size="14" text-anchor="middle">input</text></g><g id="edge31" class="edge"><title>n14-&gt;n53</title><path fill="none" stroke="#000" d="M2366.33,-509.04C2366.33,-516.75 2366.33,-524 2366.33,-524 2366.33,-524 2801.41,-524 2801.41,-524"/><polygon fill="#000" stroke="#000" points="2801.41 -527.5 2811.41 -524 2801.41 -520.5 2801.41 -527.5"/><text x="2584.75" y="-510.8" font-family="Times,serif" font-size="14" text-anchor="middle">DESIRED_CONCURRENCY_RATIO</text></g><g id="node11" class="node"><title>n13</title><ellipse cx="1908.6" cy="-464" fill="none" stroke="#000" rx="27" ry="18"/><text x="1908.6" y="-460.3" font-family="Times,serif" font-size="14" text-anchor="middle">rhs</text></g><g id="node12" class="node"><title>n17</title><ellipse cx="1438.82" cy="-915" fill="none" stroke="#000" rx="27" ry="18"/><text x="1438.82" y="-911.3" font-family="Times,serif" font-size="14" text-anchor="middle">2.00</text></g><g id="node13" class="node"><title>n16</title><ellipse cx="1908.6" cy="-915" fill="none" stroke="#000" rx="27" ry="18"/><text x="1908.6" y="-911.3" font-family="Times,serif" font-size="14" text-anchor="middle">lhs</text></g><g id="edge6" class="edge"><title>n17-&gt;n16</title><path fill="none" stroke="#000" d="M1466.1,-915C1466.1,-915 1871.53,-915 1871.53,-915"/><polygon fill="#000" stroke="#000" points="1871.53 -918.5 1881.53 -915 1871.53 -911.5 1871.53 -918.5"/></g><g id="node14" class="node"><title>n19</title><ellipse cx="2366.1" cy="-888" fill="none" stroke="#000" rx="33.29" ry="18"/><text x="2366.1" y="-884.3" font-family="Times,serif" font-size="14" text-anchor="middle">output</text></g><g id="node38" class="node"><title>n49</title><ellipse cx="2838.49" cy="-929" fill="none" stroke="#000" rx="27" ry="18"/><text x="2838.49" y="-925.3" font-family="Times,serif" font-size="14" text-anchor="middle">max</text></g><g id="edge32" class="edge"><title>n19-&gt;n49</title><path fill="none" stroke="#000" d="M2391.88,-899.5C2490.63,-899.5 2839.33,-899.5 2839.33,-899.5 2839.33,-899.5 2839.33,-900.82 2839.33,-900.82"/><polygon fill="#000" stroke="#000" points="2835.83 -900.82 2839.33 -910.82 2842.83 -900.82 2835.83 -900.82"/><text x="2584.75" y="-918.8" font-family="Times,serif" font-size="14" text-anchor="middle">NORMAL_CONCURRENCY_LIMIT</text></g><g id="node15" class="node"><title>n18</title><ellipse cx="1908.6" cy="-861" fill="none" stroke="#000" rx="27" ry="18"/><text x="1908.6" y="-857.3" font-family="Times,serif" font-size="14" text-anchor="middle">rhs</text></g><g id="node16" class="node"><title>n23</title><ellipse cx="2366.1" cy="-76" fill="none" stroke="#000" rx="27" ry="18"/><text x="2366.1" y="-72.3" font-family="Times,serif" font-size="14" text-anchor="middle">5.00</text></g><g id="node17" class="node"><title>n22</title><ellipse cx="2838.49" cy="-76" fill="none" stroke="#000" rx="27" ry="18"/><text x="2838.49" y="-72.3" font-family="Times,serif" font-size="14" text-anchor="middle">lhs</text></g><g id="edge8" class="edge"><title>n23-&gt;n22</title><path fill="none" stroke="#000" d="M2393.2,-76C2393.2,-76 2801.21,-76 2801.21,-76"/><polygon fill="#000" stroke="#000" points="2801.21 -79.5 2811.21 -76 2801.21 -72.5 2801.21 -79.5"/></g><g id="node18" class="node"><title>n24</title><ellipse cx="3238.88" cy="-116" fill="none" stroke="#000" rx="33.29" ry="18"/><text x="3238.88" y="-112.3" font-family="Times,serif" font-size="14" text-anchor="middle">output</text></g><g id="node20" class="node"><title>n26</title><ellipse cx="3697.03" cy="-1399" fill="none" stroke="#000" rx="27" ry="18"/><text x="3697.03" y="-1395.3" font-family="Times,serif" font-size="14" text-anchor="middle">lhs</text></g><g id="edge27" class="edge"><title>n24-&gt;n26</title><path fill="none" stroke="#000" d="M3272.22,-116C3377.72,-116 3697.33,-116 3697.33,-116 3697.33,-116 3697.33,-1370.86 3697.33,-1370.86"/><polygon fill="#000" stroke="#000" points="3693.83 -1370.86 3697.33 -1380.86 3700.83 -1370.86 3693.83 -1370.86"/><text x="3471.03" y="-754.8" font-family="Times,serif" font-size="14" text-anchor="middle">CONCURRENCY_INCREMENT_SINGLE_TICK</text></g><g id="node19" class="node"><title>n21</title><ellipse cx="2838.49" cy="-130" fill="none" stroke="#000" rx="27" ry="18"/><text x="2838.49" y="-126.3" font-family="Times,serif" font-size="14" text-anchor="middle">rhs</text></g><g id="node21" class="node"><title>n28</title><ellipse cx="3794.18" cy="-1453" fill="none" stroke="#000" rx="33.29" ry="18"/><text x="3794.18" y="-1449.3" font-family="Times,serif" font-size="14" text-anchor="middle">output</text></g><g id="node43" class="node"><title>n30</title><ellipse cx="1908.6" cy="-1232" fill="none" stroke="#000" rx="32.49" ry="18"/><text x="1908.6" y="-1228.3" font-family="Times,serif" font-size="14" text-anchor="middle">inputs</text></g><g id="edge28" class="edge"><title>n28-&gt;n30</title><path fill="none" stroke="#000" d="M3794.33,-1434.86C3794.33,-1432.84 3794.33,-1431.5 3794.33,-1431.5 3794.33,-1431.5 1909.33,-1431.5 1909.33,-1431.5 1909.33,-1431.5 1909.33,-1260.06 1909.33,-1260.06"/><polygon fill="#000" stroke="#000" points="1912.83 -1260.06 1909.33 -1250.06 1905.83 -1260.06 1912.83 -1260.06"/><text x="3056.24" y="-1669.8" font-family="Times,serif" font-size="14" text-anchor="middle">CONCURRENCY_INCREMENT_INTEGRAL</text></g><g id="node22" class="node"><title>n27</title><ellipse cx="3697.03" cy="-1453" fill="none" stroke="#000" rx="27" ry="18"/><text x="3697.03" y="-1449.3" font-family="Times,serif" font-size="14" text-anchor="middle">rhs</text></g><g id="node23" class="node"><title>n60</title><ellipse cx="1438.82" cy="-358" fill="none" stroke="#000" rx="65.79" ry="18"/><text x="1438.82" y="-354.3" font-family="Times,serif" font-size="14" text-anchor="middle">load_multiplier</text></g><g id="node24" class="node"><title>n57</title><ellipse cx="1438.82" cy="-621" fill="none" stroke="#000" rx="89.08" ry="18"/><text x="1438.82" y="-617.3" font-family="Times,serif" font-size="14" text-anchor="middle">accepted_concurrency</text></g><g id="edge21" class="edge"><title>n57-&gt;n18</title><path fill="none" stroke="#000" d="M1514.33,-630.71C1514.33,-675.61 1514.33,-861 1514.33,-861 1514.33,-861 1871.5,-861 1871.5,-861"/><polygon fill="#000" stroke="#000" points="1871.5 -864.5 1881.5 -861 1871.5 -857.5 1871.5 -864.5"/><text x="1728.61" y="-814.8" font-family="Times,serif" font-size="14" text-anchor="middle">ACCEPTED_CONCURRENCY</text></g><g id="node37" class="node"><title>n50</title><ellipse cx="2838.49" cy="-875" fill="none" stroke="#000" rx="68.49" ry="18"/><text x="2838.49" y="-871.3" font-family="Times,serif" font-size="14" text-anchor="middle">control_variable</text></g><g id="edge24" class="edge"><title>n57-&gt;n50</title><path fill="none" stroke="#000" d="M1522.85,-627C1818.12,-627 2790.33,-627 2790.33,-627 2790.33,-627 2790.33,-852.02 2790.33,-852.02"/><polygon fill="#000" stroke="#000" points="2786.83 -852.02 2790.33 -862.02 2793.83 -852.02 2786.83 -852.02"/><text x="2120.1" y="-731.8" font-family="Times,serif" font-size="14" text-anchor="middle">ACCEPTED_CONCURRENCY</text></g><g id="edge22" class="edge"><title>n57-&gt;n30</title><path fill="none" stroke="#000" d="M1500.33,-634.23C1500.33,-722.93 1500.33,-1227.5 1500.33,-1227.5 1500.33,-1227.5 1866.91,-1227.5 1866.91,-1227.5"/><polygon fill="#000" stroke="#000" points="1866.91 -1231 1876.91 -1227.5 1866.91 -1224 1866.91 -1231"/><text x="1728.61" y="-1077.8" font-family="Times,serif" font-size="14" text-anchor="middle">ACCEPTED_CONCURRENCY</text></g><g id="node46" class="node"><title>n37</title><ellipse cx="1908.6" cy="-297" fill="none" stroke="#000" rx="28.7" ry="18"/><text x="1908.6" y="-293.3" font-family="Times,serif" font-size="14" text-anchor="middle">input</text></g><g id="edge23" class="edge"><title>n57-&gt;n37</title><path fill="none" stroke="#000" d="M1522.82,-615C1600.61,-615 1704.33,-615 1704.33,-615 1704.33,-615 1704.33,-297 1704.33,-297 1704.33,-297 1869.77,-297 1869.77,-297"/><polygon fill="#000" stroke="#000" points="1869.77 -300.5 1879.77 -297 1869.77 -293.5 1869.77 -300.5"/><text x="1728.61" y="-701.8" font-family="Times,serif" font-size="14" text-anchor="middle">ACCEPTED_CONCURRENCY</text></g><g id="node25" class="node"><title>n58</title><ellipse cx="1438.82" cy="-567" fill="none" stroke="#000" rx="92.08" ry="18"/><text x="1438.82" y="-563.3" font-family="Times,serif" font-size="14" text-anchor="middle">incoming_concurrency</text></g><g id="edge25" class="edge"><title>n58-&gt;n13</title><path fill="none" stroke="#000" d="M1518.33,-557.86C1518.33,-532.65 1518.33,-464 1518.33,-464 1518.33,-464 1871.47,-464 1871.47,-464"/><polygon fill="#000" stroke="#000" points="1871.47 -467.5 1881.47 -464 1871.47 -460.5 1871.47 -467.5"/><text x="1728.61" y="-519.8" font-family="Times,serif" font-size="14" text-anchor="middle">INCOMING_CONCURRENCY</text></g><g id="node26" class="node"><title>n62</title><ellipse cx="1908.6" cy="-2024" fill="none" stroke="#000" rx="27" ry="18"/><text x="1908.6" y="-2020.3" font-family="Times,serif" font-size="14" text-anchor="middle">lhs</text></g><g id="node27" class="node"><title>n64</title><ellipse cx="2366.1" cy="-1970" fill="none" stroke="#000" rx="33.29" ry="18"/><text x="2366.1" y="-1966.3" font-family="Times,serif" font-size="14" text-anchor="middle">output</text></g><g id="node52" class="node"><title>n69</title><ellipse cx="2838.49" cy="-1507" fill="none" stroke="#000" rx="33.6" ry="18"/><text x="2838.49" y="-1503.3" font-family="Times,serif" font-size="14" text-anchor="middle">switch</text></g><g id="edge30" class="edge"><title>n64-&gt;n69</title><path fill="none" stroke="#000" d="M2399.38,-1970C2507.09,-1970 2839.33,-1970 2839.33,-1970 2839.33,-1970 2839.33,-1535.15 2839.33,-1535.15"/><polygon fill="#000" stroke="#000" points="2842.83 -1535.15 2839.33 -1525.15 2835.83 -1535.15 2842.83 -1535.15"/><text x="2584.75" y="-1833.8" font-family="Times,serif" font-size="14" text-anchor="middle">IS_OVERLOAD</text></g><g id="node29" class="node"><title>n42</title><ellipse cx="728.98" cy="-1500" fill="none" stroke="#000" rx="28.7" ry="18"/><text x="728.98" y="-1496.3" font-family="Times,serif" font-size="14" text-anchor="middle">input</text></g><g id="node31" class="node"><title>n44</title><ellipse cx="956.38" cy="-1486" fill="none" stroke="#000" rx="33.29" ry="18"/><text x="956.38" y="-1482.3" font-family="Times,serif" font-size="14" text-anchor="middle">output</text></g><g id="edge42" class="edge"><title>n44-&gt;n9</title><path fill="none" stroke="#000" d="M983.56,-1496.5C1045.8,-1496.5 1193.33,-1496.5 1193.33,-1496.5 1193.33,-1496.5 1193.33,-1924.82 1193.33,-1924.82"/><polygon fill="#000" stroke="#000" points="1189.83 -1924.82 1193.33 -1934.82 1196.83 -1924.82 1189.83 -1924.82"/><text x="1097.52" y="-1729.8" font-family="Times,serif" font-size="14" text-anchor="middle">LATENCY_EMA</text></g><g id="node33" class="node"><title>n54</title><ellipse cx="3238.88" cy="-530" fill="none" stroke="#000" rx="33.29" ry="18"/><text x="3238.88" y="-526.3" font-family="Times,serif" font-size="14" text-anchor="middle">output</text></g><g id="edge29" class="edge"><title>n54-&gt;n60</title><path fill="none" stroke="#000" d="M3239.33,-511.92C3239.33,-467.76 3239.33,-358 3239.33,-358 3239.33,-358 1514.5,-358 1514.5,-358"/><polygon fill="#000" stroke="#000" points="1514.5 -354.5 1504.5 -358 1514.5 -361.5 1514.5 -354.5"/><text x="2366.1" y="-680.8" font-family="Times,serif" font-size="14" text-anchor="middle">LOAD_MULTIPLIER</text></g><g id="node34" class="node"><title>n34</title><ellipse cx="1438.82" cy="-1786" fill="none" stroke="#000" rx="27" ry="18"/><text x="1438.82" y="-1782.3" font-family="Times,serif" font-size="14" text-anchor="middle">0.00</text></g><g id="node35" class="node"><title>n33</title><ellipse cx="1908.6" cy="-1786" fill="none" stroke="#000" rx="32.49" ry="18"/><text x="1908.6" y="-1782.3" font-family="Times,serif" font-size="14" text-anchor="middle">inputs</text></g><g id="edge14" class="edge"><title>n34-&gt;n33</title><path fill="none" stroke="#000" d="M1466.1,-1786C1466.1,-1786 1866.04,-1786 1866.04,-1786"/><polygon fill="#000" stroke="#000" points="1866.04 -1789.5 1876.04 -1786 1866.04 -1782.5 1866.04 -1789.5"/></g><g id="node36" class="node"><title>n35</title><ellipse cx="2366.1" cy="-1786" fill="none" stroke="#000" rx="33.29" ry="18"/><text x="2366.1" y="-1782.3" font-family="Times,serif" font-size="14" text-anchor="middle">output</text></g><g id="node49" class="node"><title>n68</title><ellipse cx="2838.49" cy="-1453" fill="none" stroke="#000" rx="40.09" ry="18"/><text x="2838.49" y="-1449.3" font-family="Times,serif" font-size="14" text-anchor="middle">on_false</text></g><g id="edge41" class="edge"><title>n35-&gt;n68</title><path fill="none" stroke="#000" d="M2366.33,-1767.91C2366.33,-1698.01 2366.33,-1449.5 2366.33,-1449.5 2366.33,-1449.5 2788.64,-1449.5 2788.64,-1449.5"/><polygon fill="#000" stroke="#000" points="2788.64 -1453 2798.64 -1449.5 2788.64 -1446 2788.64 -1453"/><text x="2584.75" y="-1543.8" font-family="Times,serif" font-size="14" text-anchor="middle">CONCURRENCY_INCREMENT_NORMAL</text></g><g id="node40" class="node"><title>n51</title><ellipse cx="3238.88" cy="-875" fill="none" stroke="#000" rx="33.29" ry="18"/><text x="3238.88" y="-871.3" font-family="Times,serif" font-size="14" text-anchor="middle">output</text></g><g id="node39" class="node"><title>n48</title><ellipse cx="2838.49" cy="-983" fill="none" stroke="#000" rx="42.49" ry="18"/><text x="2838.49" y="-979.3" font-family="Times,serif" font-size="14" text-anchor="middle">optimize</text></g><g id="edge43" class="edge"><title>n51-&gt;n12</title><path fill="none" stroke="#000" d="M3239.33,-856.93C3239.33,-820.35 3239.33,-741 3239.33,-741 3239.33,-741 1909.33,-741 1909.33,-741 1909.33,-741 1909.33,-546.25 1909.33,-546.25"/><polygon fill="#000" stroke="#000" points="1912.83 -546.25 1909.33 -536.25 1905.83 -546.25 1912.83 -546.25"/><text x="2584.75" y="-638.8" font-family="Times,serif" font-size="14" text-anchor="middle">DESIRED_CONCURRENCY</text></g><g id="node42" class="node"><title>n46</title><ellipse cx="2838.49" cy="-1037" fill="none" stroke="#000" rx="31.7" ry="18"/><text x="2838.49" y="-1033.3" font-family="Times,serif" font-size="14" text-anchor="middle">signal</text></g><g id="node44" class="node"><title>n31</title><ellipse cx="2366.1" cy="-1232" fill="none" stroke="#000" rx="33.29" ry="18"/><text x="2366.1" y="-1228.3" font-family="Times,serif" font-size="14" text-anchor="middle">output</text></g><g id="edge40" class="edge"><title>n31-&gt;n33</title><path fill="none" stroke="#000" d="M2334.77,-1238C2272.12,-1238 2137.33,-1238 2137.33,-1238 2137.33,-1238 2137.33,-1780 2137.33,-1780 2137.33,-1780 1949.45,-1780 1949.45,-1780"/><polygon fill="#000" stroke="#000" points="1949.45 -1776.5 1939.45 -1780 1949.45 -1783.5 1949.45 -1776.5"/><text x="2120.1" y="-1731.8" font-family="Times,serif" font-size="14" text-anchor="middle">CONCURRENCY_INCREMENT_INTEGRAL_CAPPED</text></g><g id="node45" class="node"><title>n40</title><ellipse cx="91.15" cy="-1485" fill="none" stroke="#000" rx="33.29" ry="18"/><text x="91.15" y="-1481.3" font-family="Times,serif" font-size="14" text-anchor="middle">output</text></g><g id="edge34" class="edge"><title>n40-&gt;n2</title><path fill="none" stroke="#000" d="M113.11,-1471.5C164.71,-1471.5 289.33,-1471.5 289.33,-1471.5 289.33,-1471.5 289.33,-1314.12 289.33,-1314.12"/><polygon fill="#000" stroke="#000" points="292.83 -1314.12 289.33 -1304.12 285.83 -1314.12 292.83 -1314.12"/><text x="213.29" y="-1473.8" font-family="Times,serif" font-size="14" text-anchor="middle">LATENCY</text></g><g id="edge37" class="edge"><title>n40-&gt;n62</title><path fill="none" stroke="#000" d="M91.33,-1503.25C91.33,-1598.42 91.33,-2033.5 91.33,-2033.5 91.33,-2033.5 1875.63,-2033.5 1875.63,-2033.5"/><polygon fill="#000" stroke="#000" points="1875.63 -2037 1885.63 -2033.5 1875.63 -2030 1875.63 -2037"/><text x="840.38" y="-2161.8" font-family="Times,serif" font-size="14" text-anchor="middle">LATENCY</text></g><g id="edge35" class="edge"><title>n40-&gt;n42</title><path fill="none" stroke="#000" d="M121.48,-1492.5C121.48,-1492.5 692.78,-1492.5 692.78,-1492.5"/><polygon fill="#000" stroke="#000" points="692.78 -1496 702.78 -1492.5 692.78 -1489 692.78 -1496"/><text x="365.29" y="-1503.8" font-family="Times,serif" font-size="14" text-anchor="middle">LATENCY</text></g><g id="edge36" class="edge"><title>n40-&gt;n46</title><path fill="none" stroke="#000" d="M118.87,-1475C256.23,-1475 857.33,-1475 857.33,-1475 857.33,-1475 857.33,-1037 857.33,-1037 857.33,-1037 2796.57,-1037 2796.57,-1037"/><polygon fill="#000" stroke="#000" points="2796.57 -1040.5 2806.57 -1037 2796.57 -1033.5 2796.57 -1040.5"/><text x="1097.52" y="-1107.8" font-family="Times,serif" font-size="14" text-anchor="middle">LATENCY</text></g><g id="node47" class="node"><title>n38</title><ellipse cx="2366.1" cy="-297" fill="none" stroke="#000" rx="33.29" ry="18"/><text x="2366.1" y="-293.3" font-family="Times,serif" font-size="14" text-anchor="middle">output</text></g><g id="edge33" class="edge"><title>n38-&gt;n21</title><path fill="none" stroke="#000" d="M2399.38,-297C2507.09,-297 2839.33,-297 2839.33,-297 2839.33,-297 2839.33,-158.19 2839.33,-158.19"/><polygon fill="#000" stroke="#000" points="2842.83 -158.19 2839.33 -148.19 2835.83 -158.19 2842.83 -158.19"/><text x="2584.75" y="-216.8" font-family="Times,serif" font-size="14" text-anchor="middle">SQRT_CONCURRENCY_INCREMENT</text></g><g id="node48" class="node"><title>n67</title><ellipse cx="2366.1" cy="-1399" fill="none" stroke="#000" rx="27" ry="18"/><text x="2366.1" y="-1395.3" font-family="Times,serif" font-size="14" text-anchor="middle">0.00</text></g><g id="node50" class="node"><title>n66</title><ellipse cx="2838.49" cy="-1399" fill="none" stroke="#000" rx="37.89" ry="18"/><text x="2838.49" y="-1395.3" font-family="Times,serif" font-size="14" text-anchor="middle">on_true</text></g><g id="edge19" class="edge"><title>n67-&gt;n66</title><path fill="none" stroke="#000" d="M2393.2,-1399C2393.2,-1399 2790.74,-1399 2790.74,-1399"/><polygon fill="#000" stroke="#000" points="2790.74 -1402.5 2800.74 -1399 2790.74 -1395.5 2790.74 -1402.5"/></g><g id="node51" class="node"><title>n70</title><ellipse cx="3238.88" cy="-1453" fill="none" stroke="#000" rx="33.29" ry="18"/><text x="3238.88" y="-1449.3" font-family="Times,serif" font-size="14" text-anchor="middle">output</text></g><g id="edge44" class="edge"><title>n70-&gt;n27</title><path fill="none" stroke="#000" d="M3272.2,-1453C3272.2,-1453 3659.76,-1453 3659.76,-1453"/><polygon fill="#000" stroke="#000" points="3659.76 -1456.5 3669.76 -1453 3659.76 -1449.5 3659.76 -1456.5"/><text x="3471.03" y="-1456.8" font-family="Times,serif" font-size="14" text-anchor="middle">CONCURRENCY_INCREMENT</text></g><g id="edge45" class="edge"><title>n70-&gt;n48</title><path fill="none" stroke="#000" d="M3239.33,-1434.86C3239.33,-1348.49 3239.33,-983 3239.33,-983 3239.33,-983 2891.01,-983 2891.01,-983"/><polygon fill="#000" stroke="#000" points="2891.01 -979.5 2881.01 -983 2891.01 -986.5 2891.01 -979.5"/><text x="3056.24" y="-1214.8" font-family="Times,serif" font-size="14" text-anchor="middle">CONCURRENCY_INCREMENT</text></g></g></svg>