<?xml version="1.0" encoding="UTF-8" standalone="no"?>
<!DOCTYPE svg PUBLIC "-//W3C//DTD SVG 1.1//EN"
 "http://www.w3.org/Graphics/SVG/1.1/DTD/svg11.dtd">
<!-- Generated by graphviz version 6.0.2 (20221011.1828)
 -->
<!-- Pages: 1 -->
<svg width="3893pt" height="2176pt"
 viewBox="0.00 0.00 3893.33 2176.00" xmlns="http://www.w3.org/2000/svg" xmlns:xlink="http://www.w3.org/1999/xlink">
<g id="graph0" class="graph" transform="scale(1 1) rotate(0) translate(4 2172)">
<polygon fill="white" stroke="none" points="-4,4 -4,-2172 3889.33,-2172 3889.33,4 -4,4"/>
<g id="clust1" class="cluster">
<title>cluster_s1</title>
<polygon fill="none" stroke="black" points="14.15,-1159 14.15,-1372 530.59,-1372 530.59,-1159 14.15,-1159"/>
<text text-anchor="middle" x="272.37" y="-1356.8" font-family="Times,serif" font-size="14.00">ArithmeticCombinator[0]</text>
</g>
<g id="clust4" class="cluster">
<title>cluster_s6</title>
<polygon fill="none" stroke="black" points="879.38,-1880 879.38,-2093 1521.96,-2093 1521.96,-1880 879.38,-1880"/>
<text text-anchor="middle" x="1200.67" y="-2077.8" font-family="Times,serif" font-size="14.00">ArithmeticCombinator[1]</text>
</g>
<g id="clust7" class="cluster">
<title>cluster_s11</title>
<polygon fill="none" stroke="black" points="1831.6,-396 1831.6,-609 2449.25,-609 2449.25,-396 1831.6,-396"/>
<text text-anchor="middle" x="2140.43" y="-593.8" font-family="Times,serif" font-size="14.00">ArithmeticCombinator[2]</text>
</g>
<g id="clust10" class="cluster">
<title>cluster_s15</title>
<polygon fill="none" stroke="black" points="1361.82,-788 1361.82,-1001 2449.25,-1001 2449.25,-788 1361.82,-788"/>
<text text-anchor="middle" x="1905.53" y="-985.8" font-family="Times,serif" font-size="14.00">ArithmeticCombinator[3]</text>
</g>
<g id="clust13" class="cluster">
<title>cluster_s20</title>
<polygon fill="none" stroke="black" points="2289.1,-8 2289.1,-221 3322.03,-221 3322.03,-8 2289.1,-8"/>
<text text-anchor="middle" x="2805.57" y="-205.8" font-family="Times,serif" font-size="14.00">ArithmeticCombinator[4]</text>
</g>
<g id="clust16" class="cluster">
<title>cluster_s25</title>
<polygon fill="none" stroke="black" points="3620.03,-1326 3620.03,-1539 3877.33,-1539 3877.33,-1326 3620.03,-1326"/>
<text text-anchor="middle" x="3748.68" y="-1523.8" font-family="Times,serif" font-size="14.00">ArithmeticCombinator[5]</text>
</g>
<g id="clust19" class="cluster">
<title>cluster_s55</title>
<polygon fill="none" stroke="black" points="1246.52,-235 1246.52,-780 1631.11,-780 1631.11,-235 1246.52,-235"/>
<text text-anchor="middle" x="1438.82" y="-764.8" font-family="Times,serif" font-size="14.00">ConcurrencyLimiter[13]</text>
</g>
<g id="clust20" class="cluster">
<title>cluster_s59</title>
<polygon fill="none" stroke="black" points="1323.17,-285 1323.17,-444 1554.46,-444 1554.46,-285 1323.17,-285"/>
<text text-anchor="middle" x="1438.82" y="-428.8" font-family="Times,serif" font-size="14.00">LoadActuator[13.LoadActuator]</text>
</g>
<g id="clust22" class="cluster">
<title>cluster_s56</title>
<polygon fill="none" stroke="black" points="1296.52,-494 1296.52,-707 1581.11,-707 1581.11,-494 1296.52,-494"/>
<text text-anchor="middle" x="1438.82" y="-691.8" font-family="Times,serif" font-size="14.00">Scheduler[13.Scheduler]</text>
</g>
<g id="clust24" class="cluster">
<title>cluster_s61</title>
<polygon fill="none" stroke="black" points="1831.6,-1915 1831.6,-2128 2449.25,-2128 2449.25,-1915 1831.6,-1915"/>
<text text-anchor="middle" x="2140.43" y="-2112.8" font-family="Times,serif" font-size="14.00">Decider[14]</text>
</g>
<g id="clust27" class="cluster">
<title>cluster_s41</title>
<polygon fill="none" stroke="black" points="616.59,-1373 616.59,-1586 1039.52,-1586 1039.52,-1373 616.59,-1373"/>
<text text-anchor="middle" x="828.06" y="-1570.8" font-family="Times,serif" font-size="14.00">EMA[10]</text>
</g>
<g id="clust30" class="cluster">
<title>cluster_s52</title>
<polygon fill="none" stroke="black" points="2759.9,-409 2759.9,-568 3322.03,-568 3322.03,-409 2759.9,-409"/>
<text text-anchor="middle" x="3040.96" y="-552.8" font-family="Times,serif" font-size="14.00">Extrapolator[12]</text>
</g>
<g id="clust33" class="cluster">
<title>cluster_s32</title>
<polygon fill="none" stroke="black" points="1361.82,-1713 1361.82,-1872 2449.25,-1872 2449.25,-1713 1361.82,-1713"/>
<text text-anchor="middle" x="1905.53" y="-1856.8" font-family="Times,serif" font-size="14.00">FirstValid[7]</text>
</g>
<g id="clust36" class="cluster">
<title>cluster_s45</title>
<polygon fill="none" stroke="black" points="2720.25,-776 2720.25,-1151 3322.03,-1151 3322.03,-776 2720.25,-776"/>
<text text-anchor="middle" x="3021.14" y="-1135.8" font-family="Times,serif" font-size="14.00">Gradient[11]</text>
</g>
<g id="clust39" class="cluster">
<title>cluster_s29</title>
<polygon fill="none" stroke="black" points="1826.11,-1159 1826.11,-1318 2449.25,-1318 2449.25,-1159 1826.11,-1159"/>
<text text-anchor="middle" x="2137.68" y="-1302.8" font-family="Times,serif" font-size="14.00">Min[6]</text>
</g>
<g id="clust42" class="cluster">
<title>cluster_s39</title>
<polygon fill="none" stroke="black" points="8,-1412 8,-1571 174.29,-1571 174.29,-1412 8,-1412"/>
<text text-anchor="middle" x="91.15" y="-1555.8" font-family="Times,serif" font-size="14.00">PromQL[9]</text>
</g>
<g id="clust44" class="cluster">
<title>cluster_s36</title>
<polygon fill="none" stroke="black" points="1830.01,-229 1830.01,-388 2449.25,-388 2449.25,-229 1830.01,-229"/>
<text text-anchor="middle" x="2139.63" y="-372.8" font-family="Times,serif" font-size="14.00">Sqrt[8]</text>
</g>
<g id="clust47" class="cluster">
<title>cluster_s65</title>
<polygon fill="none" stroke="black" points="2289.1,-1326 2289.1,-1593 3322.03,-1593 3322.03,-1326 2289.1,-1326"/>
<text text-anchor="middle" x="2805.57" y="-1577.8" font-family="Times,serif" font-size="14.00">Switcher[15]</text>
</g>
<!-- n4 -->
<g id="node1" class="node">
<title>n4</title>
<ellipse fill="none" stroke="black" cx="91.15" cy="-1227" rx="27" ry="18"/>
<text text-anchor="middle" x="91.15" y="-1223.3" font-family="Times,serif" font-size="14.00">2.00</text>
</g>
<!-- n3 -->
<g id="node4" class="node">
<title>n3</title>
<ellipse fill="none" stroke="black" cx="289.29" cy="-1227" rx="27" ry="18"/>
<text text-anchor="middle" x="289.29" y="-1223.3" font-family="Times,serif" font-size="14.00">rhs</text>
</g>
<!-- n4&#45;&gt;n3 -->
<g id="edge1" class="edge">
<title>n4&#45;&gt;n3</title>
<path fill="none" stroke="black" d="M118.28,-1227C118.28,-1227 252.17,-1227 252.17,-1227"/>
<polygon fill="black" stroke="black" points="252.17,-1230.5 262.17,-1227 252.17,-1223.5 252.17,-1230.5"/>
</g>
<!-- n2 -->
<g id="node2" class="node">
<title>n2</title>
<ellipse fill="none" stroke="black" cx="289.29" cy="-1281" rx="27" ry="18"/>
<text text-anchor="middle" x="289.29" y="-1277.3" font-family="Times,serif" font-size="14.00">lhs</text>
</g>
<!-- n5 -->
<g id="node3" class="node">
<title>n5</title>
<ellipse fill="none" stroke="black" cx="447.44" cy="-1267" rx="33.29" ry="18"/>
<text text-anchor="middle" x="447.44" y="-1263.3" font-family="Times,serif" font-size="14.00">output</text>
</g>
<!-- n43 -->
<g id="node30" class="node">
<title>n43</title>
<ellipse fill="none" stroke="black" cx="728.98" cy="-1441" rx="62.29" ry="18"/>
<text text-anchor="middle" x="728.98" y="-1437.3" font-family="Times,serif" font-size="14.00">max_envelope</text>
</g>
<!-- n5&#45;&gt;n43 -->
<g id="edge42" class="edge">
<title>n5&#45;&gt;n43</title>
<path fill="none" stroke="black" d="M448.33,-1285.29C448.33,-1329.97 448.33,-1441 448.33,-1441 448.33,-1441 656.35,-1441 656.35,-1441"/>
<polygon fill="black" stroke="black" points="656.35,-1444.5 666.35,-1441 656.35,-1437.5 656.35,-1444.5"/>
<text text-anchor="middle" x="573.59" y="-1363.8" font-family="Times,serif" font-size="14.00">MAX_EMA</text>
</g>
<!-- n3&#45;&gt;n5 -->
<!-- n9 -->
<g id="node5" class="node">
<title>n9</title>
<ellipse fill="none" stroke="black" cx="956.38" cy="-2002" rx="27" ry="18"/>
<text text-anchor="middle" x="956.38" y="-1998.3" font-family="Times,serif" font-size="14.00">1.10</text>
</g>
<!-- n8 -->
<g id="node8" class="node">
<title>n8</title>
<ellipse fill="none" stroke="black" cx="1192.52" cy="-2002" rx="27" ry="18"/>
<text text-anchor="middle" x="1192.52" y="-1998.3" font-family="Times,serif" font-size="14.00">rhs</text>
</g>
<!-- n9&#45;&gt;n8 -->
<g id="edge3" class="edge">
<title>n9&#45;&gt;n8</title>
<path fill="none" stroke="black" d="M983.47,-2002C983.47,-2002 1155.39,-2002 1155.39,-2002"/>
<polygon fill="black" stroke="black" points="1155.39,-2005.5 1165.39,-2002 1155.39,-1998.5 1155.39,-2005.5"/>
</g>
<!-- n7 -->
<g id="node6" class="node">
<title>n7</title>
<ellipse fill="none" stroke="black" cx="1192.52" cy="-1948" rx="27" ry="18"/>
<text text-anchor="middle" x="1192.52" y="-1944.3" font-family="Times,serif" font-size="14.00">lhs</text>
</g>
<!-- n10 -->
<g id="node7" class="node">
<title>n10</title>
<ellipse fill="none" stroke="black" cx="1438.82" cy="-1983" rx="33.29" ry="18"/>
<text text-anchor="middle" x="1438.82" y="-1979.3" font-family="Times,serif" font-size="14.00">output</text>
</g>
<!-- n63 -->
<g id="node28" class="node">
<title>n63</title>
<ellipse fill="none" stroke="black" cx="1908.6" cy="-1983" rx="27" ry="18"/>
<text text-anchor="middle" x="1908.6" y="-1979.3" font-family="Times,serif" font-size="14.00">rhs</text>
</g>
<!-- n10&#45;&gt;n63 -->
<g id="edge44" class="edge">
<title>n10&#45;&gt;n63</title>
<path fill="none" stroke="black" d="M1470.37,-1989C1470.37,-1989 1873.08,-1989 1873.08,-1989"/>
<polygon fill="black" stroke="black" points="1873.08,-1992.5 1883.08,-1989 1873.08,-1985.5 1873.08,-1992.5"/>
<text text-anchor="middle" x="1728.61" y="-1986.8" font-family="Times,serif" font-size="14.00">LATENCY_SETPOINT</text>
</g>
<!-- n48 -->
<g id="node41" class="node">
<title>n48</title>
<ellipse fill="none" stroke="black" cx="2838.49" cy="-1060" rx="38.19" ry="18"/>
<text text-anchor="middle" x="2838.49" y="-1056.3" font-family="Times,serif" font-size="14.00">setpoint</text>
</g>
<!-- n10&#45;&gt;n48 -->
<g id="edge43" class="edge">
<title>n10&#45;&gt;n48</title>
<path fill="none" stroke="black" d="M1470.21,-1977C1477.58,-1977 1483.33,-1977 1483.33,-1977 1483.33,-1977 1483.33,-1060 1483.33,-1060 1483.33,-1060 2790.12,-1060 2790.12,-1060"/>
<polygon fill="black" stroke="black" points="2790.12,-1063.5 2800.12,-1060 2790.12,-1056.5 2790.12,-1063.5"/>
<text text-anchor="middle" x="2120.1" y="-1097.8" font-family="Times,serif" font-size="14.00">LATENCY_SETPOINT</text>
</g>
<!-- n8&#45;&gt;n10 -->
<!-- n12 -->
<g id="node9" class="node">
<title>n12</title>
<ellipse fill="none" stroke="black" cx="1908.6" cy="-518" rx="27" ry="18"/>
<text text-anchor="middle" x="1908.6" y="-514.3" font-family="Times,serif" font-size="14.00">lhs</text>
</g>
<!-- n14 -->
<g id="node10" class="node">
<title>n14</title>
<ellipse fill="none" stroke="black" cx="2366.1" cy="-465" rx="33.29" ry="18"/>
<text text-anchor="middle" x="2366.1" y="-461.3" font-family="Times,serif" font-size="14.00">output</text>
</g>
<!-- n53 -->
<g id="node32" class="node">
<title>n53</title>
<ellipse fill="none" stroke="black" cx="2838.49" cy="-477" rx="28.7" ry="18"/>
<text text-anchor="middle" x="2838.49" y="-473.3" font-family="Times,serif" font-size="14.00">input</text>
</g>
<!-- n14&#45;&gt;n53 -->
<g id="edge27" class="edge">
<title>n14&#45;&gt;n53</title>
<path fill="none" stroke="black" d="M2397.46,-471C2397.46,-471 2801.34,-471 2801.34,-471"/>
<polygon fill="black" stroke="black" points="2801.34,-474.5 2811.34,-471 2801.34,-467.5 2801.34,-474.5"/>
<text text-anchor="middle" x="2584.75" y="-472.8" font-family="Times,serif" font-size="14.00">DESIRED_CONCURRENCY_RATIO</text>
</g>
<!-- n13 -->
<g id="node11" class="node">
<title>n13</title>
<ellipse fill="none" stroke="black" cx="1908.6" cy="-464" rx="27" ry="18"/>
<text text-anchor="middle" x="1908.6" y="-460.3" font-family="Times,serif" font-size="14.00">rhs</text>
</g>
<!-- n13&#45;&gt;n14 -->
<!-- n17 -->
<g id="node12" class="node">
<title>n17</title>
<ellipse fill="none" stroke="black" cx="1438.82" cy="-910" rx="27" ry="18"/>
<text text-anchor="middle" x="1438.82" y="-906.3" font-family="Times,serif" font-size="14.00">2.00</text>
</g>
<!-- n16 -->
<g id="node13" class="node">
<title>n16</title>
<ellipse fill="none" stroke="black" cx="1908.6" cy="-910" rx="27" ry="18"/>
<text text-anchor="middle" x="1908.6" y="-906.3" font-family="Times,serif" font-size="14.00">lhs</text>
</g>
<!-- n17&#45;&gt;n16 -->
<g id="edge6" class="edge">
<title>n17&#45;&gt;n16</title>
<path fill="none" stroke="black" d="M1466.1,-910C1466.1,-910 1871.53,-910 1871.53,-910"/>
<polygon fill="black" stroke="black" points="1871.53,-913.5 1881.53,-910 1871.53,-906.5 1871.53,-913.5"/>
</g>
<!-- n19 -->
<g id="node14" class="node">
<title>n19</title>
<ellipse fill="none" stroke="black" cx="2366.1" cy="-887" rx="33.29" ry="18"/>
<text text-anchor="middle" x="2366.1" y="-883.3" font-family="Times,serif" font-size="14.00">output</text>
</g>
<!-- n50 -->
<g id="node38" class="node">
<title>n50</title>
<ellipse fill="none" stroke="black" cx="2838.49" cy="-898" rx="27" ry="18"/>
<text text-anchor="middle" x="2838.49" y="-894.3" font-family="Times,serif" font-size="14.00">max</text>
</g>
<!-- n19&#45;&gt;n50 -->
<g id="edge45" class="edge">
<title>n19&#45;&gt;n50</title>
<path fill="none" stroke="black" d="M2397.83,-892.5C2397.83,-892.5 2802.55,-892.5 2802.55,-892.5"/>
<polygon fill="black" stroke="black" points="2802.55,-896 2812.55,-892.5 2802.55,-889 2802.55,-896"/>
<text text-anchor="middle" x="2584.75" y="-896.8" font-family="Times,serif" font-size="14.00">NORMAL_CONCURRENCY_LIMIT</text>
</g>
<!-- n18 -->
<g id="node15" class="node">
<title>n18</title>
<ellipse fill="none" stroke="black" cx="1908.6" cy="-856" rx="27" ry="18"/>
<text text-anchor="middle" x="1908.6" y="-852.3" font-family="Times,serif" font-size="14.00">rhs</text>
</g>
<!-- n18&#45;&gt;n19 -->
<!-- n22 -->
<g id="node16" class="node">
<title>n22</title>
<ellipse fill="none" stroke="black" cx="2366.1" cy="-76" rx="27" ry="18"/>
<text text-anchor="middle" x="2366.1" y="-72.3" font-family="Times,serif" font-size="14.00">5.00</text>
</g>
<!-- n21 -->
<g id="node17" class="node">
<title>n21</title>
<ellipse fill="none" stroke="black" cx="2838.49" cy="-76" rx="27" ry="18"/>
<text text-anchor="middle" x="2838.49" y="-72.3" font-family="Times,serif" font-size="14.00">lhs</text>
</g>
<!-- n22&#45;&gt;n21 -->
<g id="edge8" class="edge">
<title>n22&#45;&gt;n21</title>
<path fill="none" stroke="black" d="M2393.2,-76C2393.2,-76 2801.21,-76 2801.21,-76"/>
<polygon fill="black" stroke="black" points="2801.21,-79.5 2811.21,-76 2801.21,-72.5 2801.21,-79.5"/>
</g>
<!-- n24 -->
<g id="node18" class="node">
<title>n24</title>
<ellipse fill="none" stroke="black" cx="3238.88" cy="-130" rx="33.29" ry="18"/>
<text text-anchor="middle" x="3238.88" y="-126.3" font-family="Times,serif" font-size="14.00">output</text>
</g>
<!-- n26 -->
<g id="node20" class="node">
<title>n26</title>
<ellipse fill="none" stroke="black" cx="3697.03" cy="-1394" rx="27" ry="18"/>
<text text-anchor="middle" x="3697.03" y="-1390.3" font-family="Times,serif" font-size="14.00">lhs</text>
</g>
<!-- n24&#45;&gt;n26 -->
<g id="edge38" class="edge">
<title>n24&#45;&gt;n26</title>
<path fill="none" stroke="black" d="M3272.22,-130C3377.72,-130 3697.33,-130 3697.33,-130 3697.33,-130 3697.33,-1365.64 3697.33,-1365.64"/>
<polygon fill="black" stroke="black" points="3693.83,-1365.64 3697.33,-1375.64 3700.83,-1365.64 3693.83,-1365.64"/>
<text text-anchor="middle" x="3471.03" y="-765.8" font-family="Times,serif" font-size="14.00">CONCURRENCY_INCREMENT_SINGLE_TICK</text>
</g>
<!-- n23 -->
<g id="node19" class="node">
<title>n23</title>
<ellipse fill="none" stroke="black" cx="2838.49" cy="-130" rx="27" ry="18"/>
<text text-anchor="middle" x="2838.49" y="-126.3" font-family="Times,serif" font-size="14.00">rhs</text>
</g>
<!-- n23&#45;&gt;n24 -->
<!-- n28 -->
<g id="node21" class="node">
<title>n28</title>
<ellipse fill="none" stroke="black" cx="3794.18" cy="-1448" rx="33.29" ry="18"/>
<text text-anchor="middle" x="3794.18" y="-1444.3" font-family="Times,serif" font-size="14.00">output</text>
</g>
<!-- n30 -->
<g id="node43" class="node">
<title>n30</title>
<ellipse fill="none" stroke="black" cx="1908.6" cy="-1227" rx="32.49" ry="18"/>
<text text-anchor="middle" x="1908.6" y="-1223.3" font-family="Times,serif" font-size="14.00">inputs</text>
</g>
<!-- n28&#45;&gt;n30 -->
<g id="edge32" class="edge">
<title>n28&#45;&gt;n30</title>
<path fill="none" stroke="black" d="M3794.33,-1429.86C3794.33,-1427.84 3794.33,-1426.5 3794.33,-1426.5 3794.33,-1426.5 1909.33,-1426.5 1909.33,-1426.5 1909.33,-1426.5 1909.33,-1255.06 1909.33,-1255.06"/>
<polygon fill="black" stroke="black" points="1912.83,-1255.06 1909.33,-1245.06 1905.83,-1255.06 1912.83,-1255.06"/>
<text text-anchor="middle" x="3056.24" y="-1664.8" font-family="Times,serif" font-size="14.00">CONCURRENCY_INCREMENT_INTEGRAL</text>
</g>
<!-- n27 -->
<g id="node22" class="node">
<title>n27</title>
<ellipse fill="none" stroke="black" cx="3697.03" cy="-1448" rx="27" ry="18"/>
<text text-anchor="middle" x="3697.03" y="-1444.3" font-family="Times,serif" font-size="14.00">rhs</text>
</g>
<!-- n27&#45;&gt;n28 -->
<!-- n60 -->
<g id="node23" class="node">
<title>n60</title>
<ellipse fill="none" stroke="black" cx="1438.82" cy="-353" rx="65.79" ry="18"/>
<text text-anchor="middle" x="1438.82" y="-349.3" font-family="Times,serif" font-size="14.00">load_multiplier</text>
</g>
<!-- n57 -->
<g id="node24" class="node">
<title>n57</title>
<ellipse fill="none" stroke="black" cx="1438.82" cy="-616" rx="89.08" ry="18"/>
<text text-anchor="middle" x="1438.82" y="-612.3" font-family="Times,serif" font-size="14.00">accepted_concurrency</text>
</g>
<!-- n57&#45;&gt;n18 -->
<g id="edge21" class="edge">
<title>n57&#45;&gt;n18</title>
<path fill="none" stroke="black" d="M1506.33,-627.9C1506.33,-676.33 1506.33,-856 1506.33,-856 1506.33,-856 1871.59,-856 1871.59,-856"/>
<polygon fill="black" stroke="black" points="1871.59,-859.5 1881.59,-856 1871.59,-852.5 1871.59,-859.5"/>
<text text-anchor="middle" x="1728.61" y="-809.8" font-family="Times,serif" font-size="14.00">ACCEPTED_CONCURRENCY</text>
</g>
<!-- n46 -->
<g id="node37" class="node">
<title>n46</title>
<ellipse fill="none" stroke="black" cx="2838.49" cy="-844" rx="68.49" ry="18"/>
<text text-anchor="middle" x="2838.49" y="-840.3" font-family="Times,serif" font-size="14.00">control_variable</text>
</g>
<!-- n57&#45;&gt;n46 -->
<g id="edge24" class="edge">
<title>n57&#45;&gt;n46</title>
<path fill="none" stroke="black" d="M1517.33,-624.73C1517.33,-665.15 1517.33,-832 1517.33,-832 1517.33,-832 2777.51,-832 2777.51,-832"/>
<polygon fill="black" stroke="black" points="2777.51,-835.5 2787.51,-832 2777.51,-828.5 2777.51,-835.5"/>
<text text-anchor="middle" x="2120.1" y="-726.8" font-family="Times,serif" font-size="14.00">ACCEPTED_CONCURRENCY</text>
</g>
<!-- n57&#45;&gt;n30 -->
<g id="edge22" class="edge">
<title>n57&#45;&gt;n30</title>
<path fill="none" stroke="black" d="M1494.33,-630.2C1494.33,-721.94 1494.33,-1227 1494.33,-1227 1494.33,-1227 1866.1,-1227 1866.1,-1227"/>
<polygon fill="black" stroke="black" points="1866.1,-1230.5 1876.1,-1227 1866.1,-1223.5 1866.1,-1230.5"/>
<text text-anchor="middle" x="1728.61" y="-1072.8" font-family="Times,serif" font-size="14.00">ACCEPTED_CONCURRENCY</text>
</g>
<!-- n37 -->
<g id="node46" class="node">
<title>n37</title>
<ellipse fill="none" stroke="black" cx="1908.6" cy="-297" rx="28.7" ry="18"/>
<text text-anchor="middle" x="1908.6" y="-293.3" font-family="Times,serif" font-size="14.00">input</text>
</g>
<!-- n57&#45;&gt;n37 -->
<g id="edge23" class="edge">
<title>n57&#45;&gt;n37</title>
<path fill="none" stroke="black" d="M1527.97,-616C1605.1,-616 1704.33,-616 1704.33,-616 1704.33,-616 1704.33,-297 1704.33,-297 1704.33,-297 1869.77,-297 1869.77,-297"/>
<polygon fill="black" stroke="black" points="1869.77,-300.5 1879.77,-297 1869.77,-293.5 1869.77,-300.5"/>
<text text-anchor="middle" x="1728.61" y="-696.8" font-family="Times,serif" font-size="14.00">ACCEPTED_CONCURRENCY</text>
</g>
<!-- n58 -->
<g id="node25" class="node">
<title>n58</title>
<ellipse fill="none" stroke="black" cx="1438.82" cy="-562" rx="92.08" ry="18"/>
<text text-anchor="middle" x="1438.82" y="-558.3" font-family="Times,serif" font-size="14.00">incoming_concurrency</text>
</g>
<!-- n58&#45;&gt;n13 -->
<g id="edge25" class="edge">
<title>n58&#45;&gt;n13</title>
<path fill="none" stroke="black" d="M1518.33,-552.6C1518.33,-528.07 1518.33,-464 1518.33,-464 1518.33,-464 1871.47,-464 1871.47,-464"/>
<polygon fill="black" stroke="black" points="1871.47,-467.5 1881.47,-464 1871.47,-460.5 1871.47,-467.5"/>
<text text-anchor="middle" x="1728.61" y="-516.8" font-family="Times,serif" font-size="14.00">INCOMING_CONCURRENCY</text>
</g>
<!-- n62 -->
<g id="node26" class="node">
<title>n62</title>
<ellipse fill="none" stroke="black" cx="1908.6" cy="-2037" rx="27" ry="18"/>
<text text-anchor="middle" x="1908.6" y="-2033.3" font-family="Times,serif" font-size="14.00">lhs</text>
</g>
<!-- n64 -->
<g id="node27" class="node">
<title>n64</title>
<ellipse fill="none" stroke="black" cx="2366.1" cy="-1983" rx="33.29" ry="18"/>
<text text-anchor="middle" x="2366.1" y="-1979.3" font-family="Times,serif" font-size="14.00">output</text>
</g>
<!-- n69 -->
<g id="node52" class="node">
<title>n69</title>
<ellipse fill="none" stroke="black" cx="2838.49" cy="-1502" rx="33.6" ry="18"/>
<text text-anchor="middle" x="2838.49" y="-1498.3" font-family="Times,serif" font-size="14.00">switch</text>
</g>
<!-- n64&#45;&gt;n69 -->
<g id="edge31" class="edge">
<title>n64&#45;&gt;n69</title>
<path fill="none" stroke="black" d="M2399.38,-1983C2507.09,-1983 2839.33,-1983 2839.33,-1983 2839.33,-1983 2839.33,-1530.27 2839.33,-1530.27"/>
<polygon fill="black" stroke="black" points="2842.83,-1530.27 2839.33,-1520.27 2835.83,-1530.27 2842.83,-1530.27"/>
<text text-anchor="middle" x="2584.75" y="-1828.8" font-family="Times,serif" font-size="14.00">IS_OVERLOAD</text>
</g>
<!-- n63&#45;&gt;n64 -->
<!-- n42 -->
<g id="node29" class="node">
<title>n42</title>
<ellipse fill="none" stroke="black" cx="728.98" cy="-1495" rx="28.7" ry="18"/>
<text text-anchor="middle" x="728.98" y="-1491.3" font-family="Times,serif" font-size="14.00">input</text>
</g>
<!-- n44 -->
<g id="node31" class="node">
<title>n44</title>
<ellipse fill="none" stroke="black" cx="956.38" cy="-1481" rx="33.29" ry="18"/>
<text text-anchor="middle" x="956.38" y="-1477.3" font-family="Times,serif" font-size="14.00">output</text>
</g>
<!-- n43&#45;&gt;n44 -->
<!-- n44&#45;&gt;n7 -->
<g id="edge26" class="edge">
<title>n44&#45;&gt;n7</title>
<path fill="none" stroke="black" d="M983.56,-1491.5C1045.8,-1491.5 1193.33,-1491.5 1193.33,-1491.5 1193.33,-1491.5 1193.33,-1919.82 1193.33,-1919.82"/>
<polygon fill="black" stroke="black" points="1189.83,-1919.82 1193.33,-1929.82 1196.83,-1919.82 1189.83,-1919.82"/>
<text text-anchor="middle" x="1097.52" y="-1724.8" font-family="Times,serif" font-size="14.00">LATENCY_EMA</text>
</g>
<!-- n54 -->
<g id="node33" class="node">
<title>n54</title>
<ellipse fill="none" stroke="black" cx="3238.88" cy="-477" rx="33.29" ry="18"/>
<text text-anchor="middle" x="3238.88" y="-473.3" font-family="Times,serif" font-size="14.00">output</text>
</g>
<!-- n53&#45;&gt;n54 -->
<!-- n54&#45;&gt;n60 -->
<g id="edge30" class="edge">
<title>n54&#45;&gt;n60</title>
<path fill="none" stroke="black" d="M3239.33,-458.97C3239.33,-424.58 3239.33,-353 3239.33,-353 3239.33,-353 1514.5,-353 1514.5,-353"/>
<polygon fill="black" stroke="black" points="1514.5,-349.5 1504.5,-353 1514.5,-356.5 1514.5,-349.5"/>
<text text-anchor="middle" x="2366.1" y="-680.8" font-family="Times,serif" font-size="14.00">LOAD_MULTIPLIER</text>
</g>
<!-- n34 -->
<g id="node34" class="node">
<title>n34</title>
<ellipse fill="none" stroke="black" cx="1438.82" cy="-1781" rx="27" ry="18"/>
<text text-anchor="middle" x="1438.82" y="-1777.3" font-family="Times,serif" font-size="14.00">0.00</text>
</g>
<!-- n33 -->
<g id="node35" class="node">
<title>n33</title>
<ellipse fill="none" stroke="black" cx="1908.6" cy="-1781" rx="32.49" ry="18"/>
<text text-anchor="middle" x="1908.6" y="-1777.3" font-family="Times,serif" font-size="14.00">inputs</text>
</g>
<!-- n34&#45;&gt;n33 -->
<g id="edge14" class="edge">
<title>n34&#45;&gt;n33</title>
<path fill="none" stroke="black" d="M1466.1,-1781C1466.1,-1781 1866.04,-1781 1866.04,-1781"/>
<polygon fill="black" stroke="black" points="1866.04,-1784.5 1876.04,-1781 1866.04,-1777.5 1866.04,-1784.5"/>
</g>
<!-- n35 -->
<g id="node36" class="node">
<title>n35</title>
<ellipse fill="none" stroke="black" cx="2366.1" cy="-1781" rx="33.29" ry="18"/>
<text text-anchor="middle" x="2366.1" y="-1777.3" font-family="Times,serif" font-size="14.00">output</text>
</g>
<!-- n33&#45;&gt;n35 -->
<!-- n68 -->
<g id="node49" class="node">
<title>n68</title>
<ellipse fill="none" stroke="black" cx="2838.49" cy="-1448" rx="40.09" ry="18"/>
<text text-anchor="middle" x="2838.49" y="-1444.3" font-family="Times,serif" font-size="14.00">on_false</text>
</g>
<!-- n35&#45;&gt;n68 -->
<g id="edge40" class="edge">
<title>n35&#45;&gt;n68</title>
<path fill="none" stroke="black" d="M2366.33,-1762.91C2366.33,-1693.01 2366.33,-1444.5 2366.33,-1444.5 2366.33,-1444.5 2788.64,-1444.5 2788.64,-1444.5"/>
<polygon fill="black" stroke="black" points="2788.64,-1448 2798.64,-1444.5 2788.64,-1441 2788.64,-1448"/>
<text text-anchor="middle" x="2584.75" y="-1538.8" font-family="Times,serif" font-size="14.00">CONCURRENCY_INCREMENT_NORMAL</text>
</g>
<!-- n51 -->
<g id="node40" class="node">
<title>n51</title>
<ellipse fill="none" stroke="black" cx="3238.88" cy="-858" rx="33.29" ry="18"/>
<text text-anchor="middle" x="3238.88" y="-854.3" font-family="Times,serif" font-size="14.00">output</text>
</g>
<!-- n50&#45;&gt;n51 -->
<!-- n49 -->
<g id="node39" class="node">
<title>n49</title>
<ellipse fill="none" stroke="black" cx="2838.49" cy="-952" rx="42.49" ry="18"/>
<text text-anchor="middle" x="2838.49" y="-948.3" font-family="Times,serif" font-size="14.00">optimize</text>
</g>
<!-- n51&#45;&gt;n12 -->
<g id="edge41" class="edge">
<title>n51&#45;&gt;n12</title>
<path fill="none" stroke="black" d="M3239.33,-839.72C3239.33,-769.1 3239.33,-518 3239.33,-518 3239.33,-518 1945.79,-518 1945.79,-518"/>
<polygon fill="black" stroke="black" points="1945.79,-514.5 1935.79,-518 1945.79,-521.5 1945.79,-514.5"/>
<text text-anchor="middle" x="2584.75" y="-633.8" font-family="Times,serif" font-size="14.00">DESIRED_CONCURRENCY</text>
</g>
<!-- n47 -->
<g id="node42" class="node">
<title>n47</title>
<ellipse fill="none" stroke="black" cx="2838.49" cy="-1006" rx="31.7" ry="18"/>
<text text-anchor="middle" x="2838.49" y="-1002.3" font-family="Times,serif" font-size="14.00">signal</text>
</g>
<!-- n31 -->
<g id="node44" class="node">
<title>n31</title>
<ellipse fill="none" stroke="black" cx="2366.1" cy="-1227" rx="33.29" ry="18"/>
<text text-anchor="middle" x="2366.1" y="-1223.3" font-family="Times,serif" font-size="14.00">output</text>
</g>
<!-- n30&#45;&gt;n31 -->
<!-- n31&#45;&gt;n33 -->
<g id="edge39" class="edge">
<title>n31&#45;&gt;n33</title>
<path fill="none" stroke="black" d="M2334.77,-1233C2272.12,-1233 2137.33,-1233 2137.33,-1233 2137.33,-1233 2137.33,-1775 2137.33,-1775 2137.33,-1775 1949.45,-1775 1949.45,-1775"/>
<polygon fill="black" stroke="black" points="1949.45,-1771.5 1939.45,-1775 1949.45,-1778.5 1949.45,-1771.5"/>
<text text-anchor="middle" x="2120.1" y="-1726.8" font-family="Times,serif" font-size="14.00">CONCURRENCY_INCREMENT_INTEGRAL_CAPPED</text>
</g>
<!-- n40 -->
<g id="node45" class="node">
<title>n40</title>
<ellipse fill="none" stroke="black" cx="91.15" cy="-1480" rx="33.29" ry="18"/>
<text text-anchor="middle" x="91.15" y="-1476.3" font-family="Times,serif" font-size="14.00">output</text>
</g>
<!-- n40&#45;&gt;n2 -->
<g id="edge34" class="edge">
<title>n40&#45;&gt;n2</title>
<path fill="none" stroke="black" d="M113.11,-1466.5C164.71,-1466.5 289.33,-1466.5 289.33,-1466.5 289.33,-1466.5 289.33,-1309.12 289.33,-1309.12"/>
<polygon fill="black" stroke="black" points="292.83,-1309.12 289.33,-1299.12 285.83,-1309.12 292.83,-1309.12"/>
<text text-anchor="middle" x="213.29" y="-1468.8" font-family="Times,serif" font-size="14.00">LATENCY</text>
</g>
<!-- n40&#45;&gt;n62 -->
<g id="edge37" class="edge">
<title>n40&#45;&gt;n62</title>
<path fill="none" stroke="black" d="M91.33,-1498.23C91.33,-1594.31 91.33,-2037.5 91.33,-2037.5 91.33,-2037.5 1871.51,-2037.5 1871.51,-2037.5"/>
<polygon fill="black" stroke="black" points="1871.51,-2041 1881.51,-2037.5 1871.51,-2034 1871.51,-2041"/>
<text text-anchor="middle" x="840.38" y="-2156.8" font-family="Times,serif" font-size="14.00">LATENCY</text>
</g>
<!-- n40&#45;&gt;n42 -->
<g id="edge35" class="edge">
<title>n40&#45;&gt;n42</title>
<path fill="none" stroke="black" d="M121.48,-1487.5C121.48,-1487.5 692.78,-1487.5 692.78,-1487.5"/>
<polygon fill="black" stroke="black" points="692.78,-1491 702.78,-1487.5 692.78,-1484 692.78,-1491"/>
<text text-anchor="middle" x="365.29" y="-1498.8" font-family="Times,serif" font-size="14.00">LATENCY</text>
</g>
<!-- n40&#45;&gt;n47 -->
<g id="edge36" class="edge">
<title>n40&#45;&gt;n47</title>
<path fill="none" stroke="black" d="M118.87,-1470C256.23,-1470 857.33,-1470 857.33,-1470 857.33,-1470 857.33,-1006 857.33,-1006 857.33,-1006 2796.57,-1006 2796.57,-1006"/>
<polygon fill="black" stroke="black" points="2796.57,-1009.5 2806.57,-1006 2796.57,-1002.5 2796.57,-1009.5"/>
<text text-anchor="middle" x="1097.52" y="-1102.8" font-family="Times,serif" font-size="14.00">LATENCY</text>
</g>
<!-- n38 -->
<g id="node47" class="node">
<title>n38</title>
<ellipse fill="none" stroke="black" cx="2366.1" cy="-297" rx="33.29" ry="18"/>
<text text-anchor="middle" x="2366.1" y="-293.3" font-family="Times,serif" font-size="14.00">output</text>
</g>
<!-- n37&#45;&gt;n38 -->
<!-- n38&#45;&gt;n23 -->
<g id="edge33" class="edge">
<title>n38&#45;&gt;n23</title>
<path fill="none" stroke="black" d="M2399.38,-297C2507.09,-297 2839.33,-297 2839.33,-297 2839.33,-297 2839.33,-158.19 2839.33,-158.19"/>
<polygon fill="black" stroke="black" points="2842.83,-158.19 2839.33,-148.19 2835.83,-158.19 2842.83,-158.19"/>
<text text-anchor="middle" x="2584.75" y="-216.8" font-family="Times,serif" font-size="14.00">SQRT_CONCURRENCY_INCREMENT</text>
</g>
<!-- n67 -->
<g id="node48" class="node">
<title>n67</title>
<ellipse fill="none" stroke="black" cx="2366.1" cy="-1394" rx="27" ry="18"/>
<text text-anchor="middle" x="2366.1" y="-1390.3" font-family="Times,serif" font-size="14.00">0.00</text>
</g>
<!-- n66 -->
<g id="node50" class="node">
<title>n66</title>
<ellipse fill="none" stroke="black" cx="2838.49" cy="-1394" rx="37.89" ry="18"/>
<text text-anchor="middle" x="2838.49" y="-1390.3" font-family="Times,serif" font-size="14.00">on_true</text>
</g>
<!-- n67&#45;&gt;n66 -->
<g id="edge19" class="edge">
<title>n67&#45;&gt;n66</title>
<path fill="none" stroke="black" d="M2393.2,-1394C2393.2,-1394 2790.74,-1394 2790.74,-1394"/>
<polygon fill="black" stroke="black" points="2790.74,-1397.5 2800.74,-1394 2790.74,-1390.5 2790.74,-1397.5"/>
</g>
<!-- n70 -->
<g id="node51" class="node">
<title>n70</title>
<ellipse fill="none" stroke="black" cx="3238.88" cy="-1448" rx="33.29" ry="18"/>
<text text-anchor="middle" x="3238.88" y="-1444.3" font-family="Times,serif" font-size="14.00">output</text>
</g>
<!-- n70&#45;&gt;n27 -->
<g id="edge28" class="edge">
<title>n70&#45;&gt;n27</title>
<path fill="none" stroke="black" d="M3272.2,-1448C3272.2,-1448 3659.76,-1448 3659.76,-1448"/>
<polygon fill="black" stroke="black" points="3659.76,-1451.5 3669.76,-1448 3659.76,-1444.5 3659.76,-1451.5"/>
<text text-anchor="middle" x="3471.03" y="-1451.8" font-family="Times,serif" font-size="14.00">CONCURRENCY_INCREMENT</text>
</g>
<!-- n70&#45;&gt;n49 -->
<g id="edge29" class="edge">
<title>n70&#45;&gt;n49</title>
<path fill="none" stroke="black" d="M3239.33,-1429.76C3239.33,-1340.27 3239.33,-952 3239.33,-952 3239.33,-952 2891.01,-952 2891.01,-952"/>
<polygon fill="black" stroke="black" points="2891.01,-948.5 2881.01,-952 2891.01,-955.5 2891.01,-948.5"/>
<text text-anchor="middle" x="3056.24" y="-1203.8" font-family="Times,serif" font-size="14.00">CONCURRENCY_INCREMENT</text>
</g>
<!-- n69&#45;&gt;n70 -->
</g>
</svg>
