<?xml version="1.0" encoding="UTF-8" standalone="no"?>
<!DOCTYPE svg PUBLIC "-//W3C//DTD SVG 1.1//EN"
 "http://www.w3.org/Graphics/SVG/1.1/DTD/svg11.dtd">
<!-- Generated by graphviz version 7.0.0 (20221023.0053)
 -->
<!-- Pages: 1 -->
<svg width="4356pt" height="2176pt"
 viewBox="0.00 0.00 4356.10 2176.00" xmlns="http://www.w3.org/2000/svg" xmlns:xlink="http://www.w3.org/1999/xlink">
<g id="graph0" class="graph" transform="scale(1 1) rotate(0) translate(4 2172)">
<polygon fill="white" stroke="none" points="-4,4 -4,-2172 4352.1,-2172 4352.1,4 -4,4"/>
<g id="clust1" class="cluster">
<title>cluster_s1</title>
<polygon fill="none" stroke="black" points="18.4,-1159 18.4,-1372 580.39,-1372 580.39,-1159 18.4,-1159"/>
<text text-anchor="middle" x="299.39" y="-1356.8" font-family="Times,serif" font-size="14.00">ArithmeticCombinator[0]</text>
</g>
<g id="clust4" class="cluster">
<title>cluster_s6</title>
<polygon fill="none" stroke="black" points="970.47,-1880 970.47,-2093 1667.25,-2093 1667.25,-1880 970.47,-1880"/>
<text text-anchor="middle" x="1318.86" y="-2077.8" font-family="Times,serif" font-size="14.00">ArithmeticCombinator[1]</text>
</g>
<g id="clust7" class="cluster">
<title>cluster_s11</title>
<polygon fill="none" stroke="black" points="2027.34,-396 2027.34,-609 2716.43,-609 2716.43,-396 2027.34,-396"/>
<text text-anchor="middle" x="2371.89" y="-593.8" font-family="Times,serif" font-size="14.00">ArithmeticCombinator[2]</text>
</g>
<g id="clust10" class="cluster">
<title>cluster_s15</title>
<polygon fill="none" stroke="black" points="1494.46,-788 1494.46,-1001 2716.43,-1001 2716.43,-788 1494.46,-788"/>
<text text-anchor="middle" x="2105.44" y="-985.8" font-family="Times,serif" font-size="14.00">ArithmeticCombinator[3]</text>
</g>
<g id="clust13" class="cluster">
<title>cluster_s20</title>
<polygon fill="none" stroke="black" points="2543.64,-8 2543.64,-221 3721.91,-221 3721.91,-8 2543.64,-8"/>
<text text-anchor="middle" x="3132.77" y="-205.8" font-family="Times,serif" font-size="14.00">ArithmeticCombinator[4]</text>
</g>
<g id="clust16" class="cluster">
<title>cluster_s25</title>
<polygon fill="none" stroke="black" points="4065.91,-1299 4065.91,-1512 4340.1,-1512 4340.1,-1299 4065.91,-1299"/>
<text text-anchor="middle" x="4203.01" y="-1496.8" font-family="Times,serif" font-size="14.00">ArithmeticCombinator[5]</text>
</g>
<g id="clust19" class="cluster">
<title>cluster_s55</title>
<polygon fill="none" stroke="black" points="1361.27,-235 1361.27,-780 1790.04,-780 1790.04,-235 1361.27,-235"/>
<text text-anchor="middle" x="1575.66" y="-764.8" font-family="Times,serif" font-size="14.00">ConcurrencyLimiter[13]</text>
</g>
<g id="clust20" class="cluster">
<title>cluster_s59</title>
<polygon fill="none" stroke="black" points="1445.06,-285 1445.06,-444 1706.25,-444 1706.25,-285 1445.06,-285"/>
<text text-anchor="middle" x="1575.66" y="-428.8" font-family="Times,serif" font-size="14.00">LoadActuator[13.LoadActuator]</text>
</g>
<g id="clust22" class="cluster">
<title>cluster_s56</title>
<polygon fill="none" stroke="black" points="1411.27,-494 1411.27,-707 1740.04,-707 1740.04,-494 1411.27,-494"/>
<text text-anchor="middle" x="1575.66" y="-691.8" font-family="Times,serif" font-size="14.00">Scheduler[13.Scheduler]</text>
</g>
<g id="clust24" class="cluster">
<title>cluster_s61</title>
<polygon fill="none" stroke="black" points="2027.34,-1915 2027.34,-2128 2716.43,-2128 2716.43,-1915 2027.34,-1915"/>
<text text-anchor="middle" x="2371.89" y="-2112.8" font-family="Times,serif" font-size="14.00">Decider[14]</text>
</g>
<g id="clust27" class="cluster">
<title>cluster_s41</title>
<polygon fill="none" stroke="black" points="672.39,-1373 672.39,-1586 1143.27,-1586 1143.27,-1373 672.39,-1373"/>
<text text-anchor="middle" x="907.83" y="-1570.8" font-family="Times,serif" font-size="14.00">EMA[10]</text>
</g>
<g id="clust30" class="cluster">
<title>cluster_s52</title>
<polygon fill="none" stroke="black" points="3077.48,-406 3077.48,-565 3721.91,-565 3721.91,-406 3077.48,-406"/>
<text text-anchor="middle" x="3399.69" y="-549.8" font-family="Times,serif" font-size="14.00">Extrapolator[12]</text>
</g>
<g id="clust33" class="cluster">
<title>cluster_s32</title>
<polygon fill="none" stroke="black" points="1494.46,-1713 1494.46,-1872 2716.43,-1872 2716.43,-1713 1494.46,-1713"/>
<text text-anchor="middle" x="2105.44" y="-1856.8" font-family="Times,serif" font-size="14.00">FirstValid[7]</text>
</g>
<g id="clust36" class="cluster">
<title>cluster_s45</title>
<polygon fill="none" stroke="black" points="3027.43,-776 3027.43,-1151 3721.91,-1151 3721.91,-776 3027.43,-776"/>
<text text-anchor="middle" x="3374.67" y="-1135.8" font-family="Times,serif" font-size="14.00">Gradient[11]</text>
</g>
<g id="clust39" class="cluster">
<title>cluster_s29</title>
<polygon fill="none" stroke="black" points="2014.04,-1159 2014.04,-1318 2716.43,-1318 2716.43,-1159 2014.04,-1159"/>
<text text-anchor="middle" x="2365.24" y="-1302.8" font-family="Times,serif" font-size="14.00">Min[6]</text>
</g>
<g id="clust42" class="cluster">
<title>cluster_s39</title>
<polygon fill="none" stroke="black" points="8,-1412 8,-1571 191.19,-1571 191.19,-1412 8,-1412"/>
<text text-anchor="middle" x="99.6" y="-1555.8" font-family="Times,serif" font-size="14.00">PromQL[9]</text>
</g>
<g id="clust44" class="cluster">
<title>cluster_s36</title>
<polygon fill="none" stroke="black" points="2019.24,-229 2019.24,-388 2716.43,-388 2716.43,-229 2019.24,-229"/>
<text text-anchor="middle" x="2367.84" y="-372.8" font-family="Times,serif" font-size="14.00">Sqrt[8]</text>
</g>
<g id="clust47" class="cluster">
<title>cluster_s65</title>
<polygon fill="none" stroke="black" points="2543.64,-1326 2543.64,-1593 3721.91,-1593 3721.91,-1326 2543.64,-1326"/>
<text text-anchor="middle" x="3132.77" y="-1577.8" font-family="Times,serif" font-size="14.00">Switcher[15]</text>
</g>
<!-- n4 -->
<g id="node1" class="node">
<title>n4</title>
<ellipse fill="none" stroke="black" cx="99.6" cy="-1227" rx="31.4" ry="18"/>
<text text-anchor="middle" x="99.6" y="-1223.3" font-family="Times,serif" font-size="14.00">2.00</text>
</g>
<!-- n3 -->
<g id="node4" class="node">
<title>n3</title>
<ellipse fill="none" stroke="black" cx="314.19" cy="-1227" rx="27" ry="18"/>
<text text-anchor="middle" x="314.19" y="-1223.3" font-family="Times,serif" font-size="14.00">rhs</text>
</g>
<!-- n4&#45;&gt;n3 -->
<g id="edge1" class="edge">
<title>n4&#45;&gt;n3</title>
<path fill="none" stroke="black" d="M131.26,-1227C131.26,-1227 275.31,-1227 275.31,-1227"/>
<polygon fill="black" stroke="black" points="275.31,-1230.5 285.31,-1227 275.31,-1223.5 275.31,-1230.5"/>
</g>
<!-- n2 -->
<g id="node2" class="node">
<title>n2</title>
<ellipse fill="none" stroke="black" cx="314.19" cy="-1281" rx="27" ry="18"/>
<text text-anchor="middle" x="314.19" y="-1277.3" font-family="Times,serif" font-size="14.00">lhs</text>
</g>
<!-- n5 -->
<g id="node3" class="node">
<title>n5</title>
<ellipse fill="none" stroke="black" cx="488.79" cy="-1267" rx="41.69" ry="18"/>
<text text-anchor="middle" x="488.79" y="-1263.3" font-family="Times,serif" font-size="14.00">output</text>
</g>
<!-- n43 -->
<g id="node30" class="node">
<title>n43</title>
<ellipse fill="none" stroke="black" cx="798.43" cy="-1441" rx="76.09" ry="18"/>
<text text-anchor="middle" x="798.43" y="-1437.3" font-family="Times,serif" font-size="14.00">max_envelope</text>
</g>
<!-- n5&#45;&gt;n43 -->
<g id="edge37" class="edge">
<title>n5&#45;&gt;n43</title>
<path fill="none" stroke="black" d="M489.1,-1285.29C489.1,-1329.97 489.1,-1441 489.1,-1441 489.1,-1441 710.45,-1441 710.45,-1441"/>
<polygon fill="black" stroke="black" points="710.45,-1444.5 720.45,-1441 710.45,-1437.5 710.45,-1444.5"/>
<text text-anchor="middle" x="626.39" y="-1363.8" font-family="Times,serif" font-size="14.00">MAX_EMA</text>
</g>
<!-- n3&#45;&gt;n5 -->
<!-- n9 -->
<g id="node5" class="node">
<title>n9</title>
<ellipse fill="none" stroke="black" cx="1051.67" cy="-2002" rx="31.4" ry="18"/>
<text text-anchor="middle" x="1051.67" y="-1998.3" font-family="Times,serif" font-size="14.00">1.10</text>
</g>
<!-- n8 -->
<g id="node8" class="node">
<title>n8</title>
<ellipse fill="none" stroke="black" cx="1307.27" cy="-2002" rx="27" ry="18"/>
<text text-anchor="middle" x="1307.27" y="-1998.3" font-family="Times,serif" font-size="14.00">rhs</text>
</g>
<!-- n9&#45;&gt;n8 -->
<g id="edge3" class="edge">
<title>n9&#45;&gt;n8</title>
<path fill="none" stroke="black" d="M1083.52,-2002C1083.52,-2002 1268.57,-2002 1268.57,-2002"/>
<polygon fill="black" stroke="black" points="1268.57,-2005.5 1278.57,-2002 1268.57,-1998.5 1268.57,-2005.5"/>
</g>
<!-- n7 -->
<g id="node6" class="node">
<title>n7</title>
<ellipse fill="none" stroke="black" cx="1307.27" cy="-1948" rx="27" ry="18"/>
<text text-anchor="middle" x="1307.27" y="-1944.3" font-family="Times,serif" font-size="14.00">lhs</text>
</g>
<!-- n10 -->
<g id="node7" class="node">
<title>n10</title>
<ellipse fill="none" stroke="black" cx="1575.66" cy="-1983" rx="41.69" ry="18"/>
<text text-anchor="middle" x="1575.66" y="-1979.3" font-family="Times,serif" font-size="14.00">output</text>
</g>
<!-- n63 -->
<g id="node28" class="node">
<title>n63</title>
<ellipse fill="none" stroke="black" cx="2104.34" cy="-1983" rx="27" ry="18"/>
<text text-anchor="middle" x="2104.34" y="-1979.3" font-family="Times,serif" font-size="14.00">rhs</text>
</g>
<!-- n10&#45;&gt;n63 -->
<g id="edge30" class="edge">
<title>n10&#45;&gt;n63</title>
<path fill="none" stroke="black" d="M1617.58,-1983C1617.58,-1983 2065.35,-1983 2065.35,-1983"/>
<polygon fill="black" stroke="black" points="2065.35,-1986.5 2075.35,-1983 2065.35,-1979.5 2065.35,-1986.5"/>
<text text-anchor="middle" x="1902.04" y="-1986.8" font-family="Times,serif" font-size="14.00">LATENCY_SETPOINT</text>
</g>
<!-- n46 -->
<g id="node41" class="node">
<title>n46</title>
<ellipse fill="none" stroke="black" cx="3162.57" cy="-1060" rx="48.99" ry="18"/>
<text text-anchor="middle" x="3162.57" y="-1056.3" font-family="Times,serif" font-size="14.00">setpoint</text>
</g>
<!-- n10&#45;&gt;n46 -->
<g id="edge29" class="edge">
<title>n10&#45;&gt;n46</title>
<path fill="none" stroke="black" d="M1612.1,-1973.86C1612.1,-1878 1612.1,-1060 1612.1,-1060 1612.1,-1060 3101.66,-1060 3101.66,-1060"/>
<polygon fill="black" stroke="black" points="3101.66,-1063.5 3111.66,-1060 3101.66,-1056.5 3101.66,-1063.5"/>
<text text-anchor="middle" x="2349.14" y="-1097.8" font-family="Times,serif" font-size="14.00">LATENCY_SETPOINT</text>
</g>
<!-- n8&#45;&gt;n10 -->
<!-- n12 -->
<g id="node9" class="node">
<title>n12</title>
<ellipse fill="none" stroke="black" cx="2104.34" cy="-518" rx="27" ry="18"/>
<text text-anchor="middle" x="2104.34" y="-514.3" font-family="Times,serif" font-size="14.00">lhs</text>
</g>
<!-- n14 -->
<g id="node10" class="node">
<title>n14</title>
<ellipse fill="none" stroke="black" cx="2624.84" cy="-465" rx="41.69" ry="18"/>
<text text-anchor="middle" x="2624.84" y="-461.3" font-family="Times,serif" font-size="14.00">output</text>
</g>
<!-- n53 -->
<g id="node32" class="node">
<title>n53</title>
<ellipse fill="none" stroke="black" cx="3162.57" cy="-474" rx="35.19" ry="18"/>
<text text-anchor="middle" x="3162.57" y="-470.3" font-family="Times,serif" font-size="14.00">input</text>
</g>
<!-- n14&#45;&gt;n53 -->
<g id="edge38" class="edge">
<title>n14&#45;&gt;n53</title>
<path fill="none" stroke="black" d="M2665.69,-469.5C2665.69,-469.5 3116.65,-469.5 3116.65,-469.5"/>
<polygon fill="black" stroke="black" points="3116.65,-473 3126.65,-469.5 3116.65,-466 3116.65,-473"/>
<text text-anchor="middle" x="2871.93" y="-476.8" font-family="Times,serif" font-size="14.00">DESIRED_CONCURRENCY_RATIO</text>
</g>
<!-- n13 -->
<g id="node11" class="node">
<title>n13</title>
<ellipse fill="none" stroke="black" cx="2104.34" cy="-464" rx="27" ry="18"/>
<text text-anchor="middle" x="2104.34" y="-460.3" font-family="Times,serif" font-size="14.00">rhs</text>
</g>
<!-- n13&#45;&gt;n14 -->
<!-- n17 -->
<g id="node12" class="node">
<title>n17</title>
<ellipse fill="none" stroke="black" cx="1575.66" cy="-910" rx="31.4" ry="18"/>
<text text-anchor="middle" x="1575.66" y="-906.3" font-family="Times,serif" font-size="14.00">2.00</text>
</g>
<!-- n16 -->
<g id="node13" class="node">
<title>n16</title>
<ellipse fill="none" stroke="black" cx="2104.34" cy="-910" rx="27" ry="18"/>
<text text-anchor="middle" x="2104.34" y="-906.3" font-family="Times,serif" font-size="14.00">lhs</text>
</g>
<!-- n17&#45;&gt;n16 -->
<g id="edge6" class="edge">
<title>n17&#45;&gt;n16</title>
<path fill="none" stroke="black" d="M1607.54,-910C1607.54,-910 2065.44,-910 2065.44,-910"/>
<polygon fill="black" stroke="black" points="2065.44,-913.5 2075.44,-910 2065.44,-906.5 2065.44,-913.5"/>
</g>
<!-- n19 -->
<g id="node14" class="node">
<title>n19</title>
<ellipse fill="none" stroke="black" cx="2624.84" cy="-882" rx="41.69" ry="18"/>
<text text-anchor="middle" x="2624.84" y="-878.3" font-family="Times,serif" font-size="14.00">output</text>
</g>
<!-- n48 -->
<g id="node38" class="node">
<title>n48</title>
<ellipse fill="none" stroke="black" cx="3162.57" cy="-898" rx="30.59" ry="18"/>
<text text-anchor="middle" x="3162.57" y="-894.3" font-family="Times,serif" font-size="14.00">max</text>
</g>
<!-- n19&#45;&gt;n48 -->
<g id="edge43" class="edge">
<title>n19&#45;&gt;n48</title>
<path fill="none" stroke="black" d="M2662.65,-890C2662.65,-890 3123.06,-890 3123.06,-890"/>
<polygon fill="black" stroke="black" points="3123.06,-893.5 3133.06,-890 3123.06,-886.5 3123.06,-893.5"/>
<text text-anchor="middle" x="2871.93" y="-895.8" font-family="Times,serif" font-size="14.00">NORMAL_CONCURRENCY_LIMIT</text>
</g>
<!-- n18 -->
<g id="node15" class="node">
<title>n18</title>
<ellipse fill="none" stroke="black" cx="2104.34" cy="-856" rx="27" ry="18"/>
<text text-anchor="middle" x="2104.34" y="-852.3" font-family="Times,serif" font-size="14.00">rhs</text>
</g>
<!-- n18&#45;&gt;n19 -->
<!-- n22 -->
<g id="node16" class="node">
<title>n22</title>
<ellipse fill="none" stroke="black" cx="2624.84" cy="-76" rx="31.4" ry="18"/>
<text text-anchor="middle" x="2624.84" y="-72.3" font-family="Times,serif" font-size="14.00">5.00</text>
</g>
<!-- n21 -->
<g id="node17" class="node">
<title>n21</title>
<ellipse fill="none" stroke="black" cx="3162.57" cy="-76" rx="27" ry="18"/>
<text text-anchor="middle" x="3162.57" y="-72.3" font-family="Times,serif" font-size="14.00">lhs</text>
</g>
<!-- n22&#45;&gt;n21 -->
<g id="edge8" class="edge">
<title>n22&#45;&gt;n21</title>
<path fill="none" stroke="black" d="M2656.47,-76C2656.47,-76 3123.72,-76 3123.72,-76"/>
<polygon fill="black" stroke="black" points="3123.72,-79.5 3133.72,-76 3123.72,-72.5 3123.72,-79.5"/>
</g>
<!-- n24 -->
<g id="node18" class="node">
<title>n24</title>
<ellipse fill="none" stroke="black" cx="3630.31" cy="-130" rx="41.69" ry="18"/>
<text text-anchor="middle" x="3630.31" y="-126.3" font-family="Times,serif" font-size="14.00">output</text>
</g>
<!-- n27 -->
<g id="node20" class="node">
<title>n27</title>
<ellipse fill="none" stroke="black" cx="4142.91" cy="-1367" rx="27" ry="18"/>
<text text-anchor="middle" x="4142.91" y="-1363.3" font-family="Times,serif" font-size="14.00">lhs</text>
</g>
<!-- n24&#45;&gt;n27 -->
<g id="edge26" class="edge">
<title>n24&#45;&gt;n27</title>
<path fill="none" stroke="black" d="M3672.28,-130C3794.75,-130 4143.1,-130 4143.1,-130 4143.1,-130 4143.1,-1337.04 4143.1,-1337.04"/>
<polygon fill="black" stroke="black" points="4139.6,-1337.04 4143.1,-1347.04 4146.6,-1337.04 4139.6,-1337.04"/>
<text text-anchor="middle" x="3893.91" y="-765.8" font-family="Times,serif" font-size="14.00">CONCURRENCY_INCREMENT_SINGLE_TICK</text>
</g>
<!-- n23 -->
<g id="node19" class="node">
<title>n23</title>
<ellipse fill="none" stroke="black" cx="3162.57" cy="-130" rx="27" ry="18"/>
<text text-anchor="middle" x="3162.57" y="-126.3" font-family="Times,serif" font-size="14.00">rhs</text>
</g>
<!-- n23&#45;&gt;n24 -->
<!-- n28 -->
<g id="node21" class="node">
<title>n28</title>
<ellipse fill="none" stroke="black" cx="4248.51" cy="-1394" rx="41.69" ry="18"/>
<text text-anchor="middle" x="4248.51" y="-1390.3" font-family="Times,serif" font-size="14.00">output</text>
</g>
<!-- n27&#45;&gt;n28 -->
<!-- n30 -->
<g id="node43" class="node">
<title>n30</title>
<ellipse fill="none" stroke="black" cx="2104.34" cy="-1227" rx="40.09" ry="18"/>
<text text-anchor="middle" x="2104.34" y="-1223.3" font-family="Times,serif" font-size="14.00">inputs</text>
</g>
<!-- n28&#45;&gt;n30 -->
<g id="edge31" class="edge">
<title>n28&#45;&gt;n30</title>
<path fill="none" stroke="black" d="M4249.1,-1375.61C4249.1,-1354.87 4249.1,-1324 4249.1,-1324 4249.1,-1324 2105.1,-1324 2105.1,-1324 2105.1,-1324 2105.1,-1256.76 2105.1,-1256.76"/>
<polygon fill="black" stroke="black" points="2108.6,-1256.76 2105.1,-1246.76 2101.6,-1256.76 2108.6,-1256.76"/>
<text text-anchor="middle" x="3418.22" y="-1664.8" font-family="Times,serif" font-size="14.00">CONCURRENCY_INCREMENT_INTEGRAL</text>
</g>
<!-- n26 -->
<g id="node22" class="node">
<title>n26</title>
<ellipse fill="none" stroke="black" cx="4142.91" cy="-1421" rx="27" ry="18"/>
<text text-anchor="middle" x="4142.91" y="-1417.3" font-family="Times,serif" font-size="14.00">rhs</text>
</g>
<!-- n60 -->
<g id="node23" class="node">
<title>n60</title>
<ellipse fill="none" stroke="black" cx="1575.66" cy="-353" rx="80.69" ry="18"/>
<text text-anchor="middle" x="1575.66" y="-349.3" font-family="Times,serif" font-size="14.00">load_multiplier</text>
</g>
<!-- n57 -->
<g id="node24" class="node">
<title>n57</title>
<ellipse fill="none" stroke="black" cx="1575.66" cy="-616" rx="113.98" ry="18"/>
<text text-anchor="middle" x="1575.66" y="-612.3" font-family="Times,serif" font-size="14.00">accepted_concurrency</text>
</g>
<!-- n57&#45;&gt;n18 -->
<g id="edge21" class="edge">
<title>n57&#45;&gt;n18</title>
<path fill="none" stroke="black" d="M1689.89,-616C1845.53,-616 2105.1,-616 2105.1,-616 2105.1,-616 2105.1,-826.05 2105.1,-826.05"/>
<polygon fill="black" stroke="black" points="2101.6,-826.05 2105.1,-836.05 2108.6,-826.05 2101.6,-826.05"/>
<text text-anchor="middle" x="1902.04" y="-809.8" font-family="Times,serif" font-size="14.00">ACCEPTED_CONCURRENCY</text>
</g>
<!-- n49 -->
<g id="node37" class="node">
<title>n49</title>
<ellipse fill="none" stroke="black" cx="3162.57" cy="-844" rx="85.29" ry="18"/>
<text text-anchor="middle" x="3162.57" y="-840.3" font-family="Times,serif" font-size="14.00">control_variable</text>
</g>
<!-- n57&#45;&gt;n49 -->
<g id="edge24" class="edge">
<title>n57&#45;&gt;n49</title>
<path fill="none" stroke="black" d="M1654.1,-629.19C1654.1,-676.08 1654.1,-832 1654.1,-832 1654.1,-832 3086.24,-832 3086.24,-832"/>
<polygon fill="black" stroke="black" points="3086.24,-835.5 3096.24,-832 3086.24,-828.5 3086.24,-835.5"/>
<text text-anchor="middle" x="2349.14" y="-726.8" font-family="Times,serif" font-size="14.00">ACCEPTED_CONCURRENCY</text>
</g>
<!-- n57&#45;&gt;n30 -->
<g id="edge22" class="edge">
<title>n57&#45;&gt;n30</title>
<path fill="none" stroke="black" d="M1675.52,-625C1820.49,-625 2072.1,-625 2072.1,-625 2072.1,-625 2072.1,-1204.26 2072.1,-1204.26"/>
<polygon fill="black" stroke="black" points="2068.6,-1204.26 2072.1,-1214.26 2075.6,-1204.26 2068.6,-1204.26"/>
<text text-anchor="middle" x="1902.04" y="-1072.8" font-family="Times,serif" font-size="14.00">ACCEPTED_CONCURRENCY</text>
</g>
<!-- n37 -->
<g id="node46" class="node">
<title>n37</title>
<ellipse fill="none" stroke="black" cx="2104.34" cy="-297" rx="35.19" ry="18"/>
<text text-anchor="middle" x="2104.34" y="-293.3" font-family="Times,serif" font-size="14.00">input</text>
</g>
<!-- n57&#45;&gt;n37 -->
<g id="edge23" class="edge">
<title>n57&#45;&gt;n37</title>
<path fill="none" stroke="black" d="M1675.53,-607C1821.28,-607 2075.1,-607 2075.1,-607 2075.1,-607 2075.1,-318.83 2075.1,-318.83"/>
<polygon fill="black" stroke="black" points="2078.6,-318.83 2075.1,-308.83 2071.6,-318.83 2078.6,-318.83"/>
<text text-anchor="middle" x="1902.04" y="-696.8" font-family="Times,serif" font-size="14.00">ACCEPTED_CONCURRENCY</text>
</g>
<!-- n58 -->
<g id="node25" class="node">
<title>n58</title>
<ellipse fill="none" stroke="black" cx="1575.66" cy="-562" rx="114.28" ry="18"/>
<text text-anchor="middle" x="1575.66" y="-558.3" font-family="Times,serif" font-size="14.00">incoming_concurrency</text>
</g>
<!-- n58&#45;&gt;n13 -->
<g id="edge25" class="edge">
<title>n58&#45;&gt;n13</title>
<path fill="none" stroke="black" d="M1674.1,-552.6C1674.1,-528.07 1674.1,-464 1674.1,-464 1674.1,-464 2065.59,-464 2065.59,-464"/>
<polygon fill="black" stroke="black" points="2065.59,-467.5 2075.59,-464 2065.59,-460.5 2065.59,-467.5"/>
<text text-anchor="middle" x="1902.04" y="-516.8" font-family="Times,serif" font-size="14.00">INCOMING_CONCURRENCY</text>
</g>
<!-- n62 -->
<g id="node26" class="node">
<title>n62</title>
<ellipse fill="none" stroke="black" cx="2104.34" cy="-2037" rx="27" ry="18"/>
<text text-anchor="middle" x="2104.34" y="-2033.3" font-family="Times,serif" font-size="14.00">lhs</text>
</g>
<!-- n64 -->
<g id="node27" class="node">
<title>n64</title>
<ellipse fill="none" stroke="black" cx="2624.84" cy="-1983" rx="41.69" ry="18"/>
<text text-anchor="middle" x="2624.84" y="-1979.3" font-family="Times,serif" font-size="14.00">output</text>
</g>
<!-- n66 -->
<g id="node52" class="node">
<title>n66</title>
<ellipse fill="none" stroke="black" cx="3162.57" cy="-1502" rx="40.89" ry="18"/>
<text text-anchor="middle" x="3162.57" y="-1498.3" font-family="Times,serif" font-size="14.00">switch</text>
</g>
<!-- n64&#45;&gt;n66 -->
<g id="edge40" class="edge">
<title>n64&#45;&gt;n66</title>
<path fill="none" stroke="black" d="M2666.62,-1983C2793.09,-1983 3163.1,-1983 3163.1,-1983 3163.1,-1983 3163.1,-1531.78 3163.1,-1531.78"/>
<polygon fill="black" stroke="black" points="3166.6,-1531.78 3163.1,-1521.78 3159.6,-1531.78 3166.6,-1531.78"/>
<text text-anchor="middle" x="2871.93" y="-1828.8" font-family="Times,serif" font-size="14.00">IS_OVERLOAD</text>
</g>
<!-- n63&#45;&gt;n64 -->
<!-- n42 -->
<g id="node29" class="node">
<title>n42</title>
<ellipse fill="none" stroke="black" cx="798.43" cy="-1495" rx="35.19" ry="18"/>
<text text-anchor="middle" x="798.43" y="-1491.3" font-family="Times,serif" font-size="14.00">input</text>
</g>
<!-- n44 -->
<g id="node31" class="node">
<title>n44</title>
<ellipse fill="none" stroke="black" cx="1051.67" cy="-1481" rx="41.69" ry="18"/>
<text text-anchor="middle" x="1051.67" y="-1477.3" font-family="Times,serif" font-size="14.00">output</text>
</g>
<!-- n43&#45;&gt;n44 -->
<!-- n44&#45;&gt;n7 -->
<g id="edge39" class="edge">
<title>n44&#45;&gt;n7</title>
<path fill="none" stroke="black" d="M1088.1,-1490.33C1088.1,-1556.15 1088.1,-1948 1088.1,-1948 1088.1,-1948 1268.44,-1948 1268.44,-1948"/>
<polygon fill="black" stroke="black" points="1268.44,-1951.5 1278.44,-1948 1268.44,-1944.5 1268.44,-1951.5"/>
<text text-anchor="middle" x="1206.77" y="-1724.8" font-family="Times,serif" font-size="14.00">LATENCY_EMA</text>
</g>
<!-- n54 -->
<g id="node33" class="node">
<title>n54</title>
<ellipse fill="none" stroke="black" cx="3630.31" cy="-474" rx="41.69" ry="18"/>
<text text-anchor="middle" x="3630.31" y="-470.3" font-family="Times,serif" font-size="14.00">output</text>
</g>
<!-- n53&#45;&gt;n54 -->
<!-- n54&#45;&gt;n60 -->
<g id="edge45" class="edge">
<title>n54&#45;&gt;n60</title>
<path fill="none" stroke="black" d="M3631.1,-455.62C3631.1,-421.77 3631.1,-353 3631.1,-353 3631.1,-353 1668.06,-353 1668.06,-353"/>
<polygon fill="black" stroke="black" points="1668.06,-349.5 1658.06,-353 1668.06,-356.5 1668.06,-349.5"/>
<text text-anchor="middle" x="2624.84" y="-680.8" font-family="Times,serif" font-size="14.00">LOAD_MULTIPLIER</text>
</g>
<!-- n34 -->
<g id="node34" class="node">
<title>n34</title>
<ellipse fill="none" stroke="black" cx="1575.66" cy="-1781" rx="31.4" ry="18"/>
<text text-anchor="middle" x="1575.66" y="-1777.3" font-family="Times,serif" font-size="14.00">0.00</text>
</g>
<!-- n33 -->
<g id="node35" class="node">
<title>n33</title>
<ellipse fill="none" stroke="black" cx="2104.34" cy="-1781" rx="40.09" ry="18"/>
<text text-anchor="middle" x="2104.34" y="-1777.3" font-family="Times,serif" font-size="14.00">inputs</text>
</g>
<!-- n34&#45;&gt;n33 -->
<g id="edge14" class="edge">
<title>n34&#45;&gt;n33</title>
<path fill="none" stroke="black" d="M1607.54,-1781C1607.54,-1781 2052.43,-1781 2052.43,-1781"/>
<polygon fill="black" stroke="black" points="2052.43,-1784.5 2062.43,-1781 2052.43,-1777.5 2052.43,-1784.5"/>
</g>
<!-- n35 -->
<g id="node36" class="node">
<title>n35</title>
<ellipse fill="none" stroke="black" cx="2624.84" cy="-1781" rx="41.69" ry="18"/>
<text text-anchor="middle" x="2624.84" y="-1777.3" font-family="Times,serif" font-size="14.00">output</text>
</g>
<!-- n33&#45;&gt;n35 -->
<!-- n69 -->
<g id="node49" class="node">
<title>n69</title>
<ellipse fill="none" stroke="black" cx="3162.57" cy="-1448" rx="48.19" ry="18"/>
<text text-anchor="middle" x="3162.57" y="-1444.3" font-family="Times,serif" font-size="14.00">on_false</text>
</g>
<!-- n35&#45;&gt;n69 -->
<g id="edge28" class="edge">
<title>n35&#45;&gt;n69</title>
<path fill="none" stroke="black" d="M2666.89,-1781C2786.18,-1781 3118.1,-1781 3118.1,-1781 3118.1,-1781 3118.1,-1466.78 3118.1,-1466.78"/>
<polygon fill="black" stroke="black" points="3121.6,-1466.78 3118.1,-1456.78 3114.6,-1466.78 3121.6,-1466.78"/>
<text text-anchor="middle" x="2871.93" y="-1538.8" font-family="Times,serif" font-size="14.00">CONCURRENCY_INCREMENT_NORMAL</text>
</g>
<!-- n47 -->
<g id="node39" class="node">
<title>n47</title>
<ellipse fill="none" stroke="black" cx="3162.57" cy="-1006" rx="50.89" ry="18"/>
<text text-anchor="middle" x="3162.57" y="-1002.3" font-family="Times,serif" font-size="14.00">optimize</text>
</g>
<!-- n51 -->
<g id="node40" class="node">
<title>n51</title>
<ellipse fill="none" stroke="black" cx="3630.31" cy="-898" rx="41.69" ry="18"/>
<text text-anchor="middle" x="3630.31" y="-894.3" font-family="Times,serif" font-size="14.00">output</text>
</g>
<!-- n51&#45;&gt;n12 -->
<g id="edge44" class="edge">
<title>n51&#45;&gt;n12</title>
<path fill="none" stroke="black" d="M3631.1,-879.67C3631.1,-803.77 3631.1,-518 3631.1,-518 3631.1,-518 2143.33,-518 2143.33,-518"/>
<polygon fill="black" stroke="black" points="2143.33,-514.5 2133.33,-518 2143.33,-521.5 2143.33,-514.5"/>
<text text-anchor="middle" x="2871.93" y="-632.8" font-family="Times,serif" font-size="14.00">DESIRED_CONCURRENCY</text>
</g>
<!-- n50 -->
<g id="node42" class="node">
<title>n50</title>
<ellipse fill="none" stroke="black" cx="3162.57" cy="-952" rx="38.19" ry="18"/>
<text text-anchor="middle" x="3162.57" y="-948.3" font-family="Times,serif" font-size="14.00">signal</text>
</g>
<!-- n50&#45;&gt;n51 -->
<!-- n31 -->
<g id="node44" class="node">
<title>n31</title>
<ellipse fill="none" stroke="black" cx="2624.84" cy="-1227" rx="41.69" ry="18"/>
<text text-anchor="middle" x="2624.84" y="-1223.3" font-family="Times,serif" font-size="14.00">output</text>
</g>
<!-- n30&#45;&gt;n31 -->
<!-- n31&#45;&gt;n33 -->
<g id="edge27" class="edge">
<title>n31&#45;&gt;n33</title>
<path fill="none" stroke="black" d="M2584.95,-1233C2511.91,-1233 2364.1,-1233 2364.1,-1233 2364.1,-1233 2364.1,-1775 2364.1,-1775 2364.1,-1775 2154.18,-1775 2154.18,-1775"/>
<polygon fill="black" stroke="black" points="2154.18,-1771.5 2144.18,-1775 2154.18,-1778.5 2154.18,-1771.5"/>
<text text-anchor="middle" x="2349.14" y="-1726.8" font-family="Times,serif" font-size="14.00">CONCURRENCY_INCREMENT_INTEGRAL_CAPPED</text>
</g>
<!-- n40 -->
<g id="node45" class="node">
<title>n40</title>
<ellipse fill="none" stroke="black" cx="99.6" cy="-1480" rx="41.69" ry="18"/>
<text text-anchor="middle" x="99.6" y="-1476.3" font-family="Times,serif" font-size="14.00">output</text>
</g>
<!-- n40&#45;&gt;n2 -->
<g id="edge33" class="edge">
<title>n40&#45;&gt;n2</title>
<path fill="none" stroke="black" d="M138.1,-1472.44C138.1,-1436.09 138.1,-1281 138.1,-1281 138.1,-1281 275.55,-1281 275.55,-1281"/>
<polygon fill="black" stroke="black" points="275.55,-1284.5 285.55,-1281 275.55,-1277.5 275.55,-1284.5"/>
<text text-anchor="middle" x="234.19" y="-1468.8" font-family="Times,serif" font-size="14.00">LATENCY</text>
</g>
<!-- n40&#45;&gt;n62 -->
<g id="edge36" class="edge">
<title>n40&#45;&gt;n62</title>
<path fill="none" stroke="black" d="M100.1,-1498.23C100.1,-1594.31 100.1,-2037.5 100.1,-2037.5 100.1,-2037.5 2065.64,-2037.5 2065.64,-2037.5"/>
<polygon fill="black" stroke="black" points="2065.64,-2041 2075.64,-2037.5 2065.64,-2034 2065.64,-2041"/>
<text text-anchor="middle" x="927.47" y="-2156.8" font-family="Times,serif" font-size="14.00">LATENCY</text>
</g>
<!-- n40&#45;&gt;n42 -->
<g id="edge34" class="edge">
<title>n40&#45;&gt;n42</title>
<path fill="none" stroke="black" d="M138.16,-1487.5C138.16,-1487.5 754.66,-1487.5 754.66,-1487.5"/>
<polygon fill="black" stroke="black" points="754.66,-1491 764.66,-1487.5 754.66,-1484 754.66,-1491"/>
<text text-anchor="middle" x="394.19" y="-1498.8" font-family="Times,serif" font-size="14.00">LATENCY</text>
</g>
<!-- n40&#45;&gt;n50 -->
<g id="edge35" class="edge">
<title>n40&#45;&gt;n50</title>
<path fill="none" stroke="black" d="M135.1,-1470.38C135.1,-1398.82 135.1,-952 135.1,-952 135.1,-952 3112.51,-952 3112.51,-952"/>
<polygon fill="black" stroke="black" points="3112.51,-955.5 3122.51,-952 3112.51,-948.5 3112.51,-955.5"/>
<text text-anchor="middle" x="1206.77" y="-1102.8" font-family="Times,serif" font-size="14.00">LATENCY</text>
</g>
<!-- n38 -->
<g id="node47" class="node">
<title>n38</title>
<ellipse fill="none" stroke="black" cx="2624.84" cy="-297" rx="41.69" ry="18"/>
<text text-anchor="middle" x="2624.84" y="-293.3" font-family="Times,serif" font-size="14.00">output</text>
</g>
<!-- n37&#45;&gt;n38 -->
<!-- n38&#45;&gt;n23 -->
<g id="edge32" class="edge">
<title>n38&#45;&gt;n23</title>
<path fill="none" stroke="black" d="M2662.1,-288.49C2662.1,-254.46 2662.1,-130 2662.1,-130 2662.1,-130 3123.8,-130 3123.8,-130"/>
<polygon fill="black" stroke="black" points="3123.8,-133.5 3133.8,-130 3123.8,-126.5 3123.8,-133.5"/>
<text text-anchor="middle" x="2871.93" y="-216.8" font-family="Times,serif" font-size="14.00">SQRT_CONCURRENCY_INCREMENT</text>
</g>
<!-- n68 -->
<g id="node48" class="node">
<title>n68</title>
<ellipse fill="none" stroke="black" cx="2624.84" cy="-1394" rx="31.4" ry="18"/>
<text text-anchor="middle" x="2624.84" y="-1390.3" font-family="Times,serif" font-size="14.00">0.00</text>
</g>
<!-- n67 -->
<g id="node50" class="node">
<title>n67</title>
<ellipse fill="none" stroke="black" cx="3162.57" cy="-1394" rx="46.29" ry="18"/>
<text text-anchor="middle" x="3162.57" y="-1390.3" font-family="Times,serif" font-size="14.00">on_true</text>
</g>
<!-- n68&#45;&gt;n67 -->
<g id="edge19" class="edge">
<title>n68&#45;&gt;n67</title>
<path fill="none" stroke="black" d="M2656.47,-1394C2656.47,-1394 3104.35,-1394 3104.35,-1394"/>
<polygon fill="black" stroke="black" points="3104.35,-1397.5 3114.35,-1394 3104.35,-1390.5 3104.35,-1397.5"/>
</g>
<!-- n70 -->
<g id="node51" class="node">
<title>n70</title>
<ellipse fill="none" stroke="black" cx="3630.31" cy="-1421" rx="41.69" ry="18"/>
<text text-anchor="middle" x="3630.31" y="-1417.3" font-family="Times,serif" font-size="14.00">output</text>
</g>
<!-- n69&#45;&gt;n70 -->
<!-- n70&#45;&gt;n26 -->
<g id="edge41" class="edge">
<title>n70&#45;&gt;n26</title>
<path fill="none" stroke="black" d="M3672.26,-1421C3672.26,-1421 4104.05,-1421 4104.05,-1421"/>
<polygon fill="black" stroke="black" points="4104.05,-1424.5 4114.05,-1421 4104.05,-1417.5 4104.05,-1424.5"/>
<text text-anchor="middle" x="3893.91" y="-1424.8" font-family="Times,serif" font-size="14.00">CONCURRENCY_INCREMENT</text>
</g>
<!-- n70&#45;&gt;n47 -->
<g id="edge42" class="edge">
<title>n70&#45;&gt;n47</title>
<path fill="none" stroke="black" d="M3631.1,-1402.63C3631.1,-1322.32 3631.1,-1006 3631.1,-1006 3631.1,-1006 3225.12,-1006 3225.12,-1006"/>
<polygon fill="black" stroke="black" points="3225.12,-1002.5 3215.12,-1006 3225.12,-1009.5 3225.12,-1002.5"/>
<text text-anchor="middle" x="3418.22" y="-1212.8" font-family="Times,serif" font-size="14.00">CONCURRENCY_INCREMENT</text>
</g>
</g>
</svg>
