<?xml version="1.0" encoding="UTF-8" standalone="no"?>
<!DOCTYPE svg PUBLIC "-//W3C//DTD SVG 1.1//EN"
 "http://www.w3.org/Graphics/SVG/1.1/DTD/svg11.dtd">
<!-- Generated by graphviz version 2.43.0 (0)
 -->
<!-- Title: %3 Pages: 1 -->
<svg width="4357pt" height="2181pt"
 viewBox="0.00 0.00 4357.40 2181.00" xmlns="http://www.w3.org/2000/svg" xmlns:xlink="http://www.w3.org/1999/xlink">
<g id="graph0" class="graph" transform="scale(1 1) rotate(0) translate(4 2177)">
<title>%3</title>
<polygon fill="white" stroke="transparent" points="-4,4 -4,-2177 4353.4,-2177 4353.4,4 -4,4"/>
<g id="clust1" class="cluster">
<title>cluster_s1</title>
<polygon fill="none" stroke="black" points="18.4,-1164 18.4,-1377 580.39,-1377 580.39,-1164 18.4,-1164"/>
<text text-anchor="middle" x="299.39" y="-1361.8" font-family="Times,serif" font-size="14.00">ArithmeticCombinator[0]</text>
</g>
<g id="clust4" class="cluster">
<title>cluster_s6</title>
<polygon fill="none" stroke="black" points="970.47,-1885 970.47,-2098 1668.25,-2098 1668.25,-1885 970.47,-1885"/>
<text text-anchor="middle" x="1319.36" y="-2082.8" font-family="Times,serif" font-size="14.00">ArithmeticCombinator[1]</text>
</g>
<g id="clust7" class="cluster">
<title>cluster_s11</title>
<polygon fill="none" stroke="black" points="2028.34,-396 2028.34,-609 2717.73,-609 2717.73,-396 2028.34,-396"/>
<text text-anchor="middle" x="2373.04" y="-593.8" font-family="Times,serif" font-size="14.00">ArithmeticCombinator[2]</text>
</g>
<g id="clust10" class="cluster">
<title>cluster_s15</title>
<polygon fill="none" stroke="black" points="1495.46,-793 1495.46,-1006 2717.73,-1006 2717.73,-793 1495.46,-793"/>
<text text-anchor="middle" x="2106.6" y="-990.8" font-family="Times,serif" font-size="14.00">ArithmeticCombinator[3]</text>
</g>
<g id="clust13" class="cluster">
<title>cluster_s20</title>
<polygon fill="none" stroke="black" points="2544.94,-8 2544.94,-221 3723.21,-221 3723.21,-8 2544.94,-8"/>
<text text-anchor="middle" x="3134.08" y="-205.8" font-family="Times,serif" font-size="14.00">ArithmeticCombinator[4]</text>
</g>
<g id="clust16" class="cluster">
<title>cluster_s25</title>
<polygon fill="none" stroke="black" points="4067.21,-1331 4067.21,-1544 4341.4,-1544 4341.4,-1331 4067.21,-1331"/>
<text text-anchor="middle" x="4204.31" y="-1528.8" font-family="Times,serif" font-size="14.00">ArithmeticCombinator[5]</text>
</g>
<g id="clust19" class="cluster">
<title>cluster_s55</title>
<polygon fill="none" stroke="black" points="1362.27,-240 1362.27,-785 1791.04,-785 1791.04,-240 1362.27,-240"/>
<text text-anchor="middle" x="1576.66" y="-769.8" font-family="Times,serif" font-size="14.00">ConcurrencyLimiter[13]</text>
</g>
<g id="clust20" class="cluster">
<title>cluster_s59</title>
<polygon fill="none" stroke="black" points="1446.06,-290 1446.06,-449 1707.25,-449 1707.25,-290 1446.06,-290"/>
<text text-anchor="middle" x="1576.66" y="-433.8" font-family="Times,serif" font-size="14.00">LoadActuator[13.LoadActuator]</text>
</g>
<g id="clust22" class="cluster">
<title>cluster_s56</title>
<polygon fill="none" stroke="black" points="1412.27,-499 1412.27,-712 1741.04,-712 1741.04,-499 1412.27,-499"/>
<text text-anchor="middle" x="1576.66" y="-696.8" font-family="Times,serif" font-size="14.00">Scheduler[13.Scheduler]</text>
</g>
<g id="clust24" class="cluster">
<title>cluster_s61</title>
<polygon fill="none" stroke="black" points="2028.34,-1920 2028.34,-2133 2717.73,-2133 2717.73,-1920 2028.34,-1920"/>
<text text-anchor="middle" x="2373.04" y="-2117.8" font-family="Times,serif" font-size="14.00">Decider[14]</text>
</g>
<g id="clust27" class="cluster">
<title>cluster_s41</title>
<polygon fill="none" stroke="black" points="672.39,-1378 672.39,-1591 1143.27,-1591 1143.27,-1378 672.39,-1378"/>
<text text-anchor="middle" x="907.83" y="-1575.8" font-family="Times,serif" font-size="14.00">EMA[10]</text>
</g>
<g id="clust30" class="cluster">
<title>cluster_s52</title>
<polygon fill="none" stroke="black" points="3078.78,-476 3078.78,-635 3723.21,-635 3723.21,-476 3078.78,-476"/>
<text text-anchor="middle" x="3401" y="-619.8" font-family="Times,serif" font-size="14.00">Extrapolator[12]</text>
</g>
<g id="clust33" class="cluster">
<title>cluster_s32</title>
<polygon fill="none" stroke="black" points="1495.46,-1718 1495.46,-1877 2717.73,-1877 2717.73,-1718 1495.46,-1718"/>
<text text-anchor="middle" x="2106.6" y="-1861.8" font-family="Times,serif" font-size="14.00">FirstValid[7]</text>
</g>
<g id="clust36" class="cluster">
<title>cluster_s45</title>
<polygon fill="none" stroke="black" points="3028.73,-799 3028.73,-1174 3723.21,-1174 3723.21,-799 3028.73,-799"/>
<text text-anchor="middle" x="3375.97" y="-1158.8" font-family="Times,serif" font-size="14.00">Gradient[11]</text>
</g>
<g id="clust39" class="cluster">
<title>cluster_s29</title>
<polygon fill="none" stroke="black" points="2015.04,-1164 2015.04,-1323 2717.73,-1323 2717.73,-1164 2015.04,-1164"/>
<text text-anchor="middle" x="2366.39" y="-1307.8" font-family="Times,serif" font-size="14.00">Min[6]</text>
</g>
<g id="clust42" class="cluster">
<title>cluster_s39</title>
<polygon fill="none" stroke="black" points="8,-1417 8,-1576 191.19,-1576 191.19,-1417 8,-1417"/>
<text text-anchor="middle" x="99.6" y="-1560.8" font-family="Times,serif" font-size="14.00">PromQL[9]</text>
</g>
<g id="clust44" class="cluster">
<title>cluster_s36</title>
<polygon fill="none" stroke="black" points="2020.24,-229 2020.24,-388 2717.73,-388 2717.73,-229 2020.24,-229"/>
<text text-anchor="middle" x="2368.99" y="-372.8" font-family="Times,serif" font-size="14.00">Sqrt[8]</text>
</g>
<g id="clust47" class="cluster">
<title>cluster_s65</title>
<polygon fill="none" stroke="black" points="2544.94,-1331 2544.94,-1598 3723.21,-1598 3723.21,-1331 2544.94,-1331"/>
<text text-anchor="middle" x="3134.08" y="-1582.8" font-family="Times,serif" font-size="14.00">Switcher[15]</text>
</g>
<!-- n3 -->
<g id="node1" class="node">
<title>n3</title>
<ellipse fill="none" stroke="black" cx="99.6" cy="-1232" rx="31.4" ry="18"/>
<text text-anchor="middle" x="99.6" y="-1228.3" font-family="Times,serif" font-size="14.00">2.00</text>
</g>
<!-- n2 -->
<g id="node4" class="node">
<title>n2</title>
<ellipse fill="none" stroke="black" cx="314.19" cy="-1232" rx="27" ry="18"/>
<text text-anchor="middle" x="314.19" y="-1228.3" font-family="Times,serif" font-size="14.00">rhs</text>
</g>
<!-- n3&#45;&gt;n2 -->
<g id="edge1" class="edge">
<title>n3&#45;&gt;n2</title>
<path fill="none" stroke="black" d="M130.8,-1232C130.8,-1232 277.03,-1232 277.03,-1232"/>
<polygon fill="black" stroke="black" points="277.03,-1235.5 287.03,-1232 277.03,-1228.5 277.03,-1235.5"/>
</g>
<!-- n4 -->
<g id="node2" class="node">
<title>n4</title>
<ellipse fill="none" stroke="black" cx="314.19" cy="-1286" rx="27" ry="18"/>
<text text-anchor="middle" x="314.19" y="-1282.3" font-family="Times,serif" font-size="14.00">lhs</text>
</g>
<!-- n5 -->
<g id="node3" class="node">
<title>n5</title>
<ellipse fill="none" stroke="black" cx="488.79" cy="-1286" rx="41.69" ry="18"/>
<text text-anchor="middle" x="488.79" y="-1282.3" font-family="Times,serif" font-size="14.00">output</text>
</g>
<!-- n4&#45;&gt;n5 -->
<!-- n42 -->
<g id="node30" class="node">
<title>n42</title>
<ellipse fill="none" stroke="black" cx="798.43" cy="-1446" rx="76.09" ry="18"/>
<text text-anchor="middle" x="798.43" y="-1442.3" font-family="Times,serif" font-size="14.00">max_envelope</text>
</g>
<!-- n5&#45;&gt;n42 -->
<g id="edge30" class="edge">
<title>n5&#45;&gt;n42</title>
<path fill="none" stroke="black" d="M489.4,-1304.04C489.4,-1345.89 489.4,-1446 489.4,-1446 489.4,-1446 712.04,-1446 712.04,-1446"/>
<polygon fill="black" stroke="black" points="712.04,-1449.5 722.04,-1446 712.04,-1442.5 712.04,-1449.5"/>
<text text-anchor="middle" x="626.39" y="-1369.8" font-family="Times,serif" font-size="14.00">MAX_EMA</text>
</g>
<!-- n9 -->
<g id="node5" class="node">
<title>n9</title>
<ellipse fill="none" stroke="black" cx="1051.67" cy="-2007" rx="31.4" ry="18"/>
<text text-anchor="middle" x="1051.67" y="-2003.3" font-family="Times,serif" font-size="14.00">1.10</text>
</g>
<!-- n8 -->
<g id="node8" class="node">
<title>n8</title>
<ellipse fill="none" stroke="black" cx="1308.27" cy="-2007" rx="27" ry="18"/>
<text text-anchor="middle" x="1308.27" y="-2003.3" font-family="Times,serif" font-size="14.00">rhs</text>
</g>
<!-- n9&#45;&gt;n8 -->
<g id="edge3" class="edge">
<title>n9&#45;&gt;n8</title>
<path fill="none" stroke="black" d="M1082.88,-2007C1082.88,-2007 1271.17,-2007 1271.17,-2007"/>
<polygon fill="black" stroke="black" points="1271.17,-2010.5 1281.17,-2007 1271.17,-2003.5 1271.17,-2010.5"/>
</g>
<!-- n7 -->
<g id="node6" class="node">
<title>n7</title>
<ellipse fill="none" stroke="black" cx="1308.27" cy="-1953" rx="27" ry="18"/>
<text text-anchor="middle" x="1308.27" y="-1949.3" font-family="Times,serif" font-size="14.00">lhs</text>
</g>
<!-- n10 -->
<g id="node7" class="node">
<title>n10</title>
<ellipse fill="none" stroke="black" cx="1576.66" cy="-1988" rx="41.69" ry="18"/>
<text text-anchor="middle" x="1576.66" y="-1984.3" font-family="Times,serif" font-size="14.00">output</text>
</g>
<!-- n63 -->
<g id="node28" class="node">
<title>n63</title>
<ellipse fill="none" stroke="black" cx="2105.34" cy="-1988" rx="27" ry="18"/>
<text text-anchor="middle" x="2105.34" y="-1984.3" font-family="Times,serif" font-size="14.00">rhs</text>
</g>
<!-- n10&#45;&gt;n63 -->
<g id="edge28" class="edge">
<title>n10&#45;&gt;n63</title>
<path fill="none" stroke="black" d="M1618.58,-1988C1618.58,-1988 2068.17,-1988 2068.17,-1988"/>
<polygon fill="black" stroke="black" points="2068.17,-1991.5 2078.17,-1988 2068.17,-1984.5 2068.17,-1991.5"/>
<text text-anchor="middle" x="1903.04" y="-1991.8" font-family="Times,serif" font-size="14.00">LATENCY_SETPOINT</text>
</g>
<!-- n49 -->
<g id="node41" class="node">
<title>n49</title>
<ellipse fill="none" stroke="black" cx="3163.88" cy="-1083" rx="48.99" ry="18"/>
<text text-anchor="middle" x="3163.88" y="-1079.3" font-family="Times,serif" font-size="14.00">setpoint</text>
</g>
<!-- n10&#45;&gt;n49 -->
<g id="edge27" class="edge">
<title>n10&#45;&gt;n49</title>
<path fill="none" stroke="black" d="M1613.4,-1979.33C1613.4,-1886.72 1613.4,-1083 1613.4,-1083 1613.4,-1083 3104.91,-1083 3104.91,-1083"/>
<polygon fill="black" stroke="black" points="3104.91,-1086.5 3114.91,-1083 3104.91,-1079.5 3104.91,-1086.5"/>
<text text-anchor="middle" x="2350.14" y="-1102.8" font-family="Times,serif" font-size="14.00">LATENCY_SETPOINT</text>
</g>
<!-- n8&#45;&gt;n10 -->
<!-- n13 -->
<g id="node9" class="node">
<title>n13</title>
<ellipse fill="none" stroke="black" cx="2105.34" cy="-518" rx="27" ry="18"/>
<text text-anchor="middle" x="2105.34" y="-514.3" font-family="Times,serif" font-size="14.00">lhs</text>
</g>
<!-- n14 -->
<g id="node10" class="node">
<title>n14</title>
<ellipse fill="none" stroke="black" cx="2626.14" cy="-518" rx="41.69" ry="18"/>
<text text-anchor="middle" x="2626.14" y="-514.3" font-family="Times,serif" font-size="14.00">output</text>
</g>
<!-- n13&#45;&gt;n14 -->
<!-- n53 -->
<g id="node32" class="node">
<title>n53</title>
<ellipse fill="none" stroke="black" cx="3163.88" cy="-544" rx="35.19" ry="18"/>
<text text-anchor="middle" x="3163.88" y="-540.3" font-family="Times,serif" font-size="14.00">input</text>
</g>
<!-- n14&#45;&gt;n53 -->
<g id="edge38" class="edge">
<title>n14&#45;&gt;n53</title>
<path fill="none" stroke="black" d="M2655.05,-531C2655.05,-531 3129.56,-531 3129.56,-531"/>
<polygon fill="black" stroke="black" points="3129.56,-534.5 3139.56,-531 3129.56,-527.5 3129.56,-534.5"/>
<text text-anchor="middle" x="2873.23" y="-524.8" font-family="Times,serif" font-size="14.00">DESIRED_CONCURRENCY_RATIO</text>
</g>
<!-- n12 -->
<g id="node11" class="node">
<title>n12</title>
<ellipse fill="none" stroke="black" cx="2105.34" cy="-464" rx="27" ry="18"/>
<text text-anchor="middle" x="2105.34" y="-460.3" font-family="Times,serif" font-size="14.00">rhs</text>
</g>
<!-- n17 -->
<g id="node12" class="node">
<title>n17</title>
<ellipse fill="none" stroke="black" cx="1576.66" cy="-915" rx="31.4" ry="18"/>
<text text-anchor="middle" x="1576.66" y="-911.3" font-family="Times,serif" font-size="14.00">2.00</text>
</g>
<!-- n16 -->
<g id="node13" class="node">
<title>n16</title>
<ellipse fill="none" stroke="black" cx="2105.34" cy="-915" rx="27" ry="18"/>
<text text-anchor="middle" x="2105.34" y="-911.3" font-family="Times,serif" font-size="14.00">lhs</text>
</g>
<!-- n17&#45;&gt;n16 -->
<g id="edge6" class="edge">
<title>n17&#45;&gt;n16</title>
<path fill="none" stroke="black" d="M1608.14,-915C1608.14,-915 2068.21,-915 2068.21,-915"/>
<polygon fill="black" stroke="black" points="2068.21,-918.5 2078.21,-915 2068.21,-911.5 2068.21,-918.5"/>
</g>
<!-- n19 -->
<g id="node14" class="node">
<title>n19</title>
<ellipse fill="none" stroke="black" cx="2626.14" cy="-888" rx="41.69" ry="18"/>
<text text-anchor="middle" x="2626.14" y="-884.3" font-family="Times,serif" font-size="14.00">output</text>
</g>
<!-- n46 -->
<g id="node38" class="node">
<title>n46</title>
<ellipse fill="none" stroke="black" cx="3163.88" cy="-921" rx="30.59" ry="18"/>
<text text-anchor="middle" x="3163.88" y="-917.3" font-family="Times,serif" font-size="14.00">max</text>
</g>
<!-- n19&#45;&gt;n46 -->
<g id="edge44" class="edge">
<title>n19&#45;&gt;n46</title>
<path fill="none" stroke="black" d="M2662.29,-897C2782.98,-897 3164.4,-897 3164.4,-897 3164.4,-897 3164.4,-897.58 3164.4,-897.58"/>
<polygon fill="black" stroke="black" points="3160.9,-892.81 3164.4,-902.81 3167.9,-892.81 3160.9,-892.81"/>
<text text-anchor="middle" x="2873.23" y="-911.8" font-family="Times,serif" font-size="14.00">NORMAL_CONCURRENCY_LIMIT</text>
</g>
<!-- n18 -->
<g id="node15" class="node">
<title>n18</title>
<ellipse fill="none" stroke="black" cx="2105.34" cy="-861" rx="27" ry="18"/>
<text text-anchor="middle" x="2105.34" y="-857.3" font-family="Times,serif" font-size="14.00">rhs</text>
</g>
<!-- n18&#45;&gt;n19 -->
<!-- n23 -->
<g id="node16" class="node">
<title>n23</title>
<ellipse fill="none" stroke="black" cx="2626.14" cy="-76" rx="31.4" ry="18"/>
<text text-anchor="middle" x="2626.14" y="-72.3" font-family="Times,serif" font-size="14.00">5.00</text>
</g>
<!-- n22 -->
<g id="node17" class="node">
<title>n22</title>
<ellipse fill="none" stroke="black" cx="3163.88" cy="-76" rx="27" ry="18"/>
<text text-anchor="middle" x="3163.88" y="-72.3" font-family="Times,serif" font-size="14.00">lhs</text>
</g>
<!-- n23&#45;&gt;n22 -->
<g id="edge8" class="edge">
<title>n23&#45;&gt;n22</title>
<path fill="none" stroke="black" d="M2657.37,-76C2657.37,-76 3126.8,-76 3126.8,-76"/>
<polygon fill="black" stroke="black" points="3126.8,-79.5 3136.8,-76 3126.8,-72.5 3126.8,-79.5"/>
</g>
<!-- n24 -->
<g id="node18" class="node">
<title>n24</title>
<ellipse fill="none" stroke="black" cx="3631.62" cy="-116" rx="41.69" ry="18"/>
<text text-anchor="middle" x="3631.62" y="-112.3" font-family="Times,serif" font-size="14.00">output</text>
</g>
<!-- n22&#45;&gt;n24 -->
<!-- n26 -->
<g id="node20" class="node">
<title>n26</title>
<ellipse fill="none" stroke="black" cx="4144.21" cy="-1399" rx="27" ry="18"/>
<text text-anchor="middle" x="4144.21" y="-1395.3" font-family="Times,serif" font-size="14.00">lhs</text>
</g>
<!-- n24&#45;&gt;n26 -->
<g id="edge45" class="edge">
<title>n24&#45;&gt;n26</title>
<path fill="none" stroke="black" d="M3673.58,-116C3796.05,-116 4144.4,-116 4144.4,-116 4144.4,-116 4144.4,-1370.86 4144.4,-1370.86"/>
<polygon fill="black" stroke="black" points="4140.9,-1370.86 4144.4,-1380.86 4147.9,-1370.86 4140.9,-1370.86"/>
<text text-anchor="middle" x="3895.21" y="-754.8" font-family="Times,serif" font-size="14.00">CONCURRENCY_INCREMENT_SINGLE_TICK</text>
</g>
<!-- n21 -->
<g id="node19" class="node">
<title>n21</title>
<ellipse fill="none" stroke="black" cx="3163.88" cy="-130" rx="27" ry="18"/>
<text text-anchor="middle" x="3163.88" y="-126.3" font-family="Times,serif" font-size="14.00">rhs</text>
</g>
<!-- n28 -->
<g id="node21" class="node">
<title>n28</title>
<ellipse fill="none" stroke="black" cx="4249.81" cy="-1453" rx="41.69" ry="18"/>
<text text-anchor="middle" x="4249.81" y="-1449.3" font-family="Times,serif" font-size="14.00">output</text>
</g>
<!-- n30 -->
<g id="node43" class="node">
<title>n30</title>
<ellipse fill="none" stroke="black" cx="2105.34" cy="-1232" rx="40.09" ry="18"/>
<text text-anchor="middle" x="2105.34" y="-1228.3" font-family="Times,serif" font-size="14.00">inputs</text>
</g>
<!-- n28&#45;&gt;n30 -->
<g id="edge29" class="edge">
<title>n28&#45;&gt;n30</title>
<path fill="none" stroke="black" d="M4250.4,-1434.86C4250.4,-1432.84 4250.4,-1431.5 4250.4,-1431.5 4250.4,-1431.5 2105.4,-1431.5 2105.4,-1431.5 2105.4,-1431.5 2105.4,-1260.06 2105.4,-1260.06"/>
<polygon fill="black" stroke="black" points="2108.9,-1260.06 2105.4,-1250.06 2101.9,-1260.06 2108.9,-1260.06"/>
<text text-anchor="middle" x="3419.52" y="-1669.8" font-family="Times,serif" font-size="14.00">CONCURRENCY_INCREMENT_INTEGRAL</text>
</g>
<!-- n27 -->
<g id="node22" class="node">
<title>n27</title>
<ellipse fill="none" stroke="black" cx="4144.21" cy="-1453" rx="27" ry="18"/>
<text text-anchor="middle" x="4144.21" y="-1449.3" font-family="Times,serif" font-size="14.00">rhs</text>
</g>
<!-- n27&#45;&gt;n28 -->
<!-- n60 -->
<g id="node23" class="node">
<title>n60</title>
<ellipse fill="none" stroke="black" cx="1576.66" cy="-358" rx="80.69" ry="18"/>
<text text-anchor="middle" x="1576.66" y="-354.3" font-family="Times,serif" font-size="14.00">load_multiplier</text>
</g>
<!-- n57 -->
<g id="node24" class="node">
<title>n57</title>
<ellipse fill="none" stroke="black" cx="1576.66" cy="-621" rx="113.98" ry="18"/>
<text text-anchor="middle" x="1576.66" y="-617.3" font-family="Times,serif" font-size="14.00">accepted_concurrency</text>
</g>
<!-- n57&#45;&gt;n18 -->
<g id="edge21" class="edge">
<title>n57&#45;&gt;n18</title>
<path fill="none" stroke="black" d="M1688.15,-624.6C1840.87,-624.6 2096.4,-624.6 2096.4,-624.6 2096.4,-624.6 2096.4,-834 2096.4,-834"/>
<polygon fill="black" stroke="black" points="2092.9,-834 2096.4,-844 2099.9,-834 2092.9,-834"/>
<text text-anchor="middle" x="1903.04" y="-814.8" font-family="Times,serif" font-size="14.00">ACCEPTED_CONCURRENCY</text>
</g>
<!-- n47 -->
<g id="node37" class="node">
<title>n47</title>
<ellipse fill="none" stroke="black" cx="3163.88" cy="-867" rx="85.29" ry="18"/>
<text text-anchor="middle" x="3163.88" y="-863.3" font-family="Times,serif" font-size="14.00">control_variable</text>
</g>
<!-- n57&#45;&gt;n47 -->
<g id="edge24" class="edge">
<title>n57&#45;&gt;n47</title>
<path fill="none" stroke="black" d="M1688.38,-617.4C2040.56,-617.4 3104.4,-617.4 3104.4,-617.4 3104.4,-617.4 3104.4,-843.93 3104.4,-843.93"/>
<polygon fill="black" stroke="black" points="3100.9,-843.93 3104.4,-853.93 3107.9,-843.93 3100.9,-843.93"/>
<text text-anchor="middle" x="2350.14" y="-731.8" font-family="Times,serif" font-size="14.00">ACCEPTED_CONCURRENCY</text>
</g>
<!-- n57&#45;&gt;n30 -->
<g id="edge22" class="edge">
<title>n57&#45;&gt;n30</title>
<path fill="none" stroke="black" d="M1667.77,-631.8C1811.17,-631.8 2073.4,-631.8 2073.4,-631.8 2073.4,-631.8 2073.4,-1210.81 2073.4,-1210.81"/>
<polygon fill="black" stroke="black" points="2069.9,-1210.81 2073.4,-1220.81 2076.9,-1210.81 2069.9,-1210.81"/>
<text text-anchor="middle" x="1903.04" y="-1077.8" font-family="Times,serif" font-size="14.00">ACCEPTED_CONCURRENCY</text>
</g>
<!-- n37 -->
<g id="node46" class="node">
<title>n37</title>
<ellipse fill="none" stroke="black" cx="2105.34" cy="-297" rx="35.19" ry="18"/>
<text text-anchor="middle" x="2105.34" y="-293.3" font-family="Times,serif" font-size="14.00">input</text>
</g>
<!-- n57&#45;&gt;n37 -->
<g id="edge23" class="edge">
<title>n57&#45;&gt;n37</title>
<path fill="none" stroke="black" d="M1667.74,-610.2C1811.88,-610.2 2076.4,-610.2 2076.4,-610.2 2076.4,-610.2 2076.4,-317.42 2076.4,-317.42"/>
<polygon fill="black" stroke="black" points="2079.9,-317.42 2076.4,-307.42 2072.9,-317.42 2079.9,-317.42"/>
<text text-anchor="middle" x="1903.04" y="-701.8" font-family="Times,serif" font-size="14.00">ACCEPTED_CONCURRENCY</text>
</g>
<!-- n58 -->
<g id="node25" class="node">
<title>n58</title>
<ellipse fill="none" stroke="black" cx="1576.66" cy="-567" rx="114.28" ry="18"/>
<text text-anchor="middle" x="1576.66" y="-563.3" font-family="Times,serif" font-size="14.00">incoming_concurrency</text>
</g>
<!-- n58&#45;&gt;n12 -->
<g id="edge25" class="edge">
<title>n58&#45;&gt;n12</title>
<path fill="none" stroke="black" d="M1674.4,-557.49C1674.4,-532 1674.4,-464 1674.4,-464 1674.4,-464 2068.06,-464 2068.06,-464"/>
<polygon fill="black" stroke="black" points="2068.06,-467.5 2078.06,-464 2068.06,-460.5 2068.06,-467.5"/>
<text text-anchor="middle" x="1903.04" y="-519.8" font-family="Times,serif" font-size="14.00">INCOMING_CONCURRENCY</text>
</g>
<!-- n62 -->
<g id="node26" class="node">
<title>n62</title>
<ellipse fill="none" stroke="black" cx="2105.34" cy="-2042" rx="27" ry="18"/>
<text text-anchor="middle" x="2105.34" y="-2038.3" font-family="Times,serif" font-size="14.00">lhs</text>
</g>
<!-- n64 -->
<g id="node27" class="node">
<title>n64</title>
<ellipse fill="none" stroke="black" cx="2626.14" cy="-1988" rx="41.69" ry="18"/>
<text text-anchor="middle" x="2626.14" y="-1984.3" font-family="Times,serif" font-size="14.00">output</text>
</g>
<!-- n69 -->
<g id="node52" class="node">
<title>n69</title>
<ellipse fill="none" stroke="black" cx="3163.88" cy="-1507" rx="40.89" ry="18"/>
<text text-anchor="middle" x="3163.88" y="-1503.3" font-family="Times,serif" font-size="14.00">switch</text>
</g>
<!-- n64&#45;&gt;n69 -->
<g id="edge41" class="edge">
<title>n64&#45;&gt;n69</title>
<path fill="none" stroke="black" d="M2667.93,-1988C2794.39,-1988 3164.4,-1988 3164.4,-1988 3164.4,-1988 3164.4,-1535.27 3164.4,-1535.27"/>
<polygon fill="black" stroke="black" points="3167.9,-1535.27 3164.4,-1525.27 3160.9,-1535.27 3167.9,-1535.27"/>
<text text-anchor="middle" x="2873.23" y="-1833.8" font-family="Times,serif" font-size="14.00">IS_OVERLOAD</text>
</g>
<!-- n63&#45;&gt;n64 -->
<!-- n43 -->
<g id="node29" class="node">
<title>n43</title>
<ellipse fill="none" stroke="black" cx="798.43" cy="-1500" rx="35.19" ry="18"/>
<text text-anchor="middle" x="798.43" y="-1496.3" font-family="Times,serif" font-size="14.00">input</text>
</g>
<!-- n44 -->
<g id="node31" class="node">
<title>n44</title>
<ellipse fill="none" stroke="black" cx="1051.67" cy="-1500" rx="41.69" ry="18"/>
<text text-anchor="middle" x="1051.67" y="-1496.3" font-family="Times,serif" font-size="14.00">output</text>
</g>
<!-- n43&#45;&gt;n44 -->
<!-- n44&#45;&gt;n7 -->
<g id="edge37" class="edge">
<title>n44&#45;&gt;n7</title>
<path fill="none" stroke="black" d="M1088.4,-1508.64C1088.4,-1571.27 1088.4,-1953 1088.4,-1953 1088.4,-1953 1270.86,-1953 1270.86,-1953"/>
<polygon fill="black" stroke="black" points="1270.86,-1956.5 1280.86,-1953 1270.86,-1949.5 1270.86,-1956.5"/>
<text text-anchor="middle" x="1207.27" y="-1729.8" font-family="Times,serif" font-size="14.00">LATENCY_EMA</text>
</g>
<!-- n54 -->
<g id="node33" class="node">
<title>n54</title>
<ellipse fill="none" stroke="black" cx="3631.62" cy="-544" rx="41.69" ry="18"/>
<text text-anchor="middle" x="3631.62" y="-540.3" font-family="Times,serif" font-size="14.00">output</text>
</g>
<!-- n53&#45;&gt;n54 -->
<!-- n54&#45;&gt;n60 -->
<g id="edge26" class="edge">
<title>n54&#45;&gt;n60</title>
<path fill="none" stroke="black" d="M3632.4,-525.83C3632.4,-479.02 3632.4,-358 3632.4,-358 3632.4,-358 1667.56,-358 1667.56,-358"/>
<polygon fill="black" stroke="black" points="1667.56,-354.5 1657.56,-358 1667.56,-361.5 1667.56,-354.5"/>
<text text-anchor="middle" x="2626.14" y="-680.8" font-family="Times,serif" font-size="14.00">LOAD_MULTIPLIER</text>
</g>
<!-- n34 -->
<g id="node34" class="node">
<title>n34</title>
<ellipse fill="none" stroke="black" cx="1576.66" cy="-1786" rx="31.4" ry="18"/>
<text text-anchor="middle" x="1576.66" y="-1782.3" font-family="Times,serif" font-size="14.00">0.00</text>
</g>
<!-- n33 -->
<g id="node35" class="node">
<title>n33</title>
<ellipse fill="none" stroke="black" cx="2105.34" cy="-1786" rx="40.09" ry="18"/>
<text text-anchor="middle" x="2105.34" y="-1782.3" font-family="Times,serif" font-size="14.00">inputs</text>
</g>
<!-- n34&#45;&gt;n33 -->
<g id="edge14" class="edge">
<title>n34&#45;&gt;n33</title>
<path fill="none" stroke="black" d="M1608.14,-1786C1608.14,-1786 2054.86,-1786 2054.86,-1786"/>
<polygon fill="black" stroke="black" points="2054.86,-1789.5 2064.86,-1786 2054.86,-1782.5 2054.86,-1789.5"/>
</g>
<!-- n35 -->
<g id="node36" class="node">
<title>n35</title>
<ellipse fill="none" stroke="black" cx="2626.14" cy="-1786" rx="41.69" ry="18"/>
<text text-anchor="middle" x="2626.14" y="-1782.3" font-family="Times,serif" font-size="14.00">output</text>
</g>
<!-- n33&#45;&gt;n35 -->
<!-- n68 -->
<g id="node49" class="node">
<title>n68</title>
<ellipse fill="none" stroke="black" cx="3163.88" cy="-1453" rx="48.19" ry="18"/>
<text text-anchor="middle" x="3163.88" y="-1449.3" font-family="Times,serif" font-size="14.00">on_false</text>
</g>
<!-- n35&#45;&gt;n68 -->
<g id="edge31" class="edge">
<title>n35&#45;&gt;n68</title>
<path fill="none" stroke="black" d="M2667.77,-1786C2786.69,-1786 3119.4,-1786 3119.4,-1786 3119.4,-1786 3119.4,-1469.96 3119.4,-1469.96"/>
<polygon fill="black" stroke="black" points="3122.9,-1469.96 3119.4,-1459.96 3115.9,-1469.96 3122.9,-1469.96"/>
<text text-anchor="middle" x="2873.23" y="-1543.8" font-family="Times,serif" font-size="14.00">CONCURRENCY_INCREMENT_NORMAL</text>
</g>
<!-- n50 -->
<g id="node39" class="node">
<title>n50</title>
<ellipse fill="none" stroke="black" cx="3163.88" cy="-975" rx="50.89" ry="18"/>
<text text-anchor="middle" x="3163.88" y="-971.3" font-family="Times,serif" font-size="14.00">optimize</text>
</g>
<!-- n51 -->
<g id="node40" class="node">
<title>n51</title>
<ellipse fill="none" stroke="black" cx="3631.62" cy="-909" rx="41.69" ry="18"/>
<text text-anchor="middle" x="3631.62" y="-905.3" font-family="Times,serif" font-size="14.00">output</text>
</g>
<!-- n50&#45;&gt;n51 -->
<!-- n51&#45;&gt;n13 -->
<g id="edge40" class="edge">
<title>n51&#45;&gt;n13</title>
<path fill="none" stroke="black" d="M3632.4,-890.7C3632.4,-847.16 3632.4,-741 3632.4,-741 3632.4,-741 2114.4,-741 2114.4,-741 2114.4,-741 2114.4,-545.13 2114.4,-545.13"/>
<polygon fill="black" stroke="black" points="2117.9,-545.13 2114.4,-535.13 2110.9,-545.13 2117.9,-545.13"/>
<text text-anchor="middle" x="2873.23" y="-639.8" font-family="Times,serif" font-size="14.00">DESIRED_CONCURRENCY</text>
</g>
<!-- n48 -->
<g id="node42" class="node">
<title>n48</title>
<ellipse fill="none" stroke="black" cx="3163.88" cy="-1029" rx="38.19" ry="18"/>
<text text-anchor="middle" x="3163.88" y="-1025.3" font-family="Times,serif" font-size="14.00">signal</text>
</g>
<!-- n31 -->
<g id="node44" class="node">
<title>n31</title>
<ellipse fill="none" stroke="black" cx="2626.14" cy="-1232" rx="41.69" ry="18"/>
<text text-anchor="middle" x="2626.14" y="-1228.3" font-family="Times,serif" font-size="14.00">output</text>
</g>
<!-- n30&#45;&gt;n31 -->
<!-- n31&#45;&gt;n33 -->
<g id="edge39" class="edge">
<title>n31&#45;&gt;n33</title>
<path fill="none" stroke="black" d="M2586.82,-1238C2513.98,-1238 2365.4,-1238 2365.4,-1238 2365.4,-1238 2365.4,-1780 2365.4,-1780 2365.4,-1780 2153.44,-1780 2153.44,-1780"/>
<polygon fill="black" stroke="black" points="2153.44,-1776.5 2143.44,-1780 2153.44,-1783.5 2153.44,-1776.5"/>
<text text-anchor="middle" x="2350.14" y="-1731.8" font-family="Times,serif" font-size="14.00">CONCURRENCY_INCREMENT_INTEGRAL_CAPPED</text>
</g>
<!-- n40 -->
<g id="node45" class="node">
<title>n40</title>
<ellipse fill="none" stroke="black" cx="99.6" cy="-1485" rx="41.69" ry="18"/>
<text text-anchor="middle" x="99.6" y="-1481.3" font-family="Times,serif" font-size="14.00">output</text>
</g>
<!-- n40&#45;&gt;n4 -->
<g id="edge33" class="edge">
<title>n40&#45;&gt;n4</title>
<path fill="none" stroke="black" d="M138.4,-1478.38C138.4,-1443.85 138.4,-1286 138.4,-1286 138.4,-1286 277.11,-1286 277.11,-1286"/>
<polygon fill="black" stroke="black" points="277.11,-1289.5 287.11,-1286 277.11,-1282.5 277.11,-1289.5"/>
<text text-anchor="middle" x="234.19" y="-1473.8" font-family="Times,serif" font-size="14.00">LATENCY</text>
</g>
<!-- n40&#45;&gt;n62 -->
<g id="edge36" class="edge">
<title>n40&#45;&gt;n62</title>
<path fill="none" stroke="black" d="M100.4,-1503.23C100.4,-1599.31 100.4,-2042.5 100.4,-2042.5 100.4,-2042.5 2068.14,-2042.5 2068.14,-2042.5"/>
<polygon fill="black" stroke="black" points="2068.14,-2046 2078.14,-2042.5 2068.14,-2039 2068.14,-2046"/>
<text text-anchor="middle" x="927.47" y="-2161.8" font-family="Times,serif" font-size="14.00">LATENCY</text>
</g>
<!-- n40&#45;&gt;n43 -->
<g id="edge34" class="edge">
<title>n40&#45;&gt;n43</title>
<path fill="none" stroke="black" d="M137.66,-1492.5C137.66,-1492.5 756.5,-1492.5 756.5,-1492.5"/>
<polygon fill="black" stroke="black" points="756.5,-1496 766.5,-1492.5 756.5,-1489 756.5,-1496"/>
<text text-anchor="middle" x="394.19" y="-1503.8" font-family="Times,serif" font-size="14.00">LATENCY</text>
</g>
<!-- n40&#45;&gt;n48 -->
<g id="edge35" class="edge">
<title>n40&#45;&gt;n48</title>
<path fill="none" stroke="black" d="M134.4,-1475.05C134.4,-1408.37 134.4,-1029 134.4,-1029 134.4,-1029 3115.3,-1029 3115.3,-1029"/>
<polygon fill="black" stroke="black" points="3115.3,-1032.5 3125.3,-1029 3115.3,-1025.5 3115.3,-1032.5"/>
<text text-anchor="middle" x="1207.27" y="-1107.8" font-family="Times,serif" font-size="14.00">LATENCY</text>
</g>
<!-- n38 -->
<g id="node47" class="node">
<title>n38</title>
<ellipse fill="none" stroke="black" cx="2626.14" cy="-297" rx="41.69" ry="18"/>
<text text-anchor="middle" x="2626.14" y="-293.3" font-family="Times,serif" font-size="14.00">output</text>
</g>
<!-- n37&#45;&gt;n38 -->
<!-- n38&#45;&gt;n21 -->
<g id="edge32" class="edge">
<title>n38&#45;&gt;n21</title>
<path fill="none" stroke="black" d="M2663.4,-288.95C2663.4,-255.59 2663.4,-130 2663.4,-130 2663.4,-130 3126.61,-130 3126.61,-130"/>
<polygon fill="black" stroke="black" points="3126.61,-133.5 3136.61,-130 3126.61,-126.5 3126.61,-133.5"/>
<text text-anchor="middle" x="2873.23" y="-216.8" font-family="Times,serif" font-size="14.00">SQRT_CONCURRENCY_INCREMENT</text>
</g>
<!-- n67 -->
<g id="node48" class="node">
<title>n67</title>
<ellipse fill="none" stroke="black" cx="2626.14" cy="-1399" rx="31.4" ry="18"/>
<text text-anchor="middle" x="2626.14" y="-1395.3" font-family="Times,serif" font-size="14.00">0.00</text>
</g>
<!-- n66 -->
<g id="node50" class="node">
<title>n66</title>
<ellipse fill="none" stroke="black" cx="3163.88" cy="-1399" rx="46.29" ry="18"/>
<text text-anchor="middle" x="3163.88" y="-1395.3" font-family="Times,serif" font-size="14.00">on_true</text>
</g>
<!-- n67&#45;&gt;n66 -->
<g id="edge19" class="edge">
<title>n67&#45;&gt;n66</title>
<path fill="none" stroke="black" d="M2657.37,-1399C2657.37,-1399 3107.46,-1399 3107.46,-1399"/>
<polygon fill="black" stroke="black" points="3107.46,-1402.5 3117.46,-1399 3107.46,-1395.5 3107.46,-1402.5"/>
</g>
<!-- n70 -->
<g id="node51" class="node">
<title>n70</title>
<ellipse fill="none" stroke="black" cx="3631.62" cy="-1453" rx="41.69" ry="18"/>
<text text-anchor="middle" x="3631.62" y="-1449.3" font-family="Times,serif" font-size="14.00">output</text>
</g>
<!-- n70&#45;&gt;n27 -->
<g id="edge42" class="edge">
<title>n70&#45;&gt;n27</title>
<path fill="none" stroke="black" d="M3673.56,-1453C3673.56,-1453 4107.16,-1453 4107.16,-1453"/>
<polygon fill="black" stroke="black" points="4107.16,-1456.5 4117.16,-1453 4107.16,-1449.5 4107.16,-1456.5"/>
<text text-anchor="middle" x="3895.21" y="-1456.8" font-family="Times,serif" font-size="14.00">CONCURRENCY_INCREMENT</text>
</g>
<!-- n70&#45;&gt;n50 -->
<g id="edge43" class="edge">
<title>n70&#45;&gt;n50</title>
<path fill="none" stroke="black" d="M3632.4,-1434.85C3632.4,-1347.53 3632.4,-975 3632.4,-975 3632.4,-975 3224.91,-975 3224.91,-975"/>
<polygon fill="black" stroke="black" points="3224.91,-971.5 3214.91,-975 3224.91,-978.5 3224.91,-971.5"/>
<text text-anchor="middle" x="3419.52" y="-1000.8" font-family="Times,serif" font-size="14.00">CONCURRENCY_INCREMENT</text>
</g>
<!-- n69&#45;&gt;n70 -->
</g>
</svg>
