<?xml version="1.0" encoding="UTF-8" standalone="no"?>
<!DOCTYPE svg PUBLIC "-//W3C//DTD SVG 1.1//EN"
 "http://www.w3.org/Graphics/SVG/1.1/DTD/svg11.dtd">
<!-- Generated by graphviz version 6.0.2 (20221011.1828)
 -->
<!-- Pages: 1 -->
<svg width="4464pt" height="2560pt"
 viewBox="0.00 0.00 4463.85 2560.00" xmlns="http://www.w3.org/2000/svg" xmlns:xlink="http://www.w3.org/1999/xlink">
<g id="graph0" class="graph" transform="scale(1 1) rotate(0) translate(4 2556)">
<polygon fill="white" stroke="none" points="-4,4 -4,-2556 4459.85,-2556 4459.85,4 -4,4"/>
<g id="clust1" class="cluster">
<title>cluster_s1</title>
<polygon fill="none" stroke="black" points="18.4,-1373 18.4,-1586 580.39,-1586 580.39,-1373 18.4,-1373"/>
<text text-anchor="middle" x="299.39" y="-1570.8" font-family="Times,serif" font-size="14.00">ArithmeticCombinator[0]</text>
</g>
<g id="clust4" class="cluster">
<title>cluster_s6</title>
<polygon fill="none" stroke="black" points="970.47,-1598 970.47,-1811 1736.25,-1811 1736.25,-1598 970.47,-1598"/>
<text text-anchor="middle" x="1353.36" y="-1795.8" font-family="Times,serif" font-size="14.00">ArithmeticCombinator[1]</text>
</g>
<g id="clust7" class="cluster">
<title>cluster_s11</title>
<polygon fill="none" stroke="black" points="2096.34,-396 2096.34,-609 2821.98,-609 2821.98,-396 2096.34,-396"/>
<text text-anchor="middle" x="2459.16" y="-593.8" font-family="Times,serif" font-size="14.00">ArithmeticCombinator[2]</text>
</g>
<g id="clust10" class="cluster">
<title>cluster_s15</title>
<polygon fill="none" stroke="black" points="1563.46,-2331 1563.46,-2544 2821.98,-2544 2821.98,-2331 1563.46,-2331"/>
<text text-anchor="middle" x="2192.72" y="-2528.8" font-family="Times,serif" font-size="14.00">ArithmeticCombinator[3]</text>
</g>
<g id="clust13" class="cluster">
<title>cluster_s20</title>
<polygon fill="none" stroke="black" points="2649.19,-175 2649.19,-388 3713.37,-388 3713.37,-175 2649.19,-175"/>
<text text-anchor="middle" x="3181.28" y="-372.8" font-family="Times,serif" font-size="14.00">ArithmeticCombinator[4]</text>
</g>
<g id="clust16" class="cluster">
<title>cluster_s25</title>
<polygon fill="none" stroke="black" points="4115.51,-671 4115.51,-884 4447.85,-884 4447.85,-671 4115.51,-671"/>
<text text-anchor="middle" x="4281.68" y="-868.8" font-family="Times,serif" font-size="14.00">ArithmeticCombinator[5]</text>
</g>
<g id="clust19" class="cluster">
<title>cluster_s56</title>
<polygon fill="none" stroke="black" points="1430.27,-456 1430.27,-1001 1859.04,-1001 1859.04,-456 1430.27,-456"/>
<text text-anchor="middle" x="1644.66" y="-985.8" font-family="Times,serif" font-size="14.00">ConcurrencyLimiter[13]</text>
</g>
<g id="clust20" class="cluster">
<title>cluster_s60</title>
<polygon fill="none" stroke="black" points="1514.06,-506 1514.06,-665 1775.25,-665 1775.25,-506 1514.06,-506"/>
<text text-anchor="middle" x="1644.66" y="-649.8" font-family="Times,serif" font-size="14.00">LoadActuator[13.LoadActuator]</text>
</g>
<g id="clust22" class="cluster">
<title>cluster_s57</title>
<polygon fill="none" stroke="black" points="1480.27,-715 1480.27,-928 1809.04,-928 1809.04,-715 1480.27,-715"/>
<text text-anchor="middle" x="1644.66" y="-912.8" font-family="Times,serif" font-size="14.00">Scheduler[13.Scheduler]</text>
</g>
<g id="clust24" class="cluster">
<title>cluster_s62</title>
<polygon fill="none" stroke="black" points="2096.34,-1450 2096.34,-1663 2821.98,-1663 2821.98,-1450 2096.34,-1450"/>
<text text-anchor="middle" x="2459.16" y="-1647.8" font-family="Times,serif" font-size="14.00">Decider[14]</text>
</g>
<g id="clust27" class="cluster">
<title>cluster_s45</title>
<polygon fill="none" stroke="black" points="672.39,-1377 672.39,-1590 1143.27,-1590 1143.27,-1377 672.39,-1377"/>
<text text-anchor="middle" x="907.83" y="-1574.8" font-family="Times,serif" font-size="14.00">EMA[11]</text>
</g>
<g id="clust30" class="cluster">
<title>cluster_s32</title>
<polygon fill="none" stroke="black" points="1563.46,-1171 1563.46,-1330 2821.98,-1330 2821.98,-1171 1563.46,-1171"/>
<text text-anchor="middle" x="2192.72" y="-1314.8" font-family="Times,serif" font-size="14.00">FirstValid[7]</text>
</g>
<g id="clust33" class="cluster">
<title>cluster_s49</title>
<polygon fill="none" stroke="black" points="4057.37,-1627 4057.37,-2002 4447.85,-2002 4447.85,-1627 4057.37,-1627"/>
<text text-anchor="middle" x="4252.61" y="-1986.8" font-family="Times,serif" font-size="14.00">Gradient[12]</text>
</g>
<g id="clust36" class="cluster">
<title>cluster_s36</title>
<polygon fill="none" stroke="black" points="2643.34,-2164 2643.34,-2323 3713.37,-2323 3713.37,-2164 2643.34,-2164"/>
<text text-anchor="middle" x="3178.35" y="-2307.8" font-family="Times,serif" font-size="14.00">Max[8]</text>
</g>
<g id="clust39" class="cluster">
<title>cluster_s29</title>
<polygon fill="none" stroke="black" points="2083.04,-1004 2083.04,-1163 2821.98,-1163 2821.98,-1004 2083.04,-1004"/>
<text text-anchor="middle" x="2452.51" y="-1147.8" font-family="Times,serif" font-size="14.00">Min[6]</text>
</g>
<g id="clust42" class="cluster">
<title>cluster_s43</title>
<polygon fill="none" stroke="black" points="8,-1594 8,-1753 191.19,-1753 191.19,-1594 8,-1594"/>
<text text-anchor="middle" x="99.6" y="-1737.8" font-family="Times,serif" font-size="14.00">PromQL[10]</text>
</g>
<g id="clust44" class="cluster">
<title>cluster_s40</title>
<polygon fill="none" stroke="black" points="2088.24,-8 2088.24,-167 2821.98,-167 2821.98,-8 2088.24,-8"/>
<text text-anchor="middle" x="2455.11" y="-151.8" font-family="Times,serif" font-size="14.00">Sqrt[9]</text>
</g>
<g id="clust47" class="cluster">
<title>cluster_s66</title>
<polygon fill="none" stroke="black" points="2643.34,-1889 2643.34,-2156 3713.37,-2156 3713.37,-1889 2643.34,-1889"/>
<text text-anchor="middle" x="3178.35" y="-2140.8" font-family="Times,serif" font-size="14.00">Switcher[15]</text>
</g>
<g id="clust50" class="cluster">
<title>cluster_s72</title>
<polygon fill="none" stroke="black" points="2649.19,-617 2649.19,-884 3713.37,-884 3713.37,-617 2649.19,-617"/>
<text text-anchor="middle" x="3181.28" y="-868.8" font-family="Times,serif" font-size="14.00">Switcher[16]</text>
</g>
<!-- n4 -->
<g id="node1" class="node">
<title>n4</title>
<ellipse fill="none" stroke="black" cx="99.6" cy="-1441" rx="31.4" ry="18"/>
<text text-anchor="middle" x="99.6" y="-1437.3" font-family="Times,serif" font-size="14.00">2.00</text>
</g>
<!-- n3 -->
<g id="node4" class="node">
<title>n3</title>
<ellipse fill="none" stroke="black" cx="314.19" cy="-1441" rx="27" ry="18"/>
<text text-anchor="middle" x="314.19" y="-1437.3" font-family="Times,serif" font-size="14.00">rhs</text>
</g>
<!-- n4&#45;&gt;n3 -->
<g id="edge1" class="edge">
<title>n4&#45;&gt;n3</title>
<path fill="none" stroke="black" d="M130.8,-1441C130.8,-1441 277.03,-1441 277.03,-1441"/>
<polygon fill="black" stroke="black" points="277.03,-1444.5 287.03,-1441 277.03,-1437.5 277.03,-1444.5"/>
</g>
<!-- n2 -->
<g id="node2" class="node">
<title>n2</title>
<ellipse fill="none" stroke="black" cx="314.19" cy="-1495" rx="27" ry="18"/>
<text text-anchor="middle" x="314.19" y="-1491.3" font-family="Times,serif" font-size="14.00">lhs</text>
</g>
<!-- n5 -->
<g id="node3" class="node">
<title>n5</title>
<ellipse fill="none" stroke="black" cx="488.79" cy="-1442" rx="41.69" ry="18"/>
<text text-anchor="middle" x="488.79" y="-1438.3" font-family="Times,serif" font-size="14.00">output</text>
</g>
<!-- n46 -->
<g id="node30" class="node">
<title>n46</title>
<ellipse fill="none" stroke="black" cx="798.43" cy="-1445" rx="76.09" ry="18"/>
<text text-anchor="middle" x="798.43" y="-1441.3" font-family="Times,serif" font-size="14.00">max_envelope</text>
</g>
<!-- n5&#45;&gt;n46 -->
<g id="edge48" class="edge">
<title>n5&#45;&gt;n46</title>
<path fill="none" stroke="black" d="M530.55,-1443.5C530.55,-1443.5 712.63,-1443.5 712.63,-1443.5"/>
<polygon fill="black" stroke="black" points="712.63,-1447 722.63,-1443.5 712.63,-1440 712.63,-1447"/>
<text text-anchor="middle" x="626.39" y="-1446.8" font-family="Times,serif" font-size="14.00">MAX_EMA</text>
</g>
<!-- n3&#45;&gt;n5 -->
<!-- n9 -->
<g id="node5" class="node">
<title>n9</title>
<ellipse fill="none" stroke="black" cx="1051.67" cy="-1720" rx="31.4" ry="18"/>
<text text-anchor="middle" x="1051.67" y="-1716.3" font-family="Times,serif" font-size="14.00">1.10</text>
</g>
<!-- n8 -->
<g id="node8" class="node">
<title>n8</title>
<ellipse fill="none" stroke="black" cx="1307.27" cy="-1720" rx="27" ry="18"/>
<text text-anchor="middle" x="1307.27" y="-1716.3" font-family="Times,serif" font-size="14.00">rhs</text>
</g>
<!-- n9&#45;&gt;n8 -->
<g id="edge3" class="edge">
<title>n9&#45;&gt;n8</title>
<path fill="none" stroke="black" d="M1083.01,-1720C1083.01,-1720 1269.96,-1720 1269.96,-1720"/>
<polygon fill="black" stroke="black" points="1269.96,-1723.5 1279.96,-1720 1269.96,-1716.5 1269.96,-1723.5"/>
</g>
<!-- n7 -->
<g id="node6" class="node">
<title>n7</title>
<ellipse fill="none" stroke="black" cx="1307.27" cy="-1666" rx="27" ry="18"/>
<text text-anchor="middle" x="1307.27" y="-1662.3" font-family="Times,serif" font-size="14.00">lhs</text>
</g>
<!-- n10 -->
<g id="node7" class="node">
<title>n10</title>
<ellipse fill="none" stroke="black" cx="1644.66" cy="-1720" rx="41.69" ry="18"/>
<text text-anchor="middle" x="1644.66" y="-1716.3" font-family="Times,serif" font-size="14.00">output</text>
</g>
<!-- n64 -->
<g id="node28" class="node">
<title>n64</title>
<ellipse fill="none" stroke="black" cx="2173.34" cy="-1572" rx="27" ry="18"/>
<text text-anchor="middle" x="2173.34" y="-1568.3" font-family="Times,serif" font-size="14.00">rhs</text>
</g>
<!-- n10&#45;&gt;n64 -->
<g id="edge30" class="edge">
<title>n10&#45;&gt;n64</title>
<path fill="none" stroke="black" d="M1681.85,-1711.62C1681.85,-1680.31 1681.85,-1572 1681.85,-1572 1681.85,-1572 2136.22,-1572 2136.22,-1572"/>
<polygon fill="black" stroke="black" points="2136.22,-1575.5 2146.22,-1572 2136.22,-1568.5 2136.22,-1575.5"/>
<text text-anchor="middle" x="1971.04" y="-1635.8" font-family="Times,serif" font-size="14.00">LATENCY_SETPOINT</text>
</g>
<!-- n51 -->
<g id="node39" class="node">
<title>n51</title>
<ellipse fill="none" stroke="black" cx="4192.51" cy="-1749" rx="48.99" ry="18"/>
<text text-anchor="middle" x="4192.51" y="-1745.3" font-family="Times,serif" font-size="14.00">setpoint</text>
</g>
<!-- n10&#45;&gt;n51 -->
<g id="edge29" class="edge">
<title>n10&#45;&gt;n51</title>
<path fill="none" stroke="black" d="M1669.46,-1734.5C1669.46,-1734.5 4153.44,-1734.5 4153.44,-1734.5"/>
<polygon fill="black" stroke="black" points="4153.44,-1738 4163.44,-1734.5 4153.44,-1731 4153.44,-1738"/>
<text text-anchor="middle" x="2977.48" y="-1726.8" font-family="Times,serif" font-size="14.00">LATENCY_SETPOINT</text>
</g>
<!-- n8&#45;&gt;n10 -->
<!-- n12 -->
<g id="node9" class="node">
<title>n12</title>
<ellipse fill="none" stroke="black" cx="2173.34" cy="-518" rx="27" ry="18"/>
<text text-anchor="middle" x="2173.34" y="-514.3" font-family="Times,serif" font-size="14.00">lhs</text>
</g>
<!-- n14 -->
<g id="node10" class="node">
<title>n14</title>
<ellipse fill="none" stroke="black" cx="2730.39" cy="-464" rx="41.69" ry="18"/>
<text text-anchor="middle" x="2730.39" y="-460.3" font-family="Times,serif" font-size="14.00">output</text>
</g>
<!-- n61 -->
<g id="node23" class="node">
<title>n61</title>
<ellipse fill="none" stroke="black" cx="1644.66" cy="-574" rx="80.69" ry="18"/>
<text text-anchor="middle" x="1644.66" y="-570.3" font-family="Times,serif" font-size="14.00">load_multiplier</text>
</g>
<!-- n14&#45;&gt;n61 -->
<g id="edge31" class="edge">
<title>n14&#45;&gt;n61</title>
<path fill="none" stroke="black" d="M2694.85,-473.38C2694.85,-499.98 2694.85,-574 2694.85,-574 2694.85,-574 1735.32,-574 1735.32,-574"/>
<polygon fill="black" stroke="black" points="1735.32,-570.5 1725.32,-574 1735.32,-577.5 1735.32,-570.5"/>
<text text-anchor="middle" x="2173.34" y="-416.8" font-family="Times,serif" font-size="14.00">LOAD_MULTIPLIER</text>
</g>
<!-- n13 -->
<g id="node11" class="node">
<title>n13</title>
<ellipse fill="none" stroke="black" cx="2173.34" cy="-464" rx="27" ry="18"/>
<text text-anchor="middle" x="2173.34" y="-460.3" font-family="Times,serif" font-size="14.00">rhs</text>
</g>
<!-- n13&#45;&gt;n14 -->
<!-- n17 -->
<g id="node12" class="node">
<title>n17</title>
<ellipse fill="none" stroke="black" cx="1644.66" cy="-2453" rx="31.4" ry="18"/>
<text text-anchor="middle" x="1644.66" y="-2449.3" font-family="Times,serif" font-size="14.00">2.00</text>
</g>
<!-- n16 -->
<g id="node13" class="node">
<title>n16</title>
<ellipse fill="none" stroke="black" cx="2173.34" cy="-2453" rx="27" ry="18"/>
<text text-anchor="middle" x="2173.34" y="-2449.3" font-family="Times,serif" font-size="14.00">lhs</text>
</g>
<!-- n17&#45;&gt;n16 -->
<g id="edge6" class="edge">
<title>n17&#45;&gt;n16</title>
<path fill="none" stroke="black" d="M1676.14,-2453C1676.14,-2453 2136.21,-2453 2136.21,-2453"/>
<polygon fill="black" stroke="black" points="2136.21,-2456.5 2146.21,-2453 2136.21,-2449.5 2136.21,-2456.5"/>
</g>
<!-- n19 -->
<g id="node14" class="node">
<title>n19</title>
<ellipse fill="none" stroke="black" cx="2730.39" cy="-2399" rx="41.69" ry="18"/>
<text text-anchor="middle" x="2730.39" y="-2395.3" font-family="Times,serif" font-size="14.00">output</text>
</g>
<!-- n37 -->
<g id="node42" class="node">
<title>n37</title>
<ellipse fill="none" stroke="black" cx="3191.08" cy="-2232" rx="40.09" ry="18"/>
<text text-anchor="middle" x="3191.08" y="-2228.3" font-family="Times,serif" font-size="14.00">inputs</text>
</g>
<!-- n19&#45;&gt;n37 -->
<g id="edge44" class="edge">
<title>n19&#45;&gt;n37</title>
<path fill="none" stroke="black" d="M2772.15,-2399C2885.75,-2399 3191.85,-2399 3191.85,-2399 3191.85,-2399 3191.85,-2260.19 3191.85,-2260.19"/>
<polygon fill="black" stroke="black" points="3195.35,-2260.19 3191.85,-2250.19 3188.35,-2260.19 3195.35,-2260.19"/>
<text text-anchor="middle" x="2977.48" y="-2330.8" font-family="Times,serif" font-size="14.00">UPPER_CONCURRENCY_LIMIT</text>
</g>
<!-- n18 -->
<g id="node15" class="node">
<title>n18</title>
<ellipse fill="none" stroke="black" cx="2173.34" cy="-2399" rx="27" ry="18"/>
<text text-anchor="middle" x="2173.34" y="-2395.3" font-family="Times,serif" font-size="14.00">rhs</text>
</g>
<!-- n18&#45;&gt;n19 -->
<!-- n22 -->
<g id="node16" class="node">
<title>n22</title>
<ellipse fill="none" stroke="black" cx="2730.39" cy="-297" rx="31.4" ry="18"/>
<text text-anchor="middle" x="2730.39" y="-293.3" font-family="Times,serif" font-size="14.00">5.00</text>
</g>
<!-- n21 -->
<g id="node17" class="node">
<title>n21</title>
<ellipse fill="none" stroke="black" cx="3191.08" cy="-297" rx="27" ry="18"/>
<text text-anchor="middle" x="3191.08" y="-293.3" font-family="Times,serif" font-size="14.00">lhs</text>
</g>
<!-- n22&#45;&gt;n21 -->
<g id="edge8" class="edge">
<title>n22&#45;&gt;n21</title>
<path fill="none" stroke="black" d="M2761.69,-297C2761.69,-297 3153.86,-297 3153.86,-297"/>
<polygon fill="black" stroke="black" points="3153.86,-300.5 3163.86,-297 3153.86,-293.5 3153.86,-300.5"/>
</g>
<!-- n24 -->
<g id="node18" class="node">
<title>n24</title>
<ellipse fill="none" stroke="black" cx="3621.77" cy="-270" rx="41.69" ry="18"/>
<text text-anchor="middle" x="3621.77" y="-266.3" font-family="Times,serif" font-size="14.00">output</text>
</g>
<!-- n26 -->
<g id="node20" class="node">
<title>n26</title>
<ellipse fill="none" stroke="black" cx="4192.51" cy="-739" rx="27" ry="18"/>
<text text-anchor="middle" x="4192.51" y="-735.3" font-family="Times,serif" font-size="14.00">lhs</text>
</g>
<!-- n24&#45;&gt;n26 -->
<g id="edge34" class="edge">
<title>n24&#45;&gt;n26</title>
<path fill="none" stroke="black" d="M3663.76,-270C3795.65,-270 4192.85,-270 4192.85,-270 4192.85,-270 4192.85,-710.9 4192.85,-710.9"/>
<polygon fill="black" stroke="black" points="4189.35,-710.9 4192.85,-720.9 4196.35,-710.9 4189.35,-710.9"/>
<text text-anchor="middle" x="3885.37" y="-521.8" font-family="Times,serif" font-size="14.00">CONCURRENCY_INCREMENT_SINGLE_TICK</text>
</g>
<!-- n23 -->
<g id="node19" class="node">
<title>n23</title>
<ellipse fill="none" stroke="black" cx="3191.08" cy="-243" rx="27" ry="18"/>
<text text-anchor="middle" x="3191.08" y="-239.3" font-family="Times,serif" font-size="14.00">rhs</text>
</g>
<!-- n23&#45;&gt;n24 -->
<!-- n28 -->
<g id="node21" class="node">
<title>n28</title>
<ellipse fill="none" stroke="black" cx="4356.25" cy="-793" rx="41.69" ry="18"/>
<text text-anchor="middle" x="4356.25" y="-789.3" font-family="Times,serif" font-size="14.00">output</text>
</g>
<!-- n30 -->
<g id="node44" class="node">
<title>n30</title>
<ellipse fill="none" stroke="black" cx="2173.34" cy="-1072" rx="40.09" ry="18"/>
<text text-anchor="middle" x="2173.34" y="-1068.3" font-family="Times,serif" font-size="14.00">inputs</text>
</g>
<!-- n28&#45;&gt;n30 -->
<g id="edge35" class="edge">
<title>n28&#45;&gt;n30</title>
<path fill="none" stroke="black" d="M4356.85,-811.17C4356.85,-813.45 4356.85,-815 4356.85,-815 4356.85,-815 2204.85,-815 2204.85,-815 2204.85,-815 2204.85,-1050.63 2204.85,-1050.63"/>
<polygon fill="black" stroke="black" points="2201.35,-1050.63 2204.85,-1060.63 2208.35,-1050.63 2201.35,-1050.63"/>
<text text-anchor="middle" x="3409.68" y="-967.8" font-family="Times,serif" font-size="14.00">CONCURRENCY_INCREMENT_INTEGRAL</text>
</g>
<!-- n27 -->
<g id="node22" class="node">
<title>n27</title>
<ellipse fill="none" stroke="black" cx="4192.51" cy="-793" rx="27" ry="18"/>
<text text-anchor="middle" x="4192.51" y="-789.3" font-family="Times,serif" font-size="14.00">rhs</text>
</g>
<!-- n27&#45;&gt;n28 -->
<!-- n58 -->
<g id="node24" class="node">
<title>n58</title>
<ellipse fill="none" stroke="black" cx="1644.66" cy="-837" rx="113.98" ry="18"/>
<text text-anchor="middle" x="1644.66" y="-833.3" font-family="Times,serif" font-size="14.00">accepted_concurrency</text>
</g>
<!-- n58&#45;&gt;n18 -->
<g id="edge24" class="edge">
<title>n58&#45;&gt;n18</title>
<path fill="none" stroke="black" d="M1710.85,-851.96C1710.85,-1011.81 1710.85,-2399 1710.85,-2399 1710.85,-2399 2136.14,-2399 2136.14,-2399"/>
<polygon fill="black" stroke="black" points="2136.14,-2402.5 2146.14,-2399 2136.14,-2395.5 2136.14,-2402.5"/>
<text text-anchor="middle" x="1971.04" y="-1803.8" font-family="Times,serif" font-size="14.00">ACCEPTED_CONCURRENCY</text>
</g>
<!-- n54 -->
<g id="node35" class="node">
<title>n54</title>
<ellipse fill="none" stroke="black" cx="4192.51" cy="-1695" rx="85.29" ry="18"/>
<text text-anchor="middle" x="4192.51" y="-1691.3" font-family="Times,serif" font-size="14.00">control_variable</text>
</g>
<!-- n58&#45;&gt;n54 -->
<g id="edge27" class="edge">
<title>n58&#45;&gt;n54</title>
<path fill="none" stroke="black" d="M1734.85,-847.97C1734.85,-946.84 1734.85,-1680.5 1734.85,-1680.5 1734.85,-1680.5 4132.02,-1680.5 4132.02,-1680.5"/>
<polygon fill="black" stroke="black" points="4132.02,-1684 4142.02,-1680.5 4132.02,-1677 4132.02,-1684"/>
<text text-anchor="middle" x="2977.48" y="-1393.8" font-family="Times,serif" font-size="14.00">ACCEPTED_CONCURRENCY</text>
</g>
<!-- n58&#45;&gt;n30 -->
<g id="edge25" class="edge">
<title>n58&#45;&gt;n30</title>
<path fill="none" stroke="black" d="M1752.05,-843C1898.76,-843 2143.85,-843 2143.85,-843 2143.85,-843 2143.85,-1049.69 2143.85,-1049.69"/>
<polygon fill="black" stroke="black" points="2140.35,-1049.69 2143.85,-1059.69 2147.35,-1049.69 2140.35,-1049.69"/>
<text text-anchor="middle" x="1971.04" y="-893.8" font-family="Times,serif" font-size="14.00">ACCEPTED_CONCURRENCY</text>
</g>
<!-- n41 -->
<g id="node47" class="node">
<title>n41</title>
<ellipse fill="none" stroke="black" cx="2173.34" cy="-76" rx="35.19" ry="18"/>
<text text-anchor="middle" x="2173.34" y="-72.3" font-family="Times,serif" font-size="14.00">input</text>
</g>
<!-- n58&#45;&gt;n41 -->
<g id="edge26" class="edge">
<title>n58&#45;&gt;n41</title>
<path fill="none" stroke="black" d="M1751.93,-831C1898.09,-831 2141.85,-831 2141.85,-831 2141.85,-831 2141.85,-93.97 2141.85,-93.97"/>
<polygon fill="black" stroke="black" points="2145.35,-93.97 2141.85,-83.97 2138.35,-93.97 2145.35,-93.97"/>
<text text-anchor="middle" x="1971.04" y="-787.8" font-family="Times,serif" font-size="14.00">ACCEPTED_CONCURRENCY</text>
</g>
<!-- n59 -->
<g id="node25" class="node">
<title>n59</title>
<ellipse fill="none" stroke="black" cx="1644.66" cy="-783" rx="114.28" ry="18"/>
<text text-anchor="middle" x="1644.66" y="-779.3" font-family="Times,serif" font-size="14.00">incoming_concurrency</text>
</g>
<!-- n59&#45;&gt;n13 -->
<g id="edge28" class="edge">
<title>n59&#45;&gt;n13</title>
<path fill="none" stroke="black" d="M1742.85,-773.45C1742.85,-720.38 1742.85,-464 1742.85,-464 1742.85,-464 2136.09,-464 2136.09,-464"/>
<polygon fill="black" stroke="black" points="2136.09,-467.5 2146.09,-464 2136.09,-460.5 2136.09,-467.5"/>
<text text-anchor="middle" x="1971.04" y="-527.8" font-family="Times,serif" font-size="14.00">INCOMING_CONCURRENCY</text>
</g>
<!-- n63 -->
<g id="node26" class="node">
<title>n63</title>
<ellipse fill="none" stroke="black" cx="2173.34" cy="-1518" rx="27" ry="18"/>
<text text-anchor="middle" x="2173.34" y="-1514.3" font-family="Times,serif" font-size="14.00">lhs</text>
</g>
<!-- n65 -->
<g id="node27" class="node">
<title>n65</title>
<ellipse fill="none" stroke="black" cx="2730.39" cy="-1572" rx="41.69" ry="18"/>
<text text-anchor="middle" x="2730.39" y="-1568.3" font-family="Times,serif" font-size="14.00">output</text>
</g>
<!-- n67 -->
<g id="node53" class="node">
<title>n67</title>
<ellipse fill="none" stroke="black" cx="3191.08" cy="-2011" rx="40.89" ry="18"/>
<text text-anchor="middle" x="3191.08" y="-2007.3" font-family="Times,serif" font-size="14.00">switch</text>
</g>
<!-- n65&#45;&gt;n67 -->
<g id="edge42" class="edge">
<title>n65&#45;&gt;n67</title>
<path fill="none" stroke="black" d="M2730.85,-1590.03C2730.85,-1672.64 2730.85,-2011 2730.85,-2011 2730.85,-2011 3139.83,-2011 3139.83,-2011"/>
<polygon fill="black" stroke="black" points="3139.83,-2014.5 3149.83,-2011 3139.83,-2007.5 3139.83,-2014.5"/>
<text text-anchor="middle" x="2977.48" y="-1802.8" font-family="Times,serif" font-size="14.00">IS_OVERLOAD_SWITCH</text>
</g>
<!-- n76 -->
<g id="node58" class="node">
<title>n76</title>
<ellipse fill="none" stroke="black" cx="3191.08" cy="-793" rx="40.89" ry="18"/>
<text text-anchor="middle" x="3191.08" y="-789.3" font-family="Times,serif" font-size="14.00">switch</text>
</g>
<!-- n65&#45;&gt;n76 -->
<g id="edge43" class="edge">
<title>n65&#45;&gt;n76</title>
<path fill="none" stroke="black" d="M2772.15,-1572C2885.75,-1572 3191.85,-1572 3191.85,-1572 3191.85,-1572 3191.85,-821.11 3191.85,-821.11"/>
<polygon fill="black" stroke="black" points="3195.35,-821.11 3191.85,-811.11 3188.35,-821.11 3195.35,-821.11"/>
<text text-anchor="middle" x="2977.48" y="-1503.8" font-family="Times,serif" font-size="14.00">IS_OVERLOAD_SWITCH</text>
</g>
<!-- n64&#45;&gt;n65 -->
<!-- n47 -->
<g id="node29" class="node">
<title>n47</title>
<ellipse fill="none" stroke="black" cx="798.43" cy="-1499" rx="35.19" ry="18"/>
<text text-anchor="middle" x="798.43" y="-1495.3" font-family="Times,serif" font-size="14.00">input</text>
</g>
<!-- n48 -->
<g id="node31" class="node">
<title>n48</title>
<ellipse fill="none" stroke="black" cx="1051.67" cy="-1499" rx="41.69" ry="18"/>
<text text-anchor="middle" x="1051.67" y="-1495.3" font-family="Times,serif" font-size="14.00">output</text>
</g>
<!-- n47&#45;&gt;n48 -->
<!-- n48&#45;&gt;n7 -->
<g id="edge47" class="edge">
<title>n48&#45;&gt;n7</title>
<path fill="none" stroke="black" d="M1088.85,-1507.22C1088.85,-1541.24 1088.85,-1669.33 1088.85,-1669.33 1088.85,-1669.33 1270.48,-1669.33 1270.48,-1669.33"/>
<polygon fill="black" stroke="black" points="1270.48,-1672.83 1280.48,-1669.33 1270.48,-1665.83 1270.48,-1672.83"/>
<text text-anchor="middle" x="1206.77" y="-1585.8" font-family="Times,serif" font-size="14.00">LATENCY_EMA</text>
</g>
<!-- n34 -->
<g id="node32" class="node">
<title>n34</title>
<ellipse fill="none" stroke="black" cx="1644.66" cy="-1239" rx="31.4" ry="18"/>
<text text-anchor="middle" x="1644.66" y="-1235.3" font-family="Times,serif" font-size="14.00">0.00</text>
</g>
<!-- n33 -->
<g id="node33" class="node">
<title>n33</title>
<ellipse fill="none" stroke="black" cx="2173.34" cy="-1239" rx="40.09" ry="18"/>
<text text-anchor="middle" x="2173.34" y="-1235.3" font-family="Times,serif" font-size="14.00">inputs</text>
</g>
<!-- n34&#45;&gt;n33 -->
<g id="edge13" class="edge">
<title>n34&#45;&gt;n33</title>
<path fill="none" stroke="black" d="M1676.14,-1239C1676.14,-1239 2122.86,-1239 2122.86,-1239"/>
<polygon fill="black" stroke="black" points="2122.86,-1242.5 2132.86,-1239 2122.86,-1235.5 2122.86,-1242.5"/>
</g>
<!-- n35 -->
<g id="node34" class="node">
<title>n35</title>
<ellipse fill="none" stroke="black" cx="2730.39" cy="-1239" rx="41.69" ry="18"/>
<text text-anchor="middle" x="2730.39" y="-1235.3" font-family="Times,serif" font-size="14.00">output</text>
</g>
<!-- n33&#45;&gt;n35 -->
<!-- n70 -->
<g id="node50" class="node">
<title>n70</title>
<ellipse fill="none" stroke="black" cx="3191.08" cy="-1957" rx="48.19" ry="18"/>
<text text-anchor="middle" x="3191.08" y="-1953.3" font-family="Times,serif" font-size="14.00">on_false</text>
</g>
<!-- n35&#45;&gt;n70 -->
<g id="edge45" class="edge">
<title>n35&#45;&gt;n70</title>
<path fill="none" stroke="black" d="M2769.85,-1245C2873.55,-1245 3145.85,-1245 3145.85,-1245 3145.85,-1245 3145.85,-1940.84 3145.85,-1940.84"/>
<polygon fill="black" stroke="black" points="3142.35,-1940.84 3145.85,-1950.84 3149.35,-1940.84 3142.35,-1940.84"/>
<text text-anchor="middle" x="2977.48" y="-1764.8" font-family="Times,serif" font-size="14.00">CONCURRENCY_INCREMENT_NORMAL</text>
</g>
<!-- n75 -->
<g id="node55" class="node">
<title>n75</title>
<ellipse fill="none" stroke="black" cx="3191.08" cy="-739" rx="48.19" ry="18"/>
<text text-anchor="middle" x="3191.08" y="-735.3" font-family="Times,serif" font-size="14.00">on_false</text>
</g>
<!-- n35&#45;&gt;n75 -->
<g id="edge46" class="edge">
<title>n35&#45;&gt;n75</title>
<path fill="none" stroke="black" d="M2769.66,-1233C2873.58,-1233 3147.85,-1233 3147.85,-1233 3147.85,-1233 3147.85,-757.16 3147.85,-757.16"/>
<polygon fill="black" stroke="black" points="3151.35,-757.16 3147.85,-747.16 3144.35,-757.16 3151.35,-757.16"/>
<text text-anchor="middle" x="2977.48" y="-831.8" font-family="Times,serif" font-size="14.00">CONCURRENCY_INCREMENT_NORMAL</text>
</g>
<!-- n55 -->
<g id="node38" class="node">
<title>n55</title>
<ellipse fill="none" stroke="black" cx="4356.25" cy="-1695" rx="41.69" ry="18"/>
<text text-anchor="middle" x="4356.25" y="-1691.3" font-family="Times,serif" font-size="14.00">output</text>
</g>
<!-- n54&#45;&gt;n55 -->
<!-- n53 -->
<g id="node36" class="node">
<title>n53</title>
<ellipse fill="none" stroke="black" cx="4192.51" cy="-1911" rx="30.59" ry="18"/>
<text text-anchor="middle" x="4192.51" y="-1907.3" font-family="Times,serif" font-size="14.00">max</text>
</g>
<!-- n52 -->
<g id="node37" class="node">
<title>n52</title>
<ellipse fill="none" stroke="black" cx="4192.51" cy="-1857" rx="50.89" ry="18"/>
<text text-anchor="middle" x="4192.51" y="-1853.3" font-family="Times,serif" font-size="14.00">optimize</text>
</g>
<!-- n55&#45;&gt;n12 -->
<g id="edge41" class="edge">
<title>n55&#45;&gt;n12</title>
<path fill="none" stroke="black" d="M4316.96,-1689C4305.91,-1689 4296.85,-1689 4296.85,-1689 4296.85,-1689 4296.85,-518 4296.85,-518 4296.85,-518 2210.58,-518 2210.58,-518"/>
<polygon fill="black" stroke="black" points="2210.58,-514.5 2200.58,-518 2210.58,-521.5 2210.58,-514.5"/>
<text text-anchor="middle" x="3409.68" y="-1005.8" font-family="Times,serif" font-size="14.00">DESIRED_CONCURRENCY</text>
</g>
<!-- n50 -->
<g id="node40" class="node">
<title>n50</title>
<ellipse fill="none" stroke="black" cx="4192.51" cy="-1803" rx="38.19" ry="18"/>
<text text-anchor="middle" x="4192.51" y="-1799.3" font-family="Times,serif" font-size="14.00">signal</text>
</g>
<!-- n38 -->
<g id="node41" class="node">
<title>n38</title>
<ellipse fill="none" stroke="black" cx="2730.39" cy="-2232" rx="37.09" ry="18"/>
<text text-anchor="middle" x="2730.39" y="-2228.3" font-family="Times,serif" font-size="14.00">10.00</text>
</g>
<!-- n38&#45;&gt;n37 -->
<g id="edge16" class="edge">
<title>n38&#45;&gt;n37</title>
<path fill="none" stroke="black" d="M2767.7,-2232C2767.7,-2232 3140.47,-2232 3140.47,-2232"/>
<polygon fill="black" stroke="black" points="3140.47,-2235.5 3150.47,-2232 3140.47,-2228.5 3140.47,-2235.5"/>
</g>
<!-- n39 -->
<g id="node43" class="node">
<title>n39</title>
<ellipse fill="none" stroke="black" cx="3621.77" cy="-2232" rx="41.69" ry="18"/>
<text text-anchor="middle" x="3621.77" y="-2228.3" font-family="Times,serif" font-size="14.00">output</text>
</g>
<!-- n37&#45;&gt;n39 -->
<!-- n39&#45;&gt;n53 -->
<g id="edge36" class="edge">
<title>n39&#45;&gt;n53</title>
<path fill="none" stroke="black" d="M3663.76,-2232C3795.65,-2232 4192.85,-2232 4192.85,-2232 4192.85,-2232 4192.85,-1939.18 4192.85,-1939.18"/>
<polygon fill="black" stroke="black" points="4196.35,-1939.18 4192.85,-1929.18 4189.35,-1939.18 4196.35,-1939.18"/>
<text text-anchor="middle" x="3885.37" y="-2092.8" font-family="Times,serif" font-size="14.00">MAX_CONCURRENCY</text>
</g>
<!-- n31 -->
<g id="node45" class="node">
<title>n31</title>
<ellipse fill="none" stroke="black" cx="2730.39" cy="-1072" rx="41.69" ry="18"/>
<text text-anchor="middle" x="2730.39" y="-1068.3" font-family="Times,serif" font-size="14.00">output</text>
</g>
<!-- n30&#45;&gt;n31 -->
<!-- n31&#45;&gt;n33 -->
<g id="edge49" class="edge">
<title>n31&#45;&gt;n33</title>
<path fill="none" stroke="black" d="M2691.07,-1078C2614.29,-1078 2451.85,-1078 2451.85,-1078 2451.85,-1078 2451.85,-1233 2451.85,-1233 2451.85,-1233 2221.48,-1233 2221.48,-1233"/>
<polygon fill="black" stroke="black" points="2221.48,-1229.5 2211.48,-1233 2221.48,-1236.5 2221.48,-1229.5"/>
<text text-anchor="middle" x="2448.84" y="-1160.8" font-family="Times,serif" font-size="14.00">CONCURRENCY_INCREMENT_INTEGRAL_CAPPED</text>
</g>
<!-- n44 -->
<g id="node46" class="node">
<title>n44</title>
<ellipse fill="none" stroke="black" cx="99.6" cy="-1662" rx="41.69" ry="18"/>
<text text-anchor="middle" x="99.6" y="-1658.3" font-family="Times,serif" font-size="14.00">output</text>
</g>
<!-- n44&#45;&gt;n2 -->
<g id="edge37" class="edge">
<title>n44&#45;&gt;n2</title>
<path fill="none" stroke="black" d="M134.85,-1652.05C134.85,-1616.1 134.85,-1495 134.85,-1495 134.85,-1495 276.95,-1495 276.95,-1495"/>
<polygon fill="black" stroke="black" points="276.95,-1498.5 286.95,-1495 276.95,-1491.5 276.95,-1498.5"/>
<text text-anchor="middle" x="234.19" y="-1564.8" font-family="Times,serif" font-size="14.00">LATENCY</text>
</g>
<!-- n44&#45;&gt;n63 -->
<g id="edge40" class="edge">
<title>n44&#45;&gt;n63</title>
<path fill="none" stroke="black" d="M137.85,-1654.71C137.85,-1626.57 137.85,-1526.5 137.85,-1526.5 137.85,-1526.5 2139.42,-1526.5 2139.42,-1526.5"/>
<polygon fill="black" stroke="black" points="2139.42,-1530 2149.42,-1526.5 2139.42,-1523 2139.42,-1530"/>
<text text-anchor="middle" x="927.47" y="-1315.8" font-family="Times,serif" font-size="14.00">LATENCY</text>
</g>
<!-- n44&#45;&gt;n47 -->
<g id="edge38" class="edge">
<title>n44&#45;&gt;n47</title>
<path fill="none" stroke="black" d="M140.73,-1658.67C290.62,-1658.67 798.85,-1658.67 798.85,-1658.67 798.85,-1658.67 798.85,-1527.01 798.85,-1527.01"/>
<polygon fill="black" stroke="black" points="802.35,-1527.01 798.85,-1517.01 795.35,-1527.01 802.35,-1527.01"/>
<text text-anchor="middle" x="394.19" y="-1661.8" font-family="Times,serif" font-size="14.00">LATENCY</text>
</g>
<!-- n44&#45;&gt;n50 -->
<g id="edge39" class="edge">
<title>n44&#45;&gt;n50</title>
<path fill="none" stroke="black" d="M99.85,-1680.14C99.85,-1718.23 99.85,-1803 99.85,-1803 99.85,-1803 4143.97,-1803 4143.97,-1803"/>
<polygon fill="black" stroke="black" points="4143.97,-1806.5 4153.97,-1803 4143.97,-1799.5 4143.97,-1806.5"/>
<text text-anchor="middle" x="1387.27" y="-1882.8" font-family="Times,serif" font-size="14.00">LATENCY</text>
</g>
<!-- n42 -->
<g id="node48" class="node">
<title>n42</title>
<ellipse fill="none" stroke="black" cx="2730.39" cy="-76" rx="41.69" ry="18"/>
<text text-anchor="middle" x="2730.39" y="-72.3" font-family="Times,serif" font-size="14.00">output</text>
</g>
<!-- n41&#45;&gt;n42 -->
<!-- n42&#45;&gt;n23 -->
<g id="edge32" class="edge">
<title>n42&#45;&gt;n23</title>
<path fill="none" stroke="black" d="M2766.85,-84.98C2766.85,-119.67 2766.85,-243 2766.85,-243 2766.85,-243 3153.9,-243 3153.9,-243"/>
<polygon fill="black" stroke="black" points="3153.9,-246.5 3163.9,-243 3153.9,-239.5 3153.9,-246.5"/>
<text text-anchor="middle" x="2977.48" y="-162.8" font-family="Times,serif" font-size="14.00">SQRT_CONCURRENCY_INCREMENT</text>
</g>
<!-- n69 -->
<g id="node49" class="node">
<title>n69</title>
<ellipse fill="none" stroke="black" cx="2730.39" cy="-2065" rx="37.09" ry="18"/>
<text text-anchor="middle" x="2730.39" y="-2061.3" font-family="Times,serif" font-size="14.00">10.00</text>
</g>
<!-- n68 -->
<g id="node51" class="node">
<title>n68</title>
<ellipse fill="none" stroke="black" cx="3191.08" cy="-2065" rx="46.29" ry="18"/>
<text text-anchor="middle" x="3191.08" y="-2061.3" font-family="Times,serif" font-size="14.00">on_true</text>
</g>
<!-- n69&#45;&gt;n68 -->
<g id="edge20" class="edge">
<title>n69&#45;&gt;n68</title>
<path fill="none" stroke="black" d="M2767.7,-2065C2767.7,-2065 3134.65,-2065 3134.65,-2065"/>
<polygon fill="black" stroke="black" points="3134.65,-2068.5 3144.65,-2065 3134.65,-2061.5 3134.65,-2068.5"/>
</g>
<!-- n71 -->
<g id="node52" class="node">
<title>n71</title>
<ellipse fill="none" stroke="black" cx="3621.77" cy="-1957" rx="41.69" ry="18"/>
<text text-anchor="middle" x="3621.77" y="-1953.3" font-family="Times,serif" font-size="14.00">output</text>
</g>
<!-- n70&#45;&gt;n71 -->
<!-- n71&#45;&gt;n52 -->
<g id="edge33" class="edge">
<title>n71&#45;&gt;n52</title>
<path fill="none" stroke="black" d="M3663.44,-1957C3788.64,-1957 4152.85,-1957 4152.85,-1957 4152.85,-1957 4152.85,-1878.47 4152.85,-1878.47"/>
<polygon fill="black" stroke="black" points="4156.35,-1878.47 4152.85,-1868.47 4149.35,-1878.47 4156.35,-1878.47"/>
<text text-anchor="middle" x="3885.37" y="-1912.8" font-family="Times,serif" font-size="14.00">CONCURRENCY_INCREMENT</text>
</g>
<!-- n74 -->
<g id="node54" class="node">
<title>n74</title>
<ellipse fill="none" stroke="black" cx="2730.39" cy="-685" rx="31.4" ry="18"/>
<text text-anchor="middle" x="2730.39" y="-681.3" font-family="Times,serif" font-size="14.00">0.00</text>
</g>
<!-- n73 -->
<g id="node56" class="node">
<title>n73</title>
<ellipse fill="none" stroke="black" cx="3191.08" cy="-685" rx="46.29" ry="18"/>
<text text-anchor="middle" x="3191.08" y="-681.3" font-family="Times,serif" font-size="14.00">on_true</text>
</g>
<!-- n74&#45;&gt;n73 -->
<g id="edge22" class="edge">
<title>n74&#45;&gt;n73</title>
<path fill="none" stroke="black" d="M2761.69,-685C2761.69,-685 3134.82,-685 3134.82,-685"/>
<polygon fill="black" stroke="black" points="3134.82,-688.5 3144.82,-685 3134.82,-681.5 3134.82,-688.5"/>
</g>
<!-- n77 -->
<g id="node57" class="node">
<title>n77</title>
<ellipse fill="none" stroke="black" cx="3621.77" cy="-793" rx="41.69" ry="18"/>
<text text-anchor="middle" x="3621.77" y="-789.3" font-family="Times,serif" font-size="14.00">output</text>
</g>
<!-- n77&#45;&gt;n27 -->
<g id="edge50" class="edge">
<title>n77&#45;&gt;n27</title>
<path fill="none" stroke="black" d="M3663.74,-793C3663.74,-793 4155.33,-793 4155.33,-793"/>
<polygon fill="black" stroke="black" points="4155.33,-796.5 4165.33,-793 4155.33,-789.5 4155.33,-796.5"/>
<text text-anchor="middle" x="3885.37" y="-796.8" font-family="Times,serif" font-size="14.00">CONCURRENCY_INCREMENT_FEEDBACK</text>
</g>
<!-- n76&#45;&gt;n77 -->
</g>
</svg>
