<svg xmlns="http://www.w3.org/2000/svg" xmlns:xlink="http://www.w3.org/1999/xlink" width="3893pt" height="2176pt" viewBox="0 0 3893.33 2176"><g id="graph0" class="graph" transform="scale(1 1) rotate(0) translate(4 2172)"><polygon fill="#fff" stroke="none" points="-4 4 -4 -2172 3889.33 -2172 3889.33 4 -4 4"/><g id="clust1" class="cluster"><title>cluster_s1</title><polygon fill="none" stroke="#000" points="14.15 -1159 14.15 -1372 530.59 -1372 530.59 -1159 14.15 -1159"/><text x="272.37" y="-1356.8" font-family="Times,serif" font-size="14" text-anchor="middle">ArithmeticCombinator[0]</text></g><g id="clust4" class="cluster"><title>cluster_s6</title><polygon fill="none" stroke="#000" points="879.38 -1880 879.38 -2093 1521.96 -2093 1521.96 -1880 879.38 -1880"/><text x="1200.67" y="-2077.8" font-family="Times,serif" font-size="14" text-anchor="middle">ArithmeticCombinator[1]</text></g><g id="clust7" class="cluster"><title>cluster_s11</title><polygon fill="none" stroke="#000" points="1831.6 -396 1831.6 -609 2449.25 -609 2449.25 -396 1831.6 -396"/><text x="2140.43" y="-593.8" font-family="Times,serif" font-size="14" text-anchor="middle">ArithmeticCombinator[2]</text></g><g id="clust10" class="cluster"><title>cluster_s15</title><polygon fill="none" stroke="#000" points="1361.82 -788 1361.82 -1001 2449.25 -1001 2449.25 -788 1361.82 -788"/><text x="1905.53" y="-985.8" font-family="Times,serif" font-size="14" text-anchor="middle">ArithmeticCombinator[3]</text></g><g id="clust13" class="cluster"><title>cluster_s20</title><polygon fill="none" stroke="#000" points="2289.1 -8 2289.1 -221 3322.03 -221 3322.03 -8 2289.1 -8"/><text x="2805.57" y="-205.8" font-family="Times,serif" font-size="14" text-anchor="middle">ArithmeticCombinator[4]</text></g><g id="clust16" class="cluster"><title>cluster_s25</title><polygon fill="none" stroke="#000" points="3620.03 -1326 3620.03 -1539 3877.33 -1539 3877.33 -1326 3620.03 -1326"/><text x="3748.68" y="-1523.8" font-family="Times,serif" font-size="14" text-anchor="middle">ArithmeticCombinator[5]</text></g><g id="clust19" class="cluster"><title>cluster_s55</title><polygon fill="none" stroke="#000" points="1246.52 -235 1246.52 -780 1631.11 -780 1631.11 -235 1246.52 -235"/><text x="1438.82" y="-764.8" font-family="Times,serif" font-size="14" text-anchor="middle">ConcurrencyLimiter[13]</text></g><g id="clust20" class="cluster"><title>cluster_s59</title><polygon fill="none" stroke="#000" points="1323.17 -285 1323.17 -444 1554.46 -444 1554.46 -285 1323.17 -285"/><text x="1438.82" y="-428.8" font-family="Times,serif" font-size="14" text-anchor="middle">LoadActuator[13.LoadActuator]</text></g><g id="clust22" class="cluster"><title>cluster_s56</title><polygon fill="none" stroke="#000" points="1296.52 -494 1296.52 -707 1581.11 -707 1581.11 -494 1296.52 -494"/><text x="1438.82" y="-691.8" font-family="Times,serif" font-size="14" text-anchor="middle">Scheduler[13.Scheduler]</text></g><g id="clust24" class="cluster"><title>cluster_s61</title><polygon fill="none" stroke="#000" points="1831.6 -1915 1831.6 -2128 2449.25 -2128 2449.25 -1915 1831.6 -1915"/><text x="2140.43" y="-2112.8" font-family="Times,serif" font-size="14" text-anchor="middle">Decider[14]</text></g><g id="clust27" class="cluster"><title>cluster_s41</title><polygon fill="none" stroke="#000" points="616.59 -1373 616.59 -1586 1039.52 -1586 1039.52 -1373 616.59 -1373"/><text x="828.06" y="-1570.8" font-family="Times,serif" font-size="14" text-anchor="middle">EMA[10]</text></g><g id="clust30" class="cluster"><title>cluster_s52</title><polygon fill="none" stroke="#000" points="2759.9 -409 2759.9 -568 3322.03 -568 3322.03 -409 2759.9 -409"/><text x="3040.96" y="-552.8" font-family="Times,serif" font-size="14" text-anchor="middle">Extrapolator[12]</text></g><g id="clust33" class="cluster"><title>cluster_s32</title><polygon fill="none" stroke="#000" points="1361.82 -1713 1361.82 -1872 2449.25 -1872 2449.25 -1713 1361.82 -1713"/><text x="1905.53" y="-1856.8" font-family="Times,serif" font-size="14" text-anchor="middle">FirstValid[7]</text></g><g id="clust36" class="cluster"><title>cluster_s45</title><polygon fill="none" stroke="#000" points="2720.25 -776 2720.25 -1151 3322.03 -1151 3322.03 -776 2720.25 -776"/><text x="3021.14" y="-1135.8" font-family="Times,serif" font-size="14" text-anchor="middle">Gradient[11]</text></g><g id="clust39" class="cluster"><title>cluster_s29</title><polygon fill="none" stroke="#000" points="1826.11 -1159 1826.11 -1318 2449.25 -1318 2449.25 -1159 1826.11 -1159"/><text x="2137.68" y="-1302.8" font-family="Times,serif" font-size="14" text-anchor="middle">Min[6]</text></g><g id="clust42" class="cluster"><title>cluster_s39</title><polygon fill="none" stroke="#000" points="8 -1412 8 -1571 174.29 -1571 174.29 -1412 8 -1412"/><text x="91.15" y="-1555.8" font-family="Times,serif" font-size="14" text-anchor="middle">PromQL[9]</text></g><g id="clust44" class="cluster"><title>cluster_s36</title><polygon fill="none" stroke="#000" points="1830.01 -229 1830.01 -388 2449.25 -388 2449.25 -229 1830.01 -229"/><text x="2139.63" y="-372.8" font-family="Times,serif" font-size="14" text-anchor="middle">Sqrt[8]</text></g><g id="clust47" class="cluster"><title>cluster_s65</title><polygon fill="none" stroke="#000" points="2289.1 -1326 2289.1 -1593 3322.03 -1593 3322.03 -1326 2289.1 -1326"/><text x="2805.57" y="-1577.8" font-family="Times,serif" font-size="14" text-anchor="middle">Switcher[15]</text></g><g id="node1" class="node"><title>n4</title><ellipse cx="91.15" cy="-1227" fill="none" stroke="#000" rx="27" ry="18"/><text x="91.15" y="-1223.3" font-family="Times,serif" font-size="14" text-anchor="middle">2.00</text></g><g id="node4" class="node"><title>n3</title><ellipse cx="289.29" cy="-1227" fill="none" stroke="#000" rx="27" ry="18"/><text x="289.29" y="-1223.3" font-family="Times,serif" font-size="14" text-anchor="middle">rhs</text></g><g id="edge1" class="edge"><title>n4-&gt;n3</title><path fill="none" stroke="#000" d="M118.28,-1227C118.28,-1227 252.17,-1227 252.17,-1227"/><polygon fill="#000" stroke="#000" points="252.17 -1230.5 262.17 -1227 252.17 -1223.5 252.17 -1230.5"/></g><g id="node2" class="node"><title>n2</title><ellipse cx="289.29" cy="-1281" fill="none" stroke="#000" rx="27" ry="18"/><text x="289.29" y="-1277.3" font-family="Times,serif" font-size="14" text-anchor="middle">lhs</text></g><g id="node3" class="node"><title>n5</title><ellipse cx="447.44" cy="-1267" fill="none" stroke="#000" rx="33.29" ry="18"/><text x="447.44" y="-1263.3" font-family="Times,serif" font-size="14" text-anchor="middle">output</text></g><g id="node30" class="node"><title>n43</title><ellipse cx="728.98" cy="-1441" fill="none" stroke="#000" rx="62.29" ry="18"/><text x="728.98" y="-1437.3" font-family="Times,serif" font-size="14" text-anchor="middle">max_envelope</text></g><g id="edge42" class="edge"><title>n5-&gt;n43</title><path fill="none" stroke="#000" d="M448.33,-1285.29C448.33,-1329.97 448.33,-1441 448.33,-1441 448.33,-1441 656.35,-1441 656.35,-1441"/><polygon fill="#000" stroke="#000" points="656.35 -1444.5 666.35 -1441 656.35 -1437.5 656.35 -1444.5"/><text x="573.59" y="-1363.8" font-family="Times,serif" font-size="14" text-anchor="middle">MAX_EMA</text></g><g id="node5" class="node"><title>n9</title><ellipse cx="956.38" cy="-2002" fill="none" stroke="#000" rx="27" ry="18"/><text x="956.38" y="-1998.3" font-family="Times,serif" font-size="14" text-anchor="middle">1.10</text></g><g id="node8" class="node"><title>n8</title><ellipse cx="1192.52" cy="-2002" fill="none" stroke="#000" rx="27" ry="18"/><text x="1192.52" y="-1998.3" font-family="Times,serif" font-size="14" text-anchor="middle">rhs</text></g><g id="edge3" class="edge"><title>n9-&gt;n8</title><path fill="none" stroke="#000" d="M983.47,-2002C983.47,-2002 1155.39,-2002 1155.39,-2002"/><polygon fill="#000" stroke="#000" points="1155.39 -2005.5 1165.39 -2002 1155.39 -1998.5 1155.39 -2005.5"/></g><g id="node6" class="node"><title>n7</title><ellipse cx="1192.52" cy="-1948" fill="none" stroke="#000" rx="27" ry="18"/><text x="1192.52" y="-1944.3" font-family="Times,serif" font-size="14" text-anchor="middle">lhs</text></g><g id="node7" class="node"><title>n10</title><ellipse cx="1438.82" cy="-1983" fill="none" stroke="#000" rx="33.29" ry="18"/><text x="1438.82" y="-1979.3" font-family="Times,serif" font-size="14" text-anchor="middle">output</text></g><g id="node28" class="node"><title>n63</title><ellipse cx="1908.6" cy="-1983" fill="none" stroke="#000" rx="27" ry="18"/><text x="1908.6" y="-1979.3" font-family="Times,serif" font-size="14" text-anchor="middle">rhs</text></g><g id="edge44" class="edge"><title>n10-&gt;n63</title><path fill="none" stroke="#000" d="M1470.37,-1989C1470.37,-1989 1873.08,-1989 1873.08,-1989"/><polygon fill="#000" stroke="#000" points="1873.08 -1992.5 1883.08 -1989 1873.08 -1985.5 1873.08 -1992.5"/><text x="1728.61" y="-1986.8" font-family="Times,serif" font-size="14" text-anchor="middle">LATENCY_SETPOINT</text></g><g id="node41" class="node"><title>n48</title><ellipse cx="2838.49" cy="-1060" fill="none" stroke="#000" rx="38.19" ry="18"/><text x="2838.49" y="-1056.3" font-family="Times,serif" font-size="14" text-anchor="middle">setpoint</text></g><g id="edge43" class="edge"><title>n10-&gt;n48</title><path fill="none" stroke="#000" d="M1470.21,-1977C1477.58,-1977 1483.33,-1977 1483.33,-1977 1483.33,-1977 1483.33,-1060 1483.33,-1060 1483.33,-1060 2790.12,-1060 2790.12,-1060"/><polygon fill="#000" stroke="#000" points="2790.12 -1063.5 2800.12 -1060 2790.12 -1056.5 2790.12 -1063.5"/><text x="2120.1" y="-1097.8" font-family="Times,serif" font-size="14" text-anchor="middle">LATENCY_SETPOINT</text></g><g id="node9" class="node"><title>n12</title><ellipse cx="1908.6" cy="-518" fill="none" stroke="#000" rx="27" ry="18"/><text x="1908.6" y="-514.3" font-family="Times,serif" font-size="14" text-anchor="middle">lhs</text></g><g id="node10" class="node"><title>n14</title><ellipse cx="2366.1" cy="-465" fill="none" stroke="#000" rx="33.29" ry="18"/><text x="2366.1" y="-461.3" font-family="Times,serif" font-size="14" text-anchor="middle">output</text></g><g id="node32" class="node"><title>n53</title><ellipse cx="2838.49" cy="-477" fill="none" stroke="#000" rx="28.7" ry="18"/><text x="2838.49" y="-473.3" font-family="Times,serif" font-size="14" text-anchor="middle">input</text></g><g id="edge27" class="edge"><title>n14-&gt;n53</title><path fill="none" stroke="#000" d="M2397.46,-471C2397.46,-471 2801.34,-471 2801.34,-471"/><polygon fill="#000" stroke="#000" points="2801.34 -474.5 2811.34 -471 2801.34 -467.5 2801.34 -474.5"/><text x="2584.75" y="-472.8" font-family="Times,serif" font-size="14" text-anchor="middle">DESIRED_CONCURRENCY_RATIO</text></g><g id="node11" class="node"><title>n13</title><ellipse cx="1908.6" cy="-464" fill="none" stroke="#000" rx="27" ry="18"/><text x="1908.6" y="-460.3" font-family="Times,serif" font-size="14" text-anchor="middle">rhs</text></g><g id="node12" class="node"><title>n17</title><ellipse cx="1438.82" cy="-910" fill="none" stroke="#000" rx="27" ry="18"/><text x="1438.82" y="-906.3" font-family="Times,serif" font-size="14" text-anchor="middle">2.00</text></g><g id="node13" class="node"><title>n16</title><ellipse cx="1908.6" cy="-910" fill="none" stroke="#000" rx="27" ry="18"/><text x="1908.6" y="-906.3" font-family="Times,serif" font-size="14" text-anchor="middle">lhs</text></g><g id="edge6" class="edge"><title>n17-&gt;n16</title><path fill="none" stroke="#000" d="M1466.1,-910C1466.1,-910 1871.53,-910 1871.53,-910"/><polygon fill="#000" stroke="#000" points="1871.53 -913.5 1881.53 -910 1871.53 -906.5 1871.53 -913.5"/></g><g id="node14" class="node"><title>n19</title><ellipse cx="2366.1" cy="-887" fill="none" stroke="#000" rx="33.29" ry="18"/><text x="2366.1" y="-883.3" font-family="Times,serif" font-size="14" text-anchor="middle">output</text></g><g id="node38" class="node"><title>n50</title><ellipse cx="2838.49" cy="-898" fill="none" stroke="#000" rx="27" ry="18"/><text x="2838.49" y="-894.3" font-family="Times,serif" font-size="14" text-anchor="middle">max</text></g><g id="edge45" class="edge"><title>n19-&gt;n50</title><path fill="none" stroke="#000" d="M2397.83,-892.5C2397.83,-892.5 2802.55,-892.5 2802.55,-892.5"/><polygon fill="#000" stroke="#000" points="2802.55 -896 2812.55 -892.5 2802.55 -889 2802.55 -896"/><text x="2584.75" y="-896.8" font-family="Times,serif" font-size="14" text-anchor="middle">NORMAL_CONCURRENCY_LIMIT</text></g><g id="node15" class="node"><title>n18</title><ellipse cx="1908.6" cy="-856" fill="none" stroke="#000" rx="27" ry="18"/><text x="1908.6" y="-852.3" font-family="Times,serif" font-size="14" text-anchor="middle">rhs</text></g><g id="node16" class="node"><title>n22</title><ellipse cx="2366.1" cy="-76" fill="none" stroke="#000" rx="27" ry="18"/><text x="2366.1" y="-72.3" font-family="Times,serif" font-size="14" text-anchor="middle">5.00</text></g><g id="node17" class="node"><title>n21</title><ellipse cx="2838.49" cy="-76" fill="none" stroke="#000" rx="27" ry="18"/><text x="2838.49" y="-72.3" font-family="Times,serif" font-size="14" text-anchor="middle">lhs</text></g><g id="edge8" class="edge"><title>n22-&gt;n21</title><path fill="none" stroke="#000" d="M2393.2,-76C2393.2,-76 2801.21,-76 2801.21,-76"/><polygon fill="#000" stroke="#000" points="2801.21 -79.5 2811.21 -76 2801.21 -72.5 2801.21 -79.5"/></g><g id="node18" class="node"><title>n24</title><ellipse cx="3238.88" cy="-130" fill="none" stroke="#000" rx="33.29" ry="18"/><text x="3238.88" y="-126.3" font-family="Times,serif" font-size="14" text-anchor="middle">output</text></g><g id="node20" class="node"><title>n26</title><ellipse cx="3697.03" cy="-1394" fill="none" stroke="#000" rx="27" ry="18"/><text x="3697.03" y="-1390.3" font-family="Times,serif" font-size="14" text-anchor="middle">lhs</text></g><g id="edge38" class="edge"><title>n24-&gt;n26</title><path fill="none" stroke="#000" d="M3272.22,-130C3377.72,-130 3697.33,-130 3697.33,-130 3697.33,-130 3697.33,-1365.64 3697.33,-1365.64"/><polygon fill="#000" stroke="#000" points="3693.83 -1365.64 3697.33 -1375.64 3700.83 -1365.64 3693.83 -1365.64"/><text x="3471.03" y="-765.8" font-family="Times,serif" font-size="14" text-anchor="middle">CONCURRENCY_INCREMENT_SINGLE_TICK</text></g><g id="node19" class="node"><title>n23</title><ellipse cx="2838.49" cy="-130" fill="none" stroke="#000" rx="27" ry="18"/><text x="2838.49" y="-126.3" font-family="Times,serif" font-size="14" text-anchor="middle">rhs</text></g><g id="node21" class="node"><title>n28</title><ellipse cx="3794.18" cy="-1448" fill="none" stroke="#000" rx="33.29" ry="18"/><text x="3794.18" y="-1444.3" font-family="Times,serif" font-size="14" text-anchor="middle">output</text></g><g id="node43" class="node"><title>n30</title><ellipse cx="1908.6" cy="-1227" fill="none" stroke="#000" rx="32.49" ry="18"/><text x="1908.6" y="-1223.3" font-family="Times,serif" font-size="14" text-anchor="middle">inputs</text></g><g id="edge32" class="edge"><title>n28-&gt;n30</title><path fill="none" stroke="#000" d="M3794.33,-1429.86C3794.33,-1427.84 3794.33,-1426.5 3794.33,-1426.5 3794.33,-1426.5 1909.33,-1426.5 1909.33,-1426.5 1909.33,-1426.5 1909.33,-1255.06 1909.33,-1255.06"/><polygon fill="#000" stroke="#000" points="1912.83 -1255.06 1909.33 -1245.06 1905.83 -1255.06 1912.83 -1255.06"/><text x="3056.24" y="-1664.8" font-family="Times,serif" font-size="14" text-anchor="middle">CONCURRENCY_INCREMENT_INTEGRAL</text></g><g id="node22" class="node"><title>n27</title><ellipse cx="3697.03" cy="-1448" fill="none" stroke="#000" rx="27" ry="18"/><text x="3697.03" y="-1444.3" font-family="Times,serif" font-size="14" text-anchor="middle">rhs</text></g><g id="node23" class="node"><title>n60</title><ellipse cx="1438.82" cy="-353" fill="none" stroke="#000" rx="65.79" ry="18"/><text x="1438.82" y="-349.3" font-family="Times,serif" font-size="14" text-anchor="middle">load_multiplier</text></g><g id="node24" class="node"><title>n57</title><ellipse cx="1438.82" cy="-616" fill="none" stroke="#000" rx="89.08" ry="18"/><text x="1438.82" y="-612.3" font-family="Times,serif" font-size="14" text-anchor="middle">accepted_concurrency</text></g><g id="edge21" class="edge"><title>n57-&gt;n18</title><path fill="none" stroke="#000" d="M1506.33,-627.9C1506.33,-676.33 1506.33,-856 1506.33,-856 1506.33,-856 1871.59,-856 1871.59,-856"/><polygon fill="#000" stroke="#000" points="1871.59 -859.5 1881.59 -856 1871.59 -852.5 1871.59 -859.5"/><text x="1728.61" y="-809.8" font-family="Times,serif" font-size="14" text-anchor="middle">ACCEPTED_CONCURRENCY</text></g><g id="node37" class="node"><title>n46</title><ellipse cx="2838.49" cy="-844" fill="none" stroke="#000" rx="68.49" ry="18"/><text x="2838.49" y="-840.3" font-family="Times,serif" font-size="14" text-anchor="middle">control_variable</text></g><g id="edge24" class="edge"><title>n57-&gt;n46</title><path fill="none" stroke="#000" d="M1517.33,-624.73C1517.33,-665.15 1517.33,-832 1517.33,-832 1517.33,-832 2777.51,-832 2777.51,-832"/><polygon fill="#000" stroke="#000" points="2777.51 -835.5 2787.51 -832 2777.51 -828.5 2777.51 -835.5"/><text x="2120.1" y="-726.8" font-family="Times,serif" font-size="14" text-anchor="middle">ACCEPTED_CONCURRENCY</text></g><g id="edge22" class="edge"><title>n57-&gt;n30</title><path fill="none" stroke="#000" d="M1494.33,-630.2C1494.33,-721.94 1494.33,-1227 1494.33,-1227 1494.33,-1227 1866.1,-1227 1866.1,-1227"/><polygon fill="#000" stroke="#000" points="1866.1 -1230.5 1876.1 -1227 1866.1 -1223.5 1866.1 -1230.5"/><text x="1728.61" y="-1072.8" font-family="Times,serif" font-size="14" text-anchor="middle">ACCEPTED_CONCURRENCY</text></g><g id="node46" class="node"><title>n37</title><ellipse cx="1908.6" cy="-297" fill="none" stroke="#000" rx="28.7" ry="18"/><text x="1908.6" y="-293.3" font-family="Times,serif" font-size="14" text-anchor="middle">input</text></g><g id="edge23" class="edge"><title>n57-&gt;n37</title><path fill="none" stroke="#000" d="M1527.97,-616C1605.1,-616 1704.33,-616 1704.33,-616 1704.33,-616 1704.33,-297 1704.33,-297 1704.33,-297 1869.77,-297 1869.77,-297"/><polygon fill="#000" stroke="#000" points="1869.77 -300.5 1879.77 -297 1869.77 -293.5 1869.77 -300.5"/><text x="1728.61" y="-696.8" font-family="Times,serif" font-size="14" text-anchor="middle">ACCEPTED_CONCURRENCY</text></g><g id="node25" class="node"><title>n58</title><ellipse cx="1438.82" cy="-562" fill="none" stroke="#000" rx="92.08" ry="18"/><text x="1438.82" y="-558.3" font-family="Times,serif" font-size="14" text-anchor="middle">incoming_concurrency</text></g><g id="edge25" class="edge"><title>n58-&gt;n13</title><path fill="none" stroke="#000" d="M1518.33,-552.6C1518.33,-528.07 1518.33,-464 1518.33,-464 1518.33,-464 1871.47,-464 1871.47,-464"/><polygon fill="#000" stroke="#000" points="1871.47 -467.5 1881.47 -464 1871.47 -460.5 1871.47 -467.5"/><text x="1728.61" y="-516.8" font-family="Times,serif" font-size="14" text-anchor="middle">INCOMING_CONCURRENCY</text></g><g id="node26" class="node"><title>n62</title><ellipse cx="1908.6" cy="-2037" fill="none" stroke="#000" rx="27" ry="18"/><text x="1908.6" y="-2033.3" font-family="Times,serif" font-size="14" text-anchor="middle">lhs</text></g><g id="node27" class="node"><title>n64</title><ellipse cx="2366.1" cy="-1983" fill="none" stroke="#000" rx="33.29" ry="18"/><text x="2366.1" y="-1979.3" font-family="Times,serif" font-size="14" text-anchor="middle">output</text></g><g id="node52" class="node"><title>n69</title><ellipse cx="2838.49" cy="-1502" fill="none" stroke="#000" rx="33.6" ry="18"/><text x="2838.49" y="-1498.3" font-family="Times,serif" font-size="14" text-anchor="middle">switch</text></g><g id="edge31" class="edge"><title>n64-&gt;n69</title><path fill="none" stroke="#000" d="M2399.38,-1983C2507.09,-1983 2839.33,-1983 2839.33,-1983 2839.33,-1983 2839.33,-1530.27 2839.33,-1530.27"/><polygon fill="#000" stroke="#000" points="2842.83 -1530.27 2839.33 -1520.27 2835.83 -1530.27 2842.83 -1530.27"/><text x="2584.75" y="-1828.8" font-family="Times,serif" font-size="14" text-anchor="middle">IS_OVERLOAD</text></g><g id="node29" class="node"><title>n42</title><ellipse cx="728.98" cy="-1495" fill="none" stroke="#000" rx="28.7" ry="18"/><text x="728.98" y="-1491.3" font-family="Times,serif" font-size="14" text-anchor="middle">input</text></g><g id="node31" class="node"><title>n44</title><ellipse cx="956.38" cy="-1481" fill="none" stroke="#000" rx="33.29" ry="18"/><text x="956.38" y="-1477.3" font-family="Times,serif" font-size="14" text-anchor="middle">output</text></g><g id="edge26" class="edge"><title>n44-&gt;n7</title><path fill="none" stroke="#000" d="M983.56,-1491.5C1045.8,-1491.5 1193.33,-1491.5 1193.33,-1491.5 1193.33,-1491.5 1193.33,-1919.82 1193.33,-1919.82"/><polygon fill="#000" stroke="#000" points="1189.83 -1919.82 1193.33 -1929.82 1196.83 -1919.82 1189.83 -1919.82"/><text x="1097.52" y="-1724.8" font-family="Times,serif" font-size="14" text-anchor="middle">LATENCY_EMA</text></g><g id="node33" class="node"><title>n54</title><ellipse cx="3238.88" cy="-477" fill="none" stroke="#000" rx="33.29" ry="18"/><text x="3238.88" y="-473.3" font-family="Times,serif" font-size="14" text-anchor="middle">output</text></g><g id="edge30" class="edge"><title>n54-&gt;n60</title><path fill="none" stroke="#000" d="M3239.33,-458.97C3239.33,-424.58 3239.33,-353 3239.33,-353 3239.33,-353 1514.5,-353 1514.5,-353"/><polygon fill="#000" stroke="#000" points="1514.5 -349.5 1504.5 -353 1514.5 -356.5 1514.5 -349.5"/><text x="2366.1" y="-680.8" font-family="Times,serif" font-size="14" text-anchor="middle">LOAD_MULTIPLIER</text></g><g id="node34" class="node"><title>n34</title><ellipse cx="1438.82" cy="-1781" fill="none" stroke="#000" rx="27" ry="18"/><text x="1438.82" y="-1777.3" font-family="Times,serif" font-size="14" text-anchor="middle">0.00</text></g><g id="node35" class="node"><title>n33</title><ellipse cx="1908.6" cy="-1781" fill="none" stroke="#000" rx="32.49" ry="18"/><text x="1908.6" y="-1777.3" font-family="Times,serif" font-size="14" text-anchor="middle">inputs</text></g><g id="edge14" class="edge"><title>n34-&gt;n33</title><path fill="none" stroke="#000" d="M1466.1,-1781C1466.1,-1781 1866.04,-1781 1866.04,-1781"/><polygon fill="#000" stroke="#000" points="1866.04 -1784.5 1876.04 -1781 1866.04 -1777.5 1866.04 -1784.5"/></g><g id="node36" class="node"><title>n35</title><ellipse cx="2366.1" cy="-1781" fill="none" stroke="#000" rx="33.29" ry="18"/><text x="2366.1" y="-1777.3" font-family="Times,serif" font-size="14" text-anchor="middle">output</text></g><g id="node49" class="node"><title>n68</title><ellipse cx="2838.49" cy="-1448" fill="none" stroke="#000" rx="40.09" ry="18"/><text x="2838.49" y="-1444.3" font-family="Times,serif" font-size="14" text-anchor="middle">on_false</text></g><g id="edge40" class="edge"><title>n35-&gt;n68</title><path fill="none" stroke="#000" d="M2366.33,-1762.91C2366.33,-1693.01 2366.33,-1444.5 2366.33,-1444.5 2366.33,-1444.5 2788.64,-1444.5 2788.64,-1444.5"/><polygon fill="#000" stroke="#000" points="2788.64 -1448 2798.64 -1444.5 2788.64 -1441 2788.64 -1448"/><text x="2584.75" y="-1538.8" font-family="Times,serif" font-size="14" text-anchor="middle">CONCURRENCY_INCREMENT_NORMAL</text></g><g id="node40" class="node"><title>n51</title><ellipse cx="3238.88" cy="-858" fill="none" stroke="#000" rx="33.29" ry="18"/><text x="3238.88" y="-854.3" font-family="Times,serif" font-size="14" text-anchor="middle">output</text></g><g id="node39" class="node"><title>n49</title><ellipse cx="2838.49" cy="-952" fill="none" stroke="#000" rx="42.49" ry="18"/><text x="2838.49" y="-948.3" font-family="Times,serif" font-size="14" text-anchor="middle">optimize</text></g><g id="edge41" class="edge"><title>n51-&gt;n12</title><path fill="none" stroke="#000" d="M3239.33,-839.72C3239.33,-769.1 3239.33,-518 3239.33,-518 3239.33,-518 1945.79,-518 1945.79,-518"/><polygon fill="#000" stroke="#000" points="1945.79 -514.5 1935.79 -518 1945.79 -521.5 1945.79 -514.5"/><text x="2584.75" y="-633.8" font-family="Times,serif" font-size="14" text-anchor="middle">DESIRED_CONCURRENCY</text></g><g id="node42" class="node"><title>n47</title><ellipse cx="2838.49" cy="-1006" fill="none" stroke="#000" rx="31.7" ry="18"/><text x="2838.49" y="-1002.3" font-family="Times,serif" font-size="14" text-anchor="middle">signal</text></g><g id="node44" class="node"><title>n31</title><ellipse cx="2366.1" cy="-1227" fill="none" stroke="#000" rx="33.29" ry="18"/><text x="2366.1" y="-1223.3" font-family="Times,serif" font-size="14" text-anchor="middle">output</text></g><g id="edge39" class="edge"><title>n31-&gt;n33</title><path fill="none" stroke="#000" d="M2334.77,-1233C2272.12,-1233 2137.33,-1233 2137.33,-1233 2137.33,-1233 2137.33,-1775 2137.33,-1775 2137.33,-1775 1949.45,-1775 1949.45,-1775"/><polygon fill="#000" stroke="#000" points="1949.45 -1771.5 1939.45 -1775 1949.45 -1778.5 1949.45 -1771.5"/><text x="2120.1" y="-1726.8" font-family="Times,serif" font-size="14" text-anchor="middle">CONCURRENCY_INCREMENT_INTEGRAL_CAPPED</text></g><g id="node45" class="node"><title>n40</title><ellipse cx="91.15" cy="-1480" fill="none" stroke="#000" rx="33.29" ry="18"/><text x="91.15" y="-1476.3" font-family="Times,serif" font-size="14" text-anchor="middle">output</text></g><g id="edge34" class="edge"><title>n40-&gt;n2</title><path fill="none" stroke="#000" d="M113.11,-1466.5C164.71,-1466.5 289.33,-1466.5 289.33,-1466.5 289.33,-1466.5 289.33,-1309.12 289.33,-1309.12"/><polygon fill="#000" stroke="#000" points="292.83 -1309.12 289.33 -1299.12 285.83 -1309.12 292.83 -1309.12"/><text x="213.29" y="-1468.8" font-family="Times,serif" font-size="14" text-anchor="middle">LATENCY</text></g><g id="edge37" class="edge"><title>n40-&gt;n62</title><path fill="none" stroke="#000" d="M91.33,-1498.23C91.33,-1594.31 91.33,-2037.5 91.33,-2037.5 91.33,-2037.5 1871.51,-2037.5 1871.51,-2037.5"/><polygon fill="#000" stroke="#000" points="1871.51 -2041 1881.51 -2037.5 1871.51 -2034 1871.51 -2041"/><text x="840.38" y="-2156.8" font-family="Times,serif" font-size="14" text-anchor="middle">LATENCY</text></g><g id="edge35" class="edge"><title>n40-&gt;n42</title><path fill="none" stroke="#000" d="M121.48,-1487.5C121.48,-1487.5 692.78,-1487.5 692.78,-1487.5"/><polygon fill="#000" stroke="#000" points="692.78 -1491 702.78 -1487.5 692.78 -1484 692.78 -1491"/><text x="365.29" y="-1498.8" font-family="Times,serif" font-size="14" text-anchor="middle">LATENCY</text></g><g id="edge36" class="edge"><title>n40-&gt;n47</title><path fill="none" stroke="#000" d="M118.87,-1470C256.23,-1470 857.33,-1470 857.33,-1470 857.33,-1470 857.33,-1006 857.33,-1006 857.33,-1006 2796.57,-1006 2796.57,-1006"/><polygon fill="#000" stroke="#000" points="2796.57 -1009.5 2806.57 -1006 2796.57 -1002.5 2796.57 -1009.5"/><text x="1097.52" y="-1102.8" font-family="Times,serif" font-size="14" text-anchor="middle">LATENCY</text></g><g id="node47" class="node"><title>n38</title><ellipse cx="2366.1" cy="-297" fill="none" stroke="#000" rx="33.29" ry="18"/><text x="2366.1" y="-293.3" font-family="Times,serif" font-size="14" text-anchor="middle">output</text></g><g id="edge33" class="edge"><title>n38-&gt;n23</title><path fill="none" stroke="#000" d="M2399.38,-297C2507.09,-297 2839.33,-297 2839.33,-297 2839.33,-297 2839.33,-158.19 2839.33,-158.19"/><polygon fill="#000" stroke="#000" points="2842.83 -158.19 2839.33 -148.19 2835.83 -158.19 2842.83 -158.19"/><text x="2584.75" y="-216.8" font-family="Times,serif" font-size="14" text-anchor="middle">SQRT_CONCURRENCY_INCREMENT</text></g><g id="node48" class="node"><title>n67</title><ellipse cx="2366.1" cy="-1394" fill="none" stroke="#000" rx="27" ry="18"/><text x="2366.1" y="-1390.3" font-family="Times,serif" font-size="14" text-anchor="middle">0.00</text></g><g id="node50" class="node"><title>n66</title><ellipse cx="2838.49" cy="-1394" fill="none" stroke="#000" rx="37.89" ry="18"/><text x="2838.49" y="-1390.3" font-family="Times,serif" font-size="14" text-anchor="middle">on_true</text></g><g id="edge19" class="edge"><title>n67-&gt;n66</title><path fill="none" stroke="#000" d="M2393.2,-1394C2393.2,-1394 2790.74,-1394 2790.74,-1394"/><polygon fill="#000" stroke="#000" points="2790.74 -1397.5 2800.74 -1394 2790.74 -1390.5 2790.74 -1397.5"/></g><g id="node51" class="node"><title>n70</title><ellipse cx="3238.88" cy="-1448" fill="none" stroke="#000" rx="33.29" ry="18"/><text x="3238.88" y="-1444.3" font-family="Times,serif" font-size="14" text-anchor="middle">output</text></g><g id="edge28" class="edge"><title>n70-&gt;n27</title><path fill="none" stroke="#000" d="M3272.2,-1448C3272.2,-1448 3659.76,-1448 3659.76,-1448"/><polygon fill="#000" stroke="#000" points="3659.76 -1451.5 3669.76 -1448 3659.76 -1444.5 3659.76 -1451.5"/><text x="3471.03" y="-1451.8" font-family="Times,serif" font-size="14" text-anchor="middle">CONCURRENCY_INCREMENT</text></g><g id="edge29" class="edge"><title>n70-&gt;n49</title><path fill="none" stroke="#000" d="M3239.33,-1429.76C3239.33,-1340.27 3239.33,-952 3239.33,-952 3239.33,-952 2891.01,-952 2891.01,-952"/><polygon fill="#000" stroke="#000" points="2891.01 -948.5 2881.01 -952 2891.01 -955.5 2891.01 -948.5"/><text x="3056.24" y="-1203.8" font-family="Times,serif" font-size="14" text-anchor="middle">CONCURRENCY_INCREMENT</text></g></g></svg>