<svg xmlns="http://www.w3.org/2000/svg" viewBox="0 0 417.63 400"><defs><style>.c{fill:#c7c4c1}.d{fill:#f27a40}.e{fill:#56524d}.f{fill:#2e2b29}.g{stroke-miterlimit:10}.g,.h{stroke:#868079}.g,.h,.i{fill:none;stroke-width:.72px}.j{fill:#8ec4ad}.i{stroke:#bfded1}.k{fill:#403d3a}.l{fill:#868079}.m{fill:#1d1d1b}</style></defs><g id="a" data-name="bg"><rect width="4090.86" height="500" x="-1673.7" y="-50" class="f"/></g><g id="b" data-name="Warstwa 1"><g><path d="m188.29,297.06h162.2c.34,0,.68.03,1.01.1.33.07.66.16.97.29.31.13.61.29.89.48.28.19.54.4.78.64s.45.5.64.78.35.58.48.89c.13.31.23.64.29.97.07.33.1.67.1,1.01v75.92c0,.34-.03.68-.1,1.01-.07.33-.16.66-.29.97-.13.31-.29.61-.48.9-.19.28-.4.54-.64.78-.24.24-.5.45-.78.64s-.58.35-.89.48c-.31.13-.64.23-.97.29-.33.07-.67.1-1.01.1h-162.2c-.34,0-.68-.03-1.01-.1-.33-.07-.66-.16-.97-.29-.31-.13-.61-.29-.89-.48-.28-.19-.54-.4-.78-.64-.24-.24-.45-.5-.64-.78-.19-.28-.35-.58-.48-.89s-.23-.64-.29-.97c-.07-.33-.1-.67-.1-1.01v-75.92c0-.34.03-.68.1-1.01.07-.33.16-.66.29-.97.13-.31.29-.61.48-.89.19-.28.4-.54.64-.78.24-.24.5-.45.78-.64.28-.19.58-.35.89-.48.31-.13.64-.23.97-.29.33-.07.67-.1,1.01-.1Z" class="j"/><path d="m188.29,297.06h162.2c.34,0,.68.03,1.01.1.33.07.66.16.97.29.31.13.61.29.89.48.28.19.54.4.78.64s.45.5.64.78.35.58.48.89c.13.31.23.64.29.97.07.33.1.67.1,1.01v75.92c0,.34-.03.68-.1,1.01-.07.33-.16.66-.29.97-.13.31-.29.61-.48.9-.19.28-.4.54-.64.78-.24.24-.5.45-.78.64s-.58.35-.89.48c-.31.13-.64.23-.97.29-.33.07-.67.1-1.01.1h-162.2c-.34,0-.68-.03-1.01-.1-.33-.07-.66-.16-.97-.29-.31-.13-.61-.29-.89-.48-.28-.19-.54-.4-.78-.64-.24-.24-.45-.5-.64-.78-.19-.28-.35-.58-.48-.89s-.23-.64-.29-.97c-.07-.33-.1-.67-.1-1.01v-75.92c0-.34.03-.68.1-1.01.07-.33.16-.66.29-.97.13-.31.29-.61.48-.89.19-.28.4-.54.64-.78.24-.24.5-.45.78-.64.28-.19.58-.35.89-.48.31-.13.64-.23.97-.29.33-.07.67-.1,1.01-.1Z" class="i"/><g><path d="m240.23,342.72l2.37-6.18h.88l2.53,6.18h-.93l-.72-1.87h-2.58l-.68,1.87h-.87Zm1.78-2.54h2.09l-.64-1.71c-.2-.52-.34-.95-.44-1.28-.08.4-.19.79-.33,1.18l-.68,1.81Z" class="m"/><path d="m246.57,344.43v-6.19h.69v.58c.16-.23.35-.4.55-.51.21-.11.45-.17.75-.17.38,0,.72.1,1.01.29.29.2.51.47.66.83.15.36.22.75.22,1.18,0,.46-.08.87-.25,1.24s-.4.65-.72.84c-.31.2-.64.29-.99.29-.25,0-.48-.05-.68-.16-.2-.11-.37-.24-.49-.41v2.18h-.76Zm.69-3.93c0,.58.12,1,.35,1.28.23.28.52.41.85.41s.63-.14.87-.43.36-.73.36-1.32-.12-1-.35-1.28c-.24-.28-.52-.43-.84-.43s-.61.15-.86.45c-.25.3-.37.74-.37,1.32Z" class="m"/><path d="m254.43,341.28l.78.1c-.12.46-.35.81-.69,1.07s-.76.38-1.28.38c-.66,0-1.17-.2-1.56-.61-.38-.4-.58-.97-.58-1.7s.19-1.34.58-1.75c.39-.42.89-.62,1.51-.62s1.09.2,1.47.61c.38.41.57.98.57,1.72,0,.04,0,.11,0,.2h-3.34c.03.49.17.87.42,1.13.25.26.56.39.94.39.28,0,.52-.07.71-.22.2-.15.35-.38.47-.7Zm-2.49-1.23h2.5c-.03-.38-.13-.66-.29-.85-.24-.29-.55-.44-.94-.44-.35,0-.64.12-.88.35-.24.23-.37.54-.39.93Z" class="m"/><path d="m256.16,342.72v-4.47h.68v.68c.17-.32.33-.53.48-.63.15-.1.31-.15.49-.15.25,0,.51.08.78.24l-.26.7c-.19-.11-.37-.16-.56-.16-.17,0-.31.05-.45.15-.13.1-.23.24-.28.42-.08.27-.13.56-.13.88v2.34h-.76Z" class="m"/><path d="m260.69,342.04l.11.67c-.21.04-.41.07-.57.07-.28,0-.49-.04-.64-.13-.15-.09-.26-.2-.32-.34-.06-.14-.09-.44-.09-.9v-2.57h-.56v-.59h.56v-1.11l.75-.46v1.56h.76v.59h-.76v2.62c0,.22.01.35.04.42.03.06.07.11.13.15.06.04.15.05.26.05.08,0,.2,0,.33-.03Z" class="m"/><path d="m264.37,342.72v-.66c-.35.51-.82.76-1.42.76-.26,0-.51-.05-.74-.15-.23-.1-.4-.23-.51-.38-.11-.15-.19-.34-.23-.56-.03-.15-.05-.38-.05-.71v-2.77h.76v2.48c0,.4.02.66.05.8.05.2.15.36.3.47.15.11.35.17.57.17s.44-.06.64-.17.34-.28.42-.48c.08-.2.12-.49.12-.87v-2.4h.76v4.47h-.68Z" class="m"/><path d="m266.23,342.72v-4.47h.68v.68c.17-.32.33-.53.48-.63.15-.1.31-.15.49-.15.25,0,.51.08.78.24l-.26.7c-.19-.11-.37-.16-.56-.16-.17,0-.31.05-.45.15-.13.1-.23.24-.28.42-.08.27-.13.56-.13.88v2.34h-.76Z" class="m"/><path d="m272.17,341.28l.78.1c-.12.46-.35.81-.69,1.07-.33.25-.76.38-1.28.38-.65,0-1.17-.2-1.56-.61-.38-.4-.58-.97-.58-1.7s.19-1.34.58-1.75c.39-.42.89-.62,1.51-.62s1.09.2,1.47.61.57.98.57,1.72c0,.04,0,.11,0,.2h-3.34c.03.49.17.87.42,1.13.25.26.56.39.93.39.28,0,.52-.07.71-.22.2-.15.35-.38.47-.7Zm-2.49-1.23h2.5c-.03-.38-.13-.66-.29-.85-.24-.29-.55-.44-.94-.44-.35,0-.64.12-.88.35-.24.23-.37.54-.39.93Z" class="m"/></g><g><path d="m275.25,342.72l2.37-6.18h.88l2.53,6.18h-.93l-.72-1.87h-2.58l-.68,1.87h-.87Zm1.78-2.54h2.09l-.64-1.71c-.2-.52-.34-.95-.44-1.28-.08.4-.19.79-.33,1.18l-.68,1.81Z" class="m"/><path d="m281.44,343.09l.74.11c.03.23.12.39.26.5.19.14.45.21.77.21.35,0,.62-.07.81-.21.19-.14.32-.34.39-.59.04-.15.06-.48.05-.97-.33.39-.74.59-1.24.59-.62,0-1.09-.22-1.43-.67-.34-.44-.51-.98-.51-1.6,0-.43.08-.82.23-1.18.15-.36.38-.64.67-.84.29-.2.64-.29,1.03-.29.53,0,.96.21,1.31.64v-.54h.7v3.87c0,.7-.07,1.19-.21,1.48s-.37.52-.67.69c-.31.17-.69.25-1.14.25-.53,0-.96-.12-1.29-.36-.33-.24-.49-.6-.48-1.08Zm.63-2.69c0,.59.12,1.02.35,1.29s.53.4.88.4.64-.13.88-.4c.24-.27.35-.69.35-1.26s-.12-.96-.36-1.24-.54-.42-.88-.42-.62.14-.86.41c-.24.27-.35.68-.35,1.22Z" class="m"/><path d="m289.44,341.28l.78.1c-.12.46-.35.81-.69,1.07-.33.25-.76.38-1.28.38-.65,0-1.17-.2-1.56-.61-.38-.4-.58-.97-.58-1.7s.19-1.34.58-1.75c.39-.42.89-.62,1.51-.62s1.09.2,1.47.61.57.98.57,1.72c0,.04,0,.11,0,.2h-3.34c.03.49.17.87.42,1.13.25.26.56.39.93.39.28,0,.52-.07.71-.22.2-.15.35-.38.47-.7Zm-2.49-1.23h2.5c-.03-.38-.13-.66-.29-.85-.24-.29-.55-.44-.94-.44-.35,0-.64.12-.88.35-.24.23-.37.54-.39.93Z" class="m"/><path d="m291.18,342.72v-4.47h.68v.64c.33-.49.8-.74,1.42-.74.27,0,.52.05.74.15.23.1.4.22.51.38s.19.34.24.56c.03.14.04.39.04.74v2.75h-.76v-2.72c0-.31-.03-.54-.09-.69-.06-.15-.16-.28-.31-.37-.15-.09-.33-.14-.53-.14-.32,0-.6.1-.84.31s-.35.59-.35,1.17v2.44h-.76Z" class="m"/><path d="m297.63,342.04l.11.67c-.21.04-.41.07-.57.07-.28,0-.49-.04-.64-.13-.15-.09-.26-.2-.32-.34-.06-.14-.09-.44-.09-.9v-2.57h-.56v-.59h.56v-1.11l.75-.46v1.56h.76v.59h-.76v2.62c0,.22.01.35.04.42.03.06.07.11.13.15.06.04.15.05.26.05.08,0,.2,0,.33-.03Z" class="m"/></g><polygon points="40.39 74.34 40.39 66.83 141.65 66.83 141.65 60.26 161.18 70.58 141.65 80.91 141.65 74.34 40.39 74.34" class="d"/><g><path d="m91.38,62.32h-.7v-4.43c-.17.16-.39.32-.66.48-.27.16-.52.28-.73.36v-.67c.39-.18.73-.4,1.02-.66.29-.26.5-.51.62-.76h.45v5.68Z" class="c"/><path d="m93.55,62.32v-.79h.79v.79h-.79Z" class="c"/><path d="m97.85,62.32v-5.66h2.51c.5,0,.89.05,1.15.15s.47.28.63.54c.16.26.24.54.24.85,0,.4-.13.74-.39,1.02-.26.28-.66.45-1.21.52.2.1.35.19.45.28.22.2.43.45.62.75l.98,1.54h-.94l-.75-1.18c-.22-.34-.4-.6-.54-.78-.14-.18-.27-.31-.38-.38-.11-.07-.23-.12-.34-.15-.08-.02-.22-.03-.42-.03h-.87v2.51h-.75Zm.75-3.16h1.61c.34,0,.61-.04.8-.11.19-.07.34-.18.44-.34.1-.16.15-.33.15-.51,0-.27-.1-.49-.29-.66-.19-.17-.5-.26-.92-.26h-1.79v1.87Z" class="c"/><path d="m106.27,61l.72.09c-.11.42-.32.75-.63.98s-.7.35-1.17.35c-.6,0-1.08-.18-1.43-.55-.35-.37-.53-.89-.53-1.55s.18-1.23.53-1.61c.35-.38.82-.57,1.38-.57s1,.19,1.34.56.52.9.52,1.58c0,.04,0,.1,0,.19h-3.06c.03.45.15.8.38,1.04.23.24.51.36.86.36.25,0,.47-.07.65-.2.18-.13.32-.35.43-.64Zm-2.28-1.12h2.29c-.03-.34-.12-.6-.26-.78-.22-.27-.51-.4-.86-.4-.32,0-.59.11-.8.32-.22.21-.34.5-.36.86Z" class="c"/><path d="m110.47,63.89v-2.01c-.11.15-.26.28-.45.38-.2.1-.4.15-.62.15-.49,0-.91-.19-1.26-.58s-.53-.92-.53-1.6c0-.41.07-.78.21-1.11.14-.33.35-.58.62-.74.27-.17.57-.25.89-.25.51,0,.91.21,1.2.64v-.55h.63v5.67h-.7Zm-2.14-3.63c0,.53.11.92.33,1.19.22.26.49.4.79.4s.55-.13.76-.38.32-.63.32-1.14c0-.55-.11-.96-.34-1.23-.22-.28-.49-.41-.79-.41s-.56.13-.77.38c-.21.26-.31.66-.31,1.2Z" class="c"/><path d="m114.94,62.32v-.6c-.32.46-.75.7-1.3.7-.24,0-.47-.05-.68-.14-.21-.09-.37-.21-.47-.35-.1-.14-.17-.31-.21-.52-.03-.14-.04-.35-.04-.65v-2.54h.7v2.28c0,.36.01.61.04.73.04.18.14.33.28.43s.32.16.53.16.4-.05.59-.16.31-.25.39-.44c.08-.18.11-.45.11-.8v-2.2h.7v4.1h-.62Z" class="c"/><path d="m119.46,61l.72.09c-.11.42-.32.75-.63.98s-.7.35-1.17.35c-.6,0-1.08-.18-1.43-.55-.35-.37-.53-.89-.53-1.55s.18-1.23.53-1.61c.35-.38.82-.57,1.38-.57s1,.19,1.34.56.52.9.52,1.58c0,.04,0,.1,0,.19h-3.06c.03.45.15.8.38,1.04.23.24.51.36.86.36.25,0,.47-.07.65-.2.18-.13.32-.35.43-.64Zm-2.28-1.12h2.29c-.03-.34-.12-.6-.26-.78-.22-.27-.51-.4-.86-.4-.32,0-.59.11-.8.32-.22.21-.34.5-.36.86Z" class="c"/><path d="m120.77,61.09l.69-.11c.04.28.15.49.32.63.18.15.42.22.74.22s.56-.07.71-.2.23-.28.23-.46c0-.16-.07-.28-.21-.37-.1-.06-.33-.14-.71-.24-.51-.13-.86-.24-1.06-.33-.2-.09-.35-.22-.45-.39s-.15-.35-.15-.55c0-.18.04-.35.13-.51.08-.16.2-.29.34-.39.11-.08.26-.15.44-.2.19-.06.39-.08.6-.08.32,0,.6.05.85.14s.42.22.54.38c.12.16.2.37.24.64l-.68.09c-.03-.21-.12-.38-.27-.49-.15-.12-.36-.18-.63-.18-.32,0-.55.05-.68.16-.14.11-.21.23-.21.37,0,.09.03.17.08.24.06.07.15.14.27.18.07.03.27.08.61.18.49.13.83.24,1.03.32.2.08.35.21.46.36.11.16.17.36.17.59s-.07.45-.2.66c-.14.2-.33.36-.59.47s-.54.17-.86.17c-.53,0-.94-.11-1.22-.33s-.46-.55-.54-.99Z" class="c"/><path d="m126.52,61.69l.1.61c-.2.04-.37.06-.52.06-.25,0-.45-.04-.59-.12-.14-.08-.24-.18-.29-.32-.06-.13-.08-.4-.08-.82v-2.36h-.51v-.54h.51v-1.02l.69-.42v1.43h.7v.54h-.7v2.4c0,.2.01.33.04.38.03.06.06.1.12.14.06.03.13.05.24.05.08,0,.18,0,.31-.03Z" class="c"/></g><polygon points="161.18 174.68 161.18 182.18 59.92 182.18 59.92 188.76 40.39 178.43 59.92 168.11 59.92 174.68 161.18 174.68" class="d"/><g><path d="m85.82,190.29v-1.36h-2.46v-.64l2.58-3.67h.57v3.67h.76v.64h-.76v1.36h-.69Zm0-1.99v-2.55l-1.77,2.55h1.77Z" class="c"/><path d="m88.38,190.29v-.79h.79v.79h-.79Z" class="c"/><path d="m92.68,190.29v-5.66h2.51c.5,0,.89.05,1.15.15s.47.28.63.54c.16.26.24.54.24.85,0,.4-.13.74-.39,1.02-.26.28-.66.45-1.21.52.2.1.35.19.45.28.22.2.43.45.62.75l.98,1.54h-.94l-.75-1.18c-.22-.34-.4-.6-.54-.78-.14-.18-.27-.31-.38-.38-.11-.07-.23-.12-.34-.15-.08-.02-.22-.03-.42-.03h-.87v2.51h-.75Zm.75-3.16h1.61c.34,0,.61-.04.8-.11.19-.07.34-.18.44-.34.1-.16.15-.33.15-.51,0-.27-.1-.49-.29-.66-.19-.17-.5-.26-.92-.26h-1.79v1.87Z" class="c"/><path d="m101.1,188.97l.72.09c-.11.42-.32.75-.63.98s-.7.35-1.17.35c-.6,0-1.08-.18-1.43-.55-.35-.37-.53-.89-.53-1.55s.18-1.23.53-1.61c.35-.38.82-.57,1.38-.57s1,.19,1.34.56.52.9.52,1.58c0,.04,0,.1,0,.19h-3.06c.03.45.15.8.38,1.04.23.24.51.36.86.36.25,0,.47-.07.65-.2.18-.13.32-.35.43-.64Zm-2.28-1.12h2.29c-.03-.34-.12-.6-.26-.78-.22-.27-.51-.4-.86-.4-.32,0-.59.11-.8.32-.22.21-.34.5-.36.86Z" class="c"/><path d="m102.41,189.07l.69-.11c.04.28.15.49.32.63.18.15.42.22.74.22s.56-.07.71-.2.23-.28.23-.46c0-.16-.07-.28-.21-.37-.1-.06-.33-.14-.71-.24-.51-.13-.86-.24-1.06-.33-.2-.09-.35-.22-.45-.39s-.15-.35-.15-.55c0-.18.04-.35.13-.51.08-.16.2-.29.34-.39.11-.08.26-.15.44-.2.19-.06.39-.08.6-.08.32,0,.6.05.85.14s.42.22.54.38c.12.16.2.37.24.64l-.68.09c-.03-.21-.12-.38-.27-.49-.15-.12-.36-.18-.63-.18-.32,0-.55.05-.68.16-.14.11-.21.23-.21.37,0,.09.03.17.08.24.06.07.15.14.27.18.07.03.27.08.61.18.49.13.83.24,1.03.32.2.08.35.21.46.36.11.16.17.36.17.59s-.07.45-.2.66c-.14.2-.33.36-.59.47s-.54.17-.86.17c-.53,0-.94-.11-1.22-.33s-.46-.55-.54-.99Z" class="c"/><path d="m106.64,191.87v-5.67h.63v.53c.15-.21.32-.37.51-.47.19-.1.42-.16.68-.16.35,0,.66.09.93.27.27.18.47.43.61.76s.21.69.21,1.08c0,.42-.08.8-.23,1.13s-.37.59-.66.77-.59.27-.91.27c-.23,0-.44-.05-.62-.15-.18-.1-.33-.22-.45-.37v2h-.69Zm.63-3.6c0,.53.11.92.32,1.17.21.25.47.38.78.38s.57-.13.79-.39c.22-.26.33-.67.33-1.21s-.11-.91-.32-1.17c-.21-.26-.47-.39-.77-.39s-.56.14-.79.42c-.23.28-.34.68-.34,1.21Z" class="c"/><path d="m110.78,188.24c0-.76.21-1.32.63-1.69.35-.3.78-.46,1.29-.46.56,0,1.02.18,1.38.55.36.37.54.88.54,1.53,0,.53-.08.94-.24,1.25s-.39.54-.69.71-.63.25-.99.25c-.57,0-1.04-.18-1.39-.55-.35-.37-.53-.9-.53-1.59Zm.71,0c0,.53.11.92.34,1.18.23.26.52.39.87.39s.63-.13.86-.39c.23-.26.34-.66.34-1.2,0-.51-.12-.89-.35-1.15-.23-.26-.52-.39-.86-.39s-.64.13-.87.39-.34.65-.34,1.18Z" class="c"/><path d="m115.44,190.29v-4.1h.62v.58c.3-.45.74-.68,1.31-.68.25,0,.47.04.68.13.21.09.36.21.46.35.1.14.17.32.22.51.03.13.04.35.04.68v2.52h-.7v-2.5c0-.28-.03-.49-.08-.63-.05-.14-.15-.25-.29-.34s-.3-.13-.48-.13c-.3,0-.55.09-.77.28-.22.19-.32.54-.32,1.07v2.24h-.69Z" class="c"/><path d="m119.56,189.07l.69-.11c.04.28.15.49.32.63.18.15.42.22.74.22s.56-.07.71-.2.23-.28.23-.46c0-.16-.07-.28-.21-.37-.09-.06-.33-.14-.71-.24-.51-.13-.86-.24-1.06-.33-.2-.09-.35-.22-.45-.39s-.15-.35-.15-.55c0-.18.04-.35.12-.51.08-.16.2-.29.34-.39.11-.08.26-.15.44-.2.19-.06.39-.08.6-.08.32,0,.6.05.85.14s.42.22.54.38c.12.16.2.37.24.64l-.68.09c-.03-.21-.12-.38-.27-.49-.15-.12-.36-.18-.63-.18-.32,0-.55.05-.68.16s-.2.23-.2.37c0,.09.03.17.08.24.06.07.14.14.27.18.07.03.27.08.61.18.49.13.83.24,1.03.32.19.08.35.21.46.36.11.16.17.36.17.59s-.07.45-.2.66c-.13.2-.33.36-.58.47s-.54.17-.87.17c-.53,0-.94-.11-1.22-.33-.28-.22-.46-.55-.54-.99Z" class="c"/><path d="m126.6,188.97l.72.09c-.11.42-.32.75-.63.98-.31.23-.7.35-1.17.35-.6,0-1.08-.18-1.43-.55-.35-.37-.53-.89-.53-1.55s.18-1.23.53-1.61.82-.57,1.38-.57,1,.19,1.34.56.52.9.52,1.58c0,.04,0,.1,0,.19h-3.06c.03.45.15.8.38,1.04.23.24.52.36.86.36.25,0,.47-.07.65-.2.18-.13.32-.35.43-.64Zm-2.28-1.12h2.29c-.03-.34-.12-.6-.26-.78-.22-.27-.51-.4-.86-.4-.32,0-.59.11-.81.32s-.34.5-.36.86Z" class="c"/></g><path d="m174.48,16.66h189.81c.85,0,1.69.08,2.52.25.83.17,1.64.41,2.43.74.79.33,1.53.72,2.24,1.2.71.47,1.36,1.01,1.96,1.61.6.6,1.14,1.25,1.61,1.96.47.71.87,1.45,1.2,2.24.33.79.57,1.59.74,2.43.17.83.25,1.68.25,2.52v189.81c0,.85-.08,1.69-.25,2.52-.17.83-.41,1.64-.74,2.43s-.72,1.53-1.2,2.24c-.47.71-1.01,1.36-1.61,1.96-.6.6-1.25,1.14-1.96,1.61-.71.47-1.45.87-2.24,1.2-.79.33-1.59.57-2.43.74-.83.17-1.68.25-2.52.25h-189.81c-.85,0-1.69-.08-2.52-.25-.83-.17-1.64-.41-2.43-.74-.79-.33-1.53-.72-2.24-1.2-.71-.47-1.36-1.01-1.96-1.61-.6-.6-1.14-1.25-1.61-1.96-.47-.71-.87-1.45-1.2-2.24s-.57-1.59-.74-2.43c-.17-.83-.25-1.68-.25-2.52V29.6c0-.85.08-1.69.25-2.52.17-.83.41-1.64.74-2.43.33-.79.72-1.53,1.2-2.24.47-.71,1.01-1.36,1.61-1.96.6-.6,1.25-1.14,1.96-1.61.71-.47,1.45-.87,2.24-1.2.79-.33,1.59-.57,2.43-.74.83-.17,1.68-.25,2.52-.25Z" class="e"/><path d="m174.48,16.66h189.81c.85,0,1.69.08,2.52.25.83.17,1.64.41,2.43.74.79.33,1.53.72,2.24,1.2.71.47,1.36,1.01,1.96,1.61.6.6,1.14,1.25,1.61,1.96.47.71.87,1.45,1.2,2.24.33.79.57,1.59.74,2.43.17.83.25,1.68.25,2.52v189.81c0,.85-.08,1.69-.25,2.52-.17.83-.41,1.64-.74,2.43s-.72,1.53-1.2,2.24c-.47.71-1.01,1.36-1.61,1.96-.6.6-1.25,1.14-1.96,1.61-.71.47-1.45.87-2.24,1.2-.79.33-1.59.57-2.43.74-.83.17-1.68.25-2.52.25h-189.81c-.85,0-1.69-.08-2.52-.25-.83-.17-1.64-.41-2.43-.74-.79-.33-1.53-.72-2.24-1.2-.71-.47-1.36-1.01-1.96-1.61-.6-.6-1.14-1.25-1.61-1.96-.47-.71-.87-1.45-1.2-2.24s-.57-1.59-.74-2.43c-.17-.83-.25-1.68-.25-2.52V29.6c0-.85.08-1.69.25-2.52.17-.83.41-1.64.74-2.43.33-.79.72-1.53,1.2-2.24.47-.71,1.01-1.36,1.61-1.96.6-.6,1.25-1.14,1.96-1.61.71-.47,1.45-.87,2.24-1.2.79-.33,1.59-.57,2.43-.74.83-.17,1.68-.25,2.52-.25Z" class="h"/><g><path d="m247.91,36.43l2.37-6.18h.88l2.53,6.18h-.93l-.72-1.87h-2.58l-.68,1.87h-.87Zm1.78-2.54h2.09l-.64-1.71c-.2-.52-.34-.95-.44-1.28-.08.4-.19.79-.33,1.18l-.68,1.81Z" class="c"/><path d="m254.24,38.15v-6.19h.69v.58c.16-.23.35-.4.55-.51.21-.11.45-.17.75-.17.38,0,.72.1,1.01.29.29.2.51.47.66.83.15.36.22.75.22,1.18,0,.46-.08.87-.25,1.24s-.4.65-.72.84c-.31.2-.64.29-.99.29-.25,0-.48-.05-.68-.16-.2-.11-.37-.24-.49-.41v2.18h-.76Zm.69-3.93c0,.58.12,1,.35,1.28.23.28.52.41.85.41s.63-.14.87-.43.36-.73.36-1.32-.12-1-.35-1.28c-.24-.28-.52-.43-.84-.43s-.61.15-.86.45c-.25.3-.37.74-.37,1.32Z" class="c"/><path d="m259.04,38.15v-6.19h.69v.58c.16-.23.35-.4.55-.51.21-.11.45-.17.75-.17.38,0,.72.1,1.01.29s.51.47.66.83c.15.36.22.75.22,1.18,0,.46-.08.87-.25,1.24-.17.37-.4.65-.72.84-.31.2-.64.29-.99.29-.25,0-.48-.05-.68-.16-.2-.11-.37-.24-.5-.41v2.18h-.76Zm.69-3.93c0,.58.12,1,.35,1.28.23.28.52.41.85.41s.63-.14.87-.43c.24-.29.36-.73.36-1.32s-.12-1-.35-1.28c-.23-.28-.51-.43-.84-.43s-.61.15-.86.45c-.25.3-.37.74-.37,1.32Z" class="c"/><path d="m263.82,36.43v-6.18h.76v6.18h-.76Z" class="c"/><path d="m265.76,31.13v-.87h.76v.87h-.76Zm0,5.3v-4.47h.76v4.47h-.76Z" class="c"/><path d="m270.59,34.79l.75.1c-.08.51-.29.92-.63,1.21s-.75.44-1.24.44c-.61,0-1.1-.2-1.48-.6s-.56-.97-.56-1.72c0-.48.08-.91.24-1.27s.4-.63.73-.82c.33-.18.68-.27,1.07-.27.49,0,.88.12,1.19.37.31.25.51.59.59,1.05l-.74.11c-.07-.3-.19-.53-.37-.68-.18-.15-.39-.23-.65-.23-.38,0-.69.14-.93.41-.24.27-.36.71-.36,1.3s.12,1.04.35,1.31.53.41.9.41c.3,0,.55-.09.75-.27s.33-.46.38-.84Z" class="c"/><path d="m274.91,35.88c-.28.24-.55.41-.81.51-.26.1-.54.15-.84.15-.49,0-.87-.12-1.13-.36-.26-.24-.4-.55-.4-.92,0-.22.05-.42.15-.6.1-.18.23-.33.39-.44.16-.11.34-.19.55-.25.15-.04.37-.08.67-.11.61-.07,1.06-.16,1.35-.26,0-.1,0-.17,0-.2,0-.31-.07-.53-.21-.65-.19-.17-.48-.26-.86-.26-.36,0-.62.06-.79.19s-.3.35-.38.66l-.74-.1c.07-.32.18-.57.33-.77.16-.2.38-.35.67-.45s.63-.16,1.02-.16.69.04.93.13c.24.09.42.2.53.34.11.14.19.31.24.52.03.13.04.36.04.7v1.01c0,.71.02,1.15.05,1.34s.1.37.19.54h-.79c-.08-.16-.13-.34-.15-.55Zm-.06-1.69c-.28.11-.69.21-1.24.29-.31.04-.53.1-.66.15-.13.06-.23.14-.3.25-.07.11-.11.23-.11.36,0,.2.08.37.23.5.15.13.38.2.67.2s.55-.06.78-.19c.23-.13.39-.3.5-.52.08-.17.12-.42.12-.76v-.28Z" class="c"/><path d="m278.44,35.75l.11.67c-.21.04-.4.07-.57.07-.27,0-.49-.04-.64-.13-.15-.09-.26-.2-.32-.34s-.09-.44-.09-.9v-2.57h-.56v-.59h.56v-1.11l.75-.46v1.56h.76v.59h-.76v2.62c0,.22.01.35.04.42.03.06.07.11.13.15.06.04.15.05.26.05.08,0,.2,0,.33-.03Z" class="c"/><path d="m279.19,31.13v-.87h.76v.87h-.76Zm0,5.3v-4.47h.76v4.47h-.76Z" class="c"/><path d="m280.82,34.2c0-.83.23-1.44.69-1.84.38-.33.85-.5,1.41-.5.62,0,1.12.2,1.51.6.39.4.58.96.58,1.67,0,.58-.09,1.03-.26,1.36s-.42.59-.75.77-.69.27-1.08.27c-.63,0-1.13-.2-1.52-.6-.39-.4-.58-.98-.58-1.74Zm.78,0c0,.57.12,1,.38,1.29s.56.43.94.43.69-.14.94-.43.38-.72.38-1.31c0-.55-.12-.97-.38-1.26-.25-.29-.56-.43-.94-.43s-.69.14-.94.43c-.25.28-.38.71-.38,1.28Z" class="c"/><path d="m285.9,36.43v-4.47h.68v.64c.33-.49.8-.74,1.42-.74.27,0,.52.05.74.15.23.1.4.22.51.38s.19.34.24.56c.03.14.04.39.04.74v2.75h-.76v-2.72c0-.31-.03-.54-.09-.69-.06-.15-.16-.28-.31-.37-.15-.09-.33-.14-.53-.14-.32,0-.6.1-.84.31s-.35.59-.35,1.17v2.44h-.76Z" class="c"/></g><path d="m188.29,130.26h162.2c.34,0,.68.03,1.01.1.33.07.66.16.97.29.31.13.61.29.89.48.28.19.54.4.78.64s.45.5.64.78c.19.28.35.58.48.9.13.31.23.64.29.97.07.33.1.67.1,1.01v75.92c0,.34-.03.68-.1,1.01-.07.33-.16.66-.29.97-.13.31-.29.61-.48.89-.19.28-.4.54-.64.78-.24.24-.5.45-.78.64-.28.19-.58.35-.89.48-.31.13-.64.23-.97.29-.33.07-.67.1-1.01.1h-162.2c-.34,0-.68-.03-1.01-.1-.33-.07-.66-.16-.97-.29-.31-.13-.61-.29-.89-.48-.28-.19-.54-.4-.78-.64-.24-.24-.45-.5-.64-.78-.19-.28-.35-.58-.48-.9-.13-.31-.23-.64-.29-.97-.07-.33-.1-.67-.1-1.01v-75.92c0-.34.03-.68.1-1.01.07-.33.16-.66.29-.97.13-.31.29-.61.48-.9.19-.28.4-.54.64-.78.24-.24.5-.45.78-.64.28-.19.58-.35.89-.48.31-.13.64-.23.97-.29.33-.07.67-.1,1.01-.1Z" class="k"/><path d="m188.29,130.26h162.2c.34,0,.68.03,1.01.1.33.07.66.16.97.29.31.13.61.29.89.48.28.19.54.4.78.64s.45.5.64.78c.19.28.35.58.48.9.13.31.23.64.29.97.07.33.1.67.1,1.01v75.92c0,.34-.03.68-.1,1.01-.07.33-.16.66-.29.97-.13.31-.29.61-.48.89-.19.28-.4.54-.64.78-.24.24-.5.45-.78.64-.28.19-.58.35-.89.48-.31.13-.64.23-.97.29-.33.07-.67.1-1.01.1h-162.2c-.34,0-.68-.03-1.01-.1-.33-.07-.66-.16-.97-.29-.31-.13-.61-.29-.89-.48-.28-.19-.54-.4-.78-.64-.24-.24-.45-.5-.64-.78-.19-.28-.35-.58-.48-.9-.13-.31-.23-.64-.29-.97-.07-.33-.1-.67-.1-1.01v-75.92c0-.34.03-.68.1-1.01.07-.33.16-.66.29-.97.13-.31.29-.61.48-.9.19-.28.4-.54.64-.78.24-.24.5-.45.78-.64.28-.19.58-.35.89-.48.31-.13.64-.23.97-.29.33-.07.67-.1,1.01-.1Z" class="h"/><g><path d="m258.38,173.93l.77-.07c.04.31.12.56.25.76.13.2.34.36.62.48.28.12.6.18.95.18.31,0,.59-.05.83-.14.24-.09.42-.22.53-.38.12-.16.17-.34.17-.53s-.06-.36-.17-.51-.3-.27-.56-.36c-.17-.06-.53-.17-1.1-.3-.57-.14-.96-.26-1.19-.39-.29-.15-.51-.35-.66-.58-.14-.23-.22-.49-.22-.77,0-.31.09-.6.26-.87.18-.27.44-.48.78-.62s.72-.21,1.13-.21c.46,0,.86.07,1.21.22s.62.36.81.65.29.61.3.97l-.78.06c-.04-.39-.18-.69-.43-.88-.24-.2-.6-.3-1.08-.3s-.85.09-1.08.27c-.23.18-.34.4-.34.66,0,.22.08.4.24.55.16.14.57.29,1.23.44.66.15,1.12.28,1.37.39.36.17.62.38.8.63.17.25.26.55.26.88s-.09.64-.28.93c-.19.29-.46.52-.81.68-.35.16-.75.24-1.19.24-.56,0-1.03-.08-1.4-.24-.38-.16-.67-.41-.89-.74s-.33-.7-.34-1.11Z" class="c"/><path d="m264.42,175.91v-6.18h2.13c.48,0,.85.03,1.1.09.35.08.66.23.91.44.33.28.57.63.73,1.06.16.43.24.92.24,1.47,0,.47-.05.88-.17,1.25-.11.36-.25.66-.42.9s-.36.42-.56.56c-.2.14-.45.24-.74.31s-.62.11-.99.11h-2.23Zm.82-.73h1.32c.41,0,.73-.04.96-.11.23-.08.42-.18.55-.32.19-.19.34-.45.45-.78s.16-.72.16-1.19c0-.65-.11-1.14-.32-1.49-.21-.35-.47-.58-.77-.7-.22-.08-.57-.13-1.06-.13h-1.3v4.72Z" class="c"/><path d="m270.61,175.91v-6.18h.82v3.06l3.07-3.06h1.11l-2.59,2.5,2.71,3.67h-1.08l-2.2-3.13-1.01.99v2.14h-.82Z" class="c"/><path d="m276,174.58l.75-.12c.04.3.16.53.35.69s.46.24.81.24.61-.07.77-.21c.17-.14.25-.31.25-.5,0-.17-.07-.31-.22-.4-.1-.07-.36-.15-.78-.26-.56-.14-.94-.26-1.16-.36s-.38-.25-.49-.43c-.11-.18-.17-.38-.17-.6,0-.2.05-.38.14-.55.09-.17.22-.31.37-.42.12-.09.28-.16.48-.22.2-.06.42-.09.66-.09.35,0,.66.05.92.15.26.1.46.24.59.41.13.17.21.4.26.69l-.74.1c-.03-.23-.13-.41-.29-.54-.16-.13-.39-.19-.68-.19-.35,0-.6.06-.75.17-.15.12-.22.25-.22.41,0,.1.03.19.09.26.06.08.16.15.29.2.08.03.3.09.67.19.54.14.91.26,1.12.35.21.09.38.22.5.4.12.17.18.39.18.65s-.07.49-.22.71c-.15.22-.36.4-.64.52-.28.12-.59.18-.94.18-.58,0-1.02-.12-1.33-.36-.3-.24-.5-.6-.58-1.07Z" class="c"/></g><line x1="226.25" x2="226.25" y1="292.48" y2="216.54" class="g"/><polygon points="226.25 296.26 223.73 291.22 226.25 292.48 228.77 291.22 226.25 296.26" class="l"/><polygon points="226.25 296.26 223.73 291.22 226.25 292.48 228.77 291.22 226.25 296.26" class="g"/><rect width="53.2" height="9.35" x="200.01" y="252.13" class="f"/><g><path d="m203.64,258.65v.67h-3.74c0-.17.02-.33.08-.48.1-.25.25-.51.46-.75s.51-.53.91-.86c.62-.5,1.03-.9,1.25-1.2.22-.29.32-.57.32-.84s-.1-.51-.3-.7c-.2-.19-.45-.28-.77-.28-.33,0-.6.1-.8.3-.2.2-.3.48-.31.83l-.71-.07c.05-.53.23-.94.55-1.22s.75-.42,1.29-.42.97.15,1.29.45c.32.3.47.67.47,1.12,0,.23-.05.45-.14.67s-.25.45-.46.69c-.21.24-.57.57-1.07,1-.42.35-.68.59-.8.71-.12.12-.22.25-.29.38h2.78Z" class="c"/><path d="m204.78,259.32v-.79h.79v.79h-.79Z" class="c"/><path d="m209.1,259.32v-5.66h3.82v.67h-3.07v1.75h2.66v.67h-2.66v2.57h-.75Z" class="c"/><path d="m213.79,259.32v-5.66h.7v5.66h-.7Z" class="c"/><path d="m215.3,257.26c0-.76.21-1.32.63-1.69.35-.3.78-.46,1.29-.46.56,0,1.03.18,1.38.55s.54.88.54,1.53c0,.53-.08.94-.24,1.25-.16.3-.39.54-.69.71-.3.17-.63.25-.99.25-.57,0-1.04-.18-1.39-.55-.35-.37-.53-.9-.53-1.59Zm.71,0c0,.53.11.92.34,1.18.23.26.52.39.86.39s.63-.13.86-.39c.23-.26.34-.66.34-1.2,0-.51-.12-.89-.35-1.15-.23-.26-.52-.39-.86-.39s-.64.13-.86.39c-.23.26-.34.65-.34,1.18Z" class="c"/><path d="m220.72,259.32l-1.25-4.1h.72l.65,2.37.24.88s.08-.33.21-.85l.65-2.4h.71l.61,2.38.21.78.24-.79.7-2.37h.68l-1.28,4.1h-.72l-.65-2.46-.16-.7-.83,3.16h-.73Z" class="c"/><path d="m232,257.33l.75.19c-.16.62-.44,1.08-.85,1.41-.41.32-.91.48-1.5.48s-1.11-.12-1.49-.37c-.38-.25-.67-.61-.87-1.08-.2-.47-.3-.98-.3-1.52,0-.59.11-1.1.34-1.54.23-.44.55-.77.96-1,.42-.23.87-.34,1.37-.34.57,0,1.04.14,1.43.43.39.29.66.69.81,1.22l-.74.17c-.13-.41-.32-.71-.57-.9-.25-.19-.56-.28-.94-.28-.44,0-.8.1-1.09.31-.29.21-.5.49-.62.84s-.18.71-.18,1.09c0,.48.07.9.21,1.26.14.36.36.63.66.81.3.18.62.27.96.27.42,0,.78-.12,1.07-.36s.49-.6.59-1.08Z" class="c"/><path d="m233.32,257.26c0-.76.21-1.32.63-1.69.35-.3.78-.46,1.29-.46.56,0,1.03.18,1.38.55s.54.88.54,1.53c0,.53-.08.94-.24,1.25-.16.3-.39.54-.69.71-.3.17-.63.25-.99.25-.57,0-1.04-.18-1.39-.55-.35-.37-.53-.9-.53-1.59Zm.71,0c0,.53.11.92.34,1.18.23.26.52.39.86.39s.63-.13.86-.39c.23-.26.34-.66.34-1.2,0-.51-.12-.89-.35-1.15-.23-.26-.52-.39-.86-.39s-.64.13-.86.39c-.23.26-.34.65-.34,1.18Z" class="c"/><path d="m237.98,259.32v-4.1h.63v.58c.3-.45.74-.68,1.3-.68.25,0,.47.04.68.13s.36.21.47.35c.1.14.17.32.22.51.03.13.04.35.04.68v2.52h-.7v-2.5c0-.28-.03-.49-.08-.63s-.15-.25-.29-.34-.3-.13-.48-.13c-.3,0-.55.09-.77.28-.21.19-.32.54-.32,1.07v2.24h-.7Z" class="c"/><path d="m243.89,258.69l.1.61c-.2.04-.37.06-.53.06-.25,0-.45-.04-.59-.12-.14-.08-.24-.18-.29-.32-.06-.13-.08-.4-.08-.82v-2.36h-.51v-.54h.51v-1.02l.69-.42v1.43h.7v.54h-.7v2.4c0,.2.01.33.04.38s.06.1.12.14c.05.03.13.05.24.05.08,0,.18,0,.3-.03Z" class="c"/><path d="m244.57,259.32v-4.1h.63v.62c.16-.29.31-.48.44-.58.13-.09.28-.14.45-.14.23,0,.47.07.71.22l-.24.64c-.17-.1-.34-.15-.51-.15-.15,0-.29.05-.41.14-.12.09-.21.22-.26.38-.08.25-.12.52-.12.81v2.15h-.7Z" class="c"/><path d="m246.95,257.26c0-.76.21-1.32.63-1.69.35-.3.78-.46,1.29-.46.56,0,1.03.18,1.38.55s.54.88.54,1.53c0,.53-.08.94-.24,1.25-.16.3-.39.54-.69.71-.3.17-.63.25-.99.25-.57,0-1.04-.18-1.39-.55-.35-.37-.53-.9-.53-1.59Zm.71,0c0,.53.11.92.34,1.18.23.26.52.39.86.39s.63-.13.86-.39c.23-.26.34-.66.34-1.2,0-.51-.12-.89-.35-1.15-.23-.26-.52-.39-.86-.39s-.64.13-.86.39c-.23.26-.34.65-.34,1.18Z" class="c"/><path d="m251.59,259.32v-5.66h.7v5.66h-.7Z" class="c"/></g><line x1="312.53" x2="312.53" y1="221.12" y2="297.06" class="g"/><polygon points="312.53 217.34 315.04 222.37 312.53 221.12 310.01 222.37 312.53 217.34" class="l"/><polygon points="312.53 217.34 315.04 222.37 312.53 221.12 310.01 222.37 312.53 217.34" class="g"/><rect width="62.55" height="9.35" x="281.25" y="252.13" class="f"/><g><path d="m281.88,257.82l.7-.09c.08.39.21.68.41.85.19.17.42.26.7.26.33,0,.6-.11.83-.34.22-.23.34-.51.34-.84s-.1-.58-.31-.79c-.21-.21-.47-.31-.79-.31-.13,0-.29.03-.49.08l.08-.61s.08,0,.11,0c.3,0,.56-.08.8-.23.24-.16.36-.39.36-.71,0-.25-.09-.47-.26-.63-.17-.17-.4-.25-.67-.25s-.5.08-.68.25c-.18.17-.3.42-.35.76l-.7-.12c.08-.47.28-.83.58-1.08.3-.26.68-.38,1.12-.38.31,0,.59.07.85.2.26.13.46.31.6.54.14.23.21.47.21.73,0,.24-.07.47-.2.67-.13.2-.33.36-.58.48.33.08.59.24.78.48.19.24.28.55.28.91,0,.49-.18.91-.54,1.26s-.82.52-1.37.52c-.5,0-.91-.15-1.24-.44s-.52-.68-.56-1.15Z" class="c"/><path d="m286.66,259.32v-.79h.79v.79h-.79Z" class="c"/><path d="m290.98,259.32v-5.66h3.82v.67h-3.07v1.75h2.66v.67h-2.66v2.57h-.75Z" class="c"/><path d="m295.67,259.32v-5.66h.7v5.66h-.7Z" class="c"/><path d="m297.19,257.26c0-.76.21-1.32.63-1.69.35-.3.78-.46,1.29-.46.56,0,1.02.18,1.38.55.36.37.54.88.54,1.53,0,.53-.08.94-.24,1.25s-.39.54-.69.71-.63.25-.99.25c-.57,0-1.04-.18-1.39-.55-.35-.37-.53-.9-.53-1.59Zm.71,0c0,.53.11.92.34,1.18.23.26.52.39.87.39s.63-.13.86-.39c.23-.26.34-.66.34-1.2,0-.51-.12-.89-.35-1.15-.23-.26-.52-.39-.86-.39s-.64.13-.87.39-.34.65-.34,1.18Z" class="c"/><path d="m302.6,259.32l-1.26-4.1h.72l.65,2.37.24.88s.08-.33.21-.85l.65-2.4h.71l.61,2.38.21.78.24-.79.7-2.37h.68l-1.28,4.1h-.72l-.65-2.46-.16-.7-.83,3.16h-.73Z" class="c"/><path d="m309.84,259.32v-5.66h1.95c.44,0,.78.03,1.01.08.32.07.6.21.83.41.3.25.52.58.67.97.15.39.22.84.22,1.35,0,.43-.05.81-.15,1.14-.1.33-.23.61-.39.83-.16.22-.33.39-.52.51-.19.12-.41.22-.68.28s-.57.1-.91.1h-2.04Zm.75-.67h1.21c.37,0,.67-.04.88-.1.21-.07.38-.17.51-.29.18-.18.32-.42.42-.72.1-.3.15-.66.15-1.09,0-.59-.1-1.05-.29-1.37-.19-.32-.43-.53-.71-.64-.2-.08-.52-.12-.97-.12h-1.19v4.33Z" class="c"/><path d="m318.27,258l.72.09c-.11.42-.32.75-.63.98-.31.23-.7.35-1.17.35-.6,0-1.08-.18-1.43-.55-.35-.37-.53-.89-.53-1.55s.18-1.23.53-1.61.82-.57,1.38-.57,1,.19,1.34.56.52.9.52,1.58c0,.04,0,.1,0,.19h-3.06c.03.45.15.8.38,1.04.23.24.52.36.86.36.25,0,.47-.07.65-.2.18-.13.32-.35.43-.64Zm-2.28-1.12h2.29c-.03-.34-.12-.6-.26-.78-.22-.27-.51-.4-.86-.4-.32,0-.59.11-.81.32s-.34.5-.36.86Z" class="c"/><path d="m322.54,257.81l.68.09c-.08.47-.27.84-.57,1.11-.31.27-.69.4-1.13.4-.56,0-1.01-.18-1.35-.55-.34-.37-.51-.89-.51-1.58,0-.44.07-.83.22-1.16.15-.33.37-.58.67-.75.3-.17.63-.25.98-.25.45,0,.81.11,1.09.34.28.22.46.54.54.96l-.68.1c-.06-.28-.18-.48-.34-.62-.16-.14-.36-.21-.59-.21-.35,0-.63.12-.85.38s-.33.65-.33,1.19.11.95.32,1.2.49.38.83.38c.27,0,.5-.08.68-.25.18-.17.3-.42.35-.77Z" class="c"/><path d="m323.82,254.45v-.8h.7v.8h-.7Zm0,4.86v-4.1h.7v4.1h-.7Z" class="c"/><path d="m325.29,258.09l.69-.11c.04.28.15.49.32.63.18.15.42.22.74.22s.56-.07.71-.2.23-.28.23-.46c0-.16-.07-.28-.21-.37-.1-.06-.33-.14-.71-.24-.51-.13-.86-.24-1.06-.33-.2-.09-.35-.22-.45-.39s-.15-.35-.15-.55c0-.18.04-.35.13-.51.08-.16.2-.29.34-.39.11-.08.26-.15.44-.2.19-.06.39-.08.6-.08.32,0,.6.05.85.14s.42.22.54.38c.12.16.2.37.24.64l-.68.09c-.03-.21-.12-.38-.27-.49-.15-.12-.36-.18-.63-.18-.32,0-.55.05-.68.16-.14.11-.21.23-.21.37,0,.09.03.17.08.24.06.07.15.14.27.18.07.03.27.08.61.18.49.13.83.24,1.03.32.2.08.35.21.46.36.11.16.17.36.17.59s-.07.45-.2.66c-.14.2-.33.36-.59.47s-.54.17-.86.17c-.53,0-.94-.11-1.22-.33s-.46-.55-.54-.99Z" class="c"/><path d="m329.53,254.45v-.8h.69v.8h-.69Zm0,4.86v-4.1h.69v4.1h-.69Z" class="c"/><path d="m331.03,257.26c0-.76.21-1.32.63-1.69.35-.3.78-.46,1.29-.46.56,0,1.02.18,1.38.55.36.37.54.88.54,1.53,0,.53-.08.94-.24,1.25s-.39.54-.69.71-.63.25-.99.25c-.57,0-1.04-.18-1.39-.55-.35-.37-.53-.9-.53-1.59Zm.71,0c0,.53.11.92.34,1.18.23.26.52.39.87.39s.63-.13.86-.39c.23-.26.34-.66.34-1.2,0-.51-.12-.89-.35-1.15-.23-.26-.52-.39-.86-.39s-.64.13-.87.39-.34.65-.34,1.18Z" class="c"/><path d="m335.68,259.32v-4.1h.62v.58c.3-.45.74-.68,1.31-.68.25,0,.47.04.68.13.21.09.36.21.46.35.1.14.17.32.22.51.03.13.04.35.04.68v2.52h-.7v-2.5c0-.28-.03-.49-.08-.63-.05-.14-.15-.25-.29-.34s-.3-.13-.48-.13c-.3,0-.55.09-.77.28-.22.19-.32.54-.32,1.07v2.24h-.69Z" class="c"/><path d="m339.8,258.09l.69-.11c.04.28.15.49.32.63.18.15.42.22.74.22s.56-.07.71-.2.23-.28.23-.46c0-.16-.07-.28-.21-.37-.09-.06-.33-.14-.71-.24-.51-.13-.86-.24-1.06-.33-.2-.09-.35-.22-.45-.39s-.15-.35-.15-.55c0-.18.04-.35.12-.51.08-.16.2-.29.34-.39.11-.08.26-.15.44-.2.19-.06.39-.08.6-.08.32,0,.6.05.85.14s.42.22.54.38c.12.16.2.37.24.64l-.68.09c-.03-.21-.12-.38-.27-.49-.15-.12-.36-.18-.63-.18-.32,0-.55.05-.68.16s-.2.23-.2.37c0,.09.03.17.08.24.06.07.14.14.27.18.07.03.27.08.61.18.49.13.83.24,1.03.32.19.08.35.21.46.36.11.16.17.36.17.59s-.07.45-.2.66c-.13.2-.33.36-.58.47s-.54.17-.87.17c-.53,0-.94-.11-1.22-.33-.28-.22-.46-.55-.54-.99Z" class="c"/></g></g></g></svg>