<?xml version="1.0" encoding="UTF-8" standalone="no"?>
<!DOCTYPE svg PUBLIC "-//W3C//DTD SVG 1.1//EN"
 "http://www.w3.org/Graphics/SVG/1.1/DTD/svg11.dtd">
<!-- Generated by graphviz version 6.0.1 (20220911.1526)
 -->
<!-- Pages: 1 -->
<svg width="4053pt" height="2694pt"
 viewBox="0.00 0.00 4052.90 2694.00" xmlns="http://www.w3.org/2000/svg" xmlns:xlink="http://www.w3.org/1999/xlink">
<g id="graph0" class="graph" transform="scale(1 1) rotate(0) translate(4 2690)">
<polygon fill="white" stroke="none" points="-4,4 -4,-2690 4048.9,-2690 4048.9,4 -4,4"/>
<g id="clust1" class="cluster">
<title>cluster_s27</title>
<polygon fill="none" stroke="black" points="1853.55,-1672 1853.55,-1885 2355.04,-1885 2355.04,-1672 1853.55,-1672"/>
<text text-anchor="middle" x="2104.29" y="-1869.8" font-family="Times,serif" font-size="14.00">ArithmeticCombinator (10)</text>
</g>
<g id="clust4" class="cluster">
<title>cluster_s31</title>
<polygon fill="none" stroke="black" points="1853.55,-2114 1853.55,-2327 2355.04,-2327 2355.04,-2114 1853.55,-2114"/>
<text text-anchor="middle" x="2104.29" y="-2311.8" font-family="Times,serif" font-size="14.00">ArithmeticCombinator (11)</text>
</g>
<g id="clust7" class="cluster">
<title>cluster_s35</title>
<polygon fill="none" stroke="black" points="1853.55,-900 1853.55,-1113 2355.04,-1113 2355.04,-900 1853.55,-900"/>
<text text-anchor="middle" x="2104.29" y="-1097.8" font-family="Times,serif" font-size="14.00">ArithmeticCombinator (12)</text>
</g>
<g id="clust10" class="cluster">
<title>cluster_s39</title>
<polygon fill="none" stroke="black" points="2703.13,-121 2703.13,-334 3302.42,-334 3302.42,-121 2703.13,-121"/>
<text text-anchor="middle" x="3002.78" y="-318.8" font-family="Times,serif" font-size="14.00">ArithmeticCombinator (13)</text>
</g>
<g id="clust13" class="cluster">
<title>cluster_s43</title>
<polygon fill="none" stroke="black" points="3704.56,-303 3704.56,-516 4036.9,-516 4036.9,-303 3704.56,-303"/>
<text text-anchor="middle" x="3870.73" y="-500.8" font-family="Times,serif" font-size="14.00">ArithmeticCombinator (14)</text>
</g>
<g id="clust16" class="cluster">
<title>cluster_s15</title>
<polygon fill="none" stroke="black" points="392.19,-1005 392.19,-1218 735.39,-1218 735.39,-1005 392.19,-1005"/>
<text text-anchor="middle" x="563.79" y="-1202.8" font-family="Times,serif" font-size="14.00">ArithmeticCombinator (7)</text>
</g>
<g id="clust19" class="cluster">
<title>cluster_s19</title>
<polygon fill="none" stroke="black" points="1853.55,-1288 1853.55,-1501 2355.04,-1501 2355.04,-1288 1853.55,-1288"/>
<text text-anchor="middle" x="2104.29" y="-1485.8" font-family="Times,serif" font-size="14.00">ArithmeticCombinator (8)</text>
</g>
<g id="clust22" class="cluster">
<title>cluster_s23</title>
<polygon fill="none" stroke="black" points="1853.55,-1893 1853.55,-2106 2355.04,-2106 2355.04,-1893 1853.55,-1893"/>
<text text-anchor="middle" x="2104.29" y="-2090.8" font-family="Times,serif" font-size="14.00">ArithmeticCombinator (9)</text>
</g>
<g id="clust25" class="cluster">
<title>cluster_s69</title>
<polygon fill="none" stroke="black" points="1125.47,-1431 1125.47,-1976 1554.25,-1976 1554.25,-1431 1125.47,-1431"/>
<text text-anchor="middle" x="1339.86" y="-1960.8" font-family="Times,serif" font-size="14.00">ConcurrencyLimiter (21)</text>
</g>
<g id="clust26" class="cluster">
<title>cluster_s73</title>
<polygon fill="none" stroke="black" points="1181.47,-1481 1181.47,-1640 1499.25,-1640 1499.25,-1481 1181.47,-1481"/>
<text text-anchor="middle" x="1340.36" y="-1624.8" font-family="Times,serif" font-size="14.00">LoadShedActuator (21.LoadShedActuator)</text>
</g>
<g id="clust28" class="cluster">
<title>cluster_s70</title>
<polygon fill="none" stroke="black" points="1175.47,-1690 1175.47,-1903 1504.25,-1903 1504.25,-1690 1175.47,-1690"/>
<text text-anchor="middle" x="1339.86" y="-1887.8" font-family="Times,serif" font-size="14.00">Scheduler (21.Scheduler)</text>
</g>
<g id="clust30" class="cluster">
<title>cluster_s1</title>
<polygon fill="none" stroke="black" points="8,-2352 8,-2511 191.19,-2511 191.19,-2352 8,-2352"/>
<text text-anchor="middle" x="99.6" y="-2495.8" font-family="Times,serif" font-size="14.00">Constant (0)</text>
</g>
<g id="clust32" class="cluster">
<title>cluster_s3</title>
<polygon fill="none" stroke="black" points="1248.27,-2168 1248.27,-2327 1431.46,-2327 1431.46,-2168 1248.27,-2168"/>
<text text-anchor="middle" x="1339.86" y="-2311.8" font-family="Times,serif" font-size="14.00">Constant (1)</text>
</g>
<g id="clust34" class="cluster">
<title>cluster_s5</title>
<polygon fill="none" stroke="black" points="8,-2519 8,-2678 191.19,-2678 191.19,-2519 8,-2519"/>
<text text-anchor="middle" x="99.6" y="-2662.8" font-family="Times,serif" font-size="14.00">Constant (2)</text>
</g>
<g id="clust36" class="cluster">
<title>cluster_s7</title>
<polygon fill="none" stroke="black" points="2171.84,-8 2171.84,-167 2355.04,-167 2355.04,-8 2171.84,-8"/>
<text text-anchor="middle" x="2263.44" y="-151.8" font-family="Times,serif" font-size="14.00">Constant (3)</text>
</g>
<g id="clust38" class="cluster">
<title>cluster_s9</title>
<polygon fill="none" stroke="black" points="2171.84,-1121 2171.84,-1280 2355.04,-1280 2355.04,-1121 2171.84,-1121"/>
<text text-anchor="middle" x="2263.44" y="-1264.8" font-family="Times,serif" font-size="14.00">Constant (4)</text>
</g>
<g id="clust40" class="cluster">
<title>cluster_s11</title>
<polygon fill="none" stroke="black" points="1248.27,-1185 1248.27,-1344 1431.46,-1344 1431.46,-1185 1248.27,-1185"/>
<text text-anchor="middle" x="1339.86" y="-1328.8" font-family="Times,serif" font-size="14.00">Constant (5)</text>
</g>
<g id="clust42" class="cluster">
<title>cluster_s13</title>
<polygon fill="none" stroke="black" points="2171.84,-454 2171.84,-613 2355.04,-613 2355.04,-454 2171.84,-454"/>
<text text-anchor="middle" x="2263.44" y="-597.8" font-family="Times,serif" font-size="14.00">Constant (6)</text>
</g>
<g id="clust44" class="cluster">
<title>cluster_s75</title>
<polygon fill="none" stroke="black" points="2682.04,-834 2682.04,-1155 3302.42,-1155 3302.42,-834 2682.04,-834"/>
<text text-anchor="middle" x="2992.23" y="-1139.8" font-family="Times,serif" font-size="14.00">Decider (22)</text>
</g>
<g id="clust47" class="cluster">
<title>cluster_s81</title>
<polygon fill="none" stroke="black" points="2682.04,-357 2682.04,-678 3302.42,-678 3302.42,-357 2682.04,-357"/>
<text text-anchor="middle" x="2992.23" y="-662.8" font-family="Times,serif" font-size="14.00">Decider (23)</text>
</g>
<g id="clust50" class="cluster">
<title>cluster_s58</title>
<polygon fill="none" stroke="black" points="827.39,-925 827.39,-1138 1431.46,-1138 1431.46,-925 827.39,-925"/>
<text text-anchor="middle" x="1129.42" y="-1122.8" font-family="Times,serif" font-size="14.00">EMA (19)</text>
</g>
<g id="clust53" class="cluster">
<title>cluster_s62</title>
<polygon fill="none" stroke="black" points="3646.42,-1471 3646.42,-1846 4036.9,-1846 4036.9,-1471 3646.42,-1471"/>
<text text-anchor="middle" x="3841.66" y="-1830.8" font-family="Times,serif" font-size="14.00">Gradient (20)</text>
</g>
<g id="clust56" class="cluster">
<title>cluster_s50</title>
<polygon fill="none" stroke="black" points="2689.84,-1735 2689.84,-1894 3302.42,-1894 3302.42,-1735 2689.84,-1735"/>
<text text-anchor="middle" x="2996.13" y="-1878.8" font-family="Times,serif" font-size="14.00">Max (16)</text>
</g>
<g id="clust59" class="cluster">
<title>cluster_s47</title>
<polygon fill="none" stroke="black" points="1840.25,-621 1840.25,-780 2355.04,-780 2355.04,-621 1840.25,-621"/>
<text text-anchor="middle" x="2097.64" y="-764.8" font-family="Times,serif" font-size="14.00">Min (15)</text>
</g>
<g id="clust62" class="cluster">
<title>cluster_s56</title>
<polygon fill="none" stroke="black" points="8,-872 8,-1031 191.19,-1031 191.19,-872 8,-872"/>
<text text-anchor="middle" x="99.6" y="-1015.8" font-family="Times,serif" font-size="14.00">PromQL (18)</text>
</g>
<g id="clust64" class="cluster">
<title>cluster_s53</title>
<polygon fill="none" stroke="black" points="1845.45,-175 1845.45,-334 2355.04,-334 2355.04,-175 1845.45,-175"/>
<text text-anchor="middle" x="2100.24" y="-318.8" font-family="Times,serif" font-size="14.00">Sqrt (17)</text>
</g>
<!-- n28 -->
<g id="node1" class="node">
<title>n28</title>
<ellipse fill="none" stroke="black" cx="1930.55" cy="-1794" rx="27" ry="18"/>
<text text-anchor="middle" x="1930.55" y="-1790.3" font-family="Times,serif" font-size="14.00">lhs</text>
</g>
<!-- n30 -->
<g id="node2" class="node">
<title>n30</title>
<ellipse fill="none" stroke="black" cx="2263.44" cy="-1740" rx="41.69" ry="18"/>
<text text-anchor="middle" x="2263.44" y="-1736.3" font-family="Times,serif" font-size="14.00">output</text>
</g>
<!-- n74 -->
<g id="node25" class="node">
<title>n74</title>
<ellipse fill="none" stroke="black" cx="1339.86" cy="-1549" rx="88.28" ry="18"/>
<text text-anchor="middle" x="1339.86" y="-1545.3" font-family="Times,serif" font-size="14.00">load_shed_factor</text>
</g>
<!-- n30&#45;&gt;n74 -->
<g id="edge29" class="edge">
<title>n30&#45;&gt;n74</title>
<path fill="none" stroke="black" d="M2249.9,-1722.93C2249.9,-1678.38 2249.9,-1562 2249.9,-1562 2249.9,-1562 1411.34,-1562 1411.34,-1562"/>
<polygon fill="black" stroke="black" points="1411.34,-1558.5 1401.34,-1562 1411.34,-1565.5 1411.34,-1558.5"/>
<text text-anchor="middle" x="1930.55" y="-1572.8" font-family="Times,serif" font-size="14.00">LSF</text>
</g>
<!-- n29 -->
<g id="node3" class="node">
<title>n29</title>
<ellipse fill="none" stroke="black" cx="1930.55" cy="-1740" rx="27" ry="18"/>
<text text-anchor="middle" x="1930.55" y="-1736.3" font-family="Times,serif" font-size="14.00">rhs</text>
</g>
<!-- n29&#45;&gt;n30 -->
<!-- n32 -->
<g id="node4" class="node">
<title>n32</title>
<ellipse fill="none" stroke="black" cx="1930.55" cy="-2236" rx="27" ry="18"/>
<text text-anchor="middle" x="1930.55" y="-2232.3" font-family="Times,serif" font-size="14.00">lhs</text>
</g>
<!-- n34 -->
<g id="node5" class="node">
<title>n34</title>
<ellipse fill="none" stroke="black" cx="2263.44" cy="-2182" rx="41.69" ry="18"/>
<text text-anchor="middle" x="2263.44" y="-2178.3" font-family="Times,serif" font-size="14.00">output</text>
</g>
<!-- n51 -->
<g id="node54" class="node">
<title>n51</title>
<ellipse fill="none" stroke="black" cx="2780.13" cy="-1803" rx="40.09" ry="18"/>
<text text-anchor="middle" x="2780.13" y="-1799.3" font-family="Times,serif" font-size="14.00">inputs</text>
</g>
<!-- n34&#45;&gt;n51 -->
<g id="edge22" class="edge">
<title>n34&#45;&gt;n51</title>
<path fill="none" stroke="black" d="M2305.35,-2182C2428.54,-2182 2780.9,-2182 2780.9,-2182 2780.9,-2182 2780.9,-1831.02 2780.9,-1831.02"/>
<polygon fill="black" stroke="black" points="2784.4,-1831.02 2780.9,-1821.02 2777.4,-1831.03 2784.4,-1831.02"/>
<text text-anchor="middle" x="2518.54" y="-2137.8" font-family="Times,serif" font-size="14.00">UPPER_CONCURRENCY_LIMIT</text>
</g>
<!-- n33 -->
<g id="node6" class="node">
<title>n33</title>
<ellipse fill="none" stroke="black" cx="1930.55" cy="-2182" rx="27" ry="18"/>
<text text-anchor="middle" x="1930.55" y="-2178.3" font-family="Times,serif" font-size="14.00">rhs</text>
</g>
<!-- n33&#45;&gt;n34 -->
<!-- n36 -->
<g id="node7" class="node">
<title>n36</title>
<ellipse fill="none" stroke="black" cx="1930.55" cy="-968" rx="27" ry="18"/>
<text text-anchor="middle" x="1930.55" y="-964.3" font-family="Times,serif" font-size="14.00">lhs</text>
</g>
<!-- n38 -->
<g id="node8" class="node">
<title>n38</title>
<ellipse fill="none" stroke="black" cx="2263.44" cy="-1010" rx="41.69" ry="18"/>
<text text-anchor="middle" x="2263.44" y="-1006.3" font-family="Times,serif" font-size="14.00">output</text>
</g>
<!-- n76 -->
<g id="node39" class="node">
<title>n76</title>
<ellipse fill="none" stroke="black" cx="2780.13" cy="-1010" rx="27" ry="18"/>
<text text-anchor="middle" x="2780.13" y="-1006.3" font-family="Times,serif" font-size="14.00">rhs</text>
</g>
<!-- n38&#45;&gt;n76 -->
<g id="edge49" class="edge">
<title>n38&#45;&gt;n76</title>
<path fill="none" stroke="black" d="M2302.7,-1016C2302.7,-1016 2744.53,-1016 2744.53,-1016"/>
<polygon fill="black" stroke="black" points="2744.53,-1019.5 2754.53,-1016 2744.53,-1012.5 2744.53,-1019.5"/>
<text text-anchor="middle" x="2518.54" y="-1013.8" font-family="Times,serif" font-size="14.00">LATENCY_OVERLOAD</text>
</g>
<!-- n82 -->
<g id="node44" class="node">
<title>n82</title>
<ellipse fill="none" stroke="black" cx="2780.13" cy="-587" rx="27" ry="18"/>
<text text-anchor="middle" x="2780.13" y="-583.3" font-family="Times,serif" font-size="14.00">rhs</text>
</g>
<!-- n38&#45;&gt;n82 -->
<g id="edge50" class="edge">
<title>n38&#45;&gt;n82</title>
<path fill="none" stroke="black" d="M2302.82,-1004C2389.65,-1004 2589.9,-1004 2589.9,-1004 2589.9,-1004 2589.9,-587 2589.9,-587 2589.9,-587 2742.88,-587 2742.88,-587"/>
<polygon fill="black" stroke="black" points="2742.88,-590.5 2752.88,-587 2742.88,-583.5 2742.88,-590.5"/>
<text text-anchor="middle" x="2518.54" y="-926.8" font-family="Times,serif" font-size="14.00">LATENCY_OVERLOAD</text>
</g>
<!-- n37 -->
<g id="node9" class="node">
<title>n37</title>
<ellipse fill="none" stroke="black" cx="1930.55" cy="-1022" rx="27" ry="18"/>
<text text-anchor="middle" x="1930.55" y="-1018.3" font-family="Times,serif" font-size="14.00">rhs</text>
</g>
<!-- n37&#45;&gt;n38 -->
<!-- n41 -->
<g id="node10" class="node">
<title>n41</title>
<ellipse fill="none" stroke="black" cx="2780.13" cy="-189" rx="27" ry="18"/>
<text text-anchor="middle" x="2780.13" y="-185.3" font-family="Times,serif" font-size="14.00">lhs</text>
</g>
<!-- n42 -->
<g id="node11" class="node">
<title>n42</title>
<ellipse fill="none" stroke="black" cx="3210.82" cy="-216" rx="41.69" ry="18"/>
<text text-anchor="middle" x="3210.82" y="-212.3" font-family="Times,serif" font-size="14.00">output</text>
</g>
<!-- n41&#45;&gt;n42 -->
<!-- n44 -->
<g id="node13" class="node">
<title>n44</title>
<ellipse fill="none" stroke="black" cx="3781.56" cy="-371" rx="27" ry="18"/>
<text text-anchor="middle" x="3781.56" y="-367.3" font-family="Times,serif" font-size="14.00">lhs</text>
</g>
<!-- n42&#45;&gt;n44 -->
<g id="edge30" class="edge">
<title>n42&#45;&gt;n44</title>
<path fill="none" stroke="black" d="M3252.82,-216C3384.7,-216 3781.9,-216 3781.9,-216 3781.9,-216 3781.9,-342.92 3781.9,-342.92"/>
<polygon fill="black" stroke="black" points="3778.4,-342.92 3781.9,-352.92 3785.4,-342.92 3778.4,-342.92"/>
<text text-anchor="middle" x="3474.42" y="-316.8" font-family="Times,serif" font-size="14.00">CONCURRENCY_INCREMENT_SINGLE_TICK</text>
</g>
<!-- n40 -->
<g id="node12" class="node">
<title>n40</title>
<ellipse fill="none" stroke="black" cx="2780.13" cy="-243" rx="27" ry="18"/>
<text text-anchor="middle" x="2780.13" y="-239.3" font-family="Times,serif" font-size="14.00">rhs</text>
</g>
<!-- n46 -->
<g id="node14" class="node">
<title>n46</title>
<ellipse fill="none" stroke="black" cx="3945.3" cy="-425" rx="41.69" ry="18"/>
<text text-anchor="middle" x="3945.3" y="-421.3" font-family="Times,serif" font-size="14.00">output</text>
</g>
<!-- n48 -->
<g id="node56" class="node">
<title>n48</title>
<ellipse fill="none" stroke="black" cx="1930.55" cy="-689" rx="40.09" ry="18"/>
<text text-anchor="middle" x="1930.55" y="-685.3" font-family="Times,serif" font-size="14.00">inputs</text>
</g>
<!-- n46&#45;&gt;n48 -->
<g id="edge31" class="edge">
<title>n46&#45;&gt;n48</title>
<path fill="none" stroke="black" d="M3945.9,-443.16C3945.9,-448.04 3945.9,-452 3945.9,-452 3945.9,-452 1930.9,-452 1930.9,-452 1930.9,-452 1930.9,-660.8 1930.9,-660.8"/>
<polygon fill="black" stroke="black" points="1927.4,-660.8 1930.9,-670.8 1934.4,-660.8 1927.4,-660.8"/>
<text text-anchor="middle" x="2998.73" y="-749.8" font-family="Times,serif" font-size="14.00">CONCURRENCY_INCREMENT_INTEGRAL</text>
</g>
<!-- n45 -->
<g id="node15" class="node">
<title>n45</title>
<ellipse fill="none" stroke="black" cx="3781.56" cy="-425" rx="27" ry="18"/>
<text text-anchor="middle" x="3781.56" y="-421.3" font-family="Times,serif" font-size="14.00">rhs</text>
</g>
<!-- n45&#45;&gt;n46 -->
<!-- n16 -->
<g id="node16" class="node">
<title>n16</title>
<ellipse fill="none" stroke="black" cx="469.19" cy="-1073" rx="27" ry="18"/>
<text text-anchor="middle" x="469.19" y="-1069.3" font-family="Times,serif" font-size="14.00">lhs</text>
</g>
<!-- n18 -->
<g id="node17" class="node">
<title>n18</title>
<ellipse fill="none" stroke="black" cx="643.79" cy="-1100" rx="41.69" ry="18"/>
<text text-anchor="middle" x="643.79" y="-1096.3" font-family="Times,serif" font-size="14.00">output</text>
</g>
<!-- n60 -->
<g id="node46" class="node">
<title>n60</title>
<ellipse fill="none" stroke="black" cx="953.43" cy="-1047" rx="76.09" ry="18"/>
<text text-anchor="middle" x="953.43" y="-1043.3" font-family="Times,serif" font-size="14.00">max_envelope</text>
</g>
<!-- n18&#45;&gt;n60 -->
<g id="edge21" class="edge">
<title>n18&#45;&gt;n60</title>
<path fill="none" stroke="black" d="M643.9,-1081.87C643.9,-1071.29 643.9,-1060 643.9,-1060 643.9,-1060 890.57,-1060 890.57,-1060"/>
<polygon fill="black" stroke="black" points="890.57,-1063.5 900.57,-1060 890.57,-1056.5 890.57,-1063.5"/>
<text text-anchor="middle" x="781.39" y="-1076.8" font-family="Times,serif" font-size="14.00">MAX_EMA</text>
</g>
<!-- n17 -->
<g id="node18" class="node">
<title>n17</title>
<ellipse fill="none" stroke="black" cx="469.19" cy="-1127" rx="27" ry="18"/>
<text text-anchor="middle" x="469.19" y="-1123.3" font-family="Times,serif" font-size="14.00">rhs</text>
</g>
<!-- n17&#45;&gt;n18 -->
<!-- n20 -->
<g id="node19" class="node">
<title>n20</title>
<ellipse fill="none" stroke="black" cx="1930.55" cy="-1356" rx="27" ry="18"/>
<text text-anchor="middle" x="1930.55" y="-1352.3" font-family="Times,serif" font-size="14.00">lhs</text>
</g>
<!-- n22 -->
<g id="node20" class="node">
<title>n22</title>
<ellipse fill="none" stroke="black" cx="2263.44" cy="-1410" rx="41.69" ry="18"/>
<text text-anchor="middle" x="2263.44" y="-1406.3" font-family="Times,serif" font-size="14.00">output</text>
</g>
<!-- n64 -->
<g id="node52" class="node">
<title>n64</title>
<ellipse fill="none" stroke="black" cx="3781.56" cy="-1593" rx="48.99" ry="18"/>
<text text-anchor="middle" x="3781.56" y="-1589.3" font-family="Times,serif" font-size="14.00">setpoint</text>
</g>
<!-- n22&#45;&gt;n64 -->
<g id="edge28" class="edge">
<title>n22&#45;&gt;n64</title>
<path fill="none" stroke="black" d="M2277.9,-1426.89C2277.9,-1472.19 2277.9,-1593 2277.9,-1593 2277.9,-1593 3722.81,-1593 3722.81,-1593"/>
<polygon fill="black" stroke="black" points="3722.81,-1596.5 3732.81,-1593 3722.81,-1589.5 3722.81,-1596.5"/>
<text text-anchor="middle" x="2998.73" y="-1495.8" font-family="Times,serif" font-size="14.00">LATENCY_SETPOINT</text>
</g>
<!-- n21 -->
<g id="node21" class="node">
<title>n21</title>
<ellipse fill="none" stroke="black" cx="1930.55" cy="-1410" rx="27" ry="18"/>
<text text-anchor="middle" x="1930.55" y="-1406.3" font-family="Times,serif" font-size="14.00">rhs</text>
</g>
<!-- n21&#45;&gt;n22 -->
<!-- n24 -->
<g id="node22" class="node">
<title>n24</title>
<ellipse fill="none" stroke="black" cx="1930.55" cy="-2015" rx="27" ry="18"/>
<text text-anchor="middle" x="1930.55" y="-2011.3" font-family="Times,serif" font-size="14.00">lhs</text>
</g>
<!-- n26 -->
<g id="node23" class="node">
<title>n26</title>
<ellipse fill="none" stroke="black" cx="2263.44" cy="-1961" rx="41.69" ry="18"/>
<text text-anchor="middle" x="2263.44" y="-1957.3" font-family="Times,serif" font-size="14.00">output</text>
</g>
<!-- n26&#45;&gt;n28 -->
<g id="edge41" class="edge">
<title>n26&#45;&gt;n28</title>
<path fill="none" stroke="black" d="M2263.9,-1942.99C2263.9,-1900.68 2263.9,-1798.5 2263.9,-1798.5 2263.9,-1798.5 1966.71,-1798.5 1966.71,-1798.5"/>
<polygon fill="black" stroke="black" points="1966.71,-1795 1956.71,-1798.5 1966.71,-1802 1966.71,-1795"/>
<text text-anchor="middle" x="2076.34" y="-1870.8" font-family="Times,serif" font-size="14.00">DELTA_CONCURRENCY</text>
</g>
<!-- n25 -->
<g id="node24" class="node">
<title>n25</title>
<ellipse fill="none" stroke="black" cx="1930.55" cy="-1961" rx="27" ry="18"/>
<text text-anchor="middle" x="1930.55" y="-1957.3" font-family="Times,serif" font-size="14.00">rhs</text>
</g>
<!-- n25&#45;&gt;n26 -->
<!-- n71 -->
<g id="node26" class="node">
<title>n71</title>
<ellipse fill="none" stroke="black" cx="1339.86" cy="-1758" rx="113.98" ry="18"/>
<text text-anchor="middle" x="1339.86" y="-1754.3" font-family="Times,serif" font-size="14.00">accepted_concurrency</text>
</g>
<!-- n71&#45;&gt;n33 -->
<g id="edge16" class="edge">
<title>n71&#45;&gt;n33</title>
<path fill="none" stroke="black" d="M1443.41,-1765.5C1541.17,-1765.5 1672.9,-1765.5 1672.9,-1765.5 1672.9,-1765.5 1672.9,-2182 1672.9,-2182 1672.9,-2182 1893.46,-2182 1893.46,-2182"/>
<polygon fill="black" stroke="black" points="1893.46,-2185.5 1903.46,-2182 1893.46,-2178.5 1893.46,-2185.5"/>
<text text-anchor="middle" x="1697.25" y="-1866.8" font-family="Times,serif" font-size="14.00">ACCEPTED_CONCURRENCY</text>
</g>
<!-- n67 -->
<g id="node48" class="node">
<title>n67</title>
<ellipse fill="none" stroke="black" cx="3781.56" cy="-1647" rx="85.29" ry="18"/>
<text text-anchor="middle" x="3781.56" y="-1643.3" font-family="Times,serif" font-size="14.00">control_variable</text>
</g>
<!-- n71&#45;&gt;n67 -->
<g id="edge18" class="edge">
<title>n71&#45;&gt;n67</title>
<path fill="none" stroke="black" d="M1445.9,-1751.39C1445.9,-1727.49 1445.9,-1647 1445.9,-1647 1445.9,-1647 3686.36,-1647 3686.36,-1647"/>
<polygon fill="black" stroke="black" points="3686.36,-1650.5 3696.36,-1647 3686.36,-1643.5 3686.36,-1650.5"/>
<text text-anchor="middle" x="2518.54" y="-1615.8" font-family="Times,serif" font-size="14.00">ACCEPTED_CONCURRENCY</text>
</g>
<!-- n54 -->
<g id="node59" class="node">
<title>n54</title>
<ellipse fill="none" stroke="black" cx="1930.55" cy="-243" rx="35.19" ry="18"/>
<text text-anchor="middle" x="1930.55" y="-239.3" font-family="Times,serif" font-size="14.00">input</text>
</g>
<!-- n71&#45;&gt;n54 -->
<g id="edge17" class="edge">
<title>n71&#45;&gt;n54</title>
<path fill="none" stroke="black" d="M1436.9,-1748.33C1436.9,-1619.3 1436.9,-243 1436.9,-243 1436.9,-243 1885.44,-243 1885.44,-243"/>
<polygon fill="black" stroke="black" points="1885.44,-246.5 1895.44,-243 1885.44,-239.5 1885.44,-246.5"/>
<text text-anchor="middle" x="1697.25" y="-1465.8" font-family="Times,serif" font-size="14.00">ACCEPTED_CONCURRENCY</text>
</g>
<!-- n72 -->
<g id="node27" class="node">
<title>n72</title>
<ellipse fill="none" stroke="black" cx="1339.86" cy="-1812" rx="114.28" ry="18"/>
<text text-anchor="middle" x="1339.86" y="-1808.3" font-family="Times,serif" font-size="14.00">incoming_concurrency</text>
</g>
<!-- n72&#45;&gt;n29 -->
<g id="edge20" class="edge">
<title>n72&#45;&gt;n29</title>
<path fill="none" stroke="black" d="M1438.98,-1803C1599.34,-1803 1897.9,-1803 1897.9,-1803 1897.9,-1803 1897.9,-1749 1897.9,-1749 1897.9,-1749 1898.79,-1749 1898.79,-1749"/>
<polygon fill="black" stroke="black" points="1896.82,-1752.5 1906.82,-1749 1896.82,-1745.5 1896.82,-1752.5"/>
<text text-anchor="middle" x="1697.25" y="-1769.8" font-family="Times,serif" font-size="14.00">INCOMING_CONCURRENCY</text>
</g>
<!-- n72&#45;&gt;n24 -->
<g id="edge19" class="edge">
<title>n72&#45;&gt;n24</title>
<path fill="none" stroke="black" d="M1417.9,-1825.32C1417.9,-1870.48 1417.9,-2015 1417.9,-2015 1417.9,-2015 1893.35,-2015 1893.35,-2015"/>
<polygon fill="black" stroke="black" points="1893.35,-2018.5 1903.35,-2015 1893.35,-2011.5 1893.35,-2018.5"/>
<text text-anchor="middle" x="1697.25" y="-1980.8" font-family="Times,serif" font-size="14.00">INCOMING_CONCURRENCY</text>
</g>
<!-- n2 -->
<g id="node28" class="node">
<title>n2</title>
<ellipse fill="none" stroke="black" cx="99.6" cy="-2420" rx="41.69" ry="18"/>
<text text-anchor="middle" x="99.6" y="-2416.3" font-family="Times,serif" font-size="14.00">output</text>
</g>
<!-- n2&#45;&gt;n17 -->
<g id="edge32" class="edge">
<title>n2&#45;&gt;n17</title>
<path fill="none" stroke="black" d="M141.35,-2420C238.2,-2420 469.9,-2420 469.9,-2420 469.9,-2420 469.9,-1155.28 469.9,-1155.28"/>
<polygon fill="black" stroke="black" points="473.4,-1155.28 469.9,-1145.28 466.4,-1155.28 473.4,-1155.28"/>
<text text-anchor="middle" x="291.69" y="-2423.8" font-family="Times,serif" font-size="14.00">EMA_LIMIT_MULTIPLIER</text>
</g>
<!-- n4 -->
<g id="node29" class="node">
<title>n4</title>
<ellipse fill="none" stroke="black" cx="1339.86" cy="-2236" rx="41.69" ry="18"/>
<text text-anchor="middle" x="1339.86" y="-2232.3" font-family="Times,serif" font-size="14.00">output</text>
</g>
<!-- n4&#45;&gt;n32 -->
<g id="edge44" class="edge">
<title>n4&#45;&gt;n32</title>
<path fill="none" stroke="black" d="M1381.87,-2236C1381.87,-2236 1893.54,-2236 1893.54,-2236"/>
<polygon fill="black" stroke="black" points="1893.54,-2239.5 1903.54,-2236 1893.54,-2232.5 1893.54,-2239.5"/>
<text text-anchor="middle" x="1697.25" y="-2239.8" font-family="Times,serif" font-size="14.00">CONCURRENCY_LIMIT_MULTIPLIER</text>
</g>
<!-- n6 -->
<g id="node30" class="node">
<title>n6</title>
<ellipse fill="none" stroke="black" cx="99.6" cy="-2587" rx="41.69" ry="18"/>
<text text-anchor="middle" x="99.6" y="-2583.3" font-family="Times,serif" font-size="14.00">output</text>
</g>
<!-- n8 -->
<g id="node31" class="node">
<title>n8</title>
<ellipse fill="none" stroke="black" cx="2263.44" cy="-76" rx="41.69" ry="18"/>
<text text-anchor="middle" x="2263.44" y="-72.3" font-family="Times,serif" font-size="14.00">output</text>
</g>
<!-- n8&#45;&gt;n41 -->
<g id="edge24" class="edge">
<title>n8&#45;&gt;n41</title>
<path fill="none" stroke="black" d="M2305.35,-76C2428.54,-76 2780.9,-76 2780.9,-76 2780.9,-76 2780.9,-160.84 2780.9,-160.84"/>
<polygon fill="black" stroke="black" points="2777.4,-160.84 2780.9,-170.84 2784.4,-160.84 2777.4,-160.84"/>
<text text-anchor="middle" x="2518.54" y="-136.8" font-family="Times,serif" font-size="14.00">LINEAR_CONCURRENCY_INCREMENT</text>
</g>
<!-- n10 -->
<g id="node32" class="node">
<title>n10</title>
<ellipse fill="none" stroke="black" cx="2263.44" cy="-1189" rx="41.69" ry="18"/>
<text text-anchor="middle" x="2263.44" y="-1185.3" font-family="Times,serif" font-size="14.00">output</text>
</g>
<!-- n77 -->
<g id="node37" class="node">
<title>n77</title>
<ellipse fill="none" stroke="black" cx="2780.13" cy="-1064" rx="46.29" ry="18"/>
<text text-anchor="middle" x="2780.13" y="-1060.3" font-family="Times,serif" font-size="14.00">on_true</text>
</g>
<!-- n10&#45;&gt;n77 -->
<g id="edge25" class="edge">
<title>n10&#45;&gt;n77</title>
<path fill="none" stroke="black" d="M2263.9,-1170.95C2263.9,-1138.47 2263.9,-1073.5 2263.9,-1073.5 2263.9,-1073.5 2730.91,-1073.5 2730.91,-1073.5"/>
<polygon fill="black" stroke="black" points="2730.91,-1077 2740.91,-1073.5 2730.91,-1070 2730.91,-1077"/>
<text text-anchor="middle" x="2518.54" y="-1129.8" font-family="Times,serif" font-size="14.00">CONCURRENCY_INCREMENT_OVERLOAD</text>
</g>
<!-- n12 -->
<g id="node33" class="node">
<title>n12</title>
<ellipse fill="none" stroke="black" cx="1339.86" cy="-1253" rx="41.69" ry="18"/>
<text text-anchor="middle" x="1339.86" y="-1249.3" font-family="Times,serif" font-size="14.00">output</text>
</g>
<!-- n12&#45;&gt;n37 -->
<g id="edge27" class="edge">
<title>n12&#45;&gt;n37</title>
<path fill="none" stroke="black" d="M1381.58,-1253C1517.65,-1253 1939.9,-1253 1939.9,-1253 1939.9,-1253 1939.9,-1048.99 1939.9,-1048.99"/>
<polygon fill="black" stroke="black" points="1943.4,-1048.99 1939.9,-1038.99 1936.4,-1048.99 1943.4,-1048.99"/>
<text text-anchor="middle" x="1697.25" y="-1099.8" font-family="Times,serif" font-size="14.00">TOLERANCE</text>
</g>
<!-- n12&#45;&gt;n21 -->
<g id="edge26" class="edge">
<title>n12&#45;&gt;n21</title>
<path fill="none" stroke="black" d="M1339.9,-1271.01C1339.9,-1312.25 1339.9,-1410 1339.9,-1410 1339.9,-1410 1893.24,-1410 1893.24,-1410"/>
<polygon fill="black" stroke="black" points="1893.24,-1413.5 1903.24,-1410 1893.24,-1406.5 1893.24,-1413.5"/>
<text text-anchor="middle" x="1697.25" y="-1313.8" font-family="Times,serif" font-size="14.00">TOLERANCE</text>
</g>
<!-- n14 -->
<g id="node34" class="node">
<title>n14</title>
<ellipse fill="none" stroke="black" cx="2263.44" cy="-522" rx="41.69" ry="18"/>
<text text-anchor="middle" x="2263.44" y="-518.3" font-family="Times,serif" font-size="14.00">output</text>
</g>
<!-- n83 -->
<g id="node42" class="node">
<title>n83</title>
<ellipse fill="none" stroke="black" cx="2780.13" cy="-479" rx="46.29" ry="18"/>
<text text-anchor="middle" x="2780.13" y="-475.3" font-family="Times,serif" font-size="14.00">on_true</text>
</g>
<!-- n14&#45;&gt;n83 -->
<g id="edge23" class="edge">
<title>n14&#45;&gt;n83</title>
<path fill="none" stroke="black" d="M2293.5,-509.5C2403.94,-509.5 2780.9,-509.5 2780.9,-509.5 2780.9,-509.5 2780.9,-507.09 2780.9,-507.09"/>
<polygon fill="black" stroke="black" points="2784.4,-507.09 2780.9,-497.09 2777.4,-507.09 2784.4,-507.09"/>
<text text-anchor="middle" x="2518.54" y="-507.8" font-family="Times,serif" font-size="14.00">ZERO</text>
</g>
<!-- n79 -->
<g id="node35" class="node">
<title>n79</title>
<ellipse fill="none" stroke="black" cx="2780.13" cy="-956" rx="27" ry="18"/>
<text text-anchor="middle" x="2780.13" y="-952.3" font-family="Times,serif" font-size="14.00">lhs</text>
</g>
<!-- n80 -->
<g id="node38" class="node">
<title>n80</title>
<ellipse fill="none" stroke="black" cx="3210.82" cy="-1010" rx="41.69" ry="18"/>
<text text-anchor="middle" x="3210.82" y="-1006.3" font-family="Times,serif" font-size="14.00">output</text>
</g>
<!-- n79&#45;&gt;n80 -->
<!-- n78 -->
<g id="node36" class="node">
<title>n78</title>
<ellipse fill="none" stroke="black" cx="2780.13" cy="-902" rx="48.19" ry="18"/>
<text text-anchor="middle" x="2780.13" y="-898.3" font-family="Times,serif" font-size="14.00">on_false</text>
</g>
<!-- n65 -->
<g id="node50" class="node">
<title>n65</title>
<ellipse fill="none" stroke="black" cx="3781.56" cy="-1539" rx="50.89" ry="18"/>
<text text-anchor="middle" x="3781.56" y="-1535.3" font-family="Times,serif" font-size="14.00">optimize</text>
</g>
<!-- n80&#45;&gt;n65 -->
<g id="edge35" class="edge">
<title>n80&#45;&gt;n65</title>
<path fill="none" stroke="black" d="M3252.58,-1010C3378.01,-1010 3742.9,-1010 3742.9,-1010 3742.9,-1010 3742.9,-1517.21 3742.9,-1517.21"/>
<polygon fill="black" stroke="black" points="3739.4,-1517.21 3742.9,-1527.21 3746.4,-1517.21 3739.4,-1517.21"/>
<text text-anchor="middle" x="3474.42" y="-1302.8" font-family="Times,serif" font-size="14.00">CONCURRENCY_INCREMENT</text>
</g>
<!-- n85 -->
<g id="node40" class="node">
<title>n85</title>
<ellipse fill="none" stroke="black" cx="2780.13" cy="-425" rx="27" ry="18"/>
<text text-anchor="middle" x="2780.13" y="-421.3" font-family="Times,serif" font-size="14.00">lhs</text>
</g>
<!-- n86 -->
<g id="node43" class="node">
<title>n86</title>
<ellipse fill="none" stroke="black" cx="3210.82" cy="-425" rx="41.69" ry="18"/>
<text text-anchor="middle" x="3210.82" y="-421.3" font-family="Times,serif" font-size="14.00">output</text>
</g>
<!-- n85&#45;&gt;n86 -->
<!-- n84 -->
<g id="node41" class="node">
<title>n84</title>
<ellipse fill="none" stroke="black" cx="2780.13" cy="-533" rx="48.19" ry="18"/>
<text text-anchor="middle" x="2780.13" y="-529.3" font-family="Times,serif" font-size="14.00">on_false</text>
</g>
<!-- n86&#45;&gt;n45 -->
<g id="edge48" class="edge">
<title>n86&#45;&gt;n45</title>
<path fill="none" stroke="black" d="M3252.79,-425C3252.79,-425 3744.38,-425 3744.38,-425"/>
<polygon fill="black" stroke="black" points="3744.38,-428.5 3754.38,-425 3744.38,-421.5 3744.38,-428.5"/>
<text text-anchor="middle" x="3474.42" y="-428.8" font-family="Times,serif" font-size="14.00">CONCURRENCY_INCREMENT_FEEDBACK</text>
</g>
<!-- n59 -->
<g id="node45" class="node">
<title>n59</title>
<ellipse fill="none" stroke="black" cx="953.43" cy="-993" rx="35.19" ry="18"/>
<text text-anchor="middle" x="953.43" y="-989.3" font-family="Times,serif" font-size="14.00">input</text>
</g>
<!-- n61 -->
<g id="node47" class="node">
<title>n61</title>
<ellipse fill="none" stroke="black" cx="1339.86" cy="-1047" rx="41.69" ry="18"/>
<text text-anchor="middle" x="1339.86" y="-1043.3" font-family="Times,serif" font-size="14.00">output</text>
</g>
<!-- n60&#45;&gt;n61 -->
<!-- n61&#45;&gt;n36 -->
<g id="edge34" class="edge">
<title>n61&#45;&gt;n36</title>
<path fill="none" stroke="black" d="M1339.9,-1028.83C1339.9,-1009.14 1339.9,-980.5 1339.9,-980.5 1339.9,-980.5 1900.9,-980.5 1900.9,-980.5"/>
<polygon fill="black" stroke="black" points="1900.9,-984 1910.9,-980.5 1900.9,-977 1900.9,-984"/>
<text text-anchor="middle" x="1697.25" y="-1010.8" font-family="Times,serif" font-size="14.00">LATENCY_EMA</text>
</g>
<!-- n61&#45;&gt;n20 -->
<g id="edge33" class="edge">
<title>n61&#45;&gt;n20</title>
<path fill="none" stroke="black" d="M1376.71,-1055.5C1504.66,-1055.5 1921.9,-1055.5 1921.9,-1055.5 1921.9,-1055.5 1921.9,-1328.54 1921.9,-1328.54"/>
<polygon fill="black" stroke="black" points="1918.4,-1328.54 1921.9,-1338.54 1925.4,-1328.55 1918.4,-1328.54"/>
<text text-anchor="middle" x="1697.25" y="-1211.8" font-family="Times,serif" font-size="14.00">LATENCY_EMA</text>
</g>
<!-- n68 -->
<g id="node51" class="node">
<title>n68</title>
<ellipse fill="none" stroke="black" cx="3945.3" cy="-1701" rx="41.69" ry="18"/>
<text text-anchor="middle" x="3945.3" y="-1697.3" font-family="Times,serif" font-size="14.00">output</text>
</g>
<!-- n67&#45;&gt;n68 -->
<!-- n66 -->
<g id="node49" class="node">
<title>n66</title>
<ellipse fill="none" stroke="black" cx="3781.56" cy="-1701" rx="30.59" ry="18"/>
<text text-anchor="middle" x="3781.56" y="-1697.3" font-family="Times,serif" font-size="14.00">max</text>
</g>
<!-- n68&#45;&gt;n25 -->
<g id="edge43" class="edge">
<title>n68&#45;&gt;n25</title>
<path fill="none" stroke="black" d="M3945.9,-1719.1C3945.9,-1753.63 3945.9,-1825.5 3945.9,-1825.5 3945.9,-1825.5 1930.9,-1825.5 1930.9,-1825.5 1930.9,-1825.5 1930.9,-1932.73 1930.9,-1932.73"/>
<polygon fill="black" stroke="black" points="1927.4,-1932.73 1930.9,-1942.73 1934.4,-1932.73 1927.4,-1932.73"/>
<text text-anchor="middle" x="2998.73" y="-2057.8" font-family="Times,serif" font-size="14.00">DESIRED_CONCURRENCY</text>
</g>
<!-- n63 -->
<g id="node53" class="node">
<title>n63</title>
<ellipse fill="none" stroke="black" cx="3781.56" cy="-1755" rx="38.19" ry="18"/>
<text text-anchor="middle" x="3781.56" y="-1751.3" font-family="Times,serif" font-size="14.00">signal</text>
</g>
<!-- n52 -->
<g id="node55" class="node">
<title>n52</title>
<ellipse fill="none" stroke="black" cx="3210.82" cy="-1803" rx="41.69" ry="18"/>
<text text-anchor="middle" x="3210.82" y="-1799.3" font-family="Times,serif" font-size="14.00">output</text>
</g>
<!-- n51&#45;&gt;n52 -->
<!-- n52&#45;&gt;n66 -->
<g id="edge42" class="edge">
<title>n52&#45;&gt;n66</title>
<path fill="none" stroke="black" d="M3210.9,-1784.76C3210.9,-1755.43 3210.9,-1701 3210.9,-1701 3210.9,-1701 3740.88,-1701 3740.88,-1701"/>
<polygon fill="black" stroke="black" points="3740.88,-1704.5 3750.88,-1701 3740.88,-1697.5 3740.88,-1704.5"/>
<text text-anchor="middle" x="3474.42" y="-1738.8" font-family="Times,serif" font-size="14.00">MAX_CONCURRENCY</text>
</g>
<!-- n49 -->
<g id="node57" class="node">
<title>n49</title>
<ellipse fill="none" stroke="black" cx="2263.44" cy="-689" rx="41.69" ry="18"/>
<text text-anchor="middle" x="2263.44" y="-685.3" font-family="Times,serif" font-size="14.00">output</text>
</g>
<!-- n48&#45;&gt;n49 -->
<!-- n49&#45;&gt;n78 -->
<g id="edge45" class="edge">
<title>n49&#45;&gt;n78</title>
<path fill="none" stroke="black" d="M2302.84,-695C2416.99,-695 2739.9,-695 2739.9,-695 2739.9,-695 2739.9,-882.02 2739.9,-882.02"/>
<polygon fill="black" stroke="black" points="2736.4,-882.02 2739.9,-892.02 2743.4,-882.02 2736.4,-882.02"/>
<text text-anchor="middle" x="2518.54" y="-798.8" font-family="Times,serif" font-size="14.00">CONCURRENCY_INCREMENT_NORMAL</text>
</g>
<!-- n49&#45;&gt;n84 -->
<g id="edge46" class="edge">
<title>n49&#45;&gt;n84</title>
<path fill="none" stroke="black" d="M2303,-683C2418.47,-683 2746.9,-683 2746.9,-683 2746.9,-683 2746.9,-556.05 2746.9,-556.05"/>
<polygon fill="black" stroke="black" points="2750.4,-556.05 2746.9,-546.05 2743.4,-556.05 2750.4,-556.05"/>
<text text-anchor="middle" x="2518.54" y="-553.8" font-family="Times,serif" font-size="14.00">CONCURRENCY_INCREMENT_NORMAL</text>
</g>
<!-- n57 -->
<g id="node58" class="node">
<title>n57</title>
<ellipse fill="none" stroke="black" cx="99.6" cy="-940" rx="41.69" ry="18"/>
<text text-anchor="middle" x="99.6" y="-936.3" font-family="Times,serif" font-size="14.00">output</text>
</g>
<!-- n57&#45;&gt;n16 -->
<g id="edge36" class="edge">
<title>n57&#45;&gt;n16</title>
<path fill="none" stroke="black" d="M121.65,-955.33C201.37,-955.33 469.9,-955.33 469.9,-955.33 469.9,-955.33 469.9,-1044.87 469.9,-1044.87"/>
<polygon fill="black" stroke="black" points="466.4,-1044.87 469.9,-1054.87 473.4,-1044.87 466.4,-1044.87"/>
<text text-anchor="middle" x="291.69" y="-1026.8" font-family="Times,serif" font-size="14.00">LATENCY</text>
</g>
<!-- n57&#45;&gt;n79 -->
<g id="edge39" class="edge">
<title>n57&#45;&gt;n79</title>
<path fill="none" stroke="black" d="M141.16,-942C141.16,-942 2752.9,-942 2752.9,-942"/>
<polygon fill="black" stroke="black" points="2752.9,-945.5 2762.9,-942 2752.9,-938.5 2752.9,-945.5"/>
<text text-anchor="middle" x="1082.47" y="-843.8" font-family="Times,serif" font-size="14.00">LATENCY</text>
</g>
<!-- n57&#45;&gt;n85 -->
<g id="edge40" class="edge">
<title>n57&#45;&gt;n85</title>
<path fill="none" stroke="black" d="M99.9,-921.97C99.9,-830.82 99.9,-425 99.9,-425 99.9,-425 2742.73,-425 2742.73,-425"/>
<polygon fill="black" stroke="black" points="2742.73,-428.5 2752.73,-425 2742.73,-421.5 2742.73,-428.5"/>
<text text-anchor="middle" x="1082.47" y="-397.8" font-family="Times,serif" font-size="14.00">LATENCY</text>
</g>
<!-- n57&#45;&gt;n59 -->
<g id="edge37" class="edge">
<title>n57&#45;&gt;n59</title>
<path fill="none" stroke="black" d="M129.5,-952.67C280.71,-952.67 953.9,-952.67 953.9,-952.67 953.9,-952.67 953.9,-964.72 953.9,-964.72"/>
<polygon fill="black" stroke="black" points="950.4,-964.72 953.9,-974.72 957.4,-964.72 950.4,-964.72"/>
<text text-anchor="middle" x="549.19" y="-943.8" font-family="Times,serif" font-size="14.00">LATENCY</text>
</g>
<!-- n57&#45;&gt;n63 -->
<g id="edge38" class="edge">
<title>n57&#45;&gt;n63</title>
<path fill="none" stroke="black" d="M138.88,-946C445.84,-946 2447.9,-946 2447.9,-946 2447.9,-946 2447.9,-1747.5 2447.9,-1747.5 2447.9,-1747.5 3736.58,-1747.5 3736.58,-1747.5"/>
<polygon fill="black" stroke="black" points="3736.58,-1751 3746.58,-1747.5 3736.58,-1744 3736.58,-1751"/>
<text text-anchor="middle" x="1697.25" y="-2390.8" font-family="Times,serif" font-size="14.00">LATENCY</text>
</g>
<!-- n55 -->
<g id="node60" class="node">
<title>n55</title>
<ellipse fill="none" stroke="black" cx="2263.44" cy="-243" rx="41.69" ry="18"/>
<text text-anchor="middle" x="2263.44" y="-239.3" font-family="Times,serif" font-size="14.00">output</text>
</g>
<!-- n54&#45;&gt;n55 -->
<!-- n55&#45;&gt;n40 -->
<g id="edge47" class="edge">
<title>n55&#45;&gt;n40</title>
<path fill="none" stroke="black" d="M2305.29,-243C2305.29,-243 2743.1,-243 2743.1,-243"/>
<polygon fill="black" stroke="black" points="2743.1,-246.5 2753.1,-243 2743.1,-239.5 2743.1,-246.5"/>
<text text-anchor="middle" x="2518.54" y="-246.8" font-family="Times,serif" font-size="14.00">SQRT_CONCURRENCY_INCREMENT</text>
</g>
</g>
</svg>
