<?xml version="1.0" encoding="UTF-8" standalone="no"?>
<!DOCTYPE svg PUBLIC "-//W3C//DTD SVG 1.1//EN"
 "http://www.w3.org/Graphics/SVG/1.1/DTD/svg11.dtd">
<!-- Generated by graphviz version 5.0.1 (20220820.1526)
 -->
<!-- Pages: 1 -->
<svg width="3603pt" height="2643pt"
 viewBox="0.00 0.00 3602.92 2643.00" xmlns="http://www.w3.org/2000/svg" xmlns:xlink="http://www.w3.org/1999/xlink">
<g id="graph0" class="graph" transform="scale(1 1) rotate(0) translate(4 2639)">
<polygon fill="white" stroke="none" points="-4,4 -4,-2639 3598.92,-2639 3598.92,4 -4,4"/>
<g id="clust1" class="cluster">
<title>cluster_s27</title>
<polygon fill="none" stroke="black" points="1662.46,-1621 1662.46,-1834 2117.25,-1834 2117.25,-1621 1662.46,-1621"/>
<text text-anchor="middle" x="1889.85" y="-1818.8" font-family="Times,serif" font-size="14.00">ArithmeticCombinator (10)</text>
</g>
<g id="clust4" class="cluster">
<title>cluster_s31</title>
<polygon fill="none" stroke="black" points="1662.46,-2063 1662.46,-2276 2117.25,-2276 2117.25,-2063 1662.46,-2063"/>
<text text-anchor="middle" x="1889.85" y="-2260.8" font-family="Times,serif" font-size="14.00">ArithmeticCombinator (11)</text>
</g>
<g id="clust7" class="cluster">
<title>cluster_s35</title>
<polygon fill="none" stroke="black" points="1662.46,-900 1662.46,-1113 2117.25,-1113 2117.25,-900 1662.46,-900"/>
<text text-anchor="middle" x="1889.85" y="-1097.8" font-family="Times,serif" font-size="14.00">ArithmeticCombinator (12)</text>
</g>
<g id="clust10" class="cluster">
<title>cluster_s39</title>
<polygon fill="none" stroke="black" points="2416.55,-121 2416.55,-334 2949.14,-334 2949.14,-121 2416.55,-121"/>
<text text-anchor="middle" x="2682.84" y="-318.8" font-family="Times,serif" font-size="14.00">ArithmeticCombinator (13)</text>
</g>
<g id="clust13" class="cluster">
<title>cluster_s43</title>
<polygon fill="none" stroke="black" points="3288.38,-465 3288.38,-678 3586.92,-678 3586.92,-465 3288.38,-465"/>
<text text-anchor="middle" x="3437.65" y="-662.8" font-family="Times,serif" font-size="14.00">ArithmeticCombinator (14)</text>
</g>
<g id="clust16" class="cluster">
<title>cluster_s15</title>
<polygon fill="none" stroke="black" points="354.29,-1031 354.29,-1244 672.59,-1244 672.59,-1031 354.29,-1031"/>
<text text-anchor="middle" x="513.44" y="-1228.8" font-family="Times,serif" font-size="14.00">ArithmeticCombinator (7)</text>
</g>
<g id="clust19" class="cluster">
<title>cluster_s19</title>
<polygon fill="none" stroke="black" points="1662.46,-1288 1662.46,-1501 2117.25,-1501 2117.25,-1288 1662.46,-1288"/>
<text text-anchor="middle" x="1889.85" y="-1485.8" font-family="Times,serif" font-size="14.00">ArithmeticCombinator (8)</text>
</g>
<g id="clust22" class="cluster">
<title>cluster_s23</title>
<polygon fill="none" stroke="black" points="1662.46,-1842 1662.46,-2055 2117.25,-2055 2117.25,-1842 1662.46,-1842"/>
<text text-anchor="middle" x="1889.85" y="-2039.8" font-family="Times,serif" font-size="14.00">ArithmeticCombinator (9)</text>
</g>
<g id="clust25" class="cluster">
<title>cluster_s69</title>
<polygon fill="none" stroke="black" points="1021.38,-1453 1021.38,-1998 1405.96,-1998 1405.96,-1453 1021.38,-1453"/>
<text text-anchor="middle" x="1213.67" y="-1982.8" font-family="Times,serif" font-size="14.00">ConcurrencyLimiter (21)</text>
</g>
<g id="clust26" class="cluster">
<title>cluster_s73</title>
<polygon fill="none" stroke="black" points="1088.18,-1503 1088.18,-1662 1339.16,-1662 1339.16,-1503 1088.18,-1503"/>
<text text-anchor="middle" x="1213.67" y="-1646.8" font-family="Times,serif" font-size="14.00">LoadShedActuator (21.LoadShedActuator)</text>
</g>
<g id="clust28" class="cluster">
<title>cluster_s70</title>
<polygon fill="none" stroke="black" points="1071.38,-1712 1071.38,-1925 1355.96,-1925 1355.96,-1712 1071.38,-1712"/>
<text text-anchor="middle" x="1213.67" y="-1909.8" font-family="Times,serif" font-size="14.00">Scheduler (21.Scheduler)</text>
</g>
<g id="clust30" class="cluster">
<title>cluster_s1</title>
<polygon fill="none" stroke="black" points="8,-2301 8,-2460 174.29,-2460 174.29,-2301 8,-2301"/>
<text text-anchor="middle" x="91.15" y="-2444.8" font-family="Times,serif" font-size="14.00">Constant (0)</text>
</g>
<g id="clust32" class="cluster">
<title>cluster_s3</title>
<polygon fill="none" stroke="black" points="1130.52,-2117 1130.52,-2276 1296.82,-2276 1296.82,-2117 1130.52,-2117"/>
<text text-anchor="middle" x="1213.67" y="-2260.8" font-family="Times,serif" font-size="14.00">Constant (1)</text>
</g>
<g id="clust34" class="cluster">
<title>cluster_s5</title>
<polygon fill="none" stroke="black" points="8,-2468 8,-2627 174.29,-2627 174.29,-2468 8,-2468"/>
<text text-anchor="middle" x="91.15" y="-2611.8" font-family="Times,serif" font-size="14.00">Constant (2)</text>
</g>
<g id="clust36" class="cluster">
<title>cluster_s7</title>
<polygon fill="none" stroke="black" points="1950.96,-8 1950.96,-167 2117.25,-167 2117.25,-8 1950.96,-8"/>
<text text-anchor="middle" x="2034.1" y="-151.8" font-family="Times,serif" font-size="14.00">Constant (3)</text>
</g>
<g id="clust38" class="cluster">
<title>cluster_s9</title>
<polygon fill="none" stroke="black" points="1950.96,-1121 1950.96,-1280 2117.25,-1280 2117.25,-1121 1950.96,-1121"/>
<text text-anchor="middle" x="2034.1" y="-1264.8" font-family="Times,serif" font-size="14.00">Constant (4)</text>
</g>
<g id="clust40" class="cluster">
<title>cluster_s11</title>
<polygon fill="none" stroke="black" points="1130.52,-1237 1130.52,-1396 1296.82,-1396 1296.82,-1237 1130.52,-1237"/>
<text text-anchor="middle" x="1213.67" y="-1380.8" font-family="Times,serif" font-size="14.00">Constant (5)</text>
</g>
<g id="clust42" class="cluster">
<title>cluster_s13</title>
<polygon fill="none" stroke="black" points="1950.96,-454 1950.96,-613 2117.25,-613 2117.25,-454 1950.96,-454"/>
<text text-anchor="middle" x="2034.1" y="-597.8" font-family="Times,serif" font-size="14.00">Constant (6)</text>
</g>
<g id="clust44" class="cluster">
<title>cluster_s75</title>
<polygon fill="none" stroke="black" points="2403.25,-834 2403.25,-1155 2949.14,-1155 2949.14,-834 2403.25,-834"/>
<text text-anchor="middle" x="2676.19" y="-1139.8" font-family="Times,serif" font-size="14.00">Decider (22)</text>
</g>
<g id="clust47" class="cluster">
<title>cluster_s81</title>
<polygon fill="none" stroke="black" points="2403.25,-357 2403.25,-678 2949.14,-678 2949.14,-357 2403.25,-357"/>
<text text-anchor="middle" x="2676.19" y="-662.8" font-family="Times,serif" font-size="14.00">Decider (23)</text>
</g>
<g id="clust50" class="cluster">
<title>cluster_s58</title>
<polygon fill="none" stroke="black" points="758.59,-918 758.59,-1131 1296.82,-1131 1296.82,-918 758.59,-918"/>
<text text-anchor="middle" x="1027.7" y="-1115.8" font-family="Times,serif" font-size="14.00">EMA (19)</text>
</g>
<g id="clust53" class="cluster">
<title>cluster_s62</title>
<polygon fill="none" stroke="black" points="3247.14,-1420 3247.14,-1795 3586.92,-1795 3586.92,-1420 3247.14,-1420"/>
<text text-anchor="middle" x="3417.03" y="-1779.8" font-family="Times,serif" font-size="14.00">Gradient (20)</text>
</g>
<g id="clust56" class="cluster">
<title>cluster_s50</title>
<polygon fill="none" stroke="black" points="2411.05,-1684 2411.05,-1843 2949.14,-1843 2949.14,-1684 2411.05,-1684"/>
<text text-anchor="middle" x="2680.09" y="-1827.8" font-family="Times,serif" font-size="14.00">Max (16)</text>
</g>
<g id="clust59" class="cluster">
<title>cluster_s47</title>
<polygon fill="none" stroke="black" points="1656.96,-621 1656.96,-780 2117.25,-780 2117.25,-621 1656.96,-621"/>
<text text-anchor="middle" x="1887.1" y="-764.8" font-family="Times,serif" font-size="14.00">Min (15)</text>
</g>
<g id="clust62" class="cluster">
<title>cluster_s56</title>
<polygon fill="none" stroke="black" points="8,-898 8,-1057 174.29,-1057 174.29,-898 8,-898"/>
<text text-anchor="middle" x="91.15" y="-1041.8" font-family="Times,serif" font-size="14.00">PromQL (18)</text>
</g>
<g id="clust64" class="cluster">
<title>cluster_s53</title>
<polygon fill="none" stroke="black" points="1660.86,-175 1660.86,-334 2117.25,-334 2117.25,-175 1660.86,-175"/>
<text text-anchor="middle" x="1889.05" y="-318.8" font-family="Times,serif" font-size="14.00">Sqrt (17)</text>
</g>
<!-- n28 -->
<g id="node1" class="node">
<title>n28</title>
<ellipse fill="none" stroke="black" cx="1739.46" cy="-1743" rx="27" ry="18"/>
<text text-anchor="middle" x="1739.46" y="-1739.3" font-family="Times,serif" font-size="14.00">lhs</text>
</g>
<!-- n30 -->
<g id="node2" class="node">
<title>n30</title>
<ellipse fill="none" stroke="black" cx="2034.1" cy="-1689" rx="33.29" ry="18"/>
<text text-anchor="middle" x="2034.1" y="-1685.3" font-family="Times,serif" font-size="14.00">output</text>
</g>
<!-- n74 -->
<g id="node25" class="node">
<title>n74</title>
<ellipse fill="none" stroke="black" cx="1213.67" cy="-1571" rx="71.49" ry="18"/>
<text text-anchor="middle" x="1213.67" y="-1567.3" font-family="Times,serif" font-size="14.00">load_shed_factor</text>
</g>
<!-- n30&#45;&gt;n74 -->
<g id="edge44" class="edge">
<title>n30&#45;&gt;n74</title>
<path fill="none" stroke="black" d="M2045.92,-1672.05C2045.92,-1642.23 2045.92,-1583.5 2045.92,-1583.5 2045.92,-1583.5 1275.42,-1583.5 1275.42,-1583.5"/>
<polygon fill="black" stroke="black" points="1275.42,-1580 1265.42,-1583.5 1275.42,-1587 1275.42,-1580"/>
<text text-anchor="middle" x="1739.46" y="-1610.8" font-family="Times,serif" font-size="14.00">LSF</text>
</g>
<!-- n29 -->
<g id="node3" class="node">
<title>n29</title>
<ellipse fill="none" stroke="black" cx="1739.46" cy="-1689" rx="27" ry="18"/>
<text text-anchor="middle" x="1739.46" y="-1685.3" font-family="Times,serif" font-size="14.00">rhs</text>
</g>
<!-- n29&#45;&gt;n30 -->
<!-- n33 -->
<g id="node4" class="node">
<title>n33</title>
<ellipse fill="none" stroke="black" cx="1739.46" cy="-2185" rx="27" ry="18"/>
<text text-anchor="middle" x="1739.46" y="-2181.3" font-family="Times,serif" font-size="14.00">lhs</text>
</g>
<!-- n34 -->
<g id="node5" class="node">
<title>n34</title>
<ellipse fill="none" stroke="black" cx="2034.1" cy="-2158" rx="33.29" ry="18"/>
<text text-anchor="middle" x="2034.1" y="-2154.3" font-family="Times,serif" font-size="14.00">output</text>
</g>
<!-- n33&#45;&gt;n34 -->
<!-- n51 -->
<g id="node54" class="node">
<title>n51</title>
<ellipse fill="none" stroke="black" cx="2493.55" cy="-1752" rx="32.49" ry="18"/>
<text text-anchor="middle" x="2493.55" y="-1748.3" font-family="Times,serif" font-size="14.00">inputs</text>
</g>
<!-- n34&#45;&gt;n51 -->
<g id="edge38" class="edge">
<title>n34&#45;&gt;n51</title>
<path fill="none" stroke="black" d="M2067.54,-2158C2173.35,-2158 2493.92,-2158 2493.92,-2158 2493.92,-2158 2493.92,-1780.23 2493.92,-1780.23"/>
<polygon fill="black" stroke="black" points="2497.42,-1780.23 2493.92,-1770.23 2490.42,-1780.23 2497.42,-1780.23"/>
<text text-anchor="middle" x="2260.25" y="-2100.8" font-family="Times,serif" font-size="14.00">UPPER_CONCURRENCY_LIMIT</text>
</g>
<!-- n32 -->
<g id="node6" class="node">
<title>n32</title>
<ellipse fill="none" stroke="black" cx="1739.46" cy="-2131" rx="27" ry="18"/>
<text text-anchor="middle" x="1739.46" y="-2127.3" font-family="Times,serif" font-size="14.00">rhs</text>
</g>
<!-- n36 -->
<g id="node7" class="node">
<title>n36</title>
<ellipse fill="none" stroke="black" cx="1739.46" cy="-968" rx="27" ry="18"/>
<text text-anchor="middle" x="1739.46" y="-964.3" font-family="Times,serif" font-size="14.00">lhs</text>
</g>
<!-- n38 -->
<g id="node8" class="node">
<title>n38</title>
<ellipse fill="none" stroke="black" cx="2034.1" cy="-1010" rx="33.29" ry="18"/>
<text text-anchor="middle" x="2034.1" y="-1006.3" font-family="Times,serif" font-size="14.00">output</text>
</g>
<!-- n76 -->
<g id="node39" class="node">
<title>n76</title>
<ellipse fill="none" stroke="black" cx="2493.55" cy="-1010" rx="27" ry="18"/>
<text text-anchor="middle" x="2493.55" y="-1006.3" font-family="Times,serif" font-size="14.00">rhs</text>
</g>
<!-- n38&#45;&gt;n76 -->
<g id="edge39" class="edge">
<title>n38&#45;&gt;n76</title>
<path fill="none" stroke="black" d="M2065.68,-1016C2065.68,-1016 2457.87,-1016 2457.87,-1016"/>
<polygon fill="black" stroke="black" points="2457.87,-1019.5 2467.87,-1016 2457.87,-1012.5 2457.87,-1019.5"/>
<text text-anchor="middle" x="2260.25" y="-1013.8" font-family="Times,serif" font-size="14.00">LATENCY_OVERLOAD</text>
</g>
<!-- n85 -->
<g id="node44" class="node">
<title>n85</title>
<ellipse fill="none" stroke="black" cx="2493.55" cy="-587" rx="27" ry="18"/>
<text text-anchor="middle" x="2493.55" y="-583.3" font-family="Times,serif" font-size="14.00">rhs</text>
</g>
<!-- n38&#45;&gt;n85 -->
<g id="edge40" class="edge">
<title>n38&#45;&gt;n85</title>
<path fill="none" stroke="black" d="M2065.64,-1004C2127.96,-1004 2260.92,-1004 2260.92,-1004 2260.92,-1004 2260.92,-587 2260.92,-587 2260.92,-587 2456.4,-587 2456.4,-587"/>
<polygon fill="black" stroke="black" points="2456.4,-590.5 2466.4,-587 2456.4,-583.5 2456.4,-590.5"/>
<text text-anchor="middle" x="2260.25" y="-925.8" font-family="Times,serif" font-size="14.00">LATENCY_OVERLOAD</text>
</g>
<!-- n37 -->
<g id="node9" class="node">
<title>n37</title>
<ellipse fill="none" stroke="black" cx="1739.46" cy="-1022" rx="27" ry="18"/>
<text text-anchor="middle" x="1739.46" y="-1018.3" font-family="Times,serif" font-size="14.00">rhs</text>
</g>
<!-- n37&#45;&gt;n38 -->
<!-- n41 -->
<g id="node10" class="node">
<title>n41</title>
<ellipse fill="none" stroke="black" cx="2493.55" cy="-189" rx="27" ry="18"/>
<text text-anchor="middle" x="2493.55" y="-185.3" font-family="Times,serif" font-size="14.00">lhs</text>
</g>
<!-- n42 -->
<g id="node11" class="node">
<title>n42</title>
<ellipse fill="none" stroke="black" cx="2865.99" cy="-216" rx="33.29" ry="18"/>
<text text-anchor="middle" x="2865.99" y="-212.3" font-family="Times,serif" font-size="14.00">output</text>
</g>
<!-- n41&#45;&gt;n42 -->
<!-- n44 -->
<g id="node13" class="node">
<title>n44</title>
<ellipse fill="none" stroke="black" cx="3365.38" cy="-533" rx="27" ry="18"/>
<text text-anchor="middle" x="3365.38" y="-529.3" font-family="Times,serif" font-size="14.00">lhs</text>
</g>
<!-- n42&#45;&gt;n44 -->
<g id="edge45" class="edge">
<title>n42&#45;&gt;n44</title>
<path fill="none" stroke="black" d="M2899.18,-216C3010.83,-216 3365.92,-216 3365.92,-216 3365.92,-216 3365.92,-504.59 3365.92,-504.59"/>
<polygon fill="black" stroke="black" points="3362.42,-504.59 3365.92,-514.59 3369.42,-504.59 3362.42,-504.59"/>
<text text-anchor="middle" x="3098.14" y="-377.8" font-family="Times,serif" font-size="14.00">CONCURRENCY_INCREMENT_SINGLE_TICK</text>
</g>
<!-- n40 -->
<g id="node12" class="node">
<title>n40</title>
<ellipse fill="none" stroke="black" cx="2493.55" cy="-243" rx="27" ry="18"/>
<text text-anchor="middle" x="2493.55" y="-239.3" font-family="Times,serif" font-size="14.00">rhs</text>
</g>
<!-- n46 -->
<g id="node14" class="node">
<title>n46</title>
<ellipse fill="none" stroke="black" cx="3503.77" cy="-587" rx="33.29" ry="18"/>
<text text-anchor="middle" x="3503.77" y="-583.3" font-family="Times,serif" font-size="14.00">output</text>
</g>
<!-- n48 -->
<g id="node56" class="node">
<title>n48</title>
<ellipse fill="none" stroke="black" cx="1739.46" cy="-689" rx="32.49" ry="18"/>
<text text-anchor="middle" x="1739.46" y="-685.3" font-family="Times,serif" font-size="14.00">inputs</text>
</g>
<!-- n46&#45;&gt;n48 -->
<g id="edge32" class="edge">
<title>n46&#45;&gt;n48</title>
<path fill="none" stroke="black" d="M3503.92,-605.12C3503.92,-619.78 3503.92,-638 3503.92,-638 3503.92,-638 1739.92,-638 1739.92,-638 1739.92,-638 1739.92,-660.88 1739.92,-660.88"/>
<polygon fill="black" stroke="black" points="1736.42,-660.88 1739.92,-670.88 1743.42,-660.88 1736.42,-660.88"/>
<text text-anchor="middle" x="2683.34" y="-749.8" font-family="Times,serif" font-size="14.00">CONCURRENCY_INCREMENT_INTEGRAL</text>
</g>
<!-- n45 -->
<g id="node15" class="node">
<title>n45</title>
<ellipse fill="none" stroke="black" cx="3365.38" cy="-587" rx="27" ry="18"/>
<text text-anchor="middle" x="3365.38" y="-583.3" font-family="Times,serif" font-size="14.00">rhs</text>
</g>
<!-- n45&#45;&gt;n46 -->
<!-- n17 -->
<g id="node16" class="node">
<title>n17</title>
<ellipse fill="none" stroke="black" cx="431.29" cy="-1099" rx="27" ry="18"/>
<text text-anchor="middle" x="431.29" y="-1095.3" font-family="Times,serif" font-size="14.00">lhs</text>
</g>
<!-- n18 -->
<g id="node17" class="node">
<title>n18</title>
<ellipse fill="none" stroke="black" cx="589.44" cy="-1099" rx="33.29" ry="18"/>
<text text-anchor="middle" x="589.44" y="-1095.3" font-family="Times,serif" font-size="14.00">output</text>
</g>
<!-- n17&#45;&gt;n18 -->
<!-- n60 -->
<g id="node46" class="node">
<title>n60</title>
<ellipse fill="none" stroke="black" cx="870.98" cy="-1040" rx="62.29" ry="18"/>
<text text-anchor="middle" x="870.98" y="-1036.3" font-family="Times,serif" font-size="14.00">max_envelope</text>
</g>
<!-- n18&#45;&gt;n60 -->
<g id="edge23" class="edge">
<title>n18&#45;&gt;n60</title>
<path fill="none" stroke="black" d="M589.92,-1080.98C589.92,-1063.63 589.92,-1040 589.92,-1040 589.92,-1040 798.26,-1040 798.26,-1040"/>
<polygon fill="black" stroke="black" points="798.26,-1043.5 808.26,-1040 798.26,-1036.5 798.26,-1043.5"/>
<text text-anchor="middle" x="715.59" y="-1063.8" font-family="Times,serif" font-size="14.00">MAX_EMA</text>
</g>
<!-- n16 -->
<g id="node18" class="node">
<title>n16</title>
<ellipse fill="none" stroke="black" cx="431.29" cy="-1153" rx="27" ry="18"/>
<text text-anchor="middle" x="431.29" y="-1149.3" font-family="Times,serif" font-size="14.00">rhs</text>
</g>
<!-- n21 -->
<g id="node19" class="node">
<title>n21</title>
<ellipse fill="none" stroke="black" cx="1739.46" cy="-1356" rx="27" ry="18"/>
<text text-anchor="middle" x="1739.46" y="-1352.3" font-family="Times,serif" font-size="14.00">lhs</text>
</g>
<!-- n22 -->
<g id="node20" class="node">
<title>n22</title>
<ellipse fill="none" stroke="black" cx="2034.1" cy="-1383" rx="33.29" ry="18"/>
<text text-anchor="middle" x="2034.1" y="-1379.3" font-family="Times,serif" font-size="14.00">output</text>
</g>
<!-- n21&#45;&gt;n22 -->
<!-- n64 -->
<g id="node52" class="node">
<title>n64</title>
<ellipse fill="none" stroke="black" cx="3365.38" cy="-1542" rx="38.19" ry="18"/>
<text text-anchor="middle" x="3365.38" y="-1538.3" font-family="Times,serif" font-size="14.00">setpoint</text>
</g>
<!-- n22&#45;&gt;n64 -->
<g id="edge31" class="edge">
<title>n22&#45;&gt;n64</title>
<path fill="none" stroke="black" d="M2023.92,-1400.24C2023.92,-1440.72 2023.92,-1538.5 2023.92,-1538.5 2023.92,-1538.5 3317.75,-1538.5 3317.75,-1538.5"/>
<polygon fill="black" stroke="black" points="3317.75,-1542 3327.75,-1538.5 3317.75,-1535 3317.75,-1542"/>
<text text-anchor="middle" x="2683.34" y="-1456.8" font-family="Times,serif" font-size="14.00">LATENCY_SETPOINT</text>
</g>
<!-- n20 -->
<g id="node21" class="node">
<title>n20</title>
<ellipse fill="none" stroke="black" cx="1739.46" cy="-1410" rx="27" ry="18"/>
<text text-anchor="middle" x="1739.46" y="-1406.3" font-family="Times,serif" font-size="14.00">rhs</text>
</g>
<!-- n24 -->
<g id="node22" class="node">
<title>n24</title>
<ellipse fill="none" stroke="black" cx="1739.46" cy="-1964" rx="27" ry="18"/>
<text text-anchor="middle" x="1739.46" y="-1960.3" font-family="Times,serif" font-size="14.00">lhs</text>
</g>
<!-- n26 -->
<g id="node23" class="node">
<title>n26</title>
<ellipse fill="none" stroke="black" cx="2034.1" cy="-1910" rx="33.29" ry="18"/>
<text text-anchor="middle" x="2034.1" y="-1906.3" font-family="Times,serif" font-size="14.00">output</text>
</g>
<!-- n26&#45;&gt;n28 -->
<g id="edge37" class="edge">
<title>n26&#45;&gt;n28</title>
<path fill="none" stroke="black" d="M2034.92,-1891.99C2034.92,-1849.68 2034.92,-1747.5 2034.92,-1747.5 2034.92,-1747.5 1775.68,-1747.5 1775.68,-1747.5"/>
<polygon fill="black" stroke="black" points="1775.68,-1744 1765.68,-1747.5 1775.68,-1751 1775.68,-1744"/>
<text text-anchor="middle" x="1866.46" y="-1819.8" font-family="Times,serif" font-size="14.00">DELTA_CONCURRENCY</text>
</g>
<!-- n25 -->
<g id="node24" class="node">
<title>n25</title>
<ellipse fill="none" stroke="black" cx="1739.46" cy="-1910" rx="27" ry="18"/>
<text text-anchor="middle" x="1739.46" y="-1906.3" font-family="Times,serif" font-size="14.00">rhs</text>
</g>
<!-- n25&#45;&gt;n26 -->
<!-- n71 -->
<g id="node26" class="node">
<title>n71</title>
<ellipse fill="none" stroke="black" cx="1213.67" cy="-1780" rx="89.08" ry="18"/>
<text text-anchor="middle" x="1213.67" y="-1776.3" font-family="Times,serif" font-size="14.00">accepted_concurrency</text>
</g>
<!-- n71&#45;&gt;n32 -->
<g id="edge16" class="edge">
<title>n71&#45;&gt;n32</title>
<path fill="none" stroke="black" d="M1291.85,-1788.67C1357.24,-1788.67 1439.92,-1788.67 1439.92,-1788.67 1439.92,-1788.67 1439.92,-2131 1439.92,-2131 1439.92,-2131 1702.35,-2131 1702.35,-2131"/>
<polygon fill="black" stroke="black" points="1702.35,-2134.5 1712.35,-2131 1702.35,-2127.5 1702.35,-2134.5"/>
<text text-anchor="middle" x="1531.46" y="-1791.8" font-family="Times,serif" font-size="14.00">ACCEPTED_CONCURRENCY</text>
</g>
<!-- n67 -->
<g id="node48" class="node">
<title>n67</title>
<ellipse fill="none" stroke="black" cx="3365.38" cy="-1596" rx="68.49" ry="18"/>
<text text-anchor="middle" x="3365.38" y="-1592.3" font-family="Times,serif" font-size="14.00">control_variable</text>
</g>
<!-- n71&#45;&gt;n67 -->
<g id="edge18" class="edge">
<title>n71&#45;&gt;n67</title>
<path fill="none" stroke="black" d="M1296.92,-1773.22C1296.92,-1740.62 1296.92,-1601.5 1296.92,-1601.5 1296.92,-1601.5 3290.35,-1601.5 3290.35,-1601.5"/>
<polygon fill="black" stroke="black" points="3290.35,-1605 3300.35,-1601.5 3290.35,-1598 3290.35,-1605"/>
<text text-anchor="middle" x="2260.25" y="-1564.8" font-family="Times,serif" font-size="14.00">ACCEPTED_CONCURRENCY</text>
</g>
<!-- n54 -->
<g id="node59" class="node">
<title>n54</title>
<ellipse fill="none" stroke="black" cx="1739.46" cy="-243" rx="28.7" ry="18"/>
<text text-anchor="middle" x="1739.46" y="-239.3" font-family="Times,serif" font-size="14.00">input</text>
</g>
<!-- n71&#45;&gt;n54 -->
<g id="edge17" class="edge">
<title>n71&#45;&gt;n54</title>
<path fill="none" stroke="black" d="M1291.92,-1771.36C1291.92,-1647.88 1291.92,-243 1291.92,-243 1291.92,-243 1700.78,-243 1700.78,-243"/>
<polygon fill="black" stroke="black" points="1700.78,-246.5 1710.78,-243 1700.78,-239.5 1700.78,-246.5"/>
<text text-anchor="middle" x="1531.46" y="-1619.8" font-family="Times,serif" font-size="14.00">ACCEPTED_CONCURRENCY</text>
</g>
<!-- n72 -->
<g id="node27" class="node">
<title>n72</title>
<ellipse fill="none" stroke="black" cx="1213.67" cy="-1834" rx="92.08" ry="18"/>
<text text-anchor="middle" x="1213.67" y="-1830.3" font-family="Times,serif" font-size="14.00">incoming_concurrency</text>
</g>
<!-- n72&#45;&gt;n29 -->
<g id="edge20" class="edge">
<title>n72&#45;&gt;n29</title>
<path fill="none" stroke="black" d="M1305.97,-1834C1412.71,-1834 1573.92,-1834 1573.92,-1834 1573.92,-1834 1573.92,-1689 1573.92,-1689 1573.92,-1689 1702.12,-1689 1702.12,-1689"/>
<polygon fill="black" stroke="black" points="1702.12,-1692.5 1712.12,-1689 1702.12,-1685.5 1702.12,-1692.5"/>
<text text-anchor="middle" x="1531.46" y="-1716.8" font-family="Times,serif" font-size="14.00">INCOMING_CONCURRENCY</text>
</g>
<!-- n72&#45;&gt;n24 -->
<g id="edge19" class="edge">
<title>n72&#45;&gt;n24</title>
<path fill="none" stroke="black" d="M1276.92,-1847.42C1276.92,-1880.64 1276.92,-1964 1276.92,-1964 1276.92,-1964 1702.25,-1964 1702.25,-1964"/>
<polygon fill="black" stroke="black" points="1702.25,-1967.5 1712.25,-1964 1702.25,-1960.5 1702.25,-1967.5"/>
<text text-anchor="middle" x="1531.46" y="-1896.8" font-family="Times,serif" font-size="14.00">INCOMING_CONCURRENCY</text>
</g>
<!-- n2 -->
<g id="node28" class="node">
<title>n2</title>
<ellipse fill="none" stroke="black" cx="91.15" cy="-2369" rx="33.29" ry="18"/>
<text text-anchor="middle" x="91.15" y="-2365.3" font-family="Times,serif" font-size="14.00">output</text>
</g>
<!-- n2&#45;&gt;n16 -->
<g id="edge35" class="edge">
<title>n2&#45;&gt;n16</title>
<path fill="none" stroke="black" d="M124.44,-2369C210.19,-2369 431.92,-2369 431.92,-2369 431.92,-2369 431.92,-1181.13 431.92,-1181.13"/>
<polygon fill="black" stroke="black" points="435.42,-1181.13 431.92,-1171.13 428.42,-1181.13 435.42,-1181.13"/>
<text text-anchor="middle" x="264.29" y="-2372.8" font-family="Times,serif" font-size="14.00">EMA_LIMIT_MULTIPLIER</text>
</g>
<!-- n4 -->
<g id="node29" class="node">
<title>n4</title>
<ellipse fill="none" stroke="black" cx="1213.67" cy="-2185" rx="33.29" ry="18"/>
<text text-anchor="middle" x="1213.67" y="-2181.3" font-family="Times,serif" font-size="14.00">output</text>
</g>
<!-- n4&#45;&gt;n33 -->
<g id="edge36" class="edge">
<title>n4&#45;&gt;n33</title>
<path fill="none" stroke="black" d="M1246.96,-2185C1246.96,-2185 1702.15,-2185 1702.15,-2185"/>
<polygon fill="black" stroke="black" points="1702.15,-2188.5 1712.15,-2185 1702.15,-2181.5 1702.15,-2188.5"/>
<text text-anchor="middle" x="1531.46" y="-2188.8" font-family="Times,serif" font-size="14.00">CONCURRENCY_LIMIT_MULTIPLIER</text>
</g>
<!-- n6 -->
<g id="node30" class="node">
<title>n6</title>
<ellipse fill="none" stroke="black" cx="91.15" cy="-2536" rx="33.29" ry="18"/>
<text text-anchor="middle" x="91.15" y="-2532.3" font-family="Times,serif" font-size="14.00">output</text>
</g>
<!-- n8 -->
<g id="node31" class="node">
<title>n8</title>
<ellipse fill="none" stroke="black" cx="2034.1" cy="-76" rx="33.29" ry="18"/>
<text text-anchor="middle" x="2034.1" y="-72.3" font-family="Times,serif" font-size="14.00">output</text>
</g>
<!-- n8&#45;&gt;n41 -->
<g id="edge29" class="edge">
<title>n8&#45;&gt;n41</title>
<path fill="none" stroke="black" d="M2067.54,-76C2173.35,-76 2493.92,-76 2493.92,-76 2493.92,-76 2493.92,-160.84 2493.92,-160.84"/>
<polygon fill="black" stroke="black" points="2490.42,-160.84 2493.92,-170.84 2497.42,-160.84 2490.42,-160.84"/>
<text text-anchor="middle" x="2260.25" y="-136.8" font-family="Times,serif" font-size="14.00">LINEAR_CONCURRENCY_INCREMENT</text>
</g>
<!-- n10 -->
<g id="node32" class="node">
<title>n10</title>
<ellipse fill="none" stroke="black" cx="2034.1" cy="-1189" rx="33.29" ry="18"/>
<text text-anchor="middle" x="2034.1" y="-1185.3" font-family="Times,serif" font-size="14.00">output</text>
</g>
<!-- n77 -->
<g id="node37" class="node">
<title>n77</title>
<ellipse fill="none" stroke="black" cx="2493.55" cy="-1064" rx="37.89" ry="18"/>
<text text-anchor="middle" x="2493.55" y="-1060.3" font-family="Times,serif" font-size="14.00">on_true</text>
</g>
<!-- n10&#45;&gt;n77 -->
<g id="edge30" class="edge">
<title>n10&#45;&gt;n77</title>
<path fill="none" stroke="black" d="M2034.92,-1170.85C2034.92,-1137.42 2034.92,-1069.5 2034.92,-1069.5 2034.92,-1069.5 2447.56,-1069.5 2447.56,-1069.5"/>
<polygon fill="black" stroke="black" points="2447.56,-1073 2457.56,-1069.5 2447.56,-1066 2447.56,-1073"/>
<text text-anchor="middle" x="2260.25" y="-1129.8" font-family="Times,serif" font-size="14.00">CONCURRENCY_INCREMENT_OVERLOAD</text>
</g>
<!-- n12 -->
<g id="node33" class="node">
<title>n12</title>
<ellipse fill="none" stroke="black" cx="1213.67" cy="-1305" rx="33.29" ry="18"/>
<text text-anchor="middle" x="1213.67" y="-1301.3" font-family="Times,serif" font-size="14.00">output</text>
</g>
<!-- n12&#45;&gt;n37 -->
<g id="edge22" class="edge">
<title>n12&#45;&gt;n37</title>
<path fill="none" stroke="black" d="M1247.15,-1305C1364.33,-1305 1748.92,-1305 1748.92,-1305 1748.92,-1305 1748.92,-1049.28 1748.92,-1049.28"/>
<polygon fill="black" stroke="black" points="1752.42,-1049.28 1748.92,-1039.28 1745.42,-1049.28 1752.42,-1049.28"/>
<text text-anchor="middle" x="1531.46" y="-1119.8" font-family="Times,serif" font-size="14.00">TOLERANCE</text>
</g>
<!-- n12&#45;&gt;n20 -->
<g id="edge21" class="edge">
<title>n12&#45;&gt;n20</title>
<path fill="none" stroke="black" d="M1213.92,-1323.29C1213.92,-1353.37 1213.92,-1410 1213.92,-1410 1213.92,-1410 1702.31,-1410 1702.31,-1410"/>
<polygon fill="black" stroke="black" points="1702.31,-1413.5 1712.31,-1410 1702.31,-1406.5 1702.31,-1413.5"/>
<text text-anchor="middle" x="1531.46" y="-1354.8" font-family="Times,serif" font-size="14.00">TOLERANCE</text>
</g>
<!-- n14 -->
<g id="node34" class="node">
<title>n14</title>
<ellipse fill="none" stroke="black" cx="2034.1" cy="-522" rx="33.29" ry="18"/>
<text text-anchor="middle" x="2034.1" y="-518.3" font-family="Times,serif" font-size="14.00">output</text>
</g>
<!-- n82 -->
<g id="node42" class="node">
<title>n82</title>
<ellipse fill="none" stroke="black" cx="2493.55" cy="-479" rx="37.89" ry="18"/>
<text text-anchor="middle" x="2493.55" y="-475.3" font-family="Times,serif" font-size="14.00">on_true</text>
</g>
<!-- n14&#45;&gt;n82 -->
<g id="edge43" class="edge">
<title>n14&#45;&gt;n82</title>
<path fill="none" stroke="black" d="M2058.18,-509.5C2152.79,-509.5 2493.92,-509.5 2493.92,-509.5 2493.92,-509.5 2493.92,-507.09 2493.92,-507.09"/>
<polygon fill="black" stroke="black" points="2497.42,-507.09 2493.92,-497.09 2490.42,-507.09 2497.42,-507.09"/>
<text text-anchor="middle" x="2260.25" y="-503.8" font-family="Times,serif" font-size="14.00">ZERO</text>
</g>
<!-- n79 -->
<g id="node35" class="node">
<title>n79</title>
<ellipse fill="none" stroke="black" cx="2493.55" cy="-956" rx="27" ry="18"/>
<text text-anchor="middle" x="2493.55" y="-952.3" font-family="Times,serif" font-size="14.00">lhs</text>
</g>
<!-- n80 -->
<g id="node38" class="node">
<title>n80</title>
<ellipse fill="none" stroke="black" cx="2865.99" cy="-1037" rx="33.29" ry="18"/>
<text text-anchor="middle" x="2865.99" y="-1033.3" font-family="Times,serif" font-size="14.00">output</text>
</g>
<!-- n79&#45;&gt;n80 -->
<!-- n78 -->
<g id="node36" class="node">
<title>n78</title>
<ellipse fill="none" stroke="black" cx="2493.55" cy="-902" rx="40.09" ry="18"/>
<text text-anchor="middle" x="2493.55" y="-898.3" font-family="Times,serif" font-size="14.00">on_false</text>
</g>
<!-- n65 -->
<g id="node50" class="node">
<title>n65</title>
<ellipse fill="none" stroke="black" cx="3365.38" cy="-1488" rx="42.49" ry="18"/>
<text text-anchor="middle" x="3365.38" y="-1484.3" font-family="Times,serif" font-size="14.00">optimize</text>
</g>
<!-- n80&#45;&gt;n65 -->
<g id="edge34" class="edge">
<title>n80&#45;&gt;n65</title>
<path fill="none" stroke="black" d="M2899.43,-1037C3006.03,-1037 3330.92,-1037 3330.92,-1037 3330.92,-1037 3330.92,-1467.3 3330.92,-1467.3"/>
<polygon fill="black" stroke="black" points="3327.42,-1467.3 3330.92,-1477.3 3334.42,-1467.3 3327.42,-1467.3"/>
<text text-anchor="middle" x="3098.14" y="-1222.8" font-family="Times,serif" font-size="14.00">CONCURRENCY_INCREMENT</text>
</g>
<!-- n84 -->
<g id="node40" class="node">
<title>n84</title>
<ellipse fill="none" stroke="black" cx="2493.55" cy="-425" rx="27" ry="18"/>
<text text-anchor="middle" x="2493.55" y="-421.3" font-family="Times,serif" font-size="14.00">lhs</text>
</g>
<!-- n83 -->
<g id="node41" class="node">
<title>n83</title>
<ellipse fill="none" stroke="black" cx="2493.55" cy="-533" rx="40.09" ry="18"/>
<text text-anchor="middle" x="2493.55" y="-529.3" font-family="Times,serif" font-size="14.00">on_false</text>
</g>
<!-- n86 -->
<g id="node43" class="node">
<title>n86</title>
<ellipse fill="none" stroke="black" cx="2865.99" cy="-587" rx="33.29" ry="18"/>
<text text-anchor="middle" x="2865.99" y="-583.3" font-family="Times,serif" font-size="14.00">output</text>
</g>
<!-- n86&#45;&gt;n45 -->
<g id="edge42" class="edge">
<title>n86&#45;&gt;n45</title>
<path fill="none" stroke="black" d="M2899.14,-587C2899.14,-587 3328.19,-587 3328.19,-587"/>
<polygon fill="black" stroke="black" points="3328.19,-590.5 3338.19,-587 3328.19,-583.5 3328.19,-590.5"/>
<text text-anchor="middle" x="3098.14" y="-590.8" font-family="Times,serif" font-size="14.00">CONCURRENCY_INCREMENT_FEEDBACK</text>
</g>
<!-- n85&#45;&gt;n86 -->
<!-- n59 -->
<g id="node45" class="node">
<title>n59</title>
<ellipse fill="none" stroke="black" cx="870.98" cy="-986" rx="28.7" ry="18"/>
<text text-anchor="middle" x="870.98" y="-982.3" font-family="Times,serif" font-size="14.00">input</text>
</g>
<!-- n61 -->
<g id="node47" class="node">
<title>n61</title>
<ellipse fill="none" stroke="black" cx="1213.67" cy="-1040" rx="33.29" ry="18"/>
<text text-anchor="middle" x="1213.67" y="-1036.3" font-family="Times,serif" font-size="14.00">output</text>
</g>
<!-- n60&#45;&gt;n61 -->
<!-- n61&#45;&gt;n36 -->
<g id="edge49" class="edge">
<title>n61&#45;&gt;n36</title>
<path fill="none" stroke="black" d="M1213.92,-1021.78C1213.92,-1003.17 1213.92,-977 1213.92,-977 1213.92,-977 1705.86,-977 1705.86,-977"/>
<polygon fill="black" stroke="black" points="1705.86,-980.5 1715.86,-977 1705.86,-973.5 1705.86,-980.5"/>
<text text-anchor="middle" x="1531.46" y="-1007.8" font-family="Times,serif" font-size="14.00">LATENCY_EMA</text>
</g>
<!-- n61&#45;&gt;n21 -->
<g id="edge48" class="edge">
<title>n61&#45;&gt;n21</title>
<path fill="none" stroke="black" d="M1238.62,-1052C1341.94,-1052 1730.92,-1052 1730.92,-1052 1730.92,-1052 1730.92,-1328.78 1730.92,-1328.78"/>
<polygon fill="black" stroke="black" points="1727.42,-1328.78 1730.92,-1338.78 1734.42,-1328.78 1727.42,-1328.78"/>
<text text-anchor="middle" x="1531.46" y="-1252.8" font-family="Times,serif" font-size="14.00">LATENCY_EMA</text>
</g>
<!-- n68 -->
<g id="node51" class="node">
<title>n68</title>
<ellipse fill="none" stroke="black" cx="3503.77" cy="-1650" rx="33.29" ry="18"/>
<text text-anchor="middle" x="3503.77" y="-1646.3" font-family="Times,serif" font-size="14.00">output</text>
</g>
<!-- n67&#45;&gt;n68 -->
<!-- n66 -->
<g id="node49" class="node">
<title>n66</title>
<ellipse fill="none" stroke="black" cx="3365.38" cy="-1650" rx="27" ry="18"/>
<text text-anchor="middle" x="3365.38" y="-1646.3" font-family="Times,serif" font-size="14.00">max</text>
</g>
<!-- n68&#45;&gt;n25 -->
<g id="edge50" class="edge">
<title>n68&#45;&gt;n25</title>
<path fill="none" stroke="black" d="M3503.92,-1668.26C3503.92,-1703.91 3503.92,-1779.33 3503.92,-1779.33 3503.92,-1779.33 1739.92,-1779.33 1739.92,-1779.33 1739.92,-1779.33 1739.92,-1881.83 1739.92,-1881.83"/>
<polygon fill="black" stroke="black" points="1736.42,-1881.83 1739.92,-1891.83 1743.42,-1881.83 1736.42,-1881.83"/>
<text text-anchor="middle" x="2683.34" y="-2006.8" font-family="Times,serif" font-size="14.00">DESIRED_CONCURRENCY</text>
</g>
<!-- n63 -->
<g id="node53" class="node">
<title>n63</title>
<ellipse fill="none" stroke="black" cx="3365.38" cy="-1704" rx="31.7" ry="18"/>
<text text-anchor="middle" x="3365.38" y="-1700.3" font-family="Times,serif" font-size="14.00">signal</text>
</g>
<!-- n52 -->
<g id="node55" class="node">
<title>n52</title>
<ellipse fill="none" stroke="black" cx="2865.99" cy="-1752" rx="33.29" ry="18"/>
<text text-anchor="middle" x="2865.99" y="-1748.3" font-family="Times,serif" font-size="14.00">output</text>
</g>
<!-- n51&#45;&gt;n52 -->
<!-- n52&#45;&gt;n66 -->
<g id="edge41" class="edge">
<title>n52&#45;&gt;n66</title>
<path fill="none" stroke="black" d="M2866.92,-1733.76C2866.92,-1704.43 2866.92,-1650 2866.92,-1650 2866.92,-1650 3328.23,-1650 3328.23,-1650"/>
<polygon fill="black" stroke="black" points="3328.23,-1653.5 3338.23,-1650 3328.23,-1646.5 3328.23,-1653.5"/>
<text text-anchor="middle" x="3098.14" y="-1687.8" font-family="Times,serif" font-size="14.00">MAX_CONCURRENCY</text>
</g>
<!-- n49 -->
<g id="node57" class="node">
<title>n49</title>
<ellipse fill="none" stroke="black" cx="2034.1" cy="-689" rx="33.29" ry="18"/>
<text text-anchor="middle" x="2034.1" y="-685.3" font-family="Times,serif" font-size="14.00">output</text>
</g>
<!-- n48&#45;&gt;n49 -->
<!-- n49&#45;&gt;n78 -->
<g id="edge46" class="edge">
<title>n49&#45;&gt;n78</title>
<path fill="none" stroke="black" d="M2065.61,-695C2163.83,-695 2457.92,-695 2457.92,-695 2457.92,-695 2457.92,-883.37 2457.92,-883.37"/>
<polygon fill="black" stroke="black" points="2454.42,-883.37 2457.92,-893.37 2461.42,-883.37 2454.42,-883.37"/>
<text text-anchor="middle" x="2260.25" y="-798.8" font-family="Times,serif" font-size="14.00">CONCURRENCY_INCREMENT_NORMAL</text>
</g>
<!-- n49&#45;&gt;n83 -->
<g id="edge47" class="edge">
<title>n49&#45;&gt;n83</title>
<path fill="none" stroke="black" d="M2065.63,-683C2164.66,-683 2462.92,-683 2462.92,-683 2462.92,-683 2462.92,-554.77 2462.92,-554.77"/>
<polygon fill="black" stroke="black" points="2466.42,-554.77 2462.92,-544.77 2459.42,-554.77 2466.42,-554.77"/>
<text text-anchor="middle" x="2260.25" y="-614.8" font-family="Times,serif" font-size="14.00">CONCURRENCY_INCREMENT_NORMAL</text>
</g>
<!-- n57 -->
<g id="node58" class="node">
<title>n57</title>
<ellipse fill="none" stroke="black" cx="91.15" cy="-966" rx="33.29" ry="18"/>
<text text-anchor="middle" x="91.15" y="-962.3" font-family="Times,serif" font-size="14.00">output</text>
</g>
<!-- n57&#45;&gt;n17 -->
<g id="edge24" class="edge">
<title>n57&#45;&gt;n17</title>
<path fill="none" stroke="black" d="M114.84,-978.67C192.12,-978.67 431.92,-978.67 431.92,-978.67 431.92,-978.67 431.92,-1070.98 431.92,-1070.98"/>
<polygon fill="black" stroke="black" points="428.42,-1070.98 431.92,-1080.98 435.42,-1070.98 428.42,-1070.98"/>
<text text-anchor="middle" x="264.29" y="-1052.8" font-family="Times,serif" font-size="14.00">LATENCY</text>
</g>
<!-- n57&#45;&gt;n79 -->
<g id="edge27" class="edge">
<title>n57&#45;&gt;n79</title>
<path fill="none" stroke="black" d="M102.92,-948.8C102.92,-945.48 102.92,-943 102.92,-943 102.92,-943 2464.65,-943 2464.65,-943"/>
<polygon fill="black" stroke="black" points="2464.65,-946.5 2474.65,-943 2464.65,-939.5 2464.65,-946.5"/>
<text text-anchor="middle" x="982.38" y="-843.8" font-family="Times,serif" font-size="14.00">LATENCY</text>
</g>
<!-- n57&#45;&gt;n84 -->
<g id="edge28" class="edge">
<title>n57&#45;&gt;n84</title>
<path fill="none" stroke="black" d="M80.92,-948.61C80.92,-856.01 80.92,-425 80.92,-425 80.92,-425 2456.45,-425 2456.45,-425"/>
<polygon fill="black" stroke="black" points="2456.45,-428.5 2466.45,-425 2456.45,-421.5 2456.45,-428.5"/>
<text text-anchor="middle" x="982.38" y="-397.8" font-family="Times,serif" font-size="14.00">LATENCY</text>
</g>
<!-- n57&#45;&gt;n59 -->
<g id="edge25" class="edge">
<title>n57&#45;&gt;n59</title>
<path fill="none" stroke="black" d="M121.72,-973.33C121.72,-973.33 840.66,-973.33 840.66,-973.33"/>
<polygon fill="black" stroke="black" points="840.66,-976.83 850.66,-973.33 840.66,-969.83 840.66,-976.83"/>
<text text-anchor="middle" x="507.29" y="-969.8" font-family="Times,serif" font-size="14.00">LATENCY</text>
</g>
<!-- n57&#45;&gt;n63 -->
<g id="edge26" class="edge">
<title>n57&#45;&gt;n63</title>
<path fill="none" stroke="black" d="M91.92,-984.13C91.92,-1098.44 91.92,-1714.5 91.92,-1714.5 91.92,-1714.5 3329.51,-1714.5 3329.51,-1714.5"/>
<polygon fill="black" stroke="black" points="3329.51,-1718 3339.51,-1714.5 3329.51,-1711 3329.51,-1718"/>
<text text-anchor="middle" x="1531.46" y="-2339.8" font-family="Times,serif" font-size="14.00">LATENCY</text>
</g>
<!-- n55 -->
<g id="node60" class="node">
<title>n55</title>
<ellipse fill="none" stroke="black" cx="2034.1" cy="-243" rx="33.29" ry="18"/>
<text text-anchor="middle" x="2034.1" y="-239.3" font-family="Times,serif" font-size="14.00">output</text>
</g>
<!-- n54&#45;&gt;n55 -->
<!-- n55&#45;&gt;n40 -->
<g id="edge33" class="edge">
<title>n55&#45;&gt;n40</title>
<path fill="none" stroke="black" d="M2067.51,-243C2067.51,-243 2456.48,-243 2456.48,-243"/>
<polygon fill="black" stroke="black" points="2456.48,-246.5 2466.48,-243 2456.48,-239.5 2456.48,-246.5"/>
<text text-anchor="middle" x="2260.25" y="-246.8" font-family="Times,serif" font-size="14.00">SQRT_CONCURRENCY_INCREMENT</text>
</g>
</g>
</svg>
