<?xml version="1.0" encoding="UTF-8" standalone="no"?>
<!DOCTYPE svg PUBLIC "-//W3C//DTD SVG 1.1//EN"
 "http://www.w3.org/Graphics/SVG/1.1/DTD/svg11.dtd">
<!-- Generated by graphviz version 5.0.1 (20220820.1526)
 -->
<!-- Pages: 1 -->
<svg width="3603pt" height="2694pt"
 viewBox="0.00 0.00 3602.92 2694.00" xmlns="http://www.w3.org/2000/svg" xmlns:xlink="http://www.w3.org/1999/xlink">
<g id="graph0" class="graph" transform="scale(1 1) rotate(0) translate(4 2690)">
<polygon fill="white" stroke="none" points="-4,4 -4,-2690 3598.92,-2690 3598.92,4 -4,4"/>
<g id="clust1" class="cluster">
<title>cluster_s27</title>
<polygon fill="none" stroke="black" points="1662.46,-1672 1662.46,-1885 2117.25,-1885 2117.25,-1672 1662.46,-1672"/>
<text text-anchor="middle" x="1889.85" y="-1869.8" font-family="Times,serif" font-size="14.00">ArithmeticCombinator (10)</text>
</g>
<g id="clust4" class="cluster">
<title>cluster_s31</title>
<polygon fill="none" stroke="black" points="1662.46,-2114 1662.46,-2327 2117.25,-2327 2117.25,-2114 1662.46,-2114"/>
<text text-anchor="middle" x="1889.85" y="-2311.8" font-family="Times,serif" font-size="14.00">ArithmeticCombinator (11)</text>
</g>
<g id="clust7" class="cluster">
<title>cluster_s35</title>
<polygon fill="none" stroke="black" points="1662.46,-900 1662.46,-1113 2117.25,-1113 2117.25,-900 1662.46,-900"/>
<text text-anchor="middle" x="1889.85" y="-1097.8" font-family="Times,serif" font-size="14.00">ArithmeticCombinator (12)</text>
</g>
<g id="clust10" class="cluster">
<title>cluster_s39</title>
<polygon fill="none" stroke="black" points="2416.55,-121 2416.55,-334 2949.14,-334 2949.14,-121 2416.55,-121"/>
<text text-anchor="middle" x="2682.84" y="-318.8" font-family="Times,serif" font-size="14.00">ArithmeticCombinator (13)</text>
</g>
<g id="clust13" class="cluster">
<title>cluster_s43</title>
<polygon fill="none" stroke="black" points="3288.38,-411 3288.38,-624 3586.92,-624 3586.92,-411 3288.38,-411"/>
<text text-anchor="middle" x="3437.65" y="-608.8" font-family="Times,serif" font-size="14.00">ArithmeticCombinator (14)</text>
</g>
<g id="clust16" class="cluster">
<title>cluster_s15</title>
<polygon fill="none" stroke="black" points="354.29,-1032 354.29,-1245 672.59,-1245 672.59,-1032 354.29,-1032"/>
<text text-anchor="middle" x="513.44" y="-1229.8" font-family="Times,serif" font-size="14.00">ArithmeticCombinator (7)</text>
</g>
<g id="clust19" class="cluster">
<title>cluster_s19</title>
<polygon fill="none" stroke="black" points="1662.46,-1288 1662.46,-1501 2117.25,-1501 2117.25,-1288 1662.46,-1288"/>
<text text-anchor="middle" x="1889.85" y="-1485.8" font-family="Times,serif" font-size="14.00">ArithmeticCombinator (8)</text>
</g>
<g id="clust22" class="cluster">
<title>cluster_s23</title>
<polygon fill="none" stroke="black" points="1662.46,-1893 1662.46,-2106 2117.25,-2106 2117.25,-1893 1662.46,-1893"/>
<text text-anchor="middle" x="1889.85" y="-2090.8" font-family="Times,serif" font-size="14.00">ArithmeticCombinator (9)</text>
</g>
<g id="clust25" class="cluster">
<title>cluster_s69</title>
<polygon fill="none" stroke="black" points="1021.38,-1431 1021.38,-1976 1405.96,-1976 1405.96,-1431 1021.38,-1431"/>
<text text-anchor="middle" x="1213.67" y="-1960.8" font-family="Times,serif" font-size="14.00">ConcurrencyLimiter (21)</text>
</g>
<g id="clust26" class="cluster">
<title>cluster_s73</title>
<polygon fill="none" stroke="black" points="1088.18,-1481 1088.18,-1640 1339.16,-1640 1339.16,-1481 1088.18,-1481"/>
<text text-anchor="middle" x="1213.67" y="-1624.8" font-family="Times,serif" font-size="14.00">LoadShedActuator (21.LoadShedActuator)</text>
</g>
<g id="clust28" class="cluster">
<title>cluster_s70</title>
<polygon fill="none" stroke="black" points="1071.38,-1690 1071.38,-1903 1355.96,-1903 1355.96,-1690 1071.38,-1690"/>
<text text-anchor="middle" x="1213.67" y="-1887.8" font-family="Times,serif" font-size="14.00">Scheduler (21.Scheduler)</text>
</g>
<g id="clust30" class="cluster">
<title>cluster_s1</title>
<polygon fill="none" stroke="black" points="8,-2352 8,-2511 174.29,-2511 174.29,-2352 8,-2352"/>
<text text-anchor="middle" x="91.15" y="-2495.8" font-family="Times,serif" font-size="14.00">Constant (0)</text>
</g>
<g id="clust32" class="cluster">
<title>cluster_s3</title>
<polygon fill="none" stroke="black" points="1130.52,-2168 1130.52,-2327 1296.82,-2327 1296.82,-2168 1130.52,-2168"/>
<text text-anchor="middle" x="1213.67" y="-2311.8" font-family="Times,serif" font-size="14.00">Constant (1)</text>
</g>
<g id="clust34" class="cluster">
<title>cluster_s5</title>
<polygon fill="none" stroke="black" points="8,-2519 8,-2678 174.29,-2678 174.29,-2519 8,-2519"/>
<text text-anchor="middle" x="91.15" y="-2662.8" font-family="Times,serif" font-size="14.00">Constant (2)</text>
</g>
<g id="clust36" class="cluster">
<title>cluster_s7</title>
<polygon fill="none" stroke="black" points="1950.96,-8 1950.96,-167 2117.25,-167 2117.25,-8 1950.96,-8"/>
<text text-anchor="middle" x="2034.1" y="-151.8" font-family="Times,serif" font-size="14.00">Constant (3)</text>
</g>
<g id="clust38" class="cluster">
<title>cluster_s9</title>
<polygon fill="none" stroke="black" points="1950.96,-1121 1950.96,-1280 2117.25,-1280 2117.25,-1121 1950.96,-1121"/>
<text text-anchor="middle" x="2034.1" y="-1264.8" font-family="Times,serif" font-size="14.00">Constant (4)</text>
</g>
<g id="clust40" class="cluster">
<title>cluster_s11</title>
<polygon fill="none" stroke="black" points="1130.52,-1185 1130.52,-1344 1296.82,-1344 1296.82,-1185 1130.52,-1185"/>
<text text-anchor="middle" x="1213.67" y="-1328.8" font-family="Times,serif" font-size="14.00">Constant (5)</text>
</g>
<g id="clust42" class="cluster">
<title>cluster_s13</title>
<polygon fill="none" stroke="black" points="1950.96,-454 1950.96,-613 2117.25,-613 2117.25,-454 1950.96,-454"/>
<text text-anchor="middle" x="2034.1" y="-597.8" font-family="Times,serif" font-size="14.00">Constant (6)</text>
</g>
<g id="clust44" class="cluster">
<title>cluster_s75</title>
<polygon fill="none" stroke="black" points="2403.25,-834 2403.25,-1155 2949.14,-1155 2949.14,-834 2403.25,-834"/>
<text text-anchor="middle" x="2676.19" y="-1139.8" font-family="Times,serif" font-size="14.00">Decider (22)</text>
</g>
<g id="clust47" class="cluster">
<title>cluster_s81</title>
<polygon fill="none" stroke="black" points="2403.25,-357 2403.25,-678 2949.14,-678 2949.14,-357 2403.25,-357"/>
<text text-anchor="middle" x="2676.19" y="-662.8" font-family="Times,serif" font-size="14.00">Decider (23)</text>
</g>
<g id="clust50" class="cluster">
<title>cluster_s58</title>
<polygon fill="none" stroke="black" points="758.59,-925 758.59,-1138 1296.82,-1138 1296.82,-925 758.59,-925"/>
<text text-anchor="middle" x="1027.7" y="-1122.8" font-family="Times,serif" font-size="14.00">EMA (19)</text>
</g>
<g id="clust53" class="cluster">
<title>cluster_s62</title>
<polygon fill="none" stroke="black" points="3247.14,-1483 3247.14,-1858 3586.92,-1858 3586.92,-1483 3247.14,-1483"/>
<text text-anchor="middle" x="3417.03" y="-1842.8" font-family="Times,serif" font-size="14.00">Gradient (20)</text>
</g>
<g id="clust56" class="cluster">
<title>cluster_s50</title>
<polygon fill="none" stroke="black" points="2411.05,-1735 2411.05,-1894 2949.14,-1894 2949.14,-1735 2411.05,-1735"/>
<text text-anchor="middle" x="2680.09" y="-1878.8" font-family="Times,serif" font-size="14.00">Max (16)</text>
</g>
<g id="clust59" class="cluster">
<title>cluster_s47</title>
<polygon fill="none" stroke="black" points="1656.96,-621 1656.96,-780 2117.25,-780 2117.25,-621 1656.96,-621"/>
<text text-anchor="middle" x="1887.1" y="-764.8" font-family="Times,serif" font-size="14.00">Min (15)</text>
</g>
<g id="clust62" class="cluster">
<title>cluster_s56</title>
<polygon fill="none" stroke="black" points="8,-899 8,-1058 174.29,-1058 174.29,-899 8,-899"/>
<text text-anchor="middle" x="91.15" y="-1042.8" font-family="Times,serif" font-size="14.00">PromQL (18)</text>
</g>
<g id="clust64" class="cluster">
<title>cluster_s53</title>
<polygon fill="none" stroke="black" points="1660.86,-175 1660.86,-334 2117.25,-334 2117.25,-175 1660.86,-175"/>
<text text-anchor="middle" x="1889.05" y="-318.8" font-family="Times,serif" font-size="14.00">Sqrt (17)</text>
</g>
<!-- n28 -->
<g id="node1" class="node">
<title>n28</title>
<ellipse fill="none" stroke="black" cx="1739.46" cy="-1794" rx="27" ry="18"/>
<text text-anchor="middle" x="1739.46" y="-1790.3" font-family="Times,serif" font-size="14.00">lhs</text>
</g>
<!-- n30 -->
<g id="node2" class="node">
<title>n30</title>
<ellipse fill="none" stroke="black" cx="2034.1" cy="-1740" rx="33.29" ry="18"/>
<text text-anchor="middle" x="2034.1" y="-1736.3" font-family="Times,serif" font-size="14.00">output</text>
</g>
<!-- n74 -->
<g id="node25" class="node">
<title>n74</title>
<ellipse fill="none" stroke="black" cx="1213.67" cy="-1549" rx="71.49" ry="18"/>
<text text-anchor="middle" x="1213.67" y="-1545.3" font-family="Times,serif" font-size="14.00">load_shed_factor</text>
</g>
<!-- n30&#45;&gt;n74 -->
<g id="edge32" class="edge">
<title>n30&#45;&gt;n74</title>
<path fill="none" stroke="black" d="M2023.92,-1722.8C2023.92,-1676.03 2023.92,-1550 2023.92,-1550 2023.92,-1550 1295.22,-1550 1295.22,-1550"/>
<polygon fill="black" stroke="black" points="1295.22,-1546.5 1285.22,-1550 1295.22,-1553.5 1295.22,-1546.5"/>
<text text-anchor="middle" x="1739.46" y="-1572.8" font-family="Times,serif" font-size="14.00">LSF</text>
</g>
<!-- n29 -->
<g id="node3" class="node">
<title>n29</title>
<ellipse fill="none" stroke="black" cx="1739.46" cy="-1740" rx="27" ry="18"/>
<text text-anchor="middle" x="1739.46" y="-1736.3" font-family="Times,serif" font-size="14.00">rhs</text>
</g>
<!-- n29&#45;&gt;n30 -->
<!-- n32 -->
<g id="node4" class="node">
<title>n32</title>
<ellipse fill="none" stroke="black" cx="1739.46" cy="-2236" rx="27" ry="18"/>
<text text-anchor="middle" x="1739.46" y="-2232.3" font-family="Times,serif" font-size="14.00">lhs</text>
</g>
<!-- n34 -->
<g id="node5" class="node">
<title>n34</title>
<ellipse fill="none" stroke="black" cx="2034.1" cy="-2182" rx="33.29" ry="18"/>
<text text-anchor="middle" x="2034.1" y="-2178.3" font-family="Times,serif" font-size="14.00">output</text>
</g>
<!-- n51 -->
<g id="node54" class="node">
<title>n51</title>
<ellipse fill="none" stroke="black" cx="2493.55" cy="-1803" rx="32.49" ry="18"/>
<text text-anchor="middle" x="2493.55" y="-1799.3" font-family="Times,serif" font-size="14.00">inputs</text>
</g>
<!-- n34&#45;&gt;n51 -->
<g id="edge33" class="edge">
<title>n34&#45;&gt;n51</title>
<path fill="none" stroke="black" d="M2067.54,-2182C2173.35,-2182 2493.92,-2182 2493.92,-2182 2493.92,-2182 2493.92,-1831.02 2493.92,-1831.02"/>
<polygon fill="black" stroke="black" points="2497.42,-1831.02 2493.92,-1821.02 2490.42,-1831.03 2497.42,-1831.02"/>
<text text-anchor="middle" x="2260.25" y="-2137.8" font-family="Times,serif" font-size="14.00">UPPER_CONCURRENCY_LIMIT</text>
</g>
<!-- n33 -->
<g id="node6" class="node">
<title>n33</title>
<ellipse fill="none" stroke="black" cx="1739.46" cy="-2182" rx="27" ry="18"/>
<text text-anchor="middle" x="1739.46" y="-2178.3" font-family="Times,serif" font-size="14.00">rhs</text>
</g>
<!-- n33&#45;&gt;n34 -->
<!-- n36 -->
<g id="node7" class="node">
<title>n36</title>
<ellipse fill="none" stroke="black" cx="1739.46" cy="-968" rx="27" ry="18"/>
<text text-anchor="middle" x="1739.46" y="-964.3" font-family="Times,serif" font-size="14.00">lhs</text>
</g>
<!-- n38 -->
<g id="node8" class="node">
<title>n38</title>
<ellipse fill="none" stroke="black" cx="2034.1" cy="-1010" rx="33.29" ry="18"/>
<text text-anchor="middle" x="2034.1" y="-1006.3" font-family="Times,serif" font-size="14.00">output</text>
</g>
<!-- n78 -->
<g id="node39" class="node">
<title>n78</title>
<ellipse fill="none" stroke="black" cx="2493.55" cy="-1010" rx="27" ry="18"/>
<text text-anchor="middle" x="2493.55" y="-1006.3" font-family="Times,serif" font-size="14.00">rhs</text>
</g>
<!-- n38&#45;&gt;n78 -->
<g id="edge26" class="edge">
<title>n38&#45;&gt;n78</title>
<path fill="none" stroke="black" d="M2065.68,-1016C2065.68,-1016 2457.87,-1016 2457.87,-1016"/>
<polygon fill="black" stroke="black" points="2457.87,-1019.5 2467.87,-1016 2457.87,-1012.5 2457.87,-1019.5"/>
<text text-anchor="middle" x="2260.25" y="-1013.8" font-family="Times,serif" font-size="14.00">LATENCY_OVERLOAD</text>
</g>
<!-- n83 -->
<g id="node44" class="node">
<title>n83</title>
<ellipse fill="none" stroke="black" cx="2493.55" cy="-587" rx="27" ry="18"/>
<text text-anchor="middle" x="2493.55" y="-583.3" font-family="Times,serif" font-size="14.00">rhs</text>
</g>
<!-- n38&#45;&gt;n83 -->
<g id="edge27" class="edge">
<title>n38&#45;&gt;n83</title>
<path fill="none" stroke="black" d="M2065.64,-1004C2127.96,-1004 2260.92,-1004 2260.92,-1004 2260.92,-1004 2260.92,-587 2260.92,-587 2260.92,-587 2456.4,-587 2456.4,-587"/>
<polygon fill="black" stroke="black" points="2456.4,-590.5 2466.4,-587 2456.4,-583.5 2456.4,-590.5"/>
<text text-anchor="middle" x="2260.25" y="-926.8" font-family="Times,serif" font-size="14.00">LATENCY_OVERLOAD</text>
</g>
<!-- n37 -->
<g id="node9" class="node">
<title>n37</title>
<ellipse fill="none" stroke="black" cx="1739.46" cy="-1022" rx="27" ry="18"/>
<text text-anchor="middle" x="1739.46" y="-1018.3" font-family="Times,serif" font-size="14.00">rhs</text>
</g>
<!-- n37&#45;&gt;n38 -->
<!-- n40 -->
<g id="node10" class="node">
<title>n40</title>
<ellipse fill="none" stroke="black" cx="2493.55" cy="-189" rx="27" ry="18"/>
<text text-anchor="middle" x="2493.55" y="-185.3" font-family="Times,serif" font-size="14.00">lhs</text>
</g>
<!-- n42 -->
<g id="node11" class="node">
<title>n42</title>
<ellipse fill="none" stroke="black" cx="2865.99" cy="-243" rx="33.29" ry="18"/>
<text text-anchor="middle" x="2865.99" y="-239.3" font-family="Times,serif" font-size="14.00">output</text>
</g>
<!-- n45 -->
<g id="node13" class="node">
<title>n45</title>
<ellipse fill="none" stroke="black" cx="3365.38" cy="-479" rx="27" ry="18"/>
<text text-anchor="middle" x="3365.38" y="-475.3" font-family="Times,serif" font-size="14.00">lhs</text>
</g>
<!-- n42&#45;&gt;n45 -->
<g id="edge46" class="edge">
<title>n42&#45;&gt;n45</title>
<path fill="none" stroke="black" d="M2899.18,-243C3010.83,-243 3365.92,-243 3365.92,-243 3365.92,-243 3365.92,-450.87 3365.92,-450.87"/>
<polygon fill="black" stroke="black" points="3362.42,-450.87 3365.92,-460.87 3369.42,-450.87 3362.42,-450.87"/>
<text text-anchor="middle" x="3098.14" y="-364.8" font-family="Times,serif" font-size="14.00">CONCURRENCY_INCREMENT_SINGLE_TICK</text>
</g>
<!-- n41 -->
<g id="node12" class="node">
<title>n41</title>
<ellipse fill="none" stroke="black" cx="2493.55" cy="-243" rx="27" ry="18"/>
<text text-anchor="middle" x="2493.55" y="-239.3" font-family="Times,serif" font-size="14.00">rhs</text>
</g>
<!-- n41&#45;&gt;n42 -->
<!-- n46 -->
<g id="node14" class="node">
<title>n46</title>
<ellipse fill="none" stroke="black" cx="3503.77" cy="-506" rx="33.29" ry="18"/>
<text text-anchor="middle" x="3503.77" y="-502.3" font-family="Times,serif" font-size="14.00">output</text>
</g>
<!-- n45&#45;&gt;n46 -->
<!-- n48 -->
<g id="node56" class="node">
<title>n48</title>
<ellipse fill="none" stroke="black" cx="1739.46" cy="-689" rx="32.49" ry="18"/>
<text text-anchor="middle" x="1739.46" y="-685.3" font-family="Times,serif" font-size="14.00">inputs</text>
</g>
<!-- n46&#45;&gt;n48 -->
<g id="edge28" class="edge">
<title>n46&#45;&gt;n48</title>
<path fill="none" stroke="black" d="M3472.03,-500.5C3234.17,-500.5 1739.92,-500.5 1739.92,-500.5 1739.92,-500.5 1739.92,-660.93 1739.92,-660.93"/>
<polygon fill="black" stroke="black" points="1736.42,-660.93 1739.92,-670.93 1743.42,-660.93 1736.42,-660.93"/>
<text text-anchor="middle" x="2683.34" y="-749.8" font-family="Times,serif" font-size="14.00">CONCURRENCY_INCREMENT_INTEGRAL</text>
</g>
<!-- n44 -->
<g id="node15" class="node">
<title>n44</title>
<ellipse fill="none" stroke="black" cx="3365.38" cy="-533" rx="27" ry="18"/>
<text text-anchor="middle" x="3365.38" y="-529.3" font-family="Times,serif" font-size="14.00">rhs</text>
</g>
<!-- n16 -->
<g id="node16" class="node">
<title>n16</title>
<ellipse fill="none" stroke="black" cx="431.29" cy="-1100" rx="27" ry="18"/>
<text text-anchor="middle" x="431.29" y="-1096.3" font-family="Times,serif" font-size="14.00">lhs</text>
</g>
<!-- n18 -->
<g id="node17" class="node">
<title>n18</title>
<ellipse fill="none" stroke="black" cx="589.44" cy="-1127" rx="33.29" ry="18"/>
<text text-anchor="middle" x="589.44" y="-1123.3" font-family="Times,serif" font-size="14.00">output</text>
</g>
<!-- n60 -->
<g id="node46" class="node">
<title>n60</title>
<ellipse fill="none" stroke="black" cx="870.98" cy="-1047" rx="62.29" ry="18"/>
<text text-anchor="middle" x="870.98" y="-1043.3" font-family="Times,serif" font-size="14.00">max_envelope</text>
</g>
<!-- n18&#45;&gt;n60 -->
<g id="edge45" class="edge">
<title>n18&#45;&gt;n60</title>
<path fill="none" stroke="black" d="M589.92,-1108.85C589.92,-1085.24 589.92,-1047 589.92,-1047 589.92,-1047 798.26,-1047 798.26,-1047"/>
<polygon fill="black" stroke="black" points="798.26,-1050.5 808.26,-1047 798.26,-1043.5 798.26,-1050.5"/>
<text text-anchor="middle" x="715.59" y="-1077.8" font-family="Times,serif" font-size="14.00">MAX_EMA</text>
</g>
<!-- n17 -->
<g id="node18" class="node">
<title>n17</title>
<ellipse fill="none" stroke="black" cx="431.29" cy="-1154" rx="27" ry="18"/>
<text text-anchor="middle" x="431.29" y="-1150.3" font-family="Times,serif" font-size="14.00">rhs</text>
</g>
<!-- n17&#45;&gt;n18 -->
<!-- n20 -->
<g id="node19" class="node">
<title>n20</title>
<ellipse fill="none" stroke="black" cx="1739.46" cy="-1356" rx="27" ry="18"/>
<text text-anchor="middle" x="1739.46" y="-1352.3" font-family="Times,serif" font-size="14.00">lhs</text>
</g>
<!-- n22 -->
<g id="node20" class="node">
<title>n22</title>
<ellipse fill="none" stroke="black" cx="2034.1" cy="-1410" rx="33.29" ry="18"/>
<text text-anchor="middle" x="2034.1" y="-1406.3" font-family="Times,serif" font-size="14.00">output</text>
</g>
<!-- n64 -->
<g id="node52" class="node">
<title>n64</title>
<ellipse fill="none" stroke="black" cx="3365.38" cy="-1605" rx="38.19" ry="18"/>
<text text-anchor="middle" x="3365.38" y="-1601.3" font-family="Times,serif" font-size="14.00">setpoint</text>
</g>
<!-- n22&#45;&gt;n64 -->
<g id="edge48" class="edge">
<title>n22&#45;&gt;n64</title>
<path fill="none" stroke="black" d="M2045.92,-1426.96C2045.92,-1474.41 2045.92,-1605 2045.92,-1605 2045.92,-1605 3316.96,-1605 3316.96,-1605"/>
<polygon fill="black" stroke="black" points="3316.96,-1608.5 3326.96,-1605 3316.96,-1601.5 3316.96,-1608.5"/>
<text text-anchor="middle" x="2683.34" y="-1495.8" font-family="Times,serif" font-size="14.00">LATENCY_SETPOINT</text>
</g>
<!-- n21 -->
<g id="node21" class="node">
<title>n21</title>
<ellipse fill="none" stroke="black" cx="1739.46" cy="-1410" rx="27" ry="18"/>
<text text-anchor="middle" x="1739.46" y="-1406.3" font-family="Times,serif" font-size="14.00">rhs</text>
</g>
<!-- n21&#45;&gt;n22 -->
<!-- n25 -->
<g id="node22" class="node">
<title>n25</title>
<ellipse fill="none" stroke="black" cx="1739.46" cy="-1961" rx="27" ry="18"/>
<text text-anchor="middle" x="1739.46" y="-1957.3" font-family="Times,serif" font-size="14.00">lhs</text>
</g>
<!-- n26 -->
<g id="node23" class="node">
<title>n26</title>
<ellipse fill="none" stroke="black" cx="2034.1" cy="-1961" rx="33.29" ry="18"/>
<text text-anchor="middle" x="2034.1" y="-1957.3" font-family="Times,serif" font-size="14.00">output</text>
</g>
<!-- n25&#45;&gt;n26 -->
<!-- n26&#45;&gt;n28 -->
<g id="edge25" class="edge">
<title>n26&#45;&gt;n28</title>
<path fill="none" stroke="black" d="M2034.92,-1942.99C2034.92,-1900.68 2034.92,-1798.5 2034.92,-1798.5 2034.92,-1798.5 1775.68,-1798.5 1775.68,-1798.5"/>
<polygon fill="black" stroke="black" points="1775.68,-1795 1765.68,-1798.5 1775.68,-1802 1775.68,-1795"/>
<text text-anchor="middle" x="1866.46" y="-1870.8" font-family="Times,serif" font-size="14.00">DELTA_CONCURRENCY</text>
</g>
<!-- n24 -->
<g id="node24" class="node">
<title>n24</title>
<ellipse fill="none" stroke="black" cx="1739.46" cy="-2015" rx="27" ry="18"/>
<text text-anchor="middle" x="1739.46" y="-2011.3" font-family="Times,serif" font-size="14.00">rhs</text>
</g>
<!-- n72 -->
<g id="node26" class="node">
<title>n72</title>
<ellipse fill="none" stroke="black" cx="1213.67" cy="-1758" rx="89.08" ry="18"/>
<text text-anchor="middle" x="1213.67" y="-1754.3" font-family="Times,serif" font-size="14.00">accepted_concurrency</text>
</g>
<!-- n72&#45;&gt;n33 -->
<g id="edge16" class="edge">
<title>n72&#45;&gt;n33</title>
<path fill="none" stroke="black" d="M1280.17,-1770C1336.07,-1770 1406.92,-1770 1406.92,-1770 1406.92,-1770 1406.92,-2182 1406.92,-2182 1406.92,-2182 1702.24,-2182 1702.24,-2182"/>
<polygon fill="black" stroke="black" points="1702.24,-2185.5 1712.24,-2182 1702.24,-2178.5 1702.24,-2185.5"/>
<text text-anchor="middle" x="1531.46" y="-1852.8" font-family="Times,serif" font-size="14.00">ACCEPTED_CONCURRENCY</text>
</g>
<!-- n67 -->
<g id="node48" class="node">
<title>n67</title>
<ellipse fill="none" stroke="black" cx="3365.38" cy="-1659" rx="68.49" ry="18"/>
<text text-anchor="middle" x="3365.38" y="-1655.3" font-family="Times,serif" font-size="14.00">control_variable</text>
</g>
<!-- n72&#45;&gt;n67 -->
<g id="edge18" class="edge">
<title>n72&#45;&gt;n67</title>
<path fill="none" stroke="black" d="M1296.92,-1751.5C1296.92,-1729.48 1296.92,-1659 1296.92,-1659 1296.92,-1659 3286.85,-1659 3286.85,-1659"/>
<polygon fill="black" stroke="black" points="3286.85,-1662.5 3296.85,-1659 3286.85,-1655.5 3286.85,-1662.5"/>
<text text-anchor="middle" x="2260.25" y="-1615.8" font-family="Times,serif" font-size="14.00">ACCEPTED_CONCURRENCY</text>
</g>
<!-- n54 -->
<g id="node59" class="node">
<title>n54</title>
<ellipse fill="none" stroke="black" cx="1739.46" cy="-243" rx="28.7" ry="18"/>
<text text-anchor="middle" x="1739.46" y="-239.3" font-family="Times,serif" font-size="14.00">input</text>
</g>
<!-- n72&#45;&gt;n54 -->
<g id="edge17" class="edge">
<title>n72&#45;&gt;n54</title>
<path fill="none" stroke="black" d="M1291.92,-1749.1C1291.92,-1624.94 1291.92,-243 1291.92,-243 1291.92,-243 1700.78,-243 1700.78,-243"/>
<polygon fill="black" stroke="black" points="1700.78,-246.5 1710.78,-243 1700.78,-239.5 1700.78,-246.5"/>
<text text-anchor="middle" x="1531.46" y="-1465.8" font-family="Times,serif" font-size="14.00">ACCEPTED_CONCURRENCY</text>
</g>
<!-- n71 -->
<g id="node27" class="node">
<title>n71</title>
<ellipse fill="none" stroke="black" cx="1213.67" cy="-1812" rx="92.08" ry="18"/>
<text text-anchor="middle" x="1213.67" y="-1808.3" font-family="Times,serif" font-size="14.00">incoming_concurrency</text>
</g>
<!-- n71&#45;&gt;n29 -->
<g id="edge20" class="edge">
<title>n71&#45;&gt;n29</title>
<path fill="none" stroke="black" d="M1293.72,-1803C1408.7,-1803 1606.92,-1803 1606.92,-1803 1606.92,-1803 1606.92,-1749 1606.92,-1749 1606.92,-1749 1706.07,-1749 1706.07,-1749"/>
<polygon fill="black" stroke="black" points="1706.07,-1752.5 1716.07,-1749 1706.07,-1745.5 1706.07,-1752.5"/>
<text text-anchor="middle" x="1531.46" y="-1769.8" font-family="Times,serif" font-size="14.00">INCOMING_CONCURRENCY</text>
</g>
<!-- n71&#45;&gt;n25 -->
<g id="edge19" class="edge">
<title>n71&#45;&gt;n25</title>
<path fill="none" stroke="black" d="M1274.81,-1825.5C1413.48,-1825.5 1739.92,-1825.5 1739.92,-1825.5 1739.92,-1825.5 1739.92,-1932.73 1739.92,-1932.73"/>
<polygon fill="black" stroke="black" points="1736.42,-1932.73 1739.92,-1942.73 1743.42,-1932.73 1736.42,-1932.73"/>
<text text-anchor="middle" x="1531.46" y="-1939.8" font-family="Times,serif" font-size="14.00">INCOMING_CONCURRENCY</text>
</g>
<!-- n2 -->
<g id="node28" class="node">
<title>n2</title>
<ellipse fill="none" stroke="black" cx="91.15" cy="-2420" rx="33.29" ry="18"/>
<text text-anchor="middle" x="91.15" y="-2416.3" font-family="Times,serif" font-size="14.00">output</text>
</g>
<!-- n2&#45;&gt;n17 -->
<g id="edge42" class="edge">
<title>n2&#45;&gt;n17</title>
<path fill="none" stroke="black" d="M124.44,-2420C210.19,-2420 431.92,-2420 431.92,-2420 431.92,-2420 431.92,-1182.38 431.92,-1182.38"/>
<polygon fill="black" stroke="black" points="435.42,-1182.38 431.92,-1172.38 428.42,-1182.38 435.42,-1182.38"/>
<text text-anchor="middle" x="264.29" y="-2423.8" font-family="Times,serif" font-size="14.00">EMA_LIMIT_MULTIPLIER</text>
</g>
<!-- n4 -->
<g id="node29" class="node">
<title>n4</title>
<ellipse fill="none" stroke="black" cx="1213.67" cy="-2236" rx="33.29" ry="18"/>
<text text-anchor="middle" x="1213.67" y="-2232.3" font-family="Times,serif" font-size="14.00">output</text>
</g>
<!-- n4&#45;&gt;n32 -->
<g id="edge21" class="edge">
<title>n4&#45;&gt;n32</title>
<path fill="none" stroke="black" d="M1246.96,-2236C1246.96,-2236 1702.15,-2236 1702.15,-2236"/>
<polygon fill="black" stroke="black" points="1702.15,-2239.5 1712.15,-2236 1702.15,-2232.5 1702.15,-2239.5"/>
<text text-anchor="middle" x="1531.46" y="-2239.8" font-family="Times,serif" font-size="14.00">CONCURRENCY_LIMIT_MULTIPLIER</text>
</g>
<!-- n6 -->
<g id="node30" class="node">
<title>n6</title>
<ellipse fill="none" stroke="black" cx="91.15" cy="-2587" rx="33.29" ry="18"/>
<text text-anchor="middle" x="91.15" y="-2583.3" font-family="Times,serif" font-size="14.00">output</text>
</g>
<!-- n8 -->
<g id="node31" class="node">
<title>n8</title>
<ellipse fill="none" stroke="black" cx="2034.1" cy="-76" rx="33.29" ry="18"/>
<text text-anchor="middle" x="2034.1" y="-72.3" font-family="Times,serif" font-size="14.00">output</text>
</g>
<!-- n8&#45;&gt;n40 -->
<g id="edge43" class="edge">
<title>n8&#45;&gt;n40</title>
<path fill="none" stroke="black" d="M2067.54,-76C2173.35,-76 2493.92,-76 2493.92,-76 2493.92,-76 2493.92,-160.84 2493.92,-160.84"/>
<polygon fill="black" stroke="black" points="2490.42,-160.84 2493.92,-170.84 2497.42,-160.84 2490.42,-160.84"/>
<text text-anchor="middle" x="2260.25" y="-136.8" font-family="Times,serif" font-size="14.00">LINEAR_CONCURRENCY_INCREMENT</text>
</g>
<!-- n10 -->
<g id="node32" class="node">
<title>n10</title>
<ellipse fill="none" stroke="black" cx="2034.1" cy="-1189" rx="33.29" ry="18"/>
<text text-anchor="middle" x="2034.1" y="-1185.3" font-family="Times,serif" font-size="14.00">output</text>
</g>
<!-- n79 -->
<g id="node37" class="node">
<title>n79</title>
<ellipse fill="none" stroke="black" cx="2493.55" cy="-1064" rx="37.89" ry="18"/>
<text text-anchor="middle" x="2493.55" y="-1060.3" font-family="Times,serif" font-size="14.00">on_true</text>
</g>
<!-- n10&#45;&gt;n79 -->
<g id="edge22" class="edge">
<title>n10&#45;&gt;n79</title>
<path fill="none" stroke="black" d="M2034.92,-1170.95C2034.92,-1138.47 2034.92,-1073.5 2034.92,-1073.5 2034.92,-1073.5 2451.3,-1073.5 2451.3,-1073.5"/>
<polygon fill="black" stroke="black" points="2451.3,-1077 2461.3,-1073.5 2451.3,-1070 2451.3,-1077"/>
<text text-anchor="middle" x="2260.25" y="-1129.8" font-family="Times,serif" font-size="14.00">CONCURRENCY_INCREMENT_OVERLOAD</text>
</g>
<!-- n12 -->
<g id="node33" class="node">
<title>n12</title>
<ellipse fill="none" stroke="black" cx="1213.67" cy="-1253" rx="33.29" ry="18"/>
<text text-anchor="middle" x="1213.67" y="-1249.3" font-family="Times,serif" font-size="14.00">output</text>
</g>
<!-- n12&#45;&gt;n37 -->
<g id="edge24" class="edge">
<title>n12&#45;&gt;n37</title>
<path fill="none" stroke="black" d="M1247.15,-1253C1364.33,-1253 1748.92,-1253 1748.92,-1253 1748.92,-1253 1748.92,-1048.99 1748.92,-1048.99"/>
<polygon fill="black" stroke="black" points="1752.42,-1048.99 1748.92,-1038.99 1745.42,-1048.99 1752.42,-1048.99"/>
<text text-anchor="middle" x="1531.46" y="-1106.8" font-family="Times,serif" font-size="14.00">TOLERANCE</text>
</g>
<!-- n12&#45;&gt;n21 -->
<g id="edge23" class="edge">
<title>n12&#45;&gt;n21</title>
<path fill="none" stroke="black" d="M1213.92,-1271.01C1213.92,-1312.25 1213.92,-1410 1213.92,-1410 1213.92,-1410 1702.31,-1410 1702.31,-1410"/>
<polygon fill="black" stroke="black" points="1702.31,-1413.5 1712.31,-1410 1702.31,-1406.5 1702.31,-1413.5"/>
<text text-anchor="middle" x="1531.46" y="-1313.8" font-family="Times,serif" font-size="14.00">TOLERANCE</text>
</g>
<!-- n14 -->
<g id="node34" class="node">
<title>n14</title>
<ellipse fill="none" stroke="black" cx="2034.1" cy="-522" rx="33.29" ry="18"/>
<text text-anchor="middle" x="2034.1" y="-518.3" font-family="Times,serif" font-size="14.00">output</text>
</g>
<!-- n84 -->
<g id="node42" class="node">
<title>n84</title>
<ellipse fill="none" stroke="black" cx="2493.55" cy="-479" rx="37.89" ry="18"/>
<text text-anchor="middle" x="2493.55" y="-475.3" font-family="Times,serif" font-size="14.00">on_true</text>
</g>
<!-- n14&#45;&gt;n84 -->
<g id="edge44" class="edge">
<title>n14&#45;&gt;n84</title>
<path fill="none" stroke="black" d="M2058.18,-509.5C2152.79,-509.5 2493.92,-509.5 2493.92,-509.5 2493.92,-509.5 2493.92,-507.09 2493.92,-507.09"/>
<polygon fill="black" stroke="black" points="2497.42,-507.09 2493.92,-497.09 2490.42,-507.09 2497.42,-507.09"/>
<text text-anchor="middle" x="2260.25" y="-507.8" font-family="Times,serif" font-size="14.00">ZERO</text>
</g>
<!-- n77 -->
<g id="node35" class="node">
<title>n77</title>
<ellipse fill="none" stroke="black" cx="2493.55" cy="-956" rx="27" ry="18"/>
<text text-anchor="middle" x="2493.55" y="-952.3" font-family="Times,serif" font-size="14.00">lhs</text>
</g>
<!-- n76 -->
<g id="node36" class="node">
<title>n76</title>
<ellipse fill="none" stroke="black" cx="2493.55" cy="-902" rx="40.09" ry="18"/>
<text text-anchor="middle" x="2493.55" y="-898.3" font-family="Times,serif" font-size="14.00">on_false</text>
</g>
<!-- n80 -->
<g id="node38" class="node">
<title>n80</title>
<ellipse fill="none" stroke="black" cx="2865.99" cy="-1064" rx="33.29" ry="18"/>
<text text-anchor="middle" x="2865.99" y="-1060.3" font-family="Times,serif" font-size="14.00">output</text>
</g>
<!-- n79&#45;&gt;n80 -->
<!-- n65 -->
<g id="node50" class="node">
<title>n65</title>
<ellipse fill="none" stroke="black" cx="3365.38" cy="-1551" rx="42.49" ry="18"/>
<text text-anchor="middle" x="3365.38" y="-1547.3" font-family="Times,serif" font-size="14.00">optimize</text>
</g>
<!-- n80&#45;&gt;n65 -->
<g id="edge41" class="edge">
<title>n80&#45;&gt;n65</title>
<path fill="none" stroke="black" d="M2899.43,-1064C3006.03,-1064 3330.92,-1064 3330.92,-1064 3330.92,-1064 3330.92,-1530.38 3330.92,-1530.38"/>
<polygon fill="black" stroke="black" points="3327.42,-1530.38 3330.92,-1540.38 3334.42,-1530.38 3327.42,-1530.38"/>
<text text-anchor="middle" x="3098.14" y="-1220.8" font-family="Times,serif" font-size="14.00">CONCURRENCY_INCREMENT</text>
</g>
<!-- n82 -->
<g id="node40" class="node">
<title>n82</title>
<ellipse fill="none" stroke="black" cx="2493.55" cy="-425" rx="27" ry="18"/>
<text text-anchor="middle" x="2493.55" y="-421.3" font-family="Times,serif" font-size="14.00">lhs</text>
</g>
<!-- n85 -->
<g id="node41" class="node">
<title>n85</title>
<ellipse fill="none" stroke="black" cx="2493.55" cy="-533" rx="40.09" ry="18"/>
<text text-anchor="middle" x="2493.55" y="-529.3" font-family="Times,serif" font-size="14.00">on_false</text>
</g>
<!-- n86 -->
<g id="node43" class="node">
<title>n86</title>
<ellipse fill="none" stroke="black" cx="2865.99" cy="-533" rx="33.29" ry="18"/>
<text text-anchor="middle" x="2865.99" y="-529.3" font-family="Times,serif" font-size="14.00">output</text>
</g>
<!-- n85&#45;&gt;n86 -->
<!-- n86&#45;&gt;n44 -->
<g id="edge47" class="edge">
<title>n86&#45;&gt;n44</title>
<path fill="none" stroke="black" d="M2899.14,-533C2899.14,-533 3328.19,-533 3328.19,-533"/>
<polygon fill="black" stroke="black" points="3328.19,-536.5 3338.19,-533 3328.19,-529.5 3328.19,-536.5"/>
<text text-anchor="middle" x="3098.14" y="-536.8" font-family="Times,serif" font-size="14.00">CONCURRENCY_INCREMENT_FEEDBACK</text>
</g>
<!-- n59 -->
<g id="node45" class="node">
<title>n59</title>
<ellipse fill="none" stroke="black" cx="870.98" cy="-993" rx="28.7" ry="18"/>
<text text-anchor="middle" x="870.98" y="-989.3" font-family="Times,serif" font-size="14.00">input</text>
</g>
<!-- n61 -->
<g id="node47" class="node">
<title>n61</title>
<ellipse fill="none" stroke="black" cx="1213.67" cy="-1047" rx="33.29" ry="18"/>
<text text-anchor="middle" x="1213.67" y="-1043.3" font-family="Times,serif" font-size="14.00">output</text>
</g>
<!-- n60&#45;&gt;n61 -->
<!-- n61&#45;&gt;n36 -->
<g id="edge30" class="edge">
<title>n61&#45;&gt;n36</title>
<path fill="none" stroke="black" d="M1213.92,-1028.83C1213.92,-1009.14 1213.92,-980.5 1213.92,-980.5 1213.92,-980.5 1709.82,-980.5 1709.82,-980.5"/>
<polygon fill="black" stroke="black" points="1709.82,-984 1719.82,-980.5 1709.82,-977 1709.82,-984"/>
<text text-anchor="middle" x="1531.46" y="-1010.8" font-family="Times,serif" font-size="14.00">LATENCY_EMA</text>
</g>
<!-- n61&#45;&gt;n20 -->
<g id="edge29" class="edge">
<title>n61&#45;&gt;n20</title>
<path fill="none" stroke="black" d="M1242.96,-1055.5C1352.38,-1055.5 1730.92,-1055.5 1730.92,-1055.5 1730.92,-1055.5 1730.92,-1328.54 1730.92,-1328.54"/>
<polygon fill="black" stroke="black" points="1727.42,-1328.54 1730.92,-1338.54 1734.42,-1328.55 1727.42,-1328.54"/>
<text text-anchor="middle" x="1531.46" y="-1231.8" font-family="Times,serif" font-size="14.00">LATENCY_EMA</text>
</g>
<!-- n68 -->
<g id="node51" class="node">
<title>n68</title>
<ellipse fill="none" stroke="black" cx="3503.77" cy="-1740" rx="33.29" ry="18"/>
<text text-anchor="middle" x="3503.77" y="-1736.3" font-family="Times,serif" font-size="14.00">output</text>
</g>
<!-- n67&#45;&gt;n68 -->
<!-- n66 -->
<g id="node49" class="node">
<title>n66</title>
<ellipse fill="none" stroke="black" cx="3365.38" cy="-1713" rx="27" ry="18"/>
<text text-anchor="middle" x="3365.38" y="-1709.3" font-family="Times,serif" font-size="14.00">max</text>
</g>
<!-- n68&#45;&gt;n24 -->
<g id="edge31" class="edge">
<title>n68&#45;&gt;n24</title>
<path fill="none" stroke="black" d="M3503.92,-1758.04C3503.92,-1819.22 3503.92,-2015 3503.92,-2015 3503.92,-2015 1776.47,-2015 1776.47,-2015"/>
<polygon fill="black" stroke="black" points="1776.47,-2011.5 1766.47,-2015 1776.47,-2018.5 1776.47,-2011.5"/>
<text text-anchor="middle" x="2683.34" y="-2057.8" font-family="Times,serif" font-size="14.00">DESIRED_CONCURRENCY</text>
</g>
<!-- n63 -->
<g id="node53" class="node">
<title>n63</title>
<ellipse fill="none" stroke="black" cx="3365.38" cy="-1767" rx="31.7" ry="18"/>
<text text-anchor="middle" x="3365.38" y="-1763.3" font-family="Times,serif" font-size="14.00">signal</text>
</g>
<!-- n52 -->
<g id="node55" class="node">
<title>n52</title>
<ellipse fill="none" stroke="black" cx="2865.99" cy="-1803" rx="33.29" ry="18"/>
<text text-anchor="middle" x="2865.99" y="-1799.3" font-family="Times,serif" font-size="14.00">output</text>
</g>
<!-- n51&#45;&gt;n52 -->
<!-- n52&#45;&gt;n66 -->
<g id="edge34" class="edge">
<title>n52&#45;&gt;n66</title>
<path fill="none" stroke="black" d="M2866.92,-1784.87C2866.92,-1762.25 2866.92,-1726.5 2866.92,-1726.5 2866.92,-1726.5 3337.35,-1726.5 3337.35,-1726.5"/>
<polygon fill="black" stroke="black" points="3337.35,-1730 3347.35,-1726.5 3337.35,-1723 3337.35,-1730"/>
<text text-anchor="middle" x="3098.14" y="-1746.8" font-family="Times,serif" font-size="14.00">MAX_CONCURRENCY</text>
</g>
<!-- n49 -->
<g id="node57" class="node">
<title>n49</title>
<ellipse fill="none" stroke="black" cx="2034.1" cy="-689" rx="33.29" ry="18"/>
<text text-anchor="middle" x="2034.1" y="-685.3" font-family="Times,serif" font-size="14.00">output</text>
</g>
<!-- n48&#45;&gt;n49 -->
<!-- n49&#45;&gt;n76 -->
<g id="edge49" class="edge">
<title>n49&#45;&gt;n76</title>
<path fill="none" stroke="black" d="M2065.61,-695C2163.83,-695 2457.92,-695 2457.92,-695 2457.92,-695 2457.92,-883.37 2457.92,-883.37"/>
<polygon fill="black" stroke="black" points="2454.42,-883.37 2457.92,-893.37 2461.42,-883.37 2454.42,-883.37"/>
<text text-anchor="middle" x="2260.25" y="-798.8" font-family="Times,serif" font-size="14.00">CONCURRENCY_INCREMENT_NORMAL</text>
</g>
<!-- n49&#45;&gt;n85 -->
<g id="edge50" class="edge">
<title>n49&#45;&gt;n85</title>
<path fill="none" stroke="black" d="M2065.63,-683C2164.66,-683 2462.92,-683 2462.92,-683 2462.92,-683 2462.92,-554.77 2462.92,-554.77"/>
<polygon fill="black" stroke="black" points="2466.42,-554.77 2462.92,-544.77 2459.42,-554.77 2466.42,-554.77"/>
<text text-anchor="middle" x="2260.25" y="-553.8" font-family="Times,serif" font-size="14.00">CONCURRENCY_INCREMENT_NORMAL</text>
</g>
<!-- n57 -->
<g id="node58" class="node">
<title>n57</title>
<ellipse fill="none" stroke="black" cx="91.15" cy="-967" rx="33.29" ry="18"/>
<text text-anchor="middle" x="91.15" y="-963.3" font-family="Times,serif" font-size="14.00">output</text>
</g>
<!-- n57&#45;&gt;n16 -->
<g id="edge36" class="edge">
<title>n57&#45;&gt;n16</title>
<path fill="none" stroke="black" d="M110.44,-981.67C182.53,-981.67 431.92,-981.67 431.92,-981.67 431.92,-981.67 431.92,-1071.77 431.92,-1071.77"/>
<polygon fill="black" stroke="black" points="428.42,-1071.77 431.92,-1081.77 435.42,-1071.77 428.42,-1071.77"/>
<text text-anchor="middle" x="264.29" y="-1053.8" font-family="Times,serif" font-size="14.00">LATENCY</text>
</g>
<!-- n57&#45;&gt;n77 -->
<g id="edge39" class="edge">
<title>n57&#45;&gt;n77</title>
<path fill="none" stroke="black" d="M102.92,-950.17C102.92,-946.4 102.92,-943.5 102.92,-943.5 102.92,-943.5 2463.95,-943.5 2463.95,-943.5"/>
<polygon fill="black" stroke="black" points="2463.95,-947 2473.95,-943.5 2463.95,-940 2463.95,-947"/>
<text text-anchor="middle" x="982.38" y="-843.8" font-family="Times,serif" font-size="14.00">LATENCY</text>
</g>
<!-- n57&#45;&gt;n82 -->
<g id="edge40" class="edge">
<title>n57&#45;&gt;n82</title>
<path fill="none" stroke="black" d="M80.92,-949.58C80.92,-856.81 80.92,-425 80.92,-425 80.92,-425 2456.45,-425 2456.45,-425"/>
<polygon fill="black" stroke="black" points="2456.45,-428.5 2466.45,-425 2456.45,-421.5 2456.45,-428.5"/>
<text text-anchor="middle" x="982.38" y="-397.8" font-family="Times,serif" font-size="14.00">LATENCY</text>
</g>
<!-- n57&#45;&gt;n59 -->
<g id="edge37" class="edge">
<title>n57&#45;&gt;n59</title>
<path fill="none" stroke="black" d="M117.09,-978.33C117.09,-978.33 844.31,-978.33 844.31,-978.33"/>
<polygon fill="black" stroke="black" points="844.31,-981.83 854.31,-978.33 844.31,-974.83 844.31,-981.83"/>
<text text-anchor="middle" x="507.29" y="-970.8" font-family="Times,serif" font-size="14.00">LATENCY</text>
</g>
<!-- n57&#45;&gt;n63 -->
<g id="edge38" class="edge">
<title>n57&#45;&gt;n63</title>
<path fill="none" stroke="black" d="M123.38,-962.5C334.12,-962.5 1506.92,-962.5 1506.92,-962.5 1506.92,-962.5 1506.92,-1764 1506.92,-1764 1506.92,-1764 3323.9,-1764 3323.9,-1764"/>
<polygon fill="black" stroke="black" points="3323.9,-1767.5 3333.9,-1764 3323.9,-1760.5 3323.9,-1767.5"/>
<text text-anchor="middle" x="1531.46" y="-2390.8" font-family="Times,serif" font-size="14.00">LATENCY</text>
</g>
<!-- n55 -->
<g id="node60" class="node">
<title>n55</title>
<ellipse fill="none" stroke="black" cx="2034.1" cy="-243" rx="33.29" ry="18"/>
<text text-anchor="middle" x="2034.1" y="-239.3" font-family="Times,serif" font-size="14.00">output</text>
</g>
<!-- n54&#45;&gt;n55 -->
<!-- n55&#45;&gt;n41 -->
<g id="edge35" class="edge">
<title>n55&#45;&gt;n41</title>
<path fill="none" stroke="black" d="M2067.51,-243C2067.51,-243 2456.48,-243 2456.48,-243"/>
<polygon fill="black" stroke="black" points="2456.48,-246.5 2466.48,-243 2456.48,-239.5 2456.48,-246.5"/>
<text text-anchor="middle" x="2260.25" y="-246.8" font-family="Times,serif" font-size="14.00">SQRT_CONCURRENCY_INCREMENT</text>
</g>
</g>
</svg>
