<svg xmlns="http://www.w3.org/2000/svg" viewBox="0 0 750 400"><defs><style>.c,.d{fill:#c7c4c1}.e{fill:#f27a40}.f{fill:#56524d}.g{fill:#2e2b29}.h{stroke-miterlimit:10}.h,.i{stroke:#868079}.h,.i,.j{stroke-width:.72px}.h,.i,.j,.k{fill:none}.l{fill:#8ec4ad}.j{stroke:#bfded1}.m{fill:#403d3a}.d{fill-rule:evenodd}.n{fill:#868079}.o{fill:#1d1d1b}</style></defs><g id="a" data-name="bg"><rect width="4090.86" height="500" x="-3227.07" y="-50" class="g"/></g><g id="b" data-name="Warstwa 1"><g><line x1="396.82" x2="482.78" y1="66.99" y2="66.99" class="h"/><polygon points="486.56 66.99 481.53 69.51 482.78 66.99 481.53 64.47 486.56 66.99" class="n"/><polygon points="486.56 66.99 481.53 69.51 482.78 66.99 481.53 64.47 486.56 66.99" class="h"/><rect width="38.11" height="9.35" x="422.97" y="62.32" class="g"/><g><path d="m425.46,69.51v-1.36h-2.46v-.64l2.58-3.67h.57v3.67h.76v.64h-.76v1.36h-.7Zm0-1.99v-2.55l-1.77,2.55h1.77Z" class="c"/><path d="m428.02,69.51v-.79h.79v.79h-.79Z" class="c"/><path d="m432.31,69.51v-5.66h2.51c.5,0,.89.05,1.15.15s.47.28.63.54c.16.26.24.54.24.85,0,.4-.13.74-.39,1.02-.26.28-.66.45-1.21.52.2.1.35.19.45.28.22.2.43.45.62.75l.99,1.54h-.94l-.75-1.18c-.22-.34-.4-.6-.54-.78-.14-.18-.27-.31-.38-.38-.11-.07-.23-.12-.34-.15-.08-.02-.22-.03-.42-.03h-.87v2.51h-.75Zm.75-3.16h1.61c.34,0,.61-.04.8-.11.19-.07.34-.18.44-.34.1-.16.15-.33.15-.51,0-.27-.1-.49-.29-.66-.19-.17-.5-.26-.92-.26h-1.79v1.87Z" class="c"/><path d="m440.73,68.19l.72.09c-.11.42-.32.75-.63.98-.31.23-.7.35-1.17.35-.6,0-1.08-.18-1.43-.55-.35-.37-.53-.89-.53-1.55s.18-1.23.53-1.61.82-.57,1.38-.57,1,.19,1.34.56.52.9.52,1.58c0,.04,0,.1,0,.19h-3.06c.03.45.15.8.38,1.04.23.24.51.36.86.36.25,0,.47-.07.65-.2.18-.13.32-.35.43-.64Zm-2.28-1.12h2.29c-.03-.34-.12-.6-.26-.78-.22-.27-.51-.4-.86-.4-.32,0-.59.11-.81.32-.22.21-.34.5-.36.86Z" class="c"/><path d="m444.94,71.08v-2.01c-.11.15-.26.28-.45.38-.19.1-.4.15-.62.15-.49,0-.91-.19-1.26-.58-.35-.39-.53-.92-.53-1.6,0-.41.07-.78.21-1.11s.35-.58.62-.74c.27-.17.57-.25.89-.25.51,0,.91.21,1.2.64v-.55h.63v5.67h-.7Zm-2.14-3.63c0,.53.11.92.33,1.19.22.26.49.4.8.4s.55-.13.76-.38.32-.63.32-1.14c0-.55-.11-.96-.34-1.23s-.49-.41-.79-.41-.56.13-.77.38c-.21.26-.32.66-.32,1.2Z" class="c"/><path d="m449.41,69.51v-.6c-.32.46-.75.7-1.3.7-.24,0-.47-.05-.68-.14-.21-.09-.37-.21-.47-.35-.1-.14-.17-.31-.21-.52-.03-.14-.04-.35-.04-.65v-2.54h.7v2.28c0,.36.01.61.04.73.04.18.14.33.28.43s.32.16.53.16.4-.05.59-.16.31-.25.39-.44c.08-.18.11-.45.11-.8v-2.2h.7v4.1h-.62Z" class="c"/><path d="m453.93,68.19l.72.09c-.11.42-.32.75-.63.98-.31.23-.7.35-1.17.35-.6,0-1.08-.18-1.43-.55-.35-.37-.53-.89-.53-1.55s.18-1.23.53-1.61.82-.57,1.38-.57,1,.19,1.34.56.52.9.52,1.58c0,.04,0,.1,0,.19h-3.06c.03.45.15.8.38,1.04.23.24.51.36.86.36.25,0,.47-.07.65-.2.18-.13.32-.35.43-.64Zm-2.28-1.12h2.29c-.03-.34-.12-.6-.26-.78-.22-.27-.51-.4-.86-.4-.32,0-.59.11-.81.32-.22.21-.34.5-.36.86Z" class="c"/><path d="m455.24,68.28l.69-.11c.04.28.15.49.32.63.18.15.42.22.74.22s.56-.07.71-.2.23-.28.23-.46c0-.16-.07-.28-.2-.37-.1-.06-.33-.14-.71-.24-.51-.13-.86-.24-1.06-.33-.2-.09-.35-.22-.45-.39s-.15-.35-.15-.55c0-.18.04-.35.12-.51.08-.16.2-.29.34-.39.11-.08.26-.15.44-.2.19-.06.39-.08.6-.08.32,0,.6.05.85.14s.42.22.54.38c.12.16.2.37.24.64l-.68.09c-.03-.21-.12-.38-.27-.49-.15-.12-.36-.18-.63-.18-.32,0-.55.05-.68.16-.14.11-.2.23-.2.37,0,.09.03.17.08.24.06.07.15.14.27.18.07.03.27.08.61.18.49.13.83.24,1.03.32.19.08.35.21.46.36.11.16.17.36.17.59s-.07.45-.2.66c-.13.2-.33.36-.58.47s-.54.17-.87.17c-.53,0-.94-.11-1.22-.33s-.46-.55-.54-.99Z" class="c"/><path d="m460.99,68.88l.1.61c-.2.04-.37.06-.53.06-.25,0-.45-.04-.59-.12-.14-.08-.24-.18-.29-.32-.06-.13-.08-.4-.08-.82v-2.36h-.51v-.54h.51v-1.02l.69-.42v1.43h.7v.54h-.7v2.4c0,.2.01.33.04.38s.06.1.12.14c.06.03.13.05.24.05.08,0,.18,0,.3-.03Z" class="c"/></g><path d="m194.07,13.07h189.81c.85,0,1.69.08,2.52.25.83.17,1.64.41,2.43.74s1.53.72,2.24,1.2c.71.47,1.36,1.01,1.96,1.61.6.6,1.14,1.25,1.61,1.96.47.71.87,1.45,1.2,2.24.33.79.57,1.59.74,2.43.17.83.25,1.68.25,2.52v189.81c0,.85-.08,1.69-.25,2.52-.17.83-.41,1.64-.74,2.43-.33.79-.72,1.53-1.2,2.24-.47.71-1.01,1.36-1.61,1.96-.6.6-1.25,1.14-1.96,1.61-.71.47-1.45.87-2.24,1.2-.79.33-1.59.57-2.43.74-.83.17-1.68.25-2.52.25h-189.81c-.85,0-1.69-.08-2.52-.25-.83-.17-1.64-.41-2.43-.74-.79-.33-1.53-.72-2.24-1.2-.71-.47-1.36-1.01-1.96-1.61-.6-.6-1.14-1.25-1.61-1.96-.47-.71-.87-1.45-1.2-2.24-.33-.79-.57-1.59-.74-2.43-.17-.83-.25-1.68-.25-2.52V26.01c0-.85.08-1.69.25-2.52.17-.83.41-1.64.74-2.43.33-.79.72-1.53,1.2-2.24.47-.71,1.01-1.36,1.61-1.96.6-.6,1.25-1.14,1.96-1.61.71-.47,1.45-.87,2.24-1.2s1.59-.57,2.43-.74c.83-.17,1.68-.25,2.52-.25Z" class="f"/><path d="m194.07,13.07h189.81c.85,0,1.69.08,2.52.25.83.17,1.64.41,2.43.74s1.53.72,2.24,1.2c.71.47,1.36,1.01,1.96,1.61.6.6,1.14,1.25,1.61,1.96.47.71.87,1.45,1.2,2.24.33.79.57,1.59.74,2.43.17.83.25,1.68.25,2.52v189.81c0,.85-.08,1.69-.25,2.52-.17.83-.41,1.64-.74,2.43-.33.79-.72,1.53-1.2,2.24-.47.71-1.01,1.36-1.61,1.96-.6.6-1.25,1.14-1.96,1.61-.71.47-1.45.87-2.24,1.2-.79.33-1.59.57-2.43.74-.83.17-1.68.25-2.52.25h-189.81c-.85,0-1.69-.08-2.52-.25-.83-.17-1.64-.41-2.43-.74-.79-.33-1.53-.72-2.24-1.2-.71-.47-1.36-1.01-1.96-1.61-.6-.6-1.14-1.25-1.61-1.96-.47-.71-.87-1.45-1.2-2.24-.33-.79-.57-1.59-.74-2.43-.17-.83-.25-1.68-.25-2.52V26.01c0-.85.08-1.69.25-2.52.17-.83.41-1.64.74-2.43.33-.79.72-1.53,1.2-2.24.47-.71,1.01-1.36,1.61-1.96.6-.6,1.25-1.14,1.96-1.61.71-.47,1.45-.87,2.24-1.2s1.59-.57,2.43-.74c.83-.17,1.68-.25,2.52-.25Z" class="i"/><line x1="250.1" x2="250.1" y1="214.38" y2="296.08" class="h"/><polygon points="250.1 299.85 247.59 294.82 250.1 296.08 252.62 294.82 250.1 299.85" class="n"/><polygon points="250.1 299.85 247.59 294.82 250.1 296.08 252.62 294.82 250.1 299.85" class="h"/><rect width="56.8" height="9.35" x="221.65" y="252.84" class="g"/><g><path d="m225.47,259.37v.67h-3.74c0-.17.02-.33.08-.48.1-.25.25-.51.46-.75s.51-.53.91-.86c.62-.5,1.03-.9,1.25-1.2.22-.29.32-.57.32-.84s-.1-.51-.3-.7c-.2-.19-.45-.28-.77-.28-.33,0-.6.1-.8.3-.2.2-.3.48-.31.83l-.71-.07c.05-.53.23-.94.55-1.22s.75-.42,1.29-.42.97.15,1.29.45c.32.3.47.67.47,1.12,0,.23-.05.45-.14.67s-.25.45-.46.69c-.21.24-.57.57-1.07,1-.42.35-.68.59-.8.71-.12.12-.22.25-.29.38h2.78Z" class="c"/><path d="m226.6,260.03v-.79h.79v.79h-.79Z" class="c"/></g><g><path d="m230.93,260.03v-5.66h3.82v.67h-3.07v1.75h2.66v.67h-2.66v2.57h-.75Z" class="c"/><path d="m235.62,260.03v-5.66h.7v5.66h-.7Z" class="c"/><path d="m237.13,257.98c0-.76.21-1.32.63-1.69.35-.3.78-.46,1.29-.46.56,0,1.02.18,1.38.55.36.37.54.88.54,1.53,0,.53-.08.94-.24,1.25s-.39.54-.69.71-.63.25-.99.25c-.57,0-1.04-.18-1.39-.55-.35-.37-.53-.9-.53-1.59Zm.71,0c0,.53.11.92.34,1.18.23.26.52.39.87.39s.63-.13.86-.39c.23-.26.34-.66.34-1.2,0-.51-.12-.89-.35-1.15-.23-.26-.52-.39-.86-.39s-.64.13-.87.39-.34.65-.34,1.18Z" class="c"/><path d="m242.54,260.03l-1.26-4.1h.72l.65,2.37.24.88s.08-.33.21-.85l.65-2.4h.71l.61,2.38.21.78.24-.79.7-2.37h.68l-1.28,4.1h-.72l-.65-2.46-.16-.7-.83,3.16h-.73Z" class="c"/><path d="m249.8,260.03v-5.66h2.51c.5,0,.89.05,1.15.15s.47.28.63.54c.16.26.24.54.24.85,0,.4-.13.74-.39,1.02s-.66.45-1.21.52c.2.1.35.19.45.28.22.2.43.45.62.75l.98,1.54h-.94l-.75-1.18c-.22-.34-.4-.6-.54-.78-.14-.18-.27-.31-.38-.38-.11-.07-.23-.12-.34-.15-.08-.02-.22-.03-.42-.03h-.87v2.51h-.75Zm.75-3.16h1.61c.34,0,.61-.04.8-.11.19-.07.34-.18.44-.34.1-.16.15-.33.15-.51,0-.27-.1-.49-.29-.66-.19-.17-.5-.26-.92-.26h-1.79v1.87Z" class="c"/><path d="m258.21,258.71l.72.09c-.11.42-.32.75-.63.98-.31.23-.7.35-1.17.35-.6,0-1.08-.18-1.43-.55-.35-.37-.53-.89-.53-1.55s.18-1.23.53-1.61.82-.57,1.38-.57,1,.19,1.34.56.52.9.52,1.58c0,.04,0,.1,0,.19h-3.06c.03.45.15.8.38,1.04.23.24.52.36.86.36.25,0,.47-.07.65-.2.18-.13.32-.35.43-.64Zm-2.28-1.12h2.29c-.03-.34-.12-.6-.26-.78-.22-.27-.51-.4-.86-.4-.32,0-.59.11-.81.32s-.34.5-.36.86Z" class="c"/><path d="m262.42,261.61v-2.01c-.11.15-.26.28-.45.38-.19.1-.4.15-.62.15-.49,0-.91-.19-1.26-.58s-.53-.92-.53-1.6c0-.41.07-.78.21-1.11s.35-.58.62-.74c.27-.17.57-.25.89-.25.51,0,.91.21,1.2.64v-.55h.62v5.67h-.69Zm-2.14-3.63c0,.53.11.92.33,1.19.22.26.49.4.8.4s.55-.13.76-.38c.21-.25.32-.63.32-1.14,0-.55-.11-.96-.34-1.23s-.49-.41-.79-.41-.56.13-.77.38c-.21.26-.31.66-.31,1.2Z" class="c"/><path d="m266.89,260.03v-.6c-.32.46-.75.7-1.3.7-.24,0-.47-.05-.68-.14-.21-.09-.37-.21-.47-.35-.1-.14-.17-.31-.21-.52-.03-.14-.04-.35-.04-.65v-2.54h.7v2.28c0,.36.01.61.04.73.04.18.14.33.28.43s.32.16.53.16.4-.05.59-.16c.18-.11.31-.25.39-.44.08-.18.11-.45.11-.8v-2.2h.69v4.1h-.62Z" class="c"/><path d="m271.41,258.71l.72.09c-.11.42-.32.75-.63.98-.31.23-.7.35-1.17.35-.6,0-1.08-.18-1.43-.55-.35-.37-.53-.89-.53-1.55s.18-1.23.53-1.61.82-.57,1.38-.57,1,.19,1.34.56.52.9.52,1.58c0,.04,0,.1,0,.19h-3.06c.03.45.15.8.38,1.04.23.24.51.36.86.36.25,0,.47-.07.65-.2.18-.13.32-.35.43-.64Zm-2.28-1.12h2.29c-.03-.34-.12-.6-.26-.78-.22-.27-.51-.4-.86-.4-.32,0-.59.11-.81.32-.22.21-.34.5-.36.86Z" class="c"/><path d="m272.72,258.81l.69-.11c.04.28.15.49.32.63.18.15.42.22.74.22s.56-.07.71-.2.23-.28.23-.46c0-.16-.07-.28-.2-.37-.1-.06-.33-.14-.71-.24-.51-.13-.86-.24-1.06-.33-.2-.09-.35-.22-.45-.39s-.15-.35-.15-.55c0-.18.04-.35.12-.51.08-.16.2-.29.34-.39.11-.08.26-.15.44-.2.19-.06.39-.08.6-.08.32,0,.6.05.85.14s.42.22.54.38c.12.16.2.37.24.64l-.68.09c-.03-.21-.12-.38-.27-.49-.15-.12-.36-.18-.63-.18-.32,0-.55.05-.68.16-.14.11-.2.23-.2.37,0,.09.03.17.08.24.06.07.15.14.27.18.07.03.27.08.61.18.49.13.83.24,1.03.32.19.08.35.21.46.36.11.16.17.36.17.59s-.07.45-.2.66c-.13.2-.33.36-.58.47s-.54.17-.87.17c-.53,0-.94-.11-1.22-.33s-.46-.55-.54-.99Z" class="c"/><path d="m278.47,259.41l.1.61c-.2.04-.37.06-.53.06-.25,0-.45-.04-.59-.12-.14-.08-.24-.18-.29-.32-.06-.13-.08-.4-.08-.82v-2.36h-.51v-.54h.51v-1.02l.69-.42v1.43h.7v.54h-.7v2.4c0,.2.01.33.04.38s.06.1.12.14c.06.03.13.05.24.05.08,0,.18,0,.3-.03Z" class="c"/></g><line x1="336.38" x2="336.38" y1="300.66" y2="218.96" class="h"/><polygon points="336.38 215.18 338.9 220.22 336.38 218.96 333.86 220.22 336.38 215.18" class="n"/><polygon points="336.38 215.18 338.9 220.22 336.38 218.96 333.86 220.22 336.38 215.18" class="h"/><rect width="58.24" height="9.35" x="307.21" y="252.84" class="g"/><g><path d="m307.66,258.54l.7-.09c.08.39.22.68.41.85s.43.26.7.26c.33,0,.6-.11.83-.34s.34-.51.34-.84-.1-.58-.31-.79c-.21-.21-.47-.31-.8-.31-.13,0-.29.03-.49.08l.08-.61s.08,0,.11,0c.3,0,.56-.08.8-.23.24-.16.36-.39.36-.71,0-.25-.09-.47-.26-.63-.17-.17-.4-.25-.67-.25s-.5.08-.68.25c-.18.17-.3.42-.35.76l-.7-.12c.08-.47.28-.83.58-1.08.3-.26.68-.38,1.12-.38.31,0,.59.07.85.2s.46.31.6.54c.14.23.21.47.21.73,0,.24-.07.47-.2.67-.13.2-.33.36-.58.48.33.08.59.24.78.48.18.24.28.55.28.91,0,.49-.18.91-.54,1.26s-.82.52-1.37.52c-.5,0-.91-.15-1.24-.44-.33-.3-.51-.68-.56-1.15Z" class="c"/><path d="m312.44,260.03v-.79h.79v.79h-.79Z" class="c"/><path d="m316.77,260.03v-5.66h3.82v.67h-3.07v1.75h2.66v.67h-2.66v2.57h-.75Z" class="c"/><path d="m321.45,260.03v-5.66h.7v5.66h-.7Z" class="c"/><path d="m322.97,257.98c0-.76.21-1.32.63-1.69.35-.3.78-.46,1.29-.46.56,0,1.02.18,1.38.55.36.37.54.88.54,1.53,0,.53-.08.94-.24,1.25s-.39.54-.69.71c-.3.17-.63.25-.99.25-.57,0-1.04-.18-1.39-.55-.35-.37-.53-.9-.53-1.59Zm.71,0c0,.53.12.92.34,1.18.23.26.52.39.87.39s.63-.13.86-.39.34-.66.34-1.2c0-.51-.12-.89-.35-1.15-.23-.26-.52-.39-.86-.39s-.64.13-.87.39c-.23.26-.34.65-.34,1.18Z" class="c"/><path d="m328.38,260.03l-1.25-4.1h.72l.65,2.37.24.88s.08-.33.21-.85l.65-2.4h.71l.61,2.38.2.78.24-.79.7-2.37h.68l-1.28,4.1h-.72l-.65-2.46-.16-.7-.83,3.16h-.73Z" class="c"/><path d="m335.62,260.03v-5.66h1.95c.44,0,.78.03,1.01.08.32.07.6.21.83.41.3.25.52.58.67.97s.22.84.22,1.35c0,.43-.05.81-.15,1.14s-.23.61-.39.83c-.16.22-.33.39-.52.51-.19.12-.41.22-.68.28s-.57.1-.91.1h-2.04Zm.75-.67h1.21c.37,0,.67-.04.88-.1.21-.07.38-.17.51-.29.18-.18.32-.42.42-.72.1-.3.15-.66.15-1.09,0-.59-.1-1.05-.29-1.37-.19-.32-.43-.53-.71-.64-.2-.08-.52-.12-.97-.12h-1.19v4.33Z" class="c"/><path d="m344.05,258.71l.72.09c-.11.42-.32.75-.63.98-.31.23-.7.35-1.17.35-.6,0-1.08-.18-1.43-.55-.35-.37-.53-.89-.53-1.55s.18-1.23.53-1.61.82-.57,1.38-.57,1,.19,1.34.56.52.9.52,1.58c0,.04,0,.1,0,.19h-3.06c.03.45.15.8.38,1.04.23.24.51.36.86.36.25,0,.47-.07.65-.2.18-.13.32-.35.43-.64Zm-2.28-1.12h2.29c-.03-.34-.12-.6-.26-.78-.22-.27-.51-.4-.86-.4-.32,0-.59.11-.81.32-.22.21-.34.5-.36.86Z" class="c"/><path d="m348.32,258.53l.68.09c-.07.47-.27.84-.57,1.11-.31.27-.69.4-1.13.4-.56,0-1.01-.18-1.35-.55-.34-.37-.51-.89-.51-1.58,0-.44.07-.83.22-1.16.15-.33.37-.58.67-.75s.63-.25.98-.25c.45,0,.81.11,1.09.34.28.22.46.54.54.96l-.68.1c-.06-.28-.18-.48-.34-.62-.16-.14-.36-.21-.59-.21-.35,0-.63.12-.85.38s-.33.65-.33,1.19.11.95.32,1.2.49.38.83.38c.27,0,.5-.08.68-.25.18-.17.3-.42.35-.77Z" class="c"/><path d="m349.6,255.17v-.8h.7v.8h-.7Zm0,4.86v-4.1h.7v4.1h-.7Z" class="c"/><path d="m351.08,258.81l.69-.11c.04.28.15.49.32.63.18.15.42.22.74.22s.56-.07.71-.2.23-.28.23-.46c0-.16-.07-.28-.2-.37-.1-.06-.33-.14-.71-.24-.51-.13-.86-.24-1.06-.33-.2-.09-.35-.22-.45-.39s-.15-.35-.15-.55c0-.18.04-.35.12-.51.08-.16.2-.29.34-.39.11-.08.26-.15.44-.2.19-.06.39-.08.6-.08.32,0,.6.05.85.14s.42.22.54.38c.12.16.2.37.24.64l-.68.09c-.03-.21-.12-.38-.27-.49-.15-.12-.36-.18-.63-.18-.32,0-.55.05-.68.16-.14.11-.2.23-.2.37,0,.09.03.17.08.24.06.07.15.14.27.18.07.03.27.08.61.18.49.13.83.24,1.03.32.19.08.35.21.46.36.11.16.17.36.17.59s-.07.45-.2.66c-.13.2-.33.36-.58.47s-.54.17-.87.17c-.53,0-.94-.11-1.22-.33s-.46-.55-.54-.99Z" class="c"/><path d="m355.31,255.17v-.8h.7v.8h-.7Zm0,4.86v-4.1h.7v4.1h-.7Z" class="c"/><path d="m356.81,257.98c0-.76.21-1.32.63-1.69.35-.3.78-.46,1.29-.46.56,0,1.02.18,1.38.55.36.37.54.88.54,1.53,0,.53-.08.94-.24,1.25s-.39.54-.69.71c-.3.17-.63.25-.99.25-.57,0-1.04-.18-1.39-.55-.35-.37-.53-.9-.53-1.59Zm.71,0c0,.53.12.92.34,1.18.23.26.52.39.87.39s.63-.13.86-.39.34-.66.34-1.2c0-.51-.12-.89-.35-1.15-.23-.26-.52-.39-.86-.39s-.64.13-.87.39c-.23.26-.34.65-.34,1.18Z" class="c"/><path d="m361.46,260.03v-4.1h.62v.58c.3-.45.74-.68,1.31-.68.25,0,.47.04.68.13s.36.21.46.35c.1.14.18.32.22.51.03.13.04.35.04.68v2.52h-.69v-2.5c0-.28-.03-.49-.08-.63-.05-.14-.15-.25-.29-.34s-.3-.13-.48-.13c-.3,0-.55.09-.77.28-.21.19-.32.54-.32,1.07v2.24h-.7Z" class="c"/></g><path d="m212.14,300.66h162.2c.34,0,.68.03,1.01.1.33.07.66.16.97.29.31.13.61.29.9.48s.54.4.78.64c.24.24.45.5.64.78.19.28.35.58.48.9.13.31.23.64.29.97.07.33.1.67.1,1.01v75.92c0,.34-.03.68-.1,1.01-.07.33-.16.66-.29.97-.13.31-.29.61-.48.9-.19.28-.4.54-.64.78-.24.24-.5.46-.78.64s-.58.35-.9.48c-.31.13-.64.23-.97.29-.33.07-.67.1-1.01.1h-162.2c-.34,0-.68-.03-1.01-.1s-.66-.16-.97-.29c-.31-.13-.61-.29-.9-.48-.28-.19-.54-.4-.78-.64-.24-.24-.45-.5-.64-.78-.19-.28-.35-.58-.48-.9-.13-.31-.23-.64-.29-.97-.07-.33-.1-.67-.1-1.01v-75.92c0-.34.03-.68.1-1.01s.16-.66.29-.97c.13-.31.29-.61.48-.89.19-.28.4-.54.64-.78.24-.24.5-.46.78-.64s.58-.35.89-.48c.31-.13.64-.23.97-.29.33-.07.67-.1,1.01-.1Z" class="l"/><path d="m212.14,300.66h162.2c.34,0,.68.03,1.01.1.33.07.66.16.97.29.31.13.61.29.9.48s.54.4.78.64c.24.24.45.5.64.78.19.28.35.58.48.9.13.31.23.64.29.97.07.33.1.67.1,1.01v75.92c0,.34-.03.68-.1,1.01-.07.33-.16.66-.29.97-.13.31-.29.61-.48.9-.19.28-.4.54-.64.78-.24.24-.5.46-.78.64s-.58.35-.9.48c-.31.13-.64.23-.97.29-.33.07-.67.1-1.01.1h-162.2c-.34,0-.68-.03-1.01-.1s-.66-.16-.97-.29c-.31-.13-.61-.29-.9-.48-.28-.19-.54-.4-.78-.64-.24-.24-.45-.5-.64-.78-.19-.28-.35-.58-.48-.9-.13-.31-.23-.64-.29-.97-.07-.33-.1-.67-.1-1.01v-75.92c0-.34.03-.68.1-1.01s.16-.66.29-.97c.13-.31.29-.61.48-.89.19-.28.4-.54.64-.78.24-.24.5-.46.78-.64s.58-.35.89-.48c.31-.13.64-.23.97-.29.33-.07.67-.1,1.01-.1Z" class="j"/><g><path d="m264.04,346.31l2.37-6.18h.88l2.53,6.18h-.93l-.72-1.87h-2.58l-.68,1.87h-.87Zm1.78-2.54h2.09l-.64-1.71c-.2-.52-.34-.95-.44-1.28-.08.4-.19.79-.33,1.18l-.68,1.81Z" class="o"/><path d="m270.37,348.03v-6.19h.69v.58c.16-.23.35-.4.55-.51.21-.11.45-.17.75-.17.38,0,.72.1,1.01.29s.51.47.66.83.22.75.22,1.18c0,.46-.08.87-.25,1.24-.16.37-.4.65-.72.84s-.64.29-.99.29c-.25,0-.48-.05-.68-.16-.2-.11-.37-.24-.5-.41v2.18h-.76Zm.69-3.93c0,.58.12,1,.35,1.28.23.28.51.41.85.41s.62-.14.87-.43.36-.73.36-1.32-.12-1-.35-1.28c-.23-.28-.51-.43-.84-.43s-.61.15-.86.45c-.25.3-.37.74-.37,1.32Z" class="o"/><path d="m278.24,344.87l.78.1c-.12.46-.35.81-.69,1.07-.33.25-.76.38-1.28.38-.65,0-1.17-.2-1.56-.61-.38-.4-.57-.97-.57-1.7s.19-1.34.58-1.75c.39-.42.89-.62,1.51-.62s1.09.2,1.47.61c.38.41.57.98.57,1.72,0,.04,0,.11,0,.2h-3.34c.03.49.17.87.42,1.13.25.26.56.39.94.39.28,0,.51-.07.71-.22.2-.15.35-.38.47-.7Zm-2.49-1.23h2.5c-.03-.38-.13-.66-.29-.85-.24-.29-.55-.44-.94-.44-.35,0-.64.12-.88.35-.24.23-.37.54-.39.93Z" class="o"/><path d="m279.96,346.31v-4.47h.68v.68c.17-.32.33-.53.48-.63.15-.1.31-.15.49-.15.25,0,.51.08.78.24l-.26.7c-.18-.11-.37-.16-.56-.16-.17,0-.31.05-.45.15-.13.1-.23.24-.28.42-.08.27-.13.56-.13.88v2.34h-.76Z" class="o"/><path d="m284.5,345.63l.11.67c-.21.04-.4.07-.57.07-.28,0-.49-.04-.64-.13-.15-.09-.26-.2-.32-.34-.06-.14-.09-.44-.09-.9v-2.57h-.56v-.59h.56v-1.11l.75-.46v1.56h.76v.59h-.76v2.62c0,.22.01.35.04.42.03.06.07.11.13.15.06.04.15.05.26.05.08,0,.2,0,.33-.03Z" class="o"/><path d="m288.17,346.31v-.66c-.35.51-.82.76-1.42.76-.26,0-.51-.05-.74-.15-.23-.1-.4-.23-.51-.38s-.19-.34-.23-.56c-.03-.15-.05-.38-.05-.71v-2.77h.76v2.48c0,.4.01.66.05.8.05.2.15.36.3.47.15.11.34.17.57.17s.44-.06.64-.17.34-.28.42-.48c.08-.2.12-.49.12-.87v-2.4h.76v4.47h-.68Z" class="o"/><path d="m290.03,346.31v-4.47h.68v.68c.17-.32.33-.53.48-.63.15-.1.31-.15.49-.15.25,0,.51.08.78.24l-.26.7c-.18-.11-.37-.16-.56-.16-.17,0-.31.05-.45.15-.13.1-.23.24-.28.42-.08.27-.13.56-.13.88v2.34h-.76Z" class="o"/><path d="m295.98,344.87l.78.1c-.12.46-.35.81-.69,1.07-.33.25-.76.38-1.28.38-.65,0-1.17-.2-1.56-.61-.38-.4-.57-.97-.57-1.7s.19-1.34.58-1.75c.39-.42.89-.62,1.51-.62s1.09.2,1.47.61c.38.41.57.98.57,1.72,0,.04,0,.11,0,.2h-3.34c.03.49.17.87.42,1.13.25.26.56.39.94.39.28,0,.51-.07.71-.22.2-.15.35-.38.47-.7Zm-2.49-1.23h2.5c-.03-.38-.13-.66-.29-.85-.24-.29-.55-.44-.94-.44-.35,0-.64.12-.88.35-.24.23-.37.54-.39.93Z" class="o"/></g><g><path d="m299.05,346.31l2.37-6.18h.88l2.53,6.18h-.93l-.72-1.87h-2.58l-.68,1.87h-.87Zm1.78-2.54h2.09l-.64-1.71c-.2-.52-.34-.95-.44-1.28-.08.4-.19.79-.33,1.18l-.68,1.81Z" class="o"/><path d="m305.25,346.68l.74.11c.03.23.12.39.26.5.19.14.45.21.77.21.35,0,.62-.07.81-.21s.32-.34.39-.59c.04-.15.06-.48.05-.97-.33.39-.74.59-1.24.59-.62,0-1.09-.22-1.43-.67-.34-.44-.5-.98-.5-1.6,0-.43.08-.82.23-1.18.15-.36.38-.64.67-.84s.64-.29,1.03-.29c.53,0,.96.21,1.31.64v-.54h.7v3.87c0,.7-.07,1.19-.21,1.48-.14.29-.37.52-.67.69-.31.17-.69.25-1.13.25-.53,0-.96-.12-1.29-.36-.33-.24-.49-.6-.48-1.08Zm.63-2.69c0,.59.12,1.02.35,1.29.23.27.53.4.88.4s.64-.13.88-.4c.24-.27.35-.69.35-1.26s-.12-.96-.36-1.24c-.24-.28-.54-.42-.88-.42s-.62.14-.86.41c-.24.27-.35.68-.35,1.22Z" class="o"/><path d="m313.25,344.87l.78.1c-.12.46-.35.81-.69,1.07-.33.25-.76.38-1.28.38-.65,0-1.17-.2-1.56-.61-.38-.4-.57-.97-.57-1.7s.19-1.34.58-1.75c.39-.42.89-.62,1.51-.62s1.09.2,1.47.61c.38.41.57.98.57,1.72,0,.04,0,.11,0,.2h-3.34c.03.49.17.87.42,1.13.25.26.56.39.94.39.28,0,.51-.07.71-.22.2-.15.35-.38.47-.7Zm-2.49-1.23h2.5c-.03-.38-.13-.66-.29-.85-.24-.29-.55-.44-.94-.44-.35,0-.64.12-.88.35-.24.23-.37.54-.39.93Z" class="o"/><path d="m314.98,346.31v-4.47h.68v.64c.33-.49.8-.74,1.42-.74.27,0,.52.05.74.15.23.1.39.22.51.38s.19.34.24.56c.03.14.04.39.04.74v2.75h-.76v-2.72c0-.31-.03-.54-.09-.69-.06-.15-.16-.28-.31-.37-.15-.09-.33-.14-.53-.14-.32,0-.6.1-.84.31s-.35.59-.35,1.17v2.44h-.76Z" class="o"/><path d="m321.44,345.63l.11.67c-.21.04-.4.07-.57.07-.28,0-.49-.04-.64-.13-.15-.09-.26-.2-.32-.34-.06-.14-.09-.44-.09-.9v-2.57h-.56v-.59h.56v-1.11l.75-.46v1.56h.76v.59h-.76v2.62c0,.22.01.35.04.42.03.06.07.11.13.15.06.04.15.05.26.05.08,0,.2,0,.33-.03Z" class="o"/></g><polygon points="46.94 70.58 46.94 63.4 161.25 63.4 161.25 56.82 180.77 66.99 161.25 77.16 161.25 70.58 46.94 70.58" class="e"/><g><path d="m94.4,58.72h-.7v-4.43c-.17.16-.39.32-.66.48-.27.16-.52.28-.73.36v-.67c.39-.18.73-.4,1.02-.66.29-.26.5-.51.62-.76h.45v5.68Z" class="c"/><path d="m96.57,58.72v-.79h.79v.79h-.79Z" class="c"/><path d="m100.87,58.72v-5.66h2.51c.5,0,.89.05,1.15.15s.47.28.63.54c.16.26.24.54.24.85,0,.4-.13.74-.39,1.02-.26.28-.66.45-1.21.52.2.1.35.19.45.28.22.2.43.45.62.75l.98,1.54h-.94l-.75-1.18c-.22-.34-.4-.6-.54-.78-.14-.18-.27-.31-.38-.38-.11-.07-.23-.12-.34-.15-.08-.02-.22-.03-.42-.03h-.87v2.51h-.75Zm.75-3.16h1.61c.34,0,.61-.04.8-.11.19-.07.34-.18.44-.34.1-.16.15-.33.15-.51,0-.27-.1-.49-.29-.66-.19-.17-.5-.26-.92-.26h-1.79v1.87Z" class="c"/><path d="m109.29,57.4l.72.09c-.11.42-.32.75-.63.98s-.7.35-1.17.35c-.6,0-1.08-.18-1.43-.55-.35-.37-.53-.89-.53-1.55s.18-1.23.53-1.61c.35-.38.82-.57,1.38-.57s1,.19,1.34.56.52.9.52,1.58c0,.04,0,.1,0,.19h-3.06c.03.45.15.8.38,1.04.23.24.51.36.86.36.25,0,.47-.07.65-.2.18-.13.32-.35.43-.64Zm-2.28-1.12h2.29c-.03-.34-.12-.6-.26-.78-.22-.27-.51-.4-.86-.4-.32,0-.59.11-.8.32-.22.21-.34.5-.36.86Z" class="c"/><path d="m113.49,60.29v-2.01c-.11.15-.26.28-.45.38-.2.1-.4.15-.62.15-.49,0-.91-.19-1.26-.58s-.53-.92-.53-1.6c0-.41.07-.78.21-1.11.14-.33.35-.58.62-.74.27-.17.57-.25.89-.25.51,0,.91.21,1.2.64v-.55h.63v5.67h-.7Zm-2.14-3.63c0,.53.11.92.33,1.19.22.26.49.4.79.4s.55-.13.76-.38.32-.63.32-1.14c0-.55-.11-.96-.34-1.23-.22-.28-.49-.41-.79-.41s-.56.13-.77.38c-.21.26-.31.66-.31,1.2Z" class="c"/><path d="m117.96,58.72v-.6c-.32.46-.75.7-1.3.7-.24,0-.47-.05-.68-.14-.21-.09-.37-.21-.47-.35-.1-.14-.17-.31-.21-.52-.03-.14-.04-.35-.04-.65v-2.54h.7v2.28c0,.36.01.61.04.73.04.18.14.33.28.43s.32.16.53.16.4-.05.59-.16.31-.25.39-.44c.08-.18.11-.45.11-.8v-2.2h.7v4.1h-.62Z" class="c"/><path d="m122.48,57.4l.72.09c-.11.42-.32.75-.63.98s-.7.35-1.17.35c-.6,0-1.08-.18-1.43-.55-.35-.37-.53-.89-.53-1.55s.18-1.23.53-1.61c.35-.38.82-.57,1.38-.57s1,.19,1.34.56.52.9.52,1.58c0,.04,0,.1,0,.19h-3.06c.03.45.15.8.38,1.04.23.24.51.36.86.36.25,0,.47-.07.65-.2.18-.13.32-.35.43-.64Zm-2.28-1.12h2.29c-.03-.34-.12-.6-.26-.78-.22-.27-.51-.4-.86-.4-.32,0-.59.11-.8.32-.22.21-.34.5-.36.86Z" class="c"/><path d="m123.79,57.5l.69-.11c.04.28.15.49.32.63.18.15.42.22.74.22s.56-.07.71-.2.23-.28.23-.46c0-.16-.07-.28-.21-.37-.1-.06-.33-.14-.71-.24-.51-.13-.86-.24-1.06-.33-.2-.09-.35-.22-.45-.39s-.15-.35-.15-.55c0-.18.04-.35.13-.51.08-.16.2-.29.34-.39.11-.08.26-.15.44-.2.19-.06.39-.08.6-.08.32,0,.6.05.85.14s.42.22.54.38c.12.16.2.37.24.64l-.68.09c-.03-.21-.12-.38-.27-.49-.15-.12-.36-.18-.63-.18-.32,0-.55.05-.68.16-.14.11-.21.23-.21.37,0,.09.03.17.08.24.06.07.15.14.27.18.07.03.27.08.61.18.49.13.83.24,1.03.32.2.08.35.21.46.36.11.16.17.36.17.59s-.07.45-.2.66c-.14.2-.33.36-.59.47s-.54.17-.86.17c-.53,0-.94-.11-1.22-.33s-.46-.55-.54-.99Z" class="c"/><path d="m129.54,58.1l.1.61c-.2.04-.37.06-.52.06-.25,0-.45-.04-.59-.12-.14-.08-.24-.18-.29-.32-.06-.13-.08-.4-.08-.82v-2.36h-.51v-.54h.51v-1.02l.69-.42v1.43h.7v.54h-.7v2.4c0,.2.01.33.04.38.03.06.06.1.12.14.06.03.13.05.24.05.08,0,.18,0,.31-.03Z" class="c"/></g><polygon points="180.77 171.24 180.77 178.43 66.47 178.43 66.47 185 46.94 174.84 66.47 164.67 66.47 171.24 180.77 171.24" class="e"/><g><path d="m100.22,182.43l-.69.05c-.06-.27-.15-.47-.26-.59-.19-.2-.42-.3-.7-.3-.22,0-.42.06-.58.19-.22.16-.39.39-.52.7s-.19.74-.2,1.31c.17-.25.37-.44.61-.57.24-.12.5-.19.76-.19.46,0,.86.17,1.18.51.33.34.49.78.49,1.32,0,.36-.08.69-.23.99s-.36.54-.63.7-.57.24-.91.24c-.58,0-1.05-.21-1.42-.64-.37-.43-.55-1.13-.55-2.11,0-1.09.2-1.89.61-2.39.35-.43.83-.65,1.42-.65.45,0,.81.12,1.09.38.28.25.46.59.51,1.04Zm-2.84,2.44c0,.24.05.47.15.69.1.22.24.38.43.5.18.11.38.17.58.17.29,0,.55-.12.76-.36.21-.24.32-.56.32-.97s-.1-.7-.31-.92c-.21-.22-.47-.34-.79-.34s-.58.11-.8.34c-.22.23-.33.52-.33.89Z" class="c"/><path d="m101.4,186.7v-.79h.79v.79h-.79Z" class="c"/><path d="m105.7,186.7v-5.66h2.51c.5,0,.89.05,1.15.15s.47.28.63.54c.16.26.24.54.24.85,0,.4-.13.74-.39,1.02s-.66.45-1.21.52c.2.1.35.19.45.28.22.2.43.45.62.75l.98,1.54h-.94l-.75-1.18c-.22-.34-.4-.6-.54-.78-.14-.18-.27-.31-.38-.38-.11-.07-.23-.12-.34-.15-.08-.02-.22-.03-.42-.03h-.87v2.51h-.75Zm.75-3.16h1.61c.34,0,.61-.04.8-.11.19-.07.34-.18.44-.34.1-.16.15-.33.15-.51,0-.27-.1-.49-.29-.66-.19-.17-.5-.26-.92-.26h-1.79v1.87Z" class="c"/><path d="m114.12,185.38l.72.09c-.11.42-.32.75-.63.98-.31.23-.7.35-1.17.35-.6,0-1.08-.18-1.43-.55-.35-.37-.53-.89-.53-1.55s.18-1.23.53-1.61.82-.57,1.38-.57,1,.19,1.34.56.52.9.52,1.58c0,.04,0,.1,0,.19h-3.06c.03.45.15.8.38,1.04.23.24.52.36.86.36.25,0,.47-.07.65-.2.18-.13.32-.35.43-.64Zm-2.28-1.12h2.29c-.03-.34-.12-.6-.26-.78-.22-.27-.51-.4-.86-.4-.32,0-.59.11-.81.32s-.34.5-.36.86Z" class="c"/><path d="m115.43,185.48l.69-.11c.04.28.15.49.32.63.18.15.42.22.74.22s.56-.07.71-.2.23-.28.23-.46c0-.16-.07-.28-.21-.37-.09-.06-.33-.14-.71-.24-.51-.13-.86-.24-1.06-.33-.2-.09-.35-.22-.45-.39s-.15-.35-.15-.55c0-.18.04-.35.12-.51.08-.16.2-.29.34-.39.11-.08.26-.15.44-.2.19-.06.39-.08.6-.08.32,0,.6.05.85.14s.42.22.54.38c.12.16.2.37.24.64l-.68.09c-.03-.21-.12-.38-.27-.49-.15-.12-.36-.18-.63-.18-.32,0-.55.05-.68.16s-.2.23-.2.37c0,.09.03.17.08.24.06.07.14.14.27.18.07.03.27.08.61.18.49.13.83.24,1.03.32.19.08.35.21.46.36.11.16.17.36.17.59s-.07.45-.2.66c-.13.2-.33.36-.58.47s-.54.17-.87.17c-.53,0-.94-.11-1.22-.33-.28-.22-.46-.55-.54-.99Z" class="c"/><path d="m119.66,188.27v-5.67h.63v.53c.15-.21.32-.37.51-.47.19-.1.42-.16.68-.16.35,0,.66.09.93.27.27.18.47.43.61.76.14.33.21.69.21,1.08,0,.42-.08.8-.23,1.13-.15.34-.37.59-.66.77s-.59.27-.91.27c-.23,0-.44-.05-.62-.15-.18-.1-.34-.22-.45-.37v2h-.7Zm.63-3.6c0,.53.11.92.32,1.17.21.25.47.38.78.38s.57-.13.79-.39c.22-.26.33-.67.33-1.21s-.11-.91-.32-1.17c-.21-.26-.47-.39-.77-.39s-.56.14-.79.42c-.23.28-.34.68-.34,1.21Z" class="c"/><path d="m123.8,184.65c0-.76.21-1.32.63-1.69.35-.3.78-.46,1.29-.46.56,0,1.03.18,1.38.55s.54.88.54,1.53c0,.53-.08.94-.24,1.25-.16.3-.39.54-.69.71-.3.17-.63.25-.99.25-.57,0-1.04-.18-1.39-.55-.35-.37-.53-.9-.53-1.59Zm.71,0c0,.53.11.92.34,1.18.23.26.52.39.86.39s.63-.13.86-.39c.23-.26.34-.66.34-1.2,0-.51-.12-.89-.35-1.15-.23-.26-.52-.39-.86-.39s-.64.13-.86.39c-.23.26-.34.65-.34,1.18Z" class="c"/><path d="m128.46,186.7v-4.1h.63v.58c.3-.45.74-.68,1.3-.68.25,0,.47.04.68.13s.36.21.47.35c.1.14.17.32.22.51.03.13.04.35.04.68v2.52h-.7v-2.5c0-.28-.03-.49-.08-.63s-.15-.25-.29-.34-.3-.13-.48-.13c-.3,0-.55.09-.77.28-.21.19-.32.54-.32,1.07v2.24h-.7Z" class="c"/><path d="m132.58,185.48l.69-.11c.04.28.15.49.32.63.18.15.42.22.74.22s.56-.07.71-.2.23-.28.23-.46c0-.16-.07-.28-.21-.37-.1-.06-.33-.14-.71-.24-.51-.13-.86-.24-1.06-.33-.2-.09-.35-.22-.45-.39s-.15-.35-.15-.55c0-.18.04-.35.13-.51.08-.16.2-.29.34-.39.11-.08.26-.15.44-.2.19-.06.39-.08.6-.08.32,0,.6.05.85.14s.42.22.54.38c.12.16.2.37.24.64l-.68.09c-.03-.21-.12-.38-.27-.49-.15-.12-.36-.18-.63-.18-.32,0-.55.05-.68.16-.14.11-.21.23-.21.37,0,.09.03.17.08.24.06.07.15.14.27.18.07.03.27.08.61.18.49.13.83.24,1.03.32.2.08.35.21.46.36.11.16.17.36.17.59s-.07.45-.2.66c-.14.2-.33.36-.59.47s-.54.17-.86.17c-.53,0-.94-.11-1.22-.33s-.46-.55-.54-.99Z" class="c"/><path d="m139.62,185.38l.72.09c-.11.42-.32.75-.63.98s-.7.35-1.17.35c-.6,0-1.08-.18-1.43-.55-.35-.37-.53-.89-.53-1.55s.18-1.23.53-1.61c.35-.38.82-.57,1.38-.57s1,.19,1.34.56.52.9.52,1.58c0,.04,0,.1,0,.19h-3.06c.03.45.15.8.38,1.04.23.24.51.36.86.36.25,0,.47-.07.65-.2.18-.13.32-.35.43-.64Zm-2.28-1.12h2.29c-.03-.34-.12-.6-.26-.78-.22-.27-.51-.4-.86-.4-.32,0-.59.11-.8.32-.22.21-.34.5-.36.86Z" class="c"/></g><path d="m212.14,128.1h162.2c.34,0,.68.03,1.01.1.33.07.66.16.97.29s.61.29.9.48c.28.19.54.4.78.64.24.24.45.5.64.78.19.28.35.58.48.89.13.31.23.64.29.97.07.33.1.67.1,1.01v75.92c0,.34-.03.68-.1,1.01-.07.33-.16.66-.29.97-.13.31-.29.61-.48.89-.19.28-.4.54-.64.78-.24.24-.5.45-.78.64-.28.19-.58.35-.9.48-.31.13-.64.23-.97.29-.33.07-.67.1-1.01.1h-162.2c-.34,0-.68-.03-1.01-.1s-.66-.16-.97-.29c-.31-.13-.61-.29-.9-.48-.28-.19-.54-.4-.78-.64-.24-.24-.45-.5-.64-.78-.19-.28-.35-.58-.48-.89-.13-.31-.23-.64-.29-.97-.07-.33-.1-.67-.1-1.01v-75.92c0-.34.03-.68.1-1.01s.16-.66.29-.97c.13-.31.29-.61.48-.9.19-.28.4-.54.64-.78s.5-.45.78-.64c.28-.19.58-.35.89-.48.31-.13.64-.23.97-.29.33-.07.67-.1,1.01-.1Z" class="m"/><path d="m212.14,128.1h162.2c.34,0,.68.03,1.01.1.33.07.66.16.97.29s.61.29.9.48c.28.19.54.4.78.64.24.24.45.5.64.78.19.28.35.58.48.89.13.31.23.64.29.97.07.33.1.67.1,1.01v75.92c0,.34-.03.68-.1,1.01-.07.33-.16.66-.29.97-.13.31-.29.61-.48.89-.19.28-.4.54-.64.78-.24.24-.5.45-.78.64-.28.19-.58.35-.9.48-.31.13-.64.23-.97.29-.33.07-.67.1-1.01.1h-162.2c-.34,0-.68-.03-1.01-.1s-.66-.16-.97-.29c-.31-.13-.61-.29-.9-.48-.28-.19-.54-.4-.78-.64-.24-.24-.45-.5-.64-.78-.19-.28-.35-.58-.48-.89-.13-.31-.23-.64-.29-.97-.07-.33-.1-.67-.1-1.01v-75.92c0-.34.03-.68.1-1.01s.16-.66.29-.97c.13-.31.29-.61.48-.9.19-.28.4-.54.64-.78s.5-.45.78-.64c.28-.19.58-.35.89-.48.31-.13.64-.23.97-.29.33-.07.67-.1,1.01-.1Z" class="i"/><g><path d="m281.5,173.76v-6.18h2.33c.41,0,.72.02.94.06.3.05.56.15.76.29s.37.34.5.6c.12.26.19.54.19.84,0,.53-.17.97-.5,1.33-.33.36-.94.55-1.81.55h-1.58v2.51h-.82Zm.82-3.24h1.6c.53,0,.9-.1,1.12-.29.22-.2.33-.47.33-.83,0-.26-.07-.48-.2-.66-.13-.18-.3-.3-.52-.36-.14-.04-.39-.05-.76-.05h-1.58v2.21Z" class="c"/><path d="m287.14,173.76v-6.18h.76v6.18h-.76Z" class="c"/><path d="m292.01,173.76v-.66c-.35.51-.82.76-1.42.76-.26,0-.51-.05-.74-.15-.23-.1-.4-.23-.51-.38s-.19-.34-.23-.56c-.03-.15-.05-.38-.05-.71v-2.77h.76v2.48c0,.4.01.66.05.8.05.2.15.36.3.47.15.11.34.17.57.17s.44-.06.64-.17.34-.28.42-.48c.08-.2.12-.49.12-.87v-2.4h.76v4.47h-.68Z" class="c"/><path d="m293.73,174.13l.74.11c.03.23.12.39.26.5.19.14.45.21.77.21.35,0,.62-.07.81-.21s.32-.34.39-.59c.04-.15.06-.48.05-.97-.33.39-.74.59-1.24.59-.62,0-1.09-.22-1.43-.67-.34-.44-.5-.98-.5-1.6,0-.43.08-.82.23-1.18.15-.36.38-.64.67-.84s.64-.29,1.03-.29c.53,0,.96.21,1.31.64v-.54h.7v3.87c0,.7-.07,1.19-.21,1.48-.14.29-.37.52-.67.69-.31.17-.69.25-1.13.25-.53,0-.96-.12-1.29-.36-.33-.24-.49-.6-.48-1.08Zm.63-2.69c0,.59.12,1.02.35,1.29.23.27.53.4.88.4s.64-.13.88-.4c.24-.27.35-.69.35-1.26s-.12-.96-.36-1.24c-.24-.28-.54-.42-.88-.42s-.62.14-.86.41c-.24.27-.35.68-.35,1.22Z" class="c"/><path d="m298.67,168.45v-.87h.76v.87h-.76Zm0,5.3v-4.47h.76v4.47h-.76Z" class="c"/><path d="m300.59,173.76v-4.47h.68v.64c.33-.49.8-.74,1.42-.74.27,0,.52.05.74.15.23.1.39.22.51.38s.19.34.24.56c.03.14.04.39.04.74v2.75h-.76v-2.72c0-.31-.03-.54-.09-.69-.06-.15-.16-.28-.31-.37-.15-.09-.33-.14-.53-.14-.32,0-.6.1-.84.31s-.35.59-.35,1.17v2.44h-.76Z" class="c"/></g><g><polygon points="270.59 61.74 277.24 56.03 286.07 66.52 283.56 70.36 275.42 70.36 269.79 77.65 268.49 79.33 261.2 79.33 261.2 70.38 268 61.74 270.59 61.74" class="d"/><polygon points="290.33 38.12 299.79 45.61 298.58 46.86 300.22 49.17 300.22 51.63 295.5 55.5 287.57 46.06 282.95 46.06 284.81 42.63 290.33 38.12" class="d"/><polygon points="282.21 47.78 286.76 47.78 307.21 71.97 305.63 79.33 296.87 79.33 297.41 77.25 278.3 54.64 282.21 47.78" class="d"/><polygon points="276.29 72.06 284.67 72.06 289.02 77.48 288.28 79.33 277.44 79.33 277.71 77.48 275.16 73.49 276.29 72.06" class="d"/></g><rect width="46.01" height="46.01" x="261.2" y="35.71" class="k"/><g><path d="m256.18,98.27v-6.18h.82v3.06l3.07-3.06h1.11l-2.59,2.5,2.71,3.67h-1.08l-2.2-3.13-1.01.99v2.14h-.82Z" class="c"/><path d="m261.59,96.03c0-.83.23-1.44.69-1.84.38-.33.85-.5,1.41-.5.62,0,1.12.2,1.51.6.39.4.58.96.58,1.67,0,.58-.09,1.03-.26,1.36s-.42.59-.75.77-.69.27-1.08.27c-.63,0-1.13-.2-1.52-.6-.39-.4-.58-.98-.58-1.74Zm.78,0c0,.57.12,1,.38,1.29s.56.43.94.43.69-.14.94-.43.38-.72.38-1.31c0-.55-.12-.97-.38-1.26-.25-.29-.56-.43-.94-.43s-.69.14-.94.43c-.25.28-.38.71-.38,1.28Z" class="c"/><path d="m266.67,98.27v-4.47h.68v.64c.33-.49.8-.74,1.42-.74.27,0,.52.05.74.15.23.1.39.22.51.38s.19.34.24.56c.03.14.04.39.04.74v2.75h-.76v-2.72c0-.31-.03-.54-.09-.69-.06-.15-.16-.28-.31-.37-.15-.09-.33-.14-.53-.14-.32,0-.6.1-.84.31s-.35.59-.35,1.17v2.44h-.76Z" class="c"/><path d="m271.33,98.64l.74.11c.03.23.12.39.26.5.19.14.45.21.77.21.35,0,.62-.07.81-.21s.32-.34.39-.59c.04-.15.06-.48.05-.97-.33.39-.74.59-1.24.59-.62,0-1.09-.22-1.43-.67-.34-.44-.5-.98-.5-1.6,0-.43.08-.82.23-1.18.15-.36.38-.64.67-.84s.64-.29,1.03-.29c.53,0,.96.21,1.31.64v-.54h.7v3.87c0,.7-.07,1.19-.21,1.48-.14.29-.37.52-.67.69-.31.17-.69.25-1.13.25-.53,0-.96-.12-1.29-.36-.33-.24-.49-.6-.48-1.08Zm.63-2.69c0,.59.12,1.02.35,1.29.23.27.53.4.88.4s.64-.13.88-.4c.24-.27.35-.69.35-1.26s-.12-.96-.36-1.24c-.24-.28-.54-.42-.88-.42s-.62.14-.86.41c-.24.27-.35.68-.35,1.22Z" class="c"/><path d="m281.65,95.84v-.72h2.62s0,2.29,0,2.29c-.4.32-.82.56-1.24.72-.43.16-.87.24-1.31.24-.61,0-1.16-.13-1.65-.39s-.87-.64-1.12-1.13c-.25-.49-.38-1.04-.38-1.65s.13-1.16.38-1.68c.25-.52.61-.91,1.08-1.16s1.02-.38,1.63-.38c.45,0,.85.07,1.21.22.36.14.64.35.85.6.21.26.36.6.47,1.01l-.74.2c-.09-.31-.21-.56-.35-.74s-.33-.32-.59-.43c-.25-.11-.54-.16-.85-.16-.37,0-.7.06-.97.17-.27.11-.49.26-.66.45-.17.19-.3.39-.39.61-.16.38-.24.8-.24,1.24,0,.55.09,1.01.28,1.38.19.37.47.65.83.83s.75.27,1.15.27c.35,0,.7-.07,1.04-.2.34-.14.59-.28.77-.44v-1.15h-1.82Z" class="c"/><path d="m288.29,97.71c-.28.24-.55.41-.81.51-.26.1-.54.15-.84.15-.49,0-.87-.12-1.13-.36-.26-.24-.4-.55-.4-.92,0-.22.05-.42.15-.6.1-.18.23-.33.39-.44.16-.11.34-.19.54-.25.15-.04.37-.08.67-.11.61-.07,1.06-.16,1.35-.26,0-.1,0-.17,0-.2,0-.31-.07-.53-.21-.65-.19-.17-.48-.26-.86-.26-.36,0-.62.06-.79.19s-.29.35-.38.66l-.74-.1c.07-.32.18-.57.33-.77.15-.2.38-.35.67-.45s.63-.16,1.01-.16.69.04.93.13c.24.09.41.2.53.34.11.14.19.31.24.52.03.13.04.36.04.7v1.01c0,.71.02,1.15.05,1.34s.1.37.19.54h-.79c-.08-.16-.13-.34-.15-.55Zm-.06-1.69c-.28.11-.69.21-1.24.29-.31.04-.53.1-.66.15-.13.06-.23.14-.3.25-.07.11-.11.23-.11.36,0,.2.08.37.23.5.15.13.38.2.67.2s.55-.06.78-.19.39-.3.5-.52c.08-.17.12-.42.12-.76v-.28Z" class="c"/><path d="m291.83,97.59l.11.67c-.21.04-.4.07-.57.07-.28,0-.49-.04-.64-.13-.15-.09-.26-.2-.32-.34-.06-.14-.09-.44-.09-.9v-2.57h-.56v-.59h.56v-1.11l.75-.46v1.56h.76v.59h-.76v2.62c0,.22.01.35.04.42.03.06.07.11.13.15.06.04.15.05.26.05.08,0,.2,0,.33-.03Z" class="c"/><path d="m295.63,96.82l.78.1c-.12.46-.35.81-.69,1.07-.33.25-.76.38-1.28.38-.65,0-1.17-.2-1.56-.61-.38-.4-.57-.97-.57-1.7s.19-1.34.58-1.75c.39-.42.89-.62,1.51-.62s1.09.2,1.47.61c.38.41.57.98.57,1.72,0,.04,0,.11,0,.2h-3.34c.03.49.17.87.42,1.13.25.26.56.39.94.39.28,0,.51-.07.71-.22.2-.15.35-.38.47-.7Zm-2.49-1.23h2.5c-.03-.38-.13-.66-.29-.85-.24-.29-.55-.44-.94-.44-.35,0-.64.12-.88.35-.24.23-.37.54-.39.93Z" class="c"/><path d="m298.19,98.27l-1.37-4.47h.78l.71,2.58.27.96s.09-.36.23-.92l.71-2.62h.78l.67,2.59.22.86.26-.86.77-2.59h.74l-1.4,4.47h-.79l-.71-2.68-.17-.76-.91,3.44h-.79Z" class="c"/><path d="m306.52,97.71c-.28.24-.55.41-.81.51-.26.1-.54.15-.84.15-.49,0-.87-.12-1.13-.36-.26-.24-.4-.55-.4-.92,0-.22.05-.42.15-.6.1-.18.23-.33.39-.44.16-.11.34-.19.54-.25.15-.04.37-.08.67-.11.61-.07,1.06-.16,1.35-.26,0-.1,0-.17,0-.2,0-.31-.07-.53-.21-.65-.19-.17-.48-.26-.86-.26-.36,0-.62.06-.79.19s-.29.35-.38.66l-.74-.1c.07-.32.18-.57.33-.77.15-.2.38-.35.67-.45s.63-.16,1.01-.16.69.04.93.13c.24.09.41.2.53.34.11.14.19.31.24.52.03.13.04.36.04.7v1.01c0,.71.02,1.15.05,1.34s.1.37.19.54h-.79c-.08-.16-.13-.34-.15-.55Zm-.06-1.69c-.28.11-.69.21-1.24.29-.31.04-.53.1-.66.15-.13.06-.23.14-.3.25-.07.11-.11.23-.11.36,0,.2.08.37.23.5.15.13.38.2.67.2s.55-.06.78-.19.39-.3.5-.52c.08-.17.12-.42.12-.76v-.28Z" class="c"/><path d="m308.36,99.99l-.08-.71c.17.04.31.07.43.07.17,0,.3-.03.4-.08.1-.06.18-.13.25-.24.05-.08.12-.26.23-.56.01-.04.04-.1.07-.18l-1.7-4.48h.82l.93,2.59c.12.33.23.67.32,1.04.09-.35.19-.69.31-1.02l.96-2.61h.76l-1.7,4.55c-.18.49-.32.83-.43,1.01-.13.25-.29.43-.46.55-.17.12-.38.17-.62.17-.15,0-.31-.03-.49-.09Z" class="c"/></g><line x1="487.36" x2="401.4" y1="174.84" y2="174.84" class="h"/><polygon points="397.63 174.84 402.66 172.32 401.4 174.84 402.66 177.35 397.63 174.84" class="n"/><polygon points="397.63 174.84 402.66 172.32 401.4 174.84 402.66 177.35 397.63 174.84" class="h"/><rect width="43.86" height="9.35" x="420.09" y="170.16" class="g"/><g><path d="m420.15,175.87l.73-.06c.05.36.18.62.38.8s.43.27.71.27c.33,0,.62-.13.85-.38.23-.25.35-.59.35-1s-.11-.71-.33-.94-.51-.34-.87-.34c-.22,0-.43.05-.61.15-.18.1-.32.23-.42.4l-.65-.08.55-2.91h2.82v.66h-2.26l-.31,1.52c.34-.24.7-.36,1.07-.36.49,0,.91.17,1.25.51.34.34.51.78.51,1.32s-.15.96-.45,1.33c-.36.46-.86.69-1.49.69-.52,0-.94-.14-1.26-.43-.33-.29-.51-.67-.56-1.15Z" class="c"/><path d="m424.94,177.35v-.79h.79v.79h-.79Z" class="c"/><path d="m429.24,177.35v-5.66h2.51c.5,0,.89.05,1.15.15s.47.28.63.54c.16.26.24.54.24.85,0,.4-.13.74-.39,1.02-.26.28-.66.45-1.21.52.2.1.35.19.45.28.22.2.43.45.62.75l.99,1.54h-.94l-.75-1.18c-.22-.34-.4-.6-.54-.78-.14-.18-.27-.31-.38-.38-.11-.07-.23-.12-.34-.15-.08-.02-.22-.03-.42-.03h-.87v2.51h-.75Zm.75-3.16h1.61c.34,0,.61-.04.8-.11.19-.07.34-.18.44-.34.1-.16.15-.33.15-.51,0-.27-.1-.49-.29-.66-.19-.17-.5-.26-.92-.26h-1.79v1.87Z" class="c"/><path d="m437.66,176.03l.72.09c-.11.42-.32.75-.63.98-.31.23-.7.35-1.17.35-.6,0-1.08-.18-1.43-.55-.35-.37-.53-.89-.53-1.55s.18-1.23.53-1.61.82-.57,1.38-.57,1,.19,1.34.56.52.9.52,1.58c0,.04,0,.1,0,.19h-3.06c.03.45.15.8.38,1.04.23.24.51.36.86.36.25,0,.47-.07.65-.2.18-.13.32-.35.43-.64Zm-2.28-1.12h2.29c-.03-.34-.12-.6-.26-.78-.22-.27-.51-.4-.86-.4-.32,0-.59.11-.81.32-.22.21-.34.5-.36.86Z" class="c"/><path d="m438.97,176.13l.69-.11c.04.28.15.49.32.63.18.15.42.22.74.22s.56-.07.71-.2.23-.28.23-.46c0-.16-.07-.28-.2-.37-.1-.06-.33-.14-.71-.24-.51-.13-.86-.24-1.06-.33-.2-.09-.35-.22-.45-.39s-.15-.35-.15-.55c0-.18.04-.35.12-.51.08-.16.2-.29.34-.39.11-.08.26-.15.44-.2.19-.06.39-.08.6-.08.32,0,.6.05.85.14s.42.22.54.38c.12.16.2.37.24.64l-.68.09c-.03-.21-.12-.38-.27-.49-.15-.12-.36-.18-.63-.18-.32,0-.55.05-.68.16-.14.11-.2.23-.2.37,0,.09.03.17.08.24.06.07.15.14.27.18.07.03.27.08.61.18.49.13.83.24,1.03.32.19.08.35.21.46.36.11.16.17.36.17.59s-.07.45-.2.66c-.13.2-.33.36-.58.47s-.54.17-.87.17c-.53,0-.94-.11-1.22-.33s-.46-.55-.54-.99Z" class="c"/><path d="m443.2,178.92v-5.67h.63v.53c.15-.21.32-.37.51-.47.19-.1.42-.16.68-.16.35,0,.66.09.93.27.27.18.47.43.61.76s.21.69.21,1.08c0,.42-.08.8-.23,1.13-.15.34-.37.59-.66.77s-.59.27-.91.27c-.23,0-.44-.05-.62-.15-.18-.1-.33-.22-.45-.37v2h-.7Zm.63-3.6c0,.53.11.92.32,1.17.21.25.47.38.78.38s.57-.13.79-.39c.22-.26.33-.67.33-1.21s-.11-.91-.32-1.17c-.21-.26-.47-.39-.77-.39s-.56.14-.79.42c-.23.28-.34.68-.34,1.21Z" class="c"/><path d="m447.34,175.3c0-.76.21-1.32.63-1.69.35-.3.78-.46,1.29-.46.56,0,1.02.18,1.38.55.36.37.54.88.54,1.53,0,.53-.08.94-.24,1.25s-.39.54-.69.71c-.3.17-.63.25-.99.25-.57,0-1.04-.18-1.39-.55-.35-.37-.53-.9-.53-1.59Zm.71,0c0,.53.12.92.34,1.18.23.26.52.39.87.39s.63-.13.86-.39.34-.66.34-1.2c0-.51-.12-.89-.35-1.15-.23-.26-.52-.39-.86-.39s-.64.13-.87.39c-.23.26-.34.65-.34,1.18Z" class="c"/><path d="m452,177.35v-4.1h.62v.58c.3-.45.74-.68,1.31-.68.25,0,.47.04.68.13s.36.21.46.35c.1.14.18.32.22.51.03.13.04.35.04.68v2.52h-.69v-2.5c0-.28-.03-.49-.08-.63-.05-.14-.15-.25-.29-.34s-.3-.13-.48-.13c-.3,0-.55.09-.77.28-.21.19-.32.54-.32,1.07v2.24h-.7Z" class="c"/><path d="m456.12,176.13l.69-.11c.04.28.15.49.32.63.18.15.42.22.74.22s.56-.07.71-.2.23-.28.23-.46c0-.16-.07-.28-.2-.37-.1-.06-.33-.14-.71-.24-.51-.13-.86-.24-1.06-.33-.2-.09-.35-.22-.45-.39s-.15-.35-.15-.55c0-.18.04-.35.12-.51.08-.16.2-.29.34-.39.11-.08.26-.15.44-.2.19-.06.39-.08.6-.08.32,0,.6.05.85.14s.42.22.54.38c.12.16.2.37.24.64l-.68.09c-.03-.21-.12-.38-.27-.49-.15-.12-.36-.18-.63-.18-.32,0-.55.05-.68.16-.14.11-.2.23-.2.37,0,.09.03.17.08.24.06.07.15.14.27.18.07.03.27.08.61.18.49.13.83.24,1.03.32.19.08.35.21.46.36.11.16.17.36.17.59s-.07.45-.2.66c-.13.2-.33.36-.58.47s-.54.17-.87.17c-.53,0-.94-.11-1.22-.33s-.46-.55-.54-.99Z" class="c"/><path d="m463.16,176.03l.72.09c-.11.42-.32.75-.63.98-.31.23-.7.35-1.17.35-.6,0-1.08-.18-1.43-.55-.35-.37-.53-.89-.53-1.55s.18-1.23.53-1.61.82-.57,1.38-.57,1,.19,1.34.56.52.9.52,1.58c0,.04,0,.1,0,.19h-3.06c.03.45.15.8.38,1.04.23.24.51.36.86.36.25,0,.47-.07.65-.2.18-.13.32-.35.43-.64Zm-2.28-1.12h2.29c-.03-.34-.12-.6-.26-.78-.22-.27-.51-.4-.86-.4-.32,0-.59.11-.81.32-.22.21-.34.5-.36.86Z" class="c"/></g><g><path d="m500.31,13.07h189.81c.85,0,1.69.08,2.52.25.83.17,1.64.41,2.43.74s1.53.72,2.24,1.2c.71.47,1.36,1.01,1.96,1.61.6.6,1.14,1.25,1.61,1.96.47.71.87,1.45,1.2,2.24.33.79.57,1.59.74,2.43.17.83.25,1.68.25,2.52v189.81c0,.85-.08,1.69-.25,2.52-.17.83-.41,1.64-.74,2.43-.33.79-.72,1.53-1.2,2.24-.47.71-1.01,1.36-1.61,1.96-.6.6-1.25,1.14-1.96,1.61-.71.47-1.45.87-2.24,1.2-.79.33-1.59.57-2.43.74-.83.17-1.68.25-2.52.25h-189.81c-.85,0-1.69-.08-2.52-.25-.83-.17-1.64-.41-2.43-.74-.79-.33-1.53-.72-2.24-1.2-.71-.47-1.36-1.01-1.96-1.61-.6-.6-1.14-1.25-1.61-1.96s-.87-1.45-1.2-2.24c-.33-.79-.57-1.59-.74-2.43-.17-.83-.25-1.68-.25-2.52V26.01c0-.85.08-1.69.25-2.52.17-.83.41-1.64.74-2.43.33-.79.72-1.53,1.2-2.24.47-.71,1.01-1.36,1.61-1.96.6-.6,1.25-1.14,1.96-1.61.71-.47,1.45-.87,2.24-1.2.79-.33,1.59-.57,2.43-.74.83-.17,1.68-.25,2.53-.25Z" class="i"/><path d="m526.19,70.58h106.41c.66,0,1.32.06,1.96.19.65.13,1.28.32,1.89.57.61.25,1.19.56,1.74.93.55.37,1.06.78,1.53,1.25.47.47.88.98,1.25,1.53.37.55.68,1.13.93,1.74.25.61.44,1.24.57,1.89.13.65.19,1.3.19,1.96v46.97c0,.66-.06,1.32-.19,1.96-.13.65-.32,1.28-.57,1.89-.25.61-.56,1.19-.93,1.74-.37.55-.78,1.06-1.25,1.53-.47.47-.98.88-1.53,1.25-.55.37-1.13.68-1.74.93-.61.25-1.24.44-1.89.57-.65.13-1.3.19-1.96.19h-106.41c-.66,0-1.32-.06-1.96-.19s-1.28-.32-1.89-.57c-.61-.25-1.19-.56-1.74-.93-.55-.37-1.06-.78-1.53-1.25-.47-.47-.88-.98-1.25-1.53-.37-.55-.68-1.13-.93-1.74-.25-.61-.44-1.24-.57-1.89-.13-.65-.19-1.3-.19-1.96v-46.97c0-.66.06-1.32.19-1.96s.32-1.28.57-1.89c.25-.61.56-1.19.93-1.74s.78-1.06,1.25-1.53c.47-.47.98-.88,1.53-1.25s1.13-.68,1.74-.93c.61-.25,1.24-.44,1.89-.57.65-.13,1.3-.19,1.96-.19Z" class="m"/><path d="m526.19,70.58h106.41c.66,0,1.32.06,1.96.19.65.13,1.28.32,1.89.57.61.25,1.19.56,1.74.93.55.37,1.06.78,1.53,1.25.47.47.88.98,1.25,1.53.37.55.68,1.13.93,1.74.25.61.44,1.24.57,1.89.13.65.19,1.3.19,1.96v46.97c0,.66-.06,1.32-.19,1.96-.13.65-.32,1.28-.57,1.89-.25.61-.56,1.19-.93,1.74-.37.55-.78,1.06-1.25,1.53-.47.47-.98.88-1.53,1.25-.55.37-1.13.68-1.74.93-.61.25-1.24.44-1.89.57-.65.13-1.3.19-1.96.19h-106.41c-.66,0-1.32-.06-1.96-.19s-1.28-.32-1.89-.57c-.61-.25-1.19-.56-1.74-.93-.55-.37-1.06-.78-1.53-1.25-.47-.47-.88-.98-1.25-1.53-.37-.55-.68-1.13-.93-1.74-.25-.61-.44-1.24-.57-1.89-.13-.65-.19-1.3-.19-1.96v-46.97c0-.66.06-1.32.19-1.96s.32-1.28.57-1.89c.25-.61.56-1.19.93-1.74s.78-1.06,1.25-1.53c.47-.47.98-.88,1.53-1.25s1.13-.68,1.74-.93c.61-.25,1.24-.44,1.89-.57.65-.13,1.3-.19,1.96-.19Z" class="i"/><path d="m536.74,81.77h106.41c.66,0,1.32.06,1.96.19.65.13,1.28.32,1.89.57.61.25,1.19.56,1.74.93.55.37,1.06.78,1.53,1.25.47.47.88.98,1.25,1.53.37.55.68,1.13.93,1.74.25.61.44,1.24.57,1.89.13.65.19,1.3.19,1.96v46.97c0,.66-.06,1.32-.19,1.96s-.32,1.28-.57,1.89c-.25.61-.56,1.19-.93,1.74-.37.55-.78,1.06-1.25,1.53-.47.47-.98.88-1.53,1.25-.55.37-1.13.68-1.74.93-.61.25-1.24.44-1.89.57-.65.13-1.3.19-1.96.19h-106.41c-.66,0-1.32-.06-1.96-.19-.65-.13-1.28-.32-1.89-.57-.61-.25-1.19-.56-1.74-.93-.55-.37-1.06-.78-1.53-1.25-.47-.47-.88-.98-1.25-1.53-.37-.55-.68-1.13-.93-1.74-.25-.61-.44-1.24-.57-1.89s-.19-1.3-.19-1.96v-46.97c0-.66.06-1.32.19-1.96.13-.65.32-1.28.57-1.89.25-.61.56-1.19.93-1.74.37-.55.78-1.06,1.25-1.53.47-.47.98-.88,1.53-1.25.55-.37,1.13-.68,1.74-.93.61-.25,1.24-.44,1.89-.57.65-.13,1.3-.19,1.96-.19Z" class="m"/><path d="m536.74,81.77h106.41c.66,0,1.32.06,1.96.19.65.13,1.28.32,1.89.57.61.25,1.19.56,1.74.93.55.37,1.06.78,1.53,1.25.47.47.88.98,1.25,1.53.37.55.68,1.13.93,1.74.25.61.44,1.24.57,1.89.13.65.19,1.3.19,1.96v46.97c0,.66-.06,1.32-.19,1.96s-.32,1.28-.57,1.89c-.25.61-.56,1.19-.93,1.74-.37.55-.78,1.06-1.25,1.53-.47.47-.98.88-1.53,1.25-.55.37-1.13.68-1.74.93-.61.25-1.24.44-1.89.57-.65.13-1.3.19-1.96.19h-106.41c-.66,0-1.32-.06-1.96-.19-.65-.13-1.28-.32-1.89-.57-.61-.25-1.19-.56-1.74-.93-.55-.37-1.06-.78-1.53-1.25-.47-.47-.88-.98-1.25-1.53-.37-.55-.68-1.13-.93-1.74-.25-.61-.44-1.24-.57-1.89s-.19-1.3-.19-1.96v-46.97c0-.66.06-1.32.19-1.96.13-.65.32-1.28.57-1.89.25-.61.56-1.19.93-1.74.37-.55.78-1.06,1.25-1.53.47-.47.98-.88,1.53-1.25.55-.37,1.13-.68,1.74-.93.61-.25,1.24-.44,1.89-.57.65-.13,1.3-.19,1.96-.19Z" class="i"/><path d="m547.28,92.95h106.41c.66,0,1.32.06,1.96.19.65.13,1.28.32,1.89.57.61.25,1.19.56,1.74.93.55.37,1.06.78,1.53,1.25.47.47.88.98,1.25,1.53.37.55.68,1.13.93,1.74.25.61.44,1.24.57,1.89.13.65.19,1.3.19,1.96v46.97c0,.66-.06,1.32-.19,1.96-.13.65-.32,1.28-.57,1.89-.25.61-.56,1.19-.93,1.74-.37.55-.78,1.06-1.25,1.53-.47.47-.98.88-1.53,1.25-.55.37-1.13.68-1.74.93-.61.25-1.24.44-1.89.57s-1.3.19-1.96.19h-106.41c-.66,0-1.32-.06-1.96-.19-.65-.13-1.28-.32-1.89-.57-.61-.25-1.19-.56-1.74-.93-.55-.37-1.06-.78-1.53-1.25-.47-.47-.88-.98-1.25-1.53-.37-.55-.68-1.13-.93-1.74-.25-.61-.44-1.24-.57-1.89-.13-.65-.19-1.3-.19-1.96v-46.97c0-.66.06-1.32.19-1.96.13-.65.32-1.28.57-1.89.25-.61.56-1.19.93-1.74.37-.55.78-1.06,1.25-1.53s.98-.88,1.53-1.25c.55-.37,1.13-.68,1.74-.93.61-.25,1.24-.44,1.89-.57.65-.13,1.3-.19,1.96-.19Z" class="m"/><path d="m547.28,92.95h106.41c.66,0,1.32.06,1.96.19.65.13,1.28.32,1.89.57.61.25,1.19.56,1.74.93.55.37,1.06.78,1.53,1.25.47.47.88.98,1.25,1.53.37.55.68,1.13.93,1.74.25.61.44,1.24.57,1.89.13.65.19,1.3.19,1.96v46.97c0,.66-.06,1.32-.19,1.96-.13.65-.32,1.28-.57,1.89-.25.61-.56,1.19-.93,1.74-.37.55-.78,1.06-1.25,1.53-.47.47-.98.88-1.53,1.25-.55.37-1.13.68-1.74.93-.61.25-1.24.44-1.89.57s-1.3.19-1.96.19h-106.41c-.66,0-1.32-.06-1.96-.19-.65-.13-1.28-.32-1.89-.57-.61-.25-1.19-.56-1.74-.93-.55-.37-1.06-.78-1.53-1.25-.47-.47-.88-.98-1.25-1.53-.37-.55-.68-1.13-.93-1.74-.25-.61-.44-1.24-.57-1.89-.13-.65-.19-1.3-.19-1.96v-46.97c0-.66.06-1.32.19-1.96.13-.65.32-1.28.57-1.89.25-.61.56-1.19.93-1.74.37-.55.78-1.06,1.25-1.53s.98-.88,1.53-1.25c.55-.37,1.13-.68,1.74-.93.61-.25,1.24-.44,1.89-.57.65-.13,1.3-.19,1.96-.19Z" class="i"/><path d="m557.82,104.14h106.41c.66,0,1.32.06,1.96.19.65.13,1.28.32,1.89.57.61.25,1.19.56,1.74.93.55.37,1.06.78,1.53,1.25.47.47.88.98,1.25,1.53.37.55.68,1.13.93,1.74.25.61.44,1.24.57,1.89.13.65.19,1.3.19,1.96v46.97c0,.66-.06,1.32-.19,1.96-.13.65-.32,1.28-.57,1.89s-.56,1.19-.93,1.74c-.37.55-.78,1.06-1.25,1.53-.47.47-.98.88-1.53,1.25-.55.37-1.13.68-1.74.93-.61.25-1.24.44-1.89.57-.65.13-1.3.19-1.96.19h-106.41c-.66,0-1.32-.06-1.96-.19-.65-.13-1.28-.32-1.89-.57-.61-.25-1.19-.56-1.74-.93-.55-.37-1.06-.78-1.53-1.25-.47-.47-.88-.98-1.25-1.53-.37-.55-.68-1.13-.93-1.74-.25-.61-.44-1.24-.57-1.89-.13-.65-.19-1.3-.19-1.96v-46.97c0-.66.06-1.32.19-1.96.13-.65.32-1.28.57-1.89.25-.61.56-1.19.93-1.74.37-.55.78-1.06,1.25-1.53s.98-.88,1.53-1.25,1.13-.68,1.74-.93c.61-.25,1.24-.44,1.89-.57.65-.13,1.3-.19,1.96-.19Z" class="m"/><path d="m557.82,104.14h106.41c.66,0,1.32.06,1.96.19.65.13,1.28.32,1.89.57.61.25,1.19.56,1.74.93.55.37,1.06.78,1.53,1.25.47.47.88.98,1.25,1.53.37.55.68,1.13.93,1.74.25.61.44,1.24.57,1.89.13.65.19,1.3.19,1.96v46.97c0,.66-.06,1.32-.19,1.96-.13.65-.32,1.28-.57,1.89s-.56,1.19-.93,1.74c-.37.55-.78,1.06-1.25,1.53-.47.47-.98.88-1.53,1.25-.55.37-1.13.68-1.74.93-.61.25-1.24.44-1.89.57-.65.13-1.3.19-1.96.19h-106.41c-.66,0-1.32-.06-1.96-.19-.65-.13-1.28-.32-1.89-.57-.61-.25-1.19-.56-1.74-.93-.55-.37-1.06-.78-1.53-1.25-.47-.47-.88-.98-1.25-1.53-.37-.55-.68-1.13-.93-1.74-.25-.61-.44-1.24-.57-1.89-.13-.65-.19-1.3-.19-1.96v-46.97c0-.66.06-1.32.19-1.96.13-.65.32-1.28.57-1.89.25-.61.56-1.19.93-1.74.37-.55.78-1.06,1.25-1.53s.98-.88,1.53-1.25,1.13-.68,1.74-.93c.61-.25,1.24-.44,1.89-.57.65-.13,1.3-.19,1.96-.19Z" class="i"/><g><path d="m581.21,28.01l.77-.07c.04.31.12.56.25.76.13.2.34.36.62.48.28.12.6.18.95.18.31,0,.59-.05.83-.14.24-.09.42-.22.53-.38.12-.16.17-.34.17-.53s-.06-.36-.17-.51-.3-.27-.56-.36c-.17-.06-.53-.17-1.1-.3-.57-.14-.96-.26-1.19-.39-.29-.15-.51-.35-.66-.58-.15-.23-.22-.49-.22-.77,0-.31.09-.6.27-.87.18-.27.44-.48.78-.62s.72-.21,1.13-.21c.46,0,.86.07,1.21.22s.62.36.81.65c.19.29.29.61.3.97l-.78.06c-.04-.39-.18-.69-.43-.88s-.6-.3-1.08-.3-.85.09-1.08.27c-.23.18-.34.4-.34.66,0,.22.08.4.24.55.16.14.57.29,1.23.44.66.15,1.12.28,1.37.39.36.17.62.38.8.63.17.25.26.55.26.88s-.09.64-.28.93c-.19.29-.46.52-.81.68-.35.16-.75.24-1.19.24-.56,0-1.03-.08-1.41-.24-.38-.16-.67-.41-.89-.74s-.33-.7-.34-1.11Z" class="c"/><path d="m590.21,28.55l.78.1c-.12.46-.35.81-.69,1.07-.33.25-.76.38-1.28.38-.65,0-1.17-.2-1.56-.61-.38-.4-.57-.97-.57-1.7s.19-1.34.58-1.75c.39-.42.89-.62,1.51-.62s1.09.2,1.47.61c.38.41.57.98.57,1.72,0,.04,0,.11,0,.2h-3.34c.03.49.17.87.42,1.13.25.26.56.39.94.39.28,0,.51-.07.71-.22.2-.15.35-.38.47-.7Zm-2.49-1.23h2.5c-.03-.38-.13-.66-.29-.85-.24-.29-.55-.44-.94-.44-.35,0-.64.12-.88.35-.24.23-.37.54-.39.93Z" class="c"/><path d="m591.94,29.99v-4.47h.68v.68c.17-.32.33-.53.48-.63.15-.1.31-.15.49-.15.25,0,.51.08.78.24l-.26.7c-.18-.11-.37-.16-.56-.16-.17,0-.31.05-.45.15-.13.1-.23.24-.28.42-.08.27-.13.56-.13.88v2.34h-.76Z" class="c"/><path d="m596.06,29.99l-1.7-4.47h.8l.96,2.68c.1.29.2.59.29.9.07-.24.16-.52.28-.85l.99-2.73h.78l-1.69,4.47h-.71Z" class="c"/><path d="m599.14,24.69v-.87h.76v.87h-.76Zm0,5.3v-4.47h.76v4.47h-.76Z" class="c"/><path d="m603.97,28.35l.75.1c-.08.51-.29.92-.62,1.21-.34.29-.75.44-1.24.44-.61,0-1.1-.2-1.48-.6s-.56-.97-.56-1.72c0-.48.08-.91.24-1.27s.4-.63.73-.82c.33-.18.68-.27,1.07-.27.49,0,.88.12,1.19.37.31.25.51.59.59,1.05l-.74.11c-.07-.3-.19-.53-.37-.68-.18-.15-.39-.23-.65-.23-.38,0-.69.14-.93.41-.24.27-.36.71-.36,1.3s.12,1.04.35,1.31.53.41.9.41c.3,0,.55-.09.75-.27.2-.18.33-.46.38-.84Z" class="c"/><path d="m608.43,28.55l.78.1c-.12.46-.35.81-.69,1.07-.33.25-.76.38-1.28.38-.65,0-1.17-.2-1.56-.61-.38-.4-.57-.97-.57-1.7s.19-1.34.58-1.75c.39-.42.89-.62,1.51-.62s1.09.2,1.47.61c.38.41.57.98.57,1.72,0,.04,0,.11,0,.2h-3.34c.03.49.17.87.42,1.13.25.26.56.39.94.39.28,0,.51-.07.71-.22.2-.15.35-.38.47-.7Zm-2.49-1.23h2.5c-.03-.38-.13-.66-.29-.85-.24-.29-.55-.44-.94-.44-.35,0-.64.12-.88.35-.24.23-.37.54-.39.93Z" class="c"/></g></g></g></g></svg>