<?xml version="1.0" encoding="UTF-8"?>
<svg xmlns="http://www.w3.org/2000/svg" viewBox="0 0 700 400">
  <defs>
    <style>
      .c {
        fill: #fff;
      }

      .d {
        fill: #c7c4c1;
      }

      .e {
        fill: #f27a40;
      }

      .f {
        fill: #56524d;
      }

      .g {
        fill: #2e2b29;
      }

      .h {
        stroke-miterlimit: 10;
      }

      .h, .i {
        stroke: #868079;
      }

      .h, .i, .j {
        stroke-width: .72px;
      }

      .h, .i, .j, .k {
        fill: none;
      }

      .l {
        fill: #8ec4ad;
      }

      .j {
        stroke: #bfded1;
      }

      .m {
        fill: #403d3a;
      }

      .n {
        fill: #868079;
      }

      .o {
        fill: #009438;
      }

      .p {
        fill: #1d1d1b;
      }
    </style>
  </defs>
  <g id="a" data-name="bg">
    <rect class="g" x="-158.7" y="-50" width="4090.86" height="500"/>
  </g>
  <g id="b" data-name="Warstwa 1">
    <g>
      <g>
        <path class="i" d="m483.94,23.77h189.81c.85,0,1.69.08,2.52.25.83.17,1.64.41,2.43.74s1.53.72,2.24,1.2c.71.47,1.36,1.01,1.96,1.61.6.6,1.14,1.25,1.61,1.96.47.71.87,1.45,1.2,2.24.33.79.57,1.59.74,2.43.17.83.25,1.68.25,2.52v189.81c0,.85-.08,1.69-.25,2.52-.17.83-.41,1.64-.74,2.43-.33.79-.72,1.53-1.2,2.24-.47.71-1.01,1.36-1.61,1.96-.6.6-1.25,1.14-1.96,1.61-.71.47-1.45.87-2.24,1.2-.79.33-1.59.57-2.43.74-.83.17-1.68.25-2.52.25h-189.81c-.85,0-1.69-.08-2.52-.25-.83-.17-1.64-.41-2.43-.74-.79-.33-1.53-.72-2.24-1.2-.71-.47-1.36-1.01-1.96-1.61-.6-.6-1.14-1.25-1.61-1.96s-.87-1.45-1.2-2.24c-.33-.79-.57-1.59-.74-2.43-.17-.83-.25-1.68-.25-2.52V36.71c0-.85.08-1.69.25-2.52.17-.83.41-1.64.74-2.43.33-.79.72-1.53,1.2-2.24.47-.71,1.01-1.36,1.61-1.96.6-.6,1.25-1.14,1.96-1.61.71-.47,1.45-.87,2.24-1.2.79-.33,1.59-.57,2.43-.74.83-.17,1.68-.25,2.53-.25Z"/>
        <path class="m" d="m509.82,81.29h106.41c.66,0,1.32.06,1.96.19.65.13,1.28.32,1.89.57.61.25,1.19.56,1.74.93.55.37,1.06.78,1.53,1.25.47.47.88.98,1.25,1.53.37.55.68,1.13.93,1.74.25.61.44,1.24.57,1.89.13.65.19,1.3.19,1.96v46.97c0,.66-.06,1.32-.19,1.96-.13.65-.32,1.28-.57,1.89-.25.61-.56,1.19-.93,1.74-.37.55-.78,1.06-1.25,1.53-.47.47-.98.88-1.53,1.25-.55.37-1.13.68-1.74.93-.61.25-1.24.44-1.89.57-.65.13-1.3.19-1.96.19h-106.41c-.66,0-1.32-.06-1.96-.19s-1.28-.32-1.89-.57c-.61-.25-1.19-.56-1.74-.93-.55-.37-1.06-.78-1.53-1.25-.47-.47-.88-.98-1.25-1.53-.37-.55-.68-1.13-.93-1.74-.25-.61-.44-1.24-.57-1.89-.13-.65-.19-1.3-.19-1.96v-46.97c0-.66.06-1.32.19-1.96s.32-1.28.57-1.89c.25-.61.56-1.19.93-1.74s.78-1.06,1.25-1.53c.47-.47.98-.88,1.53-1.25s1.13-.68,1.74-.93c.61-.25,1.24-.44,1.89-.57.65-.13,1.3-.19,1.96-.19Z"/>
        <path class="i" d="m509.82,81.29h106.41c.66,0,1.32.06,1.96.19.65.13,1.28.32,1.89.57.61.25,1.19.56,1.74.93.55.37,1.06.78,1.53,1.25.47.47.88.98,1.25,1.53.37.55.68,1.13.93,1.74.25.61.44,1.24.57,1.89.13.65.19,1.3.19,1.96v46.97c0,.66-.06,1.32-.19,1.96-.13.65-.32,1.28-.57,1.89-.25.61-.56,1.19-.93,1.74-.37.55-.78,1.06-1.25,1.53-.47.47-.98.88-1.53,1.25-.55.37-1.13.68-1.74.93-.61.25-1.24.44-1.89.57-.65.13-1.3.19-1.96.19h-106.41c-.66,0-1.32-.06-1.96-.19s-1.28-.32-1.89-.57c-.61-.25-1.19-.56-1.74-.93-.55-.37-1.06-.78-1.53-1.25-.47-.47-.88-.98-1.25-1.53-.37-.55-.68-1.13-.93-1.74-.25-.61-.44-1.24-.57-1.89-.13-.65-.19-1.3-.19-1.96v-46.97c0-.66.06-1.32.19-1.96s.32-1.28.57-1.89c.25-.61.56-1.19.93-1.74s.78-1.06,1.25-1.53c.47-.47.98-.88,1.53-1.25s1.13-.68,1.74-.93c.61-.25,1.24-.44,1.89-.57.65-.13,1.3-.19,1.96-.19Z"/>
        <path class="m" d="m520.37,92.48h106.41c.66,0,1.32.06,1.96.19.65.13,1.28.32,1.89.57.61.25,1.19.56,1.74.93.55.37,1.06.78,1.53,1.25.47.47.88.98,1.25,1.53.37.55.68,1.13.93,1.74.25.61.44,1.24.57,1.89.13.65.19,1.3.19,1.96v46.97c0,.66-.06,1.32-.19,1.96s-.32,1.28-.57,1.89c-.25.61-.56,1.19-.93,1.74-.37.55-.78,1.06-1.25,1.53-.47.47-.98.88-1.53,1.25-.55.37-1.13.68-1.74.93-.61.25-1.24.44-1.89.57-.65.13-1.3.19-1.96.19h-106.41c-.66,0-1.32-.06-1.96-.19-.65-.13-1.28-.32-1.89-.57-.61-.25-1.19-.56-1.74-.93-.55-.37-1.06-.78-1.53-1.25-.47-.47-.88-.98-1.25-1.53-.37-.55-.68-1.13-.93-1.74-.25-.61-.44-1.24-.57-1.89s-.19-1.3-.19-1.96v-46.97c0-.66.06-1.32.19-1.96.13-.65.32-1.28.57-1.89.25-.61.56-1.19.93-1.74.37-.55.78-1.06,1.25-1.53.47-.47.98-.88,1.53-1.25.55-.37,1.13-.68,1.74-.93.61-.25,1.24-.44,1.89-.57.65-.13,1.3-.19,1.96-.19Z"/>
        <path class="i" d="m520.37,92.48h106.41c.66,0,1.32.06,1.96.19.65.13,1.28.32,1.89.57.61.25,1.19.56,1.74.93.55.37,1.06.78,1.53,1.25.47.47.88.98,1.25,1.53.37.55.68,1.13.93,1.74.25.61.44,1.24.57,1.89.13.65.19,1.3.19,1.96v46.97c0,.66-.06,1.32-.19,1.96s-.32,1.28-.57,1.89c-.25.61-.56,1.19-.93,1.74-.37.55-.78,1.06-1.25,1.53-.47.47-.98.88-1.53,1.25-.55.37-1.13.68-1.74.93-.61.25-1.24.44-1.89.57-.65.13-1.3.19-1.96.19h-106.41c-.66,0-1.32-.06-1.96-.19-.65-.13-1.28-.32-1.89-.57-.61-.25-1.19-.56-1.74-.93-.55-.37-1.06-.78-1.53-1.25-.47-.47-.88-.98-1.25-1.53-.37-.55-.68-1.13-.93-1.74-.25-.61-.44-1.24-.57-1.89s-.19-1.3-.19-1.96v-46.97c0-.66.06-1.32.19-1.96.13-.65.32-1.28.57-1.89.25-.61.56-1.19.93-1.74.37-.55.78-1.06,1.25-1.53.47-.47.98-.88,1.53-1.25.55-.37,1.13-.68,1.74-.93.61-.25,1.24-.44,1.89-.57.65-.13,1.3-.19,1.96-.19Z"/>
        <path class="m" d="m530.91,103.66h106.41c.66,0,1.32.06,1.96.19.65.13,1.28.32,1.89.57.61.25,1.19.56,1.74.93.55.37,1.06.78,1.53,1.25.47.47.88.98,1.25,1.53.37.55.68,1.13.93,1.74.25.61.44,1.24.57,1.89.13.65.19,1.3.19,1.96v46.97c0,.66-.06,1.32-.19,1.96-.13.65-.32,1.28-.57,1.89-.25.61-.56,1.19-.93,1.74-.37.55-.78,1.06-1.25,1.53-.47.47-.98.88-1.53,1.25-.55.37-1.13.68-1.74.93-.61.25-1.24.44-1.89.57s-1.3.19-1.96.19h-106.41c-.66,0-1.32-.06-1.96-.19-.65-.13-1.28-.32-1.89-.57-.61-.25-1.19-.56-1.74-.93-.55-.37-1.06-.78-1.53-1.25-.47-.47-.88-.98-1.25-1.53-.37-.55-.68-1.13-.93-1.74-.25-.61-.44-1.24-.57-1.89-.13-.65-.19-1.3-.19-1.96v-46.97c0-.66.06-1.32.19-1.96.13-.65.32-1.28.57-1.89.25-.61.56-1.19.93-1.74.37-.55.78-1.06,1.25-1.53s.98-.88,1.53-1.25c.55-.37,1.13-.68,1.74-.93.61-.25,1.24-.44,1.89-.57.65-.13,1.3-.19,1.96-.19Z"/>
        <path class="i" d="m530.91,103.66h106.41c.66,0,1.32.06,1.96.19.65.13,1.28.32,1.89.57.61.25,1.19.56,1.74.93.55.37,1.06.78,1.53,1.25.47.47.88.98,1.25,1.53.37.55.68,1.13.93,1.74.25.61.44,1.24.57,1.89.13.65.19,1.3.19,1.96v46.97c0,.66-.06,1.32-.19,1.96-.13.65-.32,1.28-.57,1.89-.25.61-.56,1.19-.93,1.74-.37.55-.78,1.06-1.25,1.53-.47.47-.98.88-1.53,1.25-.55.37-1.13.68-1.74.93-.61.25-1.24.44-1.89.57s-1.3.19-1.96.19h-106.41c-.66,0-1.32-.06-1.96-.19-.65-.13-1.28-.32-1.89-.57-.61-.25-1.19-.56-1.74-.93-.55-.37-1.06-.78-1.53-1.25-.47-.47-.88-.98-1.25-1.53-.37-.55-.68-1.13-.93-1.74-.25-.61-.44-1.24-.57-1.89-.13-.65-.19-1.3-.19-1.96v-46.97c0-.66.06-1.32.19-1.96.13-.65.32-1.28.57-1.89.25-.61.56-1.19.93-1.74.37-.55.78-1.06,1.25-1.53s.98-.88,1.53-1.25c.55-.37,1.13-.68,1.74-.93.61-.25,1.24-.44,1.89-.57.65-.13,1.3-.19,1.96-.19Z"/>
        <path class="m" d="m541.46,114.84h106.41c.66,0,1.32.06,1.96.19.65.13,1.28.32,1.89.57.61.25,1.19.56,1.74.93.55.37,1.06.78,1.53,1.25.47.47.88.98,1.25,1.53.37.55.68,1.13.93,1.74.25.61.44,1.24.57,1.89.13.65.19,1.3.19,1.96v46.97c0,.66-.06,1.32-.19,1.96-.13.65-.32,1.28-.57,1.89s-.56,1.19-.93,1.74c-.37.55-.78,1.06-1.25,1.53-.47.47-.98.88-1.53,1.25-.55.37-1.13.68-1.74.93-.61.25-1.24.44-1.89.57-.65.13-1.3.19-1.96.19h-106.41c-.66,0-1.32-.06-1.96-.19-.65-.13-1.28-.32-1.89-.57-.61-.25-1.19-.56-1.74-.93-.55-.37-1.06-.78-1.53-1.25-.47-.47-.88-.98-1.25-1.53-.37-.55-.68-1.13-.93-1.74-.25-.61-.44-1.24-.57-1.89-.13-.65-.19-1.3-.19-1.96v-46.97c0-.66.06-1.32.19-1.96.13-.65.32-1.28.57-1.89.25-.61.56-1.19.93-1.74.37-.55.78-1.06,1.25-1.53s.98-.88,1.53-1.25,1.13-.68,1.74-.93c.61-.25,1.24-.44,1.89-.57.65-.13,1.3-.19,1.96-.19Z"/>
        <path class="i" d="m541.46,114.84h106.41c.66,0,1.32.06,1.96.19.65.13,1.28.32,1.89.57.61.25,1.19.56,1.74.93.55.37,1.06.78,1.53,1.25.47.47.88.98,1.25,1.53.37.55.68,1.13.93,1.74.25.61.44,1.24.57,1.89.13.65.19,1.3.19,1.96v46.97c0,.66-.06,1.32-.19,1.96-.13.65-.32,1.28-.57,1.89s-.56,1.19-.93,1.74c-.37.55-.78,1.06-1.25,1.53-.47.47-.98.88-1.53,1.25-.55.37-1.13.68-1.74.93-.61.25-1.24.44-1.89.57-.65.13-1.3.19-1.96.19h-106.41c-.66,0-1.32-.06-1.96-.19-.65-.13-1.28-.32-1.89-.57-.61-.25-1.19-.56-1.74-.93-.55-.37-1.06-.78-1.53-1.25-.47-.47-.88-.98-1.25-1.53-.37-.55-.68-1.13-.93-1.74-.25-.61-.44-1.24-.57-1.89-.13-.65-.19-1.3-.19-1.96v-46.97c0-.66.06-1.32.19-1.96.13-.65.32-1.28.57-1.89.25-.61.56-1.19.93-1.74.37-.55.78-1.06,1.25-1.53s.98-.88,1.53-1.25,1.13-.68,1.74-.93c.61-.25,1.24-.44,1.89-.57.65-.13,1.3-.19,1.96-.19Z"/>
        <g>
          <path class="d" d="m564.85,38.71l.77-.07c.04.31.12.56.25.76.13.2.34.36.62.48.28.12.6.18.95.18.31,0,.59-.05.83-.14.24-.09.42-.22.53-.38.12-.16.17-.34.17-.53s-.06-.36-.17-.51-.3-.27-.56-.36c-.17-.06-.53-.17-1.1-.3-.57-.14-.96-.26-1.19-.39-.29-.15-.51-.35-.66-.58-.15-.23-.22-.49-.22-.77,0-.31.09-.6.27-.87.18-.27.44-.48.78-.62s.72-.21,1.13-.21c.46,0,.86.07,1.21.22s.62.36.81.65c.19.29.29.61.3.97l-.78.06c-.04-.39-.18-.69-.43-.88s-.6-.3-1.08-.3-.85.09-1.08.27c-.23.18-.34.4-.34.66,0,.22.08.4.24.55.16.14.57.29,1.23.44.66.15,1.12.28,1.37.39.36.17.62.38.8.63.17.25.26.55.26.88s-.09.64-.28.93c-.19.29-.46.52-.81.68-.35.16-.75.24-1.19.24-.56,0-1.03-.08-1.41-.24-.38-.16-.67-.41-.89-.74s-.33-.7-.34-1.11Z"/>
          <path class="d" d="m573.85,39.25l.78.1c-.12.46-.35.81-.69,1.07-.33.25-.76.38-1.28.38-.65,0-1.17-.2-1.56-.61-.38-.4-.57-.97-.57-1.7s.19-1.34.58-1.75c.39-.42.89-.62,1.51-.62s1.09.2,1.47.61c.38.41.57.98.57,1.72,0,.04,0,.11,0,.2h-3.34c.03.49.17.87.42,1.13.25.26.56.39.94.39.28,0,.51-.07.71-.22.2-.15.35-.38.47-.7Zm-2.49-1.23h2.5c-.03-.38-.13-.66-.29-.85-.24-.29-.55-.44-.94-.44-.35,0-.64.12-.88.35-.24.23-.37.54-.39.93Z"/>
          <path class="d" d="m575.57,40.7v-4.47h.68v.68c.17-.32.33-.53.48-.63.15-.1.31-.15.49-.15.25,0,.51.08.78.24l-.26.7c-.18-.11-.37-.16-.56-.16-.17,0-.31.05-.45.15-.13.1-.23.24-.28.42-.08.27-.13.56-.13.88v2.34h-.76Z"/>
          <path class="d" d="m579.7,40.7l-1.7-4.47h.8l.96,2.68c.1.29.2.59.29.9.07-.24.16-.52.28-.85l.99-2.73h.78l-1.69,4.47h-.71Z"/>
          <path class="d" d="m582.77,35.39v-.87h.76v.87h-.76Zm0,5.3v-4.47h.76v4.47h-.76Z"/>
          <path class="d" d="m587.6,39.06l.75.1c-.08.51-.29.92-.62,1.21-.34.29-.75.44-1.24.44-.61,0-1.1-.2-1.48-.6s-.56-.97-.56-1.72c0-.48.08-.91.24-1.27s.4-.63.73-.82c.33-.18.68-.27,1.07-.27.49,0,.88.12,1.19.37.31.25.51.59.59,1.05l-.74.11c-.07-.3-.19-.53-.37-.68-.18-.15-.39-.23-.65-.23-.38,0-.69.14-.93.41-.24.27-.36.71-.36,1.3s.12,1.04.35,1.31.53.41.9.41c.3,0,.55-.09.75-.27.2-.18.33-.46.38-.84Z"/>
          <path class="d" d="m592.06,39.25l.78.1c-.12.46-.35.81-.69,1.07-.33.25-.76.38-1.28.38-.65,0-1.17-.2-1.56-.61-.38-.4-.57-.97-.57-1.7s.19-1.34.58-1.75c.39-.42.89-.62,1.51-.62s1.09.2,1.47.61c.38.41.57.98.57,1.72,0,.04,0,.11,0,.2h-3.34c.03.49.17.87.42,1.13.25.26.56.39.94.39.28,0,.51-.07.71-.22.2-.15.35-.38.47-.7Zm-2.49-1.23h2.5c-.03-.38-.13-.66-.29-.85-.24-.29-.55-.44-.94-.44-.35,0-.64.12-.88.35-.24.23-.37.54-.39.93Z"/>
        </g>
      </g>
      <path class="f" d="m158.55,23.85h189.81c.85,0,1.69.08,2.52.25.83.17,1.64.41,2.43.74.79.33,1.53.72,2.24,1.2.71.47,1.36,1.01,1.96,1.61.6.6,1.14,1.25,1.61,1.96.47.71.87,1.45,1.2,2.24s.57,1.59.74,2.43c.17.83.25,1.68.25,2.52v189.81c0,.85-.08,1.69-.25,2.52-.17.83-.41,1.64-.74,2.43-.33.79-.72,1.53-1.2,2.24-.47.71-1.01,1.36-1.61,1.96-.6.6-1.25,1.14-1.96,1.61-.71.47-1.45.87-2.24,1.2-.79.33-1.59.57-2.43.74-.83.17-1.68.25-2.52.25h-189.81c-.85,0-1.69-.08-2.52-.25-.83-.17-1.64-.41-2.43-.74-.79-.33-1.53-.72-2.24-1.2-.71-.47-1.36-1.01-1.96-1.61-.6-.6-1.14-1.25-1.61-1.96-.47-.71-.87-1.45-1.2-2.24-.33-.79-.57-1.59-.74-2.43-.17-.83-.25-1.68-.25-2.52V36.79c0-.85.08-1.69.25-2.52.17-.83.41-1.64.74-2.43s.72-1.53,1.2-2.24c.47-.71,1.01-1.36,1.61-1.96.6-.6,1.25-1.14,1.96-1.61.71-.47,1.45-.87,2.24-1.2.79-.33,1.59-.57,2.43-.74.83-.17,1.68-.25,2.52-.25Z"/>
      <path class="i" d="m158.55,23.85h189.81c.85,0,1.69.08,2.52.25.83.17,1.64.41,2.43.74.79.33,1.53.72,2.24,1.2.71.47,1.36,1.01,1.96,1.61.6.6,1.14,1.25,1.61,1.96.47.71.87,1.45,1.2,2.24s.57,1.59.74,2.43c.17.83.25,1.68.25,2.52v189.81c0,.85-.08,1.69-.25,2.52-.17.83-.41,1.64-.74,2.43-.33.79-.72,1.53-1.2,2.24-.47.71-1.01,1.36-1.61,1.96-.6.6-1.25,1.14-1.96,1.61-.71.47-1.45.87-2.24,1.2-.79.33-1.59.57-2.43.74-.83.17-1.68.25-2.52.25h-189.81c-.85,0-1.69-.08-2.52-.25-.83-.17-1.64-.41-2.43-.74-.79-.33-1.53-.72-2.24-1.2-.71-.47-1.36-1.01-1.96-1.61-.6-.6-1.14-1.25-1.61-1.96-.47-.71-.87-1.45-1.2-2.24-.33-.79-.57-1.59-.74-2.43-.17-.83-.25-1.68-.25-2.52V36.79c0-.85.08-1.69.25-2.52.17-.83.41-1.64.74-2.43s.72-1.53,1.2-2.24c.47-.71,1.01-1.36,1.61-1.96.6-.6,1.25-1.14,1.96-1.61.71-.47,1.45-.87,2.24-1.2.79-.33,1.59-.57,2.43-.74.83-.17,1.68-.25,2.52-.25Z"/>
      <path class="m" d="m168.76,131.7h162.2c.34,0,.68.03,1.01.1.33.07.66.16.97.29.31.13.61.29.89.48s.54.4.78.64c.24.24.45.5.64.78s.35.58.48.9c.13.31.23.64.29.97.07.33.1.67.1,1.01v75.92c0,.34-.03.68-.1,1.01-.07.33-.16.66-.29.97-.13.31-.29.61-.48.9s-.4.54-.64.78c-.24.24-.5.45-.78.64s-.58.35-.89.48c-.31.13-.64.23-.97.29-.33.07-.67.1-1.01.1h-162.2c-.34,0-.68-.03-1.01-.1-.33-.07-.66-.16-.97-.29-.31-.13-.61-.29-.89-.48-.28-.19-.54-.4-.78-.64-.24-.24-.45-.5-.64-.78-.19-.28-.35-.58-.48-.9-.13-.31-.23-.64-.29-.97-.07-.33-.1-.67-.1-1.01v-75.92c0-.34.03-.68.1-1.01.07-.33.16-.66.29-.97.13-.31.29-.61.48-.9s.4-.54.64-.78c.24-.24.5-.45.78-.64.28-.19.58-.35.89-.48.31-.13.64-.23.97-.29s.67-.1,1.01-.1Z"/>
      <path class="i" d="m168.76,131.7h162.2c.34,0,.68.03,1.01.1.33.07.66.16.97.29.31.13.61.29.89.48s.54.4.78.64c.24.24.45.5.64.78s.35.58.48.9c.13.31.23.64.29.97.07.33.1.67.1,1.01v75.92c0,.34-.03.68-.1,1.01-.07.33-.16.66-.29.97-.13.31-.29.61-.48.9s-.4.54-.64.78c-.24.24-.5.45-.78.64s-.58.35-.89.48c-.31.13-.64.23-.97.29-.33.07-.67.1-1.01.1h-162.2c-.34,0-.68-.03-1.01-.1-.33-.07-.66-.16-.97-.29-.31-.13-.61-.29-.89-.48-.28-.19-.54-.4-.78-.64-.24-.24-.45-.5-.64-.78-.19-.28-.35-.58-.48-.9-.13-.31-.23-.64-.29-.97-.07-.33-.1-.67-.1-1.01v-75.92c0-.34.03-.68.1-1.01.07-.33.16-.66.29-.97.13-.31.29-.61.48-.9s.4-.54.64-.78c.24-.24.5-.45.78-.64.28-.19.58-.35.89-.48.31-.13.64-.23.97-.29s.67-.1,1.01-.1Z"/>
      <g>
        <path class="d" d="m238.17,177.35v-6.18h2.33c.41,0,.72.02.94.06.3.05.56.15.76.29.21.14.37.34.5.6.12.26.19.54.19.84,0,.53-.17.97-.5,1.33-.33.36-.94.55-1.81.55h-1.58v2.51h-.82Zm.82-3.24h1.6c.53,0,.9-.1,1.12-.29.22-.2.33-.47.33-.83,0-.26-.07-.48-.2-.66-.13-.18-.3-.31-.52-.36-.14-.04-.39-.06-.76-.06h-1.58v2.21Z"/>
        <path class="d" d="m243.81,177.35v-6.18h.76v6.18h-.76Z"/>
        <path class="d" d="m248.67,177.35v-.66c-.35.51-.82.76-1.42.76-.26,0-.51-.05-.74-.15-.23-.1-.4-.23-.51-.38-.11-.15-.19-.34-.23-.56-.03-.15-.05-.38-.05-.71v-2.77h.76v2.48c0,.4.02.66.05.8.05.2.15.36.3.47.15.11.35.17.57.17s.44-.06.64-.17c.2-.12.34-.28.42-.48s.12-.49.12-.87v-2.4h.76v4.47h-.68Z"/>
        <path class="d" d="m250.4,177.72l.74.11c.03.23.12.39.26.5.19.14.45.21.77.21.35,0,.62-.07.81-.21.19-.14.32-.34.39-.59.04-.15.06-.48.05-.97-.33.39-.74.59-1.24.59-.62,0-1.09-.22-1.43-.67s-.51-.98-.51-1.6c0-.43.08-.82.23-1.18s.38-.64.67-.84c.29-.2.64-.29,1.03-.29.53,0,.96.21,1.31.64v-.54h.7v3.87c0,.7-.07,1.19-.21,1.48-.14.29-.37.52-.67.69s-.69.25-1.14.25c-.53,0-.96-.12-1.29-.36s-.49-.6-.48-1.08Zm.63-2.69c0,.59.12,1.02.35,1.28.23.27.52.4.88.4s.64-.13.88-.4c.24-.27.35-.69.35-1.26s-.12-.96-.36-1.24c-.24-.28-.54-.42-.88-.42s-.62.14-.86.41-.35.68-.35,1.22Z"/>
        <path class="d" d="m255.34,172.05v-.87h.76v.87h-.76Zm0,5.3v-4.47h.76v4.47h-.76Z"/>
        <path class="d" d="m257.25,177.35v-4.47h.68v.64c.33-.49.8-.74,1.42-.74.27,0,.52.05.74.15s.4.22.51.38.19.34.24.56c.03.14.04.39.04.74v2.75h-.76v-2.72c0-.31-.03-.54-.09-.69-.06-.15-.16-.27-.31-.37-.15-.09-.33-.14-.53-.14-.32,0-.6.1-.84.31s-.35.59-.35,1.17v2.44h-.76Z"/>
      </g>
      <line class="h" x1="471.35" y1="185.62" x2="365.88" y2="185.62"/>
      <polygon class="n" points="362.1 185.62 367.14 183.1 365.88 185.62 367.14 188.14 362.1 185.62"/>
      <polygon class="h" points="362.1 185.62 367.14 183.1 365.88 185.62 367.14 188.14 362.1 185.62"/>
      <rect class="g" x="394.01" y="180.95" width="43.86" height="9.35"/>
      <g>
        <path class="d" d="m394.07,186.65l.73-.06c.05.35.18.62.38.8.2.18.43.27.71.27.33,0,.62-.13.85-.38.23-.25.35-.59.35-1s-.11-.71-.33-.94-.51-.34-.87-.34c-.22,0-.43.05-.61.15-.18.1-.32.23-.42.4l-.65-.08.55-2.91h2.82v.66h-2.26l-.31,1.52c.34-.24.7-.35,1.07-.35.49,0,.91.17,1.25.51.34.34.51.78.51,1.32s-.15.96-.45,1.33c-.36.46-.86.69-1.49.69-.51,0-.94-.14-1.26-.43-.33-.29-.51-.67-.56-1.15Z"/>
        <path class="d" d="m398.86,188.14v-.79h.79v.79h-.79Z"/>
        <path class="d" d="m403.16,188.14v-5.66h2.51c.5,0,.89.05,1.15.15.26.1.47.28.63.54.16.26.24.54.24.85,0,.4-.13.74-.39,1.02-.26.28-.66.45-1.21.53.2.1.35.19.45.28.22.2.43.45.62.75l.98,1.54h-.94l-.75-1.18c-.22-.34-.4-.6-.54-.78s-.27-.31-.38-.38c-.11-.07-.23-.12-.34-.15-.08-.02-.22-.03-.42-.03h-.87v2.51h-.75Zm.75-3.16h1.61c.34,0,.61-.04.8-.11.19-.07.34-.18.44-.34.1-.16.15-.32.15-.51,0-.27-.1-.49-.29-.66s-.5-.26-.92-.26h-1.79v1.87Z"/>
        <path class="d" d="m411.58,186.82l.72.09c-.11.42-.32.75-.63.98-.31.23-.7.35-1.17.35-.6,0-1.08-.18-1.43-.55-.35-.37-.53-.89-.53-1.55s.18-1.23.53-1.61c.35-.38.82-.57,1.38-.57s1,.19,1.34.56c.35.37.52.9.52,1.58,0,.04,0,.1,0,.19h-3.06c.03.45.15.8.38,1.04.23.24.52.36.86.36.25,0,.47-.07.65-.2s.32-.35.43-.64Zm-2.28-1.12h2.29c-.03-.35-.12-.6-.26-.78-.22-.27-.51-.4-.86-.4-.32,0-.59.11-.81.32-.22.21-.34.5-.36.86Z"/>
        <path class="d" d="m412.89,186.91l.69-.11c.04.28.15.49.32.63.18.15.42.22.74.22s.56-.06.71-.19.23-.28.23-.46c0-.16-.07-.28-.21-.37-.1-.06-.33-.14-.71-.24-.51-.13-.86-.24-1.06-.33-.2-.09-.35-.22-.45-.39s-.15-.35-.15-.55c0-.18.04-.35.13-.51.08-.16.2-.29.34-.39.11-.08.26-.15.44-.2.19-.06.39-.08.6-.08.32,0,.6.05.85.14s.42.22.54.38.2.37.24.64l-.68.09c-.03-.21-.12-.38-.27-.49-.15-.12-.36-.18-.63-.18-.32,0-.55.05-.68.16-.14.11-.2.23-.2.37,0,.09.03.17.08.24.06.07.15.14.27.19.07.03.27.08.61.18.49.13.83.24,1.03.32.19.08.35.21.46.37.11.16.17.36.17.59s-.07.45-.2.65c-.14.2-.33.36-.59.48-.25.11-.54.17-.86.17-.53,0-.94-.11-1.22-.33-.28-.22-.46-.55-.54-.98Z"/>
        <path class="d" d="m417.12,189.71v-5.67h.63v.53c.15-.21.32-.36.51-.47.19-.1.42-.16.68-.16.35,0,.66.09.93.27.27.18.47.43.61.76.14.33.21.69.21,1.08,0,.42-.08.8-.23,1.13-.15.34-.37.59-.66.77-.29.18-.59.27-.91.27-.23,0-.44-.05-.62-.15-.18-.1-.34-.22-.45-.37v2h-.69Zm.63-3.6c0,.53.11.92.32,1.17.21.25.47.38.78.38s.57-.13.79-.39.33-.67.33-1.21-.11-.91-.32-1.17c-.21-.26-.47-.39-.77-.39s-.56.14-.79.42c-.23.28-.34.68-.34,1.21Z"/>
        <path class="d" d="m421.26,186.09c0-.76.21-1.32.63-1.69.35-.3.78-.46,1.29-.46.56,0,1.02.19,1.38.55.36.37.54.88.54,1.53,0,.53-.08.94-.24,1.25-.16.3-.39.54-.69.71-.3.17-.63.25-.99.25-.57,0-1.04-.18-1.39-.55s-.53-.9-.53-1.59Zm.71,0c0,.53.11.92.34,1.18.23.26.52.39.86.39s.63-.13.86-.39c.23-.26.34-.66.34-1.2,0-.51-.12-.89-.35-1.15s-.52-.39-.86-.39-.64.13-.86.39c-.23.26-.34.65-.34,1.18Z"/>
        <path class="d" d="m425.92,188.14v-4.1h.63v.58c.3-.45.74-.68,1.31-.68.25,0,.47.04.68.13.21.09.36.21.47.35s.17.32.22.51c.03.13.04.35.04.68v2.52h-.7v-2.49c0-.28-.03-.5-.08-.64-.05-.14-.15-.25-.29-.34s-.3-.13-.48-.13c-.3,0-.55.09-.77.28-.22.19-.32.54-.32,1.07v2.24h-.69Z"/>
        <path class="d" d="m430.04,186.91l.69-.11c.04.28.15.49.32.63.18.15.42.22.74.22s.56-.06.71-.19.23-.28.23-.46c0-.16-.07-.28-.21-.37-.1-.06-.33-.14-.71-.24-.51-.13-.86-.24-1.06-.33-.2-.09-.35-.22-.45-.39s-.15-.35-.15-.55c0-.18.04-.35.13-.51.08-.16.2-.29.34-.39.11-.08.26-.15.44-.2.19-.06.39-.08.6-.08.32,0,.6.05.85.14s.42.22.54.38.2.37.24.64l-.68.09c-.03-.21-.12-.38-.27-.49-.15-.12-.36-.18-.63-.18-.32,0-.55.05-.68.16-.14.11-.2.23-.2.37,0,.09.03.17.08.24.06.07.15.14.27.19.07.03.27.08.61.18.49.13.83.24,1.03.32.19.08.35.21.46.37.11.16.17.36.17.59s-.07.45-.2.65c-.14.2-.33.36-.59.48-.25.11-.54.17-.86.17-.53,0-.94-.11-1.22-.33-.28-.22-.46-.55-.54-.98Z"/>
        <path class="d" d="m437.08,186.82l.72.09c-.11.42-.32.75-.63.98-.31.23-.7.35-1.17.35-.6,0-1.08-.18-1.43-.55-.35-.37-.53-.89-.53-1.55s.18-1.23.53-1.61c.35-.38.82-.57,1.38-.57s1,.19,1.34.56c.35.37.52.9.52,1.58,0,.04,0,.1,0,.19h-3.06c.03.45.15.8.38,1.04.23.24.52.36.86.36.25,0,.47-.07.65-.2s.32-.35.43-.64Zm-2.28-1.12h2.29c-.03-.35-.12-.6-.26-.78-.22-.27-.51-.4-.86-.4-.32,0-.59.11-.81.32-.22.21-.34.5-.36.86Z"/>
      </g>
      <line class="h" x1="206.72" y1="217.97" x2="206.72" y2="285.29"/>
      <polygon class="n" points="206.72 289.07 204.2 284.03 206.72 285.29 209.24 284.03 206.72 289.07"/>
      <polygon class="h" points="206.72 289.07 204.2 284.03 206.72 285.29 209.24 284.03 206.72 289.07"/>
      <rect class="g" x="178.32" y="249.25" width="56.8" height="9.35"/>
      <g>
        <path class="d" d="m182.13,255.77v.67h-3.74c0-.17.02-.33.08-.48.1-.25.25-.51.46-.75.21-.25.51-.53.91-.86.62-.5,1.03-.9,1.25-1.2s.32-.57.32-.84-.1-.51-.3-.7c-.2-.19-.45-.28-.77-.28-.33,0-.6.1-.8.3s-.3.48-.31.83l-.71-.07c.05-.53.23-.94.55-1.22.32-.28.75-.42,1.29-.42s.97.15,1.29.45c.32.3.48.67.48,1.12,0,.23-.05.45-.14.67-.09.22-.25.45-.46.69s-.57.57-1.07,1c-.42.35-.69.59-.8.71-.12.12-.22.25-.29.38h2.78Z"/>
        <path class="d" d="m183.27,256.44v-.79h.79v.79h-.79Z"/>
        <path class="d" d="m187.59,256.44v-5.66h3.82v.67h-3.07v1.75h2.66v.67h-2.66v2.57h-.75Z"/>
        <path class="d" d="m192.28,256.44v-5.66h.7v5.66h-.7Z"/>
        <path class="d" d="m193.8,254.39c0-.76.21-1.32.63-1.69.35-.3.78-.46,1.29-.46.56,0,1.02.18,1.38.55.36.37.54.88.54,1.53,0,.53-.08.94-.24,1.25-.16.3-.39.54-.69.71-.3.17-.63.25-.99.25-.57,0-1.04-.18-1.39-.55s-.53-.9-.53-1.59Zm.71,0c0,.53.11.92.34,1.18.23.26.52.39.86.39s.63-.13.86-.39c.23-.26.34-.66.34-1.2,0-.51-.12-.89-.35-1.15-.23-.26-.52-.39-.86-.39s-.64.13-.86.39c-.23.26-.34.65-.34,1.18Z"/>
        <path class="d" d="m199.21,256.44l-1.26-4.1h.72l.65,2.37.24.88s.08-.33.21-.85l.65-2.4h.71l.61,2.38.21.78.24-.79.7-2.37h.68l-1.28,4.1h-.72l-.65-2.46-.16-.7-.83,3.15h-.73Z"/>
        <path class="d" d="m206.46,256.44v-5.66h2.51c.5,0,.89.05,1.15.15.26.1.47.28.63.54.16.26.24.54.24.85,0,.4-.13.74-.39,1.02-.26.28-.66.45-1.21.53.2.09.35.19.45.28.22.2.43.45.62.75l.98,1.54h-.94l-.75-1.18c-.22-.34-.4-.6-.54-.78-.14-.18-.27-.31-.38-.38s-.23-.12-.34-.15c-.08-.02-.22-.03-.42-.03h-.87v2.51h-.75Zm.75-3.16h1.61c.34,0,.61-.04.8-.11.19-.07.34-.18.44-.34.1-.16.15-.33.15-.51,0-.27-.1-.49-.29-.66-.19-.17-.5-.26-.92-.26h-1.79v1.87Z"/>
        <path class="d" d="m214.88,255.12l.72.09c-.11.42-.32.75-.63.98-.31.23-.7.35-1.17.35-.6,0-1.08-.18-1.43-.55-.35-.37-.53-.89-.53-1.55s.18-1.23.53-1.61c.35-.38.82-.57,1.38-.57s1,.19,1.34.56.52.9.52,1.58c0,.04,0,.1,0,.18h-3.06c.03.45.15.8.38,1.04s.52.36.86.36c.25,0,.47-.07.65-.2s.32-.35.43-.64Zm-2.28-1.12h2.29c-.03-.34-.12-.6-.26-.78-.22-.27-.51-.4-.86-.4-.32,0-.59.11-.81.32-.22.21-.34.5-.36.86Z"/>
        <path class="d" d="m219.09,258.01v-2.01c-.11.15-.26.28-.45.38-.19.1-.4.15-.62.15-.49,0-.91-.19-1.26-.58s-.53-.92-.53-1.6c0-.41.07-.78.21-1.11.14-.33.35-.57.62-.74.27-.17.57-.25.89-.25.51,0,.91.21,1.2.64v-.55h.63v5.67h-.69Zm-2.14-3.63c0,.53.11.92.33,1.19.22.26.49.4.8.4s.55-.13.76-.38c.21-.25.32-.63.32-1.14,0-.55-.11-.96-.34-1.23-.23-.28-.49-.41-.79-.41s-.56.13-.77.38-.31.66-.31,1.2Z"/>
        <path class="d" d="m223.56,256.44v-.6c-.32.46-.75.7-1.3.7-.24,0-.47-.05-.68-.14s-.37-.21-.47-.35-.17-.31-.21-.52c-.03-.14-.04-.35-.04-.65v-2.54h.7v2.27c0,.36.01.61.04.73.04.18.14.33.28.43s.32.16.53.16.4-.05.59-.16c.18-.11.31-.25.39-.44.08-.18.11-.45.11-.8v-2.2h.69v4.1h-.62Z"/>
        <path class="d" d="m228.08,255.12l.72.09c-.11.42-.32.75-.63.98-.31.23-.7.35-1.17.35-.6,0-1.08-.18-1.43-.55-.35-.37-.53-.89-.53-1.55s.18-1.23.53-1.61c.35-.38.82-.57,1.38-.57s1,.19,1.34.56.52.9.52,1.58c0,.04,0,.1,0,.18h-3.06c.03.45.15.8.38,1.04s.52.36.86.36c.25,0,.47-.07.65-.2s.32-.35.43-.64Zm-2.28-1.12h2.29c-.03-.34-.12-.6-.26-.78-.22-.27-.51-.4-.86-.4-.32,0-.59.11-.81.32-.22.21-.34.5-.36.86Z"/>
        <path class="d" d="m229.39,255.22l.69-.11c.04.28.15.49.32.63.18.15.42.22.74.22s.56-.07.71-.2.23-.28.23-.46c0-.16-.07-.28-.21-.37-.1-.06-.33-.14-.71-.24-.51-.13-.86-.24-1.06-.33-.2-.09-.35-.22-.45-.39s-.15-.35-.15-.55c0-.18.04-.35.13-.51.08-.16.2-.29.34-.39.11-.08.26-.15.44-.2s.39-.08.6-.08c.32,0,.6.05.85.14s.42.22.54.38.2.37.24.63l-.68.09c-.03-.21-.12-.38-.27-.49s-.36-.18-.63-.18c-.32,0-.55.05-.68.16-.14.11-.2.23-.2.37,0,.09.03.17.08.24.06.07.15.14.27.19.07.03.27.08.61.18.49.13.83.24,1.03.32.19.08.35.21.46.37.11.16.17.36.17.59s-.07.45-.2.66c-.14.2-.33.36-.59.47s-.54.17-.86.17c-.53,0-.94-.11-1.22-.33-.28-.22-.46-.55-.54-.98Z"/>
        <path class="d" d="m235.14,255.82l.1.61c-.2.04-.37.06-.52.06-.25,0-.45-.04-.59-.12-.14-.08-.24-.18-.29-.31s-.08-.4-.08-.82v-2.36h-.51v-.54h.51v-1.02l.69-.42v1.43h.7v.54h-.7v2.4c0,.2.01.33.04.38.02.06.06.1.12.14.06.03.13.05.24.05.08,0,.18,0,.31-.03Z"/>
      </g>
      <line class="h" x1="293" y1="289.87" x2="293" y2="222.55"/>
      <polygon class="n" points="293 218.78 295.51 223.81 293 222.55 290.48 223.81 293 218.78"/>
      <polygon class="h" points="293 218.78 295.51 223.81 293 222.55 290.48 223.81 293 218.78"/>
      <rect class="g" x="263.88" y="249.25" width="58.24" height="9.35"/>
      <g>
        <path class="d" d="m264.32,254.95l.7-.09c.08.39.22.68.41.85s.43.26.7.26c.33,0,.6-.11.83-.34s.34-.51.34-.84-.1-.58-.31-.79-.47-.31-.8-.31c-.13,0-.29.03-.49.08l.08-.61s.08,0,.11,0c.3,0,.56-.08.8-.23s.36-.39.36-.71c0-.25-.09-.47-.26-.63-.17-.17-.4-.25-.67-.25s-.5.08-.68.25-.3.42-.35.76l-.69-.12c.08-.47.28-.83.58-1.08s.68-.38,1.12-.38c.31,0,.59.07.85.2s.46.31.6.54c.14.23.21.47.21.73s-.07.47-.2.67c-.13.2-.33.36-.58.48.33.08.59.24.78.48s.28.55.28.91c0,.49-.18.91-.54,1.26s-.82.52-1.37.52c-.5,0-.91-.15-1.24-.44-.33-.3-.52-.68-.56-1.15Z"/>
        <path class="d" d="m269.11,256.44v-.79h.79v.79h-.79Z"/>
        <path class="d" d="m273.43,256.44v-5.66h3.82v.67h-3.07v1.75h2.66v.67h-2.66v2.57h-.75Z"/>
        <path class="d" d="m278.12,256.44v-5.66h.7v5.66h-.7Z"/>
        <path class="d" d="m279.63,254.39c0-.76.21-1.32.63-1.69.35-.3.78-.46,1.29-.46.56,0,1.02.18,1.38.55.36.37.54.88.54,1.53,0,.53-.08.94-.24,1.25-.16.3-.39.54-.69.71-.3.17-.63.25-.99.25-.57,0-1.04-.18-1.39-.55s-.53-.9-.53-1.59Zm.71,0c0,.53.11.92.34,1.18.23.26.52.39.86.39s.63-.13.86-.39c.23-.26.34-.66.34-1.2,0-.51-.12-.89-.35-1.15-.23-.26-.52-.39-.86-.39s-.64.13-.86.39c-.23.26-.34.65-.34,1.18Z"/>
        <path class="d" d="m285.05,256.44l-1.26-4.1h.72l.65,2.37.24.88s.08-.33.21-.85l.65-2.4h.71l.61,2.38.21.78.24-.79.7-2.37h.68l-1.28,4.1h-.72l-.65-2.46-.16-.7-.83,3.15h-.73Z"/>
        <path class="d" d="m292.29,256.44v-5.66h1.95c.44,0,.78.03,1.01.08.32.08.6.21.83.41.3.25.52.58.67.97s.22.84.22,1.35c0,.43-.05.81-.15,1.14-.1.33-.23.61-.39.82-.16.22-.33.39-.52.51-.19.12-.41.22-.68.28-.26.06-.57.1-.91.1h-2.04Zm.75-.67h1.21c.37,0,.67-.03.88-.1.21-.07.38-.17.51-.29.18-.18.32-.42.42-.72s.15-.66.15-1.09c0-.59-.1-1.05-.29-1.37-.19-.32-.43-.53-.71-.64-.2-.08-.52-.12-.97-.12h-1.19v4.33Z"/>
        <path class="d" d="m300.72,255.12l.72.09c-.11.42-.32.75-.63.98-.31.23-.7.35-1.17.35-.6,0-1.08-.18-1.43-.55-.35-.37-.53-.89-.53-1.55s.18-1.23.53-1.61c.35-.38.82-.57,1.38-.57s1,.19,1.34.56.52.9.52,1.58c0,.04,0,.1,0,.18h-3.06c.03.45.15.8.38,1.04s.52.36.86.36c.25,0,.47-.07.65-.2s.32-.35.43-.64Zm-2.28-1.12h2.29c-.03-.34-.12-.6-.26-.78-.22-.27-.51-.4-.86-.4-.32,0-.59.11-.81.32-.22.21-.34.5-.36.86Z"/>
        <path class="d" d="m304.99,254.94l.68.09c-.07.47-.27.84-.57,1.11s-.69.4-1.13.4c-.56,0-1.01-.18-1.35-.55-.34-.37-.51-.89-.51-1.58,0-.44.07-.83.22-1.16.15-.33.37-.58.67-.75.3-.17.63-.25.98-.25.45,0,.81.11,1.09.34s.46.54.54.96l-.68.1c-.06-.28-.18-.48-.34-.62-.16-.14-.36-.21-.59-.21-.35,0-.63.13-.85.38s-.33.65-.33,1.19.11.95.32,1.2c.21.25.49.38.83.38.27,0,.5-.08.68-.25.18-.17.3-.42.35-.77Z"/>
        <path class="d" d="m306.27,251.58v-.8h.69v.8h-.69Zm0,4.86v-4.1h.69v4.1h-.69Z"/>
        <path class="d" d="m307.74,255.22l.69-.11c.04.28.15.49.32.63.18.15.42.22.74.22s.56-.07.71-.2.23-.28.23-.46c0-.16-.07-.28-.21-.37-.1-.06-.33-.14-.71-.24-.51-.13-.86-.24-1.06-.33-.2-.09-.35-.22-.45-.39s-.15-.35-.15-.55c0-.18.04-.35.13-.51.08-.16.2-.29.34-.39.11-.08.26-.15.44-.2s.39-.08.6-.08c.32,0,.6.05.85.14s.42.22.54.38.2.37.24.63l-.68.09c-.03-.21-.12-.38-.27-.49s-.36-.18-.63-.18c-.32,0-.55.05-.68.16-.14.11-.2.23-.2.37,0,.09.03.17.08.24.06.07.15.14.27.19.07.03.27.08.61.18.49.13.83.24,1.03.32.19.08.35.21.46.37.11.16.17.36.17.59s-.07.45-.2.66c-.14.2-.33.36-.59.47s-.54.17-.86.17c-.53,0-.94-.11-1.22-.33-.28-.22-.46-.55-.54-.98Z"/>
        <path class="d" d="m311.98,251.58v-.8h.69v.8h-.69Zm0,4.86v-4.1h.69v4.1h-.69Z"/>
        <path class="d" d="m313.47,254.39c0-.76.21-1.32.63-1.69.35-.3.78-.46,1.29-.46.56,0,1.02.18,1.38.55.36.37.54.88.54,1.53,0,.53-.08.94-.24,1.25-.16.3-.39.54-.69.71-.3.17-.63.25-.99.25-.57,0-1.04-.18-1.39-.55s-.53-.9-.53-1.59Zm.71,0c0,.53.11.92.34,1.18.23.26.52.39.86.39s.63-.13.86-.39c.23-.26.34-.66.34-1.2,0-.51-.12-.89-.35-1.15-.23-.26-.52-.39-.86-.39s-.64.13-.86.39c-.23.26-.34.65-.34,1.18Z"/>
        <path class="d" d="m318.13,256.44v-4.1h.63v.58c.3-.45.74-.68,1.31-.68.25,0,.47.04.68.13.21.09.36.21.47.35.1.14.17.32.22.51.03.13.04.35.04.68v2.52h-.7v-2.49c0-.28-.03-.5-.08-.64-.05-.14-.15-.25-.29-.34-.14-.08-.3-.12-.48-.12-.3,0-.55.09-.77.28-.22.19-.32.54-.32,1.07v2.24h-.69Z"/>
      </g>
      <path class="l" d="m168.76,289.87h162.2c.34,0,.68.03,1.01.1.33.07.66.16.97.29.31.13.61.29.89.48.28.19.54.4.78.64.24.24.45.5.64.78s.35.58.48.9c.13.31.23.64.29.97.07.33.1.67.1,1.01v75.92c0,.34-.03.68-.1,1.01-.07.33-.16.66-.29.97-.13.31-.29.61-.48.89s-.4.54-.64.78c-.24.24-.5.45-.78.64s-.58.35-.89.48c-.31.13-.64.23-.97.29-.33.07-.67.1-1.01.1h-162.2c-.34,0-.68-.03-1.01-.1-.33-.07-.66-.16-.97-.29-.31-.13-.61-.29-.89-.48-.28-.19-.54-.4-.78-.64-.24-.24-.45-.5-.64-.78-.19-.28-.35-.58-.48-.89-.13-.31-.23-.64-.29-.97-.07-.33-.1-.67-.1-1.01v-75.92c0-.34.03-.68.1-1.01.07-.33.16-.66.29-.97s.29-.61.48-.9.4-.54.64-.78c.24-.24.5-.45.78-.64.28-.19.58-.35.89-.48.31-.13.64-.23.97-.29s.67-.1,1.01-.1Z"/>
      <path class="j" d="m168.76,289.87h162.2c.34,0,.68.03,1.01.1.33.07.66.16.97.29.31.13.61.29.89.48.28.19.54.4.78.64.24.24.45.5.64.78s.35.58.48.9c.13.31.23.64.29.97.07.33.1.67.1,1.01v75.92c0,.34-.03.68-.1,1.01-.07.33-.16.66-.29.97-.13.31-.29.61-.48.89s-.4.54-.64.78c-.24.24-.5.45-.78.64s-.58.35-.89.48c-.31.13-.64.23-.97.29-.33.07-.67.1-1.01.1h-162.2c-.34,0-.68-.03-1.01-.1-.33-.07-.66-.16-.97-.29-.31-.13-.61-.29-.89-.48-.28-.19-.54-.4-.78-.64-.24-.24-.45-.5-.64-.78-.19-.28-.35-.58-.48-.89-.13-.31-.23-.64-.29-.97-.07-.33-.1-.67-.1-1.01v-75.92c0-.34.03-.68.1-1.01.07-.33.16-.66.29-.97s.29-.61.48-.9.4-.54.64-.78c.24-.24.5-.45.78-.64.28-.19.58-.35.89-.48.31-.13.64-.23.97-.29s.67-.1,1.01-.1Z"/>
      <g>
        <path class="p" d="m220.7,335.53l2.37-6.18h.88l2.53,6.18h-.93l-.72-1.87h-2.58l-.68,1.87h-.87Zm1.78-2.54h2.09l-.64-1.71c-.2-.52-.34-.95-.44-1.28-.08.4-.19.79-.33,1.18l-.68,1.81Z"/>
        <path class="p" d="m227.04,337.24v-6.19h.69v.58c.16-.23.35-.4.55-.51.21-.11.45-.17.75-.17.38,0,.72.1,1.01.29.29.2.51.47.66.83.15.36.22.75.22,1.18,0,.46-.08.87-.25,1.24-.16.37-.4.65-.72.84s-.64.29-.99.29c-.25,0-.48-.05-.68-.16-.2-.11-.37-.24-.49-.4v2.18h-.76Zm.69-3.93c0,.58.12,1,.35,1.28.23.27.52.41.85.41s.63-.14.87-.43c.24-.28.36-.73.36-1.32s-.12-1-.35-1.28c-.23-.28-.52-.42-.84-.42s-.61.15-.86.45c-.25.3-.37.74-.37,1.32Z"/>
        <path class="p" d="m234.9,334.09l.78.1c-.12.46-.35.81-.69,1.07-.33.25-.76.38-1.28.38-.65,0-1.17-.2-1.56-.6-.38-.4-.58-.97-.58-1.7s.19-1.34.58-1.75c.39-.42.89-.62,1.51-.62s1.09.2,1.47.61c.38.41.57.98.57,1.72,0,.04,0,.11,0,.2h-3.34c.03.49.17.87.42,1.13.25.26.56.39.94.39.28,0,.52-.07.71-.22.2-.15.35-.38.47-.7Zm-2.49-1.23h2.5c-.03-.38-.13-.66-.29-.85-.24-.29-.55-.44-.94-.44-.35,0-.64.12-.88.35s-.37.54-.39.94Z"/>
        <path class="p" d="m236.63,335.53v-4.47h.68v.68c.17-.32.33-.53.48-.63.15-.1.31-.15.49-.15.26,0,.52.08.78.25l-.26.7c-.19-.11-.37-.16-.56-.16-.17,0-.31.05-.45.15-.13.1-.23.24-.28.42-.08.27-.13.56-.13.88v2.34h-.76Z"/>
        <path class="p" d="m241.17,334.85l.11.67c-.21.04-.4.07-.57.07-.27,0-.49-.04-.64-.13s-.26-.2-.32-.34c-.06-.14-.09-.44-.09-.89v-2.57h-.56v-.59h.56v-1.11l.75-.45v1.56h.76v.59h-.76v2.62c0,.22.01.36.04.42.03.06.07.11.13.15.06.04.15.05.26.05.08,0,.2,0,.33-.03Z"/>
        <path class="p" d="m244.84,335.53v-.66c-.35.51-.82.76-1.42.76-.26,0-.51-.05-.74-.15-.23-.1-.4-.23-.51-.38s-.19-.34-.23-.56c-.03-.15-.05-.38-.05-.71v-2.77h.76v2.48c0,.4.02.66.05.8.05.2.15.36.3.47.15.11.35.17.57.17s.44-.06.64-.17.34-.28.42-.48c.08-.2.12-.49.12-.87v-2.4h.76v4.47h-.68Z"/>
        <path class="p" d="m246.7,335.53v-4.47h.68v.68c.17-.32.33-.53.48-.63.15-.1.31-.15.49-.15.26,0,.52.08.78.25l-.26.7c-.19-.11-.37-.16-.56-.16-.17,0-.31.05-.45.15-.13.1-.23.24-.28.42-.08.27-.13.56-.13.88v2.34h-.76Z"/>
        <path class="p" d="m252.64,334.09l.78.1c-.12.46-.35.81-.69,1.07-.33.25-.76.38-1.28.38-.65,0-1.17-.2-1.56-.6-.38-.4-.58-.97-.58-1.7s.19-1.34.58-1.75c.39-.42.89-.62,1.51-.62s1.09.2,1.47.61c.38.41.57.98.57,1.72,0,.04,0,.11,0,.2h-3.34c.03.49.17.87.42,1.13.25.26.56.39.94.39.28,0,.52-.07.71-.22.2-.15.35-.38.47-.7Zm-2.49-1.23h2.5c-.03-.38-.13-.66-.29-.85-.24-.29-.55-.44-.94-.44-.35,0-.64.12-.88.35s-.37.54-.39.94Z"/>
      </g>
      <g>
        <path class="p" d="m255.72,335.53l2.37-6.18h.88l2.53,6.18h-.93l-.72-1.87h-2.58l-.68,1.87h-.87Zm1.78-2.54h2.09l-.64-1.71c-.2-.52-.34-.95-.44-1.28-.08.4-.19.79-.33,1.18l-.68,1.81Z"/>
        <path class="p" d="m261.91,335.9l.74.11c.03.23.12.39.26.5.19.14.45.21.77.21.35,0,.62-.07.81-.21s.32-.34.39-.59c.04-.15.06-.48.05-.97-.33.39-.74.58-1.24.58-.62,0-1.09-.22-1.43-.67-.34-.44-.51-.98-.51-1.6,0-.43.08-.82.23-1.18.15-.36.38-.64.67-.84.29-.2.64-.29,1.03-.29.53,0,.96.21,1.31.64v-.54h.7v3.87c0,.7-.07,1.19-.21,1.48-.14.29-.37.52-.67.69-.31.17-.69.25-1.14.25-.53,0-.96-.12-1.29-.36s-.49-.6-.48-1.08Zm.63-2.69c0,.59.12,1.01.35,1.28.23.27.52.4.88.4s.64-.13.88-.4c.24-.27.35-.69.35-1.26s-.12-.96-.36-1.24c-.24-.28-.54-.42-.88-.42s-.62.14-.86.41c-.24.27-.35.68-.35,1.22Z"/>
        <path class="p" d="m269.91,334.09l.78.1c-.12.46-.35.81-.69,1.07-.33.25-.76.38-1.28.38-.65,0-1.17-.2-1.56-.6-.38-.4-.58-.97-.58-1.7s.19-1.34.58-1.75c.39-.42.89-.62,1.51-.62s1.09.2,1.47.61c.38.41.57.98.57,1.72,0,.04,0,.11,0,.2h-3.34c.03.49.17.87.42,1.13.25.26.56.39.94.39.28,0,.52-.07.71-.22.2-.15.35-.38.47-.7Zm-2.49-1.23h2.5c-.03-.38-.13-.66-.29-.85-.24-.29-.55-.44-.94-.44-.35,0-.64.12-.88.35s-.37.54-.39.94Z"/>
        <path class="p" d="m271.65,335.53v-4.47h.68v.64c.33-.49.8-.74,1.42-.74.27,0,.52.05.74.15s.4.22.51.38.19.34.24.56c.03.14.04.39.04.74v2.75h-.76v-2.72c0-.31-.03-.54-.09-.69s-.16-.28-.31-.37c-.15-.09-.33-.14-.53-.14-.32,0-.6.1-.84.31s-.35.59-.35,1.17v2.44h-.76Z"/>
        <path class="p" d="m278.1,334.85l.11.67c-.21.04-.4.07-.57.07-.27,0-.49-.04-.64-.13s-.26-.2-.32-.34c-.06-.14-.09-.44-.09-.89v-2.57h-.56v-.59h.56v-1.11l.75-.45v1.56h.76v.59h-.76v2.62c0,.22.01.36.04.42.03.06.07.11.13.15.06.04.15.05.26.05.08,0,.2,0,.33-.03Z"/>
      </g>
      <rect class="k" x="212.41" y="50.48" width="70.72" height="70.72"/>
      <rect class="k" x="227.26" y="52.25" width="41.37" height="43.14"/>
      <g>
        <path class="d" d="m220.06,109.05v-6.18h.84l3.24,4.85v-4.85h.78v6.18h-.84l-3.24-4.85v4.85h-.78Z"/>
        <path class="d" d="m226.06,109.42l.74.11c.03.23.12.39.26.5.19.14.45.21.77.21.35,0,.62-.07.81-.21.19-.14.32-.34.39-.59.04-.15.06-.48.05-.97-.33.39-.74.59-1.24.59-.62,0-1.09-.22-1.43-.67s-.51-.98-.51-1.6c0-.43.08-.82.23-1.18s.38-.64.67-.84c.29-.2.64-.29,1.03-.29.53,0,.96.21,1.31.64v-.54h.7v3.87c0,.7-.07,1.19-.21,1.48-.14.29-.37.52-.67.69s-.69.25-1.13.25c-.53,0-.96-.12-1.29-.36-.33-.24-.49-.6-.48-1.08Zm.63-2.69c0,.59.12,1.02.35,1.28.23.27.52.4.88.4s.64-.13.88-.4c.24-.27.35-.69.35-1.26s-.12-.96-.36-1.24c-.24-.28-.54-.42-.88-.42s-.62.14-.86.41c-.24.27-.35.68-.35,1.22Z"/>
        <path class="d" d="m231.01,103.75v-.87h.76v.87h-.76Zm0,5.3v-4.47h.76v4.47h-.76Z"/>
        <path class="d" d="m232.92,109.05v-4.47h.68v.64c.33-.49.8-.74,1.42-.74.27,0,.52.05.74.15.23.1.4.22.51.38s.19.34.24.56c.03.14.04.39.04.74v2.75h-.76v-2.72c0-.31-.03-.54-.09-.69-.06-.15-.16-.27-.31-.37s-.33-.14-.53-.14c-.32,0-.6.1-.84.31s-.35.59-.35,1.17v2.44h-.76Z"/>
        <path class="d" d="m237.21,109.05l1.63-2.33-1.51-2.15h.95l.69,1.05c.13.2.23.37.31.5.12-.19.24-.35.34-.49l.75-1.06h.91l-1.55,2.11,1.66,2.37h-.93l-.92-1.39-.25-.38-1.17,1.77h-.92Z"/>
        <path class="d" d="m247.42,106.63v-.72h2.62s0,2.29,0,2.29c-.4.32-.82.56-1.24.72-.43.16-.87.24-1.31.24-.61,0-1.16-.13-1.65-.39-.5-.26-.87-.64-1.12-1.13-.25-.49-.38-1.04-.38-1.65s.13-1.16.38-1.68.61-.91,1.08-1.16c.47-.25,1.01-.38,1.63-.38.45,0,.85.07,1.21.22.36.15.64.35.85.6.21.26.36.6.47,1.01l-.74.2c-.09-.31-.21-.56-.35-.74s-.33-.32-.59-.43c-.26-.11-.54-.16-.85-.16-.37,0-.7.06-.97.17s-.49.26-.66.45c-.17.19-.3.39-.39.61-.16.38-.24.8-.24,1.24,0,.55.09,1.01.28,1.38.19.37.47.65.83.83s.75.27,1.15.27c.35,0,.7-.07,1.04-.2s.59-.28.77-.44v-1.15h-1.82Z"/>
        <path class="d" d="m254.06,108.5c-.28.24-.55.41-.81.51s-.54.15-.84.15c-.49,0-.87-.12-1.13-.36-.26-.24-.4-.55-.4-.92,0-.22.05-.42.15-.6.1-.18.23-.33.39-.44.16-.11.34-.19.54-.25.15-.04.37-.08.67-.11.61-.07,1.06-.16,1.35-.26,0-.1,0-.17,0-.2,0-.31-.07-.53-.21-.65-.19-.17-.48-.26-.86-.26-.36,0-.62.06-.79.19-.17.12-.3.35-.38.66l-.74-.1c.07-.32.18-.57.33-.77s.38-.35.67-.45.63-.16,1.02-.16.69.04.93.13c.24.09.41.2.53.34s.19.31.24.52c.03.13.04.36.04.7v1.01c0,.7.02,1.15.05,1.34.03.19.1.37.19.54h-.79c-.08-.16-.13-.34-.15-.55Zm-.06-1.69c-.27.11-.69.21-1.24.29-.31.04-.53.1-.66.15s-.23.14-.3.25c-.07.11-.11.23-.11.36,0,.2.08.37.23.51.15.14.38.2.67.2s.55-.06.78-.19.39-.3.5-.52c.08-.17.12-.42.12-.76v-.28Z"/>
        <path class="d" d="m257.59,108.37l.11.67c-.21.04-.41.07-.57.07-.28,0-.49-.04-.64-.13-.15-.09-.26-.2-.32-.34-.06-.14-.09-.44-.09-.9v-2.57h-.56v-.59h.56v-1.11l.75-.45v1.56h.76v.59h-.76v2.62c0,.22.01.36.04.42.03.06.07.11.13.15s.15.05.26.05c.08,0,.2,0,.33-.03Z"/>
        <path class="d" d="m261.4,107.61l.78.1c-.12.46-.35.81-.69,1.07-.33.25-.76.38-1.28.38-.65,0-1.17-.2-1.56-.6-.38-.4-.58-.97-.58-1.7s.19-1.34.58-1.75c.39-.42.89-.62,1.51-.62s1.09.2,1.47.61.57.98.57,1.72c0,.05,0,.11,0,.2h-3.34c.03.49.17.87.42,1.13s.56.39.93.39c.28,0,.52-.07.71-.22.2-.15.35-.38.47-.7Zm-2.49-1.23h2.5c-.03-.38-.13-.66-.29-.85-.24-.29-.55-.44-.94-.44-.35,0-.64.12-.88.35-.24.23-.37.54-.39.94Z"/>
        <path class="d" d="m263.96,109.05l-1.37-4.47h.78l.71,2.58.27.96s.09-.35.23-.92l.71-2.62h.78l.67,2.6.22.85.26-.86.77-2.59h.74l-1.4,4.47h-.79l-.71-2.68-.17-.76-.91,3.44h-.79Z"/>
        <path class="d" d="m272.28,108.5c-.28.24-.55.41-.81.51s-.54.15-.84.15c-.49,0-.87-.12-1.13-.36-.26-.24-.4-.55-.4-.92,0-.22.05-.42.15-.6.1-.18.23-.33.39-.44.16-.11.34-.19.54-.25.15-.04.37-.08.67-.11.61-.07,1.06-.16,1.35-.26,0-.1,0-.17,0-.2,0-.31-.07-.53-.21-.65-.19-.17-.48-.26-.86-.26-.36,0-.62.06-.79.19-.17.12-.3.35-.38.66l-.74-.1c.07-.32.18-.57.33-.77s.38-.35.67-.45.63-.16,1.02-.16.69.04.93.13c.24.09.41.2.53.34s.19.31.24.52c.03.13.04.36.04.7v1.01c0,.7.02,1.15.05,1.34.03.19.1.37.19.54h-.79c-.08-.16-.13-.34-.15-.55Zm-.06-1.69c-.27.11-.69.21-1.24.29-.31.04-.53.1-.66.15s-.23.14-.3.25c-.07.11-.11.23-.11.36,0,.2.08.37.23.51.15.14.38.2.67.2s.55-.06.78-.19.39-.3.5-.52c.08-.17.12-.42.12-.76v-.28Z"/>
        <path class="d" d="m274.13,110.77l-.08-.71c.17.04.31.07.43.07.17,0,.3-.03.4-.08.1-.06.18-.13.25-.24.05-.08.12-.26.23-.56.01-.04.04-.1.07-.19l-1.7-4.48h.82l.93,2.59c.12.33.23.67.33,1.04.09-.35.19-.69.31-1.02l.96-2.61h.76l-1.7,4.55c-.18.49-.32.83-.43,1.02-.13.25-.29.43-.46.55-.17.12-.38.18-.62.18-.15,0-.31-.03-.49-.09Z"/>
      </g>
      <line class="h" x1="361.3" y1="77.77" x2="466.77" y2="77.77"/>
      <polygon class="n" points="470.55 77.77 465.51 80.29 466.77 77.77 465.51 75.26 470.55 77.77"/>
      <polygon class="h" points="470.55 77.77 465.51 80.29 466.77 77.77 465.51 75.26 470.55 77.77"/>
      <rect class="g" x="397.61" y="73.1" width="38.11" height="9.35"/>
      <g>
        <path class="d" d="m400.1,80.29v-1.36h-2.46v-.64l2.58-3.67h.57v3.67h.76v.64h-.76v1.36h-.69Zm0-1.99v-2.55l-1.77,2.55h1.77Z"/>
        <path class="d" d="m402.66,80.29v-.79h.79v.79h-.79Z"/>
        <path class="d" d="m406.95,80.29v-5.66h2.51c.5,0,.89.05,1.15.15.26.1.47.28.63.54.16.26.24.54.24.85,0,.4-.13.74-.39,1.02-.26.28-.66.45-1.21.53.2.1.35.19.45.28.22.2.43.45.62.75l.98,1.54h-.94l-.75-1.18c-.22-.34-.4-.6-.54-.78s-.27-.31-.38-.38c-.11-.07-.23-.12-.34-.15-.08-.02-.22-.03-.42-.03h-.87v2.51h-.75Zm.75-3.16h1.61c.34,0,.61-.04.8-.11.19-.07.34-.18.44-.34.1-.16.15-.32.15-.51,0-.27-.1-.49-.29-.66s-.5-.26-.92-.26h-1.79v1.87Z"/>
        <path class="d" d="m415.37,78.97l.72.09c-.11.42-.32.75-.63.98-.31.23-.7.35-1.17.35-.6,0-1.08-.18-1.43-.55-.35-.37-.53-.89-.53-1.55s.18-1.23.53-1.61c.35-.38.82-.57,1.38-.57s1,.19,1.34.56c.35.37.52.9.52,1.58,0,.04,0,.1,0,.19h-3.06c.03.45.15.8.38,1.04.23.24.52.36.86.36.25,0,.47-.07.65-.2s.32-.35.43-.64Zm-2.28-1.12h2.29c-.03-.35-.12-.6-.26-.78-.22-.27-.51-.4-.86-.4-.32,0-.59.11-.81.32-.22.21-.34.5-.36.86Z"/>
        <path class="d" d="m419.58,81.86v-2.01c-.11.15-.26.28-.45.38-.19.1-.4.15-.62.15-.49,0-.91-.19-1.26-.58s-.53-.92-.53-1.6c0-.41.07-.78.21-1.11.14-.33.35-.57.62-.74.27-.17.57-.25.89-.25.51,0,.91.21,1.2.64v-.55h.63v5.67h-.69Zm-2.14-3.63c0,.53.11.92.33,1.19.22.26.49.4.8.4s.55-.13.76-.38c.21-.25.32-.63.32-1.15,0-.55-.11-.96-.34-1.23-.23-.28-.49-.41-.79-.41s-.56.13-.77.38c-.21.26-.31.66-.31,1.2Z"/>
        <path class="d" d="m424.05,80.29v-.6c-.32.46-.75.7-1.3.7-.24,0-.47-.05-.68-.14s-.37-.21-.47-.35c-.1-.14-.17-.31-.21-.52-.03-.14-.04-.35-.04-.65v-2.54h.7v2.27c0,.36.01.61.04.73.04.18.14.33.28.43.14.1.32.16.53.16s.4-.05.59-.16c.18-.11.31-.25.39-.44.08-.18.11-.45.11-.8v-2.2h.69v4.1h-.62Z"/>
        <path class="d" d="m428.57,78.97l.72.09c-.11.42-.32.75-.63.98-.31.23-.7.35-1.17.35-.6,0-1.08-.18-1.43-.55-.35-.37-.53-.89-.53-1.55s.18-1.23.53-1.61c.35-.38.82-.57,1.38-.57s1,.19,1.34.56c.35.37.52.9.52,1.58,0,.04,0,.1,0,.19h-3.06c.03.45.15.8.38,1.04.23.24.52.36.86.36.25,0,.47-.07.65-.2s.32-.35.43-.64Zm-2.28-1.12h2.29c-.03-.35-.12-.6-.26-.78-.22-.27-.51-.4-.86-.4-.32,0-.59.11-.81.32-.22.21-.34.5-.36.86Z"/>
        <path class="d" d="m429.88,79.07l.69-.11c.04.28.15.49.32.63.18.15.42.22.74.22s.56-.06.71-.19.23-.28.23-.46c0-.16-.07-.28-.21-.37-.1-.06-.33-.14-.71-.24-.51-.13-.86-.24-1.06-.33-.2-.09-.35-.22-.45-.39s-.15-.35-.15-.55c0-.18.04-.35.13-.51.08-.16.2-.29.34-.39.11-.08.26-.15.44-.2.19-.06.39-.08.6-.08.32,0,.6.05.85.14s.42.22.54.38.2.37.24.64l-.68.09c-.03-.21-.12-.38-.27-.49-.15-.12-.36-.18-.63-.18-.32,0-.55.05-.68.16-.14.11-.2.23-.2.37,0,.09.03.17.08.24.06.07.15.14.27.19.07.03.27.08.61.18.49.13.83.24,1.03.32.19.08.35.21.46.37.11.16.17.36.17.59s-.07.45-.2.65c-.14.2-.33.36-.59.48-.25.11-.54.17-.86.17-.53,0-.94-.11-1.22-.33-.28-.22-.46-.55-.54-.98Z"/>
        <path class="d" d="m435.63,79.67l.1.61c-.2.04-.37.06-.52.06-.25,0-.45-.04-.59-.12-.14-.08-.24-.19-.29-.31s-.08-.4-.08-.82v-2.36h-.51v-.54h.51v-1.02l.69-.42v1.43h.7v.54h-.7v2.4c0,.2.01.33.04.38.02.06.06.1.12.14.06.03.13.05.24.05.08,0,.18,0,.31-.03Z"/>
      </g>
      <polygon class="e" points="145.25 182.03 145.25 189.22 32.48 189.22 32.48 195.79 12.96 185.62 32.48 175.45 32.48 182.03 145.25 182.03"/>
      <g>
        <path class="d" d="m65.51,193.21l-.69.05c-.06-.27-.15-.47-.26-.59-.19-.2-.42-.3-.7-.3-.22,0-.42.06-.58.19-.22.16-.39.39-.52.7s-.19.74-.2,1.31c.17-.25.37-.44.61-.57.24-.12.5-.19.76-.19.46,0,.86.17,1.18.51.33.34.49.78.49,1.32,0,.36-.08.69-.23.99s-.36.54-.63.7c-.27.16-.57.24-.91.24-.58,0-1.05-.21-1.42-.64s-.55-1.13-.55-2.11c0-1.09.2-1.89.61-2.39.35-.43.83-.65,1.42-.65.45,0,.81.12,1.09.38.28.25.46.59.51,1.03Zm-2.84,2.44c0,.24.05.47.15.69.1.22.24.39.43.5.18.11.38.17.58.17.29,0,.55-.12.76-.35s.32-.56.32-.97-.1-.7-.31-.92c-.21-.23-.47-.34-.79-.34s-.58.11-.8.34c-.22.23-.33.52-.33.89Z"/>
        <path class="d" d="m66.69,197.48v-.79h.79v.79h-.79Z"/>
        <path class="d" d="m70.99,197.48v-5.66h2.51c.5,0,.89.05,1.15.15.26.1.47.28.63.54.16.26.24.54.24.85,0,.4-.13.74-.39,1.02-.26.28-.66.45-1.21.53.2.1.35.19.45.28.22.2.43.45.62.75l.98,1.54h-.94l-.75-1.18c-.22-.34-.4-.6-.54-.78s-.27-.31-.38-.38c-.11-.07-.23-.12-.34-.15-.08-.02-.22-.03-.42-.03h-.87v2.51h-.75Zm.75-3.16h1.61c.34,0,.61-.04.8-.11.19-.07.34-.18.44-.34.1-.16.15-.32.15-.51,0-.27-.1-.49-.29-.66s-.5-.26-.92-.26h-1.79v1.87Z"/>
        <path class="d" d="m79.41,196.16l.72.09c-.11.42-.32.75-.63.98-.31.23-.7.35-1.17.35-.6,0-1.08-.18-1.43-.55-.35-.37-.53-.89-.53-1.55s.18-1.23.53-1.61c.35-.38.82-.57,1.38-.57s1,.19,1.34.56c.35.37.52.9.52,1.58,0,.04,0,.1,0,.19h-3.06c.03.45.15.8.38,1.04.23.24.52.36.86.36.25,0,.47-.07.65-.2s.32-.35.43-.64Zm-2.28-1.12h2.29c-.03-.35-.12-.6-.26-.78-.22-.27-.51-.4-.86-.4-.32,0-.59.11-.81.32-.22.21-.34.5-.36.86Z"/>
        <path class="d" d="m80.72,196.26l.69-.11c.04.28.15.49.32.63.18.15.42.22.74.22s.56-.06.71-.19.23-.28.23-.46c0-.16-.07-.28-.21-.37-.1-.06-.33-.14-.71-.24-.51-.13-.86-.24-1.06-.33-.2-.09-.35-.22-.45-.39s-.15-.35-.15-.55c0-.18.04-.35.13-.51.08-.16.2-.29.34-.39.11-.08.26-.15.44-.2.19-.06.39-.08.6-.08.32,0,.6.05.85.14s.42.22.54.38.2.37.24.64l-.68.09c-.03-.21-.12-.38-.27-.49-.15-.12-.36-.18-.63-.18-.32,0-.55.05-.68.16-.14.11-.2.23-.2.37,0,.09.03.17.08.24.06.07.15.14.27.19.07.03.27.08.61.18.49.13.83.24,1.03.32.19.08.35.21.46.37.11.16.17.36.17.59s-.07.45-.2.65c-.14.2-.33.36-.59.48-.25.11-.54.17-.86.17-.53,0-.94-.11-1.22-.33-.28-.22-.46-.55-.54-.98Z"/>
        <path class="d" d="m84.96,199.06v-5.67h.63v.53c.15-.21.32-.36.51-.47.19-.1.42-.16.68-.16.35,0,.66.09.93.27.27.18.47.43.61.76.14.33.21.69.21,1.08,0,.42-.08.8-.23,1.13-.15.34-.37.59-.66.77-.29.18-.59.27-.91.27-.23,0-.44-.05-.62-.15-.18-.1-.34-.22-.45-.37v2h-.69Zm.63-3.6c0,.53.11.92.32,1.17.21.25.47.38.78.38s.57-.13.79-.39.33-.67.33-1.21-.11-.91-.32-1.17c-.21-.26-.47-.39-.77-.39s-.56.14-.79.42c-.23.28-.34.68-.34,1.21Z"/>
        <path class="d" d="m89.1,195.43c0-.76.21-1.32.63-1.69.35-.3.78-.46,1.29-.46.56,0,1.02.19,1.38.55.36.37.54.88.54,1.53,0,.53-.08.94-.24,1.25-.16.3-.39.54-.69.71-.3.17-.63.25-.99.25-.57,0-1.04-.18-1.39-.55s-.53-.9-.53-1.59Zm.71,0c0,.53.11.92.34,1.18.23.26.52.39.86.39s.63-.13.86-.39c.23-.26.34-.66.34-1.2,0-.51-.12-.89-.35-1.15s-.52-.39-.86-.39-.64.13-.86.39c-.23.26-.34.65-.34,1.18Z"/>
        <path class="d" d="m93.75,197.48v-4.1h.63v.58c.3-.45.74-.68,1.31-.68.25,0,.47.04.68.13.21.09.36.21.47.35s.17.32.22.51c.03.13.04.35.04.68v2.52h-.7v-2.49c0-.28-.03-.5-.08-.64-.05-.14-.15-.25-.29-.34s-.3-.13-.48-.13c-.3,0-.55.09-.77.28-.22.19-.32.54-.32,1.07v2.24h-.69Z"/>
        <path class="d" d="m97.87,196.26l.69-.11c.04.28.15.49.32.63.18.15.42.22.74.22s.56-.06.71-.19.23-.28.23-.46c0-.16-.07-.28-.21-.37-.1-.06-.33-.14-.71-.24-.51-.13-.86-.24-1.06-.33-.2-.09-.35-.22-.45-.39s-.15-.35-.15-.55c0-.18.04-.35.13-.51.08-.16.2-.29.34-.39.11-.08.26-.15.44-.2.19-.06.39-.08.6-.08.32,0,.6.05.85.14s.42.22.54.38.2.37.24.64l-.68.09c-.03-.21-.12-.38-.27-.49-.15-.12-.36-.18-.63-.18-.32,0-.55.05-.68.16-.14.11-.2.23-.2.37,0,.09.03.17.08.24.06.07.15.14.27.19.07.03.27.08.61.18.49.13.83.24,1.03.32.19.08.35.21.46.37.11.16.17.36.17.59s-.07.45-.2.65c-.14.2-.33.36-.59.48-.25.11-.54.17-.86.17-.53,0-.94-.11-1.22-.33-.28-.22-.46-.55-.54-.98Z"/>
        <path class="d" d="m104.91,196.16l.72.09c-.11.42-.32.75-.63.98-.31.23-.7.35-1.17.35-.6,0-1.08-.18-1.43-.55-.35-.37-.53-.89-.53-1.55s.18-1.23.53-1.61c.35-.38.82-.57,1.38-.57s1,.19,1.34.56c.35.37.52.9.52,1.58,0,.04,0,.1,0,.19h-3.06c.03.45.15.8.38,1.04.23.24.52.36.86.36.25,0,.47-.07.65-.2s.32-.35.43-.64Zm-2.28-1.12h2.29c-.03-.35-.12-.6-.26-.78-.22-.27-.51-.4-.86-.4-.32,0-.59.11-.81.32-.22.21-.34.5-.36.86Z"/>
      </g>
      <polygon class="e" points="12.96 81.37 12.96 74.18 125.72 74.18 125.72 67.61 145.25 77.77 125.72 87.94 125.72 81.37 12.96 81.37"/>
      <g>
        <path class="d" d="m59.69,69.51h-.69v-4.43c-.17.16-.39.32-.66.48-.27.16-.52.28-.73.36v-.67c.39-.18.73-.4,1.02-.66.29-.26.5-.51.62-.76h.45v5.68Z"/>
        <path class="d" d="m61.86,69.51v-.79h.79v.79h-.79Z"/>
        <path class="d" d="m66.16,69.51v-5.66h2.51c.5,0,.89.05,1.15.15.26.1.47.28.63.54.16.26.24.54.24.85,0,.4-.13.74-.39,1.02-.26.28-.66.45-1.21.53.2.1.35.19.45.28.22.2.43.45.62.75l.98,1.54h-.94l-.75-1.18c-.22-.34-.4-.6-.54-.78s-.27-.31-.38-.38c-.11-.07-.23-.12-.34-.15-.08-.02-.22-.03-.42-.03h-.87v2.51h-.75Zm.75-3.16h1.61c.34,0,.61-.04.8-.11.19-.07.34-.18.44-.34.1-.16.15-.32.15-.51,0-.27-.1-.49-.29-.66s-.5-.26-.92-.26h-1.79v1.87Z"/>
        <path class="d" d="m74.58,68.19l.72.09c-.11.42-.32.75-.63.98-.31.23-.7.35-1.17.35-.6,0-1.08-.18-1.43-.55-.35-.37-.53-.89-.53-1.55s.18-1.23.53-1.61c.35-.38.82-.57,1.38-.57s1,.19,1.34.56c.35.37.52.9.52,1.58,0,.04,0,.1,0,.19h-3.06c.03.45.15.8.38,1.04.23.24.52.36.86.36.25,0,.47-.07.65-.2s.32-.35.43-.64Zm-2.28-1.12h2.29c-.03-.35-.12-.6-.26-.78-.22-.27-.51-.4-.86-.4-.32,0-.59.11-.81.32-.22.21-.34.5-.36.86Z"/>
        <path class="d" d="m78.79,71.08v-2.01c-.11.15-.26.28-.45.38-.19.1-.4.15-.62.15-.49,0-.91-.19-1.26-.58s-.53-.92-.53-1.6c0-.41.07-.78.21-1.11.14-.33.35-.57.62-.74.27-.17.57-.25.89-.25.51,0,.91.21,1.2.64v-.55h.63v5.67h-.69Zm-2.14-3.63c0,.53.11.92.33,1.19.22.26.49.4.8.4s.55-.13.76-.38c.21-.25.32-.63.32-1.15,0-.55-.11-.96-.34-1.23-.23-.28-.49-.41-.79-.41s-.56.13-.77.38c-.21.26-.31.66-.31,1.2Z"/>
        <path class="d" d="m83.26,69.51v-.6c-.32.46-.75.7-1.3.7-.24,0-.47-.05-.68-.14s-.37-.21-.47-.35c-.1-.14-.17-.31-.21-.52-.03-.14-.04-.35-.04-.65v-2.54h.7v2.27c0,.36.01.61.04.73.04.18.14.33.28.43.14.1.32.16.53.16s.4-.05.59-.16c.18-.11.31-.25.39-.44.08-.18.11-.45.11-.8v-2.2h.69v4.1h-.62Z"/>
        <path class="d" d="m87.77,68.19l.72.09c-.11.42-.32.75-.63.98-.31.23-.7.35-1.17.35-.6,0-1.08-.18-1.43-.55-.35-.37-.53-.89-.53-1.55s.18-1.23.53-1.61c.35-.38.82-.57,1.38-.57s1,.19,1.34.56c.35.37.52.9.52,1.58,0,.04,0,.1,0,.19h-3.06c.03.45.15.8.38,1.04.23.24.52.36.86.36.25,0,.47-.07.65-.2s.32-.35.43-.64Zm-2.28-1.12h2.29c-.03-.35-.12-.6-.26-.78-.22-.27-.51-.4-.86-.4-.32,0-.59.11-.81.32-.22.21-.34.5-.36.86Z"/>
        <path class="d" d="m89.09,68.28l.69-.11c.04.28.15.49.32.63.18.15.42.22.74.22s.56-.06.71-.19.23-.28.23-.46c0-.16-.07-.28-.21-.37-.1-.06-.33-.14-.71-.24-.51-.13-.86-.24-1.06-.33-.2-.09-.35-.22-.45-.39s-.15-.35-.15-.55c0-.18.04-.35.13-.51.08-.16.2-.29.34-.39.11-.08.26-.15.44-.2.19-.06.39-.08.6-.08.32,0,.6.05.85.14s.42.22.54.38.2.37.24.64l-.68.09c-.03-.21-.12-.38-.27-.49-.15-.12-.36-.18-.63-.18-.32,0-.55.05-.68.16-.14.11-.2.23-.2.37,0,.09.03.17.08.24.06.07.15.14.27.19.07.03.27.08.61.18.49.13.83.24,1.03.32.19.08.35.21.46.37.11.16.17.36.17.59s-.07.45-.2.65c-.14.2-.33.36-.59.48-.25.11-.54.17-.86.17-.53,0-.94-.11-1.22-.33-.28-.22-.46-.55-.54-.98Z"/>
        <path class="d" d="m94.84,68.88l.1.61c-.2.04-.37.06-.52.06-.25,0-.45-.04-.59-.12-.14-.08-.24-.19-.29-.31s-.08-.4-.08-.82v-2.36h-.51v-.54h.51v-1.02l.69-.42v1.43h.7v.54h-.7v2.4c0,.2.01.33.04.38.02.06.06.1.12.14.06.03.13.05.24.05.08,0,.18,0,.31-.03Z"/>
      </g>
      <g>
        <path class="o" d="m230.33,74.66v-10.04c-.02-.36.18-.7.51-.86l17.31-10c.31-.19.66-.23.97-.04l17.39,10.04c.3.17.48.51.47.86v20.03c.02.35-.16.68-.47.86l-14.94,8.63c-.78.47-1.57.92-2.37,1.36-.35.19-.7.19-1.05,0l-17.35-10c-.31-.19-.47-.43-.47-.82v-10.04h0Z"/>
        <path class="c" d="m242.59,70.92v11.7c0,1.32-1.05,2.49-2.45,2.45-.85-.04-1.52-.39-1.97-1.13-.23-.35-.31-.74-.31-1.17v-16.25c0-1.09.66-1.87,1.52-2.22s1.71-.27,2.57,0c.82.23,1.44.74,1.97,1.36l10.35,12.41s.08.12.16.19v-11.83c0-1.24.85-2.22,2.06-2.33,1.52-.19,2.53.89,2.68,2.02v16.56c0,.92-.43,1.6-1.21,2.02-.58.31-1.21.39-1.87.35-.95-.06-1.86-.45-2.57-1.09-.39-.35-.66-.78-1.01-1.17l-9.84-11.79s-.04-.08-.08-.12h0Z"/>
      </g>
    </g>
  </g>
</svg>