<?xml version="1.0" encoding="UTF-8"?><svg id="Layer_1" xmlns="http://www.w3.org/2000/svg" viewBox="0 0 80 80"><defs><style>.cls-1{fill:#f8773d;}.cls-2{fill:#efeeed;}.cls-3{fill:#56ae89;}</style></defs><path class="cls-2" d="M62.42,41.45c-.81-1.12-.68-2.69,.32-3.65,.7-.68,1.51-1.29,2.39-1.82s1.41-1.44,1.41-2.46v-3.29c0-9.01-8.74-9.86-13.43-10.31-6.46-.63-8.14-1.38-8.91-3.78-.14-.44-.37-.85-.7-1.17-2.87-2.74-6.71-1.39-7.79,1.47-.82,2.16-2.63,2.88-8.81,3.48-4.69,.46-13.43,1.3-13.43,10.31v3.3c0,1.01,.55,1.94,1.41,2.46s1.68,1.13,2.38,1.82c.99,.96,1.13,2.53,.32,3.65-.64,.89-1.5,1.59-2.48,2.03s-1.63,1.47-1.63,2.57v3.73c0,9.01,8.74,9.86,13.43,10.31,6.46,.63,8.14,1.38,8.91,3.78,.14,.44,.37,.85,.7,1.17,2.87,2.74,6.71,1.39,7.79-1.48,.82-2.16,2.63-2.88,8.81-3.48,4.69-.46,13.43-1.3,13.43-10.31v-3.72c0-1.1-.63-2.12-1.63-2.57s-1.84-1.14-2.49-2.03Z"/><path class="cls-1" d="M73.46,35.39c-3.4-.16-7.34,1.57-9.51,4.2h0s0,0,0,0h0c.88,2.18,3.18,3.41,5.48,2.9-.66-1.65-2.13-2.74-3.8-2.97,2.95-.35,6.01-1.93,7.83-4.13Z"/><g><path class="cls-3" d="M28.97,37.2c-.41,0-.81,.09-1.16,.25,.25,.23,.38,.61,.27,.99-.1,.36-.43,.65-.8,.69-.35,.04-.65-.08-.86-.31-.24,.53-.33,1.14-.19,1.79,.26,1.16,1.26,2.05,2.44,2.17,1.68,.17,3.09-1.15,3.09-2.79,0-1.55-1.25-2.8-2.8-2.8m1.26,4.91c-.37,0-.66-.29-.66-.66s.29-.66,.66-.66,.66,.3,.66,.66-.3,.66-.66,.66"/><path class="cls-3" d="M48.52,38.83c-.25,.54-.33,1.16-.18,1.82,.24,1.03,1.07,1.87,2.11,2.09,1.96,.42,3.68-1.23,3.39-3.17-.18-1.23-1.21-2.21-2.45-2.35-.53-.06-1.04,.03-1.48,.23,.25,.23,.38,.59,.28,.98-.09,.35-.38,.62-.73,.7s-.71-.05-.93-.29m3.14,2.62c0-.36,.3-.66,.66-.66s.67,.3,.67,.66-.3,.66-.67,.66-.66-.29-.66-.66"/><path class="cls-3" d="M51.43,32.89c-5.15,0-3.42,3.67-11.44,4.59-6.98-.8-6.57-3.69-9.75-4.42-4.24-.97-8.49,2.11-8.77,6.46s3.01,7.59,7.09,7.59c5.14,0,3.42-3.67,11.43-4.59,6.98,.8,6.57,3.68,9.75,4.42,4.24,.98,8.49-2.11,8.78-6.46s-3.01-7.59-7.09-7.59m-22.47,11.28c-2.34,0-4.24-1.93-4.17-4.29,.06-2.18,1.87-3.99,4.05-4.05,2.36-.07,4.29,1.83,4.29,4.17s-1.87,4.17-4.17,4.17m22.07,0c-2.34,0-4.24-1.94-4.17-4.3,.06-2.18,1.88-3.99,4.06-4.05,2.36-.06,4.28,1.83,4.28,4.17s-1.86,4.17-4.17,4.17"/></g><g><path class="cls-1" d="M61.94,34.51c-.97,0-1.75-.79-1.75-1.75v-2.53c0-2.82-1.73-3.41-7.69-3.99-4.29-.42-9.45-.92-12.49-4.66-3.04,3.74-8.2,4.24-12.49,4.66-5.96,.58-7.69,1.17-7.69,3.99v2.53c0,.97-.79,1.75-1.75,1.75s-1.75-.79-1.75-1.75v-2.53c0-6.43,6.02-7.01,10.86-7.48,5.76-.56,9.65-1.23,11.19-5.3,.26-.68,.91-1.13,1.64-1.13h0c.73,0,1.38,.45,1.64,1.13,1.54,4.07,5.43,4.74,11.19,5.3,4.84,.47,10.86,1.05,10.86,7.48v2.53c0,.97-.79,1.75-1.75,1.75Z"/><path class="cls-1" d="M40,63.69c-.73,0-1.38-.45-1.64-1.13-1.54-4.07-5.43-4.74-11.19-5.3-4.84-.47-10.86-1.05-10.86-7.48v-2.53c0-.97,.79-1.75,1.75-1.75s1.75,.79,1.75,1.75v2.53c0,2.82,1.73,3.41,7.69,3.99,4.29,.42,9.45,.92,12.49,4.66,3.04-3.74,8.2-4.24,12.49-4.66,5.96-.58,7.69-1.17,7.69-3.99v-2.53c0-.97,.79-1.75,1.75-1.75s1.75,.79,1.75,1.75v2.53c0,6.43-6.02,7.01-10.86,7.48-5.76,.56-9.65,1.23-11.19,5.3-.26,.68-.91,1.13-1.64,1.13Z"/></g></svg>