<?xml version="1.0" encoding="UTF-8"?>
<svg xmlns="http://www.w3.org/2000/svg" viewBox="0 0 750 400">
  <defs>
    <style>
      .c {
        fill: #fff;
      }

      .d {
        fill: #c7c4c1;
      }

      .e {
        fill: #f27a40;
      }

      .f {
        fill: #56524d;
      }

      .g {
        fill: #2e2b29;
      }

      .h {
        stroke-miterlimit: 10;
      }

      .h, .i {
        stroke: #868079;
      }

      .h, .i, .j {
        fill: none;
        stroke-width: .72px;
      }

      .k {
        fill: #8ec4ad;
      }

      .l {
        fill: #efeeed;
      }

      .j {
        stroke: #bfded1;
      }

      .m {
        fill: #403d3a;
      }

      .n {
        fill: #e03875;
      }

      .o {
        fill: #868079;
      }

      .p {
        fill: #1d1d1b;
      }
    </style>
  </defs>
  <g id="a" data-name="bg">
    <rect class="g" x="-3940.96" y="-46.41" width="4779.53" height="500"/>
  </g>
  <g id="b" data-name="Warstwa 1">
    <line class="h" x1="250.1" y1="214.38" x2="250.1" y2="296.08"/>
    <line class="h" x1="336.38" y1="300.66" x2="336.38" y2="218.96"/>
    <g>
      <path class="f" d="m194.3,13.07h189.81c.85,0,1.69.08,2.52.25s1.64.41,2.43.74,1.53.72,2.24,1.2c.71.47,1.36,1.01,1.96,1.61s1.14,1.25,1.61,1.96c.47.71.87,1.45,1.2,2.24s.57,1.59.74,2.43c.17.83.25,1.67.25,2.52v189.81c0,.85-.08,1.69-.25,2.52-.17.83-.41,1.64-.74,2.43-.33.79-.72,1.53-1.2,2.24s-1.01,1.36-1.61,1.96-1.25,1.14-1.96,1.61-1.45.87-2.24,1.2c-.79.33-1.59.57-2.43.74-.83.17-1.68.25-2.52.25h-189.81c-.85,0-1.69-.08-2.52-.25-.83-.17-1.64-.41-2.43-.74s-1.53-.72-2.24-1.2c-.71-.47-1.36-1.01-1.96-1.61-.6-.6-1.14-1.25-1.61-1.96-.47-.71-.87-1.45-1.2-2.24-.33-.79-.57-1.59-.74-2.43-.17-.83-.25-1.67-.25-2.52V26.01c0-.85.08-1.69.25-2.52.17-.83.41-1.64.74-2.43s.72-1.53,1.2-2.24c.47-.71,1.01-1.36,1.61-1.96.6-.6,1.25-1.14,1.96-1.61.71-.47,1.45-.87,2.24-1.2s1.59-.57,2.43-.74,1.68-.25,2.52-.25Z"/>
      <path class="i" d="m194.3,13.07h189.81c.85,0,1.69.08,2.52.25s1.64.41,2.43.74,1.53.72,2.24,1.2c.71.47,1.36,1.01,1.96,1.61s1.14,1.25,1.61,1.96c.47.71.87,1.45,1.2,2.24s.57,1.59.74,2.43c.17.83.25,1.67.25,2.52v189.81c0,.85-.08,1.69-.25,2.52-.17.83-.41,1.64-.74,2.43-.33.79-.72,1.53-1.2,2.24s-1.01,1.36-1.61,1.96-1.25,1.14-1.96,1.61-1.45.87-2.24,1.2c-.79.33-1.59.57-2.43.74-.83.17-1.68.25-2.52.25h-189.81c-.85,0-1.69-.08-2.52-.25-.83-.17-1.64-.41-2.43-.74s-1.53-.72-2.24-1.2c-.71-.47-1.36-1.01-1.96-1.61-.6-.6-1.14-1.25-1.61-1.96-.47-.71-.87-1.45-1.2-2.24-.33-.79-.57-1.59-.74-2.43-.17-.83-.25-1.67-.25-2.52V26.01c0-.85.08-1.69.25-2.52.17-.83.41-1.64.74-2.43s.72-1.53,1.2-2.24c.47-.71,1.01-1.36,1.61-1.96.6-.6,1.25-1.14,1.96-1.61.71-.47,1.45-.87,2.24-1.2s1.59-.57,2.43-.74,1.68-.25,2.52-.25Z"/>
      <path class="m" d="m208.1,120.91h162.2c.34,0,.68.03,1.01.1s.66.16.97.29c.31.13.61.29.89.48.28.19.54.4.78.64.24.24.45.5.64.78.19.28.35.58.48.89.13.31.23.64.29.97.07.33.1.67.1,1.01v75.92c0,.34-.03.68-.1,1.01-.07.33-.16.66-.29.97-.13.31-.29.61-.48.9-.19.28-.4.54-.64.78-.24.24-.5.45-.78.64-.28.19-.58.35-.89.48-.31.13-.64.23-.97.29s-.67.1-1.01.1h-162.2c-.34,0-.68-.03-1.01-.1s-.66-.16-.97-.29c-.31-.13-.61-.29-.89-.48-.28-.19-.54-.4-.78-.64-.24-.24-.45-.5-.64-.78-.19-.28-.35-.58-.48-.89-.13-.31-.23-.64-.29-.97-.07-.33-.1-.67-.1-1.01v-75.92c0-.34.03-.68.1-1.01.07-.33.16-.66.29-.97.13-.31.29-.61.48-.89s.4-.54.64-.78c.24-.24.5-.46.78-.64.28-.19.58-.35.89-.48.31-.13.64-.23.97-.29s.67-.1,1.01-.1Z"/>
      <path class="i" d="m208.1,120.91h162.2c.34,0,.68.03,1.01.1s.66.16.97.29c.31.13.61.29.89.48.28.19.54.4.78.64.24.24.45.5.64.78.19.28.35.58.48.89.13.31.23.64.29.97.07.33.1.67.1,1.01v75.92c0,.34-.03.68-.1,1.01-.07.33-.16.66-.29.97-.13.31-.29.61-.48.9-.19.28-.4.54-.64.78-.24.24-.5.45-.78.64-.28.19-.58.35-.89.48-.31.13-.64.23-.97.29s-.67.1-1.01.1h-162.2c-.34,0-.68-.03-1.01-.1s-.66-.16-.97-.29c-.31-.13-.61-.29-.89-.48-.28-.19-.54-.4-.78-.64-.24-.24-.45-.5-.64-.78-.19-.28-.35-.58-.48-.89-.13-.31-.23-.64-.29-.97-.07-.33-.1-.67-.1-1.01v-75.92c0-.34.03-.68.1-1.01.07-.33.16-.66.29-.97.13-.31.29-.61.48-.89s.4-.54.64-.78c.24-.24.5-.46.78-.64.28-.19.58-.35.89-.48.31-.13.64-.23.97-.29s.67-.1,1.01-.1Z"/>
      <path class="m" d="m217.74,164.05h142.93c.45,0,.87.09,1.28.26.41.17.77.41,1.09.73.31.31.56.68.73,1.09.17.41.26.84.26,1.28v23.84c0,.45-.09.87-.26,1.28-.17.41-.41.77-.73,1.09-.31.31-.68.56-1.09.73-.41.17-.84.26-1.28.26h-142.93c-.45,0-.87-.09-1.28-.26-.41-.17-.77-.41-1.09-.73-.31-.31-.56-.68-.73-1.09-.17-.41-.26-.84-.26-1.28v-23.84c0-.45.09-.87.26-1.28.17-.41.41-.77.73-1.09.31-.31.68-.56,1.09-.73.41-.17.84-.26,1.28-.26Z"/>
      <path class="i" d="m217.74,164.05h142.93c.45,0,.87.09,1.28.26.41.17.77.41,1.09.73.31.31.56.68.73,1.09.17.41.26.84.26,1.28v23.84c0,.45-.09.87-.26,1.28-.17.41-.41.77-.73,1.09-.31.31-.68.56-1.09.73-.41.17-.84.26-1.28.26h-142.93c-.45,0-.87-.09-1.28-.26-.41-.17-.77-.41-1.09-.73-.31-.31-.56-.68-.73-1.09-.17-.41-.26-.84-.26-1.28v-23.84c0-.45.09-.87.26-1.28.17-.41.41-.77.73-1.09.31-.31.68-.56,1.09-.73.41-.17.84-.26,1.28-.26Z"/>
      <g>
        <path class="d" d="m241.69,176.45v-6.18h4.46v.73h-3.65v1.89h3.42v.72h-3.42v2.1h3.79v.73h-4.61Z"/>
        <path class="d" d="m246.82,176.45l1.63-2.33-1.51-2.15h.95l.69,1.05c.13.2.23.37.31.5.12-.19.24-.35.34-.49l.75-1.06h.91l-1.55,2.11,1.66,2.37h-.93l-.92-1.39-.24-.37-1.18,1.76h-.92Z"/>
        <path class="d" d="m253.3,175.78l.11.67c-.21.04-.41.07-.57.07-.28,0-.49-.04-.64-.13-.15-.09-.26-.2-.32-.34-.06-.14-.09-.44-.09-.9v-2.57h-.56v-.59h.56v-1.11l.75-.46v1.56h.76v.59h-.76v2.62c0,.22.01.35.04.42.03.06.07.11.13.15.06.04.15.05.26.05.08,0,.2,0,.33-.03Z"/>
        <path class="d" d="m257.1,175.01l.78.1c-.12.46-.35.81-.69,1.07s-.76.38-1.28.38c-.66,0-1.17-.2-1.56-.61-.38-.4-.58-.97-.58-1.7s.19-1.34.58-1.75c.39-.42.89-.62,1.51-.62s1.09.2,1.47.61c.38.41.57.98.57,1.72,0,.04,0,.11,0,.2h-3.34c.03.49.17.87.42,1.13.25.26.56.39.94.39.28,0,.52-.07.71-.22.2-.15.35-.38.47-.7Zm-2.49-1.23h2.5c-.03-.38-.13-.66-.29-.85-.24-.29-.55-.44-.94-.44-.35,0-.64.12-.88.35-.24.23-.37.54-.39.93Z"/>
        <path class="d" d="m258.83,176.45v-4.47h.68v.68c.17-.32.33-.53.48-.63.15-.1.31-.15.49-.15.25,0,.51.08.78.24l-.26.7c-.19-.11-.37-.16-.56-.16-.17,0-.31.05-.45.15-.13.1-.23.24-.28.42-.08.27-.13.56-.13.88v2.34h-.76Z"/>
        <path class="d" d="m261.71,176.45v-4.47h.68v.64c.33-.49.8-.74,1.42-.74.27,0,.52.05.74.15.23.1.4.22.51.38s.19.34.24.56c.03.14.04.39.04.74v2.75h-.76v-2.72c0-.31-.03-.54-.09-.69-.06-.15-.16-.28-.31-.37-.15-.09-.33-.14-.53-.14-.32,0-.6.1-.84.31s-.35.59-.35,1.17v2.44h-.76Z"/>
        <path class="d" d="m269.43,175.9c-.28.24-.55.41-.81.51-.26.1-.54.15-.84.15-.49,0-.87-.12-1.13-.36s-.4-.55-.4-.92c0-.22.05-.42.15-.6.1-.18.23-.33.39-.44.16-.11.34-.19.54-.25.15-.04.37-.08.67-.11.61-.07,1.06-.16,1.35-.26,0-.1,0-.17,0-.2,0-.31-.07-.53-.21-.65-.19-.17-.48-.26-.86-.26-.36,0-.62.06-.79.19-.17.12-.3.35-.38.66l-.74-.1c.07-.32.18-.57.33-.77.15-.2.38-.35.67-.45s.63-.16,1.02-.16.69.04.93.13c.24.09.41.2.53.34.11.14.19.31.24.52.03.13.04.36.04.7v1.01c0,.71.02,1.15.05,1.34s.1.37.19.54h-.79c-.08-.16-.13-.34-.15-.55Zm-.06-1.69c-.27.11-.69.21-1.24.29-.31.04-.53.1-.66.15-.13.06-.23.14-.3.25-.07.11-.11.23-.11.36,0,.2.08.37.23.5s.38.2.67.2.55-.06.78-.19.39-.3.5-.52c.08-.17.12-.42.12-.76v-.28Z"/>
        <path class="d" d="m271.29,176.45v-6.18h.76v6.18h-.76Z"/>
        <path class="d" d="m275.04,176.45l2.37-6.18h.88l2.53,6.18h-.93l-.72-1.87h-2.58l-.68,1.87h-.87Zm1.78-2.54h2.09l-.64-1.71c-.2-.52-.34-.95-.44-1.28-.08.4-.19.79-.33,1.18l-.68,1.81Z"/>
        <path class="d" d="m284.31,176.45v-.66c-.35.51-.82.76-1.42.76-.26,0-.51-.05-.74-.15-.23-.1-.4-.23-.51-.38-.11-.15-.19-.34-.23-.56-.03-.15-.05-.38-.05-.71v-2.77h.76v2.48c0,.4.02.66.05.8.05.2.15.36.3.47.16.11.35.17.57.17s.44-.06.64-.17.34-.28.42-.48c.08-.2.12-.49.12-.87v-2.4h.76v4.47h-.68Z"/>
        <path class="d" d="m287.83,175.78l.11.67c-.21.04-.4.07-.57.07-.27,0-.49-.04-.64-.13-.15-.09-.26-.2-.32-.34s-.09-.44-.09-.9v-2.57h-.56v-.59h.56v-1.11l.75-.46v1.56h.76v.59h-.76v2.62c0,.22.01.35.04.42.03.06.07.11.13.15.06.04.15.05.26.05.08,0,.2,0,.33-.03Z"/>
        <path class="d" d="m288.57,176.45v-6.18h.76v2.22c.35-.41.8-.62,1.34-.62.33,0,.62.07.86.2.24.13.42.31.52.54s.16.56.16,1v2.83h-.76v-2.83c0-.38-.08-.66-.25-.83-.17-.17-.4-.26-.7-.26-.22,0-.44.06-.63.17-.2.12-.34.27-.42.47s-.13.47-.13.83v2.45h-.76Z"/>
        <path class="d" d="m292.97,176.45v-.62l2.85-3.27c-.32.02-.61.03-.86.03h-1.82v-.62h3.66v.5l-2.42,2.84-.47.52c.34-.03.66-.04.96-.04h2.07v.65h-3.96Z"/>
        <path class="d" d="m300.19,176.45v-6.18h4.47v.73h-3.65v1.89h3.42v.72h-3.42v2.1h3.79v.73h-4.61Z"/>
        <path class="d" d="m305.33,176.45l1.63-2.33-1.51-2.15h.95l.69,1.05c.13.2.23.37.31.5.12-.19.24-.35.34-.49l.75-1.06h.91l-1.55,2.11,1.66,2.37h-.93l-.92-1.39-.25-.37-1.17,1.76h-.92Z"/>
        <path class="d" d="m311.8,175.78l.11.67c-.21.04-.4.07-.57.07-.27,0-.49-.04-.64-.13-.15-.09-.26-.2-.32-.34s-.09-.44-.09-.9v-2.57h-.56v-.59h.56v-1.11l.75-.46v1.56h.76v.59h-.76v2.62c0,.22.01.35.04.42.03.06.07.11.13.15.06.04.15.05.26.05.08,0,.2,0,.33-.03Z"/>
        <path class="d" d="m315.61,175.01l.78.1c-.12.46-.35.81-.69,1.07-.33.25-.76.38-1.28.38-.65,0-1.17-.2-1.56-.61-.38-.4-.58-.97-.58-1.7s.19-1.34.58-1.75c.39-.42.89-.62,1.51-.62s1.09.2,1.47.61.57.98.57,1.72c0,.04,0,.11,0,.2h-3.34c.03.49.17.87.42,1.13.25.26.56.39.93.39.28,0,.52-.07.71-.22.2-.15.35-.38.47-.7Zm-2.49-1.23h2.5c-.03-.38-.13-.66-.29-.85-.24-.29-.55-.44-.94-.44-.35,0-.64.12-.88.35-.24.23-.37.54-.39.93Z"/>
        <path class="d" d="m317.34,176.45v-4.47h.68v.64c.33-.49.8-.74,1.42-.74.27,0,.52.05.74.15.23.1.4.22.51.38s.19.34.24.56c.03.14.04.39.04.74v2.75h-.76v-2.72c0-.31-.03-.54-.09-.69-.06-.15-.16-.28-.31-.37-.15-.09-.33-.14-.53-.14-.32,0-.6.1-.84.31s-.35.59-.35,1.17v2.44h-.76Z"/>
        <path class="d" d="m321.84,175.12l.75-.12c.04.3.16.53.35.69s.46.24.81.24.61-.07.77-.21c.17-.14.25-.31.25-.5,0-.17-.07-.31-.22-.4-.1-.07-.36-.15-.78-.26-.56-.14-.94-.26-1.16-.36s-.38-.25-.49-.43c-.11-.18-.17-.38-.17-.6,0-.2.05-.38.14-.55.09-.17.22-.31.37-.42.12-.09.28-.16.48-.22.2-.06.42-.09.66-.09.35,0,.66.05.92.15.26.1.46.24.59.41.13.17.21.4.26.69l-.74.1c-.03-.23-.13-.41-.29-.54-.16-.13-.39-.19-.68-.19-.35,0-.6.06-.75.17-.15.12-.22.25-.22.41,0,.1.03.19.09.26.06.08.16.15.29.2.08.03.3.09.67.19.54.14.91.26,1.12.35.21.09.38.22.5.4.12.17.18.39.18.65s-.07.49-.22.71c-.15.22-.36.4-.64.52-.28.12-.59.18-.94.18-.58,0-1.02-.12-1.33-.36-.3-.24-.5-.6-.58-1.07Z"/>
        <path class="d" d="m326.46,171.15v-.87h.76v.87h-.76Zm0,5.3v-4.47h.76v4.47h-.76Z"/>
        <path class="d" d="m328.09,174.22c0-.83.23-1.44.69-1.84.38-.33.85-.5,1.41-.5.62,0,1.12.2,1.51.6.39.4.58.96.58,1.67,0,.58-.09,1.03-.26,1.36s-.42.59-.75.77-.69.27-1.08.27c-.63,0-1.13-.2-1.52-.6-.39-.4-.58-.98-.58-1.74Zm.78,0c0,.57.12,1,.38,1.29s.56.43.94.43.69-.14.94-.43.38-.72.38-1.31c0-.55-.12-.97-.38-1.26-.25-.29-.56-.43-.94-.43s-.69.14-.94.43c-.25.28-.38.71-.38,1.28Z"/>
        <path class="d" d="m333.17,176.45v-4.47h.68v.64c.33-.49.8-.74,1.42-.74.27,0,.52.05.74.15.23.1.4.22.51.38s.19.34.24.56c.03.14.04.39.04.74v2.75h-.76v-2.72c0-.31-.03-.54-.09-.69-.06-.15-.16-.28-.31-.37-.15-.09-.33-.14-.53-.14-.32,0-.6.1-.84.31s-.35.59-.35,1.17v2.44h-.76Z"/>
        <path class="d" d="m228.47,183.8c0-1.03.28-1.83.83-2.41.55-.58,1.26-.87,2.13-.87.57,0,1.08.14,1.54.41.46.27.81.65,1.05,1.14.24.49.36,1.04.36,1.66s-.13,1.19-.38,1.68-.61.87-1.07,1.12c-.46.25-.96.38-1.5.38-.58,0-1.1-.14-1.56-.42-.46-.28-.8-.66-1.04-1.15-.24-.49-.35-1-.35-1.54Zm.84.01c0,.74.2,1.33.6,1.76.4.43.9.64,1.51.64s1.12-.22,1.52-.65c.4-.43.6-1.05.6-1.84,0-.5-.08-.94-.25-1.32s-.42-.67-.75-.87c-.33-.21-.69-.31-1.1-.31-.58,0-1.08.2-1.49.6s-.63,1.06-.63,1.99Z"/>
        <path class="d" d="m237,186.81v-5.45h-2.04v-.73h4.9v.73h-2.04v5.45h-.82Z"/>
        <path class="d" d="m243.67,185.37l.78.1c-.12.46-.35.81-.69,1.07-.33.25-.76.38-1.28.38-.65,0-1.17-.2-1.56-.61-.38-.4-.58-.97-.58-1.7s.19-1.34.58-1.75c.39-.42.89-.62,1.51-.62s1.09.2,1.47.61.57.98.57,1.72c0,.04,0,.11,0,.2h-3.34c.03.49.17.87.42,1.13.25.26.56.39.93.39.28,0,.52-.07.71-.22.2-.15.35-.38.47-.7Zm-2.49-1.23h2.5c-.03-.38-.13-.66-.29-.85-.24-.29-.55-.44-.94-.44-.35,0-.64.12-.88.35-.24.23-.37.54-.39.93Z"/>
        <path class="d" d="m245.39,186.81v-6.18h.76v6.18h-.76Z"/>
        <path class="d" d="m249.14,186.81l2.37-6.18h.88l2.53,6.18h-.93l-.72-1.87h-2.58l-.68,1.87h-.87Zm1.78-2.54h2.09l-.64-1.71c-.2-.52-.34-.95-.44-1.28-.08.4-.19.79-.33,1.18l-.68,1.81Z"/>
        <path class="d" d="m258.39,185.17l.75.1c-.08.51-.29.92-.63,1.21s-.75.44-1.24.44c-.61,0-1.1-.2-1.48-.6s-.56-.97-.56-1.72c0-.48.08-.91.24-1.27s.4-.63.73-.82c.33-.18.68-.27,1.07-.27.49,0,.88.12,1.19.37.31.25.51.59.59,1.05l-.74.11c-.07-.3-.19-.53-.37-.68-.18-.15-.39-.23-.65-.23-.38,0-.69.14-.93.41-.24.27-.36.71-.36,1.3s.12,1.04.35,1.31.53.41.9.41c.3,0,.55-.09.75-.27s.33-.46.38-.84Z"/>
        <path class="d" d="m262.71,185.17l.75.1c-.08.51-.29.92-.62,1.21-.34.29-.75.44-1.24.44-.61,0-1.1-.2-1.48-.6s-.56-.97-.56-1.72c0-.48.08-.91.24-1.27s.4-.63.73-.82c.33-.18.68-.27,1.07-.27.49,0,.88.12,1.19.37.31.25.51.59.59,1.05l-.74.11c-.07-.3-.19-.53-.37-.68-.18-.15-.39-.23-.65-.23-.38,0-.69.14-.93.41-.24.27-.36.71-.36,1.3s.12,1.04.35,1.31c.23.27.53.41.9.41.3,0,.55-.09.75-.27.2-.18.33-.46.38-.84Z"/>
        <path class="d" d="m267.16,185.37l.78.1c-.12.46-.35.81-.69,1.07s-.76.38-1.28.38c-.66,0-1.17-.2-1.56-.61-.38-.4-.58-.97-.58-1.7s.19-1.34.58-1.75c.39-.42.89-.62,1.51-.62s1.09.2,1.47.61c.38.41.57.98.57,1.72,0,.04,0,.11,0,.2h-3.34c.03.49.17.87.42,1.13.25.26.56.39.94.39.28,0,.52-.07.71-.22.2-.15.35-.38.47-.7Zm-2.49-1.23h2.5c-.03-.38-.13-.66-.29-.85-.24-.29-.55-.44-.94-.44-.35,0-.64.12-.88.35-.24.23-.37.54-.39.93Z"/>
        <path class="d" d="m268.6,185.47l.75-.12c.04.3.16.53.35.69s.46.24.81.24.61-.07.77-.21c.17-.14.25-.31.25-.5,0-.17-.07-.31-.22-.4-.1-.07-.36-.15-.78-.26-.56-.14-.94-.26-1.16-.36s-.38-.25-.49-.43c-.11-.18-.17-.38-.17-.6,0-.2.05-.38.14-.55.09-.17.22-.31.37-.42.12-.09.28-.16.48-.22.2-.06.42-.09.66-.09.35,0,.66.05.92.15.26.1.46.24.59.41.13.17.21.4.26.69l-.74.1c-.03-.23-.13-.41-.29-.54-.16-.13-.39-.19-.68-.19-.35,0-.6.06-.75.17-.15.12-.22.25-.22.41,0,.1.03.19.09.26.06.08.16.15.29.2.08.03.3.09.67.19.54.14.91.26,1.12.35.21.09.38.22.5.4.12.17.18.39.18.65s-.07.49-.22.71c-.15.22-.36.4-.64.52-.28.12-.59.18-.94.18-.58,0-1.02-.12-1.33-.36-.3-.24-.5-.6-.58-1.07Z"/>
        <path class="d" d="m272.91,185.47l.75-.12c.04.3.16.53.35.69s.46.24.81.24.61-.07.77-.21c.17-.14.25-.31.25-.5,0-.17-.07-.31-.22-.4-.1-.07-.36-.15-.78-.26-.56-.14-.94-.26-1.16-.36s-.38-.25-.49-.43c-.11-.18-.17-.38-.17-.6,0-.2.05-.38.14-.55.09-.17.22-.31.37-.42.12-.09.28-.16.48-.22.2-.06.42-.09.66-.09.35,0,.66.05.92.15.26.1.46.24.59.41.13.17.21.4.26.69l-.74.1c-.03-.23-.13-.41-.29-.54-.16-.13-.39-.19-.68-.19-.35,0-.6.06-.75.17-.15.12-.22.25-.22.41,0,.1.03.19.09.26.06.08.16.15.29.2.08.03.3.09.67.19.54.14.91.26,1.12.35.21.09.38.22.5.4.12.17.18.39.18.65s-.07.49-.22.71c-.15.22-.36.4-.64.52-.28.12-.59.18-.94.18-.58,0-1.02-.12-1.33-.36-.3-.24-.5-.6-.58-1.07Z"/>
        <path class="d" d="m279.99,186.81v-6.18h.82v5.45h3.04v.73h-3.86Z"/>
        <path class="d" d="m284.44,184.57c0-.83.23-1.44.69-1.84.38-.33.85-.5,1.41-.5.62,0,1.12.2,1.51.6.39.4.59.96.59,1.67,0,.58-.09,1.03-.26,1.36-.17.33-.42.59-.75.77s-.69.27-1.08.27c-.63,0-1.13-.2-1.52-.6-.39-.4-.58-.98-.58-1.74Zm.78,0c0,.57.12,1,.38,1.29s.56.43.94.43.69-.14.94-.43.38-.72.38-1.31c0-.55-.13-.97-.38-1.26-.25-.29-.56-.43-.94-.43s-.69.14-.94.43c-.25.28-.38.71-.38,1.28Z"/>
        <path class="d" d="m289.38,187.18l.74.11c.03.23.12.39.26.5.19.14.45.21.77.21.35,0,.62-.07.81-.21.19-.14.32-.34.39-.59.04-.15.06-.48.05-.97-.33.39-.74.59-1.24.59-.62,0-1.09-.22-1.43-.67-.34-.44-.51-.98-.51-1.6,0-.43.08-.82.23-1.18.15-.36.38-.64.67-.84.29-.2.64-.29,1.03-.29.53,0,.96.21,1.31.64v-.54h.7v3.87c0,.7-.07,1.19-.21,1.48-.14.29-.37.52-.67.69-.31.17-.69.25-1.13.25-.53,0-.96-.12-1.29-.36-.33-.24-.49-.6-.48-1.08Zm.63-2.69c0,.59.12,1.02.35,1.29.23.27.52.4.88.4s.64-.13.88-.4c.24-.27.35-.69.35-1.26s-.12-.96-.36-1.24c-.24-.28-.54-.42-.88-.42s-.62.14-.86.41c-.24.27-.35.68-.35,1.22Z"/>
        <path class="d" d="m294.18,187.18l.74.11c.03.23.12.39.26.5.19.14.45.21.77.21.35,0,.62-.07.81-.21.19-.14.32-.34.39-.59.04-.15.06-.48.05-.97-.33.39-.74.59-1.24.59-.62,0-1.09-.22-1.43-.67-.34-.44-.51-.98-.51-1.6,0-.43.08-.82.23-1.18.15-.36.38-.64.67-.84.29-.2.64-.29,1.03-.29.53,0,.96.21,1.31.64v-.54h.7v3.87c0,.7-.07,1.19-.21,1.48s-.37.52-.67.69c-.31.17-.69.25-1.14.25-.53,0-.96-.12-1.29-.36-.33-.24-.49-.6-.48-1.08Zm.63-2.69c0,.59.12,1.02.35,1.29s.53.4.88.4.64-.13.88-.4c.24-.27.35-.69.35-1.26s-.12-.96-.36-1.24-.54-.42-.88-.42-.62.14-.86.41c-.24.27-.35.68-.35,1.22Z"/>
        <path class="d" d="m299.12,181.5v-.87h.76v.87h-.76Zm0,5.3v-4.47h.76v4.47h-.76Z"/>
        <path class="d" d="m301.03,186.81v-4.47h.68v.64c.33-.49.8-.74,1.42-.74.27,0,.52.05.74.15.23.1.4.22.51.38s.19.34.24.56c.03.14.04.39.04.74v2.75h-.76v-2.72c0-.31-.03-.54-.09-.69-.06-.15-.16-.28-.31-.37-.15-.09-.33-.14-.53-.14-.32,0-.6.1-.84.31s-.35.59-.35,1.17v2.44h-.76Z"/>
        <path class="d" d="m305.69,187.18l.74.11c.03.23.12.39.26.5.19.14.45.21.77.21.35,0,.62-.07.81-.21.19-.14.32-.34.39-.59.04-.15.06-.48.05-.97-.33.39-.74.59-1.24.59-.62,0-1.09-.22-1.43-.67-.34-.44-.51-.98-.51-1.6,0-.43.08-.82.23-1.18.15-.36.38-.64.67-.84.29-.2.64-.29,1.03-.29.53,0,.96.21,1.31.64v-.54h.7v3.87c0,.7-.07,1.19-.21,1.48-.14.29-.37.52-.67.69-.31.17-.69.25-1.13.25-.53,0-.96-.12-1.29-.36-.33-.24-.49-.6-.48-1.08Zm.63-2.69c0,.59.12,1.02.35,1.29.23.27.52.4.88.4s.64-.13.88-.4c.24-.27.35-.69.35-1.26s-.12-.96-.36-1.24c-.24-.28-.54-.42-.88-.42s-.62.14-.86.41c-.24.27-.35.68-.35,1.22Z"/>
        <path class="d" d="m313.14,186.81v-6.18h4.46v.73h-3.65v1.89h3.42v.72h-3.42v2.1h3.79v.73h-4.61Z"/>
        <path class="d" d="m318.28,186.81l1.63-2.33-1.51-2.15h.95l.69,1.05c.13.2.23.37.31.5.12-.19.24-.35.34-.49l.75-1.06h.91l-1.55,2.11,1.66,2.37h-.93l-.92-1.39-.25-.37-1.17,1.76h-.92Z"/>
        <path class="d" d="m324.75,186.13l.11.67c-.21.04-.41.07-.57.07-.28,0-.49-.04-.64-.13-.15-.09-.26-.2-.32-.34-.06-.14-.09-.44-.09-.9v-2.57h-.56v-.59h.56v-1.11l.75-.46v1.56h.76v.59h-.76v2.62c0,.22.01.35.04.42.03.06.07.11.13.15.06.04.15.05.26.05.08,0,.2,0,.33-.03Z"/>
        <path class="d" d="m328.55,185.37l.78.1c-.12.46-.35.81-.69,1.07-.33.25-.76.38-1.28.38-.65,0-1.17-.2-1.56-.61-.38-.4-.58-.97-.58-1.7s.19-1.34.58-1.75c.39-.42.89-.62,1.51-.62s1.09.2,1.47.61.57.98.57,1.72c0,.04,0,.11,0,.2h-3.34c.03.49.17.87.42,1.13.25.26.56.39.93.39.28,0,.52-.07.71-.22.2-.15.35-.38.47-.7Zm-2.49-1.23h2.5c-.03-.38-.13-.66-.29-.85-.24-.29-.55-.44-.94-.44-.35,0-.64.12-.88.35-.24.23-.37.54-.39.93Z"/>
        <path class="d" d="m330.29,186.81v-4.47h.68v.64c.33-.49.8-.74,1.42-.74.27,0,.52.05.74.15.23.1.4.22.51.38s.19.34.24.56c.03.14.04.39.04.74v2.75h-.76v-2.72c0-.31-.03-.54-.09-.69-.06-.15-.16-.28-.31-.37-.15-.09-.33-.14-.53-.14-.32,0-.6.1-.84.31s-.35.59-.35,1.17v2.44h-.76Z"/>
        <path class="d" d="m334.78,185.47l.75-.12c.04.3.16.53.35.69s.46.24.81.24.61-.07.78-.21c.17-.14.25-.31.25-.5,0-.17-.07-.31-.22-.4-.1-.07-.36-.15-.78-.26-.56-.14-.94-.26-1.16-.36s-.38-.25-.49-.43c-.11-.18-.17-.38-.17-.6,0-.2.05-.38.14-.55.09-.17.21-.31.37-.42.12-.09.28-.16.48-.22.2-.06.42-.09.66-.09.35,0,.66.05.92.15.27.1.46.24.59.41.13.17.21.4.26.69l-.74.1c-.03-.23-.13-.41-.29-.54-.16-.13-.39-.19-.68-.19-.35,0-.6.06-.75.17-.15.12-.22.25-.22.41,0,.1.03.19.09.26.06.08.16.15.29.2.08.03.3.09.67.19.54.14.91.26,1.12.35.21.09.38.22.5.4.12.17.18.39.18.65s-.07.49-.22.71c-.15.22-.36.4-.64.52s-.59.18-.94.18c-.58,0-1.02-.12-1.33-.36-.3-.24-.5-.6-.58-1.07Z"/>
        <path class="d" d="m339.41,181.5v-.87h.76v.87h-.76Zm0,5.3v-4.47h.76v4.47h-.76Z"/>
        <path class="d" d="m341.04,184.57c0-.83.23-1.44.69-1.84.38-.33.85-.5,1.41-.5.62,0,1.12.2,1.51.6.39.4.58.96.58,1.67,0,.58-.09,1.03-.26,1.36s-.42.59-.75.77-.69.27-1.08.27c-.63,0-1.13-.2-1.52-.6-.39-.4-.58-.98-.58-1.74Zm.78,0c0,.57.12,1,.38,1.29s.56.43.94.43.69-.14.94-.43.38-.72.38-1.31c0-.55-.12-.97-.38-1.26-.25-.29-.56-.43-.94-.43s-.69.14-.94.43c-.25.28-.38.71-.38,1.28Z"/>
        <path class="d" d="m346.12,186.81v-4.47h.68v.64c.33-.49.8-.74,1.42-.74.27,0,.52.05.74.15.23.1.4.22.51.38s.19.34.24.56c.03.14.04.39.04.74v2.75h-.76v-2.72c0-.31-.03-.54-.09-.69-.06-.15-.16-.28-.31-.37-.15-.09-.33-.14-.53-.14-.32,0-.6.1-.84.31s-.35.59-.35,1.17v2.44h-.76Z"/>
      </g>
      <g>
        <path class="c" d="m275.62,152.62c0,.24.05.47.16.67s.25.37.42.52c.18.14.37.25.6.33s.47.12.71.12c.33,0,.63-.08.87-.23s.47-.36.68-.62l.81.62c-.59.77-1.43,1.15-2.5,1.15-.44,0-.85-.08-1.21-.23s-.67-.36-.91-.63c-.25-.26-.44-.58-.57-.93-.13-.36-.2-.75-.2-1.18s.08-.81.22-1.18.35-.67.6-.93.56-.47.92-.63c.35-.15.75-.23,1.17-.23.49,0,.92.09,1.26.26s.63.41.85.68c.22.29.38.59.48.96.1.35.15.71.15,1.08v.38h-4.54Zm3.39-.85c-.01-.24-.04-.45-.11-.65s-.16-.37-.31-.52c-.13-.14-.31-.26-.51-.34-.2-.09-.44-.12-.7-.12s-.51.05-.71.15c-.22.1-.41.23-.55.38-.15.15-.26.33-.35.53s-.12.38-.12.57h3.36Zm2.07-2.36h1.07v.87h.02c.13-.3.37-.55.7-.73.33-.19.71-.27,1.15-.27.27,0,.53.04.78.12.25.09.47.21.65.38.19.18.33.4.45.67.11.27.16.59.16.97v3.63h-1.07v-3.33c0-.26-.03-.48-.11-.67-.07-.19-.16-.34-.29-.45s-.25-.2-.41-.25-.32-.08-.48-.08c-.22,0-.43.03-.62.11s-.35.19-.49.34-.25.35-.33.59-.12.52-.12.85v2.9h-1.07v-5.65h-.01Zm6.57,0l1.68,4.32,1.62-4.32h1.14l-2.21,5.64h-1.18l-2.3-5.64h1.24Zm4.52,2.83c0-.41.08-.79.23-1.15.15-.35.36-.67.64-.93s.58-.48.96-.64c.36-.15.76-.23,1.18-.23s.81.08,1.18.23.68.36.96.64c.26.27.48.58.64.93s.23.74.23,1.15-.08.8-.23,1.15c-.15.36-.36.67-.64.93s-.58.47-.96.63c-.36.15-.76.23-1.18.23s-.81-.08-1.18-.23-.68-.36-.96-.63-.48-.58-.64-.93c-.15-.36-.23-.75-.23-1.15m1.13,0c0,.29.04.55.13.79s.21.45.37.62c.15.18.35.31.58.41s.48.15.77.15.54-.04.77-.15c.23-.1.43-.23.58-.41.15-.16.29-.37.37-.62s.13-.51.13-.79-.04-.55-.13-.79-.21-.45-.37-.62c-.15-.16-.35-.31-.58-.41s-.48-.15-.77-.15-.54.05-.77.15-.43.23-.58.41-.29.37-.37.62-.13.51-.13.79m4.94-2.83h1.23l1.67,4.4h.02l1.6-4.4h1.14l-2.67,6.85-.3.67c-.1.2-.22.37-.36.52s-.32.25-.52.33-.45.12-.74.12c-.15,0-.32-.01-.48-.03s-.32-.07-.47-.12l.13-.98c.21.09.43.13.64.13.16,0,.31-.02.42-.07s.21-.11.3-.19c.09-.09.15-.18.21-.29s.11-.24.16-.38l.35-.89-2.34-5.67Z"/>
        <path class="c" d="m284.58,140.36l-.03-1.5-1.57-.98.03,1.5,1.57.98Zm2.23,3.74l-.03-1.46-1.37-.86s-.04-.03-.05-.04l.03,1.47,1.43.89Zm-4.91,1.97l-3.59-2.23-.09-3.74,1.76-.76-.03-1.5-2.81,1.21c-.22.1-.35.3-.34.53l.11,4.49c0,.23.14.46.36.59l4.31,2.67c.2.12.44.15.65.1.02-.01.04-.01.07-.02l2.65-1.14-1.44-.89-1.59.69Z"/>
        <path class="c" d="m293.52,137.8c-.01-.26-.16-.54-.43-.69l-5.23-3.24-.16.07.03,1.57,4.14,2.57.1,4.2,1.58.98.09-.03-.12-5.42Zm-6.27,7.38l-4.87-3.01-.12-5.06,2.22-.96-.04-1.75-3.44,1.48c-.25.11-.41.34-.4.62l.14,5.94c0,.27.16.54.43.69l5.71,3.54c.23.14.52.19.76.11.02-.01.04-.02.07-.02l3.36-1.45-1.67-1.03-2.14.9Z"/>
        <path class="c" d="m300.94,133.64l-7.31-4.53c-.27-.16-.59-.21-.87-.12-.02.01-.05.02-.08.03l-7.13,3.08c-.29.12-.46.38-.45.7l.18,7.61c.01.31.2.62.49.79l7.31,4.53c.26.16.59.21.87.12.02-.01.05-.02.08-.03l7.13-3.08c.29-.12.46-.4.45-.7l-.18-7.61c-.01-.31-.2-.6-.49-.79m-7.43,10.39l-6.35-3.94-.15-6.61,6.2-2.67,6.35,3.94.15,6.61-6.2,2.67Z"/>
      </g>
    </g>
    <line class="h" x1="396.82" y1="66.99" x2="482.78" y2="66.99"/>
    <polygon class="o" points="486.56 66.99 481.53 69.51 482.78 66.99 481.53 64.47 486.56 66.99"/>
    <polygon class="h" points="486.56 66.99 481.53 69.51 482.78 66.99 481.53 64.47 486.56 66.99"/>
    <rect class="g" x="422.97" y="62.32" width="38.11" height="9.35"/>
    <g>
      <path class="d" d="m425.46,69.51v-1.36h-2.46v-.64l2.58-3.67h.57v3.67h.76v.64h-.76v1.36h-.7Zm0-1.99v-2.55l-1.77,2.55h1.77Z"/>
      <path class="d" d="m428.02,69.51v-.79h.79v.79h-.79Z"/>
      <path class="d" d="m432.31,69.51v-5.66h2.51c.5,0,.89.05,1.15.15s.47.28.63.54c.16.26.24.54.24.85,0,.4-.13.74-.39,1.02-.26.28-.66.45-1.21.52.2.1.35.19.45.28.22.2.43.45.62.75l.99,1.54h-.94l-.75-1.18c-.22-.34-.4-.6-.54-.78-.14-.18-.27-.31-.38-.38-.11-.07-.23-.12-.34-.15-.08-.02-.22-.03-.42-.03h-.87v2.51h-.75Zm.75-3.16h1.61c.34,0,.61-.04.8-.11.19-.07.34-.18.44-.34.1-.16.15-.33.15-.51,0-.27-.1-.49-.29-.66-.19-.17-.5-.26-.92-.26h-1.79v1.87Z"/>
      <path class="d" d="m440.73,68.19l.72.09c-.11.42-.32.75-.63.98-.31.23-.7.35-1.17.35-.6,0-1.08-.18-1.43-.55-.35-.37-.53-.89-.53-1.55s.18-1.23.53-1.61.82-.57,1.38-.57,1,.19,1.34.56.52.9.52,1.58c0,.04,0,.1,0,.19h-3.06c.03.45.15.8.38,1.04.23.24.51.36.86.36.25,0,.47-.07.65-.2.18-.13.32-.35.43-.64Zm-2.28-1.12h2.29c-.03-.34-.12-.6-.26-.78-.22-.27-.51-.4-.86-.4-.32,0-.59.11-.81.32-.22.21-.34.5-.36.86Z"/>
      <path class="d" d="m444.94,71.08v-2.01c-.11.15-.26.28-.45.38-.19.1-.4.15-.62.15-.49,0-.91-.19-1.26-.58-.35-.39-.53-.92-.53-1.6,0-.41.07-.78.21-1.11s.35-.58.62-.74c.27-.17.57-.25.89-.25.51,0,.91.21,1.2.64v-.55h.63v5.67h-.7Zm-2.14-3.63c0,.53.11.92.33,1.19.22.26.49.4.8.4s.55-.13.76-.38.32-.63.32-1.14c0-.55-.11-.96-.34-1.23s-.49-.41-.79-.41-.56.13-.77.38c-.21.26-.32.66-.32,1.2Z"/>
      <path class="d" d="m449.41,69.51v-.6c-.32.46-.75.7-1.3.7-.24,0-.47-.05-.68-.14-.21-.09-.37-.21-.47-.35-.1-.14-.17-.31-.21-.52-.03-.14-.04-.35-.04-.65v-2.54h.7v2.28c0,.36.01.61.04.73.04.18.14.33.28.43s.32.16.53.16.4-.05.59-.16.31-.25.39-.44c.08-.18.11-.45.11-.8v-2.2h.7v4.1h-.62Z"/>
      <path class="d" d="m453.93,68.19l.72.09c-.11.42-.32.75-.63.98-.31.23-.7.35-1.17.35-.6,0-1.08-.18-1.43-.55-.35-.37-.53-.89-.53-1.55s.18-1.23.53-1.61.82-.57,1.38-.57,1,.19,1.34.56.52.9.52,1.58c0,.04,0,.1,0,.19h-3.06c.03.45.15.8.38,1.04.23.24.51.36.86.36.25,0,.47-.07.65-.2.18-.13.32-.35.43-.64Zm-2.28-1.12h2.29c-.03-.34-.12-.6-.26-.78-.22-.27-.51-.4-.86-.4-.32,0-.59.11-.81.32-.22.21-.34.5-.36.86Z"/>
      <path class="d" d="m455.24,68.28l.69-.11c.04.28.15.49.32.63.18.15.42.22.74.22s.56-.07.71-.2.23-.28.23-.46c0-.16-.07-.28-.2-.37-.1-.06-.33-.14-.71-.24-.51-.13-.86-.24-1.06-.33-.2-.09-.35-.22-.45-.39s-.15-.35-.15-.55c0-.18.04-.35.12-.51.08-.16.2-.29.34-.39.11-.08.26-.15.44-.2.19-.06.39-.08.6-.08.32,0,.6.05.85.14s.42.22.54.38c.12.16.2.37.24.64l-.68.09c-.03-.21-.12-.38-.27-.49-.15-.12-.36-.18-.63-.18-.32,0-.55.05-.68.16-.14.11-.2.23-.2.37,0,.09.03.17.08.24.06.07.15.14.27.18.07.03.27.08.61.18.49.13.83.24,1.03.32.19.08.35.21.46.36.11.16.17.36.17.59s-.07.45-.2.66c-.13.2-.33.36-.58.47s-.54.17-.87.17c-.53,0-.94-.11-1.22-.33s-.46-.55-.54-.99Z"/>
      <path class="d" d="m460.99,68.88l.1.61c-.2.04-.37.06-.53.06-.25,0-.45-.04-.59-.12-.14-.08-.24-.18-.29-.32-.06-.13-.08-.4-.08-.82v-2.36h-.51v-.54h.51v-1.02l.69-.42v1.43h.7v.54h-.7v2.4c0,.2.01.33.04.38s.06.1.12.14c.06.03.13.05.24.05.08,0,.18,0,.3-.03Z"/>
    </g>
    <polygon class="o" points="250.1 299.85 247.59 294.82 250.1 296.08 252.62 294.82 250.1 299.85"/>
    <polygon class="h" points="250.1 299.85 247.59 294.82 250.1 296.08 252.62 294.82 250.1 299.85"/>
    <rect class="g" x="221.65" y="252.84" width="56.8" height="9.35"/>
    <g>
      <path class="d" d="m225.47,259.37v.67h-3.74c0-.17.02-.33.08-.48.09-.26.25-.51.46-.75.21-.25.51-.53.91-.86.62-.5,1.03-.9,1.25-1.2.22-.29.32-.57.32-.84s-.1-.51-.29-.7-.45-.28-.77-.28c-.33,0-.6.1-.8.3-.2.2-.3.48-.3.83l-.71-.07c.05-.53.23-.94.55-1.22s.75-.42,1.29-.42.97.15,1.29.45c.32.3.47.67.47,1.12,0,.23-.05.45-.14.67-.09.22-.25.45-.46.69s-.57.57-1.07,1c-.42.35-.69.59-.8.71-.12.12-.22.25-.29.38h2.78Z"/>
      <path class="d" d="m226.6,260.04v-.79h.79v.79h-.79Z"/>
    </g>
    <g>
      <path class="d" d="m230.93,260.04v-5.66h3.82v.67h-3.07v1.75h2.66v.67h-2.66v2.57h-.75Z"/>
      <path class="d" d="m235.61,260.04v-5.66h.7v5.66h-.7Z"/>
      <path class="d" d="m237.13,257.98c0-.76.21-1.32.63-1.69.35-.3.78-.46,1.29-.46.56,0,1.02.18,1.38.55.36.37.54.88.54,1.53,0,.53-.08.94-.24,1.25s-.39.54-.69.71c-.3.17-.63.25-.99.25-.57,0-1.04-.18-1.39-.55-.35-.37-.53-.9-.53-1.59Zm.71,0c0,.53.11.92.34,1.18.23.26.52.39.87.39s.63-.13.86-.39c.23-.26.34-.66.34-1.2,0-.51-.12-.89-.35-1.15s-.52-.39-.86-.39-.64.13-.87.39c-.23.26-.34.65-.34,1.18Z"/>
      <path class="d" d="m242.54,260.04l-1.25-4.1h.72l.65,2.37.24.88s.08-.33.21-.85l.65-2.4h.71l.61,2.38.21.78.24-.79.7-2.37h.68l-1.28,4.1h-.72l-.65-2.46-.16-.7-.83,3.16h-.73Z"/>
      <path class="d" d="m249.79,260.04v-5.66h2.51c.5,0,.89.05,1.15.15.26.1.47.28.63.54.16.26.24.54.24.85,0,.4-.13.74-.39,1.02s-.66.45-1.21.53c.2.1.35.19.45.28.22.2.43.45.62.75l.98,1.54h-.94l-.75-1.18c-.22-.34-.4-.6-.54-.78-.14-.18-.27-.31-.38-.38-.11-.07-.23-.12-.34-.15-.08-.02-.22-.03-.42-.03h-.87v2.51h-.75Zm.75-3.16h1.61c.34,0,.61-.04.8-.11.19-.07.34-.18.44-.34.1-.16.15-.32.15-.51,0-.27-.1-.49-.29-.66-.2-.17-.5-.26-.92-.26h-1.79v1.87Z"/>
      <path class="d" d="m258.21,258.71l.72.09c-.11.42-.32.75-.63.98-.31.23-.7.35-1.17.35-.6,0-1.08-.18-1.43-.55-.35-.37-.53-.89-.53-1.55s.18-1.23.53-1.61c.35-.38.82-.57,1.38-.57s1,.19,1.34.56.52.9.52,1.58c0,.04,0,.1,0,.19h-3.06c.03.45.15.79.38,1.04.23.24.52.36.86.36.25,0,.47-.07.65-.2.18-.13.32-.35.43-.64Zm-2.28-1.12h2.29c-.03-.34-.12-.6-.26-.78-.22-.27-.51-.4-.86-.4-.32,0-.59.11-.8.32-.22.21-.34.5-.36.86Z"/>
      <path class="d" d="m262.42,261.61v-2.01c-.11.15-.26.28-.45.38s-.4.15-.62.15c-.49,0-.91-.19-1.26-.58s-.53-.92-.53-1.6c0-.41.07-.78.21-1.11.14-.33.35-.58.62-.74.27-.17.57-.25.89-.25.51,0,.91.21,1.2.64v-.55h.63v5.67h-.69Zm-2.14-3.63c0,.53.11.92.33,1.19s.49.4.8.4.55-.13.76-.38c.21-.25.32-.63.32-1.14,0-.55-.11-.96-.34-1.23-.22-.28-.49-.41-.79-.41s-.56.13-.77.38-.31.66-.31,1.2Z"/>
      <path class="d" d="m266.89,260.04v-.6c-.32.46-.75.7-1.3.7-.24,0-.47-.05-.68-.14s-.37-.21-.47-.35-.17-.31-.21-.52c-.03-.14-.04-.35-.04-.65v-2.54h.7v2.28c0,.36.01.61.04.73.04.18.14.33.28.43.14.1.32.16.53.16s.4-.05.59-.16c.18-.11.31-.25.39-.44.08-.18.11-.45.11-.8v-2.2h.69v4.1h-.62Z"/>
      <path class="d" d="m271.41,258.71l.72.09c-.11.42-.32.75-.63.98-.31.23-.7.35-1.17.35-.6,0-1.08-.18-1.43-.55-.35-.37-.53-.89-.53-1.55s.18-1.23.53-1.61.82-.57,1.38-.57,1,.19,1.34.56.52.9.52,1.58c0,.04,0,.1,0,.19h-3.06c.03.45.15.79.38,1.04.23.24.51.36.86.36.25,0,.47-.07.65-.2.18-.13.32-.35.43-.64Zm-2.28-1.12h2.29c-.03-.34-.12-.6-.26-.78-.22-.27-.51-.4-.86-.4-.32,0-.59.11-.81.32-.22.21-.34.5-.36.86Z"/>
      <path class="d" d="m272.72,258.81l.69-.11c.04.28.15.49.32.63.18.15.42.22.74.22s.56-.07.71-.2c.15-.13.23-.28.23-.46,0-.16-.07-.28-.2-.37-.1-.06-.33-.14-.71-.24-.51-.13-.86-.24-1.06-.33-.2-.09-.35-.22-.45-.39s-.15-.35-.15-.55c0-.18.04-.35.12-.51.08-.16.2-.29.34-.39.11-.08.26-.15.44-.2s.39-.08.6-.08c.32,0,.6.04.85.14.24.09.42.22.54.38.12.16.2.37.24.64l-.68.09c-.03-.21-.12-.38-.27-.49-.15-.12-.36-.18-.63-.18-.32,0-.55.05-.68.16-.14.11-.2.23-.2.37,0,.09.03.17.08.24.06.07.15.13.27.18.07.03.27.09.61.18.49.13.83.24,1.03.32.19.08.35.21.46.36.11.16.17.36.17.6s-.07.45-.2.65c-.13.21-.33.36-.58.47-.25.11-.54.17-.87.17-.53,0-.94-.11-1.22-.33-.28-.22-.46-.55-.54-.98Z"/>
      <path class="d" d="m278.47,259.41l.1.62c-.2.04-.37.06-.53.06-.25,0-.45-.04-.59-.12s-.24-.18-.29-.31-.08-.4-.08-.82v-2.36h-.51v-.54h.51v-1.02l.69-.42v1.43h.7v.54h-.7v2.4c0,.2.01.32.04.38s.06.1.12.14c.06.03.13.05.24.05.08,0,.18,0,.3-.03Z"/>
    </g>
    <rect class="g" x="307.21" y="252.84" width="58.24" height="9.35"/>
    <g>
      <path class="d" d="m307.66,258.54l.7-.09c.08.39.22.68.41.85s.43.26.7.26c.33,0,.6-.11.83-.34s.34-.51.34-.84-.1-.58-.31-.79c-.21-.21-.47-.31-.8-.31-.13,0-.29.03-.49.08l.08-.61s.08,0,.11,0c.3,0,.56-.08.8-.23.24-.16.36-.39.36-.71,0-.26-.09-.47-.26-.63-.17-.17-.4-.25-.67-.25s-.5.08-.68.25c-.18.17-.3.43-.35.77l-.7-.12c.08-.47.28-.83.58-1.08.3-.26.68-.38,1.12-.38.31,0,.59.07.85.2s.46.31.6.54.21.47.21.73c0,.24-.07.47-.2.67-.13.2-.33.36-.58.48.33.08.59.24.78.48.18.24.28.55.28.91,0,.49-.18.91-.54,1.26s-.82.52-1.37.52c-.5,0-.91-.15-1.24-.44-.33-.3-.51-.68-.56-1.15Z"/>
      <path class="d" d="m312.44,260.04v-.79h.79v.79h-.79Z"/>
      <path class="d" d="m316.77,260.04v-5.66h3.82v.67h-3.07v1.75h2.66v.67h-2.66v2.57h-.75Z"/>
      <path class="d" d="m321.45,260.04v-5.66h.7v5.66h-.7Z"/>
      <path class="d" d="m322.97,257.98c0-.76.21-1.32.63-1.69.35-.3.78-.46,1.29-.46.56,0,1.02.18,1.38.55.36.37.54.88.54,1.53,0,.53-.08.94-.24,1.25s-.39.54-.69.71c-.3.17-.63.25-.99.25-.57,0-1.04-.18-1.39-.55-.35-.37-.53-.9-.53-1.59Zm.71,0c0,.53.12.92.34,1.18.23.26.52.39.87.39s.63-.13.86-.39c.23-.26.34-.66.34-1.2,0-.51-.12-.89-.35-1.15s-.52-.39-.86-.39-.64.13-.87.39c-.23.26-.34.65-.34,1.18Z"/>
      <path class="d" d="m328.38,260.04l-1.25-4.1h.72l.65,2.37.24.88s.08-.33.21-.85l.65-2.4h.71l.61,2.38.2.78.24-.79.7-2.37h.68l-1.28,4.1h-.72l-.65-2.46-.16-.7-.83,3.16h-.73Z"/>
      <path class="d" d="m335.62,260.04v-5.66h1.95c.44,0,.78.03,1.01.08.32.07.6.21.83.4.3.25.52.58.67.97s.22.84.22,1.35c0,.43-.05.81-.15,1.14s-.23.61-.39.82-.33.39-.52.51-.41.22-.68.28-.57.1-.91.1h-2.04Zm.75-.67h1.21c.37,0,.67-.04.88-.11.21-.07.38-.17.51-.29.18-.18.32-.42.42-.72.1-.3.15-.66.15-1.09,0-.59-.1-1.05-.29-1.37s-.43-.53-.71-.64c-.2-.08-.52-.12-.97-.12h-1.19v4.33Z"/>
      <path class="d" d="m344.05,258.71l.72.09c-.11.42-.32.75-.63.98-.31.23-.7.35-1.17.35-.6,0-1.08-.18-1.43-.55-.35-.37-.53-.89-.53-1.55s.18-1.23.53-1.61.82-.57,1.38-.57,1,.19,1.34.56.52.9.52,1.58c0,.04,0,.1,0,.19h-3.06c.03.45.15.79.38,1.04.23.24.51.36.86.36.25,0,.47-.07.65-.2.18-.13.32-.35.43-.64Zm-2.28-1.12h2.29c-.03-.34-.12-.6-.26-.78-.22-.27-.51-.4-.86-.4-.32,0-.59.11-.81.32-.22.21-.34.5-.36.86Z"/>
      <path class="d" d="m348.32,258.53l.68.09c-.07.47-.27.84-.57,1.11-.31.27-.69.4-1.13.4-.56,0-1.01-.18-1.35-.55-.34-.37-.51-.89-.51-1.58,0-.44.07-.83.22-1.16.15-.33.37-.58.67-.75s.63-.25.98-.25c.45,0,.81.11,1.09.34.28.22.46.54.54.96l-.68.1c-.06-.28-.18-.48-.34-.62-.16-.14-.36-.21-.59-.21-.35,0-.63.12-.85.38-.22.25-.33.65-.33,1.19s.11.95.32,1.2.49.38.83.38c.27,0,.5-.08.68-.25s.3-.42.35-.77Z"/>
      <path class="d" d="m349.6,255.17v-.8h.7v.8h-.7Zm0,4.86v-4.1h.7v4.1h-.7Z"/>
      <path class="d" d="m351.08,258.81l.69-.11c.04.28.15.49.32.63.18.15.42.22.74.22s.56-.07.71-.2c.15-.13.23-.28.23-.46,0-.16-.07-.28-.2-.37-.1-.06-.33-.14-.71-.24-.51-.13-.86-.24-1.06-.33-.2-.09-.35-.22-.45-.39s-.15-.35-.15-.55c0-.18.04-.35.12-.51.08-.16.2-.29.34-.39.11-.08.26-.15.44-.2s.39-.08.6-.08c.32,0,.6.04.85.14.24.09.42.22.54.38.12.16.2.37.24.64l-.68.09c-.03-.21-.12-.38-.27-.49-.15-.12-.36-.18-.63-.18-.32,0-.55.05-.68.16-.14.11-.2.23-.2.37,0,.09.03.17.08.24.06.07.15.13.27.18.07.03.27.09.61.18.49.13.83.24,1.03.32.19.08.35.21.46.36.11.16.17.36.17.6s-.07.45-.2.65c-.13.21-.33.36-.58.47-.25.11-.54.17-.87.17-.53,0-.94-.11-1.22-.33-.28-.22-.46-.55-.54-.98Z"/>
      <path class="d" d="m355.31,255.17v-.8h.7v.8h-.7Zm0,4.86v-4.1h.7v4.1h-.7Z"/>
      <path class="d" d="m356.81,257.98c0-.76.21-1.32.63-1.69.35-.3.78-.46,1.29-.46.56,0,1.02.18,1.38.55.36.37.54.88.54,1.53,0,.53-.08.94-.24,1.25s-.39.54-.69.71c-.3.17-.63.25-.99.25-.57,0-1.04-.18-1.39-.55-.35-.37-.53-.9-.53-1.59Zm.71,0c0,.53.12.92.34,1.18.23.26.52.39.87.39s.63-.13.86-.39c.23-.26.34-.66.34-1.2,0-.51-.12-.89-.35-1.15s-.52-.39-.86-.39-.64.13-.87.39c-.23.26-.34.65-.34,1.18Z"/>
      <path class="d" d="m361.46,260.04v-4.1h.62v.58c.3-.45.74-.68,1.31-.68.25,0,.47.04.68.13.21.09.36.21.46.35.1.14.18.31.22.51.03.13.04.35.04.68v2.52h-.69v-2.5c0-.28-.03-.49-.08-.63-.05-.14-.15-.25-.29-.34s-.3-.12-.48-.12c-.3,0-.55.09-.77.28-.21.19-.32.54-.32,1.07v2.24h-.7Z"/>
    </g>
    <path class="k" d="m212.14,300.66h162.2c.34,0,.68.03,1.01.1.33.07.66.16.97.29.31.13.61.29.9.48s.54.4.78.64c.24.24.45.5.64.78.19.28.35.58.48.9.13.31.23.64.29.97.07.33.1.67.1,1.01v75.92c0,.34-.03.68-.1,1.01-.07.33-.16.66-.29.97-.13.31-.29.61-.48.9-.19.28-.4.54-.64.78-.24.24-.5.46-.78.64s-.58.35-.9.48c-.31.13-.64.23-.97.29-.33.07-.67.1-1.01.1h-162.2c-.34,0-.68-.03-1.01-.1s-.66-.16-.97-.29c-.31-.13-.61-.29-.9-.48-.28-.19-.54-.4-.78-.64-.24-.24-.45-.5-.64-.78-.19-.28-.35-.58-.48-.9-.13-.31-.23-.64-.29-.97-.07-.33-.1-.67-.1-1.01v-75.92c0-.34.03-.68.1-1.01s.16-.66.29-.97c.13-.31.29-.61.48-.89.19-.28.4-.54.64-.78.24-.24.5-.46.78-.64s.58-.35.89-.48c.31-.13.64-.23.97-.29.33-.07.67-.1,1.01-.1Z"/>
    <path class="j" d="m212.14,300.66h162.2c.34,0,.68.03,1.01.1.33.07.66.16.97.29.31.13.61.29.9.48s.54.4.78.64c.24.24.45.5.64.78.19.28.35.58.48.9.13.31.23.64.29.97.07.33.1.67.1,1.01v75.92c0,.34-.03.68-.1,1.01-.07.33-.16.66-.29.97-.13.31-.29.61-.48.9-.19.28-.4.54-.64.78-.24.24-.5.46-.78.64s-.58.35-.9.48c-.31.13-.64.23-.97.29-.33.07-.67.1-1.01.1h-162.2c-.34,0-.68-.03-1.01-.1s-.66-.16-.97-.29c-.31-.13-.61-.29-.9-.48-.28-.19-.54-.4-.78-.64-.24-.24-.45-.5-.64-.78-.19-.28-.35-.58-.48-.9-.13-.31-.23-.64-.29-.97-.07-.33-.1-.67-.1-1.01v-75.92c0-.34.03-.68.1-1.01s.16-.66.29-.97c.13-.31.29-.61.48-.89.19-.28.4-.54.64-.78.24-.24.5-.46.78-.64s.58-.35.89-.48c.31-.13.64-.23.97-.29.33-.07.67-.1,1.01-.1Z"/>
    <g>
      <path class="p" d="m264.04,346.31l2.37-6.18h.88l2.53,6.18h-.93l-.72-1.87h-2.58l-.68,1.87h-.87Zm1.78-2.54h2.09l-.64-1.71c-.2-.52-.34-.95-.44-1.28-.08.4-.19.79-.33,1.18l-.68,1.81Z"/>
      <path class="p" d="m270.37,348.03v-6.19h.69v.58c.16-.23.35-.4.55-.51s.45-.17.75-.17c.38,0,.72.1,1.01.29.29.2.51.47.66.83.15.36.22.75.22,1.18,0,.46-.08.87-.25,1.24-.16.37-.4.65-.72.84s-.64.29-.99.29c-.25,0-.48-.05-.68-.16-.2-.11-.37-.24-.5-.4v2.18h-.76Zm.69-3.93c0,.58.12,1,.35,1.28.23.28.51.41.85.41s.62-.14.87-.43.36-.73.36-1.32-.12-1-.35-1.28-.51-.43-.84-.43-.61.15-.86.45c-.25.3-.37.74-.37,1.32Z"/>
      <path class="p" d="m278.24,344.87l.78.1c-.12.46-.35.81-.69,1.07-.33.25-.76.38-1.28.38-.65,0-1.17-.2-1.56-.61-.38-.4-.57-.97-.57-1.7s.19-1.34.58-1.75.89-.62,1.51-.62,1.09.2,1.47.61c.38.41.57.98.57,1.72,0,.04,0,.11,0,.2h-3.34c.03.49.17.87.42,1.13s.56.39.94.39c.28,0,.51-.07.71-.22.2-.15.35-.38.47-.7Zm-2.49-1.23h2.5c-.03-.38-.13-.66-.29-.85-.24-.29-.55-.44-.94-.44-.35,0-.64.12-.88.35s-.37.54-.39.94Z"/>
      <path class="p" d="m279.96,346.31v-4.47h.68v.68c.17-.32.33-.53.48-.63.15-.1.31-.15.49-.15.25,0,.51.08.78.24l-.26.7c-.18-.11-.37-.16-.56-.16-.17,0-.31.05-.45.15-.13.1-.23.24-.28.41-.08.27-.13.56-.13.88v2.34h-.76Z"/>
      <path class="p" d="m284.5,345.63l.11.67c-.21.04-.4.07-.57.07-.28,0-.49-.04-.64-.13-.15-.09-.26-.2-.32-.34-.06-.14-.09-.44-.09-.9v-2.57h-.56v-.59h.56v-1.11l.75-.46v1.56h.76v.59h-.76v2.62c0,.22.01.36.04.42.03.06.07.11.13.15.06.04.15.05.26.05.08,0,.2,0,.33-.03Z"/>
      <path class="p" d="m288.17,346.31v-.66c-.35.51-.82.76-1.42.76-.26,0-.51-.05-.74-.15-.23-.1-.4-.23-.51-.38-.11-.15-.19-.34-.23-.56-.03-.15-.05-.38-.05-.71v-2.77h.76v2.48c0,.4.01.66.05.8.05.2.15.36.3.47.15.12.34.17.57.17s.44-.06.64-.18c.2-.12.34-.28.42-.48.08-.2.12-.49.12-.87v-2.4h.76v4.47h-.68Z"/>
      <path class="p" d="m290.03,346.31v-4.47h.68v.68c.17-.32.33-.53.48-.63.15-.1.31-.15.49-.15.25,0,.51.08.78.24l-.26.7c-.18-.11-.37-.16-.56-.16-.17,0-.31.05-.45.15-.13.1-.23.24-.28.41-.08.27-.13.56-.13.88v2.34h-.76Z"/>
      <path class="p" d="m295.98,344.87l.78.1c-.12.46-.35.81-.69,1.07-.33.25-.76.38-1.28.38-.65,0-1.17-.2-1.56-.61-.38-.4-.57-.97-.57-1.7s.19-1.34.58-1.75.89-.62,1.51-.62,1.09.2,1.47.61c.38.41.57.98.57,1.72,0,.04,0,.11,0,.2h-3.34c.03.49.17.87.42,1.13s.56.39.94.39c.28,0,.51-.07.71-.22.2-.15.35-.38.47-.7Zm-2.49-1.23h2.5c-.03-.38-.13-.66-.29-.85-.24-.29-.55-.44-.94-.44-.35,0-.64.12-.88.35s-.37.54-.39.94Z"/>
    </g>
    <g>
      <path class="p" d="m299.05,346.31l2.37-6.18h.88l2.53,6.18h-.93l-.72-1.87h-2.58l-.68,1.87h-.87Zm1.78-2.54h2.09l-.64-1.71c-.2-.52-.34-.95-.44-1.28-.08.4-.19.79-.33,1.18l-.68,1.81Z"/>
      <path class="p" d="m305.25,346.68l.74.11c.03.23.12.39.26.5.19.14.45.21.77.21.35,0,.62-.07.81-.21s.32-.34.39-.59c.04-.15.06-.48.05-.97-.33.39-.74.59-1.24.59-.62,0-1.09-.22-1.43-.67-.34-.44-.5-.97-.5-1.6,0-.43.08-.82.23-1.18s.38-.64.67-.84c.29-.2.64-.29,1.03-.29.53,0,.96.21,1.31.64v-.54h.7v3.87c0,.7-.07,1.19-.21,1.48-.14.29-.37.52-.67.69-.31.17-.69.25-1.13.25-.53,0-.96-.12-1.29-.36-.33-.24-.49-.6-.48-1.08Zm.63-2.69c0,.59.12,1.02.35,1.29.23.27.53.4.88.4s.64-.13.88-.4c.24-.27.35-.69.35-1.26s-.12-.96-.36-1.24c-.24-.28-.54-.42-.88-.42s-.62.14-.86.41c-.24.27-.35.68-.35,1.22Z"/>
      <path class="p" d="m313.25,344.87l.78.1c-.12.46-.35.81-.69,1.07-.33.25-.76.38-1.28.38-.65,0-1.17-.2-1.56-.61-.38-.4-.57-.97-.57-1.7s.19-1.34.58-1.75.89-.62,1.51-.62,1.09.2,1.47.61c.38.41.57.98.57,1.72,0,.04,0,.11,0,.2h-3.34c.03.49.17.87.42,1.13s.56.39.94.39c.28,0,.51-.07.71-.22.2-.15.35-.38.47-.7Zm-2.49-1.23h2.5c-.03-.38-.13-.66-.29-.85-.24-.29-.55-.44-.94-.44-.35,0-.64.12-.88.35s-.37.54-.39.94Z"/>
      <path class="p" d="m314.98,346.31v-4.47h.68v.63c.33-.49.8-.74,1.42-.74.27,0,.52.05.74.14.23.1.39.22.51.38.11.16.19.35.24.56.03.14.04.39.04.74v2.75h-.76v-2.72c0-.31-.03-.54-.09-.69-.06-.15-.16-.28-.31-.37-.15-.09-.33-.14-.53-.14-.32,0-.6.1-.84.31s-.35.59-.35,1.17v2.44h-.76Z"/>
      <path class="p" d="m321.44,345.63l.11.67c-.21.04-.4.07-.57.07-.28,0-.49-.04-.64-.13-.15-.09-.26-.2-.32-.34-.06-.14-.09-.44-.09-.9v-2.57h-.56v-.59h.56v-1.11l.75-.46v1.56h.76v.59h-.76v2.62c0,.22.01.36.04.42.03.06.07.11.13.15.06.04.15.05.26.05.08,0,.2,0,.33-.03Z"/>
    </g>
    <polygon class="e" points="46.94 70.58 46.94 63.4 161.25 63.4 161.25 56.82 180.77 66.99 161.25 77.16 161.25 70.58 46.94 70.58"/>
    <g>
      <path class="d" d="m94.4,58.72h-.69v-4.43c-.17.16-.39.32-.66.48-.27.16-.51.28-.73.36v-.67c.39-.18.73-.4,1.02-.66.29-.26.5-.51.62-.76h.45v5.68Z"/>
      <path class="d" d="m96.57,58.72v-.79h.79v.79h-.79Z"/>
      <path class="d" d="m100.87,58.72v-5.66h2.51c.5,0,.89.05,1.15.15s.47.28.63.54c.16.26.23.54.23.85,0,.4-.13.74-.39,1.02-.26.28-.66.45-1.21.52.2.1.35.19.45.28.22.2.43.45.62.75l.98,1.54h-.94l-.75-1.18c-.22-.34-.4-.6-.54-.78-.14-.18-.27-.31-.38-.38-.11-.07-.23-.12-.34-.15-.08-.02-.22-.03-.42-.03h-.87v2.51h-.75Zm.75-3.16h1.61c.34,0,.61-.04.8-.11.19-.07.34-.18.44-.34.1-.16.15-.33.15-.51,0-.27-.1-.49-.29-.66-.19-.17-.5-.26-.92-.26h-1.79v1.87Z"/>
      <path class="d" d="m109.28,57.4l.72.09c-.11.42-.32.75-.63.98s-.7.35-1.17.35c-.6,0-1.08-.18-1.43-.55-.35-.37-.53-.89-.53-1.55s.18-1.23.53-1.61.82-.57,1.38-.57,1,.19,1.34.56.52.9.52,1.58c0,.04,0,.1,0,.19h-3.06c.03.45.15.8.38,1.04.23.24.51.36.86.36.25,0,.47-.07.65-.2.18-.13.32-.35.43-.64Zm-2.28-1.12h2.29c-.03-.34-.12-.6-.26-.78-.22-.27-.51-.4-.86-.4-.32,0-.59.11-.8.32-.22.21-.34.5-.36.86Z"/>
      <path class="d" d="m113.49,60.29v-2.01c-.11.15-.26.28-.45.38-.19.1-.4.15-.62.15-.49,0-.91-.19-1.26-.58s-.53-.92-.53-1.6c0-.41.07-.78.21-1.11s.35-.58.62-.74c.27-.17.57-.25.89-.25.51,0,.91.21,1.2.64v-.55h.62v5.67h-.69Zm-2.14-3.63c0,.53.11.92.33,1.19.22.26.49.4.8.4s.55-.13.76-.38c.21-.25.32-.63.32-1.14,0-.55-.11-.96-.34-1.23-.22-.28-.49-.41-.79-.41s-.56.13-.77.38c-.21.26-.31.66-.31,1.2Z"/>
      <path class="d" d="m117.96,58.72v-.6c-.32.46-.75.7-1.3.7-.24,0-.47-.05-.68-.14-.21-.09-.37-.21-.47-.35-.1-.14-.17-.31-.21-.52-.03-.14-.04-.35-.04-.65v-2.54h.7v2.28c0,.36.01.61.04.73.04.18.14.33.28.43s.32.16.53.16.4-.05.59-.16.31-.25.39-.44c.08-.18.11-.45.11-.8v-2.2h.69v4.1h-.62Z"/>
      <path class="d" d="m122.48,57.4l.72.09c-.11.42-.32.75-.63.98s-.7.35-1.17.35c-.6,0-1.08-.18-1.43-.55-.35-.37-.53-.89-.53-1.55s.18-1.23.53-1.61.82-.57,1.38-.57,1,.19,1.34.56.52.9.52,1.58c0,.04,0,.1,0,.19h-3.06c.03.45.15.8.38,1.04.23.24.51.36.86.36.25,0,.47-.07.65-.2.18-.13.32-.35.43-.64Zm-2.28-1.12h2.29c-.03-.34-.12-.6-.26-.78-.22-.27-.51-.4-.86-.4-.32,0-.59.11-.8.32-.22.21-.34.5-.36.86Z"/>
      <path class="d" d="m123.79,57.5l.69-.11c.04.28.15.49.32.63.18.15.42.22.74.22s.56-.07.71-.2.23-.28.23-.46c0-.16-.07-.28-.21-.37-.1-.06-.33-.14-.71-.24-.51-.13-.86-.24-1.06-.33-.2-.09-.35-.22-.45-.39s-.15-.35-.15-.55c0-.18.04-.35.12-.51.08-.16.2-.29.34-.39.11-.08.26-.15.44-.2.19-.06.39-.08.6-.08.32,0,.6.05.85.14s.42.22.54.38c.12.16.2.37.24.64l-.68.09c-.03-.21-.12-.38-.27-.49-.15-.12-.36-.18-.63-.18-.32,0-.55.05-.68.16-.14.11-.21.23-.21.37,0,.09.03.17.08.24.06.07.15.14.27.18.07.03.27.08.61.18.49.13.83.24,1.03.32.2.08.35.21.46.36.11.16.17.36.17.59s-.07.45-.2.66c-.14.2-.33.36-.59.47s-.54.17-.87.17c-.53,0-.94-.11-1.22-.33-.28-.22-.46-.55-.54-.99Z"/>
      <path class="d" d="m129.54,58.1l.1.61c-.2.04-.37.06-.53.06-.25,0-.45-.04-.59-.12-.14-.08-.24-.18-.29-.32-.06-.13-.08-.4-.08-.82v-2.36h-.51v-.54h.51v-1.02l.69-.42v1.43h.7v.54h-.7v2.4c0,.2.01.33.04.38s.06.1.12.14c.05.03.13.05.24.05.08,0,.18,0,.31-.03Z"/>
    </g>
    <polygon class="e" points="180.77 171.24 180.77 178.43 66.47 178.43 66.47 185 46.94 174.84 66.47 164.67 66.47 171.24 180.77 171.24"/>
    <g>
      <path class="d" d="m100.22,182.43l-.69.05c-.06-.27-.15-.47-.26-.59-.19-.2-.42-.3-.7-.3-.22,0-.42.06-.58.19-.22.16-.39.39-.52.7s-.19.74-.2,1.31c.17-.25.37-.44.61-.57.24-.12.5-.19.76-.19.46,0,.86.17,1.18.51.33.34.49.78.49,1.32,0,.36-.08.69-.23.99s-.36.54-.63.7-.57.24-.91.24c-.58,0-1.05-.21-1.42-.64-.37-.43-.55-1.13-.55-2.11,0-1.09.2-1.89.61-2.39.35-.43.83-.65,1.42-.65.45,0,.81.12,1.1.38.28.25.46.59.51,1.04Zm-2.84,2.44c0,.24.05.47.15.69.1.22.24.38.43.5.18.11.38.17.58.17.29,0,.54-.12.76-.36.21-.24.32-.56.32-.97s-.1-.7-.31-.92c-.21-.22-.47-.34-.79-.34s-.58.11-.8.34c-.22.23-.33.52-.33.89Z"/>
      <path class="d" d="m101.4,186.7v-.79h.79v.79h-.79Z"/>
      <path class="d" d="m105.7,186.7v-5.66h2.51c.5,0,.89.05,1.15.15.26.1.47.28.63.54.16.26.24.54.24.85,0,.4-.13.74-.39,1.02s-.66.45-1.21.52c.2.1.35.19.45.28.22.2.43.45.62.75l.98,1.54h-.94l-.75-1.18c-.22-.34-.4-.6-.54-.78-.14-.18-.27-.31-.38-.38-.11-.07-.23-.12-.34-.15-.08-.02-.22-.03-.42-.03h-.87v2.51h-.75Zm.75-3.16h1.61c.34,0,.61-.04.8-.11.19-.07.34-.18.44-.34.1-.16.15-.33.15-.51,0-.27-.1-.49-.29-.66-.2-.17-.5-.26-.92-.26h-1.79v1.87Z"/>
      <path class="d" d="m114.12,185.38l.72.09c-.11.42-.32.75-.63.98s-.7.35-1.17.35c-.6,0-1.08-.18-1.43-.55-.35-.37-.53-.89-.53-1.55s.18-1.23.53-1.61c.35-.38.82-.57,1.38-.57s1,.19,1.34.56.52.9.52,1.58c0,.04,0,.1,0,.19h-3.06c.03.45.15.8.38,1.04s.52.36.86.36c.25,0,.47-.07.65-.2s.32-.35.43-.64Zm-2.28-1.12h2.29c-.03-.34-.12-.6-.26-.78-.22-.27-.51-.4-.86-.4-.32,0-.59.11-.8.32-.22.21-.34.5-.36.86Z"/>
      <path class="d" d="m115.43,185.48l.69-.11c.04.28.15.49.32.63.18.15.42.22.74.22s.56-.07.71-.2.23-.28.23-.46c0-.16-.07-.28-.21-.37-.1-.06-.33-.14-.71-.24-.51-.13-.86-.24-1.06-.33-.2-.09-.35-.22-.45-.39s-.15-.35-.15-.55c0-.18.04-.35.13-.51.08-.16.2-.29.34-.39.11-.08.26-.15.44-.2.19-.06.39-.08.6-.08.32,0,.61.05.85.14.24.09.42.22.54.38.12.16.2.37.24.64l-.68.09c-.03-.21-.12-.38-.27-.49-.15-.12-.36-.18-.63-.18-.32,0-.55.05-.68.16s-.21.23-.21.37c0,.09.03.17.09.24.06.07.14.14.27.18.07.03.27.08.61.18.49.13.83.24,1.03.32.2.08.35.21.46.36.11.16.17.36.17.59s-.07.45-.2.66c-.13.2-.33.36-.59.47-.25.11-.54.17-.86.17-.53,0-.94-.11-1.22-.33-.28-.22-.46-.55-.54-.99Z"/>
      <path class="d" d="m119.66,188.27v-5.67h.63v.53c.15-.21.32-.37.51-.47.19-.1.42-.16.68-.16.35,0,.66.09.93.27.27.18.47.43.61.76s.21.69.21,1.08c0,.42-.08.8-.23,1.13s-.37.59-.66.77-.59.27-.91.27c-.23,0-.44-.05-.62-.15-.18-.1-.33-.22-.45-.37v2h-.7Zm.63-3.6c0,.53.11.92.32,1.17.21.25.47.38.78.38s.57-.13.79-.39c.22-.26.33-.67.33-1.21s-.11-.91-.32-1.17c-.21-.26-.47-.39-.77-.39s-.56.14-.79.42c-.23.28-.34.68-.34,1.21Z"/>
      <path class="d" d="m123.8,184.65c0-.76.21-1.32.63-1.69.35-.3.78-.46,1.29-.46.56,0,1.03.18,1.38.55s.54.88.54,1.53c0,.53-.08.94-.24,1.25s-.39.54-.69.71-.63.25-.99.25c-.57,0-1.04-.18-1.39-.55-.35-.37-.53-.9-.53-1.59Zm.71,0c0,.53.12.92.34,1.18.23.26.52.39.87.39s.63-.13.86-.39.34-.66.34-1.2c0-.51-.12-.89-.35-1.15-.23-.26-.52-.39-.86-.39s-.64.13-.87.39c-.23.26-.34.65-.34,1.18Z"/>
      <path class="d" d="m128.46,186.7v-4.1h.62v.58c.3-.45.74-.68,1.31-.68.25,0,.47.04.68.13.21.09.36.21.47.35.1.14.17.32.22.51.03.13.04.35.04.68v2.52h-.7v-2.5c0-.28-.03-.49-.08-.63-.05-.14-.15-.25-.29-.34s-.3-.13-.48-.13c-.3,0-.55.09-.77.28-.21.19-.32.54-.32,1.07v2.24h-.7Z"/>
      <path class="d" d="m132.58,185.48l.69-.11c.04.28.15.49.32.63.18.15.42.22.74.22s.56-.07.71-.2.23-.28.23-.46c0-.16-.07-.28-.21-.37-.1-.06-.33-.14-.71-.24-.51-.13-.86-.24-1.06-.33-.2-.09-.35-.22-.45-.39s-.15-.35-.15-.55c0-.18.04-.35.12-.51.08-.16.2-.29.34-.39.11-.08.26-.15.44-.2.19-.06.39-.08.6-.08.32,0,.6.05.85.14s.42.22.54.38c.12.16.2.37.24.64l-.68.09c-.03-.21-.12-.38-.27-.49-.15-.12-.36-.18-.63-.18-.32,0-.55.05-.68.16-.14.11-.21.23-.21.37,0,.09.03.17.08.24.06.07.15.14.27.18.07.03.27.08.61.18.49.13.83.24,1.03.32.2.08.35.21.46.36.11.16.17.36.17.59s-.07.45-.2.66c-.14.2-.33.36-.59.47s-.54.17-.87.17c-.53,0-.94-.11-1.22-.33-.28-.22-.46-.55-.54-.99Z"/>
      <path class="d" d="m139.62,185.38l.72.09c-.11.42-.32.75-.63.98-.31.23-.7.35-1.17.35-.6,0-1.08-.18-1.43-.55-.35-.37-.53-.89-.53-1.55s.18-1.23.53-1.61c.35-.38.82-.57,1.38-.57s1,.19,1.34.56.52.9.52,1.58c0,.04,0,.1,0,.19h-3.06c.03.45.15.8.38,1.04.23.24.52.36.86.36.26,0,.47-.07.65-.2.18-.13.32-.35.43-.64Zm-2.28-1.12h2.29c-.03-.34-.12-.6-.26-.78-.22-.27-.51-.4-.86-.4-.32,0-.59.11-.81.32-.22.21-.34.5-.36.86Z"/>
    </g>
    <line class="h" x1="487.36" y1="174.84" x2="401.4" y2="174.84"/>
    <polygon class="o" points="397.63 174.84 402.66 172.32 401.4 174.84 402.66 177.35 397.63 174.84"/>
    <polygon class="h" points="397.63 174.84 402.66 172.32 401.4 174.84 402.66 177.35 397.63 174.84"/>
    <rect class="g" x="420.09" y="170.16" width="43.86" height="9.35"/>
    <g>
      <path class="d" d="m420.15,175.87l.73-.06c.05.36.18.62.38.8s.43.27.71.27c.33,0,.62-.13.85-.38.23-.25.35-.59.35-1s-.11-.71-.33-.94-.51-.34-.87-.34c-.22,0-.43.05-.61.15-.18.1-.32.23-.42.4l-.65-.08.55-2.91h2.82v.66h-2.26l-.31,1.52c.34-.24.7-.36,1.07-.36.49,0,.91.17,1.25.51.34.34.51.78.51,1.32s-.15.96-.45,1.33c-.36.46-.86.69-1.49.69-.52,0-.94-.14-1.26-.43-.33-.29-.51-.67-.56-1.15Z"/>
      <path class="d" d="m424.94,177.35v-.79h.79v.79h-.79Z"/>
      <path class="d" d="m429.24,177.35v-5.66h2.51c.5,0,.89.05,1.15.15s.47.28.63.54c.16.26.24.54.24.85,0,.4-.13.74-.39,1.02-.26.28-.66.45-1.21.52.2.1.35.19.45.28.22.2.43.45.62.75l.99,1.54h-.94l-.75-1.18c-.22-.34-.4-.6-.54-.78-.14-.18-.27-.31-.38-.38-.11-.07-.23-.12-.34-.15-.08-.02-.22-.03-.42-.03h-.87v2.51h-.75Zm.75-3.16h1.61c.34,0,.61-.04.8-.11.19-.07.34-.18.44-.34.1-.16.15-.33.15-.51,0-.27-.1-.49-.29-.66-.19-.17-.5-.26-.92-.26h-1.79v1.87Z"/>
      <path class="d" d="m437.65,176.03l.72.09c-.11.42-.32.75-.63.98-.31.23-.7.35-1.17.35-.6,0-1.08-.18-1.43-.55-.35-.37-.53-.89-.53-1.55s.18-1.23.53-1.61.82-.57,1.38-.57,1,.19,1.34.56.52.9.52,1.58c0,.04,0,.1,0,.19h-3.06c.03.45.15.8.38,1.04.23.24.51.36.86.36.25,0,.47-.07.65-.2.18-.13.32-.35.43-.64Zm-2.28-1.12h2.29c-.03-.34-.12-.6-.26-.78-.22-.27-.51-.4-.86-.4-.32,0-.59.11-.81.32-.22.21-.34.5-.36.86Z"/>
      <path class="d" d="m438.97,176.13l.69-.11c.04.28.15.49.32.63.18.15.42.22.74.22s.56-.07.71-.2.23-.28.23-.46c0-.16-.07-.28-.2-.37-.1-.06-.33-.14-.71-.24-.51-.13-.86-.24-1.06-.33-.2-.09-.35-.22-.45-.39s-.15-.35-.15-.55c0-.18.04-.35.12-.51.08-.16.2-.29.34-.39.11-.08.26-.15.44-.2.19-.06.39-.08.6-.08.32,0,.6.05.85.14s.42.22.54.38c.12.16.2.37.24.64l-.68.09c-.03-.21-.12-.38-.27-.49-.15-.12-.36-.18-.63-.18-.32,0-.55.05-.68.16-.14.11-.2.23-.2.37,0,.09.03.17.08.24.06.07.15.14.27.18.07.03.27.08.61.18.49.13.83.24,1.03.32.19.08.35.21.46.36.11.16.17.36.17.59s-.07.45-.2.66c-.13.2-.33.36-.58.47s-.54.17-.87.17c-.53,0-.94-.11-1.22-.33s-.46-.55-.54-.99Z"/>
      <path class="d" d="m443.2,178.92v-5.67h.63v.53c.15-.21.32-.37.51-.47.19-.1.42-.16.68-.16.35,0,.66.09.93.27.27.18.47.43.61.76s.21.69.21,1.08c0,.42-.08.8-.23,1.13-.15.34-.37.59-.66.77s-.59.27-.91.27c-.23,0-.44-.05-.62-.15-.18-.1-.33-.22-.45-.37v2h-.7Zm.63-3.6c0,.53.11.92.32,1.17.21.25.47.38.78.38s.57-.13.79-.39c.22-.26.33-.67.33-1.21s-.11-.91-.32-1.17c-.21-.26-.47-.39-.77-.39s-.56.14-.79.42c-.23.28-.34.68-.34,1.21Z"/>
      <path class="d" d="m447.34,175.3c0-.76.21-1.32.63-1.69.35-.3.78-.46,1.29-.46.56,0,1.02.18,1.38.55.36.37.54.88.54,1.53,0,.53-.08.94-.24,1.25s-.39.54-.69.71c-.3.17-.63.25-.99.25-.57,0-1.04-.18-1.39-.55-.35-.37-.53-.9-.53-1.59Zm.71,0c0,.53.12.92.34,1.18.23.26.52.39.87.39s.63-.13.86-.39.34-.66.34-1.2c0-.51-.12-.89-.35-1.15-.23-.26-.52-.39-.86-.39s-.64.13-.87.39c-.23.26-.34.65-.34,1.18Z"/>
      <path class="d" d="m452,177.35v-4.1h.62v.58c.3-.45.74-.68,1.31-.68.25,0,.47.04.68.13s.36.21.46.35c.1.14.18.32.22.51.03.13.04.35.04.68v2.52h-.69v-2.5c0-.28-.03-.49-.08-.63-.05-.14-.15-.25-.29-.34s-.3-.13-.48-.13c-.3,0-.55.09-.77.28-.21.19-.32.54-.32,1.07v2.24h-.7Z"/>
      <path class="d" d="m456.12,176.13l.69-.11c.04.28.15.49.32.63.18.15.42.22.74.22s.56-.07.71-.2.23-.28.23-.46c0-.16-.07-.28-.2-.37-.1-.06-.33-.14-.71-.24-.51-.13-.86-.24-1.06-.33-.2-.09-.35-.22-.45-.39s-.15-.35-.15-.55c0-.18.04-.35.12-.51.08-.16.2-.29.34-.39.11-.08.26-.15.44-.2.19-.06.39-.08.6-.08.32,0,.6.05.85.14s.42.22.54.38c.12.16.2.37.24.64l-.68.09c-.03-.21-.12-.38-.27-.49-.15-.12-.36-.18-.63-.18-.32,0-.55.05-.68.16-.14.11-.2.23-.2.37,0,.09.03.17.08.24.06.07.15.14.27.18.07.03.27.08.61.18.49.13.83.24,1.03.32.19.08.35.21.46.36.11.16.17.36.17.59s-.07.45-.2.66c-.13.2-.33.36-.58.47s-.54.17-.87.17c-.53,0-.94-.11-1.22-.33s-.46-.55-.54-.99Z"/>
      <path class="d" d="m463.16,176.03l.72.09c-.11.42-.32.75-.63.98-.31.23-.7.35-1.17.35-.6,0-1.08-.18-1.43-.55-.35-.37-.53-.89-.53-1.55s.18-1.23.53-1.61.82-.57,1.38-.57,1,.19,1.34.56.52.9.52,1.58c0,.04,0,.1,0,.19h-3.06c.03.45.15.8.38,1.04.23.24.51.36.86.36.25,0,.47-.07.65-.2.18-.13.32-.35.43-.64Zm-2.28-1.12h2.29c-.03-.34-.12-.6-.26-.78-.22-.27-.51-.4-.86-.4-.32,0-.59.11-.81.32-.22.21-.34.5-.36.86Z"/>
    </g>
    <g>
      <path class="i" d="m500.31,13.07h189.81c.85,0,1.69.08,2.52.25.83.17,1.64.41,2.43.74s1.53.72,2.24,1.2c.71.47,1.36,1.01,1.96,1.61.6.6,1.14,1.25,1.61,1.96.47.71.87,1.45,1.2,2.24.33.79.57,1.59.74,2.43.17.83.25,1.68.25,2.52v189.81c0,.85-.08,1.69-.25,2.52-.17.83-.41,1.64-.74,2.43-.33.79-.72,1.53-1.2,2.24-.47.71-1.01,1.36-1.61,1.96-.6.6-1.25,1.14-1.96,1.61-.71.47-1.45.87-2.24,1.2-.79.33-1.59.57-2.43.74-.83.17-1.68.25-2.52.25h-189.81c-.85,0-1.69-.08-2.52-.25-.83-.17-1.64-.41-2.43-.74-.79-.33-1.53-.72-2.24-1.2-.71-.47-1.36-1.01-1.96-1.61-.6-.6-1.14-1.25-1.61-1.96s-.87-1.45-1.2-2.24c-.33-.79-.57-1.59-.74-2.43-.17-.83-.25-1.68-.25-2.52V26.01c0-.85.08-1.69.25-2.52.17-.83.41-1.64.74-2.43.33-.79.72-1.53,1.2-2.24.47-.71,1.01-1.36,1.61-1.96.6-.6,1.25-1.14,1.96-1.61.71-.47,1.45-.87,2.24-1.2.79-.33,1.59-.57,2.43-.74.83-.17,1.68-.25,2.53-.25Z"/>
      <path class="m" d="m526.19,70.58h106.41c.66,0,1.32.06,1.96.19.65.13,1.28.32,1.89.57.61.25,1.19.56,1.74.93.55.37,1.06.78,1.53,1.25.47.47.88.98,1.25,1.53.37.55.68,1.13.93,1.74.25.61.44,1.24.57,1.89.13.65.19,1.3.19,1.96v46.97c0,.66-.06,1.32-.19,1.96-.13.65-.32,1.28-.57,1.89-.25.61-.56,1.19-.93,1.74-.37.55-.78,1.06-1.25,1.53-.47.47-.98.88-1.53,1.25-.55.37-1.13.68-1.74.93-.61.25-1.24.44-1.89.57-.65.13-1.3.19-1.96.19h-106.41c-.66,0-1.32-.06-1.96-.19s-1.28-.32-1.89-.57c-.61-.25-1.19-.56-1.74-.93-.55-.37-1.06-.78-1.53-1.25-.47-.47-.88-.98-1.25-1.53-.37-.55-.68-1.13-.93-1.74-.25-.61-.44-1.24-.57-1.89-.13-.65-.19-1.3-.19-1.96v-46.97c0-.66.06-1.32.19-1.96s.32-1.28.57-1.89c.25-.61.56-1.19.93-1.74s.78-1.06,1.25-1.53c.47-.47.98-.88,1.53-1.25s1.13-.68,1.74-.93c.61-.25,1.24-.44,1.89-.57.65-.13,1.3-.19,1.96-.19Z"/>
      <path class="i" d="m526.19,70.58h106.41c.66,0,1.32.06,1.96.19.65.13,1.28.32,1.89.57.61.25,1.19.56,1.74.93.55.37,1.06.78,1.53,1.25.47.47.88.98,1.25,1.53.37.55.68,1.13.93,1.74.25.61.44,1.24.57,1.89.13.65.19,1.3.19,1.96v46.97c0,.66-.06,1.32-.19,1.96-.13.65-.32,1.28-.57,1.89-.25.61-.56,1.19-.93,1.74-.37.55-.78,1.06-1.25,1.53-.47.47-.98.88-1.53,1.25-.55.37-1.13.68-1.74.93-.61.25-1.24.44-1.89.57-.65.13-1.3.19-1.96.19h-106.41c-.66,0-1.32-.06-1.96-.19s-1.28-.32-1.89-.57c-.61-.25-1.19-.56-1.74-.93-.55-.37-1.06-.78-1.53-1.25-.47-.47-.88-.98-1.25-1.53-.37-.55-.68-1.13-.93-1.74-.25-.61-.44-1.24-.57-1.89-.13-.65-.19-1.3-.19-1.96v-46.97c0-.66.06-1.32.19-1.96s.32-1.28.57-1.89c.25-.61.56-1.19.93-1.74s.78-1.06,1.25-1.53c.47-.47.98-.88,1.53-1.25s1.13-.68,1.74-.93c.61-.25,1.24-.44,1.89-.57.65-.13,1.3-.19,1.96-.19Z"/>
      <path class="m" d="m536.74,81.77h106.41c.66,0,1.32.06,1.96.19.65.13,1.28.32,1.89.57.61.25,1.19.56,1.74.93.55.37,1.06.78,1.53,1.25.47.47.88.98,1.25,1.53.37.55.68,1.13.93,1.74.25.61.44,1.24.57,1.89.13.65.19,1.3.19,1.96v46.97c0,.66-.06,1.32-.19,1.96s-.32,1.28-.57,1.89c-.25.61-.56,1.19-.93,1.74-.37.55-.78,1.06-1.25,1.53-.47.47-.98.88-1.53,1.25-.55.37-1.13.68-1.74.93-.61.25-1.24.44-1.89.57-.65.13-1.3.19-1.96.19h-106.41c-.66,0-1.32-.06-1.96-.19-.65-.13-1.28-.32-1.89-.57-.61-.25-1.19-.56-1.74-.93-.55-.37-1.06-.78-1.53-1.25-.47-.47-.88-.98-1.25-1.53-.37-.55-.68-1.13-.93-1.74-.25-.61-.44-1.24-.57-1.89s-.19-1.3-.19-1.96v-46.97c0-.66.06-1.32.19-1.96.13-.65.32-1.28.57-1.89.25-.61.56-1.19.93-1.74.37-.55.78-1.06,1.25-1.53.47-.47.98-.88,1.53-1.25.55-.37,1.13-.68,1.74-.93.61-.25,1.24-.44,1.89-.57.65-.13,1.3-.19,1.96-.19Z"/>
      <path class="i" d="m536.74,81.77h106.41c.66,0,1.32.06,1.96.19.65.13,1.28.32,1.89.57.61.25,1.19.56,1.74.93.55.37,1.06.78,1.53,1.25.47.47.88.98,1.25,1.53.37.55.68,1.13.93,1.74.25.61.44,1.24.57,1.89.13.65.19,1.3.19,1.96v46.97c0,.66-.06,1.32-.19,1.96s-.32,1.28-.57,1.89c-.25.61-.56,1.19-.93,1.74-.37.55-.78,1.06-1.25,1.53-.47.47-.98.88-1.53,1.25-.55.37-1.13.68-1.74.93-.61.25-1.24.44-1.89.57-.65.13-1.3.19-1.96.19h-106.41c-.66,0-1.32-.06-1.96-.19-.65-.13-1.28-.32-1.89-.57-.61-.25-1.19-.56-1.74-.93-.55-.37-1.06-.78-1.53-1.25-.47-.47-.88-.98-1.25-1.53-.37-.55-.68-1.13-.93-1.74-.25-.61-.44-1.24-.57-1.89s-.19-1.3-.19-1.96v-46.97c0-.66.06-1.32.19-1.96.13-.65.32-1.28.57-1.89.25-.61.56-1.19.93-1.74.37-.55.78-1.06,1.25-1.53.47-.47.98-.88,1.53-1.25.55-.37,1.13-.68,1.74-.93.61-.25,1.24-.44,1.89-.57.65-.13,1.3-.19,1.96-.19Z"/>
      <path class="m" d="m547.28,92.95h106.41c.66,0,1.32.06,1.96.19.65.13,1.28.32,1.89.57.61.25,1.19.56,1.74.93.55.37,1.06.78,1.53,1.25.47.47.88.98,1.25,1.53.37.55.68,1.13.93,1.74.25.61.44,1.24.57,1.89.13.65.19,1.3.19,1.96v46.97c0,.66-.06,1.32-.19,1.96-.13.65-.32,1.28-.57,1.89-.25.61-.56,1.19-.93,1.74-.37.55-.78,1.06-1.25,1.53-.47.47-.98.88-1.53,1.25-.55.37-1.13.68-1.74.93-.61.25-1.24.44-1.89.57s-1.3.19-1.96.19h-106.41c-.66,0-1.32-.06-1.96-.19-.65-.13-1.28-.32-1.89-.57-.61-.25-1.19-.56-1.74-.93-.55-.37-1.06-.78-1.53-1.25-.47-.47-.88-.98-1.25-1.53-.37-.55-.68-1.13-.93-1.74-.25-.61-.44-1.24-.57-1.89-.13-.65-.19-1.3-.19-1.96v-46.97c0-.66.06-1.32.19-1.96.13-.65.32-1.28.57-1.89.25-.61.56-1.19.93-1.74.37-.55.78-1.06,1.25-1.53s.98-.88,1.53-1.25c.55-.37,1.13-.68,1.74-.93.61-.25,1.24-.44,1.89-.57.65-.13,1.3-.19,1.96-.19Z"/>
      <path class="i" d="m547.28,92.95h106.41c.66,0,1.32.06,1.96.19.65.13,1.28.32,1.89.57.61.25,1.19.56,1.74.93.55.37,1.06.78,1.53,1.25.47.47.88.98,1.25,1.53.37.55.68,1.13.93,1.74.25.61.44,1.24.57,1.89.13.65.19,1.3.19,1.96v46.97c0,.66-.06,1.32-.19,1.96-.13.65-.32,1.28-.57,1.89-.25.61-.56,1.19-.93,1.74-.37.55-.78,1.06-1.25,1.53-.47.47-.98.88-1.53,1.25-.55.37-1.13.68-1.74.93-.61.25-1.24.44-1.89.57s-1.3.19-1.96.19h-106.41c-.66,0-1.32-.06-1.96-.19-.65-.13-1.28-.32-1.89-.57-.61-.25-1.19-.56-1.74-.93-.55-.37-1.06-.78-1.53-1.25-.47-.47-.88-.98-1.25-1.53-.37-.55-.68-1.13-.93-1.74-.25-.61-.44-1.24-.57-1.89-.13-.65-.19-1.3-.19-1.96v-46.97c0-.66.06-1.32.19-1.96.13-.65.32-1.28.57-1.89.25-.61.56-1.19.93-1.74.37-.55.78-1.06,1.25-1.53s.98-.88,1.53-1.25c.55-.37,1.13-.68,1.74-.93.61-.25,1.24-.44,1.89-.57.65-.13,1.3-.19,1.96-.19Z"/>
      <path class="m" d="m557.82,104.14h106.41c.66,0,1.32.06,1.96.19.65.13,1.28.32,1.89.57.61.25,1.19.56,1.74.93.55.37,1.06.78,1.53,1.25.47.47.88.98,1.25,1.53.37.55.68,1.13.93,1.74.25.61.44,1.24.57,1.89.13.65.19,1.3.19,1.96v46.97c0,.66-.06,1.32-.19,1.96-.13.65-.32,1.28-.57,1.89s-.56,1.19-.93,1.74c-.37.55-.78,1.06-1.25,1.53-.47.47-.98.88-1.53,1.25-.55.37-1.13.68-1.74.93-.61.25-1.24.44-1.89.57-.65.13-1.3.19-1.96.19h-106.41c-.66,0-1.32-.06-1.96-.19-.65-.13-1.28-.32-1.89-.57-.61-.25-1.19-.56-1.74-.93-.55-.37-1.06-.78-1.53-1.25-.47-.47-.88-.98-1.25-1.53-.37-.55-.68-1.13-.93-1.74-.25-.61-.44-1.24-.57-1.89-.13-.65-.19-1.3-.19-1.96v-46.97c0-.66.06-1.32.19-1.96.13-.65.32-1.28.57-1.89.25-.61.56-1.19.93-1.74.37-.55.78-1.06,1.25-1.53s.98-.88,1.53-1.25,1.13-.68,1.74-.93c.61-.25,1.24-.44,1.89-.57.65-.13,1.3-.19,1.96-.19Z"/>
      <path class="i" d="m557.82,104.14h106.41c.66,0,1.32.06,1.96.19.65.13,1.28.32,1.89.57.61.25,1.19.56,1.74.93.55.37,1.06.78,1.53,1.25.47.47.88.98,1.25,1.53.37.55.68,1.13.93,1.74.25.61.44,1.24.57,1.89.13.65.19,1.3.19,1.96v46.97c0,.66-.06,1.32-.19,1.96-.13.65-.32,1.28-.57,1.89s-.56,1.19-.93,1.74c-.37.55-.78,1.06-1.25,1.53-.47.47-.98.88-1.53,1.25-.55.37-1.13.68-1.74.93-.61.25-1.24.44-1.89.57-.65.13-1.3.19-1.96.19h-106.41c-.66,0-1.32-.06-1.96-.19-.65-.13-1.28-.32-1.89-.57-.61-.25-1.19-.56-1.74-.93-.55-.37-1.06-.78-1.53-1.25-.47-.47-.88-.98-1.25-1.53-.37-.55-.68-1.13-.93-1.74-.25-.61-.44-1.24-.57-1.89-.13-.65-.19-1.3-.19-1.96v-46.97c0-.66.06-1.32.19-1.96.13-.65.32-1.28.57-1.89.25-.61.56-1.19.93-1.74.37-.55.78-1.06,1.25-1.53s.98-.88,1.53-1.25,1.13-.68,1.74-.93c.61-.25,1.24-.44,1.89-.57.65-.13,1.3-.19,1.96-.19Z"/>
      <g>
        <path class="d" d="m581.21,28.01l.77-.07c.04.31.12.56.25.76.13.2.34.36.62.48.28.12.6.18.95.18.31,0,.59-.05.83-.14.24-.09.42-.22.53-.38.12-.16.17-.34.17-.53s-.06-.36-.17-.51-.3-.27-.56-.36c-.17-.06-.53-.17-1.1-.3-.57-.14-.96-.26-1.19-.39-.29-.15-.51-.35-.66-.58-.15-.23-.22-.49-.22-.77,0-.31.09-.6.27-.87.18-.27.44-.48.78-.62s.72-.21,1.13-.21c.46,0,.86.07,1.21.22s.62.36.81.65c.19.29.29.61.3.97l-.78.06c-.04-.39-.18-.69-.43-.88s-.6-.3-1.08-.3-.85.09-1.08.27c-.23.18-.34.4-.34.66,0,.22.08.4.24.55.16.14.57.29,1.23.44.66.15,1.12.28,1.37.39.36.17.62.38.8.63.17.25.26.55.26.88s-.09.64-.28.93c-.19.29-.46.52-.81.68-.35.16-.75.24-1.19.24-.56,0-1.03-.08-1.41-.24-.38-.16-.67-.41-.89-.74s-.33-.7-.34-1.11Z"/>
        <path class="d" d="m590.21,28.55l.78.1c-.12.46-.35.81-.69,1.07-.33.25-.76.38-1.28.38-.65,0-1.17-.2-1.56-.61-.38-.4-.57-.97-.57-1.7s.19-1.34.58-1.75c.39-.42.89-.62,1.51-.62s1.09.2,1.47.61c.38.41.57.98.57,1.72,0,.04,0,.11,0,.2h-3.34c.03.49.17.87.42,1.13.25.26.56.39.94.39.28,0,.51-.07.71-.22.2-.15.35-.38.47-.7Zm-2.49-1.23h2.5c-.03-.38-.13-.66-.29-.85-.24-.29-.55-.44-.94-.44-.35,0-.64.12-.88.35-.24.23-.37.54-.39.93Z"/>
        <path class="d" d="m591.94,29.99v-4.47h.68v.68c.17-.32.33-.53.48-.63.15-.1.31-.15.49-.15.25,0,.51.08.78.24l-.26.7c-.18-.11-.37-.16-.56-.16-.17,0-.31.05-.45.15-.13.1-.23.24-.28.42-.08.27-.13.56-.13.88v2.34h-.76Z"/>
        <path class="d" d="m596.06,29.99l-1.7-4.47h.8l.96,2.68c.1.29.2.59.29.9.07-.24.16-.52.28-.85l.99-2.73h.78l-1.69,4.47h-.71Z"/>
        <path class="d" d="m599.14,24.69v-.87h.76v.87h-.76Zm0,5.3v-4.47h.76v4.47h-.76Z"/>
        <path class="d" d="m603.97,28.35l.75.1c-.08.51-.29.92-.62,1.21-.34.29-.75.44-1.24.44-.61,0-1.1-.2-1.48-.6s-.56-.97-.56-1.72c0-.48.08-.91.24-1.27s.4-.63.73-.82c.33-.18.68-.27,1.07-.27.49,0,.88.12,1.19.37.31.25.51.59.59,1.05l-.74.11c-.07-.3-.19-.53-.37-.68-.18-.15-.39-.23-.65-.23-.38,0-.69.14-.93.41-.24.27-.36.71-.36,1.3s.12,1.04.35,1.31.53.41.9.41c.3,0,.55-.09.75-.27.2-.18.33-.46.38-.84Z"/>
        <path class="d" d="m608.43,28.55l.78.1c-.12.46-.35.81-.69,1.07-.33.25-.76.38-1.28.38-.65,0-1.17-.2-1.56-.61-.38-.4-.57-.97-.57-1.7s.19-1.34.58-1.75c.39-.42.89-.62,1.51-.62s1.09.2,1.47.61c.38.41.57.98.57,1.72,0,.04,0,.11,0,.2h-3.34c.03.49.17.87.42,1.13.25.26.56.39.94.39.28,0,.51-.07.71-.22.2-.15.35-.38.47-.7Zm-2.49-1.23h2.5c-.03-.38-.13-.66-.29-.85-.24-.29-.55-.44-.94-.44-.35,0-.64.12-.88.35-.24.23-.37.54-.39.93Z"/>
      </g>
    </g>
    <g>
      <path class="n" d="m250.47,81.81c-4.55,0-8.82-2.25-11.38-6-2.56-3.77-3.12-8.54-1.46-12.79,1.66-4.24,5.3-7.39,9.74-8.42,4.43-1.03,9.1.21,12.45,3.29l-3.26,3.42c-2.67-2.39-6.48-3-9.74-1.55-3.28,1.45-5.39,4.71-5.39,8.28s2.11,6.82,5.39,8.28c3.28,1.46,7.09.85,9.74-1.55l3.26,3.4c-2.56,2.34-5.89,3.64-9.34,3.64h0Zm11.09-6.9c-1.5,0-1.5-2.25,0-2.25,1.52-.02,1.52,2.25,0,2.25h0Zm-11.17-3.9c-3.97,0-3.97-5.98,0-5.98s3.97,5.98,0,5.98h0Zm12.48.05c-1.01,0-1.5-1.22-.8-1.93.71-.71,1.92-.21,1.92.8,0,.63-.51,1.12-1.12,1.13h0Zm-3.36-.14c-1.5,0-1.5-2.25,0-2.25s1.5,2.25,0,2.25h0Zm3.36-3.66c-1.01,0-1.5-1.22-.8-1.93.71-.71,1.92-.21,1.92.8,0,.63-.51,1.12-1.12,1.13h0Zm-3.36.12c-1.5,0-1.5-2.25,0-2.25,1.5,0,1.5,2.25,0,2.25h0Zm2.13-3.92c-1.5,0-1.5-2.27,0-2.27s1.5,2.27,0,2.27h0Z"/>
      <path class="l" d="m274.65,64.09c0-3.21,1.87-5.07,6.22-5.07,1.6,0,3.21.19,4.78.58l-.37,2.86c-1.41-.26-2.84-.4-4.29-.44-2.28,0-3.03.78-3.03,2.65v6.71c0,1.87.73,2.65,3.03,2.65,1.45-.02,2.88-.17,4.29-.44l.37,2.86c-1.57.38-3.17.58-4.78.58-4.34,0-6.22-1.87-6.22-5.07v-7.86Zm18.06,12.93c-4.39,0-5.56-2.42-5.56-5.02v-3.24c0-2.6,1.19-5.04,5.58-5.04s5.56,2.42,5.56,5.04v3.24c-.02,2.61-1.19,5.02-5.58,5.02h0Zm0-10.58c-1.71,0-2.37.77-2.37,2.21v3.43c0,1.45.66,2.21,2.37,2.21s2.35-.77,2.35-2.21v-3.43c.02-1.43-.64-2.21-2.35-2.21h0Zm15.32,10.34v-8.94c0-.68-.3-1.03-1.03-1.03s-2.18.47-3.35,1.08v8.89h-3.21v-12.79h2.44l.31,1.08c1.6-.8,3.35-1.26,5.12-1.34,2.13,0,2.89,1.5,2.89,3.78v9.27h-3.19Zm9.78.24c-1.5-.02-2.98-.28-4.41-.73l.44-2.44c1.24.35,2.51.54,3.8.56,1.41,0,1.62-.31,1.62-1.31,0-.78-.16-1.19-2.23-1.67-3.12-.77-3.5-1.55-3.5-4.03s1.13-3.7,4.78-3.7c1.29,0,2.58.14,3.83.44l-.28,2.58c-1.17-.21-2.34-.33-3.52-.37-1.39,0-1.62.31-1.62,1.1,0,1.03.09,1.1,1.81,1.55,3.57.94,3.9,1.41,3.9,4.04.02,2.46-.75,3.97-4.62,3.97h0Zm9.94-13.04v8.92c0,.68.28,1.03,1.03,1.03s2.18-.47,3.33-1.08v-8.87h3.21v12.79h-2.44l-.31-1.08c-1.6.8-3.35,1.26-5.12,1.34-2.13,0-2.89-1.5-2.89-3.78v-9.27h3.21Zm10.32,12.79v-18.02l3.21-.44v18.46h-3.21Zm-59.84-21.82v-2.46h-2.25v2.46h-1.15v-5.89h1.15v2.48h2.25v-2.48h1.15v5.89h-1.15Zm5.35,0h-.91l-.09-.28c-.38.24-.84.38-1.31.38-.8,0-1.15-.54-1.15-1.27,0-.87.38-1.2,1.31-1.2h1.06v-.44c0-.47-.14-.63-.87-.63-.42,0-.82.05-1.22.12l-.14-.82c.49-.14,1.01-.21,1.52-.21,1.39,0,1.8.47,1.8,1.53v2.81Zm-1.12-1.62h-.82c-.37,0-.45.09-.45.44s.1.44.44.44c.3,0,.58-.07.84-.21v-.66Zm3.43,1.74c-.52-.02-1.03-.09-1.53-.24l.16-.82c.42.12.85.17,1.31.17.49,0,.56-.1.56-.44s-.05-.4-.77-.56c-1.08-.24-1.2-.52-1.2-1.34s.38-1.24,1.66-1.24c.45,0,.89.05,1.32.14l-.1.87c-.4-.07-.82-.1-1.22-.12-.49,0-.56.1-.56.37,0,.35.03.37.63.52,1.24.31,1.36.47,1.36,1.34-.02.89-.26,1.34-1.6,1.34h0Zm5.09-.09v-3c0-.23-.1-.33-.35-.33-.4.03-.8.16-1.15.35v2.95h-1.12v-5.96l1.12.16v1.9c.51-.24,1.06-.38,1.62-.42.73,0,.99.51.99,1.26v3.09l-1.12.02Zm2.04-4.86v-1.05h1.12v1.05h-1.12Zm0,4.86v-4.25h1.12v4.25h-1.12Zm1.99-4.22c0-1.06.64-1.69,2.18-1.69.56,0,1.1.07,1.64.19l-.12.96c-.49-.09-.99-.14-1.48-.16-.78,0-1.05.26-1.05.87v2.23c0,.63.26.87,1.05.87.51-.02.99-.05,1.48-.14l.12.94c-.54.12-1.1.19-1.64.19-1.52,0-2.18-.63-2.18-1.69v-2.58Zm6.26,4.31c-1.52,0-1.93-.8-1.93-1.67v-1.1c0-.87.4-1.67,1.93-1.67s1.93.8,1.93,1.67v1.06c0,.87-.44,1.71-1.93,1.71h0Zm0-3.52c-.59,0-.82.24-.82.73v1.13c0,.49.23.73.82.73s.82-.26.82-.73v-1.15c0-.49-.23-.73-.82-.73v.02Zm5.06.07c-.4.17-.8.38-1.17.63v2.74h-1.12v-4.25h.94l.07.47c.37-.24.75-.42,1.17-.56l.1.98Zm4.44,1.95c0,.94-.44,1.5-1.46,1.5-.4,0-.8-.05-1.19-.12v1.74l-1.12.16v-6.15h.87l.1.37c.42-.28.91-.44,1.39-.44.89,0,1.36.51,1.36,1.48l.03,1.46Zm-2.65.47c.33.07.64.1.99.12.4,0,.56-.19.56-.58v-1.52c0-.35-.14-.54-.54-.54-.37.02-.71.14-.99.38v2.13h-.02Z"/>
    </g>
  </g>
</svg>