<svg xmlns="http://www.w3.org/2000/svg" id="b" data-name="Warstwa 1" viewBox="0 0 750 400"><defs><style>.c{fill:#fff}.d{fill:#2d333e}.e{fill:#f27a40}.f{fill:#e0e0e0}.g,.h{stroke:#e0e0e0}.g,.h,.i{fill:none;stroke-width:.72px}.j{fill:#4a0d66}.h{stroke-miterlimit:10}.k{fill:#8ec4ad}.i{stroke:#bfded1}.l{fill:#d163ce}.m{fill:#e13eaf}.n{fill:#e03875}.o{fill:#b31aab}</style></defs><g><path d="m500.51,12.92h189.81c.85,0,1.69.08,2.52.25.83.17,1.64.41,2.43.74s1.53.72,2.24,1.2c.71.47,1.36,1.01,1.96,1.61.6.6,1.14,1.25,1.61,1.96.47.71.87,1.45,1.2,2.24s.57,1.59.74,2.43c.17.83.25,1.68.25,2.52v189.81c0,.85-.08,1.69-.25,2.52-.17.83-.41,1.64-.74,2.43-.33.79-.72,1.53-1.2,2.24-.47.71-1.01,1.36-1.61,1.96s-1.25,1.14-1.96,1.61c-.71.47-1.45.87-2.24,1.2s-1.59.57-2.43.74c-.83.17-1.68.25-2.52.25h-189.81c-.85,0-1.69-.08-2.52-.25-.83-.17-1.64-.41-2.43-.74-.79-.33-1.53-.72-2.24-1.2-.71-.47-1.36-1.01-1.96-1.61s-1.14-1.25-1.61-1.96c-.47-.71-.87-1.45-1.2-2.24-.33-.79-.57-1.59-.74-2.43-.17-.83-.25-1.68-.25-2.52V25.86c0-.85.08-1.69.25-2.52.17-.83.41-1.64.74-2.43.33-.79.72-1.53,1.2-2.24.47-.71,1.01-1.36,1.61-1.96.6-.6,1.25-1.14,1.96-1.61.71-.47,1.45-.87,2.24-1.2.79-.33,1.59-.57,2.43-.74.83-.17,1.68-.25,2.52-.25Z" class="g"/><path d="m526.39,70.44h106.41c.66,0,1.32.06,1.96.19.65.13,1.28.32,1.89.57.61.25,1.19.56,1.74.93s1.06.78,1.53,1.25c.47.47.88.98,1.25,1.53.37.55.68,1.13.93,1.74.25.61.44,1.24.57,1.89.13.65.19,1.3.19,1.96v46.97c0,.66-.06,1.32-.19,1.96-.13.65-.32,1.28-.57,1.89-.25.61-.56,1.19-.93,1.74-.37.55-.78,1.06-1.25,1.53-.47.47-.98.88-1.53,1.25s-1.13.68-1.74.93c-.61.25-1.24.44-1.89.57-.65.13-1.3.19-1.96.19h-106.41c-.66,0-1.32-.06-1.96-.19-.65-.13-1.28-.32-1.89-.57s-1.19-.56-1.74-.93c-.55-.37-1.06-.78-1.53-1.25-.47-.47-.88-.98-1.25-1.53-.37-.55-.68-1.13-.93-1.74-.25-.61-.44-1.24-.57-1.89s-.19-1.3-.19-1.96v-46.97c0-.66.06-1.32.19-1.96s.32-1.28.57-1.89c.25-.61.56-1.19.93-1.74.37-.55.78-1.06,1.25-1.53.47-.47.98-.88,1.53-1.25.55-.37,1.13-.68,1.74-.93.61-.25,1.24-.44,1.89-.57.65-.13,1.3-.19,1.96-.19Z" class="c"/><path d="m526.39,70.44h106.41c.66,0,1.32.06,1.96.19.65.13,1.28.32,1.89.57.61.25,1.19.56,1.74.93s1.06.78,1.53,1.25c.47.47.88.98,1.25,1.53.37.55.68,1.13.93,1.74.25.61.44,1.24.57,1.89.13.65.19,1.3.19,1.96v46.97c0,.66-.06,1.32-.19,1.96-.13.65-.32,1.28-.57,1.89-.25.61-.56,1.19-.93,1.74-.37.55-.78,1.06-1.25,1.53-.47.47-.98.88-1.53,1.25s-1.13.68-1.74.93c-.61.25-1.24.44-1.89.57-.65.13-1.3.19-1.96.19h-106.41c-.66,0-1.32-.06-1.96-.19-.65-.13-1.28-.32-1.89-.57s-1.19-.56-1.74-.93c-.55-.37-1.06-.78-1.53-1.25-.47-.47-.88-.98-1.25-1.53-.37-.55-.68-1.13-.93-1.74-.25-.61-.44-1.24-.57-1.89s-.19-1.3-.19-1.96v-46.97c0-.66.06-1.32.19-1.96s.32-1.28.57-1.89c.25-.61.56-1.19.93-1.74.37-.55.78-1.06,1.25-1.53.47-.47.98-.88,1.53-1.25.55-.37,1.13-.68,1.74-.93.61-.25,1.24-.44,1.89-.57.65-.13,1.3-.19,1.96-.19Z" class="g"/><path d="m536.94,81.62h106.41c.66,0,1.32.06,1.96.19.65.13,1.28.32,1.89.57.61.25,1.19.56,1.74.93.55.37,1.06.78,1.53,1.25.47.47.88.98,1.25,1.53.37.55.68,1.13.93,1.74s.44,1.24.57,1.89.19,1.3.19,1.96v46.97c0,.66-.06,1.32-.19,1.96-.13.65-.32,1.28-.57,1.89s-.56,1.19-.93,1.74-.78,1.06-1.25,1.53c-.47.47-.98.88-1.53,1.25-.55.37-1.13.68-1.74.93s-1.24.44-1.89.57c-.65.13-1.3.19-1.96.19h-106.41c-.66,0-1.32-.06-1.96-.19-.65-.13-1.28-.32-1.89-.57s-1.19-.56-1.74-.93-1.06-.78-1.53-1.25c-.47-.47-.88-.98-1.25-1.53-.37-.55-.68-1.13-.93-1.74s-.44-1.24-.57-1.89c-.13-.65-.19-1.3-.19-1.96v-46.97c0-.66.06-1.32.19-1.96.13-.65.32-1.28.57-1.89s.56-1.19.93-1.74c.37-.55.78-1.06,1.25-1.53.47-.47.98-.88,1.53-1.25.55-.37,1.13-.68,1.74-.93s1.24-.44,1.89-.57c.65-.13,1.3-.19,1.96-.19Z" class="c"/><path d="m536.94,81.62h106.41c.66,0,1.32.06,1.96.19.65.13,1.28.32,1.89.57.61.25,1.19.56,1.74.93.55.37,1.06.78,1.53,1.25.47.47.88.98,1.25,1.53.37.55.68,1.13.93,1.74s.44,1.24.57,1.89.19,1.3.19,1.96v46.97c0,.66-.06,1.32-.19,1.96-.13.65-.32,1.28-.57,1.89s-.56,1.19-.93,1.74-.78,1.06-1.25,1.53c-.47.47-.98.88-1.53,1.25-.55.37-1.13.68-1.74.93s-1.24.44-1.89.57c-.65.13-1.3.19-1.96.19h-106.41c-.66,0-1.32-.06-1.96-.19-.65-.13-1.28-.32-1.89-.57s-1.19-.56-1.74-.93-1.06-.78-1.53-1.25c-.47-.47-.88-.98-1.25-1.53-.37-.55-.68-1.13-.93-1.74s-.44-1.24-.57-1.89c-.13-.65-.19-1.3-.19-1.96v-46.97c0-.66.06-1.32.19-1.96.13-.65.32-1.28.57-1.89s.56-1.19.93-1.74c.37-.55.78-1.06,1.25-1.53.47-.47.98-.88,1.53-1.25.55-.37,1.13-.68,1.74-.93s1.24-.44,1.89-.57c.65-.13,1.3-.19,1.96-.19Z" class="g"/><path d="m547.48,92.8h106.41c.66,0,1.32.06,1.96.19.65.13,1.28.32,1.89.57.61.25,1.19.56,1.74.93.55.37,1.06.78,1.53,1.25.47.47.88.98,1.25,1.53.37.55.68,1.13.93,1.74s.44,1.24.57,1.89c.13.65.19,1.3.19,1.96v46.97c0,.66-.06,1.32-.19,1.96-.13.65-.32,1.28-.57,1.89-.25.61-.56,1.19-.93,1.74-.37.55-.78,1.06-1.25,1.53s-.98.88-1.53,1.25-1.13.68-1.74.93c-.61.25-1.24.44-1.89.57s-1.3.19-1.96.19h-106.41c-.66,0-1.32-.06-1.96-.19s-1.28-.32-1.89-.57c-.61-.25-1.19-.56-1.74-.93s-1.06-.78-1.53-1.25c-.47-.47-.88-.98-1.25-1.53-.37-.55-.68-1.13-.93-1.74s-.44-1.24-.57-1.89c-.13-.65-.19-1.3-.19-1.96v-46.97c0-.66.06-1.32.19-1.96.13-.65.32-1.28.57-1.89s.56-1.19.93-1.74c.37-.55.78-1.06,1.25-1.53.47-.47.98-.88,1.53-1.25s1.13-.68,1.74-.93c.61-.25,1.24-.44,1.89-.57.65-.13,1.3-.19,1.96-.19Z" class="c"/><path d="m547.48,92.8h106.41c.66,0,1.32.06,1.96.19.65.13,1.28.32,1.89.57.61.25,1.19.56,1.74.93.55.37,1.06.78,1.53,1.25.47.47.88.98,1.25,1.53.37.55.68,1.13.93,1.74s.44,1.24.57,1.89c.13.65.19,1.3.19,1.96v46.97c0,.66-.06,1.32-.19,1.96-.13.65-.32,1.28-.57,1.89-.25.61-.56,1.19-.93,1.74-.37.55-.78,1.06-1.25,1.53s-.98.88-1.53,1.25-1.13.68-1.74.93c-.61.25-1.24.44-1.89.57s-1.3.19-1.96.19h-106.41c-.66,0-1.32-.06-1.96-.19s-1.28-.32-1.89-.57c-.61-.25-1.19-.56-1.74-.93s-1.06-.78-1.53-1.25c-.47-.47-.88-.98-1.25-1.53-.37-.55-.68-1.13-.93-1.74s-.44-1.24-.57-1.89c-.13-.65-.19-1.3-.19-1.96v-46.97c0-.66.06-1.32.19-1.96.13-.65.32-1.28.57-1.89s.56-1.19.93-1.74c.37-.55.78-1.06,1.25-1.53.47-.47.98-.88,1.53-1.25s1.13-.68,1.74-.93c.61-.25,1.24-.44,1.89-.57.65-.13,1.3-.19,1.96-.19Z" class="g"/><path d="m558.02,103.99h106.41c.66,0,1.32.06,1.96.19s1.28.32,1.89.57,1.19.56,1.74.93,1.06.78,1.53,1.25c.47.47.88.98,1.25,1.53.37.55.68,1.13.93,1.74.25.61.44,1.24.57,1.89.13.65.19,1.3.19,1.96v46.97c0,.66-.06,1.32-.19,1.96-.13.65-.32,1.28-.57,1.89-.25.61-.56,1.19-.93,1.74-.37.55-.78,1.06-1.25,1.53-.47.47-.98.88-1.53,1.25s-1.13.68-1.74.93-1.24.44-1.89.57-1.3.19-1.96.19h-106.41c-.66,0-1.32-.06-1.96-.19-.65-.13-1.28-.32-1.89-.57-.61-.25-1.19-.56-1.74-.93-.55-.37-1.06-.78-1.53-1.25-.47-.47-.88-.98-1.25-1.53-.37-.55-.68-1.13-.93-1.74s-.44-1.24-.57-1.89c-.13-.65-.19-1.3-.19-1.96v-46.97c0-.66.06-1.32.19-1.96.13-.65.32-1.28.57-1.89s.56-1.19.93-1.74c.37-.55.78-1.06,1.25-1.53.47-.47.98-.88,1.53-1.25.55-.37,1.13-.68,1.74-.93.61-.25,1.24-.44,1.89-.57.65-.13,1.3-.19,1.96-.19Z" class="c"/><path d="m558.02,103.99h106.41c.66,0,1.32.06,1.96.19s1.28.32,1.89.57,1.19.56,1.74.93,1.06.78,1.53,1.25c.47.47.88.98,1.25,1.53.37.55.68,1.13.93,1.74.25.61.44,1.24.57,1.89.13.65.19,1.3.19,1.96v46.97c0,.66-.06,1.32-.19,1.96-.13.65-.32,1.28-.57,1.89-.25.61-.56,1.19-.93,1.74-.37.55-.78,1.06-1.25,1.53-.47.47-.98.88-1.53,1.25s-1.13.68-1.74.93-1.24.44-1.89.57-1.3.19-1.96.19h-106.41c-.66,0-1.32-.06-1.96-.19-.65-.13-1.28-.32-1.89-.57-.61-.25-1.19-.56-1.74-.93-.55-.37-1.06-.78-1.53-1.25-.47-.47-.88-.98-1.25-1.53-.37-.55-.68-1.13-.93-1.74s-.44-1.24-.57-1.89c-.13-.65-.19-1.3-.19-1.96v-46.97c0-.66.06-1.32.19-1.96.13-.65.32-1.28.57-1.89s.56-1.19.93-1.74c.37-.55.78-1.06,1.25-1.53.47-.47.98-.88,1.53-1.25.55-.37,1.13-.68,1.74-.93.61-.25,1.24-.44,1.89-.57.65-.13,1.3-.19,1.96-.19Z" class="g"/><g><path d="m581.41,27.83l.77-.07c.04.31.12.56.25.76.13.2.34.36.62.48.28.12.6.18.95.18.31,0,.59-.05.83-.14.24-.09.42-.22.53-.38s.17-.34.17-.53-.06-.36-.17-.51c-.11-.15-.3-.27-.56-.36-.17-.06-.53-.17-1.1-.3s-.96-.26-1.19-.39c-.29-.15-.51-.35-.66-.58-.14-.23-.22-.48-.22-.77,0-.31.09-.6.27-.87.18-.27.44-.48.78-.62.34-.14.72-.21,1.13-.21.46,0,.86.07,1.21.22s.62.36.81.65c.19.29.29.61.3.97l-.78.06c-.04-.39-.18-.69-.43-.88s-.6-.3-1.08-.3-.85.09-1.08.27c-.23.18-.34.4-.34.66,0,.22.08.4.24.55.16.14.57.29,1.23.44.66.15,1.12.28,1.37.39.36.17.62.38.8.63.17.25.26.55.26.88s-.09.64-.28.93c-.19.29-.46.52-.81.68-.35.16-.75.24-1.19.24-.56,0-1.03-.08-1.41-.24-.38-.16-.67-.41-.89-.73s-.33-.7-.34-1.11Z" class="d"/><path d="m590.41,28.38l.78.1c-.12.46-.35.81-.69,1.07-.33.25-.76.38-1.28.38-.66,0-1.17-.2-1.56-.6-.38-.4-.58-.97-.58-1.7s.19-1.34.58-1.75c.39-.42.89-.62,1.51-.62s1.09.2,1.47.61c.38.41.57.98.57,1.72,0,.05,0,.11,0,.2h-3.34c.03.49.17.87.42,1.13s.56.39.94.39c.28,0,.52-.07.71-.22s.35-.38.47-.7Zm-2.49-1.23h2.5c-.03-.38-.13-.66-.29-.85-.24-.29-.55-.44-.94-.44-.35,0-.64.12-.88.35-.24.23-.37.54-.39.94Z" class="d"/><path d="m592.14,29.82v-4.47h.68v.68c.17-.32.33-.53.48-.63s.31-.15.49-.15c.25,0,.51.08.78.24l-.26.7c-.19-.11-.37-.16-.56-.16-.17,0-.31.05-.45.15-.13.1-.23.24-.28.42-.08.27-.13.56-.13.88v2.34h-.76Z" class="d"/><path d="m596.26,29.82l-1.7-4.47h.8l.96,2.68c.1.29.2.59.29.9.07-.24.16-.52.28-.85l1-2.73h.78l-1.69,4.47h-.71Z" class="d"/><path d="m599.34,24.51v-.87h.76v.87h-.76Zm0,5.3v-4.47h.76v4.47h-.76Z" class="d"/><path d="m604.17,28.18l.75.1c-.08.51-.29.92-.63,1.21s-.75.44-1.24.44c-.61,0-1.1-.2-1.48-.6-.37-.4-.56-.97-.56-1.72,0-.48.08-.91.24-1.27s.4-.63.73-.81.68-.27,1.07-.27c.49,0,.88.12,1.19.37.31.25.51.59.59,1.05l-.74.11c-.07-.3-.19-.53-.37-.68-.18-.15-.39-.23-.65-.23-.38,0-.69.14-.93.41-.24.27-.36.71-.36,1.3s.12,1.04.35,1.31.53.41.9.41c.3,0,.55-.09.75-.27.2-.18.33-.46.38-.84Z" class="d"/><path d="m608.63,28.38l.78.1c-.12.46-.35.81-.69,1.07-.33.25-.76.38-1.28.38-.66,0-1.17-.2-1.56-.6-.38-.4-.58-.97-.58-1.7s.19-1.34.58-1.75c.39-.42.89-.62,1.51-.62s1.09.2,1.47.61c.38.41.57.98.57,1.72,0,.05,0,.11,0,.2h-3.34c.03.49.17.87.42,1.13s.56.39.94.39c.28,0,.52-.07.71-.22s.35-.38.47-.7Zm-2.49-1.23h2.5c-.03-.38-.13-.66-.29-.85-.24-.29-.55-.44-.94-.44-.35,0-.64.12-.88.35-.24.23-.37.54-.39.94Z" class="d"/></g></g><line x1="396.62" x2="482.59" y1="67.14" y2="67.14" class="h"/><polygon points="486.36 67.14 481.33 69.66 482.59 67.14 481.33 64.62 486.36 67.14" class="f"/><polygon points="486.36 67.14 481.33 69.66 482.59 67.14 481.33 64.62 486.36 67.14" class="h"/><rect width="38.11" height="9.35" x="422.77" y="62.47" class="c"/><g><path d="m425.26,69.66v-1.36h-2.46v-.64l2.58-3.67h.57v3.67h.76v.64h-.76v1.36h-.7Zm0-1.99v-2.55l-1.77,2.55h1.77Z" class="d"/><path d="m427.82,69.66v-.79h.79v.79h-.79Z" class="d"/><path d="m432.11,69.66v-5.66h2.51c.51,0,.89.05,1.15.15.26.1.47.28.63.54.16.26.23.54.23.85,0,.4-.13.74-.39,1.02-.26.28-.66.45-1.21.52.2.1.35.19.45.28.22.2.43.45.62.75l.99,1.54h-.94l-.75-1.18c-.22-.34-.4-.6-.54-.78-.14-.18-.27-.31-.38-.38-.11-.07-.23-.12-.34-.15-.08-.02-.22-.03-.42-.03h-.87v2.51h-.75Zm.75-3.16h1.61c.34,0,.61-.04.8-.11.19-.07.34-.18.44-.34.1-.16.15-.33.15-.51,0-.27-.1-.49-.29-.66-.2-.17-.5-.26-.92-.26h-1.79v1.87Z" class="d"/><path d="m440.53,68.34l.72.09c-.11.42-.32.75-.63.98s-.7.35-1.17.35c-.6,0-1.08-.18-1.43-.55-.35-.37-.53-.89-.53-1.55s.18-1.23.53-1.61.82-.57,1.38-.57,1,.19,1.34.56.52.9.52,1.58c0,.04,0,.1,0,.19h-3.06c.03.45.15.8.38,1.04s.52.36.86.36c.25,0,.47-.07.65-.2s.32-.35.43-.64Zm-2.28-1.12h2.29c-.03-.34-.12-.6-.26-.78-.22-.27-.51-.4-.86-.4-.32,0-.59.11-.8.32s-.34.5-.36.86Z" class="d"/><path d="m444.74,71.23v-2.01c-.11.15-.26.28-.46.38-.19.1-.4.15-.62.15-.49,0-.91-.19-1.26-.58-.35-.39-.53-.92-.53-1.6,0-.41.07-.78.21-1.11s.35-.58.62-.74c.27-.17.57-.25.89-.25.51,0,.91.21,1.2.64v-.55h.63v5.67h-.7Zm-2.14-3.63c0,.53.11.92.33,1.19.22.26.49.4.8.4s.55-.13.76-.38c.21-.25.32-.63.32-1.14,0-.55-.11-.96-.34-1.23-.22-.28-.49-.41-.79-.41s-.56.13-.77.38c-.21.26-.32.66-.32,1.2Z" class="d"/><path d="m449.21,69.66v-.6c-.32.46-.75.7-1.3.7-.24,0-.47-.05-.68-.14-.21-.09-.37-.21-.47-.35-.1-.14-.17-.31-.21-.52-.03-.14-.04-.35-.04-.65v-2.54h.7v2.28c0,.36.01.61.04.73.04.18.14.33.28.43.14.1.32.16.53.16s.4-.05.59-.16c.18-.11.31-.25.39-.44.08-.18.12-.45.12-.8v-2.2h.7v4.1h-.62Z" class="d"/><path d="m453.73,68.34l.72.09c-.11.42-.32.75-.63.98s-.7.35-1.17.35c-.6,0-1.08-.18-1.43-.55-.35-.37-.53-.89-.53-1.55s.18-1.23.53-1.61.82-.57,1.38-.57,1,.19,1.34.56.52.9.52,1.58c0,.04,0,.1,0,.19h-3.06c.03.45.15.8.38,1.04s.52.36.86.36c.25,0,.47-.07.65-.2s.32-.35.43-.64Zm-2.28-1.12h2.29c-.03-.34-.12-.6-.26-.78-.22-.27-.51-.4-.86-.4-.32,0-.59.11-.8.32s-.34.5-.36.86Z" class="d"/><path d="m455.04,68.43l.69-.11c.04.28.15.49.32.63.18.15.42.22.74.22s.56-.07.71-.2.23-.28.23-.46c0-.16-.07-.28-.21-.37-.1-.06-.33-.14-.71-.24-.51-.13-.86-.24-1.06-.33-.2-.09-.35-.22-.45-.39s-.15-.35-.15-.55c0-.18.04-.35.12-.51.08-.16.2-.29.34-.39.11-.08.26-.15.44-.2.19-.06.39-.08.6-.08.32,0,.61.05.85.14.24.09.42.22.54.38.12.16.2.37.24.64l-.68.09c-.03-.21-.12-.38-.27-.49-.15-.12-.36-.18-.63-.18-.32,0-.55.05-.68.16s-.21.23-.21.37c0,.09.03.17.09.24.06.07.14.14.27.18.07.03.27.08.61.18.49.13.84.24,1.03.32.2.08.35.21.46.36.11.16.17.36.17.59s-.07.45-.2.66c-.13.2-.33.36-.59.47-.25.11-.54.17-.87.17-.53,0-.94-.11-1.22-.33s-.46-.55-.54-.99Z" class="d"/><path d="m460.79,69.03l.1.61c-.2.04-.37.06-.53.06-.25,0-.45-.04-.59-.12-.14-.08-.24-.18-.29-.32-.06-.13-.08-.4-.08-.82v-2.36h-.51v-.54h.51v-1.02l.69-.42v1.43h.7v.54h-.7v2.4c0,.2.01.33.04.38.02.06.06.1.12.14.05.03.13.05.24.05.08,0,.18,0,.3-.03Z" class="d"/></g><g><path d="m193.87,13.22h189.81c.85,0,1.69.08,2.52.25.83.17,1.64.41,2.43.74s1.53.72,2.24,1.2c.71.47,1.36,1.01,1.96,1.61.6.6,1.14,1.25,1.61,1.96.47.71.87,1.45,1.2,2.24.33.79.57,1.59.74,2.43.17.83.25,1.68.25,2.52v189.81c0,.85-.08,1.69-.25,2.52-.17.83-.41,1.64-.74,2.43-.33.79-.72,1.53-1.2,2.24-.47.71-1.01,1.36-1.61,1.96-.6.6-1.25,1.14-1.96,1.61-.71.47-1.45.87-2.24,1.2-.79.33-1.59.57-2.43.74-.83.17-1.68.25-2.52.25h-189.81c-.85,0-1.69-.08-2.52-.25-.83-.17-1.64-.41-2.43-.74-.79-.33-1.53-.72-2.24-1.2-.71-.47-1.36-1.01-1.96-1.61-.6-.6-1.14-1.25-1.61-1.96-.47-.71-.87-1.45-1.2-2.24-.33-.79-.57-1.59-.74-2.43-.17-.83-.25-1.68-.25-2.52V26.16c0-.85.08-1.69.25-2.52.17-.83.41-1.64.74-2.43.33-.79.72-1.53,1.2-2.24.47-.71,1.01-1.36,1.61-1.96.6-.6,1.25-1.14,1.96-1.61.71-.47,1.45-.87,2.24-1.2s1.59-.57,2.43-.74c.83-.17,1.68-.25,2.52-.25Z" class="c"/><path d="m193.87,13.22h189.81c.85,0,1.69.08,2.52.25.83.17,1.64.41,2.43.74s1.53.72,2.24,1.2c.71.47,1.36,1.01,1.96,1.61.6.6,1.14,1.25,1.61,1.96.47.71.87,1.45,1.2,2.24.33.79.57,1.59.74,2.43.17.83.25,1.68.25,2.52v189.81c0,.85-.08,1.69-.25,2.52-.17.83-.41,1.64-.74,2.43-.33.79-.72,1.53-1.2,2.24-.47.71-1.01,1.36-1.61,1.96-.6.6-1.25,1.14-1.96,1.61-.71.47-1.45.87-2.24,1.2-.79.33-1.59.57-2.43.74-.83.17-1.68.25-2.52.25h-189.81c-.85,0-1.69-.08-2.52-.25-.83-.17-1.64-.41-2.43-.74-.79-.33-1.53-.72-2.24-1.2-.71-.47-1.36-1.01-1.96-1.61-.6-.6-1.14-1.25-1.61-1.96-.47-.71-.87-1.45-1.2-2.24-.33-.79-.57-1.59-.74-2.43-.17-.83-.25-1.68-.25-2.52V26.16c0-.85.08-1.69.25-2.52.17-.83.41-1.64.74-2.43.33-.79.72-1.53,1.2-2.24.47-.71,1.01-1.36,1.61-1.96.6-.6,1.25-1.14,1.96-1.61.71-.47,1.45-.87,2.24-1.2s1.59-.57,2.43-.74c.83-.17,1.68-.25,2.52-.25Z" class="g"/></g><line x1="249.9" x2="249.9" y1="214.53" y2="296.23" class="h"/><polygon points="249.9 300 247.39 294.97 249.9 296.23 252.42 294.97 249.9 300" class="f"/><polygon points="249.9 300 247.39 294.97 249.9 296.23 252.42 294.97 249.9 300" class="h"/><rect width="56.8" height="9.35" x="221.45" y="252.99" class="c"/><g><path d="m225.27,259.52v.67h-3.74c0-.17.02-.33.08-.48.09-.25.25-.51.46-.75.21-.25.51-.53.91-.86.62-.5,1.03-.9,1.25-1.2s.32-.57.32-.84-.1-.51-.3-.7c-.2-.19-.45-.28-.77-.28-.33,0-.6.1-.8.3-.2.2-.3.48-.31.83l-.71-.07c.05-.53.23-.94.55-1.22.32-.28.75-.42,1.29-.42s.97.15,1.29.45c.32.3.47.67.47,1.12,0,.23-.05.45-.14.67-.09.22-.25.45-.46.69-.21.24-.57.57-1.07,1-.42.35-.68.59-.8.71-.12.12-.22.25-.29.38h2.78Z" class="d"/><path d="m226.4,260.18v-.79h.79v.79h-.79Z" class="d"/></g><g><path d="m230.73,260.18v-5.66h3.82v.67h-3.07v1.75h2.66v.67h-2.66v2.57h-.75Z" class="d"/><path d="m235.42,260.18v-5.66h.7v5.66h-.7Z" class="d"/><path d="m236.93,258.13c0-.76.21-1.32.63-1.69.35-.3.78-.46,1.29-.46.56,0,1.03.18,1.38.55s.54.88.54,1.53c0,.53-.08.94-.24,1.25s-.39.54-.69.71-.63.25-.99.25c-.57,0-1.04-.18-1.39-.55-.35-.37-.53-.9-.53-1.59Zm.71,0c0,.53.12.92.34,1.18.23.26.52.39.87.39s.63-.13.86-.39.34-.66.34-1.2c0-.51-.12-.89-.35-1.15-.23-.26-.52-.39-.86-.39s-.64.13-.87.39c-.23.26-.34.65-.34,1.18Z" class="d"/><path d="m242.34,260.18l-1.25-4.1h.72l.65,2.37.24.88s.08-.33.21-.85l.65-2.4h.71l.61,2.38.21.78.24-.79.7-2.37h.68l-1.28,4.1h-.72l-.65-2.46-.16-.7-.83,3.16h-.73Z" class="d"/><path d="m249.6,260.18v-5.66h2.51c.5,0,.89.05,1.15.15s.47.28.63.54c.16.26.24.54.24.85,0,.4-.13.74-.39,1.02s-.66.45-1.21.52c.2.1.35.19.45.28.22.2.43.45.62.75l.98,1.54h-.94l-.75-1.18c-.22-.34-.4-.6-.54-.78-.14-.18-.27-.31-.38-.38-.11-.07-.23-.12-.34-.15-.08-.02-.22-.03-.42-.03h-.87v2.51h-.75Zm.75-3.16h1.61c.34,0,.61-.04.8-.11.19-.07.34-.18.44-.34.1-.16.15-.33.15-.51,0-.27-.1-.49-.29-.66-.19-.17-.5-.26-.92-.26h-1.79v1.87Z" class="d"/><path d="m258.02,258.86l.72.09c-.11.42-.32.75-.63.98-.31.23-.7.35-1.17.35-.6,0-1.08-.18-1.43-.55-.35-.37-.53-.89-.53-1.55s.18-1.23.53-1.61c.35-.38.82-.57,1.38-.57s1,.19,1.34.56.52.9.52,1.58c0,.04,0,.1,0,.19h-3.06c.03.45.15.8.38,1.04.23.24.52.36.86.36.26,0,.47-.07.65-.2.18-.13.32-.35.43-.64Zm-2.28-1.12h2.29c-.03-.34-.12-.6-.26-.78-.22-.27-.51-.4-.86-.4-.32,0-.59.11-.81.32-.22.21-.34.5-.36.86Z" class="d"/><path d="m262.22,261.76v-2.01c-.11.15-.26.28-.45.38-.2.1-.4.15-.62.15-.49,0-.9-.19-1.26-.58s-.53-.92-.53-1.6c0-.41.07-.78.21-1.11.14-.33.35-.58.62-.74.27-.17.57-.25.89-.25.51,0,.91.21,1.2.64v-.55h.63v5.67h-.7Zm-2.14-3.63c0,.53.11.92.33,1.19.22.26.49.4.79.4s.55-.13.76-.38.32-.63.32-1.14c0-.55-.11-.96-.34-1.23s-.49-.41-.79-.41-.56.13-.77.38c-.21.26-.31.66-.31,1.2Z" class="d"/><path d="m266.69,260.18v-.6c-.32.46-.75.7-1.3.7-.24,0-.47-.05-.68-.14-.21-.09-.37-.21-.47-.35-.1-.14-.17-.31-.21-.52-.03-.14-.04-.35-.04-.65v-2.54h.7v2.28c0,.36.01.61.04.73.04.18.14.33.28.43s.32.16.53.16.4-.05.59-.16c.18-.11.31-.25.39-.44.08-.18.11-.45.11-.8v-2.2h.7v4.1h-.62Z" class="d"/><path d="m271.21,258.86l.72.09c-.11.42-.32.75-.63.98-.31.23-.7.35-1.18.35-.6,0-1.07-.18-1.43-.55-.35-.37-.53-.89-.53-1.55s.18-1.23.53-1.61.82-.57,1.38-.57,1,.19,1.34.56.52.9.52,1.58c0,.04,0,.1,0,.19h-3.06c.03.45.15.8.38,1.04.23.24.51.36.86.36.26,0,.47-.07.65-.2.18-.13.32-.35.43-.64Zm-2.28-1.12h2.29c-.03-.34-.12-.6-.26-.78-.22-.27-.51-.4-.86-.4-.32,0-.59.11-.81.32-.22.21-.34.5-.36.86Z" class="d"/><path d="m272.52,258.96l.69-.11c.04.28.15.49.32.63.18.15.42.22.74.22s.56-.07.71-.2.23-.28.23-.46c0-.16-.07-.28-.2-.37-.1-.06-.33-.14-.71-.24-.51-.13-.86-.24-1.06-.33-.2-.09-.35-.22-.45-.39s-.15-.35-.15-.55c0-.18.04-.35.12-.51.08-.16.2-.29.34-.39.11-.08.26-.15.44-.2.19-.06.39-.08.6-.08.32,0,.6.05.85.14.24.09.42.22.54.38.12.16.2.37.24.64l-.68.09c-.03-.21-.12-.38-.27-.49-.15-.12-.36-.18-.63-.18-.32,0-.55.05-.68.16-.13.11-.2.23-.2.37,0,.09.03.17.08.24.06.07.15.14.27.18.07.03.27.08.61.18.49.13.83.24,1.03.32.19.08.35.21.46.36.11.16.17.36.17.59s-.07.45-.2.66c-.13.2-.33.36-.58.47-.26.11-.54.17-.87.17-.53,0-.94-.11-1.22-.33s-.46-.55-.54-.99Z" class="d"/><path d="m278.27,259.56l.1.61c-.2.04-.37.06-.53.06-.25,0-.45-.04-.59-.12-.14-.08-.24-.18-.29-.32-.06-.13-.09-.4-.09-.82v-2.36h-.51v-.54h.51v-1.02l.69-.42v1.43h.7v.54h-.7v2.4c0,.2.01.33.04.38.03.06.06.1.12.14.06.03.13.05.24.05.08,0,.18,0,.3-.03Z" class="d"/></g><line x1="336.18" x2="336.18" y1="300.81" y2="219.11" class="h"/><polygon points="336.18 215.33 338.7 220.37 336.18 219.11 333.66 220.37 336.18 215.33" class="f"/><polygon points="336.18 215.33 338.7 220.37 336.18 219.11 333.66 220.37 336.18 215.33" class="h"/><rect width="58.24" height="9.35" x="307.01" y="252.99" class="c"/><g><path d="m307.46,258.69l.7-.09c.08.39.22.68.41.85s.43.26.7.26c.33,0,.6-.11.83-.34.22-.23.34-.51.34-.84s-.11-.58-.31-.79c-.21-.21-.47-.31-.8-.31-.13,0-.29.03-.49.08l.08-.61s.08,0,.11,0c.3,0,.56-.08.8-.23.24-.16.36-.39.36-.71,0-.25-.09-.47-.26-.63-.17-.17-.4-.25-.67-.25s-.5.08-.68.25c-.18.17-.3.42-.35.76l-.7-.12c.08-.47.28-.83.58-1.08.3-.26.68-.38,1.12-.38.31,0,.59.07.85.2s.46.31.6.54c.14.23.21.47.21.73,0,.24-.07.47-.2.67s-.33.36-.58.48c.33.08.59.24.78.48.19.24.28.55.28.91,0,.49-.18.91-.54,1.26-.36.34-.82.52-1.37.52-.5,0-.91-.15-1.24-.44s-.52-.68-.56-1.15Z" class="d"/><path d="m312.24,260.18v-.79h.79v.79h-.79Z" class="d"/><path d="m316.57,260.18v-5.66h3.82v.67h-3.07v1.75h2.66v.67h-2.66v2.57h-.75Z" class="d"/><path d="m321.26,260.18v-5.66h.7v5.66h-.7Z" class="d"/><path d="m322.77,258.13c0-.76.21-1.32.63-1.69.35-.3.78-.46,1.29-.46.56,0,1.03.18,1.38.55s.54.88.54,1.53c0,.53-.08.94-.24,1.25s-.39.54-.69.71c-.3.17-.63.25-.99.25-.57,0-1.04-.18-1.39-.55-.36-.37-.53-.9-.53-1.59Zm.71,0c0,.53.12.92.34,1.18.23.26.52.39.87.39s.63-.13.86-.39c.23-.26.34-.66.34-1.2,0-.51-.12-.89-.35-1.15-.23-.26-.52-.39-.86-.39s-.63.13-.87.39c-.23.26-.34.65-.34,1.18Z" class="d"/><path d="m328.18,260.18l-1.26-4.1h.72l.65,2.37.24.88s.08-.33.21-.85l.65-2.4h.71l.62,2.38.2.78.24-.79.7-2.37h.68l-1.28,4.1h-.72l-.65-2.46-.16-.7-.83,3.16h-.72Z" class="d"/><path d="m335.42,260.18v-5.66h1.95c.44,0,.78.03,1.01.08.32.07.6.21.83.41.3.25.52.58.67.97s.22.84.22,1.35c0,.43-.05.81-.15,1.14-.1.33-.23.61-.38.83-.16.22-.33.39-.52.51-.19.12-.41.22-.68.28s-.57.1-.91.1h-2.04Zm.75-.67h1.21c.37,0,.67-.04.88-.1.21-.07.38-.17.51-.29.18-.18.32-.42.42-.72s.15-.66.15-1.09c0-.59-.1-1.05-.29-1.37-.2-.32-.43-.53-.71-.64-.2-.08-.52-.12-.97-.12h-1.19v4.33Z" class="d"/><path d="m343.85,258.86l.72.09c-.11.42-.32.75-.63.98-.31.23-.7.35-1.18.35-.6,0-1.07-.18-1.43-.55-.35-.37-.53-.89-.53-1.55s.18-1.23.53-1.61.82-.57,1.38-.57,1,.19,1.34.56.52.9.52,1.58c0,.04,0,.1,0,.19h-3.06c.03.45.15.8.38,1.04.23.24.51.36.86.36.26,0,.47-.07.65-.2.18-.13.32-.35.43-.64Zm-2.28-1.12h2.29c-.03-.34-.12-.6-.26-.78-.22-.27-.51-.4-.86-.4-.32,0-.59.11-.81.32-.22.21-.34.5-.36.86Z" class="d"/><path d="m348.12,258.68l.68.09c-.07.47-.27.84-.57,1.11-.31.27-.69.4-1.13.4-.56,0-1.01-.18-1.35-.55-.34-.37-.51-.89-.51-1.58,0-.44.07-.83.22-1.16.15-.33.37-.58.67-.75.3-.17.62-.25.98-.25.45,0,.81.11,1.09.34.28.22.46.54.54.96l-.68.1c-.06-.28-.18-.48-.34-.62-.16-.14-.36-.21-.59-.21-.35,0-.63.12-.85.38s-.33.65-.33,1.19.11.95.32,1.2.49.38.83.38c.27,0,.5-.08.68-.25.18-.17.3-.42.35-.77Z" class="d"/><path d="m349.4,255.32v-.8h.7v.8h-.7Zm0,4.86v-4.1h.7v4.1h-.7Z" class="d"/><path d="m350.88,258.96l.69-.11c.04.28.15.49.32.63.18.15.42.22.74.22s.56-.07.71-.2.23-.28.23-.46c0-.16-.07-.28-.21-.37-.1-.06-.33-.14-.71-.24-.51-.13-.86-.24-1.06-.33-.2-.09-.35-.22-.45-.39s-.15-.35-.15-.55c0-.18.04-.35.12-.51.08-.16.2-.29.34-.39.11-.08.26-.15.44-.2.19-.06.39-.08.6-.08.32,0,.61.05.85.14.24.09.42.22.54.38.12.16.2.37.24.64l-.68.09c-.03-.21-.12-.38-.27-.49-.15-.12-.36-.18-.63-.18-.32,0-.55.05-.68.16s-.21.23-.21.37c0,.09.03.17.09.24.06.07.14.14.27.18.07.03.27.08.61.18.49.13.84.24,1.03.32.2.08.35.21.46.36.11.16.17.36.17.59s-.07.45-.2.66c-.13.2-.33.36-.59.47-.25.11-.54.17-.87.17-.53,0-.94-.11-1.22-.33s-.46-.55-.54-.99Z" class="d"/><path d="m355.11,255.32v-.8h.7v.8h-.7Zm0,4.86v-4.1h.7v4.1h-.7Z" class="d"/><path d="m356.61,258.13c0-.76.21-1.32.63-1.69.35-.3.78-.46,1.29-.46.56,0,1.03.18,1.38.55s.54.88.54,1.53c0,.53-.08.94-.24,1.25s-.39.54-.69.71c-.3.17-.63.25-.99.25-.57,0-1.04-.18-1.39-.55-.36-.37-.53-.9-.53-1.59Zm.71,0c0,.53.12.92.34,1.18.23.26.52.39.87.39s.63-.13.86-.39c.23-.26.34-.66.34-1.2,0-.51-.12-.89-.35-1.15-.23-.26-.52-.39-.86-.39s-.63.13-.87.39c-.23.26-.34.65-.34,1.18Z" class="d"/><path d="m361.27,260.18v-4.1h.62v.58c.3-.45.74-.68,1.31-.68.25,0,.47.04.68.13s.36.21.46.35.18.32.22.51c.03.13.04.35.04.68v2.52h-.69v-2.5c0-.28-.03-.49-.08-.63s-.15-.25-.29-.34c-.14-.08-.3-.13-.48-.13-.3,0-.55.09-.77.28-.21.19-.32.54-.32,1.07v2.24h-.7Z" class="d"/></g><path d="m211.94,300.81h162.2c.34,0,.68.03,1.01.1.33.07.66.16.97.29.31.13.61.29.9.48s.54.4.78.64c.24.24.45.5.64.78.19.28.35.58.48.9.13.31.23.64.29.97.07.33.1.67.1,1.01v75.92c0,.34-.03.68-.1,1.01-.07.33-.16.66-.29.97-.13.31-.29.61-.48.9-.19.28-.4.54-.64.78-.24.24-.5.46-.78.64s-.58.35-.9.48c-.31.13-.64.23-.97.29-.33.07-.67.1-1.01.1h-162.2c-.34,0-.68-.03-1.01-.1s-.66-.16-.97-.29c-.31-.13-.61-.29-.9-.48-.28-.19-.54-.4-.78-.64-.24-.24-.45-.5-.64-.78-.19-.28-.35-.58-.48-.9-.13-.31-.23-.64-.29-.97-.07-.33-.1-.67-.1-1.01v-75.92c0-.34.03-.68.1-1.01s.16-.66.29-.97c.13-.31.29-.61.48-.89.19-.28.4-.54.64-.78.24-.24.5-.46.78-.64s.58-.35.89-.48c.31-.13.64-.23.97-.29.33-.07.67-.1,1.01-.1Z" class="k"/><path d="m211.94,300.81h162.2c.34,0,.68.03,1.01.1.33.07.66.16.97.29.31.13.61.29.9.48s.54.4.78.64c.24.24.45.5.64.78.19.28.35.58.48.9.13.31.23.64.29.97.07.33.1.67.1,1.01v75.92c0,.34-.03.68-.1,1.01-.07.33-.16.66-.29.97-.13.31-.29.61-.48.9-.19.28-.4.54-.64.78-.24.24-.5.46-.78.64s-.58.35-.9.48c-.31.13-.64.23-.97.29-.33.07-.67.1-1.01.1h-162.2c-.34,0-.68-.03-1.01-.1s-.66-.16-.97-.29c-.31-.13-.61-.29-.9-.48-.28-.19-.54-.4-.78-.64-.24-.24-.45-.5-.64-.78-.19-.28-.35-.58-.48-.9-.13-.31-.23-.64-.29-.97-.07-.33-.1-.67-.1-1.01v-75.92c0-.34.03-.68.1-1.01s.16-.66.29-.97c.13-.31.29-.61.48-.89.19-.28.4-.54.64-.78.24-.24.5-.46.78-.64s.58-.35.89-.48c.31-.13.64-.23.97-.29.33-.07.67-.1,1.01-.1Z" class="i"/><g><path d="m263.84,346.46l2.37-6.18h.88l2.53,6.18h-.93l-.72-1.87h-2.58l-.68,1.87h-.87Zm1.78-2.54h2.09l-.64-1.71c-.2-.52-.34-.95-.44-1.28-.08.4-.19.79-.33,1.18l-.68,1.81Z" class="d"/><path d="m270.18,348.18v-6.19h.69v.58c.16-.23.35-.4.55-.51.21-.11.45-.17.75-.17.38,0,.72.1,1.01.29.29.2.51.47.66.83s.22.75.22,1.18c0,.46-.08.87-.25,1.24-.16.37-.4.65-.71.84-.31.2-.64.29-.99.29-.25,0-.48-.05-.68-.16-.2-.11-.37-.24-.5-.41v2.18h-.76Zm.69-3.93c0,.58.12,1,.35,1.28.23.28.51.41.85.41s.62-.14.87-.43.36-.73.36-1.32-.12-1-.35-1.28c-.23-.28-.52-.43-.84-.43s-.61.15-.86.45c-.25.3-.37.74-.37,1.32Z" class="d"/><path d="m278.04,345.02l.78.1c-.12.46-.35.81-.69,1.07-.34.25-.76.38-1.28.38-.65,0-1.17-.2-1.56-.61-.38-.4-.57-.97-.57-1.7s.19-1.34.58-1.75c.39-.42.89-.62,1.51-.62s1.09.2,1.47.61.57.98.57,1.72c0,.04,0,.11,0,.2h-3.34c.03.49.17.87.42,1.13.25.26.56.39.94.39.28,0,.52-.07.71-.22.2-.15.35-.38.47-.7Zm-2.49-1.23h2.5c-.03-.38-.13-.66-.29-.85-.24-.29-.55-.44-.94-.44-.35,0-.64.12-.88.35-.24.23-.37.54-.39.93Z" class="d"/><path d="m279.76,346.46v-4.47h.68v.68c.17-.32.33-.53.48-.63.15-.1.31-.15.49-.15.25,0,.51.08.78.24l-.26.7c-.19-.11-.37-.16-.56-.16-.17,0-.31.05-.45.15-.13.1-.23.24-.28.42-.08.27-.13.56-.13.88v2.34h-.76Z" class="d"/><path d="m284.3,345.78l.11.67c-.21.04-.4.07-.57.07-.28,0-.49-.04-.64-.13s-.26-.2-.32-.34-.09-.44-.09-.9v-2.57h-.56v-.59h.56v-1.11l.75-.46v1.56h.76v.59h-.76v2.62c0,.22.01.35.04.42.03.06.07.11.13.15.06.04.15.05.26.05.08,0,.2,0,.33-.03Z" class="d"/><path d="m287.97,346.46v-.66c-.35.51-.82.76-1.42.76-.26,0-.51-.05-.74-.15-.23-.1-.4-.23-.51-.38s-.19-.34-.23-.56c-.03-.15-.05-.38-.05-.71v-2.77h.76v2.48c0,.4.01.66.04.8.05.2.15.36.3.47.15.11.34.17.57.17s.44-.06.64-.17.34-.28.42-.48c.08-.2.12-.49.12-.87v-2.4h.76v4.47h-.68Z" class="d"/><path d="m289.83,346.46v-4.47h.68v.68c.17-.32.33-.53.48-.63.15-.1.31-.15.49-.15.25,0,.51.08.78.24l-.26.7c-.19-.11-.37-.16-.56-.16-.17,0-.31.05-.45.15-.13.1-.23.24-.28.42-.08.27-.13.56-.13.88v2.34h-.76Z" class="d"/><path d="m295.78,345.02l.78.1c-.12.46-.35.81-.69,1.07s-.76.38-1.28.38c-.65,0-1.17-.2-1.56-.61-.38-.4-.57-.97-.57-1.7s.19-1.34.58-1.75c.39-.42.89-.62,1.51-.62s1.09.2,1.46.61c.38.41.57.98.57,1.72,0,.04,0,.11,0,.2h-3.34c.03.49.17.87.42,1.13.25.26.56.39.94.39.28,0,.51-.07.71-.22.2-.15.35-.38.47-.7Zm-2.49-1.23h2.5c-.03-.38-.13-.66-.29-.85-.24-.29-.55-.44-.94-.44-.35,0-.64.12-.88.35-.24.23-.37.54-.39.93Z" class="d"/></g><g><path d="m298.85,346.46l2.37-6.18h.88l2.53,6.18h-.93l-.72-1.87h-2.58l-.68,1.87h-.87Zm1.78-2.54h2.09l-.64-1.71c-.2-.52-.34-.95-.44-1.28-.08.4-.19.79-.33,1.18l-.68,1.81Z" class="d"/><path d="m305.05,346.83l.74.11c.03.23.12.39.26.5.19.14.45.21.77.21.35,0,.62-.07.81-.21s.32-.34.39-.59c.04-.15.06-.48.05-.97-.33.39-.74.59-1.24.59-.62,0-1.09-.22-1.43-.67-.34-.44-.51-.98-.51-1.6,0-.43.08-.82.23-1.18.15-.36.38-.64.67-.84.29-.2.64-.29,1.03-.29.53,0,.96.21,1.31.64v-.54h.7v3.87c0,.7-.07,1.19-.21,1.48s-.37.52-.67.69c-.31.17-.69.25-1.13.25-.54,0-.96-.12-1.29-.36-.33-.24-.49-.6-.47-1.08Zm.63-2.69c0,.59.12,1.02.35,1.29s.53.4.88.4.64-.13.88-.4c.24-.27.36-.69.36-1.26s-.12-.96-.37-1.24-.54-.42-.88-.42-.62.14-.86.41c-.23.27-.35.68-.35,1.22Z" class="d"/><path d="m313.05,345.02l.78.1c-.12.46-.35.81-.69,1.07s-.76.38-1.28.38c-.65,0-1.17-.2-1.56-.61-.38-.4-.57-.97-.57-1.7s.19-1.34.58-1.75c.39-.42.89-.62,1.51-.62s1.09.2,1.46.61c.38.41.57.98.57,1.72,0,.04,0,.11,0,.2h-3.34c.03.49.17.87.42,1.13.25.26.56.39.94.39.28,0,.51-.07.71-.22.2-.15.35-.38.47-.7Zm-2.49-1.23h2.5c-.03-.38-.13-.66-.29-.85-.24-.29-.55-.44-.94-.44-.35,0-.64.12-.88.35-.24.23-.37.54-.39.93Z" class="d"/><path d="m314.78,346.46v-4.47h.68v.64c.33-.49.8-.74,1.42-.74.27,0,.52.05.74.15.22.1.39.22.51.38.11.16.19.34.24.56.03.14.04.39.04.74v2.75h-.76v-2.72c0-.31-.03-.54-.09-.69-.06-.15-.16-.28-.31-.37-.15-.09-.33-.14-.53-.14-.32,0-.6.1-.84.31s-.35.59-.35,1.17v2.44h-.76Z" class="d"/><path d="m321.24,345.78l.11.67c-.21.04-.4.07-.57.07-.28,0-.49-.04-.64-.13-.15-.09-.26-.2-.32-.34-.06-.14-.09-.44-.09-.9v-2.57h-.56v-.59h.56v-1.11l.75-.46v1.56h.76v.59h-.76v2.62c0,.22.01.35.04.42.03.06.07.11.13.15.06.04.15.05.26.05.08,0,.2,0,.33-.03Z" class="d"/></g><polygon points="46.74 70.73 46.74 63.54 161.05 63.54 161.05 56.97 180.57 67.14 161.05 77.31 161.05 70.73 46.74 70.73" class="e"/><g><path d="m94.2,58.87h-.69v-4.43c-.17.16-.39.32-.66.48-.27.16-.51.28-.73.36v-.67c.39-.18.73-.4,1.02-.66.29-.26.5-.51.62-.76h.45v5.68Z" class="d"/><path d="m96.37,58.87v-.79h.79v.79h-.79Z" class="d"/><path d="m100.67,58.87v-5.66h2.51c.5,0,.89.05,1.15.15.26.1.47.28.63.54.16.26.24.54.24.85,0,.4-.13.74-.39,1.02s-.66.45-1.21.52c.2.1.35.19.45.28.22.2.43.45.62.75l.98,1.54h-.94l-.75-1.18c-.22-.34-.4-.6-.54-.78-.14-.18-.27-.31-.38-.38-.11-.07-.23-.12-.34-.15-.08-.02-.22-.03-.42-.03h-.87v2.51h-.75Zm.75-3.16h1.61c.34,0,.61-.04.8-.11.19-.07.34-.18.44-.34.1-.16.15-.33.15-.51,0-.27-.1-.49-.29-.66-.2-.17-.5-.26-.92-.26h-1.79v1.87Z" class="d"/><path d="m109.09,57.55l.72.09c-.11.42-.32.75-.63.98s-.7.35-1.17.35c-.6,0-1.08-.18-1.43-.55-.35-.37-.53-.89-.53-1.55s.18-1.23.53-1.61c.35-.38.82-.57,1.38-.57s1,.19,1.34.56.52.9.52,1.58c0,.04,0,.1,0,.19h-3.06c.03.45.15.8.38,1.04s.52.36.86.36c.25,0,.47-.07.65-.2s.32-.35.43-.64Zm-2.28-1.12h2.29c-.03-.34-.12-.6-.26-.78-.22-.27-.51-.4-.86-.4-.32,0-.59.11-.8.32-.22.21-.34.5-.36.86Z" class="d"/><path d="m113.29,60.44v-2.01c-.11.15-.26.28-.45.38-.19.1-.4.15-.62.15-.49,0-.91-.19-1.26-.58s-.53-.92-.53-1.6c0-.41.07-.78.21-1.11.14-.33.35-.58.62-.74.27-.17.57-.25.89-.25.51,0,.91.21,1.2.64v-.55h.63v5.67h-.69Zm-2.14-3.63c0,.53.11.92.33,1.19.22.26.49.4.8.4s.55-.13.76-.38c.21-.25.32-.63.32-1.14,0-.55-.11-.96-.34-1.23-.22-.28-.49-.41-.79-.41s-.56.13-.77.38c-.21.26-.31.66-.31,1.2Z" class="d"/><path d="m117.76,58.87v-.6c-.32.46-.75.7-1.3.7-.24,0-.47-.05-.68-.14-.21-.09-.37-.21-.47-.35-.1-.14-.17-.31-.21-.52-.03-.14-.04-.35-.04-.65v-2.54h.7v2.28c0,.36.01.61.04.73.04.18.14.33.28.43.14.1.32.16.53.16s.4-.05.59-.16c.18-.11.31-.25.39-.44.08-.18.11-.45.11-.8v-2.2h.69v4.1h-.62Z" class="d"/><path d="m122.28,57.55l.72.09c-.11.42-.32.75-.63.98s-.7.35-1.17.35c-.6,0-1.08-.18-1.43-.55-.35-.37-.53-.89-.53-1.55s.18-1.23.53-1.61c.35-.38.82-.57,1.38-.57s1,.19,1.34.56.52.9.52,1.58c0,.04,0,.1,0,.19h-3.06c.03.45.15.8.38,1.04s.52.36.86.36c.25,0,.47-.07.65-.2s.32-.35.43-.64Zm-2.28-1.12h2.29c-.03-.34-.12-.6-.26-.78-.22-.27-.51-.4-.86-.4-.32,0-.59.11-.8.32-.22.21-.34.5-.36.86Z" class="d"/><path d="m123.6,57.65l.69-.11c.04.28.15.49.32.63.18.15.42.22.74.22s.56-.07.71-.2.23-.28.23-.46c0-.16-.07-.28-.21-.37-.1-.06-.33-.14-.71-.24-.51-.13-.86-.24-1.06-.33-.2-.09-.35-.22-.45-.39s-.15-.35-.15-.55c0-.18.04-.35.13-.51.08-.16.2-.29.34-.39.11-.08.26-.15.44-.2.19-.06.39-.08.6-.08.32,0,.61.05.85.14.24.09.42.22.54.38.12.16.2.37.24.64l-.68.09c-.03-.21-.12-.38-.27-.49-.15-.12-.36-.18-.63-.18-.32,0-.55.05-.68.16s-.21.23-.21.37c0,.09.03.17.09.24.06.07.14.14.27.18.07.03.27.08.61.18.49.13.83.24,1.03.32.2.08.35.21.46.36.11.16.17.36.17.59s-.07.45-.2.66c-.13.2-.33.36-.59.47-.25.11-.54.17-.86.17-.53,0-.94-.11-1.22-.33-.28-.22-.46-.55-.54-.99Z" class="d"/><path d="m129.35,58.25l.1.61c-.2.04-.37.06-.52.06-.25,0-.45-.04-.59-.12-.14-.08-.24-.18-.29-.32-.06-.13-.09-.4-.09-.82v-2.36h-.51v-.54h.51v-1.02l.69-.42v1.43h.7v.54h-.7v2.4c0,.2.01.33.04.38.02.06.06.1.12.14.06.03.13.05.24.05.08,0,.18,0,.3-.03Z" class="d"/></g><polygon points="180.57 171.39 180.57 178.58 66.27 178.58 66.27 185.15 46.74 174.99 66.27 164.82 66.27 171.39 180.57 171.39" class="e"/><g><path d="m100.02,182.57l-.69.05c-.06-.27-.15-.47-.26-.59-.19-.2-.42-.3-.7-.3-.22,0-.42.06-.58.19-.22.16-.39.39-.52.7-.12.31-.19.74-.2,1.31.17-.25.37-.44.61-.57.24-.12.5-.19.76-.19.46,0,.86.17,1.18.51.33.34.49.78.49,1.32,0,.36-.08.69-.23.99-.15.3-.36.54-.63.7s-.57.24-.91.24c-.58,0-1.05-.21-1.42-.64-.37-.43-.55-1.13-.55-2.11,0-1.09.2-1.89.61-2.39.35-.43.83-.65,1.42-.65.45,0,.81.12,1.09.38.29.25.46.59.51,1.04Zm-2.84,2.44c0,.24.05.47.15.69s.24.38.43.5c.18.11.38.17.58.17.29,0,.55-.12.76-.36.21-.24.32-.56.32-.97s-.1-.7-.31-.92c-.21-.22-.47-.34-.79-.34s-.58.11-.8.34c-.22.23-.33.52-.33.89Z" class="d"/><path d="m101.2,186.85v-.79h.79v.79h-.79Z" class="d"/><path d="m105.5,186.85v-5.66h2.51c.5,0,.89.05,1.15.15s.47.28.63.54c.16.26.24.54.24.85,0,.4-.13.74-.39,1.02s-.66.45-1.21.52c.2.1.35.19.45.28.22.2.43.45.62.75l.98,1.54h-.94l-.75-1.18c-.22-.34-.4-.6-.54-.78-.14-.18-.27-.31-.38-.38-.11-.07-.23-.12-.34-.15-.08-.02-.22-.03-.42-.03h-.87v2.51h-.75Zm.75-3.16h1.61c.34,0,.61-.04.8-.11.19-.07.34-.18.44-.34.1-.16.15-.33.15-.51,0-.27-.1-.49-.29-.66-.19-.17-.5-.26-.92-.26h-1.79v1.87Z" class="d"/><path d="m113.92,185.53l.72.09c-.11.42-.32.75-.63.98-.31.23-.7.35-1.17.35-.6,0-1.08-.18-1.43-.55-.35-.37-.53-.89-.53-1.55s.18-1.23.53-1.61c.35-.38.82-.57,1.38-.57s1,.19,1.34.56.52.9.52,1.58c0,.04,0,.1,0,.19h-3.06c.03.45.15.8.38,1.04.23.24.52.36.86.36.26,0,.47-.07.65-.2.18-.13.32-.35.43-.64Zm-2.28-1.12h2.29c-.03-.34-.12-.6-.26-.78-.22-.27-.51-.4-.86-.4-.32,0-.59.11-.81.32-.22.21-.34.5-.36.86Z" class="d"/><path d="m115.23,185.62l.69-.11c.04.28.15.49.32.63.18.15.42.22.74.22s.56-.07.71-.2.23-.28.23-.46c0-.16-.07-.28-.21-.37-.09-.06-.33-.14-.71-.24-.51-.13-.86-.24-1.06-.33-.2-.09-.35-.22-.45-.39s-.15-.35-.15-.55c0-.18.04-.35.13-.51.08-.16.2-.29.34-.39.11-.08.26-.15.44-.2.19-.06.39-.08.6-.08.32,0,.6.05.85.14s.42.22.54.38c.12.16.2.37.24.64l-.68.09c-.03-.21-.12-.38-.27-.49-.15-.12-.36-.18-.63-.18-.32,0-.55.05-.68.16s-.2.23-.2.37c0,.09.03.17.08.24.06.07.14.14.27.18.07.03.28.08.62.18.49.13.83.24,1.03.32.19.08.35.21.46.36.11.16.17.36.17.59s-.07.45-.2.66c-.13.2-.33.36-.58.47s-.54.17-.86.17c-.53,0-.94-.11-1.22-.33s-.46-.55-.54-.99Z" class="d"/><path d="m119.46,188.42v-5.67h.63v.53c.15-.21.32-.37.51-.47.19-.1.42-.16.68-.16.35,0,.66.09.93.27.27.18.47.43.61.76.14.33.21.69.21,1.08,0,.42-.08.8-.23,1.13-.15.34-.37.59-.66.77s-.59.27-.9.27c-.23,0-.44-.05-.62-.15-.18-.1-.33-.22-.45-.37v2h-.7Zm.63-3.6c0,.53.11.92.32,1.17.21.25.47.38.78.38s.57-.13.79-.39c.22-.26.33-.67.33-1.21s-.11-.91-.32-1.17c-.21-.26-.47-.39-.77-.39s-.56.14-.79.42c-.23.28-.34.68-.34,1.21Z" class="d"/><path d="m123.6,184.8c0-.76.21-1.32.63-1.69.35-.3.78-.46,1.29-.46.56,0,1.03.18,1.38.55s.54.88.54,1.53c0,.53-.08.94-.24,1.25-.16.3-.39.54-.69.71-.3.17-.63.25-.99.25-.57,0-1.04-.18-1.39-.55s-.53-.9-.53-1.59Zm.71,0c0,.53.11.92.34,1.18.23.26.52.39.86.39s.63-.13.86-.39c.23-.26.34-.66.34-1.2,0-.51-.12-.89-.35-1.15-.23-.26-.52-.39-.86-.39s-.63.13-.86.39-.34.65-.34,1.18Z" class="d"/><path d="m128.26,186.85v-4.1h.63v.58c.3-.45.74-.68,1.31-.68.25,0,.47.04.68.13.21.09.36.21.46.35s.17.32.22.51c.03.13.04.35.04.68v2.52h-.7v-2.5c0-.28-.03-.49-.08-.63-.05-.14-.15-.25-.29-.34-.14-.08-.3-.13-.48-.13-.3,0-.55.09-.77.28-.21.19-.32.54-.32,1.07v2.24h-.7Z" class="d"/><path d="m132.38,185.62l.69-.11c.04.28.15.49.32.63.18.15.42.22.74.22s.56-.07.71-.2.23-.28.23-.46c0-.16-.07-.28-.21-.37-.1-.06-.33-.14-.71-.24-.51-.13-.86-.24-1.06-.33-.2-.09-.35-.22-.45-.39s-.15-.35-.15-.55c0-.18.04-.35.13-.51.08-.16.2-.29.34-.39.11-.08.26-.15.44-.2.19-.06.39-.08.6-.08.32,0,.61.05.85.14.24.09.42.22.54.38.12.16.2.37.24.64l-.68.09c-.03-.21-.12-.38-.27-.49-.15-.12-.36-.18-.63-.18-.32,0-.55.05-.68.16s-.21.23-.21.37c0,.09.03.17.09.24.06.07.14.14.27.18.07.03.27.08.61.18.49.13.83.24,1.03.32.2.08.35.21.46.36.11.16.17.36.17.59s-.07.45-.2.66c-.13.2-.33.36-.59.47-.25.11-.54.17-.86.17-.53,0-.94-.11-1.22-.33-.28-.22-.46-.55-.54-.99Z" class="d"/><path d="m139.42,185.53l.72.09c-.11.42-.32.75-.63.98-.31.23-.7.35-1.17.35-.6,0-1.08-.18-1.43-.55-.35-.37-.53-.89-.53-1.55s.18-1.23.53-1.61.82-.57,1.38-.57,1,.19,1.34.56.52.9.52,1.58c0,.04,0,.1,0,.19h-3.06c.03.45.15.8.38,1.04s.51.36.86.36c.25,0,.47-.07.65-.2s.32-.35.43-.64Zm-2.28-1.12h2.29c-.03-.34-.12-.6-.26-.78-.22-.27-.51-.4-.86-.4-.32,0-.59.11-.81.32s-.34.5-.36.86Z" class="d"/></g><line x1="487.17" x2="401.2" y1="174.99" y2="174.99" class="h"/><polygon points="397.43 174.99 402.46 172.47 401.2 174.99 402.46 177.5 397.43 174.99" class="f"/><polygon points="397.43 174.99 402.46 172.47 401.2 174.99 402.46 177.5 397.43 174.99" class="h"/><rect width="43.86" height="9.35" x="419.89" y="170.31" class="c"/><g><path d="m419.95,176.02l.73-.06c.05.36.18.62.38.8s.44.27.71.27c.33,0,.62-.13.85-.38s.35-.59.35-1-.11-.71-.33-.94-.51-.34-.88-.34c-.22,0-.43.05-.61.15-.18.1-.32.23-.43.4l-.65-.08.55-2.91h2.81v.66h-2.26l-.31,1.52c.34-.24.7-.36,1.07-.36.49,0,.91.17,1.25.51.34.34.51.78.51,1.32s-.15.96-.45,1.33c-.36.46-.86.69-1.49.69-.52,0-.94-.14-1.26-.43-.33-.29-.51-.67-.56-1.15Z" class="d"/><path d="m424.74,177.5v-.79h.79v.79h-.79Z" class="d"/><path d="m429.04,177.5v-5.66h2.51c.51,0,.89.05,1.15.15.26.1.47.28.63.54.16.26.23.54.23.85,0,.4-.13.74-.39,1.02-.26.28-.66.45-1.21.52.2.1.35.19.45.28.22.2.43.45.62.75l.99,1.54h-.94l-.75-1.18c-.22-.34-.4-.6-.54-.78-.14-.18-.27-.31-.38-.38-.11-.07-.23-.12-.34-.15-.08-.02-.22-.03-.42-.03h-.87v2.51h-.75Zm.75-3.16h1.61c.34,0,.61-.04.8-.11.19-.07.34-.18.44-.34.1-.16.15-.33.15-.51,0-.27-.1-.49-.29-.66-.2-.17-.5-.26-.92-.26h-1.79v1.87Z" class="d"/><path d="m437.46,176.18l.72.09c-.11.42-.32.75-.63.98s-.7.35-1.17.35c-.6,0-1.08-.18-1.43-.55-.35-.37-.53-.89-.53-1.55s.18-1.23.53-1.61.82-.57,1.38-.57,1,.19,1.34.56.52.9.52,1.58c0,.04,0,.1,0,.19h-3.06c.03.45.15.8.38,1.04s.52.36.86.36c.25,0,.47-.07.65-.2s.32-.35.43-.64Zm-2.28-1.12h2.29c-.03-.34-.12-.6-.26-.78-.22-.27-.51-.4-.86-.4-.32,0-.59.11-.8.32s-.34.5-.36.86Z" class="d"/><path d="m438.77,176.28l.69-.11c.04.28.15.49.32.63.18.15.42.22.74.22s.56-.07.71-.2.23-.28.23-.46c0-.16-.07-.28-.21-.37-.1-.06-.33-.14-.71-.24-.51-.13-.86-.24-1.06-.33-.2-.09-.35-.22-.45-.39s-.15-.35-.15-.55c0-.18.04-.35.12-.51.08-.16.2-.29.34-.39.11-.08.26-.15.44-.2.19-.06.39-.08.6-.08.32,0,.61.05.85.14.24.09.42.22.54.38.12.16.2.37.24.64l-.68.09c-.03-.21-.12-.38-.27-.49-.15-.12-.36-.18-.63-.18-.32,0-.55.05-.68.16s-.21.23-.21.37c0,.09.03.17.09.24.06.07.14.14.27.18.07.03.27.08.61.18.49.13.84.24,1.03.32.2.08.35.21.46.36.11.16.17.36.17.59s-.07.45-.2.66c-.13.2-.33.36-.59.47-.25.11-.54.17-.87.17-.53,0-.94-.11-1.22-.33s-.46-.55-.54-.99Z" class="d"/><path d="m443,179.07v-5.67h.63v.53c.15-.21.32-.37.51-.47.19-.1.42-.16.68-.16.35,0,.66.09.93.27.27.18.47.43.61.76s.21.69.21,1.08c0,.42-.08.8-.23,1.13s-.37.59-.66.77-.59.27-.91.27c-.23,0-.44-.05-.62-.15-.18-.1-.34-.22-.45-.37v2h-.7Zm.63-3.6c0,.53.11.92.32,1.17.21.25.47.38.78.38s.57-.13.79-.39c.22-.26.33-.67.33-1.21s-.11-.91-.32-1.17c-.21-.26-.47-.39-.77-.39s-.56.14-.79.42c-.23.28-.34.68-.34,1.21Z" class="d"/><path d="m447.14,175.45c0-.76.21-1.32.63-1.69.35-.3.78-.46,1.29-.46.56,0,1.02.18,1.38.55.36.37.54.88.54,1.53,0,.53-.08.94-.24,1.25s-.39.54-.69.71-.63.25-.99.25c-.57,0-1.04-.18-1.39-.55s-.53-.9-.53-1.59Zm.71,0c0,.53.12.92.34,1.18.23.26.52.39.87.39s.63-.13.86-.39c.23-.26.34-.66.34-1.2,0-.51-.12-.89-.35-1.15-.23-.26-.52-.39-.86-.39s-.64.13-.87.39-.34.65-.34,1.18Z" class="d"/><path d="m451.8,177.5v-4.1h.62v.58c.3-.45.74-.68,1.3-.68.25,0,.47.04.68.13s.36.21.46.35c.1.14.18.32.22.51.03.13.04.35.04.68v2.52h-.7v-2.5c0-.28-.03-.49-.08-.63-.05-.14-.15-.25-.29-.34-.14-.08-.3-.13-.48-.13-.29,0-.55.09-.77.28-.21.19-.32.54-.32,1.07v2.24h-.7Z" class="d"/><path d="m455.92,176.28l.69-.11c.04.28.15.49.32.63.18.15.42.22.74.22s.56-.07.71-.2.23-.28.23-.46c0-.16-.07-.28-.2-.37-.1-.06-.33-.14-.71-.24-.51-.13-.86-.24-1.06-.33-.2-.09-.35-.22-.45-.39s-.15-.35-.15-.55c0-.18.04-.35.12-.51.08-.16.2-.29.34-.39.11-.08.26-.15.44-.2.19-.06.39-.08.6-.08.32,0,.6.05.85.14.24.09.42.22.54.38.12.16.2.37.24.64l-.68.09c-.03-.21-.12-.38-.27-.49-.15-.12-.36-.18-.63-.18-.32,0-.55.05-.68.16-.13.11-.2.23-.2.37,0,.09.03.17.08.24.06.07.15.14.27.18.07.03.27.08.61.18.49.13.83.24,1.03.32.19.08.35.21.46.36.11.16.17.36.17.59s-.07.45-.2.66c-.13.2-.33.36-.58.47-.26.11-.54.17-.87.17-.53,0-.94-.11-1.22-.33s-.46-.55-.54-.99Z" class="d"/><path d="m462.96,176.18l.72.09c-.11.42-.32.75-.63.98s-.7.35-1.17.35c-.6,0-1.08-.18-1.43-.55-.35-.37-.53-.89-.53-1.55s.18-1.23.53-1.61.82-.57,1.38-.57,1,.19,1.34.56.52.9.52,1.58c0,.04,0,.1,0,.19h-3.06c.03.45.15.8.38,1.04s.52.36.86.36c.25,0,.47-.07.65-.2s.32-.35.43-.64Zm-2.28-1.12h2.29c-.03-.34-.12-.6-.26-.78-.22-.27-.51-.4-.86-.4-.32,0-.59.11-.8.32s-.34.5-.36.86Z" class="d"/></g><g><path d="m254.54,81.68c-4.55,0-8.82-2.25-11.38-6-2.56-3.77-3.12-8.54-1.46-12.79,1.66-4.24,5.3-7.39,9.74-8.42,4.43-1.03,9.1.21,12.45,3.29l-3.26,3.42c-2.67-2.39-6.48-3-9.74-1.55-3.28,1.45-5.39,4.71-5.39,8.28s2.11,6.82,5.39,8.28c3.28,1.46,7.09.85,9.74-1.55l3.26,3.4c-2.56,2.34-5.89,3.64-9.34,3.64h0Zm11.09-6.9c-1.5,0-1.5-2.25,0-2.25,1.52-.02,1.52,2.25,0,2.25h0Zm-11.17-3.9c-3.97,0-3.97-5.98,0-5.98s3.97,5.98,0,5.98h0Zm12.48.05c-1.01,0-1.5-1.22-.8-1.93.71-.71,1.92-.21,1.92.8,0,.63-.51,1.12-1.12,1.13h0Zm-3.36-.14c-1.5,0-1.5-2.25,0-2.25s1.5,2.25,0,2.25h0Zm3.36-3.66c-1.01,0-1.5-1.22-.8-1.93.71-.71,1.92-.21,1.92.8,0,.63-.51,1.12-1.12,1.13h0Zm-3.36.12c-1.5,0-1.5-2.25,0-2.25,1.5,0,1.5,2.25,0,2.25h0Zm2.13-3.92c-1.5,0-1.5-2.27,0-2.27s1.5,2.27,0,2.27h0Z" class="n"/><path d="m278.71,63.96c0-3.21,1.87-5.07,6.22-5.07,1.6,0,3.21.19,4.78.58l-.37,2.86c-1.41-.26-2.84-.4-4.29-.44-2.28,0-3.03.78-3.03,2.65v6.71c0,1.87.73,2.65,3.03,2.65,1.45-.02,2.88-.17,4.29-.44l.37,2.86c-1.57.38-3.17.58-4.78.58-4.34,0-6.22-1.87-6.22-5.07v-7.86Zm18.06,12.93c-4.39,0-5.56-2.42-5.56-5.02v-3.24c0-2.6,1.19-5.04,5.58-5.04s5.56,2.42,5.56,5.04v3.24c-.02,2.61-1.19,5.02-5.58,5.02h0Zm0-10.58c-1.71,0-2.37.77-2.37,2.21v3.43c0,1.45.66,2.21,2.37,2.21s2.35-.77,2.35-2.21v-3.43c.02-1.43-.64-2.21-2.35-2.21h0Zm15.32,10.34v-8.94c0-.68-.3-1.03-1.03-1.03s-2.18.47-3.35,1.08v8.89h-3.21v-12.79h2.44l.31,1.08c1.6-.8,3.35-1.26,5.12-1.34,2.13,0,2.89,1.5,2.89,3.78v9.27h-3.19Zm9.78.24c-1.5-.02-2.98-.28-4.41-.73l.44-2.44c1.24.35,2.51.54,3.8.56,1.41,0,1.62-.31,1.62-1.31,0-.78-.16-1.19-2.23-1.67-3.12-.77-3.5-1.55-3.5-4.03s1.13-3.7,4.78-3.7c1.29,0,2.58.14,3.83.44l-.28,2.58c-1.17-.21-2.34-.33-3.52-.37-1.39,0-1.62.31-1.62,1.1,0,1.03.09,1.1,1.81,1.55,3.57.94,3.9,1.41,3.9,4.04.02,2.46-.75,3.97-4.62,3.97h0Zm9.94-13.04v8.92c0,.68.28,1.03,1.03,1.03s2.18-.47,3.33-1.08v-8.87h3.21v12.79h-2.44l-.31-1.08c-1.6.8-3.35,1.26-5.12,1.34-2.13,0-2.89-1.5-2.89-3.78v-9.27h3.21Zm10.32,12.79v-18.02l3.21-.44v18.46h-3.21Zm-59.84-21.82v-2.46h-2.25v2.46h-1.15v-5.89h1.15v2.48h2.25v-2.48h1.15v5.89h-1.15Zm5.35,0h-.91l-.09-.28c-.38.24-.84.38-1.31.38-.8,0-1.15-.54-1.15-1.27,0-.87.38-1.2,1.31-1.2h1.06v-.44c0-.47-.14-.63-.87-.63-.42,0-.82.05-1.22.12l-.14-.82c.49-.14,1.01-.21,1.52-.21,1.39,0,1.8.47,1.8,1.53v2.81Zm-1.12-1.62h-.82c-.37,0-.45.09-.45.44s.1.44.44.44c.3,0,.58-.07.84-.21v-.66Zm3.43,1.74c-.52-.02-1.03-.09-1.53-.24l.16-.82c.42.12.85.17,1.31.17.49,0,.56-.1.56-.44s-.05-.4-.77-.56c-1.08-.24-1.2-.52-1.2-1.34s.38-1.24,1.66-1.24c.45,0,.89.05,1.32.14l-.1.87c-.4-.07-.82-.1-1.22-.12-.49,0-.56.1-.56.37,0,.35.03.37.63.52,1.24.31,1.36.47,1.36,1.34-.02.89-.26,1.34-1.6,1.34h0Zm5.09-.09v-3c0-.23-.1-.33-.35-.33-.4.03-.8.16-1.15.35v2.95h-1.12v-5.96l1.12.16v1.9c.51-.24,1.06-.38,1.62-.42.73,0,.99.51.99,1.26v3.09l-1.12.02Zm2.04-4.86v-1.05h1.12v1.05h-1.12Zm0,4.86v-4.25h1.12v4.25h-1.12Zm1.99-4.22c0-1.06.64-1.69,2.18-1.69.56,0,1.1.07,1.64.19l-.12.96c-.49-.09-.99-.14-1.48-.16-.78,0-1.05.26-1.05.87v2.23c0,.63.26.87,1.05.87.51-.02.99-.05,1.48-.14l.12.94c-.54.12-1.1.19-1.64.19-1.52,0-2.18-.63-2.18-1.69v-2.58Zm6.26,4.31c-1.52,0-1.93-.8-1.93-1.67v-1.1c0-.87.4-1.67,1.93-1.67s1.93.8,1.93,1.67v1.06c0,.87-.44,1.71-1.93,1.71h0Zm0-3.52c-.59,0-.82.24-.82.73v1.13c0,.49.23.73.82.73s.82-.26.82-.73v-1.15c0-.49-.23-.73-.82-.73v.02Zm5.06.07c-.4.17-.8.38-1.17.63v2.74h-1.12v-4.25h.94l.07.47c.37-.24.75-.42,1.17-.56l.1.98Zm4.44,1.95c0,.94-.44,1.5-1.46,1.5-.4,0-.8-.05-1.19-.12v1.74l-1.12.16v-6.15h.87l.1.37c.42-.28.91-.44,1.39-.44.89,0,1.36.51,1.36,1.48l.03,1.46Zm-2.65.47c.33.07.64.1.99.12.4,0,.56-.19.56-.58v-1.52c0-.35-.14-.54-.54-.54-.37.02-.71.14-.99.38v2.13h-.02Z"/></g><g><path d="m207.68,127.95h162.2c.34,0,.68.03,1.01.1s.66.16.97.29c.31.13.61.29.89.48.28.19.54.4.78.64.24.24.45.5.64.78.19.28.35.58.48.89.13.31.23.64.29.97.07.33.1.67.1,1.01v75.92c0,.34-.03.68-.1,1.01-.07.33-.16.66-.29.97-.13.31-.29.61-.48.9-.19.28-.4.54-.64.78-.24.24-.5.45-.78.64-.28.19-.58.35-.89.48-.31.13-.64.23-.97.29s-.67.1-1.01.1h-162.2c-.34,0-.68-.03-1.01-.1s-.66-.16-.97-.29c-.31-.13-.61-.29-.89-.48-.28-.19-.54-.4-.78-.64-.24-.24-.45-.5-.64-.78-.19-.28-.35-.58-.48-.89-.13-.31-.23-.64-.29-.97-.07-.33-.1-.67-.1-1.01v-75.92c0-.34.03-.68.1-1.01.07-.33.16-.66.29-.97.13-.31.29-.61.48-.89s.4-.54.64-.78c.24-.24.5-.46.78-.64.28-.19.58-.35.89-.48.31-.13.64-.23.97-.29s.67-.1,1.01-.1Z" class="c"/><path d="m207.68,127.95h162.2c.34,0,.68.03,1.01.1s.66.16.97.29c.31.13.61.29.89.48.28.19.54.4.78.64.24.24.45.5.64.78.19.28.35.58.48.89.13.31.23.64.29.97.07.33.1.67.1,1.01v75.92c0,.34-.03.68-.1,1.01-.07.33-.16.66-.29.97-.13.31-.29.61-.48.9-.19.28-.4.54-.64.78-.24.24-.5.45-.78.64-.28.19-.58.35-.89.48-.31.13-.64.23-.97.29s-.67.1-1.01.1h-162.2c-.34,0-.68-.03-1.01-.1s-.66-.16-.97-.29c-.31-.13-.61-.29-.89-.48-.28-.19-.54-.4-.78-.64-.24-.24-.45-.5-.64-.78-.19-.28-.35-.58-.48-.89-.13-.31-.23-.64-.29-.97-.07-.33-.1-.67-.1-1.01v-75.92c0-.34.03-.68.1-1.01.07-.33.16-.66.29-.97.13-.31.29-.61.48-.89s.4-.54.64-.78c.24-.24.5-.46.78-.64.28-.19.58-.35.89-.48.31-.13.64-.23.97-.29s.67-.1,1.01-.1Z" class="g"/><path d="m217.31,171.09h142.93c.45,0,.87.09,1.28.26.41.17.77.41,1.09.73.31.31.56.68.73,1.09.17.41.26.84.26,1.28v23.84c0,.45-.09.87-.26,1.28-.17.41-.41.77-.73,1.09-.31.31-.68.56-1.09.73-.41.17-.84.26-1.28.26h-142.93c-.45,0-.87-.09-1.28-.26-.41-.17-.77-.41-1.09-.73-.31-.31-.56-.68-.73-1.09-.17-.41-.26-.84-.26-1.28v-23.84c0-.45.09-.87.26-1.28.17-.41.41-.77.73-1.09.31-.31.68-.56,1.09-.73.41-.17.84-.26,1.28-.26Z" class="c"/><path d="m217.31,171.09h142.93c.45,0,.87.09,1.28.26.41.17.77.41,1.09.73.31.31.56.68.73,1.09.17.41.26.84.26,1.28v23.84c0,.45-.09.87-.26,1.28-.17.41-.41.77-.73,1.09-.31.31-.68.56-1.09.73-.41.17-.84.26-1.28.26h-142.93c-.45,0-.87-.09-1.28-.26-.41-.17-.77-.41-1.09-.73-.31-.31-.56-.68-.73-1.09-.17-.41-.26-.84-.26-1.28v-23.84c0-.45.09-.87.26-1.28.17-.41.41-.77.73-1.09.31-.31.68-.56,1.09-.73.41-.17.84-.26,1.28-.26Z" class="g"/><g><path d="m241.26,183.49v-6.18h4.47v.73h-3.65v1.89h3.42v.72h-3.42v2.1h3.79v.73h-4.61Z" class="d"/><path d="m246.4,183.49l1.63-2.33-1.51-2.15h.95l.69,1.05c.13.2.23.37.31.5.12-.19.24-.35.34-.49l.75-1.06h.91l-1.55,2.11,1.66,2.37h-.93l-.92-1.39-.25-.37-1.17,1.76h-.92Z" class="d"/><path d="m252.87,182.82l.11.67c-.21.04-.41.07-.57.07-.27,0-.49-.04-.64-.13s-.26-.2-.32-.34-.09-.44-.09-.9v-2.57h-.56v-.59h.56v-1.11l.75-.46v1.56h.76v.59h-.76v2.62c0,.22.01.35.04.42.03.06.07.11.13.15.06.04.15.05.26.05.08,0,.2,0,.33-.03Z" class="d"/><path d="m256.68,182.05l.78.1c-.12.46-.35.81-.69,1.07s-.76.38-1.28.38c-.65,0-1.17-.2-1.56-.61-.38-.4-.57-.97-.57-1.7s.19-1.34.58-1.75c.39-.42.89-.62,1.51-.62s1.09.2,1.47.61.57.98.57,1.72c0,.04,0,.11,0,.2h-3.34c.03.49.17.87.42,1.13.25.26.56.39.93.39.28,0,.52-.07.71-.22.2-.15.35-.38.47-.7Zm-2.49-1.23h2.5c-.03-.38-.13-.66-.29-.85-.24-.29-.55-.44-.94-.44-.35,0-.64.12-.88.35-.24.23-.37.54-.39.93Z" class="d"/><path d="m258.4,183.49v-4.47h.68v.68c.17-.32.33-.53.48-.63.15-.1.31-.15.49-.15.26,0,.52.08.78.24l-.26.7c-.19-.11-.37-.16-.56-.16-.17,0-.31.05-.45.15-.13.1-.23.24-.28.42-.08.27-.13.56-.13.88v2.34h-.76Z" class="d"/><path d="m261.29,183.49v-4.47h.68v.64c.33-.49.8-.74,1.42-.74.27,0,.52.05.74.15s.4.22.51.38.19.34.24.56c.03.14.04.39.04.74v2.75h-.76v-2.72c0-.31-.03-.54-.09-.69-.06-.15-.16-.28-.31-.37-.15-.09-.33-.14-.53-.14-.32,0-.6.1-.84.31s-.35.59-.35,1.17v2.44h-.76Z" class="d"/><path d="m269,182.94c-.28.24-.55.41-.81.51-.26.1-.54.15-.84.15-.49,0-.87-.12-1.13-.36s-.4-.55-.4-.92c0-.22.05-.42.15-.6.1-.18.23-.33.39-.44.16-.11.34-.19.55-.25.15-.04.37-.08.67-.11.61-.07,1.06-.16,1.35-.26,0-.1,0-.17,0-.2,0-.31-.07-.53-.21-.65-.19-.17-.48-.26-.86-.26-.36,0-.62.06-.79.19-.17.12-.3.35-.38.66l-.74-.1c.07-.32.18-.57.33-.77.16-.2.38-.35.67-.45.29-.11.63-.16,1.02-.16s.69.04.93.13c.24.09.41.2.53.34.11.14.19.31.24.52.03.13.04.36.04.7v1.01c0,.71.02,1.15.05,1.34s.1.37.19.54h-.79c-.08-.16-.13-.34-.15-.55Zm-.06-1.69c-.28.11-.69.21-1.24.29-.31.04-.53.1-.66.15-.13.06-.23.14-.3.25-.07.11-.11.23-.11.36,0,.2.08.37.23.5.15.13.38.2.67.2s.55-.06.78-.19c.23-.13.39-.3.5-.52.08-.17.12-.42.12-.76v-.28Z" class="d"/><path d="m270.87,183.49v-6.18h.76v6.18h-.76Z" class="d"/><path d="m274.62,183.49l2.37-6.18h.88l2.53,6.18h-.93l-.72-1.87h-2.58l-.68,1.87h-.87Zm1.78-2.54h2.09l-.64-1.71c-.2-.52-.34-.95-.44-1.28-.08.4-.19.79-.33,1.18l-.68,1.81Z" class="d"/><path d="m283.88,183.49v-.66c-.35.51-.82.76-1.42.76-.26,0-.51-.05-.74-.15-.23-.1-.4-.23-.51-.38-.11-.15-.19-.34-.23-.56-.03-.15-.05-.38-.05-.71v-2.77h.76v2.48c0,.4.02.66.05.8.05.2.15.36.3.47.15.11.35.17.57.17s.44-.06.64-.17.34-.28.42-.48c.08-.2.12-.49.12-.87v-2.4h.76v4.47h-.68Z" class="d"/><path d="m287.41,182.82l.11.67c-.21.04-.4.07-.57.07-.27,0-.49-.04-.64-.13-.15-.09-.26-.2-.32-.34-.06-.14-.09-.44-.09-.9v-2.57h-.55v-.59h.55v-1.11l.75-.46v1.56h.76v.59h-.76v2.62c0,.22.01.35.04.42.03.06.07.11.13.15.06.04.15.05.26.05.08,0,.2,0,.33-.03Z" class="d"/><path d="m288.15,183.49v-6.18h.76v2.22c.35-.41.8-.62,1.34-.62.33,0,.62.07.86.2.24.13.42.31.52.54s.16.56.16,1v2.83h-.76v-2.83c0-.38-.08-.66-.25-.83-.17-.17-.4-.26-.7-.26-.22,0-.44.06-.63.17-.2.12-.34.27-.42.47-.08.2-.13.47-.13.83v2.45h-.76Z" class="d"/><path d="m292.54,183.49v-.62l2.85-3.27c-.32.02-.61.03-.85.03h-1.82v-.62h3.66v.5l-2.42,2.84-.47.52c.34-.03.66-.04.96-.04h2.07v.65h-3.96Z" class="d"/><path d="m299.77,183.49v-6.18h4.47v.73h-3.65v1.89h3.42v.72h-3.42v2.1h3.79v.73h-4.61Z" class="d"/><path d="m304.9,183.49l1.63-2.33-1.51-2.15h.95l.69,1.05c.13.2.23.37.31.5.12-.19.24-.35.34-.49l.75-1.06h.91l-1.55,2.11,1.66,2.37h-.93l-.92-1.39-.25-.37-1.17,1.76h-.92Z" class="d"/><path d="m311.38,182.82l.11.67c-.21.04-.4.07-.57.07-.27,0-.49-.04-.64-.13-.15-.09-.26-.2-.32-.34-.06-.14-.09-.44-.09-.9v-2.57h-.55v-.59h.55v-1.11l.75-.46v1.56h.76v.59h-.76v2.62c0,.22.01.35.04.42.03.06.07.11.13.15.06.04.15.05.26.05.08,0,.2,0,.33-.03Z" class="d"/><path d="m315.18,182.05l.78.1c-.12.46-.35.81-.69,1.07s-.76.38-1.28.38c-.66,0-1.17-.2-1.56-.61-.38-.4-.58-.97-.58-1.7s.19-1.34.58-1.75c.39-.42.89-.62,1.51-.62s1.09.2,1.47.61c.38.41.57.98.57,1.72,0,.04,0,.11,0,.2h-3.34c.03.49.17.87.42,1.13.25.26.56.39.93.39.28,0,.52-.07.71-.22.2-.15.35-.38.47-.7Zm-2.49-1.23h2.5c-.03-.38-.13-.66-.29-.85-.24-.29-.55-.44-.94-.44-.35,0-.64.12-.88.35-.24.23-.37.54-.39.93Z" class="d"/><path d="m316.92,183.49v-4.47h.68v.64c.33-.49.8-.74,1.42-.74.27,0,.52.05.74.15.23.1.4.22.51.38.11.16.19.34.24.56.03.14.04.39.04.74v2.75h-.76v-2.72c0-.31-.03-.54-.09-.69-.06-.15-.16-.28-.31-.37-.15-.09-.33-.14-.53-.14-.32,0-.6.1-.84.31s-.35.59-.35,1.17v2.44h-.76Z" class="d"/><path d="m321.42,182.16l.75-.12c.04.3.16.53.35.69.19.16.46.24.81.24s.61-.07.77-.21.25-.31.25-.5c0-.17-.07-.31-.22-.4-.1-.07-.36-.15-.78-.26-.56-.14-.94-.26-1.16-.36s-.38-.25-.49-.43c-.11-.18-.17-.38-.17-.6,0-.2.05-.38.14-.55s.22-.31.37-.42c.12-.09.28-.16.48-.22.2-.06.42-.09.66-.09.35,0,.66.05.92.15.27.1.46.24.59.41s.21.4.26.69l-.74.1c-.03-.23-.13-.41-.29-.54-.16-.13-.39-.19-.68-.19-.35,0-.6.06-.75.17-.15.12-.22.25-.22.41,0,.1.03.19.09.26.06.08.16.15.29.2.08.03.3.09.67.19.54.14.91.26,1.12.35.21.09.38.22.5.4.12.17.18.39.18.65s-.07.49-.22.71c-.15.22-.36.4-.64.52-.28.12-.59.18-.94.18-.58,0-1.02-.12-1.33-.36-.3-.24-.5-.6-.58-1.07Z" class="d"/><path d="m326.04,178.19v-.87h.76v.87h-.76Zm0,5.3v-4.47h.76v4.47h-.76Z" class="d"/><path d="m327.67,181.26c0-.83.23-1.44.69-1.84.38-.33.85-.5,1.41-.5.62,0,1.12.2,1.51.6.39.4.58.96.58,1.67,0,.58-.09,1.03-.26,1.36-.17.33-.42.59-.75.77s-.69.27-1.08.27c-.63,0-1.13-.2-1.52-.6-.39-.4-.58-.98-.58-1.74Zm.78,0c0,.57.12,1,.38,1.29s.56.43.94.43.69-.14.94-.43.38-.72.38-1.31c0-.55-.13-.97-.38-1.26s-.56-.43-.94-.43-.69.14-.94.43c-.25.28-.38.71-.38,1.28Z" class="d"/><path d="m332.75,183.49v-4.47h.68v.64c.33-.49.8-.74,1.42-.74.27,0,.52.05.74.15.23.1.39.22.51.38.11.16.19.34.24.56.03.14.04.39.04.74v2.75h-.76v-2.72c0-.31-.03-.54-.09-.69-.06-.15-.16-.28-.31-.37-.15-.09-.33-.14-.53-.14-.32,0-.6.1-.84.31s-.35.59-.35,1.17v2.44h-.76Z" class="d"/><path d="m228.05,190.84c0-1.03.28-1.83.83-2.41.55-.58,1.26-.87,2.13-.87.57,0,1.08.14,1.54.41.46.27.81.65,1.05,1.14.24.49.36,1.04.36,1.66s-.13,1.19-.38,1.68c-.25.49-.61.87-1.07,1.12-.46.25-.96.38-1.5.38-.58,0-1.1-.14-1.56-.42-.46-.28-.8-.66-1.04-1.15-.24-.49-.35-1-.35-1.54Zm.84.01c0,.74.2,1.33.6,1.76.4.43.9.64,1.51.64s1.12-.22,1.52-.65c.4-.43.6-1.05.6-1.84,0-.5-.09-.94-.26-1.32s-.42-.67-.75-.87c-.33-.21-.69-.31-1.1-.31-.58,0-1.08.2-1.49.6-.42.4-.63,1.06-.63,1.99Z" class="d"/><path d="m236.58,193.85v-5.45h-2.04v-.73h4.89v.73h-2.04v5.45h-.82Z" class="d"/><path d="m243.25,192.41l.78.1c-.12.46-.35.81-.69,1.07-.33.25-.76.38-1.28.38-.65,0-1.17-.2-1.56-.61-.38-.4-.58-.97-.58-1.7s.19-1.34.58-1.75c.39-.42.89-.62,1.51-.62s1.09.2,1.47.61.57.98.57,1.72c0,.04,0,.11,0,.2h-3.34c.03.49.17.87.42,1.13.25.26.56.39.94.39.28,0,.52-.07.71-.22.2-.15.35-.38.47-.7Zm-2.49-1.23h2.5c-.03-.38-.13-.66-.29-.85-.24-.29-.55-.44-.94-.44-.35,0-.64.12-.88.35-.24.23-.37.54-.39.93Z" class="d"/><path d="m244.96,193.85v-6.18h.76v6.18h-.76Z" class="d"/><path d="m248.71,193.85l2.37-6.18h.88l2.53,6.18h-.93l-.72-1.87h-2.58l-.68,1.87h-.87Zm1.78-2.54h2.09l-.64-1.71c-.2-.52-.34-.95-.44-1.28-.08.4-.19.79-.33,1.18l-.68,1.81Z" class="d"/><path d="m257.97,192.21l.75.1c-.08.51-.29.92-.62,1.21s-.75.44-1.24.44c-.61,0-1.11-.2-1.48-.6-.37-.4-.56-.97-.56-1.72,0-.48.08-.91.24-1.27s.4-.63.73-.82c.33-.18.68-.27,1.07-.27.49,0,.88.12,1.19.37.31.25.51.59.59,1.05l-.74.11c-.07-.3-.19-.53-.37-.68-.18-.15-.39-.23-.65-.23-.38,0-.69.14-.93.41-.24.27-.36.71-.36,1.3s.12,1.04.35,1.31.53.41.9.41c.3,0,.55-.09.75-.27.2-.18.33-.46.38-.84Z" class="d"/><path d="m262.28,192.21l.75.1c-.08.51-.29.92-.62,1.21-.34.29-.75.44-1.24.44-.61,0-1.1-.2-1.48-.6s-.56-.97-.56-1.72c0-.48.08-.91.24-1.27s.4-.63.73-.82c.33-.18.68-.27,1.07-.27.49,0,.88.12,1.19.37.31.25.51.59.59,1.05l-.74.11c-.07-.3-.2-.53-.37-.68-.18-.15-.39-.23-.65-.23-.38,0-.69.14-.93.41-.24.27-.36.71-.36,1.3s.12,1.04.35,1.31c.23.27.53.41.9.41.3,0,.55-.09.75-.27s.33-.46.38-.84Z" class="d"/><path d="m266.74,192.41l.78.1c-.12.46-.35.81-.69,1.07s-.76.38-1.28.38c-.65,0-1.17-.2-1.56-.61-.38-.4-.57-.97-.57-1.7s.19-1.34.58-1.75c.39-.42.89-.62,1.51-.62s1.09.2,1.47.61.57.98.57,1.72c0,.04,0,.11,0,.2h-3.34c.03.49.17.87.42,1.13.25.26.56.39.93.39.28,0,.52-.07.71-.22.2-.15.35-.38.47-.7Zm-2.49-1.23h2.5c-.03-.38-.13-.66-.29-.85-.24-.29-.55-.44-.94-.44-.35,0-.64.12-.88.35-.24.23-.37.54-.39.93Z" class="d"/><path d="m268.17,192.51l.75-.12c.04.3.16.53.35.69.19.16.46.24.81.24s.61-.07.77-.21.25-.31.25-.5c0-.17-.07-.31-.22-.4-.1-.07-.36-.15-.78-.26-.56-.14-.94-.26-1.16-.36s-.38-.25-.49-.43c-.11-.18-.17-.38-.17-.6,0-.2.05-.38.14-.55s.22-.31.37-.42c.12-.09.28-.16.48-.22.2-.06.42-.09.66-.09.35,0,.66.05.92.15.27.1.46.24.59.41s.21.4.26.69l-.74.1c-.03-.23-.13-.41-.29-.54-.16-.13-.39-.19-.68-.19-.35,0-.6.06-.75.17-.15.12-.22.25-.22.41,0,.1.03.19.09.26.06.08.16.15.29.2.08.03.3.09.67.19.54.14.91.26,1.12.35.21.09.38.22.5.4.12.17.18.39.18.65s-.07.49-.22.71c-.15.22-.36.4-.64.52-.28.12-.59.18-.94.18-.58,0-1.02-.12-1.33-.36-.3-.24-.5-.6-.58-1.07Z" class="d"/><path d="m272.49,192.51l.75-.12c.04.3.16.53.35.69.19.16.46.24.81.24s.61-.07.78-.21.25-.31.25-.5c0-.17-.07-.31-.22-.4-.1-.07-.36-.15-.78-.26-.56-.14-.94-.26-1.16-.36s-.38-.25-.49-.43c-.11-.18-.17-.38-.17-.6,0-.2.04-.38.14-.55s.21-.31.37-.42c.12-.09.28-.16.48-.22.2-.06.42-.09.65-.09.35,0,.66.05.93.15.26.1.46.24.59.41s.21.4.26.69l-.74.1c-.03-.23-.13-.41-.29-.54-.16-.13-.39-.19-.69-.19-.35,0-.6.06-.75.17-.15.12-.22.25-.22.41,0,.1.03.19.09.26.06.08.16.15.29.2.08.03.3.09.67.19.54.14.91.26,1.12.35.21.09.38.22.5.4.12.17.18.39.18.65s-.07.49-.22.71c-.15.22-.36.4-.64.52s-.59.18-.94.18c-.58,0-1.02-.12-1.33-.36-.3-.24-.5-.6-.58-1.07Z" class="d"/><path d="m279.56,193.85v-6.18h.82v5.45h3.04v.73h-3.86Z" class="d"/><path d="m284.02,191.61c0-.83.23-1.44.69-1.84.38-.33.85-.5,1.41-.5.62,0,1.12.2,1.51.6.39.4.59.96.59,1.67,0,.58-.09,1.03-.26,1.36-.17.33-.42.59-.75.77s-.69.27-1.08.27c-.63,0-1.13-.2-1.52-.6-.39-.4-.58-.98-.58-1.74Zm.78,0c0,.57.12,1,.38,1.29s.56.43.94.43.69-.14.94-.43.38-.72.38-1.31c0-.55-.13-.97-.38-1.26-.25-.29-.56-.43-.94-.43s-.69.14-.94.43c-.25.28-.38.71-.38,1.28Z" class="d"/><path d="m288.96,194.22l.74.11c.03.23.12.39.26.5.19.14.45.21.77.21.35,0,.62-.07.81-.21.19-.14.32-.34.39-.59.04-.15.06-.48.05-.97-.33.39-.74.59-1.24.59-.62,0-1.09-.22-1.43-.67-.34-.44-.51-.98-.51-1.6,0-.43.08-.82.23-1.18.15-.36.38-.64.67-.84.29-.2.64-.29,1.03-.29.53,0,.96.21,1.31.64v-.54h.7v3.87c0,.7-.07,1.19-.21,1.48-.14.29-.37.52-.67.69-.31.17-.69.25-1.13.25-.53,0-.96-.12-1.29-.36-.33-.24-.49-.6-.48-1.08Zm.63-2.69c0,.59.12,1.02.35,1.29.23.27.53.4.88.4s.64-.13.88-.4c.24-.27.35-.69.35-1.26s-.12-.96-.36-1.24c-.24-.28-.54-.42-.88-.42s-.62.14-.86.41c-.24.27-.35.68-.35,1.22Z" class="d"/><path d="m293.76,194.22l.74.11c.03.23.12.39.26.5.19.14.45.21.77.21.35,0,.62-.07.81-.21s.32-.34.39-.59c.04-.15.06-.48.05-.97-.33.39-.74.59-1.24.59-.62,0-1.09-.22-1.43-.67-.34-.44-.51-.98-.51-1.6,0-.43.08-.82.23-1.18.15-.36.38-.64.67-.84s.64-.29,1.03-.29c.53,0,.96.21,1.31.64v-.54h.7v3.87c0,.7-.07,1.19-.21,1.48-.14.29-.37.52-.67.69-.31.17-.69.25-1.14.25-.53,0-.96-.12-1.29-.36-.33-.24-.49-.6-.48-1.08Zm.63-2.69c0,.59.12,1.02.35,1.29.23.27.53.4.88.4s.64-.13.88-.4c.24-.27.35-.69.35-1.26s-.12-.96-.36-1.24c-.24-.28-.54-.42-.88-.42s-.62.14-.86.41c-.24.27-.35.68-.35,1.22Z" class="d"/><path d="m298.7,188.54v-.87h.76v.87h-.76Zm0,5.3v-4.47h.76v4.47h-.76Z" class="d"/><path d="m300.61,193.85v-4.47h.68v.64c.33-.49.8-.74,1.42-.74.27,0,.52.05.74.15.23.1.39.22.51.38.11.16.19.34.24.56.03.14.04.39.04.74v2.75h-.76v-2.72c0-.31-.03-.54-.09-.69-.06-.15-.16-.28-.31-.37-.15-.09-.33-.14-.53-.14-.32,0-.6.1-.84.31s-.35.59-.35,1.17v2.44h-.76Z" class="d"/><path d="m305.27,194.22l.74.11c.03.23.12.39.26.5.19.14.45.21.77.21.35,0,.62-.07.81-.21.19-.14.32-.34.39-.59.04-.15.06-.48.05-.97-.33.39-.74.59-1.24.59-.62,0-1.09-.22-1.43-.67-.34-.44-.51-.98-.51-1.6,0-.43.08-.82.23-1.18.15-.36.38-.64.67-.84.29-.2.64-.29,1.04-.29.53,0,.96.21,1.31.64v-.54h.7v3.87c0,.7-.07,1.19-.21,1.48s-.37.52-.67.69c-.31.17-.69.25-1.14.25-.53,0-.96-.12-1.29-.36-.33-.24-.49-.6-.48-1.08Zm.63-2.69c0,.59.12,1.02.35,1.29.23.27.52.4.88.4s.64-.13.88-.4c.24-.27.35-.69.35-1.26s-.12-.96-.36-1.24-.54-.42-.88-.42-.62.14-.86.41c-.24.27-.35.68-.35,1.22Z" class="d"/><path d="m312.72,193.85v-6.18h4.46v.73h-3.65v1.89h3.42v.72h-3.42v2.1h3.79v.73h-4.61Z" class="d"/><path d="m317.85,193.85l1.63-2.33-1.51-2.15h.95l.69,1.05c.13.2.23.37.31.5.12-.19.24-.35.34-.49l.75-1.06h.91l-1.55,2.11,1.66,2.37h-.93l-.92-1.39-.24-.37-1.18,1.76h-.92Z" class="d"/><path d="m324.33,193.17l.11.67c-.21.04-.4.07-.57.07-.28,0-.49-.04-.64-.13s-.26-.2-.32-.34c-.06-.14-.09-.44-.09-.9v-2.57h-.56v-.59h.56v-1.11l.75-.46v1.56h.76v.59h-.76v2.62c0,.22.01.35.04.42.03.06.07.11.13.15.06.04.15.05.26.05.08,0,.2,0,.33-.03Z" class="d"/><path d="m328.13,192.41l.78.1c-.12.46-.35.81-.69,1.07-.33.25-.76.38-1.28.38-.65,0-1.17-.2-1.56-.61-.38-.4-.58-.97-.58-1.7s.19-1.34.58-1.75c.39-.42.89-.62,1.51-.62s1.09.2,1.47.61.57.98.57,1.72c0,.04,0,.11,0,.2h-3.34c.03.49.17.87.42,1.13.25.26.56.39.94.39.28,0,.52-.07.71-.22.2-.15.35-.38.47-.7Zm-2.49-1.23h2.5c-.03-.38-.13-.66-.29-.85-.24-.29-.55-.44-.94-.44-.35,0-.64.12-.88.35-.24.23-.37.54-.39.93Z" class="d"/><path d="m329.87,193.85v-4.47h.68v.64c.33-.49.8-.74,1.42-.74.27,0,.52.05.74.15s.4.22.51.38.19.34.24.56c.03.14.04.39.04.74v2.75h-.76v-2.72c0-.31-.03-.54-.09-.69-.06-.15-.16-.28-.31-.37-.15-.09-.33-.14-.53-.14-.32,0-.6.1-.84.31s-.35.59-.35,1.17v2.44h-.76Z" class="d"/><path d="m334.36,192.51l.75-.12c.04.3.16.53.35.69s.46.24.81.24.61-.07.78-.21c.17-.14.25-.31.25-.5,0-.17-.07-.31-.22-.4-.1-.07-.36-.15-.78-.26-.56-.14-.94-.26-1.16-.36s-.38-.25-.49-.43c-.11-.18-.17-.38-.17-.6,0-.2.05-.38.14-.55.09-.17.21-.31.37-.42.12-.09.28-.16.48-.22s.42-.09.66-.09c.35,0,.66.05.92.15.26.1.46.24.59.41.13.17.21.4.26.69l-.74.1c-.03-.23-.13-.41-.29-.54s-.39-.19-.68-.19c-.35,0-.6.06-.75.17-.15.12-.22.25-.22.41,0,.1.03.19.09.26.06.08.16.15.29.2.08.03.3.09.67.19.54.14.91.26,1.12.35.21.09.38.22.5.4.12.17.18.39.18.65s-.07.49-.22.71c-.15.22-.36.4-.64.52-.28.12-.59.18-.94.18-.58,0-1.02-.12-1.33-.36-.3-.24-.5-.6-.58-1.07Z" class="d"/><path d="m338.98,188.54v-.87h.76v.87h-.76Zm0,5.3v-4.47h.76v4.47h-.76Z" class="d"/><path d="m340.61,191.61c0-.83.23-1.44.69-1.84.38-.33.85-.5,1.41-.5.62,0,1.12.2,1.51.6.39.4.59.96.59,1.67,0,.58-.09,1.03-.26,1.36s-.42.59-.75.77-.69.27-1.08.27c-.63,0-1.13-.2-1.52-.6-.39-.4-.58-.98-.58-1.74Zm.78,0c0,.57.12,1,.38,1.29s.56.43.94.43.69-.14.94-.43.38-.72.38-1.31c0-.55-.12-.97-.38-1.26s-.56-.43-.94-.43-.69.14-.94.43c-.25.28-.38.71-.38,1.28Z" class="d"/><path d="m345.69,193.85v-4.47h.68v.64c.33-.49.8-.74,1.42-.74.27,0,.52.05.74.15.23.1.4.22.51.38.11.16.19.34.24.56.03.14.04.39.04.74v2.75h-.76v-2.72c0-.31-.03-.54-.09-.69-.06-.15-.16-.28-.31-.37-.15-.09-.33-.14-.53-.14-.32,0-.6.1-.84.31s-.35.59-.35,1.17v2.44h-.76Z" class="d"/></g><g><path d="m275.2,159.66c0,.24.05.47.16.67s.25.37.42.52c.18.14.37.25.6.33s.47.12.71.12c.33,0,.63-.08.87-.23s.47-.36.68-.62l.81.62c-.59.77-1.43,1.15-2.5,1.15-.44,0-.85-.08-1.21-.23s-.67-.36-.91-.63c-.25-.26-.44-.58-.57-.93-.13-.36-.2-.75-.2-1.18s.08-.81.22-1.18.35-.67.6-.93.56-.47.92-.63c.35-.15.75-.23,1.17-.23.49,0,.92.09,1.26.26s.63.41.85.68c.22.29.38.59.48.96.1.35.15.71.15,1.08v.38h-4.54Zm3.39-.85c-.01-.24-.04-.45-.11-.65s-.16-.37-.31-.52c-.13-.14-.31-.26-.51-.34-.2-.09-.44-.12-.7-.12s-.51.05-.71.15c-.22.1-.41.23-.55.38-.15.15-.26.33-.35.53s-.12.38-.12.57h3.36Zm2.07-2.36h1.07v.87h.02c.13-.3.37-.55.7-.73.33-.19.71-.27,1.15-.27.27,0,.53.04.78.12.25.09.47.21.65.38.19.18.33.4.45.67.11.27.16.59.16.97v3.63h-1.07v-3.33c0-.26-.03-.48-.11-.67-.07-.19-.16-.34-.29-.45s-.25-.2-.41-.25-.32-.08-.48-.08c-.22,0-.43.03-.62.11s-.35.19-.49.34-.25.35-.33.59-.12.52-.12.85v2.9h-1.07v-5.65h-.01Zm6.57,0l1.68,4.32,1.62-4.32h1.14l-2.21,5.64h-1.18l-2.3-5.64h1.24Zm4.52,2.83c0-.41.08-.79.23-1.15.15-.35.36-.67.64-.93s.58-.48.96-.64c.36-.15.76-.23,1.18-.23s.81.08,1.18.23.68.36.96.64c.26.27.48.58.64.93s.23.74.23,1.15-.08.8-.23,1.15c-.15.36-.36.67-.64.93s-.58.47-.96.63c-.36.15-.76.23-1.18.23s-.81-.08-1.18-.23-.68-.36-.96-.63-.48-.58-.64-.93c-.15-.36-.23-.75-.23-1.15m1.13,0c0,.29.04.55.13.79s.21.45.37.62c.15.18.35.31.58.41s.48.15.77.15.54-.04.77-.15c.23-.1.43-.23.58-.41.15-.16.29-.37.37-.62s.13-.51.13-.79-.04-.55-.13-.79-.21-.45-.37-.62c-.15-.16-.35-.31-.58-.41s-.48-.15-.77-.15-.54.05-.77.15-.43.23-.58.41-.29.37-.37.62-.13.51-.13.79m4.94-2.83h1.23l1.67,4.4h.02l1.6-4.4h1.14l-2.67,6.85-.3.67c-.1.2-.22.37-.36.52s-.32.25-.52.33-.45.12-.74.12c-.15,0-.32-.01-.48-.03s-.32-.07-.47-.12l.13-.98c.21.09.43.13.64.13.16,0,.31-.02.42-.07s.21-.11.3-.19c.09-.09.15-.18.21-.29s.11-.24.16-.38l.35-.89-2.34-5.67Z" class="j"/><path d="m284.16,147.4l-.03-1.5-1.57-.98.03,1.5,1.57.98Zm2.23,3.74l-.03-1.46-1.37-.86s-.04-.03-.05-.04l.03,1.47,1.43.89Zm-4.91,1.97l-3.59-2.23-.09-3.74,1.76-.76-.03-1.5-2.81,1.21c-.22.1-.35.3-.34.53l.11,4.49c0,.23.14.46.36.59l4.31,2.67c.2.12.44.15.65.1.02-.01.04-.01.07-.02l2.65-1.14-1.44-.89-1.59.69Z" class="o"/><path d="m293.1,144.84c-.01-.26-.16-.54-.43-.69l-5.23-3.24-.16.07.03,1.57,4.14,2.57.1,4.2,1.58.98.09-.03-.12-5.42Zm-6.27,7.38l-4.87-3.01-.12-5.06,2.22-.96-.04-1.75-3.44,1.48c-.25.11-.41.34-.4.62l.14,5.94c0,.27.16.54.43.69l5.71,3.54c.23.14.52.19.76.11.02-.01.04-.02.07-.02l3.36-1.45-1.67-1.03-2.14.9Z" class="l"/><path d="m300.52,140.69l-7.31-4.53c-.27-.16-.59-.21-.87-.12-.02.01-.05.02-.08.03l-7.13,3.08c-.29.12-.46.38-.45.7l.18,7.61c.01.31.2.62.49.79l7.31,4.53c.26.16.59.21.87.12.02-.01.05-.02.08-.03l7.13-3.08c.29-.12.46-.4.45-.7l-.18-7.61c-.01-.31-.2-.6-.49-.79m-7.43,10.39l-6.35-3.94-.15-6.61,6.2-2.67,6.35,3.94.15,6.61-6.2,2.67Z" class="m"/></g></g></svg>