<svg width="3075" height="1315" xmlns="http://www.w3.org/2000/svg" xmlns:xlink="http://www.w3.org/1999/xlink" xml:space="preserve" overflow="hidden"><g transform="translate(-105 -293)"><g><path d="M0.009854-1.71872 789.101 2.8054 789.082 6.24285-0.009854 1.71872ZM784.587-9.25193 812.008 4.65551 784.429 18.2476Z" fill="#8EC4AD" fill-rule="nonzero" fill-opacity="1" transform="matrix(1 -1.22465e-16 -1.22465e-16 -1 490.5 971.156)"/><path d="M107.5 1046.5C107.5 937.148 196.148 848.5 305.5 848.5 414.852 848.5 503.5 937.148 503.5 1046.5 503.5 1155.85 414.852 1244.5 305.5 1244.5 196.148 1244.5 107.5 1155.85 107.5 1046.5Z" stroke="#312D2B" stroke-width="3.4375" stroke-linecap="butt" stroke-linejoin="round" stroke-miterlimit="10" stroke-opacity="1" fill="#F27A40" fill-rule="evenodd" fill-opacity="1"/><text fill="#000000" fill-opacity="1" font-family="Arial,Arial_MSFontService,sans-serif" font-style="normal" font-variant="normal" font-weight="400" font-stretch="normal" font-size="55" text-anchor="start" direction="ltr" writing-mode="lr-tb" unicode-bidi="normal" text-decoration="none" transform="matrix(1 0 0 1 224.209 1066)">User 2</text><path d="M18.3415-1.62042 827.824 2.72025 827.806 6.1577 18.323 1.81703ZM18.3331 0.0983072 27.4259 13.8973 0 0 27.5733-13.6023Z" fill="#F27A40" fill-rule="nonzero" fill-opacity="1" transform="matrix(1 -1.22465e-16 -1.22465e-16 -1 477.5 1144.94)"/><text fill="#8EC4AD" fill-opacity="1" font-family="Arial,Arial_MSFontService,sans-serif" font-style="italic" font-variant="normal" font-weight="400" font-stretch="normal" font-size="46" text-anchor="start" direction="ltr" writing-mode="lr-tb" unicode-bidi="normal" text-decoration="none" transform="matrix(1 0 0 1 809.328 928)">Requests</text><text fill="#F27A40" fill-opacity="1" font-family="Arial,Arial_MSFontService,sans-serif" font-style="italic" font-variant="normal" font-weight="400" font-stretch="normal" font-size="46" text-anchor="start" direction="ltr" writing-mode="lr-tb" unicode-bidi="normal" text-decoration="none" transform="matrix(1 0 0 1 657.506 1080)">429 Too Many Requests</text><path d="M2528.5 393.668C2528.5 352.706 2561.71 319.5 2602.67 319.5L3090.33 319.5C3131.29 319.5 3164.5 352.706 3164.5 393.668L3164.5 690.332C3164.5 731.294 3131.29 764.5 3090.33 764.5L2602.67 764.5C2561.71 764.5 2528.5 731.294 2528.5 690.332Z" stroke="#312D2B" stroke-width="3.4375" stroke-linecap="butt" stroke-linejoin="round" stroke-miterlimit="10" stroke-opacity="1" fill="#ECB43F" fill-rule="evenodd" fill-opacity="1"/><text fill="#000000" fill-opacity="1" font-family="Arial,Arial_MSFontService,sans-serif" font-style="normal" font-variant="normal" font-weight="400" font-stretch="normal" font-size="55" text-anchor="start" direction="ltr" writing-mode="lr-tb" unicode-bidi="normal" text-decoration="none" transform="matrix(1 0 0 1 2754.83 562)">Service</text><path d="M0.00584748-1.71874 422.611-0.280959 422.599 3.15652-0.00584748 1.71874ZM418.069-12.3277 445.522 1.51575 417.975 15.1721Z" fill="#8EC4AD" fill-rule="nonzero" fill-opacity="1" transform="matrix(1 -1.22465e-16 -1.22465e-16 -1 2082.5 544.016)"/><text fill="#8EC4AD" fill-opacity="1" font-family="Arial,Arial_MSFontService,sans-serif" font-style="italic" font-variant="normal" font-weight="400" font-stretch="normal" font-size="46" text-anchor="start" direction="ltr" writing-mode="lr-tb" unicode-bidi="normal" text-decoration="none" transform="matrix(1 0 0 1 2201.27 481)">Forwarded </text><text fill="#8EC4AD" fill-opacity="1" font-family="Arial,Arial_MSFontService,sans-serif" font-style="italic" font-variant="normal" font-weight="400" font-stretch="normal" font-size="46" text-anchor="start" direction="ltr" writing-mode="lr-tb" unicode-bidi="normal" text-decoration="none" transform="matrix(1 0 0 1 2214.17 534)">Requests</text><rect x="1305.5" y="331.5" width="781" height="986" stroke="#312D2B" stroke-width="3.4375" stroke-linecap="butt" stroke-linejoin="round" stroke-miterlimit="10" stroke-opacity="1" fill="#68A7D9" fill-opacity="1"/><path d="M1476.5 934C1476.5 962.443 1574.77 985.5 1696 985.5 1817.23 985.5 1915.5 962.443 1915.5 934L1915.5 1243C1915.5 1271.44 1817.23 1294.5 1696 1294.5 1574.77 1294.5 1476.5 1271.44 1476.5 1243Z" fill="#8F8E8D" fill-rule="evenodd" fill-opacity="1"/><path d="M1476.5 934C1476.5 905.557 1574.77 882.5 1696 882.5 1817.23 882.5 1915.5 905.557 1915.5 934 1915.5 962.443 1817.23 985.5 1696 985.5 1574.77 985.5 1476.5 962.443 1476.5 934Z" fill="#BCBBBB" fill-rule="evenodd" fill-opacity="1"/><path d="M1915.5 934C1915.5 962.443 1817.23 985.5 1696 985.5 1574.77 985.5 1476.5 962.443 1476.5 934 1476.5 905.557 1574.77 882.5 1696 882.5 1817.23 882.5 1915.5 905.557 1915.5 934L1915.5 1243C1915.5 1271.44 1817.23 1294.5 1696 1294.5 1574.77 1294.5 1476.5 1271.44 1476.5 1243L1476.5 934" stroke="#312D2B" stroke-width="3.4375" stroke-linecap="butt" stroke-linejoin="round" stroke-miterlimit="10" stroke-opacity="1" fill="none" fill-rule="evenodd"/><text fill="#000000" fill-opacity="1" font-family="Arial,Arial_MSFontService,sans-serif" font-style="normal" font-variant="normal" font-weight="400" font-stretch="normal" font-size="55" text-anchor="start" direction="ltr" writing-mode="lr-tb" unicode-bidi="normal" text-decoration="none" transform="matrix(1 0 0 1 1584.45 1134)">Counters</text><text fill="#000000" fill-opacity="1" font-family="Arial,Arial_MSFontService,sans-serif" font-style="normal" font-variant="normal" font-weight="400" font-stretch="normal" font-size="55" text-anchor="start" direction="ltr" writing-mode="lr-tb" unicode-bidi="normal" text-decoration="none" transform="matrix(1 0 0 1 1529.27 511)">API Gateway</text><path d="M2793.33 1102.03 2793.33 1380.44" stroke="#9E9E9E" stroke-width="3.4375" stroke-linecap="butt" stroke-linejoin="round" stroke-miterlimit="10" stroke-opacity="1" fill="none" fill-rule="evenodd"/><path d="M2411.81 1246.73 3174.84 1246.73" stroke="#9E9E9E" stroke-width="3.4375" stroke-linecap="butt" stroke-linejoin="round" stroke-miterlimit="10" stroke-opacity="1" fill="none" fill-rule="evenodd"/><path d="M2413.53 1102.03 2413.53 1380.44" stroke="#9E9E9E" stroke-width="3.4375" stroke-linecap="butt" stroke-linejoin="round" stroke-miterlimit="10" stroke-opacity="1" fill="none" fill-rule="evenodd"/><path d="M3173.12 1102.03 3173.12 1380.44" stroke="#9E9E9E" stroke-width="3.4375" stroke-linecap="butt" stroke-linejoin="round" stroke-miterlimit="10" stroke-opacity="1" fill="none" fill-rule="evenodd"/><path d="M2411.81 1103.74 3174.84 1103.74" stroke="#9E9E9E" stroke-width="3.4375" stroke-linecap="butt" stroke-linejoin="round" stroke-miterlimit="10" stroke-opacity="1" fill="none" fill-rule="evenodd"/><path d="M2411.81 1378.72 3174.84 1378.72" stroke="#9E9E9E" stroke-width="3.4375" stroke-linecap="butt" stroke-linejoin="round" stroke-miterlimit="10" stroke-opacity="1" fill="none" fill-rule="evenodd"/><text fill="#68A7D9" fill-opacity="1" font-family="Arial,Arial_MSFontService,sans-serif" font-style="normal" font-variant="normal" font-weight="400" font-stretch="normal" font-size="55" text-anchor="start" direction="ltr" writing-mode="lr-tb" unicode-bidi="normal" text-decoration="none" transform="matrix(1 0 0 1 2952.86 1190)">24</text><text fill="#68A7D9" fill-opacity="1" font-family="Arial,Arial_MSFontService,sans-serif" font-style="normal" font-variant="normal" font-weight="400" font-stretch="normal" font-size="55" text-anchor="start" direction="ltr" writing-mode="lr-tb" unicode-bidi="normal" text-decoration="none" transform="matrix(1 0 0 1 2522.65 1190)">User 1</text><text fill="#68A7D9" fill-opacity="1" font-family="Arial,Arial_MSFontService,sans-serif" font-style="normal" font-variant="normal" font-weight="400" font-stretch="normal" font-size="55" text-anchor="start" direction="ltr" writing-mode="lr-tb" unicode-bidi="normal" text-decoration="none" transform="matrix(1 0 0 1 2922.49 1333)">2256</text><text fill="#68A7D9" fill-opacity="1" font-family="Arial,Arial_MSFontService,sans-serif" font-style="normal" font-variant="normal" font-weight="400" font-stretch="normal" font-size="55" text-anchor="start" direction="ltr" writing-mode="lr-tb" unicode-bidi="normal" text-decoration="none" transform="matrix(1 0 0 1 2522.65 1333)">User 2</text><path d="M1915.79 1086.81 2392.2 1167.74 2391.63 1171.13 1915.21 1090.19ZM2389.7 1155.11 2414.51 1173.27 2385.09 1182.22Z" fill="#F27A40" fill-rule="nonzero" fill-opacity="1"/><path d="M1916.18 1086.92 2396.07 1292.38 2394.71 1295.54 1914.82 1090.08ZM2396.59 1279.51 2416.45 1302.98 2385.76 1304.8Z" fill="#F27A40" fill-rule="nonzero" fill-opacity="1"/><path d="M0.0163402-1.71867 797.011 5.85872 796.978 9.29607-0.0163402 1.71867ZM792.543-6.21555 819.911 7.79528 792.282 21.2832Z" fill="#8EC4AD" fill-rule="nonzero" fill-opacity="1" transform="matrix(1 -1.22465e-16 -1.22465e-16 -1 487.5 413.295)"/><path d="M107.5 496.5C107.5 387.147 196.148 298.5 305.5 298.5 414.852 298.5 503.5 387.147 503.5 496.5 503.5 605.852 414.852 694.5 305.5 694.5 196.148 694.5 107.5 605.852 107.5 496.5Z" stroke="#312D2B" stroke-width="3.4375" stroke-linecap="butt" stroke-linejoin="round" stroke-miterlimit="10" stroke-opacity="1" fill="#8EC4AD" fill-rule="evenodd" fill-opacity="1"/><text fill="#000000" fill-opacity="1" font-family="Arial,Arial_MSFontService,sans-serif" font-style="normal" font-variant="normal" font-weight="400" font-stretch="normal" font-size="55" text-anchor="start" direction="ltr" writing-mode="lr-tb" unicode-bidi="normal" text-decoration="none" transform="matrix(1 0 0 1 224.209 516)">User 1</text><path d="M18.3393-1.64813 815.263 1.42103 815.249 4.8585 18.3261 1.78934ZM18.3332 0.0706058 27.4468 13.8558 0 0 27.5528-13.644Z" fill="#8EC4AD" fill-rule="nonzero" fill-opacity="1" transform="matrix(1 -1.22465e-16 -1.22465e-16 -1 488.5 563.64)"/><text fill="#8EC4AD" fill-opacity="1" font-family="Arial,Arial_MSFontService,sans-serif" font-style="italic" font-variant="normal" font-weight="400" font-stretch="normal" font-size="46" text-anchor="start" direction="ltr" writing-mode="lr-tb" unicode-bidi="normal" text-decoration="none" transform="matrix(1 0 0 1 809.328 378)">Requests</text><text fill="#8EC4AD" fill-opacity="1" font-family="Arial,Arial_MSFontService,sans-serif" font-style="italic" font-variant="normal" font-weight="400" font-stretch="normal" font-size="46" text-anchor="start" direction="ltr" writing-mode="lr-tb" unicode-bidi="normal" text-decoration="none" transform="matrix(1 0 0 1 828.516 522)">200 OK</text><text fill="#8EC4AD" fill-opacity="1" font-family="Arial,Arial_MSFontService,sans-serif" font-style="normal" font-variant="normal" font-weight="400" font-stretch="normal" font-size="64" text-anchor="start" direction="ltr" writing-mode="lr-tb" unicode-bidi="normal" text-decoration="none" transform="matrix(1 0 0 1 1326.3 1554)">Per</text><text fill="#8EC4AD" fill-opacity="1" font-family="Arial,Arial_MSFontService,sans-serif" font-style="normal" font-variant="normal" font-weight="400" font-stretch="normal" font-size="64" text-anchor="start" direction="ltr" writing-mode="lr-tb" unicode-bidi="normal" text-decoration="none" transform="matrix(1 0 0 1 1425.99 1554)">-</text><text fill="#8EC4AD" fill-opacity="1" font-family="Arial,Arial_MSFontService,sans-serif" font-style="normal" font-variant="normal" font-weight="400" font-stretch="normal" font-size="64" text-anchor="start" direction="ltr" writing-mode="lr-tb" unicode-bidi="normal" text-decoration="none" transform="matrix(1 0 0 1 1447.19 1554)">User Rate Limiting</text></g></g></svg>