<?xml version="1.0" encoding="UTF-8"?>
<svg xmlns="http://www.w3.org/2000/svg" viewBox="0 0 600 400">
  <defs>
    <style>
      .c {
        fill: #c7c4c1;
      }

      .d {
        fill: #2d333e;
      }

      .e {
        fill: #56524d;
      }

      .f {
        fill: #2e2b29;
      }

      .g {
        stroke-miterlimit: 10;
      }

      .g, .h {
        stroke: #868079;
      }

      .g, .h, .i {
        fill: none;
        stroke-width: .72px;
      }

      .j {
        fill: #8ec4ad;
      }

      .i {
        stroke: #bfded1;
      }

      .k {
        fill: #403d3a;
      }

      .l {
        fill: #868079;
      }

      .m {
        fill: #1d1d1b;
      }
    </style>
  </defs>
  <g id="a" data-name="bg">
    <rect class="f" x="-2519.04" y="-50" width="4090.86" height="500"/>
  </g>
  <g id="b" data-name="Warstwa 1">
    <g>
      <path class="m" d="m423.8,345.32l2.37-6.18h.88l2.53,6.18h-.93l-.72-1.87h-2.58l-.68,1.87h-.87Zm1.78-2.54h2.09l-.64-1.71c-.2-.52-.34-.95-.44-1.28-.08.4-.19.79-.33,1.18l-.68,1.81Z"/>
      <path class="m" d="m430.14,347.04v-6.19h.69v.58c.16-.23.35-.4.55-.51.21-.11.45-.17.75-.17.38,0,.72.1,1.01.29s.51.47.66.83.22.75.22,1.18c0,.46-.08.87-.25,1.24-.16.37-.4.65-.72.84-.31.2-.64.29-.99.29-.25,0-.48-.05-.68-.16-.2-.11-.37-.24-.5-.4v2.18h-.76Zm.69-3.93c0,.58.12,1,.35,1.28.23.28.51.41.85.41s.62-.14.87-.43.36-.73.36-1.33-.12-1-.35-1.28c-.23-.28-.51-.43-.84-.43s-.61.15-.86.45c-.25.3-.37.74-.37,1.32Z"/>
      <path class="m" d="m438,343.88l.78.1c-.12.46-.35.81-.69,1.07-.33.25-.76.38-1.28.38-.65,0-1.17-.2-1.56-.6-.38-.4-.57-.97-.57-1.7s.19-1.34.58-1.75c.39-.42.89-.62,1.51-.62s1.09.2,1.47.61c.38.41.57.98.57,1.72,0,.05,0,.11,0,.2h-3.34c.03.49.17.87.42,1.13.25.26.56.39.94.39.28,0,.51-.07.71-.22.2-.15.35-.38.47-.7Zm-2.49-1.23h2.5c-.03-.38-.13-.66-.29-.85-.24-.29-.55-.44-.94-.44-.35,0-.64.12-.88.35-.24.23-.37.54-.39.94Z"/>
      <path class="m" d="m439.73,345.32v-4.47h.68v.68c.17-.32.33-.53.48-.63.15-.1.31-.15.49-.15.25,0,.51.08.78.24l-.26.7c-.18-.11-.37-.17-.56-.17-.17,0-.31.05-.45.15-.13.1-.23.24-.28.42-.08.27-.13.56-.13.88v2.34h-.76Z"/>
      <path class="m" d="m444.26,344.65l.11.67c-.21.04-.4.07-.57.07-.28,0-.49-.04-.64-.13-.15-.09-.26-.2-.32-.34-.06-.14-.09-.44-.09-.9v-2.57h-.56v-.59h.56v-1.11l.75-.46v1.56h.76v.59h-.76v2.62c0,.22.01.36.04.42.03.06.07.11.13.15.06.04.15.05.26.05.08,0,.2,0,.33-.03Z"/>
      <path class="m" d="m447.94,345.32v-.66c-.35.5-.82.76-1.42.76-.26,0-.51-.05-.74-.15s-.4-.23-.51-.38c-.11-.15-.19-.34-.23-.56-.03-.15-.05-.38-.05-.71v-2.77h.76v2.48c0,.4.01.66.05.8.05.2.15.36.3.47.15.11.34.17.57.17s.44-.06.64-.17c.2-.12.34-.28.42-.48.08-.2.12-.49.12-.87v-2.4h.76v4.47h-.68Z"/>
      <path class="m" d="m449.8,345.32v-4.47h.68v.68c.17-.32.33-.53.48-.63.15-.1.31-.15.49-.15.25,0,.51.08.78.24l-.26.7c-.18-.11-.37-.17-.56-.17-.17,0-.31.05-.45.15-.13.1-.23.24-.28.42-.08.27-.13.56-.13.88v2.34h-.76Z"/>
      <path class="m" d="m455.74,343.88l.78.1c-.12.46-.35.81-.69,1.07-.33.25-.76.38-1.28.38-.65,0-1.17-.2-1.56-.6-.38-.4-.57-.97-.57-1.7s.19-1.34.58-1.75c.39-.42.89-.62,1.51-.62s1.09.2,1.47.61c.38.41.57.98.57,1.72,0,.05,0,.11,0,.2h-3.34c.03.49.17.87.42,1.13.25.26.56.39.94.39.28,0,.51-.07.71-.22.2-.15.35-.38.47-.7Zm-2.49-1.23h2.5c-.03-.38-.13-.66-.29-.85-.24-.29-.55-.44-.94-.44-.35,0-.64.12-.88.35-.24.23-.37.54-.39.94Z"/>
      <path class="m" d="m464.38,343.16l.82.21c-.17.67-.48,1.18-.92,1.54s-.99.53-1.63.53-1.21-.14-1.62-.41c-.42-.27-.73-.66-.95-1.18-.22-.51-.33-1.07-.33-1.66,0-.64.12-1.2.37-1.68.25-.48.6-.84,1.05-1.09.45-.25.95-.37,1.5-.37.62,0,1.14.16,1.56.47.42.31.71.76.88,1.33l-.8.19c-.14-.45-.35-.78-.62-.98-.27-.21-.62-.31-1.03-.31-.47,0-.87.11-1.19.34-.32.23-.54.53-.67.92-.13.38-.19.78-.19,1.19,0,.53.08.98.23,1.38.15.39.39.68.71.88.32.19.67.29,1.05.29.46,0,.85-.13,1.16-.4s.53-.66.64-1.18Z"/>
      <path class="m" d="m465.82,343.09c0-.83.23-1.44.69-1.84.38-.33.85-.5,1.41-.5.61,0,1.12.2,1.51.6s.59.96.59,1.67c0,.58-.09,1.03-.26,1.36s-.42.59-.75.77-.69.27-1.08.27c-.63,0-1.13-.2-1.52-.6-.39-.4-.58-.98-.58-1.74Zm.78,0c0,.57.12,1,.38,1.29s.56.43.94.43.69-.14.94-.43c.25-.29.38-.72.38-1.31,0-.55-.13-.97-.38-1.26-.25-.29-.56-.43-.94-.43s-.69.14-.94.42c-.25.28-.38.71-.38,1.29Z"/>
      <path class="m" d="m470.9,345.32v-4.47h.68v.64c.33-.49.8-.74,1.42-.74.27,0,.52.05.74.15.23.1.39.22.51.38s.19.34.24.56c.03.14.04.39.04.74v2.75h-.76v-2.72c0-.31-.03-.54-.09-.69-.06-.15-.16-.27-.31-.37-.15-.09-.33-.14-.53-.14-.32,0-.6.1-.84.31s-.35.59-.35,1.17v2.44h-.76Z"/>
      <path class="m" d="m477.35,344.65l.11.67c-.21.04-.4.07-.57.07-.28,0-.49-.04-.64-.13-.15-.09-.26-.2-.32-.34-.06-.14-.09-.44-.09-.9v-2.57h-.56v-.59h.56v-1.11l.75-.46v1.56h.76v.59h-.76v2.62c0,.22.01.36.04.42.03.06.07.11.13.15.06.04.15.05.26.05.08,0,.2,0,.33-.03Z"/>
      <path class="m" d="m478.09,345.32v-4.47h.68v.68c.17-.32.33-.53.48-.63.15-.1.31-.15.49-.15.25,0,.51.08.78.24l-.26.7c-.18-.11-.37-.17-.56-.17-.17,0-.31.05-.45.15-.13.1-.23.24-.28.42-.08.27-.13.56-.13.88v2.34h-.76Z"/>
      <path class="m" d="m480.69,343.09c0-.83.23-1.44.69-1.84.38-.33.85-.5,1.41-.5.61,0,1.12.2,1.51.6s.59.96.59,1.67c0,.58-.09,1.03-.26,1.36s-.42.59-.75.77-.69.27-1.08.27c-.63,0-1.13-.2-1.52-.6-.39-.4-.58-.98-.58-1.74Zm.78,0c0,.57.12,1,.38,1.29s.56.43.94.43.69-.14.94-.43c.25-.29.38-.72.38-1.31,0-.55-.13-.97-.38-1.26-.25-.29-.56-.43-.94-.43s-.69.14-.94.42c-.25.28-.38.71-.38,1.29Z"/>
      <path class="m" d="m485.75,345.32v-6.18h.76v6.18h-.76Z"/>
      <path class="m" d="m487.67,345.32v-6.18h.76v6.18h-.76Z"/>
      <path class="m" d="m492.66,343.88l.78.1c-.12.46-.35.81-.69,1.07-.33.25-.76.38-1.28.38-.65,0-1.17-.2-1.56-.6-.38-.4-.57-.97-.57-1.7s.19-1.34.58-1.75c.39-.42.89-.62,1.51-.62s1.09.2,1.47.61c.38.41.57.98.57,1.72,0,.05,0,.11,0,.2h-3.34c.03.49.17.87.42,1.13.25.26.56.39.94.39.28,0,.51-.07.71-.22.2-.15.35-.38.47-.7Zm-2.49-1.23h2.5c-.03-.38-.13-.66-.29-.85-.24-.29-.55-.44-.94-.44-.35,0-.64.12-.88.35-.24.23-.37.54-.39.94Z"/>
      <path class="m" d="m494.39,345.32v-4.47h.68v.68c.17-.32.33-.53.48-.63.15-.1.31-.15.49-.15.25,0,.51.08.78.24l-.26.7c-.18-.11-.37-.17-.56-.17-.17,0-.31.05-.45.15-.13.1-.23.24-.28.42-.08.27-.13.56-.13.88v2.34h-.76Z"/>
    </g>
    <g>
      <path class="j" d="m49.61,299.58h205.34c.34,0,.68.03,1.01.1.33.07.66.16.97.29.31.13.61.29.89.48s.54.4.78.64c.24.24.45.5.64.78.19.28.35.58.48.89.13.31.23.64.29.97.07.33.1.67.1,1.01v75.92c0,.34-.03.68-.1,1.01-.07.33-.16.66-.29.97-.13.31-.29.61-.48.89-.19.28-.4.54-.64.78-.24.24-.5.45-.78.64-.28.19-.58.35-.89.48-.31.13-.64.23-.97.29-.33.07-.67.1-1.01.1H49.61c-.34,0-.68-.03-1.01-.1-.33-.07-.66-.16-.97-.29-.31-.13-.61-.29-.9-.48s-.54-.4-.78-.64c-.24-.24-.45-.5-.64-.78-.19-.28-.35-.58-.48-.89-.13-.31-.23-.64-.29-.97-.07-.33-.1-.67-.1-1.01v-75.92c0-.34.03-.68.1-1.01.07-.33.16-.66.29-.97.13-.31.29-.61.48-.89s.4-.54.64-.78c.24-.24.5-.45.78-.64.28-.19.58-.35.89-.48.31-.13.64-.23.97-.29.33-.07.67-.1,1.01-.1Z"/>
      <path class="i" d="m49.61,299.58h205.34c.34,0,.68.03,1.01.1.33.07.66.16.97.29.31.13.61.29.89.48s.54.4.78.64c.24.24.45.5.64.78.19.28.35.58.48.89.13.31.23.64.29.97.07.33.1.67.1,1.01v75.92c0,.34-.03.68-.1,1.01-.07.33-.16.66-.29.97-.13.31-.29.61-.48.89-.19.28-.4.54-.64.78-.24.24-.5.45-.78.64-.28.19-.58.35-.89.48-.31.13-.64.23-.97.29-.33.07-.67.1-1.01.1H49.61c-.34,0-.68-.03-1.01-.1-.33-.07-.66-.16-.97-.29-.31-.13-.61-.29-.9-.48s-.54-.4-.78-.64c-.24-.24-.45-.5-.64-.78-.19-.28-.35-.58-.48-.89-.13-.31-.23-.64-.29-.97-.07-.33-.1-.67-.1-1.01v-75.92c0-.34.03-.68.1-1.01.07-.33.16-.66.29-.97.13-.31.29-.61.48-.89s.4-.54.64-.78c.24-.24.5-.45.78-.64.28-.19.58-.35.89-.48.31-.13.64-.23.97-.29.33-.07.67-.1,1.01-.1Z"/>
      <g>
        <path class="m" d="m123.07,345.23l2.37-6.18h.88l2.53,6.18h-.93l-.72-1.87h-2.58l-.68,1.87h-.87Zm1.78-2.54h2.09l-.64-1.71c-.2-.52-.34-.95-.44-1.28-.08.4-.19.79-.33,1.18l-.68,1.81Z"/>
        <path class="m" d="m129.41,346.95v-6.19h.69v.58c.16-.23.35-.4.55-.51.21-.11.45-.17.75-.17.38,0,.72.1,1.01.29.29.2.51.47.66.83.15.36.22.75.22,1.18,0,.46-.08.87-.25,1.24-.16.37-.4.65-.72.84s-.64.29-.99.29c-.25,0-.48-.05-.68-.16-.2-.11-.37-.24-.5-.4v2.18h-.76Zm.69-3.93c0,.58.12,1,.35,1.28.23.27.51.41.85.41s.62-.14.87-.43c.24-.28.36-.73.36-1.32s-.12-1-.35-1.28c-.23-.28-.51-.42-.84-.42s-.61.15-.86.45c-.25.3-.37.74-.37,1.32Z"/>
        <path class="m" d="m137.27,343.79l.78.1c-.12.46-.35.81-.69,1.07-.33.25-.76.38-1.28.38-.65,0-1.17-.2-1.56-.6-.38-.4-.57-.97-.57-1.7s.19-1.34.58-1.75.89-.62,1.51-.62,1.09.2,1.47.61c.38.41.57.98.57,1.72,0,.04,0,.11,0,.2h-3.34c.03.49.17.87.42,1.13.25.26.56.39.94.39.28,0,.51-.07.71-.22.2-.15.35-.38.47-.7Zm-2.49-1.23h2.5c-.03-.38-.13-.66-.29-.85-.24-.29-.55-.44-.94-.44-.35,0-.64.12-.88.35s-.37.54-.39.94Z"/>
        <path class="m" d="m139,345.23v-4.47h.68v.68c.17-.32.33-.53.48-.63.15-.1.31-.15.49-.15.25,0,.51.08.78.25l-.26.7c-.18-.11-.37-.16-.56-.16-.17,0-.31.05-.45.15-.13.1-.23.24-.28.42-.08.27-.13.56-.13.88v2.34h-.76Z"/>
        <path class="m" d="m143.53,344.55l.11.67c-.21.04-.4.07-.57.07-.28,0-.49-.04-.64-.13-.15-.09-.26-.2-.32-.34-.06-.14-.09-.44-.09-.89v-2.57h-.56v-.59h.56v-1.11l.75-.45v1.56h.76v.59h-.76v2.62c0,.22.01.36.04.42s.07.11.13.15c.06.04.15.05.26.05.08,0,.2,0,.33-.03Z"/>
        <path class="m" d="m147.21,345.23v-.66c-.35.51-.82.76-1.42.76-.26,0-.51-.05-.74-.15-.23-.1-.4-.23-.51-.38s-.19-.34-.23-.56c-.03-.15-.05-.38-.05-.71v-2.77h.76v2.48c0,.4.01.66.05.8.05.2.15.36.3.47.15.11.34.17.57.17s.44-.06.64-.17.34-.28.42-.48c.08-.2.12-.49.12-.87v-2.4h.76v4.47h-.68Z"/>
        <path class="m" d="m149.07,345.23v-4.47h.68v.68c.17-.32.33-.53.48-.63.15-.1.31-.15.49-.15.25,0,.51.08.78.25l-.26.7c-.18-.11-.37-.16-.56-.16-.17,0-.31.05-.45.15-.13.1-.23.24-.28.42-.08.27-.13.56-.13.88v2.34h-.76Z"/>
        <path class="m" d="m155.01,343.79l.78.1c-.12.46-.35.81-.69,1.07-.33.25-.76.38-1.28.38-.65,0-1.17-.2-1.56-.6-.38-.4-.57-.97-.57-1.7s.19-1.34.58-1.75.89-.62,1.51-.62,1.09.2,1.47.61c.38.41.57.98.57,1.72,0,.04,0,.11,0,.2h-3.34c.03.49.17.87.42,1.13.25.26.56.39.94.39.28,0,.51-.07.71-.22.2-.15.35-.38.47-.7Zm-2.49-1.23h2.5c-.03-.38-.13-.66-.29-.85-.24-.29-.55-.44-.94-.44-.35,0-.64.12-.88.35s-.37.54-.39.94Z"/>
      </g>
      <g>
        <path class="m" d="m158.08,345.23l2.37-6.18h.88l2.53,6.18h-.93l-.72-1.87h-2.58l-.68,1.87h-.87Zm1.78-2.54h2.09l-.64-1.71c-.2-.52-.34-.95-.44-1.28-.08.4-.19.79-.33,1.18l-.68,1.81Z"/>
        <path class="m" d="m164.28,345.6l.74.11c.03.23.12.39.26.5.19.14.45.21.77.21.35,0,.62-.07.81-.21s.32-.34.39-.59c.04-.15.06-.48.05-.97-.33.39-.74.58-1.24.58-.62,0-1.09-.22-1.43-.67-.34-.44-.5-.98-.5-1.6,0-.43.08-.82.23-1.18.15-.36.38-.64.67-.84.29-.2.64-.29,1.03-.29.53,0,.96.21,1.31.64v-.54h.7v3.87c0,.7-.07,1.19-.21,1.48-.14.29-.37.52-.67.69-.31.17-.69.25-1.13.25-.53,0-.96-.12-1.29-.36-.33-.24-.49-.6-.48-1.08Zm.63-2.69c0,.59.12,1.01.35,1.28.23.27.53.4.88.4s.64-.13.88-.4c.24-.27.35-.69.35-1.26s-.12-.96-.36-1.24c-.24-.28-.54-.42-.88-.42s-.62.14-.86.41c-.24.27-.35.68-.35,1.22Z"/>
        <path class="m" d="m172.28,343.79l.78.1c-.12.46-.35.81-.69,1.07-.33.25-.76.38-1.28.38-.65,0-1.17-.2-1.56-.6-.38-.4-.57-.97-.57-1.7s.19-1.34.58-1.75.89-.62,1.51-.62,1.09.2,1.47.61c.38.41.57.98.57,1.72,0,.04,0,.11,0,.2h-3.34c.03.49.17.87.42,1.13.25.26.56.39.94.39.28,0,.51-.07.71-.22.2-.15.35-.38.47-.7Zm-2.49-1.23h2.5c-.03-.38-.13-.66-.29-.85-.24-.29-.55-.44-.94-.44-.35,0-.64.12-.88.35s-.37.54-.39.94Z"/>
        <path class="m" d="m174.02,345.23v-4.47h.68v.64c.33-.49.8-.74,1.42-.74.27,0,.52.05.74.15.23.1.39.22.51.38s.19.34.24.56c.03.14.04.39.04.74v2.75h-.76v-2.72c0-.31-.03-.54-.09-.69-.06-.15-.16-.28-.31-.37-.15-.09-.33-.14-.53-.14-.32,0-.6.1-.84.31s-.35.59-.35,1.17v2.44h-.76Z"/>
        <path class="m" d="m180.47,344.55l.11.67c-.21.04-.4.07-.57.07-.28,0-.49-.04-.64-.13-.15-.09-.26-.2-.32-.34-.06-.14-.09-.44-.09-.89v-2.57h-.56v-.59h.56v-1.11l.75-.45v1.56h.76v.59h-.76v2.62c0,.22.01.36.04.42s.07.11.13.15c.06.04.15.05.26.05.08,0,.2,0,.33-.03Z"/>
      </g>
      <path class="j" d="m388.19,299.58h162.2c.34,0,.68.03,1.01.1.33.07.66.16.97.29.31.13.61.29.89.48.28.19.54.4.78.64.24.24.45.5.64.78.19.28.35.58.48.89.13.31.23.64.29.97.07.33.1.67.1,1.01v75.92c0,.34-.03.68-.1,1.01-.07.33-.16.66-.29.97-.13.31-.29.61-.48.89-.19.28-.4.54-.64.78-.24.24-.5.45-.78.64-.28.19-.58.35-.89.48-.31.13-.64.23-.97.29-.33.07-.67.1-1.01.1h-162.2c-.34,0-.68-.03-1.01-.1-.33-.07-.66-.16-.97-.29-.31-.13-.61-.29-.89-.48-.28-.19-.54-.4-.78-.64-.24-.24-.46-.5-.64-.78-.19-.28-.35-.58-.48-.89-.13-.31-.23-.64-.29-.97-.07-.33-.1-.67-.1-1.01v-75.92c0-.34.03-.68.1-1.01.07-.33.16-.66.29-.97.13-.31.29-.61.48-.89.19-.28.4-.54.64-.78.24-.24.5-.45.78-.64.28-.19.58-.35.89-.48s.64-.23.97-.29c.33-.07.67-.1,1.01-.1Z"/>
      <path class="i" d="m388.19,299.58h162.2c.34,0,.68.03,1.01.1.33.07.66.16.97.29.31.13.61.29.89.48.28.19.54.4.78.64.24.24.45.5.64.78.19.28.35.58.48.89.13.31.23.64.29.97.07.33.1.67.1,1.01v75.92c0,.34-.03.68-.1,1.01-.07.33-.16.66-.29.97-.13.31-.29.61-.48.89-.19.28-.4.54-.64.78-.24.24-.5.45-.78.64-.28.19-.58.35-.89.48-.31.13-.64.23-.97.29-.33.07-.67.1-1.01.1h-162.2c-.34,0-.68-.03-1.01-.1-.33-.07-.66-.16-.97-.29-.31-.13-.61-.29-.89-.48-.28-.19-.54-.4-.78-.64-.24-.24-.46-.5-.64-.78-.19-.28-.35-.58-.48-.89-.13-.31-.23-.64-.29-.97-.07-.33-.1-.67-.1-1.01v-75.92c0-.34.03-.68.1-1.01.07-.33.16-.66.29-.97.13-.31.29-.61.48-.89.19-.28.4-.54.64-.78.24-.24.5-.45.78-.64.28-.19.58-.35.89-.48s.64-.23.97-.29c.33-.07.67-.1,1.01-.1Z"/>
      <line class="g" x1="264.7" y1="342.72" x2="378.44" y2="342.72"/>
      <polygon class="l" points="260.93 342.72 265.96 340.2 264.7 342.72 265.96 345.23 260.93 342.72"/>
      <polygon class="g" points="260.93 342.72 265.96 340.2 264.7 342.72 265.96 345.23 260.93 342.72"/>
      <polygon class="l" points="382.21 342.72 377.18 345.23 378.44 342.72 377.18 340.2 382.21 342.72"/>
      <polygon class="g" points="382.21 342.72 377.18 345.23 378.44 342.72 377.18 340.2 382.21 342.72"/>
      <rect class="f" x="284.16" y="338.04" width="74.05" height="9.35"/>
      <g>
        <path class="c" d="m283.81,345.23l2.17-5.66h.81l2.32,5.66h-.85l-.66-1.71h-2.37l-.62,1.71h-.8Zm1.63-2.32h1.92l-.59-1.57c-.18-.48-.31-.87-.4-1.17-.07.36-.17.72-.31,1.08l-.62,1.66Z"/>
        <path class="c" d="m292.3,345.23v-.6c-.32.46-.75.7-1.3.7-.24,0-.47-.05-.68-.14-.21-.09-.37-.21-.47-.35s-.17-.31-.21-.52c-.03-.14-.04-.35-.04-.65v-2.54h.7v2.27c0,.36.01.61.04.73.04.18.14.33.28.43s.32.16.53.16.4-.05.59-.16c.18-.11.31-.25.39-.44.08-.18.11-.45.11-.8v-2.2h.7v4.1h-.62Z"/>
        <path class="c" d="m295.53,344.61l.1.61c-.2.04-.37.06-.53.06-.25,0-.45-.04-.59-.12s-.24-.18-.29-.31-.08-.4-.08-.82v-2.36h-.51v-.54h.51v-1.02l.69-.42v1.43h.7v.54h-.7v2.4c0,.2.01.33.04.38.02.06.06.1.12.14.06.03.13.05.24.05.08,0,.18,0,.3-.03Z"/>
        <path class="c" d="m295.95,343.18c0-.76.21-1.32.63-1.69.35-.3.78-.46,1.29-.46.56,0,1.02.18,1.38.55.36.37.54.88.54,1.53,0,.53-.08.94-.24,1.25-.16.3-.39.54-.69.71-.3.17-.63.25-.99.25-.57,0-1.04-.18-1.39-.55-.35-.37-.53-.9-.53-1.59Zm.71,0c0,.53.12.92.34,1.18.23.26.52.39.87.39s.63-.13.86-.39c.23-.26.34-.66.34-1.2,0-.51-.12-.89-.35-1.15-.23-.26-.52-.39-.86-.39s-.64.13-.87.39c-.23.26-.34.65-.34,1.18Z"/>
        <path class="c" d="m302.64,343.41l.71-.06c.03.28.11.52.23.7.12.18.31.33.57.44s.55.17.87.17c.29,0,.54-.04.76-.13s.38-.2.49-.35c.11-.15.16-.31.16-.49s-.05-.33-.15-.46c-.1-.13-.27-.24-.51-.33-.15-.06-.49-.15-1.01-.28-.52-.12-.88-.24-1.09-.35-.27-.14-.47-.32-.6-.53-.13-.21-.2-.45-.2-.71,0-.29.08-.55.24-.8.16-.25.4-.44.71-.57s.66-.19,1.04-.19c.42,0,.79.07,1.11.2.32.13.57.33.74.6.17.26.26.56.28.89l-.72.05c-.04-.36-.17-.63-.39-.81s-.55-.27-.99-.27-.78.08-.99.25-.31.37-.31.6c0,.2.07.37.22.5.14.13.52.27,1.13.4.61.14,1.03.26,1.25.36.33.15.57.34.73.58.16.23.24.5.24.8s-.09.58-.26.85c-.17.27-.42.47-.74.62-.32.15-.69.22-1.09.22-.51,0-.94-.07-1.29-.22-.35-.15-.62-.37-.81-.67s-.3-.64-.31-1.02Z"/>
        <path class="c" d="m310.76,343.73l.68.09c-.07.47-.27.84-.57,1.11s-.69.4-1.13.4c-.56,0-1.01-.18-1.35-.55-.34-.37-.51-.89-.51-1.58,0-.44.07-.83.22-1.16.15-.33.37-.58.67-.75s.63-.25.98-.25c.45,0,.81.11,1.09.34s.46.54.54.96l-.68.1c-.06-.28-.18-.48-.34-.62-.16-.14-.36-.21-.59-.21-.35,0-.63.13-.85.38s-.33.65-.33,1.19.11.95.32,1.2c.21.25.49.38.83.38.27,0,.5-.08.68-.25s.3-.42.35-.77Z"/>
        <path class="c" d="m314.71,344.73c-.26.22-.5.37-.74.46s-.49.13-.77.13c-.45,0-.8-.11-1.04-.33-.24-.22-.36-.5-.36-.84,0-.2.04-.38.14-.55.09-.17.21-.3.36-.4.15-.1.31-.18.5-.23.14-.04.34-.07.62-.1.56-.07.97-.15,1.24-.24,0-.09,0-.16,0-.18,0-.28-.07-.48-.2-.6-.18-.16-.44-.24-.79-.24-.33,0-.57.06-.72.17-.16.11-.27.32-.35.61l-.68-.09c.06-.29.16-.53.31-.71s.35-.32.61-.41.58-.14.93-.14.63.04.85.12c.22.08.38.19.48.31.1.12.17.28.22.47.02.12.04.33.04.64v.93c0,.65.01,1.05.04,1.23s.09.33.18.49h-.73c-.07-.14-.12-.31-.14-.51Zm-.06-1.55c-.25.1-.63.19-1.14.26-.29.04-.49.09-.61.14-.12.05-.21.13-.27.23-.06.1-.1.21-.1.33,0,.19.07.34.21.46.14.12.35.19.62.19s.51-.06.71-.18c.21-.12.36-.28.46-.48.08-.16.11-.39.11-.69v-.25Z"/>
        <path class="c" d="m316.42,345.23v-5.66h.7v5.66h-.7Z"/>
        <path class="c" d="m321,343.91l.72.09c-.11.42-.32.75-.63.98-.31.23-.7.35-1.17.35-.6,0-1.08-.18-1.43-.55-.35-.37-.53-.89-.53-1.55s.18-1.23.53-1.61.82-.57,1.38-.57,1,.19,1.34.56.52.9.52,1.58c0,.04,0,.1,0,.18h-3.06c.03.45.15.8.38,1.04.23.24.51.36.86.36.25,0,.47-.07.65-.2.18-.13.32-.35.43-.64Zm-2.28-1.12h2.29c-.03-.34-.12-.6-.26-.78-.22-.27-.51-.4-.86-.4-.32,0-.59.11-.81.32-.22.21-.34.5-.36.86Z"/>
        <path class="c" d="m324.88,345.23v-5.66h1.95c.44,0,.78.03,1.01.08.32.08.6.21.83.41.3.25.52.58.67.97s.22.84.22,1.35c0,.43-.05.81-.15,1.14-.1.33-.23.61-.39.82s-.33.39-.52.51-.41.22-.68.28c-.26.06-.57.1-.91.1h-2.04Zm.75-.67h1.21c.37,0,.67-.03.88-.1.21-.07.38-.17.51-.29.18-.18.32-.42.42-.72.1-.3.15-.66.15-1.09,0-.59-.1-1.05-.29-1.37-.19-.32-.43-.53-.71-.64-.2-.08-.52-.12-.97-.12h-1.19v4.33Z"/>
        <path class="c" d="m333.31,343.91l.72.09c-.11.42-.32.75-.63.98-.31.23-.7.35-1.17.35-.6,0-1.08-.18-1.43-.55-.35-.37-.53-.89-.53-1.55s.18-1.23.53-1.61.82-.57,1.38-.57,1,.19,1.34.56.52.9.52,1.58c0,.04,0,.1,0,.18h-3.06c.03.45.15.8.38,1.04.23.24.51.36.86.36.25,0,.47-.07.65-.2.18-.13.32-.35.43-.64Zm-2.28-1.12h2.29c-.03-.34-.12-.6-.26-.78-.22-.27-.51-.4-.86-.4-.32,0-.59.11-.81.32-.22.21-.34.5-.36.86Z"/>
        <path class="c" d="m337.57,343.73l.68.09c-.07.47-.27.84-.57,1.11s-.69.4-1.13.4c-.56,0-1.01-.18-1.35-.55-.34-.37-.51-.89-.51-1.58,0-.44.07-.83.22-1.16.15-.33.37-.58.67-.75s.63-.25.98-.25c.45,0,.81.11,1.09.34s.46.54.54.96l-.68.1c-.06-.28-.18-.48-.34-.62-.16-.14-.36-.21-.59-.21-.35,0-.63.13-.85.38s-.33.65-.33,1.19.11.95.32,1.2c.21.25.49.38.83.38.27,0,.5-.08.68-.25s.3-.42.35-.77Z"/>
        <path class="c" d="m338.86,340.37v-.8h.7v.8h-.7Zm0,4.86v-4.1h.7v4.1h-.7Z"/>
        <path class="c" d="m340.33,344.01l.69-.11c.04.28.15.49.32.63.18.15.42.22.74.22s.56-.07.71-.2.23-.28.23-.46c0-.16-.07-.28-.2-.37-.1-.06-.33-.14-.71-.24-.51-.13-.86-.24-1.06-.33-.2-.09-.35-.22-.45-.39s-.15-.35-.15-.55c0-.18.04-.35.12-.51.08-.16.2-.29.34-.39.11-.08.26-.15.44-.2s.39-.08.6-.08c.32,0,.6.05.85.14s.42.22.54.38c.12.16.2.37.24.63l-.68.09c-.03-.21-.12-.38-.27-.49-.15-.12-.36-.18-.63-.18-.32,0-.55.05-.68.16-.14.11-.2.23-.2.37,0,.09.03.17.08.24.06.07.15.14.27.19.07.03.27.08.61.18.49.13.83.24,1.03.32s.35.21.46.37c.11.16.17.36.17.59s-.07.45-.2.66c-.13.2-.33.36-.58.47s-.54.17-.87.17c-.53,0-.94-.11-1.22-.33s-.46-.55-.54-.98Z"/>
        <path class="c" d="m344.57,340.37v-.8h.7v.8h-.7Zm0,4.86v-4.1h.7v4.1h-.7Z"/>
        <path class="c" d="m346.06,343.18c0-.76.21-1.32.63-1.69.35-.3.78-.46,1.29-.46.56,0,1.02.18,1.38.55.36.37.54.88.54,1.53,0,.53-.08.94-.24,1.25-.16.3-.39.54-.69.71-.3.17-.63.25-.99.25-.57,0-1.04-.18-1.39-.55-.35-.37-.53-.9-.53-1.59Zm.71,0c0,.53.12.92.34,1.18.23.26.52.39.87.39s.63-.13.86-.39c.23-.26.34-.66.34-1.2,0-.51-.12-.89-.35-1.15-.23-.26-.52-.39-.86-.39s-.64.13-.87.39c-.23.26-.34.65-.34,1.18Z"/>
        <path class="c" d="m350.72,345.23v-4.1h.62v.58c.3-.45.74-.68,1.31-.68.25,0,.47.04.68.13s.36.21.46.35c.1.14.18.32.22.51.03.13.04.35.04.68v2.52h-.69v-2.49c0-.28-.03-.5-.08-.64-.05-.14-.15-.25-.29-.34-.14-.08-.3-.12-.48-.12-.3,0-.55.09-.77.28-.21.19-.32.54-.32,1.07v2.24h-.7Z"/>
        <path class="c" d="m354.84,344.01l.69-.11c.04.28.15.49.32.63.18.15.42.22.74.22s.56-.07.71-.2.23-.28.23-.46c0-.16-.07-.28-.2-.37-.1-.06-.33-.14-.71-.24-.51-.13-.86-.24-1.06-.33-.2-.09-.35-.22-.45-.39s-.15-.35-.15-.55c0-.18.04-.35.12-.51.08-.16.2-.29.34-.39.11-.08.26-.15.44-.2s.39-.08.6-.08c.32,0,.6.05.85.14s.42.22.54.38c.12.16.2.37.24.63l-.68.09c-.03-.21-.12-.38-.27-.49-.15-.12-.36-.18-.63-.18-.32,0-.55.05-.68.16-.14.11-.2.23-.2.37,0,.09.03.17.08.24.06.07.15.14.27.19.07.03.27.08.61.18.49.13.83.24,1.03.32s.35.21.46.37c.11.16.17.36.17.59s-.07.45-.2.66c-.13.2-.33.36-.58.47s-.54.17-.87.17c-.53,0-.94-.11-1.22-.33s-.46-.55-.54-.98Z"/>
      </g>
      <line class="g" x1="206.2" y1="229.84" x2="206.2" y2="295"/>
      <polygon class="l" points="206.2 298.77 203.68 293.74 206.2 295 208.72 293.74 206.2 298.77"/>
      <polygon class="g" points="206.2 298.77 203.68 293.74 206.2 295 208.72 293.74 206.2 298.77"/>
      <rect class="f" x="189.25" y="260.39" width="33.79" height="9.35"/>
      <path class="c" d="m191.06,267.58v-4.99h-1.87v-.67h4.49v.67h-1.87v4.99h-.75Z"/>
      <g>
        <path class="c" d="m196.29,266.26l.72.09c-.11.42-.32.75-.63.98-.31.23-.7.35-1.17.35-.6,0-1.08-.18-1.43-.55-.35-.37-.53-.89-.53-1.55s.18-1.23.53-1.61c.36-.38.82-.57,1.38-.57s1,.19,1.34.56c.35.37.52.9.52,1.58,0,.04,0,.1,0,.19h-3.06c.03.45.15.79.38,1.04.23.24.51.36.86.36.25,0,.47-.07.65-.2.18-.13.32-.35.43-.64Zm-2.28-1.12h2.29c-.03-.35-.12-.6-.26-.78-.22-.27-.51-.4-.86-.4-.32,0-.59.11-.81.32-.22.21-.34.5-.36.86Z"/>
        <path class="c" d="m197.86,267.58v-5.66h.7v5.66h-.7Z"/>
        <path class="c" d="m202.44,266.26l.72.09c-.11.42-.32.75-.63.98-.31.23-.7.35-1.17.35-.6,0-1.08-.18-1.43-.55-.35-.37-.53-.89-.53-1.55s.18-1.23.53-1.61c.36-.38.82-.57,1.38-.57s1,.19,1.34.56c.35.37.52.9.52,1.58,0,.04,0,.1,0,.19h-3.06c.03.45.15.79.38,1.04.23.24.51.36.86.36.25,0,.47-.07.65-.2.18-.13.32-.35.43-.64Zm-2.28-1.12h2.29c-.03-.35-.12-.6-.26-.78-.22-.27-.51-.4-.86-.4-.32,0-.59.11-.81.32-.22.21-.34.5-.36.86Z"/>
        <path class="c" d="m204.04,267.58v-4.1h.62v.58c.13-.2.3-.36.51-.48.21-.12.46-.18.73-.18.3,0,.55.06.75.19s.33.3.41.53c.32-.48.75-.72,1.27-.72.41,0,.72.11.94.34.22.23.33.57.33,1.04v2.82h-.69v-2.58c0-.28-.02-.48-.07-.6-.04-.12-.13-.22-.25-.29-.12-.08-.26-.11-.42-.11-.29,0-.53.1-.72.29-.19.19-.29.5-.29.92v2.38h-.7v-2.67c0-.31-.06-.54-.17-.7-.11-.15-.3-.23-.56-.23-.2,0-.38.05-.54.15-.17.1-.29.25-.36.45-.07.2-.11.48-.11.86v2.13h-.7Z"/>
        <path class="c" d="m213.43,266.26l.72.09c-.11.42-.32.75-.63.98-.31.23-.7.35-1.17.35-.6,0-1.08-.18-1.43-.55-.35-.37-.53-.89-.53-1.55s.18-1.23.53-1.61c.36-.38.82-.57,1.38-.57s1,.19,1.34.56c.35.37.52.9.52,1.58,0,.04,0,.1,0,.19h-3.06c.03.45.15.79.38,1.04.23.24.51.36.86.36.25,0,.47-.07.65-.2.18-.13.32-.35.43-.64Zm-2.28-1.12h2.29c-.03-.35-.12-.6-.26-.78-.22-.27-.51-.4-.86-.4-.32,0-.59.11-.81.32-.22.21-.34.5-.36.86Z"/>
        <path class="c" d="m216.54,266.96l.1.61c-.2.04-.37.06-.53.06-.25,0-.45-.04-.59-.12-.14-.08-.24-.19-.29-.32s-.08-.4-.08-.82v-2.36h-.51v-.54h.51v-1.02l.69-.42v1.43h.7v.54h-.7v2.4c0,.2.01.33.04.38s.06.1.12.13c.06.03.13.05.24.05.08,0,.18,0,.3-.03Z"/>
        <path class="c" d="m217.21,267.58v-4.1h.63v.62c.16-.29.31-.48.44-.58.14-.09.28-.14.45-.14.23,0,.47.08.71.22l-.24.64c-.17-.1-.34-.15-.51-.15-.15,0-.29.05-.41.14-.12.09-.21.22-.26.38-.08.25-.12.52-.12.81v2.15h-.7Z"/>
        <path class="c" d="m219.82,269.16l-.08-.65c.15.04.28.06.4.06.16,0,.28-.03.37-.08s.17-.12.23-.22c.04-.07.12-.24.21-.52.01-.04.03-.1.06-.17l-1.56-4.11h.75l.85,2.38c.11.3.21.62.3.95.08-.32.17-.63.29-.93l.88-2.39h.7l-1.56,4.17c-.17.45-.3.76-.39.93-.12.23-.26.4-.42.5-.16.11-.35.16-.57.16-.13,0-.28-.03-.45-.08Z"/>
      </g>
      <g>
        <path class="e" d="m57.37,14.15h189.81c.85,0,1.69.08,2.52.25s1.64.41,2.43.74c.79.33,1.53.72,2.24,1.2.71.47,1.36,1.01,1.96,1.61.6.6,1.14,1.25,1.61,1.96.47.71.87,1.45,1.2,2.24.33.79.57,1.59.74,2.43.17.83.25,1.67.25,2.52v189.81c0,.85-.08,1.69-.25,2.52-.17.83-.41,1.64-.74,2.43-.33.79-.72,1.53-1.2,2.24-.47.71-1.01,1.36-1.61,1.96-.6.6-1.25,1.14-1.96,1.61-.71.47-1.45.87-2.24,1.2-.79.33-1.59.57-2.43.74s-1.67.25-2.52.25H57.37c-.85,0-1.69-.08-2.53-.25-.83-.17-1.64-.41-2.43-.74-.79-.33-1.53-.72-2.24-1.2-.71-.47-1.36-1.01-1.96-1.61-.6-.6-1.14-1.25-1.61-1.96-.47-.71-.87-1.45-1.2-2.24-.33-.79-.57-1.59-.74-2.43-.17-.83-.25-1.67-.25-2.52V27.09c0-.85.08-1.69.25-2.52.17-.83.41-1.64.74-2.43.33-.79.72-1.53,1.2-2.24s1.01-1.36,1.61-1.96c.6-.6,1.25-1.14,1.96-1.61.71-.47,1.45-.87,2.24-1.2.79-.33,1.59-.57,2.43-.74s1.68-.25,2.52-.25Z"/>
        <path class="h" d="m57.37,14.15h189.81c.85,0,1.69.08,2.52.25s1.64.41,2.43.74c.79.33,1.53.72,2.24,1.2.71.47,1.36,1.01,1.96,1.61.6.6,1.14,1.25,1.61,1.96.47.71.87,1.45,1.2,2.24.33.79.57,1.59.74,2.43.17.83.25,1.67.25,2.52v189.81c0,.85-.08,1.69-.25,2.52-.17.83-.41,1.64-.74,2.43-.33.79-.72,1.53-1.2,2.24-.47.71-1.01,1.36-1.61,1.96-.6.6-1.25,1.14-1.96,1.61-.71.47-1.45.87-2.24,1.2-.79.33-1.59.57-2.43.74s-1.67.25-2.52.25H57.37c-.85,0-1.69-.08-2.53-.25-.83-.17-1.64-.41-2.43-.74-.79-.33-1.53-.72-2.24-1.2-.71-.47-1.36-1.01-1.96-1.61-.6-.6-1.14-1.25-1.61-1.96-.47-.71-.87-1.45-1.2-2.24-.33-.79-.57-1.59-.74-2.43-.17-.83-.25-1.67-.25-2.52V27.09c0-.85.08-1.69.25-2.52.17-.83.41-1.64.74-2.43.33-.79.72-1.53,1.2-2.24s1.01-1.36,1.61-1.96c.6-.6,1.25-1.14,1.96-1.61.71-.47,1.45-.87,2.24-1.2.79-.33,1.59-.57,2.43-.74s1.68-.25,2.52-.25Z"/>
        <g>
          <path class="c" d="m137.86,31.93l.77-.07c.04.31.12.56.25.76.13.2.34.36.62.48.28.12.6.18.95.18.31,0,.59-.05.83-.14.24-.09.42-.22.53-.38.12-.16.17-.34.17-.53s-.06-.36-.17-.51c-.11-.15-.3-.27-.56-.36-.17-.06-.53-.17-1.1-.3-.57-.14-.96-.26-1.19-.39-.29-.15-.51-.35-.66-.58-.15-.23-.22-.48-.22-.77,0-.31.09-.6.27-.87.18-.27.44-.48.78-.62.34-.14.72-.21,1.13-.21.46,0,.86.07,1.21.22s.62.36.81.65c.19.29.29.61.3.97l-.78.06c-.04-.39-.18-.69-.43-.88s-.6-.3-1.08-.3-.85.09-1.08.27c-.23.18-.34.4-.34.66,0,.22.08.4.24.55.16.14.57.29,1.23.44s1.12.28,1.37.39c.36.17.62.38.8.63.17.25.26.55.26.88s-.09.64-.28.93c-.19.29-.46.52-.81.68-.35.16-.75.24-1.19.24-.56,0-1.03-.08-1.41-.24-.38-.16-.67-.41-.89-.73s-.33-.7-.34-1.11Z"/>
          <path class="c" d="m146.86,32.48l.78.1c-.12.46-.35.81-.69,1.07-.33.25-.76.38-1.28.38-.65,0-1.17-.2-1.56-.6-.38-.4-.57-.97-.57-1.7s.19-1.34.58-1.75c.39-.42.89-.62,1.51-.62s1.09.2,1.47.61c.38.41.57.98.57,1.72,0,.05,0,.11,0,.2h-3.34c.03.49.17.87.42,1.13s.56.39.94.39c.28,0,.51-.07.71-.22.2-.15.35-.38.47-.7Zm-2.49-1.23h2.5c-.03-.38-.13-.66-.29-.85-.24-.29-.55-.44-.94-.44-.35,0-.64.12-.88.35-.24.23-.37.54-.39.94Z"/>
          <path class="c" d="m148.59,33.92v-4.47h.68v.68c.17-.32.33-.53.48-.63s.31-.15.49-.15c.25,0,.51.08.78.24l-.26.7c-.18-.11-.37-.16-.56-.16-.17,0-.31.05-.45.15-.13.1-.23.24-.28.42-.08.27-.13.56-.13.88v2.34h-.76Z"/>
          <path class="c" d="m152.71,33.92l-1.7-4.47h.8l.96,2.68c.1.29.2.59.29.9.07-.24.16-.52.28-.85l.99-2.73h.78l-1.69,4.47h-.71Z"/>
          <path class="c" d="m155.79,28.61v-.87h.76v.87h-.76Zm0,5.3v-4.47h.76v4.47h-.76Z"/>
          <path class="c" d="m160.62,32.28l.75.1c-.08.51-.29.92-.62,1.21-.34.29-.75.44-1.24.44-.61,0-1.1-.2-1.48-.6-.37-.4-.56-.97-.56-1.72,0-.48.08-.91.24-1.27s.4-.63.73-.81.68-.27,1.07-.27c.49,0,.88.12,1.19.37.31.25.51.59.59,1.05l-.74.11c-.07-.3-.19-.53-.37-.68-.18-.15-.39-.23-.65-.23-.38,0-.69.14-.93.41-.24.27-.36.71-.36,1.3s.12,1.04.35,1.31.53.41.9.41c.3,0,.55-.09.75-.27.2-.18.33-.46.38-.84Z"/>
          <path class="c" d="m165.08,32.48l.78.1c-.12.46-.35.81-.69,1.07-.33.25-.76.38-1.28.38-.65,0-1.17-.2-1.56-.6-.38-.4-.57-.97-.57-1.7s.19-1.34.58-1.75c.39-.42.89-.62,1.51-.62s1.09.2,1.47.61c.38.41.57.98.57,1.72,0,.05,0,.11,0,.2h-3.34c.03.49.17.87.42,1.13s.56.39.94.39c.28,0,.51-.07.71-.22.2-.15.35-.38.47-.7Zm-2.49-1.23h2.5c-.03-.38-.13-.66-.29-.85-.24-.29-.55-.44-.94-.44-.35,0-.64.12-.88.35-.24.23-.37.54-.39.94Z"/>
        </g>
        <path class="k" d="m83.25,71.66h106.41c.66,0,1.32.06,1.96.19.65.13,1.28.32,1.89.57.61.25,1.19.56,1.74.93.55.37,1.06.78,1.53,1.25.47.47.88.98,1.25,1.53.37.55.68,1.13.93,1.74s.44,1.24.57,1.89.19,1.3.19,1.96v46.97c0,.66-.06,1.32-.19,1.96s-.32,1.28-.57,1.89-.56,1.19-.93,1.74c-.37.55-.78,1.06-1.25,1.53-.47.47-.98.88-1.53,1.25-.55.37-1.13.68-1.74.93-.61.25-1.24.44-1.89.57-.65.13-1.3.19-1.96.19h-106.41c-.66,0-1.32-.06-1.96-.19-.65-.13-1.28-.32-1.89-.57-.61-.25-1.19-.56-1.74-.93-.55-.37-1.06-.78-1.53-1.25-.47-.47-.88-.98-1.25-1.53-.37-.55-.68-1.13-.93-1.74s-.44-1.24-.57-1.89c-.13-.65-.19-1.3-.19-1.96v-46.97c0-.66.06-1.32.19-1.96s.32-1.28.57-1.89.56-1.19.93-1.74c.37-.55.78-1.06,1.25-1.53.47-.47.98-.88,1.53-1.25.55-.37,1.13-.68,1.74-.93.61-.25,1.24-.44,1.89-.57.65-.13,1.3-.19,1.96-.19Z"/>
        <path class="h" d="m83.25,71.66h106.41c.66,0,1.32.06,1.96.19.65.13,1.28.32,1.89.57.61.25,1.19.56,1.74.93.55.37,1.06.78,1.53,1.25.47.47.88.98,1.25,1.53.37.55.68,1.13.93,1.74s.44,1.24.57,1.89.19,1.3.19,1.96v46.97c0,.66-.06,1.32-.19,1.96s-.32,1.28-.57,1.89-.56,1.19-.93,1.74c-.37.55-.78,1.06-1.25,1.53-.47.47-.98.88-1.53,1.25-.55.37-1.13.68-1.74.93-.61.25-1.24.44-1.89.57-.65.13-1.3.19-1.96.19h-106.41c-.66,0-1.32-.06-1.96-.19-.65-.13-1.28-.32-1.89-.57-.61-.25-1.19-.56-1.74-.93-.55-.37-1.06-.78-1.53-1.25-.47-.47-.88-.98-1.25-1.53-.37-.55-.68-1.13-.93-1.74s-.44-1.24-.57-1.89c-.13-.65-.19-1.3-.19-1.96v-46.97c0-.66.06-1.32.19-1.96s.32-1.28.57-1.89.56-1.19.93-1.74c.37-.55.78-1.06,1.25-1.53.47-.47.98-.88,1.53-1.25.55-.37,1.13-.68,1.74-.93.61-.25,1.24-.44,1.89-.57.65-.13,1.3-.19,1.96-.19Z"/>
        <path class="k" d="m93.8,82.85h106.41c.66,0,1.32.06,1.96.19s1.28.32,1.89.57,1.19.56,1.74.93c.55.37,1.06.78,1.53,1.25s.88.98,1.25,1.53c.37.55.68,1.13.93,1.74.25.61.44,1.24.57,1.89.13.65.19,1.3.19,1.96v46.97c0,.66-.06,1.32-.19,1.96-.13.65-.32,1.28-.57,1.89-.25.61-.56,1.19-.93,1.74-.37.55-.78,1.06-1.25,1.53s-.98.88-1.53,1.25c-.55.37-1.13.68-1.74.93-.61.25-1.24.44-1.89.57-.65.13-1.3.19-1.96.19h-106.41c-.66,0-1.32-.06-1.96-.19-.65-.13-1.28-.32-1.89-.57-.61-.25-1.19-.56-1.74-.93-.55-.37-1.06-.78-1.53-1.25s-.88-.98-1.25-1.53c-.37-.55-.68-1.13-.93-1.74-.25-.61-.44-1.24-.57-1.89-.13-.65-.19-1.3-.19-1.96v-46.97c0-.66.06-1.32.19-1.96.13-.65.32-1.28.57-1.89.25-.61.56-1.19.93-1.74.37-.55.78-1.06,1.25-1.53s.98-.88,1.53-1.25c.55-.37,1.13-.68,1.74-.93.61-.25,1.24-.44,1.89-.57.65-.13,1.3-.19,1.96-.19Z"/>
        <path class="h" d="m93.8,82.85h106.41c.66,0,1.32.06,1.96.19s1.28.32,1.89.57,1.19.56,1.74.93c.55.37,1.06.78,1.53,1.25s.88.98,1.25,1.53c.37.55.68,1.13.93,1.74.25.61.44,1.24.57,1.89.13.65.19,1.3.19,1.96v46.97c0,.66-.06,1.32-.19,1.96-.13.65-.32,1.28-.57,1.89-.25.61-.56,1.19-.93,1.74-.37.55-.78,1.06-1.25,1.53s-.98.88-1.53,1.25c-.55.37-1.13.68-1.74.93-.61.25-1.24.44-1.89.57-.65.13-1.3.19-1.96.19h-106.41c-.66,0-1.32-.06-1.96-.19-.65-.13-1.28-.32-1.89-.57-.61-.25-1.19-.56-1.74-.93-.55-.37-1.06-.78-1.53-1.25s-.88-.98-1.25-1.53c-.37-.55-.68-1.13-.93-1.74-.25-.61-.44-1.24-.57-1.89-.13-.65-.19-1.3-.19-1.96v-46.97c0-.66.06-1.32.19-1.96.13-.65.32-1.28.57-1.89.25-.61.56-1.19.93-1.74.37-.55.78-1.06,1.25-1.53s.98-.88,1.53-1.25c.55-.37,1.13-.68,1.74-.93.61-.25,1.24-.44,1.89-.57.65-.13,1.3-.19,1.96-.19Z"/>
        <path class="k" d="m104.34,94.03h106.41c.66,0,1.32.06,1.96.19.65.13,1.28.32,1.89.57.61.25,1.19.56,1.74.93.55.37,1.06.78,1.53,1.25.47.47.88.98,1.25,1.53s.68,1.13.93,1.74c.25.61.44,1.24.57,1.89.13.65.19,1.3.19,1.96v46.97c0,.66-.06,1.32-.19,1.96-.13.65-.32,1.28-.57,1.89-.25.61-.56,1.19-.93,1.74s-.78,1.06-1.25,1.53c-.47.47-.98.88-1.53,1.25-.55.37-1.13.68-1.74.93-.61.25-1.24.44-1.89.57-.65.13-1.3.19-1.96.19h-106.41c-.66,0-1.32-.06-1.96-.19s-1.28-.32-1.89-.57c-.61-.25-1.19-.56-1.74-.93-.55-.37-1.06-.78-1.53-1.25-.47-.47-.88-.98-1.25-1.53-.37-.55-.68-1.13-.93-1.74-.25-.61-.44-1.24-.57-1.89-.13-.65-.19-1.3-.19-1.96v-46.97c0-.66.06-1.32.19-1.96.13-.65.32-1.28.57-1.89s.56-1.19.93-1.74c.37-.55.78-1.06,1.25-1.53s.98-.88,1.53-1.25c.55-.37,1.13-.68,1.74-.93.61-.25,1.24-.44,1.89-.57.65-.13,1.3-.19,1.96-.19Z"/>
        <path class="h" d="m104.34,94.03h106.41c.66,0,1.32.06,1.96.19.65.13,1.28.32,1.89.57.61.25,1.19.56,1.74.93.55.37,1.06.78,1.53,1.25.47.47.88.98,1.25,1.53s.68,1.13.93,1.74c.25.61.44,1.24.57,1.89.13.65.19,1.3.19,1.96v46.97c0,.66-.06,1.32-.19,1.96-.13.65-.32,1.28-.57,1.89-.25.61-.56,1.19-.93,1.74s-.78,1.06-1.25,1.53c-.47.47-.98.88-1.53,1.25-.55.37-1.13.68-1.74.93-.61.25-1.24.44-1.89.57-.65.13-1.3.19-1.96.19h-106.41c-.66,0-1.32-.06-1.96-.19s-1.28-.32-1.89-.57c-.61-.25-1.19-.56-1.74-.93-.55-.37-1.06-.78-1.53-1.25-.47-.47-.88-.98-1.25-1.53-.37-.55-.68-1.13-.93-1.74-.25-.61-.44-1.24-.57-1.89-.13-.65-.19-1.3-.19-1.96v-46.97c0-.66.06-1.32.19-1.96.13-.65.32-1.28.57-1.89s.56-1.19.93-1.74c.37-.55.78-1.06,1.25-1.53s.98-.88,1.53-1.25c.55-.37,1.13-.68,1.74-.93.61-.25,1.24-.44,1.89-.57.65-.13,1.3-.19,1.96-.19Z"/>
        <path class="k" d="m114.89,105.22h106.41c.66,0,1.32.06,1.96.19.65.13,1.28.32,1.89.57.61.25,1.19.56,1.74.93.55.37,1.06.78,1.53,1.25.47.47.88.98,1.25,1.53.37.55.68,1.13.93,1.74.25.61.44,1.24.57,1.89.13.65.19,1.3.19,1.96v46.97c0,.66-.06,1.32-.19,1.96-.13.65-.32,1.28-.57,1.89-.25.61-.56,1.19-.93,1.74-.37.55-.78,1.06-1.25,1.53-.47.47-.98.88-1.53,1.25-.55.37-1.13.68-1.74.93-.61.25-1.24.44-1.89.57-.65.13-1.3.19-1.96.19h-106.41c-.66,0-1.32-.06-1.96-.19-.65-.13-1.28-.32-1.89-.57s-1.19-.56-1.74-.93-1.06-.78-1.53-1.25c-.47-.47-.88-.98-1.25-1.53-.37-.55-.68-1.13-.93-1.74-.25-.61-.44-1.24-.57-1.89s-.19-1.3-.19-1.96v-46.97c0-.66.06-1.32.19-1.96s.32-1.28.57-1.89c.25-.61.56-1.19.93-1.74.37-.55.78-1.06,1.25-1.53.47-.47.98-.88,1.53-1.25s1.13-.68,1.74-.93,1.24-.44,1.89-.57c.65-.13,1.3-.19,1.96-.19Z"/>
        <path class="h" d="m114.89,105.22h106.41c.66,0,1.32.06,1.96.19.65.13,1.28.32,1.89.57.61.25,1.19.56,1.74.93.55.37,1.06.78,1.53,1.25.47.47.88.98,1.25,1.53.37.55.68,1.13.93,1.74.25.61.44,1.24.57,1.89.13.65.19,1.3.19,1.96v46.97c0,.66-.06,1.32-.19,1.96-.13.65-.32,1.28-.57,1.89-.25.61-.56,1.19-.93,1.74-.37.55-.78,1.06-1.25,1.53-.47.47-.98.88-1.53,1.25-.55.37-1.13.68-1.74.93-.61.25-1.24.44-1.89.57-.65.13-1.3.19-1.96.19h-106.41c-.66,0-1.32-.06-1.96-.19-.65-.13-1.28-.32-1.89-.57s-1.19-.56-1.74-.93-1.06-.78-1.53-1.25c-.47-.47-.88-.98-1.25-1.53-.37-.55-.68-1.13-.93-1.74-.25-.61-.44-1.24-.57-1.89s-.19-1.3-.19-1.96v-46.97c0-.66.06-1.32.19-1.96s.32-1.28.57-1.89c.25-.61.56-1.19.93-1.74.37-.55.78-1.06,1.25-1.53.47-.47.98-.88,1.53-1.25s1.13-.68,1.74-.93,1.24-.44,1.89-.57c.65-.13,1.3-.19,1.96-.19Z"/>
        <g>
          <path class="c" d="m158.51,141.04v-6.18h2.33c.41,0,.72.02.94.06.3.05.56.15.76.29.21.14.37.34.5.6.12.26.19.54.19.84,0,.53-.17.97-.5,1.33-.33.36-.94.55-1.81.55h-1.58v2.51h-.82Zm.82-3.24h1.6c.53,0,.9-.1,1.12-.29.22-.2.33-.47.33-.83,0-.26-.07-.48-.2-.66-.13-.18-.3-.31-.52-.36-.14-.04-.39-.06-.76-.06h-1.58v2.21Z"/>
          <path class="c" d="m163.88,138.81c0-.83.23-1.44.69-1.84.38-.33.85-.5,1.41-.5.61,0,1.12.2,1.51.6.39.4.59.96.59,1.67,0,.58-.09,1.03-.26,1.36s-.42.59-.75.77-.69.27-1.08.27c-.63,0-1.13-.2-1.52-.6-.39-.4-.58-.98-.58-1.74Zm.78,0c0,.57.12,1,.38,1.29.25.29.56.43.94.43s.69-.14.94-.43.38-.72.38-1.31c0-.55-.13-.97-.38-1.26-.25-.29-.56-.43-.94-.43s-.69.14-.94.43-.38.71-.38,1.29Z"/>
          <path class="c" d="m171.87,141.04v-.56c-.28.44-.7.67-1.25.67-.36,0-.68-.1-.98-.29-.3-.2-.53-.47-.7-.82-.16-.35-.25-.76-.25-1.22s.07-.85.22-1.22c.15-.36.37-.64.67-.84.3-.19.63-.29,1-.29.27,0,.51.06.72.17.21.11.38.26.51.44v-2.22h.75v6.18h-.7Zm-2.4-2.23c0,.57.12,1,.36,1.29s.53.43.86.43.61-.14.84-.41c.23-.27.35-.68.35-1.24,0-.61-.12-1.06-.35-1.35-.24-.29-.53-.43-.87-.43s-.62.14-.84.41c-.23.28-.34.71-.34,1.3Z"/>
          <path class="c" d="m173.46,139.71l.75-.12c.04.3.16.53.35.69.19.16.46.24.81.24s.61-.07.78-.21c.17-.14.25-.31.25-.5,0-.17-.08-.31-.22-.4-.1-.07-.36-.15-.78-.26-.56-.14-.94-.26-1.16-.36s-.38-.24-.49-.43c-.11-.18-.17-.38-.17-.6,0-.2.05-.38.14-.55.09-.17.22-.31.37-.42.12-.09.28-.16.48-.22.2-.06.42-.09.66-.09.35,0,.66.05.92.15s.46.24.59.41c.13.17.21.4.26.69l-.74.1c-.03-.23-.13-.41-.29-.54-.16-.13-.39-.19-.68-.19-.35,0-.6.06-.75.17-.15.12-.22.25-.22.4,0,.1.03.19.09.27.06.08.16.15.29.2.08.03.3.09.67.19.54.14.91.26,1.12.35s.38.22.5.4c.12.17.18.39.18.65s-.07.49-.22.71c-.15.22-.36.4-.64.52-.28.12-.59.18-.94.18-.58,0-1.02-.12-1.33-.36s-.5-.6-.58-1.07Z"/>
        </g>
      </g>
      <line class="g" x1="98.35" y1="295" x2="98.35" y2="234.42"/>
      <polygon class="l" points="98.35 298.77 95.84 293.74 98.35 295 100.87 293.74 98.35 298.77"/>
      <polygon class="g" points="98.35 298.77 95.84 293.74 98.35 295 100.87 293.74 98.35 298.77"/>
      <polygon class="l" points="98.35 230.64 100.87 235.68 98.35 234.42 95.84 235.68 98.35 230.64"/>
      <polygon class="g" points="98.35 230.64 100.87 235.68 98.35 234.42 95.84 235.68 98.35 230.64"/>
      <rect class="f" x="79.25" y="259.67" width="38.11" height="9.35"/>
      <g>
        <path class="c" d="m79.17,266.86l2.17-5.66h.81l2.32,5.66h-.85l-.66-1.71h-2.37l-.62,1.71h-.8Zm1.63-2.32h1.92l-.59-1.57c-.18-.48-.31-.87-.4-1.17-.07.36-.17.72-.31,1.08l-.62,1.66Z"/>
        <path class="c" d="m87.67,266.86v-.6c-.32.46-.75.7-1.3.7-.24,0-.47-.05-.68-.14-.21-.09-.37-.21-.47-.35s-.17-.31-.21-.52c-.03-.14-.04-.35-.04-.65v-2.54h.7v2.27c0,.36.01.61.04.73.04.18.14.33.28.43s.32.16.53.16.4-.05.59-.16c.18-.11.31-.25.39-.44.08-.18.11-.45.11-.8v-2.2h.7v4.1h-.62Z"/>
        <path class="c" d="m90.9,266.24l.1.61c-.2.04-.37.06-.53.06-.25,0-.45-.04-.59-.12s-.24-.18-.29-.31-.08-.4-.08-.82v-2.36h-.51v-.54h.51v-1.02l.69-.42v1.43h.7v.54h-.7v2.4c0,.2.01.33.04.38.02.06.06.1.12.14.06.03.13.05.24.05.08,0,.18,0,.3-.03Z"/>
        <path class="c" d="m91.32,264.81c0-.76.21-1.32.63-1.69.35-.3.78-.46,1.29-.46.56,0,1.02.18,1.38.55.36.37.54.88.54,1.53,0,.53-.08.94-.24,1.25-.16.3-.39.54-.69.71-.3.17-.63.25-.99.25-.57,0-1.04-.18-1.39-.55-.35-.37-.53-.9-.53-1.59Zm.71,0c0,.53.12.92.34,1.18.23.26.52.39.87.39s.63-.13.86-.39c.23-.26.34-.66.34-1.2,0-.51-.12-.89-.35-1.15-.23-.26-.52-.39-.86-.39s-.64.13-.87.39c-.23.26-.34.65-.34,1.18Z"/>
        <path class="c" d="m98.01,265.05l.71-.06c.03.28.11.52.23.7.12.18.31.33.57.44s.55.17.87.17c.29,0,.54-.04.76-.13s.38-.2.49-.35c.11-.15.16-.31.16-.49s-.05-.33-.15-.46c-.1-.13-.27-.24-.51-.33-.15-.06-.49-.15-1.01-.28-.52-.12-.88-.24-1.09-.35-.27-.14-.47-.32-.6-.53-.13-.21-.2-.45-.2-.71,0-.29.08-.55.24-.8.16-.25.4-.44.71-.57s.66-.19,1.04-.19c.42,0,.79.07,1.11.2.32.13.57.33.74.6.17.26.26.56.28.89l-.72.05c-.04-.36-.17-.63-.39-.81s-.55-.27-.99-.27-.78.08-.99.25-.31.37-.31.6c0,.2.07.37.22.5.14.13.52.27,1.13.4.61.14,1.03.26,1.25.36.33.15.57.34.73.58.16.23.24.5.24.8s-.09.58-.26.85c-.17.27-.42.47-.74.62-.32.15-.69.22-1.09.22-.51,0-.94-.07-1.29-.22-.35-.15-.62-.37-.81-.67s-.3-.64-.31-1.02Z"/>
        <path class="c" d="m106.12,265.36l.68.09c-.07.47-.27.84-.57,1.11s-.69.4-1.13.4c-.56,0-1.01-.18-1.35-.55-.34-.37-.51-.89-.51-1.58,0-.44.07-.83.22-1.16.15-.33.37-.58.67-.75s.63-.25.98-.25c.45,0,.81.11,1.09.34s.46.54.54.96l-.68.1c-.06-.28-.18-.48-.34-.62-.16-.14-.36-.21-.59-.21-.35,0-.63.13-.85.38s-.33.65-.33,1.19.11.95.32,1.2c.21.25.49.38.83.38.27,0,.5-.08.68-.25s.3-.42.35-.77Z"/>
        <path class="c" d="m110.08,266.36c-.26.22-.5.37-.74.46s-.49.13-.77.13c-.45,0-.8-.11-1.04-.33-.24-.22-.36-.5-.36-.84,0-.2.04-.38.14-.55.09-.17.21-.3.36-.4.15-.1.31-.18.5-.23.14-.04.34-.07.62-.1.56-.07.97-.15,1.24-.24,0-.09,0-.16,0-.18,0-.28-.07-.48-.2-.6-.18-.16-.44-.24-.79-.24-.33,0-.57.06-.72.17-.16.11-.27.32-.35.61l-.68-.09c.06-.29.16-.53.31-.71s.35-.32.61-.41.58-.14.93-.14.63.04.85.12c.22.08.38.19.48.31.1.12.17.28.22.47.02.12.04.33.04.64v.93c0,.65.01,1.05.04,1.23s.09.33.18.49h-.73c-.07-.14-.12-.31-.14-.51Zm-.06-1.55c-.25.1-.63.19-1.14.26-.29.04-.49.09-.61.14-.12.05-.21.13-.27.23-.06.1-.1.21-.1.33,0,.19.07.34.21.46.14.12.35.19.62.19s.51-.06.71-.18c.21-.12.36-.28.46-.48.08-.16.11-.39.11-.69v-.25Z"/>
        <path class="c" d="m111.78,266.86v-5.66h.7v5.66h-.7Z"/>
        <path class="c" d="m116.36,265.54l.72.09c-.11.42-.32.75-.63.98-.31.23-.7.35-1.17.35-.6,0-1.08-.18-1.43-.55-.35-.37-.53-.89-.53-1.55s.18-1.23.53-1.61.82-.57,1.38-.57,1,.19,1.34.56.52.9.52,1.58c0,.04,0,.1,0,.18h-3.06c.03.45.15.8.38,1.04.23.24.51.36.86.36.25,0,.47-.07.65-.2.18-.13.32-.35.43-.64Zm-2.28-1.12h2.29c-.03-.34-.12-.6-.26-.78-.22-.27-.51-.4-.86-.4-.32,0-.59.11-.81.32-.22.21-.34.5-.36.86Z"/>
      </g>
      <g>
        <path class="d" d="m432.78,345.02l2.37-6.18h.88l2.53,6.18h-.93l-.72-1.87h-2.58l-.68,1.87h-.87Zm1.78-2.54h2.09l-.64-1.71c-.2-.52-.34-.95-.44-1.28-.08.4-.19.79-.33,1.18l-.68,1.81Z"/>
        <path class="d" d="m439.12,346.73v-6.19h.69v.58c.16-.23.35-.4.55-.51.21-.11.45-.17.75-.17.38,0,.72.1,1.01.29s.51.47.66.83.22.75.22,1.18c0,.46-.08.87-.25,1.24-.16.37-.4.65-.72.84-.31.2-.64.29-.99.29-.25,0-.48-.05-.68-.16-.2-.11-.37-.24-.5-.4v2.18h-.76Zm.69-3.93c0,.58.12,1,.35,1.28.23.28.51.41.85.41s.62-.14.87-.43.36-.73.36-1.33-.12-1-.35-1.28c-.23-.28-.51-.43-.84-.43s-.61.15-.86.45c-.25.3-.37.74-.37,1.32Z"/>
        <path class="d" d="m446.98,343.58l.78.1c-.12.46-.35.81-.69,1.07-.33.25-.76.38-1.28.38-.65,0-1.17-.2-1.56-.6-.38-.4-.57-.97-.57-1.7s.19-1.34.58-1.75c.39-.42.89-.62,1.51-.62s1.09.2,1.47.61c.38.41.57.98.57,1.72,0,.05,0,.11,0,.2h-3.34c.03.49.17.87.42,1.13.25.26.56.39.94.39.28,0,.51-.07.71-.22.2-.15.35-.38.47-.7Zm-2.49-1.23h2.5c-.03-.38-.13-.66-.29-.85-.24-.29-.55-.44-.94-.44-.35,0-.64.12-.88.35-.24.23-.37.54-.39.94Z"/>
        <path class="d" d="m448.71,345.02v-4.47h.68v.68c.17-.32.33-.53.48-.63.15-.1.31-.15.49-.15.25,0,.51.08.78.24l-.26.7c-.18-.11-.37-.17-.56-.17-.17,0-.31.05-.45.15-.13.1-.23.24-.28.42-.08.27-.13.56-.13.88v2.34h-.76Z"/>
        <path class="d" d="m453.24,344.34l.11.67c-.21.04-.4.07-.57.07-.28,0-.49-.04-.64-.13-.15-.09-.26-.2-.32-.34-.06-.14-.09-.44-.09-.9v-2.57h-.56v-.59h.56v-1.11l.75-.46v1.56h.76v.59h-.76v2.62c0,.22.01.36.04.42.03.06.07.11.13.15.06.04.15.05.26.05.08,0,.2,0,.33-.03Z"/>
        <path class="d" d="m456.92,345.02v-.66c-.35.5-.82.76-1.42.76-.26,0-.51-.05-.74-.15s-.4-.23-.51-.38c-.11-.15-.19-.34-.23-.56-.03-.15-.05-.38-.05-.71v-2.77h.76v2.48c0,.4.01.66.05.8.05.2.15.36.3.47.15.11.34.17.57.17s.44-.06.64-.17c.2-.12.34-.28.42-.48.08-.2.12-.49.12-.87v-2.4h.76v4.47h-.68Z"/>
        <path class="d" d="m458.78,345.02v-4.47h.68v.68c.17-.32.33-.53.48-.63.15-.1.31-.15.49-.15.25,0,.51.08.78.24l-.26.7c-.18-.11-.37-.17-.56-.17-.17,0-.31.05-.45.15-.13.1-.23.24-.28.42-.08.27-.13.56-.13.88v2.34h-.76Z"/>
        <path class="d" d="m464.72,343.58l.78.1c-.12.46-.35.81-.69,1.07-.33.25-.76.38-1.28.38-.65,0-1.17-.2-1.56-.6-.38-.4-.57-.97-.57-1.7s.19-1.34.58-1.75c.39-.42.89-.62,1.51-.62s1.09.2,1.47.61c.38.41.57.98.57,1.72,0,.05,0,.11,0,.2h-3.34c.03.49.17.87.42,1.13.25.26.56.39.94.39.28,0,.51-.07.71-.22.2-.15.35-.38.47-.7Zm-2.49-1.23h2.5c-.03-.38-.13-.66-.29-.85-.24-.29-.55-.44-.94-.44-.35,0-.64.12-.88.35-.24.23-.37.54-.39.94Z"/>
        <path class="d" d="m473.36,342.85l.82.21c-.17.67-.48,1.18-.92,1.54s-.99.53-1.63.53-1.21-.14-1.62-.41c-.42-.27-.73-.66-.95-1.18-.22-.51-.33-1.07-.33-1.66,0-.64.12-1.2.37-1.68.25-.48.6-.84,1.05-1.09.45-.25.95-.37,1.5-.37.62,0,1.14.16,1.56.47.42.31.71.76.88,1.33l-.8.19c-.14-.45-.35-.78-.62-.98-.27-.21-.62-.31-1.03-.31-.47,0-.87.11-1.19.34-.32.23-.54.53-.67.92-.13.38-.19.78-.19,1.19,0,.53.08.98.23,1.38.15.39.39.68.71.88.32.19.67.29,1.05.29.46,0,.85-.13,1.16-.4s.53-.66.64-1.18Z"/>
        <path class="d" d="m474.8,342.78c0-.83.23-1.44.69-1.84.38-.33.85-.5,1.41-.5.61,0,1.12.2,1.51.6s.59.96.59,1.67c0,.58-.09,1.03-.26,1.36s-.42.59-.75.77-.69.27-1.08.27c-.63,0-1.13-.2-1.52-.6-.39-.4-.58-.98-.58-1.74Zm.78,0c0,.57.12,1,.38,1.29s.56.43.94.43.69-.14.94-.43c.25-.29.38-.72.38-1.31,0-.55-.13-.97-.38-1.26-.25-.29-.56-.43-.94-.43s-.69.14-.94.42c-.25.28-.38.71-.38,1.29Z"/>
        <path class="d" d="m479.88,345.02v-4.47h.68v.64c.33-.49.8-.74,1.42-.74.27,0,.52.05.74.15.23.1.39.22.51.38s.19.34.24.56c.03.14.04.39.04.74v2.75h-.76v-2.72c0-.31-.03-.54-.09-.69-.06-.15-.16-.27-.31-.37-.15-.09-.33-.14-.53-.14-.32,0-.6.1-.84.31s-.35.59-.35,1.17v2.44h-.76Z"/>
        <path class="d" d="m486.34,344.34l.11.67c-.21.04-.4.07-.57.07-.28,0-.49-.04-.64-.13-.15-.09-.26-.2-.32-.34-.06-.14-.09-.44-.09-.9v-2.57h-.56v-.59h.56v-1.11l.75-.46v1.56h.76v.59h-.76v2.62c0,.22.01.36.04.42.03.06.07.11.13.15.06.04.15.05.26.05.08,0,.2,0,.33-.03Z"/>
        <path class="d" d="m487.07,345.02v-4.47h.68v.68c.17-.32.33-.53.48-.63.15-.1.31-.15.49-.15.25,0,.51.08.78.24l-.26.7c-.18-.11-.37-.17-.56-.17-.17,0-.31.05-.45.15-.13.1-.23.24-.28.42-.08.27-.13.56-.13.88v2.34h-.76Z"/>
        <path class="d" d="m489.67,342.78c0-.83.23-1.44.69-1.84.38-.33.85-.5,1.41-.5.61,0,1.12.2,1.51.6s.59.96.59,1.67c0,.58-.09,1.03-.26,1.36s-.42.59-.75.77-.69.27-1.08.27c-.63,0-1.13-.2-1.52-.6-.39-.4-.58-.98-.58-1.74Zm.78,0c0,.57.12,1,.38,1.29s.56.43.94.43.69-.14.94-.43c.25-.29.38-.72.38-1.31,0-.55-.13-.97-.38-1.26-.25-.29-.56-.43-.94-.43s-.69.14-.94.42c-.25.28-.38.71-.38,1.29Z"/>
        <path class="d" d="m494.73,345.02v-6.18h.76v6.18h-.76Z"/>
        <path class="d" d="m496.65,345.02v-6.18h.76v6.18h-.76Z"/>
        <path class="d" d="m501.64,343.58l.78.1c-.12.46-.35.81-.69,1.07-.33.25-.76.38-1.28.38-.65,0-1.17-.2-1.56-.6-.38-.4-.57-.97-.57-1.7s.19-1.34.58-1.75c.39-.42.89-.62,1.51-.62s1.09.2,1.47.61c.38.41.57.98.57,1.72,0,.05,0,.11,0,.2h-3.34c.03.49.17.87.42,1.13.25.26.56.39.94.39.28,0,.51-.07.71-.22.2-.15.35-.38.47-.7Zm-2.49-1.23h2.5c-.03-.38-.13-.66-.29-.85-.24-.29-.55-.44-.94-.44-.35,0-.64.12-.88.35-.24.23-.37.54-.39.94Z"/>
        <path class="d" d="m503.37,345.02v-4.47h.68v.68c.17-.32.33-.53.48-.63.15-.1.31-.15.49-.15.25,0,.51.08.78.24l-.26.7c-.18-.11-.37-.17-.56-.17-.17,0-.31.05-.45.15-.13.1-.23.24-.28.42-.08.27-.13.56-.13.88v2.34h-.76Z"/>
      </g>
    </g>
  </g>
</svg>