<?xml version="1.0" encoding="UTF-8"?>
<svg id="b" data-name="Warstwa 1" xmlns="http://www.w3.org/2000/svg" viewBox="0 0 750 500">
  <defs>
    <style>
      .c {
        fill: #fff;
      }

      .d {
        stroke-miterlimit: 10;
      }

      .d, .e {
        stroke: #c2c2c2;
      }

      .d, .e, .f {
        fill: none;
        stroke-width: .72px;
      }

      .g {
        fill: #8ec4ad;
      }

      .f {
        stroke: #bfded1;
      }

      .h {
        fill: #c2c2c2;
      }

      .i {
        fill: #f2f2f2;
      }
    </style>
  </defs>
  <path class="c" d="m91.72,34.31h566.55c.28,0,.56.03.84.08.28.06.55.14.81.25.26.11.51.24.75.4.24.16.45.34.65.54.2.2.38.42.54.65.16.24.29.48.4.75s.19.53.25.81c.06.28.08.56.08.84v422.76c0,.28-.03.56-.08.84s-.14.55-.25.81c-.11.26-.24.51-.4.75-.16.24-.34.45-.54.65-.2.2-.42.38-.65.54-.24.16-.48.29-.75.4-.26.11-.53.19-.81.25-.28.06-.56.08-.84.08H91.72c-.28,0-.56-.03-.84-.08-.28-.06-.55-.14-.81-.25-.26-.11-.51-.24-.75-.4-.24-.16-.45-.34-.65-.54-.2-.2-.38-.42-.54-.65-.16-.24-.29-.48-.4-.75-.11-.26-.19-.53-.25-.81-.06-.28-.08-.56-.08-.84V38.62c0-.28.03-.56.08-.84.06-.28.14-.55.25-.81.11-.26.24-.51.4-.75.16-.24.34-.45.54-.65s.42-.38.65-.54.48-.29.75-.4c.26-.11.53-.19.81-.25.28-.06.56-.08.84-.08Z"/>
  <path class="e" d="m91.72,34.31h566.55c.28,0,.56.03.84.08.28.06.55.14.81.25.26.11.51.24.75.4.24.16.45.34.65.54.2.2.38.42.54.65.16.24.29.48.4.75s.19.53.25.81c.06.28.08.56.08.84v422.76c0,.28-.03.56-.08.84s-.14.55-.25.81c-.11.26-.24.51-.4.75-.16.24-.34.45-.54.65-.2.2-.42.38-.65.54-.24.16-.48.29-.75.4-.26.11-.53.19-.81.25-.28.06-.56.08-.84.08H91.72c-.28,0-.56-.03-.84-.08-.28-.06-.55-.14-.81-.25-.26-.11-.51-.24-.75-.4-.24-.16-.45-.34-.65-.54-.2-.2-.38-.42-.54-.65-.16-.24-.29-.48-.4-.75-.11-.26-.19-.53-.25-.81-.06-.28-.08-.56-.08-.84V38.62c0-.28.03-.56.08-.84.06-.28.14-.55.25-.81.11-.26.24-.51.4-.75.16-.24.34-.45.54-.65s.42-.38.65-.54.48-.29.75-.4c.26-.11.53-.19.81-.25.28-.06.56-.08.84-.08Z"/>
  <g>
    <path d="m362.32,52.1l.77-.07c.04.31.12.56.25.76.13.2.34.36.62.48.28.12.6.18.95.18.31,0,.59-.05.83-.14.24-.09.42-.22.53-.38.12-.16.18-.34.18-.53s-.06-.36-.17-.51c-.11-.15-.3-.27-.56-.36-.17-.06-.53-.17-1.1-.3s-.96-.26-1.19-.39c-.29-.15-.52-.35-.66-.58-.14-.23-.22-.48-.22-.77,0-.31.09-.6.27-.87.18-.27.44-.48.78-.62.34-.14.72-.21,1.13-.21.46,0,.86.07,1.21.22s.62.36.81.65.29.61.3.97l-.78.06c-.04-.39-.18-.69-.43-.88-.24-.2-.6-.3-1.08-.3s-.85.09-1.08.27-.34.4-.34.66c0,.22.08.4.24.55.16.14.57.29,1.23.44s1.12.28,1.37.39c.36.17.62.38.8.63.17.25.26.55.26.88s-.09.64-.28.93c-.19.29-.46.52-.81.68-.35.16-.75.24-1.19.24-.56,0-1.03-.08-1.4-.24-.38-.16-.67-.41-.89-.73s-.33-.7-.34-1.11Z"/>
    <path d="m371.32,52.64l.78.1c-.12.46-.35.81-.69,1.07-.33.25-.76.38-1.28.38-.65,0-1.17-.2-1.56-.6-.38-.4-.57-.97-.57-1.7s.19-1.34.58-1.75c.39-.42.89-.62,1.51-.62s1.09.2,1.46.61c.38.41.57.98.57,1.72,0,.05,0,.11,0,.2h-3.34c.03.49.17.87.42,1.13s.56.39.94.39c.28,0,.51-.07.71-.22s.35-.38.47-.7Zm-2.49-1.23h2.5c-.03-.38-.13-.66-.29-.85-.24-.29-.55-.44-.94-.44-.35,0-.64.12-.88.35-.24.23-.37.54-.39.94Z"/>
    <path d="m373.05,54.08v-4.47h.68v.68c.17-.32.34-.53.48-.63.15-.1.31-.15.49-.15.26,0,.52.08.78.24l-.26.7c-.18-.11-.37-.16-.55-.16-.17,0-.31.05-.45.15-.13.1-.23.24-.28.42-.09.27-.13.56-.13.88v2.34h-.76Z"/>
    <path d="m377.17,54.08l-1.7-4.47h.8l.96,2.68c.11.29.2.59.29.9.07-.24.16-.52.28-.85l.99-2.73h.78l-1.69,4.47h-.71Z"/>
    <path d="m383.31,52.64l.78.1c-.12.46-.35.81-.69,1.07-.34.25-.76.38-1.28.38-.65,0-1.17-.2-1.56-.6s-.57-.97-.57-1.7.19-1.34.58-1.75c.39-.42.89-.62,1.51-.62s1.09.2,1.47.61.57.98.57,1.72c0,.05,0,.11,0,.2h-3.34c.03.49.17.87.42,1.13s.56.39.94.39c.28,0,.52-.07.71-.22.2-.15.35-.38.47-.7Zm-2.49-1.23h2.5c-.03-.38-.13-.66-.29-.85-.24-.29-.55-.44-.94-.44-.35,0-.64.12-.88.35-.24.23-.37.54-.39.94Z"/>
    <path d="m385.03,54.08v-4.47h.68v.68c.17-.32.33-.53.48-.63.15-.1.31-.15.49-.15.25,0,.51.08.78.24l-.26.7c-.19-.11-.37-.16-.56-.16-.17,0-.31.05-.45.15-.13.1-.23.24-.28.42-.08.27-.13.56-.13.88v2.34h-.76Z"/>
  </g>
  <path class="g" d="m120.68,357.85h205.34c.34,0,.68.03,1.01.1.33.07.66.16.97.29.31.13.61.29.89.48s.54.4.78.64c.24.24.45.5.64.78.19.28.35.58.48.89.13.31.23.64.29.97.07.33.1.67.1,1.01v75.92c0,.34-.03.68-.1,1.01-.07.33-.16.66-.29.97-.13.31-.29.61-.48.89-.19.28-.4.54-.64.78-.24.24-.5.45-.78.64-.28.19-.58.35-.89.48-.31.13-.64.23-.97.29-.33.07-.67.1-1.01.1H120.68c-.34,0-.68-.03-1.01-.1-.33-.07-.66-.16-.97-.29-.31-.13-.61-.29-.9-.48s-.54-.4-.78-.64c-.24-.24-.45-.5-.64-.78-.19-.28-.35-.58-.48-.89-.13-.31-.23-.64-.29-.97-.07-.33-.1-.67-.1-1.01v-75.92c0-.34.03-.68.1-1.01.07-.33.16-.66.29-.97.13-.31.29-.61.48-.89s.4-.54.64-.78c.24-.24.5-.45.78-.64.28-.19.58-.35.89-.48.31-.13.64-.23.97-.29.33-.07.67-.1,1.01-.1Z"/>
  <path class="f" d="m120.68,357.85h205.34c.34,0,.68.03,1.01.1.33.07.66.16.97.29.31.13.61.29.89.48s.54.4.78.64c.24.24.45.5.64.78.19.28.35.58.48.89.13.31.23.64.29.97.07.33.1.67.1,1.01v75.92c0,.34-.03.68-.1,1.01-.07.33-.16.66-.29.97-.13.31-.29.61-.48.89-.19.28-.4.54-.64.78-.24.24-.5.45-.78.64-.28.19-.58.35-.89.48-.31.13-.64.23-.97.29-.33.07-.67.1-1.01.1H120.68c-.34,0-.68-.03-1.01-.1-.33-.07-.66-.16-.97-.29-.31-.13-.61-.29-.9-.48s-.54-.4-.78-.64c-.24-.24-.45-.5-.64-.78-.19-.28-.35-.58-.48-.89-.13-.31-.23-.64-.29-.97-.07-.33-.1-.67-.1-1.01v-75.92c0-.34.03-.68.1-1.01.07-.33.16-.66.29-.97.13-.31.29-.61.48-.89s.4-.54.64-.78c.24-.24.5-.45.78-.64.28-.19.58-.35.89-.48.31-.13.64-.23.97-.29.33-.07.67-.1,1.01-.1Z"/>
  <g>
    <path d="m194.14,403.5l2.37-6.18h.88l2.53,6.18h-.93l-.72-1.87h-2.58l-.68,1.87h-.87Zm1.78-2.54h2.09l-.64-1.71c-.2-.52-.34-.95-.44-1.28-.08.4-.19.79-.33,1.18l-.68,1.81Z"/>
    <path d="m200.48,405.22v-6.19h.69v.58c.16-.23.35-.4.55-.51s.45-.17.75-.17c.38,0,.72.1,1.01.29.29.2.51.47.66.83.15.36.22.75.22,1.18,0,.46-.08.87-.25,1.24s-.4.65-.72.84c-.31.2-.64.29-.99.29-.25,0-.48-.05-.68-.16-.2-.11-.37-.24-.49-.4v2.18h-.76Zm.69-3.93c0,.58.12,1,.35,1.28.23.27.52.41.85.41s.62-.14.87-.43c.24-.28.36-.73.36-1.32s-.12-1-.35-1.28-.51-.43-.84-.43-.61.15-.86.45c-.25.3-.37.74-.37,1.32Z"/>
    <path d="m208.34,402.06l.78.1c-.12.46-.35.81-.69,1.07-.34.25-.76.38-1.28.38-.65,0-1.17-.2-1.56-.6s-.57-.97-.57-1.7.19-1.34.58-1.75c.39-.42.89-.62,1.51-.62s1.09.2,1.47.61.57.98.57,1.72c0,.05,0,.11,0,.2h-3.34c.03.49.17.87.42,1.13s.56.39.94.39c.28,0,.52-.07.71-.22.2-.15.35-.38.47-.7Zm-2.49-1.23h2.5c-.03-.38-.13-.66-.29-.85-.24-.29-.55-.44-.94-.44-.35,0-.64.12-.88.35-.24.23-.37.54-.39.94Z"/>
    <path d="m210.07,403.5v-4.47h.68v.68c.17-.32.34-.53.48-.63.15-.1.31-.15.49-.15.26,0,.52.08.78.24l-.26.7c-.18-.11-.37-.16-.55-.16-.17,0-.31.05-.45.15-.13.1-.23.24-.28.42-.09.27-.13.56-.13.88v2.34h-.76Z"/>
    <path d="m214.61,402.82l.11.67c-.21.04-.4.07-.57.07-.28,0-.49-.04-.64-.13-.15-.09-.26-.2-.32-.34-.06-.14-.09-.44-.09-.9v-2.57h-.56v-.59h.56v-1.11l.75-.45v1.56h.76v.59h-.76v2.62c0,.22.01.36.04.42.03.06.07.11.13.15.06.04.15.05.26.05.08,0,.2,0,.33-.03Z"/>
    <path d="m218.28,403.5v-.66c-.35.51-.82.76-1.42.76-.26,0-.51-.05-.74-.15-.23-.1-.4-.23-.51-.38-.11-.15-.19-.34-.23-.56-.03-.15-.05-.38-.05-.71v-2.77h.76v2.48c0,.4.01.66.04.8.05.2.15.36.3.47.15.11.34.17.57.17s.44-.06.64-.17c.2-.12.34-.28.42-.48.08-.2.12-.49.12-.87v-2.4h.76v4.47h-.68Z"/>
    <path d="m220.14,403.5v-4.47h.68v.68c.17-.32.34-.53.48-.63.15-.1.31-.15.49-.15.26,0,.52.08.78.24l-.26.7c-.18-.11-.37-.16-.55-.16-.17,0-.31.05-.45.15-.13.1-.23.24-.28.42-.09.27-.13.56-.13.88v2.34h-.76Z"/>
    <path d="m226.08,402.06l.78.1c-.12.46-.35.81-.69,1.07-.34.25-.76.38-1.28.38-.65,0-1.17-.2-1.56-.6s-.57-.97-.57-1.7.19-1.34.58-1.75c.39-.42.89-.62,1.51-.62s1.09.2,1.47.61.57.98.57,1.72c0,.05,0,.11,0,.2h-3.34c.03.49.17.87.42,1.13s.56.39.94.39c.28,0,.52-.07.71-.22.2-.15.35-.38.47-.7Zm-2.49-1.23h2.5c-.03-.38-.13-.66-.29-.85-.24-.29-.55-.44-.94-.44-.35,0-.64.12-.88.35-.24.23-.37.54-.39.94Z"/>
  </g>
  <g>
    <path d="m229.15,403.5l2.37-6.18h.88l2.53,6.18h-.93l-.72-1.87h-2.58l-.68,1.87h-.87Zm1.78-2.54h2.09l-.64-1.71c-.2-.52-.34-.95-.44-1.28-.08.4-.19.79-.33,1.18l-.68,1.81Z"/>
    <path d="m235.35,403.87l.74.11c.03.23.12.39.26.5.19.14.45.21.77.21.35,0,.62-.07.81-.21.19-.14.32-.34.39-.59.04-.15.06-.48.05-.97-.33.39-.74.59-1.24.59-.62,0-1.09-.22-1.43-.67-.34-.44-.5-.98-.5-1.6,0-.43.08-.82.23-1.18s.38-.64.67-.84c.29-.2.64-.29,1.04-.29.53,0,.96.21,1.3.64v-.54h.7v3.87c0,.7-.07,1.19-.21,1.48-.14.29-.37.52-.68.69-.31.17-.69.25-1.13.25-.53,0-.96-.12-1.29-.36s-.49-.6-.48-1.08Zm.63-2.69c0,.59.12,1.02.35,1.28.23.27.53.4.88.4s.64-.13.88-.4c.24-.27.35-.69.35-1.26s-.12-.96-.36-1.24c-.24-.28-.54-.42-.88-.42s-.62.14-.86.41-.35.68-.35,1.22Z"/>
    <path d="m243.35,402.06l.78.1c-.12.46-.35.81-.69,1.07-.34.25-.76.38-1.28.38-.65,0-1.17-.2-1.56-.6s-.57-.97-.57-1.7.19-1.34.58-1.75c.39-.42.89-.62,1.51-.62s1.09.2,1.47.61.57.98.57,1.72c0,.05,0,.11,0,.2h-3.34c.03.49.17.87.42,1.13s.56.39.94.39c.28,0,.52-.07.71-.22.2-.15.35-.38.47-.7Zm-2.49-1.23h2.5c-.03-.38-.13-.66-.29-.85-.24-.29-.55-.44-.94-.44-.35,0-.64.12-.88.35-.24.23-.37.54-.39.94Z"/>
    <path d="m245.09,403.5v-4.47h.68v.64c.33-.49.8-.74,1.42-.74.27,0,.52.05.74.15s.39.22.51.38c.11.16.19.34.24.56.03.14.04.39.04.74v2.75h-.76v-2.72c0-.31-.03-.54-.09-.69-.06-.15-.16-.27-.31-.37s-.33-.14-.53-.14c-.32,0-.6.1-.84.31s-.35.59-.35,1.17v2.44h-.76Z"/>
    <path d="m251.54,402.82l.11.67c-.21.04-.4.07-.57.07-.28,0-.49-.04-.64-.13-.15-.09-.26-.2-.32-.34-.06-.14-.09-.44-.09-.9v-2.57h-.56v-.59h.56v-1.11l.75-.45v1.56h.76v.59h-.76v2.62c0,.22.01.36.04.42.03.06.07.11.13.15s.15.05.26.05c.08,0,.2,0,.33-.03Z"/>
  </g>
  <path class="g" d="m459.26,357.85h162.2c.34,0,.68.03,1.01.1.33.07.66.16.97.29.31.13.61.29.89.48.28.19.54.4.78.64.24.24.45.5.64.78.19.28.35.58.48.89.13.31.23.64.29.97.07.33.1.67.1,1.01v75.92c0,.34-.03.68-.1,1.01-.07.33-.16.66-.29.97-.13.31-.29.61-.48.89-.19.28-.4.54-.64.78-.24.24-.5.45-.78.64-.28.19-.58.35-.89.48-.31.13-.64.23-.97.29-.33.07-.67.1-1.01.1h-162.2c-.34,0-.68-.03-1.01-.1-.33-.07-.66-.16-.97-.29-.31-.13-.61-.29-.89-.48-.28-.19-.54-.4-.78-.64-.24-.24-.46-.5-.64-.78-.19-.28-.35-.58-.48-.89-.13-.31-.23-.64-.29-.97-.07-.33-.1-.67-.1-1.01v-75.92c0-.34.03-.68.1-1.01.07-.33.16-.66.29-.97.13-.31.29-.61.48-.89.19-.28.4-.54.64-.78.24-.24.5-.45.78-.64.28-.19.58-.35.89-.48s.64-.23.97-.29c.33-.07.67-.1,1.01-.1Z"/>
  <path class="f" d="m459.26,357.85h162.2c.34,0,.68.03,1.01.1.33.07.66.16.97.29.31.13.61.29.89.48.28.19.54.4.78.64.24.24.45.5.64.78.19.28.35.58.48.89.13.31.23.64.29.97.07.33.1.67.1,1.01v75.92c0,.34-.03.68-.1,1.01-.07.33-.16.66-.29.97-.13.31-.29.61-.48.89-.19.28-.4.54-.64.78-.24.24-.5.45-.78.64-.28.19-.58.35-.89.48-.31.13-.64.23-.97.29-.33.07-.67.1-1.01.1h-162.2c-.34,0-.68-.03-1.01-.1-.33-.07-.66-.16-.97-.29-.31-.13-.61-.29-.89-.48-.28-.19-.54-.4-.78-.64-.24-.24-.46-.5-.64-.78-.19-.28-.35-.58-.48-.89-.13-.31-.23-.64-.29-.97-.07-.33-.1-.67-.1-1.01v-75.92c0-.34.03-.68.1-1.01.07-.33.16-.66.29-.97.13-.31.29-.61.48-.89.19-.28.4-.54.64-.78.24-.24.5-.45.78-.64.28-.19.58-.35.89-.48s.64-.23.97-.29c.33-.07.67-.1,1.01-.1Z"/>
  <g>
    <path d="m503.54,403.5l2.37-6.18h.88l2.53,6.18h-.93l-.72-1.87h-2.58l-.68,1.87h-.87Zm1.78-2.54h2.09l-.64-1.71c-.2-.52-.34-.95-.44-1.28-.08.4-.19.79-.33,1.18l-.68,1.81Z"/>
    <path d="m509.87,405.22v-6.19h.69v.58c.16-.23.35-.4.55-.51s.45-.17.75-.17c.38,0,.72.1,1.01.29.29.2.51.47.66.83.15.36.22.75.22,1.18,0,.46-.08.87-.25,1.24s-.4.65-.72.84c-.31.2-.64.29-.99.29-.25,0-.48-.05-.68-.16-.2-.11-.37-.24-.49-.4v2.18h-.76Zm.69-3.93c0,.58.12,1,.35,1.28.23.27.52.41.85.41s.62-.14.87-.43c.24-.28.36-.73.36-1.32s-.12-1-.35-1.28-.51-.43-.84-.43-.61.15-.86.45c-.25.3-.37.74-.37,1.32Z"/>
    <path d="m517.73,402.06l.78.1c-.12.46-.35.81-.69,1.07-.34.25-.76.38-1.28.38-.65,0-1.17-.2-1.56-.6s-.57-.97-.57-1.7.19-1.34.58-1.75c.39-.42.89-.62,1.51-.62s1.09.2,1.47.61.57.98.57,1.72c0,.05,0,.11,0,.2h-3.34c.03.49.17.87.42,1.13s.56.39.94.39c.28,0,.52-.07.71-.22.2-.15.35-.38.47-.7Zm-2.49-1.23h2.5c-.03-.38-.13-.66-.29-.85-.24-.29-.55-.44-.94-.44-.35,0-.64.12-.88.35-.24.23-.37.54-.39.94Z"/>
    <path d="m519.46,403.5v-4.47h.68v.68c.17-.32.34-.53.48-.63.15-.1.31-.15.49-.15.26,0,.52.08.78.24l-.26.7c-.18-.11-.37-.16-.55-.16-.17,0-.31.05-.45.15-.13.1-.23.24-.28.42-.09.27-.13.56-.13.88v2.34h-.76Z"/>
    <path d="m524,402.82l.11.67c-.21.04-.4.07-.57.07-.28,0-.49-.04-.64-.13-.15-.09-.26-.2-.32-.34-.06-.14-.09-.44-.09-.9v-2.57h-.56v-.59h.56v-1.11l.75-.45v1.56h.76v.59h-.76v2.62c0,.22.01.36.04.42.03.06.07.11.13.15.06.04.15.05.26.05.08,0,.2,0,.33-.03Z"/>
    <path d="m527.67,403.5v-.66c-.35.51-.82.76-1.42.76-.26,0-.51-.05-.74-.15-.23-.1-.4-.23-.51-.38-.11-.15-.19-.34-.23-.56-.03-.15-.05-.38-.05-.71v-2.77h.76v2.48c0,.4.01.66.04.8.05.2.15.36.3.47.15.11.34.17.57.17s.44-.06.64-.17c.2-.12.34-.28.42-.48.08-.2.12-.49.12-.87v-2.4h.76v4.47h-.68Z"/>
    <path d="m529.53,403.5v-4.47h.68v.68c.17-.32.34-.53.48-.63.15-.1.31-.15.49-.15.26,0,.52.08.78.24l-.26.7c-.18-.11-.37-.16-.55-.16-.17,0-.31.05-.45.15-.13.1-.23.24-.28.42-.09.27-.13.56-.13.88v2.34h-.76Z"/>
    <path d="m535.47,402.06l.78.1c-.12.46-.35.81-.69,1.07-.34.25-.76.38-1.28.38-.65,0-1.17-.2-1.56-.6s-.57-.97-.57-1.7.19-1.34.58-1.75c.39-.42.89-.62,1.51-.62s1.09.2,1.47.61.57.98.57,1.72c0,.05,0,.11,0,.2h-3.34c.03.49.17.87.42,1.13s.56.39.94.39c.28,0,.52-.07.71-.22.2-.15.35-.38.47-.7Zm-2.49-1.23h2.5c-.03-.38-.13-.66-.29-.85-.24-.29-.55-.44-.94-.44-.35,0-.64.12-.88.35-.24.23-.37.54-.39.94Z"/>
    <path d="m544.11,401.34l.82.21c-.17.67-.48,1.18-.92,1.54s-.99.53-1.63.53-1.21-.14-1.62-.41c-.42-.27-.73-.66-.95-1.18-.22-.51-.33-1.07-.33-1.66,0-.64.12-1.2.37-1.68.25-.48.6-.84,1.05-1.09.45-.25.95-.37,1.5-.37.62,0,1.14.16,1.56.47.42.31.71.76.88,1.33l-.8.19c-.14-.45-.35-.78-.62-.98s-.62-.31-1.03-.31c-.47,0-.87.11-1.19.34-.32.23-.54.53-.67.92s-.19.78-.19,1.19c0,.53.08.98.23,1.38.15.39.39.68.71.88.32.19.67.29,1.05.29.46,0,.85-.13,1.16-.4.32-.26.53-.66.64-1.18Z"/>
    <path d="m545.55,401.26c0-.83.23-1.44.69-1.84.38-.33.85-.5,1.41-.5.61,0,1.12.2,1.51.6.39.4.59.96.59,1.67,0,.58-.09,1.03-.26,1.36-.17.33-.42.59-.75.77s-.69.27-1.08.27c-.63,0-1.13-.2-1.52-.6-.39-.4-.58-.98-.58-1.74Zm.78,0c0,.57.12,1,.38,1.29.25.29.56.43.95.43s.69-.14.94-.43.38-.72.38-1.31c0-.55-.13-.97-.38-1.26-.25-.29-.56-.43-.94-.43s-.7.14-.95.43-.38.71-.38,1.29Z"/>
    <path d="m550.63,403.5v-4.47h.68v.64c.33-.49.8-.74,1.42-.74.27,0,.52.05.74.15.22.1.39.22.51.38.11.16.19.34.24.56.03.14.04.39.04.74v2.75h-.76v-2.72c0-.31-.03-.54-.09-.69-.06-.15-.16-.27-.31-.37s-.33-.14-.53-.14c-.32,0-.6.1-.84.31s-.35.59-.35,1.17v2.44h-.76Z"/>
    <path d="m557.09,402.82l.11.67c-.21.04-.4.07-.57.07-.28,0-.49-.04-.64-.13-.15-.09-.26-.2-.32-.34-.06-.14-.09-.44-.09-.9v-2.57h-.56v-.59h.56v-1.11l.75-.45v1.56h.76v.59h-.76v2.62c0,.22.01.36.04.42.03.06.07.11.13.15s.15.05.26.05c.08,0,.2,0,.33-.03Z"/>
    <path d="m557.82,403.5v-4.47h.68v.68c.17-.32.33-.53.48-.63.15-.1.31-.15.49-.15.25,0,.51.08.78.24l-.26.7c-.19-.11-.37-.16-.56-.16-.17,0-.31.05-.45.15-.13.1-.23.24-.28.42-.08.27-.13.56-.13.88v2.34h-.76Z"/>
    <path d="m560.42,401.26c0-.83.23-1.44.69-1.84.38-.33.85-.5,1.41-.5.62,0,1.12.2,1.51.6.39.4.59.96.59,1.67,0,.58-.09,1.03-.26,1.36-.17.33-.42.59-.75.77s-.69.27-1.08.27c-.63,0-1.13-.2-1.52-.6-.38-.4-.58-.98-.58-1.74Zm.78,0c0,.57.12,1,.38,1.29.25.29.56.43.94.43s.69-.14.94-.43.38-.72.38-1.31c0-.55-.12-.97-.38-1.26-.25-.29-.56-.43-.94-.43s-.69.14-.94.43-.38.71-.38,1.29Z"/>
    <path d="m565.49,403.5v-6.18h.76v6.18h-.76Z"/>
    <path d="m567.4,403.5v-6.18h.76v6.18h-.76Z"/>
    <path d="m572.4,402.06l.78.1c-.12.46-.35.81-.69,1.07-.34.25-.76.38-1.28.38-.65,0-1.17-.2-1.56-.6s-.57-.97-.57-1.7.19-1.34.58-1.75c.39-.42.89-.62,1.51-.62s1.09.2,1.47.61.57.98.57,1.72c0,.05,0,.11,0,.2h-3.34c.03.49.17.87.42,1.13s.56.39.94.39c.28,0,.52-.07.71-.22.2-.15.35-.38.47-.7Zm-2.49-1.23h2.5c-.03-.38-.13-.66-.29-.85-.24-.29-.55-.44-.94-.44-.35,0-.64.12-.88.35-.24.23-.37.54-.39.94Z"/>
    <path d="m574.13,403.5v-4.47h.68v.68c.17-.32.34-.53.48-.63.15-.1.31-.15.49-.15.26,0,.52.08.78.24l-.26.7c-.18-.11-.37-.16-.55-.16-.17,0-.31.05-.45.15-.13.1-.23.24-.28.42-.09.27-.13.56-.13.88v2.34h-.76Z"/>
  </g>
  <line class="d" x1="335.77" y1="400.98" x2="449.51" y2="400.98"/>
  <polygon class="h" points="332 400.98 337.03 398.47 335.77 400.98 337.03 403.5 332 400.98"/>
  <polygon class="d" points="332 400.98 337.03 398.47 335.77 400.98 337.03 403.5 332 400.98"/>
  <polygon class="h" points="453.28 400.98 448.25 403.5 449.51 400.98 448.25 398.47 453.28 400.98"/>
  <polygon class="d" points="453.28 400.98 448.25 403.5 449.51 400.98 448.25 398.47 453.28 400.98"/>
  <rect class="c" x="355.23" y="396.31" width="74.05" height="9.35"/>
  <g>
    <path d="m354.88,403.5l2.17-5.66h.81l2.32,5.66h-.85l-.66-1.71h-2.37l-.62,1.71h-.8Zm1.63-2.32h1.92l-.59-1.57c-.18-.48-.31-.87-.4-1.17-.07.36-.17.72-.3,1.08l-.62,1.66Z"/>
    <path d="m363.38,403.5v-.6c-.32.46-.75.7-1.3.7-.24,0-.47-.05-.68-.14s-.37-.21-.47-.35c-.1-.14-.17-.31-.21-.52-.03-.14-.04-.35-.04-.65v-2.54h.7v2.27c0,.36.01.61.04.73.04.18.14.33.28.43.14.1.32.16.53.16s.4-.05.59-.16c.18-.11.31-.25.39-.44s.12-.45.12-.8v-2.2h.7v4.1h-.62Z"/>
    <path d="m366.6,402.88l.1.61c-.2.04-.37.06-.53.06-.25,0-.45-.04-.59-.12-.14-.08-.24-.19-.29-.31s-.09-.4-.09-.82v-2.36h-.51v-.54h.51v-1.02l.69-.42v1.43h.7v.54h-.7v2.4c0,.2.01.33.04.38.03.06.06.1.12.14.06.03.13.05.24.05.08,0,.18,0,.3-.03Z"/>
    <path d="m367.03,401.45c0-.76.21-1.32.63-1.69.35-.3.78-.46,1.29-.46.56,0,1.03.19,1.38.55.36.37.54.88.54,1.53,0,.53-.08.94-.24,1.25-.16.3-.39.54-.69.71-.3.17-.63.25-.99.25-.57,0-1.04-.18-1.39-.55-.36-.37-.53-.9-.53-1.59Zm.71,0c0,.53.12.92.34,1.18.23.26.52.39.87.39s.63-.13.86-.39c.23-.26.34-.66.34-1.2,0-.51-.12-.89-.35-1.15s-.52-.39-.86-.39-.63.13-.87.39c-.23.26-.34.65-.34,1.18Z"/>
    <path d="m373.71,401.68l.71-.06c.03.28.11.52.23.7.12.18.31.33.57.44.26.11.55.17.87.17.29,0,.54-.04.76-.13s.38-.2.49-.35c.11-.15.16-.31.16-.48s-.05-.33-.15-.47c-.1-.13-.27-.24-.51-.33-.15-.06-.49-.15-1.01-.28-.52-.12-.88-.24-1.09-.35-.27-.14-.47-.32-.6-.53-.13-.21-.2-.44-.2-.71,0-.29.08-.55.24-.8s.4-.44.71-.57c.31-.13.66-.19,1.04-.19.42,0,.79.07,1.11.2.32.14.57.33.74.6s.27.56.28.89l-.72.05c-.04-.36-.17-.63-.39-.81s-.55-.27-.99-.27-.78.08-.99.25-.31.37-.31.6c0,.2.07.37.22.5.14.13.52.27,1.13.4.61.14,1.03.26,1.25.36.33.15.57.34.73.58.16.23.24.5.24.81s-.09.58-.26.85c-.17.27-.42.47-.74.62-.32.15-.69.22-1.09.22-.51,0-.94-.07-1.29-.22-.35-.15-.62-.37-.81-.67s-.3-.64-.31-1.02Z"/>
    <path d="m381.83,402l.68.09c-.07.47-.27.84-.57,1.11-.31.27-.69.4-1.13.4-.56,0-1.01-.18-1.35-.55-.34-.37-.51-.89-.51-1.58,0-.44.07-.83.22-1.16.15-.33.37-.58.67-.75.3-.17.62-.25.98-.25.45,0,.81.11,1.09.34.28.23.46.55.54.96l-.68.1c-.06-.28-.18-.48-.34-.62-.16-.14-.36-.21-.59-.21-.35,0-.63.13-.85.38s-.33.65-.33,1.19.11.95.32,1.2c.21.25.49.37.83.37.27,0,.5-.08.68-.25.18-.17.3-.42.35-.77Z"/>
    <path d="m385.79,403c-.26.22-.51.37-.74.46s-.49.14-.77.14c-.45,0-.8-.11-1.04-.33-.24-.22-.36-.5-.36-.84,0-.2.04-.38.14-.55.09-.17.21-.3.36-.4s.31-.18.5-.23c.14-.04.34-.07.62-.1.56-.07.97-.15,1.24-.24,0-.1,0-.16,0-.18,0-.28-.06-.48-.2-.6-.18-.16-.44-.24-.79-.24-.33,0-.57.06-.72.17-.15.11-.27.32-.35.61l-.68-.09c.06-.29.16-.53.31-.7.14-.18.35-.32.61-.41.27-.1.58-.15.93-.15s.63.04.85.12c.22.08.38.19.48.31.1.12.17.28.21.47.02.12.04.33.04.64v.93c0,.65.02,1.05.04,1.23.03.17.09.33.18.49h-.73c-.07-.14-.12-.31-.14-.51Zm-.06-1.55c-.25.1-.63.19-1.13.26-.29.04-.49.09-.61.14-.12.05-.21.13-.27.23s-.1.21-.1.33c0,.19.07.34.21.46.14.12.35.19.62.19s.51-.06.71-.18c.21-.12.36-.28.46-.48.07-.16.11-.39.11-.69v-.25Z"/>
    <path d="m387.49,403.5v-5.66h.7v5.66h-.7Z"/>
    <path d="m392.07,402.18l.72.09c-.11.42-.32.75-.63.98-.31.23-.7.35-1.17.35-.6,0-1.08-.18-1.43-.55s-.53-.89-.53-1.55.18-1.23.53-1.61c.36-.38.82-.57,1.38-.57s1,.19,1.34.56c.35.37.52.9.52,1.58,0,.04,0,.1,0,.19h-3.06c.03.45.15.8.38,1.04.23.24.52.36.86.36.25,0,.47-.07.65-.2s.32-.35.43-.64Zm-2.28-1.12h2.29c-.03-.35-.12-.6-.26-.78-.22-.27-.51-.4-.86-.4-.32,0-.59.11-.8.32s-.34.5-.36.86Z"/>
    <path d="m395.95,403.5v-5.66h1.95c.44,0,.78.03,1.01.08.32.07.6.21.83.41.3.25.52.57.67.97.15.39.22.84.22,1.35,0,.43-.05.81-.15,1.14-.1.33-.23.61-.39.82-.16.22-.33.39-.52.51-.19.12-.41.22-.68.28-.26.06-.57.1-.91.1h-2.04Zm.75-.67h1.21c.37,0,.67-.03.88-.1.21-.07.38-.17.51-.29.18-.18.32-.42.41-.72.1-.3.15-.66.15-1.09,0-.59-.1-1.05-.29-1.37-.19-.32-.43-.53-.71-.64-.2-.08-.52-.12-.97-.12h-1.19v4.33Z"/>
    <path d="m404.38,402.18l.72.09c-.11.42-.32.75-.63.98-.31.23-.7.35-1.17.35-.6,0-1.08-.18-1.43-.55s-.53-.89-.53-1.55.18-1.23.53-1.61c.36-.38.82-.57,1.38-.57s1,.19,1.34.56c.35.37.52.9.52,1.58,0,.04,0,.1,0,.19h-3.06c.03.45.15.8.38,1.04.23.24.52.36.86.36.25,0,.47-.07.65-.2s.32-.35.43-.64Zm-2.28-1.12h2.29c-.03-.35-.12-.6-.26-.78-.22-.27-.51-.4-.86-.4-.32,0-.59.11-.8.32s-.34.5-.36.86Z"/>
    <path d="m408.64,402l.68.09c-.07.47-.27.84-.57,1.11-.31.27-.69.4-1.13.4-.56,0-1.01-.18-1.35-.55-.34-.37-.51-.89-.51-1.58,0-.44.07-.83.22-1.16.15-.33.37-.58.67-.75.3-.17.63-.25.98-.25.45,0,.81.11,1.09.34.28.23.46.55.54.96l-.68.1c-.06-.28-.18-.48-.34-.62-.16-.14-.36-.21-.59-.21-.35,0-.63.13-.85.38s-.33.65-.33,1.19.11.95.32,1.2c.21.25.49.37.83.37.27,0,.5-.08.68-.25.18-.17.3-.42.35-.77Z"/>
    <path d="m409.93,398.64v-.8h.7v.8h-.7Zm0,4.86v-4.1h.7v4.1h-.7Z"/>
    <path d="m411.4,402.28l.69-.11c.04.28.15.49.32.63.18.15.42.22.74.22s.56-.06.71-.19.23-.28.23-.46c0-.16-.07-.28-.2-.37-.1-.06-.33-.14-.71-.24-.51-.13-.86-.24-1.06-.33-.2-.09-.35-.22-.45-.39s-.15-.35-.15-.55c0-.18.04-.35.12-.51s.2-.29.34-.39c.11-.08.26-.15.44-.2.19-.06.39-.08.6-.08.32,0,.6.05.85.14.24.09.42.22.54.38.12.16.2.37.24.64l-.68.09c-.03-.21-.12-.38-.27-.49-.15-.12-.36-.18-.63-.18-.32,0-.55.05-.68.16-.13.11-.2.23-.2.37,0,.09.03.17.08.24.06.07.15.14.27.19.07.03.27.08.61.18.49.13.83.24,1.03.32.19.08.35.21.46.37s.17.36.17.59-.07.45-.2.65c-.13.2-.33.36-.58.48-.26.11-.54.17-.87.17-.53,0-.94-.11-1.22-.33-.28-.22-.46-.55-.54-.98Z"/>
    <path d="m415.64,398.64v-.8h.7v.8h-.7Zm0,4.86v-4.1h.7v4.1h-.7Z"/>
    <path d="m417.13,401.45c0-.76.21-1.32.63-1.69.35-.3.78-.46,1.29-.46.56,0,1.02.19,1.38.55.36.37.54.88.54,1.53,0,.53-.08.94-.24,1.25-.16.3-.39.54-.69.71-.3.17-.63.25-.99.25-.57,0-1.04-.18-1.39-.55s-.53-.9-.53-1.59Zm.71,0c0,.53.12.92.34,1.18s.52.39.87.39.63-.13.86-.39c.23-.26.34-.66.34-1.2,0-.51-.12-.89-.35-1.15s-.52-.39-.86-.39-.64.13-.87.39c-.23.26-.34.65-.34,1.18Z"/>
    <path d="m421.79,403.5v-4.1h.62v.58c.3-.45.74-.68,1.3-.68.25,0,.47.04.68.13s.36.21.46.35c.1.14.18.32.22.51.03.13.04.35.04.68v2.52h-.7v-2.49c0-.28-.03-.5-.08-.64-.05-.14-.15-.25-.29-.34-.14-.08-.3-.13-.48-.13-.29,0-.55.09-.77.28s-.32.54-.32,1.07v2.24h-.7Z"/>
    <path d="m425.91,402.28l.69-.11c.04.28.15.49.32.63.18.15.42.22.74.22s.56-.06.71-.19.23-.28.23-.46c0-.16-.07-.28-.2-.37-.1-.06-.33-.14-.71-.24-.51-.13-.86-.24-1.06-.33-.2-.09-.35-.22-.45-.39s-.15-.35-.15-.55c0-.18.04-.35.12-.51s.2-.29.34-.39c.11-.08.26-.15.44-.2.19-.06.39-.08.6-.08.32,0,.6.05.85.14.24.09.42.22.54.38.12.16.2.37.24.64l-.68.09c-.03-.21-.12-.38-.27-.49-.15-.12-.36-.18-.63-.18-.32,0-.55.05-.68.16-.13.11-.2.23-.2.37,0,.09.03.17.08.24.06.07.15.14.27.19.07.03.27.08.61.18.49.13.83.24,1.03.32.19.08.35.21.46.37s.17.36.17.59-.07.45-.2.65c-.13.2-.33.36-.58.48-.26.11-.54.17-.87.17-.53,0-.94-.11-1.22-.33-.28-.22-.46-.55-.54-.98Z"/>
  </g>
  <line class="d" x1="277.27" y1="288.11" x2="277.27" y2="353.27"/>
  <polygon class="h" points="277.27 357.04 274.75 352.01 277.27 353.27 279.79 352.01 277.27 357.04"/>
  <polygon class="d" points="277.27 357.04 274.75 352.01 277.27 353.27 279.79 352.01 277.27 357.04"/>
  <rect class="c" x="260.32" y="318.66" width="33.79" height="9.35"/>
  <path d="m262.13,325.85v-4.99h-1.87v-.67h4.49v.67h-1.87v4.99h-.75Z"/>
  <g>
    <path d="m267.36,324.53l.72.09c-.11.42-.32.75-.63.98-.31.23-.7.35-1.18.35-.6,0-1.07-.18-1.43-.55s-.53-.89-.53-1.55.18-1.23.53-1.61c.36-.38.82-.57,1.38-.57s1,.19,1.34.56c.35.37.52.9.52,1.58,0,.04,0,.1,0,.19h-3.06c.03.45.15.8.38,1.04.23.24.51.36.86.36.26,0,.47-.07.65-.2.18-.13.32-.35.43-.64Zm-2.28-1.12h2.29c-.03-.35-.12-.6-.26-.78-.22-.27-.51-.4-.86-.4-.32,0-.59.11-.81.32-.22.21-.34.5-.36.86Z"/>
    <path d="m268.94,325.85v-5.66h.7v5.66h-.7Z"/>
    <path d="m273.52,324.53l.72.09c-.11.42-.32.75-.63.98-.31.23-.7.35-1.17.35-.6,0-1.08-.18-1.43-.55s-.53-.89-.53-1.55.18-1.23.53-1.61c.36-.38.82-.57,1.38-.57s1,.19,1.34.56c.35.37.52.9.52,1.58,0,.04,0,.1,0,.19h-3.06c.03.45.15.8.38,1.04.23.24.52.36.86.36.25,0,.47-.07.65-.2s.32-.35.43-.64Zm-2.28-1.12h2.29c-.03-.35-.12-.6-.26-.78-.22-.27-.51-.4-.86-.4-.32,0-.59.11-.8.32s-.34.5-.36.86Z"/>
    <path d="m275.11,325.85v-4.1h.62v.58c.13-.2.3-.36.51-.48.21-.12.46-.18.73-.18.3,0,.55.06.75.19.19.13.33.3.41.53.32-.48.75-.72,1.27-.72.41,0,.72.11.94.34.22.23.33.57.33,1.04v2.81h-.69v-2.58c0-.28-.02-.48-.07-.6-.04-.12-.13-.22-.25-.3-.12-.07-.26-.11-.42-.11-.29,0-.53.1-.72.29s-.29.5-.29.92v2.38h-.7v-2.66c0-.31-.06-.54-.17-.7-.11-.15-.3-.23-.56-.23-.2,0-.38.05-.54.15s-.29.25-.36.45c-.07.2-.11.48-.11.86v2.13h-.7Z"/>
    <path d="m284.5,324.53l.72.09c-.11.42-.32.75-.63.98-.31.23-.7.35-1.17.35-.6,0-1.08-.18-1.43-.55s-.53-.89-.53-1.55.18-1.23.53-1.61c.36-.38.82-.57,1.38-.57s1,.19,1.34.56c.35.37.52.9.52,1.58,0,.04,0,.1,0,.19h-3.06c.03.45.15.8.38,1.04.23.24.52.36.86.36.25,0,.47-.07.65-.2s.32-.35.43-.64Zm-2.28-1.12h2.29c-.03-.35-.12-.6-.26-.78-.22-.27-.51-.4-.86-.4-.32,0-.59.11-.8.32s-.34.5-.36.86Z"/>
    <path d="m287.61,325.23l.1.61c-.2.04-.37.06-.53.06-.25,0-.45-.04-.59-.12-.14-.08-.24-.19-.29-.31s-.09-.4-.09-.82v-2.36h-.51v-.54h.51v-1.02l.69-.42v1.43h.7v.54h-.7v2.4c0,.2.01.33.04.38.03.06.06.1.12.14.06.03.13.05.24.05.08,0,.18,0,.3-.03Z"/>
    <path d="m288.28,325.85v-4.1h.63v.62c.16-.29.31-.48.44-.58s.28-.14.45-.14c.23,0,.47.07.71.22l-.24.65c-.17-.1-.34-.15-.51-.15-.15,0-.29.05-.41.14s-.21.22-.26.38c-.08.25-.12.52-.12.81v2.15h-.7Z"/>
    <path d="m290.89,327.43l-.08-.65c.15.04.29.06.4.06.15,0,.28-.03.37-.08.09-.05.17-.12.23-.22.04-.07.12-.24.21-.52.01-.04.03-.1.06-.17l-1.56-4.11h.75l.85,2.38c.11.3.21.62.3.95.08-.32.17-.63.29-.93l.88-2.39h.7l-1.56,4.17c-.17.45-.3.76-.39.93-.12.23-.26.4-.42.5-.16.11-.35.16-.57.16-.13,0-.28-.03-.45-.08Z"/>
  </g>
  <path class="i" d="m128.44,72.41h189.81c.85,0,1.69.08,2.52.25s1.64.41,2.43.74c.79.33,1.53.72,2.24,1.2.71.47,1.36,1.01,1.96,1.61.6.6,1.14,1.25,1.61,1.96.47.71.87,1.45,1.2,2.24.33.79.57,1.59.74,2.43.17.83.25,1.67.25,2.52v189.81c0,.85-.08,1.69-.25,2.52-.17.83-.41,1.64-.74,2.43-.33.79-.72,1.53-1.2,2.24-.47.71-1.01,1.36-1.61,1.96-.6.6-1.25,1.14-1.96,1.61-.71.47-1.45.87-2.24,1.2-.79.33-1.59.57-2.43.74s-1.67.25-2.52.25h-189.81c-.85,0-1.69-.08-2.53-.25-.83-.17-1.64-.41-2.43-.74-.79-.33-1.53-.72-2.24-1.2-.71-.47-1.36-1.01-1.96-1.61-.6-.6-1.14-1.25-1.61-1.96-.47-.71-.87-1.45-1.2-2.24-.33-.79-.57-1.59-.74-2.43-.17-.83-.25-1.67-.25-2.52V85.36c0-.85.08-1.69.25-2.52.17-.83.41-1.64.74-2.43.33-.79.72-1.53,1.2-2.24s1.01-1.36,1.61-1.96c.6-.6,1.25-1.14,1.96-1.61.71-.47,1.45-.87,2.24-1.2.79-.33,1.59-.57,2.43-.74s1.68-.25,2.52-.25Z"/>
  <path class="e" d="m128.44,72.41h189.81c.85,0,1.69.08,2.52.25s1.64.41,2.43.74c.79.33,1.53.72,2.24,1.2.71.47,1.36,1.01,1.96,1.61.6.6,1.14,1.25,1.61,1.96.47.71.87,1.45,1.2,2.24.33.79.57,1.59.74,2.43.17.83.25,1.67.25,2.52v189.81c0,.85-.08,1.69-.25,2.52-.17.83-.41,1.64-.74,2.43-.33.79-.72,1.53-1.2,2.24-.47.71-1.01,1.36-1.61,1.96-.6.6-1.25,1.14-1.96,1.61-.71.47-1.45.87-2.24,1.2-.79.33-1.59.57-2.43.74s-1.67.25-2.52.25h-189.81c-.85,0-1.69-.08-2.53-.25-.83-.17-1.64-.41-2.43-.74-.79-.33-1.53-.72-2.24-1.2-.71-.47-1.36-1.01-1.96-1.61-.6-.6-1.14-1.25-1.61-1.96-.47-.71-.87-1.45-1.2-2.24-.33-.79-.57-1.59-.74-2.43-.17-.83-.25-1.67-.25-2.52V85.36c0-.85.08-1.69.25-2.52.17-.83.41-1.64.74-2.43.33-.79.72-1.53,1.2-2.24s1.01-1.36,1.61-1.96c.6-.6,1.25-1.14,1.96-1.61.71-.47,1.45-.87,2.24-1.2.79-.33,1.59-.57,2.43-.74s1.68-.25,2.52-.25Z"/>
  <g>
    <path d="m208.93,90.2l.77-.07c.04.31.12.56.25.76.13.2.34.36.62.48.28.12.6.18.95.18.31,0,.59-.05.83-.14.24-.09.42-.22.53-.38.12-.16.18-.34.18-.53s-.06-.36-.17-.51c-.11-.15-.3-.27-.56-.36-.17-.06-.53-.17-1.1-.3s-.96-.26-1.19-.39c-.29-.15-.52-.35-.66-.58-.14-.23-.22-.48-.22-.77,0-.31.09-.6.27-.87.18-.27.44-.48.78-.62.34-.14.72-.21,1.13-.21.46,0,.86.07,1.21.22s.62.36.81.65.29.61.3.97l-.78.06c-.04-.39-.18-.69-.43-.88-.24-.2-.6-.3-1.08-.3s-.85.09-1.08.27-.34.4-.34.66c0,.22.08.4.24.55.16.14.57.29,1.23.44s1.12.28,1.37.39c.36.17.62.38.8.63.17.25.26.55.26.88s-.09.64-.28.93c-.19.29-.46.52-.81.68-.35.16-.75.24-1.19.24-.56,0-1.03-.08-1.4-.24-.38-.16-.67-.41-.89-.73s-.33-.7-.34-1.11Z"/>
    <path d="m217.93,90.74l.78.1c-.12.46-.35.81-.69,1.07-.33.25-.76.38-1.28.38-.65,0-1.17-.2-1.56-.6-.38-.4-.57-.97-.57-1.7s.19-1.34.58-1.75c.39-.42.89-.62,1.51-.62s1.09.2,1.46.61c.38.41.57.98.57,1.72,0,.05,0,.11,0,.2h-3.34c.03.49.17.87.42,1.13s.56.39.94.39c.28,0,.51-.07.71-.22s.35-.38.47-.7Zm-2.49-1.23h2.5c-.03-.38-.13-.66-.29-.85-.24-.29-.55-.44-.94-.44-.35,0-.64.12-.88.35-.24.23-.37.54-.39.94Z"/>
    <path d="m219.66,92.19v-4.47h.68v.68c.17-.32.34-.53.48-.63.15-.1.31-.15.49-.15.26,0,.52.08.78.24l-.26.7c-.18-.11-.37-.16-.55-.16-.17,0-.31.05-.45.15-.13.1-.23.24-.28.42-.09.27-.13.56-.13.88v2.34h-.76Z"/>
    <path d="m223.78,92.19l-1.7-4.47h.8l.96,2.68c.11.29.2.59.29.9.07-.24.16-.52.28-.85l.99-2.73h.78l-1.69,4.47h-.71Z"/>
    <path d="m226.86,86.88v-.87h.76v.87h-.76Zm0,5.3v-4.47h.76v4.47h-.76Z"/>
    <path d="m231.69,90.55l.74.1c-.08.51-.29.92-.62,1.21s-.75.44-1.24.44c-.61,0-1.1-.2-1.48-.6-.37-.4-.56-.97-.56-1.72,0-.48.08-.91.24-1.27s.4-.63.73-.81c.33-.18.68-.27,1.07-.27.49,0,.88.12,1.19.37.31.25.51.59.59,1.05l-.74.11c-.07-.3-.19-.53-.37-.68-.18-.15-.39-.23-.65-.23-.38,0-.69.14-.93.41-.24.27-.36.71-.36,1.3s.12,1.04.35,1.31.53.41.9.41c.3,0,.54-.09.75-.27.2-.18.32-.46.38-.84Z"/>
    <path d="m236.15,90.74l.78.1c-.12.46-.35.81-.69,1.07-.34.25-.76.38-1.28.38-.65,0-1.17-.2-1.56-.6s-.57-.97-.57-1.7.19-1.34.58-1.75c.39-.42.89-.62,1.51-.62s1.09.2,1.47.61.57.98.57,1.72c0,.05,0,.11,0,.2h-3.34c.03.49.17.87.42,1.13s.56.39.94.39c.28,0,.52-.07.71-.22.2-.15.35-.38.47-.7Zm-2.49-1.23h2.5c-.03-.38-.13-.66-.29-.85-.24-.29-.55-.44-.94-.44-.35,0-.64.12-.88.35-.24.23-.37.54-.39.94Z"/>
  </g>
  <path class="c" d="m154.33,129.93h106.41c.66,0,1.32.06,1.96.19.65.13,1.28.32,1.89.57.61.25,1.19.56,1.74.93.55.37,1.06.78,1.53,1.25.47.47.88.98,1.25,1.53.37.55.68,1.13.93,1.74s.44,1.24.57,1.89.19,1.3.19,1.96v46.97c0,.66-.06,1.32-.19,1.96s-.32,1.28-.57,1.89-.56,1.19-.93,1.74c-.37.55-.78,1.06-1.25,1.53-.47.47-.98.88-1.53,1.25-.55.37-1.13.68-1.74.93-.61.25-1.24.44-1.89.57-.65.13-1.3.19-1.96.19h-106.41c-.66,0-1.32-.06-1.96-.19-.65-.13-1.28-.32-1.89-.57-.61-.25-1.19-.56-1.74-.93-.55-.37-1.06-.78-1.53-1.25-.47-.47-.88-.98-1.25-1.53-.37-.55-.68-1.13-.93-1.74s-.44-1.24-.57-1.89c-.13-.65-.19-1.3-.19-1.96v-46.97c0-.66.06-1.32.19-1.96s.32-1.28.57-1.89.56-1.19.93-1.74c.37-.55.78-1.06,1.25-1.53.47-.47.98-.88,1.53-1.25.55-.37,1.13-.68,1.74-.93.61-.25,1.24-.44,1.89-.57.65-.13,1.3-.19,1.96-.19Z"/>
  <path class="e" d="m154.33,129.93h106.41c.66,0,1.32.06,1.96.19.65.13,1.28.32,1.89.57.61.25,1.19.56,1.74.93.55.37,1.06.78,1.53,1.25.47.47.88.98,1.25,1.53.37.55.68,1.13.93,1.74s.44,1.24.57,1.89.19,1.3.19,1.96v46.97c0,.66-.06,1.32-.19,1.96s-.32,1.28-.57,1.89-.56,1.19-.93,1.74c-.37.55-.78,1.06-1.25,1.53-.47.47-.98.88-1.53,1.25-.55.37-1.13.68-1.74.93-.61.25-1.24.44-1.89.57-.65.13-1.3.19-1.96.19h-106.41c-.66,0-1.32-.06-1.96-.19-.65-.13-1.28-.32-1.89-.57-.61-.25-1.19-.56-1.74-.93-.55-.37-1.06-.78-1.53-1.25-.47-.47-.88-.98-1.25-1.53-.37-.55-.68-1.13-.93-1.74s-.44-1.24-.57-1.89c-.13-.65-.19-1.3-.19-1.96v-46.97c0-.66.06-1.32.19-1.96s.32-1.28.57-1.89.56-1.19.93-1.74c.37-.55.78-1.06,1.25-1.53.47-.47.98-.88,1.53-1.25.55-.37,1.13-.68,1.74-.93.61-.25,1.24-.44,1.89-.57.65-.13,1.3-.19,1.96-.19Z"/>
  <path class="c" d="m164.87,141.12h106.41c.66,0,1.32.06,1.96.19s1.28.32,1.89.57,1.19.56,1.74.93c.55.37,1.06.78,1.53,1.25s.88.98,1.25,1.53c.37.55.68,1.13.93,1.74.25.61.44,1.24.57,1.89.13.65.19,1.3.19,1.96v46.97c0,.66-.06,1.32-.19,1.96-.13.65-.32,1.28-.57,1.89-.25.61-.56,1.19-.93,1.74-.37.55-.78,1.06-1.25,1.53s-.98.88-1.53,1.25c-.55.37-1.13.68-1.74.93-.61.25-1.24.44-1.89.57-.65.13-1.3.19-1.96.19h-106.41c-.66,0-1.32-.06-1.96-.19-.65-.13-1.28-.32-1.89-.57-.61-.25-1.19-.56-1.74-.93-.55-.37-1.06-.78-1.53-1.25s-.88-.98-1.25-1.53c-.37-.55-.68-1.13-.93-1.74-.25-.61-.44-1.24-.57-1.89-.13-.65-.19-1.3-.19-1.96v-46.97c0-.66.06-1.32.19-1.96.13-.65.32-1.28.57-1.89.25-.61.56-1.19.93-1.74.37-.55.78-1.06,1.25-1.53s.98-.88,1.53-1.25c.55-.37,1.13-.68,1.74-.93.61-.25,1.24-.44,1.89-.57.65-.13,1.3-.19,1.96-.19Z"/>
  <path class="e" d="m164.87,141.12h106.41c.66,0,1.32.06,1.96.19s1.28.32,1.89.57,1.19.56,1.74.93c.55.37,1.06.78,1.53,1.25s.88.98,1.25,1.53c.37.55.68,1.13.93,1.74.25.61.44,1.24.57,1.89.13.65.19,1.3.19,1.96v46.97c0,.66-.06,1.32-.19,1.96-.13.65-.32,1.28-.57,1.89-.25.61-.56,1.19-.93,1.74-.37.55-.78,1.06-1.25,1.53s-.98.88-1.53,1.25c-.55.37-1.13.68-1.74.93-.61.25-1.24.44-1.89.57-.65.13-1.3.19-1.96.19h-106.41c-.66,0-1.32-.06-1.96-.19-.65-.13-1.28-.32-1.89-.57-.61-.25-1.19-.56-1.74-.93-.55-.37-1.06-.78-1.53-1.25s-.88-.98-1.25-1.53c-.37-.55-.68-1.13-.93-1.74-.25-.61-.44-1.24-.57-1.89-.13-.65-.19-1.3-.19-1.96v-46.97c0-.66.06-1.32.19-1.96.13-.65.32-1.28.57-1.89.25-.61.56-1.19.93-1.74.37-.55.78-1.06,1.25-1.53s.98-.88,1.53-1.25c.55-.37,1.13-.68,1.74-.93.61-.25,1.24-.44,1.89-.57.65-.13,1.3-.19,1.96-.19Z"/>
  <path class="c" d="m175.41,152.3h106.41c.66,0,1.32.06,1.96.19.65.13,1.28.32,1.89.57.61.25,1.19.56,1.74.93.55.37,1.06.78,1.53,1.25.47.47.88.98,1.25,1.53s.68,1.13.93,1.74c.25.61.44,1.24.57,1.89.13.65.19,1.3.19,1.96v46.97c0,.66-.06,1.32-.19,1.96-.13.65-.32,1.28-.57,1.89-.25.61-.56,1.19-.93,1.74s-.78,1.06-1.25,1.53c-.47.47-.98.88-1.53,1.25-.55.37-1.13.68-1.74.93-.61.25-1.24.44-1.89.57-.65.13-1.3.19-1.96.19h-106.41c-.66,0-1.32-.06-1.96-.19s-1.28-.32-1.89-.57c-.61-.25-1.19-.56-1.74-.93-.55-.37-1.06-.78-1.53-1.25-.47-.47-.88-.98-1.25-1.53-.37-.55-.68-1.13-.93-1.74-.25-.61-.44-1.24-.57-1.89-.13-.65-.19-1.3-.19-1.96v-46.97c0-.66.06-1.32.19-1.96.13-.65.32-1.28.57-1.89s.56-1.19.93-1.74c.37-.55.78-1.06,1.25-1.53s.98-.88,1.53-1.25c.55-.37,1.13-.68,1.74-.93.61-.25,1.24-.44,1.89-.57.65-.13,1.3-.19,1.96-.19Z"/>
  <path class="e" d="m175.41,152.3h106.41c.66,0,1.32.06,1.96.19.65.13,1.28.32,1.89.57.61.25,1.19.56,1.74.93.55.37,1.06.78,1.53,1.25.47.47.88.98,1.25,1.53s.68,1.13.93,1.74c.25.61.44,1.24.57,1.89.13.65.19,1.3.19,1.96v46.97c0,.66-.06,1.32-.19,1.96-.13.65-.32,1.28-.57,1.89-.25.61-.56,1.19-.93,1.74s-.78,1.06-1.25,1.53c-.47.47-.98.88-1.53,1.25-.55.37-1.13.68-1.74.93-.61.25-1.24.44-1.89.57-.65.13-1.3.19-1.96.19h-106.41c-.66,0-1.32-.06-1.96-.19s-1.28-.32-1.89-.57c-.61-.25-1.19-.56-1.74-.93-.55-.37-1.06-.78-1.53-1.25-.47-.47-.88-.98-1.25-1.53-.37-.55-.68-1.13-.93-1.74-.25-.61-.44-1.24-.57-1.89-.13-.65-.19-1.3-.19-1.96v-46.97c0-.66.06-1.32.19-1.96.13-.65.32-1.28.57-1.89s.56-1.19.93-1.74c.37-.55.78-1.06,1.25-1.53s.98-.88,1.53-1.25c.55-.37,1.13-.68,1.74-.93.61-.25,1.24-.44,1.89-.57.65-.13,1.3-.19,1.96-.19Z"/>
  <path class="c" d="m185.96,163.49h106.41c.66,0,1.32.06,1.96.19.65.13,1.28.32,1.89.57.61.25,1.19.56,1.74.93.55.37,1.06.78,1.53,1.25.47.47.88.98,1.25,1.53.37.55.68,1.13.93,1.74.25.61.44,1.24.57,1.89.13.65.19,1.3.19,1.96v46.97c0,.66-.06,1.32-.19,1.96-.13.65-.32,1.28-.57,1.89-.25.61-.56,1.19-.93,1.74-.37.55-.78,1.06-1.25,1.53-.47.47-.98.88-1.53,1.25-.55.37-1.13.68-1.74.93-.61.25-1.24.44-1.89.57-.65.13-1.3.19-1.96.19h-106.41c-.66,0-1.32-.06-1.96-.19-.65-.13-1.28-.32-1.89-.57s-1.19-.56-1.74-.93-1.06-.78-1.53-1.25c-.47-.47-.88-.98-1.25-1.53-.37-.55-.68-1.13-.93-1.74-.25-.61-.44-1.24-.57-1.89s-.19-1.3-.19-1.96v-46.97c0-.66.06-1.32.19-1.96s.32-1.28.57-1.89c.25-.61.56-1.19.93-1.74.37-.55.78-1.06,1.25-1.53.47-.47.98-.88,1.53-1.25s1.13-.68,1.74-.93,1.24-.44,1.89-.57c.65-.13,1.3-.19,1.96-.19Z"/>
  <path class="e" d="m185.96,163.49h106.41c.66,0,1.32.06,1.96.19.65.13,1.28.32,1.89.57.61.25,1.19.56,1.74.93.55.37,1.06.78,1.53,1.25.47.47.88.98,1.25,1.53.37.55.68,1.13.93,1.74.25.61.44,1.24.57,1.89.13.65.19,1.3.19,1.96v46.97c0,.66-.06,1.32-.19,1.96-.13.65-.32,1.28-.57,1.89-.25.61-.56,1.19-.93,1.74-.37.55-.78,1.06-1.25,1.53-.47.47-.98.88-1.53,1.25-.55.37-1.13.68-1.74.93-.61.25-1.24.44-1.89.57-.65.13-1.3.19-1.96.19h-106.41c-.66,0-1.32-.06-1.96-.19-.65-.13-1.28-.32-1.89-.57s-1.19-.56-1.74-.93-1.06-.78-1.53-1.25c-.47-.47-.88-.98-1.25-1.53-.37-.55-.68-1.13-.93-1.74-.25-.61-.44-1.24-.57-1.89s-.19-1.3-.19-1.96v-46.97c0-.66.06-1.32.19-1.96s.32-1.28.57-1.89c.25-.61.56-1.19.93-1.74.37-.55.78-1.06,1.25-1.53.47-.47.98-.88,1.53-1.25s1.13-.68,1.74-.93,1.24-.44,1.89-.57c.65-.13,1.3-.19,1.96-.19Z"/>
  <g>
    <path d="m229.58,199.31v-6.18h2.33c.41,0,.72.02.94.06.3.05.56.15.76.29.21.14.37.34.49.6.12.26.19.54.19.84,0,.53-.17.97-.5,1.33-.33.36-.94.55-1.81.55h-1.58v2.51h-.82Zm.82-3.24h1.6c.53,0,.9-.1,1.12-.29.22-.2.33-.47.33-.83,0-.26-.07-.48-.2-.66-.13-.18-.3-.31-.52-.36-.14-.04-.39-.06-.76-.06h-1.58v2.21Z"/>
    <path d="m234.96,197.08c0-.83.23-1.44.69-1.84.38-.33.85-.5,1.41-.5.62,0,1.12.2,1.51.6.39.4.59.96.59,1.67,0,.58-.09,1.03-.26,1.36-.17.33-.42.59-.75.77s-.69.27-1.08.27c-.63,0-1.13-.2-1.52-.6-.38-.4-.58-.98-.58-1.74Zm.78,0c0,.57.12,1,.38,1.29.25.29.56.43.94.43s.69-.14.94-.43.38-.72.38-1.31c0-.55-.12-.97-.38-1.26-.25-.29-.56-.43-.94-.43s-.69.14-.94.43-.38.71-.38,1.29Z"/>
    <path d="m242.94,199.31v-.56c-.28.44-.7.67-1.25.67-.36,0-.68-.1-.98-.29-.3-.2-.53-.47-.7-.82-.16-.35-.25-.76-.25-1.22s.07-.85.22-1.22.37-.64.67-.84.63-.29,1-.29c.27,0,.51.06.72.17s.38.26.51.44v-2.22h.75v6.18h-.7Zm-2.4-2.23c0,.57.12,1,.36,1.29.24.28.53.43.86.43s.61-.14.85-.41c.23-.27.35-.68.35-1.24,0-.61-.12-1.06-.36-1.35-.23-.29-.53-.43-.87-.43s-.62.14-.85.41c-.22.28-.34.71-.34,1.3Z"/>
    <path d="m244.53,197.98l.75-.12c.04.3.16.53.35.69.19.16.46.24.81.24s.61-.07.78-.21c.17-.14.25-.31.25-.5,0-.17-.07-.31-.22-.4-.11-.07-.36-.15-.78-.26-.56-.14-.94-.26-1.16-.36s-.38-.24-.49-.43c-.11-.18-.17-.38-.17-.6,0-.2.05-.38.14-.55.09-.17.22-.31.37-.42.12-.09.28-.16.48-.22.21-.06.42-.09.66-.09.35,0,.66.05.92.15s.46.24.59.41.21.4.26.69l-.74.1c-.03-.23-.13-.41-.29-.54-.16-.13-.39-.19-.68-.19-.35,0-.6.06-.75.17s-.22.25-.22.4c0,.1.03.19.09.27.06.08.16.15.29.2.08.03.3.09.67.19.54.14.91.26,1.12.35.21.09.38.22.5.4.12.17.18.39.18.65s-.07.49-.22.71c-.15.22-.36.4-.64.52s-.59.18-.94.18c-.58,0-1.03-.12-1.33-.36s-.5-.6-.58-1.07Z"/>
  </g>
  <line class="d" x1="169.42" y1="353.27" x2="169.42" y2="292.69"/>
  <polygon class="h" points="169.42 357.04 166.91 352.01 169.42 353.27 171.94 352.01 169.42 357.04"/>
  <polygon class="d" points="169.42 357.04 166.91 352.01 169.42 353.27 171.94 352.01 169.42 357.04"/>
  <polygon class="h" points="169.42 288.91 171.94 293.94 169.42 292.69 166.91 293.94 169.42 288.91"/>
  <polygon class="d" points="169.42 288.91 171.94 293.94 169.42 292.69 166.91 293.94 169.42 288.91"/>
  <rect class="c" x="150.32" y="317.94" width="38.11" height="9.35"/>
  <g>
    <path d="m150.24,325.13l2.17-5.66h.81l2.32,5.66h-.85l-.66-1.71h-2.37l-.62,1.71h-.79Zm1.63-2.32h1.92l-.59-1.57c-.18-.48-.31-.87-.4-1.17-.07.36-.17.72-.31,1.08l-.62,1.66Z"/>
    <path d="m158.74,325.13v-.6c-.32.46-.75.7-1.3.7-.24,0-.47-.05-.68-.14-.21-.09-.37-.21-.47-.35-.1-.14-.17-.31-.21-.52-.03-.14-.04-.35-.04-.65v-2.54h.7v2.27c0,.36.01.61.04.73.04.18.14.33.28.43.14.1.32.16.53.16s.4-.05.59-.16c.18-.11.31-.25.39-.44s.11-.45.11-.8v-2.2h.7v4.1h-.62Z"/>
    <path d="m161.97,324.51l.1.61c-.2.04-.37.06-.53.06-.25,0-.45-.04-.59-.12-.14-.08-.24-.19-.29-.31s-.08-.4-.08-.82v-2.36h-.51v-.54h.51v-1.02l.69-.42v1.43h.7v.54h-.7v2.4c0,.2.01.33.04.38.02.06.06.1.12.14.05.03.13.05.24.05.08,0,.18,0,.3-.03Z"/>
    <path d="m162.39,323.08c0-.76.21-1.32.63-1.69.35-.3.78-.46,1.29-.46.56,0,1.02.19,1.38.55.36.37.54.88.54,1.53,0,.53-.08.94-.24,1.25-.16.3-.39.54-.69.71-.3.17-.63.25-.99.25-.57,0-1.04-.18-1.39-.55s-.53-.9-.53-1.59Zm.71,0c0,.53.12.92.34,1.18s.52.39.87.39.63-.13.86-.39c.23-.26.34-.66.34-1.2,0-.51-.12-.89-.35-1.15s-.52-.39-.86-.39-.64.13-.87.39c-.23.26-.34.65-.34,1.18Z"/>
    <path d="m169.08,323.31l.71-.06c.04.28.11.52.23.7s.31.33.57.44c.26.11.55.17.87.17.29,0,.54-.04.76-.13s.38-.2.49-.35c.11-.15.16-.31.16-.48s-.05-.33-.15-.47c-.1-.13-.27-.24-.51-.33-.15-.06-.49-.15-1.01-.28s-.88-.24-1.09-.35c-.27-.14-.47-.32-.61-.53-.13-.21-.2-.44-.2-.71,0-.29.08-.55.24-.8s.4-.44.71-.57c.31-.13.66-.19,1.04-.19.42,0,.79.07,1.11.2.32.14.57.33.74.6.17.26.26.56.28.89l-.72.05c-.04-.36-.17-.63-.39-.81s-.55-.27-.99-.27-.78.08-.99.25-.31.37-.31.6c0,.2.07.37.22.5.14.13.52.27,1.13.4s1.03.26,1.25.36c.33.15.57.34.73.58.16.23.24.5.24.81s-.09.58-.26.85c-.17.27-.42.47-.74.62s-.69.22-1.09.22c-.51,0-.94-.07-1.29-.22s-.62-.37-.81-.67-.3-.64-.31-1.02Z"/>
    <path d="m177.19,323.63l.68.09c-.07.47-.27.84-.57,1.11-.31.27-.69.4-1.13.4-.56,0-1.01-.18-1.35-.55-.34-.37-.51-.89-.51-1.58,0-.44.07-.83.22-1.16.15-.33.37-.58.67-.75.3-.17.63-.25.98-.25.45,0,.81.11,1.09.34.28.23.46.55.54.96l-.68.1c-.06-.28-.18-.48-.34-.62-.16-.14-.36-.21-.59-.21-.35,0-.63.13-.85.38s-.33.65-.33,1.19.11.95.32,1.2c.21.25.49.37.83.37.27,0,.5-.08.68-.25.18-.17.3-.42.35-.77Z"/>
    <path d="m181.15,324.63c-.26.22-.5.37-.74.46s-.49.14-.77.14c-.45,0-.8-.11-1.04-.33-.24-.22-.36-.5-.36-.84,0-.2.04-.38.14-.55.09-.17.21-.3.36-.4.15-.1.31-.18.5-.23.14-.04.34-.07.62-.1.56-.07.97-.15,1.24-.24,0-.1,0-.16,0-.18,0-.28-.07-.48-.2-.6-.18-.16-.44-.24-.79-.24-.33,0-.57.06-.72.17-.16.11-.27.32-.35.61l-.68-.09c.06-.29.16-.53.3-.7.14-.18.35-.32.61-.41.27-.1.58-.15.93-.15s.63.04.85.12c.22.08.38.19.48.31s.18.28.22.47c.02.12.04.33.04.64v.93c0,.65.01,1.05.04,1.23.03.17.09.33.18.49h-.72c-.07-.14-.12-.31-.14-.51Zm-.06-1.55c-.25.1-.63.19-1.14.26-.29.04-.49.09-.61.14-.12.05-.21.13-.27.23s-.1.21-.1.33c0,.19.07.34.21.46s.35.19.62.19.51-.06.71-.18.36-.28.46-.48c.08-.16.11-.39.11-.69v-.25Z"/>
    <path d="m182.85,325.13v-5.66h.7v5.66h-.7Z"/>
    <path d="m187.43,323.81l.72.09c-.11.42-.32.75-.63.98-.31.23-.7.35-1.18.35-.6,0-1.07-.18-1.43-.55s-.53-.89-.53-1.55.18-1.23.53-1.61c.36-.38.82-.57,1.38-.57s1,.19,1.34.56c.35.37.52.9.52,1.58,0,.04,0,.1,0,.19h-3.06c.03.45.15.8.38,1.04.23.24.51.36.86.36.26,0,.47-.07.65-.2.18-.13.32-.35.43-.64Zm-2.28-1.12h2.29c-.03-.35-.12-.6-.26-.78-.22-.27-.51-.4-.86-.4-.32,0-.59.11-.81.32-.22.21-.34.5-.36.86Z"/>
  </g>
</svg>