<?xml version="1.0" encoding="UTF-8" standalone="no"?>
<!DOCTYPE svg PUBLIC "-//W3C//DTD SVG 1.1//EN"
 "http://www.w3.org/Graphics/SVG/1.1/DTD/svg11.dtd">
<!-- Generated by graphviz version 7.0.0 (20221023.0053)
 -->
<!-- Pages: 1 -->
<svg width="1883pt" height="621pt"
 viewBox="0.00 0.00 1882.80 621.00" xmlns="http://www.w3.org/2000/svg" xmlns:xlink="http://www.w3.org/1999/xlink">
<g id="graph0" class="graph" transform="scale(1 1) rotate(0) translate(4 617)">
<polygon fill="white" stroke="none" points="-4,4 -4,-617 1878.8,-617 1878.8,4 -4,4"/>
<g id="clust1" class="cluster">
<title>cluster_s17</title>
<polygon fill="none" stroke="black" points="1521.82,-8 1521.82,-221 1866.8,-221 1866.8,-8 1521.82,-8"/>
<text text-anchor="middle" x="1694.31" y="-205.8" font-family="Times,serif" font-size="14.00">AIMDConcurrencyController[root.4]</text>
</g>
<g id="clust4" class="cluster">
<title>cluster_s3</title>
<polygon fill="none" stroke="black" points="14.15,-392 14.15,-605 530.59,-605 530.59,-392 14.15,-392"/>
<text text-anchor="middle" x="272.37" y="-589.8" font-family="Times,serif" font-size="14.00">ArithmeticCombinator[root.1]</text>
</g>
<g id="clust7" class="cluster">
<title>cluster_s8</title>
<polygon fill="none" stroke="black" points="879.38,-117 879.38,-330 1372.82,-330 1372.82,-117 879.38,-117"/>
<text text-anchor="middle" x="1126.1" y="-314.8" font-family="Times,serif" font-size="14.00">ArithmeticCombinator[root.2]</text>
</g>
<g id="clust10" class="cluster">
<title>cluster_s13</title>
<polygon fill="none" stroke="black" points="616.59,-338 616.59,-551 1039.52,-551 1039.52,-338 616.59,-338"/>
<text text-anchor="middle" x="828.06" y="-535.8" font-family="Times,serif" font-size="14.00">EMA[root.3]</text>
</g>
<g id="clust13" class="cluster">
<title>cluster_s1</title>
<polygon fill="none" stroke="black" points="8,-225 8,-384 174.29,-384 174.29,-225 8,-225"/>
<text text-anchor="middle" x="91.15" y="-368.8" font-family="Times,serif" font-size="14.00">PromQL[root.0]</text>
</g>
<!-- n21 -->
<g id="node1" class="node">
<title>n21</title>
<ellipse fill="none" stroke="black" cx="1751.16" cy="-76" rx="51.99" ry="18"/>
<text text-anchor="middle" x="1751.16" y="-72.3" font-family="Times,serif" font-size="14.00">is_overload</text>
</g>
<!-- n20 -->
<g id="node2" class="node">
<title>n20</title>
<ellipse fill="none" stroke="black" cx="1751.16" cy="-130" rx="65.79" ry="18"/>
<text text-anchor="middle" x="1751.16" y="-126.3" font-family="Times,serif" font-size="14.00">load_multiplier</text>
</g>
<!-- n18 -->
<g id="node3" class="node">
<title>n18</title>
<ellipse fill="none" stroke="black" cx="1610.16" cy="-130" rx="38.19" ry="18"/>
<text text-anchor="middle" x="1610.16" y="-126.3" font-family="Times,serif" font-size="14.00">setpoint</text>
</g>
<!-- n19 -->
<g id="node4" class="node">
<title>n19</title>
<ellipse fill="none" stroke="black" cx="1610.16" cy="-76" rx="31.7" ry="18"/>
<text text-anchor="middle" x="1610.16" y="-72.3" font-family="Times,serif" font-size="14.00">signal</text>
</g>
<!-- n19&#45;&gt;n21 -->
<!-- n5 -->
<g id="node5" class="node">
<title>n5</title>
<ellipse fill="none" stroke="black" cx="91.15" cy="-514" rx="27" ry="18"/>
<text text-anchor="middle" x="91.15" y="-510.3" font-family="Times,serif" font-size="14.00">2.00</text>
</g>
<!-- n4 -->
<g id="node8" class="node">
<title>n4</title>
<ellipse fill="none" stroke="black" cx="289.29" cy="-514" rx="27" ry="18"/>
<text text-anchor="middle" x="289.29" y="-510.3" font-family="Times,serif" font-size="14.00">rhs</text>
</g>
<!-- n5&#45;&gt;n4 -->
<g id="edge2" class="edge">
<title>n5&#45;&gt;n4</title>
<path fill="none" stroke="black" d="M118.28,-514C118.28,-514 250.34,-514 250.34,-514"/>
<polygon fill="black" stroke="black" points="250.34,-517.5 260.34,-514 250.34,-510.5 250.34,-517.5"/>
</g>
<!-- n6 -->
<g id="node6" class="node">
<title>n6</title>
<ellipse fill="none" stroke="black" cx="289.29" cy="-460" rx="27" ry="18"/>
<text text-anchor="middle" x="289.29" y="-456.3" font-family="Times,serif" font-size="14.00">lhs</text>
</g>
<!-- n7 -->
<g id="node7" class="node">
<title>n7</title>
<ellipse fill="none" stroke="black" cx="447.44" cy="-460" rx="33.29" ry="18"/>
<text text-anchor="middle" x="447.44" y="-456.3" font-family="Times,serif" font-size="14.00">output</text>
</g>
<!-- n6&#45;&gt;n7 -->
<!-- n15 -->
<g id="node14" class="node">
<title>n15</title>
<ellipse fill="none" stroke="black" cx="728.98" cy="-460" rx="62.29" ry="18"/>
<text text-anchor="middle" x="728.98" y="-456.3" font-family="Times,serif" font-size="14.00">max_envelope</text>
</g>
<!-- n7&#45;&gt;n15 -->
<g id="edge7" class="edge">
<title>n7&#45;&gt;n15</title>
<path fill="none" stroke="black" d="M481.12,-460C481.12,-460 654.95,-460 654.95,-460"/>
<polygon fill="black" stroke="black" points="654.95,-463.5 664.95,-460 654.95,-456.5 654.95,-463.5"/>
<text text-anchor="middle" x="573.59" y="-463.8" font-family="Times,serif" font-size="14.00">MAX_EMA</text>
</g>
<!-- n11 -->
<g id="node9" class="node">
<title>n11</title>
<ellipse fill="none" stroke="black" cx="956.38" cy="-185" rx="27" ry="18"/>
<text text-anchor="middle" x="956.38" y="-181.3" font-family="Times,serif" font-size="14.00">1.10</text>
</g>
<!-- n10 -->
<g id="node12" class="node">
<title>n10</title>
<ellipse fill="none" stroke="black" cx="1192.52" cy="-185" rx="27" ry="18"/>
<text text-anchor="middle" x="1192.52" y="-181.3" font-family="Times,serif" font-size="14.00">rhs</text>
</g>
<!-- n11&#45;&gt;n10 -->
<g id="edge4" class="edge">
<title>n11&#45;&gt;n10</title>
<path fill="none" stroke="black" d="M983.47,-185C983.47,-185 1153.87,-185 1153.87,-185"/>
<polygon fill="black" stroke="black" points="1153.87,-188.5 1163.87,-185 1153.87,-181.5 1153.87,-188.5"/>
</g>
<!-- n9 -->
<g id="node10" class="node">
<title>n9</title>
<ellipse fill="none" stroke="black" cx="1192.52" cy="-239" rx="27" ry="18"/>
<text text-anchor="middle" x="1192.52" y="-235.3" font-family="Times,serif" font-size="14.00">lhs</text>
</g>
<!-- n12 -->
<g id="node11" class="node">
<title>n12</title>
<ellipse fill="none" stroke="black" cx="1289.67" cy="-185" rx="33.29" ry="18"/>
<text text-anchor="middle" x="1289.67" y="-181.3" font-family="Times,serif" font-size="14.00">output</text>
</g>
<!-- n12&#45;&gt;n18 -->
<g id="edge8" class="edge">
<title>n12&#45;&gt;n18</title>
<path fill="none" stroke="black" d="M1289.8,-166.69C1289.8,-150.69 1289.8,-130 1289.8,-130 1289.8,-130 1560.01,-130 1560.01,-130"/>
<polygon fill="black" stroke="black" points="1560.01,-133.5 1570.01,-130 1560.01,-126.5 1560.01,-133.5"/>
<text text-anchor="middle" x="1447.32" y="-151.8" font-family="Times,serif" font-size="14.00">LATENCY_SETPOINT</text>
</g>
<!-- n10&#45;&gt;n12 -->
<!-- n14 -->
<g id="node13" class="node">
<title>n14</title>
<ellipse fill="none" stroke="black" cx="728.98" cy="-406" rx="28.7" ry="18"/>
<text text-anchor="middle" x="728.98" y="-402.3" font-family="Times,serif" font-size="14.00">input</text>
</g>
<!-- n16 -->
<g id="node15" class="node">
<title>n16</title>
<ellipse fill="none" stroke="black" cx="956.38" cy="-433" rx="33.29" ry="18"/>
<text text-anchor="middle" x="956.38" y="-429.3" font-family="Times,serif" font-size="14.00">output</text>
</g>
<!-- n15&#45;&gt;n16 -->
<!-- n16&#45;&gt;n9 -->
<g id="edge9" class="edge">
<title>n16&#45;&gt;n9</title>
<path fill="none" stroke="black" d="M990,-433C1055.27,-433 1192.8,-433 1192.8,-433 1192.8,-433 1192.8,-268.76 1192.8,-268.76"/>
<polygon fill="black" stroke="black" points="1196.3,-268.76 1192.8,-258.76 1189.3,-268.76 1196.3,-268.76"/>
<text text-anchor="middle" x="1097.52" y="-339.8" font-family="Times,serif" font-size="14.00">LATENCY_EMA</text>
</g>
<!-- n2 -->
<g id="node16" class="node">
<title>n2</title>
<ellipse fill="none" stroke="black" cx="91.15" cy="-293" rx="33.29" ry="18"/>
<text text-anchor="middle" x="91.15" y="-289.3" font-family="Times,serif" font-size="14.00">output</text>
</g>
<!-- n2&#45;&gt;n19 -->
<g id="edge12" class="edge">
<title>n2&#45;&gt;n19</title>
<path fill="none" stroke="black" d="M91.8,-274.87C91.8,-222.72 91.8,-76 91.8,-76 91.8,-76 1566.59,-76 1566.59,-76"/>
<polygon fill="black" stroke="black" points="1566.59,-79.5 1576.59,-76 1566.59,-72.5 1566.59,-79.5"/>
<text text-anchor="middle" x="840.38" y="-60.8" font-family="Times,serif" font-size="14.00">LATENCY</text>
</g>
<!-- n2&#45;&gt;n6 -->
<g id="edge10" class="edge">
<title>n2&#45;&gt;n6</title>
<path fill="none" stroke="black" d="M123.06,-299C179.22,-299 289.8,-299 289.8,-299 289.8,-299 289.8,-430.02 289.8,-430.02"/>
<polygon fill="black" stroke="black" points="286.3,-430.02 289.8,-440.02 293.3,-430.02 286.3,-430.02"/>
<text text-anchor="middle" x="213.29" y="-396.8" font-family="Times,serif" font-size="14.00">LATENCY</text>
</g>
<!-- n2&#45;&gt;n14 -->
<g id="edge11" class="edge">
<title>n2&#45;&gt;n14</title>
<path fill="none" stroke="black" d="M122.82,-287C251.68,-287 729.8,-287 729.8,-287 729.8,-287 729.8,-376.15 729.8,-376.15"/>
<polygon fill="black" stroke="black" points="726.3,-376.15 729.8,-386.15 733.3,-376.15 726.3,-376.15"/>
<text text-anchor="middle" x="365.29" y="-313.8" font-family="Times,serif" font-size="14.00">LATENCY</text>
</g>
</g>
</svg>
