<?xml version="1.0" encoding="UTF-8" standalone="no"?>
<!DOCTYPE svg PUBLIC "-//W3C//DTD SVG 1.1//EN"
 "http://www.w3.org/Graphics/SVG/1.1/DTD/svg11.dtd">
<!-- Generated by graphviz version 7.1.0 (20230121.1956)
 -->
<!-- Pages: 1 -->
<svg width="7634pt" height="2203pt"
 viewBox="0.00 0.00 7634.26 2203.00" xmlns="http://www.w3.org/2000/svg" xmlns:xlink="http://www.w3.org/1999/xlink">
<g id="graph0" class="graph" transform="scale(1 1) rotate(0) translate(4 2199)">
<polygon fill="white" stroke="none" points="-4,4 -4,-2199 7630.26,-2199 7630.26,4 -4,4"/>
<g id="clust1" class="cluster">
<title>cluster_s3</title>
<polygon fill="none" stroke="black" points="18.4,-1435 18.4,-1648 580.39,-1648 580.39,-1435 18.4,-1435"/>
<text text-anchor="middle" x="299.39" y="-1632.8" font-family="Times,serif" font-size="14.00">ArithmeticCombinator[root.1]</text>
</g>
<g id="clust4" class="cluster">
<title>cluster_s8</title>
<polygon fill="none" stroke="black" points="970.47,-1656 970.47,-1869 1504.46,-1869 1504.46,-1656 970.47,-1656"/>
<text text-anchor="middle" x="1237.46" y="-1853.8" font-family="Times,serif" font-size="14.00">ArithmeticCombinator[root.2]</text>
</g>
<g id="clust7" class="cluster">
<title>cluster_s17</title>
<polygon fill="none" stroke="black" points="5965.8,-253 5965.8,-466 6239.99,-466 6239.99,-253 5965.8,-253"/>
<text text-anchor="middle" x="6102.9" y="-450.8" font-family="Times,serif" font-size="14.00">ArithmeticCombinator[root.4.0]</text>
</g>
<g id="clust10" class="cluster">
<title>cluster_s21</title>
<polygon fill="none" stroke="black" points="2273.04,-389 2273.04,-602 3497.73,-602 3497.73,-389 2273.04,-389"/>
<text text-anchor="middle" x="2885.38" y="-586.8" font-family="Times,serif" font-size="14.00">ArithmeticCombinator[root.4.1]</text>
</g>
<g id="clust13" class="cluster">
<title>cluster_s26</title>
<polygon fill="none" stroke="black" points="3324.93,-1848 3324.93,-2061 4538.32,-2061 4538.32,-1848 3324.93,-1848"/>
<text text-anchor="middle" x="3931.63" y="-2045.8" font-family="Times,serif" font-size="14.00">ArithmeticCombinator[root.4.2]</text>
</g>
<g id="clust16" class="cluster">
<title>cluster_s31</title>
<polygon fill="none" stroke="black" points="4940.47,-1324 4940.47,-1537 5272.8,-1537 5272.8,-1324 4940.47,-1324"/>
<text text-anchor="middle" x="5106.63" y="-1521.8" font-family="Times,serif" font-size="14.00">ArithmeticCombinator[root.4.3]</text>
</g>
<g id="clust19" class="cluster">
<title>cluster_s60</title>
<polygon fill="none" stroke="black" points="2277.24,-1822 2277.24,-2035 2889.13,-2035 2889.13,-1822 2277.24,-1822"/>
<text text-anchor="middle" x="2583.18" y="-2019.8" font-family="Times,serif" font-size="14.00">Decider[root.4.10]</text>
</g>
<g id="clust22" class="cluster">
<title>cluster_s13</title>
<polygon fill="none" stroke="black" points="672.39,-1435 672.39,-1648 1143.27,-1648 1143.27,-1435 672.39,-1435"/>
<text text-anchor="middle" x="907.83" y="-1632.8" font-family="Times,serif" font-size="14.00">EMA[root.3]</text>
</g>
<g id="clust25" class="cluster">
<title>cluster_s52</title>
<polygon fill="none" stroke="black" points="6502.99,-253 6502.99,-412 6793.38,-412 6793.38,-253 6502.99,-253"/>
<text text-anchor="middle" x="6648.19" y="-396.8" font-family="Times,serif" font-size="14.00">Extrapolator[root.4.8]</text>
</g>
<g id="clust28" class="cluster">
<title>cluster_s38</title>
<polygon fill="none" stroke="black" points="2273.04,-610 2273.04,-769 3497.73,-769 3497.73,-610 2273.04,-610"/>
<text text-anchor="middle" x="2885.38" y="-753.8" font-family="Times,serif" font-size="14.00">FirstValid[root.4.5]</text>
</g>
<g id="clust31" class="cluster">
<title>cluster_s45</title>
<polygon fill="none" stroke="black" points="4882.32,-723 4882.32,-1098 5272.8,-1098 5272.8,-723 4882.32,-723"/>
<text text-anchor="middle" x="5077.56" y="-1082.8" font-family="Times,serif" font-size="14.00">Gradient[root.4.7]</text>
</g>
<g id="clust34" class="cluster">
<title>cluster_s58</title>
<polygon fill="none" stroke="black" points="7347.07,-253 7347.07,-412 7626.26,-412 7626.26,-253 7347.07,-253"/>
<text text-anchor="middle" x="7486.67" y="-396.8" font-family="Times,serif" font-size="14.00">LoadActuator[root.4.9.LoadActuator]</text>
</g>
<g id="clust36" class="cluster">
<title>cluster_s35</title>
<polygon fill="none" stroke="black" points="2707.24,-777 2707.24,-936 3497.73,-936 3497.73,-777 2707.24,-777"/>
<text text-anchor="middle" x="3102.48" y="-920.8" font-family="Times,serif" font-size="14.00">Min[root.4.4]</text>
</g>
<g id="clust39" class="cluster">
<title>cluster_s74</title>
<polygon fill="none" stroke="black" points="2235.89,-925 2235.89,-1135 2473.58,-1135 2473.58,-925 2235.89,-925"/>
<text text-anchor="middle" x="2354.74" y="-1119.8" font-family="Times,serif" font-size="14.00">NestedSignalEgress[root.4.14]</text>
</g>
<g id="clust42" class="cluster">
<title>cluster_s76</title>
<polygon fill="none" stroke="black" points="5494.45,-8 5494.45,-218 5732.15,-218 5732.15,-8 5494.45,-8"/>
<text text-anchor="middle" x="5613.3" y="-202.8" font-family="Times,serif" font-size="14.00">NestedSignalEgress[root.4.15]</text>
</g>
<g id="clust45" class="cluster">
<title>cluster_s78</title>
<polygon fill="none" stroke="black" points="5494.45,-425 5494.45,-635 5732.15,-635 5732.15,-425 5494.45,-425"/>
<text text-anchor="middle" x="5613.3" y="-619.8" font-family="Times,serif" font-size="14.00">NestedSignalEgress[root.4.16]</text>
</g>
<g id="clust48" class="cluster">
<title>cluster_s80</title>
<polygon fill="none" stroke="black" points="3287.78,-1505 3287.78,-1715 3525.48,-1715 3525.48,-1505 3287.78,-1505"/>
<text text-anchor="middle" x="3406.63" y="-1699.8" font-family="Times,serif" font-size="14.00">NestedSignalEgress[root.4.17]</text>
</g>
<g id="clust51" class="cluster">
<title>cluster_s82</title>
<polygon fill="none" stroke="black" points="6951.38,-103 6951.38,-313 7189.07,-313 7189.07,-103 6951.38,-103"/>
<text text-anchor="middle" x="7070.23" y="-297.8" font-family="Times,serif" font-size="14.00">NestedSignalEgress[root.4.18]</text>
</g>
<g id="clust54" class="cluster">
<title>cluster_s70</title>
<polygon fill="none" stroke="black" points="1717.5,-1881 1717.5,-2058 1959.19,-2058 1959.19,-1881 1717.5,-1881"/>
<text text-anchor="middle" x="1838.35" y="-2042.8" font-family="Times,serif" font-size="14.00">NestedSignalIngress[root.4.12]</text>
</g>
<g id="clust57" class="cluster">
<title>cluster_s72</title>
<polygon fill="none" stroke="black" points="1717.5,-1696 1717.5,-1873 1959.19,-1873 1959.19,-1696 1717.5,-1696"/>
<text text-anchor="middle" x="1838.35" y="-1857.8" font-family="Times,serif" font-size="14.00">NestedSignalIngress[root.4.13]</text>
</g>
<g id="clust60" class="cluster">
<title>cluster_s1</title>
<polygon fill="none" stroke="black" points="8,-1656 8,-1815 191.19,-1815 191.19,-1656 8,-1656"/>
<text text-anchor="middle" x="99.6" y="-1799.8" font-family="Times,serif" font-size="14.00">PromQL[root.0]</text>
</g>
<g id="clust62" class="cluster">
<title>cluster_s55</title>
<polygon fill="none" stroke="black" points="1673.46,-335 1673.46,-548 2002.24,-548 2002.24,-335 1673.46,-335"/>
<text text-anchor="middle" x="1837.85" y="-532.8" font-family="Times,serif" font-size="14.00">Scheduler[root.4.9.Scheduler]</text>
</g>
<g id="clust64" class="cluster">
<title>cluster_s42</title>
<polygon fill="none" stroke="black" points="2712.44,-951 2712.44,-1110 3497.73,-1110 3497.73,-951 2712.44,-951"/>
<text text-anchor="middle" x="3105.08" y="-1094.8" font-family="Times,serif" font-size="14.00">Sqrt[root.4.6]</text>
</g>
<g id="clust67" class="cluster">
<title>cluster_s64</title>
<polygon fill="none" stroke="black" points="3324.93,-1230 3324.93,-1497 4538.32,-1497 4538.32,-1230 3324.93,-1230"/>
<text text-anchor="middle" x="3931.63" y="-1481.8" font-family="Times,serif" font-size="14.00">Switcher[root.4.11]</text>
</g>
<!-- n6 -->
<g id="node1" class="node">
<title>n6</title>
<ellipse fill="none" stroke="black" cx="99.6" cy="-1503" rx="31.4" ry="18"/>
<text text-anchor="middle" x="99.6" y="-1499.3" font-family="Times,serif" font-size="14.00">2.00</text>
</g>
<!-- n5 -->
<g id="node4" class="node">
<title>n5</title>
<ellipse fill="none" stroke="black" cx="314.19" cy="-1503" rx="27" ry="18"/>
<text text-anchor="middle" x="314.19" y="-1499.3" font-family="Times,serif" font-size="14.00">rhs</text>
</g>
<!-- n6&#45;&gt;n5 -->
<g id="edge1" class="edge">
<title>n6&#45;&gt;n5</title>
<path fill="none" stroke="black" d="M131.26,-1503C131.26,-1503 275.31,-1503 275.31,-1503"/>
<polygon fill="black" stroke="black" points="275.31,-1506.5 285.31,-1503 275.31,-1499.5 275.31,-1506.5"/>
</g>
<!-- n4 -->
<g id="node2" class="node">
<title>n4</title>
<ellipse fill="none" stroke="black" cx="314.19" cy="-1557" rx="27" ry="18"/>
<text text-anchor="middle" x="314.19" y="-1553.3" font-family="Times,serif" font-size="14.00">lhs</text>
</g>
<!-- n7 -->
<g id="node3" class="node">
<title>n7</title>
<ellipse fill="none" stroke="black" cx="488.79" cy="-1503" rx="41.69" ry="18"/>
<text text-anchor="middle" x="488.79" y="-1499.3" font-family="Times,serif" font-size="14.00">output</text>
</g>
<!-- n15 -->
<g id="node27" class="node">
<title>n15</title>
<ellipse fill="none" stroke="black" cx="798.43" cy="-1503" rx="76.09" ry="18"/>
<text text-anchor="middle" x="798.43" y="-1499.3" font-family="Times,serif" font-size="14.00">max_envelope</text>
</g>
<!-- n7&#45;&gt;n15 -->
<g id="edge50" class="edge">
<title>n7&#45;&gt;n15</title>
<path fill="none" stroke="black" d="M530.87,-1503C530.87,-1503 710.37,-1503 710.37,-1503"/>
<polygon fill="black" stroke="black" points="710.37,-1506.5 720.37,-1503 710.37,-1499.5 710.37,-1506.5"/>
<text text-anchor="middle" x="626.39" y="-1506.8" font-family="Times,serif" font-size="14.00">MAX_EMA</text>
</g>
<!-- n5&#45;&gt;n7 -->
<!-- n11 -->
<g id="node5" class="node">
<title>n11</title>
<ellipse fill="none" stroke="black" cx="1051.67" cy="-1778" rx="31.4" ry="18"/>
<text text-anchor="middle" x="1051.67" y="-1774.3" font-family="Times,serif" font-size="14.00">1.10</text>
</g>
<!-- n10 -->
<g id="node8" class="node">
<title>n10</title>
<ellipse fill="none" stroke="black" cx="1307.27" cy="-1778" rx="27" ry="18"/>
<text text-anchor="middle" x="1307.27" y="-1774.3" font-family="Times,serif" font-size="14.00">rhs</text>
</g>
<!-- n11&#45;&gt;n10 -->
<g id="edge3" class="edge">
<title>n11&#45;&gt;n10</title>
<path fill="none" stroke="black" d="M1083.52,-1778C1083.52,-1778 1268.57,-1778 1268.57,-1778"/>
<polygon fill="black" stroke="black" points="1268.57,-1781.5 1278.57,-1778 1268.57,-1774.5 1268.57,-1781.5"/>
</g>
<!-- n9 -->
<g id="node6" class="node">
<title>n9</title>
<ellipse fill="none" stroke="black" cx="1307.27" cy="-1724" rx="27" ry="18"/>
<text text-anchor="middle" x="1307.27" y="-1720.3" font-family="Times,serif" font-size="14.00">lhs</text>
</g>
<!-- n12 -->
<g id="node7" class="node">
<title>n12</title>
<ellipse fill="none" stroke="black" cx="1412.86" cy="-1770" rx="41.69" ry="18"/>
<text text-anchor="middle" x="1412.86" y="-1766.3" font-family="Times,serif" font-size="14.00">output</text>
</g>
<!-- n73 -->
<g id="node49" class="node">
<title>n73</title>
<ellipse fill="none" stroke="black" cx="1837.85" cy="-1764" rx="38.19" ry="18"/>
<text text-anchor="middle" x="1837.85" y="-1760.3" font-family="Times,serif" font-size="14.00">signal</text>
</g>
<!-- n12&#45;&gt;n73 -->
<g id="edge51" class="edge">
<title>n12&#45;&gt;n73</title>
<path fill="none" stroke="black" d="M1450.58,-1762C1450.58,-1762 1788.09,-1762 1788.09,-1762"/>
<polygon fill="black" stroke="black" points="1788.09,-1765.5 1798.09,-1762 1788.09,-1758.5 1788.09,-1765.5"/>
<text text-anchor="middle" x="1588.96" y="-1771.8" font-family="Times,serif" font-size="14.00">LATENCY_SETPOINT</text>
</g>
<!-- n10&#45;&gt;n12 -->
<!-- n18 -->
<g id="node9" class="node">
<title>n18</title>
<ellipse fill="none" stroke="black" cx="6042.8" cy="-375" rx="27" ry="18"/>
<text text-anchor="middle" x="6042.8" y="-371.3" font-family="Times,serif" font-size="14.00">lhs</text>
</g>
<!-- n20 -->
<g id="node10" class="node">
<title>n20</title>
<ellipse fill="none" stroke="black" cx="6148.4" cy="-321" rx="41.69" ry="18"/>
<text text-anchor="middle" x="6148.4" y="-317.3" font-family="Times,serif" font-size="14.00">output</text>
</g>
<!-- n53 -->
<g id="node29" class="node">
<title>n53</title>
<ellipse fill="none" stroke="black" cx="6588.09" cy="-321" rx="35.19" ry="18"/>
<text text-anchor="middle" x="6588.09" y="-317.3" font-family="Times,serif" font-size="14.00">input</text>
</g>
<!-- n20&#45;&gt;n53 -->
<g id="edge53" class="edge">
<title>n20&#45;&gt;n53</title>
<path fill="none" stroke="black" d="M6190.56,-321C6190.56,-321 6541.08,-321 6541.08,-321"/>
<polygon fill="black" stroke="black" points="6541.08,-324.5 6551.08,-321 6541.08,-317.5 6541.08,-324.5"/>
<text text-anchor="middle" x="6371.49" y="-324.8" font-family="Times,serif" font-size="14.00">DESIRED_CONCURRENCY_RATIO</text>
</g>
<!-- n19 -->
<g id="node11" class="node">
<title>n19</title>
<ellipse fill="none" stroke="black" cx="6042.8" cy="-321" rx="27" ry="18"/>
<text text-anchor="middle" x="6042.8" y="-317.3" font-family="Times,serif" font-size="14.00">rhs</text>
</g>
<!-- n19&#45;&gt;n20 -->
<!-- n23 -->
<g id="node12" class="node">
<title>n23</title>
<ellipse fill="none" stroke="black" cx="2354.24" cy="-511" rx="31.4" ry="18"/>
<text text-anchor="middle" x="2354.24" y="-507.3" font-family="Times,serif" font-size="14.00">2.00</text>
</g>
<!-- n22 -->
<g id="node13" class="node">
<title>n22</title>
<ellipse fill="none" stroke="black" cx="2797.53" cy="-511" rx="27" ry="18"/>
<text text-anchor="middle" x="2797.53" y="-507.3" font-family="Times,serif" font-size="14.00">lhs</text>
</g>
<!-- n23&#45;&gt;n22 -->
<g id="edge6" class="edge">
<title>n23&#45;&gt;n22</title>
<path fill="none" stroke="black" d="M2386.12,-511C2386.12,-511 2758.74,-511 2758.74,-511"/>
<polygon fill="black" stroke="black" points="2758.74,-514.5 2768.74,-511 2758.74,-507.5 2758.74,-514.5"/>
</g>
<!-- n25 -->
<g id="node14" class="node">
<title>n25</title>
<ellipse fill="none" stroke="black" cx="3406.13" cy="-497" rx="41.69" ry="18"/>
<text text-anchor="middle" x="3406.13" y="-493.3" font-family="Times,serif" font-size="14.00">output</text>
</g>
<!-- n47 -->
<g id="node35" class="node">
<title>n47</title>
<ellipse fill="none" stroke="black" cx="5017.47" cy="-845" rx="30.59" ry="18"/>
<text text-anchor="middle" x="5017.47" y="-841.3" font-family="Times,serif" font-size="14.00">max</text>
</g>
<!-- n25&#45;&gt;n47 -->
<g id="edge43" class="edge">
<title>n25&#45;&gt;n47</title>
<path fill="none" stroke="black" d="M3441.49,-487C3622.1,-487 4433.26,-487 4433.26,-487 4433.26,-487 4433.26,-845 4433.26,-845 4433.26,-845 4974.95,-845 4974.95,-845"/>
<polygon fill="black" stroke="black" points="4974.95,-848.5 4984.95,-845 4974.95,-841.5 4974.95,-848.5"/>
<text text-anchor="middle" x="4234.63" y="-694.8" font-family="Times,serif" font-size="14.00">NORMAL_CONCURRENCY_LIMIT</text>
</g>
<!-- n24 -->
<g id="node15" class="node">
<title>n24</title>
<ellipse fill="none" stroke="black" cx="2797.53" cy="-457" rx="27" ry="18"/>
<text text-anchor="middle" x="2797.53" y="-453.3" font-family="Times,serif" font-size="14.00">rhs</text>
</g>
<!-- n24&#45;&gt;n25 -->
<!-- n28 -->
<g id="node16" class="node">
<title>n28</title>
<ellipse fill="none" stroke="black" cx="3406.13" cy="-1970" rx="31.4" ry="18"/>
<text text-anchor="middle" x="3406.13" y="-1966.3" font-family="Times,serif" font-size="14.00">5.00</text>
</g>
<!-- n27 -->
<g id="node17" class="node">
<title>n27</title>
<ellipse fill="none" stroke="black" cx="3960.13" cy="-1970" rx="27" ry="18"/>
<text text-anchor="middle" x="3960.13" y="-1966.3" font-family="Times,serif" font-size="14.00">lhs</text>
</g>
<!-- n28&#45;&gt;n27 -->
<g id="edge8" class="edge">
<title>n28&#45;&gt;n27</title>
<path fill="none" stroke="black" d="M3437.91,-1970C3437.91,-1970 3921.31,-1970 3921.31,-1970"/>
<polygon fill="black" stroke="black" points="3921.31,-1973.5 3931.31,-1970 3921.31,-1966.5 3921.31,-1973.5"/>
</g>
<!-- n30 -->
<g id="node18" class="node">
<title>n30</title>
<ellipse fill="none" stroke="black" cx="4446.73" cy="-1916" rx="41.69" ry="18"/>
<text text-anchor="middle" x="4446.73" y="-1912.3" font-family="Times,serif" font-size="14.00">output</text>
</g>
<!-- n32 -->
<g id="node20" class="node">
<title>n32</title>
<ellipse fill="none" stroke="black" cx="5017.47" cy="-1446" rx="27" ry="18"/>
<text text-anchor="middle" x="5017.47" y="-1442.3" font-family="Times,serif" font-size="14.00">lhs</text>
</g>
<!-- n30&#45;&gt;n32 -->
<g id="edge45" class="edge">
<title>n30&#45;&gt;n32</title>
<path fill="none" stroke="black" d="M4488.75,-1916C4620.74,-1916 5018.26,-1916 5018.26,-1916 5018.26,-1916 5018.26,-1475.94 5018.26,-1475.94"/>
<polygon fill="black" stroke="black" points="5021.76,-1475.94 5018.26,-1465.94 5014.76,-1475.94 5021.76,-1475.94"/>
<text text-anchor="middle" x="4710.32" y="-1684.8" font-family="Times,serif" font-size="14.00">CONCURRENCY_INCREMENT_SINGLE_TICK</text>
</g>
<!-- n29 -->
<g id="node19" class="node">
<title>n29</title>
<ellipse fill="none" stroke="black" cx="3960.13" cy="-1916" rx="27" ry="18"/>
<text text-anchor="middle" x="3960.13" y="-1912.3" font-family="Times,serif" font-size="14.00">rhs</text>
</g>
<!-- n29&#45;&gt;n30 -->
<!-- n34 -->
<g id="node21" class="node">
<title>n34</title>
<ellipse fill="none" stroke="black" cx="5181.2" cy="-1392" rx="41.69" ry="18"/>
<text text-anchor="middle" x="5181.2" y="-1388.3" font-family="Times,serif" font-size="14.00">output</text>
</g>
<!-- n36 -->
<g id="node41" class="node">
<title>n36</title>
<ellipse fill="none" stroke="black" cx="2797.53" cy="-845" rx="40.09" ry="18"/>
<text text-anchor="middle" x="2797.53" y="-841.3" font-family="Times,serif" font-size="14.00">inputs</text>
</g>
<!-- n34&#45;&gt;n36 -->
<g id="edge54" class="edge">
<title>n34&#45;&gt;n36</title>
<path fill="none" stroke="black" d="M5168.26,-1374.64C5168.26,-1296.61 5168.26,-982 5168.26,-982 5168.26,-982 2798.26,-982 2798.26,-982 2798.26,-982 2798.26,-874.99 2798.26,-874.99"/>
<polygon fill="black" stroke="black" points="2801.76,-874.99 2798.26,-864.99 2794.76,-874.99 2801.76,-874.99"/>
<text text-anchor="middle" x="4234.63" y="-997.8" font-family="Times,serif" font-size="14.00">CONCURRENCY_INCREMENT_INTEGRAL</text>
</g>
<!-- n33 -->
<g id="node22" class="node">
<title>n33</title>
<ellipse fill="none" stroke="black" cx="5017.47" cy="-1392" rx="27" ry="18"/>
<text text-anchor="middle" x="5017.47" y="-1388.3" font-family="Times,serif" font-size="14.00">rhs</text>
</g>
<!-- n33&#45;&gt;n34 -->
<!-- n62 -->
<g id="node23" class="node">
<title>n62</title>
<ellipse fill="none" stroke="black" cx="2354.24" cy="-1944" rx="27" ry="18"/>
<text text-anchor="middle" x="2354.24" y="-1940.3" font-family="Times,serif" font-size="14.00">lhs</text>
</g>
<!-- n63 -->
<g id="node24" class="node">
<title>n63</title>
<ellipse fill="none" stroke="black" cx="2797.53" cy="-1890" rx="41.69" ry="18"/>
<text text-anchor="middle" x="2797.53" y="-1886.3" font-family="Times,serif" font-size="14.00">output</text>
</g>
<!-- n62&#45;&gt;n63 -->
<!-- n81 -->
<g id="node46" class="node">
<title>n81</title>
<ellipse fill="none" stroke="black" cx="3406.13" cy="-1573" rx="38.19" ry="18"/>
<text text-anchor="middle" x="3406.13" y="-1569.3" font-family="Times,serif" font-size="14.00">signal</text>
</g>
<!-- n63&#45;&gt;n81 -->
<g id="edge39" class="edge">
<title>n63&#45;&gt;n81</title>
<path fill="none" stroke="black" d="M2833.92,-1880.67C2960.26,-1880.67 3372.26,-1880.67 3372.26,-1880.67 3372.26,-1880.67 3372.26,-1593.39 3372.26,-1593.39"/>
<polygon fill="black" stroke="black" points="3375.76,-1593.39 3372.26,-1583.39 3368.76,-1593.39 3375.76,-1593.39"/>
<text text-anchor="middle" x="3083.63" y="-1655.8" font-family="Times,serif" font-size="14.00">IS_OVERLOAD</text>
</g>
<!-- n68 -->
<g id="node59" class="node">
<title>n68</title>
<ellipse fill="none" stroke="black" cx="3960.13" cy="-1406" rx="40.89" ry="18"/>
<text text-anchor="middle" x="3960.13" y="-1402.3" font-family="Times,serif" font-size="14.00">switch</text>
</g>
<!-- n63&#45;&gt;n68 -->
<g id="edge38" class="edge">
<title>n63&#45;&gt;n68</title>
<path fill="none" stroke="black" d="M2839.38,-1889.33C3043.66,-1889.33 3926.26,-1889.33 3926.26,-1889.33 3926.26,-1889.33 3926.26,-1428.06 3926.26,-1428.06"/>
<polygon fill="black" stroke="black" points="3929.76,-1428.06 3926.26,-1418.06 3922.76,-1428.06 3929.76,-1428.06"/>
<text text-anchor="middle" x="3406.13" y="-1786.8" font-family="Times,serif" font-size="14.00">IS_OVERLOAD</text>
</g>
<!-- n61 -->
<g id="node25" class="node">
<title>n61</title>
<ellipse fill="none" stroke="black" cx="2354.24" cy="-1890" rx="27" ry="18"/>
<text text-anchor="middle" x="2354.24" y="-1886.3" font-family="Times,serif" font-size="14.00">rhs</text>
</g>
<!-- n14 -->
<g id="node26" class="node">
<title>n14</title>
<ellipse fill="none" stroke="black" cx="798.43" cy="-1557" rx="35.19" ry="18"/>
<text text-anchor="middle" x="798.43" y="-1553.3" font-family="Times,serif" font-size="14.00">input</text>
</g>
<!-- n16 -->
<g id="node28" class="node">
<title>n16</title>
<ellipse fill="none" stroke="black" cx="1051.67" cy="-1543" rx="41.69" ry="18"/>
<text text-anchor="middle" x="1051.67" y="-1539.3" font-family="Times,serif" font-size="14.00">output</text>
</g>
<!-- n15&#45;&gt;n16 -->
<!-- n16&#45;&gt;n9 -->
<g id="edge52" class="edge">
<title>n16&#45;&gt;n9</title>
<path fill="none" stroke="black" d="M1088.26,-1552.02C1088.26,-1589.37 1088.26,-1730 1088.26,-1730 1088.26,-1730 1269.77,-1730 1269.77,-1730"/>
<polygon fill="black" stroke="black" points="1269.77,-1733.5 1279.77,-1730 1269.77,-1726.5 1269.77,-1733.5"/>
<text text-anchor="middle" x="1206.77" y="-1643.8" font-family="Times,serif" font-size="14.00">LATENCY_EMA</text>
</g>
<!-- n54 -->
<g id="node30" class="node">
<title>n54</title>
<ellipse fill="none" stroke="black" cx="6701.78" cy="-321" rx="41.69" ry="18"/>
<text text-anchor="middle" x="6701.78" y="-317.3" font-family="Times,serif" font-size="14.00">output</text>
</g>
<!-- n53&#45;&gt;n54 -->
<!-- n59 -->
<g id="node40" class="node">
<title>n59</title>
<ellipse fill="none" stroke="black" cx="7486.67" cy="-321" rx="80.69" ry="18"/>
<text text-anchor="middle" x="7486.67" y="-317.3" font-family="Times,serif" font-size="14.00">load_multiplier</text>
</g>
<!-- n54&#45;&gt;n59 -->
<g id="edge46" class="edge">
<title>n54&#45;&gt;n59</title>
<path fill="none" stroke="black" d="M6738.59,-330C6738.59,-330 7404.48,-330 7404.48,-330"/>
<polygon fill="black" stroke="black" points="7404.48,-333.5 7414.48,-330 7404.48,-326.5 7404.48,-333.5"/>
<text text-anchor="middle" x="7069.73" y="-384.8" font-family="Times,serif" font-size="14.00">LOAD_MULTIPLIER</text>
</g>
<!-- n83 -->
<g id="node47" class="node">
<title>n83</title>
<ellipse fill="none" stroke="black" cx="7069.73" cy="-171" rx="38.19" ry="18"/>
<text text-anchor="middle" x="7069.73" y="-167.3" font-family="Times,serif" font-size="14.00">signal</text>
</g>
<!-- n54&#45;&gt;n83 -->
<g id="edge47" class="edge">
<title>n54&#45;&gt;n83</title>
<path fill="none" stroke="black" d="M6743.96,-321C6838.12,-321 7057.26,-321 7057.26,-321 7057.26,-321 7057.26,-200.01 7057.26,-200.01"/>
<polygon fill="black" stroke="black" points="7060.76,-200.01 7057.26,-190.01 7053.76,-200.01 7060.76,-200.01"/>
<text text-anchor="middle" x="6872.38" y="-264.8" font-family="Times,serif" font-size="14.00">LOAD_MULTIPLIER</text>
</g>
<!-- n40 -->
<g id="node31" class="node">
<title>n40</title>
<ellipse fill="none" stroke="black" cx="2354.24" cy="-678" rx="31.4" ry="18"/>
<text text-anchor="middle" x="2354.24" y="-674.3" font-family="Times,serif" font-size="14.00">0.00</text>
</g>
<!-- n39 -->
<g id="node32" class="node">
<title>n39</title>
<ellipse fill="none" stroke="black" cx="2797.53" cy="-678" rx="40.09" ry="18"/>
<text text-anchor="middle" x="2797.53" y="-674.3" font-family="Times,serif" font-size="14.00">inputs</text>
</g>
<!-- n40&#45;&gt;n39 -->
<g id="edge14" class="edge">
<title>n40&#45;&gt;n39</title>
<path fill="none" stroke="black" d="M2386.12,-678C2386.12,-678 2745.67,-678 2745.67,-678"/>
<polygon fill="black" stroke="black" points="2745.67,-681.5 2755.67,-678 2745.67,-674.5 2745.67,-681.5"/>
</g>
<!-- n41 -->
<g id="node33" class="node">
<title>n41</title>
<ellipse fill="none" stroke="black" cx="3406.13" cy="-678" rx="41.69" ry="18"/>
<text text-anchor="middle" x="3406.13" y="-674.3" font-family="Times,serif" font-size="14.00">output</text>
</g>
<!-- n39&#45;&gt;n41 -->
<!-- n67 -->
<g id="node56" class="node">
<title>n67</title>
<ellipse fill="none" stroke="black" cx="3960.13" cy="-1298" rx="48.19" ry="18"/>
<text text-anchor="middle" x="3960.13" y="-1294.3" font-family="Times,serif" font-size="14.00">on_false</text>
</g>
<!-- n41&#45;&gt;n67 -->
<g id="edge44" class="edge">
<title>n41&#45;&gt;n67</title>
<path fill="none" stroke="black" d="M3448.23,-678C3577.55,-678 3960.26,-678 3960.26,-678 3960.26,-678 3960.26,-1268.27 3960.26,-1268.27"/>
<polygon fill="black" stroke="black" points="3956.76,-1268.27 3960.26,-1278.27 3963.76,-1268.27 3956.76,-1268.27"/>
<text text-anchor="middle" x="3690.63" y="-969.8" font-family="Times,serif" font-size="14.00">CONCURRENCY_INCREMENT_NORMAL</text>
</g>
<!-- n48 -->
<g id="node34" class="node">
<title>n48</title>
<ellipse fill="none" stroke="black" cx="5017.47" cy="-791" rx="85.29" ry="18"/>
<text text-anchor="middle" x="5017.47" y="-787.3" font-family="Times,serif" font-size="14.00">control_variable</text>
</g>
<!-- n46 -->
<g id="node36" class="node">
<title>n46</title>
<ellipse fill="none" stroke="black" cx="5017.47" cy="-899" rx="50.89" ry="18"/>
<text text-anchor="middle" x="5017.47" y="-895.3" font-family="Times,serif" font-size="14.00">optimize</text>
</g>
<!-- n51 -->
<g id="node37" class="node">
<title>n51</title>
<ellipse fill="none" stroke="black" cx="5181.2" cy="-791" rx="41.69" ry="18"/>
<text text-anchor="middle" x="5181.2" y="-787.3" font-family="Times,serif" font-size="14.00">output</text>
</g>
<!-- n51&#45;&gt;n18 -->
<g id="edge36" class="edge">
<title>n51&#45;&gt;n18</title>
<path fill="none" stroke="black" d="M5221.05,-797C5390.59,-797 6043.26,-797 6043.26,-797 6043.26,-797 6043.26,-404.92 6043.26,-404.92"/>
<polygon fill="black" stroke="black" points="6046.76,-404.92 6043.26,-394.92 6039.76,-404.92 6046.76,-404.92"/>
<text text-anchor="middle" x="5612.8" y="-750.8" font-family="Times,serif" font-size="14.00">DESIRED_CONCURRENCY</text>
</g>
<!-- n79 -->
<g id="node45" class="node">
<title>n79</title>
<ellipse fill="none" stroke="black" cx="5612.8" cy="-493" rx="38.19" ry="18"/>
<text text-anchor="middle" x="5612.8" y="-489.3" font-family="Times,serif" font-size="14.00">signal</text>
</g>
<!-- n51&#45;&gt;n79 -->
<g id="edge37" class="edge">
<title>n51&#45;&gt;n79</title>
<path fill="none" stroke="black" d="M5221.08,-785C5328.04,-785 5613.26,-785 5613.26,-785 5613.26,-785 5613.26,-522.78 5613.26,-522.78"/>
<polygon fill="black" stroke="black" points="5616.76,-522.78 5613.26,-512.78 5609.76,-522.78 5616.76,-522.78"/>
<text text-anchor="middle" x="5378.8" y="-630.8" font-family="Times,serif" font-size="14.00">DESIRED_CONCURRENCY</text>
</g>
<!-- n50 -->
<g id="node38" class="node">
<title>n50</title>
<ellipse fill="none" stroke="black" cx="5017.47" cy="-953" rx="48.99" ry="18"/>
<text text-anchor="middle" x="5017.47" y="-949.3" font-family="Times,serif" font-size="14.00">setpoint</text>
</g>
<!-- n50&#45;&gt;n51 -->
<!-- n49 -->
<g id="node39" class="node">
<title>n49</title>
<ellipse fill="none" stroke="black" cx="5017.47" cy="-1007" rx="38.19" ry="18"/>
<text text-anchor="middle" x="5017.47" y="-1003.3" font-family="Times,serif" font-size="14.00">signal</text>
</g>
<!-- n37 -->
<g id="node42" class="node">
<title>n37</title>
<ellipse fill="none" stroke="black" cx="3406.13" cy="-845" rx="41.69" ry="18"/>
<text text-anchor="middle" x="3406.13" y="-841.3" font-family="Times,serif" font-size="14.00">output</text>
</g>
<!-- n36&#45;&gt;n37 -->
<!-- n37&#45;&gt;n39 -->
<g id="edge55" class="edge">
<title>n37&#45;&gt;n39</title>
<path fill="none" stroke="black" d="M3366.39,-851C3259.03,-851 2971.26,-851 2971.26,-851 2971.26,-851 2971.26,-684 2971.26,-684 2971.26,-684 2847.17,-684 2847.17,-684"/>
<polygon fill="black" stroke="black" points="2847.17,-680.5 2837.17,-684 2847.17,-687.5 2847.17,-680.5"/>
<text text-anchor="middle" x="3083.63" y="-766.8" font-family="Times,serif" font-size="14.00">CONCURRENCY_INCREMENT_INTEGRAL_CAPPED</text>
</g>
<!-- n75 -->
<g id="node43" class="node">
<title>n75</title>
<ellipse fill="none" stroke="black" cx="2354.24" cy="-993" rx="38.19" ry="18"/>
<text text-anchor="middle" x="2354.24" y="-989.3" font-family="Times,serif" font-size="14.00">signal</text>
</g>
<!-- n75&#45;&gt;n24 -->
<g id="edge68" class="edge">
<title>n75&#45;&gt;n24</title>
<path fill="none" stroke="black" d="M2387.26,-983.4C2387.26,-911.98 2387.26,-466 2387.26,-466 2387.26,-466 2762.19,-466 2762.19,-466"/>
<polygon fill="black" stroke="black" points="2762.19,-469.5 2772.19,-466 2762.19,-462.5 2762.19,-469.5"/>
<text text-anchor="middle" x="2595.24" y="-543.8" font-family="Times,serif" font-size="14.00">ACCEPTED_CONCURRENCY</text>
</g>
<!-- n75&#45;&gt;n48 -->
<g id="edge71" class="edge">
<title>n75&#45;&gt;n48</title>
<path fill="none" stroke="black" d="M2389.26,-985.56C2389.26,-949.75 2389.26,-797 2389.26,-797 2389.26,-797 4925.14,-797 4925.14,-797"/>
<polygon fill="black" stroke="black" points="4925.14,-800.5 4935.14,-797 4925.14,-793.5 4925.14,-800.5"/>
<text text-anchor="middle" x="3690.63" y="-1168.8" font-family="Times,serif" font-size="14.00">ACCEPTED_CONCURRENCY</text>
</g>
<!-- n75&#45;&gt;n36 -->
<g id="edge69" class="edge">
<title>n75&#45;&gt;n36</title>
<path fill="none" stroke="black" d="M2391.26,-987.95C2391.26,-962.65 2391.26,-851 2391.26,-851 2391.26,-851 2747.8,-851 2747.8,-851"/>
<polygon fill="black" stroke="black" points="2747.8,-854.5 2757.8,-851 2747.8,-847.5 2747.8,-854.5"/>
<text text-anchor="middle" x="2595.24" y="-840.8" font-family="Times,serif" font-size="14.00">ACCEPTED_CONCURRENCY</text>
</g>
<!-- n75&#45;&gt;n75 -->
<!-- n75&#45;&gt;n75 -->
<g id="edge72" class="edge">
<title>n75&#45;&gt;n75</title>
<path fill="none" stroke="black" d="M2317.92,-987C2242.17,-987 2074.26,-987 2074.26,-987 2074.26,-987 2074.26,-1024 2074.26,-1024 2074.26,-1024 2635.26,-1024 2635.26,-1024 2635.26,-1024 2635.26,-1006 2635.26,-1006 2635.26,-1006 2393.21,-1006 2393.21,-1006"/>
<polygon fill="black" stroke="black" points="2393.21,-1002.5 2383.21,-1006 2393.21,-1009.5 2393.21,-1002.5"/>
</g>
<!-- n43 -->
<g id="node53" class="node">
<title>n43</title>
<ellipse fill="none" stroke="black" cx="2797.53" cy="-1019" rx="35.19" ry="18"/>
<text text-anchor="middle" x="2797.53" y="-1015.3" font-family="Times,serif" font-size="14.00">input</text>
</g>
<!-- n75&#45;&gt;n43 -->
<g id="edge70" class="edge">
<title>n75&#45;&gt;n43</title>
<path fill="none" stroke="black" d="M2385.76,-1003.5C2385.76,-1003.5 2766.72,-1003.5 2766.72,-1003.5"/>
<polygon fill="black" stroke="black" points="2766.72,-1007 2776.72,-1003.5 2766.72,-1000 2766.72,-1007"/>
<text text-anchor="middle" x="2595.24" y="-1013.8" font-family="Times,serif" font-size="14.00">ACCEPTED_CONCURRENCY</text>
</g>
<!-- n77 -->
<g id="node44" class="node">
<title>n77</title>
<ellipse fill="none" stroke="black" cx="5612.8" cy="-76" rx="38.19" ry="18"/>
<text text-anchor="middle" x="5612.8" y="-72.3" font-family="Times,serif" font-size="14.00">signal</text>
</g>
<!-- n77&#45;&gt;n19 -->
<g id="edge58" class="edge">
<title>n77&#45;&gt;n19</title>
<path fill="none" stroke="black" d="M5646.58,-67C5748.05,-67 6043.26,-67 6043.26,-67 6043.26,-67 6043.26,-291.22 6043.26,-291.22"/>
<polygon fill="black" stroke="black" points="6039.76,-291.22 6043.26,-301.22 6046.76,-291.22 6039.76,-291.22"/>
<text text-anchor="middle" x="5853.8" y="-165.8" font-family="Times,serif" font-size="14.00">INCOMING_CONCURRENCY</text>
</g>
<!-- n77&#45;&gt;n77 -->
<!-- n77&#45;&gt;n77 -->
<g id="edge59" class="edge">
<title>n77&#45;&gt;n77</title>
<path fill="none" stroke="black" d="M5576.24,-82C5524,-82 5434.26,-82 5434.26,-82 5434.26,-82 5434.26,-34 5434.26,-34 5434.26,-34 5943.26,-34 5943.26,-34 5943.26,-34 5943.26,-85 5943.26,-85 5943.26,-85 5657.82,-85 5657.82,-85"/>
<polygon fill="black" stroke="black" points="5657.82,-81.5 5647.82,-85 5657.82,-88.5 5657.82,-81.5"/>
</g>
<!-- n79&#45;&gt;n18 -->
<g id="edge56" class="edge">
<title>n79&#45;&gt;n18</title>
<path fill="none" stroke="black" d="M5626.26,-476.05C5626.26,-446.89 5626.26,-390.33 5626.26,-390.33 5626.26,-390.33 6015.97,-390.33 6015.97,-390.33"/>
<polygon fill="black" stroke="black" points="6015.97,-393.83 6025.97,-390.33 6015.97,-386.83 6015.97,-393.83"/>
<text text-anchor="middle" x="5853.8" y="-420.8" font-family="Times,serif" font-size="14.00">DESIRED_CONCURRENCY</text>
</g>
<!-- n79&#45;&gt;n79 -->
<!-- n79&#45;&gt;n79 -->
<g id="edge57" class="edge">
<title>n79&#45;&gt;n79</title>
<path fill="none" stroke="black" d="M5574.57,-495C5489.76,-495 5293.26,-495 5293.26,-495 5293.26,-495 5293.26,-524.33 5293.26,-524.33 5293.26,-524.33 5797.26,-524.33 5797.26,-524.33 5797.26,-524.33 5797.26,-487 5797.26,-487 5797.26,-487 5660.76,-487 5660.76,-487"/>
<polygon fill="black" stroke="black" points="5660.76,-483.5 5650.76,-487 5660.76,-490.5 5660.76,-483.5"/>
</g>
<!-- n81&#45;&gt;n81 -->
<!-- n81&#45;&gt;n81 -->
<g id="edge61" class="edge">
<title>n81&#45;&gt;n81</title>
<path fill="none" stroke="black" d="M3367.95,-1570.33C3286.34,-1570.33 3102.26,-1570.33 3102.26,-1570.33 3102.26,-1570.33 3102.26,-1535 3102.26,-1535 3102.26,-1535 3680.26,-1535 3680.26,-1535 3680.26,-1535 3680.26,-1579 3680.26,-1579 3680.26,-1579 3454.05,-1579 3454.05,-1579"/>
<polygon fill="black" stroke="black" points="3454.05,-1575.5 3444.05,-1579 3454.05,-1582.5 3454.05,-1575.5"/>
</g>
<!-- n81&#45;&gt;n68 -->
<g id="edge60" class="edge">
<title>n81&#45;&gt;n68</title>
<path fill="none" stroke="black" d="M3441.26,-1565.39C3441.26,-1532.72 3441.26,-1406 3441.26,-1406 3441.26,-1406 3907.47,-1406 3907.47,-1406"/>
<polygon fill="black" stroke="black" points="3907.47,-1409.5 3917.47,-1406 3907.47,-1402.5 3907.47,-1409.5"/>
<text text-anchor="middle" x="3690.63" y="-1492.8" font-family="Times,serif" font-size="14.00">IS_OVERLOAD</text>
</g>
<!-- n83&#45;&gt;n59 -->
<g id="edge62" class="edge">
<title>n83&#45;&gt;n59</title>
<path fill="none" stroke="black" d="M7083.26,-188.29C7083.26,-225.94 7083.26,-312 7083.26,-312 7083.26,-312 7404.42,-312 7404.42,-312"/>
<polygon fill="black" stroke="black" points="7404.42,-315.5 7414.42,-312 7404.42,-308.5 7404.42,-315.5"/>
<text text-anchor="middle" x="7268.07" y="-264.8" font-family="Times,serif" font-size="14.00">LOAD_MULTIPLIER</text>
</g>
<!-- n83&#45;&gt;n83 -->
<!-- n83&#45;&gt;n83 -->
<g id="edge63" class="edge">
<title>n83&#45;&gt;n83</title>
<path fill="none" stroke="black" d="M7033.37,-177C6968.66,-177 6840.26,-177 6840.26,-177 6840.26,-177 6840.26,-113.67 6840.26,-113.67 6840.26,-113.67 7307.26,-113.67 7307.26,-113.67 7307.26,-113.67 7307.26,-177 7307.26,-177 7307.26,-177 7117.83,-177 7117.83,-177"/>
<polygon fill="black" stroke="black" points="7117.83,-173.5 7107.83,-177 7117.83,-180.5 7117.83,-173.5"/>
</g>
<!-- n71 -->
<g id="node48" class="node">
<title>n71</title>
<ellipse fill="none" stroke="black" cx="1837.85" cy="-1949" rx="38.19" ry="18"/>
<text text-anchor="middle" x="1837.85" y="-1945.3" font-family="Times,serif" font-size="14.00">signal</text>
</g>
<!-- n71&#45;&gt;n62 -->
<g id="edge65" class="edge">
<title>n71&#45;&gt;n62</title>
<path fill="none" stroke="black" d="M1872.94,-1941.33C1872.94,-1941.33 2315.65,-1941.33 2315.65,-1941.33"/>
<polygon fill="black" stroke="black" points="2315.65,-1944.83 2325.65,-1941.33 2315.65,-1937.83 2315.65,-1944.83"/>
<text text-anchor="middle" x="2114.24" y="-1950.8" font-family="Times,serif" font-size="14.00">SIGNAL</text>
</g>
<!-- n71&#45;&gt;n49 -->
<g id="edge64" class="edge">
<title>n71&#45;&gt;n49</title>
<path fill="none" stroke="black" d="M1838.26,-1930.52C1838.26,-1898.02 1838.26,-1834 1838.26,-1834 1838.26,-1834 4985.26,-1834 4985.26,-1834 4985.26,-1834 4985.26,-1028.67 4985.26,-1028.67"/>
<polygon fill="black" stroke="black" points="4988.76,-1028.67 4985.26,-1018.67 4981.76,-1028.67 4988.76,-1028.67"/>
<text text-anchor="middle" x="3406.13" y="-2183.8" font-family="Times,serif" font-size="14.00">SIGNAL</text>
</g>
<!-- n71&#45;&gt;n71 -->
<!-- n73&#45;&gt;n61 -->
<g id="edge67" class="edge">
<title>n73&#45;&gt;n61</title>
<path fill="none" stroke="black" d="M1876.24,-1764C1995.92,-1764 2354.26,-1764 2354.26,-1764 2354.26,-1764 2354.26,-1860.16 2354.26,-1860.16"/>
<polygon fill="black" stroke="black" points="2350.76,-1860.16 2354.26,-1870.16 2357.76,-1860.17 2350.76,-1860.16"/>
<text text-anchor="middle" x="2114.24" y="-1846.8" font-family="Times,serif" font-size="14.00">SETPOINT</text>
</g>
<!-- n73&#45;&gt;n50 -->
<g id="edge66" class="edge">
<title>n73&#45;&gt;n50</title>
<path fill="none" stroke="black" d="M1871.47,-1755C2209.03,-1755 4974.26,-1755 4974.26,-1755 4974.26,-1755 4974.26,-973.52 4974.26,-973.52"/>
<polygon fill="black" stroke="black" points="4977.76,-973.52 4974.26,-963.52 4970.76,-973.52 4977.76,-973.52"/>
<text text-anchor="middle" x="3406.13" y="-2132.8" font-family="Times,serif" font-size="14.00">SETPOINT</text>
</g>
<!-- n73&#45;&gt;n73 -->
<!-- n2 -->
<g id="node50" class="node">
<title>n2</title>
<ellipse fill="none" stroke="black" cx="99.6" cy="-1724" rx="41.69" ry="18"/>
<text text-anchor="middle" x="99.6" y="-1720.3" font-family="Times,serif" font-size="14.00">output</text>
</g>
<!-- n2&#45;&gt;n4 -->
<g id="edge40" class="edge">
<title>n2&#45;&gt;n4</title>
<path fill="none" stroke="black" d="M136.26,-1715.02C136.26,-1680.33 136.26,-1557 136.26,-1557 136.26,-1557 275.27,-1557 275.27,-1557"/>
<polygon fill="black" stroke="black" points="275.27,-1560.5 285.27,-1557 275.27,-1553.5 275.27,-1560.5"/>
<text text-anchor="middle" x="234.19" y="-1626.8" font-family="Times,serif" font-size="14.00">LATENCY</text>
</g>
<!-- n2&#45;&gt;n14 -->
<g id="edge41" class="edge">
<title>n2&#45;&gt;n14</title>
<path fill="none" stroke="black" d="M139.47,-1718C287.81,-1718 799.26,-1718 799.26,-1718 799.26,-1718 799.26,-1586.98 799.26,-1586.98"/>
<polygon fill="black" stroke="black" points="802.76,-1586.98 799.26,-1576.98 795.76,-1586.98 802.76,-1586.98"/>
<text text-anchor="middle" x="394.19" y="-1723.8" font-family="Times,serif" font-size="14.00">LATENCY</text>
</g>
<!-- n2&#45;&gt;n71 -->
<g id="edge42" class="edge">
<title>n2&#45;&gt;n71</title>
<path fill="none" stroke="black" d="M100.26,-1742.3C100.26,-1794.93 100.26,-1943 100.26,-1943 100.26,-1943 1790.04,-1943 1790.04,-1943"/>
<polygon fill="black" stroke="black" points="1790.04,-1946.5 1800.04,-1943 1790.04,-1939.5 1790.04,-1946.5"/>
<text text-anchor="middle" x="927.47" y="-1949.8" font-family="Times,serif" font-size="14.00">LATENCY</text>
</g>
<!-- n56 -->
<g id="node51" class="node">
<title>n56</title>
<ellipse fill="none" stroke="black" cx="1837.85" cy="-457" rx="113.98" ry="18"/>
<text text-anchor="middle" x="1837.85" y="-453.3" font-family="Times,serif" font-size="14.00">accepted_concurrency</text>
</g>
<!-- n56&#45;&gt;n24 -->
<g id="edge28" class="edge">
<title>n56&#45;&gt;n24</title>
<path fill="none" stroke="black" d="M1937.84,-448C1937.84,-448 2762.31,-448 2762.31,-448"/>
<polygon fill="black" stroke="black" points="2762.31,-451.5 2772.31,-448 2762.31,-444.5 2762.31,-451.5"/>
<text text-anchor="middle" x="2354.24" y="-460.8" font-family="Times,serif" font-size="14.00">ACCEPTED_CONCURRENCY</text>
</g>
<!-- n56&#45;&gt;n48 -->
<g id="edge31" class="edge">
<title>n56&#45;&gt;n48</title>
<path fill="none" stroke="black" d="M1914.26,-470.68C1914.26,-532.75 1914.26,-785 1914.26,-785 1914.26,-785 4924.94,-785 4924.94,-785"/>
<polygon fill="black" stroke="black" points="4924.94,-788.5 4934.94,-785 4924.94,-781.5 4924.94,-788.5"/>
<text text-anchor="middle" x="3406.13" y="-327.8" font-family="Times,serif" font-size="14.00">ACCEPTED_CONCURRENCY</text>
</g>
<!-- n56&#45;&gt;n36 -->
<g id="edge29" class="edge">
<title>n56&#45;&gt;n36</title>
<path fill="none" stroke="black" d="M1902.26,-471.97C1902.26,-542.6 1902.26,-839 1902.26,-839 1902.26,-839 2747.84,-839 2747.84,-839"/>
<polygon fill="black" stroke="black" points="2747.84,-842.5 2757.84,-839 2747.84,-835.5 2747.84,-842.5"/>
<text text-anchor="middle" x="2354.24" y="-1206.8" font-family="Times,serif" font-size="14.00">ACCEPTED_CONCURRENCY</text>
</g>
<!-- n56&#45;&gt;n75 -->
<g id="edge32" class="edge">
<title>n56&#45;&gt;n75</title>
<path fill="none" stroke="black" d="M1952.17,-457C2094.83,-457 2320.26,-457 2320.26,-457 2320.26,-457 2320.26,-973.07 2320.26,-973.07"/>
<polygon fill="black" stroke="black" points="2316.76,-973.07 2320.26,-983.07 2323.76,-973.07 2316.76,-973.07"/>
<text text-anchor="middle" x="2114.24" y="-946.8" font-family="Times,serif" font-size="14.00">ACCEPTED_CONCURRENCY</text>
</g>
<!-- n56&#45;&gt;n43 -->
<g id="edge30" class="edge">
<title>n56&#45;&gt;n43</title>
<path fill="none" stroke="black" d="M1889.26,-473.24C1889.26,-566.57 1889.26,-1030.5 1889.26,-1030.5 1889.26,-1030.5 2758.34,-1030.5 2758.34,-1030.5"/>
<polygon fill="black" stroke="black" points="2758.34,-1034 2768.34,-1030.5 2758.34,-1027 2758.34,-1034"/>
<text text-anchor="middle" x="2354.24" y="-863.8" font-family="Times,serif" font-size="14.00">ACCEPTED_CONCURRENCY</text>
</g>
<!-- n57 -->
<g id="node52" class="node">
<title>n57</title>
<ellipse fill="none" stroke="black" cx="1837.85" cy="-403" rx="114.28" ry="18"/>
<text text-anchor="middle" x="1837.85" y="-399.3" font-family="Times,serif" font-size="14.00">incoming_concurrency</text>
</g>
<!-- n57&#45;&gt;n19 -->
<g id="edge33" class="edge">
<title>n57&#45;&gt;n19</title>
<path fill="none" stroke="black" d="M1838.26,-384.8C1838.26,-360.64 1838.26,-321 1838.26,-321 1838.26,-321 6003.88,-321 6003.88,-321"/>
<polygon fill="black" stroke="black" points="6003.88,-324.5 6013.88,-321 6003.88,-317.5 6003.88,-324.5"/>
<text text-anchor="middle" x="4234.63" y="-281.8" font-family="Times,serif" font-size="14.00">INCOMING_CONCURRENCY</text>
</g>
<!-- n57&#45;&gt;n77 -->
<g id="edge34" class="edge">
<title>n57&#45;&gt;n77</title>
<path fill="none" stroke="black" d="M1901.97,-387.67C2397.68,-387.67 5600.26,-387.67 5600.26,-387.67 5600.26,-387.67 5600.26,-104.71 5600.26,-104.71"/>
<polygon fill="black" stroke="black" points="5603.76,-104.71 5600.26,-94.71 5596.76,-104.71 5603.76,-104.71"/>
<text text-anchor="middle" x="3960.13" y="-159.8" font-family="Times,serif" font-size="14.00">INCOMING_CONCURRENCY</text>
</g>
<!-- n44 -->
<g id="node54" class="node">
<title>n44</title>
<ellipse fill="none" stroke="black" cx="3406.13" cy="-1019" rx="41.69" ry="18"/>
<text text-anchor="middle" x="3406.13" y="-1015.3" font-family="Times,serif" font-size="14.00">output</text>
</g>
<!-- n43&#45;&gt;n44 -->
<!-- n44&#45;&gt;n29 -->
<g id="edge35" class="edge">
<title>n44&#45;&gt;n29</title>
<path fill="none" stroke="black" d="M3438.06,-1031C3531.23,-1031 3796.26,-1031 3796.26,-1031 3796.26,-1031 3796.26,-1903 3796.26,-1903 3796.26,-1903 3929.18,-1903 3929.18,-1903"/>
<polygon fill="black" stroke="black" points="3929.18,-1906.5 3939.18,-1903 3929.17,-1899.5 3929.18,-1906.5"/>
<text text-anchor="middle" x="3690.63" y="-1089.8" font-family="Times,serif" font-size="14.00">SQRT_CONCURRENCY_INCREMENT</text>
</g>
<!-- n66 -->
<g id="node55" class="node">
<title>n66</title>
<ellipse fill="none" stroke="black" cx="3406.13" cy="-1352" rx="31.4" ry="18"/>
<text text-anchor="middle" x="3406.13" y="-1348.3" font-family="Times,serif" font-size="14.00">0.00</text>
</g>
<!-- n65 -->
<g id="node57" class="node">
<title>n65</title>
<ellipse fill="none" stroke="black" cx="3960.13" cy="-1352" rx="46.29" ry="18"/>
<text text-anchor="middle" x="3960.13" y="-1348.3" font-family="Times,serif" font-size="14.00">on_true</text>
</g>
<!-- n66&#45;&gt;n65 -->
<g id="edge26" class="edge">
<title>n66&#45;&gt;n65</title>
<path fill="none" stroke="black" d="M3437.91,-1352C3437.91,-1352 3901.93,-1352 3901.93,-1352"/>
<polygon fill="black" stroke="black" points="3901.93,-1355.5 3911.93,-1352 3901.93,-1348.5 3901.93,-1355.5"/>
</g>
<!-- n69 -->
<g id="node58" class="node">
<title>n69</title>
<ellipse fill="none" stroke="black" cx="4446.73" cy="-1392" rx="41.69" ry="18"/>
<text text-anchor="middle" x="4446.73" y="-1388.3" font-family="Times,serif" font-size="14.00">output</text>
</g>
<!-- n69&#45;&gt;n33 -->
<g id="edge48" class="edge">
<title>n69&#45;&gt;n33</title>
<path fill="none" stroke="black" d="M4488.69,-1392C4488.69,-1392 4978.77,-1392 4978.77,-1392"/>
<polygon fill="black" stroke="black" points="4978.77,-1395.5 4988.77,-1392 4978.77,-1388.5 4978.77,-1395.5"/>
<text text-anchor="middle" x="4710.32" y="-1395.8" font-family="Times,serif" font-size="14.00">CONCURRENCY_INCREMENT</text>
</g>
<!-- n69&#45;&gt;n46 -->
<g id="edge49" class="edge">
<title>n69&#45;&gt;n46</title>
<path fill="none" stroke="black" d="M4461.26,-1374.74C4461.26,-1287.49 4461.26,-899 4461.26,-899 4461.26,-899 4954.62,-899 4954.62,-899"/>
<polygon fill="black" stroke="black" points="4954.62,-902.5 4964.62,-899 4954.62,-895.5 4954.62,-902.5"/>
<text text-anchor="middle" x="4710.32" y="-1228.8" font-family="Times,serif" font-size="14.00">CONCURRENCY_INCREMENT</text>
</g>
<!-- n68&#45;&gt;n69 -->
</g>
</svg>
