<?xml version="1.0" encoding="UTF-8" standalone="no"?>
<!DOCTYPE svg PUBLIC "-//W3C//DTD SVG 1.1//EN"
 "http://www.w3.org/Graphics/SVG/1.1/DTD/svg11.dtd">
<!-- Generated by graphviz version 7.1.0 (20230121.1956)
 -->
<!-- Pages: 1 -->
<svg width="6656pt" height="2203pt"
 viewBox="0.00 0.00 6655.89 2203.00" xmlns="http://www.w3.org/2000/svg" xmlns:xlink="http://www.w3.org/1999/xlink">
<g id="graph0" class="graph" transform="scale(1 1) rotate(0) translate(4 2199)">
<polygon fill="white" stroke="none" points="-4,4 -4,-2199 6651.89,-2199 6651.89,4 -4,4"/>
<g id="clust1" class="cluster">
<title>cluster_s3</title>
<polygon fill="none" stroke="black" points="14.15,-1435 14.15,-1648 530.59,-1648 530.59,-1435 14.15,-1435"/>
<text text-anchor="middle" x="272.37" y="-1632.8" font-family="Times,serif" font-size="14.00">ArithmeticCombinator[root.1]</text>
</g>
<g id="clust4" class="cluster">
<title>cluster_s8</title>
<polygon fill="none" stroke="black" points="879.38,-1656 879.38,-1869 1372.82,-1869 1372.82,-1656 879.38,-1656"/>
<text text-anchor="middle" x="1126.1" y="-1853.8" font-family="Times,serif" font-size="14.00">ArithmeticCombinator[root.2]</text>
</g>
<g id="clust7" class="cluster">
<title>cluster_s17</title>
<polygon fill="none" stroke="black" points="5195.12,-253 5195.12,-466 5452.42,-466 5452.42,-253 5195.12,-253"/>
<text text-anchor="middle" x="5323.77" y="-450.8" font-family="Times,serif" font-size="14.00">ArithmeticCombinator[root.4.0]</text>
</g>
<g id="clust10" class="cluster">
<title>cluster_s21</title>
<polygon fill="none" stroke="black" points="2024.9,-389 2024.9,-602 3085.69,-602 3085.69,-389 2024.9,-389"/>
<text text-anchor="middle" x="2555.3" y="-586.8" font-family="Times,serif" font-size="14.00">ArithmeticCombinator[root.4.1]</text>
</g>
<g id="clust13" class="cluster">
<title>cluster_s26</title>
<polygon fill="none" stroke="black" points="2925.55,-1848 2925.55,-2061 3979.34,-2061 3979.34,-1848 2925.55,-1848"/>
<text text-anchor="middle" x="3452.44" y="-2045.8" font-family="Times,serif" font-size="14.00">ArithmeticCombinator[root.4.2]</text>
</g>
<g id="clust16" class="cluster">
<title>cluster_s31</title>
<polygon fill="none" stroke="black" points="4318.58,-1324 4318.58,-1537 4617.12,-1537 4617.12,-1324 4318.58,-1324"/>
<text text-anchor="middle" x="4467.85" y="-1521.8" font-family="Times,serif" font-size="14.00">ArithmeticCombinator[root.4.3]</text>
</g>
<g id="clust19" class="cluster">
<title>cluster_s60</title>
<polygon fill="none" stroke="black" points="2024.9,-1822 2024.9,-2035 2564.05,-2035 2564.05,-1822 2024.9,-1822"/>
<text text-anchor="middle" x="2294.47" y="-2019.8" font-family="Times,serif" font-size="14.00">Decider[root.4.10]</text>
</g>
<g id="clust22" class="cluster">
<title>cluster_s13</title>
<polygon fill="none" stroke="black" points="616.59,-1435 616.59,-1648 1039.52,-1648 1039.52,-1435 616.59,-1435"/>
<text text-anchor="middle" x="828.06" y="-1632.8" font-family="Times,serif" font-size="14.00">EMA[root.3]</text>
</g>
<g id="clust25" class="cluster">
<title>cluster_s52</title>
<polygon fill="none" stroke="black" points="5681.42,-253 5681.42,-412 5941.91,-412 5941.91,-253 5681.42,-253"/>
<text text-anchor="middle" x="5811.66" y="-396.8" font-family="Times,serif" font-size="14.00">Extrapolator[root.4.8]</text>
</g>
<g id="clust28" class="cluster">
<title>cluster_s38</title>
<polygon fill="none" stroke="black" points="2024.9,-610 2024.9,-769 3085.69,-769 3085.69,-610 2024.9,-610"/>
<text text-anchor="middle" x="2555.3" y="-753.8" font-family="Times,serif" font-size="14.00">FirstValid[root.4.5]</text>
</g>
<g id="clust31" class="cluster">
<title>cluster_s45</title>
<polygon fill="none" stroke="black" points="4277.34,-723 4277.34,-1098 4617.12,-1098 4617.12,-723 4277.34,-723"/>
<text text-anchor="middle" x="4447.23" y="-1082.8" font-family="Times,serif" font-size="14.00">Gradient[root.4.7]</text>
</g>
<g id="clust34" class="cluster">
<title>cluster_s58</title>
<polygon fill="none" stroke="black" points="6408.6,-253 6408.6,-412 6639.89,-412 6639.89,-253 6408.6,-253"/>
<text text-anchor="middle" x="6524.24" y="-396.8" font-family="Times,serif" font-size="14.00">LoadActuator[root.4.9.LoadActuator]</text>
</g>
<g id="clust36" class="cluster">
<title>cluster_s35</title>
<polygon fill="none" stroke="black" points="2398.4,-777 2398.4,-936 3085.69,-936 3085.69,-777 2398.4,-777"/>
<text text-anchor="middle" x="2742.05" y="-920.8" font-family="Times,serif" font-size="14.00">Min[root.4.4]</text>
</g>
<g id="clust39" class="cluster">
<title>cluster_s74</title>
<polygon fill="none" stroke="black" points="2011.05,-925 2011.05,-1135 2193.75,-1135 2193.75,-925 2011.05,-925"/>
<text text-anchor="middle" x="2102.4" y="-1119.8" font-family="Times,serif" font-size="14.00">NestedSignalEgress[root.4.14]</text>
</g>
<g id="clust42" class="cluster">
<title>cluster_s76</title>
<polygon fill="none" stroke="black" points="4808.28,-8 4808.28,-218 4990.97,-218 4990.97,-8 4808.28,-8"/>
<text text-anchor="middle" x="4899.62" y="-202.8" font-family="Times,serif" font-size="14.00">NestedSignalEgress[root.4.15]</text>
</g>
<g id="clust45" class="cluster">
<title>cluster_s78</title>
<polygon fill="none" stroke="black" points="4808.28,-425 4808.28,-635 4990.97,-635 4990.97,-425 4808.28,-425"/>
<text text-anchor="middle" x="4899.62" y="-619.8" font-family="Times,serif" font-size="14.00">NestedSignalEgress[root.4.16]</text>
</g>
<g id="clust48" class="cluster">
<title>cluster_s80</title>
<polygon fill="none" stroke="black" points="2911.7,-1505 2911.7,-1715 3094.39,-1715 3094.39,-1505 2911.7,-1505"/>
<text text-anchor="middle" x="3003.05" y="-1699.8" font-family="Times,serif" font-size="14.00">NestedSignalEgress[root.4.17]</text>
</g>
<g id="clust51" class="cluster">
<title>cluster_s82</title>
<polygon fill="none" stroke="black" points="6083.91,-103 6083.91,-313 6266.6,-313 6266.6,-103 6083.91,-103"/>
<text text-anchor="middle" x="6175.25" y="-297.8" font-family="Times,serif" font-size="14.00">NestedSignalEgress[root.4.18]</text>
</g>
<g id="clust54" class="cluster">
<title>cluster_s70</title>
<polygon fill="none" stroke="black" points="1571.26,-1881 1571.26,-2058 1756.96,-2058 1756.96,-1881 1571.26,-1881"/>
<text text-anchor="middle" x="1664.11" y="-2042.8" font-family="Times,serif" font-size="14.00">NestedSignalIngress[root.4.12]</text>
</g>
<g id="clust57" class="cluster">
<title>cluster_s72</title>
<polygon fill="none" stroke="black" points="1571.26,-1696 1571.26,-1873 1756.96,-1873 1756.96,-1696 1571.26,-1696"/>
<text text-anchor="middle" x="1664.11" y="-1857.8" font-family="Times,serif" font-size="14.00">NestedSignalIngress[root.4.13]</text>
</g>
<g id="clust60" class="cluster">
<title>cluster_s1</title>
<polygon fill="none" stroke="black" points="8,-1656 8,-1815 174.29,-1815 174.29,-1656 8,-1656"/>
<text text-anchor="middle" x="91.15" y="-1799.8" font-family="Times,serif" font-size="14.00">PromQL[root.0]</text>
</g>
<g id="clust62" class="cluster">
<title>cluster_s55</title>
<polygon fill="none" stroke="black" points="1521.82,-335 1521.82,-548 1806.4,-548 1806.4,-335 1521.82,-335"/>
<text text-anchor="middle" x="1664.11" y="-532.8" font-family="Times,serif" font-size="14.00">Scheduler[root.4.9.Scheduler]</text>
</g>
<g id="clust64" class="cluster">
<title>cluster_s42</title>
<polygon fill="none" stroke="black" points="2402.3,-951 2402.3,-1110 3085.69,-1110 3085.69,-951 2402.3,-951"/>
<text text-anchor="middle" x="2744" y="-1094.8" font-family="Times,serif" font-size="14.00">Sqrt[root.4.6]</text>
</g>
<g id="clust67" class="cluster">
<title>cluster_s64</title>
<polygon fill="none" stroke="black" points="2925.55,-1230 2925.55,-1497 3979.34,-1497 3979.34,-1230 2925.55,-1230"/>
<text text-anchor="middle" x="3452.44" y="-1481.8" font-family="Times,serif" font-size="14.00">Switcher[root.4.11]</text>
</g>
<!-- n6 -->
<g id="node1" class="node">
<title>n6</title>
<ellipse fill="none" stroke="black" cx="91.15" cy="-1503" rx="27" ry="18"/>
<text text-anchor="middle" x="91.15" y="-1499.3" font-family="Times,serif" font-size="14.00">2.00</text>
</g>
<!-- n5 -->
<g id="node4" class="node">
<title>n5</title>
<ellipse fill="none" stroke="black" cx="289.29" cy="-1503" rx="27" ry="18"/>
<text text-anchor="middle" x="289.29" y="-1499.3" font-family="Times,serif" font-size="14.00">rhs</text>
</g>
<!-- n6&#45;&gt;n5 -->
<g id="edge1" class="edge">
<title>n6&#45;&gt;n5</title>
<path fill="none" stroke="black" d="M118.28,-1503C118.28,-1503 250.34,-1503 250.34,-1503"/>
<polygon fill="black" stroke="black" points="250.34,-1506.5 260.34,-1503 250.34,-1499.5 250.34,-1506.5"/>
</g>
<!-- n4 -->
<g id="node2" class="node">
<title>n4</title>
<ellipse fill="none" stroke="black" cx="289.29" cy="-1557" rx="27" ry="18"/>
<text text-anchor="middle" x="289.29" y="-1553.3" font-family="Times,serif" font-size="14.00">lhs</text>
</g>
<!-- n7 -->
<g id="node3" class="node">
<title>n7</title>
<ellipse fill="none" stroke="black" cx="447.44" cy="-1503" rx="33.29" ry="18"/>
<text text-anchor="middle" x="447.44" y="-1499.3" font-family="Times,serif" font-size="14.00">output</text>
</g>
<!-- n15 -->
<g id="node27" class="node">
<title>n15</title>
<ellipse fill="none" stroke="black" cx="728.98" cy="-1503" rx="62.29" ry="18"/>
<text text-anchor="middle" x="728.98" y="-1499.3" font-family="Times,serif" font-size="14.00">max_envelope</text>
</g>
<!-- n7&#45;&gt;n15 -->
<g id="edge43" class="edge">
<title>n7&#45;&gt;n15</title>
<path fill="none" stroke="black" d="M481.12,-1503C481.12,-1503 654.95,-1503 654.95,-1503"/>
<polygon fill="black" stroke="black" points="654.95,-1506.5 664.95,-1503 654.95,-1499.5 654.95,-1506.5"/>
<text text-anchor="middle" x="573.59" y="-1506.8" font-family="Times,serif" font-size="14.00">MAX_EMA</text>
</g>
<!-- n5&#45;&gt;n7 -->
<!-- n11 -->
<g id="node5" class="node">
<title>n11</title>
<ellipse fill="none" stroke="black" cx="956.38" cy="-1778" rx="27" ry="18"/>
<text text-anchor="middle" x="956.38" y="-1774.3" font-family="Times,serif" font-size="14.00">1.10</text>
</g>
<!-- n10 -->
<g id="node8" class="node">
<title>n10</title>
<ellipse fill="none" stroke="black" cx="1192.52" cy="-1778" rx="27" ry="18"/>
<text text-anchor="middle" x="1192.52" y="-1774.3" font-family="Times,serif" font-size="14.00">rhs</text>
</g>
<!-- n11&#45;&gt;n10 -->
<g id="edge3" class="edge">
<title>n11&#45;&gt;n10</title>
<path fill="none" stroke="black" d="M983.47,-1778C983.47,-1778 1153.87,-1778 1153.87,-1778"/>
<polygon fill="black" stroke="black" points="1153.87,-1781.5 1163.87,-1778 1153.87,-1774.5 1153.87,-1781.5"/>
</g>
<!-- n9 -->
<g id="node6" class="node">
<title>n9</title>
<ellipse fill="none" stroke="black" cx="1192.52" cy="-1724" rx="27" ry="18"/>
<text text-anchor="middle" x="1192.52" y="-1720.3" font-family="Times,serif" font-size="14.00">lhs</text>
</g>
<!-- n12 -->
<g id="node7" class="node">
<title>n12</title>
<ellipse fill="none" stroke="black" cx="1289.67" cy="-1770" rx="33.29" ry="18"/>
<text text-anchor="middle" x="1289.67" y="-1766.3" font-family="Times,serif" font-size="14.00">output</text>
</g>
<!-- n73 -->
<g id="node49" class="node">
<title>n73</title>
<ellipse fill="none" stroke="black" cx="1664.11" cy="-1764" rx="31.7" ry="18"/>
<text text-anchor="middle" x="1664.11" y="-1760.3" font-family="Times,serif" font-size="14.00">signal</text>
</g>
<!-- n12&#45;&gt;n73 -->
<g id="edge35" class="edge">
<title>n12&#45;&gt;n73</title>
<path fill="none" stroke="black" d="M1320,-1762C1320,-1762 1620.67,-1762 1620.67,-1762"/>
<polygon fill="black" stroke="black" points="1620.67,-1765.5 1630.67,-1762 1620.67,-1758.5 1620.67,-1765.5"/>
<text text-anchor="middle" x="1447.32" y="-1771.8" font-family="Times,serif" font-size="14.00">LATENCY_SETPOINT</text>
</g>
<!-- n10&#45;&gt;n12 -->
<!-- n18 -->
<g id="node9" class="node">
<title>n18</title>
<ellipse fill="none" stroke="black" cx="5272.12" cy="-375" rx="27" ry="18"/>
<text text-anchor="middle" x="5272.12" y="-371.3" font-family="Times,serif" font-size="14.00">lhs</text>
</g>
<!-- n20 -->
<g id="node10" class="node">
<title>n20</title>
<ellipse fill="none" stroke="black" cx="5369.27" cy="-321" rx="33.29" ry="18"/>
<text text-anchor="middle" x="5369.27" y="-317.3" font-family="Times,serif" font-size="14.00">output</text>
</g>
<!-- n53 -->
<g id="node29" class="node">
<title>n53</title>
<ellipse fill="none" stroke="black" cx="5760.01" cy="-321" rx="28.7" ry="18"/>
<text text-anchor="middle" x="5760.01" y="-317.3" font-family="Times,serif" font-size="14.00">input</text>
</g>
<!-- n20&#45;&gt;n53 -->
<g id="edge44" class="edge">
<title>n20&#45;&gt;n53</title>
<path fill="none" stroke="black" d="M5402.92,-321C5402.92,-321 5719.37,-321 5719.37,-321"/>
<polygon fill="black" stroke="black" points="5719.37,-324.5 5729.37,-321 5719.37,-317.5 5719.37,-324.5"/>
<text text-anchor="middle" x="5566.92" y="-324.8" font-family="Times,serif" font-size="14.00">DESIRED_CONCURRENCY_RATIO</text>
</g>
<!-- n19 -->
<g id="node11" class="node">
<title>n19</title>
<ellipse fill="none" stroke="black" cx="5272.12" cy="-321" rx="27" ry="18"/>
<text text-anchor="middle" x="5272.12" y="-317.3" font-family="Times,serif" font-size="14.00">rhs</text>
</g>
<!-- n19&#45;&gt;n20 -->
<!-- n23 -->
<g id="node12" class="node">
<title>n23</title>
<ellipse fill="none" stroke="black" cx="2101.9" cy="-511" rx="27" ry="18"/>
<text text-anchor="middle" x="2101.9" y="-507.3" font-family="Times,serif" font-size="14.00">2.00</text>
</g>
<!-- n22 -->
<g id="node13" class="node">
<title>n22</title>
<ellipse fill="none" stroke="black" cx="2480.9" cy="-511" rx="27" ry="18"/>
<text text-anchor="middle" x="2480.9" y="-507.3" font-family="Times,serif" font-size="14.00">lhs</text>
</g>
<!-- n23&#45;&gt;n22 -->
<g id="edge6" class="edge">
<title>n23&#45;&gt;n22</title>
<path fill="none" stroke="black" d="M2129.16,-511C2129.16,-511 2442.12,-511 2442.12,-511"/>
<polygon fill="black" stroke="black" points="2442.12,-514.5 2452.12,-511 2442.12,-507.5 2442.12,-514.5"/>
</g>
<!-- n25 -->
<g id="node14" class="node">
<title>n25</title>
<ellipse fill="none" stroke="black" cx="3002.55" cy="-497" rx="33.29" ry="18"/>
<text text-anchor="middle" x="3002.55" y="-493.3" font-family="Times,serif" font-size="14.00">output</text>
</g>
<!-- n49 -->
<g id="node35" class="node">
<title>n49</title>
<ellipse fill="none" stroke="black" cx="4395.58" cy="-845" rx="27" ry="18"/>
<text text-anchor="middle" x="4395.58" y="-841.3" font-family="Times,serif" font-size="14.00">max</text>
</g>
<!-- n25&#45;&gt;n49 -->
<g id="edge49" class="edge">
<title>n25&#45;&gt;n49</title>
<path fill="none" stroke="black" d="M3028.83,-485.4C3062.32,-485.4 3115.89,-485.4 3115.89,-485.4 3115.89,-485.4 3115.89,-845 3115.89,-845 3115.89,-845 4356.75,-845 4356.75,-845"/>
<polygon fill="black" stroke="black" points="4356.75,-848.5 4366.75,-845 4356.75,-841.5 4356.75,-848.5"/>
<text text-anchor="middle" x="3713.55" y="-694.8" font-family="Times,serif" font-size="14.00">NORMAL_CONCURRENCY_LIMIT</text>
</g>
<!-- n24 -->
<g id="node15" class="node">
<title>n24</title>
<ellipse fill="none" stroke="black" cx="2480.9" cy="-457" rx="27" ry="18"/>
<text text-anchor="middle" x="2480.9" y="-453.3" font-family="Times,serif" font-size="14.00">rhs</text>
</g>
<!-- n24&#45;&gt;n25 -->
<!-- n29 -->
<g id="node16" class="node">
<title>n29</title>
<ellipse fill="none" stroke="black" cx="3002.55" cy="-1970" rx="27" ry="18"/>
<text text-anchor="middle" x="3002.55" y="-1966.3" font-family="Times,serif" font-size="14.00">5.00</text>
</g>
<!-- n28 -->
<g id="node17" class="node">
<title>n28</title>
<ellipse fill="none" stroke="black" cx="3474.55" cy="-1970" rx="27" ry="18"/>
<text text-anchor="middle" x="3474.55" y="-1966.3" font-family="Times,serif" font-size="14.00">lhs</text>
</g>
<!-- n29&#45;&gt;n28 -->
<g id="edge8" class="edge">
<title>n29&#45;&gt;n28</title>
<path fill="none" stroke="black" d="M3029.96,-1970C3029.96,-1970 3435.54,-1970 3435.54,-1970"/>
<polygon fill="black" stroke="black" points="3435.54,-1973.5 3445.54,-1970 3435.54,-1966.5 3435.54,-1973.5"/>
</g>
<!-- n30 -->
<g id="node18" class="node">
<title>n30</title>
<ellipse fill="none" stroke="black" cx="3896.19" cy="-1943" rx="33.29" ry="18"/>
<text text-anchor="middle" x="3896.19" y="-1939.3" font-family="Times,serif" font-size="14.00">output</text>
</g>
<!-- n28&#45;&gt;n30 -->
<!-- n32 -->
<g id="node20" class="node">
<title>n32</title>
<ellipse fill="none" stroke="black" cx="4395.58" cy="-1446" rx="27" ry="18"/>
<text text-anchor="middle" x="4395.58" y="-1442.3" font-family="Times,serif" font-size="14.00">lhs</text>
</g>
<!-- n30&#45;&gt;n32 -->
<g id="edge37" class="edge">
<title>n30&#45;&gt;n32</title>
<path fill="none" stroke="black" d="M3929.76,-1943C4041.79,-1943 4395.89,-1943 4395.89,-1943 4395.89,-1943 4395.89,-1475.79 4395.89,-1475.79"/>
<polygon fill="black" stroke="black" points="4399.39,-1475.79 4395.89,-1465.79 4392.39,-1475.79 4399.39,-1475.79"/>
<text text-anchor="middle" x="4128.34" y="-1698.8" font-family="Times,serif" font-size="14.00">CONCURRENCY_INCREMENT_SINGLE_TICK</text>
</g>
<!-- n27 -->
<g id="node19" class="node">
<title>n27</title>
<ellipse fill="none" stroke="black" cx="3474.55" cy="-1916" rx="27" ry="18"/>
<text text-anchor="middle" x="3474.55" y="-1912.3" font-family="Times,serif" font-size="14.00">rhs</text>
</g>
<!-- n34 -->
<g id="node21" class="node">
<title>n34</title>
<ellipse fill="none" stroke="black" cx="4533.98" cy="-1392" rx="33.29" ry="18"/>
<text text-anchor="middle" x="4533.98" y="-1388.3" font-family="Times,serif" font-size="14.00">output</text>
</g>
<!-- n36 -->
<g id="node41" class="node">
<title>n36</title>
<ellipse fill="none" stroke="black" cx="2480.9" cy="-845" rx="32.49" ry="18"/>
<text text-anchor="middle" x="2480.9" y="-841.3" font-family="Times,serif" font-size="14.00">inputs</text>
</g>
<!-- n34&#45;&gt;n36 -->
<g id="edge50" class="edge">
<title>n34&#45;&gt;n36</title>
<path fill="none" stroke="black" d="M4534.89,-1373.67C4534.89,-1293.51 4534.89,-977.8 4534.89,-977.8 4534.89,-977.8 2490.89,-977.8 2490.89,-977.8 2490.89,-977.8 2490.89,-873.87 2490.89,-873.87"/>
<polygon fill="black" stroke="black" points="2494.39,-873.87 2490.89,-863.87 2487.39,-873.87 2494.39,-873.87"/>
<text text-anchor="middle" x="3713.55" y="-997.8" font-family="Times,serif" font-size="14.00">CONCURRENCY_INCREMENT_INTEGRAL</text>
</g>
<!-- n33 -->
<g id="node22" class="node">
<title>n33</title>
<ellipse fill="none" stroke="black" cx="4395.58" cy="-1392" rx="27" ry="18"/>
<text text-anchor="middle" x="4395.58" y="-1388.3" font-family="Times,serif" font-size="14.00">rhs</text>
</g>
<!-- n33&#45;&gt;n34 -->
<!-- n61 -->
<g id="node23" class="node">
<title>n61</title>
<ellipse fill="none" stroke="black" cx="2101.9" cy="-1944" rx="27" ry="18"/>
<text text-anchor="middle" x="2101.9" y="-1940.3" font-family="Times,serif" font-size="14.00">lhs</text>
</g>
<!-- n63 -->
<g id="node24" class="node">
<title>n63</title>
<ellipse fill="none" stroke="black" cx="2480.9" cy="-1890" rx="33.29" ry="18"/>
<text text-anchor="middle" x="2480.9" y="-1886.3" font-family="Times,serif" font-size="14.00">output</text>
</g>
<!-- n81 -->
<g id="node46" class="node">
<title>n81</title>
<ellipse fill="none" stroke="black" cx="3002.55" cy="-1573" rx="31.7" ry="18"/>
<text text-anchor="middle" x="3002.55" y="-1569.3" font-family="Times,serif" font-size="14.00">signal</text>
</g>
<!-- n63&#45;&gt;n81 -->
<g id="edge48" class="edge">
<title>n63&#45;&gt;n81</title>
<path fill="none" stroke="black" d="M2481.89,-1871.72C2481.89,-1805.62 2481.89,-1583 2481.89,-1583 2481.89,-1583 2964.14,-1583 2964.14,-1583"/>
<polygon fill="black" stroke="black" points="2964.14,-1586.5 2974.14,-1583 2964.14,-1579.5 2964.14,-1586.5"/>
<text text-anchor="middle" x="2733.05" y="-1655.8" font-family="Times,serif" font-size="14.00">IS_OVERLOAD</text>
</g>
<!-- n68 -->
<g id="node59" class="node">
<title>n68</title>
<ellipse fill="none" stroke="black" cx="3474.55" cy="-1406" rx="33.6" ry="18"/>
<text text-anchor="middle" x="3474.55" y="-1402.3" font-family="Times,serif" font-size="14.00">switch</text>
</g>
<!-- n63&#45;&gt;n68 -->
<g id="edge47" class="edge">
<title>n63&#45;&gt;n68</title>
<path fill="none" stroke="black" d="M2513.41,-1885C2684.71,-1885 3474.89,-1885 3474.89,-1885 3474.89,-1885 3474.89,-1436 3474.89,-1436"/>
<polygon fill="black" stroke="black" points="3478.39,-1436 3474.89,-1426 3471.39,-1436 3478.39,-1436"/>
<text text-anchor="middle" x="3002.55" y="-1786.8" font-family="Times,serif" font-size="14.00">IS_OVERLOAD</text>
</g>
<!-- n62 -->
<g id="node25" class="node">
<title>n62</title>
<ellipse fill="none" stroke="black" cx="2101.9" cy="-1890" rx="27" ry="18"/>
<text text-anchor="middle" x="2101.9" y="-1886.3" font-family="Times,serif" font-size="14.00">rhs</text>
</g>
<!-- n62&#45;&gt;n63 -->
<!-- n14 -->
<g id="node26" class="node">
<title>n14</title>
<ellipse fill="none" stroke="black" cx="728.98" cy="-1557" rx="28.7" ry="18"/>
<text text-anchor="middle" x="728.98" y="-1553.3" font-family="Times,serif" font-size="14.00">input</text>
</g>
<!-- n16 -->
<g id="node28" class="node">
<title>n16</title>
<ellipse fill="none" stroke="black" cx="956.38" cy="-1543" rx="33.29" ry="18"/>
<text text-anchor="middle" x="956.38" y="-1539.3" font-family="Times,serif" font-size="14.00">output</text>
</g>
<!-- n15&#45;&gt;n16 -->
<!-- n16&#45;&gt;n9 -->
<g id="edge36" class="edge">
<title>n16&#45;&gt;n9</title>
<path fill="none" stroke="black" d="M983.97,-1532.5C1046.36,-1532.5 1192.89,-1532.5 1192.89,-1532.5 1192.89,-1532.5 1192.89,-1694.12 1192.89,-1694.12"/>
<polygon fill="black" stroke="black" points="1189.39,-1694.12 1192.89,-1704.12 1196.39,-1694.12 1189.39,-1694.12"/>
<text text-anchor="middle" x="1097.52" y="-1643.8" font-family="Times,serif" font-size="14.00">LATENCY_EMA</text>
</g>
<!-- n54 -->
<g id="node30" class="node">
<title>n54</title>
<ellipse fill="none" stroke="black" cx="5858.76" cy="-321" rx="33.29" ry="18"/>
<text text-anchor="middle" x="5858.76" y="-317.3" font-family="Times,serif" font-size="14.00">output</text>
</g>
<!-- n53&#45;&gt;n54 -->
<!-- n59 -->
<g id="node40" class="node">
<title>n59</title>
<ellipse fill="none" stroke="black" cx="6524.24" cy="-321" rx="65.79" ry="18"/>
<text text-anchor="middle" x="6524.24" y="-317.3" font-family="Times,serif" font-size="14.00">load_multiplier</text>
</g>
<!-- n54&#45;&gt;n59 -->
<g id="edge45" class="edge">
<title>n54&#45;&gt;n59</title>
<path fill="none" stroke="black" d="M5888.21,-330C5888.21,-330 6454.86,-330 6454.86,-330"/>
<polygon fill="black" stroke="black" points="6454.86,-333.5 6464.86,-330 6454.86,-326.5 6454.86,-333.5"/>
<text text-anchor="middle" x="6174.75" y="-384.8" font-family="Times,serif" font-size="14.00">LOAD_MULTIPLIER</text>
</g>
<!-- n83 -->
<g id="node47" class="node">
<title>n83</title>
<ellipse fill="none" stroke="black" cx="6174.75" cy="-171" rx="31.7" ry="18"/>
<text text-anchor="middle" x="6174.75" y="-167.3" font-family="Times,serif" font-size="14.00">signal</text>
</g>
<!-- n54&#45;&gt;n83 -->
<g id="edge46" class="edge">
<title>n54&#45;&gt;n83</title>
<path fill="none" stroke="black" d="M5892.4,-321C5971.92,-321 6164.89,-321 6164.89,-321 6164.89,-321 6164.89,-200.01 6164.89,-200.01"/>
<polygon fill="black" stroke="black" points="6168.39,-200.01 6164.89,-190.01 6161.39,-200.01 6168.39,-200.01"/>
<text text-anchor="middle" x="6012.91" y="-264.8" font-family="Times,serif" font-size="14.00">LOAD_MULTIPLIER</text>
</g>
<!-- n40 -->
<g id="node31" class="node">
<title>n40</title>
<ellipse fill="none" stroke="black" cx="2101.9" cy="-678" rx="27" ry="18"/>
<text text-anchor="middle" x="2101.9" y="-674.3" font-family="Times,serif" font-size="14.00">0.00</text>
</g>
<!-- n39 -->
<g id="node32" class="node">
<title>n39</title>
<ellipse fill="none" stroke="black" cx="2480.9" cy="-678" rx="32.49" ry="18"/>
<text text-anchor="middle" x="2480.9" y="-674.3" font-family="Times,serif" font-size="14.00">inputs</text>
</g>
<!-- n40&#45;&gt;n39 -->
<g id="edge14" class="edge">
<title>n40&#45;&gt;n39</title>
<path fill="none" stroke="black" d="M2129.16,-678C2129.16,-678 2436.55,-678 2436.55,-678"/>
<polygon fill="black" stroke="black" points="2436.55,-681.5 2446.55,-678 2436.55,-674.5 2436.55,-681.5"/>
</g>
<!-- n41 -->
<g id="node33" class="node">
<title>n41</title>
<ellipse fill="none" stroke="black" cx="3002.55" cy="-678" rx="33.29" ry="18"/>
<text text-anchor="middle" x="3002.55" y="-674.3" font-family="Times,serif" font-size="14.00">output</text>
</g>
<!-- n39&#45;&gt;n41 -->
<!-- n67 -->
<g id="node56" class="node">
<title>n67</title>
<ellipse fill="none" stroke="black" cx="3474.55" cy="-1298" rx="40.09" ry="18"/>
<text text-anchor="middle" x="3474.55" y="-1294.3" font-family="Times,serif" font-size="14.00">on_false</text>
</g>
<!-- n41&#45;&gt;n67 -->
<g id="edge38" class="edge">
<title>n41&#45;&gt;n67</title>
<path fill="none" stroke="black" d="M3036.14,-678C3144.05,-678 3474.89,-678 3474.89,-678 3474.89,-678 3474.89,-1268.27 3474.89,-1268.27"/>
<polygon fill="black" stroke="black" points="3471.39,-1268.27 3474.89,-1278.27 3478.39,-1268.27 3471.39,-1268.27"/>
<text text-anchor="middle" x="3239.55" y="-969.8" font-family="Times,serif" font-size="14.00">CONCURRENCY_INCREMENT_NORMAL</text>
</g>
<!-- n50 -->
<g id="node34" class="node">
<title>n50</title>
<ellipse fill="none" stroke="black" cx="4395.58" cy="-791" rx="68.49" ry="18"/>
<text text-anchor="middle" x="4395.58" y="-787.3" font-family="Times,serif" font-size="14.00">control_variable</text>
</g>
<!-- n51 -->
<g id="node37" class="node">
<title>n51</title>
<ellipse fill="none" stroke="black" cx="4533.98" cy="-791" rx="33.29" ry="18"/>
<text text-anchor="middle" x="4533.98" y="-787.3" font-family="Times,serif" font-size="14.00">output</text>
</g>
<!-- n50&#45;&gt;n51 -->
<!-- n48 -->
<g id="node36" class="node">
<title>n48</title>
<ellipse fill="none" stroke="black" cx="4395.58" cy="-899" rx="42.49" ry="18"/>
<text text-anchor="middle" x="4395.58" y="-895.3" font-family="Times,serif" font-size="14.00">optimize</text>
</g>
<!-- n51&#45;&gt;n18 -->
<g id="edge39" class="edge">
<title>n51&#45;&gt;n18</title>
<path fill="none" stroke="black" d="M4523.89,-773.47C4523.89,-696.09 4523.89,-389 4523.89,-389 4523.89,-389 5242.85,-389 5242.85,-389"/>
<polygon fill="black" stroke="black" points="5242.85,-392.5 5252.85,-389 5242.85,-385.5 5242.85,-392.5"/>
<text text-anchor="middle" x="4899.12" y="-750.8" font-family="Times,serif" font-size="14.00">DESIRED_CONCURRENCY</text>
</g>
<!-- n79 -->
<g id="node45" class="node">
<title>n79</title>
<ellipse fill="none" stroke="black" cx="4899.12" cy="-493" rx="31.7" ry="18"/>
<text text-anchor="middle" x="4899.12" y="-489.3" font-family="Times,serif" font-size="14.00">signal</text>
</g>
<!-- n51&#45;&gt;n79 -->
<g id="edge40" class="edge">
<title>n51&#45;&gt;n79</title>
<path fill="none" stroke="black" d="M4545.89,-774.06C4545.89,-710.76 4545.89,-491.8 4545.89,-491.8 4545.89,-491.8 4855.64,-491.8 4855.64,-491.8"/>
<polygon fill="black" stroke="black" points="4855.64,-495.3 4865.64,-491.8 4855.64,-488.3 4855.64,-495.3"/>
<text text-anchor="middle" x="4708.12" y="-630.8" font-family="Times,serif" font-size="14.00">DESIRED_CONCURRENCY</text>
</g>
<!-- n47 -->
<g id="node38" class="node">
<title>n47</title>
<ellipse fill="none" stroke="black" cx="4395.58" cy="-953" rx="38.19" ry="18"/>
<text text-anchor="middle" x="4395.58" y="-949.3" font-family="Times,serif" font-size="14.00">setpoint</text>
</g>
<!-- n46 -->
<g id="node39" class="node">
<title>n46</title>
<ellipse fill="none" stroke="black" cx="4395.58" cy="-1007" rx="31.7" ry="18"/>
<text text-anchor="middle" x="4395.58" y="-1003.3" font-family="Times,serif" font-size="14.00">signal</text>
</g>
<!-- n37 -->
<g id="node42" class="node">
<title>n37</title>
<ellipse fill="none" stroke="black" cx="3002.55" cy="-845" rx="33.29" ry="18"/>
<text text-anchor="middle" x="3002.55" y="-841.3" font-family="Times,serif" font-size="14.00">output</text>
</g>
<!-- n36&#45;&gt;n37 -->
<!-- n37&#45;&gt;n39 -->
<g id="edge55" class="edge">
<title>n37&#45;&gt;n39</title>
<path fill="none" stroke="black" d="M2970.6,-851C2880,-851 2627.89,-851 2627.89,-851 2627.89,-851 2627.89,-684 2627.89,-684 2627.89,-684 2523.59,-684 2523.59,-684"/>
<polygon fill="black" stroke="black" points="2523.59,-680.5 2513.59,-684 2523.59,-687.5 2523.59,-680.5"/>
<text text-anchor="middle" x="2733.05" y="-766.8" font-family="Times,serif" font-size="14.00">CONCURRENCY_INCREMENT_INTEGRAL_CAPPED</text>
</g>
<!-- n75 -->
<g id="node43" class="node">
<title>n75</title>
<ellipse fill="none" stroke="black" cx="2101.9" cy="-993" rx="31.7" ry="18"/>
<text text-anchor="middle" x="2101.9" y="-989.3" font-family="Times,serif" font-size="14.00">signal</text>
</g>
<!-- n75&#45;&gt;n24 -->
<g id="edge58" class="edge">
<title>n75&#45;&gt;n24</title>
<path fill="none" stroke="black" d="M2125.71,-980.6C2158.32,-980.6 2212.89,-980.6 2212.89,-980.6 2212.89,-980.6 2212.89,-463 2212.89,-463 2212.89,-463 2443.69,-463 2443.69,-463"/>
<polygon fill="black" stroke="black" points="2443.69,-466.5 2453.69,-463 2443.69,-459.5 2443.69,-466.5"/>
<text text-anchor="middle" x="2300.9" y="-543.8" font-family="Times,serif" font-size="14.00">ACCEPTED_CONCURRENCY</text>
</g>
<!-- n75&#45;&gt;n50 -->
<g id="edge61" class="edge">
<title>n75&#45;&gt;n50</title>
<path fill="none" stroke="black" d="M2131.5,-986.2C2396.04,-986.2 4344.89,-986.2 4344.89,-986.2 4344.89,-986.2 4344.89,-815.02 4344.89,-815.02"/>
<polygon fill="black" stroke="black" points="4348.39,-815.02 4344.89,-805.02 4341.39,-815.02 4348.39,-815.02"/>
<text text-anchor="middle" x="3239.55" y="-1168.8" font-family="Times,serif" font-size="14.00">ACCEPTED_CONCURRENCY</text>
</g>
<!-- n75&#45;&gt;n36 -->
<g id="edge59" class="edge">
<title>n75&#45;&gt;n36</title>
<path fill="none" stroke="black" d="M2129.41,-983.4C2215.15,-983.4 2471.89,-983.4 2471.89,-983.4 2471.89,-983.4 2471.89,-874.04 2471.89,-874.04"/>
<polygon fill="black" stroke="black" points="2475.39,-874.04 2471.89,-864.04 2468.39,-874.04 2475.39,-874.04"/>
<text text-anchor="middle" x="2300.9" y="-840.8" font-family="Times,serif" font-size="14.00">ACCEPTED_CONCURRENCY</text>
</g>
<!-- n75&#45;&gt;n75 -->
<!-- n75&#45;&gt;n75 -->
<g id="edge62" class="edge">
<title>n75&#45;&gt;n75</title>
<path fill="none" stroke="black" d="M2070.03,-993C2004.74,-993 1861.89,-993 1861.89,-993 1861.89,-993 1861.89,-1024 1861.89,-1024 1861.89,-1024 2369.89,-1024 2369.89,-1024 2369.89,-1024 2369.89,-1006 2369.89,-1006 2369.89,-1006 2136.26,-1006 2136.26,-1006"/>
<polygon fill="black" stroke="black" points="2136.26,-1002.5 2126.26,-1006 2136.26,-1009.5 2136.26,-1002.5"/>
</g>
<!-- n43 -->
<g id="node53" class="node">
<title>n43</title>
<ellipse fill="none" stroke="black" cx="2480.9" cy="-1019" rx="28.7" ry="18"/>
<text text-anchor="middle" x="2480.9" y="-1015.3" font-family="Times,serif" font-size="14.00">input</text>
</g>
<!-- n75&#45;&gt;n43 -->
<g id="edge60" class="edge">
<title>n75&#45;&gt;n43</title>
<path fill="none" stroke="black" d="M2128.25,-1003.5C2128.25,-1003.5 2453.62,-1003.5 2453.62,-1003.5"/>
<polygon fill="black" stroke="black" points="2453.62,-1007 2463.62,-1003.5 2453.62,-1000 2453.62,-1007"/>
<text text-anchor="middle" x="2300.9" y="-1013.8" font-family="Times,serif" font-size="14.00">ACCEPTED_CONCURRENCY</text>
</g>
<!-- n77 -->
<g id="node44" class="node">
<title>n77</title>
<ellipse fill="none" stroke="black" cx="4899.12" cy="-76" rx="31.7" ry="18"/>
<text text-anchor="middle" x="4899.12" y="-72.3" font-family="Times,serif" font-size="14.00">signal</text>
</g>
<!-- n77&#45;&gt;n19 -->
<g id="edge67" class="edge">
<title>n77&#45;&gt;n19</title>
<path fill="none" stroke="black" d="M4927.22,-67C5014.14,-67 5272.89,-67 5272.89,-67 5272.89,-67 5272.89,-291.22 5272.89,-291.22"/>
<polygon fill="black" stroke="black" points="5269.39,-291.22 5272.89,-301.22 5276.39,-291.22 5269.39,-291.22"/>
<text text-anchor="middle" x="5097.62" y="-165.8" font-family="Times,serif" font-size="14.00">INCOMING_CONCURRENCY</text>
</g>
<!-- n77&#45;&gt;n77 -->
<!-- n77&#45;&gt;n77 -->
<g id="edge68" class="edge">
<title>n77&#45;&gt;n77</title>
<path fill="none" stroke="black" d="M4868.8,-82C4798.02,-82 4627.89,-82 4627.89,-82 4627.89,-82 4627.89,-34 4627.89,-34 4627.89,-34 5182.89,-34 5182.89,-34 5182.89,-34 5182.89,-85 5182.89,-85 5182.89,-85 4938.62,-85 4938.62,-85"/>
<polygon fill="black" stroke="black" points="4938.62,-81.5 4928.62,-85 4938.62,-88.5 4938.62,-81.5"/>
</g>
<!-- n79&#45;&gt;n18 -->
<g id="edge56" class="edge">
<title>n79&#45;&gt;n18</title>
<path fill="none" stroke="black" d="M4909.89,-475.7C4909.89,-446.6 4909.89,-391 4909.89,-391 4909.89,-391 5246.85,-391 5246.85,-391"/>
<polygon fill="black" stroke="black" points="5246.85,-394.5 5256.85,-391 5246.85,-387.5 5246.85,-394.5"/>
<text text-anchor="middle" x="5097.62" y="-420.8" font-family="Times,serif" font-size="14.00">DESIRED_CONCURRENCY</text>
</g>
<!-- n79&#45;&gt;n79 -->
<!-- n79&#45;&gt;n79 -->
<g id="edge57" class="edge">
<title>n79&#45;&gt;n79</title>
<path fill="none" stroke="black" d="M4874.15,-504.6C4831.19,-504.6 4747.89,-504.6 4747.89,-504.6 4747.89,-504.6 4747.89,-519.67 4747.89,-519.67 4747.89,-519.67 4993.89,-519.67 4993.89,-519.67 4993.89,-519.67 4993.89,-499 4993.89,-499 4993.89,-499 4940.88,-499 4940.88,-499"/>
<polygon fill="black" stroke="black" points="4940.88,-495.5 4930.88,-499 4940.88,-502.5 4940.88,-495.5"/>
</g>
<!-- n81&#45;&gt;n81 -->
<!-- n81&#45;&gt;n81 -->
<g id="edge70" class="edge">
<title>n81&#45;&gt;n81</title>
<path fill="none" stroke="black" d="M2973.22,-1565.67C2930.42,-1565.67 2855.89,-1565.67 2855.89,-1565.67 2855.89,-1565.67 2855.89,-1547.5 2855.89,-1547.5 2855.89,-1547.5 3195.89,-1547.5 3195.89,-1547.5 3195.89,-1547.5 3195.89,-1567 3195.89,-1567 3195.89,-1567 3044.27,-1567 3044.27,-1567"/>
<polygon fill="black" stroke="black" points="3044.27,-1563.5 3034.27,-1567 3044.27,-1570.5 3044.27,-1563.5"/>
</g>
<!-- n81&#45;&gt;n68 -->
<g id="edge69" class="edge">
<title>n81&#45;&gt;n68</title>
<path fill="none" stroke="black" d="M3002.89,-1554.81C3002.89,-1511.53 3002.89,-1406 3002.89,-1406 3002.89,-1406 3429.11,-1406 3429.11,-1406"/>
<polygon fill="black" stroke="black" points="3429.11,-1409.5 3439.11,-1406 3429.11,-1402.5 3429.11,-1409.5"/>
<text text-anchor="middle" x="3239.55" y="-1492.8" font-family="Times,serif" font-size="14.00">IS_OVERLOAD</text>
</g>
<!-- n83&#45;&gt;n59 -->
<g id="edge65" class="edge">
<title>n83&#45;&gt;n59</title>
<path fill="none" stroke="black" d="M6185.89,-188.29C6185.89,-225.94 6185.89,-312 6185.89,-312 6185.89,-312 6454.95,-312 6454.95,-312"/>
<polygon fill="black" stroke="black" points="6454.95,-315.5 6464.95,-312 6454.95,-308.5 6454.95,-315.5"/>
<text text-anchor="middle" x="6337.6" y="-264.8" font-family="Times,serif" font-size="14.00">LOAD_MULTIPLIER</text>
</g>
<!-- n83&#45;&gt;n83 -->
<!-- n83&#45;&gt;n83 -->
<g id="edge66" class="edge">
<title>n83&#45;&gt;n83</title>
<path fill="none" stroke="black" d="M6144.57,-165C6110.54,-165 6059.89,-165 6059.89,-165 6059.89,-165 6059.89,-133.33 6059.89,-133.33 6059.89,-133.33 6290.89,-133.33 6290.89,-133.33 6290.89,-133.33 6290.89,-165 6290.89,-165 6290.89,-165 6216.48,-165 6216.48,-165"/>
<polygon fill="black" stroke="black" points="6216.48,-161.5 6206.48,-165 6216.48,-168.5 6216.48,-161.5"/>
</g>
<!-- n71 -->
<g id="node48" class="node">
<title>n71</title>
<ellipse fill="none" stroke="black" cx="1664.11" cy="-1949" rx="31.7" ry="18"/>
<text text-anchor="middle" x="1664.11" y="-1945.3" font-family="Times,serif" font-size="14.00">signal</text>
</g>
<!-- n71&#45;&gt;n61 -->
<g id="edge72" class="edge">
<title>n71&#45;&gt;n61</title>
<path fill="none" stroke="black" d="M1693.17,-1941.33C1693.17,-1941.33 2063.31,-1941.33 2063.31,-1941.33"/>
<polygon fill="black" stroke="black" points="2063.31,-1944.83 2073.31,-1941.33 2063.31,-1937.83 2063.31,-1944.83"/>
<text text-anchor="middle" x="1903.9" y="-1950.8" font-family="Times,serif" font-size="14.00">SIGNAL</text>
</g>
<!-- n71&#45;&gt;n46 -->
<g id="edge71" class="edge">
<title>n71&#45;&gt;n46</title>
<path fill="none" stroke="black" d="M1664.89,-1930.52C1664.89,-1898.02 1664.89,-1834 1664.89,-1834 1664.89,-1834 4336.89,-1834 4336.89,-1834 4336.89,-1834 4336.89,-1013 4336.89,-1013 4336.89,-1013 4353.69,-1013 4353.69,-1013"/>
<polygon fill="black" stroke="black" points="4353.69,-1016.5 4363.69,-1013 4353.69,-1009.5 4353.69,-1016.5"/>
<text text-anchor="middle" x="3002.55" y="-2183.8" font-family="Times,serif" font-size="14.00">SIGNAL</text>
</g>
<!-- n71&#45;&gt;n71 -->
<!-- n73&#45;&gt;n62 -->
<g id="edge64" class="edge">
<title>n73&#45;&gt;n62</title>
<path fill="none" stroke="black" d="M1694.27,-1758C1793.4,-1758 2102.89,-1758 2102.89,-1758 2102.89,-1758 2102.89,-1860.13 2102.89,-1860.13"/>
<polygon fill="black" stroke="black" points="2099.39,-1860.13 2102.89,-1870.13 2106.39,-1860.13 2099.39,-1860.13"/>
<text text-anchor="middle" x="1903.9" y="-1846.8" font-family="Times,serif" font-size="14.00">SETPOINT</text>
</g>
<!-- n73&#45;&gt;n47 -->
<g id="edge63" class="edge">
<title>n73&#45;&gt;n47</title>
<path fill="none" stroke="black" d="M1664.89,-1745.54C1664.89,-1624.82 1664.89,-953 1664.89,-953 1664.89,-953 4345.47,-953 4345.47,-953"/>
<polygon fill="black" stroke="black" points="4345.47,-956.5 4355.47,-953 4345.47,-949.5 4345.47,-956.5"/>
<text text-anchor="middle" x="3002.55" y="-2132.8" font-family="Times,serif" font-size="14.00">SETPOINT</text>
</g>
<!-- n73&#45;&gt;n73 -->
<!-- n2 -->
<g id="node50" class="node">
<title>n2</title>
<ellipse fill="none" stroke="black" cx="91.15" cy="-1724" rx="33.29" ry="18"/>
<text text-anchor="middle" x="91.15" y="-1720.3" font-family="Times,serif" font-size="14.00">output</text>
</g>
<!-- n2&#45;&gt;n4 -->
<g id="edge52" class="edge">
<title>n2&#45;&gt;n4</title>
<path fill="none" stroke="black" d="M123.08,-1718C179.26,-1718 289.89,-1718 289.89,-1718 289.89,-1718 289.89,-1586.98 289.89,-1586.98"/>
<polygon fill="black" stroke="black" points="293.39,-1586.98 289.89,-1576.98 286.39,-1586.98 293.39,-1586.98"/>
<text text-anchor="middle" x="213.29" y="-1626.8" font-family="Times,serif" font-size="14.00">LATENCY</text>
</g>
<!-- n2&#45;&gt;n14 -->
<g id="edge53" class="edge">
<title>n2&#45;&gt;n14</title>
<path fill="none" stroke="black" d="M122.82,-1730C251.71,-1730 729.89,-1730 729.89,-1730 729.89,-1730 729.89,-1586.7 729.89,-1586.7"/>
<polygon fill="black" stroke="black" points="733.39,-1586.7 729.89,-1576.7 726.39,-1586.7 733.39,-1586.7"/>
<text text-anchor="middle" x="365.29" y="-1723.8" font-family="Times,serif" font-size="14.00">LATENCY</text>
</g>
<!-- n2&#45;&gt;n71 -->
<g id="edge54" class="edge">
<title>n2&#45;&gt;n71</title>
<path fill="none" stroke="black" d="M91.89,-1742.3C91.89,-1794.93 91.89,-1943 91.89,-1943 91.89,-1943 1622.25,-1943 1622.25,-1943"/>
<polygon fill="black" stroke="black" points="1622.25,-1946.5 1632.25,-1943 1622.25,-1939.5 1622.25,-1946.5"/>
<text text-anchor="middle" x="840.38" y="-1949.8" font-family="Times,serif" font-size="14.00">LATENCY</text>
</g>
<!-- n57 -->
<g id="node51" class="node">
<title>n57</title>
<ellipse fill="none" stroke="black" cx="1664.11" cy="-457" rx="89.08" ry="18"/>
<text text-anchor="middle" x="1664.11" y="-453.3" font-family="Times,serif" font-size="14.00">accepted_concurrency</text>
</g>
<!-- n57&#45;&gt;n24 -->
<g id="edge28" class="edge">
<title>n57&#45;&gt;n24</title>
<path fill="none" stroke="black" d="M1748.83,-451C1748.83,-451 2443.66,-451 2443.66,-451"/>
<polygon fill="black" stroke="black" points="2443.66,-454.5 2453.66,-451 2443.66,-447.5 2443.66,-454.5"/>
<text text-anchor="middle" x="2101.9" y="-460.8" font-family="Times,serif" font-size="14.00">ACCEPTED_CONCURRENCY</text>
</g>
<!-- n57&#45;&gt;n50 -->
<g id="edge31" class="edge">
<title>n57&#45;&gt;n50</title>
<path fill="none" stroke="black" d="M1728.89,-469.69C1728.89,-530.69 1728.89,-791 1728.89,-791 1728.89,-791 4315.13,-791 4315.13,-791"/>
<polygon fill="black" stroke="black" points="4315.13,-794.5 4325.13,-791 4315.13,-787.5 4315.13,-794.5"/>
<text text-anchor="middle" x="3002.55" y="-327.8" font-family="Times,serif" font-size="14.00">ACCEPTED_CONCURRENCY</text>
</g>
<!-- n57&#45;&gt;n36 -->
<g id="edge29" class="edge">
<title>n57&#45;&gt;n36</title>
<path fill="none" stroke="black" d="M1720.89,-471.27C1720.89,-541.27 1720.89,-845 1720.89,-845 1720.89,-845 2436.73,-845 2436.73,-845"/>
<polygon fill="black" stroke="black" points="2436.73,-848.5 2446.73,-845 2436.73,-841.5 2436.73,-848.5"/>
<text text-anchor="middle" x="2101.9" y="-1206.8" font-family="Times,serif" font-size="14.00">ACCEPTED_CONCURRENCY</text>
</g>
<!-- n57&#45;&gt;n75 -->
<g id="edge32" class="edge">
<title>n57&#45;&gt;n75</title>
<path fill="none" stroke="black" d="M1712.89,-472.49C1712.89,-559.54 1712.89,-984 1712.89,-984 1712.89,-984 2062.41,-984 2062.41,-984"/>
<polygon fill="black" stroke="black" points="2062.41,-987.5 2072.41,-984 2062.41,-980.5 2062.41,-987.5"/>
<text text-anchor="middle" x="1903.9" y="-946.8" font-family="Times,serif" font-size="14.00">ACCEPTED_CONCURRENCY</text>
</g>
<!-- n57&#45;&gt;n43 -->
<g id="edge30" class="edge">
<title>n57&#45;&gt;n43</title>
<path fill="none" stroke="black" d="M1704.89,-473.24C1704.89,-566.57 1704.89,-1030.5 1704.89,-1030.5 1704.89,-1030.5 2446.58,-1030.5 2446.58,-1030.5"/>
<polygon fill="black" stroke="black" points="2446.58,-1034 2456.58,-1030.5 2446.58,-1027 2446.58,-1034"/>
<text text-anchor="middle" x="2101.9" y="-863.8" font-family="Times,serif" font-size="14.00">ACCEPTED_CONCURRENCY</text>
</g>
<!-- n56 -->
<g id="node52" class="node">
<title>n56</title>
<ellipse fill="none" stroke="black" cx="1664.11" cy="-403" rx="92.08" ry="18"/>
<text text-anchor="middle" x="1664.11" y="-399.3" font-family="Times,serif" font-size="14.00">incoming_concurrency</text>
</g>
<!-- n56&#45;&gt;n19 -->
<g id="edge33" class="edge">
<title>n56&#45;&gt;n19</title>
<path fill="none" stroke="black" d="M1664.89,-384.8C1664.89,-360.64 1664.89,-321 1664.89,-321 1664.89,-321 5233.14,-321 5233.14,-321"/>
<polygon fill="black" stroke="black" points="5233.14,-324.5 5243.14,-321 5233.14,-317.5 5233.14,-324.5"/>
<text text-anchor="middle" x="3713.55" y="-281.8" font-family="Times,serif" font-size="14.00">INCOMING_CONCURRENCY</text>
</g>
<!-- n56&#45;&gt;n77 -->
<g id="edge34" class="edge">
<title>n56&#45;&gt;n77</title>
<path fill="none" stroke="black" d="M1710.32,-387C2104.58,-387 4888.89,-387 4888.89,-387 4888.89,-387 4888.89,-104.68 4888.89,-104.68"/>
<polygon fill="black" stroke="black" points="4892.39,-104.68 4888.89,-94.68 4885.39,-104.68 4892.39,-104.68"/>
<text text-anchor="middle" x="3474.55" y="-159.8" font-family="Times,serif" font-size="14.00">INCOMING_CONCURRENCY</text>
</g>
<!-- n44 -->
<g id="node54" class="node">
<title>n44</title>
<ellipse fill="none" stroke="black" cx="3002.55" cy="-1019" rx="33.29" ry="18"/>
<text text-anchor="middle" x="3002.55" y="-1015.3" font-family="Times,serif" font-size="14.00">output</text>
</g>
<!-- n43&#45;&gt;n44 -->
<!-- n44&#45;&gt;n27 -->
<g id="edge51" class="edge">
<title>n44&#45;&gt;n27</title>
<path fill="none" stroke="black" d="M3028.17,-1031C3109.25,-1031 3354.89,-1031 3354.89,-1031 3354.89,-1031 3354.89,-1903 3354.89,-1903 3354.89,-1903 3443.54,-1903 3443.54,-1903"/>
<polygon fill="black" stroke="black" points="3443.54,-1906.5 3453.54,-1903 3443.54,-1899.5 3443.54,-1906.5"/>
<text text-anchor="middle" x="3239.55" y="-1089.8" font-family="Times,serif" font-size="14.00">SQRT_CONCURRENCY_INCREMENT</text>
</g>
<!-- n66 -->
<g id="node55" class="node">
<title>n66</title>
<ellipse fill="none" stroke="black" cx="3002.55" cy="-1352" rx="27" ry="18"/>
<text text-anchor="middle" x="3002.55" y="-1348.3" font-family="Times,serif" font-size="14.00">0.00</text>
</g>
<!-- n65 -->
<g id="node57" class="node">
<title>n65</title>
<ellipse fill="none" stroke="black" cx="3474.55" cy="-1352" rx="37.89" ry="18"/>
<text text-anchor="middle" x="3474.55" y="-1348.3" font-family="Times,serif" font-size="14.00">on_true</text>
</g>
<!-- n66&#45;&gt;n65 -->
<g id="edge26" class="edge">
<title>n66&#45;&gt;n65</title>
<path fill="none" stroke="black" d="M3029.96,-1352C3029.96,-1352 3424.71,-1352 3424.71,-1352"/>
<polygon fill="black" stroke="black" points="3424.71,-1355.5 3434.71,-1352 3424.71,-1348.5 3424.71,-1355.5"/>
</g>
<!-- n69 -->
<g id="node58" class="node">
<title>n69</title>
<ellipse fill="none" stroke="black" cx="3896.19" cy="-1392" rx="33.29" ry="18"/>
<text text-anchor="middle" x="3896.19" y="-1388.3" font-family="Times,serif" font-size="14.00">output</text>
</g>
<!-- n69&#45;&gt;n33 -->
<g id="edge41" class="edge">
<title>n69&#45;&gt;n33</title>
<path fill="none" stroke="black" d="M3929.74,-1392C3929.74,-1392 4356.64,-1392 4356.64,-1392"/>
<polygon fill="black" stroke="black" points="4356.64,-1395.5 4366.64,-1392 4356.64,-1388.5 4356.64,-1395.5"/>
<text text-anchor="middle" x="4128.34" y="-1395.8" font-family="Times,serif" font-size="14.00">CONCURRENCY_INCREMENT</text>
</g>
<!-- n69&#45;&gt;n48 -->
<g id="edge42" class="edge">
<title>n69&#45;&gt;n48</title>
<path fill="none" stroke="black" d="M3896.89,-1373.57C3896.89,-1284.07 3896.89,-899 3896.89,-899 3896.89,-899 4341.12,-899 4341.12,-899"/>
<polygon fill="black" stroke="black" points="4341.12,-902.5 4351.12,-899 4341.12,-895.5 4341.12,-902.5"/>
<text text-anchor="middle" x="4128.34" y="-1228.8" font-family="Times,serif" font-size="14.00">CONCURRENCY_INCREMENT</text>
</g>
<!-- n68&#45;&gt;n69 -->
</g>
</svg>
