<?xml version="1.0" encoding="UTF-8" standalone="no"?>
<!DOCTYPE svg PUBLIC "-//W3C//DTD SVG 1.1//EN"
 "http://www.w3.org/Graphics/SVG/1.1/DTD/svg11.dtd">
<!-- Generated by graphviz version 7.1.0 (20230121.1956)
 -->
<!-- Pages: 1 -->
<svg width="7463pt" height="1494pt"
 viewBox="0.00 0.00 7462.85 1494.00" xmlns="http://www.w3.org/2000/svg" xmlns:xlink="http://www.w3.org/1999/xlink">
<g id="graph0" class="graph" transform="scale(1 1) rotate(0) translate(4 1490)">
<polygon fill="white" stroke="none" points="-4,4 -4,-1490 7458.85,-1490 7458.85,4 -4,4"/>
<g id="clust1" class="cluster">
<title>cluster_s3</title>
<polygon fill="none" stroke="black" points="18.4,-386 18.4,-599 580.39,-599 580.39,-386 18.4,-386"/>
<text text-anchor="middle" x="299.39" y="-583.8" font-family="Times,serif" font-size="14.00">ArithmeticCombinator[root.1]</text>
</g>
<g id="clust4" class="cluster">
<title>cluster_s8</title>
<polygon fill="none" stroke="black" points="970.47,-165 970.47,-378 2042.64,-378 2042.64,-165 970.47,-165"/>
<text text-anchor="middle" x="1506.56" y="-362.8" font-family="Times,serif" font-size="14.00">ArithmeticCombinator[root.2]</text>
</g>
<g id="clust7" class="cluster">
<title>cluster_s17</title>
<polygon fill="none" stroke="black" points="5794.4,-1072 5794.4,-1285 6068.59,-1285 6068.59,-1072 5794.4,-1072"/>
<text text-anchor="middle" x="5931.49" y="-1269.8" font-family="Times,serif" font-size="14.00">ArithmeticCombinator[root.4.0]</text>
</g>
<g id="clust10" class="cluster">
<title>cluster_s21</title>
<polygon fill="none" stroke="black" points="1869.85,-509 1869.85,-722 2811.53,-722 2811.53,-509 1869.85,-509"/>
<text text-anchor="middle" x="2340.69" y="-706.8" font-family="Times,serif" font-size="14.00">ArithmeticCombinator[root.4.1]</text>
</g>
<g id="clust13" class="cluster">
<title>cluster_s26</title>
<polygon fill="none" stroke="black" points="2638.74,-897 2638.74,-1110 3802.13,-1110 3802.13,-897 2638.74,-897"/>
<text text-anchor="middle" x="3220.43" y="-1094.8" font-family="Times,serif" font-size="14.00">ArithmeticCombinator[root.4.2]</text>
</g>
<g id="clust16" class="cluster">
<title>cluster_s54</title>
<polygon fill="none" stroke="black" points="2642.94,-168 2642.94,-381 3301.13,-381 3301.13,-168 2642.94,-168"/>
<text text-anchor="middle" x="2972.03" y="-365.8" font-family="Times,serif" font-size="14.00">Decider[root.4.8]</text>
</g>
<g id="clust19" class="cluster">
<title>cluster_s13</title>
<polygon fill="none" stroke="black" points="672.39,-386 672.39,-599 1143.27,-599 1143.27,-386 672.39,-386"/>
<text text-anchor="middle" x="907.83" y="-583.8" font-family="Times,serif" font-size="14.00">EMA[root.3]</text>
</g>
<g id="clust22" class="cluster">
<title>cluster_s46</title>
<polygon fill="none" stroke="black" points="6331.59,-1072 6331.59,-1231 6621.97,-1231 6621.97,-1072 6331.59,-1072"/>
<text text-anchor="middle" x="6476.78" y="-1215.8" font-family="Times,serif" font-size="14.00">Extrapolator[root.4.6]</text>
</g>
<g id="clust25" class="cluster">
<title>cluster_s39</title>
<polygon fill="none" stroke="black" points="4710.92,-295 4710.92,-670 5101.4,-670 5101.4,-295 4710.92,-295"/>
<text text-anchor="middle" x="4906.16" y="-654.8" font-family="Times,serif" font-size="14.00">Gradient[root.4.5]</text>
</g>
<g id="clust28" class="cluster">
<title>cluster_s31</title>
<polygon fill="none" stroke="black" points="4183.53,-509 4183.53,-776 4473.92,-776 4473.92,-509 4183.53,-509"/>
<text text-anchor="middle" x="4328.72" y="-760.8" font-family="Times,serif" font-size="14.00">Integrator[root.4.3]</text>
</g>
<g id="clust31" class="cluster">
<title>cluster_s52</title>
<polygon fill="none" stroke="black" points="7175.67,-1072 7175.67,-1231 7454.85,-1231 7454.85,-1072 7175.67,-1072"/>
<text text-anchor="middle" x="7315.26" y="-1215.8" font-family="Times,serif" font-size="14.00">LoadActuator[root.4.7.LoadActuator]</text>
</g>
<g id="clust33" class="cluster">
<title>cluster_s62</title>
<polygon fill="none" stroke="black" points="1832.7,-730 1832.7,-940 2070.39,-940 2070.39,-730 1832.7,-730"/>
<text text-anchor="middle" x="1951.54" y="-924.8" font-family="Times,serif" font-size="14.00">NestedSignalEgress[root.4.11]</text>
</g>
<g id="clust36" class="cluster">
<title>cluster_s64</title>
<polygon fill="none" stroke="black" points="5323.05,-1268 5323.05,-1478 5560.74,-1478 5560.74,-1268 5323.05,-1268"/>
<text text-anchor="middle" x="5441.9" y="-1462.8" font-family="Times,serif" font-size="14.00">NestedSignalEgress[root.4.12]</text>
</g>
<g id="clust39" class="cluster">
<title>cluster_s66</title>
<polygon fill="none" stroke="black" points="5323.05,-550 5323.05,-760 5560.74,-760 5560.74,-550 5323.05,-550"/>
<text text-anchor="middle" x="5441.9" y="-744.8" font-family="Times,serif" font-size="14.00">NestedSignalEgress[root.4.13]</text>
</g>
<g id="clust42" class="cluster">
<title>cluster_s68</title>
<polygon fill="none" stroke="black" points="3592.19,-179 3592.19,-389 3829.88,-389 3829.88,-179 3592.19,-179"/>
<text text-anchor="middle" x="3711.03" y="-373.8" font-family="Times,serif" font-size="14.00">NestedSignalEgress[root.4.14]</text>
</g>
<g id="clust45" class="cluster">
<title>cluster_s70</title>
<polygon fill="none" stroke="black" points="6779.97,-922 6779.97,-1132 7017.67,-1132 7017.67,-922 6779.97,-922"/>
<text text-anchor="middle" x="6898.82" y="-1116.8" font-family="Times,serif" font-size="14.00">NestedSignalEgress[root.4.15]</text>
</g>
<g id="clust48" class="cluster">
<title>cluster_s60</title>
<polygon fill="none" stroke="black" points="2304.04,-193 2304.04,-370 2545.74,-370 2545.74,-193 2304.04,-193"/>
<text text-anchor="middle" x="2424.89" y="-354.8" font-family="Times,serif" font-size="14.00">NestedSignalIngress[root.4.10]</text>
</g>
<g id="clust51" class="cluster">
<title>cluster_s58</title>
<polygon fill="none" stroke="black" points="2308.04,-8 2308.04,-185 2540.74,-185 2540.74,-8 2308.04,-8"/>
<text text-anchor="middle" x="2424.39" y="-169.8" font-family="Times,serif" font-size="14.00">NestedSignalIngress[root.4.9]</text>
</g>
<g id="clust54" class="cluster">
<title>cluster_s1</title>
<polygon fill="none" stroke="black" points="8,-219 8,-378 191.19,-378 191.19,-219 8,-219"/>
<text text-anchor="middle" x="99.6" y="-362.8" font-family="Times,serif" font-size="14.00">PromQL[root.0]</text>
</g>
<g id="clust56" class="cluster">
<title>cluster_s49</title>
<polygon fill="none" stroke="black" points="1270.27,-887 1270.27,-1100 1599.04,-1100 1599.04,-887 1270.27,-887"/>
<text text-anchor="middle" x="1434.66" y="-1084.8" font-family="Times,serif" font-size="14.00">Scheduler[root.4.7.Scheduler]</text>
</g>
<g id="clust58" class="cluster">
<title>cluster_s36</title>
<polygon fill="none" stroke="black" points="2339.29,-730 2339.29,-889 2811.53,-889 2811.53,-730 2339.29,-730"/>
<text text-anchor="middle" x="2575.41" y="-873.8" font-family="Times,serif" font-size="14.00">Sqrt[root.4.4]</text>
</g>
<!-- n6 -->
<g id="node1" class="node">
<title>n6</title>
<ellipse fill="none" stroke="black" cx="99.6" cy="-508" rx="31.4" ry="18"/>
<text text-anchor="middle" x="99.6" y="-504.3" font-family="Times,serif" font-size="14.00">2.00</text>
</g>
<!-- n5 -->
<g id="node4" class="node">
<title>n5</title>
<ellipse fill="none" stroke="black" cx="314.19" cy="-508" rx="27" ry="18"/>
<text text-anchor="middle" x="314.19" y="-504.3" font-family="Times,serif" font-size="14.00">rhs</text>
</g>
<!-- n6&#45;&gt;n5 -->
<g id="edge1" class="edge">
<title>n6&#45;&gt;n5</title>
<path fill="none" stroke="black" d="M131.26,-508C131.26,-508 275.31,-508 275.31,-508"/>
<polygon fill="black" stroke="black" points="275.31,-511.5 285.31,-508 275.31,-504.5 275.31,-511.5"/>
</g>
<!-- n4 -->
<g id="node2" class="node">
<title>n4</title>
<ellipse fill="none" stroke="black" cx="314.19" cy="-454" rx="27" ry="18"/>
<text text-anchor="middle" x="314.19" y="-450.3" font-family="Times,serif" font-size="14.00">lhs</text>
</g>
<!-- n7 -->
<g id="node3" class="node">
<title>n7</title>
<ellipse fill="none" stroke="black" cx="488.79" cy="-508" rx="41.69" ry="18"/>
<text text-anchor="middle" x="488.79" y="-504.3" font-family="Times,serif" font-size="14.00">output</text>
</g>
<!-- n15 -->
<g id="node24" class="node">
<title>n15</title>
<ellipse fill="none" stroke="black" cx="798.43" cy="-508" rx="76.09" ry="18"/>
<text text-anchor="middle" x="798.43" y="-504.3" font-family="Times,serif" font-size="14.00">max_envelope</text>
</g>
<!-- n7&#45;&gt;n15 -->
<g id="edge32" class="edge">
<title>n7&#45;&gt;n15</title>
<path fill="none" stroke="black" d="M530.87,-508C530.87,-508 710.37,-508 710.37,-508"/>
<polygon fill="black" stroke="black" points="710.37,-511.5 720.37,-508 710.37,-504.5 710.37,-511.5"/>
<text text-anchor="middle" x="626.39" y="-511.8" font-family="Times,serif" font-size="14.00">MAX_EMA</text>
</g>
<!-- n5&#45;&gt;n7 -->
<!-- n11 -->
<g id="node5" class="node">
<title>n11</title>
<ellipse fill="none" stroke="black" cx="1051.67" cy="-233" rx="31.4" ry="18"/>
<text text-anchor="middle" x="1051.67" y="-229.3" font-family="Times,serif" font-size="14.00">1.10</text>
</g>
<!-- n10 -->
<g id="node8" class="node">
<title>n10</title>
<ellipse fill="none" stroke="black" cx="1434.66" cy="-233" rx="27" ry="18"/>
<text text-anchor="middle" x="1434.66" y="-229.3" font-family="Times,serif" font-size="14.00">rhs</text>
</g>
<!-- n11&#45;&gt;n10 -->
<g id="edge3" class="edge">
<title>n11&#45;&gt;n10</title>
<path fill="none" stroke="black" d="M1083.34,-233C1083.34,-233 1395.87,-233 1395.87,-233"/>
<polygon fill="black" stroke="black" points="1395.87,-236.5 1405.87,-233 1395.87,-229.5 1395.87,-236.5"/>
</g>
<!-- n9 -->
<g id="node6" class="node">
<title>n9</title>
<ellipse fill="none" stroke="black" cx="1434.66" cy="-287" rx="27" ry="18"/>
<text text-anchor="middle" x="1434.66" y="-283.3" font-family="Times,serif" font-size="14.00">lhs</text>
</g>
<!-- n12 -->
<g id="node7" class="node">
<title>n12</title>
<ellipse fill="none" stroke="black" cx="1951.04" cy="-253" rx="41.69" ry="18"/>
<text text-anchor="middle" x="1951.04" y="-249.3" font-family="Times,serif" font-size="14.00">output</text>
</g>
<!-- n61 -->
<g id="node44" class="node">
<title>n61</title>
<ellipse fill="none" stroke="black" cx="2424.39" cy="-261" rx="38.19" ry="18"/>
<text text-anchor="middle" x="2424.39" y="-257.3" font-family="Times,serif" font-size="14.00">signal</text>
</g>
<!-- n12&#45;&gt;n61 -->
<g id="edge35" class="edge">
<title>n12&#45;&gt;n61</title>
<path fill="none" stroke="black" d="M1988.19,-261.67C1988.19,-261.67 2374.26,-261.67 2374.26,-261.67"/>
<polygon fill="black" stroke="black" points="2374.26,-265.17 2384.26,-261.67 2374.26,-258.17 2374.26,-265.17"/>
<text text-anchor="middle" x="2192.04" y="-259.8" font-family="Times,serif" font-size="14.00">LATENCY_SETPOINT</text>
</g>
<!-- n10&#45;&gt;n12 -->
<!-- n19 -->
<g id="node9" class="node">
<title>n19</title>
<ellipse fill="none" stroke="black" cx="5871.4" cy="-1140" rx="27" ry="18"/>
<text text-anchor="middle" x="5871.4" y="-1136.3" font-family="Times,serif" font-size="14.00">lhs</text>
</g>
<!-- n20 -->
<g id="node10" class="node">
<title>n20</title>
<ellipse fill="none" stroke="black" cx="5976.99" cy="-1140" rx="41.69" ry="18"/>
<text text-anchor="middle" x="5976.99" y="-1136.3" font-family="Times,serif" font-size="14.00">output</text>
</g>
<!-- n19&#45;&gt;n20 -->
<!-- n47 -->
<g id="node26" class="node">
<title>n47</title>
<ellipse fill="none" stroke="black" cx="6416.69" cy="-1140" rx="35.19" ry="18"/>
<text text-anchor="middle" x="6416.69" y="-1136.3" font-family="Times,serif" font-size="14.00">input</text>
</g>
<!-- n20&#45;&gt;n47 -->
<g id="edge33" class="edge">
<title>n20&#45;&gt;n47</title>
<path fill="none" stroke="black" d="M6019.15,-1140C6019.15,-1140 6369.67,-1140 6369.67,-1140"/>
<polygon fill="black" stroke="black" points="6369.67,-1143.5 6379.67,-1140 6369.67,-1136.5 6369.67,-1143.5"/>
<text text-anchor="middle" x="6200.09" y="-1143.8" font-family="Times,serif" font-size="14.00">DESIRED_CONCURRENCY_RATIO</text>
</g>
<!-- n18 -->
<g id="node11" class="node">
<title>n18</title>
<ellipse fill="none" stroke="black" cx="5871.4" cy="-1194" rx="27" ry="18"/>
<text text-anchor="middle" x="5871.4" y="-1190.3" font-family="Times,serif" font-size="14.00">rhs</text>
</g>
<!-- n23 -->
<g id="node12" class="node">
<title>n23</title>
<ellipse fill="none" stroke="black" cx="1951.04" cy="-577" rx="31.4" ry="18"/>
<text text-anchor="middle" x="1951.04" y="-573.3" font-family="Times,serif" font-size="14.00">2.00</text>
</g>
<!-- n22 -->
<g id="node13" class="node">
<title>n22</title>
<ellipse fill="none" stroke="black" cx="2424.39" cy="-577" rx="27" ry="18"/>
<text text-anchor="middle" x="2424.39" y="-573.3" font-family="Times,serif" font-size="14.00">lhs</text>
</g>
<!-- n23&#45;&gt;n22 -->
<g id="edge6" class="edge">
<title>n23&#45;&gt;n22</title>
<path fill="none" stroke="black" d="M1982.84,-577C1982.84,-577 2385.44,-577 2385.44,-577"/>
<polygon fill="black" stroke="black" points="2385.44,-580.5 2395.44,-577 2385.44,-573.5 2385.44,-580.5"/>
</g>
<!-- n25 -->
<g id="node14" class="node">
<title>n25</title>
<ellipse fill="none" stroke="black" cx="2719.94" cy="-631" rx="41.69" ry="18"/>
<text text-anchor="middle" x="2719.94" y="-627.3" font-family="Times,serif" font-size="14.00">output</text>
</g>
<!-- n41 -->
<g id="node29" class="node">
<title>n41</title>
<ellipse fill="none" stroke="black" cx="4846.06" cy="-579" rx="30.59" ry="18"/>
<text text-anchor="middle" x="4846.06" y="-575.3" font-family="Times,serif" font-size="14.00">max</text>
</g>
<!-- n25&#45;&gt;n41 -->
<g id="edge44" class="edge">
<title>n25&#45;&gt;n41</title>
<path fill="none" stroke="black" d="M2754.85,-620.87C2754.85,-599.34 2754.85,-551 2754.85,-551 2754.85,-551 4846.85,-551 4846.85,-551 4846.85,-551 4846.85,-551.98 4846.85,-551.98"/>
<polygon fill="black" stroke="black" points="4843.35,-549.28 4846.85,-559.28 4850.35,-549.28 4843.35,-549.28"/>
<text text-anchor="middle" x="4011.53" y="-848.8" font-family="Times,serif" font-size="14.00">NORMAL_CONCURRENCY_LIMIT</text>
</g>
<!-- n34 -->
<g id="node35" class="node">
<title>n34</title>
<ellipse fill="none" stroke="black" cx="4268.63" cy="-631" rx="30.59" ry="18"/>
<text text-anchor="middle" x="4268.63" y="-627.3" font-family="Times,serif" font-size="14.00">max</text>
</g>
<!-- n25&#45;&gt;n34 -->
<g id="edge43" class="edge">
<title>n25&#45;&gt;n34</title>
<path fill="none" stroke="black" d="M2761.76,-631C2761.76,-631 4226.09,-631 4226.09,-631"/>
<polygon fill="black" stroke="black" points="4226.09,-634.5 4236.09,-631 4226.09,-627.5 4226.09,-634.5"/>
<text text-anchor="middle" x="3453.03" y="-634.8" font-family="Times,serif" font-size="14.00">NORMAL_CONCURRENCY_LIMIT</text>
</g>
<!-- n24 -->
<g id="node15" class="node">
<title>n24</title>
<ellipse fill="none" stroke="black" cx="2424.39" cy="-631" rx="27" ry="18"/>
<text text-anchor="middle" x="2424.39" y="-627.3" font-family="Times,serif" font-size="14.00">rhs</text>
</g>
<!-- n24&#45;&gt;n25 -->
<!-- n28 -->
<g id="node16" class="node">
<title>n28</title>
<ellipse fill="none" stroke="black" cx="2719.94" cy="-1019" rx="31.4" ry="18"/>
<text text-anchor="middle" x="2719.94" y="-1015.3" font-family="Times,serif" font-size="14.00">5.00</text>
</g>
<!-- n27 -->
<g id="node17" class="node">
<title>n27</title>
<ellipse fill="none" stroke="black" cx="3209.53" cy="-1019" rx="27" ry="18"/>
<text text-anchor="middle" x="3209.53" y="-1015.3" font-family="Times,serif" font-size="14.00">lhs</text>
</g>
<!-- n28&#45;&gt;n27 -->
<g id="edge8" class="edge">
<title>n28&#45;&gt;n27</title>
<path fill="none" stroke="black" d="M2751.68,-1019C2751.68,-1019 3170.65,-1019 3170.65,-1019"/>
<polygon fill="black" stroke="black" points="3170.65,-1022.5 3180.65,-1019 3170.65,-1015.5 3170.65,-1022.5"/>
</g>
<!-- n30 -->
<g id="node18" class="node">
<title>n30</title>
<ellipse fill="none" stroke="black" cx="3710.53" cy="-965" rx="41.69" ry="18"/>
<text text-anchor="middle" x="3710.53" y="-961.3" font-family="Times,serif" font-size="14.00">output</text>
</g>
<!-- n32 -->
<g id="node34" class="node">
<title>n32</title>
<ellipse fill="none" stroke="black" cx="4268.63" cy="-685" rx="35.19" ry="18"/>
<text text-anchor="middle" x="4268.63" y="-681.3" font-family="Times,serif" font-size="14.00">input</text>
</g>
<!-- n30&#45;&gt;n32 -->
<g id="edge34" class="edge">
<title>n30&#45;&gt;n32</title>
<path fill="none" stroke="black" d="M3742.96,-953.25C3862.12,-953.25 4268.85,-953.25 4268.85,-953.25 4268.85,-953.25 4268.85,-714.95 4268.85,-714.95"/>
<polygon fill="black" stroke="black" points="4272.35,-714.95 4268.85,-704.95 4265.35,-714.95 4272.35,-714.95"/>
<text text-anchor="middle" x="4011.53" y="-745.8" font-family="Times,serif" font-size="14.00">CONCURRENCY_INCREMENT_SINGLE_TICK</text>
</g>
<!-- n29 -->
<g id="node19" class="node">
<title>n29</title>
<ellipse fill="none" stroke="black" cx="3209.53" cy="-965" rx="27" ry="18"/>
<text text-anchor="middle" x="3209.53" y="-961.3" font-family="Times,serif" font-size="14.00">rhs</text>
</g>
<!-- n29&#45;&gt;n30 -->
<!-- n56 -->
<g id="node20" class="node">
<title>n56</title>
<ellipse fill="none" stroke="black" cx="2719.94" cy="-236" rx="27" ry="18"/>
<text text-anchor="middle" x="2719.94" y="-232.3" font-family="Times,serif" font-size="14.00">lhs</text>
</g>
<!-- n57 -->
<g id="node21" class="node">
<title>n57</title>
<ellipse fill="none" stroke="black" cx="3209.53" cy="-247" rx="41.69" ry="18"/>
<text text-anchor="middle" x="3209.53" y="-243.3" font-family="Times,serif" font-size="14.00">output</text>
</g>
<!-- n56&#45;&gt;n57 -->
<!-- n33 -->
<g id="node37" class="node">
<title>n33</title>
<ellipse fill="none" stroke="black" cx="4268.63" cy="-577" rx="34.39" ry="18"/>
<text text-anchor="middle" x="4268.63" y="-573.3" font-family="Times,serif" font-size="14.00">reset</text>
</g>
<!-- n57&#45;&gt;n33 -->
<g id="edge40" class="edge">
<title>n57&#45;&gt;n33</title>
<path fill="none" stroke="black" d="M3243.85,-257.61C3243.85,-314.09 3243.85,-577 3243.85,-577 3243.85,-577 4222.43,-577 4222.43,-577"/>
<polygon fill="black" stroke="black" points="4222.43,-580.5 4232.43,-577 4222.43,-573.5 4222.43,-580.5"/>
<text text-anchor="middle" x="3710.53" y="-548.8" font-family="Times,serif" font-size="14.00">IS_OVERLOAD</text>
</g>
<!-- n69 -->
<g id="node42" class="node">
<title>n69</title>
<ellipse fill="none" stroke="black" cx="3710.53" cy="-247" rx="38.19" ry="18"/>
<text text-anchor="middle" x="3710.53" y="-243.3" font-family="Times,serif" font-size="14.00">signal</text>
</g>
<!-- n57&#45;&gt;n69 -->
<g id="edge41" class="edge">
<title>n57&#45;&gt;n69</title>
<path fill="none" stroke="black" d="M3246.37,-238C3246.37,-238 3665.45,-238 3665.45,-238"/>
<polygon fill="black" stroke="black" points="3665.45,-241.5 3675.45,-238 3665.45,-234.5 3665.45,-241.5"/>
<text text-anchor="middle" x="3453.03" y="-250.8" font-family="Times,serif" font-size="14.00">IS_OVERLOAD</text>
</g>
<!-- n55 -->
<g id="node22" class="node">
<title>n55</title>
<ellipse fill="none" stroke="black" cx="2719.94" cy="-290" rx="27" ry="18"/>
<text text-anchor="middle" x="2719.94" y="-286.3" font-family="Times,serif" font-size="14.00">rhs</text>
</g>
<!-- n14 -->
<g id="node23" class="node">
<title>n14</title>
<ellipse fill="none" stroke="black" cx="798.43" cy="-454" rx="35.19" ry="18"/>
<text text-anchor="middle" x="798.43" y="-450.3" font-family="Times,serif" font-size="14.00">input</text>
</g>
<!-- n16 -->
<g id="node25" class="node">
<title>n16</title>
<ellipse fill="none" stroke="black" cx="1051.67" cy="-481" rx="41.69" ry="18"/>
<text text-anchor="middle" x="1051.67" y="-477.3" font-family="Times,serif" font-size="14.00">output</text>
</g>
<!-- n15&#45;&gt;n16 -->
<!-- n16&#45;&gt;n9 -->
<g id="edge42" class="edge">
<title>n16&#45;&gt;n9</title>
<path fill="none" stroke="black" d="M1088.85,-472.43C1088.85,-435.66 1088.85,-293 1088.85,-293 1088.85,-293 1397.15,-293 1397.15,-293"/>
<polygon fill="black" stroke="black" points="1397.15,-296.5 1407.15,-293 1397.15,-289.5 1397.15,-296.5"/>
<text text-anchor="middle" x="1206.77" y="-387.8" font-family="Times,serif" font-size="14.00">LATENCY_EMA</text>
</g>
<!-- n48 -->
<g id="node27" class="node">
<title>n48</title>
<ellipse fill="none" stroke="black" cx="6530.38" cy="-1140" rx="41.69" ry="18"/>
<text text-anchor="middle" x="6530.38" y="-1136.3" font-family="Times,serif" font-size="14.00">output</text>
</g>
<!-- n47&#45;&gt;n48 -->
<!-- n53 -->
<g id="node38" class="node">
<title>n53</title>
<ellipse fill="none" stroke="black" cx="7315.26" cy="-1140" rx="80.69" ry="18"/>
<text text-anchor="middle" x="7315.26" y="-1136.3" font-family="Times,serif" font-size="14.00">load_multiplier</text>
</g>
<!-- n48&#45;&gt;n53 -->
<g id="edge45" class="edge">
<title>n48&#45;&gt;n53</title>
<path fill="none" stroke="black" d="M6570.11,-1146C6570.11,-1146 7227.2,-1146 7227.2,-1146"/>
<polygon fill="black" stroke="black" points="7227.2,-1149.5 7237.2,-1146 7227.2,-1142.5 7227.2,-1149.5"/>
<text text-anchor="middle" x="6898.32" y="-1203.8" font-family="Times,serif" font-size="14.00">LOAD_MULTIPLIER</text>
</g>
<!-- n71 -->
<g id="node43" class="node">
<title>n71</title>
<ellipse fill="none" stroke="black" cx="6898.32" cy="-990" rx="38.19" ry="18"/>
<text text-anchor="middle" x="6898.32" y="-986.3" font-family="Times,serif" font-size="14.00">signal</text>
</g>
<!-- n48&#45;&gt;n71 -->
<g id="edge46" class="edge">
<title>n48&#45;&gt;n71</title>
<path fill="none" stroke="black" d="M6530.85,-1121.73C6530.85,-1084.74 6530.85,-1004.5 6530.85,-1004.5 6530.85,-1004.5 6862.98,-1004.5 6862.98,-1004.5"/>
<polygon fill="black" stroke="black" points="6862.98,-1008 6872.98,-1004.5 6862.98,-1001 6862.98,-1008"/>
<text text-anchor="middle" x="6700.97" y="-1083.8" font-family="Times,serif" font-size="14.00">LOAD_MULTIPLIER</text>
</g>
<!-- n42 -->
<g id="node28" class="node">
<title>n42</title>
<ellipse fill="none" stroke="black" cx="4846.06" cy="-525" rx="85.29" ry="18"/>
<text text-anchor="middle" x="4846.06" y="-521.3" font-family="Times,serif" font-size="14.00">control_variable</text>
</g>
<!-- n40 -->
<g id="node30" class="node">
<title>n40</title>
<ellipse fill="none" stroke="black" cx="4846.06" cy="-471" rx="50.89" ry="18"/>
<text text-anchor="middle" x="4846.06" y="-467.3" font-family="Times,serif" font-size="14.00">optimize</text>
</g>
<!-- n45 -->
<g id="node31" class="node">
<title>n45</title>
<ellipse fill="none" stroke="black" cx="5009.8" cy="-579" rx="41.69" ry="18"/>
<text text-anchor="middle" x="5009.8" y="-575.3" font-family="Times,serif" font-size="14.00">output</text>
</g>
<!-- n45&#45;&gt;n19 -->
<g id="edge38" class="edge">
<title>n45&#45;&gt;n19</title>
<path fill="none" stroke="black" d="M5051.81,-579C5225.81,-579 5880.85,-579 5880.85,-579 5880.85,-579 5880.85,-1111.39 5880.85,-1111.39"/>
<polygon fill="black" stroke="black" points="5877.35,-1111.39 5880.85,-1121.39 5884.35,-1111.39 5877.35,-1111.39"/>
<text text-anchor="middle" x="5441.4" y="-1039.8" font-family="Times,serif" font-size="14.00">DESIRED_CONCURRENCY</text>
</g>
<!-- n67 -->
<g id="node41" class="node">
<title>n67</title>
<ellipse fill="none" stroke="black" cx="5441.4" cy="-618" rx="38.19" ry="18"/>
<text text-anchor="middle" x="5441.4" y="-614.3" font-family="Times,serif" font-size="14.00">signal</text>
</g>
<!-- n45&#45;&gt;n67 -->
<g id="edge39" class="edge">
<title>n45&#45;&gt;n67</title>
<path fill="none" stroke="black" d="M5009.85,-597.24C5009.85,-604.43 5009.85,-611 5009.85,-611 5009.85,-611 5394.2,-611 5394.2,-611"/>
<polygon fill="black" stroke="black" points="5394.2,-614.5 5404.2,-611 5394.2,-607.5 5394.2,-614.5"/>
<text text-anchor="middle" x="5207.4" y="-608.8" font-family="Times,serif" font-size="14.00">DESIRED_CONCURRENCY</text>
</g>
<!-- n44 -->
<g id="node32" class="node">
<title>n44</title>
<ellipse fill="none" stroke="black" cx="4846.06" cy="-417" rx="48.99" ry="18"/>
<text text-anchor="middle" x="4846.06" y="-413.3" font-family="Times,serif" font-size="14.00">setpoint</text>
</g>
<!-- n44&#45;&gt;n45 -->
<!-- n43 -->
<g id="node33" class="node">
<title>n43</title>
<ellipse fill="none" stroke="black" cx="4846.06" cy="-363" rx="38.19" ry="18"/>
<text text-anchor="middle" x="4846.06" y="-359.3" font-family="Times,serif" font-size="14.00">signal</text>
</g>
<!-- n35 -->
<g id="node36" class="node">
<title>n35</title>
<ellipse fill="none" stroke="black" cx="4382.32" cy="-604" rx="41.69" ry="18"/>
<text text-anchor="middle" x="4382.32" y="-600.3" font-family="Times,serif" font-size="14.00">output</text>
</g>
<!-- n34&#45;&gt;n35 -->
<!-- n35&#45;&gt;n40 -->
<g id="edge36" class="edge">
<title>n35&#45;&gt;n40</title>
<path fill="none" stroke="black" d="M4382.85,-585.66C4382.85,-550.27 4382.85,-476 4382.85,-476 4382.85,-476 4785.41,-476 4785.41,-476"/>
<polygon fill="black" stroke="black" points="4785.41,-479.5 4795.41,-476 4785.41,-472.5 4785.41,-479.5"/>
<text text-anchor="middle" x="4592.42" y="-422.8" font-family="Times,serif" font-size="14.00">CONCURRENCY_INCREMENT</text>
</g>
<!-- n63 -->
<g id="node39" class="node">
<title>n63</title>
<ellipse fill="none" stroke="black" cx="1951.04" cy="-798" rx="38.19" ry="18"/>
<text text-anchor="middle" x="1951.04" y="-794.3" font-family="Times,serif" font-size="14.00">signal</text>
</g>
<!-- n63&#45;&gt;n24 -->
<g id="edge51" class="edge">
<title>n63&#45;&gt;n24</title>
<path fill="none" stroke="black" d="M1987.85,-792.64C1987.85,-764.71 1987.85,-637 1987.85,-637 1987.85,-637 2386.88,-637 2386.88,-637"/>
<polygon fill="black" stroke="black" points="2386.88,-640.5 2396.88,-637 2386.88,-633.5 2386.88,-640.5"/>
<text text-anchor="middle" x="2192.04" y="-723.8" font-family="Times,serif" font-size="14.00">ACCEPTED_CONCURRENCY</text>
</g>
<!-- n63&#45;&gt;n42 -->
<g id="edge53" class="edge">
<title>n63&#45;&gt;n42</title>
<path fill="none" stroke="black" d="M1984.85,-789.23C1984.85,-743.51 1984.85,-534.5 1984.85,-534.5 1984.85,-534.5 4760.94,-534.5 4760.94,-534.5"/>
<polygon fill="black" stroke="black" points="4760.94,-538 4770.94,-534.5 4760.94,-531 4760.94,-538"/>
<text text-anchor="middle" x="3453.03" y="-1181.8" font-family="Times,serif" font-size="14.00">ACCEPTED_CONCURRENCY</text>
</g>
<!-- n63&#45;&gt;n63 -->
<!-- n63&#45;&gt;n63 -->
<g id="edge54" class="edge">
<title>n63&#45;&gt;n63</title>
<path fill="none" stroke="black" d="M1914.57,-804C1838.49,-804 1669.85,-804 1669.85,-804 1669.85,-804 1669.85,-728.67 1669.85,-728.67 1669.85,-728.67 2307.85,-728.67 2307.85,-728.67 2307.85,-728.67 2307.85,-798 2307.85,-798 2307.85,-798 2001.08,-798 2001.08,-798"/>
<polygon fill="black" stroke="black" points="2001.08,-794.5 1991.08,-798 2001.08,-801.5 2001.08,-794.5"/>
</g>
<!-- n37 -->
<g id="node49" class="node">
<title>n37</title>
<ellipse fill="none" stroke="black" cx="2424.39" cy="-798" rx="35.19" ry="18"/>
<text text-anchor="middle" x="2424.39" y="-794.3" font-family="Times,serif" font-size="14.00">input</text>
</g>
<!-- n63&#45;&gt;n37 -->
<g id="edge52" class="edge">
<title>n63&#45;&gt;n37</title>
<path fill="none" stroke="black" d="M1984.71,-807C1984.71,-807 2381.88,-807 2381.88,-807"/>
<polygon fill="black" stroke="black" points="2381.88,-810.5 2391.88,-807 2381.88,-803.5 2381.88,-810.5"/>
<text text-anchor="middle" x="2192.04" y="-801.8" font-family="Times,serif" font-size="14.00">ACCEPTED_CONCURRENCY</text>
</g>
<!-- n65 -->
<g id="node40" class="node">
<title>n65</title>
<ellipse fill="none" stroke="black" cx="5441.4" cy="-1336" rx="38.19" ry="18"/>
<text text-anchor="middle" x="5441.4" y="-1332.3" font-family="Times,serif" font-size="14.00">signal</text>
</g>
<!-- n65&#45;&gt;n18 -->
<g id="edge47" class="edge">
<title>n65&#45;&gt;n18</title>
<path fill="none" stroke="black" d="M5475.17,-1327C5576.65,-1327 5871.85,-1327 5871.85,-1327 5871.85,-1327 5871.85,-1224.01 5871.85,-1224.01"/>
<polygon fill="black" stroke="black" points="5875.35,-1224.01 5871.85,-1214.01 5868.35,-1224.01 5875.35,-1224.01"/>
<text text-anchor="middle" x="5682.4" y="-1291.8" font-family="Times,serif" font-size="14.00">INCOMING_CONCURRENCY</text>
</g>
<!-- n65&#45;&gt;n65 -->
<!-- n65&#45;&gt;n65 -->
<g id="edge48" class="edge">
<title>n65&#45;&gt;n65</title>
<path fill="none" stroke="black" d="M5404.83,-1330C5352.6,-1330 5262.85,-1330 5262.85,-1330 5262.85,-1330 5262.85,-1378 5262.85,-1378 5262.85,-1378 5771.85,-1378 5771.85,-1378 5771.85,-1378 5771.85,-1336 5771.85,-1336 5771.85,-1336 5491.46,-1336 5491.46,-1336"/>
<polygon fill="black" stroke="black" points="5491.46,-1332.5 5481.46,-1336 5491.46,-1339.5 5491.46,-1332.5"/>
</g>
<!-- n67&#45;&gt;n19 -->
<g id="edge49" class="edge">
<title>n67&#45;&gt;n19</title>
<path fill="none" stroke="black" d="M5475.17,-609C5575.18,-609 5862.85,-609 5862.85,-609 5862.85,-609 5862.85,-1111.12 5862.85,-1111.12"/>
<polygon fill="black" stroke="black" points="5859.35,-1111.12 5862.85,-1121.12 5866.35,-1111.12 5859.35,-1111.12"/>
<text text-anchor="middle" x="5682.4" y="-815.8" font-family="Times,serif" font-size="14.00">DESIRED_CONCURRENCY</text>
</g>
<!-- n67&#45;&gt;n67 -->
<!-- n67&#45;&gt;n67 -->
<g id="edge50" class="edge">
<title>n67&#45;&gt;n67</title>
<path fill="none" stroke="black" d="M5407.5,-626.67C5325.26,-626.67 5121.85,-626.67 5121.85,-626.67 5121.85,-626.67 5121.85,-644.67 5121.85,-644.67 5121.85,-644.67 5625.85,-644.67 5625.85,-644.67 5625.85,-644.67 5625.85,-618 5625.85,-618 5625.85,-618 5491.58,-618 5491.58,-618"/>
<polygon fill="black" stroke="black" points="5491.58,-614.5 5481.58,-618 5491.58,-621.5 5491.58,-614.5"/>
</g>
<!-- n69&#45;&gt;n33 -->
<g id="edge55" class="edge">
<title>n69&#45;&gt;n33</title>
<path fill="none" stroke="black" d="M3744.2,-238C3864.91,-238 4268.85,-238 4268.85,-238 4268.85,-238 4268.85,-547.26 4268.85,-547.26"/>
<polygon fill="black" stroke="black" points="4265.35,-547.26 4268.85,-557.26 4272.35,-547.26 4265.35,-547.26"/>
<text text-anchor="middle" x="4011.53" y="-501.8" font-family="Times,serif" font-size="14.00">IS_OVERLOAD</text>
</g>
<!-- n69&#45;&gt;n69 -->
<!-- n69&#45;&gt;n69 -->
<g id="edge56" class="edge">
<title>n69&#45;&gt;n69</title>
<path fill="none" stroke="black" d="M3671.97,-247C3586.95,-247 3390.85,-247 3390.85,-247 3390.85,-247 3390.85,-268.5 3390.85,-268.5 3390.85,-268.5 4073.85,-268.5 4073.85,-268.5 4073.85,-268.5 4073.85,-247 4073.85,-247 4073.85,-247 3760.58,-247 3760.58,-247"/>
<polygon fill="black" stroke="black" points="3760.58,-243.5 3750.58,-247 3760.58,-250.5 3760.58,-243.5"/>
</g>
<!-- n71&#45;&gt;n53 -->
<g id="edge61" class="edge">
<title>n71&#45;&gt;n53</title>
<path fill="none" stroke="black" d="M6898.85,-1008.24C6898.85,-1046.99 6898.85,-1134 6898.85,-1134 6898.85,-1134 7227.37,-1134 7227.37,-1134"/>
<polygon fill="black" stroke="black" points="7227.37,-1137.5 7237.37,-1134 7227.37,-1130.5 7227.37,-1137.5"/>
<text text-anchor="middle" x="7096.67" y="-1083.8" font-family="Times,serif" font-size="14.00">LOAD_MULTIPLIER</text>
</g>
<!-- n71&#45;&gt;n71 -->
<!-- n71&#45;&gt;n71 -->
<g id="edge62" class="edge">
<title>n71&#45;&gt;n71</title>
<path fill="none" stroke="black" d="M6866.9,-979.33C6804.05,-979.33 6668.85,-979.33 6668.85,-979.33 6668.85,-979.33 6668.85,-959.5 6668.85,-959.5 6668.85,-959.5 7135.85,-959.5 7135.85,-959.5 7135.85,-959.5 7135.85,-996 7135.85,-996 7135.85,-996 6946.43,-996 6946.43,-996"/>
<polygon fill="black" stroke="black" points="6946.43,-992.5 6936.43,-996 6946.43,-999.5 6946.43,-992.5"/>
</g>
<!-- n61&#45;&gt;n55 -->
<g id="edge60" class="edge">
<title>n61&#45;&gt;n55</title>
<path fill="none" stroke="black" d="M2448.08,-275.5C2448.08,-275.5 2691.53,-275.5 2691.53,-275.5"/>
<polygon fill="black" stroke="black" points="2691.53,-279 2701.53,-275.5 2691.53,-272 2691.53,-279"/>
<text text-anchor="middle" x="2592.24" y="-285.8" font-family="Times,serif" font-size="14.00">SETPOINT</text>
</g>
<!-- n61&#45;&gt;n44 -->
<g id="edge59" class="edge">
<title>n61&#45;&gt;n44</title>
<path fill="none" stroke="black" d="M2457.56,-270.25C2744.94,-270.25 4802.85,-270.25 4802.85,-270.25 4802.85,-270.25 4802.85,-396.75 4802.85,-396.75"/>
<polygon fill="black" stroke="black" points="4799.35,-396.75 4802.85,-406.75 4806.35,-396.75 4799.35,-396.75"/>
<text text-anchor="middle" x="3710.53" y="-111.8" font-family="Times,serif" font-size="14.00">SETPOINT</text>
</g>
<!-- n61&#45;&gt;n61 -->
<!-- n59 -->
<g id="node45" class="node">
<title>n59</title>
<ellipse fill="none" stroke="black" cx="2424.39" cy="-76" rx="38.19" ry="18"/>
<text text-anchor="middle" x="2424.39" y="-72.3" font-family="Times,serif" font-size="14.00">signal</text>
</g>
<!-- n59&#45;&gt;n56 -->
<g id="edge58" class="edge">
<title>n59&#45;&gt;n56</title>
<path fill="none" stroke="black" d="M2462.84,-76C2543.06,-76 2720.85,-76 2720.85,-76 2720.85,-76 2720.85,-206.13 2720.85,-206.13"/>
<polygon fill="black" stroke="black" points="2717.35,-206.13 2720.85,-216.13 2724.35,-206.13 2717.35,-206.13"/>
<text text-anchor="middle" x="2592.24" y="-192.8" font-family="Times,serif" font-size="14.00">SIGNAL</text>
</g>
<!-- n59&#45;&gt;n43 -->
<g id="edge57" class="edge">
<title>n59&#45;&gt;n43</title>
<path fill="none" stroke="black" d="M2458.17,-67C2750.87,-67 4846.85,-67 4846.85,-67 4846.85,-67 4846.85,-333.42 4846.85,-333.42"/>
<polygon fill="black" stroke="black" points="4843.35,-333.42 4846.85,-343.42 4850.35,-333.42 4843.35,-333.42"/>
<text text-anchor="middle" x="3710.53" y="-60.8" font-family="Times,serif" font-size="14.00">SIGNAL</text>
</g>
<!-- n59&#45;&gt;n59 -->
<!-- n2 -->
<g id="node46" class="node">
<title>n2</title>
<ellipse fill="none" stroke="black" cx="99.6" cy="-287" rx="41.69" ry="18"/>
<text text-anchor="middle" x="99.6" y="-283.3" font-family="Times,serif" font-size="14.00">output</text>
</g>
<!-- n2&#45;&gt;n4 -->
<g id="edge29" class="edge">
<title>n2&#45;&gt;n4</title>
<path fill="none" stroke="black" d="M136.85,-295.51C136.85,-329.54 136.85,-454 136.85,-454 136.85,-454 275.36,-454 275.36,-454"/>
<polygon fill="black" stroke="black" points="275.36,-457.5 285.36,-454 275.36,-450.5 275.36,-457.5"/>
<text text-anchor="middle" x="234.19" y="-407.8" font-family="Times,serif" font-size="14.00">LATENCY</text>
</g>
<!-- n2&#45;&gt;n14 -->
<g id="edge30" class="edge">
<title>n2&#45;&gt;n14</title>
<path fill="none" stroke="black" d="M139.45,-281C287.7,-281 798.85,-281 798.85,-281 798.85,-281 798.85,-424.3 798.85,-424.3"/>
<polygon fill="black" stroke="black" points="795.35,-424.3 798.85,-434.3 802.35,-424.3 795.35,-424.3"/>
<text text-anchor="middle" x="394.19" y="-307.8" font-family="Times,serif" font-size="14.00">LATENCY</text>
</g>
<!-- n2&#45;&gt;n59 -->
<g id="edge31" class="edge">
<title>n2&#45;&gt;n59</title>
<path fill="none" stroke="black" d="M99.85,-268.81C99.85,-218.64 99.85,-82 99.85,-82 99.85,-82 2376.37,-82 2376.37,-82"/>
<polygon fill="black" stroke="black" points="2376.37,-85.5 2386.37,-82 2376.37,-78.5 2376.37,-85.5"/>
<text text-anchor="middle" x="927.47" y="-99.8" font-family="Times,serif" font-size="14.00">LATENCY</text>
</g>
<!-- n51 -->
<g id="node47" class="node">
<title>n51</title>
<ellipse fill="none" stroke="black" cx="1434.66" cy="-955" rx="113.98" ry="18"/>
<text text-anchor="middle" x="1434.66" y="-951.3" font-family="Times,serif" font-size="14.00">accepted_concurrency</text>
</g>
<!-- n51&#45;&gt;n24 -->
<g id="edge23" class="edge">
<title>n51&#45;&gt;n24</title>
<path fill="none" stroke="black" d="M1505.85,-940.82C1505.85,-877.66 1505.85,-625 1505.85,-625 1505.85,-625 2386.87,-625 2386.87,-625"/>
<polygon fill="black" stroke="black" points="2386.87,-628.5 2396.87,-625 2386.87,-621.5 2386.87,-628.5"/>
<text text-anchor="middle" x="1951.04" y="-651.8" font-family="Times,serif" font-size="14.00">ACCEPTED_CONCURRENCY</text>
</g>
<!-- n51&#45;&gt;n42 -->
<g id="edge25" class="edge">
<title>n51&#45;&gt;n42</title>
<path fill="none" stroke="black" d="M1528.75,-944.5C2072.54,-944.5 4788.85,-944.5 4788.85,-944.5 4788.85,-944.5 4788.85,-550 4788.85,-550"/>
<polygon fill="black" stroke="black" points="4792.35,-550 4788.85,-540 4785.35,-550 4792.35,-550"/>
<text text-anchor="middle" x="3209.53" y="-452.8" font-family="Times,serif" font-size="14.00">ACCEPTED_CONCURRENCY</text>
</g>
<!-- n51&#45;&gt;n63 -->
<g id="edge26" class="edge">
<title>n51&#45;&gt;n63</title>
<path fill="none" stroke="black" d="M1497.04,-939.5C1634.6,-939.5 1951.85,-939.5 1951.85,-939.5 1951.85,-939.5 1951.85,-827.72 1951.85,-827.72"/>
<polygon fill="black" stroke="black" points="1955.35,-827.72 1951.85,-817.72 1948.35,-827.72 1955.35,-827.72"/>
<text text-anchor="middle" x="1711.04" y="-853.8" font-family="Times,serif" font-size="14.00">ACCEPTED_CONCURRENCY</text>
</g>
<!-- n51&#45;&gt;n37 -->
<g id="edge24" class="edge">
<title>n51&#45;&gt;n37</title>
<path fill="none" stroke="black" d="M1515.69,-942C1752.18,-942 2424.85,-942 2424.85,-942 2424.85,-942 2424.85,-827.75 2424.85,-827.75"/>
<polygon fill="black" stroke="black" points="2428.35,-827.75 2424.85,-817.75 2421.35,-827.75 2428.35,-827.75"/>
<text text-anchor="middle" x="1951.04" y="-1011.8" font-family="Times,serif" font-size="14.00">ACCEPTED_CONCURRENCY</text>
</g>
<!-- n50 -->
<g id="node48" class="node">
<title>n50</title>
<ellipse fill="none" stroke="black" cx="1434.66" cy="-1009" rx="114.28" ry="18"/>
<text text-anchor="middle" x="1434.66" y="-1005.3" font-family="Times,serif" font-size="14.00">incoming_concurrency</text>
</g>
<!-- n50&#45;&gt;n18 -->
<g id="edge27" class="edge">
<title>n50&#45;&gt;n18</title>
<path fill="none" stroke="black" d="M1434.85,-1027.41C1434.85,-1074.21 1434.85,-1194 1434.85,-1194 1434.85,-1194 5832.42,-1194 5832.42,-1194"/>
<polygon fill="black" stroke="black" points="5832.42,-1197.5 5842.42,-1194 5832.42,-1190.5 5832.42,-1197.5"/>
<text text-anchor="middle" x="4011.53" y="-1211.8" font-family="Times,serif" font-size="14.00">INCOMING_CONCURRENCY</text>
</g>
<!-- n50&#45;&gt;n65 -->
<g id="edge28" class="edge">
<title>n50&#45;&gt;n65</title>
<path fill="none" stroke="black" d="M1516.06,-996C2084.85,-996 5441.85,-996 5441.85,-996 5441.85,-996 5441.85,-1306.21 5441.85,-1306.21"/>
<polygon fill="black" stroke="black" points="5438.35,-1306.21 5441.85,-1316.21 5445.35,-1306.21 5438.35,-1306.21"/>
<text text-anchor="middle" x="3710.53" y="-1298.8" font-family="Times,serif" font-size="14.00">INCOMING_CONCURRENCY</text>
</g>
<!-- n38 -->
<g id="node50" class="node">
<title>n38</title>
<ellipse fill="none" stroke="black" cx="2719.94" cy="-798" rx="41.69" ry="18"/>
<text text-anchor="middle" x="2719.94" y="-794.3" font-family="Times,serif" font-size="14.00">output</text>
</g>
<!-- n37&#45;&gt;n38 -->
<!-- n38&#45;&gt;n29 -->
<g id="edge37" class="edge">
<title>n38&#45;&gt;n29</title>
<path fill="none" stroke="black" d="M2756.85,-806.71C2756.85,-840.36 2756.85,-960 2756.85,-960 2756.85,-960 3171.72,-960 3171.72,-960"/>
<polygon fill="black" stroke="black" points="3171.72,-963.5 3181.72,-960 3171.72,-956.5 3171.72,-963.5"/>
<text text-anchor="middle" x="2953.53" y="-920.8" font-family="Times,serif" font-size="14.00">SQRT_CONCURRENCY_INCREMENT</text>
</g>
</g>
</svg>
