<?xml version="1.0" encoding="UTF-8"?>
<svg id="b" data-name="Warstwa 1" xmlns="http://www.w3.org/2000/svg" viewBox="0 0 750 500">
  <defs>
    <style>
      .c {
        fill: #fff;
      }

      .d {
        fill: #f27a40;
      }

      .e {
        stroke-miterlimit: 10;
      }

      .e, .f {
        stroke: #c2c2c2;
      }

      .e, .f, .g {
        stroke-width: .72px;
      }

      .e, .f, .g, .h {
        fill: none;
      }

      .i {
        fill: #8ec4ad;
      }

      .g {
        stroke: #bfded1;
      }

      .j {
        fill: #c2c2c2;
      }

      .k {
        fill: #009438;
      }

      .l {
        fill: #f2f2f2;
      }

      .m {
        fill: #fefefe;
      }
    </style>
  </defs>
  <path class="c" d="m94.45,39.12h624.07c.28,0,.56.03.84.08.28.06.55.14.81.25.26.11.51.24.75.4.24.16.45.34.65.54.2.2.38.42.54.65.16.24.29.48.4.75.11.26.19.53.25.81.06.28.08.56.08.84v422.76c0,.28-.03.56-.08.84-.06.28-.14.55-.25.81s-.24.51-.4.75c-.16.24-.34.45-.54.65s-.42.38-.65.54-.48.29-.75.4c-.26.11-.53.19-.81.25-.28.06-.56.08-.84.08H94.45c-.28,0-.56-.03-.84-.08-.28-.06-.55-.14-.81-.25-.26-.11-.51-.24-.75-.4-.24-.16-.45-.34-.65-.54-.2-.2-.38-.42-.54-.65-.16-.24-.29-.48-.4-.75-.11-.26-.19-.53-.25-.81-.06-.28-.08-.56-.08-.84V43.43c0-.28.03-.56.08-.84.06-.28.14-.55.25-.81.11-.26.24-.51.4-.75.16-.24.34-.45.54-.65.2-.2.42-.38.65-.54.24-.16.48-.29.75-.4.26-.11.53-.19.81-.25.28-.06.56-.08.84-.08Z"/>
  <path class="f" d="m94.45,39.12h624.07c.28,0,.56.03.84.08.28.06.55.14.81.25.26.11.51.24.75.4.24.16.45.34.65.54.2.2.38.42.54.65.16.24.29.48.4.75.11.26.19.53.25.81.06.28.08.56.08.84v422.76c0,.28-.03.56-.08.84-.06.28-.14.55-.25.81s-.24.51-.4.75c-.16.24-.34.45-.54.65s-.42.38-.65.54-.48.29-.75.4c-.26.11-.53.19-.81.25-.28.06-.56.08-.84.08H94.45c-.28,0-.56-.03-.84-.08-.28-.06-.55-.14-.81-.25-.26-.11-.51-.24-.75-.4-.24-.16-.45-.34-.65-.54-.2-.2-.38-.42-.54-.65-.16-.24-.29-.48-.4-.75-.11-.26-.19-.53-.25-.81-.06-.28-.08-.56-.08-.84V43.43c0-.28.03-.56.08-.84.06-.28.14-.55.25-.81.11-.26.24-.51.4-.75.16-.24.34-.45.54-.65.2-.2.42-.38.65-.54.24-.16.48-.29.75-.4.26-.11.53-.19.81-.25.28-.06.56-.08.84-.08Z"/>
  <g>
    <path d="m393.75,56.91l.77-.07c.04.31.12.56.25.76.13.2.34.36.62.48s.6.18.95.18c.31,0,.59-.05.83-.14s.42-.22.53-.38c.12-.16.17-.34.17-.53s-.06-.36-.17-.51c-.11-.15-.3-.27-.56-.36-.17-.06-.53-.17-1.1-.3s-.96-.26-1.19-.39c-.29-.15-.51-.35-.66-.58-.14-.23-.22-.48-.22-.77,0-.31.09-.6.27-.87.18-.27.44-.48.78-.62.34-.14.72-.21,1.13-.21.46,0,.86.07,1.21.22s.62.36.81.65c.19.29.29.61.3.97l-.78.06c-.04-.39-.18-.69-.43-.88-.24-.2-.6-.3-1.08-.3s-.85.09-1.08.27-.34.4-.34.66c0,.22.08.4.24.55.16.14.57.29,1.23.44.66.15,1.12.28,1.37.39.36.17.62.38.8.63.17.25.26.55.26.88s-.09.64-.28.93c-.19.29-.46.52-.81.68-.35.16-.75.24-1.19.24-.56,0-1.03-.08-1.4-.24-.38-.16-.67-.41-.89-.73s-.33-.7-.34-1.11Z"/>
    <path d="m402.75,57.45l.78.1c-.12.46-.35.81-.69,1.07-.33.25-.76.38-1.28.38-.65,0-1.17-.2-1.56-.6s-.58-.97-.58-1.7.19-1.34.58-1.75c.39-.42.89-.62,1.51-.62s1.09.2,1.47.61c.38.41.57.98.57,1.72,0,.05,0,.11,0,.2h-3.34c.03.49.17.87.42,1.13s.56.39.94.39c.28,0,.52-.07.71-.22.2-.15.35-.38.47-.7Zm-2.49-1.23h2.5c-.03-.38-.13-.66-.29-.85-.24-.29-.55-.44-.94-.44-.35,0-.64.12-.88.35-.24.23-.37.54-.39.94Z"/>
    <path d="m404.48,58.89v-4.47h.68v.68c.17-.32.33-.53.48-.63s.31-.15.49-.15c.26,0,.52.08.78.24l-.26.7c-.19-.11-.37-.16-.56-.16-.17,0-.31.05-.45.15-.13.1-.23.24-.28.42-.08.27-.13.56-.13.88v2.34h-.76Z"/>
    <path d="m408.6,58.89l-1.7-4.47h.8l.96,2.68c.1.29.2.59.29.9.07-.24.16-.52.28-.85l.99-2.73h.78l-1.69,4.47h-.71Z"/>
    <path d="m414.74,57.45l.78.1c-.12.46-.35.81-.69,1.07-.33.25-.76.38-1.28.38-.65,0-1.17-.2-1.56-.6s-.58-.97-.58-1.7.19-1.34.58-1.75c.39-.42.89-.62,1.51-.62s1.09.2,1.47.61c.38.41.57.98.57,1.72,0,.05,0,.11,0,.2h-3.34c.03.49.17.87.42,1.13s.56.39.94.39c.28,0,.52-.07.71-.22.2-.15.35-.38.47-.7Zm-2.49-1.23h2.5c-.03-.38-.13-.66-.29-.85-.24-.29-.55-.44-.94-.44-.35,0-.64.12-.88.35-.24.23-.37.54-.39.94Z"/>
    <path d="m416.46,58.89v-4.47h.68v.68c.17-.32.33-.53.48-.63s.31-.15.49-.15c.26,0,.52.08.78.24l-.26.7c-.19-.11-.37-.16-.56-.16-.17,0-.31.05-.45.15-.13.1-.23.24-.28.42-.08.27-.13.56-.13.88v2.34h-.76Z"/>
  </g>
  <path class="l" d="m172.76,89.45h189.81c.85,0,1.69.08,2.52.25.83.17,1.64.41,2.43.74.79.33,1.53.72,2.24,1.2.71.47,1.36,1.01,1.96,1.61.6.6,1.14,1.25,1.61,1.96.47.71.87,1.45,1.2,2.24s.57,1.59.74,2.43c.17.83.25,1.68.25,2.52v189.81c0,.85-.08,1.69-.25,2.52-.17.83-.41,1.64-.74,2.43-.33.79-.72,1.53-1.2,2.24-.47.71-1.01,1.36-1.61,1.96-.6.6-1.25,1.14-1.96,1.61-.71.47-1.45.87-2.24,1.2-.79.33-1.59.57-2.43.74-.83.17-1.68.25-2.52.25h-189.81c-.85,0-1.69-.08-2.52-.25-.83-.17-1.64-.41-2.43-.74-.79-.33-1.53-.72-2.24-1.2-.71-.47-1.36-1.01-1.96-1.61-.6-.6-1.14-1.25-1.61-1.96-.47-.71-.87-1.45-1.2-2.24-.33-.79-.57-1.59-.74-2.43-.17-.83-.25-1.68-.25-2.52V102.39c0-.85.08-1.69.25-2.52.17-.83.41-1.64.74-2.43s.72-1.53,1.2-2.24c.47-.71,1.01-1.36,1.61-1.96.6-.6,1.25-1.14,1.96-1.61.71-.47,1.45-.87,2.24-1.2.79-.33,1.59-.57,2.43-.74.83-.17,1.68-.25,2.52-.25Z"/>
  <path class="f" d="m172.76,89.45h189.81c.85,0,1.69.08,2.52.25.83.17,1.64.41,2.43.74.79.33,1.53.72,2.24,1.2.71.47,1.36,1.01,1.96,1.61.6.6,1.14,1.25,1.61,1.96.47.71.87,1.45,1.2,2.24s.57,1.59.74,2.43c.17.83.25,1.68.25,2.52v189.81c0,.85-.08,1.69-.25,2.52-.17.83-.41,1.64-.74,2.43-.33.79-.72,1.53-1.2,2.24-.47.71-1.01,1.36-1.61,1.96-.6.6-1.25,1.14-1.96,1.61-.71.47-1.45.87-2.24,1.2-.79.33-1.59.57-2.43.74-.83.17-1.68.25-2.52.25h-189.81c-.85,0-1.69-.08-2.52-.25-.83-.17-1.64-.41-2.43-.74-.79-.33-1.53-.72-2.24-1.2-.71-.47-1.36-1.01-1.96-1.61-.6-.6-1.14-1.25-1.61-1.96-.47-.71-.87-1.45-1.2-2.24-.33-.79-.57-1.59-.74-2.43-.17-.83-.25-1.68-.25-2.52V102.39c0-.85.08-1.69.25-2.52.17-.83.41-1.64.74-2.43s.72-1.53,1.2-2.24c.47-.71,1.01-1.36,1.61-1.96.6-.6,1.25-1.14,1.96-1.61.71-.47,1.45-.87,2.24-1.2.79-.33,1.59-.57,2.43-.74.83-.17,1.68-.25,2.52-.25Z"/>
  <path class="c" d="m182.97,197.29h162.2c.34,0,.68.03,1.01.1.33.07.66.16.97.29.31.13.61.29.89.48s.54.4.78.64c.24.24.45.5.64.78s.35.58.48.9c.13.31.23.64.29.97.07.33.1.67.1,1.01v75.92c0,.34-.03.68-.1,1.01-.07.33-.16.66-.29.97-.13.31-.29.61-.48.9s-.4.54-.64.78c-.24.24-.5.45-.78.64s-.58.35-.89.48c-.31.13-.64.23-.97.29-.33.07-.67.1-1.01.1h-162.2c-.34,0-.68-.03-1.01-.1-.33-.07-.66-.16-.97-.29-.31-.13-.61-.29-.89-.48-.28-.19-.54-.4-.78-.64-.24-.24-.45-.5-.64-.78-.19-.28-.35-.58-.48-.9-.13-.31-.23-.64-.29-.97-.07-.33-.1-.67-.1-1.01v-75.92c0-.34.03-.68.1-1.01.07-.33.16-.66.29-.97.13-.31.29-.61.48-.9s.4-.54.64-.78c.24-.24.5-.45.78-.64.28-.19.58-.35.89-.48.31-.13.64-.23.97-.29s.67-.1,1.01-.1Z"/>
  <path class="f" d="m182.97,197.29h162.2c.34,0,.68.03,1.01.1.33.07.66.16.97.29.31.13.61.29.89.48s.54.4.78.64c.24.24.45.5.64.78s.35.58.48.9c.13.31.23.64.29.97.07.33.1.67.1,1.01v75.92c0,.34-.03.68-.1,1.01-.07.33-.16.66-.29.97-.13.31-.29.61-.48.9s-.4.54-.64.78c-.24.24-.5.45-.78.64s-.58.35-.89.48c-.31.13-.64.23-.97.29-.33.07-.67.1-1.01.1h-162.2c-.34,0-.68-.03-1.01-.1-.33-.07-.66-.16-.97-.29-.31-.13-.61-.29-.89-.48-.28-.19-.54-.4-.78-.64-.24-.24-.45-.5-.64-.78-.19-.28-.35-.58-.48-.9-.13-.31-.23-.64-.29-.97-.07-.33-.1-.67-.1-1.01v-75.92c0-.34.03-.68.1-1.01.07-.33.16-.66.29-.97.13-.31.29-.61.48-.9s.4-.54.64-.78c.24-.24.5-.45.78-.64.28-.19.58-.35.89-.48.31-.13.64-.23.97-.29s.67-.1,1.01-.1Z"/>
  <g>
    <path d="m252.38,242.95v-6.18h2.33c.41,0,.72.02.94.06.3.05.56.15.76.29.21.14.37.34.5.6.12.26.19.54.19.84,0,.53-.17.97-.5,1.33-.33.36-.94.55-1.81.55h-1.58v2.51h-.82Zm.82-3.24h1.6c.53,0,.9-.1,1.12-.29.22-.2.33-.47.33-.83,0-.26-.07-.48-.2-.66-.13-.18-.3-.31-.52-.36-.14-.04-.39-.06-.76-.06h-1.58v2.21Z"/>
    <path d="m258.02,242.95v-6.18h.76v6.18h-.76Z"/>
    <path d="m262.89,242.95v-.66c-.35.51-.82.76-1.42.76-.26,0-.51-.05-.74-.15-.23-.1-.4-.23-.51-.38-.11-.15-.19-.34-.23-.56-.03-.15-.05-.38-.05-.71v-2.77h.76v2.48c0,.4.02.66.05.8.05.2.15.36.3.47.15.11.35.17.57.17s.44-.06.64-.17c.2-.12.34-.28.42-.48s.12-.49.12-.87v-2.4h.76v4.47h-.68Z"/>
    <path d="m264.62,243.32l.74.11c.03.23.12.39.26.5.19.14.45.21.77.21.35,0,.62-.07.81-.21.19-.14.32-.34.39-.59.04-.15.06-.48.05-.97-.33.39-.74.59-1.24.59-.62,0-1.09-.22-1.43-.67s-.51-.98-.51-1.6c0-.43.08-.82.23-1.18s.38-.64.67-.84c.29-.2.64-.29,1.03-.29.53,0,.96.21,1.31.64v-.54h.7v3.87c0,.7-.07,1.19-.21,1.48-.14.29-.37.52-.67.69s-.69.25-1.14.25c-.53,0-.96-.12-1.29-.36s-.49-.6-.48-1.08Zm.63-2.69c0,.59.12,1.02.35,1.28.23.27.52.4.88.4s.64-.13.88-.4c.24-.27.35-.69.35-1.26s-.12-.96-.36-1.24c-.24-.28-.54-.42-.88-.42s-.62.14-.86.41-.35.68-.35,1.22Z"/>
    <path d="m269.56,237.65v-.87h.76v.87h-.76Zm0,5.3v-4.47h.76v4.47h-.76Z"/>
    <path d="m271.47,242.95v-4.47h.68v.64c.33-.49.8-.74,1.42-.74.27,0,.52.05.74.15s.4.22.51.38.19.34.24.56c.03.14.04.39.04.74v2.75h-.76v-2.72c0-.31-.03-.54-.09-.69-.06-.15-.16-.27-.31-.37-.15-.09-.33-.14-.53-.14-.32,0-.6.1-.84.31s-.35.59-.35,1.17v2.44h-.76Z"/>
  </g>
  <line class="e" x1="485.57" y1="251.22" x2="380.09" y2="251.22"/>
  <polygon class="j" points="376.32 251.22 381.35 248.7 380.09 251.22 381.35 253.73 376.32 251.22"/>
  <polygon class="e" points="376.32 251.22 381.35 248.7 380.09 251.22 381.35 253.73 376.32 251.22"/>
  <rect class="c" x="408.23" y="246.54" width="43.86" height="9.35"/>
  <g>
    <path d="m411.89,249.46l-.69.05c-.06-.27-.15-.47-.26-.59-.19-.2-.42-.3-.7-.3-.22,0-.42.06-.58.19-.22.16-.39.39-.52.7s-.19.74-.2,1.31c.17-.25.37-.44.61-.57.24-.12.5-.19.76-.19.46,0,.86.17,1.18.51.33.34.49.78.49,1.32,0,.36-.08.69-.23.99s-.36.54-.63.7c-.27.16-.57.24-.91.24-.58,0-1.05-.21-1.42-.64s-.55-1.13-.55-2.11c0-1.09.2-1.89.61-2.39.35-.43.83-.65,1.42-.65.45,0,.81.12,1.09.38.28.25.46.59.51,1.03Zm-2.84,2.44c0,.24.05.47.15.69.1.22.24.39.43.5.18.11.38.17.58.17.29,0,.55-.12.76-.35.21-.24.32-.56.32-.97s-.1-.7-.31-.92c-.21-.23-.47-.34-.79-.34s-.58.11-.8.34c-.22.23-.33.52-.33.89Z"/>
    <path d="m413.07,253.73v-.79h.79v.79h-.79Z"/>
    <path d="m417.37,253.73v-5.66h2.51c.5,0,.89.05,1.15.15.26.1.47.28.63.54.16.26.24.54.24.85,0,.4-.13.74-.39,1.02-.26.28-.66.45-1.21.53.2.1.35.19.45.28.22.2.43.45.62.75l.98,1.54h-.94l-.75-1.18c-.22-.34-.4-.6-.54-.78s-.27-.31-.38-.38c-.11-.07-.23-.12-.34-.15-.08-.02-.22-.03-.42-.03h-.87v2.51h-.75Zm.75-3.16h1.61c.34,0,.61-.04.8-.11.19-.07.34-.18.44-.34s.15-.32.15-.51c0-.27-.1-.49-.29-.66s-.5-.26-.92-.26h-1.79v1.87Z"/>
    <path d="m425.79,252.41l.72.09c-.11.42-.32.75-.63.98-.31.23-.7.35-1.17.35-.6,0-1.08-.18-1.43-.55-.35-.37-.53-.89-.53-1.55s.18-1.23.53-1.61c.35-.38.82-.57,1.38-.57s1,.19,1.34.56c.35.37.52.9.52,1.58,0,.04,0,.1,0,.19h-3.06c.03.45.15.8.38,1.04.23.24.52.36.86.36.25,0,.47-.07.65-.2s.32-.35.43-.64Zm-2.28-1.12h2.29c-.03-.35-.12-.6-.26-.78-.22-.27-.51-.4-.86-.4-.32,0-.59.11-.81.32-.22.21-.34.5-.36.86Z"/>
    <path d="m427.1,252.51l.69-.11c.04.28.15.49.32.63.18.15.42.22.74.22s.56-.06.71-.19.23-.28.23-.46c0-.16-.07-.28-.21-.37-.1-.06-.33-.14-.71-.24-.51-.13-.86-.24-1.06-.33-.2-.09-.35-.22-.45-.39s-.15-.35-.15-.55c0-.18.04-.35.13-.51.08-.16.2-.29.34-.39.11-.08.26-.15.44-.2.19-.06.39-.08.6-.08.32,0,.6.05.85.14s.42.22.54.38.2.37.24.64l-.68.09c-.03-.21-.12-.38-.27-.49-.15-.12-.36-.18-.63-.18-.32,0-.55.05-.68.16-.14.11-.2.23-.2.37,0,.09.03.17.08.24.06.07.15.14.27.19.07.03.27.08.61.18.49.13.83.24,1.03.32.19.08.35.21.46.37.11.16.17.36.17.59s-.07.45-.2.65c-.14.2-.33.36-.59.48-.25.11-.54.17-.86.17-.53,0-.94-.11-1.22-.33-.28-.22-.46-.55-.54-.98Z"/>
    <path d="m431.34,255.31v-5.67h.63v.53c.15-.21.32-.36.51-.47.19-.1.42-.16.68-.16.35,0,.66.09.93.27.27.18.47.43.61.76.14.33.21.69.21,1.08,0,.42-.08.8-.23,1.13-.15.34-.37.59-.66.77-.29.18-.59.27-.91.27-.23,0-.44-.05-.62-.15-.18-.1-.34-.22-.45-.37v2h-.69Zm.63-3.6c0,.53.11.92.32,1.17.21.25.47.38.78.38s.57-.13.79-.39.33-.67.33-1.21-.11-.91-.32-1.17c-.21-.26-.47-.39-.77-.39s-.56.14-.79.42c-.23.28-.34.68-.34,1.21Z"/>
    <path d="m435.48,251.68c0-.76.21-1.32.63-1.69.35-.3.78-.46,1.29-.46.56,0,1.02.19,1.38.55.36.37.54.88.54,1.53,0,.53-.08.94-.24,1.25-.16.3-.39.54-.69.71-.3.17-.63.25-.99.25-.57,0-1.04-.18-1.39-.55s-.53-.9-.53-1.59Zm.71,0c0,.53.11.92.34,1.18.23.26.52.39.86.39s.63-.13.86-.39c.23-.26.34-.66.34-1.2,0-.51-.12-.89-.35-1.15s-.52-.39-.86-.39-.64.13-.86.39c-.23.26-.34.65-.34,1.18Z"/>
    <path d="m440.13,253.73v-4.1h.63v.58c.3-.45.74-.68,1.31-.68.25,0,.47.04.68.13.21.09.36.21.47.35s.17.32.22.51c.03.13.04.35.04.68v2.52h-.7v-2.49c0-.28-.03-.5-.08-.64-.05-.14-.15-.25-.29-.34s-.3-.13-.48-.13c-.3,0-.55.09-.77.28-.22.19-.32.54-.32,1.07v2.24h-.69Z"/>
    <path d="m444.25,252.51l.69-.11c.04.28.15.49.32.63.18.15.42.22.74.22s.56-.06.71-.19.23-.28.23-.46c0-.16-.07-.28-.21-.37-.1-.06-.33-.14-.71-.24-.51-.13-.86-.24-1.06-.33-.2-.09-.35-.22-.45-.39s-.15-.35-.15-.55c0-.18.04-.35.13-.51.08-.16.2-.29.34-.39.11-.08.26-.15.44-.2.19-.06.39-.08.6-.08.32,0,.6.05.85.14s.42.22.54.38.2.37.24.64l-.68.09c-.03-.21-.12-.38-.27-.49-.15-.12-.36-.18-.63-.18-.32,0-.55.05-.68.16-.14.11-.2.23-.2.37,0,.09.03.17.08.24.06.07.15.14.27.19.07.03.27.08.61.18.49.13.83.24,1.03.32.19.08.35.21.46.37.11.16.17.36.17.59s-.07.45-.2.65c-.14.2-.33.36-.59.48-.25.11-.54.17-.86.17-.53,0-.94-.11-1.22-.33-.28-.22-.46-.55-.54-.98Z"/>
    <path d="m451.29,252.41l.72.09c-.11.42-.32.75-.63.98-.31.23-.7.35-1.17.35-.6,0-1.08-.18-1.43-.55-.35-.37-.53-.89-.53-1.55s.18-1.23.53-1.61c.35-.38.82-.57,1.38-.57s1,.19,1.34.56c.35.37.52.9.52,1.58,0,.04,0,.1,0,.19h-3.06c.03.45.15.8.38,1.04.23.24.52.36.86.36.25,0,.47-.07.65-.2s.32-.35.43-.64Zm-2.28-1.12h2.29c-.03-.35-.12-.6-.26-.78-.22-.27-.51-.4-.86-.4-.32,0-.59.11-.81.32-.22.21-.34.5-.36.86Z"/>
  </g>
  <line class="e" x1="220.93" y1="283.57" x2="220.93" y2="350.89"/>
  <polygon class="j" points="220.93 354.66 218.42 349.63 220.93 350.89 223.45 349.63 220.93 354.66"/>
  <polygon class="e" points="220.93 354.66 218.42 349.63 220.93 350.89 223.45 349.63 220.93 354.66"/>
  <rect class="c" x="192.54" y="314.85" width="56.8" height="9.35"/>
  <g>
    <path d="m196.35,321.37v.67h-3.74c0-.17.02-.33.08-.48.1-.25.25-.51.46-.75.21-.25.51-.53.91-.86.62-.5,1.03-.9,1.25-1.2s.32-.57.32-.84c0-.28-.1-.51-.3-.7-.2-.19-.45-.28-.77-.28-.33,0-.6.1-.8.3-.2.2-.3.48-.31.83l-.71-.07c.05-.53.23-.94.55-1.22.32-.28.75-.42,1.29-.42s.97.15,1.29.45c.32.3.48.67.48,1.12,0,.23-.05.45-.14.67-.09.22-.25.45-.46.69-.21.24-.57.57-1.07,1-.42.35-.69.59-.8.71-.12.12-.22.25-.29.38h2.78Z"/>
    <path d="m197.48,322.04v-.79h.79v.79h-.79Z"/>
    <path d="m201.81,322.04v-5.66h3.82v.67h-3.07v1.75h2.66v.67h-2.66v2.57h-.75Z"/>
    <path d="m206.5,322.04v-5.66h.7v5.66h-.7Z"/>
    <path d="m208.01,319.99c0-.76.21-1.32.63-1.69.35-.3.78-.46,1.29-.46.56,0,1.02.19,1.38.55.36.37.54.88.54,1.53,0,.53-.08.94-.24,1.25-.16.3-.39.54-.69.71-.3.17-.63.25-.99.25-.57,0-1.04-.18-1.39-.55s-.53-.9-.53-1.59Zm.71,0c0,.53.11.92.34,1.18.23.26.52.39.86.39s.63-.13.86-.39c.23-.26.34-.66.34-1.2,0-.51-.12-.89-.35-1.15s-.52-.39-.86-.39-.64.13-.86.39c-.23.26-.34.65-.34,1.18Z"/>
    <path d="m213.42,322.04l-1.26-4.1h.72l.65,2.37.24.88s.08-.33.21-.85l.65-2.4h.71l.61,2.38.21.78.24-.79.7-2.37h.68l-1.28,4.1h-.72l-.65-2.46-.16-.7-.83,3.15h-.73Z"/>
    <path d="m220.68,322.04v-5.66h2.51c.5,0,.89.05,1.15.15.26.1.47.28.63.54.16.26.24.54.24.85,0,.4-.13.74-.39,1.02-.26.28-.66.45-1.21.53.2.1.35.19.45.28.22.2.43.45.62.75l.98,1.54h-.94l-.75-1.18c-.22-.34-.4-.6-.54-.78s-.27-.31-.38-.38c-.11-.07-.23-.12-.34-.15-.08-.02-.22-.03-.42-.03h-.87v2.51h-.75Zm.75-3.16h1.61c.34,0,.61-.04.8-.11.19-.07.34-.18.44-.34s.15-.32.15-.51c0-.27-.1-.49-.29-.66s-.5-.26-.92-.26h-1.79v1.87Z"/>
    <path d="m229.1,320.72l.72.09c-.11.42-.32.75-.63.98-.31.23-.7.35-1.17.35-.6,0-1.08-.18-1.43-.55-.35-.37-.53-.89-.53-1.55s.18-1.23.53-1.61c.35-.38.82-.57,1.38-.57s1,.19,1.34.56c.35.37.52.9.52,1.58,0,.04,0,.1,0,.19h-3.06c.03.45.15.8.38,1.04.23.24.52.36.86.36.25,0,.47-.07.65-.2s.32-.35.43-.64Zm-2.28-1.12h2.29c-.03-.35-.12-.6-.26-.78-.22-.27-.51-.4-.86-.4-.32,0-.59.11-.81.32-.22.21-.34.5-.36.86Z"/>
    <path d="m233.3,323.61v-2.01c-.11.15-.26.28-.45.38-.19.1-.4.15-.62.15-.49,0-.91-.19-1.26-.58s-.53-.92-.53-1.6c0-.41.07-.78.21-1.11.14-.33.35-.57.62-.74.27-.17.57-.25.89-.25.51,0,.91.21,1.2.64v-.55h.63v5.67h-.69Zm-2.14-3.63c0,.53.11.92.33,1.19.22.26.49.4.8.4s.55-.13.76-.38c.21-.25.32-.63.32-1.15,0-.55-.11-.96-.34-1.23-.23-.28-.49-.41-.79-.41s-.56.13-.77.38c-.21.26-.31.66-.31,1.2Z"/>
    <path d="m237.77,322.04v-.6c-.32.46-.75.7-1.3.7-.24,0-.47-.05-.68-.14s-.37-.21-.47-.35c-.1-.14-.17-.31-.21-.52-.03-.14-.04-.35-.04-.65v-2.54h.7v2.27c0,.36.01.61.04.73.04.18.14.33.28.43.14.1.32.16.53.16s.4-.05.59-.16c.18-.11.31-.25.39-.44.08-.18.11-.45.11-.8v-2.2h.69v4.1h-.62Z"/>
    <path d="m242.29,320.72l.72.09c-.11.42-.32.75-.63.98-.31.23-.7.35-1.17.35-.6,0-1.08-.18-1.43-.55-.35-.37-.53-.89-.53-1.55s.18-1.23.53-1.61c.35-.38.82-.57,1.38-.57s1,.19,1.34.56c.35.37.52.9.52,1.58,0,.04,0,.1,0,.19h-3.06c.03.45.15.8.38,1.04.23.24.52.36.86.36.25,0,.47-.07.65-.2s.32-.35.43-.64Zm-2.28-1.12h2.29c-.03-.35-.12-.6-.26-.78-.22-.27-.51-.4-.86-.4-.32,0-.59.11-.81.32-.22.21-.34.5-.36.86Z"/>
    <path d="m243.6,320.81l.69-.11c.04.28.15.49.32.63.18.15.42.22.74.22s.56-.06.71-.19.23-.28.23-.46c0-.16-.07-.28-.21-.37-.1-.06-.33-.14-.71-.24-.51-.13-.86-.24-1.06-.33-.2-.09-.35-.22-.45-.39s-.15-.35-.15-.55c0-.18.04-.35.13-.51.08-.16.2-.29.34-.39.11-.08.26-.15.44-.2.19-.06.39-.08.6-.08.32,0,.6.05.85.14s.42.22.54.38.2.37.24.64l-.68.09c-.03-.21-.12-.38-.27-.49-.15-.12-.36-.18-.63-.18-.32,0-.55.05-.68.16-.14.11-.2.23-.2.37,0,.09.03.17.08.24.06.07.15.14.27.19.07.03.27.08.61.18.49.13.83.24,1.03.32.19.08.35.21.46.37.11.16.17.36.17.59s-.07.45-.2.65c-.14.2-.33.36-.59.48-.25.11-.54.17-.86.17-.53,0-.94-.11-1.22-.33-.28-.22-.46-.55-.54-.98Z"/>
    <path d="m249.35,321.42l.1.61c-.2.04-.37.06-.52.06-.25,0-.45-.04-.59-.12-.14-.08-.24-.19-.29-.31s-.08-.4-.08-.82v-2.36h-.51v-.54h.51v-1.02l.69-.42v1.43h.7v.54h-.7v2.4c0,.2.01.33.04.38.02.06.06.1.12.14.06.03.13.05.24.05.08,0,.18,0,.31-.03Z"/>
  </g>
  <line class="e" x1="307.21" y1="355.47" x2="307.21" y2="288.15"/>
  <polygon class="j" points="307.21 284.38 309.73 289.41 307.21 288.15 304.7 289.41 307.21 284.38"/>
  <polygon class="e" points="307.21 284.38 309.73 289.41 307.21 288.15 304.7 289.41 307.21 284.38"/>
  <rect class="c" x="278.09" y="314.85" width="58.24" height="9.35"/>
  <g>
    <path d="m280.76,322.04v-1.36h-2.46v-.64l2.58-3.67h.57v3.67h.76v.64h-.76v1.36h-.69Zm0-1.99v-2.55l-1.77,2.55h1.77Z"/>
    <path d="m283.32,322.04v-.79h.79v.79h-.79Z"/>
    <path d="m287.65,322.04v-5.66h3.82v.67h-3.07v1.75h2.66v.67h-2.66v2.57h-.75Z"/>
    <path d="m292.34,322.04v-5.66h.7v5.66h-.7Z"/>
    <path d="m293.85,319.99c0-.76.21-1.32.63-1.69.35-.3.78-.46,1.29-.46.56,0,1.02.19,1.38.55.36.37.54.88.54,1.53,0,.53-.08.94-.24,1.25-.16.3-.39.54-.69.71-.3.17-.63.25-.99.25-.57,0-1.04-.18-1.39-.55s-.53-.9-.53-1.59Zm.71,0c0,.53.11.92.34,1.18.23.26.52.39.86.39s.63-.13.86-.39c.23-.26.34-.66.34-1.2,0-.51-.12-.89-.35-1.15s-.52-.39-.86-.39-.64.13-.86.39c-.23.26-.34.65-.34,1.18Z"/>
    <path d="m299.26,322.04l-1.26-4.1h.72l.65,2.37.24.88s.08-.33.21-.85l.65-2.4h.71l.61,2.38.21.78.24-.79.7-2.37h.68l-1.28,4.1h-.72l-.65-2.46-.16-.7-.83,3.15h-.73Z"/>
    <path d="m306.5,322.04v-5.66h1.95c.44,0,.78.03,1.01.08.32.07.6.21.83.41.3.25.52.57.67.97.15.39.22.84.22,1.35,0,.43-.05.81-.15,1.14-.1.33-.23.61-.39.82-.16.22-.33.39-.52.51-.19.12-.41.22-.68.28-.26.06-.57.1-.91.1h-2.04Zm.75-.67h1.21c.37,0,.67-.03.88-.1.21-.07.38-.17.51-.29.18-.18.32-.42.42-.72s.15-.66.15-1.09c0-.59-.1-1.05-.29-1.37s-.43-.53-.71-.64c-.2-.08-.52-.12-.97-.12h-1.19v4.33Z"/>
    <path d="m314.93,320.72l.72.09c-.11.42-.32.75-.63.98-.31.23-.7.35-1.17.35-.6,0-1.08-.18-1.43-.55-.35-.37-.53-.89-.53-1.55s.18-1.23.53-1.61c.35-.38.82-.57,1.38-.57s1,.19,1.34.56c.35.37.52.9.52,1.58,0,.04,0,.1,0,.19h-3.06c.03.45.15.8.38,1.04.23.24.52.36.86.36.25,0,.47-.07.65-.2s.32-.35.43-.64Zm-2.28-1.12h2.29c-.03-.35-.12-.6-.26-.78-.22-.27-.51-.4-.86-.4-.32,0-.59.11-.81.32-.22.21-.34.5-.36.86Z"/>
    <path d="m319.2,320.54l.68.09c-.07.47-.27.84-.57,1.11-.31.27-.69.4-1.13.4-.56,0-1.01-.18-1.35-.55-.34-.37-.51-.89-.51-1.58,0-.44.07-.83.22-1.16.15-.33.37-.58.67-.75.3-.17.63-.25.98-.25.45,0,.81.11,1.09.34.28.23.46.55.54.96l-.68.1c-.06-.28-.18-.48-.34-.62-.16-.14-.36-.21-.59-.21-.35,0-.63.13-.85.38s-.33.65-.33,1.19.11.95.32,1.2c.21.25.49.37.83.37.27,0,.5-.08.68-.25.18-.17.3-.42.35-.77Z"/>
    <path d="m320.48,317.18v-.8h.69v.8h-.69Zm0,4.86v-4.1h.69v4.1h-.69Z"/>
    <path d="m321.96,320.81l.69-.11c.04.28.15.49.32.63.18.15.42.22.74.22s.56-.06.71-.19.23-.28.23-.46c0-.16-.07-.28-.21-.37-.1-.06-.33-.14-.71-.24-.51-.13-.86-.24-1.06-.33-.2-.09-.35-.22-.45-.39s-.15-.35-.15-.55c0-.18.04-.35.13-.51.08-.16.2-.29.34-.39.11-.08.26-.15.44-.2.19-.06.39-.08.6-.08.32,0,.6.05.85.14s.42.22.54.38.2.37.24.64l-.68.09c-.03-.21-.12-.38-.27-.49-.15-.12-.36-.18-.63-.18-.32,0-.55.05-.68.16-.14.11-.2.23-.2.37,0,.09.03.17.08.24.06.07.15.14.27.19.07.03.27.08.61.18.49.13.83.24,1.03.32.19.08.35.21.46.37.11.16.17.36.17.59s-.07.45-.2.65c-.14.2-.33.36-.59.48-.25.11-.54.17-.86.17-.53,0-.94-.11-1.22-.33-.28-.22-.46-.55-.54-.98Z"/>
    <path d="m326.19,317.18v-.8h.69v.8h-.69Zm0,4.86v-4.1h.69v4.1h-.69Z"/>
    <path d="m327.69,319.99c0-.76.21-1.32.63-1.69.35-.3.78-.46,1.29-.46.56,0,1.02.19,1.38.55.36.37.54.88.54,1.53,0,.53-.08.94-.24,1.25-.16.3-.39.54-.69.71-.3.17-.63.25-.99.25-.57,0-1.04-.18-1.39-.55s-.53-.9-.53-1.59Zm.71,0c0,.53.11.92.34,1.18.23.26.52.39.86.39s.63-.13.86-.39c.23-.26.34-.66.34-1.2,0-.51-.12-.89-.35-1.15s-.52-.39-.86-.39-.64.13-.86.39c-.23.26-.34.65-.34,1.18Z"/>
    <path d="m332.35,322.04v-4.1h.63v.58c.3-.45.74-.68,1.31-.68.25,0,.47.04.68.13.21.09.36.21.47.35s.17.32.22.51c.03.13.04.35.04.68v2.52h-.7v-2.49c0-.28-.03-.5-.08-.64-.05-.14-.15-.25-.29-.34s-.3-.13-.48-.13c-.3,0-.55.09-.77.28-.22.19-.32.54-.32,1.07v2.24h-.69Z"/>
  </g>
  <path class="i" d="m182.97,355.47h162.2c.34,0,.68.03,1.01.1.33.07.66.16.97.29.31.13.61.29.89.48.28.19.54.4.78.64.24.24.45.5.64.78s.35.58.48.9c.13.31.23.64.29.97.07.33.1.67.1,1.01v75.92c0,.34-.03.68-.1,1.01-.07.33-.16.66-.29.97-.13.31-.29.61-.48.89s-.4.54-.64.78c-.24.24-.5.45-.78.64s-.58.35-.89.48c-.31.13-.64.23-.97.29-.33.07-.67.1-1.01.1h-162.2c-.34,0-.68-.03-1.01-.1-.33-.07-.66-.16-.97-.29-.31-.13-.61-.29-.89-.48-.28-.19-.54-.4-.78-.64-.24-.24-.45-.5-.64-.78-.19-.28-.35-.58-.48-.89-.13-.31-.23-.64-.29-.97-.07-.33-.1-.67-.1-1.01v-75.92c0-.34.03-.68.1-1.01.07-.33.16-.66.29-.97s.29-.61.48-.9.4-.54.64-.78c.24-.24.5-.45.78-.64.28-.19.58-.35.89-.48.31-.13.64-.23.97-.29s.67-.1,1.01-.1Z"/>
  <path class="g" d="m182.97,355.47h162.2c.34,0,.68.03,1.01.1.33.07.66.16.97.29.31.13.61.29.89.48.28.19.54.4.78.64.24.24.45.5.64.78s.35.58.48.9c.13.31.23.64.29.97.07.33.1.67.1,1.01v75.92c0,.34-.03.68-.1,1.01-.07.33-.16.66-.29.97-.13.31-.29.61-.48.89s-.4.54-.64.78c-.24.24-.5.45-.78.64s-.58.35-.89.48c-.31.13-.64.23-.97.29-.33.07-.67.1-1.01.1h-162.2c-.34,0-.68-.03-1.01-.1-.33-.07-.66-.16-.97-.29-.31-.13-.61-.29-.89-.48-.28-.19-.54-.4-.78-.64-.24-.24-.45-.5-.64-.78-.19-.28-.35-.58-.48-.89-.13-.31-.23-.64-.29-.97-.07-.33-.1-.67-.1-1.01v-75.92c0-.34.03-.68.1-1.01.07-.33.16-.66.29-.97s.29-.61.48-.9.4-.54.64-.78c.24-.24.5-.45.78-.64.28-.19.58-.35.89-.48.31-.13.64-.23.97-.29s.67-.1,1.01-.1Z"/>
  <g>
    <path d="m234.92,401.12l2.37-6.18h.88l2.53,6.18h-.93l-.72-1.87h-2.58l-.68,1.87h-.87Zm1.78-2.54h2.09l-.64-1.71c-.2-.52-.34-.95-.44-1.28-.08.4-.19.79-.33,1.18l-.68,1.81Z"/>
    <path d="m241.26,402.84v-6.19h.69v.58c.16-.23.35-.4.55-.51s.45-.17.75-.17c.38,0,.72.1,1.01.29.29.2.51.47.66.83.15.36.22.75.22,1.18,0,.46-.08.87-.25,1.24-.16.37-.4.65-.72.84-.31.2-.64.29-.99.29-.25,0-.48-.05-.68-.16-.2-.11-.37-.24-.49-.4v2.18h-.76Zm.69-3.93c0,.58.12,1,.35,1.28.23.27.52.41.85.41s.63-.14.87-.43c.24-.28.36-.73.36-1.32s-.12-1-.35-1.28c-.23-.28-.52-.43-.84-.43s-.61.15-.86.45c-.25.3-.37.74-.37,1.32Z"/>
    <path d="m249.12,399.68l.78.1c-.12.46-.35.81-.69,1.07-.33.25-.76.38-1.28.38-.65,0-1.17-.2-1.56-.6s-.58-.97-.58-1.7.19-1.34.58-1.75c.39-.42.89-.62,1.51-.62s1.09.2,1.47.61c.38.41.57.98.57,1.72,0,.05,0,.11,0,.2h-3.34c.03.49.17.87.42,1.13s.56.39.94.39c.28,0,.52-.07.71-.22.2-.15.35-.38.47-.7Zm-2.49-1.23h2.5c-.03-.38-.13-.66-.29-.85-.24-.29-.55-.44-.94-.44-.35,0-.64.12-.88.35-.24.23-.37.54-.39.94Z"/>
    <path d="m250.84,401.12v-4.47h.68v.68c.17-.32.33-.53.48-.63s.31-.15.49-.15c.26,0,.52.08.78.24l-.26.7c-.19-.11-.37-.16-.56-.16-.17,0-.31.05-.45.15-.13.1-.23.24-.28.42-.08.27-.13.56-.13.88v2.34h-.76Z"/>
    <path d="m255.38,400.45l.11.67c-.21.04-.4.07-.57.07-.27,0-.49-.04-.64-.13-.15-.09-.26-.2-.32-.34-.06-.14-.09-.44-.09-.9v-2.57h-.56v-.59h.56v-1.11l.75-.45v1.56h.76v.59h-.76v2.62c0,.22.01.36.04.42.03.06.07.11.13.15s.15.05.26.05c.08,0,.2,0,.33-.03Z"/>
    <path d="m259.05,401.12v-.66c-.35.51-.82.76-1.42.76-.26,0-.51-.05-.74-.15-.23-.1-.4-.23-.51-.38-.11-.15-.19-.34-.23-.56-.03-.15-.05-.38-.05-.71v-2.77h.76v2.48c0,.4.02.66.05.8.05.2.15.36.3.47.15.11.35.17.57.17s.44-.06.64-.17c.2-.12.34-.28.42-.48s.12-.49.12-.87v-2.4h.76v4.47h-.68Z"/>
    <path d="m260.91,401.12v-4.47h.68v.68c.17-.32.33-.53.48-.63s.31-.15.49-.15c.26,0,.52.08.78.24l-.26.7c-.19-.11-.37-.16-.56-.16-.17,0-.31.05-.45.15-.13.1-.23.24-.28.42-.08.27-.13.56-.13.88v2.34h-.76Z"/>
    <path d="m266.86,399.68l.78.1c-.12.46-.35.81-.69,1.07-.33.25-.76.38-1.28.38-.65,0-1.17-.2-1.56-.6s-.58-.97-.58-1.7.19-1.34.58-1.75c.39-.42.89-.62,1.51-.62s1.09.2,1.47.61c.38.41.57.98.57,1.72,0,.05,0,.11,0,.2h-3.34c.03.49.17.87.42,1.13s.56.39.94.39c.28,0,.52-.07.71-.22.2-.15.35-.38.47-.7Zm-2.49-1.23h2.5c-.03-.38-.13-.66-.29-.85-.24-.29-.55-.44-.94-.44-.35,0-.64.12-.88.35-.24.23-.37.54-.39.94Z"/>
  </g>
  <g>
    <path d="m269.93,401.12l2.37-6.18h.88l2.53,6.18h-.93l-.72-1.87h-2.58l-.68,1.87h-.87Zm1.78-2.54h2.09l-.64-1.71c-.2-.52-.34-.95-.44-1.28-.08.4-.19.79-.33,1.18l-.68,1.81Z"/>
    <path d="m276.13,401.49l.74.11c.03.23.12.39.26.5.19.14.45.21.77.21.35,0,.62-.07.81-.21.19-.14.32-.34.39-.59.04-.15.06-.48.05-.97-.33.39-.74.59-1.24.59-.62,0-1.09-.22-1.43-.67s-.51-.98-.51-1.6c0-.43.08-.82.23-1.18s.38-.64.67-.84c.29-.2.64-.29,1.03-.29.53,0,.96.21,1.31.64v-.54h.7v3.87c0,.7-.07,1.19-.21,1.48-.14.29-.37.52-.67.69s-.69.25-1.14.25c-.53,0-.96-.12-1.29-.36s-.49-.6-.48-1.08Zm.63-2.69c0,.59.12,1.02.35,1.28.23.27.52.4.88.4s.64-.13.88-.4c.24-.27.35-.69.35-1.26s-.12-.96-.36-1.24c-.24-.28-.54-.42-.88-.42s-.62.14-.86.41-.35.68-.35,1.22Z"/>
    <path d="m284.13,399.68l.78.1c-.12.46-.35.81-.69,1.07-.33.25-.76.38-1.28.38-.65,0-1.17-.2-1.56-.6s-.58-.97-.58-1.7.19-1.34.58-1.75c.39-.42.89-.62,1.51-.62s1.09.2,1.47.61c.38.41.57.98.57,1.72,0,.05,0,.11,0,.2h-3.34c.03.49.17.87.42,1.13s.56.39.94.39c.28,0,.52-.07.71-.22.2-.15.35-.38.47-.7Zm-2.49-1.23h2.5c-.03-.38-.13-.66-.29-.85-.24-.29-.55-.44-.94-.44-.35,0-.64.12-.88.35-.24.23-.37.54-.39.94Z"/>
    <path d="m285.86,401.12v-4.47h.68v.64c.33-.49.8-.74,1.42-.74.27,0,.52.05.74.15s.4.22.51.38.19.34.24.56c.03.14.04.39.04.74v2.75h-.76v-2.72c0-.31-.03-.54-.09-.69-.06-.15-.16-.27-.31-.37-.15-.09-.33-.14-.53-.14-.32,0-.6.1-.84.31s-.35.59-.35,1.17v2.44h-.76Z"/>
    <path d="m292.32,400.45l.11.67c-.21.04-.4.07-.57.07-.27,0-.49-.04-.64-.13-.15-.09-.26-.2-.32-.34-.06-.14-.09-.44-.09-.9v-2.57h-.56v-.59h.56v-1.11l.75-.45v1.56h.76v.59h-.76v2.62c0,.22.01.36.04.42.03.06.07.11.13.15s.15.05.26.05c.08,0,.2,0,.33-.03Z"/>
  </g>
  <path class="i" d="m512.31,355.47h162.2c.34,0,.68.03,1.01.1.33.07.66.16.97.29.31.13.61.29.89.48.28.19.54.4.78.64.24.24.45.5.64.78.19.28.35.58.48.9.13.31.23.64.29.97s.1.67.1,1.01v75.92c0,.34-.03.68-.1,1.01s-.16.66-.29.97c-.13.31-.29.61-.48.89-.19.28-.4.54-.64.78-.24.24-.5.45-.78.64-.28.19-.58.35-.89.48-.31.13-.64.23-.97.29s-.67.1-1.01.1h-162.2c-.34,0-.68-.03-1.01-.1-.33-.07-.66-.16-.97-.29s-.61-.29-.89-.48-.54-.4-.78-.64c-.24-.24-.45-.5-.64-.78-.19-.28-.35-.58-.48-.89-.13-.31-.23-.64-.29-.97-.07-.33-.1-.67-.1-1.01v-75.92c0-.34.03-.68.1-1.01.07-.33.16-.66.29-.97.13-.31.29-.61.48-.9s.4-.54.64-.78.5-.45.78-.64.58-.35.89-.48c.31-.13.64-.23.97-.29.33-.07.67-.1,1.01-.1Z"/>
  <path class="g" d="m512.31,355.47h162.2c.34,0,.68.03,1.01.1.33.07.66.16.97.29.31.13.61.29.89.48.28.19.54.4.78.64.24.24.45.5.64.78.19.28.35.58.48.9.13.31.23.64.29.97s.1.67.1,1.01v75.92c0,.34-.03.68-.1,1.01s-.16.66-.29.97c-.13.31-.29.61-.48.89-.19.28-.4.54-.64.78-.24.24-.5.45-.78.64-.28.19-.58.35-.89.48-.31.13-.64.23-.97.29s-.67.1-1.01.1h-162.2c-.34,0-.68-.03-1.01-.1-.33-.07-.66-.16-.97-.29s-.61-.29-.89-.48-.54-.4-.78-.64c-.24-.24-.45-.5-.64-.78-.19-.28-.35-.58-.48-.89-.13-.31-.23-.64-.29-.97-.07-.33-.1-.67-.1-1.01v-75.92c0-.34.03-.68.1-1.01.07-.33.16-.66.29-.97.13-.31.29-.61.48-.9s.4-.54.64-.78.5-.45.78-.64.58-.35.89-.48c.31-.13.64-.23.97-.29.33-.07.67-.1,1.01-.1Z"/>
  <g>
    <path d="m556.54,401.12l2.37-6.18h.88l2.53,6.18h-.93l-.72-1.87h-2.58l-.68,1.87h-.87Zm1.78-2.54h2.09l-.64-1.71c-.2-.52-.34-.95-.44-1.28-.08.4-.19.79-.33,1.18l-.68,1.81Z"/>
    <path d="m562.87,402.84v-6.19h.69v.58c.16-.23.35-.4.55-.51s.45-.17.75-.17c.38,0,.72.1,1.01.29.29.2.51.47.66.83.15.36.22.75.22,1.18,0,.46-.08.87-.25,1.24-.16.37-.4.65-.72.84-.31.2-.64.29-.99.29-.25,0-.48-.05-.68-.16-.2-.11-.37-.24-.49-.4v2.18h-.76Zm.69-3.93c0,.58.12,1,.35,1.28.23.27.52.41.85.41s.63-.14.87-.43c.24-.28.36-.73.36-1.32s-.12-1-.35-1.28c-.23-.28-.52-.43-.84-.43s-.61.15-.86.45c-.25.3-.37.74-.37,1.32Z"/>
    <path d="m570.73,399.68l.78.1c-.12.46-.35.81-.69,1.07-.33.25-.76.38-1.28.38-.65,0-1.17-.2-1.56-.6s-.58-.97-.58-1.7.19-1.34.58-1.75c.39-.42.89-.62,1.51-.62s1.09.2,1.47.61c.38.41.57.98.57,1.72,0,.05,0,.11,0,.2h-3.34c.03.49.17.87.42,1.13s.56.39.94.39c.28,0,.52-.07.71-.22.2-.15.35-.38.47-.7Zm-2.49-1.23h2.5c-.03-.38-.13-.66-.29-.85-.24-.29-.55-.44-.94-.44-.35,0-.64.12-.88.35-.24.23-.37.54-.39.94Z"/>
    <path d="m572.46,401.12v-4.47h.68v.68c.17-.32.33-.53.48-.63s.31-.15.49-.15c.26,0,.52.08.78.24l-.26.7c-.19-.11-.37-.16-.56-.16-.17,0-.31.05-.45.15-.13.1-.23.24-.28.42-.08.27-.13.56-.13.88v2.34h-.76Z"/>
    <path d="m577,400.45l.11.67c-.21.04-.4.07-.57.07-.27,0-.49-.04-.64-.13-.15-.09-.26-.2-.32-.34-.06-.14-.09-.44-.09-.9v-2.57h-.56v-.59h.56v-1.11l.75-.45v1.56h.76v.59h-.76v2.62c0,.22.01.36.04.42.03.06.07.11.13.15s.15.05.26.05c.08,0,.2,0,.33-.03Z"/>
    <path d="m580.67,401.12v-.66c-.35.51-.82.76-1.42.76-.26,0-.51-.05-.74-.15-.23-.1-.4-.23-.51-.38-.11-.15-.19-.34-.23-.56-.03-.15-.05-.38-.05-.71v-2.77h.76v2.48c0,.4.02.66.05.8.05.2.15.36.3.47.15.11.35.17.57.17s.44-.06.64-.17c.2-.12.34-.28.42-.48s.12-.49.12-.87v-2.4h.76v4.47h-.68Z"/>
    <path d="m582.53,401.12v-4.47h.68v.68c.17-.32.33-.53.48-.63s.31-.15.49-.15c.26,0,.52.08.78.24l-.26.7c-.19-.11-.37-.16-.56-.16-.17,0-.31.05-.45.15-.13.1-.23.24-.28.42-.08.27-.13.56-.13.88v2.34h-.76Z"/>
    <path d="m588.47,399.68l.78.1c-.12.46-.35.81-.69,1.07-.33.25-.76.38-1.28.38-.65,0-1.17-.2-1.56-.6s-.58-.97-.58-1.7.19-1.34.58-1.75c.39-.42.89-.62,1.51-.62s1.09.2,1.47.61c.38.41.57.98.57,1.72,0,.05,0,.11,0,.2h-3.34c.03.49.17.87.42,1.13s.56.39.94.39c.28,0,.52-.07.71-.22.2-.15.35-.38.47-.7Zm-2.49-1.23h2.5c-.03-.38-.13-.66-.29-.85-.24-.29-.55-.44-.94-.44-.35,0-.64.12-.88.35-.24.23-.37.54-.39.94Z"/>
    <path d="m597.11,398.96l.82.21c-.17.67-.48,1.18-.92,1.54-.45.35-.99.53-1.63.53s-1.21-.14-1.62-.41c-.42-.27-.73-.66-.95-1.18-.22-.51-.33-1.07-.33-1.66,0-.64.12-1.2.37-1.68.25-.48.6-.84,1.05-1.09s.95-.37,1.5-.37c.62,0,1.14.16,1.56.47.42.31.71.76.88,1.33l-.8.19c-.14-.45-.35-.78-.62-.98s-.62-.31-1.03-.31c-.47,0-.87.11-1.19.34-.32.23-.54.53-.67.92-.13.38-.19.78-.19,1.19,0,.53.08.98.23,1.38.15.39.39.68.71.88.32.19.67.29,1.05.29.46,0,.85-.13,1.16-.4.32-.26.53-.66.64-1.18Z"/>
    <path d="m598.56,398.89c0-.83.23-1.44.69-1.84.38-.33.85-.5,1.41-.5.62,0,1.12.2,1.51.6.39.4.59.96.59,1.67,0,.58-.09,1.03-.26,1.36-.17.33-.42.59-.75.77s-.69.27-1.08.27c-.63,0-1.13-.2-1.52-.6-.39-.4-.58-.98-.58-1.74Zm.78,0c0,.57.12,1,.38,1.29.25.29.56.43.94.43s.69-.14.94-.43.38-.72.38-1.31c0-.55-.13-.97-.38-1.26-.25-.29-.56-.43-.94-.43s-.69.14-.94.43-.38.71-.38,1.29Z"/>
    <path d="m603.64,401.12v-4.47h.68v.64c.33-.49.8-.74,1.42-.74.27,0,.52.05.74.15s.4.22.51.38.19.34.24.56c.03.14.04.39.04.74v2.75h-.76v-2.72c0-.31-.03-.54-.09-.69-.06-.15-.16-.27-.31-.37-.15-.09-.33-.14-.53-.14-.32,0-.6.1-.84.31s-.35.59-.35,1.17v2.44h-.76Z"/>
    <path d="m610.09,400.45l.11.67c-.21.04-.4.07-.57.07-.27,0-.49-.04-.64-.13-.15-.09-.26-.2-.32-.34-.06-.14-.09-.44-.09-.9v-2.57h-.56v-.59h.56v-1.11l.75-.45v1.56h.76v.59h-.76v2.62c0,.22.01.36.04.42.03.06.07.11.13.15s.15.05.26.05c.08,0,.2,0,.33-.03Z"/>
    <path d="m610.82,401.12v-4.47h.68v.68c.17-.32.33-.53.48-.63s.31-.15.49-.15c.26,0,.52.08.78.24l-.26.7c-.19-.11-.37-.16-.56-.16-.17,0-.31.05-.45.15-.13.1-.23.24-.28.42-.08.27-.13.56-.13.88v2.34h-.76Z"/>
    <path d="m613.42,398.89c0-.83.23-1.44.69-1.84.38-.33.85-.5,1.41-.5.62,0,1.12.2,1.51.6.39.4.59.96.59,1.67,0,.58-.09,1.03-.26,1.36-.17.33-.42.59-.75.77s-.69.27-1.08.27c-.63,0-1.13-.2-1.52-.6-.39-.4-.58-.98-.58-1.74Zm.78,0c0,.57.12,1,.38,1.29.25.29.56.43.94.43s.69-.14.94-.43.38-.72.38-1.31c0-.55-.13-.97-.38-1.26-.25-.29-.56-.43-.94-.43s-.69.14-.94.43-.38.71-.38,1.29Z"/>
    <path d="m618.49,401.12v-6.18h.76v6.18h-.76Z"/>
    <path d="m620.4,401.12v-6.18h.76v6.18h-.76Z"/>
    <path d="m625.4,399.68l.78.1c-.12.46-.35.81-.69,1.07-.33.25-.76.38-1.28.38-.65,0-1.17-.2-1.56-.6s-.58-.97-.58-1.7.19-1.34.58-1.75c.39-.42.89-.62,1.51-.62s1.09.2,1.47.61c.38.41.57.98.57,1.72,0,.05,0,.11,0,.2h-3.34c.03.49.17.87.42,1.13s.56.39.94.39c.28,0,.52-.07.71-.22.2-.15.35-.38.47-.7Zm-2.49-1.23h2.5c-.03-.38-.13-.66-.29-.85-.24-.29-.55-.44-.94-.44-.35,0-.64.12-.88.35-.24.23-.37.54-.39.94Z"/>
    <path d="m627.13,401.12v-4.47h.68v.68c.17-.32.33-.53.48-.63s.31-.15.49-.15c.26,0,.52.08.78.24l-.26.7c-.19-.11-.37-.16-.56-.16-.17,0-.31.05-.45.15-.13.1-.23.24-.28.42-.08.27-.13.56-.13.88v2.34h-.76Z"/>
  </g>
  <line class="e" x1="354.93" y1="398.61" x2="502.56" y2="398.61"/>
  <polygon class="j" points="351.16 398.61 356.19 396.09 354.93 398.61 356.19 401.12 351.16 398.61"/>
  <polygon class="e" points="351.16 398.61 356.19 396.09 354.93 398.61 356.19 401.12 351.16 398.61"/>
  <polygon class="j" points="506.33 398.61 501.3 401.12 502.56 398.61 501.3 396.09 506.33 398.61"/>
  <polygon class="e" points="506.33 398.61 501.3 401.12 502.56 398.61 501.3 396.09 506.33 398.61"/>
  <rect class="c" x="383.78" y="393.93" width="89.87" height="9.35"/>
  <g>
    <path d="m384.22,399.63l.7-.09c.08.39.22.68.41.85s.43.26.7.26c.33,0,.6-.11.83-.34s.34-.51.34-.84-.1-.58-.31-.79c-.21-.21-.47-.31-.8-.31-.13,0-.29.03-.49.08l.08-.61s.08,0,.11,0c.3,0,.56-.08.8-.23s.36-.39.36-.71c0-.25-.09-.47-.26-.63s-.4-.25-.67-.25-.5.08-.68.25-.3.42-.35.76l-.69-.12c.08-.47.28-.83.58-1.08.3-.26.68-.38,1.12-.38.31,0,.59.07.85.2.26.13.46.31.6.54s.21.47.21.73-.07.47-.2.67-.33.36-.58.48c.33.08.59.24.78.48s.28.55.28.91c0,.49-.18.91-.54,1.26s-.82.52-1.37.52c-.5,0-.91-.15-1.24-.44-.33-.3-.52-.68-.56-1.15Z"/>
    <path d="m389,401.12v-.79h.79v.79h-.79Z"/>
    <path d="m393.33,401.12v-5.66h3.82v.67h-3.07v1.75h2.66v.67h-2.66v2.57h-.75Z"/>
    <path d="m398.01,401.12v-5.66h.7v5.66h-.7Z"/>
    <path d="m399.53,399.07c0-.76.21-1.32.63-1.69.35-.3.78-.46,1.29-.46.56,0,1.02.19,1.38.55.36.37.54.88.54,1.53,0,.53-.08.94-.24,1.25-.16.3-.39.54-.69.71-.3.17-.63.25-.99.25-.57,0-1.04-.18-1.39-.55s-.53-.9-.53-1.59Zm.71,0c0,.53.11.92.34,1.18.23.26.52.39.86.39s.63-.13.86-.39c.23-.26.34-.66.34-1.2,0-.51-.12-.89-.35-1.15s-.52-.39-.86-.39-.64.13-.86.39c-.23.26-.34.65-.34,1.18Z"/>
    <path d="m404.94,401.12l-1.26-4.1h.72l.65,2.37.24.88s.08-.33.21-.85l.65-2.4h.71l.61,2.38.21.78.24-.79.7-2.37h.68l-1.28,4.1h-.72l-.65-2.46-.16-.7-.83,3.15h-.73Z"/>
    <path d="m416.22,399.14l.75.19c-.16.62-.44,1.08-.85,1.41-.41.32-.91.48-1.5.48s-1.11-.12-1.49-.37c-.38-.25-.67-.61-.87-1.08-.2-.47-.3-.98-.3-1.52,0-.59.11-1.1.34-1.54.23-.44.55-.77.96-1,.42-.23.87-.34,1.37-.34.57,0,1.04.14,1.43.43.39.29.65.69.81,1.22l-.74.17c-.13-.41-.32-.71-.57-.9-.25-.19-.56-.28-.94-.28-.44,0-.8.1-1.09.31-.29.21-.5.49-.62.84-.12.35-.18.71-.18,1.09,0,.48.07.9.21,1.26.14.36.36.63.65.81s.62.27.96.27c.42,0,.77-.12,1.07-.36.29-.24.49-.6.59-1.08Z"/>
    <path d="m417.55,399.07c0-.76.21-1.32.63-1.69.35-.3.78-.46,1.29-.46.56,0,1.02.19,1.38.55.36.37.54.88.54,1.53,0,.53-.08.94-.24,1.25-.16.3-.39.54-.69.71-.3.17-.63.25-.99.25-.57,0-1.04-.18-1.39-.55s-.53-.9-.53-1.59Zm.71,0c0,.53.11.92.34,1.18.23.26.52.39.86.39s.63-.13.86-.39c.23-.26.34-.66.34-1.2,0-.51-.12-.89-.35-1.15s-.52-.39-.86-.39-.64.13-.86.39c-.23.26-.34.65-.34,1.18Z"/>
    <path d="m422.2,401.12v-4.1h.63v.58c.3-.45.74-.68,1.31-.68.25,0,.47.04.68.13.21.09.36.21.47.35s.17.32.22.51c.03.13.04.35.04.68v2.52h-.7v-2.49c0-.28-.03-.5-.08-.64-.05-.14-.15-.25-.29-.34s-.3-.13-.48-.13c-.3,0-.55.09-.77.28-.22.19-.32.54-.32,1.07v2.24h-.69Z"/>
    <path d="m428.12,400.5l.1.61c-.2.04-.37.06-.52.06-.25,0-.45-.04-.59-.12-.14-.08-.24-.19-.29-.31s-.08-.4-.08-.82v-2.36h-.51v-.54h.51v-1.02l.69-.42v1.43h.7v.54h-.7v2.4c0,.2.01.33.04.38.02.06.06.1.12.14.06.03.13.05.24.05.08,0,.18,0,.31-.03Z"/>
    <path d="m428.79,401.12v-4.1h.63v.62c.16-.29.31-.48.44-.58.13-.09.28-.14.45-.14.23,0,.47.07.71.22l-.24.65c-.17-.1-.34-.15-.51-.15-.15,0-.29.05-.41.14-.12.09-.21.22-.26.38-.08.25-.12.52-.12.81v2.15h-.69Z"/>
    <path d="m431.17,399.07c0-.76.21-1.32.63-1.69.35-.3.78-.46,1.29-.46.56,0,1.02.19,1.38.55.36.37.54.88.54,1.53,0,.53-.08.94-.24,1.25-.16.3-.39.54-.69.71-.3.17-.63.25-.99.25-.57,0-1.04-.18-1.39-.55s-.53-.9-.53-1.59Zm.71,0c0,.53.11.92.34,1.18.23.26.52.39.86.39s.63-.13.86-.39c.23-.26.34-.66.34-1.2,0-.51-.12-.89-.35-1.15s-.52-.39-.86-.39-.64.13-.86.39c-.23.26-.34.65-.34,1.18Z"/>
    <path d="m435.82,401.12v-5.66h.7v5.66h-.7Z"/>
    <path d="m439.87,401.12v-5.66h1.95c.44,0,.78.03,1.01.08.32.07.6.21.83.41.3.25.52.57.67.97.15.39.22.84.22,1.35,0,.43-.05.81-.15,1.14-.1.33-.23.61-.39.82-.16.22-.33.39-.52.51-.19.12-.41.22-.68.28-.26.06-.57.1-.91.1h-2.04Zm.75-.67h1.21c.37,0,.67-.03.88-.1.21-.07.38-.17.51-.29.18-.18.32-.42.42-.72s.15-.66.15-1.09c0-.59-.1-1.05-.29-1.37s-.43-.53-.71-.64c-.2-.08-.52-.12-.97-.12h-1.19v4.33Z"/>
    <path d="m448.3,399.8l.72.09c-.11.42-.32.75-.63.98-.31.23-.7.35-1.17.35-.6,0-1.08-.18-1.43-.55-.35-.37-.53-.89-.53-1.55s.18-1.23.53-1.61c.35-.38.82-.57,1.38-.57s1,.19,1.34.56c.35.37.52.9.52,1.58,0,.04,0,.1,0,.19h-3.06c.03.45.15.8.38,1.04.23.24.52.36.86.36.25,0,.47-.07.65-.2s.32-.35.43-.64Zm-2.28-1.12h2.29c-.03-.35-.12-.6-.26-.78-.22-.27-.51-.4-.86-.4-.32,0-.59.11-.81.32-.22.21-.34.5-.36.86Z"/>
    <path d="m452.57,399.62l.68.09c-.07.47-.27.84-.57,1.11-.31.27-.69.4-1.13.4-.56,0-1.01-.18-1.35-.55-.34-.37-.51-.89-.51-1.58,0-.44.07-.83.22-1.16.15-.33.37-.58.67-.75.3-.17.63-.25.98-.25.45,0,.81.11,1.09.34.28.23.46.55.54.96l-.68.1c-.06-.28-.18-.48-.34-.62-.16-.14-.36-.21-.59-.21-.35,0-.63.13-.85.38s-.33.65-.33,1.19.11.95.32,1.2c.21.25.49.37.83.37.27,0,.5-.08.68-.25.18-.17.3-.42.35-.77Z"/>
    <path d="m453.85,396.26v-.8h.69v.8h-.69Zm0,4.86v-4.1h.69v4.1h-.69Z"/>
    <path d="m455.33,399.9l.69-.11c.04.28.15.49.32.63.18.15.42.22.74.22s.56-.06.71-.19.23-.28.23-.46c0-.16-.07-.28-.21-.37-.1-.06-.33-.14-.71-.24-.51-.13-.86-.24-1.06-.33-.2-.09-.35-.22-.45-.39s-.15-.35-.15-.55c0-.18.04-.35.13-.51.08-.16.2-.29.34-.39.11-.08.26-.15.44-.2.19-.06.39-.08.6-.08.32,0,.6.05.85.14s.42.22.54.38.2.37.24.64l-.68.09c-.03-.21-.12-.38-.27-.49-.15-.12-.36-.18-.63-.18-.32,0-.55.05-.68.16-.14.11-.2.23-.2.37,0,.09.03.17.08.24.06.07.15.14.27.19.07.03.27.08.61.18.49.13.83.24,1.03.32.19.08.35.21.46.37.11.16.17.36.17.59s-.07.45-.2.65c-.14.2-.33.36-.59.48-.25.11-.54.17-.86.17-.53,0-.94-.11-1.22-.33-.28-.22-.46-.55-.54-.98Z"/>
    <path d="m459.56,396.26v-.8h.69v.8h-.69Zm0,4.86v-4.1h.69v4.1h-.69Z"/>
    <path d="m461.06,399.07c0-.76.21-1.32.63-1.69.35-.3.78-.46,1.29-.46.56,0,1.02.19,1.38.55.36.37.54.88.54,1.53,0,.53-.08.94-.24,1.25-.16.3-.39.54-.69.71-.3.17-.63.25-.99.25-.57,0-1.04-.18-1.39-.55s-.53-.9-.53-1.59Zm.71,0c0,.53.11.92.34,1.18.23.26.52.39.86.39s.63-.13.86-.39c.23-.26.34-.66.34-1.2,0-.51-.12-.89-.35-1.15s-.52-.39-.86-.39-.64.13-.86.39c-.23.26-.34.65-.34,1.18Z"/>
    <path d="m465.72,401.12v-4.1h.63v.58c.3-.45.74-.68,1.31-.68.25,0,.47.04.68.13.21.09.36.21.47.35s.17.32.22.51c.03.13.04.35.04.68v2.52h-.7v-2.49c0-.28-.03-.5-.08-.64-.05-.14-.15-.25-.29-.34s-.3-.13-.48-.13c-.3,0-.55.09-.77.28-.22.19-.32.54-.32,1.07v2.24h-.69Z"/>
    <path d="m469.84,399.9l.69-.11c.04.28.15.49.32.63.18.15.42.22.74.22s.56-.06.71-.19.23-.28.23-.46c0-.16-.07-.28-.21-.37-.1-.06-.33-.14-.71-.24-.51-.13-.86-.24-1.06-.33-.2-.09-.35-.22-.45-.39s-.15-.35-.15-.55c0-.18.04-.35.13-.51.08-.16.2-.29.34-.39.11-.08.26-.15.44-.2.19-.06.39-.08.6-.08.32,0,.6.05.85.14s.42.22.54.38.2.37.24.64l-.68.09c-.03-.21-.12-.38-.27-.49-.15-.12-.36-.18-.63-.18-.32,0-.55.05-.68.16-.14.11-.2.23-.2.37,0,.09.03.17.08.24.06.07.15.14.27.19.07.03.27.08.61.18.49.13.83.24,1.03.32.19.08.35.21.46.37.11.16.17.36.17.59s-.07.45-.2.65c-.14.2-.33.36-.59.48-.25.11-.54.17-.86.17-.53,0-.94-.11-1.22-.33-.28-.22-.46-.55-.54-.98Z"/>
  </g>
  <rect class="h" x="226.62" y="116.08" width="70.72" height="70.72"/>
  <rect class="h" x="241.48" y="117.85" width="41.37" height="43.14"/>
  <g>
    <path d="m234.28,174.65v-6.18h.84l3.24,4.85v-4.85h.78v6.18h-.84l-3.24-4.85v4.85h-.78Z"/>
    <path d="m240.28,175.02l.74.11c.03.23.12.39.26.5.19.14.45.21.77.21.35,0,.62-.07.81-.21.19-.14.32-.34.39-.59.04-.15.06-.48.05-.97-.33.39-.74.59-1.24.59-.62,0-1.09-.22-1.43-.67s-.51-.98-.51-1.6c0-.43.08-.82.23-1.18s.38-.64.67-.84c.29-.2.64-.29,1.03-.29.53,0,.96.21,1.31.64v-.54h.7v3.87c0,.7-.07,1.19-.21,1.48-.14.29-.37.52-.67.69s-.69.25-1.14.25c-.53,0-.96-.12-1.29-.36s-.49-.6-.48-1.08Zm.63-2.69c0,.59.12,1.02.35,1.28.23.27.52.4.88.4s.64-.13.88-.4c.24-.27.35-.69.35-1.26s-.12-.96-.36-1.24c-.24-.28-.54-.42-.88-.42s-.62.14-.86.41-.35.68-.35,1.22Z"/>
    <path d="m245.22,169.34v-.87h.76v.87h-.76Zm0,5.3v-4.47h.76v4.47h-.76Z"/>
    <path d="m247.13,174.65v-4.47h.68v.64c.33-.49.8-.74,1.42-.74.27,0,.52.05.74.15s.4.22.51.38.19.34.24.56c.03.14.04.39.04.74v2.75h-.76v-2.72c0-.31-.03-.54-.09-.69-.06-.15-.16-.27-.31-.37-.15-.09-.33-.14-.53-.14-.32,0-.6.1-.84.31s-.35.59-.35,1.17v2.44h-.76Z"/>
    <path d="m251.43,174.65l1.63-2.33-1.51-2.15h.95l.69,1.05c.13.2.23.37.31.5.12-.19.24-.35.34-.49l.75-1.06h.91l-1.55,2.11,1.66,2.37h-.93l-.92-1.39-.24-.38-1.18,1.77h-.92Z"/>
    <path d="m261.63,172.23v-.72h2.62s0,2.29,0,2.29c-.4.32-.82.56-1.24.72-.43.16-.86.24-1.31.24-.61,0-1.16-.13-1.65-.39s-.87-.64-1.12-1.13c-.25-.49-.38-1.04-.38-1.65s.13-1.16.38-1.68c.25-.52.61-.91,1.08-1.16.47-.25,1.02-.38,1.63-.38.45,0,.85.07,1.21.22.36.15.64.35.85.6.21.26.36.6.47,1.01l-.74.2c-.09-.31-.21-.56-.35-.74-.14-.18-.33-.32-.59-.43-.26-.11-.54-.16-.85-.16-.37,0-.7.06-.97.17s-.49.26-.66.45c-.17.19-.3.39-.39.61-.16.38-.24.8-.24,1.24,0,.55.09,1.01.28,1.38.19.37.47.65.83.83s.75.27,1.15.27c.35,0,.7-.07,1.04-.2s.59-.28.77-.44v-1.15h-1.82Z"/>
    <path d="m268.27,174.1c-.28.24-.55.41-.81.51s-.54.15-.84.15c-.49,0-.87-.12-1.13-.36-.26-.24-.4-.55-.4-.92,0-.22.05-.42.15-.6.1-.18.23-.33.39-.44s.34-.19.55-.25c.15-.04.37-.08.67-.11.61-.07,1.06-.16,1.35-.26,0-.1,0-.17,0-.2,0-.31-.07-.53-.21-.65-.19-.17-.48-.26-.86-.26-.36,0-.62.06-.79.19-.17.12-.3.35-.38.66l-.74-.1c.07-.32.18-.57.33-.77.15-.2.38-.35.67-.45s.63-.16,1.02-.16.69.04.93.13c.24.09.41.2.53.34s.19.31.24.52c.03.13.04.36.04.7v1.01c0,.7.02,1.15.05,1.34.03.19.1.37.19.54h-.79c-.08-.16-.13-.34-.15-.55Zm-.06-1.69c-.27.11-.69.21-1.24.29-.31.04-.53.1-.66.15-.13.06-.23.14-.3.25-.07.11-.11.23-.11.36,0,.2.08.37.23.51.15.14.38.2.67.2s.55-.06.78-.19c.23-.13.39-.3.5-.52.08-.17.12-.42.12-.76v-.28Z"/>
    <path d="m271.81,173.97l.11.67c-.21.04-.4.07-.57.07-.27,0-.49-.04-.64-.13-.15-.09-.26-.2-.32-.34-.06-.14-.09-.44-.09-.9v-2.57h-.56v-.59h.56v-1.11l.75-.45v1.56h.76v.59h-.76v2.62c0,.22.01.36.04.42.03.06.07.11.13.15s.15.05.26.05c.08,0,.2,0,.33-.03Z"/>
    <path d="m275.61,173.21l.78.1c-.12.46-.35.81-.69,1.07-.33.25-.76.38-1.28.38-.65,0-1.17-.2-1.56-.6s-.58-.97-.58-1.7.19-1.34.58-1.75c.39-.42.89-.62,1.51-.62s1.09.2,1.47.61c.38.41.57.98.57,1.72,0,.05,0,.11,0,.2h-3.34c.03.49.17.87.42,1.13s.56.39.94.39c.28,0,.52-.07.71-.22.2-.15.35-.38.47-.7Zm-2.49-1.23h2.5c-.03-.38-.13-.66-.29-.85-.24-.29-.55-.44-.94-.44-.35,0-.64.12-.88.35-.24.23-.37.54-.39.94Z"/>
    <path d="m278.17,174.65l-1.37-4.47h.78l.71,2.58.27.96s.09-.35.23-.92l.71-2.62h.78l.67,2.6.22.85.26-.86.77-2.59h.74l-1.4,4.47h-.79l-.71-2.68-.17-.76-.91,3.44h-.79Z"/>
    <path d="m286.5,174.1c-.28.24-.55.41-.81.51s-.54.15-.84.15c-.49,0-.87-.12-1.13-.36-.26-.24-.4-.55-.4-.92,0-.22.05-.42.15-.6.1-.18.23-.33.39-.44s.34-.19.55-.25c.15-.04.37-.08.67-.11.61-.07,1.06-.16,1.35-.26,0-.1,0-.17,0-.2,0-.31-.07-.53-.21-.65-.19-.17-.48-.26-.86-.26-.36,0-.62.06-.79.19-.17.12-.3.35-.38.66l-.74-.1c.07-.32.18-.57.33-.77.15-.2.38-.35.67-.45s.63-.16,1.02-.16.69.04.93.13c.24.09.41.2.53.34s.19.31.24.52c.03.13.04.36.04.7v1.01c0,.7.02,1.15.05,1.34.03.19.1.37.19.54h-.79c-.08-.16-.13-.34-.15-.55Zm-.06-1.69c-.27.11-.69.21-1.24.29-.31.04-.53.1-.66.15-.13.06-.23.14-.3.25-.07.11-.11.23-.11.36,0,.2.08.37.23.51.15.14.38.2.67.2s.55-.06.78-.19c.23-.13.39-.3.5-.52.08-.17.12-.42.12-.76v-.28Z"/>
    <path d="m288.34,176.37l-.08-.71c.17.04.31.07.43.07.17,0,.3-.03.4-.08s.18-.13.25-.24c.05-.08.12-.26.23-.56.01-.04.04-.1.07-.19l-1.7-4.48h.82l.93,2.59c.12.33.23.67.32,1.04.09-.35.19-.69.31-1.02l.96-2.61h.76l-1.7,4.55c-.18.49-.32.83-.43,1.02-.13.25-.29.43-.46.55-.17.12-.38.18-.62.18-.15,0-.31-.03-.49-.09Z"/>
  </g>
  <line class="e" x1="375.51" y1="143.37" x2="480.99" y2="143.37"/>
  <polygon class="j" points="484.76 143.37 479.73 145.89 480.99 143.37 479.73 140.86 484.76 143.37"/>
  <polygon class="e" points="484.76 143.37 479.73 145.89 480.99 143.37 479.73 140.86 484.76 143.37"/>
  <rect class="c" x="411.82" y="138.7" width="38.11" height="9.35"/>
  <g>
    <path d="m412.08,144.41l.73-.06c.05.35.18.62.38.8.2.18.43.27.71.27.33,0,.62-.13.85-.38.23-.25.35-.59.35-1s-.11-.71-.33-.94-.51-.34-.87-.34c-.22,0-.43.05-.61.15-.18.1-.32.23-.42.4l-.65-.08.55-2.91h2.82v.66h-2.26l-.31,1.52c.34-.24.7-.35,1.07-.35.49,0,.91.17,1.25.51.34.34.51.78.51,1.32s-.15.96-.45,1.33c-.36.46-.86.69-1.49.69-.51,0-.94-.14-1.26-.43-.33-.29-.51-.67-.56-1.15Z"/>
    <path d="m416.87,145.89v-.79h.79v.79h-.79Z"/>
    <path d="m421.17,145.89v-5.66h2.51c.5,0,.89.05,1.15.15.26.1.47.28.63.54.16.26.24.54.24.85,0,.4-.13.74-.39,1.02-.26.28-.66.45-1.21.53.2.1.35.19.45.28.22.2.43.45.62.75l.98,1.54h-.94l-.75-1.18c-.22-.34-.4-.6-.54-.78s-.27-.31-.38-.38c-.11-.07-.23-.12-.34-.15-.08-.02-.22-.03-.42-.03h-.87v2.51h-.75Zm.75-3.16h1.61c.34,0,.61-.04.8-.11.19-.07.34-.18.44-.34s.15-.32.15-.51c0-.27-.1-.49-.29-.66s-.5-.26-.92-.26h-1.79v1.87Z"/>
    <path d="m429.59,144.57l.72.09c-.11.42-.32.75-.63.98-.31.23-.7.35-1.17.35-.6,0-1.08-.18-1.43-.55-.35-.37-.53-.89-.53-1.55s.18-1.23.53-1.61c.35-.38.82-.57,1.38-.57s1,.19,1.34.56c.35.37.52.9.52,1.58,0,.04,0,.1,0,.19h-3.06c.03.45.15.8.38,1.04.23.24.52.36.86.36.25,0,.47-.07.65-.2s.32-.35.43-.64Zm-2.28-1.12h2.29c-.03-.35-.12-.6-.26-.78-.22-.27-.51-.4-.86-.4-.32,0-.59.11-.81.32-.22.21-.34.5-.36.86Z"/>
    <path d="m433.79,147.46v-2.01c-.11.15-.26.28-.45.38-.19.1-.4.15-.62.15-.49,0-.91-.19-1.26-.58s-.53-.92-.53-1.6c0-.41.07-.78.21-1.11.14-.33.35-.57.62-.74.27-.17.57-.25.89-.25.51,0,.91.21,1.2.64v-.55h.63v5.67h-.69Zm-2.14-3.63c0,.53.11.92.33,1.19.22.26.49.4.8.4s.55-.13.76-.38c.21-.25.32-.63.32-1.15,0-.55-.11-.96-.34-1.23-.23-.28-.49-.41-.79-.41s-.56.13-.77.38c-.21.26-.31.66-.31,1.2Z"/>
    <path d="m438.27,145.89v-.6c-.32.46-.75.7-1.3.7-.24,0-.47-.05-.68-.14s-.37-.21-.47-.35c-.1-.14-.17-.31-.21-.52-.03-.14-.04-.35-.04-.65v-2.54h.7v2.27c0,.36.01.61.04.73.04.18.14.33.28.43.14.1.32.16.53.16s.4-.05.59-.16c.18-.11.31-.25.39-.44.08-.18.11-.45.11-.8v-2.2h.69v4.1h-.62Z"/>
    <path d="m442.78,144.57l.72.09c-.11.42-.32.75-.63.98-.31.23-.7.35-1.17.35-.6,0-1.08-.18-1.43-.55-.35-.37-.53-.89-.53-1.55s.18-1.23.53-1.61c.35-.38.82-.57,1.38-.57s1,.19,1.34.56c.35.37.52.9.52,1.58,0,.04,0,.1,0,.19h-3.06c.03.45.15.8.38,1.04.23.24.52.36.86.36.25,0,.47-.07.65-.2s.32-.35.43-.64Zm-2.28-1.12h2.29c-.03-.35-.12-.6-.26-.78-.22-.27-.51-.4-.86-.4-.32,0-.59.11-.81.32-.22.21-.34.5-.36.86Z"/>
    <path d="m444.1,144.66l.69-.11c.04.28.15.49.32.63.18.15.42.22.74.22s.56-.06.71-.19.23-.28.23-.46c0-.16-.07-.28-.21-.37-.1-.06-.33-.14-.71-.24-.51-.13-.86-.24-1.06-.33-.2-.09-.35-.22-.45-.39s-.15-.35-.15-.55c0-.18.04-.35.13-.51.08-.16.2-.29.34-.39.11-.08.26-.15.44-.2.19-.06.39-.08.6-.08.32,0,.6.05.85.14s.42.22.54.38.2.37.24.64l-.68.09c-.03-.21-.12-.38-.27-.49-.15-.12-.36-.18-.63-.18-.32,0-.55.05-.68.16-.14.11-.2.23-.2.37,0,.09.03.17.08.24.06.07.15.14.27.19.07.03.27.08.61.18.49.13.83.24,1.03.32.19.08.35.21.46.37.11.16.17.36.17.59s-.07.45-.2.65c-.14.2-.33.36-.59.48-.25.11-.54.17-.86.17-.53,0-.94-.11-1.22-.33-.28-.22-.46-.55-.54-.98Z"/>
    <path d="m449.85,145.27l.1.61c-.2.04-.37.06-.52.06-.25,0-.45-.04-.59-.12-.14-.08-.24-.19-.29-.31s-.08-.4-.08-.82v-2.36h-.51v-.54h.51v-1.02l.69-.42v1.43h.7v.54h-.7v2.4c0,.2.01.33.04.38.02.06.06.1.12.14.06.03.13.05.24.05.08,0,.18,0,.31-.03Z"/>
  </g>
  <path class="f" d="m498.51,89.45h189.81c.85,0,1.69.08,2.52.25.83.17,1.64.41,2.43.74s1.53.72,2.24,1.2c.71.47,1.36,1.01,1.96,1.61.6.6,1.14,1.25,1.61,1.96.47.71.87,1.45,1.2,2.24s.57,1.59.74,2.43c.17.83.25,1.68.25,2.52v189.81c0,.85-.08,1.69-.25,2.52-.17.83-.41,1.64-.74,2.43-.33.79-.72,1.53-1.2,2.24-.47.71-1.01,1.36-1.61,1.96s-1.25,1.14-1.96,1.61c-.71.47-1.45.87-2.24,1.2s-1.59.57-2.43.74c-.83.17-1.68.25-2.52.25h-189.81c-.85,0-1.69-.08-2.52-.25-.83-.17-1.64-.41-2.43-.74-.79-.33-1.53-.72-2.24-1.2-.71-.47-1.36-1.01-1.96-1.61s-1.14-1.25-1.61-1.96c-.47-.71-.87-1.45-1.2-2.24-.33-.79-.57-1.59-.74-2.43-.17-.83-.25-1.68-.25-2.52V102.39c0-.85.08-1.69.25-2.52.17-.83.41-1.64.74-2.43.33-.79.72-1.53,1.2-2.24.47-.71,1.01-1.36,1.61-1.96.6-.6,1.25-1.14,1.96-1.61.71-.47,1.45-.87,2.24-1.2.79-.33,1.59-.57,2.43-.74.83-.17,1.68-.25,2.52-.25Z"/>
  <path class="c" d="m524.39,146.97h106.41c.66,0,1.32.06,1.96.19.65.13,1.28.32,1.89.57.61.25,1.19.56,1.74.93s1.06.78,1.53,1.25c.47.47.88.98,1.25,1.53.37.55.68,1.13.93,1.74.25.61.44,1.24.57,1.89.13.65.19,1.3.19,1.96v46.97c0,.66-.06,1.32-.19,1.96-.13.65-.32,1.28-.57,1.89-.25.61-.56,1.19-.93,1.74-.37.55-.78,1.06-1.25,1.53-.47.47-.98.88-1.53,1.25s-1.13.68-1.74.93c-.61.25-1.24.44-1.89.57-.65.13-1.3.19-1.96.19h-106.41c-.66,0-1.32-.06-1.96-.19-.65-.13-1.28-.32-1.89-.57s-1.19-.56-1.74-.93c-.55-.37-1.06-.78-1.53-1.25-.47-.47-.88-.98-1.25-1.53-.37-.55-.68-1.13-.93-1.74-.25-.61-.44-1.24-.57-1.89s-.19-1.3-.19-1.96v-46.97c0-.66.06-1.32.19-1.96s.32-1.28.57-1.89c.25-.61.56-1.19.93-1.74.37-.55.78-1.06,1.25-1.53.47-.47.98-.88,1.53-1.25.55-.37,1.13-.68,1.74-.93.61-.25,1.24-.44,1.89-.57.65-.13,1.3-.19,1.96-.19Z"/>
  <path class="f" d="m524.39,146.97h106.41c.66,0,1.32.06,1.96.19.65.13,1.28.32,1.89.57.61.25,1.19.56,1.74.93s1.06.78,1.53,1.25c.47.47.88.98,1.25,1.53.37.55.68,1.13.93,1.74.25.61.44,1.24.57,1.89.13.65.19,1.3.19,1.96v46.97c0,.66-.06,1.32-.19,1.96-.13.65-.32,1.28-.57,1.89-.25.61-.56,1.19-.93,1.74-.37.55-.78,1.06-1.25,1.53-.47.47-.98.88-1.53,1.25s-1.13.68-1.74.93c-.61.25-1.24.44-1.89.57-.65.13-1.3.19-1.96.19h-106.41c-.66,0-1.32-.06-1.96-.19-.65-.13-1.28-.32-1.89-.57s-1.19-.56-1.74-.93c-.55-.37-1.06-.78-1.53-1.25-.47-.47-.88-.98-1.25-1.53-.37-.55-.68-1.13-.93-1.74-.25-.61-.44-1.24-.57-1.89s-.19-1.3-.19-1.96v-46.97c0-.66.06-1.32.19-1.96s.32-1.28.57-1.89c.25-.61.56-1.19.93-1.74.37-.55.78-1.06,1.25-1.53.47-.47.98-.88,1.53-1.25.55-.37,1.13-.68,1.74-.93.61-.25,1.24-.44,1.89-.57.65-.13,1.3-.19,1.96-.19Z"/>
  <path class="c" d="m534.94,158.15h106.41c.66,0,1.32.06,1.96.19.65.13,1.28.32,1.89.57.61.25,1.19.56,1.74.93.55.37,1.06.78,1.53,1.25.47.47.88.98,1.25,1.53.37.55.68,1.13.93,1.74s.44,1.24.57,1.89.19,1.3.19,1.96v46.97c0,.66-.06,1.32-.19,1.96-.13.65-.32,1.28-.57,1.89s-.56,1.19-.93,1.74-.78,1.06-1.25,1.53c-.47.47-.98.88-1.53,1.25-.55.37-1.13.68-1.74.93s-1.24.44-1.89.57c-.65.13-1.3.19-1.96.19h-106.41c-.66,0-1.32-.06-1.96-.19-.65-.13-1.28-.32-1.89-.57s-1.19-.56-1.74-.93-1.06-.78-1.53-1.25c-.47-.47-.88-.98-1.25-1.53-.37-.55-.68-1.13-.93-1.74s-.44-1.24-.57-1.89c-.13-.65-.19-1.3-.19-1.96v-46.97c0-.66.06-1.32.19-1.96.13-.65.32-1.28.57-1.89s.56-1.19.93-1.74c.37-.55.78-1.06,1.25-1.53.47-.47.98-.88,1.53-1.25.55-.37,1.13-.68,1.74-.93s1.24-.44,1.89-.57c.65-.13,1.3-.19,1.96-.19Z"/>
  <path class="f" d="m534.94,158.15h106.41c.66,0,1.32.06,1.96.19.65.13,1.28.32,1.89.57.61.25,1.19.56,1.74.93.55.37,1.06.78,1.53,1.25.47.47.88.98,1.25,1.53.37.55.68,1.13.93,1.74s.44,1.24.57,1.89.19,1.3.19,1.96v46.97c0,.66-.06,1.32-.19,1.96-.13.65-.32,1.28-.57,1.89s-.56,1.19-.93,1.74-.78,1.06-1.25,1.53c-.47.47-.98.88-1.53,1.25-.55.37-1.13.68-1.74.93s-1.24.44-1.89.57c-.65.13-1.3.19-1.96.19h-106.41c-.66,0-1.32-.06-1.96-.19-.65-.13-1.28-.32-1.89-.57s-1.19-.56-1.74-.93-1.06-.78-1.53-1.25c-.47-.47-.88-.98-1.25-1.53-.37-.55-.68-1.13-.93-1.74s-.44-1.24-.57-1.89c-.13-.65-.19-1.3-.19-1.96v-46.97c0-.66.06-1.32.19-1.96.13-.65.32-1.28.57-1.89s.56-1.19.93-1.74c.37-.55.78-1.06,1.25-1.53.47-.47.98-.88,1.53-1.25.55-.37,1.13-.68,1.74-.93s1.24-.44,1.89-.57c.65-.13,1.3-.19,1.96-.19Z"/>
  <path class="c" d="m545.48,169.33h106.41c.66,0,1.32.06,1.96.19.65.13,1.28.32,1.89.57.61.25,1.19.56,1.74.93.55.37,1.06.78,1.53,1.25.47.47.88.98,1.25,1.53.37.55.68,1.13.93,1.74s.44,1.24.57,1.89c.13.65.19,1.3.19,1.96v46.97c0,.66-.06,1.32-.19,1.96-.13.65-.32,1.28-.57,1.89-.25.61-.56,1.19-.93,1.74-.37.55-.78,1.06-1.25,1.53s-.98.88-1.53,1.25-1.13.68-1.74.93c-.61.25-1.24.44-1.89.57s-1.3.19-1.96.19h-106.41c-.66,0-1.32-.06-1.96-.19s-1.28-.32-1.89-.57c-.61-.25-1.19-.56-1.74-.93s-1.06-.78-1.53-1.25c-.47-.47-.88-.98-1.25-1.53-.37-.55-.68-1.13-.93-1.74s-.44-1.24-.57-1.89c-.13-.65-.19-1.3-.19-1.96v-46.97c0-.66.06-1.32.19-1.96.13-.65.32-1.28.57-1.89s.56-1.19.93-1.74c.37-.55.78-1.06,1.25-1.53.47-.47.98-.88,1.53-1.25s1.13-.68,1.74-.93c.61-.25,1.24-.44,1.89-.57.65-.13,1.3-.19,1.96-.19Z"/>
  <path class="f" d="m545.48,169.33h106.41c.66,0,1.32.06,1.96.19.65.13,1.28.32,1.89.57.61.25,1.19.56,1.74.93.55.37,1.06.78,1.53,1.25.47.47.88.98,1.25,1.53.37.55.68,1.13.93,1.74s.44,1.24.57,1.89c.13.65.19,1.3.19,1.96v46.97c0,.66-.06,1.32-.19,1.96-.13.65-.32,1.28-.57,1.89-.25.61-.56,1.19-.93,1.74-.37.55-.78,1.06-1.25,1.53s-.98.88-1.53,1.25-1.13.68-1.74.93c-.61.25-1.24.44-1.89.57s-1.3.19-1.96.19h-106.41c-.66,0-1.32-.06-1.96-.19s-1.28-.32-1.89-.57c-.61-.25-1.19-.56-1.74-.93s-1.06-.78-1.53-1.25c-.47-.47-.88-.98-1.25-1.53-.37-.55-.68-1.13-.93-1.74s-.44-1.24-.57-1.89c-.13-.65-.19-1.3-.19-1.96v-46.97c0-.66.06-1.32.19-1.96.13-.65.32-1.28.57-1.89s.56-1.19.93-1.74c.37-.55.78-1.06,1.25-1.53.47-.47.98-.88,1.53-1.25s1.13-.68,1.74-.93c.61-.25,1.24-.44,1.89-.57.65-.13,1.3-.19,1.96-.19Z"/>
  <path class="c" d="m556.03,180.52h106.41c.66,0,1.32.06,1.96.19s1.28.32,1.89.57,1.19.56,1.74.93,1.06.78,1.53,1.25c.47.47.88.98,1.25,1.53.37.55.68,1.13.93,1.74.25.61.44,1.24.57,1.89.13.65.19,1.3.19,1.96v46.97c0,.66-.06,1.32-.19,1.96-.13.65-.32,1.28-.57,1.89-.25.61-.56,1.19-.93,1.74-.37.55-.78,1.06-1.25,1.53-.47.47-.98.88-1.53,1.25s-1.13.68-1.74.93-1.24.44-1.89.57-1.3.19-1.96.19h-106.41c-.66,0-1.32-.06-1.96-.19-.65-.13-1.28-.32-1.89-.57-.61-.25-1.19-.56-1.74-.93-.55-.37-1.06-.78-1.53-1.25-.47-.47-.88-.98-1.25-1.53-.37-.55-.68-1.13-.93-1.74s-.44-1.24-.57-1.89c-.13-.65-.19-1.3-.19-1.96v-46.97c0-.66.06-1.32.19-1.96.13-.65.32-1.28.57-1.89s.56-1.19.93-1.74c.37-.55.78-1.06,1.25-1.53.47-.47.98-.88,1.53-1.25.55-.37,1.13-.68,1.74-.93.61-.25,1.24-.44,1.89-.57.65-.13,1.3-.19,1.96-.19Z"/>
  <path class="f" d="m556.03,180.52h106.41c.66,0,1.32.06,1.96.19s1.28.32,1.89.57,1.19.56,1.74.93,1.06.78,1.53,1.25c.47.47.88.98,1.25,1.53.37.55.68,1.13.93,1.74.25.61.44,1.24.57,1.89.13.65.19,1.3.19,1.96v46.97c0,.66-.06,1.32-.19,1.96-.13.65-.32,1.28-.57,1.89-.25.61-.56,1.19-.93,1.74-.37.55-.78,1.06-1.25,1.53-.47.47-.98.88-1.53,1.25s-1.13.68-1.74.93-1.24.44-1.89.57-1.3.19-1.96.19h-106.41c-.66,0-1.32-.06-1.96-.19-.65-.13-1.28-.32-1.89-.57-.61-.25-1.19-.56-1.74-.93-.55-.37-1.06-.78-1.53-1.25-.47-.47-.88-.98-1.25-1.53-.37-.55-.68-1.13-.93-1.74s-.44-1.24-.57-1.89c-.13-.65-.19-1.3-.19-1.96v-46.97c0-.66.06-1.32.19-1.96.13-.65.32-1.28.57-1.89s.56-1.19.93-1.74c.37-.55.78-1.06,1.25-1.53.47-.47.98-.88,1.53-1.25.55-.37,1.13-.68,1.74-.93.61-.25,1.24-.44,1.89-.57.65-.13,1.3-.19,1.96-.19Z"/>
  <g>
    <path d="m583.1,216.35v-6.18h1.23l1.46,4.37c.14.41.23.71.29.91.07-.23.18-.55.33-.99l1.48-4.3h1.1v6.18h-.79v-5.17l-1.79,5.17h-.74l-1.79-5.26v5.26h-.79Z"/>
    <path d="m590.21,211.04v-.87h.76v.87h-.76Zm0,5.3v-4.47h.76v4.47h-.76Z"/>
    <path d="m595.05,214.71l.75.1c-.08.51-.29.92-.63,1.21-.34.29-.75.44-1.24.44-.61,0-1.1-.2-1.48-.6-.37-.4-.56-.97-.56-1.72,0-.48.08-.91.24-1.27s.4-.63.73-.81.68-.27,1.07-.27c.49,0,.88.12,1.19.37.31.25.51.59.59,1.05l-.74.11c-.07-.3-.19-.53-.37-.68-.18-.15-.39-.23-.65-.23-.38,0-.69.14-.93.41-.24.27-.36.71-.36,1.3s.12,1.04.35,1.31c.23.27.53.41.9.41.3,0,.55-.09.75-.27.2-.18.33-.46.38-.84Z"/>
    <path d="m596.43,216.35v-4.47h.68v.68c.17-.32.33-.53.48-.63s.31-.15.49-.15c.26,0,.52.08.78.24l-.26.7c-.19-.11-.37-.16-.56-.16-.17,0-.31.05-.45.15-.13.1-.23.24-.28.42-.08.27-.13.56-.13.88v2.34h-.76Z"/>
    <path d="m599.03,214.11c0-.83.23-1.44.69-1.84.38-.33.85-.5,1.41-.5.62,0,1.12.2,1.51.6.39.4.59.96.59,1.67,0,.58-.09,1.03-.26,1.36-.17.33-.42.59-.75.77s-.69.27-1.08.27c-.63,0-1.13-.2-1.52-.6-.39-.4-.58-.98-.58-1.74Zm.78,0c0,.57.12,1,.38,1.29.25.29.56.43.94.43s.69-.14.94-.43.38-.72.38-1.31c0-.55-.13-.97-.38-1.26-.25-.29-.56-.43-.94-.43s-.69.14-.94.43-.38.71-.38,1.29Z"/>
    <path d="m603.81,215.01l.75-.12c.04.3.16.53.35.69.19.16.46.24.81.24s.61-.07.77-.21c.17-.14.25-.31.25-.5,0-.17-.07-.31-.22-.4-.1-.07-.36-.15-.78-.26-.56-.14-.94-.26-1.16-.36s-.38-.24-.49-.43-.17-.38-.17-.6c0-.2.05-.38.14-.55s.22-.31.37-.42c.12-.09.28-.16.48-.22s.42-.09.66-.09c.35,0,.66.05.92.15.27.1.46.24.59.41s.21.4.26.69l-.74.1c-.03-.23-.13-.41-.29-.54-.16-.13-.39-.19-.68-.19-.35,0-.6.06-.75.17s-.22.25-.22.4c0,.1.03.19.09.27.06.08.16.15.29.2.08.03.3.09.67.19.54.14.91.26,1.12.35.21.09.38.22.5.4.12.17.18.39.18.65s-.07.49-.22.71c-.15.22-.36.4-.64.52-.28.12-.59.18-.94.18-.58,0-1.02-.12-1.33-.36-.3-.24-.5-.6-.58-1.07Z"/>
    <path d="m611.49,214.91l.78.1c-.12.46-.35.81-.69,1.07-.33.25-.76.38-1.28.38-.65,0-1.17-.2-1.56-.6s-.58-.97-.58-1.7.19-1.34.58-1.75c.39-.42.89-.62,1.51-.62s1.09.2,1.47.61c.38.41.57.98.57,1.72,0,.05,0,.11,0,.2h-3.34c.03.49.17.87.42,1.13s.56.39.94.39c.28,0,.52-.07.71-.22.2-.15.35-.38.47-.7Zm-2.49-1.23h2.5c-.03-.38-.13-.66-.29-.85-.24-.29-.55-.44-.94-.44-.35,0-.64.12-.88.35-.24.23-.37.54-.39.94Z"/>
    <path d="m613.22,216.35v-4.47h.68v.68c.17-.32.33-.53.48-.63s.31-.15.49-.15c.26,0,.52.08.78.24l-.26.7c-.19-.11-.37-.16-.56-.16-.17,0-.31.05-.45.15-.13.1-.23.24-.28.42-.08.27-.13.56-.13.88v2.34h-.76Z"/>
    <path d="m617.34,216.35l-1.7-4.47h.8l.96,2.68c.1.29.2.59.29.9.07-.24.16-.52.28-.85l.99-2.73h.78l-1.69,4.47h-.71Z"/>
    <path d="m620.42,211.04v-.87h.76v.87h-.76Zm0,5.3v-4.47h.76v4.47h-.76Z"/>
    <path d="m625.25,214.71l.75.1c-.08.51-.29.92-.63,1.21-.34.29-.75.44-1.24.44-.61,0-1.1-.2-1.48-.6-.37-.4-.56-.97-.56-1.72,0-.48.08-.91.24-1.27s.4-.63.73-.81.68-.27,1.07-.27c.49,0,.88.12,1.19.37.31.25.51.59.59,1.05l-.74.11c-.07-.3-.19-.53-.37-.68-.18-.15-.39-.23-.65-.23-.38,0-.69.14-.93.41-.24.27-.36.71-.36,1.3s.12,1.04.35,1.31c.23.27.53.41.9.41.3,0,.55-.09.75-.27.2-.18.33-.46.38-.84Z"/>
    <path d="m629.71,214.91l.78.1c-.12.46-.35.81-.69,1.07-.33.25-.76.38-1.28.38-.65,0-1.17-.2-1.56-.6s-.58-.97-.58-1.7.19-1.34.58-1.75c.39-.42.89-.62,1.51-.62s1.09.2,1.47.61c.38.41.57.98.57,1.72,0,.05,0,.11,0,.2h-3.34c.03.49.17.87.42,1.13s.56.39.94.39c.28,0,.52-.07.71-.22.2-.15.35-.38.47-.7Zm-2.49-1.23h2.5c-.03-.38-.13-.66-.29-.85-.24-.29-.55-.44-.94-.44-.35,0-.64.12-.88.35-.24.23-.37.54-.39.94Z"/>
    <path d="m631.14,215.01l.75-.12c.04.3.16.53.35.69.19.16.46.24.81.24s.61-.07.77-.21c.17-.14.25-.31.25-.5,0-.17-.07-.31-.22-.4-.1-.07-.36-.15-.78-.26-.56-.14-.94-.26-1.16-.36s-.38-.24-.49-.43-.17-.38-.17-.6c0-.2.05-.38.14-.55s.22-.31.37-.42c.12-.09.28-.16.48-.22s.42-.09.66-.09c.35,0,.66.05.92.15.27.1.46.24.59.41s.21.4.26.69l-.74.1c-.03-.23-.13-.41-.29-.54-.16-.13-.39-.19-.68-.19-.35,0-.6.06-.75.17s-.22.25-.22.4c0,.1.03.19.09.27.06.08.16.15.29.2.08.03.3.09.67.19.54.14.91.26,1.12.35.21.09.38.22.5.4.12.17.18.39.18.65s-.07.49-.22.71c-.15.22-.36.4-.64.52-.28.12-.59.18-.94.18-.58,0-1.02-.12-1.33-.36-.3-.24-.5-.6-.58-1.07Z"/>
  </g>
  <polygon class="d" points="159.46 247.62 159.46 254.81 46.7 254.81 46.7 261.38 27.17 251.22 46.7 241.05 46.7 247.62 159.46 247.62"/>
  <rect class="c" x="76.06" y="255.89" width="43.86" height="9.35"/>
  <g>
    <path d="m76.17,258.16v-.67h3.67v.54c-.36.38-.72.89-1.07,1.53-.35.64-.63,1.29-.82,1.96-.14.47-.23.99-.27,1.56h-.71c0-.45.1-.98.26-1.61s.41-1.24.72-1.82c.31-.59.65-1.08,1-1.48h-2.77Z"/>
    <path d="m80.91,263.08v-.79h.79v.79h-.79Z"/>
    <path d="m85.21,263.08v-5.66h2.51c.5,0,.89.05,1.15.15.26.1.47.28.63.54.16.26.24.54.24.85,0,.4-.13.74-.39,1.02-.26.28-.66.45-1.21.53.2.1.35.19.45.28.22.2.43.45.62.75l.98,1.54h-.94l-.75-1.18c-.22-.34-.4-.6-.54-.78s-.27-.31-.38-.38c-.11-.07-.23-.12-.34-.15-.08-.02-.22-.03-.42-.03h-.87v2.51h-.75Zm.75-3.16h1.61c.34,0,.61-.04.8-.11.19-.07.34-.18.44-.34s.15-.32.15-.51c0-.27-.1-.49-.29-.66s-.5-.26-.92-.26h-1.79v1.87Z"/>
    <path d="m93.63,261.76l.72.09c-.11.42-.32.75-.63.98-.31.23-.7.35-1.17.35-.6,0-1.08-.18-1.43-.55-.35-.37-.53-.89-.53-1.55s.18-1.23.53-1.61c.35-.38.82-.57,1.38-.57s1,.19,1.34.56c.35.37.52.9.52,1.58,0,.04,0,.1,0,.19h-3.06c.03.45.15.8.38,1.04.23.24.52.36.86.36.25,0,.47-.07.65-.2s.32-.35.43-.64Zm-2.28-1.12h2.29c-.03-.35-.12-.6-.26-.78-.22-.27-.51-.4-.86-.4-.32,0-.59.11-.81.32-.22.21-.34.5-.36.86Z"/>
    <path d="m94.94,261.86l.69-.11c.04.28.15.49.32.63.18.15.42.22.74.22s.56-.06.71-.19.23-.28.23-.46c0-.16-.07-.28-.21-.37-.1-.06-.33-.14-.71-.24-.51-.13-.86-.24-1.06-.33-.2-.09-.35-.22-.45-.39s-.15-.35-.15-.55c0-.18.04-.35.13-.51.08-.16.2-.29.34-.39.11-.08.26-.15.44-.2.19-.06.39-.08.6-.08.32,0,.6.05.85.14s.42.22.54.38.2.37.24.64l-.68.09c-.03-.21-.12-.38-.27-.49-.15-.12-.36-.18-.63-.18-.32,0-.55.05-.68.16-.14.11-.2.23-.2.37,0,.09.03.17.08.24.06.07.15.14.27.19.07.03.27.08.61.18.49.13.83.24,1.03.32.19.08.35.21.46.37.11.16.17.36.17.59s-.07.45-.2.65c-.14.2-.33.36-.59.48-.25.11-.54.17-.86.17-.53,0-.94-.11-1.22-.33-.28-.22-.46-.55-.54-.98Z"/>
    <path d="m99.17,264.65v-5.67h.63v.53c.15-.21.32-.36.51-.47.19-.1.42-.16.68-.16.35,0,.66.09.93.27.27.18.47.43.61.76.14.33.21.69.21,1.08,0,.42-.08.8-.23,1.13-.15.34-.37.59-.66.77-.29.18-.59.27-.91.27-.23,0-.44-.05-.62-.15-.18-.1-.34-.22-.45-.37v2h-.69Zm.63-3.6c0,.53.11.92.32,1.17.21.25.47.38.78.38s.57-.13.79-.39.33-.67.33-1.21-.11-.91-.32-1.17c-.21-.26-.47-.39-.77-.39s-.56.14-.79.42c-.23.28-.34.68-.34,1.21Z"/>
    <path d="m103.31,261.03c0-.76.21-1.32.63-1.69.35-.3.78-.46,1.29-.46.56,0,1.02.19,1.38.55.36.37.54.88.54,1.53,0,.53-.08.94-.24,1.25-.16.3-.39.54-.69.71-.3.17-.63.25-.99.25-.57,0-1.04-.18-1.39-.55s-.53-.9-.53-1.59Zm.71,0c0,.53.11.92.34,1.18.23.26.52.39.86.39s.63-.13.86-.39c.23-.26.34-.66.34-1.2,0-.51-.12-.89-.35-1.15s-.52-.39-.86-.39-.64.13-.86.39c-.23.26-.34.65-.34,1.18Z"/>
    <path d="m107.97,263.08v-4.1h.63v.58c.3-.45.74-.68,1.31-.68.25,0,.47.04.68.13.21.09.36.21.47.35s.17.32.22.51c.03.13.04.35.04.68v2.52h-.7v-2.49c0-.28-.03-.5-.08-.64-.05-.14-.15-.25-.29-.34s-.3-.13-.48-.13c-.3,0-.55.09-.77.28-.22.19-.32.54-.32,1.07v2.24h-.69Z"/>
    <path d="m112.09,261.86l.69-.11c.04.28.15.49.32.63.18.15.42.22.74.22s.56-.06.71-.19.23-.28.23-.46c0-.16-.07-.28-.21-.37-.1-.06-.33-.14-.71-.24-.51-.13-.86-.24-1.06-.33-.2-.09-.35-.22-.45-.39s-.15-.35-.15-.55c0-.18.04-.35.13-.51.08-.16.2-.29.34-.39.11-.08.26-.15.44-.2.19-.06.39-.08.6-.08.32,0,.6.05.85.14s.42.22.54.38.2.37.24.64l-.68.09c-.03-.21-.12-.38-.27-.49-.15-.12-.36-.18-.63-.18-.32,0-.55.05-.68.16-.14.11-.2.23-.2.37,0,.09.03.17.08.24.06.07.15.14.27.19.07.03.27.08.61.18.49.13.83.24,1.03.32.19.08.35.21.46.37.11.16.17.36.17.59s-.07.45-.2.65c-.14.2-.33.36-.59.48-.25.11-.54.17-.86.17-.53,0-.94-.11-1.22-.33-.28-.22-.46-.55-.54-.98Z"/>
    <path d="m119.13,261.76l.72.09c-.11.42-.32.75-.63.98-.31.23-.7.35-1.17.35-.6,0-1.08-.18-1.43-.55-.35-.37-.53-.89-.53-1.55s.18-1.23.53-1.61c.35-.38.82-.57,1.38-.57s1,.19,1.34.56c.35.37.52.9.52,1.58,0,.04,0,.1,0,.19h-3.06c.03.45.15.8.38,1.04.23.24.52.36.86.36.25,0,.47-.07.65-.2s.32-.35.43-.64Zm-2.28-1.12h2.29c-.03-.35-.12-.6-.26-.78-.22-.27-.51-.4-.86-.4-.32,0-.59.11-.81.32-.22.21-.34.5-.36.86Z"/>
  </g>
  <polygon class="d" points="27.17 146.97 27.17 139.78 139.94 139.78 139.94 133.21 159.46 143.37 139.94 153.54 139.94 146.97 27.17 146.97"/>
  <rect class="c" x="71.03" y="127.91" width="38.11" height="9.35"/>
  <g>
    <path d="m73.91,135.1h-.69v-4.43c-.17.16-.39.32-.66.48-.27.16-.52.28-.73.36v-.67c.39-.18.73-.4,1.02-.66.29-.26.5-.51.62-.76h.45v5.68Z"/>
    <path d="m76.08,135.1v-.79h.79v.79h-.79Z"/>
    <path d="m80.38,135.1v-5.66h2.51c.5,0,.89.05,1.15.15.26.1.47.28.63.54.16.26.24.54.24.85,0,.4-.13.74-.39,1.02-.26.28-.66.45-1.21.53.2.1.35.19.45.28.22.2.43.45.62.75l.98,1.54h-.94l-.75-1.18c-.22-.34-.4-.6-.54-.78s-.27-.31-.38-.38c-.11-.07-.23-.12-.34-.15-.08-.02-.22-.03-.42-.03h-.87v2.51h-.75Zm.75-3.16h1.61c.34,0,.61-.04.8-.11.19-.07.34-.18.44-.34s.15-.32.15-.51c0-.27-.1-.49-.29-.66s-.5-.26-.92-.26h-1.79v1.87Z"/>
    <path d="m88.79,133.78l.72.09c-.11.42-.32.75-.63.98-.31.23-.7.35-1.17.35-.6,0-1.08-.18-1.43-.55-.35-.37-.53-.89-.53-1.55s.18-1.23.53-1.61c.35-.38.82-.57,1.38-.57s1,.19,1.34.56c.35.37.52.9.52,1.58,0,.04,0,.1,0,.19h-3.06c.03.45.15.8.38,1.04.23.24.52.36.86.36.25,0,.47-.07.65-.2s.32-.35.43-.64Zm-2.28-1.12h2.29c-.03-.35-.12-.6-.26-.78-.22-.27-.51-.4-.86-.4-.32,0-.59.11-.81.32-.22.21-.34.5-.36.86Z"/>
    <path d="m93,136.68v-2.01c-.11.15-.26.28-.45.38-.19.1-.4.15-.62.15-.49,0-.91-.19-1.26-.58s-.53-.92-.53-1.6c0-.41.07-.78.21-1.11.14-.33.35-.57.62-.74.27-.17.57-.25.89-.25.51,0,.91.21,1.2.64v-.55h.63v5.67h-.69Zm-2.14-3.63c0,.53.11.92.33,1.19.22.26.49.4.8.4s.55-.13.76-.38c.21-.25.32-.63.32-1.15,0-.55-.11-.96-.34-1.23-.23-.28-.49-.41-.79-.41s-.56.13-.77.38c-.21.26-.31.66-.31,1.2Z"/>
    <path d="m97.47,135.1v-.6c-.32.46-.75.7-1.3.7-.24,0-.47-.05-.68-.14s-.37-.21-.47-.35c-.1-.14-.17-.31-.21-.52-.03-.14-.04-.35-.04-.65v-2.54h.7v2.27c0,.36.01.61.04.73.04.18.14.33.28.43.14.1.32.16.53.16s.4-.05.59-.16c.18-.11.31-.25.39-.44.08-.18.11-.45.11-.8v-2.2h.69v4.1h-.62Z"/>
    <path d="m101.99,133.78l.72.09c-.11.42-.32.75-.63.98-.31.23-.7.35-1.17.35-.6,0-1.08-.18-1.43-.55-.35-.37-.53-.89-.53-1.55s.18-1.23.53-1.61c.35-.38.82-.57,1.38-.57s1,.19,1.34.56c.35.37.52.9.52,1.58,0,.04,0,.1,0,.19h-3.06c.03.45.15.8.38,1.04.23.24.52.36.86.36.25,0,.47-.07.65-.2s.32-.35.43-.64Zm-2.28-1.12h2.29c-.03-.35-.12-.6-.26-.78-.22-.27-.51-.4-.86-.4-.32,0-.59.11-.81.32-.22.21-.34.5-.36.86Z"/>
    <path d="m103.3,133.88l.69-.11c.04.28.15.49.32.63.18.15.42.22.74.22s.56-.06.71-.19.23-.28.23-.46c0-.16-.07-.28-.21-.37-.1-.06-.33-.14-.71-.24-.51-.13-.86-.24-1.06-.33-.2-.09-.35-.22-.45-.39s-.15-.35-.15-.55c0-.18.04-.35.13-.51.08-.16.2-.29.34-.39.11-.08.26-.15.44-.2.19-.06.39-.08.6-.08.32,0,.6.05.85.14s.42.22.54.38.2.37.24.64l-.68.09c-.03-.21-.12-.38-.27-.49-.15-.12-.36-.18-.63-.18-.32,0-.55.05-.68.16-.14.11-.2.23-.2.37,0,.09.03.17.08.24.06.07.15.14.27.19.07.03.27.08.61.18.49.13.83.24,1.03.32.19.08.35.21.46.37.11.16.17.36.17.59s-.07.45-.2.65c-.14.2-.33.36-.59.48-.25.11-.54.17-.86.17-.53,0-.94-.11-1.22-.33-.28-.22-.46-.55-.54-.98Z"/>
    <path d="m109.05,134.48l.1.61c-.2.04-.37.06-.52.06-.25,0-.45-.04-.59-.12-.14-.08-.24-.19-.29-.31s-.08-.4-.08-.82v-2.36h-.51v-.54h.51v-1.02l.69-.42v1.43h.7v.54h-.7v2.4c0,.2.01.33.04.38.02.06.06.1.12.14.06.03.13.05.24.05.08,0,.18,0,.31-.03Z"/>
  </g>
  <g>
    <path class="k" d="m244.55,140.26v-10.04c-.02-.36.18-.7.51-.86l17.31-10c.31-.19.66-.23.97-.04l17.39,10.04c.3.17.48.51.47.86v20.03c.02.35-.16.68-.47.86l-14.94,8.63c-.78.47-1.57.92-2.37,1.36-.35.19-.7.19-1.05,0l-17.35-10c-.31-.19-.47-.43-.47-.82v-10.04h0Z"/>
    <path class="m" d="m256.8,136.52v11.7c0,1.32-1.05,2.49-2.45,2.45-.85-.04-1.52-.39-1.97-1.13-.23-.35-.31-.74-.31-1.17v-16.25c0-1.09.66-1.87,1.52-2.22s1.71-.27,2.57,0c.82.23,1.44.74,1.97,1.36l10.35,12.41s.08.12.16.19v-11.83c0-1.24.85-2.22,2.06-2.33,1.52-.19,2.53.89,2.68,2.02v16.56c0,.92-.43,1.6-1.21,2.02-.58.31-1.21.39-1.87.35-.95-.06-1.86-.45-2.57-1.09-.39-.35-.66-.78-1.01-1.17l-9.84-11.79s-.04-.08-.08-.12h0Z"/>
  </g>
</svg>