<?xml version="1.0" encoding="UTF-8" standalone="no"?>
<!DOCTYPE svg PUBLIC "-//W3C//DTD SVG 1.1//EN"
 "http://www.w3.org/Graphics/SVG/1.1/DTD/svg11.dtd">
<!-- Generated by graphviz version 7.0.6 (20230106.0513)
 -->
<!-- Pages: 1 -->
<svg width="3717pt" height="1696pt"
 viewBox="0.00 0.00 3717.10 1696.00" xmlns="http://www.w3.org/2000/svg" xmlns:xlink="http://www.w3.org/1999/xlink">
<g id="graph0" class="graph" transform="scale(1 1) rotate(0) translate(4 1692)">
<polygon fill="white" stroke="none" points="-4,4 -4,-1692 3713.1,-1692 3713.1,4 -4,4"/>
<g id="clust1" class="cluster">
<title>cluster_s1</title>
<polygon fill="none" stroke="black" points="18.4,-341 18.4,-554 580.39,-554 580.39,-341 18.4,-341"/>
<text text-anchor="middle" x="299.39" y="-538.8" font-family="Times,serif" font-size="14.00">ArithmeticCombinator[0]</text>
</g>
<g id="clust4" class="cluster">
<title>cluster_s6</title>
<polygon fill="none" stroke="black" points="1103.66,-567 1103.66,-780 2150.24,-780 2150.24,-567 1103.66,-567"/>
<text text-anchor="middle" x="1626.95" y="-764.8" font-family="Times,serif" font-size="14.00">ArithmeticCombinator[1]</text>
</g>
<g id="clust7" class="cluster">
<title>cluster_s11</title>
<polygon fill="none" stroke="black" points="1631.35,-1334 1631.35,-1547 2150.24,-1547 2150.24,-1334 1631.35,-1334"/>
<text text-anchor="middle" x="1890.79" y="-1531.8" font-family="Times,serif" font-size="14.00">ArithmeticCombinator[2]</text>
</g>
<g id="clust10" class="cluster">
<title>cluster_s15</title>
<polygon fill="none" stroke="black" points="1103.66,-788 1103.66,-1001 2150.24,-1001 2150.24,-788 1103.66,-788"/>
<text text-anchor="middle" x="1626.95" y="-985.8" font-family="Times,serif" font-size="14.00">ArithmeticCombinator[3]</text>
</g>
<g id="clust13" class="cluster">
<title>cluster_s20</title>
<polygon fill="none" stroke="black" points="1977.45,-8 1977.45,-221 3066.72,-221 3066.72,-8 1977.45,-8"/>
<text text-anchor="middle" x="2522.08" y="-205.8" font-family="Times,serif" font-size="14.00">ArithmeticCombinator[4]</text>
</g>
<g id="clust16" class="cluster">
<title>cluster_s50</title>
<polygon fill="none" stroke="black" points="970.47,-1068 970.47,-1613 1399.25,-1613 1399.25,-1068 970.47,-1068"/>
<text text-anchor="middle" x="1184.86" y="-1597.8" font-family="Times,serif" font-size="14.00">ConcurrencyLimiter[11]</text>
</g>
<g id="clust17" class="cluster">
<title>cluster_s54</title>
<polygon fill="none" stroke="black" points="1054.27,-1381 1054.27,-1540 1315.45,-1540 1315.45,-1381 1054.27,-1381"/>
<text text-anchor="middle" x="1184.86" y="-1524.8" font-family="Times,serif" font-size="14.00">LoadActuator[11.LoadActuator]</text>
</g>
<g id="clust19" class="cluster">
<title>cluster_s51</title>
<polygon fill="none" stroke="black" points="1020.47,-1118 1020.47,-1331 1349.25,-1331 1349.25,-1118 1020.47,-1118"/>
<text text-anchor="middle" x="1184.86" y="-1315.8" font-family="Times,serif" font-size="14.00">Scheduler[11.Scheduler]</text>
</g>
<g id="clust21" class="cluster">
<title>cluster_s56</title>
<polygon fill="none" stroke="black" points="2492.38,-538 2492.38,-751 3066.72,-751 3066.72,-538 2492.38,-538"/>
<text text-anchor="middle" x="2779.55" y="-735.8" font-family="Times,serif" font-size="14.00">Decider[12]</text>
</g>
<g id="clust24" class="cluster">
<title>cluster_s36</title>
<polygon fill="none" stroke="black" points="672.39,-346 672.39,-559 1276.46,-559 1276.46,-346 672.39,-346"/>
<text text-anchor="middle" x="974.42" y="-543.8" font-family="Times,serif" font-size="14.00">EMA[8]</text>
</g>
<g id="clust27" class="cluster">
<title>cluster_s47</title>
<polygon fill="none" stroke="black" points="2484.28,-1470 2484.28,-1629 3066.72,-1629 3066.72,-1470 2484.28,-1470"/>
<text text-anchor="middle" x="2775.5" y="-1613.8" font-family="Times,serif" font-size="14.00">Extrapolator[10]</text>
</g>
<g id="clust30" class="cluster">
<title>cluster_s40</title>
<polygon fill="none" stroke="black" points="2434.24,-884 2434.24,-1259 3066.72,-1259 3066.72,-884 2434.24,-884"/>
<text text-anchor="middle" x="2750.48" y="-1243.8" font-family="Times,serif" font-size="14.00">Gradient[9]</text>
</g>
<g id="clust33" class="cluster">
<title>cluster_s25</title>
<polygon fill="none" stroke="black" points="3410.72,-643 3410.72,-964 3701.1,-964 3701.1,-643 3410.72,-643"/>
<text text-anchor="middle" x="3555.91" y="-948.8" font-family="Times,serif" font-size="14.00">Integrator[5]</text>
</g>
<g id="clust36" class="cluster">
<title>cluster_s34</title>
<polygon fill="none" stroke="black" points="8,-594 8,-753 191.19,-753 191.19,-594 8,-594"/>
<text text-anchor="middle" x="99.6" y="-737.8" font-family="Times,serif" font-size="14.00">PromQL[7]</text>
</g>
<g id="clust38" class="cluster">
<title>cluster_s31</title>
<polygon fill="none" stroke="black" points="1623.25,-1009 1623.25,-1168 2150.24,-1168 2150.24,-1009 1623.25,-1009"/>
<text text-anchor="middle" x="1886.75" y="-1152.8" font-family="Times,serif" font-size="14.00">Sqrt[6]</text>
</g>
<!-- n4 -->
<g id="node1" class="node">
<title>n4</title>
<ellipse fill="none" stroke="black" cx="99.6" cy="-409" rx="31.4" ry="18"/>
<text text-anchor="middle" x="99.6" y="-405.3" font-family="Times,serif" font-size="14.00">2.00</text>
</g>
<!-- n3 -->
<g id="node4" class="node">
<title>n3</title>
<ellipse fill="none" stroke="black" cx="314.19" cy="-409" rx="27" ry="18"/>
<text text-anchor="middle" x="314.19" y="-405.3" font-family="Times,serif" font-size="14.00">rhs</text>
</g>
<!-- n4&#45;&gt;n3 -->
<g id="edge1" class="edge">
<title>n4&#45;&gt;n3</title>
<path fill="none" stroke="black" d="M131.26,-409C131.26,-409 275.31,-409 275.31,-409"/>
<polygon fill="black" stroke="black" points="275.31,-412.5 285.31,-409 275.31,-405.5 275.31,-412.5"/>
</g>
<!-- n2 -->
<g id="node2" class="node">
<title>n2</title>
<ellipse fill="none" stroke="black" cx="314.19" cy="-463" rx="27" ry="18"/>
<text text-anchor="middle" x="314.19" y="-459.3" font-family="Times,serif" font-size="14.00">lhs</text>
</g>
<!-- n5 -->
<g id="node3" class="node">
<title>n5</title>
<ellipse fill="none" stroke="black" cx="488.79" cy="-412" rx="41.69" ry="18"/>
<text text-anchor="middle" x="488.79" y="-408.3" font-family="Times,serif" font-size="14.00">output</text>
</g>
<!-- n38 -->
<g id="node27" class="node">
<title>n38</title>
<ellipse fill="none" stroke="black" cx="798.43" cy="-414" rx="76.09" ry="18"/>
<text text-anchor="middle" x="798.43" y="-410.3" font-family="Times,serif" font-size="14.00">max_envelope</text>
</g>
<!-- n5&#45;&gt;n38 -->
<g id="edge37" class="edge">
<title>n5&#45;&gt;n38</title>
<path fill="none" stroke="black" d="M530.87,-413C530.87,-413 710.67,-413 710.67,-413"/>
<polygon fill="black" stroke="black" points="710.67,-416.5 720.67,-413 710.67,-409.5 710.67,-416.5"/>
<text text-anchor="middle" x="626.39" y="-416.8" font-family="Times,serif" font-size="14.00">MAX_EMA</text>
</g>
<!-- n3&#45;&gt;n5 -->
<!-- n9 -->
<g id="node5" class="node">
<title>n9</title>
<ellipse fill="none" stroke="black" cx="1184.86" cy="-689" rx="31.4" ry="18"/>
<text text-anchor="middle" x="1184.86" y="-685.3" font-family="Times,serif" font-size="14.00">1.10</text>
</g>
<!-- n8 -->
<g id="node8" class="node">
<title>n8</title>
<ellipse fill="none" stroke="black" cx="1708.35" cy="-689" rx="27" ry="18"/>
<text text-anchor="middle" x="1708.35" y="-685.3" font-family="Times,serif" font-size="14.00">rhs</text>
</g>
<!-- n9&#45;&gt;n8 -->
<g id="edge3" class="edge">
<title>n9&#45;&gt;n8</title>
<path fill="none" stroke="black" d="M1216.43,-689C1216.43,-689 1669.41,-689 1669.41,-689"/>
<polygon fill="black" stroke="black" points="1669.41,-692.5 1679.41,-689 1669.41,-685.5 1669.41,-692.5"/>
</g>
<!-- n7 -->
<g id="node6" class="node">
<title>n7</title>
<ellipse fill="none" stroke="black" cx="1708.35" cy="-635" rx="27" ry="18"/>
<text text-anchor="middle" x="1708.35" y="-631.3" font-family="Times,serif" font-size="14.00">lhs</text>
</g>
<!-- n10 -->
<g id="node7" class="node">
<title>n10</title>
<ellipse fill="none" stroke="black" cx="2058.64" cy="-689" rx="41.69" ry="18"/>
<text text-anchor="middle" x="2058.64" y="-685.3" font-family="Times,serif" font-size="14.00">output</text>
</g>
<!-- n58 -->
<g id="node25" class="node">
<title>n58</title>
<ellipse fill="none" stroke="black" cx="2569.38" cy="-660" rx="27" ry="18"/>
<text text-anchor="middle" x="2569.38" y="-656.3" font-family="Times,serif" font-size="14.00">rhs</text>
</g>
<!-- n10&#45;&gt;n58 -->
<g id="edge31" class="edge">
<title>n10&#45;&gt;n58</title>
<path fill="none" stroke="black" d="M2084.67,-674.5C2084.67,-674.5 2540.81,-674.5 2540.81,-674.5"/>
<polygon fill="black" stroke="black" points="2540.81,-678 2550.81,-674.5 2540.81,-671 2540.81,-678"/>
<text text-anchor="middle" x="2292.24" y="-678.8" font-family="Times,serif" font-size="14.00">LATENCY_SETPOINT</text>
</g>
<!-- n45 -->
<g id="node35" class="node">
<title>n45</title>
<ellipse fill="none" stroke="black" cx="2569.38" cy="-1006" rx="48.99" ry="18"/>
<text text-anchor="middle" x="2569.38" y="-1002.3" font-family="Times,serif" font-size="14.00">setpoint</text>
</g>
<!-- n10&#45;&gt;n45 -->
<g id="edge30" class="edge">
<title>n10&#45;&gt;n45</title>
<path fill="none" stroke="black" d="M2092.3,-700C2170.35,-700 2357.1,-700 2357.1,-700 2357.1,-700 2357.1,-1006 2357.1,-1006 2357.1,-1006 2508.63,-1006 2508.63,-1006"/>
<polygon fill="black" stroke="black" points="2508.63,-1009.5 2518.63,-1006 2508.63,-1002.5 2508.63,-1009.5"/>
<text text-anchor="middle" x="2292.24" y="-887.8" font-family="Times,serif" font-size="14.00">LATENCY_SETPOINT</text>
</g>
<!-- n8&#45;&gt;n10 -->
<!-- n13 -->
<g id="node9" class="node">
<title>n13</title>
<ellipse fill="none" stroke="black" cx="1708.35" cy="-1456" rx="27" ry="18"/>
<text text-anchor="middle" x="1708.35" y="-1452.3" font-family="Times,serif" font-size="14.00">lhs</text>
</g>
<!-- n14 -->
<g id="node10" class="node">
<title>n14</title>
<ellipse fill="none" stroke="black" cx="2058.64" cy="-1456" rx="41.69" ry="18"/>
<text text-anchor="middle" x="2058.64" y="-1452.3" font-family="Times,serif" font-size="14.00">output</text>
</g>
<!-- n13&#45;&gt;n14 -->
<!-- n48 -->
<g id="node29" class="node">
<title>n48</title>
<ellipse fill="none" stroke="black" cx="2569.38" cy="-1538" rx="35.19" ry="18"/>
<text text-anchor="middle" x="2569.38" y="-1534.3" font-family="Times,serif" font-size="14.00">input</text>
</g>
<!-- n14&#45;&gt;n48 -->
<g id="edge34" class="edge">
<title>n14&#45;&gt;n48</title>
<path fill="none" stroke="black" d="M2100.5,-1456C2222.65,-1456 2570.1,-1456 2570.1,-1456 2570.1,-1456 2570.1,-1508.29 2570.1,-1508.29"/>
<polygon fill="black" stroke="black" points="2566.6,-1508.29 2570.1,-1518.29 2573.6,-1508.29 2566.6,-1508.29"/>
<text text-anchor="middle" x="2292.24" y="-1500.8" font-family="Times,serif" font-size="14.00">DESIRED_CONCURRENCY_RATIO</text>
</g>
<!-- n12 -->
<g id="node11" class="node">
<title>n12</title>
<ellipse fill="none" stroke="black" cx="1708.35" cy="-1402" rx="27" ry="18"/>
<text text-anchor="middle" x="1708.35" y="-1398.3" font-family="Times,serif" font-size="14.00">rhs</text>
</g>
<!-- n17 -->
<g id="node12" class="node">
<title>n17</title>
<ellipse fill="none" stroke="black" cx="1184.86" cy="-856" rx="31.4" ry="18"/>
<text text-anchor="middle" x="1184.86" y="-852.3" font-family="Times,serif" font-size="14.00">2.00</text>
</g>
<!-- n16 -->
<g id="node13" class="node">
<title>n16</title>
<ellipse fill="none" stroke="black" cx="1708.35" cy="-856" rx="27" ry="18"/>
<text text-anchor="middle" x="1708.35" y="-852.3" font-family="Times,serif" font-size="14.00">lhs</text>
</g>
<!-- n17&#45;&gt;n16 -->
<g id="edge6" class="edge">
<title>n17&#45;&gt;n16</title>
<path fill="none" stroke="black" d="M1216.43,-856C1216.43,-856 1669.41,-856 1669.41,-856"/>
<polygon fill="black" stroke="black" points="1669.41,-859.5 1679.41,-856 1669.41,-852.5 1669.41,-859.5"/>
</g>
<!-- n19 -->
<g id="node14" class="node">
<title>n19</title>
<ellipse fill="none" stroke="black" cx="2058.64" cy="-910" rx="41.69" ry="18"/>
<text text-anchor="middle" x="2058.64" y="-906.3" font-family="Times,serif" font-size="14.00">output</text>
</g>
<!-- n42 -->
<g id="node32" class="node">
<title>n42</title>
<ellipse fill="none" stroke="black" cx="2569.38" cy="-1060" rx="30.59" ry="18"/>
<text text-anchor="middle" x="2569.38" y="-1056.3" font-family="Times,serif" font-size="14.00">max</text>
</g>
<!-- n19&#45;&gt;n42 -->
<g id="edge22" class="edge">
<title>n19&#45;&gt;n42</title>
<path fill="none" stroke="black" d="M2059.1,-928.37C2059.1,-966.45 2059.1,-1050.5 2059.1,-1050.5 2059.1,-1050.5 2531.51,-1050.5 2531.51,-1050.5"/>
<polygon fill="black" stroke="black" points="2531.51,-1054 2541.51,-1050.5 2531.51,-1047 2531.51,-1054"/>
<text text-anchor="middle" x="2292.24" y="-941.8" font-family="Times,serif" font-size="14.00">NORMAL_CONCURRENCY_LIMIT</text>
</g>
<!-- n29 -->
<g id="node38" class="node">
<title>n29</title>
<ellipse fill="none" stroke="black" cx="3495.81" cy="-819" rx="30.59" ry="18"/>
<text text-anchor="middle" x="3495.81" y="-815.3" font-family="Times,serif" font-size="14.00">max</text>
</g>
<!-- n19&#45;&gt;n29 -->
<g id="edge21" class="edge">
<title>n19&#45;&gt;n29</title>
<path fill="none" stroke="black" d="M2059.1,-891.58C2059.1,-864.99 2059.1,-819 2059.1,-819 2059.1,-819 3453.29,-819 3453.29,-819"/>
<polygon fill="black" stroke="black" points="3453.29,-822.5 3463.29,-819 3453.29,-815.5 3453.29,-822.5"/>
<text text-anchor="middle" x="2794.02" y="-822.8" font-family="Times,serif" font-size="14.00">NORMAL_CONCURRENCY_LIMIT</text>
</g>
<!-- n18 -->
<g id="node15" class="node">
<title>n18</title>
<ellipse fill="none" stroke="black" cx="1708.35" cy="-910" rx="27" ry="18"/>
<text text-anchor="middle" x="1708.35" y="-906.3" font-family="Times,serif" font-size="14.00">rhs</text>
</g>
<!-- n18&#45;&gt;n19 -->
<!-- n22 -->
<g id="node16" class="node">
<title>n22</title>
<ellipse fill="none" stroke="black" cx="2058.64" cy="-76" rx="31.4" ry="18"/>
<text text-anchor="middle" x="2058.64" y="-72.3" font-family="Times,serif" font-size="14.00">5.00</text>
</g>
<!-- n21 -->
<g id="node17" class="node">
<title>n21</title>
<ellipse fill="none" stroke="black" cx="2569.38" cy="-76" rx="27" ry="18"/>
<text text-anchor="middle" x="2569.38" y="-72.3" font-family="Times,serif" font-size="14.00">lhs</text>
</g>
<!-- n22&#45;&gt;n21 -->
<g id="edge8" class="edge">
<title>n22&#45;&gt;n21</title>
<path fill="none" stroke="black" d="M2090.21,-76C2090.21,-76 2530.62,-76 2530.62,-76"/>
<polygon fill="black" stroke="black" points="2530.62,-79.5 2540.62,-76 2530.62,-72.5 2530.62,-79.5"/>
</g>
<!-- n24 -->
<g id="node18" class="node">
<title>n24</title>
<ellipse fill="none" stroke="black" cx="2975.12" cy="-130" rx="41.69" ry="18"/>
<text text-anchor="middle" x="2975.12" y="-126.3" font-family="Times,serif" font-size="14.00">output</text>
</g>
<!-- n26 -->
<g id="node37" class="node">
<title>n26</title>
<ellipse fill="none" stroke="black" cx="3495.81" cy="-711" rx="35.19" ry="18"/>
<text text-anchor="middle" x="3495.81" y="-707.3" font-family="Times,serif" font-size="14.00">input</text>
</g>
<!-- n24&#45;&gt;n26 -->
<g id="edge32" class="edge">
<title>n24&#45;&gt;n26</title>
<path fill="none" stroke="black" d="M3017.31,-130C3141.34,-130 3496.1,-130 3496.1,-130 3496.1,-130 3496.1,-681.14 3496.1,-681.14"/>
<polygon fill="black" stroke="black" points="3492.6,-681.14 3496.1,-691.14 3499.6,-681.14 3492.6,-681.14"/>
<text text-anchor="middle" x="3238.72" y="-445.8" font-family="Times,serif" font-size="14.00">CONCURRENCY_INCREMENT_SINGLE_TICK</text>
</g>
<!-- n23 -->
<g id="node19" class="node">
<title>n23</title>
<ellipse fill="none" stroke="black" cx="2569.38" cy="-130" rx="27" ry="18"/>
<text text-anchor="middle" x="2569.38" y="-126.3" font-family="Times,serif" font-size="14.00">rhs</text>
</g>
<!-- n23&#45;&gt;n24 -->
<!-- n55 -->
<g id="node20" class="node">
<title>n55</title>
<ellipse fill="none" stroke="black" cx="1184.86" cy="-1449" rx="80.69" ry="18"/>
<text text-anchor="middle" x="1184.86" y="-1445.3" font-family="Times,serif" font-size="14.00">load_multiplier</text>
</g>
<!-- n52 -->
<g id="node21" class="node">
<title>n52</title>
<ellipse fill="none" stroke="black" cx="1184.86" cy="-1186" rx="113.98" ry="18"/>
<text text-anchor="middle" x="1184.86" y="-1182.3" font-family="Times,serif" font-size="14.00">accepted_concurrency</text>
</g>
<!-- n52&#45;&gt;n18 -->
<g id="edge16" class="edge">
<title>n52&#45;&gt;n18</title>
<path fill="none" stroke="black" d="M1275.1,-1174.84C1275.1,-1123.2 1275.1,-910 1275.1,-910 1275.1,-910 1669.4,-910 1669.4,-910"/>
<polygon fill="black" stroke="black" points="1669.4,-913.5 1679.4,-910 1669.4,-906.5 1669.4,-913.5"/>
<text text-anchor="middle" x="1511.25" y="-1005.8" font-family="Times,serif" font-size="14.00">ACCEPTED_CONCURRENCY</text>
</g>
<!-- n43 -->
<g id="node31" class="node">
<title>n43</title>
<ellipse fill="none" stroke="black" cx="2569.38" cy="-1114" rx="85.29" ry="18"/>
<text text-anchor="middle" x="2569.38" y="-1110.3" font-family="Times,serif" font-size="14.00">control_variable</text>
</g>
<!-- n52&#45;&gt;n43 -->
<g id="edge19" class="edge">
<title>n52&#45;&gt;n43</title>
<path fill="none" stroke="black" d="M1293.15,-1180C1609.18,-1180 2508.1,-1180 2508.1,-1180 2508.1,-1180 2508.1,-1138.24 2508.1,-1138.24"/>
<polygon fill="black" stroke="black" points="2511.6,-1138.24 2508.1,-1128.24 2504.6,-1138.24 2511.6,-1138.24"/>
<text text-anchor="middle" x="1865.45" y="-1239.8" font-family="Times,serif" font-size="14.00">ACCEPTED_CONCURRENCY</text>
</g>
<!-- n28 -->
<g id="node39" class="node">
<title>n28</title>
<ellipse fill="none" stroke="black" cx="3495.81" cy="-873" rx="28.7" ry="18"/>
<text text-anchor="middle" x="3495.81" y="-869.3" font-family="Times,serif" font-size="14.00">min</text>
</g>
<!-- n52&#45;&gt;n28 -->
<g id="edge17" class="edge">
<title>n52&#45;&gt;n28</title>
<path fill="none" stroke="black" d="M1251.1,-1170.95C1251.1,-1109.71 1251.1,-882.5 1251.1,-882.5 1251.1,-882.5 3459.47,-882.5 3459.47,-882.5"/>
<polygon fill="black" stroke="black" points="3459.47,-886 3469.47,-882.5 3459.47,-879 3459.47,-886"/>
<text text-anchor="middle" x="2292.24" y="-1277.8" font-family="Times,serif" font-size="14.00">ACCEPTED_CONCURRENCY</text>
</g>
<!-- n32 -->
<g id="node43" class="node">
<title>n32</title>
<ellipse fill="none" stroke="black" cx="1708.35" cy="-1077" rx="35.19" ry="18"/>
<text text-anchor="middle" x="1708.35" y="-1073.3" font-family="Times,serif" font-size="14.00">input</text>
</g>
<!-- n52&#45;&gt;n32 -->
<g id="edge18" class="edge">
<title>n52&#45;&gt;n32</title>
<path fill="none" stroke="black" d="M1271.91,-1174C1413.51,-1174 1678.1,-1174 1678.1,-1174 1678.1,-1174 1678.1,-1098.17 1678.1,-1098.17"/>
<polygon fill="black" stroke="black" points="1681.6,-1098.17 1678.1,-1088.17 1674.6,-1098.17 1681.6,-1098.17"/>
<text text-anchor="middle" x="1511.25" y="-1135.8" font-family="Times,serif" font-size="14.00">ACCEPTED_CONCURRENCY</text>
</g>
<!-- n53 -->
<g id="node22" class="node">
<title>n53</title>
<ellipse fill="none" stroke="black" cx="1184.86" cy="-1240" rx="114.28" ry="18"/>
<text text-anchor="middle" x="1184.86" y="-1236.3" font-family="Times,serif" font-size="14.00">incoming_concurrency</text>
</g>
<!-- n53&#45;&gt;n12 -->
<g id="edge20" class="edge">
<title>n53&#45;&gt;n12</title>
<path fill="none" stroke="black" d="M1283.1,-1249.17C1283.1,-1283.44 1283.1,-1402 1283.1,-1402 1283.1,-1402 1669.59,-1402 1669.59,-1402"/>
<polygon fill="black" stroke="black" points="1669.59,-1405.5 1679.59,-1402 1669.59,-1398.5 1669.59,-1405.5"/>
<text text-anchor="middle" x="1511.25" y="-1357.8" font-family="Times,serif" font-size="14.00">INCOMING_CONCURRENCY</text>
</g>
<!-- n57 -->
<g id="node23" class="node">
<title>n57</title>
<ellipse fill="none" stroke="black" cx="2569.38" cy="-606" rx="27" ry="18"/>
<text text-anchor="middle" x="2569.38" y="-602.3" font-family="Times,serif" font-size="14.00">lhs</text>
</g>
<!-- n59 -->
<g id="node24" class="node">
<title>n59</title>
<ellipse fill="none" stroke="black" cx="2975.12" cy="-660" rx="41.69" ry="18"/>
<text text-anchor="middle" x="2975.12" y="-656.3" font-family="Times,serif" font-size="14.00">output</text>
</g>
<!-- n27 -->
<g id="node41" class="node">
<title>n27</title>
<ellipse fill="none" stroke="black" cx="3495.81" cy="-765" rx="34.39" ry="18"/>
<text text-anchor="middle" x="3495.81" y="-761.3" font-family="Times,serif" font-size="14.00">reset</text>
</g>
<!-- n59&#45;&gt;n27 -->
<g id="edge36" class="edge">
<title>n59&#45;&gt;n27</title>
<path fill="none" stroke="black" d="M2976.1,-678.29C2976.1,-708.37 2976.1,-765 2976.1,-765 2976.1,-765 3449.8,-765 3449.8,-765"/>
<polygon fill="black" stroke="black" points="3449.8,-768.5 3459.8,-765 3449.8,-761.5 3449.8,-768.5"/>
<text text-anchor="middle" x="3238.72" y="-715.8" font-family="Times,serif" font-size="14.00">IS_OVERLOAD</text>
</g>
<!-- n58&#45;&gt;n59 -->
<!-- n37 -->
<g id="node26" class="node">
<title>n37</title>
<ellipse fill="none" stroke="black" cx="798.43" cy="-468" rx="35.19" ry="18"/>
<text text-anchor="middle" x="798.43" y="-464.3" font-family="Times,serif" font-size="14.00">input</text>
</g>
<!-- n39 -->
<g id="node28" class="node">
<title>n39</title>
<ellipse fill="none" stroke="black" cx="1184.86" cy="-454" rx="41.69" ry="18"/>
<text text-anchor="middle" x="1184.86" y="-450.3" font-family="Times,serif" font-size="14.00">output</text>
</g>
<!-- n38&#45;&gt;n39 -->
<!-- n39&#45;&gt;n7 -->
<g id="edge28" class="edge">
<title>n39&#45;&gt;n7</title>
<path fill="none" stroke="black" d="M1222.1,-462.51C1222.1,-497.77 1222.1,-630.5 1222.1,-630.5 1222.1,-630.5 1670.35,-630.5 1670.35,-630.5"/>
<polygon fill="black" stroke="black" points="1670.35,-634 1680.35,-630.5 1670.35,-627 1670.35,-634"/>
<text text-anchor="middle" x="1511.25" y="-554.8" font-family="Times,serif" font-size="14.00">LATENCY_EMA</text>
</g>
<!-- n49 -->
<g id="node30" class="node">
<title>n49</title>
<ellipse fill="none" stroke="black" cx="2975.12" cy="-1538" rx="41.69" ry="18"/>
<text text-anchor="middle" x="2975.12" y="-1534.3" font-family="Times,serif" font-size="14.00">output</text>
</g>
<!-- n48&#45;&gt;n49 -->
<!-- n49&#45;&gt;n55 -->
<g id="edge29" class="edge">
<title>n49&#45;&gt;n55</title>
<path fill="none" stroke="black" d="M2962.1,-1520.44C2962.1,-1490.91 2962.1,-1434.5 2962.1,-1434.5 2962.1,-1434.5 1246.7,-1434.5 1246.7,-1434.5"/>
<polygon fill="black" stroke="black" points="1246.7,-1431 1236.7,-1434.5 1246.7,-1438 1246.7,-1431"/>
<text text-anchor="middle" x="2058.64" y="-1618.8" font-family="Times,serif" font-size="14.00">LOAD_MULTIPLIER</text>
</g>
<!-- n41 -->
<g id="node33" class="node">
<title>n41</title>
<ellipse fill="none" stroke="black" cx="2569.38" cy="-952" rx="50.89" ry="18"/>
<text text-anchor="middle" x="2569.38" y="-948.3" font-family="Times,serif" font-size="14.00">optimize</text>
</g>
<!-- n46 -->
<g id="node34" class="node">
<title>n46</title>
<ellipse fill="none" stroke="black" cx="2975.12" cy="-1087" rx="41.69" ry="18"/>
<text text-anchor="middle" x="2975.12" y="-1083.3" font-family="Times,serif" font-size="14.00">output</text>
</g>
<!-- n46&#45;&gt;n13 -->
<g id="edge33" class="edge">
<title>n46&#45;&gt;n13</title>
<path fill="none" stroke="black" d="M2989.1,-1104.25C2989.1,-1173.23 2989.1,-1425.5 2989.1,-1425.5 2989.1,-1425.5 1709.1,-1425.5 1709.1,-1425.5 1709.1,-1425.5 1709.1,-1426.71 1709.1,-1426.71"/>
<polygon fill="black" stroke="black" points="1705.6,-1426.04 1709.1,-1436.04 1712.6,-1426.04 1705.6,-1426.04"/>
<text text-anchor="middle" x="2292.24" y="-1315.8" font-family="Times,serif" font-size="14.00">DESIRED_CONCURRENCY</text>
</g>
<!-- n45&#45;&gt;n46 -->
<!-- n44 -->
<g id="node36" class="node">
<title>n44</title>
<ellipse fill="none" stroke="black" cx="2569.38" cy="-1168" rx="38.19" ry="18"/>
<text text-anchor="middle" x="2569.38" y="-1164.3" font-family="Times,serif" font-size="14.00">signal</text>
</g>
<!-- n30 -->
<g id="node40" class="node">
<title>n30</title>
<ellipse fill="none" stroke="black" cx="3609.51" cy="-859" rx="41.69" ry="18"/>
<text text-anchor="middle" x="3609.51" y="-855.3" font-family="Times,serif" font-size="14.00">output</text>
</g>
<!-- n29&#45;&gt;n30 -->
<!-- n30&#45;&gt;n41 -->
<g id="edge23" class="edge">
<title>n30&#45;&gt;n41</title>
<path fill="none" stroke="black" d="M3572.42,-850.33C3391.36,-850.33 2609.1,-850.33 2609.1,-850.33 2609.1,-850.33 2609.1,-928.82 2609.1,-928.82"/>
<polygon fill="black" stroke="black" points="2605.6,-928.82 2609.1,-938.82 2612.6,-928.82 2605.6,-928.82"/>
<text text-anchor="middle" x="3238.72" y="-938.8" font-family="Times,serif" font-size="14.00">CONCURRENCY_INCREMENT</text>
</g>
<!-- n35 -->
<g id="node42" class="node">
<title>n35</title>
<ellipse fill="none" stroke="black" cx="99.6" cy="-662" rx="41.69" ry="18"/>
<text text-anchor="middle" x="99.6" y="-658.3" font-family="Times,serif" font-size="14.00">output</text>
</g>
<!-- n35&#45;&gt;n2 -->
<g id="edge24" class="edge">
<title>n35&#45;&gt;n2</title>
<path fill="none" stroke="black" d="M135.1,-652.13C135.1,-611.98 135.1,-463 135.1,-463 135.1,-463 275.48,-463 275.48,-463"/>
<polygon fill="black" stroke="black" points="275.48,-466.5 285.48,-463 275.48,-459.5 275.48,-466.5"/>
<text text-anchor="middle" x="234.19" y="-650.8" font-family="Times,serif" font-size="14.00">LATENCY</text>
</g>
<!-- n35&#45;&gt;n57 -->
<g id="edge27" class="edge">
<title>n35&#45;&gt;n57</title>
<path fill="none" stroke="black" d="M138.1,-654.7C138.1,-638.82 138.1,-602.5 138.1,-602.5 138.1,-602.5 2530.98,-602.5 2530.98,-602.5"/>
<polygon fill="black" stroke="black" points="2530.98,-606 2540.98,-602.5 2530.98,-599 2530.98,-606"/>
<text text-anchor="middle" x="927.47" y="-284.8" font-family="Times,serif" font-size="14.00">LATENCY</text>
</g>
<!-- n35&#45;&gt;n37 -->
<g id="edge25" class="edge">
<title>n35&#45;&gt;n37</title>
<path fill="none" stroke="black" d="M128.32,-648.5C259.95,-648.5 799.1,-648.5 799.1,-648.5 799.1,-648.5 799.1,-497.81 799.1,-497.81"/>
<polygon fill="black" stroke="black" points="802.6,-497.81 799.1,-487.81 795.6,-497.81 802.6,-497.81"/>
<text text-anchor="middle" x="394.19" y="-680.8" font-family="Times,serif" font-size="14.00">LATENCY</text>
</g>
<!-- n35&#45;&gt;n44 -->
<g id="edge26" class="edge">
<title>n35&#45;&gt;n44</title>
<path fill="none" stroke="black" d="M100.1,-680.28C100.1,-769.94 100.1,-1159 100.1,-1159 100.1,-1159 2524.37,-1159 2524.37,-1159"/>
<polygon fill="black" stroke="black" points="2524.37,-1162.5 2534.37,-1159 2524.37,-1155.5 2524.37,-1162.5"/>
<text text-anchor="middle" x="927.47" y="-1676.8" font-family="Times,serif" font-size="14.00">LATENCY</text>
</g>
<!-- n33 -->
<g id="node44" class="node">
<title>n33</title>
<ellipse fill="none" stroke="black" cx="2058.64" cy="-1077" rx="41.69" ry="18"/>
<text text-anchor="middle" x="2058.64" y="-1073.3" font-family="Times,serif" font-size="14.00">output</text>
</g>
<!-- n32&#45;&gt;n33 -->
<!-- n33&#45;&gt;n23 -->
<g id="edge35" class="edge">
<title>n33&#45;&gt;n23</title>
<path fill="none" stroke="black" d="M2096.05,-1068.5C2146.23,-1068.5 2229.1,-1068.5 2229.1,-1068.5 2229.1,-1068.5 2229.1,-130 2229.1,-130 2229.1,-130 2530.6,-130 2530.6,-130"/>
<polygon fill="black" stroke="black" points="2530.6,-133.5 2540.6,-130 2530.6,-126.5 2530.6,-133.5"/>
<text text-anchor="middle" x="2292.24" y="-1016.8" font-family="Times,serif" font-size="14.00">SQRT_CONCURRENCY_INCREMENT</text>
</g>
</g>
</svg>
