<?xml version="1.0" encoding="UTF-8" standalone="no"?>
<!DOCTYPE svg PUBLIC "-//W3C//DTD SVG 1.1//EN"
 "http://www.w3.org/Graphics/SVG/1.1/DTD/svg11.dtd">
<!-- Generated by graphviz version 7.1.0 (20230121.1956)
 -->
<!-- Pages: 1 -->
<svg width="6221pt" height="1601pt"
 viewBox="0.00 0.00 6220.53 1601.00" xmlns="http://www.w3.org/2000/svg" xmlns:xlink="http://www.w3.org/1999/xlink">
<g id="graph0" class="graph" transform="scale(1 1) rotate(0) translate(4 1597)">
<polygon fill="white" stroke="none" points="-4,4 -4,-1597 6216.53,-1597 6216.53,4 -4,4"/>
<g id="clust1" class="cluster">
<title>cluster_s3</title>
<polygon fill="none" stroke="black" points="18.4,-1205 18.4,-1418 580.39,-1418 580.39,-1205 18.4,-1205"/>
<text text-anchor="middle" x="299.39" y="-1402.8" font-family="Times,serif" font-size="14.00">ArithmeticCombinator[root.1]</text>
</g>
<g id="clust4" class="cluster">
<title>cluster_s8</title>
<polygon fill="none" stroke="black" points="901.47,-976 901.47,-1189 1548.25,-1189 1548.25,-976 901.47,-976"/>
<text text-anchor="middle" x="1224.86" y="-1173.8" font-family="Times,serif" font-size="14.00">ArithmeticCombinator[root.2]</text>
</g>
<g id="clust7" class="cluster">
<title>cluster_s17</title>
<polygon fill="none" stroke="black" points="4817.42,-459 4817.42,-672 5142.96,-672 5142.96,-459 4817.42,-459"/>
<text text-anchor="middle" x="4980.19" y="-656.8" font-family="Times,serif" font-size="14.00">ArithmeticCombinator[root.4.0]</text>
</g>
<g id="clust10" class="cluster">
<title>cluster_s21</title>
<polygon fill="none" stroke="black" points="1375.46,-755 1375.46,-968 2257.08,-968 2257.08,-755 1375.46,-755"/>
<text text-anchor="middle" x="1816.27" y="-952.8" font-family="Times,serif" font-size="14.00">ArithmeticCombinator[root.4.1]</text>
</g>
<g id="clust13" class="cluster">
<title>cluster_s26</title>
<polygon fill="none" stroke="black" points="2084.29,-534 2084.29,-747 3142.72,-747 3142.72,-534 2084.29,-534"/>
<text text-anchor="middle" x="2613.5" y="-731.8" font-family="Times,serif" font-size="14.00">ArithmeticCombinator[root.4.2]</text>
</g>
<g id="clust16" class="cluster">
<title>cluster_s54</title>
<polygon fill="none" stroke="black" points="2565.08,-913 2565.08,-1126 3142.72,-1126 3142.72,-913 2565.08,-913"/>
<text text-anchor="middle" x="2853.9" y="-1110.8" font-family="Times,serif" font-size="14.00">Decider[root.4.8]</text>
</g>
<g id="clust19" class="cluster">
<title>cluster_s13</title>
<polygon fill="none" stroke="black" points="672.39,-1197 672.39,-1410 1074.27,-1410 1074.27,-1197 672.39,-1197"/>
<text text-anchor="middle" x="873.33" y="-1394.8" font-family="Times,serif" font-size="14.00">EMA[root.3]</text>
</g>
<g id="clust22" class="cluster">
<title>cluster_s46</title>
<polygon fill="none" stroke="black" points="5405.96,-513 5405.96,-672 5775.34,-672 5775.34,-513 5405.96,-513"/>
<text text-anchor="middle" x="5590.65" y="-656.8" font-family="Times,serif" font-size="14.00">Extrapolator[root.4.6]</text>
</g>
<g id="clust25" class="cluster">
<title>cluster_s39</title>
<polygon fill="none" stroke="black" points="4057.36,-720 4057.36,-1095 4560.63,-1095 4560.63,-720 4057.36,-720"/>
<text text-anchor="middle" x="4308.99" y="-1079.8" font-family="Times,serif" font-size="14.00">Gradient[root.4.5]</text>
</g>
<g id="clust28" class="cluster">
<title>cluster_s31</title>
<polygon fill="none" stroke="black" points="3486.72,-540 3486.72,-807 3820.36,-807 3820.36,-540 3486.72,-540"/>
<text text-anchor="middle" x="3653.54" y="-791.8" font-family="Times,serif" font-size="14.00">Integrator[root.4.3]</text>
</g>
<g id="clust31" class="cluster">
<title>cluster_s52</title>
<polygon fill="none" stroke="black" points="5933.34,-513 5933.34,-672 6212.53,-672 6212.53,-513 5933.34,-513"/>
<text text-anchor="middle" x="6072.94" y="-656.8" font-family="Times,serif" font-size="14.00">LoadActuator[root.4.7.LoadActuator]</text>
</g>
<g id="clust33" class="cluster">
<title>cluster_s63</title>
<polygon fill="none" stroke="black" points="1292.92,-8 1292.92,-171 2032.14,-171 2032.14,-8 1292.92,-8"/>
<text text-anchor="middle" x="1662.53" y="-155.8" font-family="Times,serif" font-size="14.00">NestedSignalEgress[root.4.11]</text>
</g>
<g id="clust36" class="cluster">
<title>cluster_s66</title>
<polygon fill="none" stroke="black" points="4304.64,-205 4304.64,-368 4982.77,-368 4982.77,-205 4304.64,-205"/>
<text text-anchor="middle" x="4643.71" y="-352.8" font-family="Times,serif" font-size="14.00">NestedSignalEgress[root.4.12]</text>
</g>
<g id="clust39" class="cluster">
<title>cluster_s69</title>
<polygon fill="none" stroke="black" points="4312.44,-1103 4312.44,-1266 4982.77,-1266 4982.77,-1103 4312.44,-1103"/>
<text text-anchor="middle" x="4647.6" y="-1250.8" font-family="Times,serif" font-size="14.00">NestedSignalEgress[root.4.13]</text>
</g>
<g id="clust42" class="cluster">
<title>cluster_s72</title>
<polygon fill="none" stroke="black" points="2938.08,-1289 2938.08,-1452 3660.16,-1452 3660.16,-1289 2938.08,-1289"/>
<text text-anchor="middle" x="3299.12" y="-1436.8" font-family="Times,serif" font-size="14.00">NestedSignalEgress[root.4.14]</text>
</g>
<g id="clust45" class="cluster">
<title>cluster_s75</title>
<polygon fill="none" stroke="black" points="5553.15,-342 5553.15,-505 6161.28,-505 6161.28,-342 5553.15,-342"/>
<text text-anchor="middle" x="5857.22" y="-489.8" font-family="Times,serif" font-size="14.00">NestedSignalEgress[root.4.15]</text>
</g>
<g id="clust48" class="cluster">
<title>cluster_s60</title>
<polygon fill="none" stroke="black" points="1845.04,-1101 1845.04,-1260 2253.83,-1260 2253.83,-1101 1845.04,-1101"/>
<text text-anchor="middle" x="2049.44" y="-1244.8" font-family="Times,serif" font-size="14.00">NestedSignalIngress[root.4.10]</text>
</g>
<g id="clust51" class="cluster">
<title>cluster_s58</title>
<polygon fill="none" stroke="black" points="2049.14,-1268 2049.14,-1445 2281.83,-1445 2281.83,-1268 2049.14,-1268"/>
<text text-anchor="middle" x="2165.48" y="-1429.8" font-family="Times,serif" font-size="14.00">NestedSignalIngress[root.4.9]</text>
</g>
<g id="clust54" class="cluster">
<title>cluster_s1</title>
<polygon fill="none" stroke="black" points="8,-1426 8,-1585 191.19,-1585 191.19,-1426 8,-1426"/>
<text text-anchor="middle" x="99.6" y="-1569.8" font-family="Times,serif" font-size="14.00">PromQL[root.0]</text>
</g>
<g id="clust56" class="cluster">
<title>cluster_s49</title>
<polygon fill="none" stroke="black" points="1292.27,-294 1292.27,-507 1621.04,-507 1621.04,-294 1292.27,-294"/>
<text text-anchor="middle" x="1456.66" y="-491.8" font-family="Times,serif" font-size="14.00">Scheduler[root.4.7.Scheduler]</text>
</g>
<g id="clust58" class="cluster">
<title>cluster_s36</title>
<polygon fill="none" stroke="black" points="1858.69,-367 1858.69,-526 2257.08,-526 2257.08,-367 1858.69,-367"/>
<text text-anchor="middle" x="2057.89" y="-510.8" font-family="Times,serif" font-size="14.00">Sqrt[root.4.4]</text>
</g>
<!-- n6 -->
<g id="node1" class="node">
<title>n6</title>
<ellipse fill="none" stroke="black" cx="99.6" cy="-1273" rx="31.4" ry="18"/>
<text text-anchor="middle" x="99.6" y="-1269.3" font-family="Times,serif" font-size="14.00">2.00</text>
</g>
<!-- n5 -->
<g id="node4" class="node">
<title>n5</title>
<ellipse fill="none" stroke="black" cx="314.19" cy="-1273" rx="27" ry="18"/>
<text text-anchor="middle" x="314.19" y="-1269.3" font-family="Times,serif" font-size="14.00">rhs</text>
</g>
<!-- n6&#45;&gt;n5 -->
<g id="edge1" class="edge">
<title>n6&#45;&gt;n5</title>
<path fill="none" stroke="black" d="M131.26,-1273C131.26,-1273 275.31,-1273 275.31,-1273"/>
<polygon fill="black" stroke="black" points="275.31,-1276.5 285.31,-1273 275.31,-1269.5 275.31,-1276.5"/>
</g>
<!-- n4 -->
<g id="node2" class="node">
<title>n4</title>
<ellipse fill="none" stroke="black" cx="314.19" cy="-1327" rx="27" ry="18"/>
<text text-anchor="middle" x="314.19" y="-1323.3" font-family="Times,serif" font-size="14.00">lhs</text>
</g>
<!-- n7 -->
<g id="node3" class="node">
<title>n7</title>
<ellipse fill="none" stroke="black" cx="488.79" cy="-1285" rx="41.69" ry="18"/>
<text text-anchor="middle" x="488.79" y="-1281.3" font-family="Times,serif" font-size="14.00">output</text>
</g>
<!-- n14 -->
<g id="node24" class="node">
<title>n14</title>
<ellipse fill="none" stroke="black" cx="798.43" cy="-1319" rx="76.09" ry="18"/>
<text text-anchor="middle" x="798.43" y="-1315.3" font-family="Times,serif" font-size="14.00">max_envelope</text>
</g>
<!-- n7&#45;&gt;n14 -->
<g id="edge51" class="edge">
<title>n7&#45;&gt;n14</title>
<path fill="none" stroke="black" d="M527.76,-1292C599.12,-1292 743.53,-1292 743.53,-1292 743.53,-1292 743.53,-1294.62 743.53,-1294.62"/>
<polygon fill="black" stroke="black" points="740.03,-1294.62 743.53,-1304.62 747.03,-1294.62 740.03,-1294.62"/>
<text text-anchor="middle" x="626.39" y="-1299.8" font-family="Times,serif" font-size="14.00">MAX_EMA</text>
</g>
<!-- n5&#45;&gt;n7 -->
<!-- n10 -->
<g id="node5" class="node">
<title>n10</title>
<ellipse fill="none" stroke="black" cx="982.67" cy="-1044" rx="31.4" ry="18"/>
<text text-anchor="middle" x="982.67" y="-1040.3" font-family="Times,serif" font-size="14.00">1.10</text>
</g>
<!-- n9 -->
<g id="node8" class="node">
<title>n9</title>
<ellipse fill="none" stroke="black" cx="1238.27" cy="-1044" rx="27" ry="18"/>
<text text-anchor="middle" x="1238.27" y="-1040.3" font-family="Times,serif" font-size="14.00">rhs</text>
</g>
<!-- n10&#45;&gt;n9 -->
<g id="edge3" class="edge">
<title>n10&#45;&gt;n9</title>
<path fill="none" stroke="black" d="M1014.52,-1044C1014.52,-1044 1199.57,-1044 1199.57,-1044"/>
<polygon fill="black" stroke="black" points="1199.57,-1047.5 1209.57,-1044 1199.57,-1040.5 1199.57,-1047.5"/>
</g>
<!-- n11 -->
<g id="node6" class="node">
<title>n11</title>
<ellipse fill="none" stroke="black" cx="1238.27" cy="-1098" rx="27" ry="18"/>
<text text-anchor="middle" x="1238.27" y="-1094.3" font-family="Times,serif" font-size="14.00">lhs</text>
</g>
<!-- n12 -->
<g id="node7" class="node">
<title>n12</title>
<ellipse fill="none" stroke="black" cx="1456.66" cy="-1098" rx="41.69" ry="18"/>
<text text-anchor="middle" x="1456.66" y="-1094.3" font-family="Times,serif" font-size="14.00">output</text>
</g>
<!-- n11&#45;&gt;n12 -->
<!-- n61 -->
<g id="node49" class="node">
<title>n61</title>
<ellipse fill="none" stroke="black" cx="1943.79" cy="-1169" rx="48.99" ry="18"/>
<text text-anchor="middle" x="1943.79" y="-1165.3" font-family="Times,serif" font-size="14.00">setpoint</text>
</g>
<!-- n12&#45;&gt;n61 -->
<g id="edge42" class="edge">
<title>n12&#45;&gt;n61</title>
<path fill="none" stroke="black" d="M1498.81,-1098C1609.61,-1098 1900.53,-1098 1900.53,-1098 1900.53,-1098 1900.53,-1148.78 1900.53,-1148.78"/>
<polygon fill="black" stroke="black" points="1897.03,-1148.78 1900.53,-1158.78 1904.03,-1148.78 1897.03,-1148.78"/>
<text text-anchor="middle" x="1733.04" y="-1451.8" font-family="Times,serif" font-size="14.00">LATENCY_SETPOINT</text>
</g>
<!-- n19 -->
<g id="node9" class="node">
<title>n19</title>
<ellipse fill="none" stroke="black" cx="4894.42" cy="-581" rx="27" ry="18"/>
<text text-anchor="middle" x="4894.42" y="-577.3" font-family="Times,serif" font-size="14.00">lhs</text>
</g>
<!-- n20 -->
<g id="node10" class="node">
<title>n20</title>
<ellipse fill="none" stroke="black" cx="5051.36" cy="-581" rx="41.69" ry="18"/>
<text text-anchor="middle" x="5051.36" y="-577.3" font-family="Times,serif" font-size="14.00">output</text>
</g>
<!-- n19&#45;&gt;n20 -->
<!-- n47 -->
<g id="node26" class="node">
<title>n47</title>
<ellipse fill="none" stroke="black" cx="5491.06" cy="-581" rx="35.19" ry="18"/>
<text text-anchor="middle" x="5491.06" y="-577.3" font-family="Times,serif" font-size="14.00">input</text>
</g>
<!-- n20&#45;&gt;n47 -->
<g id="edge43" class="edge">
<title>n20&#45;&gt;n47</title>
<path fill="none" stroke="black" d="M5093.52,-581C5093.52,-581 5444.05,-581 5444.05,-581"/>
<polygon fill="black" stroke="black" points="5444.05,-584.5 5454.05,-581 5444.05,-577.5 5444.05,-584.5"/>
<text text-anchor="middle" x="5274.46" y="-584.8" font-family="Times,serif" font-size="14.00">DESIRED_CONCURRENCY_RATIO</text>
</g>
<!-- n18 -->
<g id="node11" class="node">
<title>n18</title>
<ellipse fill="none" stroke="black" cx="4894.42" cy="-527" rx="27" ry="18"/>
<text text-anchor="middle" x="4894.42" y="-523.3" font-family="Times,serif" font-size="14.00">rhs</text>
</g>
<!-- n23 -->
<g id="node12" class="node">
<title>n23</title>
<ellipse fill="none" stroke="black" cx="1456.66" cy="-877" rx="31.4" ry="18"/>
<text text-anchor="middle" x="1456.66" y="-873.3" font-family="Times,serif" font-size="14.00">2.00</text>
</g>
<!-- n22 -->
<g id="node13" class="node">
<title>n22</title>
<ellipse fill="none" stroke="black" cx="1943.79" cy="-877" rx="27" ry="18"/>
<text text-anchor="middle" x="1943.79" y="-873.3" font-family="Times,serif" font-size="14.00">lhs</text>
</g>
<!-- n23&#45;&gt;n22 -->
<g id="edge6" class="edge">
<title>n23&#45;&gt;n22</title>
<path fill="none" stroke="black" d="M1488.24,-877C1488.24,-877 1905.05,-877 1905.05,-877"/>
<polygon fill="black" stroke="black" points="1905.05,-880.5 1915.05,-877 1905.05,-873.5 1905.05,-880.5"/>
</g>
<!-- n25 -->
<g id="node14" class="node">
<title>n25</title>
<ellipse fill="none" stroke="black" cx="2165.48" cy="-823" rx="41.69" ry="18"/>
<text text-anchor="middle" x="2165.48" y="-819.3" font-family="Times,serif" font-size="14.00">output</text>
</g>
<!-- n40 -->
<g id="node29" class="node">
<title>n40</title>
<ellipse fill="none" stroke="black" cx="4192.5" cy="-842" rx="30.59" ry="18"/>
<text text-anchor="middle" x="4192.5" y="-838.3" font-family="Times,serif" font-size="14.00">max</text>
</g>
<!-- n25&#45;&gt;n40 -->
<g id="edge45" class="edge">
<title>n25&#45;&gt;n40</title>
<path fill="none" stroke="black" d="M2201.53,-832.5C2201.53,-832.5 4154.57,-832.5 4154.57,-832.5"/>
<polygon fill="black" stroke="black" points="4154.57,-836 4164.57,-832.5 4154.57,-829 4154.57,-836"/>
<text text-anchor="middle" x="3314.72" y="-870.8" font-family="Times,serif" font-size="14.00">NORMAL_CONCURRENCY_LIMIT</text>
</g>
<!-- n32 -->
<g id="node35" class="node">
<title>n32</title>
<ellipse fill="none" stroke="black" cx="3571.82" cy="-662" rx="30.59" ry="18"/>
<text text-anchor="middle" x="3571.82" y="-658.3" font-family="Times,serif" font-size="14.00">max</text>
</g>
<!-- n25&#45;&gt;n32 -->
<g id="edge44" class="edge">
<title>n25&#45;&gt;n32</title>
<path fill="none" stroke="black" d="M2203.09,-815C2343.56,-815 2829.53,-815 2829.53,-815 2829.53,-815 2829.53,-660.5 2829.53,-660.5 2829.53,-660.5 3529.35,-660.5 3529.35,-660.5"/>
<polygon fill="black" stroke="black" points="3529.35,-664 3539.35,-660.5 3529.35,-657 3529.35,-664"/>
<text text-anchor="middle" x="2808.58" y="-818.8" font-family="Times,serif" font-size="14.00">NORMAL_CONCURRENCY_LIMIT</text>
</g>
<!-- n24 -->
<g id="node15" class="node">
<title>n24</title>
<ellipse fill="none" stroke="black" cx="1943.79" cy="-823" rx="27" ry="18"/>
<text text-anchor="middle" x="1943.79" y="-819.3" font-family="Times,serif" font-size="14.00">rhs</text>
</g>
<!-- n24&#45;&gt;n25 -->
<!-- n29 -->
<g id="node16" class="node">
<title>n29</title>
<ellipse fill="none" stroke="black" cx="2165.48" cy="-656" rx="31.4" ry="18"/>
<text text-anchor="middle" x="2165.48" y="-652.3" font-family="Times,serif" font-size="14.00">5.00</text>
</g>
<!-- n28 -->
<g id="node17" class="node">
<title>n28</title>
<ellipse fill="none" stroke="black" cx="2642.08" cy="-656" rx="27" ry="18"/>
<text text-anchor="middle" x="2642.08" y="-652.3" font-family="Times,serif" font-size="14.00">lhs</text>
</g>
<!-- n29&#45;&gt;n28 -->
<g id="edge8" class="edge">
<title>n29&#45;&gt;n28</title>
<path fill="none" stroke="black" d="M2197.12,-656C2197.12,-656 2603.17,-656 2603.17,-656"/>
<polygon fill="black" stroke="black" points="2603.17,-659.5 2613.17,-656 2603.17,-652.5 2603.17,-659.5"/>
</g>
<!-- n30 -->
<g id="node18" class="node">
<title>n30</title>
<ellipse fill="none" stroke="black" cx="3051.12" cy="-629" rx="41.69" ry="18"/>
<text text-anchor="middle" x="3051.12" y="-625.3" font-family="Times,serif" font-size="14.00">output</text>
</g>
<!-- n28&#45;&gt;n30 -->
<!-- n33 -->
<g id="node34" class="node">
<title>n33</title>
<ellipse fill="none" stroke="black" cx="3571.82" cy="-608" rx="35.19" ry="18"/>
<text text-anchor="middle" x="3571.82" y="-604.3" font-family="Times,serif" font-size="14.00">input</text>
</g>
<!-- n30&#45;&gt;n33 -->
<g id="edge52" class="edge">
<title>n30&#45;&gt;n33</title>
<path fill="none" stroke="black" d="M3085.69,-618.5C3085.69,-618.5 3531.01,-618.5 3531.01,-618.5"/>
<polygon fill="black" stroke="black" points="3531.01,-622 3541.01,-618.5 3531.01,-615 3531.01,-622"/>
<text text-anchor="middle" x="3314.72" y="-622.8" font-family="Times,serif" font-size="14.00">CONCURRENCY_INCREMENT_SINGLE_TICK</text>
</g>
<!-- n27 -->
<g id="node19" class="node">
<title>n27</title>
<ellipse fill="none" stroke="black" cx="2642.08" cy="-602" rx="27" ry="18"/>
<text text-anchor="middle" x="2642.08" y="-598.3" font-family="Times,serif" font-size="14.00">rhs</text>
</g>
<!-- n56 -->
<g id="node20" class="node">
<title>n56</title>
<ellipse fill="none" stroke="black" cx="2642.08" cy="-1035" rx="27" ry="18"/>
<text text-anchor="middle" x="2642.08" y="-1031.3" font-family="Times,serif" font-size="14.00">lhs</text>
</g>
<!-- n57 -->
<g id="node21" class="node">
<title>n57</title>
<ellipse fill="none" stroke="black" cx="3051.12" cy="-1035" rx="41.69" ry="18"/>
<text text-anchor="middle" x="3051.12" y="-1031.3" font-family="Times,serif" font-size="14.00">output</text>
</g>
<!-- n56&#45;&gt;n57 -->
<!-- n34 -->
<g id="node37" class="node">
<title>n34</title>
<ellipse fill="none" stroke="black" cx="3571.82" cy="-716" rx="34.39" ry="18"/>
<text text-anchor="middle" x="3571.82" y="-712.3" font-family="Times,serif" font-size="14.00">reset</text>
</g>
<!-- n57&#45;&gt;n34 -->
<g id="edge53" class="edge">
<title>n57&#45;&gt;n34</title>
<path fill="none" stroke="black" d="M3092.46,-1032.33C3217.55,-1032.33 3583.53,-1032.33 3583.53,-1032.33 3583.53,-1032.33 3583.53,-744.52 3583.53,-744.52"/>
<polygon fill="black" stroke="black" points="3587.03,-744.52 3583.53,-734.52 3580.03,-744.52 3587.03,-744.52"/>
<text text-anchor="middle" x="3314.72" y="-832.8" font-family="Times,serif" font-size="14.00">IS_OVERLOAD</text>
</g>
<!-- n73 -->
<g id="node46" class="node">
<title>n73</title>
<ellipse fill="none" stroke="black" cx="3571.82" cy="-1357" rx="38.19" ry="18"/>
<text text-anchor="middle" x="3571.82" y="-1353.3" font-family="Times,serif" font-size="14.00">signal</text>
</g>
<!-- n57&#45;&gt;n73 -->
<g id="edge54" class="edge">
<title>n57&#45;&gt;n73</title>
<path fill="none" stroke="black" d="M3089.41,-1042.67C3207.88,-1042.67 3560.53,-1042.67 3560.53,-1042.67 3560.53,-1042.67 3560.53,-1328.14 3560.53,-1328.14"/>
<polygon fill="black" stroke="black" points="3557.03,-1328.14 3560.53,-1338.14 3564.03,-1328.14 3557.03,-1328.14"/>
<text text-anchor="middle" x="3314.72" y="-1274.8" font-family="Times,serif" font-size="14.00">IS_OVERLOAD</text>
</g>
<!-- n55 -->
<g id="node22" class="node">
<title>n55</title>
<ellipse fill="none" stroke="black" cx="2642.08" cy="-981" rx="27" ry="18"/>
<text text-anchor="middle" x="2642.08" y="-977.3" font-family="Times,serif" font-size="14.00">rhs</text>
</g>
<!-- n15 -->
<g id="node23" class="node">
<title>n15</title>
<ellipse fill="none" stroke="black" cx="798.43" cy="-1265" rx="35.19" ry="18"/>
<text text-anchor="middle" x="798.43" y="-1261.3" font-family="Times,serif" font-size="14.00">input</text>
</g>
<!-- n16 -->
<g id="node25" class="node">
<title>n16</title>
<ellipse fill="none" stroke="black" cx="982.67" cy="-1265" rx="41.69" ry="18"/>
<text text-anchor="middle" x="982.67" y="-1261.3" font-family="Times,serif" font-size="14.00">output</text>
</g>
<!-- n15&#45;&gt;n16 -->
<!-- n16&#45;&gt;n11 -->
<g id="edge55" class="edge">
<title>n16&#45;&gt;n11</title>
<path fill="none" stroke="black" d="M1019.53,-1256.02C1019.53,-1221.33 1019.53,-1098 1019.53,-1098 1019.53,-1098 1199.49,-1098 1199.49,-1098"/>
<polygon fill="black" stroke="black" points="1199.49,-1101.5 1209.49,-1098 1199.49,-1094.5 1199.49,-1101.5"/>
<text text-anchor="middle" x="1137.77" y="-1184.8" font-family="Times,serif" font-size="14.00">LATENCY_EMA</text>
</g>
<!-- n48 -->
<g id="node27" class="node">
<title>n48</title>
<ellipse fill="none" stroke="black" cx="5683.75" cy="-581" rx="41.69" ry="18"/>
<text text-anchor="middle" x="5683.75" y="-577.3" font-family="Times,serif" font-size="14.00">output</text>
</g>
<!-- n47&#45;&gt;n48 -->
<!-- n53 -->
<g id="node38" class="node">
<title>n53</title>
<ellipse fill="none" stroke="black" cx="6072.94" cy="-581" rx="80.69" ry="18"/>
<text text-anchor="middle" x="6072.94" y="-577.3" font-family="Times,serif" font-size="14.00">load_multiplier</text>
</g>
<!-- n48&#45;&gt;n53 -->
<g id="edge49" class="edge">
<title>n48&#45;&gt;n53</title>
<path fill="none" stroke="black" d="M5720.36,-590C5720.36,-590 5990.57,-590 5990.57,-590"/>
<polygon fill="black" stroke="black" points="5990.57,-593.5 6000.57,-590 5990.57,-586.5 5990.57,-593.5"/>
<text text-anchor="middle" x="5854.34" y="-584.8" font-family="Times,serif" font-size="14.00">LOAD_MULTIPLIER</text>
</g>
<!-- n76 -->
<g id="node48" class="node">
<title>n76</title>
<ellipse fill="none" stroke="black" cx="6072.94" cy="-414" rx="38.19" ry="18"/>
<text text-anchor="middle" x="6072.94" y="-410.3" font-family="Times,serif" font-size="14.00">signal</text>
</g>
<!-- n48&#45;&gt;n76 -->
<g id="edge50" class="edge">
<title>n48&#45;&gt;n76</title>
<path fill="none" stroke="black" d="M5725.53,-581C5782.77,-581 5878.53,-581 5878.53,-581 5878.53,-581 5878.53,-423 5878.53,-423 5878.53,-423 6028,-423 6028,-423"/>
<polygon fill="black" stroke="black" points="6028,-426.5 6038,-423 6028,-419.5 6028,-426.5"/>
<text text-anchor="middle" x="5854.34" y="-533.8" font-family="Times,serif" font-size="14.00">LOAD_MULTIPLIER</text>
</g>
<!-- n41 -->
<g id="node28" class="node">
<title>n41</title>
<ellipse fill="none" stroke="black" cx="4192.5" cy="-896" rx="85.29" ry="18"/>
<text text-anchor="middle" x="4192.5" y="-892.3" font-family="Times,serif" font-size="14.00">control_variable</text>
</g>
<!-- n44 -->
<g id="node30" class="node">
<title>n44</title>
<ellipse fill="none" stroke="black" cx="4192.5" cy="-788" rx="50.89" ry="18"/>
<text text-anchor="middle" x="4192.5" y="-784.3" font-family="Times,serif" font-size="14.00">optimize</text>
</g>
<!-- n45 -->
<g id="node31" class="node">
<title>n45</title>
<ellipse fill="none" stroke="black" cx="4469.03" cy="-788" rx="41.69" ry="18"/>
<text text-anchor="middle" x="4469.03" y="-784.3" font-family="Times,serif" font-size="14.00">output</text>
</g>
<!-- n44&#45;&gt;n45 -->
<!-- n45&#45;&gt;n19 -->
<g id="edge47" class="edge">
<title>n45&#45;&gt;n19</title>
<path fill="none" stroke="black" d="M4508.68,-782C4614.31,-782 4894.53,-782 4894.53,-782 4894.53,-782 4894.53,-610.71 4894.53,-610.71"/>
<polygon fill="black" stroke="black" points="4898.03,-610.71 4894.53,-600.71 4891.03,-610.71 4898.03,-610.71"/>
<text text-anchor="middle" x="4705.42" y="-687.8" font-family="Times,serif" font-size="14.00">DESIRED_CONCURRENCY</text>
</g>
<!-- n70 -->
<g id="node44" class="node">
<title>n70</title>
<ellipse fill="none" stroke="black" cx="4894.42" cy="-1171" rx="38.19" ry="18"/>
<text text-anchor="middle" x="4894.42" y="-1167.3" font-family="Times,serif" font-size="14.00">signal</text>
</g>
<!-- n45&#45;&gt;n70 -->
<g id="edge48" class="edge">
<title>n45&#45;&gt;n70</title>
<path fill="none" stroke="black" d="M4508.76,-794C4609.06,-794 4864.53,-794 4864.53,-794 4864.53,-794 4864.53,-1147.79 4864.53,-1147.79"/>
<polygon fill="black" stroke="black" points="4861.03,-1147.79 4864.53,-1157.79 4868.03,-1147.79 4861.03,-1147.79"/>
<text text-anchor="middle" x="4705.42" y="-868.8" font-family="Times,serif" font-size="14.00">DESIRED_CONCURRENCY</text>
</g>
<!-- n43 -->
<g id="node32" class="node">
<title>n43</title>
<ellipse fill="none" stroke="black" cx="4192.5" cy="-950" rx="48.99" ry="18"/>
<text text-anchor="middle" x="4192.5" y="-946.3" font-family="Times,serif" font-size="14.00">setpoint</text>
</g>
<!-- n42 -->
<g id="node33" class="node">
<title>n42</title>
<ellipse fill="none" stroke="black" cx="4192.5" cy="-1004" rx="38.19" ry="18"/>
<text text-anchor="middle" x="4192.5" y="-1000.3" font-family="Times,serif" font-size="14.00">signal</text>
</g>
<!-- n35 -->
<g id="node36" class="node">
<title>n35</title>
<ellipse fill="none" stroke="black" cx="3728.76" cy="-716" rx="41.69" ry="18"/>
<text text-anchor="middle" x="3728.76" y="-712.3" font-family="Times,serif" font-size="14.00">output</text>
</g>
<!-- n35&#45;&gt;n44 -->
<g id="edge46" class="edge">
<title>n35&#45;&gt;n44</title>
<path fill="none" stroke="black" d="M3729.53,-734.41C3729.53,-755.6 3729.53,-787.5 3729.53,-787.5 3729.53,-787.5 4129.67,-787.5 4129.67,-787.5"/>
<polygon fill="black" stroke="black" points="4129.67,-791 4139.67,-787.5 4129.67,-784 4129.67,-791"/>
<text text-anchor="middle" x="3938.86" y="-743.8" font-family="Times,serif" font-size="14.00">CONCURRENCY_INCREMENT</text>
</g>
<!-- n34&#45;&gt;n35 -->
<!-- n65 -->
<g id="node39" class="node">
<title>n65</title>
<ellipse fill="none" stroke="black" cx="1456.66" cy="-80" rx="113.98" ry="18"/>
<text text-anchor="middle" x="1456.66" y="-76.3" font-family="Times,serif" font-size="14.00">accepted_concurrency</text>
</g>
<!-- n65&#45;&gt;n24 -->
<g id="edge27" class="edge">
<title>n65&#45;&gt;n24</title>
<path fill="none" stroke="black" d="M1564.89,-86C1642.55,-86 1733.53,-86 1733.53,-86 1733.53,-86 1733.53,-817 1733.53,-817 1733.53,-817 1906.49,-817 1906.49,-817"/>
<polygon fill="black" stroke="black" points="1906.49,-820.5 1916.49,-817 1906.49,-813.5 1906.49,-820.5"/>
<text text-anchor="middle" x="1733.04" y="-419.8" font-family="Times,serif" font-size="14.00">ACCEPTED_CONCURRENCY</text>
</g>
<!-- n65&#45;&gt;n41 -->
<g id="edge29" class="edge">
<title>n65&#45;&gt;n41</title>
<path fill="none" stroke="black" d="M1543.71,-92C1596.02,-92 1652.53,-92 1652.53,-92 1652.53,-92 1652.53,-904.5 1652.53,-904.5 1652.53,-904.5 4104.97,-904.5 4104.97,-904.5"/>
<polygon fill="black" stroke="black" points="4104.97,-908 4114.97,-904.5 4104.97,-901 4104.97,-908"/>
<text text-anchor="middle" x="2808.58" y="-370.8" font-family="Times,serif" font-size="14.00">ACCEPTED_CONCURRENCY</text>
</g>
<!-- n64 -->
<g id="node40" class="node">
<title>n64</title>
<ellipse fill="none" stroke="black" cx="1943.79" cy="-80" rx="38.19" ry="18"/>
<text text-anchor="middle" x="1943.79" y="-76.3" font-family="Times,serif" font-size="14.00">signal</text>
</g>
<!-- n65&#45;&gt;n64 -->
<g id="edge30" class="edge">
<title>n65&#45;&gt;n64</title>
<path fill="none" stroke="black" d="M1543.75,-68C1543.75,-68 1903.02,-68 1903.02,-68"/>
<polygon fill="black" stroke="black" points="1903.02,-71.5 1913.02,-68 1903.02,-64.5 1903.02,-71.5"/>
<text text-anchor="middle" x="1733.04" y="-79.8" font-family="Times,serif" font-size="14.00">ACCEPTED_CONCURRENCY</text>
</g>
<!-- n37 -->
<g id="node55" class="node">
<title>n37</title>
<ellipse fill="none" stroke="black" cx="1943.79" cy="-435" rx="35.19" ry="18"/>
<text text-anchor="middle" x="1943.79" y="-431.3" font-family="Times,serif" font-size="14.00">input</text>
</g>
<!-- n65&#45;&gt;n37 -->
<g id="edge28" class="edge">
<title>n65&#45;&gt;n37</title>
<path fill="none" stroke="black" d="M1570.87,-80C1675.61,-80 1814.53,-80 1814.53,-80 1814.53,-80 1814.53,-422.67 1814.53,-422.67 1814.53,-422.67 1905.81,-422.67 1905.81,-422.67"/>
<polygon fill="black" stroke="black" points="1905.81,-426.17 1915.81,-422.67 1905.81,-419.17 1905.81,-426.17"/>
<text text-anchor="middle" x="1733.04" y="-343.8" font-family="Times,serif" font-size="14.00">ACCEPTED_CONCURRENCY</text>
</g>
<!-- n64&#45;&gt;n65 -->
<!-- n68 -->
<g id="node41" class="node">
<title>n68</title>
<ellipse fill="none" stroke="black" cx="4469.03" cy="-277" rx="114.28" ry="18"/>
<text text-anchor="middle" x="4469.03" y="-273.3" font-family="Times,serif" font-size="14.00">incoming_concurrency</text>
</g>
<!-- n68&#45;&gt;n18 -->
<g id="edge35" class="edge">
<title>n68&#45;&gt;n18</title>
<path fill="none" stroke="black" d="M4579.53,-281.77C4579.53,-316.33 4579.53,-527 4579.53,-527 4579.53,-527 4855.51,-527 4855.51,-527"/>
<polygon fill="black" stroke="black" points="4855.51,-530.5 4865.51,-527 4855.51,-523.5 4855.51,-530.5"/>
<text text-anchor="middle" x="4705.42" y="-361.8" font-family="Times,serif" font-size="14.00">INCOMING_CONCURRENCY</text>
</g>
<!-- n67 -->
<g id="node42" class="node">
<title>n67</title>
<ellipse fill="none" stroke="black" cx="4894.42" cy="-273" rx="38.19" ry="18"/>
<text text-anchor="middle" x="4894.42" y="-269.3" font-family="Times,serif" font-size="14.00">signal</text>
</g>
<!-- n68&#45;&gt;n67 -->
<g id="edge36" class="edge">
<title>n68&#45;&gt;n67</title>
<path fill="none" stroke="black" d="M4574.18,-269.67C4574.18,-269.67 4844.95,-269.67 4844.95,-269.67"/>
<polygon fill="black" stroke="black" points="4844.95,-273.17 4854.95,-269.67 4844.95,-266.17 4844.95,-273.17"/>
<text text-anchor="middle" x="4705.42" y="-276.8" font-family="Times,serif" font-size="14.00">INCOMING_CONCURRENCY</text>
</g>
<!-- n67&#45;&gt;n68 -->
<!-- n71 -->
<g id="node43" class="node">
<title>n71</title>
<ellipse fill="none" stroke="black" cx="4469.03" cy="-1171" rx="106.68" ry="18"/>
<text text-anchor="middle" x="4469.03" y="-1167.3" font-family="Times,serif" font-size="14.00">desired_concurrency</text>
</g>
<!-- n71&#45;&gt;n19 -->
<g id="edge31" class="edge">
<title>n71&#45;&gt;n19</title>
<path fill="none" stroke="black" d="M4543.53,-1157.88C4543.53,-1072.06 4543.53,-594.5 4543.53,-594.5 4543.53,-594.5 4864.54,-594.5 4864.54,-594.5"/>
<polygon fill="black" stroke="black" points="4864.54,-598 4874.54,-594.5 4864.54,-591 4864.54,-598"/>
<text text-anchor="middle" x="4705.42" y="-1059.8" font-family="Times,serif" font-size="14.00">DESIRED_CONCURRENCY</text>
</g>
<!-- n71&#45;&gt;n70 -->
<g id="edge32" class="edge">
<title>n71&#45;&gt;n70</title>
<path fill="none" stroke="black" d="M4570.38,-1165C4570.38,-1165 4846.53,-1165 4846.53,-1165"/>
<polygon fill="black" stroke="black" points="4846.53,-1168.5 4856.53,-1165 4846.53,-1161.5 4846.53,-1168.5"/>
<text text-anchor="middle" x="4705.42" y="-1174.8" font-family="Times,serif" font-size="14.00">DESIRED_CONCURRENCY</text>
</g>
<!-- n70&#45;&gt;n71 -->
<!-- n74 -->
<g id="node45" class="node">
<title>n74</title>
<ellipse fill="none" stroke="black" cx="3051.12" cy="-1357" rx="63.09" ry="18"/>
<text text-anchor="middle" x="3051.12" y="-1353.3" font-family="Times,serif" font-size="14.00">is_overload</text>
</g>
<!-- n74&#45;&gt;n34 -->
<g id="edge37" class="edge">
<title>n74&#45;&gt;n34</title>
<path fill="none" stroke="black" d="M3103.53,-1346.67C3103.53,-1264.22 3103.53,-716 3103.53,-716 3103.53,-716 3525.49,-716 3525.49,-716"/>
<polygon fill="black" stroke="black" points="3525.49,-719.5 3535.49,-716 3525.49,-712.5 3525.49,-719.5"/>
<text text-anchor="middle" x="3314.72" y="-1317.8" font-family="Times,serif" font-size="14.00">IS_OVERLOAD</text>
</g>
<!-- n74&#45;&gt;n73 -->
<g id="edge38" class="edge">
<title>n74&#45;&gt;n73</title>
<path fill="none" stroke="black" d="M3111.11,-1351C3111.11,-1351 3523.86,-1351 3523.86,-1351"/>
<polygon fill="black" stroke="black" points="3523.86,-1354.5 3533.86,-1351 3523.86,-1347.5 3523.86,-1354.5"/>
<text text-anchor="middle" x="3314.72" y="-1360.8" font-family="Times,serif" font-size="14.00">IS_OVERLOAD</text>
</g>
<!-- n73&#45;&gt;n74 -->
<!-- n77 -->
<g id="node47" class="node">
<title>n77</title>
<ellipse fill="none" stroke="black" cx="5683.75" cy="-414" rx="80.69" ry="18"/>
<text text-anchor="middle" x="5683.75" y="-410.3" font-family="Times,serif" font-size="14.00">load_multiplier</text>
</g>
<!-- n77&#45;&gt;n53 -->
<g id="edge39" class="edge">
<title>n77&#45;&gt;n53</title>
<path fill="none" stroke="black" d="M5745.53,-425.88C5745.53,-462.62 5745.53,-572 5745.53,-572 5745.53,-572 5990.78,-572 5990.78,-572"/>
<polygon fill="black" stroke="black" points="5990.78,-575.5 6000.78,-572 5990.78,-568.5 5990.78,-575.5"/>
<text text-anchor="middle" x="5854.34" y="-483.8" font-family="Times,serif" font-size="14.00">LOAD_MULTIPLIER</text>
</g>
<!-- n77&#45;&gt;n76 -->
<g id="edge40" class="edge">
<title>n77&#45;&gt;n76</title>
<path fill="none" stroke="black" d="M5754.68,-405C5754.68,-405 6027.97,-405 6027.97,-405"/>
<polygon fill="black" stroke="black" points="6027.97,-408.5 6037.97,-405 6027.97,-401.5 6027.97,-408.5"/>
<text text-anchor="middle" x="5854.34" y="-413.8" font-family="Times,serif" font-size="14.00">LOAD_MULTIPLIER</text>
</g>
<!-- n76&#45;&gt;n77 -->
<!-- n62 -->
<g id="node50" class="node">
<title>n62</title>
<ellipse fill="none" stroke="black" cx="2165.48" cy="-1169" rx="38.19" ry="18"/>
<text text-anchor="middle" x="2165.48" y="-1165.3" font-family="Times,serif" font-size="14.00">signal</text>
</g>
<!-- n61&#45;&gt;n62 -->
<!-- n62&#45;&gt;n55 -->
<g id="edge60" class="edge">
<title>n62&#45;&gt;n55</title>
<path fill="none" stroke="black" d="M2165.53,-1150.63C2165.53,-1103.33 2165.53,-981 2165.53,-981 2165.53,-981 2603.23,-981 2603.23,-981"/>
<polygon fill="black" stroke="black" points="2603.23,-984.5 2613.23,-981 2603.23,-977.5 2603.23,-984.5"/>
<text text-anchor="middle" x="2423.08" y="-1068.8" font-family="Times,serif" font-size="14.00">SETPOINT</text>
</g>
<!-- n62&#45;&gt;n43 -->
<g id="edge59" class="edge">
<title>n62&#45;&gt;n43</title>
<path fill="none" stroke="black" d="M2203.79,-1170C2479.42,-1170 4149.53,-1170 4149.53,-1170 4149.53,-1170 4149.53,-970.69 4149.53,-970.69"/>
<polygon fill="black" stroke="black" points="4153.03,-970.69 4149.53,-960.69 4146.03,-970.69 4153.03,-970.69"/>
<text text-anchor="middle" x="3314.72" y="-1189.8" font-family="Times,serif" font-size="14.00">SETPOINT</text>
</g>
<!-- n59 -->
<g id="node51" class="node">
<title>n59</title>
<ellipse fill="none" stroke="black" cx="2165.48" cy="-1336" rx="38.19" ry="18"/>
<text text-anchor="middle" x="2165.48" y="-1332.3" font-family="Times,serif" font-size="14.00">signal</text>
</g>
<!-- n59&#45;&gt;n56 -->
<g id="edge62" class="edge">
<title>n59&#45;&gt;n56</title>
<path fill="none" stroke="black" d="M2196.42,-1325C2302.13,-1325 2642.53,-1325 2642.53,-1325 2642.53,-1325 2642.53,-1064.65 2642.53,-1064.65"/>
<polygon fill="black" stroke="black" points="2646.03,-1064.65 2642.53,-1054.65 2639.03,-1064.65 2646.03,-1064.65"/>
<text text-anchor="middle" x="2423.08" y="-1213.8" font-family="Times,serif" font-size="14.00">SIGNAL</text>
</g>
<!-- n59&#45;&gt;n42 -->
<g id="edge61" class="edge">
<title>n59&#45;&gt;n42</title>
<path fill="none" stroke="black" d="M2202.84,-1332C2478.95,-1332 4192.53,-1332 4192.53,-1332 4192.53,-1332 4192.53,-1033.62 4192.53,-1033.62"/>
<polygon fill="black" stroke="black" points="4196.03,-1033.62 4192.53,-1023.62 4189.03,-1033.62 4196.03,-1033.62"/>
<text text-anchor="middle" x="3314.72" y="-1227.8" font-family="Times,serif" font-size="14.00">SIGNAL</text>
</g>
<!-- n59&#45;&gt;n59 -->
<!-- n2 -->
<g id="node52" class="node">
<title>n2</title>
<ellipse fill="none" stroke="black" cx="99.6" cy="-1494" rx="41.69" ry="18"/>
<text text-anchor="middle" x="99.6" y="-1490.3" font-family="Times,serif" font-size="14.00">output</text>
</g>
<!-- n2&#45;&gt;n4 -->
<g id="edge56" class="edge">
<title>n2&#45;&gt;n4</title>
<path fill="none" stroke="black" d="M136.53,-1485.49C136.53,-1451.46 136.53,-1327 136.53,-1327 136.53,-1327 275.31,-1327 275.31,-1327"/>
<polygon fill="black" stroke="black" points="275.31,-1330.5 285.31,-1327 275.31,-1323.5 275.31,-1330.5"/>
<text text-anchor="middle" x="234.19" y="-1390.8" font-family="Times,serif" font-size="14.00">LATENCY</text>
</g>
<!-- n2&#45;&gt;n15 -->
<g id="edge57" class="edge">
<title>n2&#45;&gt;n15</title>
<path fill="none" stroke="black" d="M133.53,-1483.25C133.53,-1436.22 133.53,-1251 133.53,-1251 133.53,-1251 763.64,-1251 763.64,-1251"/>
<polygon fill="black" stroke="black" points="763.64,-1254.5 773.64,-1251 763.64,-1247.5 763.64,-1254.5"/>
<text text-anchor="middle" x="394.19" y="-1143.8" font-family="Times,serif" font-size="14.00">LATENCY</text>
</g>
<!-- n2&#45;&gt;n59 -->
<g id="edge58" class="edge">
<title>n2&#45;&gt;n59</title>
<path fill="none" stroke="black" d="M139.53,-1488.1C139.53,-1460.78 139.53,-1348 139.53,-1348 139.53,-1348 2124.55,-1348 2124.55,-1348"/>
<polygon fill="black" stroke="black" points="2124.55,-1351.5 2134.55,-1348 2124.55,-1344.5 2124.55,-1351.5"/>
<text text-anchor="middle" x="982.67" y="-1481.8" font-family="Times,serif" font-size="14.00">LATENCY</text>
</g>
<!-- n51 -->
<g id="node53" class="node">
<title>n51</title>
<ellipse fill="none" stroke="black" cx="1456.66" cy="-416" rx="113.98" ry="18"/>
<text text-anchor="middle" x="1456.66" y="-412.3" font-family="Times,serif" font-size="14.00">accepted_concurrency</text>
</g>
<!-- n51&#45;&gt;n24 -->
<g id="edge23" class="edge">
<title>n51&#45;&gt;n24</title>
<path fill="none" stroke="black" d="M1534.53,-429.27C1534.53,-499.96 1534.53,-829 1534.53,-829 1534.53,-829 1906.37,-829 1906.37,-829"/>
<polygon fill="black" stroke="black" points="1906.37,-832.5 1916.37,-829 1906.37,-825.5 1906.37,-832.5"/>
<text text-anchor="middle" x="1733.04" y="-660.8" font-family="Times,serif" font-size="14.00">ACCEPTED_CONCURRENCY</text>
</g>
<!-- n51&#45;&gt;n41 -->
<g id="edge25" class="edge">
<title>n51&#45;&gt;n41</title>
<path fill="none" stroke="black" d="M1566.25,-410.67C2068.47,-410.67 4125.53,-410.67 4125.53,-410.67 4125.53,-410.67 4125.53,-872.97 4125.53,-872.97"/>
<polygon fill="black" stroke="black" points="4122.03,-872.97 4125.53,-882.97 4129.03,-872.97 4122.03,-872.97"/>
<text text-anchor="middle" x="2808.58" y="-1515.8" font-family="Times,serif" font-size="14.00">ACCEPTED_CONCURRENCY</text>
</g>
<!-- n51&#45;&gt;n64 -->
<g id="edge26" class="edge">
<title>n51&#45;&gt;n64</title>
<path fill="none" stroke="black" d="M1545.29,-404.33C1685.94,-404.33 1944.53,-404.33 1944.53,-404.33 1944.53,-404.33 1944.53,-109.88 1944.53,-109.88"/>
<polygon fill="black" stroke="black" points="1948.03,-109.88 1944.53,-99.88 1941.03,-109.88 1948.03,-109.88"/>
<text text-anchor="middle" x="1733.04" y="-381.8" font-family="Times,serif" font-size="14.00">ACCEPTED_CONCURRENCY</text>
</g>
<!-- n51&#45;&gt;n37 -->
<g id="edge24" class="edge">
<title>n51&#45;&gt;n37</title>
<path fill="none" stroke="black" d="M1541.79,-428.33C1541.79,-428.33 1899.21,-428.33 1899.21,-428.33"/>
<polygon fill="black" stroke="black" points="1899.21,-431.83 1909.21,-428.33 1899.21,-424.83 1899.21,-431.83"/>
<text text-anchor="middle" x="1733.04" y="-457.8" font-family="Times,serif" font-size="14.00">ACCEPTED_CONCURRENCY</text>
</g>
<!-- n50 -->
<g id="node54" class="node">
<title>n50</title>
<ellipse fill="none" stroke="black" cx="1456.66" cy="-362" rx="114.28" ry="18"/>
<text text-anchor="middle" x="1456.66" y="-358.3" font-family="Times,serif" font-size="14.00">incoming_concurrency</text>
</g>
<!-- n50&#45;&gt;n18 -->
<g id="edge33" class="edge">
<title>n50&#45;&gt;n18</title>
<path fill="none" stroke="black" d="M1565.22,-368C2149.59,-368 4894.53,-368 4894.53,-368 4894.53,-368 4894.53,-497.25 4894.53,-497.25"/>
<polygon fill="black" stroke="black" points="4891.03,-497.25 4894.53,-507.25 4898.03,-497.25 4891.03,-497.25"/>
<text text-anchor="middle" x="3314.72" y="-305.8" font-family="Times,serif" font-size="14.00">INCOMING_CONCURRENCY</text>
</g>
<!-- n50&#45;&gt;n67 -->
<g id="edge34" class="edge">
<title>n50&#45;&gt;n67</title>
<path fill="none" stroke="black" d="M1565.1,-356C2145.71,-356 4860.53,-356 4860.53,-356 4860.53,-356 4860.53,-293.4 4860.53,-293.4"/>
<polygon fill="black" stroke="black" points="4864.03,-293.4 4860.53,-283.4 4857.03,-293.4 4864.03,-293.4"/>
<text text-anchor="middle" x="3314.72" y="-234.8" font-family="Times,serif" font-size="14.00">INCOMING_CONCURRENCY</text>
</g>
<!-- n38 -->
<g id="node56" class="node">
<title>n38</title>
<ellipse fill="none" stroke="black" cx="2165.48" cy="-435" rx="41.69" ry="18"/>
<text text-anchor="middle" x="2165.48" y="-431.3" font-family="Times,serif" font-size="14.00">output</text>
</g>
<!-- n37&#45;&gt;n38 -->
<!-- n38&#45;&gt;n27 -->
<g id="edge41" class="edge">
<title>n38&#45;&gt;n27</title>
<path fill="none" stroke="black" d="M2202.53,-443.51C2202.53,-477.54 2202.53,-602 2202.53,-602 2202.53,-602 2603.07,-602 2603.07,-602"/>
<polygon fill="black" stroke="black" points="2603.07,-605.5 2613.07,-602 2603.07,-598.5 2603.07,-605.5"/>
<text text-anchor="middle" x="2423.08" y="-521.8" font-family="Times,serif" font-size="14.00">SQRT_CONCURRENCY_INCREMENT</text>
</g>
</g>
</svg>
