<?xml version="1.0" encoding="UTF-8" standalone="no"?>
<!DOCTYPE svg PUBLIC "-//W3C//DTD SVG 1.1//EN"
 "http://www.w3.org/Graphics/SVG/1.1/DTD/svg11.dtd">
<!-- Generated by graphviz version 2.43.0 (0)
 -->
<!-- Title: %3 Pages: 1 -->
<svg width="3717pt" height="1755pt"
 viewBox="0.00 0.00 3717.10 1755.00" xmlns="http://www.w3.org/2000/svg" xmlns:xlink="http://www.w3.org/1999/xlink">
<g id="graph0" class="graph" transform="scale(1 1) rotate(0) translate(4 1751)">
<title>%3</title>
<polygon fill="white" stroke="transparent" points="-4,4 -4,-1751 3713.1,-1751 3713.1,4 -4,4"/>
<g id="clust1" class="cluster">
<title>cluster_s1</title>
<polygon fill="none" stroke="black" points="18.4,-1459 18.4,-1672 580.39,-1672 580.39,-1459 18.4,-1459"/>
<text text-anchor="middle" x="299.39" y="-1656.8" font-family="Times,serif" font-size="14.00">ArithmeticCombinator[0]</text>
</g>
<g id="clust4" class="cluster">
<title>cluster_s6</title>
<polygon fill="none" stroke="black" points="1103.66,-1459 1103.66,-1672 2150.24,-1672 2150.24,-1459 1103.66,-1459"/>
<text text-anchor="middle" x="1626.95" y="-1656.8" font-family="Times,serif" font-size="14.00">ArithmeticCombinator[1]</text>
</g>
<g id="clust7" class="cluster">
<title>cluster_s11</title>
<polygon fill="none" stroke="black" points="1631.35,-8 1631.35,-221 2150.24,-221 2150.24,-8 1631.35,-8"/>
<text text-anchor="middle" x="1890.79" y="-205.8" font-family="Times,serif" font-size="14.00">ArithmeticCombinator[2]</text>
</g>
<g id="clust10" class="cluster">
<title>cluster_s15</title>
<polygon fill="none" stroke="black" points="1103.66,-854 1103.66,-1067 2150.24,-1067 2150.24,-854 1103.66,-854"/>
<text text-anchor="middle" x="1626.95" y="-1051.8" font-family="Times,serif" font-size="14.00">ArithmeticCombinator[3]</text>
</g>
<g id="clust13" class="cluster">
<title>cluster_s20</title>
<polygon fill="none" stroke="black" points="1977.45,-354 1977.45,-567 3066.72,-567 3066.72,-354 1977.45,-354"/>
<text text-anchor="middle" x="2522.08" y="-551.8" font-family="Times,serif" font-size="14.00">ArithmeticCombinator[4]</text>
</g>
<g id="clust16" class="cluster">
<title>cluster_s49</title>
<polygon fill="none" stroke="black" points="970.47,-301 970.47,-846 1399.25,-846 1399.25,-301 970.47,-301"/>
<text text-anchor="middle" x="1184.86" y="-830.8" font-family="Times,serif" font-size="14.00">ConcurrencyLimiter[11]</text>
</g>
<g id="clust17" class="cluster">
<title>cluster_s53</title>
<polygon fill="none" stroke="black" points="1054.27,-351 1054.27,-510 1315.45,-510 1315.45,-351 1054.27,-351"/>
<text text-anchor="middle" x="1184.86" y="-494.8" font-family="Times,serif" font-size="14.00">LoadActuator[11.LoadActuator]</text>
</g>
<g id="clust19" class="cluster">
<title>cluster_s50</title>
<polygon fill="none" stroke="black" points="1020.47,-560 1020.47,-773 1349.25,-773 1349.25,-560 1020.47,-560"/>
<text text-anchor="middle" x="1184.86" y="-757.8" font-family="Times,serif" font-size="14.00">Scheduler[11.Scheduler]</text>
</g>
<g id="clust21" class="cluster">
<title>cluster_s55</title>
<polygon fill="none" stroke="black" points="2492.38,-1459 2492.38,-1672 3066.72,-1672 3066.72,-1459 2492.38,-1459"/>
<text text-anchor="middle" x="2779.55" y="-1656.8" font-family="Times,serif" font-size="14.00">Decider[12]</text>
</g>
<g id="clust24" class="cluster">
<title>cluster_s35</title>
<polygon fill="none" stroke="black" points="672.39,-1238 672.39,-1451 1276.46,-1451 1276.46,-1238 672.39,-1238"/>
<text text-anchor="middle" x="974.42" y="-1435.8" font-family="Times,serif" font-size="14.00">EMA[8]</text>
</g>
<g id="clust27" class="cluster">
<title>cluster_s46</title>
<polygon fill="none" stroke="black" points="2484.28,-119 2484.28,-278 3066.72,-278 3066.72,-119 2484.28,-119"/>
<text text-anchor="middle" x="2775.5" y="-262.8" font-family="Times,serif" font-size="14.00">Extrapolator[10]</text>
</g>
<g id="clust30" class="cluster">
<title>cluster_s39</title>
<polygon fill="none" stroke="black" points="2434.24,-934 2434.24,-1309 3066.72,-1309 3066.72,-934 2434.24,-934"/>
<text text-anchor="middle" x="2750.48" y="-1293.8" font-family="Times,serif" font-size="14.00">Gradient[9]</text>
</g>
<g id="clust33" class="cluster">
<title>cluster_s25</title>
<polygon fill="none" stroke="black" points="3410.72,-1152 3410.72,-1419 3701.1,-1419 3701.1,-1152 3410.72,-1152"/>
<text text-anchor="middle" x="3555.91" y="-1403.8" font-family="Times,serif" font-size="14.00">Integrator[5]</text>
</g>
<g id="clust36" class="cluster">
<title>cluster_s33</title>
<polygon fill="none" stroke="black" points="8,-1265 8,-1424 191.19,-1424 191.19,-1265 8,-1265"/>
<text text-anchor="middle" x="99.6" y="-1408.8" font-family="Times,serif" font-size="14.00">PromQL[7]</text>
</g>
<g id="clust38" class="cluster">
<title>cluster_s30</title>
<polygon fill="none" stroke="black" points="1623.25,-687 1623.25,-846 2150.24,-846 2150.24,-687 1623.25,-687"/>
<text text-anchor="middle" x="1886.75" y="-830.8" font-family="Times,serif" font-size="14.00">Sqrt[6]</text>
</g>
<!-- n4 -->
<g id="node1" class="node">
<title>n4</title>
<ellipse fill="none" stroke="black" cx="99.6" cy="-1581" rx="31.4" ry="18"/>
<text text-anchor="middle" x="99.6" y="-1577.3" font-family="Times,serif" font-size="14.00">2.00</text>
</g>
<!-- n3 -->
<g id="node4" class="node">
<title>n3</title>
<ellipse fill="none" stroke="black" cx="314.19" cy="-1581" rx="27" ry="18"/>
<text text-anchor="middle" x="314.19" y="-1577.3" font-family="Times,serif" font-size="14.00">rhs</text>
</g>
<!-- n4&#45;&gt;n3 -->
<g id="edge1" class="edge">
<title>n4&#45;&gt;n3</title>
<path fill="none" stroke="black" d="M130.8,-1581C130.8,-1581 277.03,-1581 277.03,-1581"/>
<polygon fill="black" stroke="black" points="277.03,-1584.5 287.03,-1581 277.03,-1577.5 277.03,-1584.5"/>
</g>
<!-- n2 -->
<g id="node2" class="node">
<title>n2</title>
<ellipse fill="none" stroke="black" cx="314.19" cy="-1527" rx="27" ry="18"/>
<text text-anchor="middle" x="314.19" y="-1523.3" font-family="Times,serif" font-size="14.00">lhs</text>
</g>
<!-- n5 -->
<g id="node3" class="node">
<title>n5</title>
<ellipse fill="none" stroke="black" cx="488.79" cy="-1554" rx="41.69" ry="18"/>
<text text-anchor="middle" x="488.79" y="-1550.3" font-family="Times,serif" font-size="14.00">output</text>
</g>
<!-- n36 -->
<g id="node27" class="node">
<title>n36</title>
<ellipse fill="none" stroke="black" cx="798.43" cy="-1360" rx="76.09" ry="18"/>
<text text-anchor="middle" x="798.43" y="-1356.3" font-family="Times,serif" font-size="14.00">max_envelope</text>
</g>
<!-- n5&#45;&gt;n36 -->
<g id="edge28" class="edge">
<title>n5&#45;&gt;n36</title>
<path fill="none" stroke="black" d="M489.1,-1535.83C489.1,-1488.4 489.1,-1364.5 489.1,-1364.5 489.1,-1364.5 714.73,-1364.5 714.73,-1364.5"/>
<polygon fill="black" stroke="black" points="714.73,-1368 724.73,-1364.5 714.73,-1361 714.73,-1368"/>
<text text-anchor="middle" x="626.39" y="-1460.8" font-family="Times,serif" font-size="14.00">MAX_EMA</text>
</g>
<!-- n3&#45;&gt;n5 -->
<!-- n8 -->
<g id="node5" class="node">
<title>n8</title>
<ellipse fill="none" stroke="black" cx="1184.86" cy="-1581" rx="31.4" ry="18"/>
<text text-anchor="middle" x="1184.86" y="-1577.3" font-family="Times,serif" font-size="14.00">1.10</text>
</g>
<!-- n7 -->
<g id="node8" class="node">
<title>n7</title>
<ellipse fill="none" stroke="black" cx="1708.35" cy="-1581" rx="27" ry="18"/>
<text text-anchor="middle" x="1708.35" y="-1577.3" font-family="Times,serif" font-size="14.00">rhs</text>
</g>
<!-- n8&#45;&gt;n7 -->
<g id="edge3" class="edge">
<title>n8&#45;&gt;n7</title>
<path fill="none" stroke="black" d="M1216.43,-1581C1216.43,-1581 1671.23,-1581 1671.23,-1581"/>
<polygon fill="black" stroke="black" points="1671.23,-1584.5 1681.23,-1581 1671.23,-1577.5 1671.23,-1584.5"/>
</g>
<!-- n9 -->
<g id="node6" class="node">
<title>n9</title>
<ellipse fill="none" stroke="black" cx="1708.35" cy="-1527" rx="27" ry="18"/>
<text text-anchor="middle" x="1708.35" y="-1523.3" font-family="Times,serif" font-size="14.00">lhs</text>
</g>
<!-- n10 -->
<g id="node7" class="node">
<title>n10</title>
<ellipse fill="none" stroke="black" cx="2058.64" cy="-1527" rx="41.69" ry="18"/>
<text text-anchor="middle" x="2058.64" y="-1523.3" font-family="Times,serif" font-size="14.00">output</text>
</g>
<!-- n9&#45;&gt;n10 -->
<!-- n57 -->
<g id="node25" class="node">
<title>n57</title>
<ellipse fill="none" stroke="black" cx="2569.38" cy="-1527" rx="27" ry="18"/>
<text text-anchor="middle" x="2569.38" y="-1523.3" font-family="Times,serif" font-size="14.00">rhs</text>
</g>
<!-- n10&#45;&gt;n57 -->
<g id="edge22" class="edge">
<title>n10&#45;&gt;n57</title>
<path fill="none" stroke="black" d="M2097.87,-1533C2097.87,-1533 2533.84,-1533 2533.84,-1533"/>
<polygon fill="black" stroke="black" points="2533.84,-1536.5 2543.84,-1533 2533.84,-1529.5 2533.84,-1536.5"/>
<text text-anchor="middle" x="2292.24" y="-1530.8" font-family="Times,serif" font-size="14.00">LATENCY_SETPOINT</text>
</g>
<!-- n42 -->
<g id="node35" class="node">
<title>n42</title>
<ellipse fill="none" stroke="black" cx="2569.38" cy="-1218" rx="48.99" ry="18"/>
<text text-anchor="middle" x="2569.38" y="-1214.3" font-family="Times,serif" font-size="14.00">setpoint</text>
</g>
<!-- n10&#45;&gt;n42 -->
<g id="edge21" class="edge">
<title>n10&#45;&gt;n42</title>
<path fill="none" stroke="black" d="M2098.2,-1521C2211.99,-1521 2532.1,-1521 2532.1,-1521 2532.1,-1521 2532.1,-1239.88 2532.1,-1239.88"/>
<polygon fill="black" stroke="black" points="2535.6,-1239.88 2532.1,-1229.88 2528.6,-1239.88 2535.6,-1239.88"/>
<text text-anchor="middle" x="2292.24" y="-1440.8" font-family="Times,serif" font-size="14.00">LATENCY_SETPOINT</text>
</g>
<!-- n12 -->
<g id="node9" class="node">
<title>n12</title>
<ellipse fill="none" stroke="black" cx="1708.35" cy="-130" rx="27" ry="18"/>
<text text-anchor="middle" x="1708.35" y="-126.3" font-family="Times,serif" font-size="14.00">lhs</text>
</g>
<!-- n14 -->
<g id="node10" class="node">
<title>n14</title>
<ellipse fill="none" stroke="black" cx="2058.64" cy="-117" rx="41.69" ry="18"/>
<text text-anchor="middle" x="2058.64" y="-113.3" font-family="Times,serif" font-size="14.00">output</text>
</g>
<!-- n47 -->
<g id="node29" class="node">
<title>n47</title>
<ellipse fill="none" stroke="black" cx="2569.38" cy="-187" rx="35.19" ry="18"/>
<text text-anchor="middle" x="2569.38" y="-183.3" font-family="Times,serif" font-size="14.00">input</text>
</g>
<!-- n14&#45;&gt;n47 -->
<g id="edge29" class="edge">
<title>n14&#45;&gt;n47</title>
<path fill="none" stroke="black" d="M2097.1,-123.97C2097.1,-141.67 2097.1,-187 2097.1,-187 2097.1,-187 2524.27,-187 2524.27,-187"/>
<polygon fill="black" stroke="black" points="2524.27,-190.5 2534.27,-187 2524.27,-183.5 2524.27,-190.5"/>
<text text-anchor="middle" x="2292.24" y="-162.8" font-family="Times,serif" font-size="14.00">DESIRED_CONCURRENCY_RATIO</text>
</g>
<!-- n13 -->
<g id="node11" class="node">
<title>n13</title>
<ellipse fill="none" stroke="black" cx="1708.35" cy="-76" rx="27" ry="18"/>
<text text-anchor="middle" x="1708.35" y="-72.3" font-family="Times,serif" font-size="14.00">rhs</text>
</g>
<!-- n13&#45;&gt;n14 -->
<!-- n17 -->
<g id="node12" class="node">
<title>n17</title>
<ellipse fill="none" stroke="black" cx="1184.86" cy="-976" rx="31.4" ry="18"/>
<text text-anchor="middle" x="1184.86" y="-972.3" font-family="Times,serif" font-size="14.00">2.00</text>
</g>
<!-- n16 -->
<g id="node13" class="node">
<title>n16</title>
<ellipse fill="none" stroke="black" cx="1708.35" cy="-976" rx="27" ry="18"/>
<text text-anchor="middle" x="1708.35" y="-972.3" font-family="Times,serif" font-size="14.00">lhs</text>
</g>
<!-- n17&#45;&gt;n16 -->
<g id="edge6" class="edge">
<title>n17&#45;&gt;n16</title>
<path fill="none" stroke="black" d="M1216.43,-976C1216.43,-976 1671.23,-976 1671.23,-976"/>
<polygon fill="black" stroke="black" points="1671.23,-979.5 1681.23,-976 1671.23,-972.5 1671.23,-979.5"/>
</g>
<!-- n19 -->
<g id="node14" class="node">
<title>n19</title>
<ellipse fill="none" stroke="black" cx="2058.64" cy="-976" rx="41.69" ry="18"/>
<text text-anchor="middle" x="2058.64" y="-972.3" font-family="Times,serif" font-size="14.00">output</text>
</g>
<!-- n44 -->
<g id="node32" class="node">
<title>n44</title>
<ellipse fill="none" stroke="black" cx="2569.38" cy="-1002" rx="30.59" ry="18"/>
<text text-anchor="middle" x="2569.38" y="-998.3" font-family="Times,serif" font-size="14.00">max</text>
</g>
<!-- n19&#45;&gt;n44 -->
<g id="edge26" class="edge">
<title>n19&#45;&gt;n44</title>
<path fill="none" stroke="black" d="M2087.57,-989C2087.57,-989 2538.17,-989 2538.17,-989"/>
<polygon fill="black" stroke="black" points="2538.17,-992.5 2548.17,-989 2538.17,-985.5 2538.17,-992.5"/>
<text text-anchor="middle" x="2292.24" y="-996.8" font-family="Times,serif" font-size="14.00">NORMAL_CONCURRENCY_LIMIT</text>
</g>
<!-- n27 -->
<g id="node38" class="node">
<title>n27</title>
<ellipse fill="none" stroke="black" cx="3495.81" cy="-1274" rx="30.59" ry="18"/>
<text text-anchor="middle" x="3495.81" y="-1270.3" font-family="Times,serif" font-size="14.00">max</text>
</g>
<!-- n19&#45;&gt;n27 -->
<g id="edge25" class="edge">
<title>n19&#45;&gt;n27</title>
<path fill="none" stroke="black" d="M2059.1,-994.07C2059.1,-1058.34 2059.1,-1272 2059.1,-1272 2059.1,-1272 3455.14,-1272 3455.14,-1272"/>
<polygon fill="black" stroke="black" points="3455.14,-1275.5 3465.14,-1272 3455.14,-1268.5 3455.14,-1275.5"/>
<text text-anchor="middle" x="2794.02" y="-1380.8" font-family="Times,serif" font-size="14.00">NORMAL_CONCURRENCY_LIMIT</text>
</g>
<!-- n18 -->
<g id="node15" class="node">
<title>n18</title>
<ellipse fill="none" stroke="black" cx="1708.35" cy="-922" rx="27" ry="18"/>
<text text-anchor="middle" x="1708.35" y="-918.3" font-family="Times,serif" font-size="14.00">rhs</text>
</g>
<!-- n18&#45;&gt;n19 -->
<!-- n22 -->
<g id="node16" class="node">
<title>n22</title>
<ellipse fill="none" stroke="black" cx="2058.64" cy="-422" rx="31.4" ry="18"/>
<text text-anchor="middle" x="2058.64" y="-418.3" font-family="Times,serif" font-size="14.00">5.00</text>
</g>
<!-- n21 -->
<g id="node17" class="node">
<title>n21</title>
<ellipse fill="none" stroke="black" cx="2569.38" cy="-422" rx="27" ry="18"/>
<text text-anchor="middle" x="2569.38" y="-418.3" font-family="Times,serif" font-size="14.00">lhs</text>
</g>
<!-- n22&#45;&gt;n21 -->
<g id="edge8" class="edge">
<title>n22&#45;&gt;n21</title>
<path fill="none" stroke="black" d="M2090.21,-422C2090.21,-422 2532.13,-422 2532.13,-422"/>
<polygon fill="black" stroke="black" points="2532.13,-425.5 2542.13,-422 2532.13,-418.5 2532.13,-425.5"/>
</g>
<!-- n24 -->
<g id="node18" class="node">
<title>n24</title>
<ellipse fill="none" stroke="black" cx="2975.12" cy="-476" rx="41.69" ry="18"/>
<text text-anchor="middle" x="2975.12" y="-472.3" font-family="Times,serif" font-size="14.00">output</text>
</g>
<!-- n28 -->
<g id="node37" class="node">
<title>n28</title>
<ellipse fill="none" stroke="black" cx="3495.81" cy="-1220" rx="35.19" ry="18"/>
<text text-anchor="middle" x="3495.81" y="-1216.3" font-family="Times,serif" font-size="14.00">input</text>
</g>
<!-- n24&#45;&gt;n28 -->
<g id="edge32" class="edge">
<title>n24&#45;&gt;n28</title>
<path fill="none" stroke="black" d="M3016.87,-476C3140.5,-476 3496.1,-476 3496.1,-476 3496.1,-476 3496.1,-1191.98 3496.1,-1191.98"/>
<polygon fill="black" stroke="black" points="3492.6,-1191.98 3496.1,-1201.98 3499.6,-1191.98 3492.6,-1191.98"/>
<text text-anchor="middle" x="3238.72" y="-820.8" font-family="Times,serif" font-size="14.00">CONCURRENCY_INCREMENT_SINGLE_TICK</text>
</g>
<!-- n23 -->
<g id="node19" class="node">
<title>n23</title>
<ellipse fill="none" stroke="black" cx="2569.38" cy="-476" rx="27" ry="18"/>
<text text-anchor="middle" x="2569.38" y="-472.3" font-family="Times,serif" font-size="14.00">rhs</text>
</g>
<!-- n23&#45;&gt;n24 -->
<!-- n54 -->
<g id="node20" class="node">
<title>n54</title>
<ellipse fill="none" stroke="black" cx="1184.86" cy="-419" rx="80.69" ry="18"/>
<text text-anchor="middle" x="1184.86" y="-415.3" font-family="Times,serif" font-size="14.00">load_multiplier</text>
</g>
<!-- n52 -->
<g id="node21" class="node">
<title>n52</title>
<ellipse fill="none" stroke="black" cx="1184.86" cy="-682" rx="113.98" ry="18"/>
<text text-anchor="middle" x="1184.86" y="-678.3" font-family="Times,serif" font-size="14.00">accepted_concurrency</text>
</g>
<!-- n52&#45;&gt;n18 -->
<g id="edge16" class="edge">
<title>n52&#45;&gt;n18</title>
<path fill="none" stroke="black" d="M1263.1,-695.25C1263.1,-745.56 1263.1,-922 1263.1,-922 1263.1,-922 1671.17,-922 1671.17,-922"/>
<polygon fill="black" stroke="black" points="1671.17,-925.5 1681.17,-922 1671.17,-918.5 1671.17,-925.5"/>
<text text-anchor="middle" x="1511.25" y="-745.8" font-family="Times,serif" font-size="14.00">ACCEPTED_CONCURRENCY</text>
</g>
<!-- n40 -->
<g id="node31" class="node">
<title>n40</title>
<ellipse fill="none" stroke="black" cx="2569.38" cy="-1056" rx="85.29" ry="18"/>
<text text-anchor="middle" x="2569.38" y="-1052.3" font-family="Times,serif" font-size="14.00">control_variable</text>
</g>
<!-- n52&#45;&gt;n40 -->
<g id="edge18" class="edge">
<title>n52&#45;&gt;n40</title>
<path fill="none" stroke="black" d="M1292.19,-676C1607.68,-676 2510.1,-676 2510.1,-676 2510.1,-676 2510.1,-1032.92 2510.1,-1032.92"/>
<polygon fill="black" stroke="black" points="2506.6,-1032.92 2510.1,-1042.92 2513.6,-1032.92 2506.6,-1032.92"/>
<text text-anchor="middle" x="1865.45" y="-1138.8" font-family="Times,serif" font-size="14.00">ACCEPTED_CONCURRENCY</text>
</g>
<!-- n31 -->
<g id="node42" class="node">
<title>n31</title>
<ellipse fill="none" stroke="black" cx="1708.35" cy="-755" rx="35.19" ry="18"/>
<text text-anchor="middle" x="1708.35" y="-751.3" font-family="Times,serif" font-size="14.00">input</text>
</g>
<!-- n52&#45;&gt;n31 -->
<g id="edge17" class="edge">
<title>n52&#45;&gt;n31</title>
<path fill="none" stroke="black" d="M1292.19,-688C1437.29,-688 1678.1,-688 1678.1,-688 1678.1,-688 1678.1,-735.68 1678.1,-735.68"/>
<polygon fill="black" stroke="black" points="1674.6,-735.68 1678.1,-745.68 1681.6,-735.68 1674.6,-735.68"/>
<text text-anchor="middle" x="1511.25" y="-696.8" font-family="Times,serif" font-size="14.00">ACCEPTED_CONCURRENCY</text>
</g>
<!-- n51 -->
<g id="node22" class="node">
<title>n51</title>
<ellipse fill="none" stroke="black" cx="1184.86" cy="-628" rx="114.28" ry="18"/>
<text text-anchor="middle" x="1184.86" y="-624.3" font-family="Times,serif" font-size="14.00">incoming_concurrency</text>
</g>
<!-- n51&#45;&gt;n13 -->
<g id="edge19" class="edge">
<title>n51&#45;&gt;n13</title>
<path fill="none" stroke="black" d="M1283.1,-618.42C1283.1,-545.12 1283.1,-76 1283.1,-76 1283.1,-76 1671.1,-76 1671.1,-76"/>
<polygon fill="black" stroke="black" points="1671.1,-79.5 1681.1,-76 1671.1,-72.5 1671.1,-79.5"/>
<text text-anchor="middle" x="1511.25" y="-478.8" font-family="Times,serif" font-size="14.00">INCOMING_CONCURRENCY</text>
</g>
<!-- n56 -->
<g id="node23" class="node">
<title>n56</title>
<ellipse fill="none" stroke="black" cx="2569.38" cy="-1581" rx="27" ry="18"/>
<text text-anchor="middle" x="2569.38" y="-1577.3" font-family="Times,serif" font-size="14.00">lhs</text>
</g>
<!-- n58 -->
<g id="node24" class="node">
<title>n58</title>
<ellipse fill="none" stroke="black" cx="2975.12" cy="-1527" rx="41.69" ry="18"/>
<text text-anchor="middle" x="2975.12" y="-1523.3" font-family="Times,serif" font-size="14.00">output</text>
</g>
<!-- n26 -->
<g id="node40" class="node">
<title>n26</title>
<ellipse fill="none" stroke="black" cx="3495.81" cy="-1328" rx="34.39" ry="18"/>
<text text-anchor="middle" x="3495.81" y="-1324.3" font-family="Times,serif" font-size="14.00">reset</text>
</g>
<!-- n58&#45;&gt;n26 -->
<g id="edge24" class="edge">
<title>n58&#45;&gt;n26</title>
<path fill="none" stroke="black" d="M2976.1,-1508.78C2976.1,-1461.23 2976.1,-1337 2976.1,-1337 2976.1,-1337 3455.62,-1337 3455.62,-1337"/>
<polygon fill="black" stroke="black" points="3455.62,-1340.5 3465.62,-1337 3455.62,-1333.5 3455.62,-1340.5"/>
<text text-anchor="middle" x="3238.72" y="-1503.8" font-family="Times,serif" font-size="14.00">IS_OVERLOAD</text>
</g>
<!-- n57&#45;&gt;n58 -->
<!-- n37 -->
<g id="node26" class="node">
<title>n37</title>
<ellipse fill="none" stroke="black" cx="798.43" cy="-1306" rx="35.19" ry="18"/>
<text text-anchor="middle" x="798.43" y="-1302.3" font-family="Times,serif" font-size="14.00">input</text>
</g>
<!-- n38 -->
<g id="node28" class="node">
<title>n38</title>
<ellipse fill="none" stroke="black" cx="1184.86" cy="-1346" rx="41.69" ry="18"/>
<text text-anchor="middle" x="1184.86" y="-1342.3" font-family="Times,serif" font-size="14.00">output</text>
</g>
<!-- n37&#45;&gt;n38 -->
<!-- n38&#45;&gt;n9 -->
<g id="edge30" class="edge">
<title>n38&#45;&gt;n9</title>
<path fill="none" stroke="black" d="M1222.1,-1354.04C1222.1,-1388.57 1222.1,-1522.5 1222.1,-1522.5 1222.1,-1522.5 1672.21,-1522.5 1672.21,-1522.5"/>
<polygon fill="black" stroke="black" points="1672.21,-1526 1682.21,-1522.5 1672.21,-1519 1672.21,-1526"/>
<text text-anchor="middle" x="1511.25" y="-1446.8" font-family="Times,serif" font-size="14.00">LATENCY_EMA</text>
</g>
<!-- n48 -->
<g id="node30" class="node">
<title>n48</title>
<ellipse fill="none" stroke="black" cx="2975.12" cy="-187" rx="41.69" ry="18"/>
<text text-anchor="middle" x="2975.12" y="-183.3" font-family="Times,serif" font-size="14.00">output</text>
</g>
<!-- n47&#45;&gt;n48 -->
<!-- n48&#45;&gt;n54 -->
<g id="edge27" class="edge">
<title>n48&#45;&gt;n54</title>
<path fill="none" stroke="black" d="M2976.1,-205.12C2976.1,-237.75 2976.1,-303 2976.1,-303 2976.1,-303 1185.1,-303 1185.1,-303 1185.1,-303 1185.1,-390.88 1185.1,-390.88"/>
<polygon fill="black" stroke="black" points="1181.6,-390.87 1185.1,-400.88 1188.6,-390.88 1181.6,-390.87"/>
<text text-anchor="middle" x="2058.64" y="-292.8" font-family="Times,serif" font-size="14.00">LOAD_MULTIPLIER</text>
</g>
<!-- n45 -->
<g id="node34" class="node">
<title>n45</title>
<ellipse fill="none" stroke="black" cx="2975.12" cy="-1002" rx="41.69" ry="18"/>
<text text-anchor="middle" x="2975.12" y="-998.3" font-family="Times,serif" font-size="14.00">output</text>
</g>
<!-- n44&#45;&gt;n45 -->
<!-- n43 -->
<g id="node33" class="node">
<title>n43</title>
<ellipse fill="none" stroke="black" cx="2569.38" cy="-1110" rx="50.89" ry="18"/>
<text text-anchor="middle" x="2569.38" y="-1106.3" font-family="Times,serif" font-size="14.00">optimize</text>
</g>
<!-- n45&#45;&gt;n12 -->
<g id="edge31" class="edge">
<title>n45&#45;&gt;n12</title>
<path fill="none" stroke="black" d="M2935.84,-1008C2882.6,-1008 2794.1,-1008 2794.1,-1008 2794.1,-1008 2794.1,-141.5 2794.1,-141.5 2794.1,-141.5 1739.55,-141.5 1739.55,-141.5"/>
<polygon fill="black" stroke="black" points="1739.55,-138 1729.55,-141.5 1739.55,-145 1739.55,-138"/>
<text text-anchor="middle" x="2292.24" y="-638.8" font-family="Times,serif" font-size="14.00">DESIRED_CONCURRENCY</text>
</g>
<!-- n41 -->
<g id="node36" class="node">
<title>n41</title>
<ellipse fill="none" stroke="black" cx="2569.38" cy="-1164" rx="38.19" ry="18"/>
<text text-anchor="middle" x="2569.38" y="-1160.3" font-family="Times,serif" font-size="14.00">signal</text>
</g>
<!-- n29 -->
<g id="node39" class="node">
<title>n29</title>
<ellipse fill="none" stroke="black" cx="3609.51" cy="-1274" rx="41.69" ry="18"/>
<text text-anchor="middle" x="3609.51" y="-1270.3" font-family="Times,serif" font-size="14.00">output</text>
</g>
<!-- n28&#45;&gt;n29 -->
<!-- n29&#45;&gt;n43 -->
<g id="edge23" class="edge">
<title>n29&#45;&gt;n43</title>
<path fill="none" stroke="black" d="M3624.1,-1257.07C3624.1,-1215.17 3624.1,-1110 3624.1,-1110 3624.1,-1110 2630.25,-1110 2630.25,-1110"/>
<polygon fill="black" stroke="black" points="2630.25,-1106.5 2620.25,-1110 2630.25,-1113.5 2630.25,-1106.5"/>
<text text-anchor="middle" x="3238.72" y="-1377.8" font-family="Times,serif" font-size="14.00">CONCURRENCY_INCREMENT</text>
</g>
<!-- n34 -->
<g id="node41" class="node">
<title>n34</title>
<ellipse fill="none" stroke="black" cx="99.6" cy="-1333" rx="41.69" ry="18"/>
<text text-anchor="middle" x="99.6" y="-1329.3" font-family="Times,serif" font-size="14.00">output</text>
</g>
<!-- n34&#45;&gt;n2 -->
<g id="edge33" class="edge">
<title>n34&#45;&gt;n2</title>
<path fill="none" stroke="black" d="M138.1,-1339.9C138.1,-1374.46 138.1,-1527 138.1,-1527 138.1,-1527 277.06,-1527 277.06,-1527"/>
<polygon fill="black" stroke="black" points="277.06,-1530.5 287.06,-1527 277.06,-1523.5 277.06,-1530.5"/>
<text text-anchor="middle" x="234.19" y="-1357.8" font-family="Times,serif" font-size="14.00">LATENCY</text>
</g>
<!-- n34&#45;&gt;n56 -->
<g id="edge36" class="edge">
<title>n34&#45;&gt;n56</title>
<path fill="none" stroke="black" d="M135.1,-1342.45C135.1,-1391.73 135.1,-1617 135.1,-1617 135.1,-1617 2570.1,-1617 2570.1,-1617 2570.1,-1617 2570.1,-1609 2570.1,-1609"/>
<polygon fill="black" stroke="black" points="2573.6,-1609 2570.1,-1599 2566.6,-1609 2573.6,-1609"/>
<text text-anchor="middle" x="927.47" y="-1735.8" font-family="Times,serif" font-size="14.00">LATENCY</text>
</g>
<!-- n34&#45;&gt;n37 -->
<g id="edge34" class="edge">
<title>n34&#45;&gt;n37</title>
<path fill="none" stroke="black" d="M127.42,-1319.5C127.42,-1319.5 764.93,-1319.5 764.93,-1319.5"/>
<polygon fill="black" stroke="black" points="764.93,-1323 774.93,-1319.5 764.93,-1316 764.93,-1323"/>
<text text-anchor="middle" x="394.19" y="-1316.8" font-family="Times,serif" font-size="14.00">LATENCY</text>
</g>
<!-- n34&#45;&gt;n41 -->
<g id="edge35" class="edge">
<title>n34&#45;&gt;n41</title>
<path fill="none" stroke="black" d="M100.1,-1314.91C100.1,-1271.32 100.1,-1164 100.1,-1164 100.1,-1164 2520.59,-1164 2520.59,-1164"/>
<polygon fill="black" stroke="black" points="2520.59,-1167.5 2530.59,-1164 2520.59,-1160.5 2520.59,-1167.5"/>
<text text-anchor="middle" x="927.47" y="-1176.8" font-family="Times,serif" font-size="14.00">LATENCY</text>
</g>
<!-- n32 -->
<g id="node43" class="node">
<title>n32</title>
<ellipse fill="none" stroke="black" cx="2058.64" cy="-755" rx="41.69" ry="18"/>
<text text-anchor="middle" x="2058.64" y="-751.3" font-family="Times,serif" font-size="14.00">output</text>
</g>
<!-- n31&#45;&gt;n32 -->
<!-- n32&#45;&gt;n23 -->
<g id="edge20" class="edge">
<title>n32&#45;&gt;n23</title>
<path fill="none" stroke="black" d="M2094.1,-745.4C2094.1,-696.34 2094.1,-476 2094.1,-476 2094.1,-476 2532.12,-476 2532.12,-476"/>
<polygon fill="black" stroke="black" points="2532.12,-479.5 2542.12,-476 2532.12,-472.5 2532.12,-479.5"/>
<text text-anchor="middle" x="2292.24" y="-717.8" font-family="Times,serif" font-size="14.00">SQRT_CONCURRENCY_INCREMENT</text>
</g>
</g>
</svg>
