<?xml version="1.0" encoding="UTF-8" standalone="no"?>
<!DOCTYPE svg PUBLIC "-//W3C//DTD SVG 1.1//EN"
 "http://www.w3.org/Graphics/SVG/1.1/DTD/svg11.dtd">
<!-- Generated by graphviz version 7.1.0 (20230121.1956)
 -->
<!-- Pages: 1 -->
<svg width="3717pt" height="1676pt"
 viewBox="0.00 0.00 3717.10 1676.00" xmlns="http://www.w3.org/2000/svg" xmlns:xlink="http://www.w3.org/1999/xlink">
<g id="graph0" class="graph" transform="scale(1 1) rotate(0) translate(4 1672)">
<polygon fill="white" stroke="none" points="-4,4 -4,-1672 3713.1,-1672 3713.1,4 -4,4"/>
<g id="clust1" class="cluster">
<title>cluster_s1</title>
<polygon fill="none" stroke="black" points="18.4,-341 18.4,-554 580.39,-554 580.39,-341 18.4,-341"/>
<text text-anchor="middle" x="299.39" y="-538.8" font-family="Times,serif" font-size="14.00">ArithmeticCombinator[0]</text>
</g>
<g id="clust4" class="cluster">
<title>cluster_s6</title>
<polygon fill="none" stroke="black" points="1103.66,-567 1103.66,-780 2150.24,-780 2150.24,-567 1103.66,-567"/>
<text text-anchor="middle" x="1626.95" y="-764.8" font-family="Times,serif" font-size="14.00">ArithmeticCombinator[1]</text>
</g>
<g id="clust7" class="cluster">
<title>cluster_s11</title>
<polygon fill="none" stroke="black" points="1631.35,-1334 1631.35,-1547 2150.24,-1547 2150.24,-1334 1631.35,-1334"/>
<text text-anchor="middle" x="1890.79" y="-1531.8" font-family="Times,serif" font-size="14.00">ArithmeticCombinator[2]</text>
</g>
<g id="clust10" class="cluster">
<title>cluster_s15</title>
<polygon fill="none" stroke="black" points="1103.66,-788 1103.66,-1001 2150.24,-1001 2150.24,-788 1103.66,-788"/>
<text text-anchor="middle" x="1626.95" y="-985.8" font-family="Times,serif" font-size="14.00">ArithmeticCombinator[3]</text>
</g>
<g id="clust13" class="cluster">
<title>cluster_s20</title>
<polygon fill="none" stroke="black" points="1977.45,-8 1977.45,-221 3066.72,-221 3066.72,-8 1977.45,-8"/>
<text text-anchor="middle" x="2522.08" y="-205.8" font-family="Times,serif" font-size="14.00">ArithmeticCombinator[4]</text>
</g>
<g id="clust16" class="cluster">
<title>cluster_s50</title>
<polygon fill="none" stroke="black" points="970.47,-1009 970.47,-1554 1399.25,-1554 1399.25,-1009 970.47,-1009"/>
<text text-anchor="middle" x="1184.86" y="-1538.8" font-family="Times,serif" font-size="14.00">ConcurrencyLimiter[11]</text>
</g>
<g id="clust17" class="cluster">
<title>cluster_s54</title>
<polygon fill="none" stroke="black" points="1054.27,-1322 1054.27,-1481 1315.45,-1481 1315.45,-1322 1054.27,-1322"/>
<text text-anchor="middle" x="1184.86" y="-1465.8" font-family="Times,serif" font-size="14.00">LoadActuator[11.LoadActuator]</text>
</g>
<g id="clust19" class="cluster">
<title>cluster_s51</title>
<polygon fill="none" stroke="black" points="1020.47,-1059 1020.47,-1272 1349.25,-1272 1349.25,-1059 1020.47,-1059"/>
<text text-anchor="middle" x="1184.86" y="-1256.8" font-family="Times,serif" font-size="14.00">Scheduler[11.Scheduler]</text>
</g>
<g id="clust21" class="cluster">
<title>cluster_s56</title>
<polygon fill="none" stroke="black" points="2492.38,-546 2492.38,-759 3066.72,-759 3066.72,-546 2492.38,-546"/>
<text text-anchor="middle" x="2779.55" y="-743.8" font-family="Times,serif" font-size="14.00">Decider[12]</text>
</g>
<g id="clust24" class="cluster">
<title>cluster_s36</title>
<polygon fill="none" stroke="black" points="672.39,-346 672.39,-559 1276.46,-559 1276.46,-346 672.39,-346"/>
<text text-anchor="middle" x="974.42" y="-543.8" font-family="Times,serif" font-size="14.00">EMA[8]</text>
</g>
<g id="clust27" class="cluster">
<title>cluster_s47</title>
<polygon fill="none" stroke="black" points="2484.28,-1467 2484.28,-1626 3066.72,-1626 3066.72,-1467 2484.28,-1467"/>
<text text-anchor="middle" x="2775.5" y="-1610.8" font-family="Times,serif" font-size="14.00">Extrapolator[10]</text>
</g>
<g id="clust30" class="cluster">
<title>cluster_s40</title>
<polygon fill="none" stroke="black" points="2434.24,-892 2434.24,-1267 3066.72,-1267 3066.72,-892 2434.24,-892"/>
<text text-anchor="middle" x="2750.48" y="-1251.8" font-family="Times,serif" font-size="14.00">Gradient[9]</text>
</g>
<g id="clust33" class="cluster">
<title>cluster_s25</title>
<polygon fill="none" stroke="black" points="3410.72,-651 3410.72,-972 3701.1,-972 3701.1,-651 3410.72,-651"/>
<text text-anchor="middle" x="3555.91" y="-956.8" font-family="Times,serif" font-size="14.00">Integrator[5]</text>
</g>
<g id="clust36" class="cluster">
<title>cluster_s34</title>
<polygon fill="none" stroke="black" points="8,-594 8,-753 191.19,-753 191.19,-594 8,-594"/>
<text text-anchor="middle" x="99.6" y="-737.8" font-family="Times,serif" font-size="14.00">PromQL[7]</text>
</g>
<g id="clust38" class="cluster">
<title>cluster_s31</title>
<polygon fill="none" stroke="black" points="1623.25,-1009 1623.25,-1168 2150.24,-1168 2150.24,-1009 1623.25,-1009"/>
<text text-anchor="middle" x="1886.75" y="-1152.8" font-family="Times,serif" font-size="14.00">Sqrt[6]</text>
</g>
<!-- n4 -->
<g id="node1" class="node">
<title>n4</title>
<ellipse fill="none" stroke="black" cx="99.6" cy="-409" rx="31.4" ry="18"/>
<text text-anchor="middle" x="99.6" y="-405.3" font-family="Times,serif" font-size="14.00">2.00</text>
</g>
<!-- n3 -->
<g id="node4" class="node">
<title>n3</title>
<ellipse fill="none" stroke="black" cx="314.19" cy="-409" rx="27" ry="18"/>
<text text-anchor="middle" x="314.19" y="-405.3" font-family="Times,serif" font-size="14.00">rhs</text>
</g>
<!-- n4&#45;&gt;n3 -->
<g id="edge1" class="edge">
<title>n4&#45;&gt;n3</title>
<path fill="none" stroke="black" d="M131.26,-409C131.26,-409 275.31,-409 275.31,-409"/>
<polygon fill="black" stroke="black" points="275.31,-412.5 285.31,-409 275.31,-405.5 275.31,-412.5"/>
</g>
<!-- n2 -->
<g id="node2" class="node">
<title>n2</title>
<ellipse fill="none" stroke="black" cx="314.19" cy="-463" rx="27" ry="18"/>
<text text-anchor="middle" x="314.19" y="-459.3" font-family="Times,serif" font-size="14.00">lhs</text>
</g>
<!-- n5 -->
<g id="node3" class="node">
<title>n5</title>
<ellipse fill="none" stroke="black" cx="488.79" cy="-412" rx="41.69" ry="18"/>
<text text-anchor="middle" x="488.79" y="-408.3" font-family="Times,serif" font-size="14.00">output</text>
</g>
<!-- n38 -->
<g id="node27" class="node">
<title>n38</title>
<ellipse fill="none" stroke="black" cx="798.43" cy="-414" rx="76.09" ry="18"/>
<text text-anchor="middle" x="798.43" y="-410.3" font-family="Times,serif" font-size="14.00">max_envelope</text>
</g>
<!-- n5&#45;&gt;n38 -->
<g id="edge21" class="edge">
<title>n5&#45;&gt;n38</title>
<path fill="none" stroke="black" d="M530.87,-413C530.87,-413 710.67,-413 710.67,-413"/>
<polygon fill="black" stroke="black" points="710.67,-416.5 720.67,-413 710.67,-409.5 710.67,-416.5"/>
<text text-anchor="middle" x="626.39" y="-416.8" font-family="Times,serif" font-size="14.00">MAX_EMA</text>
</g>
<!-- n3&#45;&gt;n5 -->
<!-- n9 -->
<g id="node5" class="node">
<title>n9</title>
<ellipse fill="none" stroke="black" cx="1184.86" cy="-689" rx="31.4" ry="18"/>
<text text-anchor="middle" x="1184.86" y="-685.3" font-family="Times,serif" font-size="14.00">1.10</text>
</g>
<!-- n8 -->
<g id="node8" class="node">
<title>n8</title>
<ellipse fill="none" stroke="black" cx="1708.35" cy="-689" rx="27" ry="18"/>
<text text-anchor="middle" x="1708.35" y="-685.3" font-family="Times,serif" font-size="14.00">rhs</text>
</g>
<!-- n9&#45;&gt;n8 -->
<g id="edge3" class="edge">
<title>n9&#45;&gt;n8</title>
<path fill="none" stroke="black" d="M1216.43,-689C1216.43,-689 1669.41,-689 1669.41,-689"/>
<polygon fill="black" stroke="black" points="1669.41,-692.5 1679.41,-689 1669.41,-685.5 1669.41,-692.5"/>
</g>
<!-- n7 -->
<g id="node6" class="node">
<title>n7</title>
<ellipse fill="none" stroke="black" cx="1708.35" cy="-635" rx="27" ry="18"/>
<text text-anchor="middle" x="1708.35" y="-631.3" font-family="Times,serif" font-size="14.00">lhs</text>
</g>
<!-- n10 -->
<g id="node7" class="node">
<title>n10</title>
<ellipse fill="none" stroke="black" cx="2058.64" cy="-689" rx="41.69" ry="18"/>
<text text-anchor="middle" x="2058.64" y="-685.3" font-family="Times,serif" font-size="14.00">output</text>
</g>
<!-- n58 -->
<g id="node25" class="node">
<title>n58</title>
<ellipse fill="none" stroke="black" cx="2569.38" cy="-668" rx="27" ry="18"/>
<text text-anchor="middle" x="2569.38" y="-664.3" font-family="Times,serif" font-size="14.00">rhs</text>
</g>
<!-- n10&#45;&gt;n58 -->
<g id="edge33" class="edge">
<title>n10&#45;&gt;n58</title>
<path fill="none" stroke="black" d="M2093.35,-678.5C2093.35,-678.5 2535.43,-678.5 2535.43,-678.5"/>
<polygon fill="black" stroke="black" points="2535.43,-682 2545.43,-678.5 2535.43,-675 2535.43,-682"/>
<text text-anchor="middle" x="2292.24" y="-682.8" font-family="Times,serif" font-size="14.00">LATENCY_SETPOINT</text>
</g>
<!-- n43 -->
<g id="node35" class="node">
<title>n43</title>
<ellipse fill="none" stroke="black" cx="2569.38" cy="-960" rx="48.99" ry="18"/>
<text text-anchor="middle" x="2569.38" y="-956.3" font-family="Times,serif" font-size="14.00">setpoint</text>
</g>
<!-- n10&#45;&gt;n43 -->
<g id="edge32" class="edge">
<title>n10&#45;&gt;n43</title>
<path fill="none" stroke="black" d="M2099.42,-693.5C2214.26,-693.5 2532.1,-693.5 2532.1,-693.5 2532.1,-693.5 2532.1,-936.34 2532.1,-936.34"/>
<polygon fill="black" stroke="black" points="2528.6,-936.34 2532.1,-946.34 2535.6,-936.34 2528.6,-936.34"/>
<text text-anchor="middle" x="2292.24" y="-913.8" font-family="Times,serif" font-size="14.00">LATENCY_SETPOINT</text>
</g>
<!-- n8&#45;&gt;n10 -->
<!-- n12 -->
<g id="node9" class="node">
<title>n12</title>
<ellipse fill="none" stroke="black" cx="1708.35" cy="-1402" rx="27" ry="18"/>
<text text-anchor="middle" x="1708.35" y="-1398.3" font-family="Times,serif" font-size="14.00">lhs</text>
</g>
<!-- n14 -->
<g id="node10" class="node">
<title>n14</title>
<ellipse fill="none" stroke="black" cx="2058.64" cy="-1456" rx="41.69" ry="18"/>
<text text-anchor="middle" x="2058.64" y="-1452.3" font-family="Times,serif" font-size="14.00">output</text>
</g>
<!-- n48 -->
<g id="node29" class="node">
<title>n48</title>
<ellipse fill="none" stroke="black" cx="2569.38" cy="-1535" rx="35.19" ry="18"/>
<text text-anchor="middle" x="2569.38" y="-1531.3" font-family="Times,serif" font-size="14.00">input</text>
</g>
<!-- n14&#45;&gt;n48 -->
<g id="edge36" class="edge">
<title>n14&#45;&gt;n48</title>
<path fill="none" stroke="black" d="M2100.5,-1456C2222.65,-1456 2570.1,-1456 2570.1,-1456 2570.1,-1456 2570.1,-1505.16 2570.1,-1505.16"/>
<polygon fill="black" stroke="black" points="2566.6,-1505.16 2570.1,-1515.16 2573.6,-1505.16 2566.6,-1505.16"/>
<text text-anchor="middle" x="2292.24" y="-1498.8" font-family="Times,serif" font-size="14.00">DESIRED_CONCURRENCY_RATIO</text>
</g>
<!-- n13 -->
<g id="node11" class="node">
<title>n13</title>
<ellipse fill="none" stroke="black" cx="1708.35" cy="-1456" rx="27" ry="18"/>
<text text-anchor="middle" x="1708.35" y="-1452.3" font-family="Times,serif" font-size="14.00">rhs</text>
</g>
<!-- n13&#45;&gt;n14 -->
<!-- n18 -->
<g id="node12" class="node">
<title>n18</title>
<ellipse fill="none" stroke="black" cx="1184.86" cy="-856" rx="31.4" ry="18"/>
<text text-anchor="middle" x="1184.86" y="-852.3" font-family="Times,serif" font-size="14.00">2.00</text>
</g>
<!-- n17 -->
<g id="node13" class="node">
<title>n17</title>
<ellipse fill="none" stroke="black" cx="1708.35" cy="-856" rx="27" ry="18"/>
<text text-anchor="middle" x="1708.35" y="-852.3" font-family="Times,serif" font-size="14.00">lhs</text>
</g>
<!-- n18&#45;&gt;n17 -->
<g id="edge6" class="edge">
<title>n18&#45;&gt;n17</title>
<path fill="none" stroke="black" d="M1216.43,-856C1216.43,-856 1669.41,-856 1669.41,-856"/>
<polygon fill="black" stroke="black" points="1669.41,-859.5 1679.41,-856 1669.41,-852.5 1669.41,-859.5"/>
</g>
<!-- n19 -->
<g id="node14" class="node">
<title>n19</title>
<ellipse fill="none" stroke="black" cx="2058.64" cy="-856" rx="41.69" ry="18"/>
<text text-anchor="middle" x="2058.64" y="-852.3" font-family="Times,serif" font-size="14.00">output</text>
</g>
<!-- n17&#45;&gt;n19 -->
<!-- n45 -->
<g id="node32" class="node">
<title>n45</title>
<ellipse fill="none" stroke="black" cx="2569.38" cy="-1068" rx="30.59" ry="18"/>
<text text-anchor="middle" x="2569.38" y="-1064.3" font-family="Times,serif" font-size="14.00">max</text>
</g>
<!-- n19&#45;&gt;n45 -->
<g id="edge24" class="edge">
<title>n19&#45;&gt;n45</title>
<path fill="none" stroke="black" d="M2059.1,-874.32C2059.1,-923.46 2059.1,-1054.5 2059.1,-1054.5 2059.1,-1054.5 2536.91,-1054.5 2536.91,-1054.5"/>
<polygon fill="black" stroke="black" points="2536.91,-1058 2546.91,-1054.5 2536.91,-1051 2536.91,-1058"/>
<text text-anchor="middle" x="2292.24" y="-1006.8" font-family="Times,serif" font-size="14.00">NORMAL_CONCURRENCY_LIMIT</text>
</g>
<!-- n28 -->
<g id="node38" class="node">
<title>n28</title>
<ellipse fill="none" stroke="black" cx="3495.81" cy="-827" rx="30.59" ry="18"/>
<text text-anchor="middle" x="3495.81" y="-823.3" font-family="Times,serif" font-size="14.00">max</text>
</g>
<!-- n19&#45;&gt;n28 -->
<g id="edge23" class="edge">
<title>n19&#45;&gt;n28</title>
<path fill="none" stroke="black" d="M2084.81,-841.5C2084.81,-841.5 3465.12,-841.5 3465.12,-841.5"/>
<polygon fill="black" stroke="black" points="3465.12,-845 3475.12,-841.5 3465.12,-838 3465.12,-845"/>
<text text-anchor="middle" x="2794.02" y="-830.8" font-family="Times,serif" font-size="14.00">NORMAL_CONCURRENCY_LIMIT</text>
</g>
<!-- n16 -->
<g id="node15" class="node">
<title>n16</title>
<ellipse fill="none" stroke="black" cx="1708.35" cy="-910" rx="27" ry="18"/>
<text text-anchor="middle" x="1708.35" y="-906.3" font-family="Times,serif" font-size="14.00">rhs</text>
</g>
<!-- n23 -->
<g id="node16" class="node">
<title>n23</title>
<ellipse fill="none" stroke="black" cx="2058.64" cy="-76" rx="31.4" ry="18"/>
<text text-anchor="middle" x="2058.64" y="-72.3" font-family="Times,serif" font-size="14.00">5.00</text>
</g>
<!-- n22 -->
<g id="node17" class="node">
<title>n22</title>
<ellipse fill="none" stroke="black" cx="2569.38" cy="-76" rx="27" ry="18"/>
<text text-anchor="middle" x="2569.38" y="-72.3" font-family="Times,serif" font-size="14.00">lhs</text>
</g>
<!-- n23&#45;&gt;n22 -->
<g id="edge8" class="edge">
<title>n23&#45;&gt;n22</title>
<path fill="none" stroke="black" d="M2090.21,-76C2090.21,-76 2530.62,-76 2530.62,-76"/>
<polygon fill="black" stroke="black" points="2530.62,-79.5 2540.62,-76 2530.62,-72.5 2530.62,-79.5"/>
</g>
<!-- n24 -->
<g id="node18" class="node">
<title>n24</title>
<ellipse fill="none" stroke="black" cx="2975.12" cy="-103" rx="41.69" ry="18"/>
<text text-anchor="middle" x="2975.12" y="-99.3" font-family="Times,serif" font-size="14.00">output</text>
</g>
<!-- n22&#45;&gt;n24 -->
<!-- n29 -->
<g id="node37" class="node">
<title>n29</title>
<ellipse fill="none" stroke="black" cx="3495.81" cy="-719" rx="35.19" ry="18"/>
<text text-anchor="middle" x="3495.81" y="-715.3" font-family="Times,serif" font-size="14.00">input</text>
</g>
<!-- n24&#45;&gt;n29 -->
<g id="edge34" class="edge">
<title>n24&#45;&gt;n29</title>
<path fill="none" stroke="black" d="M3017.31,-103C3141.34,-103 3496.1,-103 3496.1,-103 3496.1,-103 3496.1,-689.05 3496.1,-689.05"/>
<polygon fill="black" stroke="black" points="3492.6,-689.05 3496.1,-699.05 3499.6,-689.05 3492.6,-689.05"/>
<text text-anchor="middle" x="3238.72" y="-369.8" font-family="Times,serif" font-size="14.00">CONCURRENCY_INCREMENT_SINGLE_TICK</text>
</g>
<!-- n21 -->
<g id="node19" class="node">
<title>n21</title>
<ellipse fill="none" stroke="black" cx="2569.38" cy="-130" rx="27" ry="18"/>
<text text-anchor="middle" x="2569.38" y="-126.3" font-family="Times,serif" font-size="14.00">rhs</text>
</g>
<!-- n55 -->
<g id="node20" class="node">
<title>n55</title>
<ellipse fill="none" stroke="black" cx="1184.86" cy="-1390" rx="80.69" ry="18"/>
<text text-anchor="middle" x="1184.86" y="-1386.3" font-family="Times,serif" font-size="14.00">load_multiplier</text>
</g>
<!-- n52 -->
<g id="node21" class="node">
<title>n52</title>
<ellipse fill="none" stroke="black" cx="1184.86" cy="-1127" rx="113.98" ry="18"/>
<text text-anchor="middle" x="1184.86" y="-1123.3" font-family="Times,serif" font-size="14.00">accepted_concurrency</text>
</g>
<!-- n52&#45;&gt;n16 -->
<g id="edge16" class="edge">
<title>n52&#45;&gt;n16</title>
<path fill="none" stroke="black" d="M1275.1,-1115.64C1275.1,-1070.99 1275.1,-910 1275.1,-910 1275.1,-910 1669.4,-910 1669.4,-910"/>
<polygon fill="black" stroke="black" points="1669.4,-913.5 1679.4,-910 1669.4,-906.5 1669.4,-913.5"/>
<text text-anchor="middle" x="1511.25" y="-977.8" font-family="Times,serif" font-size="14.00">ACCEPTED_CONCURRENCY</text>
</g>
<!-- n41 -->
<g id="node31" class="node">
<title>n41</title>
<ellipse fill="none" stroke="black" cx="2569.38" cy="-1122" rx="85.29" ry="18"/>
<text text-anchor="middle" x="2569.38" y="-1118.3" font-family="Times,serif" font-size="14.00">control_variable</text>
</g>
<!-- n52&#45;&gt;n41 -->
<g id="edge19" class="edge">
<title>n52&#45;&gt;n41</title>
<path fill="none" stroke="black" d="M1297.87,-1129.67C1297.87,-1129.67 2479.88,-1129.67 2479.88,-1129.67"/>
<polygon fill="black" stroke="black" points="2479.88,-1133.17 2489.88,-1129.67 2479.88,-1126.17 2479.88,-1133.17"/>
<text text-anchor="middle" x="1865.45" y="-1239.8" font-family="Times,serif" font-size="14.00">ACCEPTED_CONCURRENCY</text>
</g>
<!-- n27 -->
<g id="node39" class="node">
<title>n27</title>
<ellipse fill="none" stroke="black" cx="3495.81" cy="-881" rx="28.7" ry="18"/>
<text text-anchor="middle" x="3495.81" y="-877.3" font-family="Times,serif" font-size="14.00">min</text>
</g>
<!-- n52&#45;&gt;n27 -->
<g id="edge17" class="edge">
<title>n52&#45;&gt;n27</title>
<path fill="none" stroke="black" d="M1251.1,-1112.1C1251.1,-1059.13 1251.1,-883 1251.1,-883 1251.1,-883 3455.51,-883 3455.51,-883"/>
<polygon fill="black" stroke="black" points="3455.51,-886.5 3465.51,-883 3455.51,-879.5 3455.51,-886.5"/>
<text text-anchor="middle" x="2292.24" y="-1330.8" font-family="Times,serif" font-size="14.00">ACCEPTED_CONCURRENCY</text>
</g>
<!-- n32 -->
<g id="node43" class="node">
<title>n32</title>
<ellipse fill="none" stroke="black" cx="1708.35" cy="-1077" rx="35.19" ry="18"/>
<text text-anchor="middle" x="1708.35" y="-1073.3" font-family="Times,serif" font-size="14.00">input</text>
</g>
<!-- n52&#45;&gt;n32 -->
<g id="edge18" class="edge">
<title>n52&#45;&gt;n32</title>
<path fill="none" stroke="black" d="M1288.86,-1119.33C1433.57,-1119.33 1678.1,-1119.33 1678.1,-1119.33 1678.1,-1119.33 1678.1,-1098.33 1678.1,-1098.33"/>
<polygon fill="black" stroke="black" points="1681.6,-1098.33 1678.1,-1088.33 1674.6,-1098.33 1681.6,-1098.33"/>
<text text-anchor="middle" x="1511.25" y="-1105.8" font-family="Times,serif" font-size="14.00">ACCEPTED_CONCURRENCY</text>
</g>
<!-- n53 -->
<g id="node22" class="node">
<title>n53</title>
<ellipse fill="none" stroke="black" cx="1184.86" cy="-1181" rx="114.28" ry="18"/>
<text text-anchor="middle" x="1184.86" y="-1177.3" font-family="Times,serif" font-size="14.00">incoming_concurrency</text>
</g>
<!-- n53&#45;&gt;n13 -->
<g id="edge20" class="edge">
<title>n53&#45;&gt;n13</title>
<path fill="none" stroke="black" d="M1283.1,-1190.47C1283.1,-1238.82 1283.1,-1456 1283.1,-1456 1283.1,-1456 1669.59,-1456 1669.59,-1456"/>
<polygon fill="black" stroke="black" points="1669.59,-1459.5 1679.59,-1456 1669.59,-1452.5 1669.59,-1459.5"/>
<text text-anchor="middle" x="1511.25" y="-1384.8" font-family="Times,serif" font-size="14.00">INCOMING_CONCURRENCY</text>
</g>
<!-- n57 -->
<g id="node23" class="node">
<title>n57</title>
<ellipse fill="none" stroke="black" cx="2569.38" cy="-614" rx="27" ry="18"/>
<text text-anchor="middle" x="2569.38" y="-610.3" font-family="Times,serif" font-size="14.00">lhs</text>
</g>
<!-- n59 -->
<g id="node24" class="node">
<title>n59</title>
<ellipse fill="none" stroke="black" cx="2975.12" cy="-668" rx="41.69" ry="18"/>
<text text-anchor="middle" x="2975.12" y="-664.3" font-family="Times,serif" font-size="14.00">output</text>
</g>
<!-- n26 -->
<g id="node41" class="node">
<title>n26</title>
<ellipse fill="none" stroke="black" cx="3495.81" cy="-773" rx="34.39" ry="18"/>
<text text-anchor="middle" x="3495.81" y="-769.3" font-family="Times,serif" font-size="14.00">reset</text>
</g>
<!-- n59&#45;&gt;n26 -->
<g id="edge31" class="edge">
<title>n59&#45;&gt;n26</title>
<path fill="none" stroke="black" d="M2962.1,-685.34C2962.1,-715.16 2962.1,-773 2962.1,-773 2962.1,-773 3449.69,-773 3449.69,-773"/>
<polygon fill="black" stroke="black" points="3449.69,-776.5 3459.69,-773 3449.69,-769.5 3449.69,-776.5"/>
<text text-anchor="middle" x="3238.72" y="-723.8" font-family="Times,serif" font-size="14.00">IS_OVERLOAD</text>
</g>
<!-- n58&#45;&gt;n59 -->
<!-- n37 -->
<g id="node26" class="node">
<title>n37</title>
<ellipse fill="none" stroke="black" cx="798.43" cy="-468" rx="35.19" ry="18"/>
<text text-anchor="middle" x="798.43" y="-464.3" font-family="Times,serif" font-size="14.00">input</text>
</g>
<!-- n39 -->
<g id="node28" class="node">
<title>n39</title>
<ellipse fill="none" stroke="black" cx="1184.86" cy="-454" rx="41.69" ry="18"/>
<text text-anchor="middle" x="1184.86" y="-450.3" font-family="Times,serif" font-size="14.00">output</text>
</g>
<!-- n38&#45;&gt;n39 -->
<!-- n39&#45;&gt;n7 -->
<g id="edge37" class="edge">
<title>n39&#45;&gt;n7</title>
<path fill="none" stroke="black" d="M1222.1,-462.51C1222.1,-497.77 1222.1,-630.5 1222.1,-630.5 1222.1,-630.5 1670.35,-630.5 1670.35,-630.5"/>
<polygon fill="black" stroke="black" points="1670.35,-634 1680.35,-630.5 1670.35,-627 1670.35,-634"/>
<text text-anchor="middle" x="1511.25" y="-554.8" font-family="Times,serif" font-size="14.00">LATENCY_EMA</text>
</g>
<!-- n49 -->
<g id="node30" class="node">
<title>n49</title>
<ellipse fill="none" stroke="black" cx="2975.12" cy="-1535" rx="41.69" ry="18"/>
<text text-anchor="middle" x="2975.12" y="-1531.3" font-family="Times,serif" font-size="14.00">output</text>
</g>
<!-- n48&#45;&gt;n49 -->
<!-- n49&#45;&gt;n55 -->
<g id="edge22" class="edge">
<title>n49&#45;&gt;n55</title>
<path fill="none" stroke="black" d="M2962.1,-1517.6C2962.1,-1476.72 2962.1,-1378 2962.1,-1378 2962.1,-1378 1258.07,-1378 1258.07,-1378"/>
<polygon fill="black" stroke="black" points="1258.07,-1374.5 1248.07,-1378 1258.07,-1381.5 1258.07,-1374.5"/>
<text text-anchor="middle" x="2058.64" y="-1656.8" font-family="Times,serif" font-size="14.00">LOAD_MULTIPLIER</text>
</g>
<!-- n46 -->
<g id="node34" class="node">
<title>n46</title>
<ellipse fill="none" stroke="black" cx="2975.12" cy="-1122" rx="41.69" ry="18"/>
<text text-anchor="middle" x="2975.12" y="-1118.3" font-family="Times,serif" font-size="14.00">output</text>
</g>
<!-- n45&#45;&gt;n46 -->
<!-- n44 -->
<g id="node33" class="node">
<title>n44</title>
<ellipse fill="none" stroke="black" cx="2569.38" cy="-1014" rx="50.89" ry="18"/>
<text text-anchor="middle" x="2569.38" y="-1010.3" font-family="Times,serif" font-size="14.00">optimize</text>
</g>
<!-- n46&#45;&gt;n12 -->
<g id="edge35" class="edge">
<title>n46&#45;&gt;n12</title>
<path fill="none" stroke="black" d="M2989.1,-1139.09C2989.1,-1199.89 2989.1,-1402 2989.1,-1402 2989.1,-1402 1747.2,-1402 1747.2,-1402"/>
<polygon fill="black" stroke="black" points="1747.2,-1398.5 1737.2,-1402 1747.2,-1405.5 1747.2,-1398.5"/>
<text text-anchor="middle" x="2292.24" y="-1292.8" font-family="Times,serif" font-size="14.00">DESIRED_CONCURRENCY</text>
</g>
<!-- n42 -->
<g id="node36" class="node">
<title>n42</title>
<ellipse fill="none" stroke="black" cx="2569.38" cy="-1176" rx="38.19" ry="18"/>
<text text-anchor="middle" x="2569.38" y="-1172.3" font-family="Times,serif" font-size="14.00">signal</text>
</g>
<!-- n30 -->
<g id="node40" class="node">
<title>n30</title>
<ellipse fill="none" stroke="black" cx="3609.51" cy="-800" rx="41.69" ry="18"/>
<text text-anchor="middle" x="3609.51" y="-796.3" font-family="Times,serif" font-size="14.00">output</text>
</g>
<!-- n29&#45;&gt;n30 -->
<!-- n30&#45;&gt;n44 -->
<g id="edge25" class="edge">
<title>n30&#45;&gt;n44</title>
<path fill="none" stroke="black" d="M3610.1,-818.25C3610.1,-870 3610.1,-1014 3610.1,-1014 3610.1,-1014 2632.15,-1014 2632.15,-1014"/>
<polygon fill="black" stroke="black" points="2632.15,-1010.5 2622.15,-1014 2632.15,-1017.5 2632.15,-1010.5"/>
<text text-anchor="middle" x="3238.72" y="-973.8" font-family="Times,serif" font-size="14.00">CONCURRENCY_INCREMENT</text>
</g>
<!-- n35 -->
<g id="node42" class="node">
<title>n35</title>
<ellipse fill="none" stroke="black" cx="99.6" cy="-662" rx="41.69" ry="18"/>
<text text-anchor="middle" x="99.6" y="-658.3" font-family="Times,serif" font-size="14.00">output</text>
</g>
<!-- n35&#45;&gt;n2 -->
<g id="edge27" class="edge">
<title>n35&#45;&gt;n2</title>
<path fill="none" stroke="black" d="M135.1,-652.13C135.1,-611.98 135.1,-463 135.1,-463 135.1,-463 275.48,-463 275.48,-463"/>
<polygon fill="black" stroke="black" points="275.48,-466.5 285.48,-463 275.48,-459.5 275.48,-466.5"/>
<text text-anchor="middle" x="234.19" y="-650.8" font-family="Times,serif" font-size="14.00">LATENCY</text>
</g>
<!-- n35&#45;&gt;n57 -->
<g id="edge30" class="edge">
<title>n35&#45;&gt;n57</title>
<path fill="none" stroke="black" d="M138.1,-654.74C138.1,-639.7 138.1,-606.5 138.1,-606.5 138.1,-606.5 2533.01,-606.5 2533.01,-606.5"/>
<polygon fill="black" stroke="black" points="2533.01,-610 2543.01,-606.5 2533.01,-603 2533.01,-610"/>
<text text-anchor="middle" x="927.47" y="-284.8" font-family="Times,serif" font-size="14.00">LATENCY</text>
</g>
<!-- n35&#45;&gt;n37 -->
<g id="edge28" class="edge">
<title>n35&#45;&gt;n37</title>
<path fill="none" stroke="black" d="M128.32,-648.5C259.95,-648.5 799.1,-648.5 799.1,-648.5 799.1,-648.5 799.1,-497.81 799.1,-497.81"/>
<polygon fill="black" stroke="black" points="802.6,-497.81 799.1,-487.81 795.6,-497.81 802.6,-497.81"/>
<text text-anchor="middle" x="394.19" y="-680.8" font-family="Times,serif" font-size="14.00">LATENCY</text>
</g>
<!-- n35&#45;&gt;n42 -->
<g id="edge29" class="edge">
<title>n35&#45;&gt;n42</title>
<path fill="none" stroke="black" d="M141.66,-662C440.36,-662 2229.1,-662 2229.1,-662 2229.1,-662 2229.1,-1178.5 2229.1,-1178.5 2229.1,-1178.5 2519.82,-1178.5 2519.82,-1178.5"/>
<polygon fill="black" stroke="black" points="2519.82,-1182 2529.82,-1178.5 2519.82,-1175 2519.82,-1182"/>
<text text-anchor="middle" x="927.47" y="-1617.8" font-family="Times,serif" font-size="14.00">LATENCY</text>
</g>
<!-- n33 -->
<g id="node44" class="node">
<title>n33</title>
<ellipse fill="none" stroke="black" cx="2058.64" cy="-1077" rx="41.69" ry="18"/>
<text text-anchor="middle" x="2058.64" y="-1073.3" font-family="Times,serif" font-size="14.00">output</text>
</g>
<!-- n32&#45;&gt;n33 -->
<!-- n33&#45;&gt;n21 -->
<g id="edge26" class="edge">
<title>n33&#45;&gt;n21</title>
<path fill="none" stroke="black" d="M2099.52,-1072.5C2181.26,-1072.5 2357.1,-1072.5 2357.1,-1072.5 2357.1,-1072.5 2357.1,-130 2357.1,-130 2357.1,-130 2530.55,-130 2530.55,-130"/>
<polygon fill="black" stroke="black" points="2530.55,-133.5 2540.55,-130 2530.55,-126.5 2530.55,-133.5"/>
<text text-anchor="middle" x="2292.24" y="-1062.8" font-family="Times,serif" font-size="14.00">SQRT_CONCURRENCY_INCREMENT</text>
</g>
</g>
</svg>
