<?xml version="1.0" encoding="UTF-8" standalone="no"?>
<!DOCTYPE svg PUBLIC "-//W3C//DTD SVG 1.1//EN"
 "http://www.w3.org/Graphics/SVG/1.1/DTD/svg11.dtd">
<!-- Generated by graphviz version 7.1.0 (20230121.1956)
 -->
<!-- Pages: 1 -->
<svg width="4356pt" height="2181pt"
 viewBox="0.00 0.00 4356.10 2181.00" xmlns="http://www.w3.org/2000/svg" xmlns:xlink="http://www.w3.org/1999/xlink">
<g id="graph0" class="graph" transform="scale(1 1) rotate(0) translate(4 2177)">
<polygon fill="white" stroke="none" points="-4,4 -4,-2177 4352.1,-2177 4352.1,4 -4,4"/>
<g id="clust1" class="cluster">
<title>cluster_s1</title>
<polygon fill="none" stroke="black" points="18.4,-1164 18.4,-1377 580.39,-1377 580.39,-1164 18.4,-1164"/>
<text text-anchor="middle" x="299.39" y="-1361.8" font-family="Times,serif" font-size="14.00">ArithmeticCombinator[0]</text>
</g>
<g id="clust4" class="cluster">
<title>cluster_s6</title>
<polygon fill="none" stroke="black" points="970.47,-1885 970.47,-2098 1667.25,-2098 1667.25,-1885 970.47,-1885"/>
<text text-anchor="middle" x="1318.86" y="-2082.8" font-family="Times,serif" font-size="14.00">ArithmeticCombinator[1]</text>
</g>
<g id="clust7" class="cluster">
<title>cluster_s11</title>
<polygon fill="none" stroke="black" points="2027.34,-396 2027.34,-609 2716.43,-609 2716.43,-396 2027.34,-396"/>
<text text-anchor="middle" x="2371.89" y="-593.8" font-family="Times,serif" font-size="14.00">ArithmeticCombinator[2]</text>
</g>
<g id="clust10" class="cluster">
<title>cluster_s15</title>
<polygon fill="none" stroke="black" points="1494.46,-793 1494.46,-1006 2716.43,-1006 2716.43,-793 1494.46,-793"/>
<text text-anchor="middle" x="2105.44" y="-990.8" font-family="Times,serif" font-size="14.00">ArithmeticCombinator[3]</text>
</g>
<g id="clust13" class="cluster">
<title>cluster_s20</title>
<polygon fill="none" stroke="black" points="2543.64,-8 2543.64,-221 3721.91,-221 3721.91,-8 2543.64,-8"/>
<text text-anchor="middle" x="3132.77" y="-205.8" font-family="Times,serif" font-size="14.00">ArithmeticCombinator[4]</text>
</g>
<g id="clust16" class="cluster">
<title>cluster_s25</title>
<polygon fill="none" stroke="black" points="4065.91,-1331 4065.91,-1544 4340.1,-1544 4340.1,-1331 4065.91,-1331"/>
<text text-anchor="middle" x="4203.01" y="-1528.8" font-family="Times,serif" font-size="14.00">ArithmeticCombinator[5]</text>
</g>
<g id="clust19" class="cluster">
<title>cluster_s55</title>
<polygon fill="none" stroke="black" points="1361.27,-240 1361.27,-785 1790.04,-785 1790.04,-240 1361.27,-240"/>
<text text-anchor="middle" x="1575.66" y="-769.8" font-family="Times,serif" font-size="14.00">ConcurrencyLimiter[13]</text>
</g>
<g id="clust20" class="cluster">
<title>cluster_s59</title>
<polygon fill="none" stroke="black" points="1445.06,-290 1445.06,-449 1706.25,-449 1706.25,-290 1445.06,-290"/>
<text text-anchor="middle" x="1575.66" y="-433.8" font-family="Times,serif" font-size="14.00">LoadActuator[13.LoadActuator]</text>
</g>
<g id="clust22" class="cluster">
<title>cluster_s56</title>
<polygon fill="none" stroke="black" points="1411.27,-499 1411.27,-712 1740.04,-712 1740.04,-499 1411.27,-499"/>
<text text-anchor="middle" x="1575.66" y="-696.8" font-family="Times,serif" font-size="14.00">Scheduler[13.Scheduler]</text>
</g>
<g id="clust24" class="cluster">
<title>cluster_s61</title>
<polygon fill="none" stroke="black" points="2027.34,-1920 2027.34,-2133 2716.43,-2133 2716.43,-1920 2027.34,-1920"/>
<text text-anchor="middle" x="2371.89" y="-2117.8" font-family="Times,serif" font-size="14.00">Decider[14]</text>
</g>
<g id="clust27" class="cluster">
<title>cluster_s41</title>
<polygon fill="none" stroke="black" points="672.39,-1378 672.39,-1591 1143.27,-1591 1143.27,-1378 672.39,-1378"/>
<text text-anchor="middle" x="907.83" y="-1575.8" font-family="Times,serif" font-size="14.00">EMA[10]</text>
</g>
<g id="clust30" class="cluster">
<title>cluster_s52</title>
<polygon fill="none" stroke="black" points="3077.48,-406 3077.48,-565 3721.91,-565 3721.91,-406 3077.48,-406"/>
<text text-anchor="middle" x="3399.69" y="-549.8" font-family="Times,serif" font-size="14.00">Extrapolator[12]</text>
</g>
<g id="clust33" class="cluster">
<title>cluster_s32</title>
<polygon fill="none" stroke="black" points="1494.46,-1718 1494.46,-1877 2716.43,-1877 2716.43,-1718 1494.46,-1718"/>
<text text-anchor="middle" x="2105.44" y="-1861.8" font-family="Times,serif" font-size="14.00">FirstValid[7]</text>
</g>
<g id="clust36" class="cluster">
<title>cluster_s45</title>
<polygon fill="none" stroke="black" points="3027.43,-853 3027.43,-1228 3721.91,-1228 3721.91,-853 3027.43,-853"/>
<text text-anchor="middle" x="3374.67" y="-1212.8" font-family="Times,serif" font-size="14.00">Gradient[11]</text>
</g>
<g id="clust39" class="cluster">
<title>cluster_s29</title>
<polygon fill="none" stroke="black" points="2014.04,-1164 2014.04,-1323 2716.43,-1323 2716.43,-1164 2014.04,-1164"/>
<text text-anchor="middle" x="2365.24" y="-1307.8" font-family="Times,serif" font-size="14.00">Min[6]</text>
</g>
<g id="clust42" class="cluster">
<title>cluster_s39</title>
<polygon fill="none" stroke="black" points="8,-1417 8,-1576 191.19,-1576 191.19,-1417 8,-1417"/>
<text text-anchor="middle" x="99.6" y="-1560.8" font-family="Times,serif" font-size="14.00">PromQL[9]</text>
</g>
<g id="clust44" class="cluster">
<title>cluster_s36</title>
<polygon fill="none" stroke="black" points="2019.24,-229 2019.24,-388 2716.43,-388 2716.43,-229 2019.24,-229"/>
<text text-anchor="middle" x="2367.84" y="-372.8" font-family="Times,serif" font-size="14.00">Sqrt[8]</text>
</g>
<g id="clust47" class="cluster">
<title>cluster_s65</title>
<polygon fill="none" stroke="black" points="2543.64,-1331 2543.64,-1598 3721.91,-1598 3721.91,-1331 2543.64,-1331"/>
<text text-anchor="middle" x="3132.77" y="-1582.8" font-family="Times,serif" font-size="14.00">Switcher[15]</text>
</g>
<!-- n3 -->
<g id="node1" class="node">
<title>n3</title>
<ellipse fill="none" stroke="black" cx="99.6" cy="-1232" rx="31.4" ry="18"/>
<text text-anchor="middle" x="99.6" y="-1228.3" font-family="Times,serif" font-size="14.00">2.00</text>
</g>
<!-- n2 -->
<g id="node4" class="node">
<title>n2</title>
<ellipse fill="none" stroke="black" cx="314.19" cy="-1232" rx="27" ry="18"/>
<text text-anchor="middle" x="314.19" y="-1228.3" font-family="Times,serif" font-size="14.00">rhs</text>
</g>
<!-- n3&#45;&gt;n2 -->
<g id="edge1" class="edge">
<title>n3&#45;&gt;n2</title>
<path fill="none" stroke="black" d="M131.26,-1232C131.26,-1232 275.31,-1232 275.31,-1232"/>
<polygon fill="black" stroke="black" points="275.31,-1235.5 285.31,-1232 275.31,-1228.5 275.31,-1235.5"/>
</g>
<!-- n4 -->
<g id="node2" class="node">
<title>n4</title>
<ellipse fill="none" stroke="black" cx="314.19" cy="-1286" rx="27" ry="18"/>
<text text-anchor="middle" x="314.19" y="-1282.3" font-family="Times,serif" font-size="14.00">lhs</text>
</g>
<!-- n5 -->
<g id="node3" class="node">
<title>n5</title>
<ellipse fill="none" stroke="black" cx="488.79" cy="-1286" rx="41.69" ry="18"/>
<text text-anchor="middle" x="488.79" y="-1282.3" font-family="Times,serif" font-size="14.00">output</text>
</g>
<!-- n4&#45;&gt;n5 -->
<!-- n43 -->
<g id="node30" class="node">
<title>n43</title>
<ellipse fill="none" stroke="black" cx="798.43" cy="-1446" rx="76.09" ry="18"/>
<text text-anchor="middle" x="798.43" y="-1442.3" font-family="Times,serif" font-size="14.00">max_envelope</text>
</g>
<!-- n5&#45;&gt;n43 -->
<g id="edge38" class="edge">
<title>n5&#45;&gt;n43</title>
<path fill="none" stroke="black" d="M489.1,-1304.35C489.1,-1346.38 489.1,-1446 489.1,-1446 489.1,-1446 710.45,-1446 710.45,-1446"/>
<polygon fill="black" stroke="black" points="710.45,-1449.5 720.45,-1446 710.45,-1442.5 710.45,-1449.5"/>
<text text-anchor="middle" x="626.39" y="-1369.8" font-family="Times,serif" font-size="14.00">MAX_EMA</text>
</g>
<!-- n9 -->
<g id="node5" class="node">
<title>n9</title>
<ellipse fill="none" stroke="black" cx="1051.67" cy="-2007" rx="31.4" ry="18"/>
<text text-anchor="middle" x="1051.67" y="-2003.3" font-family="Times,serif" font-size="14.00">1.10</text>
</g>
<!-- n8 -->
<g id="node8" class="node">
<title>n8</title>
<ellipse fill="none" stroke="black" cx="1307.27" cy="-2007" rx="27" ry="18"/>
<text text-anchor="middle" x="1307.27" y="-2003.3" font-family="Times,serif" font-size="14.00">rhs</text>
</g>
<!-- n9&#45;&gt;n8 -->
<g id="edge3" class="edge">
<title>n9&#45;&gt;n8</title>
<path fill="none" stroke="black" d="M1083.52,-2007C1083.52,-2007 1268.57,-2007 1268.57,-2007"/>
<polygon fill="black" stroke="black" points="1268.57,-2010.5 1278.57,-2007 1268.57,-2003.5 1268.57,-2010.5"/>
</g>
<!-- n7 -->
<g id="node6" class="node">
<title>n7</title>
<ellipse fill="none" stroke="black" cx="1307.27" cy="-1953" rx="27" ry="18"/>
<text text-anchor="middle" x="1307.27" y="-1949.3" font-family="Times,serif" font-size="14.00">lhs</text>
</g>
<!-- n10 -->
<g id="node7" class="node">
<title>n10</title>
<ellipse fill="none" stroke="black" cx="1575.66" cy="-1988" rx="41.69" ry="18"/>
<text text-anchor="middle" x="1575.66" y="-1984.3" font-family="Times,serif" font-size="14.00">output</text>
</g>
<!-- n62 -->
<g id="node28" class="node">
<title>n62</title>
<ellipse fill="none" stroke="black" cx="2104.34" cy="-1988" rx="27" ry="18"/>
<text text-anchor="middle" x="2104.34" y="-1984.3" font-family="Times,serif" font-size="14.00">rhs</text>
</g>
<!-- n10&#45;&gt;n62 -->
<g id="edge40" class="edge">
<title>n10&#45;&gt;n62</title>
<path fill="none" stroke="black" d="M1617.58,-1988C1617.58,-1988 2065.35,-1988 2065.35,-1988"/>
<polygon fill="black" stroke="black" points="2065.35,-1991.5 2075.35,-1988 2065.35,-1984.5 2065.35,-1991.5"/>
<text text-anchor="middle" x="1902.04" y="-1991.8" font-family="Times,serif" font-size="14.00">LATENCY_SETPOINT</text>
</g>
<!-- n50 -->
<g id="node41" class="node">
<title>n50</title>
<ellipse fill="none" stroke="black" cx="3162.57" cy="-1083" rx="48.99" ry="18"/>
<text text-anchor="middle" x="3162.57" y="-1079.3" font-family="Times,serif" font-size="14.00">setpoint</text>
</g>
<!-- n10&#45;&gt;n50 -->
<g id="edge39" class="edge">
<title>n10&#45;&gt;n50</title>
<path fill="none" stroke="black" d="M1612.1,-1978.75C1612.1,-1883.39 1612.1,-1083 1612.1,-1083 1612.1,-1083 3101.66,-1083 3101.66,-1083"/>
<polygon fill="black" stroke="black" points="3101.66,-1086.5 3111.66,-1083 3101.66,-1079.5 3101.66,-1086.5"/>
<text text-anchor="middle" x="2349.14" y="-1102.8" font-family="Times,serif" font-size="14.00">LATENCY_SETPOINT</text>
</g>
<!-- n8&#45;&gt;n10 -->
<!-- n12 -->
<g id="node9" class="node">
<title>n12</title>
<ellipse fill="none" stroke="black" cx="2104.34" cy="-518" rx="27" ry="18"/>
<text text-anchor="middle" x="2104.34" y="-514.3" font-family="Times,serif" font-size="14.00">lhs</text>
</g>
<!-- n14 -->
<g id="node10" class="node">
<title>n14</title>
<ellipse fill="none" stroke="black" cx="2624.84" cy="-465" rx="41.69" ry="18"/>
<text text-anchor="middle" x="2624.84" y="-461.3" font-family="Times,serif" font-size="14.00">output</text>
</g>
<!-- n53 -->
<g id="node32" class="node">
<title>n53</title>
<ellipse fill="none" stroke="black" cx="3162.57" cy="-474" rx="35.19" ry="18"/>
<text text-anchor="middle" x="3162.57" y="-470.3" font-family="Times,serif" font-size="14.00">input</text>
</g>
<!-- n14&#45;&gt;n53 -->
<g id="edge43" class="edge">
<title>n14&#45;&gt;n53</title>
<path fill="none" stroke="black" d="M2665.69,-469.5C2665.69,-469.5 3116.65,-469.5 3116.65,-469.5"/>
<polygon fill="black" stroke="black" points="3116.65,-473 3126.65,-469.5 3116.65,-466 3116.65,-473"/>
<text text-anchor="middle" x="2871.93" y="-476.8" font-family="Times,serif" font-size="14.00">DESIRED_CONCURRENCY_RATIO</text>
</g>
<!-- n13 -->
<g id="node11" class="node">
<title>n13</title>
<ellipse fill="none" stroke="black" cx="2104.34" cy="-464" rx="27" ry="18"/>
<text text-anchor="middle" x="2104.34" y="-460.3" font-family="Times,serif" font-size="14.00">rhs</text>
</g>
<!-- n13&#45;&gt;n14 -->
<!-- n18 -->
<g id="node12" class="node">
<title>n18</title>
<ellipse fill="none" stroke="black" cx="1575.66" cy="-915" rx="31.4" ry="18"/>
<text text-anchor="middle" x="1575.66" y="-911.3" font-family="Times,serif" font-size="14.00">2.00</text>
</g>
<!-- n17 -->
<g id="node13" class="node">
<title>n17</title>
<ellipse fill="none" stroke="black" cx="2104.34" cy="-915" rx="27" ry="18"/>
<text text-anchor="middle" x="2104.34" y="-911.3" font-family="Times,serif" font-size="14.00">lhs</text>
</g>
<!-- n18&#45;&gt;n17 -->
<g id="edge6" class="edge">
<title>n18&#45;&gt;n17</title>
<path fill="none" stroke="black" d="M1607.54,-915C1607.54,-915 2065.44,-915 2065.44,-915"/>
<polygon fill="black" stroke="black" points="2065.44,-918.5 2075.44,-915 2065.44,-911.5 2065.44,-918.5"/>
</g>
<!-- n19 -->
<g id="node14" class="node">
<title>n19</title>
<ellipse fill="none" stroke="black" cx="2624.84" cy="-915" rx="41.69" ry="18"/>
<text text-anchor="middle" x="2624.84" y="-911.3" font-family="Times,serif" font-size="14.00">output</text>
</g>
<!-- n17&#45;&gt;n19 -->
<!-- n47 -->
<g id="node38" class="node">
<title>n47</title>
<ellipse fill="none" stroke="black" cx="3162.57" cy="-975" rx="30.59" ry="18"/>
<text text-anchor="middle" x="3162.57" y="-971.3" font-family="Times,serif" font-size="14.00">max</text>
</g>
<!-- n19&#45;&gt;n47 -->
<g id="edge41" class="edge">
<title>n19&#45;&gt;n47</title>
<path fill="none" stroke="black" d="M2625.1,-933.33C2625.1,-950.97 2625.1,-975 2625.1,-975 2625.1,-975 3120.23,-975 3120.23,-975"/>
<polygon fill="black" stroke="black" points="3120.23,-978.5 3130.23,-975 3120.23,-971.5 3120.23,-978.5"/>
<text text-anchor="middle" x="2871.93" y="-938.8" font-family="Times,serif" font-size="14.00">NORMAL_CONCURRENCY_LIMIT</text>
</g>
<!-- n16 -->
<g id="node15" class="node">
<title>n16</title>
<ellipse fill="none" stroke="black" cx="2104.34" cy="-861" rx="27" ry="18"/>
<text text-anchor="middle" x="2104.34" y="-857.3" font-family="Times,serif" font-size="14.00">rhs</text>
</g>
<!-- n22 -->
<g id="node16" class="node">
<title>n22</title>
<ellipse fill="none" stroke="black" cx="2624.84" cy="-76" rx="31.4" ry="18"/>
<text text-anchor="middle" x="2624.84" y="-72.3" font-family="Times,serif" font-size="14.00">5.00</text>
</g>
<!-- n21 -->
<g id="node17" class="node">
<title>n21</title>
<ellipse fill="none" stroke="black" cx="3162.57" cy="-76" rx="27" ry="18"/>
<text text-anchor="middle" x="3162.57" y="-72.3" font-family="Times,serif" font-size="14.00">lhs</text>
</g>
<!-- n22&#45;&gt;n21 -->
<g id="edge8" class="edge">
<title>n22&#45;&gt;n21</title>
<path fill="none" stroke="black" d="M2656.47,-76C2656.47,-76 3123.72,-76 3123.72,-76"/>
<polygon fill="black" stroke="black" points="3123.72,-79.5 3133.72,-76 3123.72,-72.5 3123.72,-79.5"/>
</g>
<!-- n24 -->
<g id="node18" class="node">
<title>n24</title>
<ellipse fill="none" stroke="black" cx="3630.31" cy="-130" rx="41.69" ry="18"/>
<text text-anchor="middle" x="3630.31" y="-126.3" font-family="Times,serif" font-size="14.00">output</text>
</g>
<!-- n26 -->
<g id="node20" class="node">
<title>n26</title>
<ellipse fill="none" stroke="black" cx="4142.91" cy="-1399" rx="27" ry="18"/>
<text text-anchor="middle" x="4142.91" y="-1395.3" font-family="Times,serif" font-size="14.00">lhs</text>
</g>
<!-- n24&#45;&gt;n26 -->
<g id="edge31" class="edge">
<title>n24&#45;&gt;n26</title>
<path fill="none" stroke="black" d="M3672.28,-130C3794.75,-130 4143.1,-130 4143.1,-130 4143.1,-130 4143.1,-1369.06 4143.1,-1369.06"/>
<polygon fill="black" stroke="black" points="4139.6,-1369.06 4143.1,-1379.06 4146.6,-1369.06 4139.6,-1369.06"/>
<text text-anchor="middle" x="3893.91" y="-795.8" font-family="Times,serif" font-size="14.00">CONCURRENCY_INCREMENT_SINGLE_TICK</text>
</g>
<!-- n23 -->
<g id="node19" class="node">
<title>n23</title>
<ellipse fill="none" stroke="black" cx="3162.57" cy="-130" rx="27" ry="18"/>
<text text-anchor="middle" x="3162.57" y="-126.3" font-family="Times,serif" font-size="14.00">rhs</text>
</g>
<!-- n23&#45;&gt;n24 -->
<!-- n28 -->
<g id="node21" class="node">
<title>n28</title>
<ellipse fill="none" stroke="black" cx="4248.51" cy="-1453" rx="41.69" ry="18"/>
<text text-anchor="middle" x="4248.51" y="-1449.3" font-family="Times,serif" font-size="14.00">output</text>
</g>
<!-- n30 -->
<g id="node43" class="node">
<title>n30</title>
<ellipse fill="none" stroke="black" cx="2104.34" cy="-1232" rx="40.09" ry="18"/>
<text text-anchor="middle" x="2104.34" y="-1228.3" font-family="Times,serif" font-size="14.00">inputs</text>
</g>
<!-- n28&#45;&gt;n30 -->
<g id="edge32" class="edge">
<title>n28&#45;&gt;n30</title>
<path fill="none" stroke="black" d="M4249.1,-1434.86C4249.1,-1432.84 4249.1,-1431.5 4249.1,-1431.5 4249.1,-1431.5 2105.1,-1431.5 2105.1,-1431.5 2105.1,-1431.5 2105.1,-1261.92 2105.1,-1261.92"/>
<polygon fill="black" stroke="black" points="2108.6,-1261.92 2105.1,-1251.92 2101.6,-1261.92 2108.6,-1261.92"/>
<text text-anchor="middle" x="3418.22" y="-1669.8" font-family="Times,serif" font-size="14.00">CONCURRENCY_INCREMENT_INTEGRAL</text>
</g>
<!-- n27 -->
<g id="node22" class="node">
<title>n27</title>
<ellipse fill="none" stroke="black" cx="4142.91" cy="-1453" rx="27" ry="18"/>
<text text-anchor="middle" x="4142.91" y="-1449.3" font-family="Times,serif" font-size="14.00">rhs</text>
</g>
<!-- n27&#45;&gt;n28 -->
<!-- n60 -->
<g id="node23" class="node">
<title>n60</title>
<ellipse fill="none" stroke="black" cx="1575.66" cy="-358" rx="80.69" ry="18"/>
<text text-anchor="middle" x="1575.66" y="-354.3" font-family="Times,serif" font-size="14.00">load_multiplier</text>
</g>
<!-- n57 -->
<g id="node24" class="node">
<title>n57</title>
<ellipse fill="none" stroke="black" cx="1575.66" cy="-621" rx="113.98" ry="18"/>
<text text-anchor="middle" x="1575.66" y="-617.3" font-family="Times,serif" font-size="14.00">accepted_concurrency</text>
</g>
<!-- n57&#45;&gt;n16 -->
<g id="edge21" class="edge">
<title>n57&#45;&gt;n16</title>
<path fill="none" stroke="black" d="M1687.94,-624.6C1843.35,-624.6 2105.1,-624.6 2105.1,-624.6 2105.1,-624.6 2105.1,-831.33 2105.1,-831.33"/>
<polygon fill="black" stroke="black" points="2101.6,-831.33 2105.1,-841.33 2108.6,-831.33 2101.6,-831.33"/>
<text text-anchor="middle" x="1902.04" y="-814.8" font-family="Times,serif" font-size="14.00">ACCEPTED_CONCURRENCY</text>
</g>
<!-- n48 -->
<g id="node37" class="node">
<title>n48</title>
<ellipse fill="none" stroke="black" cx="3162.57" cy="-921" rx="85.29" ry="18"/>
<text text-anchor="middle" x="3162.57" y="-917.3" font-family="Times,serif" font-size="14.00">control_variable</text>
</g>
<!-- n57&#45;&gt;n48 -->
<g id="edge24" class="edge">
<title>n57&#45;&gt;n48</title>
<path fill="none" stroke="black" d="M1687.66,-617.4C2040.09,-617.4 3103.1,-617.4 3103.1,-617.4 3103.1,-617.4 3103.1,-896.44 3103.1,-896.44"/>
<polygon fill="black" stroke="black" points="3099.6,-896.44 3103.1,-906.44 3106.6,-896.44 3099.6,-896.44"/>
<text text-anchor="middle" x="2349.14" y="-731.8" font-family="Times,serif" font-size="14.00">ACCEPTED_CONCURRENCY</text>
</g>
<!-- n57&#45;&gt;n30 -->
<g id="edge22" class="edge">
<title>n57&#45;&gt;n30</title>
<path fill="none" stroke="black" d="M1668.45,-631.8C1812.14,-631.8 2072.1,-631.8 2072.1,-631.8 2072.1,-631.8 2072.1,-1209.3 2072.1,-1209.3"/>
<polygon fill="black" stroke="black" points="2068.6,-1209.3 2072.1,-1219.3 2075.6,-1209.3 2068.6,-1209.3"/>
<text text-anchor="middle" x="1902.04" y="-1077.8" font-family="Times,serif" font-size="14.00">ACCEPTED_CONCURRENCY</text>
</g>
<!-- n37 -->
<g id="node46" class="node">
<title>n37</title>
<ellipse fill="none" stroke="black" cx="2104.34" cy="-297" rx="35.19" ry="18"/>
<text text-anchor="middle" x="2104.34" y="-293.3" font-family="Times,serif" font-size="14.00">input</text>
</g>
<!-- n57&#45;&gt;n37 -->
<g id="edge23" class="edge">
<title>n57&#45;&gt;n37</title>
<path fill="none" stroke="black" d="M1668.43,-610.2C1812.86,-610.2 2075.1,-610.2 2075.1,-610.2 2075.1,-610.2 2075.1,-318.93 2075.1,-318.93"/>
<polygon fill="black" stroke="black" points="2078.6,-318.93 2075.1,-308.93 2071.6,-318.93 2078.6,-318.93"/>
<text text-anchor="middle" x="1902.04" y="-701.8" font-family="Times,serif" font-size="14.00">ACCEPTED_CONCURRENCY</text>
</g>
<!-- n58 -->
<g id="node25" class="node">
<title>n58</title>
<ellipse fill="none" stroke="black" cx="1575.66" cy="-567" rx="114.28" ry="18"/>
<text text-anchor="middle" x="1575.66" y="-563.3" font-family="Times,serif" font-size="14.00">incoming_concurrency</text>
</g>
<!-- n58&#45;&gt;n13 -->
<g id="edge25" class="edge">
<title>n58&#45;&gt;n13</title>
<path fill="none" stroke="black" d="M1674.1,-557.49C1674.1,-532 1674.1,-464 1674.1,-464 1674.1,-464 2065.59,-464 2065.59,-464"/>
<polygon fill="black" stroke="black" points="2065.59,-467.5 2075.59,-464 2065.59,-460.5 2065.59,-467.5"/>
<text text-anchor="middle" x="1902.04" y="-519.8" font-family="Times,serif" font-size="14.00">INCOMING_CONCURRENCY</text>
</g>
<!-- n63 -->
<g id="node26" class="node">
<title>n63</title>
<ellipse fill="none" stroke="black" cx="2104.34" cy="-2042" rx="27" ry="18"/>
<text text-anchor="middle" x="2104.34" y="-2038.3" font-family="Times,serif" font-size="14.00">lhs</text>
</g>
<!-- n64 -->
<g id="node27" class="node">
<title>n64</title>
<ellipse fill="none" stroke="black" cx="2624.84" cy="-2015" rx="41.69" ry="18"/>
<text text-anchor="middle" x="2624.84" y="-2011.3" font-family="Times,serif" font-size="14.00">output</text>
</g>
<!-- n63&#45;&gt;n64 -->
<!-- n69 -->
<g id="node52" class="node">
<title>n69</title>
<ellipse fill="none" stroke="black" cx="3162.57" cy="-1507" rx="40.89" ry="18"/>
<text text-anchor="middle" x="3162.57" y="-1503.3" font-family="Times,serif" font-size="14.00">switch</text>
</g>
<!-- n64&#45;&gt;n69 -->
<g id="edge28" class="edge">
<title>n64&#45;&gt;n69</title>
<path fill="none" stroke="black" d="M2666.62,-2015C2793.09,-2015 3163.1,-2015 3163.1,-2015 3163.1,-2015 3163.1,-1536.89 3163.1,-1536.89"/>
<polygon fill="black" stroke="black" points="3166.6,-1536.89 3163.1,-1526.89 3159.6,-1536.89 3166.6,-1536.89"/>
<text text-anchor="middle" x="2871.93" y="-1833.8" font-family="Times,serif" font-size="14.00">IS_OVERLOAD</text>
</g>
<!-- n42 -->
<g id="node29" class="node">
<title>n42</title>
<ellipse fill="none" stroke="black" cx="798.43" cy="-1500" rx="35.19" ry="18"/>
<text text-anchor="middle" x="798.43" y="-1496.3" font-family="Times,serif" font-size="14.00">input</text>
</g>
<!-- n44 -->
<g id="node31" class="node">
<title>n44</title>
<ellipse fill="none" stroke="black" cx="1051.67" cy="-1486" rx="41.69" ry="18"/>
<text text-anchor="middle" x="1051.67" y="-1482.3" font-family="Times,serif" font-size="14.00">output</text>
</g>
<!-- n43&#45;&gt;n44 -->
<!-- n44&#45;&gt;n7 -->
<g id="edge45" class="edge">
<title>n44&#45;&gt;n7</title>
<path fill="none" stroke="black" d="M1088.1,-1495.33C1088.1,-1561.15 1088.1,-1953 1088.1,-1953 1088.1,-1953 1268.44,-1953 1268.44,-1953"/>
<polygon fill="black" stroke="black" points="1268.44,-1956.5 1278.44,-1953 1268.44,-1949.5 1268.44,-1956.5"/>
<text text-anchor="middle" x="1206.77" y="-1729.8" font-family="Times,serif" font-size="14.00">LATENCY_EMA</text>
</g>
<!-- n54 -->
<g id="node33" class="node">
<title>n54</title>
<ellipse fill="none" stroke="black" cx="3630.31" cy="-474" rx="41.69" ry="18"/>
<text text-anchor="middle" x="3630.31" y="-470.3" font-family="Times,serif" font-size="14.00">output</text>
</g>
<!-- n53&#45;&gt;n54 -->
<!-- n54&#45;&gt;n60 -->
<g id="edge27" class="edge">
<title>n54&#45;&gt;n60</title>
<path fill="none" stroke="black" d="M3631.1,-455.62C3631.1,-422.91 3631.1,-358 3631.1,-358 3631.1,-358 1668.06,-358 1668.06,-358"/>
<polygon fill="black" stroke="black" points="1668.06,-354.5 1658.06,-358 1668.06,-361.5 1668.06,-354.5"/>
<text text-anchor="middle" x="2624.84" y="-680.8" font-family="Times,serif" font-size="14.00">LOAD_MULTIPLIER</text>
</g>
<!-- n34 -->
<g id="node34" class="node">
<title>n34</title>
<ellipse fill="none" stroke="black" cx="1575.66" cy="-1786" rx="31.4" ry="18"/>
<text text-anchor="middle" x="1575.66" y="-1782.3" font-family="Times,serif" font-size="14.00">0.00</text>
</g>
<!-- n33 -->
<g id="node35" class="node">
<title>n33</title>
<ellipse fill="none" stroke="black" cx="2104.34" cy="-1786" rx="40.09" ry="18"/>
<text text-anchor="middle" x="2104.34" y="-1782.3" font-family="Times,serif" font-size="14.00">inputs</text>
</g>
<!-- n34&#45;&gt;n33 -->
<g id="edge14" class="edge">
<title>n34&#45;&gt;n33</title>
<path fill="none" stroke="black" d="M1607.54,-1786C1607.54,-1786 2052.43,-1786 2052.43,-1786"/>
<polygon fill="black" stroke="black" points="2052.43,-1789.5 2062.43,-1786 2052.43,-1782.5 2052.43,-1789.5"/>
</g>
<!-- n35 -->
<g id="node36" class="node">
<title>n35</title>
<ellipse fill="none" stroke="black" cx="2624.84" cy="-1786" rx="41.69" ry="18"/>
<text text-anchor="middle" x="2624.84" y="-1782.3" font-family="Times,serif" font-size="14.00">output</text>
</g>
<!-- n33&#45;&gt;n35 -->
<!-- n68 -->
<g id="node49" class="node">
<title>n68</title>
<ellipse fill="none" stroke="black" cx="3162.57" cy="-1453" rx="48.19" ry="18"/>
<text text-anchor="middle" x="3162.57" y="-1449.3" font-family="Times,serif" font-size="14.00">on_false</text>
</g>
<!-- n35&#45;&gt;n68 -->
<g id="edge37" class="edge">
<title>n35&#45;&gt;n68</title>
<path fill="none" stroke="black" d="M2666.89,-1786C2786.18,-1786 3118.1,-1786 3118.1,-1786 3118.1,-1786 3118.1,-1471.78 3118.1,-1471.78"/>
<polygon fill="black" stroke="black" points="3121.6,-1471.78 3118.1,-1461.78 3114.6,-1471.78 3121.6,-1471.78"/>
<text text-anchor="middle" x="2871.93" y="-1543.8" font-family="Times,serif" font-size="14.00">CONCURRENCY_INCREMENT_NORMAL</text>
</g>
<!-- n46 -->
<g id="node39" class="node">
<title>n46</title>
<ellipse fill="none" stroke="black" cx="3162.57" cy="-1137" rx="50.89" ry="18"/>
<text text-anchor="middle" x="3162.57" y="-1133.3" font-family="Times,serif" font-size="14.00">optimize</text>
</g>
<!-- n51 -->
<g id="node40" class="node">
<title>n51</title>
<ellipse fill="none" stroke="black" cx="3630.31" cy="-1002" rx="41.69" ry="18"/>
<text text-anchor="middle" x="3630.31" y="-998.3" font-family="Times,serif" font-size="14.00">output</text>
</g>
<!-- n51&#45;&gt;n12 -->
<g id="edge42" class="edge">
<title>n51&#45;&gt;n12</title>
<path fill="none" stroke="black" d="M3631.1,-983.62C3631.1,-895.21 3631.1,-518 3631.1,-518 3631.1,-518 2143.33,-518 2143.33,-518"/>
<polygon fill="black" stroke="black" points="2143.33,-514.5 2133.33,-518 2143.33,-521.5 2143.33,-514.5"/>
<text text-anchor="middle" x="2871.93" y="-632.8" font-family="Times,serif" font-size="14.00">DESIRED_CONCURRENCY</text>
</g>
<!-- n50&#45;&gt;n51 -->
<!-- n49 -->
<g id="node42" class="node">
<title>n49</title>
<ellipse fill="none" stroke="black" cx="3162.57" cy="-1029" rx="38.19" ry="18"/>
<text text-anchor="middle" x="3162.57" y="-1025.3" font-family="Times,serif" font-size="14.00">signal</text>
</g>
<!-- n31 -->
<g id="node44" class="node">
<title>n31</title>
<ellipse fill="none" stroke="black" cx="2624.84" cy="-1232" rx="41.69" ry="18"/>
<text text-anchor="middle" x="2624.84" y="-1228.3" font-family="Times,serif" font-size="14.00">output</text>
</g>
<!-- n30&#45;&gt;n31 -->
<!-- n31&#45;&gt;n33 -->
<g id="edge26" class="edge">
<title>n31&#45;&gt;n33</title>
<path fill="none" stroke="black" d="M2584.95,-1238C2511.91,-1238 2364.1,-1238 2364.1,-1238 2364.1,-1238 2364.1,-1780 2364.1,-1780 2364.1,-1780 2154.18,-1780 2154.18,-1780"/>
<polygon fill="black" stroke="black" points="2154.18,-1776.5 2144.18,-1780 2154.18,-1783.5 2154.18,-1776.5"/>
<text text-anchor="middle" x="2349.14" y="-1731.8" font-family="Times,serif" font-size="14.00">CONCURRENCY_INCREMENT_INTEGRAL_CAPPED</text>
</g>
<!-- n40 -->
<g id="node45" class="node">
<title>n40</title>
<ellipse fill="none" stroke="black" cx="99.6" cy="-1485" rx="41.69" ry="18"/>
<text text-anchor="middle" x="99.6" y="-1481.3" font-family="Times,serif" font-size="14.00">output</text>
</g>
<!-- n40&#45;&gt;n4 -->
<g id="edge33" class="edge">
<title>n40&#45;&gt;n4</title>
<path fill="none" stroke="black" d="M138.1,-1477.44C138.1,-1441.09 138.1,-1286 138.1,-1286 138.1,-1286 275.55,-1286 275.55,-1286"/>
<polygon fill="black" stroke="black" points="275.55,-1289.5 285.55,-1286 275.55,-1282.5 275.55,-1289.5"/>
<text text-anchor="middle" x="234.19" y="-1473.8" font-family="Times,serif" font-size="14.00">LATENCY</text>
</g>
<!-- n40&#45;&gt;n63 -->
<g id="edge36" class="edge">
<title>n40&#45;&gt;n63</title>
<path fill="none" stroke="black" d="M100.1,-1503.23C100.1,-1599.31 100.1,-2042.5 100.1,-2042.5 100.1,-2042.5 2065.64,-2042.5 2065.64,-2042.5"/>
<polygon fill="black" stroke="black" points="2065.64,-2046 2075.64,-2042.5 2065.64,-2039 2065.64,-2046"/>
<text text-anchor="middle" x="927.47" y="-2161.8" font-family="Times,serif" font-size="14.00">LATENCY</text>
</g>
<!-- n40&#45;&gt;n42 -->
<g id="edge34" class="edge">
<title>n40&#45;&gt;n42</title>
<path fill="none" stroke="black" d="M138.16,-1492.5C138.16,-1492.5 754.66,-1492.5 754.66,-1492.5"/>
<polygon fill="black" stroke="black" points="754.66,-1496 764.66,-1492.5 754.66,-1489 754.66,-1496"/>
<text text-anchor="middle" x="394.19" y="-1503.8" font-family="Times,serif" font-size="14.00">LATENCY</text>
</g>
<!-- n40&#45;&gt;n49 -->
<g id="edge35" class="edge">
<title>n40&#45;&gt;n49</title>
<path fill="none" stroke="black" d="M135.1,-1475.05C135.1,-1408.37 135.1,-1029 135.1,-1029 135.1,-1029 3112.51,-1029 3112.51,-1029"/>
<polygon fill="black" stroke="black" points="3112.51,-1032.5 3122.51,-1029 3112.51,-1025.5 3112.51,-1032.5"/>
<text text-anchor="middle" x="1206.77" y="-1107.8" font-family="Times,serif" font-size="14.00">LATENCY</text>
</g>
<!-- n38 -->
<g id="node47" class="node">
<title>n38</title>
<ellipse fill="none" stroke="black" cx="2624.84" cy="-297" rx="41.69" ry="18"/>
<text text-anchor="middle" x="2624.84" y="-293.3" font-family="Times,serif" font-size="14.00">output</text>
</g>
<!-- n37&#45;&gt;n38 -->
<!-- n38&#45;&gt;n23 -->
<g id="edge44" class="edge">
<title>n38&#45;&gt;n23</title>
<path fill="none" stroke="black" d="M2662.1,-288.49C2662.1,-254.46 2662.1,-130 2662.1,-130 2662.1,-130 3123.8,-130 3123.8,-130"/>
<polygon fill="black" stroke="black" points="3123.8,-133.5 3133.8,-130 3123.8,-126.5 3123.8,-133.5"/>
<text text-anchor="middle" x="2871.93" y="-216.8" font-family="Times,serif" font-size="14.00">SQRT_CONCURRENCY_INCREMENT</text>
</g>
<!-- n67 -->
<g id="node48" class="node">
<title>n67</title>
<ellipse fill="none" stroke="black" cx="2624.84" cy="-1399" rx="31.4" ry="18"/>
<text text-anchor="middle" x="2624.84" y="-1395.3" font-family="Times,serif" font-size="14.00">0.00</text>
</g>
<!-- n66 -->
<g id="node50" class="node">
<title>n66</title>
<ellipse fill="none" stroke="black" cx="3162.57" cy="-1399" rx="46.29" ry="18"/>
<text text-anchor="middle" x="3162.57" y="-1395.3" font-family="Times,serif" font-size="14.00">on_true</text>
</g>
<!-- n67&#45;&gt;n66 -->
<g id="edge19" class="edge">
<title>n67&#45;&gt;n66</title>
<path fill="none" stroke="black" d="M2656.47,-1399C2656.47,-1399 3104.35,-1399 3104.35,-1399"/>
<polygon fill="black" stroke="black" points="3104.35,-1402.5 3114.35,-1399 3104.35,-1395.5 3104.35,-1402.5"/>
</g>
<!-- n70 -->
<g id="node51" class="node">
<title>n70</title>
<ellipse fill="none" stroke="black" cx="3630.31" cy="-1453" rx="41.69" ry="18"/>
<text text-anchor="middle" x="3630.31" y="-1449.3" font-family="Times,serif" font-size="14.00">output</text>
</g>
<!-- n70&#45;&gt;n27 -->
<g id="edge29" class="edge">
<title>n70&#45;&gt;n27</title>
<path fill="none" stroke="black" d="M3672.26,-1453C3672.26,-1453 4104.05,-1453 4104.05,-1453"/>
<polygon fill="black" stroke="black" points="4104.05,-1456.5 4114.05,-1453 4104.05,-1449.5 4104.05,-1456.5"/>
<text text-anchor="middle" x="3893.91" y="-1456.8" font-family="Times,serif" font-size="14.00">CONCURRENCY_INCREMENT</text>
</g>
<!-- n70&#45;&gt;n46 -->
<g id="edge30" class="edge">
<title>n70&#45;&gt;n46</title>
<path fill="none" stroke="black" d="M3631.1,-1434.64C3631.1,-1367.2 3631.1,-1137 3631.1,-1137 3631.1,-1137 3225.12,-1137 3225.12,-1137"/>
<polygon fill="black" stroke="black" points="3225.12,-1133.5 3215.12,-1137 3225.12,-1140.5 3225.12,-1133.5"/>
<text text-anchor="middle" x="3418.22" y="-1308.8" font-family="Times,serif" font-size="14.00">CONCURRENCY_INCREMENT</text>
</g>
<!-- n69&#45;&gt;n70 -->
</g>
</svg>
