<svg xmlns="http://www.w3.org/2000/svg" xmlns:xlink="http://www.w3.org/1999/xlink" width="4357pt" height="2908" viewBox="0 0 4357.4 2181"><g id="graph0" class="graph" transform="scale(1 1) rotate(0) translate(4 2177)"><title>%3</title><polygon fill="#fff" stroke="transparent" points="-4 4 -4 -2177 4353.4 -2177 4353.4 4 -4 4"/><g id="clust1" class="cluster"><title>cluster_s1</title><polygon fill="none" stroke="#000" points="18.4 -1164 18.4 -1377 580.39 -1377 580.39 -1164 18.4 -1164"/><text x="299.39" y="-1361.8" font-family="Times,serif" font-size="14" text-anchor="middle">ArithmeticCombinator[0]</text></g><g id="clust4" class="cluster"><title>cluster_s6</title><polygon fill="none" stroke="#000" points="970.47 -1885 970.47 -2098 1668.25 -2098 1668.25 -1885 970.47 -1885"/><text x="1319.36" y="-2082.8" font-family="Times,serif" font-size="14" text-anchor="middle">ArithmeticCombinator[1]</text></g><g id="clust7" class="cluster"><title>cluster_s11</title><polygon fill="none" stroke="#000" points="2028.34 -396 2028.34 -609 2717.73 -609 2717.73 -396 2028.34 -396"/><text x="2373.04" y="-593.8" font-family="Times,serif" font-size="14" text-anchor="middle">ArithmeticCombinator[2]</text></g><g id="clust10" class="cluster"><title>cluster_s15</title><polygon fill="none" stroke="#000" points="1495.46 -793 1495.46 -1006 2717.73 -1006 2717.73 -793 1495.46 -793"/><text x="2106.6" y="-990.8" font-family="Times,serif" font-size="14" text-anchor="middle">ArithmeticCombinator[3]</text></g><g id="clust13" class="cluster"><title>cluster_s20</title><polygon fill="none" stroke="#000" points="2544.94 -8 2544.94 -221 3723.21 -221 3723.21 -8 2544.94 -8"/><text x="3134.08" y="-205.8" font-family="Times,serif" font-size="14" text-anchor="middle">ArithmeticCombinator[4]</text></g><g id="clust16" class="cluster"><title>cluster_s25</title><polygon fill="none" stroke="#000" points="4067.21 -1331 4067.21 -1544 4341.4 -1544 4341.4 -1331 4067.21 -1331"/><text x="4204.31" y="-1528.8" font-family="Times,serif" font-size="14" text-anchor="middle">ArithmeticCombinator[5]</text></g><g id="clust19" class="cluster"><title>cluster_s55</title><polygon fill="none" stroke="#000" points="1362.27 -240 1362.27 -785 1791.04 -785 1791.04 -240 1362.27 -240"/><text x="1576.66" y="-769.8" font-family="Times,serif" font-size="14" text-anchor="middle">ConcurrencyLimiter[13]</text></g><g id="clust20" class="cluster"><title>cluster_s59</title><polygon fill="none" stroke="#000" points="1446.06 -290 1446.06 -449 1707.25 -449 1707.25 -290 1446.06 -290"/><text x="1576.66" y="-433.8" font-family="Times,serif" font-size="14" text-anchor="middle">LoadActuator[13.LoadActuator]</text></g><g id="clust22" class="cluster"><title>cluster_s56</title><polygon fill="none" stroke="#000" points="1412.27 -499 1412.27 -712 1741.04 -712 1741.04 -499 1412.27 -499"/><text x="1576.66" y="-696.8" font-family="Times,serif" font-size="14" text-anchor="middle">Scheduler[13.Scheduler]</text></g><g id="clust24" class="cluster"><title>cluster_s61</title><polygon fill="none" stroke="#000" points="2028.34 -1920 2028.34 -2133 2717.73 -2133 2717.73 -1920 2028.34 -1920"/><text x="2373.04" y="-2117.8" font-family="Times,serif" font-size="14" text-anchor="middle">Decider[14]</text></g><g id="clust27" class="cluster"><title>cluster_s41</title><polygon fill="none" stroke="#000" points="672.39 -1378 672.39 -1591 1143.27 -1591 1143.27 -1378 672.39 -1378"/><text x="907.83" y="-1575.8" font-family="Times,serif" font-size="14" text-anchor="middle">EMA[10]</text></g><g id="clust30" class="cluster"><title>cluster_s52</title><polygon fill="none" stroke="#000" points="3078.78 -476 3078.78 -635 3723.21 -635 3723.21 -476 3078.78 -476"/><text x="3401" y="-619.8" font-family="Times,serif" font-size="14" text-anchor="middle">Extrapolator[12]</text></g><g id="clust33" class="cluster"><title>cluster_s32</title><polygon fill="none" stroke="#000" points="1495.46 -1718 1495.46 -1877 2717.73 -1877 2717.73 -1718 1495.46 -1718"/><text x="2106.6" y="-1861.8" font-family="Times,serif" font-size="14" text-anchor="middle">FirstValid[7]</text></g><g id="clust36" class="cluster"><title>cluster_s45</title><polygon fill="none" stroke="#000" points="3028.73 -799 3028.73 -1174 3723.21 -1174 3723.21 -799 3028.73 -799"/><text x="3375.97" y="-1158.8" font-family="Times,serif" font-size="14" text-anchor="middle">Gradient[11]</text></g><g id="clust39" class="cluster"><title>cluster_s29</title><polygon fill="none" stroke="#000" points="2015.04 -1164 2015.04 -1323 2717.73 -1323 2717.73 -1164 2015.04 -1164"/><text x="2366.39" y="-1307.8" font-family="Times,serif" font-size="14" text-anchor="middle">Min[6]</text></g><g id="clust42" class="cluster"><title>cluster_s39</title><polygon fill="none" stroke="#000" points="8 -1417 8 -1576 191.19 -1576 191.19 -1417 8 -1417"/><text x="99.6" y="-1560.8" font-family="Times,serif" font-size="14" text-anchor="middle">PromQL[9]</text></g><g id="clust44" class="cluster"><title>cluster_s36</title><polygon fill="none" stroke="#000" points="2020.24 -229 2020.24 -388 2717.73 -388 2717.73 -229 2020.24 -229"/><text x="2368.99" y="-372.8" font-family="Times,serif" font-size="14" text-anchor="middle">Sqrt[8]</text></g><g id="clust47" class="cluster"><title>cluster_s65</title><polygon fill="none" stroke="#000" points="2544.94 -1331 2544.94 -1598 3723.21 -1598 3723.21 -1331 2544.94 -1331"/><text x="3134.08" y="-1582.8" font-family="Times,serif" font-size="14" text-anchor="middle">Switcher[15]</text></g><g id="node1" class="node"><title>n3</title><ellipse cx="99.6" cy="-1232" fill="none" stroke="#000" rx="31.4" ry="18"/><text x="99.6" y="-1228.3" font-family="Times,serif" font-size="14" text-anchor="middle">2.00</text></g><g id="node4" class="node"><title>n2</title><ellipse cx="314.19" cy="-1232" fill="none" stroke="#000" rx="27" ry="18"/><text x="314.19" y="-1228.3" font-family="Times,serif" font-size="14" text-anchor="middle">rhs</text></g><g id="edge1" class="edge"><title>n3-&gt;n2</title><path fill="none" stroke="#000" d="M130.8,-1232C130.8,-1232 277.03,-1232 277.03,-1232"/><polygon fill="#000" stroke="#000" points="277.03 -1235.5 287.03 -1232 277.03 -1228.5 277.03 -1235.5"/></g><g id="node2" class="node"><title>n4</title><ellipse cx="314.19" cy="-1286" fill="none" stroke="#000" rx="27" ry="18"/><text x="314.19" y="-1282.3" font-family="Times,serif" font-size="14" text-anchor="middle">lhs</text></g><g id="node3" class="node"><title>n5</title><ellipse cx="488.79" cy="-1286" fill="none" stroke="#000" rx="41.69" ry="18"/><text x="488.79" y="-1282.3" font-family="Times,serif" font-size="14" text-anchor="middle">output</text></g><g id="node30" class="node"><title>n42</title><ellipse cx="798.43" cy="-1446" fill="none" stroke="#000" rx="76.09" ry="18"/><text x="798.43" y="-1442.3" font-family="Times,serif" font-size="14" text-anchor="middle">max_envelope</text></g><g id="edge30" class="edge"><title>n5-&gt;n42</title><path fill="none" stroke="#000" d="M489.4,-1304.04C489.4,-1345.89 489.4,-1446 489.4,-1446 489.4,-1446 712.04,-1446 712.04,-1446"/><polygon fill="#000" stroke="#000" points="712.04 -1449.5 722.04 -1446 712.04 -1442.5 712.04 -1449.5"/><text x="626.39" y="-1369.8" font-family="Times,serif" font-size="14" text-anchor="middle">MAX_EMA</text></g><g id="node5" class="node"><title>n9</title><ellipse cx="1051.67" cy="-2007" fill="none" stroke="#000" rx="31.4" ry="18"/><text x="1051.67" y="-2003.3" font-family="Times,serif" font-size="14" text-anchor="middle">1.10</text></g><g id="node8" class="node"><title>n8</title><ellipse cx="1308.27" cy="-2007" fill="none" stroke="#000" rx="27" ry="18"/><text x="1308.27" y="-2003.3" font-family="Times,serif" font-size="14" text-anchor="middle">rhs</text></g><g id="edge3" class="edge"><title>n9-&gt;n8</title><path fill="none" stroke="#000" d="M1082.88,-2007C1082.88,-2007 1271.17,-2007 1271.17,-2007"/><polygon fill="#000" stroke="#000" points="1271.17 -2010.5 1281.17 -2007 1271.17 -2003.5 1271.17 -2010.5"/></g><g id="node6" class="node"><title>n7</title><ellipse cx="1308.27" cy="-1953" fill="none" stroke="#000" rx="27" ry="18"/><text x="1308.27" y="-1949.3" font-family="Times,serif" font-size="14" text-anchor="middle">lhs</text></g><g id="node7" class="node"><title>n10</title><ellipse cx="1576.66" cy="-1988" fill="none" stroke="#000" rx="41.69" ry="18"/><text x="1576.66" y="-1984.3" font-family="Times,serif" font-size="14" text-anchor="middle">output</text></g><g id="node28" class="node"><title>n63</title><ellipse cx="2105.34" cy="-1988" fill="none" stroke="#000" rx="27" ry="18"/><text x="2105.34" y="-1984.3" font-family="Times,serif" font-size="14" text-anchor="middle">rhs</text></g><g id="edge28" class="edge"><title>n10-&gt;n63</title><path fill="none" stroke="#000" d="M1618.58,-1988C1618.58,-1988 2068.17,-1988 2068.17,-1988"/><polygon fill="#000" stroke="#000" points="2068.17 -1991.5 2078.17 -1988 2068.17 -1984.5 2068.17 -1991.5"/><text x="1903.04" y="-1991.8" font-family="Times,serif" font-size="14" text-anchor="middle">LATENCY_SETPOINT</text></g><g id="node41" class="node"><title>n49</title><ellipse cx="3163.88" cy="-1083" fill="none" stroke="#000" rx="48.99" ry="18"/><text x="3163.88" y="-1079.3" font-family="Times,serif" font-size="14" text-anchor="middle">setpoint</text></g><g id="edge27" class="edge"><title>n10-&gt;n49</title><path fill="none" stroke="#000" d="M1613.4,-1979.33C1613.4,-1886.72 1613.4,-1083 1613.4,-1083 1613.4,-1083 3104.91,-1083 3104.91,-1083"/><polygon fill="#000" stroke="#000" points="3104.91 -1086.5 3114.91 -1083 3104.91 -1079.5 3104.91 -1086.5"/><text x="2350.14" y="-1102.8" font-family="Times,serif" font-size="14" text-anchor="middle">LATENCY_SETPOINT</text></g><g id="node9" class="node"><title>n13</title><ellipse cx="2105.34" cy="-518" fill="none" stroke="#000" rx="27" ry="18"/><text x="2105.34" y="-514.3" font-family="Times,serif" font-size="14" text-anchor="middle">lhs</text></g><g id="node10" class="node"><title>n14</title><ellipse cx="2626.14" cy="-518" fill="none" stroke="#000" rx="41.69" ry="18"/><text x="2626.14" y="-514.3" font-family="Times,serif" font-size="14" text-anchor="middle">output</text></g><g id="node32" class="node"><title>n53</title><ellipse cx="3163.88" cy="-544" fill="none" stroke="#000" rx="35.19" ry="18"/><text x="3163.88" y="-540.3" font-family="Times,serif" font-size="14" text-anchor="middle">input</text></g><g id="edge38" class="edge"><title>n14-&gt;n53</title><path fill="none" stroke="#000" d="M2655.05,-531C2655.05,-531 3129.56,-531 3129.56,-531"/><polygon fill="#000" stroke="#000" points="3129.56 -534.5 3139.56 -531 3129.56 -527.5 3129.56 -534.5"/><text x="2873.23" y="-524.8" font-family="Times,serif" font-size="14" text-anchor="middle">DESIRED_CONCURRENCY_RATIO</text></g><g id="node11" class="node"><title>n12</title><ellipse cx="2105.34" cy="-464" fill="none" stroke="#000" rx="27" ry="18"/><text x="2105.34" y="-460.3" font-family="Times,serif" font-size="14" text-anchor="middle">rhs</text></g><g id="node12" class="node"><title>n17</title><ellipse cx="1576.66" cy="-915" fill="none" stroke="#000" rx="31.4" ry="18"/><text x="1576.66" y="-911.3" font-family="Times,serif" font-size="14" text-anchor="middle">2.00</text></g><g id="node13" class="node"><title>n16</title><ellipse cx="2105.34" cy="-915" fill="none" stroke="#000" rx="27" ry="18"/><text x="2105.34" y="-911.3" font-family="Times,serif" font-size="14" text-anchor="middle">lhs</text></g><g id="edge6" class="edge"><title>n17-&gt;n16</title><path fill="none" stroke="#000" d="M1608.14,-915C1608.14,-915 2068.21,-915 2068.21,-915"/><polygon fill="#000" stroke="#000" points="2068.21 -918.5 2078.21 -915 2068.21 -911.5 2068.21 -918.5"/></g><g id="node14" class="node"><title>n19</title><ellipse cx="2626.14" cy="-888" fill="none" stroke="#000" rx="41.69" ry="18"/><text x="2626.14" y="-884.3" font-family="Times,serif" font-size="14" text-anchor="middle">output</text></g><g id="node38" class="node"><title>n46</title><ellipse cx="3163.88" cy="-921" fill="none" stroke="#000" rx="30.59" ry="18"/><text x="3163.88" y="-917.3" font-family="Times,serif" font-size="14" text-anchor="middle">max</text></g><g id="edge44" class="edge"><title>n19-&gt;n46</title><path fill="none" stroke="#000" d="M2662.29,-897C2782.98,-897 3164.4,-897 3164.4,-897 3164.4,-897 3164.4,-897.58 3164.4,-897.58"/><polygon fill="#000" stroke="#000" points="3160.9 -892.81 3164.4 -902.81 3167.9 -892.81 3160.9 -892.81"/><text x="2873.23" y="-911.8" font-family="Times,serif" font-size="14" text-anchor="middle">NORMAL_CONCURRENCY_LIMIT</text></g><g id="node15" class="node"><title>n18</title><ellipse cx="2105.34" cy="-861" fill="none" stroke="#000" rx="27" ry="18"/><text x="2105.34" y="-857.3" font-family="Times,serif" font-size="14" text-anchor="middle">rhs</text></g><g id="node16" class="node"><title>n23</title><ellipse cx="2626.14" cy="-76" fill="none" stroke="#000" rx="31.4" ry="18"/><text x="2626.14" y="-72.3" font-family="Times,serif" font-size="14" text-anchor="middle">5.00</text></g><g id="node17" class="node"><title>n22</title><ellipse cx="3163.88" cy="-76" fill="none" stroke="#000" rx="27" ry="18"/><text x="3163.88" y="-72.3" font-family="Times,serif" font-size="14" text-anchor="middle">lhs</text></g><g id="edge8" class="edge"><title>n23-&gt;n22</title><path fill="none" stroke="#000" d="M2657.37,-76C2657.37,-76 3126.8,-76 3126.8,-76"/><polygon fill="#000" stroke="#000" points="3126.8 -79.5 3136.8 -76 3126.8 -72.5 3126.8 -79.5"/></g><g id="node18" class="node"><title>n24</title><ellipse cx="3631.62" cy="-116" fill="none" stroke="#000" rx="41.69" ry="18"/><text x="3631.62" y="-112.3" font-family="Times,serif" font-size="14" text-anchor="middle">output</text></g><g id="node20" class="node"><title>n26</title><ellipse cx="4144.21" cy="-1399" fill="none" stroke="#000" rx="27" ry="18"/><text x="4144.21" y="-1395.3" font-family="Times,serif" font-size="14" text-anchor="middle">lhs</text></g><g id="edge45" class="edge"><title>n24-&gt;n26</title><path fill="none" stroke="#000" d="M3673.58,-116C3796.05,-116 4144.4,-116 4144.4,-116 4144.4,-116 4144.4,-1370.86 4144.4,-1370.86"/><polygon fill="#000" stroke="#000" points="4140.9 -1370.86 4144.4 -1380.86 4147.9 -1370.86 4140.9 -1370.86"/><text x="3895.21" y="-754.8" font-family="Times,serif" font-size="14" text-anchor="middle">CONCURRENCY_INCREMENT_SINGLE_TICK</text></g><g id="node19" class="node"><title>n21</title><ellipse cx="3163.88" cy="-130" fill="none" stroke="#000" rx="27" ry="18"/><text x="3163.88" y="-126.3" font-family="Times,serif" font-size="14" text-anchor="middle">rhs</text></g><g id="node21" class="node"><title>n28</title><ellipse cx="4249.81" cy="-1453" fill="none" stroke="#000" rx="41.69" ry="18"/><text x="4249.81" y="-1449.3" font-family="Times,serif" font-size="14" text-anchor="middle">output</text></g><g id="node43" class="node"><title>n30</title><ellipse cx="2105.34" cy="-1232" fill="none" stroke="#000" rx="40.09" ry="18"/><text x="2105.34" y="-1228.3" font-family="Times,serif" font-size="14" text-anchor="middle">inputs</text></g><g id="edge29" class="edge"><title>n28-&gt;n30</title><path fill="none" stroke="#000" d="M4250.4,-1434.86C4250.4,-1432.84 4250.4,-1431.5 4250.4,-1431.5 4250.4,-1431.5 2105.4,-1431.5 2105.4,-1431.5 2105.4,-1431.5 2105.4,-1260.06 2105.4,-1260.06"/><polygon fill="#000" stroke="#000" points="2108.9 -1260.06 2105.4 -1250.06 2101.9 -1260.06 2108.9 -1260.06"/><text x="3419.52" y="-1669.8" font-family="Times,serif" font-size="14" text-anchor="middle">CONCURRENCY_INCREMENT_INTEGRAL</text></g><g id="node22" class="node"><title>n27</title><ellipse cx="4144.21" cy="-1453" fill="none" stroke="#000" rx="27" ry="18"/><text x="4144.21" y="-1449.3" font-family="Times,serif" font-size="14" text-anchor="middle">rhs</text></g><g id="node23" class="node"><title>n60</title><ellipse cx="1576.66" cy="-358" fill="none" stroke="#000" rx="80.69" ry="18"/><text x="1576.66" y="-354.3" font-family="Times,serif" font-size="14" text-anchor="middle">load_multiplier</text></g><g id="node24" class="node"><title>n57</title><ellipse cx="1576.66" cy="-621" fill="none" stroke="#000" rx="113.98" ry="18"/><text x="1576.66" y="-617.3" font-family="Times,serif" font-size="14" text-anchor="middle">accepted_concurrency</text></g><g id="edge21" class="edge"><title>n57-&gt;n18</title><path fill="none" stroke="#000" d="M1688.15,-624.6C1840.87,-624.6 2096.4,-624.6 2096.4,-624.6 2096.4,-624.6 2096.4,-834 2096.4,-834"/><polygon fill="#000" stroke="#000" points="2092.9 -834 2096.4 -844 2099.9 -834 2092.9 -834"/><text x="1903.04" y="-814.8" font-family="Times,serif" font-size="14" text-anchor="middle">ACCEPTED_CONCURRENCY</text></g><g id="node37" class="node"><title>n47</title><ellipse cx="3163.88" cy="-867" fill="none" stroke="#000" rx="85.29" ry="18"/><text x="3163.88" y="-863.3" font-family="Times,serif" font-size="14" text-anchor="middle">control_variable</text></g><g id="edge24" class="edge"><title>n57-&gt;n47</title><path fill="none" stroke="#000" d="M1688.38,-617.4C2040.56,-617.4 3104.4,-617.4 3104.4,-617.4 3104.4,-617.4 3104.4,-843.93 3104.4,-843.93"/><polygon fill="#000" stroke="#000" points="3100.9 -843.93 3104.4 -853.93 3107.9 -843.93 3100.9 -843.93"/><text x="2350.14" y="-731.8" font-family="Times,serif" font-size="14" text-anchor="middle">ACCEPTED_CONCURRENCY</text></g><g id="edge22" class="edge"><title>n57-&gt;n30</title><path fill="none" stroke="#000" d="M1667.77,-631.8C1811.17,-631.8 2073.4,-631.8 2073.4,-631.8 2073.4,-631.8 2073.4,-1210.81 2073.4,-1210.81"/><polygon fill="#000" stroke="#000" points="2069.9 -1210.81 2073.4 -1220.81 2076.9 -1210.81 2069.9 -1210.81"/><text x="1903.04" y="-1077.8" font-family="Times,serif" font-size="14" text-anchor="middle">ACCEPTED_CONCURRENCY</text></g><g id="node46" class="node"><title>n37</title><ellipse cx="2105.34" cy="-297" fill="none" stroke="#000" rx="35.19" ry="18"/><text x="2105.34" y="-293.3" font-family="Times,serif" font-size="14" text-anchor="middle">input</text></g><g id="edge23" class="edge"><title>n57-&gt;n37</title><path fill="none" stroke="#000" d="M1667.74,-610.2C1811.88,-610.2 2076.4,-610.2 2076.4,-610.2 2076.4,-610.2 2076.4,-317.42 2076.4,-317.42"/><polygon fill="#000" stroke="#000" points="2079.9 -317.42 2076.4 -307.42 2072.9 -317.42 2079.9 -317.42"/><text x="1903.04" y="-701.8" font-family="Times,serif" font-size="14" text-anchor="middle">ACCEPTED_CONCURRENCY</text></g><g id="node25" class="node"><title>n58</title><ellipse cx="1576.66" cy="-567" fill="none" stroke="#000" rx="114.28" ry="18"/><text x="1576.66" y="-563.3" font-family="Times,serif" font-size="14" text-anchor="middle">incoming_concurrency</text></g><g id="edge25" class="edge"><title>n58-&gt;n12</title><path fill="none" stroke="#000" d="M1674.4,-557.49C1674.4,-532 1674.4,-464 1674.4,-464 1674.4,-464 2068.06,-464 2068.06,-464"/><polygon fill="#000" stroke="#000" points="2068.06 -467.5 2078.06 -464 2068.06 -460.5 2068.06 -467.5"/><text x="1903.04" y="-519.8" font-family="Times,serif" font-size="14" text-anchor="middle">INCOMING_CONCURRENCY</text></g><g id="node26" class="node"><title>n62</title><ellipse cx="2105.34" cy="-2042" fill="none" stroke="#000" rx="27" ry="18"/><text x="2105.34" y="-2038.3" font-family="Times,serif" font-size="14" text-anchor="middle">lhs</text></g><g id="node27" class="node"><title>n64</title><ellipse cx="2626.14" cy="-1988" fill="none" stroke="#000" rx="41.69" ry="18"/><text x="2626.14" y="-1984.3" font-family="Times,serif" font-size="14" text-anchor="middle">output</text></g><g id="node52" class="node"><title>n69</title><ellipse cx="3163.88" cy="-1507" fill="none" stroke="#000" rx="40.89" ry="18"/><text x="3163.88" y="-1503.3" font-family="Times,serif" font-size="14" text-anchor="middle">switch</text></g><g id="edge41" class="edge"><title>n64-&gt;n69</title><path fill="none" stroke="#000" d="M2667.93,-1988C2794.39,-1988 3164.4,-1988 3164.4,-1988 3164.4,-1988 3164.4,-1535.27 3164.4,-1535.27"/><polygon fill="#000" stroke="#000" points="3167.9 -1535.27 3164.4 -1525.27 3160.9 -1535.27 3167.9 -1535.27"/><text x="2873.23" y="-1833.8" font-family="Times,serif" font-size="14" text-anchor="middle">IS_OVERLOAD</text></g><g id="node29" class="node"><title>n43</title><ellipse cx="798.43" cy="-1500" fill="none" stroke="#000" rx="35.19" ry="18"/><text x="798.43" y="-1496.3" font-family="Times,serif" font-size="14" text-anchor="middle">input</text></g><g id="node31" class="node"><title>n44</title><ellipse cx="1051.67" cy="-1500" fill="none" stroke="#000" rx="41.69" ry="18"/><text x="1051.67" y="-1496.3" font-family="Times,serif" font-size="14" text-anchor="middle">output</text></g><g id="edge37" class="edge"><title>n44-&gt;n7</title><path fill="none" stroke="#000" d="M1088.4,-1508.64C1088.4,-1571.27 1088.4,-1953 1088.4,-1953 1088.4,-1953 1270.86,-1953 1270.86,-1953"/><polygon fill="#000" stroke="#000" points="1270.86 -1956.5 1280.86 -1953 1270.86 -1949.5 1270.86 -1956.5"/><text x="1207.27" y="-1729.8" font-family="Times,serif" font-size="14" text-anchor="middle">LATENCY_EMA</text></g><g id="node33" class="node"><title>n54</title><ellipse cx="3631.62" cy="-544" fill="none" stroke="#000" rx="41.69" ry="18"/><text x="3631.62" y="-540.3" font-family="Times,serif" font-size="14" text-anchor="middle">output</text></g><g id="edge26" class="edge"><title>n54-&gt;n60</title><path fill="none" stroke="#000" d="M3632.4,-525.83C3632.4,-479.02 3632.4,-358 3632.4,-358 3632.4,-358 1667.56,-358 1667.56,-358"/><polygon fill="#000" stroke="#000" points="1667.56 -354.5 1657.56 -358 1667.56 -361.5 1667.56 -354.5"/><text x="2626.14" y="-680.8" font-family="Times,serif" font-size="14" text-anchor="middle">LOAD_MULTIPLIER</text></g><g id="node34" class="node"><title>n34</title><ellipse cx="1576.66" cy="-1786" fill="none" stroke="#000" rx="31.4" ry="18"/><text x="1576.66" y="-1782.3" font-family="Times,serif" font-size="14" text-anchor="middle">0.00</text></g><g id="node35" class="node"><title>n33</title><ellipse cx="2105.34" cy="-1786" fill="none" stroke="#000" rx="40.09" ry="18"/><text x="2105.34" y="-1782.3" font-family="Times,serif" font-size="14" text-anchor="middle">inputs</text></g><g id="edge14" class="edge"><title>n34-&gt;n33</title><path fill="none" stroke="#000" d="M1608.14,-1786C1608.14,-1786 2054.86,-1786 2054.86,-1786"/><polygon fill="#000" stroke="#000" points="2054.86 -1789.5 2064.86 -1786 2054.86 -1782.5 2054.86 -1789.5"/></g><g id="node36" class="node"><title>n35</title><ellipse cx="2626.14" cy="-1786" fill="none" stroke="#000" rx="41.69" ry="18"/><text x="2626.14" y="-1782.3" font-family="Times,serif" font-size="14" text-anchor="middle">output</text></g><g id="node49" class="node"><title>n68</title><ellipse cx="3163.88" cy="-1453" fill="none" stroke="#000" rx="48.19" ry="18"/><text x="3163.88" y="-1449.3" font-family="Times,serif" font-size="14" text-anchor="middle">on_false</text></g><g id="edge31" class="edge"><title>n35-&gt;n68</title><path fill="none" stroke="#000" d="M2667.77,-1786C2786.69,-1786 3119.4,-1786 3119.4,-1786 3119.4,-1786 3119.4,-1469.96 3119.4,-1469.96"/><polygon fill="#000" stroke="#000" points="3122.9 -1469.96 3119.4 -1459.96 3115.9 -1469.96 3122.9 -1469.96"/><text x="2873.23" y="-1543.8" font-family="Times,serif" font-size="14" text-anchor="middle">CONCURRENCY_INCREMENT_NORMAL</text></g><g id="node39" class="node"><title>n50</title><ellipse cx="3163.88" cy="-975" fill="none" stroke="#000" rx="50.89" ry="18"/><text x="3163.88" y="-971.3" font-family="Times,serif" font-size="14" text-anchor="middle">optimize</text></g><g id="node40" class="node"><title>n51</title><ellipse cx="3631.62" cy="-909" fill="none" stroke="#000" rx="41.69" ry="18"/><text x="3631.62" y="-905.3" font-family="Times,serif" font-size="14" text-anchor="middle">output</text></g><g id="edge40" class="edge"><title>n51-&gt;n13</title><path fill="none" stroke="#000" d="M3632.4,-890.7C3632.4,-847.16 3632.4,-741 3632.4,-741 3632.4,-741 2114.4,-741 2114.4,-741 2114.4,-741 2114.4,-545.13 2114.4,-545.13"/><polygon fill="#000" stroke="#000" points="2117.9 -545.13 2114.4 -535.13 2110.9 -545.13 2117.9 -545.13"/><text x="2873.23" y="-639.8" font-family="Times,serif" font-size="14" text-anchor="middle">DESIRED_CONCURRENCY</text></g><g id="node42" class="node"><title>n48</title><ellipse cx="3163.88" cy="-1029" fill="none" stroke="#000" rx="38.19" ry="18"/><text x="3163.88" y="-1025.3" font-family="Times,serif" font-size="14" text-anchor="middle">signal</text></g><g id="node44" class="node"><title>n31</title><ellipse cx="2626.14" cy="-1232" fill="none" stroke="#000" rx="41.69" ry="18"/><text x="2626.14" y="-1228.3" font-family="Times,serif" font-size="14" text-anchor="middle">output</text></g><g id="edge39" class="edge"><title>n31-&gt;n33</title><path fill="none" stroke="#000" d="M2586.82,-1238C2513.98,-1238 2365.4,-1238 2365.4,-1238 2365.4,-1238 2365.4,-1780 2365.4,-1780 2365.4,-1780 2153.44,-1780 2153.44,-1780"/><polygon fill="#000" stroke="#000" points="2153.44 -1776.5 2143.44 -1780 2153.44 -1783.5 2153.44 -1776.5"/><text x="2350.14" y="-1731.8" font-family="Times,serif" font-size="14" text-anchor="middle">CONCURRENCY_INCREMENT_INTEGRAL_CAPPED</text></g><g id="node45" class="node"><title>n40</title><ellipse cx="99.6" cy="-1485" fill="none" stroke="#000" rx="41.69" ry="18"/><text x="99.6" y="-1481.3" font-family="Times,serif" font-size="14" text-anchor="middle">output</text></g><g id="edge33" class="edge"><title>n40-&gt;n4</title><path fill="none" stroke="#000" d="M138.4,-1478.38C138.4,-1443.85 138.4,-1286 138.4,-1286 138.4,-1286 277.11,-1286 277.11,-1286"/><polygon fill="#000" stroke="#000" points="277.11 -1289.5 287.11 -1286 277.11 -1282.5 277.11 -1289.5"/><text x="234.19" y="-1473.8" font-family="Times,serif" font-size="14" text-anchor="middle">LATENCY</text></g><g id="edge36" class="edge"><title>n40-&gt;n62</title><path fill="none" stroke="#000" d="M100.4,-1503.23C100.4,-1599.31 100.4,-2042.5 100.4,-2042.5 100.4,-2042.5 2068.14,-2042.5 2068.14,-2042.5"/><polygon fill="#000" stroke="#000" points="2068.14 -2046 2078.14 -2042.5 2068.14 -2039 2068.14 -2046"/><text x="927.47" y="-2161.8" font-family="Times,serif" font-size="14" text-anchor="middle">LATENCY</text></g><g id="edge34" class="edge"><title>n40-&gt;n43</title><path fill="none" stroke="#000" d="M137.66,-1492.5C137.66,-1492.5 756.5,-1492.5 756.5,-1492.5"/><polygon fill="#000" stroke="#000" points="756.5 -1496 766.5 -1492.5 756.5 -1489 756.5 -1496"/><text x="394.19" y="-1503.8" font-family="Times,serif" font-size="14" text-anchor="middle">LATENCY</text></g><g id="edge35" class="edge"><title>n40-&gt;n48</title><path fill="none" stroke="#000" d="M134.4,-1475.05C134.4,-1408.37 134.4,-1029 134.4,-1029 134.4,-1029 3115.3,-1029 3115.3,-1029"/><polygon fill="#000" stroke="#000" points="3115.3 -1032.5 3125.3 -1029 3115.3 -1025.5 3115.3 -1032.5"/><text x="1207.27" y="-1107.8" font-family="Times,serif" font-size="14" text-anchor="middle">LATENCY</text></g><g id="node47" class="node"><title>n38</title><ellipse cx="2626.14" cy="-297" fill="none" stroke="#000" rx="41.69" ry="18"/><text x="2626.14" y="-293.3" font-family="Times,serif" font-size="14" text-anchor="middle">output</text></g><g id="edge32" class="edge"><title>n38-&gt;n21</title><path fill="none" stroke="#000" d="M2663.4,-288.95C2663.4,-255.59 2663.4,-130 2663.4,-130 2663.4,-130 3126.61,-130 3126.61,-130"/><polygon fill="#000" stroke="#000" points="3126.61 -133.5 3136.61 -130 3126.61 -126.5 3126.61 -133.5"/><text x="2873.23" y="-216.8" font-family="Times,serif" font-size="14" text-anchor="middle">SQRT_CONCURRENCY_INCREMENT</text></g><g id="node48" class="node"><title>n67</title><ellipse cx="2626.14" cy="-1399" fill="none" stroke="#000" rx="31.4" ry="18"/><text x="2626.14" y="-1395.3" font-family="Times,serif" font-size="14" text-anchor="middle">0.00</text></g><g id="node50" class="node"><title>n66</title><ellipse cx="3163.88" cy="-1399" fill="none" stroke="#000" rx="46.29" ry="18"/><text x="3163.88" y="-1395.3" font-family="Times,serif" font-size="14" text-anchor="middle">on_true</text></g><g id="edge19" class="edge"><title>n67-&gt;n66</title><path fill="none" stroke="#000" d="M2657.37,-1399C2657.37,-1399 3107.46,-1399 3107.46,-1399"/><polygon fill="#000" stroke="#000" points="3107.46 -1402.5 3117.46 -1399 3107.46 -1395.5 3107.46 -1402.5"/></g><g id="node51" class="node"><title>n70</title><ellipse cx="3631.62" cy="-1453" fill="none" stroke="#000" rx="41.69" ry="18"/><text x="3631.62" y="-1449.3" font-family="Times,serif" font-size="14" text-anchor="middle">output</text></g><g id="edge42" class="edge"><title>n70-&gt;n27</title><path fill="none" stroke="#000" d="M3673.56,-1453C3673.56,-1453 4107.16,-1453 4107.16,-1453"/><polygon fill="#000" stroke="#000" points="4107.16 -1456.5 4117.16 -1453 4107.16 -1449.5 4107.16 -1456.5"/><text x="3895.21" y="-1456.8" font-family="Times,serif" font-size="14" text-anchor="middle">CONCURRENCY_INCREMENT</text></g><g id="edge43" class="edge"><title>n70-&gt;n50</title><path fill="none" stroke="#000" d="M3632.4,-1434.85C3632.4,-1347.53 3632.4,-975 3632.4,-975 3632.4,-975 3224.91,-975 3224.91,-975"/><polygon fill="#000" stroke="#000" points="3224.91 -971.5 3214.91 -975 3224.91 -978.5 3224.91 -971.5"/><text x="3419.52" y="-1000.8" font-family="Times,serif" font-size="14" text-anchor="middle">CONCURRENCY_INCREMENT</text></g></g></svg>