<?xml version="1.0" encoding="UTF-8" standalone="no"?>
<!DOCTYPE svg PUBLIC "-//W3C//DTD SVG 1.1//EN"
 "http://www.w3.org/Graphics/SVG/1.1/DTD/svg11.dtd">
<!-- Generated by graphviz version 7.1.0 (20230121.1956)
 -->
<!-- Pages: 1 -->
<svg width="3717pt" height="1676pt"
 viewBox="0.00 0.00 3717.10 1676.00" xmlns="http://www.w3.org/2000/svg" xmlns:xlink="http://www.w3.org/1999/xlink">
<g id="graph0" class="graph" transform="scale(1 1) rotate(0) translate(4 1672)">
<polygon fill="white" stroke="none" points="-4,4 -4,-1672 3713.1,-1672 3713.1,4 -4,4"/>
<g id="clust1" class="cluster">
<title>cluster_s1</title>
<polygon fill="none" stroke="black" points="18.4,-341 18.4,-554 580.39,-554 580.39,-341 18.4,-341"/>
<text text-anchor="middle" x="299.39" y="-538.8" font-family="Times,serif" font-size="14.00">ArithmeticCombinator[0]</text>
</g>
<g id="clust4" class="cluster">
<title>cluster_s6</title>
<polygon fill="none" stroke="black" points="1103.66,-567 1103.66,-780 2150.24,-780 2150.24,-567 1103.66,-567"/>
<text text-anchor="middle" x="1626.95" y="-764.8" font-family="Times,serif" font-size="14.00">ArithmeticCombinator[1]</text>
</g>
<g id="clust7" class="cluster">
<title>cluster_s11</title>
<polygon fill="none" stroke="black" points="1631.35,-1334 1631.35,-1547 2150.24,-1547 2150.24,-1334 1631.35,-1334"/>
<text text-anchor="middle" x="1890.79" y="-1531.8" font-family="Times,serif" font-size="14.00">ArithmeticCombinator[2]</text>
</g>
<g id="clust10" class="cluster">
<title>cluster_s15</title>
<polygon fill="none" stroke="black" points="1103.66,-788 1103.66,-1001 2150.24,-1001 2150.24,-788 1103.66,-788"/>
<text text-anchor="middle" x="1626.95" y="-985.8" font-family="Times,serif" font-size="14.00">ArithmeticCombinator[3]</text>
</g>
<g id="clust13" class="cluster">
<title>cluster_s20</title>
<polygon fill="none" stroke="black" points="1977.45,-8 1977.45,-221 3066.72,-221 3066.72,-8 1977.45,-8"/>
<text text-anchor="middle" x="2522.08" y="-205.8" font-family="Times,serif" font-size="14.00">ArithmeticCombinator[4]</text>
</g>
<g id="clust16" class="cluster">
<title>cluster_s50</title>
<polygon fill="none" stroke="black" points="970.47,-1009 970.47,-1554 1399.25,-1554 1399.25,-1009 970.47,-1009"/>
<text text-anchor="middle" x="1184.86" y="-1538.8" font-family="Times,serif" font-size="14.00">ConcurrencyLimiter[11]</text>
</g>
<g id="clust17" class="cluster">
<title>cluster_s54</title>
<polygon fill="none" stroke="black" points="1054.27,-1322 1054.27,-1481 1315.45,-1481 1315.45,-1322 1054.27,-1322"/>
<text text-anchor="middle" x="1184.86" y="-1465.8" font-family="Times,serif" font-size="14.00">LoadActuator[11.LoadActuator]</text>
</g>
<g id="clust19" class="cluster">
<title>cluster_s51</title>
<polygon fill="none" stroke="black" points="1020.47,-1059 1020.47,-1272 1349.25,-1272 1349.25,-1059 1020.47,-1059"/>
<text text-anchor="middle" x="1184.86" y="-1256.8" font-family="Times,serif" font-size="14.00">Scheduler[11.Scheduler]</text>
</g>
<g id="clust21" class="cluster">
<title>cluster_s56</title>
<polygon fill="none" stroke="black" points="2492.38,-520 2492.38,-733 3066.72,-733 3066.72,-520 2492.38,-520"/>
<text text-anchor="middle" x="2779.55" y="-717.8" font-family="Times,serif" font-size="14.00">Decider[12]</text>
</g>
<g id="clust24" class="cluster">
<title>cluster_s36</title>
<polygon fill="none" stroke="black" points="672.39,-346 672.39,-559 1276.46,-559 1276.46,-346 672.39,-346"/>
<text text-anchor="middle" x="974.42" y="-543.8" font-family="Times,serif" font-size="14.00">EMA[8]</text>
</g>
<g id="clust27" class="cluster">
<title>cluster_s47</title>
<polygon fill="none" stroke="black" points="2484.28,-1467 2484.28,-1626 3066.72,-1626 3066.72,-1467 2484.28,-1467"/>
<text text-anchor="middle" x="2775.5" y="-1610.8" font-family="Times,serif" font-size="14.00">Extrapolator[10]</text>
</g>
<g id="clust30" class="cluster">
<title>cluster_s40</title>
<polygon fill="none" stroke="black" points="2434.24,-872 2434.24,-1247 3066.72,-1247 3066.72,-872 2434.24,-872"/>
<text text-anchor="middle" x="2750.48" y="-1231.8" font-family="Times,serif" font-size="14.00">Gradient[9]</text>
</g>
<g id="clust33" class="cluster">
<title>cluster_s25</title>
<polygon fill="none" stroke="black" points="3410.72,-631 3410.72,-952 3701.1,-952 3701.1,-631 3410.72,-631"/>
<text text-anchor="middle" x="3555.91" y="-936.8" font-family="Times,serif" font-size="14.00">Integrator[5]</text>
</g>
<g id="clust36" class="cluster">
<title>cluster_s34</title>
<polygon fill="none" stroke="black" points="8,-594 8,-753 191.19,-753 191.19,-594 8,-594"/>
<text text-anchor="middle" x="99.6" y="-737.8" font-family="Times,serif" font-size="14.00">PromQL[7]</text>
</g>
<g id="clust38" class="cluster">
<title>cluster_s31</title>
<polygon fill="none" stroke="black" points="1623.25,-1009 1623.25,-1168 2150.24,-1168 2150.24,-1009 1623.25,-1009"/>
<text text-anchor="middle" x="1886.75" y="-1152.8" font-family="Times,serif" font-size="14.00">Sqrt[6]</text>
</g>
<!-- n4 -->
<g id="node1" class="node">
<title>n4</title>
<ellipse fill="none" stroke="black" cx="99.6" cy="-409" rx="31.4" ry="18"/>
<text text-anchor="middle" x="99.6" y="-405.3" font-family="Times,serif" font-size="14.00">2.00</text>
</g>
<!-- n3 -->
<g id="node4" class="node">
<title>n3</title>
<ellipse fill="none" stroke="black" cx="314.19" cy="-409" rx="27" ry="18"/>
<text text-anchor="middle" x="314.19" y="-405.3" font-family="Times,serif" font-size="14.00">rhs</text>
</g>
<!-- n4&#45;&gt;n3 -->
<g id="edge1" class="edge">
<title>n4&#45;&gt;n3</title>
<path fill="none" stroke="black" d="M131.26,-409C131.26,-409 275.31,-409 275.31,-409"/>
<polygon fill="black" stroke="black" points="275.31,-412.5 285.31,-409 275.31,-405.5 275.31,-412.5"/>
</g>
<!-- n2 -->
<g id="node2" class="node">
<title>n2</title>
<ellipse fill="none" stroke="black" cx="314.19" cy="-463" rx="27" ry="18"/>
<text text-anchor="middle" x="314.19" y="-459.3" font-family="Times,serif" font-size="14.00">lhs</text>
</g>
<!-- n5 -->
<g id="node3" class="node">
<title>n5</title>
<ellipse fill="none" stroke="black" cx="488.79" cy="-412" rx="41.69" ry="18"/>
<text text-anchor="middle" x="488.79" y="-408.3" font-family="Times,serif" font-size="14.00">output</text>
</g>
<!-- n38 -->
<g id="node27" class="node">
<title>n38</title>
<ellipse fill="none" stroke="black" cx="798.43" cy="-414" rx="76.09" ry="18"/>
<text text-anchor="middle" x="798.43" y="-410.3" font-family="Times,serif" font-size="14.00">max_envelope</text>
</g>
<!-- n5&#45;&gt;n38 -->
<g id="edge21" class="edge">
<title>n5&#45;&gt;n38</title>
<path fill="none" stroke="black" d="M530.87,-413C530.87,-413 710.67,-413 710.67,-413"/>
<polygon fill="black" stroke="black" points="710.67,-416.5 720.67,-413 710.67,-409.5 710.67,-416.5"/>
<text text-anchor="middle" x="626.39" y="-416.8" font-family="Times,serif" font-size="14.00">MAX_EMA</text>
</g>
<!-- n3&#45;&gt;n5 -->
<!-- n8 -->
<g id="node5" class="node">
<title>n8</title>
<ellipse fill="none" stroke="black" cx="1184.86" cy="-689" rx="31.4" ry="18"/>
<text text-anchor="middle" x="1184.86" y="-685.3" font-family="Times,serif" font-size="14.00">1.10</text>
</g>
<!-- n7 -->
<g id="node8" class="node">
<title>n7</title>
<ellipse fill="none" stroke="black" cx="1708.35" cy="-689" rx="27" ry="18"/>
<text text-anchor="middle" x="1708.35" y="-685.3" font-family="Times,serif" font-size="14.00">rhs</text>
</g>
<!-- n8&#45;&gt;n7 -->
<g id="edge3" class="edge">
<title>n8&#45;&gt;n7</title>
<path fill="none" stroke="black" d="M1216.43,-689C1216.43,-689 1669.41,-689 1669.41,-689"/>
<polygon fill="black" stroke="black" points="1669.41,-692.5 1679.41,-689 1669.41,-685.5 1669.41,-692.5"/>
</g>
<!-- n9 -->
<g id="node6" class="node">
<title>n9</title>
<ellipse fill="none" stroke="black" cx="1708.35" cy="-635" rx="27" ry="18"/>
<text text-anchor="middle" x="1708.35" y="-631.3" font-family="Times,serif" font-size="14.00">lhs</text>
</g>
<!-- n10 -->
<g id="node7" class="node">
<title>n10</title>
<ellipse fill="none" stroke="black" cx="2058.64" cy="-642" rx="41.69" ry="18"/>
<text text-anchor="middle" x="2058.64" y="-638.3" font-family="Times,serif" font-size="14.00">output</text>
</g>
<!-- n9&#45;&gt;n10 -->
<!-- n57 -->
<g id="node25" class="node">
<title>n57</title>
<ellipse fill="none" stroke="black" cx="2569.38" cy="-642" rx="27" ry="18"/>
<text text-anchor="middle" x="2569.38" y="-638.3" font-family="Times,serif" font-size="14.00">rhs</text>
</g>
<!-- n10&#45;&gt;n57 -->
<g id="edge26" class="edge">
<title>n10&#45;&gt;n57</title>
<path fill="none" stroke="black" d="M2098.29,-636C2098.29,-636 2532.09,-636 2532.09,-636"/>
<polygon fill="black" stroke="black" points="2532.09,-639.5 2542.09,-636 2532.09,-632.5 2532.09,-639.5"/>
<text text-anchor="middle" x="2292.24" y="-645.8" font-family="Times,serif" font-size="14.00">LATENCY_SETPOINT</text>
</g>
<!-- n44 -->
<g id="node35" class="node">
<title>n44</title>
<ellipse fill="none" stroke="black" cx="2569.38" cy="-940" rx="48.99" ry="18"/>
<text text-anchor="middle" x="2569.38" y="-936.3" font-family="Times,serif" font-size="14.00">setpoint</text>
</g>
<!-- n10&#45;&gt;n44 -->
<g id="edge25" class="edge">
<title>n10&#45;&gt;n44</title>
<path fill="none" stroke="black" d="M2098.2,-648C2211.99,-648 2532.1,-648 2532.1,-648 2532.1,-648 2532.1,-916.68 2532.1,-916.68"/>
<polygon fill="black" stroke="black" points="2528.6,-916.68 2532.1,-926.68 2535.6,-916.68 2528.6,-916.68"/>
<text text-anchor="middle" x="2292.24" y="-891.8" font-family="Times,serif" font-size="14.00">LATENCY_SETPOINT</text>
</g>
<!-- n12 -->
<g id="node9" class="node">
<title>n12</title>
<ellipse fill="none" stroke="black" cx="1708.35" cy="-1402" rx="27" ry="18"/>
<text text-anchor="middle" x="1708.35" y="-1398.3" font-family="Times,serif" font-size="14.00">lhs</text>
</g>
<!-- n14 -->
<g id="node10" class="node">
<title>n14</title>
<ellipse fill="none" stroke="black" cx="2058.64" cy="-1456" rx="41.69" ry="18"/>
<text text-anchor="middle" x="2058.64" y="-1452.3" font-family="Times,serif" font-size="14.00">output</text>
</g>
<!-- n48 -->
<g id="node29" class="node">
<title>n48</title>
<ellipse fill="none" stroke="black" cx="2569.38" cy="-1535" rx="35.19" ry="18"/>
<text text-anchor="middle" x="2569.38" y="-1531.3" font-family="Times,serif" font-size="14.00">input</text>
</g>
<!-- n14&#45;&gt;n48 -->
<g id="edge27" class="edge">
<title>n14&#45;&gt;n48</title>
<path fill="none" stroke="black" d="M2100.5,-1456C2222.65,-1456 2570.1,-1456 2570.1,-1456 2570.1,-1456 2570.1,-1505.16 2570.1,-1505.16"/>
<polygon fill="black" stroke="black" points="2566.6,-1505.16 2570.1,-1515.16 2573.6,-1505.16 2566.6,-1505.16"/>
<text text-anchor="middle" x="2292.24" y="-1498.8" font-family="Times,serif" font-size="14.00">DESIRED_CONCURRENCY_RATIO</text>
</g>
<!-- n13 -->
<g id="node11" class="node">
<title>n13</title>
<ellipse fill="none" stroke="black" cx="1708.35" cy="-1456" rx="27" ry="18"/>
<text text-anchor="middle" x="1708.35" y="-1452.3" font-family="Times,serif" font-size="14.00">rhs</text>
</g>
<!-- n13&#45;&gt;n14 -->
<!-- n17 -->
<g id="node12" class="node">
<title>n17</title>
<ellipse fill="none" stroke="black" cx="1184.86" cy="-856" rx="31.4" ry="18"/>
<text text-anchor="middle" x="1184.86" y="-852.3" font-family="Times,serif" font-size="14.00">2.00</text>
</g>
<!-- n16 -->
<g id="node13" class="node">
<title>n16</title>
<ellipse fill="none" stroke="black" cx="1708.35" cy="-856" rx="27" ry="18"/>
<text text-anchor="middle" x="1708.35" y="-852.3" font-family="Times,serif" font-size="14.00">lhs</text>
</g>
<!-- n17&#45;&gt;n16 -->
<g id="edge6" class="edge">
<title>n17&#45;&gt;n16</title>
<path fill="none" stroke="black" d="M1216.43,-856C1216.43,-856 1669.41,-856 1669.41,-856"/>
<polygon fill="black" stroke="black" points="1669.41,-859.5 1679.41,-856 1669.41,-852.5 1669.41,-859.5"/>
</g>
<!-- n19 -->
<g id="node14" class="node">
<title>n19</title>
<ellipse fill="none" stroke="black" cx="2058.64" cy="-910" rx="41.69" ry="18"/>
<text text-anchor="middle" x="2058.64" y="-906.3" font-family="Times,serif" font-size="14.00">output</text>
</g>
<!-- n41 -->
<g id="node32" class="node">
<title>n41</title>
<ellipse fill="none" stroke="black" cx="2569.38" cy="-994" rx="30.59" ry="18"/>
<text text-anchor="middle" x="2569.38" y="-990.3" font-family="Times,serif" font-size="14.00">max</text>
</g>
<!-- n19&#45;&gt;n41 -->
<g id="edge23" class="edge">
<title>n19&#45;&gt;n41</title>
<path fill="none" stroke="black" d="M2059.1,-928.23C2059.1,-952.93 2059.1,-994 2059.1,-994 2059.1,-994 2527.1,-994 2527.1,-994"/>
<polygon fill="black" stroke="black" points="2527.1,-997.5 2537.1,-994 2527.1,-990.5 2527.1,-997.5"/>
<text text-anchor="middle" x="2292.24" y="-945.8" font-family="Times,serif" font-size="14.00">NORMAL_CONCURRENCY_LIMIT</text>
</g>
<!-- n26 -->
<g id="node38" class="node">
<title>n26</title>
<ellipse fill="none" stroke="black" cx="3495.81" cy="-807" rx="30.59" ry="18"/>
<text text-anchor="middle" x="3495.81" y="-803.3" font-family="Times,serif" font-size="14.00">max</text>
</g>
<!-- n19&#45;&gt;n26 -->
<g id="edge22" class="edge">
<title>n19&#45;&gt;n26</title>
<path fill="none" stroke="black" d="M2059.1,-891.59C2059.1,-861.96 2059.1,-807 2059.1,-807 2059.1,-807 3453.29,-807 3453.29,-807"/>
<polygon fill="black" stroke="black" points="3453.29,-810.5 3463.29,-807 3453.29,-803.5 3453.29,-810.5"/>
<text text-anchor="middle" x="2794.02" y="-810.8" font-family="Times,serif" font-size="14.00">NORMAL_CONCURRENCY_LIMIT</text>
</g>
<!-- n18 -->
<g id="node15" class="node">
<title>n18</title>
<ellipse fill="none" stroke="black" cx="1708.35" cy="-910" rx="27" ry="18"/>
<text text-anchor="middle" x="1708.35" y="-906.3" font-family="Times,serif" font-size="14.00">rhs</text>
</g>
<!-- n18&#45;&gt;n19 -->
<!-- n22 -->
<g id="node16" class="node">
<title>n22</title>
<ellipse fill="none" stroke="black" cx="2058.64" cy="-76" rx="31.4" ry="18"/>
<text text-anchor="middle" x="2058.64" y="-72.3" font-family="Times,serif" font-size="14.00">5.00</text>
</g>
<!-- n21 -->
<g id="node17" class="node">
<title>n21</title>
<ellipse fill="none" stroke="black" cx="2569.38" cy="-76" rx="27" ry="18"/>
<text text-anchor="middle" x="2569.38" y="-72.3" font-family="Times,serif" font-size="14.00">lhs</text>
</g>
<!-- n22&#45;&gt;n21 -->
<g id="edge8" class="edge">
<title>n22&#45;&gt;n21</title>
<path fill="none" stroke="black" d="M2090.21,-76C2090.21,-76 2530.62,-76 2530.62,-76"/>
<polygon fill="black" stroke="black" points="2530.62,-79.5 2540.62,-76 2530.62,-72.5 2530.62,-79.5"/>
</g>
<!-- n24 -->
<g id="node18" class="node">
<title>n24</title>
<ellipse fill="none" stroke="black" cx="2975.12" cy="-130" rx="41.69" ry="18"/>
<text text-anchor="middle" x="2975.12" y="-126.3" font-family="Times,serif" font-size="14.00">output</text>
</g>
<!-- n27 -->
<g id="node37" class="node">
<title>n27</title>
<ellipse fill="none" stroke="black" cx="3495.81" cy="-699" rx="35.19" ry="18"/>
<text text-anchor="middle" x="3495.81" y="-695.3" font-family="Times,serif" font-size="14.00">input</text>
</g>
<!-- n24&#45;&gt;n27 -->
<g id="edge30" class="edge">
<title>n24&#45;&gt;n27</title>
<path fill="none" stroke="black" d="M3017.31,-130C3141.34,-130 3496.1,-130 3496.1,-130 3496.1,-130 3496.1,-669.2 3496.1,-669.2"/>
<polygon fill="black" stroke="black" points="3492.6,-669.2 3496.1,-679.2 3499.6,-669.2 3492.6,-669.2"/>
<text text-anchor="middle" x="3238.72" y="-356.8" font-family="Times,serif" font-size="14.00">CONCURRENCY_INCREMENT_SINGLE_TICK</text>
</g>
<!-- n23 -->
<g id="node19" class="node">
<title>n23</title>
<ellipse fill="none" stroke="black" cx="2569.38" cy="-130" rx="27" ry="18"/>
<text text-anchor="middle" x="2569.38" y="-126.3" font-family="Times,serif" font-size="14.00">rhs</text>
</g>
<!-- n23&#45;&gt;n24 -->
<!-- n55 -->
<g id="node20" class="node">
<title>n55</title>
<ellipse fill="none" stroke="black" cx="1184.86" cy="-1390" rx="80.69" ry="18"/>
<text text-anchor="middle" x="1184.86" y="-1386.3" font-family="Times,serif" font-size="14.00">load_multiplier</text>
</g>
<!-- n52 -->
<g id="node21" class="node">
<title>n52</title>
<ellipse fill="none" stroke="black" cx="1184.86" cy="-1127" rx="113.98" ry="18"/>
<text text-anchor="middle" x="1184.86" y="-1123.3" font-family="Times,serif" font-size="14.00">accepted_concurrency</text>
</g>
<!-- n52&#45;&gt;n18 -->
<g id="edge16" class="edge">
<title>n52&#45;&gt;n18</title>
<path fill="none" stroke="black" d="M1263.1,-1113.75C1263.1,-1066.64 1263.1,-910 1263.1,-910 1263.1,-910 1669.65,-910 1669.65,-910"/>
<polygon fill="black" stroke="black" points="1669.65,-913.5 1679.65,-910 1669.65,-906.5 1669.65,-913.5"/>
<text text-anchor="middle" x="1511.25" y="-977.8" font-family="Times,serif" font-size="14.00">ACCEPTED_CONCURRENCY</text>
</g>
<!-- n42 -->
<g id="node31" class="node">
<title>n42</title>
<ellipse fill="none" stroke="black" cx="2569.38" cy="-1102" rx="85.29" ry="18"/>
<text text-anchor="middle" x="2569.38" y="-1098.3" font-family="Times,serif" font-size="14.00">control_variable</text>
</g>
<!-- n52&#45;&gt;n42 -->
<g id="edge19" class="edge">
<title>n52&#45;&gt;n42</title>
<path fill="none" stroke="black" d="M1278.39,-1116.33C1278.39,-1116.33 2503.96,-1116.33 2503.96,-1116.33"/>
<polygon fill="black" stroke="black" points="2503.96,-1119.83 2513.96,-1116.33 2503.96,-1112.83 2503.96,-1119.83"/>
<text text-anchor="middle" x="1865.45" y="-1239.8" font-family="Times,serif" font-size="14.00">ACCEPTED_CONCURRENCY</text>
</g>
<!-- n29 -->
<g id="node39" class="node">
<title>n29</title>
<ellipse fill="none" stroke="black" cx="3495.81" cy="-861" rx="28.7" ry="18"/>
<text text-anchor="middle" x="3495.81" y="-857.3" font-family="Times,serif" font-size="14.00">min</text>
</g>
<!-- n52&#45;&gt;n29 -->
<g id="edge17" class="edge">
<title>n52&#45;&gt;n29</title>
<path fill="none" stroke="black" d="M1298.29,-1129C1762.91,-1129 3496.1,-1129 3496.1,-1129 3496.1,-1129 3496.1,-890.93 3496.1,-890.93"/>
<polygon fill="black" stroke="black" points="3499.6,-890.93 3496.1,-880.93 3492.6,-890.93 3499.6,-890.93"/>
<text text-anchor="middle" x="2292.24" y="-1310.8" font-family="Times,serif" font-size="14.00">ACCEPTED_CONCURRENCY</text>
</g>
<!-- n32 -->
<g id="node43" class="node">
<title>n32</title>
<ellipse fill="none" stroke="black" cx="1708.35" cy="-1077" rx="35.19" ry="18"/>
<text text-anchor="middle" x="1708.35" y="-1073.3" font-family="Times,serif" font-size="14.00">input</text>
</g>
<!-- n52&#45;&gt;n32 -->
<g id="edge18" class="edge">
<title>n52&#45;&gt;n32</title>
<path fill="none" stroke="black" d="M1257.11,-1112.67C1394.11,-1112.67 1678.1,-1112.67 1678.1,-1112.67 1678.1,-1112.67 1678.1,-1098.26 1678.1,-1098.26"/>
<polygon fill="black" stroke="black" points="1681.6,-1098.26 1678.1,-1088.26 1674.6,-1098.26 1681.6,-1098.26"/>
<text text-anchor="middle" x="1511.25" y="-1105.8" font-family="Times,serif" font-size="14.00">ACCEPTED_CONCURRENCY</text>
</g>
<!-- n53 -->
<g id="node22" class="node">
<title>n53</title>
<ellipse fill="none" stroke="black" cx="1184.86" cy="-1181" rx="114.28" ry="18"/>
<text text-anchor="middle" x="1184.86" y="-1177.3" font-family="Times,serif" font-size="14.00">incoming_concurrency</text>
</g>
<!-- n53&#45;&gt;n13 -->
<g id="edge20" class="edge">
<title>n53&#45;&gt;n13</title>
<path fill="none" stroke="black" d="M1283.1,-1190.47C1283.1,-1238.82 1283.1,-1456 1283.1,-1456 1283.1,-1456 1669.59,-1456 1669.59,-1456"/>
<polygon fill="black" stroke="black" points="1669.59,-1459.5 1679.59,-1456 1669.59,-1452.5 1669.59,-1459.5"/>
<text text-anchor="middle" x="1511.25" y="-1384.8" font-family="Times,serif" font-size="14.00">INCOMING_CONCURRENCY</text>
</g>
<!-- n58 -->
<g id="node23" class="node">
<title>n58</title>
<ellipse fill="none" stroke="black" cx="2569.38" cy="-588" rx="27" ry="18"/>
<text text-anchor="middle" x="2569.38" y="-584.3" font-family="Times,serif" font-size="14.00">lhs</text>
</g>
<!-- n59 -->
<g id="node24" class="node">
<title>n59</title>
<ellipse fill="none" stroke="black" cx="2975.12" cy="-615" rx="41.69" ry="18"/>
<text text-anchor="middle" x="2975.12" y="-611.3" font-family="Times,serif" font-size="14.00">output</text>
</g>
<!-- n58&#45;&gt;n59 -->
<!-- n28 -->
<g id="node41" class="node">
<title>n28</title>
<ellipse fill="none" stroke="black" cx="3495.81" cy="-753" rx="34.39" ry="18"/>
<text text-anchor="middle" x="3495.81" y="-749.3" font-family="Times,serif" font-size="14.00">reset</text>
</g>
<!-- n59&#45;&gt;n28 -->
<g id="edge32" class="edge">
<title>n59&#45;&gt;n28</title>
<path fill="none" stroke="black" d="M2962.1,-632.48C2962.1,-669.61 2962.1,-753 2962.1,-753 2962.1,-753 3449.69,-753 3449.69,-753"/>
<polygon fill="black" stroke="black" points="3449.69,-756.5 3459.69,-753 3449.69,-749.5 3449.69,-756.5"/>
<text text-anchor="middle" x="3238.72" y="-687.8" font-family="Times,serif" font-size="14.00">IS_OVERLOAD</text>
</g>
<!-- n37 -->
<g id="node26" class="node">
<title>n37</title>
<ellipse fill="none" stroke="black" cx="798.43" cy="-468" rx="35.19" ry="18"/>
<text text-anchor="middle" x="798.43" y="-464.3" font-family="Times,serif" font-size="14.00">input</text>
</g>
<!-- n39 -->
<g id="node28" class="node">
<title>n39</title>
<ellipse fill="none" stroke="black" cx="1184.86" cy="-454" rx="41.69" ry="18"/>
<text text-anchor="middle" x="1184.86" y="-450.3" font-family="Times,serif" font-size="14.00">output</text>
</g>
<!-- n38&#45;&gt;n39 -->
<!-- n39&#45;&gt;n9 -->
<g id="edge28" class="edge">
<title>n39&#45;&gt;n9</title>
<path fill="none" stroke="black" d="M1222.1,-462.51C1222.1,-497.77 1222.1,-630.5 1222.1,-630.5 1222.1,-630.5 1670.35,-630.5 1670.35,-630.5"/>
<polygon fill="black" stroke="black" points="1670.35,-634 1680.35,-630.5 1670.35,-627 1670.35,-634"/>
<text text-anchor="middle" x="1511.25" y="-554.8" font-family="Times,serif" font-size="14.00">LATENCY_EMA</text>
</g>
<!-- n49 -->
<g id="node30" class="node">
<title>n49</title>
<ellipse fill="none" stroke="black" cx="2975.12" cy="-1535" rx="41.69" ry="18"/>
<text text-anchor="middle" x="2975.12" y="-1531.3" font-family="Times,serif" font-size="14.00">output</text>
</g>
<!-- n48&#45;&gt;n49 -->
<!-- n49&#45;&gt;n55 -->
<g id="edge29" class="edge">
<title>n49&#45;&gt;n55</title>
<path fill="none" stroke="black" d="M2962.1,-1517.6C2962.1,-1476.72 2962.1,-1378 2962.1,-1378 2962.1,-1378 1258.07,-1378 1258.07,-1378"/>
<polygon fill="black" stroke="black" points="1258.07,-1374.5 1248.07,-1378 1258.07,-1381.5 1258.07,-1374.5"/>
<text text-anchor="middle" x="2058.64" y="-1656.8" font-family="Times,serif" font-size="14.00">LOAD_MULTIPLIER</text>
</g>
<!-- n45 -->
<g id="node33" class="node">
<title>n45</title>
<ellipse fill="none" stroke="black" cx="2569.38" cy="-1048" rx="50.89" ry="18"/>
<text text-anchor="middle" x="2569.38" y="-1044.3" font-family="Times,serif" font-size="14.00">optimize</text>
</g>
<!-- n46 -->
<g id="node34" class="node">
<title>n46</title>
<ellipse fill="none" stroke="black" cx="2975.12" cy="-1102" rx="41.69" ry="18"/>
<text text-anchor="middle" x="2975.12" y="-1098.3" font-family="Times,serif" font-size="14.00">output</text>
</g>
<!-- n45&#45;&gt;n46 -->
<!-- n46&#45;&gt;n12 -->
<g id="edge24" class="edge">
<title>n46&#45;&gt;n12</title>
<path fill="none" stroke="black" d="M2989.1,-1119.43C2989.1,-1183.45 2989.1,-1402 2989.1,-1402 2989.1,-1402 1747.2,-1402 1747.2,-1402"/>
<polygon fill="black" stroke="black" points="1747.2,-1398.5 1737.2,-1402 1747.2,-1405.5 1747.2,-1398.5"/>
<text text-anchor="middle" x="2292.24" y="-1272.8" font-family="Times,serif" font-size="14.00">DESIRED_CONCURRENCY</text>
</g>
<!-- n43 -->
<g id="node36" class="node">
<title>n43</title>
<ellipse fill="none" stroke="black" cx="2569.38" cy="-1156" rx="38.19" ry="18"/>
<text text-anchor="middle" x="2569.38" y="-1152.3" font-family="Times,serif" font-size="14.00">signal</text>
</g>
<!-- n30 -->
<g id="node40" class="node">
<title>n30</title>
<ellipse fill="none" stroke="black" cx="3609.51" cy="-861" rx="41.69" ry="18"/>
<text text-anchor="middle" x="3609.51" y="-857.3" font-family="Times,serif" font-size="14.00">output</text>
</g>
<!-- n29&#45;&gt;n30 -->
<!-- n30&#45;&gt;n45 -->
<g id="edge31" class="edge">
<title>n30&#45;&gt;n45</title>
<path fill="none" stroke="black" d="M3610.1,-879.35C3610.1,-925.37 3610.1,-1042 3610.1,-1042 3610.1,-1042 2629.35,-1042 2629.35,-1042"/>
<polygon fill="black" stroke="black" points="2629.35,-1038.5 2619.35,-1042 2629.35,-1045.5 2629.35,-1038.5"/>
<text text-anchor="middle" x="3238.72" y="-980.8" font-family="Times,serif" font-size="14.00">CONCURRENCY_INCREMENT</text>
</g>
<!-- n35 -->
<g id="node42" class="node">
<title>n35</title>
<ellipse fill="none" stroke="black" cx="99.6" cy="-662" rx="41.69" ry="18"/>
<text text-anchor="middle" x="99.6" y="-658.3" font-family="Times,serif" font-size="14.00">output</text>
</g>
<!-- n35&#45;&gt;n2 -->
<g id="edge34" class="edge">
<title>n35&#45;&gt;n2</title>
<path fill="none" stroke="black" d="M135.1,-652.13C135.1,-611.98 135.1,-463 135.1,-463 135.1,-463 275.48,-463 275.48,-463"/>
<polygon fill="black" stroke="black" points="275.48,-466.5 285.48,-463 275.48,-459.5 275.48,-466.5"/>
<text text-anchor="middle" x="234.19" y="-650.8" font-family="Times,serif" font-size="14.00">LATENCY</text>
</g>
<!-- n35&#45;&gt;n58 -->
<g id="edge37" class="edge">
<title>n35&#45;&gt;n58</title>
<path fill="none" stroke="black" d="M138.1,-654.63C138.1,-635.92 138.1,-588 138.1,-588 138.1,-588 2530.56,-588 2530.56,-588"/>
<polygon fill="black" stroke="black" points="2530.56,-591.5 2540.56,-588 2530.56,-584.5 2530.56,-591.5"/>
<text text-anchor="middle" x="927.47" y="-284.8" font-family="Times,serif" font-size="14.00">LATENCY</text>
</g>
<!-- n35&#45;&gt;n37 -->
<g id="edge35" class="edge">
<title>n35&#45;&gt;n37</title>
<path fill="none" stroke="black" d="M128.32,-648.5C259.95,-648.5 799.1,-648.5 799.1,-648.5 799.1,-648.5 799.1,-497.81 799.1,-497.81"/>
<polygon fill="black" stroke="black" points="802.6,-497.81 799.1,-487.81 795.6,-497.81 802.6,-497.81"/>
<text text-anchor="middle" x="394.19" y="-680.8" font-family="Times,serif" font-size="14.00">LATENCY</text>
</g>
<!-- n35&#45;&gt;n43 -->
<g id="edge36" class="edge">
<title>n35&#45;&gt;n43</title>
<path fill="none" stroke="black" d="M100.1,-680.39C100.1,-769.71 100.1,-1154 100.1,-1154 100.1,-1154 2519.58,-1154 2519.58,-1154"/>
<polygon fill="black" stroke="black" points="2519.58,-1157.5 2529.58,-1154 2519.58,-1150.5 2519.58,-1157.5"/>
<text text-anchor="middle" x="927.47" y="-1617.8" font-family="Times,serif" font-size="14.00">LATENCY</text>
</g>
<!-- n33 -->
<g id="node44" class="node">
<title>n33</title>
<ellipse fill="none" stroke="black" cx="2058.64" cy="-1077" rx="41.69" ry="18"/>
<text text-anchor="middle" x="2058.64" y="-1073.3" font-family="Times,serif" font-size="14.00">output</text>
</g>
<!-- n32&#45;&gt;n33 -->
<!-- n33&#45;&gt;n23 -->
<g id="edge33" class="edge">
<title>n33&#45;&gt;n23</title>
<path fill="none" stroke="black" d="M2084.63,-1062.5C2145.67,-1062.5 2293.1,-1062.5 2293.1,-1062.5 2293.1,-1062.5 2293.1,-130 2293.1,-130 2293.1,-130 2530.62,-130 2530.62,-130"/>
<polygon fill="black" stroke="black" points="2530.62,-133.5 2540.62,-130 2530.62,-126.5 2530.62,-133.5"/>
<text text-anchor="middle" x="2292.24" y="-1016.8" font-family="Times,serif" font-size="14.00">SQRT_CONCURRENCY_INCREMENT</text>
</g>
</g>
</svg>
