<svg xmlns="http://www.w3.org/2000/svg" xmlns:xlink="http://www.w3.org/1999/xlink" fill="none" stroke="none" stroke-linecap="square" stroke-miterlimit="10" version="1.1" viewBox="0 0 960 540"><clipPath id="g2507ebc187f_3_20.0"><path d="m0 0l960.0 0l0 540.0l-960.0 0l0 -540.0z" clip-rule="nonzero"/></clipPath><g clip-path="url(#g2507ebc187f_3_20.0)"><path fill="#000" fill-opacity="0" fill-rule="evenodd" d="m0 0l960.0 0l0 540.0l-960.0 0z"/><path fill="#000" fill-opacity="0" fill-rule="evenodd" d="m27.716536 70.018364l904.5669 0l0 451.74805l-904.5669 0z"/><path fill="#8ec4ad" fill-rule="evenodd" d="m240.7454 179.36066l0 0c0 -29.66452 24.047836 -53.712364 53.712357 -53.712364l381.74066 0c14.245361 0 27.907349 5.6589584 37.980347 15.731987c10.072998 10.073029 15.731995 23.73497 15.731995 37.980377l0 214.84299c0 29.66452 -24.047852 53.71237 -53.71234 53.71237l-381.74066 0c-29.66452 0 -53.712357 -24.047852 -53.712357 -53.71237z"/><path fill-rule="evenodd" stroke="#303030" stroke-linecap="butt" stroke-linejoin="round" stroke-width="1" d="m240.7454 179.36066l0 0c0 -29.66452 24.047836 -53.712364 53.712357 -53.712364l381.74066 0c14.245361 0 27.907349 5.6589584 37.980347 15.731987c10.072998 10.073029 15.731995 23.73497 15.731995 37.980377l0 214.84299c0 29.66452 -24.047852 53.71237 -53.71234 53.71237l-381.74066 0c-29.66452 0 -53.712357 -24.047852 -53.712357 -53.71237z"/><path fill="#ecb43f" fill-rule="evenodd" d="m43.17323 214.69574l0 0c0 -5.737488 4.651161 -10.388657 10.388657 -10.388657l77.04945 0c2.7552338 0 5.397644 1.0945129 7.345886 3.0427704c1.9482574 1.9482574 3.0427704 4.5906525 3.0427704 7.345886l0 41.553406c0 5.737488 -4.6511536 10.388641 -10.388657 10.388641l-77.04945 0c-5.7374954 0 -10.388657 -4.6511536 -10.388657 -10.388641z"/><path fill-rule="evenodd" stroke="#303030" stroke-linecap="butt" stroke-linejoin="round" stroke-width="1" d="m43.17323 214.69574l0 0c0 -5.737488 4.651161 -10.388657 10.388657 -10.388657l77.04945 0c2.7552338 0 5.397644 1.0945129 7.345886 3.0427704c1.9482574 1.9482574 3.0427704 4.5906525 3.0427704 7.345886l0 41.553406c0 5.737488 -4.6511536 10.388641 -10.388657 10.388641l-77.04945 0c-5.7374954 0 -10.388657 -4.6511536 -10.388657 -10.388641z"/><path fill="#000" fill-rule="nonzero" d="m68.85628 237.16307l1.875 -0.171875q0.171875 0.9375 0.6875 1.390625q0.515625 0.4375 1.390625 0.4375q0.9375 0 1.40625 -0.390625q0.46875 -0.40625 0.46875 -0.921875q0 -0.34375 -0.203125 -0.578125q-0.1875 -0.234375 -0.6875 -0.421875q-0.34375 -0.109375 -1.546875 -0.40625q-1.546875 -0.390625 -2.171875 -0.953125q-0.875 -0.78125 -0.875 -1.921875q0 -0.71875 0.40625 -1.359375q0.421875 -0.640625 1.1875 -0.96875q0.78125 -0.328125 1.890625 -0.328125q1.796875 0 2.703125 0.796875q0.90625 0.78125 0.953125 2.09375l-1.921875 0.078125q-0.125 -0.734375 -0.53125 -1.046875q-0.40625 -0.328125 -1.234375 -0.328125q-0.828125 0 -1.3125 0.34375q-0.296875 0.21875 -0.296875 0.59375q0 0.34375 0.28125 0.578125q0.359375 0.3125 1.765625 0.640625q1.40625 0.328125 2.078125 0.6875q0.6875 0.359375 1.0625 0.96875q0.375 0.609375 0.375 1.515625q0 0.828125 -0.453125 1.546875q-0.453125 0.703125 -1.296875 1.0625q-0.828125 0.34375 -2.0625 0.34375q-1.8125 0 -2.78125 -0.828125q-0.96875 -0.84375 -1.15625 -2.453125zm13.358505 0.90625l1.828125 0.3125q-0.34375 1.0 -1.109375 1.53125q-0.765625 0.515625 -1.890625 0.515625q-1.8125 0 -2.671875 -1.171875q-0.6875 -0.953125 -0.6875 -2.390625q0 -1.71875 0.890625 -2.6875q0.90625 -0.96875 2.28125 -0.96875q1.546875 0 2.4375 1.015625q0.890625 1.015625 0.84375 3.125l-4.578125 0q0.015625 0.8125 0.4375 1.265625q0.421875 0.453125 1.0625 0.453125q0.421875 0 0.71875 -0.234375q0.296875 -0.234375 0.4375 -0.765625zm0.109375 -1.84375q-0.015625 -0.796875 -0.40625 -1.203125q-0.390625 -0.421875 -0.953125 -0.421875q-0.59375 0 -0.984375 0.4375q-0.390625 0.4375 -0.390625 1.1875l2.734375 0zm5.0531006 4.046875l-1.828125 0l0 -6.90625l1.703125 0l0 0.984375q0.4375 -0.703125 0.78125 -0.921875q0.34375 -0.21875 0.796875 -0.21875q0.625 0 1.203125 0.34375l-0.5625 1.59375q-0.46875 -0.296875 -0.859375 -0.296875q-0.390625 0 -0.65625 0.21875q-0.265625 0.203125 -0.421875 0.765625q-0.15625 0.546875 -0.15625 2.296875l0 2.140625zm5.343033 0l-2.78125 -6.90625l1.90625 0l1.3125 3.515625l0.375 1.1875q0.140625 -0.453125 0.1875 -0.59375q0.09375 -0.296875 0.1875 -0.59375l1.328125 -3.515625l1.875 0l-2.75 6.90625l-1.640625 0zm5.5062256 -7.84375l0 -1.703125l1.828125 0l0 1.703125l-1.828125 0zm0 7.84375l0 -6.90625l1.828125 0l0 6.90625l-1.828125 0zm9.734238 -4.875l-1.796875 0.328125q-0.09375 -0.53125 -0.421875 -0.796875q-0.328125 -0.28125 -0.828125 -0.28125q-0.6875 0 -1.09375 0.46875q-0.40625 0.46875 -0.40625 1.578125q0 1.234375 0.40625 1.75q0.421875 0.5 1.109375 0.5q0.53125 0 0.859375 -0.296875q0.328125 -0.296875 0.46875 -1.03125l1.796875 0.3125q-0.28125 1.234375 -1.078125 1.875q-0.796875 0.625 -2.125 0.625q-1.515625 0 -2.421875 -0.953125q-0.90625 -0.953125 -0.90625 -2.65625q0 -1.703125 0.90625 -2.65625q0.90625 -0.953125 2.453125 -0.953125q1.265625 0 2.0 0.546875q0.75 0.53125 1.078125 1.640625zm5.3812256 2.671875l1.828125 0.3125q-0.34375 1.0 -1.109375 1.53125q-0.765625 0.515625 -1.890625 0.515625q-1.8125 0 -2.671875 -1.171875q-0.6875 -0.953125 -0.6875 -2.390625q0 -1.71875 0.890625 -2.6875q0.90625 -0.96875 2.28125 -0.96875q1.546875 0 2.4375 1.015625q0.890625 1.015625 0.84375 3.125l-4.578125 0q0.015625 0.8125 0.4375 1.265625q0.421875 0.453125 1.0625 0.453125q0.421875 0 0.71875 -0.234375q0.296875 -0.234375 0.4375 -0.765625zm0.109375 -1.84375q-0.015625 -0.796875 -0.40625 -1.203125q-0.390625 -0.421875 -0.953125 -0.421875q-0.59375 0 -0.984375 0.4375q-0.390625 0.4375 -0.390625 1.1875l2.734375 0z"/><path fill="#f27a40" fill-rule="evenodd" d="m810.48553 222.85083l0 0c0 -10.241425 21.899292 -18.543747 48.91339 -18.543747c27.01416 0 48.91339 8.302322 48.91339 18.543747l0 74.17499c0 10.241425 -21.899231 18.543732 -48.91339 18.543732c-27.0141 0 -48.91339 -8.302307 -48.91339 -18.543732z"/><path fill="#000" fill-opacity="0" fill-rule="evenodd" d="m908.3123 222.85083l0 0c0 10.241425 -21.899231 18.543747 -48.91339 18.543747c-27.0141 0 -48.91339 -8.302322 -48.91339 -18.543747"/><path fill="#000" fill-opacity="0" fill-rule="evenodd" d="m810.48553 222.85083l0 0c0 -10.241425 21.899292 -18.543747 48.91339 -18.543747c27.01416 0 48.91339 8.302322 48.91339 18.543747l0 74.17499c0 10.241425 -21.899231 18.543732 -48.91339 18.543732c-27.0141 0 -48.91339 -8.302307 -48.91339 -18.543732z"/><path fill-rule="evenodd" stroke="#303030" stroke-linecap="butt" stroke-linejoin="round" stroke-width="1" d="m908.3123 222.85083l0 0c0 10.241425 -21.899231 18.543747 -48.91339 18.543747c-27.0141 0 -48.91339 -8.302322 -48.91339 -18.543747"/><path fill-rule="evenodd" stroke="#303030" stroke-linecap="butt" stroke-linejoin="round" stroke-width="1" d="m810.48553 222.85083l0 0c0 -10.241425 21.899292 -18.543747 48.91339 -18.543747c27.01416 0 48.91339 8.302322 48.91339 18.543747l0 74.17499c0 10.241425 -21.899231 18.543732 -48.91339 18.543732c-27.0141 0 -48.91339 -8.302307 -48.91339 -18.543732z"/><path fill="#000" fill-rule="nonzero" d="m821.85406 274.0102l0 -9.546875l3.09375 0q1.75 0 2.296875 0.15625q0.8125 0.203125 1.359375 0.921875q0.5625 0.71875 0.5625 1.859375q0 0.875 -0.328125 1.484375q-0.3125 0.59375 -0.8125 0.9375q-0.484375 0.34375 -0.984375 0.453125q-0.703125 0.140625 -2.0 0.140625l-1.265625 0l0 3.59375l-1.921875 0zm1.921875 -7.921875l0 2.703125l1.0625 0q1.140625 0 1.515625 -0.140625q0.390625 -0.15625 0.609375 -0.46875q0.21875 -0.328125 0.21875 -0.75q0 -0.515625 -0.3125 -0.859375q-0.296875 -0.34375 -0.765625 -0.421875q-0.34375 -0.0625 -1.390625 -0.0625l-0.9375 0zm8.7022705 7.921875l-1.828125 0l0 -6.90625l1.703125 0l0 0.984375q0.4375 -0.703125 0.78125 -0.921875q0.34375 -0.21875 0.796875 -0.21875q0.625 0 1.203125 0.34375l-0.5625 1.59375q-0.46875 -0.296875 -0.859375 -0.296875q-0.390625 0 -0.65625 0.21875q-0.265625 0.203125 -0.421875 0.765625q-0.15625 0.546875 -0.15625 2.296875l0 2.140625zm3.0148926 -3.546875q0 -0.921875 0.453125 -1.765625q0.453125 -0.859375 1.265625 -1.296875q0.828125 -0.453125 1.84375 -0.453125q1.5625 0 2.5625 1.015625q1.015625 1.015625 1.015625 2.578125q0 1.5625 -1.015625 2.59375q-1.015625 1.03125 -2.546875 1.03125q-0.953125 0 -1.8125 -0.421875q-0.859375 -0.4375 -1.3125 -1.265625q-0.453125 -0.828125 -0.453125 -2.015625zm1.875 0.09375q0 1.03125 0.484375 1.578125q0.5 0.546875 1.203125 0.546875q0.71875 0 1.203125 -0.546875q0.484375 -0.546875 0.484375 -1.59375q0 -1.015625 -0.484375 -1.5625q-0.484375 -0.546875 -1.203125 -0.546875q-0.703125 0 -1.203125 0.546875q-0.484375 0.546875 -0.484375 1.578125zm6.5476074 -3.453125l1.6875 0l0 0.9375q0.90625 -1.09375 2.15625 -1.09375q0.671875 0 1.15625 0.28125q0.484375 0.265625 0.796875 0.8125q0.453125 -0.546875 0.984375 -0.8125q0.53125 -0.28125 1.125 -0.28125q0.765625 0 1.28125 0.3125q0.53125 0.296875 0.796875 0.90625q0.1875 0.4375 0.1875 1.421875l0 4.421875l-1.828125 0l0 -3.953125q0 -1.03125 -0.1875 -1.328125q-0.25 -0.390625 -0.78125 -0.390625q-0.390625 0 -0.734375 0.234375q-0.328125 0.234375 -0.484375 0.6875q-0.140625 0.453125 -0.140625 1.4375l0 3.3125l-1.828125 0l0 -3.78125q0 -1.015625 -0.109375 -1.296875q-0.09375 -0.296875 -0.296875 -0.4375q-0.203125 -0.15625 -0.546875 -0.15625q-0.421875 0 -0.765625 0.234375q-0.34375 0.21875 -0.484375 0.65625q-0.140625 0.421875 -0.140625 1.421875l0 3.359375l-1.84375 0l0 -6.90625zm15.991455 4.703125l1.828125 0.3125q-0.34375 1.0 -1.109375 1.53125q-0.765625 0.515625 -1.890625 0.515625q-1.8125 0 -2.671875 -1.171875q-0.6875 -0.953125 -0.6875 -2.390625q0 -1.71875 0.890625 -2.6875q0.90625 -0.96875 2.28125 -0.96875q1.546875 0 2.4375 1.015625q0.890625 1.015625 0.84375 3.125l-4.578125 0q0.015625 0.8125 0.4375 1.265625q0.421875 0.453125 1.0625 0.453125q0.421875 0 0.71875 -0.234375q0.296875 -0.234375 0.4375 -0.765625zm0.109375 -1.84375q-0.015625 -0.796875 -0.40625 -1.203125q-0.390625 -0.421875 -0.953125 -0.421875q-0.59375 0 -0.984375 0.4375q-0.390625 0.4375 -0.390625 1.1875l2.734375 0zm6.4749756 -2.859375l0 1.453125l-1.25 0l0 2.78125q0 0.84375 0.03125 0.984375q0.046875 0.140625 0.171875 0.234375q0.125 0.09375 0.3125 0.09375q0.25 0 0.734375 -0.171875l0.15625 1.421875q-0.640625 0.265625 -1.453125 0.265625q-0.484375 0 -0.890625 -0.15625q-0.390625 -0.171875 -0.578125 -0.4375q-0.1875 -0.265625 -0.265625 -0.71875q-0.046875 -0.3125 -0.046875 -1.28125l0 -3.015625l-0.84375 0l0 -1.453125l0.84375 0l0 -1.375l1.828125 -1.078125l0 2.453125l1.25 0zm3.0946655 -2.640625l0 3.515625q0.875 -1.03125 2.109375 -1.03125q0.640625 0 1.140625 0.234375q0.515625 0.234375 0.765625 0.59375q0.25 0.359375 0.34375 0.8125q0.109375 0.4375 0.109375 1.375l0 4.046875l-1.828125 0l0 -3.65625q0 -1.078125 -0.109375 -1.375q-0.109375 -0.296875 -0.375 -0.46875q-0.265625 -0.171875 -0.65625 -0.171875q-0.453125 0 -0.8125 0.234375q-0.359375 0.21875 -0.53125 0.671875q-0.15625 0.4375 -0.15625 1.296875l0 3.46875l-1.828125 0l0 -9.546875l1.828125 0zm10.313232 7.34375l1.828125 0.3125q-0.34375 1.0 -1.109375 1.53125q-0.765625 0.515625 -1.890625 0.515625q-1.8125 0 -2.671875 -1.171875q-0.6875 -0.953125 -0.6875 -2.390625q0 -1.71875 0.890625 -2.6875q0.90625 -0.96875 2.28125 -0.96875q1.546875 0 2.4375 1.015625q0.890625 1.015625 0.84375 3.125l-4.578125 0q0.015625 0.8125 0.4375 1.265625q0.421875 0.453125 1.0625 0.453125q0.421875 0 0.71875 -0.234375q0.296875 -0.234375 0.4375 -0.765625zm0.109375 -1.84375q-0.015625 -0.796875 -0.40625 -1.203125q-0.390625 -0.421875 -0.953125 -0.421875q-0.59375 0 -0.984375 0.4375q-0.390625 0.4375 -0.390625 1.1875l2.734375 0zm7.8499756 4.046875l0 -1.03125q-0.375 0.546875 -1.0 0.875q-0.609375 0.3125 -1.28125 0.3125q-0.703125 0 -1.265625 -0.296875q-0.546875 -0.3125 -0.796875 -0.859375q-0.234375 -0.5625 -0.234375 -1.53125l0 -4.375l1.828125 0l0 3.171875q0 1.453125 0.09375 1.78125q0.109375 0.328125 0.375 0.53125q0.265625 0.1875 0.671875 0.1875q0.46875 0 0.84375 -0.25q0.375 -0.265625 0.5 -0.640625q0.140625 -0.390625 0.140625 -1.875l0 -2.90625l1.828125 0l0 6.90625l-1.703125 0zm2.9538574 -1.96875l1.828125 -0.28125q0.125 0.53125 0.484375 0.8125q0.359375 0.265625 1.0 0.265625q0.703125 0 1.0625 -0.25q0.25 -0.1875 0.25 -0.484375q0 -0.21875 -0.140625 -0.359375q-0.125 -0.125 -0.609375 -0.234375q-2.203125 -0.484375 -2.796875 -0.890625q-0.828125 -0.5625 -0.828125 -1.5625q0 -0.890625 0.703125 -1.5q0.71875 -0.609375 2.203125 -0.609375q1.421875 0 2.109375 0.46875q0.703125 0.453125 0.953125 1.359375l-1.71875 0.3125q-0.109375 -0.40625 -0.421875 -0.609375q-0.3125 -0.21875 -0.890625 -0.21875q-0.71875 0 -1.03125 0.203125q-0.203125 0.140625 -0.203125 0.359375q0 0.203125 0.1875 0.34375q0.234375 0.171875 1.6875 0.515625q1.46875 0.328125 2.0625 0.8125q0.5625 0.484375 0.5625 1.359375q0 0.953125 -0.796875 1.640625q-0.78125 0.671875 -2.34375 0.671875q-1.40625 0 -2.234375 -0.5625q-0.828125 -0.578125 -1.078125 -1.5625z"/><path fill="#000" fill-opacity="0" fill-rule="evenodd" d="m413.39108 134.28084l143.874 0l0 35.55905l-143.874 0z"/><path fill="#000" fill-rule="nonzero" d="m468.09497 156.08084l-2.203125 0l3.34375 -9.6875l2.640625 0l3.34375 9.6875l-2.1875 0l-2.4375 -7.484375l-0.0625 0l-2.4375 7.484375zm-0.140625 -3.8125l5.1875 0l0 1.609375l-5.1875 0l0 -1.609375zm11.330109 6.6875q-0.984375 0 -1.6875 -0.265625q-0.6875 -0.265625 -1.109375 -0.734375q-0.40625 -0.453125 -0.53125 -1.015625l1.875 -0.265625q0.078125 0.21875 0.265625 0.40625q0.1875 0.203125 0.484375 0.3125q0.3125 0.109375 0.75 0.109375q0.65625 0 1.078125 -0.3125q0.4375 -0.3125 0.4375 -1.0625l0 -1.328125l-0.078125 0q-0.140625 0.296875 -0.40625 0.578125q-0.265625 0.265625 -0.6875 0.4375q-0.40625 0.15625 -0.984375 0.15625q-0.8125 0 -1.484375 -0.375q-0.671875 -0.375 -1.078125 -1.15625q-0.390625 -0.796875 -0.390625 -2.015625q0 -1.234375 0.40625 -2.0625q0.40625 -0.828125 1.0625 -1.234375q0.671875 -0.40625 1.484375 -0.40625q0.609375 0 1.015625 0.203125q0.40625 0.203125 0.65625 0.515625q0.265625 0.296875 0.40625 0.59375l0.0625 0l0 -1.21875l2.015625 0l0 7.34375q0 0.921875 -0.46875 1.546875q-0.453125 0.625 -1.25 0.9375q-0.796875 0.3125 -1.84375 0.3125zm0.046875 -4.5q0.484375 0 0.8125 -0.234375q0.34375 -0.25 0.53125 -0.703125q0.1875 -0.453125 0.1875 -1.09375q0 -0.640625 -0.1875 -1.109375q-0.171875 -0.46875 -0.515625 -0.734375q-0.34375 -0.265625 -0.828125 -0.265625q-0.5 0 -0.84375 0.28125q-0.34375 0.265625 -0.515625 0.734375q-0.171875 0.46875 -0.171875 1.09375q0 0.625 0.171875 1.09375q0.1875 0.453125 0.515625 0.703125q0.34375 0.234375 0.84375 0.234375zm8.439087 1.765625q-1.125 0 -1.9375 -0.453125q-0.8125 -0.453125 -1.25 -1.296875q-0.421875 -0.84375 -0.421875 -2.0q0 -1.109375 0.421875 -1.953125q0.4375 -0.859375 1.234375 -1.328125q0.796875 -0.46875 1.859375 -0.46875q0.71875 0 1.34375 0.234375q0.625 0.21875 1.09375 0.6875q0.46875 0.453125 0.71875 1.15625q0.265625 0.6875 0.265625 1.609375l0 0.546875l-6.140625 0l0 -1.25l4.25 0q0 -0.421875 -0.203125 -0.75q-0.1875 -0.34375 -0.515625 -0.53125q-0.328125 -0.203125 -0.765625 -0.203125q-0.46875 0 -0.828125 0.21875q-0.34375 0.203125 -0.546875 0.5625q-0.1875 0.34375 -0.203125 0.78125l0 1.1875q0 0.53125 0.203125 0.921875q0.203125 0.390625 0.5625 0.609375q0.375 0.21875 0.890625 0.21875q0.328125 0 0.609375 -0.09375q0.28125 -0.09375 0.46875 -0.28125q0.203125 -0.203125 0.3125 -0.46875l1.859375 0.125q-0.140625 0.671875 -0.578125 1.171875q-0.4375 0.5 -1.125 0.78125q-0.6875 0.265625 -1.578125 0.265625zm6.668915 -4.34375l0 4.203125l-2.03125 0l0 -7.265625l1.921875 0l0 1.28125l0.09375 0q0.234375 -0.640625 0.796875 -1.0q0.578125 -0.375 1.390625 -0.375q0.75 0 1.3125 0.328125q0.5625 0.328125 0.875 0.953125q0.3125 0.609375 0.3125 1.453125l0 4.625l-2.015625 0l0 -4.265625q0.015625 -0.671875 -0.34375 -1.046875q-0.34375 -0.375 -0.9375 -0.375q-0.40625 0 -0.71875 0.171875q-0.3125 0.171875 -0.484375 0.515625q-0.171875 0.328125 -0.171875 0.796875zm10.131378 -3.0625l0 1.515625l-4.375 0l0 -1.515625l4.375 0zm-3.390625 -1.75l2.015625 0l0 6.78125q0 0.28125 0.078125 0.4375q0.09375 0.15625 0.25 0.21875q0.15625 0.046875 0.359375 0.046875q0.140625 0 0.28125 -0.015625q0.140625 -0.03125 0.21875 -0.046875l0.3125 1.5q-0.140625 0.046875 -0.421875 0.109375q-0.265625 0.0625 -0.671875 0.078125q-0.71875 0.03125 -1.265625 -0.1875q-0.546875 -0.21875 -0.859375 -0.6875q-0.296875 -0.46875 -0.296875 -1.1875l0 -7.046875z"/><path fill="#f27a40" fill-rule="evenodd" d="m302.13385 207.15749l129.6063 0l0 56.62993l-129.6063 0z"/><path fill-rule="evenodd" stroke="#303030" stroke-linecap="butt" stroke-linejoin="round" stroke-width="1" d="m302.13385 207.15749l129.6063 0l0 56.62993l-129.6063 0z"/><path fill="#000" fill-rule="nonzero" d="m337.4168 237.16307l1.875 -0.171875q0.171875 0.9375 0.6875 1.390625q0.515625 0.4375 1.390625 0.4375q0.9375 0 1.40625 -0.390625q0.46875 -0.40625 0.46875 -0.921875q0 -0.34375 -0.203125 -0.578125q-0.1875 -0.234375 -0.6875 -0.421875q-0.34375 -0.109375 -1.546875 -0.40625q-1.546875 -0.390625 -2.171875 -0.953125q-0.875 -0.78125 -0.875 -1.921875q0 -0.71875 0.40625 -1.359375q0.421875 -0.640625 1.1875 -0.96875q0.78125 -0.328125 1.890625 -0.328125q1.796875 0 2.703125 0.796875q0.90625 0.78125 0.953125 2.09375l-1.921875 0.078125q-0.125 -0.734375 -0.53125 -1.046875q-0.40625 -0.328125 -1.234375 -0.328125q-0.828125 0 -1.3125 0.34375q-0.296875 0.21875 -0.296875 0.59375q0 0.34375 0.28125 0.578125q0.359375 0.3125 1.765625 0.640625q1.40625 0.328125 2.078125 0.6875q0.6875 0.359375 1.0625 0.96875q0.375 0.609375 0.375 1.515625q0 0.828125 -0.453125 1.546875q-0.453125 0.703125 -1.296875 1.0625q-0.828125 0.34375 -2.0625 0.34375q-1.8125 0 -2.78125 -0.828125q-0.96875 -0.84375 -1.15625 -2.453125zm13.35849 0.90625l1.828125 0.3125q-0.34375 1.0 -1.109375 1.53125q-0.765625 0.515625 -1.890625 0.515625q-1.8125 0 -2.671875 -1.171875q-0.6875 -0.953125 -0.6875 -2.390625q0 -1.71875 0.890625 -2.6875q0.90625 -0.96875 2.28125 -0.96875q1.546875 0 2.4375 1.015625q0.890625 1.015625 0.84375 3.125l-4.578125 0q0.015625 0.8125 0.4375 1.265625q0.421875 0.453125 1.0625 0.453125q0.421875 0 0.71875 -0.234375q0.296875 -0.234375 0.4375 -0.765625zm0.109375 -1.84375q-0.015625 -0.796875 -0.40625 -1.203125q-0.390625 -0.421875 -0.953125 -0.421875q-0.59375 0 -0.984375 0.4375q-0.390625 0.4375 -0.390625 1.1875l2.734375 0zm3.3031006 4.046875l0 -9.546875l1.828125 0l0 9.546875l-1.828125 0zm7.703003 -2.203125l1.828125 0.3125q-0.34375 1.0 -1.109375 1.53125q-0.765625 0.515625 -1.890625 0.515625q-1.8125 0 -2.671875 -1.171875q-0.6875 -0.953125 -0.6875 -2.390625q0 -1.71875 0.890625 -2.6875q0.90625 -0.96875 2.28125 -0.96875q1.546875 0 2.4375 1.015625q0.890625 1.015625 0.84375 3.125l-4.578125 0q0.015625 0.8125 0.4375 1.265625q0.421875 0.453125 1.0625 0.453125q0.421875 0 0.71875 -0.234375q0.296875 -0.234375 0.4375 -0.765625zm0.109375 -1.84375q-0.015625 -0.796875 -0.40625 -1.203125q-0.390625 -0.421875 -0.953125 -0.421875q-0.59375 0 -0.984375 0.4375q-0.390625 0.4375 -0.390625 1.1875l2.734375 0zm9.334351 -0.828125l-1.796875 0.328125q-0.09375 -0.53125 -0.421875 -0.796875q-0.328125 -0.28125 -0.828125 -0.28125q-0.6875 0 -1.09375 0.46875q-0.40625 0.46875 -0.40625 1.578125q0 1.234375 0.40625 1.75q0.421875 0.5 1.109375 0.5q0.53125 0 0.859375 -0.296875q0.328125 -0.296875 0.46875 -1.03125l1.796875 0.3125q-0.28125 1.234375 -1.078125 1.875q-0.796875 0.625 -2.125 0.625q-1.515625 0 -2.421875 -0.953125q-0.90625 -0.953125 -0.90625 -2.65625q0 -1.703125 0.90625 -2.65625q0.90625 -0.953125 2.453125 -0.953125q1.265625 0 2.0 0.546875q0.75 0.53125 1.078125 1.640625zm4.5531006 -2.03125l0 1.453125l-1.25 0l0 2.78125q0 0.84375 0.03125 0.984375q0.046875 0.140625 0.171875 0.234375q0.125 0.09375 0.3125 0.09375q0.25 0 0.734375 -0.171875l0.15625 1.421875q-0.640625 0.265625 -1.453125 0.265625q-0.484375 0 -0.890625 -0.15625q-0.390625 -0.171875 -0.578125 -0.4375q-0.1875 -0.265625 -0.265625 -0.71875q-0.046875 -0.3125 -0.046875 -1.28125l0 -3.015625l-0.84375 0l0 -1.453125l0.84375 0l0 -1.375l1.828125 -1.078125l0 2.453125l1.25 0zm0.8446045 3.359375q0 -0.921875 0.453125 -1.765625q0.453125 -0.859375 1.265625 -1.296875q0.828125 -0.453125 1.84375 -0.453125q1.5625 0 2.5625 1.015625q1.015625 1.015625 1.015625 2.578125q0 1.5625 -1.015625 2.59375q-1.015625 1.03125 -2.546875 1.03125q-0.953125 0 -1.8125 -0.421875q-0.859375 -0.4375 -1.3125 -1.265625q-0.453125 -0.828125 -0.453125 -2.015625zm1.875 0.09375q0 1.03125 0.484375 1.578125q0.5 0.546875 1.203125 0.546875q0.71875 0 1.203125 -0.546875q0.484375 -0.546875 0.484375 -1.59375q0 -1.015625 -0.484375 -1.5625q-0.484375 -0.546875 -1.203125 -0.546875q-0.703125 0 -1.203125 0.546875q-0.484375 0.546875 -0.484375 1.578125zm8.438232 3.453125l-1.828125 0l0 -6.90625l1.703125 0l0 0.984375q0.4375 -0.703125 0.78125 -0.921875q0.34375 -0.21875 0.796875 -0.21875q0.625 0 1.203125 0.34375l-0.5625 1.59375q-0.46875 -0.296875 -0.859375 -0.296875q-0.390625 0 -0.65625 0.21875q-0.265625 0.203125 -0.421875 0.765625q-0.15625 0.546875 -0.15625 2.296875l0 2.140625zm2.796173 -1.96875l1.828125 -0.28125q0.125 0.53125 0.484375 0.8125q0.359375 0.265625 1.0 0.265625q0.703125 0 1.0625 -0.25q0.25 -0.1875 0.25 -0.484375q0 -0.21875 -0.140625 -0.359375q-0.125 -0.125 -0.609375 -0.234375q-2.203125 -0.484375 -2.796875 -0.890625q-0.828125 -0.5625 -0.828125 -1.5625q0 -0.890625 0.703125 -1.5q0.71875 -0.609375 2.203125 -0.609375q1.421875 0 2.109375 0.46875q0.703125 0.453125 0.953125 1.359375l-1.71875 0.3125q-0.109375 -0.40625 -0.421875 -0.609375q-0.3125 -0.21875 -0.890625 -0.21875q-0.71875 0 -1.03125 0.203125q-0.203125 0.140625 -0.203125 0.359375q0 0.203125 0.1875 0.34375q0.234375 0.171875 1.6875 0.515625q1.46875 0.328125 2.0625 0.8125q0.5625 0.484375 0.5625 1.359375q0 0.953125 -0.796875 1.640625q-0.78125 0.671875 -2.34375 0.671875q-1.40625 0 -2.234375 -0.5625q-0.828125 -0.578125 -1.078125 -1.5625z"/><path fill="#f27a40" fill-rule="evenodd" d="m573.72705 207.17323l129.51178 0l0 56.598434l-129.51178 0z"/><path fill-rule="evenodd" stroke="#303030" stroke-linecap="butt" stroke-linejoin="round" stroke-width="1" d="m573.72705 207.17323l129.51178 0l0 56.598434l-129.51178 0z"/><path fill="#000" fill-rule="nonzero" d="m604.2857 240.27245l0 -9.546875l6.53125 0l0 1.625l-4.609375 0l0 2.25l3.984375 0l0 1.625l-3.984375 0l0 4.046875l-1.921875 0zm8.110107 0l0 -9.546875l1.828125 0l0 9.546875l-1.828125 0zm8.249878 0l0 -1.03125q-0.375 0.546875 -1.0 0.875q-0.609375 0.3125 -1.28125 0.3125q-0.703125 0 -1.265625 -0.296875q-0.546875 -0.3125 -0.796875 -0.859375q-0.234375 -0.5625 -0.234375 -1.53125l0 -4.375l1.828125 0l0 3.171875q0 1.453125 0.09375 1.78125q0.109375 0.328125 0.375 0.53125q0.265625 0.1875 0.671875 0.1875q0.46875 0 0.84375 -0.25q0.375 -0.265625 0.5 -0.640625q0.140625 -0.390625 0.140625 -1.875l0 -2.90625l1.828125 0l0 6.90625l-1.703125 0zm2.7194824 0l2.5 -3.5625l-2.390625 -3.34375l2.234375 0l1.21875 1.890625l1.28125 -1.890625l2.15625 0l-2.34375 3.265625l2.546875 3.640625l-2.234375 0l-1.40625 -2.140625l-1.421875 2.140625l-2.140625 0zm8.271851 0l0 -9.546875l2.890625 0l1.734375 6.515625l1.703125 -6.515625l2.890625 0l0 9.546875l-1.78125 0l0 -7.515625l-1.90625 7.515625l-1.84375 0l-1.890625 -7.515625l0 7.515625l-1.796875 0zm15.118042 -2.203125l1.828125 0.3125q-0.34375 1.0 -1.109375 1.53125q-0.765625 0.515625 -1.890625 0.515625q-1.8125 0 -2.671875 -1.171875q-0.6875 -0.953125 -0.6875 -2.390625q0 -1.71875 0.890625 -2.6875q0.90625 -0.96875 2.28125 -0.96875q1.546875 0 2.4375 1.015625q0.890625 1.015625 0.84375 3.125l-4.578125 0q0.015625 0.8125 0.4375 1.265625q0.421875 0.453125 1.0625 0.453125q0.421875 0 0.71875 -0.234375q0.296875 -0.234375 0.4375 -0.765625zm0.109375 -1.84375q-0.015625 -0.796875 -0.40625 -1.203125q-0.390625 -0.421875 -0.953125 -0.421875q-0.59375 0 -0.984375 0.4375q-0.390625 0.4375 -0.390625 1.1875l2.734375 0zm6.4749756 -2.859375l0 1.453125l-1.25 0l0 2.78125q0 0.84375 0.03125 0.984375q0.046875 0.140625 0.171875 0.234375q0.125 0.09375 0.3125 0.09375q0.25 0 0.734375 -0.171875l0.15625 1.421875q-0.640625 0.265625 -1.453125 0.265625q-0.484375 0 -0.890625 -0.15625q-0.390625 -0.171875 -0.578125 -0.4375q-0.1875 -0.265625 -0.265625 -0.71875q-0.046875 -0.3125 -0.046875 -1.28125l0 -3.015625l-0.84375 0l0 -1.453125l0.84375 0l0 -1.375l1.828125 -1.078125l0 2.453125l1.25 0zm5.2664795 4.703125l1.828125 0.3125q-0.34375 1.0 -1.109375 1.53125q-0.765625 0.515625 -1.890625 0.515625q-1.8125 0 -2.671875 -1.171875q-0.6875 -0.953125 -0.6875 -2.390625q0 -1.71875 0.890625 -2.6875q0.90625 -0.96875 2.28125 -0.96875q1.546875 0 2.4375 1.015625q0.890625 1.015625 0.84375 3.125l-4.578125 0q0.015625 0.8125 0.4375 1.265625q0.421875 0.453125 1.0625 0.453125q0.421875 0 0.71875 -0.234375q0.296875 -0.234375 0.4375 -0.765625zm0.109375 -1.84375q-0.015625 -0.796875 -0.40625 -1.203125q-0.390625 -0.421875 -0.953125 -0.421875q-0.59375 0 -0.984375 0.4375q-0.390625 0.4375 -0.390625 1.1875l2.734375 0zm5.0531006 4.046875l-1.828125 0l0 -6.90625l1.703125 0l0 0.984375q0.4375 -0.703125 0.78125 -0.921875q0.34375 -0.21875 0.796875 -0.21875q0.625 0 1.203125 0.34375l-0.5625 1.59375q-0.46875 -0.296875 -0.859375 -0.296875q-0.390625 0 -0.65625 0.21875q-0.265625 0.203125 -0.421875 0.765625q-0.15625 0.546875 -0.15625 2.296875l0 2.140625zm2.7962036 -1.96875l1.828125 -0.28125q0.125 0.53125 0.484375 0.8125q0.359375 0.265625 1.0 0.265625q0.703125 0 1.0625 -0.25q0.25 -0.1875 0.25 -0.484375q0 -0.21875 -0.140625 -0.359375q-0.125 -0.125 -0.609375 -0.234375q-2.203125 -0.484375 -2.796875 -0.890625q-0.828125 -0.5625 -0.828125 -1.5625q0 -0.890625 0.703125 -1.5q0.71875 -0.609375 2.203125 -0.609375q1.421875 0 2.109375 0.46875q0.703125 0.453125 0.953125 1.359375l-1.71875 0.3125q-0.109375 -0.40625 -0.421875 -0.609375q-0.3125 -0.21875 -0.890625 -0.21875q-0.71875 0 -1.03125 0.203125q-0.203125 0.140625 -0.203125 0.359375q0 0.203125 0.1875 0.34375q0.234375 0.171875 1.6875 0.515625q1.46875 0.328125 2.0625 0.8125q0.5625 0.484375 0.5625 1.359375q0 0.953125 -0.796875 1.640625q-0.78125 0.671875 -2.34375 0.671875q-1.40625 0 -2.234375 -0.5625q-0.828125 -0.578125 -1.078125 -1.5625z"/><path fill="#000" fill-opacity="0" fill-rule="evenodd" d="m141.0 235.47244l161.13385 0"/><path fill-rule="evenodd" stroke="#8f8e8d" stroke-linecap="butt" stroke-linejoin="round" stroke-width="1" d="m144.42708 235.47244l154.27971 0"/><path fill="#8f8e8d" fill-rule="evenodd" stroke="#8f8e8d" stroke-linecap="butt" stroke-width="1" d="m144.4271 235.47244l1.1245728 -1.124588l-3.0897675 1.124588l3.0897675 1.124588z"/><path fill="#8f8e8d" fill-rule="evenodd" stroke="#8f8e8d" stroke-linecap="butt" stroke-width="1" d="m298.70676 235.47244l-1.1245728 1.124588l3.0897827 -1.124588l-3.0897827 -1.124588z"/><path fill="#000" fill-opacity="0" fill-rule="evenodd" d="m161.2454 207.15749l84.8819 0l0 32.314957l-84.8819 0z"/><path fill="#303030" fill-rule="nonzero" d="m182.60373 226.39748l1.234375 -5.8125l0.875 0l-0.1875 0.875l0.046875 0q0.265625 -0.421875 0.734375 -0.6875q0.46875 -0.28125 0.984375 -0.28125q0.109375 0 0.25 0.015625q0.140625 0 0.21875 0l-0.1875 0.90625q-0.046875 0 -0.203125 -0.03125q-0.140625 -0.03125 -0.328125 -0.03125q-0.421875 0 -0.796875 0.1875q-0.359375 0.171875 -0.625 0.484375q-0.265625 0.296875 -0.34375 0.703125l-0.78125 3.671875l-0.890625 0zm6.1902466 0.125q-0.828125 0 -1.359375 -0.375q-0.515625 -0.375 -0.703125 -1.046875q-0.1875 -0.671875 0 -1.5625q0.1875 -0.890625 0.65625 -1.578125q0.484375 -0.6875 1.140625 -1.0625q0.671875 -0.390625 1.453125 -0.390625q0.46875 0 0.875 0.15625q0.40625 0.15625 0.703125 0.5q0.296875 0.328125 0.390625 0.890625q0.09375 0.546875 -0.078125 1.359375l-0.09375 0.375l-4.46875 0l0.171875 -0.765625l3.5625 0q0.109375 -0.5 -0.015625 -0.875q-0.109375 -0.390625 -0.421875 -0.609375q-0.3125 -0.234375 -0.796875 -0.234375q-0.53125 0 -0.96875 0.265625q-0.4375 0.265625 -0.734375 0.6875q-0.296875 0.421875 -0.40625 0.90625l-0.109375 0.515625q-0.140625 0.65625 -0.015625 1.109375q0.140625 0.453125 0.5 0.6875q0.359375 0.234375 0.890625 0.234375q0.359375 0 0.65625 -0.09375q0.3125 -0.09375 0.5625 -0.296875q0.25 -0.203125 0.4375 -0.515625l0.8125 0.25q-0.234375 0.4375 -0.625 0.765625q-0.390625 0.328125 -0.90625 0.515625q-0.515625 0.1875 -1.109375 0.1875zm7.2998047 2.0625l0.65625 -3.078125l-0.078125 0q-0.125 0.15625 -0.359375 0.40625q-0.234375 0.234375 -0.609375 0.421875q-0.375 0.1875 -0.9375 0.1875q-0.734375 0 -1.21875 -0.359375q-0.46875 -0.375 -0.640625 -1.046875q-0.15625 -0.6875 0.03125 -1.609375q0.203125 -0.921875 0.65625 -1.59375q0.453125 -0.671875 1.09375 -1.03125q0.640625 -0.375 1.375 -0.375q0.5625 0 0.84375 0.1875q0.296875 0.1875 0.421875 0.421875q0.140625 0.234375 0.203125 0.390625l0.109375 0l0.1875 -0.921875l0.859375 0l-1.703125 8.0l-0.890625 0zm-1.03125 -2.875q0.53125 0 0.953125 -0.28125q0.4375 -0.28125 0.734375 -0.78125q0.3125 -0.5 0.453125 -1.15625q0.125 -0.65625 0.046875 -1.140625q-0.078125 -0.484375 -0.40625 -0.765625q-0.3125 -0.28125 -0.84375 -0.28125q-0.578125 0 -1.015625 0.296875q-0.4375 0.296875 -0.734375 0.796875q-0.28125 0.484375 -0.40625 1.09375q-0.140625 0.625 -0.0625 1.125q0.078125 0.5 0.390625 0.796875q0.328125 0.296875 0.890625 0.296875zm8.196777 -1.6875l0.734375 -3.4375l0.890625 0l-1.234375 5.8125l-0.890625 0l0.203125 -0.984375l-0.0625 0q-0.296875 0.4375 -0.796875 0.75q-0.484375 0.3125 -1.15625 0.3125q-0.53125 0 -0.90625 -0.234375q-0.375 -0.25 -0.515625 -0.734375q-0.140625 -0.484375 0.015625 -1.234375l0.78125 -3.6875l0.890625 0l-0.765625 3.625q-0.140625 0.640625 0.140625 1.03125q0.28125 0.375 0.84375 0.375q0.328125 0 0.703125 -0.171875q0.375 -0.171875 0.6875 -0.515625q0.328125 -0.359375 0.4375 -0.90625zm4.425293 2.5q-0.828125 0 -1.359375 -0.375q-0.515625 -0.375 -0.703125 -1.046875q-0.1875 -0.671875 0 -1.5625q0.1875 -0.890625 0.65625 -1.578125q0.484375 -0.6875 1.140625 -1.0625q0.671875 -0.390625 1.453125 -0.390625q0.46875 0 0.875 0.15625q0.40625 0.15625 0.703125 0.5q0.296875 0.328125 0.390625 0.890625q0.09375 0.546875 -0.078125 1.359375l-0.09375 0.375l-4.46875 0l0.171875 -0.765625l3.5625 0q0.109375 -0.5 -0.015625 -0.875q-0.109375 -0.390625 -0.421875 -0.609375q-0.3125 -0.234375 -0.796875 -0.234375q-0.53125 0 -0.96875 0.265625q-0.4375 0.265625 -0.734375 0.6875q-0.296875 0.421875 -0.40625 0.90625l-0.109375 0.515625q-0.140625 0.65625 -0.015625 1.109375q0.140625 0.453125 0.5 0.6875q0.359375 0.234375 0.890625 0.234375q0.359375 0 0.65625 -0.09375q0.3125 -0.09375 0.5625 -0.296875q0.25 -0.203125 0.4375 -0.515625l0.8125 0.25q-0.234375 0.4375 -0.625 0.765625q-0.390625 0.328125 -0.90625 0.515625q-0.515625 0.1875 -1.109375 0.1875zm8.87793 -4.640625l-0.859375 0.234375q-0.015625 -0.203125 -0.125 -0.390625q-0.109375 -0.1875 -0.328125 -0.3125q-0.21875 -0.125 -0.609375 -0.125q-0.53125 0 -0.9375 0.25q-0.40625 0.234375 -0.484375 0.609375q-0.078125 0.328125 0.125 0.53125q0.203125 0.1875 0.6875 0.3125l0.8125 0.21875q0.75 0.1875 1.046875 0.578125q0.296875 0.375 0.171875 0.984375q-0.109375 0.5 -0.484375 0.90625q-0.375 0.390625 -0.9375 0.625q-0.546875 0.21875 -1.234375 0.21875q-0.890625 0 -1.390625 -0.390625q-0.484375 -0.390625 -0.484375 -1.125l0.890625 -0.21875q0.03125 0.46875 0.3125 0.703125q0.28125 0.234375 0.828125 0.234375q0.625 0 1.046875 -0.265625q0.4375 -0.265625 0.515625 -0.640625q0.078125 -0.296875 -0.109375 -0.5q-0.171875 -0.21875 -0.578125 -0.3125l-0.921875 -0.234375q-0.765625 -0.1875 -1.0625 -0.578125q-0.28125 -0.40625 -0.15625 -1.0q0.109375 -0.5 0.46875 -0.875q0.359375 -0.375 0.890625 -0.59375q0.53125 -0.21875 1.140625 -0.21875q0.859375 0 1.265625 0.390625q0.421875 0.375 0.5 0.984375zm4.2578125 -1.296875l-0.15625 0.75l-3.015625 0l0.15625 -0.75l3.015625 0zm-1.828125 -1.390625l0.890625 0l-1.171875 5.53125q-0.09375 0.390625 -0.03125 0.578125q0.078125 0.1875 0.234375 0.25q0.171875 0.0625 0.375 0.0625q0.15625 0 0.25 -0.015625q0.09375 -0.03125 0.140625 -0.03125l0.015625 0.796875q-0.09375 0.03125 -0.265625 0.0625q-0.171875 0.046875 -0.421875 0.046875q-0.375 0 -0.703125 -0.15625q-0.328125 -0.171875 -0.484375 -0.5q-0.15625 -0.34375 -0.0625 -0.84375l1.234375 -5.78125zm6.909561 2.6875l-0.859375 0.234375q-0.015625 -0.203125 -0.125 -0.390625q-0.109375 -0.1875 -0.328125 -0.3125q-0.21875 -0.125 -0.609375 -0.125q-0.53125 0 -0.9375 0.25q-0.40625 0.234375 -0.484375 0.609375q-0.078125 0.328125 0.125 0.53125q0.203125 0.1875 0.6875 0.3125l0.8125 0.21875q0.75 0.1875 1.046875 0.578125q0.296875 0.375 0.171875 0.984375q-0.109375 0.5 -0.484375 0.90625q-0.375 0.390625 -0.9375 0.625q-0.546875 0.21875 -1.234375 0.21875q-0.890625 0 -1.390625 -0.390625q-0.484375 -0.390625 -0.484375 -1.125l0.890625 -0.21875q0.03125 0.46875 0.3125 0.703125q0.28125 0.234375 0.828125 0.234375q0.625 0 1.046875 -0.265625q0.4375 -0.265625 0.515625 -0.640625q0.078125 -0.296875 -0.109375 -0.5q-0.171875 -0.21875 -0.578125 -0.3125l-0.921875 -0.234375q-0.765625 -0.1875 -1.0625 -0.578125q-0.28125 -0.40625 -0.15625 -1.0q0.109375 -0.5 0.46875 -0.875q0.359375 -0.375 0.890625 -0.59375q0.53125 -0.21875 1.140625 -0.21875q0.859375 0 1.265625 0.390625q0.421875 0.375 0.5 0.984375z"/><path fill="#000" fill-opacity="0" fill-rule="evenodd" d="m162.08136 239.47244l83.2126 0l0 71.08661l-83.2126 0z"/><path fill="#303030" fill-rule="nonzero" d="m185.49895 258.71243l-2.390625 0l1.640625 -7.7499847l2.5 0q1.125 0 1.828125 0.46875q0.71875 0.453125 0.953125 1.328125q0.25 0.859375 0 2.0625q-0.265625 1.2187347 -0.890625 2.0937347q-0.609375 0.859375 -1.53125 1.328125q-0.921875 0.46875 -2.109375 0.46875zm-1.28125 -0.828125l1.390625 0q0.96875 0 1.671875 -0.375q0.71875 -0.375 1.171875 -1.046875q0.453125 -0.68748474 0.65625 -1.6406097q0.203125 -0.9375 0.03125 -1.609375q-0.15625 -0.6875 -0.6875 -1.046875q-0.53125 -0.375 -1.4375 -0.375l-1.5 0l-1.296875 6.0937347zm8.831055 0.953125q-0.828125 0 -1.359375 -0.375q-0.515625 -0.375 -0.703125 -1.046875q-0.1875 -0.671875 0 -1.5624847q0.1875 -0.890625 0.65625 -1.578125q0.484375 -0.6875 1.140625 -1.0625q0.671875 -0.390625 1.453125 -0.390625q0.46875 0 0.875 0.15625q0.40625 0.15625 0.703125 0.5q0.296875 0.328125 0.390625 0.890625q0.09375 0.546875 -0.078125 1.359375l-0.09375 0.37498474l-4.46875 0l0.171875 -0.76560974l3.5625 0q0.109375 -0.5 -0.015625 -0.875q-0.109375 -0.390625 -0.421875 -0.609375q-0.3125 -0.234375 -0.796875 -0.234375q-0.53125 0 -0.96875 0.265625q-0.4375 0.265625 -0.734375 0.6875q-0.296875 0.421875 -0.40625 0.90625l-0.109375 0.515625q-0.140625 0.65623474 -0.015625 1.1093597q0.140625 0.453125 0.5 0.6875q0.359375 0.234375 0.890625 0.234375q0.359375 0 0.65625 -0.09375q0.3125 -0.09375 0.5625 -0.296875q0.25 -0.203125 0.4375 -0.515625l0.8125 0.25q-0.234375 0.4375 -0.625 0.765625q-0.390625 0.328125 -0.90625 0.515625q-0.515625 0.1875 -1.109375 0.1875zm6.1279297 0q-0.8125 0 -1.3125 -0.390625q-0.5 -0.390625 -0.6875 -1.0625q-0.171875 -0.671875 0.015625 -1.5468597q0.1875 -0.890625 0.65625 -1.5625q0.484375 -0.6875 1.140625 -1.0625q0.671875 -0.390625 1.453125 -0.390625q0.625 0 1.0625 0.234375q0.453125 0.21875 0.671875 0.640625q0.234375 0.40625 0.1875 0.9375l-0.890625 0q-0.015625 -0.390625 -0.3125 -0.703125q-0.28125 -0.3125 -0.875 -0.3125q-0.515625 0 -0.96875 0.28125q-0.4375 0.265625 -0.765625 0.765625q-0.328125 0.484375 -0.453125 1.140625q-0.15625 0.67185974 -0.046875 1.1718597q0.109375 0.5 0.4375 0.78125q0.34375 0.265625 0.859375 0.265625q0.359375 0 0.671875 -0.109375q0.3125 -0.125 0.546875 -0.34375q0.25 -0.234375 0.40625 -0.5625l0.890625 0q-0.1875 0.515625 -0.578125 0.9375q-0.375 0.40625 -0.921875 0.65625q-0.53125 0.234375 -1.1875 0.234375zm3.6206055 -0.125l1.234375 -5.8124847l0.890625 0l-1.234375 5.8124847l-0.890625 0zm1.890625 -6.7812347q-0.25 0 -0.40625 -0.171875q-0.140625 -0.1875 -0.078125 -0.4375q0.046875 -0.25 0.265625 -0.421875q0.234375 -0.1875 0.484375 -0.1875q0.265625 0 0.40625 0.1875q0.15625 0.171875 0.109375 0.421875q-0.0625 0.25 -0.296875 0.4375q-0.21875 0.171875 -0.484375 0.171875zm5.715332 2.265625l-0.859375 0.234375q-0.015625 -0.203125 -0.125 -0.390625q-0.109375 -0.1875 -0.328125 -0.3125q-0.21875 -0.125 -0.609375 -0.125q-0.53125 0 -0.9375 0.25q-0.40625 0.234375 -0.484375 0.609375q-0.078125 0.328125 0.125 0.53125q0.203125 0.1875 0.6875 0.3125l0.8125 0.21875q0.75 0.1875 1.046875 0.57810974q0.296875 0.375 0.171875 0.984375q-0.109375 0.5 -0.484375 0.90625q-0.375 0.390625 -0.9375 0.625q-0.546875 0.21875 -1.234375 0.21875q-0.890625 0 -1.390625 -0.390625q-0.484375 -0.390625 -0.484375 -1.125l0.890625 -0.21875q0.03125 0.46875 0.3125 0.703125q0.28125 0.234375 0.828125 0.234375q0.625 0 1.046875 -0.265625q0.4375 -0.265625 0.515625 -0.640625q0.078125 -0.296875 -0.109375 -0.5q-0.171875 -0.21875 -0.578125 -0.3125l-0.921875 -0.234375q-0.765625 -0.18748474 -1.0625 -0.57810974q-0.28125 -0.40625 -0.15625 -1.0q0.109375 -0.5 0.46875 -0.875q0.359375 -0.375 0.890625 -0.59375q0.53125 -0.21875 1.140625 -0.21875q0.859375 0 1.265625 0.390625q0.421875 0.375 0.5 0.984375zm0.4921875 4.5156097l1.234375 -5.8124847l0.890625 0l-1.234375 5.8124847l-0.890625 0zm1.890625 -6.7812347q-0.25 0 -0.40625 -0.171875q-0.140625 -0.1875 -0.078125 -0.4375q0.046875 -0.25 0.265625 -0.421875q0.234375 -0.1875 0.484375 -0.1875q0.265625 0 0.40625 0.1875q0.15625 0.171875 0.109375 0.421875q-0.0625 0.25 -0.296875 0.4375q-0.21875 0.171875 -0.484375 0.171875zm2.965332 6.9062347q-0.78125 0 -1.296875 -0.375q-0.5 -0.375 -0.6875 -1.046875q-0.1875 -0.671875 0 -1.5781097q0.1875 -0.90625 0.65625 -1.578125q0.484375 -0.6875 1.15625 -1.0625q0.671875 -0.375 1.453125 -0.375q0.796875 0 1.3125 0.375q0.515625 0.375 0.6875 1.0625q0.1875 0.671875 0 1.578125q-0.1875 0.90623474 -0.65625 1.5781097q-0.46875 0.671875 -1.15625 1.046875q-0.671875 0.375 -1.46875 0.375zm0.171875 -0.8125q0.609375 0 1.0625 -0.296875q0.453125 -0.3125 0.734375 -0.8125q0.296875 -0.5 0.421875 -1.0781097q0.125 -0.578125 0.046875 -1.078125q-0.078125 -0.515625 -0.40625 -0.828125q-0.3125 -0.3125 -0.921875 -0.3125q-0.59375 0 -1.046875 0.3125q-0.4375 0.3125 -0.734375 0.828125q-0.296875 0.5 -0.421875 1.078125q-0.125 0.57810974 -0.046875 1.0781097q0.09375 0.5 0.40625 0.8125q0.3125 0.296875 0.90625 0.296875zm5.498047 -2.8124847l-0.75 3.4999847l-0.890625 0l1.234375 -5.8124847l0.875 0l-0.1875 0.90625l0.0625 0q0.296875 -0.4375 0.765625 -0.703125q0.484375 -0.28125 1.140625 -0.28125q0.59375 0 0.984375 0.25q0.390625 0.234375 0.53125 0.71875q0.140625 0.484375 -0.015625 1.234375l-0.78125 3.6874847l-0.890625 0l0.78125 -3.6406097q0.140625 -0.671875 -0.140625 -1.0625q-0.28125 -0.390625 -0.90625 -0.390625q-0.421875 0 -0.796875 0.1875q-0.375 0.1875 -0.65625 0.546875q-0.265625 0.359375 -0.359375 0.859375z"/><path fill="#303030" fill-rule="nonzero" d="m195.08873 271.51245l-0.546875 -5.8125l0.9375 0l0.3125 4.453125l0.0625 0l2.1875 -4.453125l0.953125 0l0.296875 4.4375l0.046875 0l2.203125 -4.4375l0.9375 0l-3.0 5.8125l-0.890625 0l-0.3125 -4.46875l-0.09375 0l-2.21875 4.46875l-0.875 0zm7.330078 0l1.234375 -5.8125l0.890625 0l-1.234375 5.8125l-0.890625 0zm1.890625 -6.78125q-0.25 0 -0.40625 -0.171875q-0.140625 -0.1875 -0.078125 -0.4375q0.046875 -0.25 0.265625 -0.421875q0.234375 -0.1875 0.484375 -0.1875q0.265625 0 0.40625 0.1875q0.15625 0.171875 0.109375 0.421875q-0.0625 0.25 -0.296875 0.4375q-0.21875 0.171875 -0.484375 0.171875zm4.402832 0.96875l-0.15625 0.75l-3.015625 0l0.15625 -0.75l3.015625 0zm-1.828125 -1.390625l0.890625 0l-1.171875 5.53125q-0.09375 0.390625 -0.03125 0.578125q0.078125 0.1875 0.234375 0.25q0.171875 0.0625 0.375 0.0625q0.15625 0 0.25 -0.015625q0.09375 -0.03125 0.140625 -0.03125l0.015625 0.796875q-0.09375 0.03125 -0.265625 0.0625q-0.171875 0.046875 -0.421875 0.046875q-0.375 0 -0.703125 -0.15625q-0.328125 -0.171875 -0.484375 -0.5q-0.15625 -0.34375 -0.0625 -0.84375l1.234375 -5.78125zm3.6993256 3.703125l-0.75 3.5l-0.890625 0l1.640625 -7.75l0.890625 0l-0.59375 2.84375l0.078125 0q0.296875 -0.453125 0.765625 -0.71875q0.46875 -0.265625 1.15625 -0.265625q0.59375 0 0.984375 0.234375q0.40625 0.234375 0.546875 0.734375q0.140625 0.484375 -0.015625 1.234375l-0.78125 3.6875l-0.890625 0l0.78125 -3.640625q0.140625 -0.6875 -0.140625 -1.0625q-0.28125 -0.390625 -0.921875 -0.390625q-0.4375 0 -0.828125 0.1875q-0.375 0.1875 -0.65625 0.546875q-0.28125 0.359375 -0.375 0.859375z"/><path fill="#303030" fill-rule="nonzero" d="m182.4233 284.31244l1.234375 -5.8125l0.875 0l-0.1875 0.90625l0.0625 0q0.28125 -0.46875 0.734375 -0.71875q0.46875 -0.265625 1.03125 -0.265625q0.578125 0 0.90625 0.265625q0.328125 0.25 0.453125 0.71875l0.0625 0q0.3125 -0.453125 0.8125 -0.71875q0.5 -0.265625 1.125 -0.265625q0.78125 0 1.171875 0.484375q0.40625 0.484375 0.1875 1.515625l-0.828125 3.890625l-0.90625 0l0.828125 -3.890625q0.140625 -0.640625 -0.15625 -0.921875q-0.296875 -0.28125 -0.765625 -0.28125q-0.609375 0 -1.03125 0.375q-0.40625 0.375 -0.53125 0.9375l-0.796875 3.78125l-0.921875 0l0.84375 -3.984375q0.109375 -0.5 -0.15625 -0.796875q-0.25 -0.3125 -0.75 -0.3125q-0.359375 0 -0.703125 0.1875q-0.328125 0.1875 -0.59375 0.515625q-0.25 0.328125 -0.328125 0.75l-0.78125 3.640625l-0.890625 0zm10.951172 0.140625q-0.5625 0 -0.96875 -0.203125q-0.390625 -0.21875 -0.578125 -0.609375q-0.171875 -0.40625 -0.046875 -0.984375q0.09375 -0.5 0.359375 -0.8125q0.265625 -0.3125 0.625 -0.484375q0.375 -0.171875 0.78125 -0.265625q0.421875 -0.09375 0.84375 -0.140625q0.546875 -0.0625 0.890625 -0.09375q0.34375 -0.046875 0.5 -0.125q0.171875 -0.09375 0.21875 -0.3125l0 -0.03125q0.125 -0.5625 -0.125 -0.859375q-0.234375 -0.3125 -0.84375 -0.3125q-0.640625 0 -1.0625 0.28125q-0.421875 0.265625 -0.640625 0.59375l-0.765625 -0.3125q0.328125 -0.53125 0.765625 -0.828125q0.453125 -0.296875 0.921875 -0.40625q0.484375 -0.125 0.921875 -0.125q0.28125 0 0.625 0.078125q0.34375 0.0625 0.640625 0.265625q0.3125 0.203125 0.4375 0.625q0.140625 0.40625 0 1.09375l-0.8125 3.828125l-0.890625 0l0.171875 -0.78125l-0.046875 0q-0.140625 0.1875 -0.40625 0.40625q-0.25 0.203125 -0.640625 0.359375q-0.375 0.15625 -0.875 0.15625zm0.3125 -0.8125q0.515625 0 0.921875 -0.203125q0.421875 -0.203125 0.671875 -0.53125q0.265625 -0.328125 0.34375 -0.703125l0.171875 -0.8125q-0.078125 0.0625 -0.28125 0.125q-0.203125 0.046875 -0.46875 0.09375q-0.25 0.03125 -0.484375 0.0625q-0.234375 0.03125 -0.390625 0.046875q-0.34375 0.046875 -0.671875 0.15625q-0.3125 0.09375 -0.546875 0.296875q-0.234375 0.203125 -0.296875 0.53125q-0.09375 0.46875 0.1875 0.703125q0.296875 0.234375 0.84375 0.234375zm7.7749023 -5.140625l-0.15625 0.75l-3.015625 0l0.15625 -0.75l3.015625 0zm-1.828125 -1.390625l0.890625 0l-1.171875 5.53125q-0.09375 0.390625 -0.03125 0.578125q0.078125 0.1875 0.234375 0.25q0.171875 0.0625 0.375 0.0625q0.15625 0 0.25 -0.015625q0.09375 -0.03125 0.140625 -0.03125l0.015625 0.796875q-0.09375 0.03125 -0.265625 0.0625q-0.171875 0.046875 -0.421875 0.046875q-0.375 0 -0.703125 -0.15625q-0.328125 -0.171875 -0.484375 -0.5q-0.15625 -0.34375 -0.0625 -0.84375l1.234375 -5.78125zm4.205017 7.328125q-0.8125 0 -1.3125 -0.390625q-0.5 -0.390625 -0.6875 -1.0625q-0.171875 -0.671875 0.015625 -1.546875q0.1875 -0.890625 0.65625 -1.5625q0.484375 -0.6875 1.140625 -1.0625q0.671875 -0.390625 1.453125 -0.390625q0.625 0 1.0625 0.234375q0.453125 0.21875 0.671875 0.640625q0.234375 0.40625 0.1875 0.9375l-0.890625 0q-0.015625 -0.390625 -0.3125 -0.703125q-0.28125 -0.3125 -0.875 -0.3125q-0.515625 0 -0.96875 0.28125q-0.4375 0.265625 -0.765625 0.765625q-0.328125 0.484375 -0.453125 1.140625q-0.15625 0.671875 -0.046875 1.171875q0.109375 0.5 0.4375 0.78125q0.34375 0.265625 0.859375 0.265625q0.359375 0 0.671875 -0.109375q0.3125 -0.125 0.546875 -0.34375q0.25 -0.234375 0.40625 -0.5625l0.890625 0q-0.1875 0.515625 -0.578125 0.9375q-0.375 0.40625 -0.921875 0.65625q-0.53125 0.234375 -1.1875 0.234375zm5.2612305 -3.625l-0.75 3.5l-0.890625 0l1.640625 -7.75l0.890625 0l-0.59375 2.84375l0.078125 0q0.296875 -0.453125 0.765625 -0.71875q0.46875 -0.265625 1.15625 -0.265625q0.59375 0 0.984375 0.234375q0.40625 0.234375 0.546875 0.734375q0.140625 0.484375 -0.015625 1.234375l-0.78125 3.6875l-0.890625 0l0.78125 -3.640625q0.140625 -0.6875 -0.140625 -1.0625q-0.28125 -0.390625 -0.921875 -0.390625q-0.4375 0 -0.828125 0.1875q-0.375 0.1875 -0.65625 0.546875q-0.28125 0.359375 -0.375 0.859375zm7.0625 3.625q-0.828125 0 -1.359375 -0.375q-0.515625 -0.375 -0.703125 -1.046875q-0.1875 -0.671875 0 -1.5625q0.1875 -0.890625 0.65625 -1.578125q0.484375 -0.6875 1.140625 -1.0625q0.671875 -0.390625 1.453125 -0.390625q0.46875 0 0.875 0.15625q0.40625 0.15625 0.703125 0.5q0.296875 0.328125 0.390625 0.890625q0.09375 0.546875 -0.078125 1.359375l-0.09375 0.375l-4.46875 0l0.171875 -0.765625l3.5625 0q0.109375 -0.5 -0.015625 -0.875q-0.109375 -0.390625 -0.421875 -0.609375q-0.3125 -0.234375 -0.796875 -0.234375q-0.53125 0 -0.96875 0.265625q-0.4375 0.265625 -0.734375 0.6875q-0.296875 0.421875 -0.40625 0.90625l-0.109375 0.515625q-0.140625 0.65625 -0.015625 1.109375q0.140625 0.453125 0.5 0.6875q0.359375 0.234375 0.890625 0.234375q0.359375 0 0.65625 -0.09375q0.3125 -0.09375 0.5625 -0.296875q0.25 -0.203125 0.4375 -0.515625l0.8125 0.25q-0.234375 0.4375 -0.625 0.765625q-0.390625 0.328125 -0.90625 0.515625q-0.515625 0.1875 -1.109375 0.1875zm5.9716797 0q-0.734375 0 -1.21875 -0.359375q-0.46875 -0.375 -0.640625 -1.046875q-0.15625 -0.6875 0.03125 -1.609375q0.203125 -0.921875 0.65625 -1.59375q0.453125 -0.671875 1.09375 -1.03125q0.640625 -0.375 1.375 -0.375q0.5625 0 0.84375 0.1875q0.296875 0.1875 0.421875 0.421875q0.140625 0.234375 0.203125 0.390625l0.078125 0l0.59375 -2.859375l0.890625 0l-1.640625 7.75l-0.859375 0l0.1875 -0.890625l-0.109375 0q-0.125 0.15625 -0.359375 0.40625q-0.234375 0.234375 -0.609375 0.421875q-0.375 0.1875 -0.9375 0.1875zm0.296875 -0.8125q0.53125 0 0.953125 -0.28125q0.4375 -0.28125 0.734375 -0.78125q0.3125 -0.5 0.453125 -1.15625q0.125 -0.65625 0.046875 -1.140625q-0.078125 -0.484375 -0.40625 -0.765625q-0.3125 -0.28125 -0.84375 -0.28125q-0.578125 0 -1.015625 0.296875q-0.4375 0.296875 -0.734375 0.796875q-0.28125 0.484375 -0.40625 1.09375q-0.140625 0.625 -0.0625 1.125q0.078125 0.5 0.390625 0.796875q0.328125 0.296875 0.890625 0.296875z"/><path fill="#303030" fill-rule="nonzero" d="m176.64497 297.11243l1.640625 -7.75l4.640625 0l-0.171875 0.828125l-3.703125 0l-0.5625 2.625l3.359375 0l-0.171875 0.828125l-3.359375 0l-0.734375 3.46875l-0.9375 0zm8.657715 -7.75l-1.640625 7.75l-0.890625 0l1.640625 -7.75l0.890625 0zm4.168457 5.375l0.734375 -3.4375l0.890625 0l-1.234375 5.8125l-0.890625 0l0.203125 -0.984375l-0.0625 0q-0.296875 0.4375 -0.796875 0.75q-0.484375 0.3125 -1.15625 0.3125q-0.53125 0 -0.90625 -0.234375q-0.375 -0.25 -0.515625 -0.734375q-0.140625 -0.484375 0.015625 -1.234375l0.78125 -3.6875l0.890625 0l-0.765625 3.625q-0.140625 0.640625 0.140625 1.03125q0.28125 0.375 0.84375 0.375q0.328125 0 0.703125 -0.171875q0.375 -0.171875 0.6875 -0.515625q0.328125 -0.359375 0.4375 -0.90625zm3.925293 -3.4375l0.890625 2.375l1.890625 -2.375l1.03125 0l-2.484375 2.90625l1.25 2.90625l-1.03125 0l-0.90625 -2.25l-1.875 2.25l-1.03125 0l2.46875 -2.90625l-1.234375 -2.90625l1.03125 0zm5.611328 -1.9375l1.125 0l1.265625 6.4375l0.09375 0l4.0 -6.4375l1.109375 0l-1.640625 7.75l-0.875 0l1.25 -5.890625l-0.078125 0l-3.671875 5.890625l-0.84375 0l-1.171875 -5.890625l-0.078125 0l-1.25 5.890625l-0.875 0l1.640625 -7.75zm10.116211 7.875q-0.828125 0 -1.359375 -0.375q-0.515625 -0.375 -0.703125 -1.046875q-0.1875 -0.671875 0 -1.5625q0.1875 -0.890625 0.65625 -1.578125q0.484375 -0.6875 1.140625 -1.0625q0.671875 -0.390625 1.453125 -0.390625q0.46875 0 0.875 0.15625q0.40625 0.15625 0.703125 0.5q0.296875 0.328125 0.390625 0.890625q0.09375 0.546875 -0.078125 1.359375l-0.09375 0.375l-4.46875 0l0.171875 -0.765625l3.5625 0q0.109375 -0.5 -0.015625 -0.875q-0.109375 -0.390625 -0.421875 -0.609375q-0.3125 -0.234375 -0.796875 -0.234375q-0.53125 0 -0.96875 0.265625q-0.4375 0.265625 -0.734375 0.6875q-0.296875 0.421875 -0.40625 0.90625l-0.109375 0.515625q-0.140625 0.65625 -0.015625 1.109375q0.140625 0.453125 0.5 0.6875q0.359375 0.234375 0.890625 0.234375q0.359375 0 0.65625 -0.09375q0.3125 -0.09375 0.5625 -0.296875q0.25 -0.203125 0.4375 -0.515625l0.8125 0.25q-0.234375 0.4375 -0.625 0.765625q-0.390625 0.328125 -0.90625 0.515625q-0.515625 0.1875 -1.109375 0.1875zm7.5654297 -5.9375l-0.15625 0.75l-3.015625 0l0.15625 -0.75l3.015625 0zm-1.828125 -1.390625l0.890625 0l-1.171875 5.53125q-0.09375 0.390625 -0.03125 0.578125q0.078125 0.1875 0.234375 0.25q0.171875 0.0625 0.375 0.0625q0.15625 0 0.25 -0.015625q0.09375 -0.03125 0.140625 -0.03125l0.015625 0.796875q-0.09375 0.03125 -0.265625 0.0625q-0.171875 0.046875 -0.421875 0.046875q-0.375 0 -0.703125 -0.15625q-0.328125 -0.171875 -0.484375 -0.5q-0.15625 -0.34375 -0.0625 -0.84375l1.234375 -5.78125zm4.283142 7.328125q-0.828125 0 -1.359375 -0.375q-0.515625 -0.375 -0.703125 -1.046875q-0.1875 -0.671875 0 -1.5625q0.1875 -0.890625 0.65625 -1.578125q0.484375 -0.6875 1.140625 -1.0625q0.671875 -0.390625 1.453125 -0.390625q0.46875 0 0.875 0.15625q0.40625 0.15625 0.703125 0.5q0.296875 0.328125 0.390625 0.890625q0.09375 0.546875 -0.078125 1.359375l-0.09375 0.375l-4.46875 0l0.171875 -0.765625l3.5625 0q0.109375 -0.5 -0.015625 -0.875q-0.109375 -0.390625 -0.421875 -0.609375q-0.3125 -0.234375 -0.796875 -0.234375q-0.53125 0 -0.96875 0.265625q-0.4375 0.265625 -0.734375 0.6875q-0.296875 0.421875 -0.40625 0.90625l-0.109375 0.515625q-0.140625 0.65625 -0.015625 1.109375q0.140625 0.453125 0.5 0.6875q0.359375 0.234375 0.890625 0.234375q0.359375 0 0.65625 -0.09375q0.3125 -0.09375 0.5625 -0.296875q0.25 -0.203125 0.4375 -0.515625l0.8125 0.25q-0.234375 0.4375 -0.625 0.765625q-0.390625 0.328125 -0.90625 0.515625q-0.515625 0.1875 -1.109375 0.1875zm3.7998047 -0.125l1.234375 -5.8125l0.875 0l-0.1875 0.875l0.046875 0q0.265625 -0.421875 0.734375 -0.6875q0.46875 -0.28125 0.984375 -0.28125q0.109375 0 0.25 0.015625q0.140625 0 0.21875 0l-0.1875 0.90625q-0.046875 0 -0.203125 -0.03125q-0.140625 -0.03125 -0.328125 -0.03125q-0.421875 0 -0.796875 0.1875q-0.359375 0.171875 -0.625 0.484375q-0.265625 0.296875 -0.34375 0.703125l-0.78125 3.671875l-0.890625 0zm9.043945 -4.515625l-0.859375 0.234375q-0.015625 -0.203125 -0.125 -0.390625q-0.109375 -0.1875 -0.328125 -0.3125q-0.21875 -0.125 -0.609375 -0.125q-0.53125 0 -0.9375 0.25q-0.40625 0.234375 -0.484375 0.609375q-0.078125 0.328125 0.125 0.53125q0.203125 0.1875 0.6875 0.3125l0.8125 0.21875q0.75 0.1875 1.046875 0.578125q0.296875 0.375 0.171875 0.984375q-0.109375 0.5 -0.484375 0.90625q-0.375 0.390625 -0.9375 0.625q-0.546875 0.21875 -1.234375 0.21875q-0.890625 0 -1.390625 -0.390625q-0.484375 -0.390625 -0.484375 -1.125l0.890625 -0.21875q0.03125 0.46875 0.3125 0.703125q0.28125 0.234375 0.828125 0.234375q0.625 0 1.046875 -0.265625q0.4375 -0.265625 0.515625 -0.640625q0.078125 -0.296875 -0.109375 -0.5q-0.171875 -0.21875 -0.578125 -0.3125l-0.921875 -0.234375q-0.765625 -0.1875 -1.0625 -0.578125q-0.28125 -0.40625 -0.15625 -1.0q0.109375 -0.5 0.46875 -0.875q0.359375 -0.375 0.890625 -0.59375q0.53125 -0.21875 1.140625 -0.21875q0.859375 0 1.265625 0.390625q0.421875 0.375 0.5 0.984375z"/><path fill="#000" fill-opacity="0" fill-rule="evenodd" d="m573.72705 235.47244l-141.98428 0"/><path fill-rule="evenodd" stroke="#8f8e8d" stroke-linecap="butt" stroke-linejoin="round" stroke-width="1" d="m570.2999 235.47244l-135.13007 0"/><path fill="#8f8e8d" fill-rule="evenodd" stroke="#8f8e8d" stroke-linecap="butt" stroke-width="1" d="m570.2999 235.47244l-1.1245728 1.124588l3.0897827 -1.124588l-3.0897827 -1.124588z"/><path fill="#8f8e8d" fill-rule="evenodd" stroke="#8f8e8d" stroke-linecap="butt" stroke-width="1" d="m435.16986 235.47244l1.1246033 -1.124588l-3.0897827 1.124588l3.0897827 1.124588z"/><path fill="#000" fill-opacity="0" fill-rule="evenodd" d="m463.3832 181.29921l98.80313 0l0 58.173233l-98.80313 0z"/><path fill="#000" fill-rule="nonzero" d="m480.2421 200.53922l-0.984375 0l4.5 -7.75l0.96875 0l1.203125 7.75l-0.984375 0l-0.921875 -6.53125l-0.0625 0l-3.71875 6.53125zm1.015625 -3.03125l3.953125 0l-0.171875 0.84375l-3.953125 0l0.171875 -0.84375zm7.923828 3.15625q-0.734375 0 -1.21875 -0.359375q-0.46875 -0.375 -0.640625 -1.046875q-0.15625 -0.6875 0.03125 -1.609375q0.203125 -0.921875 0.65625 -1.59375q0.453125 -0.671875 1.09375 -1.03125q0.640625 -0.375 1.375 -0.375q0.5625 0 0.84375 0.1875q0.296875 0.1875 0.421875 0.421875q0.140625 0.234375 0.203125 0.390625l0.078125 0l0.59375 -2.859375l0.890625 0l-1.640625 7.75l-0.859375 0l0.1875 -0.890625l-0.109375 0q-0.125 0.15625 -0.359375 0.40625q-0.234375 0.234375 -0.609375 0.421875q-0.375 0.1875 -0.9375 0.1875zm0.296875 -0.8125q0.53125 0 0.953125 -0.28125q0.4375 -0.28125 0.734375 -0.78125q0.3125 -0.5 0.453125 -1.15625q0.125 -0.65625 0.046875 -1.140625q-0.078125 -0.484375 -0.40625 -0.765625q-0.3125 -0.28125 -0.84375 -0.28125q-0.578125 0 -1.015625 0.296875q-0.4375 0.296875 -0.734375 0.796875q-0.28125 0.484375 -0.40625 1.09375q-0.140625 0.625 -0.0625 1.125q0.078125 0.5 0.390625 0.796875q0.328125 0.296875 0.890625 0.296875zm6.317871 0.8125q-0.734375 0 -1.21875 -0.359375q-0.46875 -0.375 -0.640625 -1.046875q-0.15625 -0.6875 0.03125 -1.609375q0.203125 -0.921875 0.65625 -1.59375q0.453125 -0.671875 1.09375 -1.03125q0.640625 -0.375 1.375 -0.375q0.5625 0 0.84375 0.1875q0.296875 0.1875 0.421875 0.421875q0.140625 0.234375 0.203125 0.390625l0.078125 0l0.59375 -2.859375l0.890625 0l-1.640625 7.75l-0.859375 0l0.1875 -0.890625l-0.109375 0q-0.125 0.15625 -0.359375 0.40625q-0.234375 0.234375 -0.609375 0.421875q-0.375 0.1875 -0.9375 0.1875zm0.296875 -0.8125q0.53125 0 0.953125 -0.28125q0.4375 -0.28125 0.734375 -0.78125q0.3125 -0.5 0.453125 -1.15625q0.125 -0.65625 0.046875 -1.140625q-0.078125 -0.484375 -0.40625 -0.765625q-0.3125 -0.28125 -0.84375 -0.28125q-0.578125 0 -1.015625 0.296875q-0.4375 0.296875 -0.734375 0.796875q-0.28125 0.484375 -0.40625 1.09375q-0.140625 0.625 -0.0625 1.125q0.078125 0.5 0.390625 0.796875q0.328125 0.296875 0.890625 0.296875zm7.1430664 0.6875l1.234375 -5.8125l0.875 0l-0.1875 0.90625l0.0625 0q0.28125 -0.46875 0.734375 -0.71875q0.46875 -0.265625 1.03125 -0.265625q0.578125 0 0.90625 0.265625q0.328125 0.25 0.453125 0.71875l0.0625 0q0.3125 -0.453125 0.8125 -0.71875q0.5 -0.265625 1.125 -0.265625q0.78125 0 1.171875 0.484375q0.40625 0.484375 0.1875 1.515625l-0.828125 3.890625l-0.90625 0l0.828125 -3.890625q0.140625 -0.640625 -0.15625 -0.921875q-0.296875 -0.28125 -0.765625 -0.28125q-0.609375 0 -1.03125 0.375q-0.40625 0.375 -0.53125 0.9375l-0.796875 3.78125l-0.921875 0l0.84375 -3.984375q0.109375 -0.5 -0.15625 -0.796875q-0.25 -0.3125 -0.75 -0.3125q-0.359375 0 -0.703125 0.1875q-0.328125 0.1875 -0.59375 0.515625q-0.25 0.328125 -0.328125 0.75l-0.78125 3.640625l-0.890625 0zm10.951141 0.140625q-0.5625 0 -0.96875 -0.203125q-0.390625 -0.21875 -0.578125 -0.609375q-0.171875 -0.40625 -0.046875 -0.984375q0.09375 -0.5 0.359375 -0.8125q0.265625 -0.3125 0.625 -0.484375q0.375 -0.171875 0.78125 -0.265625q0.421875 -0.09375 0.84375 -0.140625q0.546875 -0.0625 0.890625 -0.09375q0.34375 -0.046875 0.5 -0.125q0.171875 -0.09375 0.21875 -0.3125l0 -0.03125q0.125 -0.5625 -0.125 -0.859375q-0.234375 -0.3125 -0.84375 -0.3125q-0.640625 0 -1.0625 0.28125q-0.421875 0.265625 -0.640625 0.59375l-0.765625 -0.3125q0.328125 -0.53125 0.765625 -0.828125q0.453125 -0.296875 0.921875 -0.40625q0.484375 -0.125 0.921875 -0.125q0.28125 0 0.625 0.078125q0.34375 0.0625 0.640625 0.265625q0.3125 0.203125 0.4375 0.625q0.140625 0.40625 0 1.09375l-0.8125 3.828125l-0.890625 0l0.171875 -0.78125l-0.046875 0q-0.140625 0.1875 -0.40625 0.40625q-0.25 0.203125 -0.640625 0.359375q-0.375 0.15625 -0.875 0.15625zm0.3125 -0.8125q0.515625 0 0.921875 -0.203125q0.421875 -0.203125 0.671875 -0.53125q0.265625 -0.328125 0.34375 -0.703125l0.171875 -0.8125q-0.078125 0.0625 -0.28125 0.125q-0.203125 0.046875 -0.46875 0.09375q-0.25 0.03125 -0.484375 0.0625q-0.234375 0.03125 -0.390625 0.046875q-0.34375 0.046875 -0.671875 0.15625q-0.3125 0.09375 -0.546875 0.296875q-0.234375 0.203125 -0.296875 0.53125q-0.09375 0.46875 0.1875 0.703125q0.296875 0.234375 0.84375 0.234375zm7.7749023 -5.140625l-0.15625 0.75l-3.015625 0l0.15625 -0.75l3.015625 0zm-1.828125 -1.390625l0.890625 0l-1.171875 5.53125q-0.09375 0.390625 -0.03125 0.578125q0.078125 0.1875 0.234375 0.25q0.171875 0.0625 0.375 0.0625q0.15625 0 0.25 -0.015625q0.09375 -0.03125 0.140625 -0.03125l0.015625 0.796875q-0.09375 0.03125 -0.265625 0.0625q-0.171875 0.046875 -0.421875 0.046875q-0.375 0 -0.703125 -0.15625q-0.328125 -0.171875 -0.484375 -0.5q-0.15625 -0.34375 -0.0625 -0.84375l1.234375 -5.78125zm4.205017 7.328125q-0.8125 0 -1.3125 -0.390625q-0.5 -0.390625 -0.6875 -1.0625q-0.171875 -0.671875 0.015625 -1.546875q0.1875 -0.890625 0.65625 -1.5625q0.484375 -0.6875 1.140625 -1.0625q0.671875 -0.390625 1.453125 -0.390625q0.625 0 1.0625 0.234375q0.453125 0.21875 0.671875 0.640625q0.234375 0.40625 0.1875 0.9375l-0.890625 0q-0.015625 -0.390625 -0.3125 -0.703125q-0.28125 -0.3125 -0.875 -0.3125q-0.515625 0 -0.96875 0.28125q-0.4375 0.265625 -0.765625 0.765625q-0.328125 0.484375 -0.453125 1.140625q-0.15625 0.671875 -0.046875 1.171875q0.109375 0.5 0.4375 0.78125q0.34375 0.265625 0.859375 0.265625q0.359375 0 0.671875 -0.109375q0.3125 -0.125 0.546875 -0.34375q0.25 -0.234375 0.40625 -0.5625l0.890625 0q-0.1875 0.515625 -0.578125 0.9375q-0.375 0.40625 -0.921875 0.65625q-0.53125 0.234375 -1.1875 0.234375zm5.2612305 -3.625l-0.75 3.5l-0.890625 0l1.640625 -7.75l0.890625 0l-0.59375 2.84375l0.078125 0q0.296875 -0.453125 0.765625 -0.71875q0.46875 -0.265625 1.15625 -0.265625q0.59375 0 0.984375 0.234375q0.40625 0.234375 0.546875 0.734375q0.140625 0.484375 -0.015625 1.234375l-0.78125 3.6875l-0.890625 0l0.78125 -3.640625q0.140625 -0.6875 -0.140625 -1.0625q-0.28125 -0.390625 -0.921875 -0.390625q-0.4375 0 -0.828125 0.1875q-0.375 0.1875 -0.65625 0.546875q-0.28125 0.359375 -0.375 0.859375zm7.0625 3.625q-0.828125 0 -1.359375 -0.375q-0.515625 -0.375 -0.703125 -1.046875q-0.1875 -0.671875 0 -1.5625q0.1875 -0.890625 0.65625 -1.578125q0.484375 -0.6875 1.140625 -1.0625q0.671875 -0.390625 1.453125 -0.390625q0.46875 0 0.875 0.15625q0.40625 0.15625 0.703125 0.5q0.296875 0.328125 0.390625 0.890625q0.09375 0.546875 -0.078125 1.359375l-0.09375 0.375l-4.46875 0l0.171875 -0.765625l3.5625 0q0.109375 -0.5 -0.015625 -0.875q-0.109375 -0.390625 -0.421875 -0.609375q-0.3125 -0.234375 -0.796875 -0.234375q-0.53125 0 -0.96875 0.265625q-0.4375 0.265625 -0.734375 0.6875q-0.296875 0.421875 -0.40625 0.90625l-0.109375 0.515625q-0.140625 0.65625 -0.015625 1.109375q0.140625 0.453125 0.5 0.6875q0.359375 0.234375 0.890625 0.234375q0.359375 0 0.65625 -0.09375q0.3125 -0.09375 0.5625 -0.296875q0.25 -0.203125 0.4375 -0.515625l0.8125 0.25q-0.234375 0.4375 -0.625 0.765625q-0.390625 0.328125 -0.90625 0.515625q-0.515625 0.1875 -1.109375 0.1875zm5.9716797 0q-0.734375 0 -1.21875 -0.359375q-0.46875 -0.375 -0.640625 -1.046875q-0.15625 -0.6875 0.03125 -1.609375q0.203125 -0.921875 0.65625 -1.59375q0.453125 -0.671875 1.09375 -1.03125q0.640625 -0.375 1.375 -0.375q0.5625 0 0.84375 0.1875q0.296875 0.1875 0.421875 0.421875q0.140625 0.234375 0.203125 0.390625l0.078125 0l0.59375 -2.859375l0.890625 0l-1.640625 7.75l-0.859375 0l0.1875 -0.890625l-0.109375 0q-0.125 0.15625 -0.359375 0.40625q-0.234375 0.234375 -0.609375 0.421875q-0.375 0.1875 -0.9375 0.1875zm0.296875 -0.8125q0.53125 0 0.953125 -0.28125q0.4375 -0.28125 0.734375 -0.78125q0.3125 -0.5 0.453125 -1.15625q0.125 -0.65625 0.046875 -1.140625q-0.078125 -0.484375 -0.40625 -0.765625q-0.3125 -0.28125 -0.84375 -0.28125q-0.578125 0 -1.015625 0.296875q-0.4375 0.296875 -0.734375 0.796875q-0.28125 0.484375 -0.40625 1.09375q-0.140625 0.625 -0.0625 1.125q0.078125 0.5 0.390625 0.796875q0.328125 0.296875 0.890625 0.296875z"/><path fill="#000" fill-rule="nonzero" d="m479.15765 213.33922l1.640625 -7.75l4.640625 0l-0.171875 0.828125l-3.703125 0l-0.5625 2.625l3.359375 0l-0.171875 0.828125l-3.359375 0l-0.734375 3.46875l-0.9375 0zm8.657715 -7.75l-1.640625 7.75l-0.890625 0l1.640625 -7.75l0.890625 0zm4.168457 5.375l0.734375 -3.4375l0.890625 0l-1.234375 5.8125l-0.890625 0l0.203125 -0.984375l-0.0625 0q-0.296875 0.4375 -0.796875 0.75q-0.484375 0.3125 -1.15625 0.3125q-0.53125 0 -0.90625 -0.234375q-0.375 -0.25 -0.515625 -0.734375q-0.140625 -0.484375 0.015625 -1.234375l0.78125 -3.6875l0.890625 0l-0.765625 3.625q-0.140625 0.640625 0.140625 1.03125q0.28125 0.375 0.84375 0.375q0.328125 0 0.703125 -0.171875q0.375 -0.171875 0.6875 -0.515625q0.328125 -0.359375 0.4375 -0.90625zm3.925293 -3.4375l0.890625 2.375l1.890625 -2.375l1.03125 0l-2.484375 2.90625l1.25 2.90625l-1.03125 0l-0.90625 -2.25l-1.875 2.25l-1.03125 0l2.46875 -2.90625l-1.234375 -2.90625l1.03125 0zm5.611328 -1.9375l1.125 0l1.265625 6.4375l0.09375 0l4.0 -6.4375l1.109375 0l-1.640625 7.75l-0.875 0l1.25 -5.890625l-0.078125 0l-3.671875 5.890625l-0.84375 0l-1.171875 -5.890625l-0.078125 0l-1.25 5.890625l-0.875 0l1.640625 -7.75zm10.116211 7.875q-0.828125 0 -1.359375 -0.375q-0.515625 -0.375 -0.703125 -1.046875q-0.1875 -0.671875 0 -1.5625q0.1875 -0.890625 0.65625 -1.578125q0.484375 -0.6875 1.140625 -1.0625q0.671875 -0.390625 1.453125 -0.390625q0.46875 0 0.875 0.15625q0.40625 0.15625 0.703125 0.5q0.296875 0.328125 0.390625 0.890625q0.09375 0.546875 -0.078125 1.359375l-0.09375 0.375l-4.46875 0l0.171875 -0.765625l3.5625 0q0.109375 -0.5 -0.015625 -0.875q-0.109375 -0.390625 -0.421875 -0.609375q-0.3125 -0.234375 -0.796875 -0.234375q-0.53125 0 -0.96875 0.265625q-0.4375 0.265625 -0.734375 0.6875q-0.296875 0.421875 -0.40625 0.90625l-0.109375 0.515625q-0.140625 0.65625 -0.015625 1.109375q0.140625 0.453125 0.5 0.6875q0.359375 0.234375 0.890625 0.234375q0.359375 0 0.65625 -0.09375q0.3125 -0.09375 0.5625 -0.296875q0.25 -0.203125 0.4375 -0.515625l0.8125 0.25q-0.234375 0.4375 -0.625 0.765625q-0.390625 0.328125 -0.90625 0.515625q-0.515625 0.1875 -1.109375 0.1875zm7.5654297 -5.9375l-0.15625 0.75l-3.015625 0l0.15625 -0.75l3.015625 0zm-1.828125 -1.390625l0.890625 0l-1.171875 5.53125q-0.09375 0.390625 -0.03125 0.578125q0.078125 0.1875 0.234375 0.25q0.171875 0.0625 0.375 0.0625q0.15625 0 0.25 -0.015625q0.09375 -0.03125 0.140625 -0.03125l0.015625 0.796875q-0.09375 0.03125 -0.265625 0.0625q-0.171875 0.046875 -0.421875 0.046875q-0.375 0 -0.703125 -0.15625q-0.328125 -0.171875 -0.484375 -0.5q-0.15625 -0.34375 -0.0625 -0.84375l1.234375 -5.78125zm4.283142 7.328125q-0.828125 0 -1.359375 -0.375q-0.515625 -0.375 -0.703125 -1.046875q-0.1875 -0.671875 0 -1.5625q0.1875 -0.890625 0.65625 -1.578125q0.484375 -0.6875 1.140625 -1.0625q0.671875 -0.390625 1.453125 -0.390625q0.46875 0 0.875 0.15625q0.40625 0.15625 0.703125 0.5q0.296875 0.328125 0.390625 0.890625q0.09375 0.546875 -0.078125 1.359375l-0.09375 0.375l-4.46875 0l0.171875 -0.765625l3.5625 0q0.109375 -0.5 -0.015625 -0.875q-0.109375 -0.390625 -0.421875 -0.609375q-0.3125 -0.234375 -0.796875 -0.234375q-0.53125 0 -0.96875 0.265625q-0.4375 0.265625 -0.734375 0.6875q-0.296875 0.421875 -0.40625 0.90625l-0.109375 0.515625q-0.140625 0.65625 -0.015625 1.109375q0.140625 0.453125 0.5 0.6875q0.359375 0.234375 0.890625 0.234375q0.359375 0 0.65625 -0.09375q0.3125 -0.09375 0.5625 -0.296875q0.25 -0.203125 0.4375 -0.515625l0.8125 0.25q-0.234375 0.4375 -0.625 0.765625q-0.390625 0.328125 -0.90625 0.515625q-0.515625 0.1875 -1.109375 0.1875zm3.7998047 -0.125l1.234375 -5.8125l0.875 0l-0.1875 0.875l0.046875 0q0.265625 -0.421875 0.734375 -0.6875q0.46875 -0.28125 0.984375 -0.28125q0.109375 0 0.25 0.015625q0.140625 0 0.21875 0l-0.1875 0.90625q-0.046875 0 -0.203125 -0.03125q-0.140625 -0.03125 -0.328125 -0.03125q-0.421875 0 -0.796875 0.1875q-0.359375 0.171875 -0.625 0.484375q-0.265625 0.296875 -0.34375 0.703125l-0.78125 3.671875l-0.890625 0zm9.043945 -4.515625l-0.859375 0.234375q-0.015625 -0.203125 -0.125 -0.390625q-0.109375 -0.1875 -0.328125 -0.3125q-0.21875 -0.125 -0.609375 -0.125q-0.53125 0 -0.9375 0.25q-0.40625 0.234375 -0.484375 0.609375q-0.078125 0.328125 0.125 0.53125q0.203125 0.1875 0.6875 0.3125l0.8125 0.21875q0.75 0.1875 1.046875 0.578125q0.296875 0.375 0.171875 0.984375q-0.109375 0.5 -0.484375 0.90625q-0.375 0.390625 -0.9375 0.625q-0.546875 0.21875 -1.234375 0.21875q-0.890625 0 -1.390625 -0.390625q-0.484375 -0.390625 -0.484375 -1.125l0.890625 -0.21875q0.03125 0.46875 0.3125 0.703125q0.28125 0.234375 0.828125 0.234375q0.625 0 1.046875 -0.265625q0.4375 -0.265625 0.515625 -0.640625q0.078125 -0.296875 -0.109375 -0.5q-0.171875 -0.21875 -0.578125 -0.3125l-0.921875 -0.234375q-0.765625 -0.1875 -1.0625 -0.578125q-0.28125 -0.40625 -0.15625 -1.0q0.109375 -0.5 0.46875 -0.875q0.359375 -0.375 0.890625 -0.59375q0.53125 -0.21875 1.140625 -0.21875q0.859375 0 1.265625 0.390625q0.421875 0.375 0.5 0.984375zm7.254883 -1.296875l-0.15625 0.75l-3.015625 0l0.15625 -0.75l3.015625 0zm-1.828125 -1.390625l0.890625 0l-1.171875 5.53125q-0.09375 0.390625 -0.03125 0.578125q0.078125 0.1875 0.234375 0.25q0.171875 0.0625 0.375 0.0625q0.15625 0 0.25 -0.015625q0.09375 -0.03125 0.140625 -0.03125l0.015625 0.796875q-0.09375 0.03125 -0.265625 0.0625q-0.171875 0.046875 -0.421875 0.046875q-0.375 0 -0.703125 -0.15625q-0.328125 -0.171875 -0.484375 -0.5q-0.15625 -0.34375 -0.0625 -0.84375l1.234375 -5.78125zm4.205017 7.328125q-0.78125 0 -1.296875 -0.375q-0.5 -0.375 -0.6875 -1.046875q-0.1875 -0.671875 0 -1.578125q0.1875 -0.90625 0.65625 -1.578125q0.484375 -0.6875 1.15625 -1.0625q0.671875 -0.375 1.453125 -0.375q0.796875 0 1.3125 0.375q0.515625 0.375 0.6875 1.0625q0.1875 0.671875 0 1.578125q-0.1875 0.90625 -0.65625 1.578125q-0.46875 0.671875 -1.15625 1.046875q-0.671875 0.375 -1.46875 0.375zm0.171875 -0.8125q0.609375 0 1.0625 -0.296875q0.453125 -0.3125 0.734375 -0.8125q0.296875 -0.5 0.421875 -1.078125q0.125 -0.578125 0.046875 -1.078125q-0.078125 -0.515625 -0.40625 -0.828125q-0.3125 -0.3125 -0.921875 -0.3125q-0.59375 0 -1.046875 0.3125q-0.4375 0.3125 -0.734375 0.828125q-0.296875 0.5 -0.421875 1.078125q-0.125 0.578125 -0.046875 1.078125q0.09375 0.5 0.40625 0.8125q0.3125 0.296875 0.90625 0.296875z"/><path fill="#000" fill-rule="nonzero" d="m494.77454 226.2642q-0.734375 0 -1.21875 -0.359375q-0.46875 -0.375 -0.640625 -1.046875q-0.15625 -0.6875 0.03125 -1.609375q0.203125 -0.921875 0.65625 -1.59375q0.453125 -0.671875 1.09375 -1.03125q0.640625 -0.375 1.375 -0.375q0.5625 0 0.84375 0.1875q0.296875 0.1875 0.421875 0.421875q0.140625 0.234375 0.203125 0.390625l0.078125 0l0.59375 -2.859375l0.890625 0l-1.640625 7.75l-0.859375 0l0.1875 -0.890625l-0.109375 0q-0.125 0.15625 -0.359375 0.40625q-0.234375 0.234375 -0.609375 0.421875q-0.375 0.1875 -0.9375 0.1875zm0.296875 -0.8125q0.53125 0 0.953125 -0.28125q0.4375 -0.28125 0.734375 -0.78125q0.3125 -0.5 0.453125 -1.15625q0.125 -0.65625 0.046875 -1.140625q-0.078125 -0.484375 -0.40625 -0.765625q-0.3125 -0.28125 -0.84375 -0.28125q-0.578125 0 -1.015625 0.296875q-0.4375 0.296875 -0.734375 0.796875q-0.28125 0.484375 -0.40625 1.09375q-0.140625 0.625 -0.0625 1.125q0.078125 0.5 0.390625 0.796875q0.328125 0.296875 0.890625 0.296875zm6.552246 0.8125q-0.828125 0 -1.359375 -0.375q-0.515625 -0.375 -0.703125 -1.046875q-0.1875 -0.671875 0 -1.5625q0.1875 -0.890625 0.65625 -1.578125q0.484375 -0.6875 1.140625 -1.0625q0.671875 -0.390625 1.453125 -0.390625q0.46875 0 0.875 0.15625q0.40625 0.15625 0.703125 0.5q0.296875 0.328125 0.390625 0.890625q0.09375 0.546875 -0.078125 1.359375l-0.09375 0.375l-4.46875 0l0.171875 -0.765625l3.5625 0q0.109375 -0.5 -0.015625 -0.875q-0.109375 -0.390625 -0.421875 -0.609375q-0.3125 -0.234375 -0.796875 -0.234375q-0.53125 0 -0.96875 0.265625q-0.4375 0.265625 -0.734375 0.6875q-0.296875 0.421875 -0.40625 0.90625l-0.109375 0.515625q-0.140625 0.65625 -0.015625 1.109375q0.140625 0.453125 0.5 0.6875q0.359375 0.234375 0.890625 0.234375q0.359375 0 0.65625 -0.09375q0.3125 -0.09375 0.5625 -0.296875q0.25 -0.203125 0.4375 -0.515625l0.8125 0.25q-0.234375 0.4375 -0.625 0.765625q-0.390625 0.328125 -0.90625 0.515625q-0.515625 0.1875 -1.109375 0.1875zm6.1279297 0q-0.8125 0 -1.3125 -0.390625q-0.5 -0.390625 -0.6875 -1.0625q-0.171875 -0.671875 0.015625 -1.546875q0.1875 -0.890625 0.65625 -1.5625q0.484375 -0.6875 1.140625 -1.0625q0.671875 -0.390625 1.453125 -0.390625q0.625 0 1.0625 0.234375q0.453125 0.21875 0.671875 0.640625q0.234375 0.40625 0.1875 0.9375l-0.890625 0q-0.015625 -0.390625 -0.3125 -0.703125q-0.28125 -0.3125 -0.875 -0.3125q-0.515625 0 -0.96875 0.28125q-0.4375 0.265625 -0.765625 0.765625q-0.328125 0.484375 -0.453125 1.140625q-0.15625 0.671875 -0.046875 1.171875q0.109375 0.5 0.4375 0.78125q0.34375 0.265625 0.859375 0.265625q0.359375 0 0.671875 -0.109375q0.3125 -0.125 0.546875 -0.34375q0.25 -0.234375 0.40625 -0.5625l0.890625 0q-0.1875 0.515625 -0.578125 0.9375q-0.375 0.40625 -0.921875 0.65625q-0.53125 0.234375 -1.1875 0.234375zm3.6206055 -0.125l1.234375 -5.8125l0.890625 0l-1.234375 5.8125l-0.890625 0zm1.890625 -6.78125q-0.25 0 -0.40625 -0.171875q-0.140625 -0.1875 -0.078125 -0.4375q0.046875 -0.25 0.265625 -0.421875q0.234375 -0.1875 0.484375 -0.1875q0.265625 0 0.40625 0.1875q0.15625 0.171875 0.109375 0.421875q-0.0625 0.25 -0.296875 0.4375q-0.21875 0.171875 -0.484375 0.171875zm5.715332 2.265625l-0.859375 0.234375q-0.015625 -0.203125 -0.125 -0.390625q-0.109375 -0.1875 -0.328125 -0.3125q-0.21875 -0.125 -0.609375 -0.125q-0.53125 0 -0.9375 0.25q-0.40625 0.234375 -0.484375 0.609375q-0.078125 0.328125 0.125 0.53125q0.203125 0.1875 0.6875 0.3125l0.8125 0.21875q0.75 0.1875 1.046875 0.578125q0.296875 0.375 0.171875 0.984375q-0.109375 0.5 -0.484375 0.90625q-0.375 0.390625 -0.9375 0.625q-0.546875 0.21875 -1.234375 0.21875q-0.890625 0 -1.390625 -0.390625q-0.484375 -0.390625 -0.484375 -1.125l0.890625 -0.21875q0.03125 0.46875 0.3125 0.703125q0.28125 0.234375 0.828125 0.234375q0.625 0 1.046875 -0.265625q0.4375 -0.265625 0.515625 -0.640625q0.078125 -0.296875 -0.109375 -0.5q-0.171875 -0.21875 -0.578125 -0.3125l-0.921875 -0.234375q-0.765625 -0.1875 -1.0625 -0.578125q-0.28125 -0.40625 -0.15625 -1.0q0.109375 -0.5 0.46875 -0.875q0.359375 -0.375 0.890625 -0.59375q0.53125 -0.21875 1.140625 -0.21875q0.859375 0 1.265625 0.390625q0.421875 0.375 0.5 0.984375zm0.4921875 4.515625l1.234375 -5.8125l0.890625 0l-1.234375 5.8125l-0.890625 0zm1.890625 -6.78125q-0.25 0 -0.40625 -0.171875q-0.140625 -0.1875 -0.078125 -0.4375q0.046875 -0.25 0.265625 -0.421875q0.234375 -0.1875 0.484375 -0.1875q0.265625 0 0.40625 0.1875q0.15625 0.171875 0.109375 0.421875q-0.0625 0.25 -0.296875 0.4375q-0.21875 0.171875 -0.484375 0.171875zm2.965332 6.90625q-0.78125 0 -1.296875 -0.375q-0.5 -0.375 -0.6875 -1.046875q-0.1875 -0.671875 0 -1.578125q0.1875 -0.90625 0.65625 -1.578125q0.484375 -0.6875 1.15625 -1.0625q0.671875 -0.375 1.453125 -0.375q0.796875 0 1.3125 0.375q0.515625 0.375 0.6875 1.0625q0.1875 0.671875 0 1.578125q-0.1875 0.90625 -0.65625 1.578125q-0.46875 0.671875 -1.15625 1.046875q-0.671875 0.375 -1.46875 0.375zm0.171875 -0.8125q0.609375 0 1.0625 -0.296875q0.453125 -0.3125 0.734375 -0.8125q0.296875 -0.5 0.421875 -1.078125q0.125 -0.578125 0.046875 -1.078125q-0.078125 -0.515625 -0.40625 -0.828125q-0.3125 -0.3125 -0.921875 -0.3125q-0.59375 0 -1.046875 0.3125q-0.4375 0.3125 -0.734375 0.828125q-0.296875 0.5 -0.421875 1.078125q-0.125 0.578125 -0.046875 1.078125q0.09375 0.5 0.40625 0.8125q0.3125 0.296875 0.90625 0.296875zm5.498047 -2.8125l-0.75 3.5l-0.890625 0l1.234375 -5.8125l0.875 0l-0.1875 0.90625l0.0625 0q0.296875 -0.4375 0.765625 -0.703125q0.484375 -0.28125 1.140625 -0.28125q0.59375 0 0.984375 0.25q0.390625 0.234375 0.53125 0.71875q0.140625 0.484375 -0.015625 1.234375l-0.78125 3.6875l-0.890625 0l0.78125 -3.640625q0.140625 -0.671875 -0.140625 -1.0625q-0.28125 -0.390625 -0.90625 -0.390625q-0.421875 0 -0.796875 0.1875q-0.375 0.1875 -0.65625 0.546875q-0.265625 0.359375 -0.359375 0.859375z"/><path fill="#f27a40" fill-rule="evenodd" d="m443.94635 348.1706l128.80463 0l0 0c16.87378 0 30.552673 12.669586 30.552673 28.298279c0 15.628693 -13.678894 28.298279 -30.552673 28.298279l-128.80463 0l0 0c-16.87378 0 -30.552643 -12.669586 -30.552643 -28.298279c0 -15.628693 13.678864 -28.298279 30.552643 -28.298279z"/><path fill-rule="evenodd" stroke="#303030" stroke-linecap="butt" stroke-linejoin="round" stroke-width="1" d="m443.94635 348.1706l128.80463 0l0 0c16.87378 0 30.552673 12.669586 30.552673 28.298279c0 15.628693 -13.678894 28.298279 -30.552673 28.298279l-128.80463 0l0 0c-16.87378 0 -30.552643 -12.669586 -30.552643 -28.298279c0 -15.628693 13.678864 -28.298279 30.552643 -28.298279z"/><path fill="#000" fill-rule="nonzero" d="m463.38464 376.5501q0 -1.453125 0.4375 -2.4375q0.328125 -0.734375 0.890625 -1.3125q0.5625 -0.578125 1.234375 -0.859375q0.890625 -0.375 2.046875 -0.375q2.109375 0 3.375 1.3125q1.265625 1.296875 1.265625 3.640625q0 2.296875 -1.25 3.609375q-1.25 1.296875 -3.359375 1.296875q-2.125 0 -3.390625 -1.296875q-1.25 -1.296875 -1.25 -3.578125zm1.984375 -0.0625q0 1.625 0.75 2.46875q0.75 0.828125 1.90625 0.828125q1.140625 0 1.875 -0.828125q0.75 -0.828125 0.75 -2.484375q0 -1.640625 -0.71875 -2.453125q-0.71875 -0.8125 -1.90625 -0.8125q-1.203125 0 -1.9375 0.828125q-0.71875 0.8125 -0.71875 2.453125zm10.929565 4.78125l0 -7.921875l-2.84375 0l0 -1.625l7.59375 0l0 1.625l-2.828125 0l0 7.921875l-1.921875 0zm5.9851074 0l0 -9.546875l7.078125 0l0 1.625l-5.15625 0l0 2.109375l4.796875 0l0 1.609375l-4.796875 0l0 2.59375l5.328125 0l0 1.609375l-7.25 0zm8.936615 0l0 -9.46875l1.9375 0l0 7.859375l4.78125 0l0 1.609375l-6.71875 0zm7.8757324 -2.546875l0 -1.828125l3.59375 0l0 1.828125l-3.59375 0zm4.657135 2.546875l0 -9.546875l3.09375 0q1.75 0 2.296875 0.15625q0.8125 0.203125 1.359375 0.921875q0.5625 0.71875 0.5625 1.859375q0 0.875 -0.328125 1.484375q-0.3125 0.59375 -0.8125 0.9375q-0.484375 0.34375 -0.984375 0.453125q-0.703125 0.140625 -2.0 0.140625l-1.265625 0l0 3.59375l-1.921875 0zm1.921875 -7.921875l0 2.703125l1.0625 0q1.140625 0 1.515625 -0.140625q0.390625 -0.15625 0.609375 -0.46875q0.21875 -0.328125 0.21875 -0.75q0 -0.515625 -0.3125 -0.859375q-0.296875 -0.34375 -0.765625 -0.421875q-0.34375 -0.0625 -1.390625 -0.0625l-0.9375 0zm6.9522705 0.078125l0 -1.703125l1.828125 0l0 1.703125l-1.828125 0zm0 7.84375l0 -6.90625l1.828125 0l0 6.90625l-1.828125 0zm3.656067 -6.90625l1.703125 0l0 1.015625q0.328125 -0.53125 0.890625 -0.84375q0.578125 -0.328125 1.265625 -0.328125q1.203125 0 2.03125 0.9375q0.84375 0.9375 0.84375 2.625q0 1.734375 -0.84375 2.703125q-0.84375 0.953125 -2.046875 0.953125q-0.578125 0 -1.046875 -0.21875q-0.453125 -0.234375 -0.96875 -0.796875l0 3.484375l-1.828125 0l0 -9.53125zm1.8125 3.328125q0 1.171875 0.453125 1.734375q0.46875 0.546875 1.125 0.546875q0.640625 0 1.0625 -0.5q0.421875 -0.515625 0.421875 -1.6875q0 -1.078125 -0.4375 -1.609375q-0.4375 -0.53125 -1.078125 -0.53125q-0.671875 0 -1.109375 0.515625q-0.4375 0.515625 -0.4375 1.53125zm10.375732 1.375l1.828125 0.3125q-0.34375 1.0 -1.109375 1.53125q-0.765625 0.515625 -1.890625 0.515625q-1.8125 0 -2.671875 -1.171875q-0.6875 -0.953125 -0.6875 -2.390625q0 -1.71875 0.890625 -2.6875q0.90625 -0.96875 2.28125 -0.96875q1.546875 0 2.4375 1.015625q0.890625 1.015625 0.84375 3.125l-4.578125 0q0.015625 0.8125 0.4375 1.265625q0.421875 0.453125 1.0625 0.453125q0.421875 0 0.71875 -0.234375q0.296875 -0.234375 0.4375 -0.765625zm0.109375 -1.84375q-0.015625 -0.796875 -0.40625 -1.203125q-0.390625 -0.421875 -0.953125 -0.421875q-0.59375 0 -0.984375 0.4375q-0.390625 0.4375 -0.390625 1.1875l2.734375 0zm3.3031006 4.046875l0 -9.546875l1.828125 0l0 9.546875l-1.828125 0zm3.703003 -7.84375l0 -1.703125l1.828125 0l0 1.703125l-1.828125 0zm0 7.84375l0 -6.90625l1.828125 0l0 6.90625l-1.828125 0zm9.999878 0l-1.828125 0l0 -3.53125q0 -1.109375 -0.125 -1.4375q-0.109375 -0.328125 -0.375 -0.515625q-0.265625 -0.1875 -0.640625 -0.1875q-0.46875 0 -0.859375 0.265625q-0.375 0.265625 -0.515625 0.703125q-0.140625 0.421875 -0.140625 1.578125l0 3.125l-1.828125 0l0 -6.90625l1.703125 0l0 1.015625q0.90625 -1.171875 2.28125 -1.171875q0.609375 0 1.109375 0.21875q0.5 0.21875 0.75 0.5625q0.265625 0.328125 0.359375 0.765625q0.109375 0.421875 0.109375 1.21875l0 4.296875zm5.8444824 -2.203125l1.828125 0.3125q-0.34375 1.0 -1.109375 1.53125q-0.765625 0.515625 -1.890625 0.515625q-1.8125 0 -2.671875 -1.171875q-0.6875 -0.953125 -0.6875 -2.390625q0 -1.71875 0.890625 -2.6875q0.90625 -0.96875 2.28125 -0.96875q1.546875 0 2.4375 1.015625q0.890625 1.015625 0.84375 3.125l-4.578125 0q0.015625 0.8125 0.4375 1.265625q0.421875 0.453125 1.0625 0.453125q0.421875 0 0.71875 -0.234375q0.296875 -0.234375 0.4375 -0.765625zm0.109375 -1.84375q-0.015625 -0.796875 -0.40625 -1.203125q-0.390625 -0.421875 -0.953125 -0.421875q-0.59375 0 -0.984375 0.4375q-0.390625 0.4375 -0.390625 1.1875l2.734375 0z"/><path fill="#000" fill-opacity="0" fill-rule="evenodd" d="m92.08662 266.6378l0 109.82678l321.32285 0"/><path fill-rule="evenodd" stroke="#8f8e8d" stroke-linecap="butt" stroke-linejoin="round" stroke-width="1" d="m92.08662 266.6378l0 109.82678l317.89575 0"/><path fill="#8f8e8d" fill-rule="evenodd" stroke="#8f8e8d" stroke-linecap="butt" stroke-width="1" d="m409.98236 376.46457l-1.1245728 1.1245728l3.0897522 -1.1245728l-3.0897522 -1.1245728z"/><path fill="#000" fill-opacity="0" fill-rule="evenodd" d="m135.23097 372.45145l136.91338 0l0 32.314972l-136.91338 0z"/><path fill="#303030" fill-rule="nonzero" d="m174.73991 391.69144l-0.984375 0l4.5 -7.75l0.96875 0l1.203125 7.75l-0.984375 0l-0.921875 -6.53125l-0.0625 0l-3.71875 6.53125zm1.015625 -3.03125l3.953125 0l-0.171875 0.84375l-3.953125 0l0.171875 -0.84375zm8.080078 3.15625q-0.8125 0 -1.3125 -0.390625q-0.5 -0.390625 -0.6875 -1.0625q-0.171875 -0.671875 0.015625 -1.546875q0.1875 -0.890625 0.65625 -1.5625q0.484375 -0.6875 1.140625 -1.0625q0.671875 -0.390625 1.453125 -0.390625q0.625 0 1.0625 0.234375q0.453125 0.21875 0.671875 0.640625q0.234375 0.40625 0.1875 0.9375l-0.890625 0q-0.015625 -0.390625 -0.3125 -0.703125q-0.28125 -0.3125 -0.875 -0.3125q-0.515625 0 -0.96875 0.28125q-0.4375 0.265625 -0.765625 0.765625q-0.328125 0.484375 -0.453125 1.140625q-0.15625 0.671875 -0.046875 1.171875q0.109375 0.5 0.4375 0.78125q0.34375 0.265625 0.859375 0.265625q0.359375 0 0.671875 -0.109375q0.3125 -0.125 0.546875 -0.34375q0.25 -0.234375 0.40625 -0.5625l0.890625 0q-0.1875 0.515625 -0.578125 0.9375q-0.375 0.40625 -0.921875 0.65625q-0.53125 0.234375 -1.1875 0.234375zm5.9487305 0q-0.8125 0 -1.3125 -0.390625q-0.5 -0.390625 -0.6875 -1.0625q-0.171875 -0.671875 0.015625 -1.546875q0.1875 -0.890625 0.65625 -1.5625q0.484375 -0.6875 1.140625 -1.0625q0.671875 -0.390625 1.453125 -0.390625q0.625 0 1.0625 0.234375q0.453125 0.21875 0.671875 0.640625q0.234375 0.40625 0.1875 0.9375l-0.890625 0q-0.015625 -0.390625 -0.3125 -0.703125q-0.28125 -0.3125 -0.875 -0.3125q-0.515625 0 -0.96875 0.28125q-0.4375 0.265625 -0.765625 0.765625q-0.328125 0.484375 -0.453125 1.140625q-0.15625 0.671875 -0.046875 1.171875q0.109375 0.5 0.4375 0.78125q0.34375 0.265625 0.859375 0.265625q0.359375 0 0.671875 -0.109375q0.3125 -0.125 0.546875 -0.34375q0.25 -0.234375 0.40625 -0.5625l0.890625 0q-0.1875 0.515625 -0.578125 0.9375q-0.375 0.40625 -0.921875 0.65625q-0.53125 0.234375 -1.1875 0.234375zm6.0268555 0q-0.828125 0 -1.359375 -0.375q-0.515625 -0.375 -0.703125 -1.046875q-0.1875 -0.671875 0 -1.5625q0.1875 -0.890625 0.65625 -1.578125q0.484375 -0.6875 1.140625 -1.0625q0.671875 -0.390625 1.453125 -0.390625q0.46875 0 0.875 0.15625q0.40625 0.15625 0.703125 0.5q0.296875 0.328125 0.390625 0.890625q0.09375 0.546875 -0.078125 1.359375l-0.09375 0.375l-4.46875 0l0.171875 -0.765625l3.5625 0q0.109375 -0.5 -0.015625 -0.875q-0.109375 -0.390625 -0.421875 -0.609375q-0.3125 -0.234375 -0.796875 -0.234375q-0.53125 0 -0.96875 0.265625q-0.4375 0.265625 -0.734375 0.6875q-0.296875 0.421875 -0.40625 0.90625l-0.109375 0.515625q-0.140625 0.65625 -0.015625 1.109375q0.140625 0.453125 0.5 0.6875q0.359375 0.234375 0.890625 0.234375q0.359375 0 0.65625 -0.09375q0.3125 -0.09375 0.5625 -0.296875q0.25 -0.203125 0.4375 -0.515625l0.8125 0.25q-0.234375 0.4375 -0.625 0.765625q-0.390625 0.328125 -0.90625 0.515625q-0.515625 0.1875 -1.109375 0.1875zm8.87793 -4.640625l-0.859375 0.234375q-0.015625 -0.203125 -0.125 -0.390625q-0.109375 -0.1875 -0.328125 -0.3125q-0.21875 -0.125 -0.609375 -0.125q-0.53125 0 -0.9375 0.25q-0.40625 0.234375 -0.484375 0.609375q-0.078125 0.328125 0.125 0.53125q0.203125 0.1875 0.6875 0.3125l0.8125 0.21875q0.75 0.1875 1.046875 0.578125q0.296875 0.375 0.171875 0.984375q-0.109375 0.5 -0.484375 0.90625q-0.375 0.390625 -0.9375 0.625q-0.546875 0.21875 -1.234375 0.21875q-0.890625 0 -1.390625 -0.390625q-0.484375 -0.390625 -0.484375 -1.125l0.890625 -0.21875q0.03125 0.46875 0.3125 0.703125q0.28125 0.234375 0.828125 0.234375q0.625 0 1.046875 -0.265625q0.4375 -0.265625 0.515625 -0.640625q0.078125 -0.296875 -0.109375 -0.5q-0.171875 -0.21875 -0.578125 -0.3125l-0.921875 -0.234375q-0.765625 -0.1875 -1.0625 -0.578125q-0.28125 -0.40625 -0.15625 -1.0q0.109375 -0.5 0.46875 -0.875q0.359375 -0.375 0.890625 -0.59375q0.53125 -0.21875 1.140625 -0.21875q0.859375 0 1.265625 0.390625q0.421875 0.375 0.5 0.984375zm5.5703125 0l-0.859375 0.234375q-0.015625 -0.203125 -0.125 -0.390625q-0.109375 -0.1875 -0.328125 -0.3125q-0.21875 -0.125 -0.609375 -0.125q-0.53125 0 -0.9375 0.25q-0.40625 0.234375 -0.484375 0.609375q-0.078125 0.328125 0.125 0.53125q0.203125 0.1875 0.6875 0.3125l0.8125 0.21875q0.75 0.1875 1.046875 0.578125q0.296875 0.375 0.171875 0.984375q-0.109375 0.5 -0.484375 0.90625q-0.375 0.390625 -0.9375 0.625q-0.546875 0.21875 -1.234375 0.21875q-0.890625 0 -1.390625 -0.390625q-0.484375 -0.390625 -0.484375 -1.125l0.890625 -0.21875q0.03125 0.46875 0.3125 0.703125q0.28125 0.234375 0.828125 0.234375q0.625 0 1.046875 -0.265625q0.4375 -0.265625 0.515625 -0.640625q0.078125 -0.296875 -0.109375 -0.5q-0.171875 -0.21875 -0.578125 -0.3125l-0.921875 -0.234375q-0.765625 -0.1875 -1.0625 -0.578125q-0.28125 -0.40625 -0.15625 -1.0q0.109375 -0.5 0.46875 -0.875q0.359375 -0.375 0.890625 -0.59375q0.53125 -0.21875 1.140625 -0.21875q0.859375 0 1.265625 0.390625q0.421875 0.375 0.5 0.984375zm6.020508 -3.234375l-1.640625 7.75l-0.890625 0l1.640625 -7.75l0.890625 0zm2.324707 7.875q-0.78125 0 -1.296875 -0.375q-0.5 -0.375 -0.6875 -1.046875q-0.1875 -0.671875 0 -1.578125q0.1875 -0.90625 0.65625 -1.578125q0.484375 -0.6875 1.15625 -1.0625q0.671875 -0.375 1.453125 -0.375q0.796875 0 1.3125 0.375q0.515625 0.375 0.6875 1.0625q0.1875 0.671875 0 1.578125q-0.1875 0.90625 -0.65625 1.578125q-0.46875 0.671875 -1.15625 1.046875q-0.671875 0.375 -1.46875 0.375zm0.171875 -0.8125q0.609375 0 1.0625 -0.296875q0.453125 -0.3125 0.734375 -0.8125q0.296875 -0.5 0.421875 -1.078125q0.125 -0.578125 0.046875 -1.078125q-0.078125 -0.515625 -0.40625 -0.828125q-0.3125 -0.3125 -0.921875 -0.3125q-0.59375 0 -1.046875 0.3125q-0.4375 0.3125 -0.734375 0.828125q-0.296875 0.5 -0.421875 1.078125q-0.125 0.578125 -0.046875 1.078125q0.09375 0.5 0.40625 0.8125q0.3125 0.296875 0.90625 0.296875zm5.716797 2.984375q-0.640625 0 -1.078125 -0.171875q-0.4375 -0.15625 -0.6875 -0.421875q-0.25 -0.265625 -0.375 -0.5625l0.828125 -0.5q0.09375 0.15625 0.234375 0.359375q0.140625 0.203125 0.421875 0.359375q0.296875 0.15625 0.8125 0.15625q0.71875 0 1.25 -0.34375q0.53125 -0.34375 0.6875 -1.0625l0.25 -1.1875l-0.078125 0q-0.125 0.15625 -0.359375 0.390625q-0.234375 0.234375 -0.609375 0.421875q-0.375 0.171875 -0.9375 0.171875q-0.703125 0 -1.203125 -0.328125q-0.484375 -0.328125 -0.671875 -0.96875q-0.171875 -0.640625 0.015625 -1.546875q0.1875 -0.890625 0.640625 -1.546875q0.453125 -0.671875 1.09375 -1.03125q0.640625 -0.375 1.375 -0.375q0.5625 0 0.859375 0.1875q0.296875 0.1875 0.421875 0.421875q0.140625 0.234375 0.203125 0.390625l0.09375 0l0.1875 -0.921875l0.859375 0l-1.265625 5.984375q-0.171875 0.75 -0.609375 1.21875q-0.421875 0.46875 -1.046875 0.6875q-0.609375 0.21875 -1.3125 0.21875zm0.65625 -3.1875q0.53125 0 0.953125 -0.25q0.421875 -0.25 0.703125 -0.703125q0.296875 -0.46875 0.4375 -1.109375q0.140625 -0.625 0.046875 -1.109375q-0.078125 -0.484375 -0.40625 -0.75q-0.3125 -0.28125 -0.84375 -0.28125q-0.578125 0 -1.015625 0.296875q-0.4375 0.28125 -0.734375 0.765625q-0.28125 0.484375 -0.40625 1.078125q-0.125 0.609375 -0.046875 1.078125q0.09375 0.453125 0.421875 0.71875q0.328125 0.265625 0.890625 0.265625zm9.056152 -3.625l-0.859375 0.234375q-0.015625 -0.203125 -0.125 -0.390625q-0.109375 -0.1875 -0.328125 -0.3125q-0.21875 -0.125 -0.609375 -0.125q-0.53125 0 -0.9375 0.25q-0.40625 0.234375 -0.484375 0.609375q-0.078125 0.328125 0.125 0.53125q0.203125 0.1875 0.6875 0.3125l0.8125 0.21875q0.75 0.1875 1.046875 0.578125q0.296875 0.375 0.171875 0.984375q-0.109375 0.5 -0.484375 0.90625q-0.375 0.390625 -0.9375 0.625q-0.546875 0.21875 -1.234375 0.21875q-0.890625 0 -1.390625 -0.390625q-0.484375 -0.390625 -0.484375 -1.125l0.890625 -0.21875q0.03125 0.46875 0.3125 0.703125q0.28125 0.234375 0.828125 0.234375q0.625 0 1.046875 -0.265625q0.4375 -0.265625 0.515625 -0.640625q0.078125 -0.296875 -0.109375 -0.5q-0.171875 -0.21875 -0.578125 -0.3125l-0.921875 -0.234375q-0.765625 -0.1875 -1.0625 -0.578125q-0.28125 -0.40625 -0.15625 -1.0q0.109375 -0.5 0.46875 -0.875q0.359375 -0.375 0.890625 -0.59375q0.53125 -0.21875 1.140625 -0.21875q0.859375 0 1.265625 0.390625q0.421875 0.375 0.5 0.984375z"/><path fill="#000" fill-opacity="0" fill-rule="evenodd" d="m603.30365 376.46887l256.09448 0l0 -60.91339"/><path fill-rule="evenodd" stroke="#8f8e8d" stroke-linecap="butt" stroke-linejoin="round" stroke-width="1" d="m603.30365 376.46887l256.09448 0l0 -57.486298"/><path fill="#8f8e8d" fill-rule="evenodd" stroke="#8f8e8d" stroke-linecap="butt" stroke-width="1" d="m859.39813 318.98257l1.1245728 1.1245728l-1.1245728 -3.0897522l-1.1245728 3.0897522z"/><path fill="#000" fill-opacity="0" fill-rule="evenodd" d="m717.6903 372.45145l129.51178 0l0 32.314972l-129.51178 0z"/><path fill="#303030" fill-rule="nonzero" d="m735.22626 391.69144l1.640625 -7.75l4.640625 0l-0.171875 0.828125l-3.703125 0l-0.5625 2.625l3.359375 0l-0.171875 0.828125l-3.359375 0l-0.734375 3.46875l-0.9375 0zm8.657715 -7.75l-1.640625 7.75l-0.890625 0l1.640625 -7.75l0.890625 0zm4.168457 5.375l0.734375 -3.4375l0.890625 0l-1.234375 5.8125l-0.890625 0l0.203125 -0.984375l-0.0625 0q-0.296875 0.4375 -0.796875 0.75q-0.484375 0.3125 -1.15625 0.3125q-0.53125 0 -0.90625 -0.234375q-0.375 -0.25 -0.515625 -0.734375q-0.140625 -0.484375 0.015625 -1.234375l0.78125 -3.6875l0.890625 0l-0.765625 3.625q-0.140625 0.640625 0.140625 1.03125q0.28125 0.375 0.84375 0.375q0.328125 0 0.703125 -0.171875q0.375 -0.171875 0.6875 -0.515625q0.328125 -0.359375 0.4375 -0.90625zm3.925293 -3.4375l0.890625 2.375l1.890625 -2.375l1.03125 0l-2.484375 2.90625l1.25 2.90625l-1.03125 0l-0.90625 -2.25l-1.875 2.25l-1.03125 0l2.46875 -2.90625l-1.234375 -2.90625l1.03125 0zm5.611328 -1.9375l1.125 0l1.265625 6.4375l0.09375 0l4.0 -6.4375l1.109375 0l-1.640625 7.75l-0.875 0l1.25 -5.890625l-0.078125 0l-3.671875 5.890625l-0.84375 0l-1.171875 -5.890625l-0.078125 0l-1.25 5.890625l-0.875 0l1.640625 -7.75zm10.116211 7.875q-0.828125 0 -1.359375 -0.375q-0.515625 -0.375 -0.703125 -1.046875q-0.1875 -0.671875 0 -1.5625q0.1875 -0.890625 0.65625 -1.578125q0.484375 -0.6875 1.140625 -1.0625q0.671875 -0.390625 1.453125 -0.390625q0.46875 0 0.875 0.15625q0.40625 0.15625 0.703125 0.5q0.296875 0.328125 0.390625 0.890625q0.09375 0.546875 -0.078125 1.359375l-0.09375 0.375l-4.46875 0l0.171875 -0.765625l3.5625 0q0.109375 -0.5 -0.015625 -0.875q-0.109375 -0.390625 -0.421875 -0.609375q-0.3125 -0.234375 -0.796875 -0.234375q-0.53125 0 -0.96875 0.265625q-0.4375 0.265625 -0.734375 0.6875q-0.296875 0.421875 -0.40625 0.90625l-0.109375 0.515625q-0.140625 0.65625 -0.015625 1.109375q0.140625 0.453125 0.5 0.6875q0.359375 0.234375 0.890625 0.234375q0.359375 0 0.65625 -0.09375q0.3125 -0.09375 0.5625 -0.296875q0.25 -0.203125 0.4375 -0.515625l0.8125 0.25q-0.234375 0.4375 -0.625 0.765625q-0.390625 0.328125 -0.90625 0.515625q-0.515625 0.1875 -1.109375 0.1875zm7.5654297 -5.9375l-0.15625 0.75l-3.015625 0l0.15625 -0.75l3.015625 0zm-1.828125 -1.390625l0.890625 0l-1.171875 5.53125q-0.09375 0.390625 -0.03125 0.578125q0.078125 0.1875 0.234375 0.25q0.171875 0.0625 0.375 0.0625q0.15625 0 0.25 -0.015625q0.09375 -0.03125 0.140625 -0.03125l0.015625 0.796875q-0.09375 0.03125 -0.265625 0.0625q-0.171875 0.046875 -0.421875 0.046875q-0.375 0 -0.703125 -0.15625q-0.328125 -0.171875 -0.484375 -0.5q-0.15625 -0.34375 -0.0625 -0.84375l1.234375 -5.78125zm4.283142 7.328125q-0.828125 0 -1.359375 -0.375q-0.515625 -0.375 -0.703125 -1.046875q-0.1875 -0.671875 0 -1.5625q0.1875 -0.890625 0.65625 -1.578125q0.484375 -0.6875 1.140625 -1.0625q0.671875 -0.390625 1.453125 -0.390625q0.46875 0 0.875 0.15625q0.40625 0.15625 0.703125 0.5q0.296875 0.328125 0.390625 0.890625q0.09375 0.546875 -0.078125 1.359375l-0.09375 0.375l-4.46875 0l0.171875 -0.765625l3.5625 0q0.109375 -0.5 -0.015625 -0.875q-0.109375 -0.390625 -0.421875 -0.609375q-0.3125 -0.234375 -0.796875 -0.234375q-0.53125 0 -0.96875 0.265625q-0.4375 0.265625 -0.734375 0.6875q-0.296875 0.421875 -0.40625 0.90625l-0.109375 0.515625q-0.140625 0.65625 -0.015625 1.109375q0.140625 0.453125 0.5 0.6875q0.359375 0.234375 0.890625 0.234375q0.359375 0 0.65625 -0.09375q0.3125 -0.09375 0.5625 -0.296875q0.25 -0.203125 0.4375 -0.515625l0.8125 0.25q-0.234375 0.4375 -0.625 0.765625q-0.390625 0.328125 -0.90625 0.515625q-0.515625 0.1875 -1.109375 0.1875zm3.7998047 -0.125l1.234375 -5.8125l0.875 0l-0.1875 0.875l0.046875 0q0.265625 -0.421875 0.734375 -0.6875q0.46875 -0.28125 0.984375 -0.28125q0.109375 0 0.25 0.015625q0.140625 0 0.21875 0l-0.1875 0.90625q-0.046875 0 -0.203125 -0.03125q-0.140625 -0.03125 -0.328125 -0.03125q-0.421875 0 -0.796875 0.1875q-0.359375 0.171875 -0.625 0.484375q-0.265625 0.296875 -0.34375 0.703125l-0.78125 3.671875l-0.890625 0zm9.043945 -4.515625l-0.859375 0.234375q-0.015625 -0.203125 -0.125 -0.390625q-0.109375 -0.1875 -0.328125 -0.3125q-0.21875 -0.125 -0.609375 -0.125q-0.53125 0 -0.9375 0.25q-0.40625 0.234375 -0.484375 0.609375q-0.078125 0.328125 0.125 0.53125q0.203125 0.1875 0.6875 0.3125l0.8125 0.21875q0.75 0.1875 1.046875 0.578125q0.296875 0.375 0.171875 0.984375q-0.109375 0.5 -0.484375 0.90625q-0.375 0.390625 -0.9375 0.625q-0.546875 0.21875 -1.234375 0.21875q-0.890625 0 -1.390625 -0.390625q-0.484375 -0.390625 -0.484375 -1.125l0.890625 -0.21875q0.03125 0.46875 0.3125 0.703125q0.28125 0.234375 0.828125 0.234375q0.625 0 1.046875 -0.265625q0.4375 -0.265625 0.515625 -0.640625q0.078125 -0.296875 -0.109375 -0.5q-0.171875 -0.21875 -0.578125 -0.3125l-0.921875 -0.234375q-0.765625 -0.1875 -1.0625 -0.578125q-0.28125 -0.40625 -0.15625 -1.0q0.109375 -0.5 0.46875 -0.875q0.359375 -0.375 0.890625 -0.59375q0.53125 -0.21875 1.140625 -0.21875q0.859375 0 1.265625 0.390625q0.421875 0.375 0.5 0.984375zm3.4892578 4.515625l1.234375 -5.8125l0.875 0l-0.1875 0.90625l0.0625 0q0.28125 -0.46875 0.734375 -0.71875q0.46875 -0.265625 1.03125 -0.265625q0.578125 0 0.90625 0.265625q0.328125 0.25 0.453125 0.71875l0.0625 0q0.3125 -0.453125 0.8125 -0.71875q0.5 -0.265625 1.125 -0.265625q0.78125 0 1.171875 0.484375q0.40625 0.484375 0.1875 1.515625l-0.828125 3.890625l-0.90625 0l0.828125 -3.890625q0.140625 -0.640625 -0.15625 -0.921875q-0.296875 -0.28125 -0.765625 -0.28125q-0.609375 0 -1.03125 0.375q-0.40625 0.375 -0.53125 0.9375l-0.796875 3.78125l-0.921875 0l0.84375 -3.984375q0.109375 -0.5 -0.15625 -0.796875q-0.25 -0.3125 -0.75 -0.3125q-0.359375 0 -0.703125 0.1875q-0.328125 0.1875 -0.59375 0.515625q-0.25 0.328125 -0.328125 0.75l-0.78125 3.640625l-0.890625 0zm11.669922 0.125q-0.828125 0 -1.359375 -0.375q-0.515625 -0.375 -0.703125 -1.046875q-0.1875 -0.671875 0 -1.5625q0.1875 -0.890625 0.65625 -1.578125q0.484375 -0.6875 1.140625 -1.0625q0.671875 -0.390625 1.453125 -0.390625q0.46875 0 0.875 0.15625q0.40625 0.15625 0.703125 0.5q0.296875 0.328125 0.390625 0.890625q0.09375 0.546875 -0.078125 1.359375l-0.09375 0.375l-4.46875 0l0.171875 -0.765625l3.5625 0q0.109375 -0.5 -0.015625 -0.875q-0.109375 -0.390625 -0.421875 -0.609375q-0.3125 -0.234375 -0.796875 -0.234375q-0.53125 0 -0.96875 0.265625q-0.4375 0.265625 -0.734375 0.6875q-0.296875 0.421875 -0.40625 0.90625l-0.109375 0.515625q-0.140625 0.65625 -0.015625 1.109375q0.140625 0.453125 0.5 0.6875q0.359375 0.234375 0.890625 0.234375q0.359375 0 0.65625 -0.09375q0.3125 -0.09375 0.5625 -0.296875q0.25 -0.203125 0.4375 -0.515625l0.8125 0.25q-0.234375 0.4375 -0.625 0.765625q-0.390625 0.328125 -0.90625 0.515625q-0.515625 0.1875 -1.109375 0.1875zm7.5654297 -5.9375l-0.15625 0.75l-3.015625 0l0.15625 -0.75l3.015625 0zm-1.828125 -1.390625l0.890625 0l-1.171875 5.53125q-0.09375 0.390625 -0.03125 0.578125q0.078125 0.1875 0.234375 0.25q0.171875 0.0625 0.375 0.0625q0.15625 0 0.25 -0.015625q0.09375 -0.03125 0.140625 -0.03125l0.015625 0.796875q-0.09375 0.03125 -0.265625 0.0625q-0.171875 0.046875 -0.421875 0.046875q-0.375 0 -0.703125 -0.15625q-0.328125 -0.171875 -0.484375 -0.5q-0.15625 -0.34375 -0.0625 -0.84375l1.234375 -5.78125zm1.9375 7.203125l1.234375 -5.8125l0.875 0l-0.1875 0.875l0.046875 0q0.265625 -0.421875 0.734375 -0.6875q0.46875 -0.28125 0.984375 -0.28125q0.109375 0 0.25 0.015625q0.140625 0 0.21875 0l-0.1875 0.90625q-0.046875 0 -0.203125 -0.03125q-0.140625 -0.03125 -0.328125 -0.03125q-0.421875 0 -0.796875 0.1875q-0.359375 0.171875 -0.625 0.484375q-0.265625 0.296875 -0.34375 0.703125l-0.78125 3.671875l-0.890625 0zm3.9658203 0l1.234375 -5.8125l0.890625 0l-1.234375 5.8125l-0.890625 0zm1.890625 -6.78125q-0.25 0 -0.40625 -0.171875q-0.140625 -0.1875 -0.078125 -0.4375q0.046875 -0.25 0.265625 -0.421875q0.234375 -0.1875 0.484375 -0.1875q0.265625 0 0.40625 0.1875q0.15625 0.171875 0.109375 0.421875q-0.0625 0.25 -0.296875 0.4375q-0.21875 0.171875 -0.484375 0.171875zm2.965332 6.90625q-0.8125 0 -1.3125 -0.390625q-0.5 -0.390625 -0.6875 -1.0625q-0.171875 -0.671875 0.015625 -1.546875q0.1875 -0.890625 0.65625 -1.5625q0.484375 -0.6875 1.140625 -1.0625q0.671875 -0.390625 1.453125 -0.390625q0.625 0 1.0625 0.234375q0.453125 0.21875 0.671875 0.640625q0.234375 0.40625 0.1875 0.9375l-0.890625 0q-0.015625 -0.390625 -0.3125 -0.703125q-0.28125 -0.3125 -0.875 -0.3125q-0.515625 0 -0.96875 0.28125q-0.4375 0.265625 -0.765625 0.765625q-0.328125 0.484375 -0.453125 1.140625q-0.15625 0.671875 -0.046875 1.171875q0.109375 0.5 0.4375 0.78125q0.34375 0.265625 0.859375 0.265625q0.359375 0 0.671875 -0.109375q0.3125 -0.125 0.546875 -0.34375q0.25 -0.234375 0.40625 -0.5625l0.890625 0q-0.1875 0.515625 -0.578125 0.9375q-0.375 0.40625 -0.921875 0.65625q-0.53125 0.234375 -1.1875 0.234375zm8.69873 -4.640625l-0.859375 0.234375q-0.015625 -0.203125 -0.125 -0.390625q-0.109375 -0.1875 -0.328125 -0.3125q-0.21875 -0.125 -0.609375 -0.125q-0.53125 0 -0.9375 0.25q-0.40625 0.234375 -0.484375 0.609375q-0.078125 0.328125 0.125 0.53125q0.203125 0.1875 0.6875 0.3125l0.8125 0.21875q0.75 0.1875 1.046875 0.578125q0.296875 0.375 0.171875 0.984375q-0.109375 0.5 -0.484375 0.90625q-0.375 0.390625 -0.9375 0.625q-0.546875 0.21875 -1.234375 0.21875q-0.890625 0 -1.390625 -0.390625q-0.484375 -0.390625 -0.484375 -1.125l0.890625 -0.21875q0.03125 0.46875 0.3125 0.703125q0.28125 0.234375 0.828125 0.234375q0.625 0 1.046875 -0.265625q0.4375 -0.265625 0.515625 -0.640625q0.078125 -0.296875 -0.109375 -0.5q-0.171875 -0.21875 -0.578125 -0.3125l-0.921875 -0.234375q-0.765625 -0.1875 -1.0625 -0.578125q-0.28125 -0.40625 -0.15625 -1.0q0.109375 -0.5 0.46875 -0.875q0.359375 -0.375 0.890625 -0.59375q0.53125 -0.21875 1.140625 -0.21875q0.859375 0 1.265625 0.390625q0.421875 0.375 0.5 0.984375z"/></g></svg>