<?xml version="1.0" encoding="UTF-8"?>
<svg xmlns="http://www.w3.org/2000/svg" viewBox="0 0 1000 800">
  <defs>
    <style>
      .c {
        fill: rgba(81, 76, 73, .4);
        stroke: rgba(145, 136, 132, .4);
      }

      .d {
        fill: #f27a40;
      }

      .e {
        fill: #514c49;
      }

      .e, .f, .g {
        stroke: #918884;
      }

      .h {
        fill: #e4e3e1;
      }

      .i {
        fill: #2e2b29;
      }

      .f {
        fill: #918884;
      }

      .f, .g {
        stroke-miterlimit: 10;
      }

      .j {
        isolation: isolate;
      }

      .j, .g {
        fill: none;
      }
    </style>
  </defs>
  <g id="a" data-name="bg">
    <rect class="i" x="-7.71" y="-13.28" width="1015.42" height="822.36"/>
  </g>
  <g id="b" data-name="Warstwa 1">
    <rect class="c" x="372" y="678.85" width="435" height="90" rx="14.4" ry="14.4" pointer-events="all"/>
    <g class="j">
      <path class="h" d="m562.52,665.99l-2.42,8.36h-1.22l-1.94-6.73-2.02,6.73h-1.21s-2.34-8.36-2.34-8.36h1.16l1.82,7.09,2.02-7.09h1.22l1.92,7.07,1.84-7.07h1.18Z"/>
      <path class="h" d="m564.92,674.04c-.5-.28-.89-.68-1.18-1.19-.28-.52-.43-1.11-.43-1.79s.15-1.27.44-1.78c.29-.52.69-.91,1.19-1.19.5-.28,1.07-.41,1.69-.41s1.19.14,1.69.41c.5.28.9.67,1.19,1.18s.44,1.11.44,1.79-.15,1.28-.45,1.79c-.3.52-.71.91-1.22,1.19-.51.28-1.08.42-1.71.42s-1.17-.14-1.67-.42Zm2.78-.82c.34-.18.62-.46.83-.83s.32-.82.32-1.34-.1-.98-.31-1.34c-.21-.37-.48-.64-.82-.82-.34-.18-.7-.27-1.09-.27s-.77.09-1.1.27c-.33.18-.6.45-.8.82-.2.37-.3.82-.3,1.34s.1.99.29,1.36c.2.37.46.64.79.82s.69.27,1.08.27.76-.09,1.1-.28Z"/>
      <path class="h" d="m573.32,667.97c.36-.21.79-.31,1.3-.31v1.13h-.29c-1.22,0-1.84.66-1.84,1.99v3.58h-1.09v-6.58h1.09v1.07c.19-.38.47-.67.82-.88Z"/>
      <path class="h" d="m579.55,674.35l-2.58-2.9v2.9h-1.09v-8.88h1.09v5.22l2.53-2.92h1.52l-3.1,3.28,3.11,3.3h-1.49Z"/>
      <path class="h" d="m588.02,671.47h-5.26c.04.65.26,1.15.67,1.52.4.36.89.55,1.47.55.47,0,.87-.11,1.18-.33.32-.22.54-.51.67-.88h1.18c-.18.63-.53,1.15-1.06,1.54-.53.4-1.18.59-1.97.59-.62,0-1.18-.14-1.67-.42-.49-.28-.88-.68-1.16-1.19-.28-.52-.42-1.11-.42-1.79s.14-1.28.41-1.79c.27-.51.65-.91,1.15-1.18.49-.28,1.06-.41,1.7-.41s1.18.14,1.66.41c.48.27.85.65,1.11,1.12.26.48.39,1.01.39,1.61,0,.21-.01.43-.04.66Zm-1.37-1.96c-.18-.3-.43-.53-.75-.68-.32-.16-.67-.23-1.05-.23-.55,0-1.02.18-1.41.53-.39.35-.61.84-.67,1.46h4.15c0-.42-.09-.77-.28-1.07Z"/>
      <path class="h" d="m591.41,667.97c.36-.21.79-.31,1.3-.31v1.13h-.29c-1.22,0-1.84.66-1.84,1.99v3.58h-1.09v-6.58h1.09v1.07c.19-.38.47-.67.82-.88Z"/>
      <path class="h" d="m603.75,674.35h-1.09l-4.39-6.66v6.66h-1.09v-8.38h1.09l4.39,6.65v-6.65h1.09v8.38Z"/>
      <path class="h" d="m606.81,674.04c-.5-.28-.89-.68-1.18-1.19-.28-.52-.43-1.11-.43-1.79s.15-1.27.44-1.78c.29-.52.69-.91,1.19-1.19.5-.28,1.07-.41,1.69-.41s1.19.14,1.69.41c.5.28.9.67,1.19,1.18s.44,1.11.44,1.79-.15,1.28-.45,1.79c-.3.52-.71.91-1.22,1.19-.51.28-1.08.42-1.7.42s-1.17-.14-1.67-.42Zm2.78-.82c.34-.18.62-.46.83-.83s.32-.82.32-1.34-.1-.98-.31-1.34c-.21-.37-.48-.64-.82-.82-.34-.18-.7-.27-1.09-.27s-.77.09-1.1.27c-.33.18-.6.45-.8.82-.2.37-.3.82-.3,1.34s.1.99.29,1.36c.2.37.46.64.79.82s.69.27,1.08.27.76-.09,1.1-.28Z"/>
      <path class="h" d="m613.29,669.27c.27-.51.65-.9,1.12-1.18.48-.28,1.01-.42,1.6-.42.51,0,.99.12,1.43.35.44.24.78.55,1.01.93v-3.48h1.1v8.88h-1.1v-1.24c-.21.39-.54.71-.96.97-.42.25-.92.38-1.49.38s-1.11-.14-1.59-.43c-.48-.29-.85-.69-1.12-1.21-.27-.52-.41-1.11-.41-1.78s.14-1.26.41-1.77Zm4.86.49c-.2-.37-.47-.65-.81-.85-.34-.2-.71-.29-1.12-.29s-.78.1-1.12.29c-.34.19-.6.47-.8.84-.2.37-.3.8-.3,1.3s.1.94.3,1.31.47.66.8.85c.34.2.71.29,1.12.29s.78-.1,1.12-.29c.34-.2.61-.48.81-.85.2-.37.3-.81.3-1.3s-.1-.93-.3-1.3Z"/>
      <path class="h" d="m627.37,671.47h-5.26c.04.65.26,1.15.67,1.52.4.36.89.55,1.47.55.47,0,.87-.11,1.18-.33.32-.22.54-.51.67-.88h1.18c-.18.63-.53,1.15-1.06,1.54-.53.4-1.18.59-1.97.59-.62,0-1.18-.14-1.67-.42-.49-.28-.88-.68-1.16-1.19-.28-.52-.42-1.11-.42-1.79s.14-1.28.41-1.79c.27-.51.65-.91,1.15-1.18.49-.28,1.06-.41,1.7-.41s1.18.14,1.66.41c.48.27.85.65,1.11,1.12.26.48.39,1.01.39,1.61,0,.21-.01.43-.04.66Zm-1.37-1.96c-.18-.3-.43-.53-.75-.68-.32-.16-.67-.23-1.05-.23-.55,0-1.02.18-1.41.53-.39.35-.61.84-.67,1.46h4.15c0-.42-.09-.77-.28-1.07Z"/>
    </g>
    <rect class="c" x="372" y="562.85" width="435" height="90" rx="14.4" ry="14.4" pointer-events="all"/>
    <g class="j">
      <path class="h" d="m562.52,550.99l-2.42,8.36h-1.22l-1.94-6.73-2.02,6.73h-1.21s-2.34-8.36-2.34-8.36h1.16l1.82,7.09,2.02-7.09h1.22l1.92,7.07,1.84-7.07h1.18Z"/>
      <path class="h" d="m564.92,559.04c-.5-.28-.89-.68-1.18-1.19-.28-.52-.43-1.11-.43-1.79s.15-1.27.44-1.78c.29-.52.69-.91,1.19-1.19.5-.28,1.07-.41,1.69-.41s1.19.14,1.69.41c.5.28.9.67,1.19,1.18s.44,1.11.44,1.79-.15,1.28-.45,1.79c-.3.52-.71.91-1.22,1.19-.51.28-1.08.42-1.71.42s-1.17-.14-1.67-.42Zm2.78-.82c.34-.18.62-.46.83-.83s.32-.82.32-1.34-.1-.98-.31-1.34c-.21-.37-.48-.64-.82-.82-.34-.18-.7-.27-1.09-.27s-.77.09-1.1.27c-.33.18-.6.45-.8.82-.2.37-.3.82-.3,1.34s.1.99.29,1.36c.2.37.46.64.79.82s.69.27,1.08.27.76-.09,1.1-.28Z"/>
      <path class="h" d="m573.32,552.97c.36-.21.79-.31,1.3-.31v1.13h-.29c-1.22,0-1.84.66-1.84,1.99v3.58h-1.09v-6.58h1.09v1.07c.19-.38.47-.67.82-.88Z"/>
      <path class="h" d="m579.55,559.35l-2.58-2.9v2.9h-1.09v-8.88h1.09v5.22l2.53-2.92h1.52l-3.1,3.28,3.11,3.3h-1.49Z"/>
      <path class="h" d="m588.02,556.47h-5.26c.04.65.26,1.15.67,1.52.4.36.89.55,1.47.55.47,0,.87-.11,1.18-.33.32-.22.54-.51.67-.88h1.18c-.18.63-.53,1.15-1.06,1.54-.53.4-1.18.59-1.97.59-.62,0-1.18-.14-1.67-.42-.49-.28-.88-.68-1.16-1.19-.28-.52-.42-1.11-.42-1.79s.14-1.28.41-1.79c.27-.51.65-.91,1.15-1.18.49-.28,1.06-.41,1.7-.41s1.18.14,1.66.41c.48.27.85.65,1.11,1.12.26.48.39,1.01.39,1.61,0,.21-.01.43-.04.66Zm-1.37-1.96c-.18-.3-.43-.53-.75-.68-.32-.16-.67-.23-1.05-.23-.55,0-1.02.18-1.41.53-.39.35-.61.84-.67,1.46h4.15c0-.42-.09-.77-.28-1.07Z"/>
      <path class="h" d="m591.41,552.97c.36-.21.79-.31,1.3-.31v1.13h-.29c-1.22,0-1.84.66-1.84,1.99v3.58h-1.09v-6.58h1.09v1.07c.19-.38.47-.67.82-.88Z"/>
      <path class="h" d="m603.75,559.35h-1.09l-4.39-6.66v6.66h-1.09v-8.38h1.09l4.39,6.65v-6.65h1.09v8.38Z"/>
      <path class="h" d="m606.81,559.04c-.5-.28-.89-.68-1.18-1.19-.28-.52-.43-1.11-.43-1.79s.15-1.27.44-1.78c.29-.52.69-.91,1.19-1.19.5-.28,1.07-.41,1.69-.41s1.19.14,1.69.41c.5.28.9.67,1.19,1.18s.44,1.11.44,1.79-.15,1.28-.45,1.79c-.3.52-.71.91-1.22,1.19-.51.28-1.08.42-1.7.42s-1.17-.14-1.67-.42Zm2.78-.82c.34-.18.62-.46.83-.83s.32-.82.32-1.34-.1-.98-.31-1.34c-.21-.37-.48-.64-.82-.82-.34-.18-.7-.27-1.09-.27s-.77.09-1.1.27c-.33.18-.6.45-.8.82-.2.37-.3.82-.3,1.34s.1.99.29,1.36c.2.37.46.64.79.82s.69.27,1.08.27.76-.09,1.1-.28Z"/>
      <path class="h" d="m613.29,554.27c.27-.51.65-.9,1.12-1.18.48-.28,1.01-.42,1.6-.42.51,0,.99.12,1.43.35.44.24.78.55,1.01.93v-3.48h1.1v8.88h-1.1v-1.24c-.21.39-.54.71-.96.97-.42.25-.92.38-1.49.38s-1.11-.14-1.59-.43c-.48-.29-.85-.69-1.12-1.21-.27-.52-.41-1.11-.41-1.78s.14-1.26.41-1.77Zm4.86.49c-.2-.37-.47-.65-.81-.85-.34-.2-.71-.29-1.12-.29s-.78.1-1.12.29c-.34.19-.6.47-.8.84-.2.37-.3.8-.3,1.3s.1.94.3,1.31.47.66.8.85c.34.2.71.29,1.12.29s.78-.1,1.12-.29c.34-.2.61-.48.81-.85.2-.37.3-.81.3-1.3s-.1-.93-.3-1.3Z"/>
      <path class="h" d="m627.37,556.47h-5.26c.04.65.26,1.15.67,1.52.4.36.89.55,1.47.55.47,0,.87-.11,1.18-.33.32-.22.54-.51.67-.88h1.18c-.18.63-.53,1.15-1.06,1.54-.53.4-1.18.59-1.97.59-.62,0-1.18-.14-1.67-.42-.49-.28-.88-.68-1.16-1.19-.28-.52-.42-1.11-.42-1.79s.14-1.28.41-1.79c.27-.51.65-.91,1.15-1.18.49-.28,1.06-.41,1.7-.41s1.18.14,1.66.41c.48.27.85.65,1.11,1.12.26.48.39,1.01.39,1.61,0,.21-.01.43-.04.66Zm-1.37-1.96c-.18-.3-.43-.53-.75-.68-.32-.16-.67-.23-1.05-.23-.55,0-1.02.18-1.41.53-.39.35-.61.84-.67,1.46h4.15c0-.42-.09-.77-.28-1.07Z"/>
    </g>
    <rect class="c" x="372" y="88.85" width="435" height="450" rx="17.4" ry="17.4" pointer-events="all"/>
    <g class="j">
      <path class="h" d="m562.52,74.99l-2.42,8.36h-1.22l-1.94-6.73-2.02,6.73h-1.21s-2.34-8.36-2.34-8.36h1.16l1.82,7.09,2.02-7.09h1.22l1.92,7.07,1.84-7.07h1.18Z"/>
      <path class="h" d="m564.92,83.04c-.5-.28-.89-.68-1.18-1.19-.28-.52-.43-1.11-.43-1.79s.15-1.27.44-1.78c.29-.52.69-.91,1.19-1.19.5-.28,1.07-.41,1.69-.41s1.19.14,1.69.41c.5.28.9.67,1.19,1.18s.44,1.11.44,1.79-.15,1.28-.45,1.79c-.3.52-.71.91-1.22,1.19-.51.28-1.08.42-1.71.42s-1.17-.14-1.67-.42Zm2.78-.82c.34-.18.62-.46.83-.83s.32-.82.32-1.34-.1-.98-.31-1.34c-.21-.37-.48-.64-.82-.82-.34-.18-.7-.27-1.09-.27s-.77.09-1.1.27c-.33.18-.6.45-.8.82-.2.37-.3.82-.3,1.34s.1.99.29,1.36c.2.37.46.64.79.82s.69.27,1.08.27.76-.09,1.1-.28Z"/>
      <path class="h" d="m573.32,76.97c.36-.21.79-.31,1.3-.31v1.13h-.29c-1.22,0-1.84.66-1.84,1.99v3.58h-1.09v-6.58h1.09v1.07c.19-.38.47-.67.82-.88Z"/>
      <path class="h" d="m579.55,83.35l-2.58-2.9v2.9h-1.09v-8.88h1.09v5.22l2.53-2.92h1.52l-3.1,3.28,3.11,3.3h-1.49Z"/>
      <path class="h" d="m588.02,80.47h-5.26c.04.65.26,1.15.67,1.52.4.36.89.55,1.47.55.47,0,.87-.11,1.18-.33.32-.22.54-.51.67-.88h1.18c-.18.63-.53,1.15-1.06,1.54-.53.4-1.18.59-1.97.59-.62,0-1.18-.14-1.67-.42-.49-.28-.88-.68-1.16-1.19-.28-.52-.42-1.11-.42-1.79s.14-1.28.41-1.79c.27-.51.65-.91,1.15-1.18.49-.28,1.06-.41,1.7-.41s1.18.14,1.66.41c.48.27.85.65,1.11,1.12.26.48.39,1.01.39,1.61,0,.21-.01.43-.04.66Zm-1.37-1.96c-.18-.3-.43-.53-.75-.68-.32-.16-.67-.23-1.05-.23-.55,0-1.02.18-1.41.53-.39.35-.61.84-.67,1.46h4.15c0-.42-.09-.77-.28-1.07Z"/>
      <path class="h" d="m591.41,76.97c.36-.21.79-.31,1.3-.31v1.13h-.29c-1.22,0-1.84.66-1.84,1.99v3.58h-1.09v-6.58h1.09v1.07c.19-.38.47-.67.82-.88Z"/>
      <path class="h" d="m603.75,83.35h-1.09l-4.39-6.66v6.66h-1.09v-8.38h1.09l4.39,6.65v-6.65h1.09v8.38Z"/>
      <path class="h" d="m606.81,83.04c-.5-.28-.89-.68-1.18-1.19-.28-.52-.43-1.11-.43-1.79s.15-1.27.44-1.78c.29-.52.69-.91,1.19-1.19.5-.28,1.07-.41,1.69-.41s1.19.14,1.69.41c.5.28.9.67,1.19,1.18s.44,1.11.44,1.79-.15,1.28-.45,1.79c-.3.52-.71.91-1.22,1.19-.51.28-1.08.42-1.7.42s-1.17-.14-1.67-.42Zm2.78-.82c.34-.18.62-.46.83-.83s.32-.82.32-1.34-.1-.98-.31-1.34c-.21-.37-.48-.64-.82-.82-.34-.18-.7-.27-1.09-.27s-.77.09-1.1.27c-.33.18-.6.45-.8.82-.2.37-.3.82-.3,1.34s.1.99.29,1.36c.2.37.46.64.79.82s.69.27,1.08.27.76-.09,1.1-.28Z"/>
      <path class="h" d="m613.29,78.27c.27-.51.65-.9,1.12-1.18.48-.28,1.01-.42,1.6-.42.51,0,.99.12,1.43.35.44.24.78.55,1.01.93v-3.48h1.1v8.88h-1.1v-1.24c-.21.39-.54.71-.96.97-.42.25-.92.38-1.49.38s-1.11-.14-1.59-.43c-.48-.29-.85-.69-1.12-1.21-.27-.52-.41-1.11-.41-1.78s.14-1.26.41-1.77Zm4.86.49c-.2-.37-.47-.65-.81-.85-.34-.2-.71-.29-1.12-.29s-.78.1-1.12.29c-.34.19-.6.47-.8.84-.2.37-.3.8-.3,1.3s.1.94.3,1.31.47.66.8.85c.34.2.71.29,1.12.29s.78-.1,1.12-.29c.34-.2.61-.48.81-.85.2-.37.3-.81.3-1.3s-.1-.93-.3-1.3Z"/>
      <path class="h" d="m627.37,80.47h-5.26c.04.65.26,1.15.67,1.52.4.36.89.55,1.47.55.47,0,.87-.11,1.18-.33.32-.22.54-.51.67-.88h1.18c-.18.63-.53,1.15-1.06,1.54-.53.4-1.18.59-1.97.59-.62,0-1.18-.14-1.67-.42-.49-.28-.88-.68-1.16-1.19-.28-.52-.42-1.11-.42-1.79s.14-1.28.41-1.79c.27-.51.65-.91,1.15-1.18.49-.28,1.06-.41,1.7-.41s1.18.14,1.66.41c.48.27.85.65,1.11,1.12.26.48.39,1.01.39,1.61,0,.21-.01.43-.04.66Zm-1.37-1.96c-.18-.3-.43-.53-.75-.68-.32-.16-.67-.23-1.05-.23-.55,0-1.02.18-1.41.53-.39.35-.61.84-.67,1.46h4.15c0-.42-.09-.77-.28-1.07Z"/>
    </g>
    <rect class="e" x="652" y="448.85" width="135" height="70" rx="8.4" ry="8.4" pointer-events="all"/>
    <g class="j">
      <path class="h" d="m693.58,464.65h-3.34l-.62,1.71h-1.06l2.77-7.62h1.16l2.76,7.62h-1.06l-.62-1.71Zm-.29-.81l-1.39-3.87-1.39,3.87h2.77Z"/>
      <path class="h" d="m698.35,460.57c.39-.23.85-.35,1.37-.35s1.02.13,1.46.38.78.62,1.03,1.08c.25.47.37,1.01.37,1.62s-.12,1.15-.37,1.63c-.25.48-.59.85-1.03,1.11s-.92.4-1.46.4-.97-.12-1.36-.35c-.39-.23-.69-.52-.9-.86v3.97h-1v-8.89h1v1.11c.2-.34.49-.63.88-.86Zm2.93,1.56c-.18-.34-.43-.59-.74-.77-.31-.18-.65-.26-1.03-.26s-.71.09-1.02.27c-.31.18-.56.44-.75.78-.19.34-.28.73-.28,1.18s.09.85.28,1.19c.19.34.44.6.75.78.31.18.65.27,1.02.27s.72-.09,1.03-.27c.31-.18.56-.44.74-.78.18-.34.28-.74.28-1.21s-.09-.85-.28-1.19Z"/>
      <path class="h" d="m705.79,460.57c.39-.23.85-.35,1.37-.35s1.02.13,1.46.38c.44.26.78.62,1.03,1.08.25.47.38,1.01.38,1.62s-.12,1.15-.38,1.63c-.25.48-.59.85-1.03,1.11-.44.26-.92.4-1.46.4s-.97-.12-1.36-.35c-.39-.23-.69-.52-.9-.86v3.97h-1v-8.89h1v1.11c.2-.34.49-.63.88-.86Zm2.93,1.56c-.18-.34-.43-.59-.74-.77s-.65-.26-1.03-.26-.71.09-1.02.27-.56.44-.75.78c-.19.34-.28.73-.28,1.18s.09.85.28,1.19c.19.34.44.6.75.78s.65.27,1.02.27.72-.09,1.03-.27.56-.44.74-.78c.18-.34.28-.74.28-1.21s-.09-.85-.28-1.19Z"/>
      <path class="h" d="m712.34,458.21v8.14h-1v-8.14h1Z"/>
      <path class="h" d="m714.08,459.15c-.13-.13-.2-.29-.2-.48s.07-.35.2-.48c.13-.13.29-.2.48-.2s.34.07.47.2.19.29.19.48-.06.35-.19.48-.28.2-.47.2-.35-.07-.48-.2Zm.97,1.18v6.03h-1v-6.03h1Z"/>
      <path class="h" d="m716.75,461.7c.25-.47.6-.83,1.04-1.08.44-.26.95-.38,1.52-.38.74,0,1.35.18,1.83.54.48.36.8.86.95,1.5h-1.08c-.1-.37-.3-.66-.6-.87-.3-.21-.67-.32-1.11-.32-.57,0-1.04.2-1.39.59s-.53.95-.53,1.67.18,1.29.53,1.68c.35.4.81.59,1.39.59.44,0,.81-.1,1.1-.31s.49-.5.61-.88h1.08c-.16.62-.48,1.11-.97,1.48-.48.37-1.09.55-1.81.55-.57,0-1.08-.13-1.52-.38-.44-.26-.79-.62-1.04-1.09-.25-.47-.37-1.02-.37-1.65s.12-1.17.37-1.63Z"/>
      <path class="h" d="m723.43,461.7c.25-.47.59-.83,1.03-1.08s.92-.38,1.46-.38.99.11,1.38.34.68.51.87.86v-1.1h1.01v6.03h-1.01v-1.12c-.2.35-.49.64-.89.88-.39.23-.85.35-1.37.35s-1.02-.13-1.45-.4c-.43-.26-.77-.63-1.02-1.11-.25-.48-.37-1.02-.37-1.63s.12-1.16.37-1.62Zm4.46.45c-.18-.34-.43-.6-.74-.78-.31-.18-.66-.27-1.03-.27s-.71.09-1.02.26c-.31.18-.55.43-.74.77-.18.34-.28.73-.28,1.19s.09.86.28,1.21c.18.34.43.6.74.78.31.18.65.27,1.02.27s.72-.09,1.03-.27c.31-.18.56-.44.74-.78.18-.34.28-.74.28-1.19s-.09-.85-.28-1.19Z"/>
      <path class="h" d="m732.08,461.15v3.55c0,.29.06.5.19.62s.34.18.65.18h.74v.85h-.9c-.56,0-.98-.13-1.25-.38-.28-.26-.42-.68-.42-1.27v-3.55h-.78v-.83h.78v-1.52h1v1.52h1.57v.83h-1.57Z"/>
      <path class="h" d="m734.9,459.15c-.13-.13-.2-.29-.2-.48s.07-.35.2-.48c.13-.13.29-.2.48-.2s.34.07.47.2c.13.13.19.29.19.48s-.06.35-.19.48c-.13.13-.28.2-.47.2s-.35-.07-.48-.2Zm.97,1.18v6.03h-1v-6.03h1Z"/>
      <path class="h" d="m738.67,466.07c-.46-.26-.82-.62-1.08-1.09-.26-.47-.39-1.02-.39-1.64s.13-1.16.4-1.63c.27-.47.63-.84,1.09-1.09.46-.25.98-.38,1.55-.38s1.09.13,1.55.38c.46.25.83.61,1.1,1.08.27.47.4,1.02.4,1.64s-.14,1.17-.41,1.64c-.28.47-.65.84-1.12,1.09s-.99.38-1.56.38-1.08-.13-1.54-.38Zm2.55-.75c.31-.17.57-.42.76-.76.2-.34.29-.75.29-1.23s-.09-.89-.29-1.23c-.19-.34-.44-.59-.75-.75-.31-.17-.64-.25-1-.25s-.7.08-1.01.25c-.3.17-.55.42-.73.75-.18.34-.28.75-.28,1.23s.09.91.27,1.24c.18.34.42.59.72.75s.63.25.99.25.7-.08,1.01-.25Z"/>
      <path class="h" d="m749.33,460.88c.46.44.68,1.08.68,1.92v3.55h-.99v-3.41c0-.6-.15-1.06-.45-1.38-.3-.32-.71-.48-1.23-.48s-.95.17-1.26.49c-.31.33-.47.81-.47,1.44v3.33h-1v-6.03h1v.86c.2-.31.47-.55.81-.71s.72-.25,1.13-.25c.73,0,1.33.22,1.78.67Z"/>
    </g>
    <rect class="e" x="652" y="359.85" width="135" height="70" rx="8.4" ry="8.4" pointer-events="all"/>
    <g class="j">
      <path class="h" d="m693.58,375.65h-3.34l-.62,1.71h-1.06l2.77-7.62h1.16l2.76,7.62h-1.06l-.62-1.71Zm-.29-.81l-1.39-3.87-1.39,3.87h2.77Z"/>
      <path class="h" d="m698.35,371.57c.39-.23.85-.35,1.37-.35s1.02.13,1.46.38.78.62,1.03,1.08c.25.47.37,1.01.37,1.62s-.12,1.15-.37,1.63c-.25.48-.59.85-1.03,1.11s-.92.4-1.46.4-.97-.12-1.36-.35c-.39-.23-.69-.52-.9-.86v3.97h-1v-8.89h1v1.11c.2-.34.49-.63.88-.86Zm2.93,1.56c-.18-.34-.43-.59-.74-.77-.31-.18-.65-.26-1.03-.26s-.71.09-1.02.27c-.31.18-.56.44-.75.78-.19.34-.28.73-.28,1.18s.09.85.28,1.19c.19.34.44.6.75.78.31.18.65.27,1.02.27s.72-.09,1.03-.27c.31-.18.56-.44.74-.78.18-.34.28-.74.28-1.21s-.09-.85-.28-1.19Z"/>
      <path class="h" d="m705.79,371.57c.39-.23.85-.35,1.37-.35s1.02.13,1.46.38c.44.26.78.62,1.03,1.08.25.47.38,1.01.38,1.62s-.12,1.15-.38,1.63c-.25.48-.59.85-1.03,1.11-.44.26-.92.4-1.46.4s-.97-.12-1.36-.35c-.39-.23-.69-.52-.9-.86v3.97h-1v-8.89h1v1.11c.2-.34.49-.63.88-.86Zm2.93,1.56c-.18-.34-.43-.59-.74-.77s-.65-.26-1.03-.26-.71.09-1.02.27-.56.44-.75.78c-.19.34-.28.73-.28,1.18s.09.85.28,1.19c.19.34.44.6.75.78s.65.27,1.02.27.72-.09,1.03-.27.56-.44.74-.78c.18-.34.28-.74.28-1.21s-.09-.85-.28-1.19Z"/>
      <path class="h" d="m712.34,369.21v8.14h-1v-8.14h1Z"/>
      <path class="h" d="m714.08,370.15c-.13-.13-.2-.29-.2-.48s.07-.35.2-.48c.13-.13.29-.2.48-.2s.34.07.47.2.19.29.19.48-.06.35-.19.48-.28.2-.47.2-.35-.07-.48-.2Zm.97,1.18v6.03h-1v-6.03h1Z"/>
      <path class="h" d="m716.75,372.7c.25-.47.6-.83,1.04-1.08.44-.26.95-.38,1.52-.38.74,0,1.35.18,1.83.54.48.36.8.86.95,1.5h-1.08c-.1-.37-.3-.66-.6-.87-.3-.21-.67-.32-1.11-.32-.57,0-1.04.2-1.39.59s-.53.95-.53,1.67.18,1.29.53,1.68c.35.4.81.59,1.39.59.44,0,.81-.1,1.1-.31s.49-.5.61-.88h1.08c-.16.62-.48,1.11-.97,1.48-.48.37-1.09.55-1.81.55-.57,0-1.08-.13-1.52-.38-.44-.26-.79-.62-1.04-1.09-.25-.47-.37-1.02-.37-1.65s.12-1.17.37-1.63Z"/>
      <path class="h" d="m723.43,372.7c.25-.47.59-.83,1.03-1.08s.92-.38,1.46-.38.99.11,1.38.34.68.51.87.86v-1.1h1.01v6.03h-1.01v-1.12c-.2.35-.49.64-.89.88-.39.23-.85.35-1.37.35s-1.02-.13-1.45-.4c-.43-.26-.77-.63-1.02-1.11-.25-.48-.37-1.02-.37-1.63s.12-1.16.37-1.62Zm4.46.45c-.18-.34-.43-.6-.74-.78-.31-.18-.66-.27-1.03-.27s-.71.09-1.02.26c-.31.18-.55.43-.74.77-.18.34-.28.73-.28,1.19s.09.86.28,1.21c.18.34.43.6.74.78.31.18.65.27,1.02.27s.72-.09,1.03-.27c.31-.18.56-.44.74-.78.18-.34.28-.74.28-1.19s-.09-.85-.28-1.19Z"/>
      <path class="h" d="m732.08,372.15v3.55c0,.29.06.5.19.62s.34.18.65.18h.74v.85h-.9c-.56,0-.98-.13-1.25-.38-.28-.26-.42-.68-.42-1.27v-3.55h-.78v-.83h.78v-1.52h1v1.52h1.57v.83h-1.57Z"/>
      <path class="h" d="m734.9,370.15c-.13-.13-.2-.29-.2-.48s.07-.35.2-.48c.13-.13.29-.2.48-.2s.34.07.47.2c.13.13.19.29.19.48s-.06.35-.19.48c-.13.13-.28.2-.47.2s-.35-.07-.48-.2Zm.97,1.18v6.03h-1v-6.03h1Z"/>
      <path class="h" d="m738.67,377.07c-.46-.26-.82-.62-1.08-1.09-.26-.47-.39-1.02-.39-1.64s.13-1.16.4-1.63c.27-.47.63-.84,1.09-1.09.46-.25.98-.38,1.55-.38s1.09.13,1.55.38c.46.25.83.61,1.1,1.08.27.47.4,1.02.4,1.64s-.14,1.17-.41,1.64c-.28.47-.65.84-1.12,1.09s-.99.38-1.56.38-1.08-.13-1.54-.38Zm2.55-.75c.31-.17.57-.42.76-.76.2-.34.29-.75.29-1.23s-.09-.89-.29-1.23c-.19-.34-.44-.59-.75-.75-.31-.17-.64-.25-1-.25s-.7.08-1.01.25c-.3.17-.55.42-.73.75-.18.34-.28.75-.28,1.23s.09.91.27,1.24c.18.34.42.59.72.75s.63.25.99.25.7-.08,1.01-.25Z"/>
      <path class="h" d="m749.33,371.88c.46.44.68,1.08.68,1.92v3.55h-.99v-3.41c0-.6-.15-1.06-.45-1.38-.3-.32-.71-.48-1.23-.48s-.95.17-1.26.49c-.31.33-.47.81-.47,1.44v3.33h-1v-6.03h1v.86c.2-.31.47-.55.81-.71s.72-.25,1.13-.25c.73,0,1.33.22,1.78.67Z"/>
    </g>
    <path class="g" d="m390.63,345.85h-63.49c-6.67,0-13.33.02-20,.06l-63.5.4" pointer-events="stroke"/>
    <path class="f" d="m395.88,345.85l-7,2.33,1.75-2.33-1.75-2.33,7,2.33Z" pointer-events="all"/>
    <path class="f" d="m238.39,346.34l6.98-2.37-1.73,2.34,1.76,2.32-7.01-2.29Z" pointer-events="all"/>
    <path class="g" d="m523.37,345.85h49.89c6.67,0,10-3.33,10-10v-172.51c0-6.67,3.33-10,10-10h49.87" pointer-events="stroke"/>
    <path class="f" d="m518.12,345.85l7-2.33-1.75,2.33,1.75,2.33-7-2.33Z" pointer-events="all"/>
    <path class="f" d="m648.38,153.35l-7,2.33,1.75-2.33-1.75-2.34,7,2.34Z" pointer-events="all"/>
    <path class="g" d="m523.37,345.85h49.89c6.67,0,10-3.33,10-10v-57.49c0-6.67,3.33-10,10-10h49.87" pointer-events="stroke"/>
    <path class="f" d="m518.12,345.85l7-2.33-1.75,2.33,1.75,2.33-7-2.33Z" pointer-events="all"/>
    <path class="f" d="m648.38,268.35l-7,2.34,1.75-2.34-1.75-2.33,7,2.33Z" pointer-events="all"/>
    <path class="g" d="m523.37,345.85h49.89c6.67,0,10-3.33,10-10v-15.49c0-6.67,3.33-10,10-10h49.87" pointer-events="stroke"/>
    <path class="f" d="m518.12,345.85l7-2.33-1.75,2.33,1.75,2.33-7-2.33Z" pointer-events="all"/>
    <path class="f" d="m648.38,310.35l-7,2.34,1.75-2.34-1.75-2.33,7,2.33Z" pointer-events="all"/>
    <path class="g" d="m523.37,345.85h49.66c6.67,0,10,3.33,10,10v40.51c0,6.67,3.33,10,10,10h57.6" pointer-events="stroke"/>
    <path class="f" d="m518.12,345.85l7-2.33-1.75,2.33,1.75,2.33-7-2.33Z" pointer-events="all"/>
    <path class="f" d="m655.88,406.35l-7,2.33,1.75-2.33-1.75-2.33,7,2.33Z" pointer-events="all"/>
    <path class="g" d="m523.37,345.85h141.14c6.67,0,13.33-.01,20-.03l141.12-.45" pointer-events="stroke"/>
    <path class="f" d="m518.12,345.85l7-2.33-1.75,2.33,1.75,2.33-7-2.33Z" pointer-events="all"/>
    <path class="f" d="m830.88,345.35l-6.99,2.36,1.74-2.34-1.76-2.33,7.01,2.31Z" pointer-events="all"/>
    <path class="g" d="m523.37,345.85h49.66c6.67,0,10,3.33,10,10v129.49c0,6.67,3.33,10,10,10h57.6" pointer-events="stroke"/>
    <path class="f" d="m518.12,345.85l7-2.33-1.75,2.33,1.75,2.33-7-2.33Z" pointer-events="all"/>
    <path class="f" d="m655.88,495.35l-7,2.33,1.75-2.33-1.75-2.33,7,2.33Z" pointer-events="all"/>
    <path class="g" d="m517,345.85h56.26c6.67,0,10-3.33,10-10v-131.49c0-6.67,3.33-10,10-10h49.87" pointer-events="stroke"/>
    <path class="f" d="m648.38,194.35l-7,3.5,1.75-3.5-1.75-3.5,7,3.5Z" pointer-events="all"/>
    <rect class="d" x="397" y="315.85" width="120" height="60" rx="9" ry="9" pointer-events="all"/>
    <g class="j">
      <path d="m416.89,347.49h-3.65l-.67,1.86h-1.15l3.02-8.32h1.26l3.01,8.32h-1.15l-.67-1.86Zm-.31-.89l-1.51-4.22-1.51,4.22h3.02Z"/>
      <path d="m422.09,343.05c.43-.25.93-.38,1.49-.38s1.11.14,1.59.42c.48.28.85.67,1.12,1.18.27.51.41,1.1.41,1.77s-.14,1.26-.41,1.78c-.27.52-.65.92-1.12,1.21-.48.29-1.01.43-1.59.43s-1.05-.13-1.48-.38c-.43-.25-.75-.57-.98-.94v4.33h-1.09v-9.7h1.09v1.21c.22-.38.54-.69.97-.94Zm3.2,1.7c-.2-.37-.47-.65-.81-.84-.34-.19-.71-.29-1.12-.29s-.77.1-1.11.29c-.34.2-.61.48-.82.85-.2.37-.31.8-.31,1.29s.1.93.31,1.3c.2.37.48.66.82.85.34.2.71.29,1.11.29s.78-.1,1.12-.29c.34-.2.61-.48.81-.85s.3-.81.3-1.31-.1-.93-.3-1.3Z"/>
      <path d="m434.11,346.47h-5.26c.04.65.26,1.15.67,1.52.4.36.89.55,1.47.55.47,0,.87-.11,1.18-.33.32-.22.54-.51.67-.88h1.18c-.18.63-.53,1.15-1.06,1.54-.53.4-1.18.59-1.97.59-.62,0-1.18-.14-1.67-.42-.49-.28-.88-.68-1.16-1.19-.28-.52-.42-1.11-.42-1.79s.14-1.28.41-1.79c.27-.51.65-.91,1.15-1.18.49-.28,1.06-.41,1.7-.41s1.18.14,1.66.41c.48.27.85.65,1.11,1.12.26.48.39,1.01.39,1.61,0,.21-.01.43-.04.66Zm-1.37-1.96c-.18-.3-.43-.53-.75-.68-.32-.16-.67-.23-1.05-.23-.55,0-1.02.18-1.41.53-.39.35-.61.84-.67,1.46h4.15c0-.42-.09-.77-.28-1.07Z"/>
      <path d="m437.5,342.97c.36-.21.79-.31,1.3-.31v1.13h-.29c-1.22,0-1.84.66-1.84,1.99v3.58h-1.09v-6.58h1.09v1.07c.19-.38.47-.67.82-.88Z"/>
      <path d="m441.39,343.68v3.88c0,.32.07.55.2.68s.37.2.71.2h.8v.92h-.98c-.61,0-1.06-.14-1.37-.42s-.46-.74-.46-1.38v-3.88h-.85v-.9h.85v-1.66h1.09v1.66h1.72v.9h-1.72Z"/>
      <path d="m450.26,342.78v6.58h-1.09v-.97c-.21.34-.5.6-.87.79-.37.19-.78.28-1.23.28-.51,0-.97-.11-1.38-.32s-.73-.53-.97-.95-.35-.94-.35-1.55v-3.85h1.08v3.71c0,.65.16,1.15.49,1.49s.78.52,1.34.52,1.04-.18,1.38-.54c.34-.36.5-.88.5-1.57v-3.61h1.09Z"/>
      <path d="m454.02,342.97c.36-.21.79-.31,1.3-.31v1.13h-.29c-1.22,0-1.84.66-1.84,1.99v3.58h-1.09v-6.58h1.09v1.07c.19-.38.47-.67.82-.88Z"/>
      <path d="m462.55,346.47h-5.26c.04.65.26,1.15.67,1.52.4.36.89.55,1.47.55.47,0,.87-.11,1.18-.33.32-.22.54-.51.67-.88h1.18c-.18.63-.53,1.15-1.06,1.54-.53.4-1.18.59-1.97.59-.62,0-1.18-.14-1.67-.42-.49-.28-.88-.68-1.16-1.19-.28-.52-.42-1.11-.42-1.79s.14-1.28.41-1.79c.27-.51.65-.91,1.15-1.18.49-.28,1.06-.41,1.7-.41s1.18.14,1.66.41c.48.27.85.65,1.11,1.12.26.48.39,1.01.39,1.61,0,.21-.01.43-.04.66Zm-1.37-1.96c-.18-.3-.43-.53-.75-.68-.32-.16-.67-.23-1.05-.23-.55,0-1.02.18-1.41.53-.39.35-.61.84-.67,1.46h4.15c0-.42-.09-.77-.28-1.07Z"/>
      <path d="m472.17,347.49h-3.65l-.67,1.86h-1.15l3.02-8.32h1.26l3.01,8.32h-1.15l-.67-1.86Zm-.31-.89l-1.51-4.22-1.51,4.22h3.02Z"/>
      <path d="m479.52,343.04c.43.25.75.56.95.94v-1.2h1.1v6.72c0,.6-.13,1.13-.38,1.6s-.62.83-1.1,1.1c-.48.26-1.03.4-1.66.4-.86,0-1.58-.2-2.16-.61s-.92-.96-1.02-1.67h1.08c.12.4.37.72.74.97s.83.37,1.36.37c.6,0,1.09-.19,1.47-.56s.57-.9.57-1.58v-1.38c-.22.38-.54.7-.96.96-.42.26-.92.38-1.49.38s-1.11-.14-1.59-.43c-.48-.29-.85-.69-1.12-1.21-.27-.52-.41-1.11-.41-1.78s.14-1.26.41-1.77c.27-.51.65-.9,1.12-1.18.48-.28,1.01-.42,1.59-.42s1.07.12,1.49.37Zm.65,1.72c-.2-.37-.47-.65-.81-.85-.34-.2-.71-.29-1.12-.29s-.78.1-1.12.29c-.34.19-.6.47-.8.84-.2.37-.3.8-.3,1.3s.1.94.3,1.31.47.66.8.85c.34.2.71.29,1.12.29s.78-.1,1.12-.29c.34-.2.61-.48.81-.85.2-.37.3-.81.3-1.3s-.1-.93-.3-1.3Z"/>
      <path d="m489.39,346.47h-5.26c.04.65.26,1.15.67,1.52.4.36.89.55,1.47.55.47,0,.87-.11,1.18-.33.32-.22.54-.51.67-.88h1.18c-.18.63-.53,1.15-1.06,1.54-.53.4-1.18.59-1.97.59-.62,0-1.18-.14-1.67-.42-.49-.28-.88-.68-1.16-1.19-.28-.52-.42-1.11-.42-1.79s.14-1.28.41-1.79c.27-.51.65-.91,1.15-1.18.49-.28,1.06-.41,1.7-.41s1.18.14,1.66.41c.48.27.85.65,1.11,1.12.26.48.39,1.01.39,1.61,0,.21-.01.43-.04.66Zm-1.37-1.96c-.18-.3-.43-.53-.75-.68-.32-.16-.67-.23-1.05-.23-.55,0-1.02.18-1.41.53-.39.35-.61.84-.67,1.46h4.15c0-.42-.09-.77-.28-1.07Z"/>
      <path d="m496.01,343.38c.5.48.74,1.18.74,2.09v3.88h-1.08v-3.72c0-.66-.16-1.16-.49-1.51-.33-.35-.78-.52-1.34-.52s-1.03.18-1.37.54-.51.88-.51,1.57v3.64h-1.09v-6.58h1.09v.94c.22-.34.51-.6.88-.78s.78-.28,1.23-.28c.8,0,1.45.24,1.94.73Z"/>
      <path d="m499.88,343.68v3.88c0,.32.07.55.2.68s.37.2.71.2h.8v.92h-.98c-.61,0-1.06-.14-1.37-.42s-.46-.74-.46-1.38v-3.88h-.85v-.9h.85v-1.66h1.09v1.66h1.72v.9h-1.72Z"/>
    </g>
    <rect class="e" x="832" y="327.85" width="140" height="35" rx="5.25" ry="5.25" pointer-events="none"/>
    <g class="j">
      <path class="h" d="m872.92,348.35l-3.44-3.82v3.82h-1.09v-8.36h1.09v3.88l3.46-3.88h1.38l-3.79,4.19,3.83,4.18h-1.43Z"/>
      <path class="h" d="m881.41,341.78v6.58h-1.09v-.97c-.21.34-.5.6-.87.79-.37.19-.78.28-1.23.28-.51,0-.97-.11-1.38-.32s-.73-.53-.97-.95c-.24-.42-.35-.94-.35-1.55v-3.85h1.08v3.71c0,.65.16,1.15.49,1.49s.78.52,1.34.52,1.04-.18,1.38-.54c.34-.36.5-.88.5-1.57v-3.61h1.09Z"/>
      <path class="h" d="m885.33,342.04c.43-.25.92-.37,1.48-.37.59,0,1.12.14,1.6.42.47.28.84.67,1.12,1.18s.41,1.1.41,1.77-.14,1.26-.41,1.78c-.27.52-.65.92-1.12,1.21s-1.01.43-1.59.43-1.07-.12-1.49-.37-.75-.56-.97-.95v1.21h-1.09v-8.88h1.09v3.53c.22-.39.55-.71.98-.96Zm3.18,1.7c-.2-.37-.47-.65-.81-.84-.34-.19-.71-.29-1.12-.29s-.77.1-1.11.29c-.34.2-.61.48-.82.85-.2.37-.31.8-.31,1.29s.1.93.31,1.3c.2.37.48.66.82.85.34.2.71.29,1.11.29s.78-.1,1.12-.29c.34-.2.61-.48.81-.85s.3-.81.3-1.31-.1-.93-.3-1.3Z"/>
      <path class="h" d="m897.33,345.47h-5.26c.04.65.26,1.15.67,1.52.4.36.89.55,1.47.55.47,0,.87-.11,1.18-.33.32-.22.54-.51.67-.88h1.18c-.18.63-.53,1.15-1.06,1.54-.53.4-1.18.59-1.97.59-.62,0-1.18-.14-1.67-.42-.49-.28-.88-.68-1.16-1.19-.28-.52-.42-1.11-.42-1.79s.13-1.28.41-1.79.65-.91,1.15-1.18c.49-.28,1.06-.41,1.7-.41s1.18.14,1.66.41c.48.27.85.65,1.11,1.12.26.48.39,1.01.39,1.61,0,.21-.01.43-.04.66Zm-1.37-1.96c-.18-.3-.43-.53-.75-.68-.32-.16-.67-.23-1.05-.23-.55,0-1.02.18-1.41.53-.39.35-.61.84-.67,1.46h4.15c0-.42-.09-.77-.28-1.07Z"/>
      <path class="h" d="m900.72,341.97c.36-.21.79-.31,1.3-.31v1.13h-.29c-1.22,0-1.84.66-1.84,1.99v3.58h-1.09v-6.58h1.09v1.07c.19-.38.47-.67.82-.88Z"/>
      <path class="h" d="m908.43,342.38c.5.48.74,1.18.74,2.09v3.88h-1.08v-3.72c0-.66-.16-1.16-.49-1.51-.33-.35-.78-.52-1.34-.52s-1.03.18-1.37.54-.51.88-.51,1.57v3.64h-1.09v-6.58h1.09v.94c.22-.34.51-.6.88-.78s.78-.28,1.23-.28c.8,0,1.45.24,1.94.73Z"/>
      <path class="h" d="m916.92,345.47h-5.26c.04.65.26,1.15.67,1.52.4.36.89.55,1.47.55.47,0,.87-.11,1.18-.33.32-.22.54-.51.67-.88h1.18c-.18.63-.53,1.15-1.06,1.54-.53.4-1.18.59-1.97.59-.62,0-1.18-.14-1.67-.42-.49-.28-.88-.68-1.16-1.19-.28-.52-.42-1.11-.42-1.79s.13-1.28.41-1.79.65-.91,1.15-1.18c.49-.28,1.06-.41,1.7-.41s1.18.14,1.66.41c.48.27.85.65,1.11,1.12.26.48.39,1.01.39,1.61,0,.21-.01.43-.04.66Zm-1.37-1.96c-.18-.3-.43-.53-.75-.68-.32-.16-.67-.23-1.05-.23-.55,0-1.02.18-1.41.53-.39.35-.61.84-.67,1.46h4.15c0-.42-.09-.77-.28-1.07Z"/>
      <path class="h" d="m919.73,342.68v3.88c0,.32.07.55.2.68.14.13.37.2.71.2h.8v.92h-.98c-.61,0-1.06-.14-1.37-.42-.3-.28-.46-.74-.46-1.38v-3.88h-.85v-.9h.85v-1.66h1.09v1.66h1.72v.9h-1.72Z"/>
      <path class="h" d="m928.73,345.47h-5.26c.04.65.26,1.15.67,1.52.4.36.89.55,1.47.55.47,0,.87-.11,1.18-.33.32-.22.54-.51.67-.88h1.18c-.18.63-.53,1.15-1.06,1.54-.53.4-1.18.59-1.97.59-.62,0-1.18-.14-1.67-.42-.49-.28-.88-.68-1.16-1.19-.28-.52-.42-1.11-.42-1.79s.14-1.28.41-1.79c.27-.51.65-.91,1.15-1.18.49-.28,1.06-.41,1.7-.41s1.18.14,1.66.41c.48.27.85.65,1.11,1.12.26.48.39,1.01.39,1.61,0,.21-.01.43-.04.66Zm-1.37-1.96c-.18-.3-.43-.53-.75-.68-.32-.16-.67-.23-1.05-.23-.55,0-1.02.18-1.41.53-.39.35-.61.84-.67,1.46h4.15c0-.42-.09-.77-.28-1.07Z"/>
      <path class="h" d="m931.18,348.2c-.4-.17-.71-.41-.95-.72-.23-.31-.36-.66-.38-1.06h1.13c.03.33.19.6.46.8.28.21.64.31,1.09.31.42,0,.74-.09.98-.28.24-.18.36-.42.36-.7s-.13-.5-.38-.64c-.26-.14-.65-.28-1.19-.41-.49-.13-.89-.26-1.2-.39-.31-.13-.57-.33-.79-.59-.22-.26-.33-.6-.33-1.03,0-.34.1-.64.3-.92.2-.28.48-.5.85-.67.37-.16.79-.25,1.26-.25.73,0,1.32.18,1.76.55.45.37.69.87.72,1.51h-1.09c-.02-.34-.16-.62-.41-.83s-.59-.31-1.01-.31c-.39,0-.7.08-.94.25s-.35.39-.35.66c0,.22.07.39.21.53.14.14.32.25.53.34.21.08.51.18.88.28.47.13.86.25,1.15.38.3.12.55.31.76.56.21.25.32.57.33.97,0,.36-.1.68-.3.97-.2.29-.48.51-.85.68-.36.16-.78.25-1.25.25-.5,0-.96-.09-1.36-.26Z"/>
    </g>
    <g class="j">
      <path class="h" d="m862.94,315.89c-.64-.36-1.15-.87-1.52-1.52-.37-.65-.56-1.39-.56-2.2s.19-1.55.56-2.2c.37-.65.88-1.16,1.52-1.52s1.35-.55,2.12-.55,1.5.18,2.14.55c.64.36,1.14.87,1.51,1.52.37.65.55,1.38.55,2.21s-.18,1.56-.55,2.21c-.37.65-.87,1.15-1.51,1.52-.64.36-1.35.55-2.14.55s-1.48-.18-2.12-.55Zm3.7-.81c.47-.27.84-.66,1.1-1.16.27-.5.4-1.09.4-1.75s-.13-1.26-.4-1.76c-.27-.5-.63-.89-1.1-1.16-.46-.27-.99-.41-1.58-.41s-1.12.14-1.58.41c-.46.27-.83.66-1.1,1.16s-.4,1.09-.4,1.76.13,1.25.4,1.75c.27.5.64.89,1.1,1.16.47.27.99.41,1.58.41s1.11-.14,1.58-.41Z"/>
      <path class="h" d="m872.62,309.97c.36-.21.79-.31,1.3-.31v1.13h-.29c-1.22,0-1.84.66-1.84,1.99v3.58h-1.09v-6.58h1.09v1.07c.19-.38.47-.67.82-.88Z"/>
      <path class="h" d="m875.18,311.27c.27-.51.65-.9,1.13-1.18s1.04-.42,1.66-.42c.81,0,1.47.2,2,.59.52.39.87.94,1.04,1.63h-1.18c-.11-.4-.33-.72-.65-.95-.32-.23-.72-.35-1.21-.35-.62,0-1.13.21-1.51.64-.38.43-.58,1.03-.58,1.82s.19,1.4.58,1.84c.38.43.89.65,1.51.65.48,0,.88-.11,1.2-.34.32-.22.54-.54.66-.96h1.18c-.18.67-.53,1.21-1.05,1.61-.53.4-1.19.61-1.98.61-.62,0-1.18-.14-1.66-.42-.48-.28-.86-.68-1.13-1.19-.27-.51-.41-1.11-.41-1.8s.14-1.27.41-1.78Z"/>
      <path class="h" d="m887.07,309.98c.4.21.71.53.94.95s.34.94.34,1.55v3.88h-1.08v-3.72c0-.66-.16-1.16-.49-1.51-.33-.35-.78-.52-1.34-.52s-1.03.18-1.37.54-.51.88-.51,1.57v3.64h-1.09v-8.88h1.09v3.24c.22-.34.51-.6.89-.78.38-.18.8-.28,1.28-.28.5,0,.94.11,1.34.32Z"/>
      <path class="h" d="m896.11,313.47h-5.26c.04.65.26,1.15.67,1.52.4.36.89.55,1.47.55.47,0,.87-.11,1.18-.33.32-.22.54-.51.67-.88h1.18c-.18.63-.53,1.15-1.06,1.54-.53.4-1.18.59-1.97.59-.62,0-1.18-.14-1.67-.42-.49-.28-.88-.68-1.16-1.19-.28-.52-.42-1.11-.42-1.79s.14-1.28.41-1.79c.27-.51.65-.91,1.15-1.18.49-.28,1.06-.41,1.7-.41s1.18.14,1.66.41c.48.27.85.65,1.11,1.12.26.48.39,1.01.39,1.61,0,.21-.01.43-.04.66Zm-1.37-1.96c-.18-.3-.43-.53-.75-.68-.32-.16-.67-.23-1.05-.23-.55,0-1.02.18-1.41.53-.39.35-.61.84-.67,1.46h4.15c0-.42-.09-.77-.28-1.07Z"/>
      <path class="h" d="m898.55,316.2c-.4-.17-.72-.41-.95-.72-.23-.31-.36-.66-.38-1.06h1.13c.03.33.19.6.46.8.28.21.64.31,1.09.31.42,0,.74-.09.98-.28.24-.18.36-.42.36-.7s-.13-.5-.38-.64c-.26-.14-.65-.28-1.19-.41-.49-.13-.89-.26-1.19-.39-.31-.13-.57-.33-.79-.59-.22-.26-.33-.6-.33-1.03,0-.34.1-.64.3-.92.2-.28.48-.5.85-.67.37-.16.79-.25,1.26-.25.73,0,1.32.18,1.76.55s.69.87.72,1.51h-1.09c-.02-.34-.16-.62-.41-.83s-.59-.31-1.01-.31c-.39,0-.7.08-.94.25-.23.17-.35.39-.35.66,0,.22.07.39.21.53.14.14.32.25.53.34.21.08.51.18.88.28.47.13.86.25,1.15.38.29.12.55.31.76.56.21.25.32.57.33.97,0,.36-.1.68-.3.97-.2.29-.48.51-.85.68-.36.16-.78.25-1.25.25-.5,0-.96-.09-1.36-.26Z"/>
      <path class="h" d="m905.18,310.68v3.88c0,.32.07.55.21.68.13.13.37.2.71.2h.8v.92h-.98c-.61,0-1.06-.14-1.37-.42-.3-.28-.46-.74-.46-1.38v-3.88h-.85v-.9h.85v-1.66h1.09v1.66h1.72v.9h-1.72Z"/>
      <path class="h" d="m910.13,309.97c.36-.21.79-.31,1.3-.31v1.13h-.29c-1.22,0-1.84.66-1.84,1.99v3.58h-1.09v-6.58h1.09v1.07c.19-.38.46-.67.82-.88Z"/>
      <path class="h" d="m912.69,311.27c.27-.51.65-.9,1.12-1.18.48-.28,1.01-.42,1.59-.42s1.08.12,1.5.37.74.56.95.94v-1.2h1.1v6.58h-1.1v-1.22c-.21.38-.54.7-.96.95-.43.25-.93.38-1.49.38s-1.11-.14-1.58-.43c-.47-.29-.84-.69-1.12-1.21-.27-.52-.41-1.11-.41-1.78s.14-1.26.41-1.77Zm4.86.49c-.2-.37-.47-.65-.81-.85-.34-.2-.71-.29-1.12-.29s-.78.1-1.12.29c-.34.19-.6.47-.8.84-.2.37-.3.8-.3,1.3s.1.94.3,1.31.47.66.8.85c.34.2.71.29,1.12.29s.78-.1,1.12-.29c.34-.2.61-.48.81-.85.2-.37.3-.81.3-1.3s-.1-.93-.3-1.3Z"/>
      <path class="h" d="m922.13,310.68v3.88c0,.32.07.55.2.68.14.13.37.2.71.2h.8v.92h-.98c-.61,0-1.06-.14-1.37-.42-.3-.28-.46-.74-.46-1.38v-3.88h-.85v-.9h.85v-1.66h1.09v1.66h1.72v.9h-1.72Z"/>
      <path class="h" d="m926.36,316.04c-.5-.28-.89-.68-1.18-1.19-.28-.52-.43-1.11-.43-1.79s.15-1.27.44-1.78.69-.91,1.19-1.19c.5-.28,1.07-.41,1.69-.41s1.19.14,1.69.41c.5.28.9.67,1.19,1.18.29.51.44,1.11.44,1.79s-.15,1.28-.45,1.79c-.3.52-.71.91-1.22,1.19-.51.28-1.08.42-1.7.42s-1.17-.14-1.67-.42Zm2.78-.82c.34-.18.62-.46.83-.83.21-.37.32-.82.32-1.34s-.1-.98-.31-1.34c-.21-.37-.48-.64-.82-.82-.34-.18-.7-.27-1.09-.27s-.77.09-1.1.27c-.33.18-.6.45-.8.82-.2.37-.3.82-.3,1.34s.1.99.29,1.36c.2.37.46.64.79.82s.69.27,1.08.27.76-.09,1.1-.28Z"/>
      <path class="h" d="m934.76,309.97c.36-.21.79-.31,1.3-.31v1.13h-.29c-1.22,0-1.84.66-1.84,1.99v3.58h-1.09v-6.58h1.09v1.07c.19-.38.47-.67.82-.88Z"/>
      <path class="h" d="m938.3,316.2c-.4-.17-.72-.41-.95-.72-.23-.31-.36-.66-.38-1.06h1.13c.03.33.19.6.46.8s.64.31,1.09.31c.42,0,.74-.09.98-.28.24-.18.36-.42.36-.7s-.13-.5-.38-.64c-.26-.14-.65-.28-1.19-.41-.49-.13-.89-.26-1.19-.39-.31-.13-.57-.33-.79-.59-.22-.26-.33-.6-.33-1.03,0-.34.1-.64.3-.92.2-.28.48-.5.85-.67.37-.16.79-.25,1.26-.25.73,0,1.32.18,1.76.55.45.37.69.87.72,1.51h-1.09c-.02-.34-.16-.62-.41-.83s-.59-.31-1.01-.31c-.39,0-.7.08-.94.25-.23.17-.35.39-.35.66,0,.22.07.39.21.53.14.14.32.25.53.34s.51.18.88.28c.47.13.86.25,1.15.38s.55.31.76.56.32.57.33.97c0,.36-.1.68-.3.97-.2.29-.48.51-.85.68-.36.16-.78.25-1.25.25-.5,0-.96-.09-1.36-.26Z"/>
    </g>
    <rect class="e" x="649.5" y="250.85" width="140" height="35" rx="5.25" ry="5.25" pointer-events="none"/>
    <g class="j">
      <path class="h" d="m709.63,271.35l-3.44-3.82v3.82h-1.09v-8.36h1.09v3.88l3.46-3.88h1.38l-3.79,4.19,3.83,4.18h-1.43Z"/>
      <path class="h" d="m713.48,271.04c-.5-.28-.89-.68-1.18-1.19-.28-.52-.43-1.11-.43-1.79s.15-1.27.44-1.78.69-.91,1.19-1.19c.5-.28,1.07-.41,1.69-.41s1.19.14,1.69.41c.5.28.9.67,1.19,1.18s.44,1.11.44,1.79-.15,1.28-.45,1.79c-.3.52-.71.91-1.22,1.19-.51.28-1.08.42-1.7.42s-1.17-.14-1.67-.42Zm2.78-.82c.34-.18.62-.46.83-.83s.32-.82.32-1.34-.1-.98-.31-1.34c-.21-.37-.48-.64-.82-.82-.34-.18-.7-.27-1.09-.27s-.77.09-1.1.27c-.33.18-.6.45-.8.82-.2.37-.3.82-.3,1.34s.1.99.29,1.36c.2.37.46.64.79.82s.69.27,1.08.27.76-.09,1.1-.28Z"/>
      <path class="h" d="m725.12,265.38c.5.48.74,1.18.74,2.09v3.88h-1.08v-3.72c0-.66-.16-1.16-.49-1.51-.33-.35-.78-.52-1.34-.52s-1.03.18-1.37.54-.51.88-.51,1.57v3.64h-1.09v-6.58h1.09v.94c.22-.34.51-.6.88-.78s.78-.28,1.23-.28c.8,0,1.45.24,1.94.73Z"/>
      <path class="h" d="m731.85,265.04c.43.25.75.56.95.94v-1.2h1.1v6.72c0,.6-.13,1.13-.38,1.6-.26.47-.62.83-1.1,1.1-.48.26-1.03.4-1.66.4-.86,0-1.58-.2-2.16-.61-.58-.41-.92-.96-1.02-1.67h1.08c.12.4.37.72.74.97s.83.37,1.36.37c.6,0,1.09-.19,1.47-.56.38-.38.57-.9.57-1.58v-1.38c-.22.38-.54.7-.96.96-.42.26-.92.38-1.49.38s-1.11-.14-1.59-.43c-.48-.29-.85-.69-1.12-1.21-.27-.52-.41-1.11-.41-1.78s.14-1.26.41-1.77c.27-.51.65-.9,1.12-1.18.48-.28,1.01-.42,1.59-.42s1.07.12,1.49.37Zm.65,1.72c-.2-.37-.47-.65-.81-.85-.34-.2-.71-.29-1.12-.29s-.78.1-1.12.29c-.34.19-.6.47-.8.84-.2.37-.3.8-.3,1.3s.1.94.3,1.31c.2.37.47.66.8.85.34.2.71.29,1.12.29s.78-.1,1.12-.29c.34-.2.61-.48.81-.85s.3-.81.3-1.3-.1-.93-.3-1.3Z"/>
    </g>
    <rect class="e" x="649.5" y="292.85" width="140" height="35" rx="5.25" ry="5.25" pointer-events="none"/>
    <g class="j">
      <path class="h" d="m710.54,313.35h-1.09l-4.39-6.66v6.66h-1.09v-8.38h1.09l4.39,6.65v-6.65h1.09v8.38Z"/>
      <path class="h" d="m716.61,307.04c.43.25.75.56.95.94v-1.2h1.1v6.72c0,.6-.13,1.13-.38,1.6s-.62.83-1.1,1.1c-.48.26-1.03.4-1.66.4-.86,0-1.58-.2-2.16-.61s-.92-.96-1.02-1.67h1.08c.12.4.37.72.74.97s.83.37,1.36.37c.6,0,1.09-.19,1.47-.56s.57-.9.57-1.58v-1.38c-.22.38-.54.7-.96.96-.42.26-.92.38-1.49.38s-1.11-.14-1.59-.43c-.48-.29-.85-.69-1.12-1.21-.27-.52-.41-1.11-.41-1.78s.14-1.26.41-1.77c.27-.51.65-.9,1.12-1.18.48-.28,1.01-.42,1.59-.42s1.07.12,1.49.37Zm.65,1.72c-.2-.37-.47-.65-.81-.85-.34-.2-.71-.29-1.12-.29s-.78.1-1.12.29c-.34.19-.6.47-.8.84-.2.37-.3.8-.3,1.3s.1.94.3,1.31.47.66.8.85c.34.2.71.29,1.12.29s.78-.1,1.12-.29c.34-.2.61-.48.81-.85.2-.37.3-.81.3-1.3s-.1-.93-.3-1.3Z"/>
      <path class="h" d="m720.55,305.49c-.14-.14-.22-.32-.22-.53s.07-.38.22-.53c.14-.14.32-.22.53-.22s.37.07.51.22.21.32.21.53-.07.38-.21.53c-.14.14-.31.22-.51.22s-.38-.07-.53-.22Zm1.06,1.28v6.58h-1.09v-6.58h1.09Z"/>
      <path class="h" d="m728.61,307.38c.5.48.74,1.18.74,2.09v3.88h-1.08v-3.72c0-.66-.16-1.16-.49-1.51-.33-.35-.78-.52-1.34-.52s-1.03.18-1.37.54-.51.88-.51,1.57v3.64h-1.09v-6.58h1.09v.94c.22-.34.51-.6.88-.78s.78-.28,1.23-.28c.8,0,1.45.24,1.94.73Z"/>
      <path class="h" d="m734.58,313.35l-1.56-2.45-1.5,2.45h-1.14l2.12-3.26-2.12-3.31h1.24l1.56,2.44,1.49-2.44h1.14l-2.11,3.25,2.12,3.32h-1.24Z"/>
    </g>
    <g class="j">
      <path class="h" d="m696.65,233.41c-.23-.49-.57-.87-1.01-1.13-.44-.27-.95-.4-1.54-.4s-1.11.13-1.58.4c-.47.27-.84.65-1.1,1.15-.27.5-.4,1.08-.4,1.73s.13,1.23.4,1.73c.27.5.64.88,1.1,1.15.47.27.99.4,1.58.4.82,0,1.49-.24,2.02-.73.53-.49.84-1.15.92-1.98h-3.34v-.89h4.5v.84c-.06.69-.28,1.32-.65,1.89-.37.57-.85,1.02-1.45,1.36s-1.27.5-2,.5c-.78,0-1.48-.18-2.12-.55-.64-.36-1.15-.87-1.52-1.52-.37-.65-.56-1.38-.56-2.2s.19-1.55.56-2.2c.37-.65.88-1.16,1.52-1.52.64-.36,1.35-.55,2.12-.55.89,0,1.67.22,2.36.66.68.44,1.18,1.06,1.49,1.86h-1.31Z"/>
      <path class="h" d="m699.65,234.27c.27-.51.65-.9,1.12-1.18.48-.28,1.01-.42,1.59-.42s1.08.12,1.5.37.74.56.95.94v-1.2h1.1v6.58h-1.1v-1.22c-.22.38-.54.7-.97.95-.43.25-.93.38-1.49.38s-1.11-.14-1.58-.43c-.47-.29-.84-.69-1.12-1.21-.27-.52-.41-1.11-.41-1.78s.14-1.26.41-1.77Zm4.86.49c-.2-.37-.47-.65-.81-.85-.34-.2-.71-.29-1.12-.29s-.78.1-1.12.29c-.34.19-.6.47-.8.84-.2.37-.3.8-.3,1.3s.1.94.3,1.31.47.66.8.85c.34.2.71.29,1.12.29s.78-.1,1.12-.29c.34-.2.61-.48.81-.85.2-.37.3-.81.3-1.3s-.1-.93-.3-1.3Z"/>
      <path class="h" d="m709.09,233.68v3.88c0,.32.07.55.2.68s.37.2.71.2h.8v.92h-.98c-.61,0-1.06-.14-1.37-.42s-.46-.74-.46-1.38v-3.88h-.85v-.9h.85v-1.66h1.09v1.66h1.72v.9h-1.72Z"/>
      <path class="h" d="m718.1,236.47h-5.26c.04.65.26,1.15.67,1.52.4.36.89.55,1.47.55.47,0,.87-.11,1.18-.33.32-.22.54-.51.67-.88h1.18c-.18.63-.53,1.15-1.06,1.54-.53.4-1.18.59-1.97.59-.62,0-1.18-.14-1.67-.42-.49-.28-.88-.68-1.16-1.19-.28-.52-.42-1.11-.42-1.79s.14-1.28.41-1.79c.27-.51.65-.91,1.15-1.18.49-.28,1.06-.41,1.7-.41s1.18.14,1.66.41c.48.27.85.65,1.11,1.12.26.48.39,1.01.39,1.61,0,.21-.01.43-.04.66Zm-1.37-1.96c-.18-.3-.43-.53-.75-.68-.32-.16-.67-.23-1.05-.23-.55,0-1.02.18-1.41.53-.39.35-.61.84-.67,1.46h4.15c0-.42-.09-.77-.28-1.07Z"/>
      <path class="h" d="m728.33,232.78l-2.05,6.58h-1.13l-1.58-5.22-1.58,5.22h-1.13l-2.06-6.58h1.12l1.51,5.52,1.63-5.52h1.12l1.6,5.53,1.49-5.53h1.08Z"/>
      <path class="h" d="m729.41,234.27c.27-.51.65-.9,1.12-1.18.48-.28,1.01-.42,1.59-.42s1.08.12,1.5.37.74.56.95.94v-1.2h1.1v6.58h-1.1v-1.22c-.22.38-.54.7-.97.95-.43.25-.93.38-1.49.38s-1.11-.14-1.58-.43c-.47-.29-.84-.69-1.12-1.21-.27-.52-.41-1.11-.41-1.78s.14-1.26.41-1.77Zm4.86.49c-.2-.37-.47-.65-.81-.85-.34-.2-.71-.29-1.12-.29s-.78.1-1.12.29c-.34.19-.6.47-.8.84-.2.37-.3.8-.3,1.3s.1.94.3,1.31.47.66.8.85c.34.2.71.29,1.12.29s.78-.1,1.12-.29c.34-.2.61-.48.81-.85.2-.37.3-.81.3-1.3s-.1-.93-.3-1.3Z"/>
      <path class="h" d="m743.19,232.78l-3.96,9.67h-1.13l1.3-3.17-2.65-6.5h1.21l2.06,5.33,2.04-5.33h1.13Z"/>
      <path class="h" d="m745.25,239.2c-.4-.17-.72-.41-.95-.72-.23-.31-.36-.66-.38-1.06h1.13c.03.33.19.6.46.8s.64.31,1.09.31c.42,0,.74-.09.98-.28.24-.18.36-.42.36-.7s-.13-.5-.38-.64c-.26-.14-.65-.28-1.19-.41-.49-.13-.89-.26-1.19-.39-.31-.13-.57-.33-.79-.59-.22-.26-.33-.6-.33-1.03,0-.34.1-.64.3-.92.2-.28.48-.5.85-.67.37-.16.79-.25,1.26-.25.73,0,1.32.18,1.76.55s.69.87.72,1.51h-1.09c-.02-.34-.16-.62-.41-.83s-.59-.31-1.01-.31c-.39,0-.7.08-.94.25-.23.17-.35.39-.35.66,0,.22.07.39.21.53.14.14.32.25.53.34s.51.18.88.28c.47.13.86.25,1.15.38s.55.31.76.56.32.57.33.97c0,.36-.1.68-.3.97-.2.29-.48.51-.85.68-.36.16-.78.25-1.25.25-.5,0-.96-.09-1.36-.26Z"/>
    </g>
    <g pointer-events="none">
      <g class="j">
        <path class="h" d="m675.1,123.14c-.44-.2-.78-.47-1.03-.82-.25-.35-.38-.75-.38-1.21h1.16c.04.39.2.72.49.99.28.27.7.4,1.24.4s.93-.13,1.23-.39c.3-.26.45-.59.45-1,0-.32-.09-.58-.26-.78-.18-.2-.4-.35-.66-.46-.26-.1-.62-.22-1.07-.34-.55-.14-.99-.29-1.33-.43-.33-.14-.62-.37-.85-.68-.24-.31-.35-.72-.35-1.24,0-.46.12-.86.35-1.21.23-.35.56-.62.98-.82.42-.19.9-.29,1.45-.29.78,0,1.43.2,1.93.59.5.39.78.91.85,1.56h-1.2c-.04-.32-.21-.6-.5-.85-.29-.24-.69-.37-1.18-.37-.46,0-.83.12-1.12.35-.29.24-.43.57-.43.99,0,.3.09.55.26.74.17.19.38.34.64.44.25.1.61.21,1.06.34.55.15,1,.3,1.33.45.34.15.62.38.86.68.24.31.36.73.36,1.25,0,.41-.11.79-.32,1.15-.22.36-.54.65-.96.88-.42.22-.92.34-1.5.34s-1.05-.1-1.48-.29Z"/>
        <path class="h" d="m686.94,120.47h-5.26c.04.65.26,1.15.67,1.52.4.36.89.55,1.47.55.47,0,.87-.11,1.18-.33.32-.22.54-.51.67-.88h1.18c-.18.63-.53,1.15-1.06,1.54-.53.4-1.18.59-1.97.59-.62,0-1.18-.14-1.67-.42-.49-.28-.88-.68-1.16-1.19-.28-.52-.42-1.11-.42-1.79s.14-1.28.41-1.79.65-.91,1.15-1.18c.49-.28,1.06-.41,1.7-.41s1.18.14,1.66.41c.48.27.85.65,1.11,1.12.26.48.39,1.01.39,1.61,0,.21-.01.43-.04.66Zm-1.37-1.96c-.18-.3-.43-.53-.75-.68-.32-.16-.67-.23-1.05-.23-.55,0-1.02.18-1.41.53-.39.35-.61.84-.67,1.46h4.15c0-.42-.09-.77-.28-1.07Z"/>
        <path class="h" d="m690.33,116.97c.36-.21.79-.31,1.3-.31v1.13h-.29c-1.22,0-1.84.66-1.84,1.99v3.58h-1.09v-6.58h1.09v1.07c.19-.38.47-.67.82-.88Z"/>
        <path class="h" d="m695.34,122.35l2.04-5.57h1.16l-2.58,6.58h-1.27l-2.58-6.58h1.18l2.05,5.57Z"/>
        <path class="h" d="m699.66,115.49c-.14-.14-.22-.32-.22-.53s.07-.38.22-.53.32-.22.53-.22.37.07.51.22.21.32.21.53-.07.38-.21.53c-.14.14-.31.22-.51.22s-.38-.07-.53-.22Zm1.06,1.28v6.58h-1.09v-6.58h1.09Z"/>
        <path class="h" d="m702.58,118.27c.27-.51.65-.9,1.13-1.18.48-.28,1.04-.42,1.66-.42.81,0,1.47.2,2,.59.52.39.87.94,1.04,1.63h-1.18c-.11-.4-.33-.72-.65-.95-.32-.23-.73-.35-1.21-.35-.62,0-1.13.21-1.51.64-.38.43-.58,1.03-.58,1.82s.19,1.4.58,1.84c.38.43.89.65,1.51.65.48,0,.88-.11,1.2-.34.32-.22.54-.54.66-.96h1.18c-.18.67-.53,1.21-1.06,1.61s-1.19.61-1.98.61c-.62,0-1.18-.14-1.66-.42-.48-.28-.86-.68-1.13-1.19s-.41-1.11-.41-1.8.14-1.27.41-1.78Z"/>
        <path class="h" d="m715.83,120.47h-5.26c.04.65.26,1.15.67,1.52.4.36.89.55,1.47.55.47,0,.87-.11,1.18-.33.32-.22.54-.51.67-.88h1.18c-.18.63-.53,1.15-1.06,1.54-.53.4-1.18.59-1.97.59-.62,0-1.18-.14-1.67-.42-.49-.28-.88-.68-1.16-1.19-.28-.52-.42-1.11-.42-1.79s.14-1.28.41-1.79c.27-.51.65-.91,1.15-1.18.49-.28,1.06-.41,1.7-.41s1.18.14,1.66.41c.48.27.85.65,1.11,1.12.26.48.39,1.01.39,1.61,0,.21-.01.43-.04.66Zm-1.37-1.96c-.18-.3-.43-.53-.75-.68-.32-.16-.67-.23-1.05-.23-.55,0-1.02.18-1.41.53-.39.35-.61.84-.67,1.46h4.15c0-.42-.09-.77-.28-1.07Z"/>
        <path class="h" d="m728.99,115.05v8.3h-1.09v-6.19l-2.76,6.19h-.77l-2.77-6.2v6.2h-1.09v-8.3h1.18l3.07,6.86,3.07-6.86h1.16Z"/>
        <path class="h" d="m736.8,120.47h-5.26c.04.65.26,1.15.67,1.52.4.36.89.55,1.47.55.47,0,.87-.11,1.18-.33.32-.22.54-.51.67-.88h1.18c-.18.63-.53,1.15-1.06,1.54-.53.4-1.18.59-1.97.59-.62,0-1.18-.14-1.67-.42-.49-.28-.88-.68-1.16-1.19-.28-.52-.42-1.11-.42-1.79s.14-1.28.41-1.79.65-.91,1.15-1.18c.49-.28,1.06-.41,1.7-.41s1.18.14,1.66.41c.48.27.85.65,1.11,1.12.26.48.39,1.01.39,1.61,0,.21-.01.43-.04.66Zm-1.37-1.96c-.18-.3-.43-.53-.75-.68-.32-.16-.67-.23-1.05-.23-.55,0-1.02.18-1.41.53-.39.35-.61.84-.67,1.46h4.15c0-.42-.09-.77-.28-1.07Z"/>
        <path class="h" d="m739.25,123.2c-.4-.17-.72-.41-.95-.72-.23-.31-.36-.66-.38-1.06h1.13c.03.33.19.6.46.8.28.21.64.31,1.09.31.42,0,.74-.09.98-.28.24-.18.36-.42.36-.7s-.13-.5-.38-.64c-.26-.14-.65-.28-1.19-.41-.49-.13-.89-.26-1.19-.39-.31-.13-.57-.33-.79-.59-.22-.26-.33-.6-.33-1.03,0-.34.1-.64.3-.92.2-.28.48-.5.85-.67.37-.16.79-.25,1.26-.25.73,0,1.32.18,1.76.55.45.37.69.87.72,1.51h-1.09c-.02-.34-.16-.62-.41-.83s-.59-.31-1.01-.31c-.39,0-.7.08-.94.25s-.35.39-.35.66c0,.22.07.39.21.53s.32.25.53.34.51.18.88.28c.47.13.86.25,1.15.38s.55.31.76.56.32.57.33.97c0,.36-.1.68-.3.97-.2.29-.48.51-.85.68-.36.16-.78.25-1.25.25-.5,0-.96-.09-1.36-.26Z"/>
        <path class="h" d="m749.15,116.98c.4.21.71.53.94.95s.34.94.34,1.55v3.88h-1.08v-3.72c0-.66-.16-1.16-.49-1.51-.33-.35-.78-.52-1.34-.52s-1.03.18-1.37.54-.51.88-.51,1.57v3.64h-1.09v-8.88h1.09v3.24c.22-.34.51-.6.89-.78.38-.18.81-.28,1.28-.28.5,0,.94.11,1.34.32Z"/>
        <path class="h" d="m758.18,120.47h-5.26c.04.65.26,1.15.67,1.52.4.36.89.55,1.47.55.47,0,.87-.11,1.18-.33.32-.22.54-.51.67-.88h1.18c-.18.63-.53,1.15-1.06,1.54-.53.4-1.18.59-1.97.59-.62,0-1.18-.14-1.67-.42-.49-.28-.88-.68-1.16-1.19-.28-.52-.42-1.11-.42-1.79s.13-1.28.41-1.79.65-.91,1.15-1.18c.49-.28,1.06-.41,1.7-.41s1.18.14,1.66.41c.48.27.85.65,1.11,1.12.26.48.39,1.01.39,1.61,0,.21-.01.43-.04.66Zm-1.37-1.96c-.18-.3-.43-.53-.75-.68-.32-.16-.67-.23-1.05-.23-.55,0-1.02.18-1.41.53-.39.35-.61.84-.67,1.46h4.15c0-.42-.09-.77-.28-1.07Z"/>
        <path class="h" d="m760.63,123.2c-.4-.17-.72-.41-.95-.72-.23-.31-.36-.66-.38-1.06h1.13c.03.33.19.6.46.8s.64.31,1.09.31c.42,0,.74-.09.98-.28.24-.18.36-.42.36-.7s-.13-.5-.38-.64c-.26-.14-.65-.28-1.19-.41-.49-.13-.89-.26-1.19-.39-.31-.13-.57-.33-.79-.59-.22-.26-.33-.6-.33-1.03,0-.34.1-.64.3-.92.2-.28.48-.5.85-.67.37-.16.79-.25,1.26-.25.73,0,1.32.18,1.76.55.45.37.69.87.72,1.51h-1.09c-.02-.34-.16-.62-.41-.83s-.59-.31-1.01-.31c-.39,0-.7.08-.94.25-.23.17-.35.39-.35.66,0,.22.07.39.21.53.14.14.32.25.53.34s.51.18.88.28c.47.13.86.25,1.15.38s.55.31.76.56.32.57.33.97c0,.36-.1.68-.3.97-.2.29-.48.51-.85.68-.36.16-.78.25-1.25.25-.5,0-.96-.09-1.36-.26Z"/>
      </g>
    </g>
    <rect class="e" x="649.5" y="135.85" width="140" height="35" rx="5.25" ry="5.25" pointer-events="none"/>
    <g class="j">
      <path class="h" d="m709.41,147.99v8.36h-1.09v-8.36h1.09Z"/>
      <path class="h" d="m712.25,156.2c-.4-.17-.72-.41-.95-.72-.23-.31-.36-.66-.38-1.06h1.13c.03.33.19.6.46.8s.64.31,1.09.31c.42,0,.74-.09.98-.28.24-.18.36-.42.36-.7s-.13-.5-.38-.64c-.26-.14-.65-.28-1.19-.41-.49-.13-.89-.26-1.19-.39-.31-.13-.57-.33-.79-.59-.22-.26-.33-.6-.33-1.03,0-.34.1-.64.3-.92.2-.28.48-.5.85-.67.37-.16.79-.25,1.26-.25.73,0,1.32.18,1.76.55s.69.87.72,1.51h-1.09c-.02-.34-.16-.62-.41-.83s-.59-.31-1.01-.31c-.39,0-.7.08-.94.25-.23.17-.35.39-.35.66,0,.22.07.39.21.53.14.14.32.25.53.34s.51.18.88.28c.47.13.86.25,1.15.38s.55.31.76.56.32.57.33.97c0,.36-.1.68-.3.97-.2.29-.48.51-.85.68-.36.16-.78.25-1.25.25-.5,0-.96-.09-1.36-.26Z"/>
      <path class="h" d="m718.87,150.68v3.88c0,.32.07.55.2.68.14.13.37.2.71.2h.8v.92h-.98c-.61,0-1.06-.14-1.37-.42-.3-.28-.46-.74-.46-1.38v-3.88h-.85v-.9h.85v-1.66h1.09v1.66h1.72v.9h-1.72Z"/>
      <path class="h" d="m721.94,148.49c-.14-.14-.22-.32-.22-.53s.07-.38.22-.53c.14-.14.32-.22.53-.22s.37.07.51.22.21.32.21.53-.07.38-.21.53c-.14.14-.31.22-.51.22s-.38-.07-.53-.22Zm1.06,1.28v6.58h-1.09v-6.58h1.09Z"/>
      <path class="h" d="m726.05,156.04c-.5-.28-.89-.68-1.18-1.19-.28-.52-.43-1.11-.43-1.79s.15-1.27.44-1.78.69-.91,1.19-1.19c.5-.28,1.07-.41,1.69-.41s1.19.14,1.69.41c.5.28.9.67,1.19,1.18s.44,1.11.44,1.79-.15,1.28-.45,1.79c-.3.52-.71.91-1.22,1.19-.51.28-1.08.42-1.7.42s-1.17-.14-1.67-.42Zm2.78-.82c.34-.18.62-.46.83-.83s.32-.82.32-1.34-.1-.98-.31-1.34c-.21-.37-.48-.64-.82-.82-.34-.18-.7-.27-1.09-.27s-.77.09-1.1.27c-.33.18-.6.45-.8.82-.2.37-.3.82-.3,1.34s.1.99.29,1.36c.2.37.46.64.79.82s.69.27,1.08.27.76-.09,1.1-.28Z"/>
    </g>
    <g class="j">
      <path class="h" d="m122.89,423.49h-3.65l-.67,1.86h-1.15l3.02-8.32h1.26l3.01,8.32h-1.15l-.67-1.86Zm-.31-.89l-1.51-4.22-1.51,4.22h3.02Z"/>
      <path class="h" d="m128.09,419.05c.43-.25.93-.38,1.49-.38s1.11.14,1.59.42c.48.28.85.67,1.12,1.18.27.51.41,1.1.41,1.77s-.14,1.26-.41,1.78c-.27.52-.65.92-1.12,1.21-.48.29-1.01.43-1.59.43s-1.05-.13-1.48-.38c-.43-.25-.75-.57-.98-.94v4.33h-1.09v-9.7h1.09v1.21c.22-.38.54-.69.97-.94Zm3.2,1.7c-.2-.37-.47-.65-.81-.84-.34-.19-.71-.29-1.12-.29s-.77.1-1.11.29c-.34.2-.61.48-.82.85-.2.37-.31.8-.31,1.29s.1.93.31,1.3c.2.37.48.66.82.85.34.2.71.29,1.11.29s.78-.1,1.12-.29c.34-.2.61-.48.81-.85s.3-.81.3-1.31-.1-.93-.3-1.3Z"/>
      <path class="h" d="m140.11,422.47h-5.26c.04.65.26,1.15.67,1.52.4.36.89.55,1.47.55.47,0,.87-.11,1.18-.33.32-.22.54-.51.67-.88h1.18c-.18.63-.53,1.15-1.06,1.54-.53.4-1.18.59-1.97.59-.62,0-1.18-.14-1.67-.42-.49-.28-.88-.68-1.16-1.19-.28-.52-.42-1.11-.42-1.79s.14-1.28.41-1.79c.27-.51.65-.91,1.15-1.18.49-.28,1.06-.41,1.7-.41s1.18.14,1.66.41c.48.27.85.65,1.11,1.12.26.48.39,1.01.39,1.61,0,.21-.01.43-.04.66Zm-1.37-1.96c-.18-.3-.43-.53-.75-.68-.32-.16-.67-.23-1.05-.23-.55,0-1.02.18-1.41.53-.39.35-.61.84-.67,1.46h4.15c0-.42-.09-.77-.28-1.07Z"/>
      <path class="h" d="m143.5,418.97c.36-.21.79-.31,1.3-.31v1.13h-.29c-1.22,0-1.84.66-1.84,1.99v3.58h-1.09v-6.58h1.09v1.07c.19-.38.47-.67.82-.88Z"/>
      <path class="h" d="m147.39,419.68v3.88c0,.32.07.55.2.68s.37.2.71.2h.8v.92h-.98c-.61,0-1.06-.14-1.37-.42s-.46-.74-.46-1.38v-3.88h-.85v-.9h.85v-1.66h1.09v1.66h1.72v.9h-1.72Z"/>
      <path class="h" d="m156.26,418.78v6.58h-1.09v-.97c-.21.34-.5.6-.87.79-.37.19-.78.28-1.23.28-.51,0-.97-.11-1.38-.32s-.73-.53-.97-.95-.35-.94-.35-1.55v-3.85h1.08v3.71c0,.65.16,1.15.49,1.49s.78.52,1.34.52,1.04-.18,1.38-.54c.34-.36.5-.88.5-1.57v-3.61h1.09Z"/>
      <path class="h" d="m160.02,418.97c.36-.21.79-.31,1.3-.31v1.13h-.29c-1.22,0-1.84.66-1.84,1.99v3.58h-1.09v-6.58h1.09v1.07c.19-.38.47-.67.82-.88Z"/>
      <path class="h" d="m168.55,422.47h-5.26c.04.65.26,1.15.67,1.52.4.36.89.55,1.47.55.47,0,.87-.11,1.18-.33.32-.22.54-.51.67-.88h1.18c-.18.63-.53,1.15-1.06,1.54-.53.4-1.18.59-1.97.59-.62,0-1.18-.14-1.67-.42-.49-.28-.88-.68-1.16-1.19-.28-.52-.42-1.11-.42-1.79s.14-1.28.41-1.79c.27-.51.65-.91,1.15-1.18.49-.28,1.06-.41,1.7-.41s1.18.14,1.66.41c.48.27.85.65,1.11,1.12.26.48.39,1.01.39,1.61,0,.21-.01.43-.04.66Zm-1.37-1.96c-.18-.3-.43-.53-.75-.68-.32-.16-.67-.23-1.05-.23-.55,0-1.02.18-1.41.53-.39.35-.61.84-.67,1.46h4.15c0-.42-.09-.77-.28-1.07Z"/>
      <path class="h" d="m173.37,418.96c.37-.65.87-1.16,1.51-1.53.64-.37,1.34-.55,2.12-.55.91,0,1.71.22,2.39.66.68.44,1.18,1.06,1.49,1.87h-1.31c-.23-.5-.57-.89-1-1.16-.44-.27-.96-.41-1.57-.41s-1.11.14-1.57.41c-.46.27-.83.66-1.09,1.16-.26.5-.4,1.09-.4,1.76s.13,1.25.4,1.75c.26.5.63.89,1.09,1.16.46.27.99.41,1.57.41s1.13-.13,1.57-.4c.44-.27.77-.65,1-1.16h1.31c-.31.8-.81,1.42-1.49,1.85-.68.44-1.48.65-2.39.65-.78,0-1.48-.18-2.12-.55-.64-.36-1.14-.87-1.51-1.52-.37-.65-.55-1.38-.55-2.2s.18-1.55.55-2.2Z"/>
      <path class="h" d="m183.58,416.47v8.88h-1.09v-8.88h1.09Z"/>
      <path class="h" d="m186.64,425.04c-.5-.28-.89-.68-1.18-1.19-.28-.52-.43-1.11-.43-1.79s.15-1.27.44-1.78.69-.91,1.19-1.19c.5-.28,1.07-.41,1.69-.41s1.19.14,1.69.41c.5.28.9.67,1.19,1.18s.44,1.11.44,1.79-.15,1.28-.45,1.79c-.3.52-.71.91-1.22,1.19-.51.28-1.08.42-1.7.42s-1.17-.14-1.67-.42Zm2.78-.82c.34-.18.62-.46.83-.83s.32-.82.32-1.34-.1-.98-.31-1.34c-.21-.37-.48-.64-.82-.82-.34-.18-.7-.27-1.09-.27s-.77.09-1.1.27c-.33.18-.6.45-.8.82-.2.37-.3.82-.3,1.34s.1.99.29,1.36c.2.37.46.64.79.82s.69.27,1.08.27.76-.09,1.1-.28Z"/>
      <path class="h" d="m198.95,418.78v6.58h-1.09v-.97c-.21.34-.5.6-.87.79-.37.19-.78.28-1.23.28-.51,0-.97-.11-1.38-.32-.41-.21-.73-.53-.97-.95-.24-.42-.35-.94-.35-1.55v-3.85h1.08v3.71c0,.65.16,1.15.49,1.49s.78.52,1.34.52,1.04-.18,1.38-.54c.34-.36.5-.88.5-1.57v-3.61h1.09Z"/>
      <path class="h" d="m200.8,420.27c.27-.51.65-.9,1.12-1.18.48-.28,1.01-.42,1.6-.42.51,0,.99.12,1.43.35.44.24.78.55,1.01.93v-3.48h1.1v8.88h-1.1v-1.24c-.22.39-.54.71-.96.97-.42.25-.92.38-1.49.38s-1.11-.14-1.59-.43c-.48-.29-.85-.69-1.12-1.21-.27-.52-.41-1.11-.41-1.78s.14-1.26.41-1.77Zm4.86.49c-.2-.37-.47-.65-.81-.85-.34-.2-.71-.29-1.12-.29s-.78.1-1.12.29c-.34.19-.6.47-.8.84-.2.37-.3.8-.3,1.3s.1.94.3,1.31c.2.37.47.66.8.85.34.2.71.29,1.12.29s.78-.1,1.12-.29c.34-.2.61-.48.81-.85s.3-.81.3-1.3-.1-.93-.3-1.3Z"/>
    </g>
    <path class="g" d="m243.64,346.36h63.5c6.67,0,10,3.33,10,10v241.49c0,6.67,3.33,10,10,10h63.49" pointer-events="none"/>
    <path class="f" d="m238.39,346.36l7-2.33-1.75,2.33,1.75,2.34-7-2.34Z" pointer-events="none"/>
    <path class="f" d="m395.88,607.85l-7,2.33,1.75-2.33-1.75-2.33,7,2.33Z" pointer-events="none"/>
    <path class="g" d="m243.64,346.36h63.5c6.67,0,10,3.33,10,10v357.49c0,6.67,3.33,10,10,10h63.49" pointer-events="none"/>
    <path class="f" d="m238.39,346.36l7-2.33-1.75,2.33,1.75,2.34-7-2.34Z" pointer-events="none"/>
    <path class="f" d="m395.88,723.85l-7,2.33,1.75-2.33-1.75-2.33,7,2.33Z" pointer-events="none"/>
    <rect class="d" x="657" y="388.85" width="125" height="35" rx="5.25" ry="5.25" pointer-events="none"/>
    <g class="j">
      <path d="m686.37,407.49h-3.65l-.67,1.86h-1.15l3.02-8.32h1.26l3.01,8.32h-1.15l-.67-1.86Zm-.31-.89l-1.51-4.22-1.51,4.22h3.02Z"/>
      <path d="m691.58,403.05c.43-.25.93-.38,1.49-.38s1.11.14,1.59.42c.48.28.85.67,1.12,1.18.27.51.41,1.1.41,1.77s-.14,1.26-.41,1.78c-.27.52-.65.92-1.12,1.21-.48.29-1.01.43-1.59.43s-1.05-.13-1.48-.38c-.43-.25-.75-.57-.98-.94v4.33h-1.09v-9.7h1.09v1.21c.22-.38.54-.69.97-.94Zm3.2,1.7c-.2-.37-.47-.65-.81-.84-.34-.19-.71-.29-1.12-.29s-.77.1-1.11.29c-.34.2-.61.48-.82.85-.2.37-.31.8-.31,1.29s.1.93.31,1.3c.2.37.48.66.82.85.34.2.71.29,1.11.29s.78-.1,1.12-.29c.34-.2.61-.48.81-.85s.3-.81.3-1.31-.1-.93-.3-1.3Z"/>
      <path d="m703.59,406.47h-5.26c.04.65.26,1.15.67,1.52.4.36.89.55,1.47.55.47,0,.87-.11,1.18-.33.32-.22.54-.51.67-.88h1.18c-.18.63-.53,1.15-1.06,1.54-.53.4-1.18.59-1.97.59-.62,0-1.18-.14-1.67-.42-.49-.28-.88-.68-1.16-1.19-.28-.52-.42-1.11-.42-1.79s.14-1.28.41-1.79c.27-.51.65-.91,1.15-1.18.49-.28,1.06-.41,1.7-.41s1.18.14,1.66.41c.48.27.85.65,1.11,1.12.26.48.39,1.01.39,1.61,0,.21-.01.43-.04.66Zm-1.37-1.96c-.18-.3-.43-.53-.75-.68-.32-.16-.67-.23-1.05-.23-.55,0-1.02.18-1.41.53-.39.35-.61.84-.67,1.46h4.15c0-.42-.09-.77-.28-1.07Z"/>
      <path d="m706.98,402.97c.36-.21.79-.31,1.3-.31v1.13h-.29c-1.22,0-1.84.66-1.84,1.99v3.58h-1.09v-6.58h1.09v1.07c.19-.38.47-.67.82-.88Z"/>
      <path d="m710.88,403.68v3.88c0,.32.07.55.2.68s.37.2.71.2h.8v.92h-.98c-.61,0-1.06-.14-1.37-.42s-.46-.74-.46-1.38v-3.88h-.85v-.9h.85v-1.66h1.09v1.66h1.72v.9h-1.72Z"/>
      <path d="m719.75,402.78v6.58h-1.09v-.97c-.21.34-.5.6-.87.79-.37.19-.78.28-1.23.28-.51,0-.97-.11-1.38-.32s-.73-.53-.97-.95-.35-.94-.35-1.55v-3.85h1.08v3.71c0,.65.16,1.15.49,1.49s.78.52,1.34.52,1.04-.18,1.38-.54c.34-.36.5-.88.5-1.57v-3.61h1.09Z"/>
      <path d="m723.51,402.97c.36-.21.79-.31,1.3-.31v1.13h-.29c-1.22,0-1.84.66-1.84,1.99v3.58h-1.09v-6.58h1.09v1.07c.19-.38.47-.67.82-.88Z"/>
      <path d="m732.03,406.47h-5.26c.04.65.26,1.15.67,1.52.4.36.89.55,1.47.55.47,0,.87-.11,1.18-.33.32-.22.54-.51.67-.88h1.18c-.18.63-.53,1.15-1.06,1.54-.53.4-1.18.59-1.97.59-.62,0-1.18-.14-1.67-.42-.49-.28-.88-.68-1.16-1.19-.28-.52-.42-1.11-.42-1.79s.14-1.28.41-1.79c.27-.51.65-.91,1.15-1.18.49-.28,1.06-.41,1.7-.41s1.18.14,1.66.41c.48.27.85.65,1.11,1.12.26.48.39,1.01.39,1.61,0,.21-.01.43-.04.66Zm-1.37-1.96c-.18-.3-.43-.53-.75-.68-.32-.16-.67-.23-1.05-.23-.55,0-1.02.18-1.41.53-.39.35-.61.84-.67,1.46h4.15c0-.42-.09-.77-.28-1.07Z"/>
      <path d="m737.88,409.14c-.44-.2-.78-.47-1.03-.82-.25-.35-.38-.75-.38-1.21h1.16c.04.39.2.72.49.99.28.27.7.4,1.24.4s.93-.13,1.23-.39c.3-.26.45-.59.45-1,0-.32-.09-.58-.26-.78-.18-.2-.4-.35-.66-.46-.26-.1-.62-.22-1.07-.34-.55-.14-.99-.29-1.33-.43-.33-.14-.62-.37-.85-.68-.24-.31-.35-.72-.35-1.24,0-.46.12-.86.35-1.21.23-.35.56-.62.98-.82.42-.19.9-.29,1.45-.29.78,0,1.43.2,1.93.59s.78.91.85,1.56h-1.2c-.04-.32-.21-.6-.5-.85s-.69-.37-1.18-.37c-.46,0-.83.12-1.12.35-.29.24-.43.57-.43.99,0,.3.09.55.26.74.17.19.38.34.64.44.25.1.61.21,1.06.34.55.15,1,.3,1.33.45.34.15.62.38.86.68.24.31.36.73.36,1.25,0,.41-.11.79-.32,1.15-.22.36-.54.65-.96.88-.42.22-.92.34-1.5.34s-1.05-.1-1.48-.29Z"/>
      <path d="m748.73,401.5c.67.34,1.18.83,1.54,1.46.36.63.53,1.38.53,2.23s-.18,1.6-.53,2.23c-.36.63-.87,1.11-1.54,1.44s-1.46.5-2.37.5h-2.6v-8.36h2.6c.91,0,1.7.17,2.37.51Zm.1,6.1c.57-.57.85-1.37.85-2.41s-.29-1.85-.86-2.44c-.57-.58-1.39-.88-2.47-.88h-1.51v6.58h1.51c1.08,0,1.9-.29,2.47-.86Z"/>
      <path d="m756.78,409.35l-3.44-3.82v3.82h-1.09v-8.36h1.09v3.88l3.46-3.88h1.38l-3.79,4.19,3.83,4.18h-1.43Z"/>
    </g>
    <rect class="d" x="657" y="477.85" width="125" height="35" rx="5.25" ry="5.25" pointer-events="none"/>
    <g class="j">
      <path d="m686.37,496.49h-3.65l-.67,1.86h-1.15l3.02-8.32h1.26l3.01,8.32h-1.15l-.67-1.86Zm-.31-.89l-1.51-4.22-1.51,4.22h3.02Z"/>
      <path d="m691.58,492.05c.43-.25.93-.38,1.49-.38s1.11.14,1.59.42c.48.28.85.67,1.12,1.18.27.51.41,1.1.41,1.77s-.14,1.26-.41,1.78c-.27.52-.65.92-1.12,1.21-.48.29-1.01.43-1.59.43s-1.05-.13-1.48-.38c-.43-.25-.75-.57-.98-.94v4.33h-1.09v-9.7h1.09v1.21c.22-.38.54-.69.97-.94Zm3.2,1.7c-.2-.37-.47-.65-.81-.84-.34-.19-.71-.29-1.12-.29s-.77.1-1.11.29c-.34.2-.61.48-.82.85-.2.37-.31.8-.31,1.29s.1.93.31,1.3c.2.37.48.66.82.85.34.2.71.29,1.11.29s.78-.1,1.12-.29c.34-.2.61-.48.81-.85s.3-.81.3-1.31-.1-.93-.3-1.3Z"/>
      <path d="m703.59,495.47h-5.26c.04.65.26,1.15.67,1.52.4.36.89.55,1.47.55.47,0,.87-.11,1.18-.33.32-.22.54-.51.67-.88h1.18c-.18.63-.53,1.15-1.06,1.54-.53.4-1.18.59-1.97.59-.62,0-1.18-.14-1.67-.42-.49-.28-.88-.68-1.16-1.19-.28-.52-.42-1.11-.42-1.79s.14-1.28.41-1.79c.27-.51.65-.91,1.15-1.18.49-.28,1.06-.41,1.7-.41s1.18.14,1.66.41c.48.27.85.65,1.11,1.12.26.48.39,1.01.39,1.61,0,.21-.01.43-.04.66Zm-1.37-1.96c-.18-.3-.43-.53-.75-.68-.32-.16-.67-.23-1.05-.23-.55,0-1.02.18-1.41.53-.39.35-.61.84-.67,1.46h4.15c0-.42-.09-.77-.28-1.07Z"/>
      <path d="m706.98,491.97c.36-.21.79-.31,1.3-.31v1.13h-.29c-1.22,0-1.84.66-1.84,1.99v3.58h-1.09v-6.58h1.09v1.07c.19-.38.47-.67.82-.88Z"/>
      <path d="m710.88,492.68v3.88c0,.32.07.55.2.68s.37.2.71.2h.8v.92h-.98c-.61,0-1.06-.14-1.37-.42s-.46-.74-.46-1.38v-3.88h-.85v-.9h.85v-1.66h1.09v1.66h1.72v.9h-1.72Z"/>
      <path d="m719.75,491.78v6.58h-1.09v-.97c-.21.34-.5.6-.87.79-.37.19-.78.28-1.23.28-.51,0-.97-.11-1.38-.32s-.73-.53-.97-.95-.35-.94-.35-1.55v-3.85h1.08v3.71c0,.65.16,1.15.49,1.49s.78.52,1.34.52,1.04-.18,1.38-.54c.34-.36.5-.88.5-1.57v-3.61h1.09Z"/>
      <path d="m723.51,491.97c.36-.21.79-.31,1.3-.31v1.13h-.29c-1.22,0-1.84.66-1.84,1.99v3.58h-1.09v-6.58h1.09v1.07c.19-.38.47-.67.82-.88Z"/>
      <path d="m732.03,495.47h-5.26c.04.65.26,1.15.67,1.52.4.36.89.55,1.47.55.47,0,.87-.11,1.18-.33.32-.22.54-.51.67-.88h1.18c-.18.63-.53,1.15-1.06,1.54-.53.4-1.18.59-1.97.59-.62,0-1.18-.14-1.67-.42-.49-.28-.88-.68-1.16-1.19-.28-.52-.42-1.11-.42-1.79s.14-1.28.41-1.79c.27-.51.65-.91,1.15-1.18.49-.28,1.06-.41,1.7-.41s1.18.14,1.66.41c.48.27.85.65,1.11,1.12.26.48.39,1.01.39,1.61,0,.21-.01.43-.04.66Zm-1.37-1.96c-.18-.3-.43-.53-.75-.68-.32-.16-.67-.23-1.05-.23-.55,0-1.02.18-1.41.53-.39.35-.61.84-.67,1.46h4.15c0-.42-.09-.77-.28-1.07Z"/>
      <path d="m737.88,498.14c-.44-.2-.78-.47-1.03-.82-.25-.35-.38-.75-.38-1.21h1.16c.04.39.2.72.49.99.28.27.7.4,1.24.4s.93-.13,1.23-.39c.3-.26.45-.59.45-1,0-.32-.09-.58-.26-.78-.18-.2-.4-.35-.66-.46-.26-.1-.62-.22-1.07-.34-.55-.14-.99-.29-1.33-.43-.33-.14-.62-.37-.85-.68-.24-.31-.35-.72-.35-1.24,0-.46.12-.86.35-1.21.23-.35.56-.62.98-.82.42-.19.9-.29,1.45-.29.78,0,1.43.2,1.93.59s.78.91.85,1.56h-1.2c-.04-.32-.21-.6-.5-.85s-.69-.37-1.18-.37c-.46,0-.83.12-1.12.35-.29.24-.43.57-.43.99,0,.3.09.55.26.74.17.19.38.34.64.44.25.1.61.21,1.06.34.55.15,1,.3,1.33.45.34.15.62.38.86.68.24.31.36.73.36,1.25,0,.41-.11.79-.32,1.15-.22.36-.54.65-.96.88-.42.22-.92.34-1.5.34s-1.05-.1-1.48-.29Z"/>
      <path d="m748.73,490.5c.67.34,1.18.83,1.54,1.46.36.63.53,1.38.53,2.23s-.18,1.6-.53,2.23c-.36.63-.87,1.11-1.54,1.44s-1.46.5-2.37.5h-2.6v-8.36h2.6c.91,0,1.7.17,2.37.51Zm.1,6.1c.57-.57.85-1.37.85-2.41s-.29-1.85-.86-2.44c-.57-.58-1.39-.88-2.47-.88h-1.51v6.58h1.51c1.08,0,1.9-.29,2.47-.86Z"/>
      <path d="m756.78,498.35l-3.44-3.82v3.82h-1.09v-8.36h1.09v3.88l3.46-3.88h1.38l-3.79,4.19,3.83,4.18h-1.43Z"/>
    </g>
    <path class="g" d="m457,571.48v-189.26" pointer-events="none"/>
    <path class="f" d="m457,576.73l-2.33-7,2.33,1.75,2.33-1.75-2.33,7Z" pointer-events="none"/>
    <path class="f" d="m457,376.97l2.33,7-2.33-1.75-2.33,1.75,2.33-7Z" pointer-events="none"/>
    <rect class="d" x="397" y="577.85" width="120" height="60" rx="9" ry="9" pointer-events="none"/>
    <g class="j">
      <path d="m416.89,609.49h-3.65l-.67,1.86h-1.15l3.02-8.32h1.26l3.01,8.32h-1.15l-.67-1.86Zm-.31-.89l-1.51-4.22-1.51,4.22h3.02Z"/>
      <path d="m422.09,605.05c.43-.25.93-.38,1.49-.38s1.11.14,1.59.42c.48.28.85.67,1.12,1.18.27.51.41,1.1.41,1.77s-.14,1.26-.41,1.78c-.27.52-.65.92-1.12,1.21-.48.29-1.01.43-1.59.43s-1.05-.13-1.48-.38c-.43-.25-.75-.57-.98-.94v4.33h-1.09v-9.7h1.09v1.21c.22-.38.54-.69.97-.94Zm3.2,1.7c-.2-.37-.47-.65-.81-.84-.34-.19-.71-.29-1.12-.29s-.77.1-1.11.29c-.34.2-.61.48-.82.85-.2.37-.31.8-.31,1.29s.1.93.31,1.3c.2.37.48.66.82.85.34.2.71.29,1.11.29s.78-.1,1.12-.29c.34-.2.61-.48.81-.85s.3-.81.3-1.31-.1-.93-.3-1.3Z"/>
      <path d="m434.11,608.47h-5.26c.04.65.26,1.15.67,1.52.4.36.89.55,1.47.55.47,0,.87-.11,1.18-.33.32-.22.54-.51.67-.88h1.18c-.18.63-.53,1.15-1.06,1.54-.53.4-1.18.59-1.97.59-.62,0-1.18-.14-1.67-.42-.49-.28-.88-.68-1.16-1.19-.28-.52-.42-1.11-.42-1.79s.14-1.28.41-1.79c.27-.51.65-.91,1.15-1.18.49-.28,1.06-.41,1.7-.41s1.18.14,1.66.41c.48.27.85.65,1.11,1.12.26.48.39,1.01.39,1.61,0,.21-.01.43-.04.66Zm-1.37-1.96c-.18-.3-.43-.53-.75-.68-.32-.16-.67-.23-1.05-.23-.55,0-1.02.18-1.41.53-.39.35-.61.84-.67,1.46h4.15c0-.42-.09-.77-.28-1.07Z"/>
      <path d="m437.5,604.97c.36-.21.79-.31,1.3-.31v1.13h-.29c-1.22,0-1.84.66-1.84,1.99v3.58h-1.09v-6.58h1.09v1.07c.19-.38.47-.67.82-.88Z"/>
      <path d="m441.39,605.68v3.88c0,.32.07.55.2.68s.37.2.71.2h.8v.92h-.98c-.61,0-1.06-.14-1.37-.42s-.46-.74-.46-1.38v-3.88h-.85v-.9h.85v-1.66h1.09v1.66h1.72v.9h-1.72Z"/>
      <path d="m450.26,604.78v6.58h-1.09v-.97c-.21.34-.5.6-.87.79-.37.19-.78.28-1.23.28-.51,0-.97-.11-1.38-.32s-.73-.53-.97-.95-.35-.94-.35-1.55v-3.85h1.08v3.71c0,.65.16,1.15.49,1.49s.78.52,1.34.52,1.04-.18,1.38-.54c.34-.36.5-.88.5-1.57v-3.61h1.09Z"/>
      <path d="m454.02,604.97c.36-.21.79-.31,1.3-.31v1.13h-.29c-1.22,0-1.84.66-1.84,1.99v3.58h-1.09v-6.58h1.09v1.07c.19-.38.47-.67.82-.88Z"/>
      <path d="m462.55,608.47h-5.26c.04.65.26,1.15.67,1.52.4.36.89.55,1.47.55.47,0,.87-.11,1.18-.33.32-.22.54-.51.67-.88h1.18c-.18.63-.53,1.15-1.06,1.54-.53.4-1.18.59-1.97.59-.62,0-1.18-.14-1.67-.42-.49-.28-.88-.68-1.16-1.19-.28-.52-.42-1.11-.42-1.79s.14-1.28.41-1.79c.27-.51.65-.91,1.15-1.18.49-.28,1.06-.41,1.7-.41s1.18.14,1.66.41c.48.27.85.65,1.11,1.12.26.48.39,1.01.39,1.61,0,.21-.01.43-.04.66Zm-1.37-1.96c-.18-.3-.43-.53-.75-.68-.32-.16-.67-.23-1.05-.23-.55,0-1.02.18-1.41.53-.39.35-.61.84-.67,1.46h4.15c0-.42-.09-.77-.28-1.07Z"/>
      <path d="m472.17,609.49h-3.65l-.67,1.86h-1.15l3.02-8.32h1.26l3.01,8.32h-1.15l-.67-1.86Zm-.31-.89l-1.51-4.22-1.51,4.22h3.02Z"/>
      <path d="m479.52,605.04c.43.25.75.56.95.94v-1.2h1.1v6.72c0,.6-.13,1.13-.38,1.6s-.62.83-1.1,1.1c-.48.26-1.03.4-1.66.4-.86,0-1.58-.2-2.16-.61s-.92-.96-1.02-1.67h1.08c.12.4.37.72.74.97s.83.37,1.36.37c.6,0,1.09-.19,1.47-.56s.57-.9.57-1.58v-1.38c-.22.38-.54.7-.96.96-.42.26-.92.38-1.49.38s-1.11-.14-1.59-.43c-.48-.29-.85-.69-1.12-1.21-.27-.52-.41-1.11-.41-1.78s.14-1.26.41-1.77c.27-.51.65-.9,1.12-1.18.48-.28,1.01-.42,1.59-.42s1.07.12,1.49.37Zm.65,1.72c-.2-.37-.47-.65-.81-.85-.34-.2-.71-.29-1.12-.29s-.78.1-1.12.29c-.34.19-.6.47-.8.84-.2.37-.3.8-.3,1.3s.1.94.3,1.31.47.66.8.85c.34.2.71.29,1.12.29s.78-.1,1.12-.29c.34-.2.61-.48.81-.85.2-.37.3-.81.3-1.3s-.1-.93-.3-1.3Z"/>
      <path d="m489.39,608.47h-5.26c.04.65.26,1.15.67,1.52.4.36.89.55,1.47.55.47,0,.87-.11,1.18-.33.32-.22.54-.51.67-.88h1.18c-.18.63-.53,1.15-1.06,1.54-.53.4-1.18.59-1.97.59-.62,0-1.18-.14-1.67-.42-.49-.28-.88-.68-1.16-1.19-.28-.52-.42-1.11-.42-1.79s.14-1.28.41-1.79c.27-.51.65-.91,1.15-1.18.49-.28,1.06-.41,1.7-.41s1.18.14,1.66.41c.48.27.85.65,1.11,1.12.26.48.39,1.01.39,1.61,0,.21-.01.43-.04.66Zm-1.37-1.96c-.18-.3-.43-.53-.75-.68-.32-.16-.67-.23-1.05-.23-.55,0-1.02.18-1.41.53-.39.35-.61.84-.67,1.46h4.15c0-.42-.09-.77-.28-1.07Z"/>
      <path d="m496.01,605.38c.5.48.74,1.18.74,2.09v3.88h-1.08v-3.72c0-.66-.16-1.16-.49-1.51-.33-.35-.78-.52-1.34-.52s-1.03.18-1.37.54-.51.88-.51,1.57v3.64h-1.09v-6.58h1.09v.94c.22-.34.51-.6.88-.78s.78-.28,1.23-.28c.8,0,1.45.24,1.94.73Z"/>
      <path d="m499.88,605.68v3.88c0,.32.07.55.2.68s.37.2.71.2h.8v.92h-.98c-.61,0-1.06-.14-1.37-.42s-.46-.74-.46-1.38v-3.88h-.85v-.9h.85v-1.66h1.09v1.66h1.72v.9h-1.72Z"/>
    </g>
    <path class="g" d="m457,687.48v-43.26" pointer-events="none"/>
    <path class="f" d="m457,692.73l-2.33-7,2.33,1.75,2.33-1.75-2.33,7Z" pointer-events="none"/>
    <path class="f" d="m457,638.97l2.33,7-2.33-1.75-2.33,1.75,2.33-7Z" pointer-events="none"/>
    <rect class="d" x="397" y="693.85" width="120" height="60" rx="9" ry="9" pointer-events="none"/>
    <g class="j">
      <path d="m416.89,725.49h-3.65l-.67,1.86h-1.15l3.02-8.32h1.26l3.01,8.32h-1.15l-.67-1.86Zm-.31-.89l-1.51-4.22-1.51,4.22h3.02Z"/>
      <path d="m422.09,721.05c.43-.25.93-.38,1.49-.38s1.11.14,1.59.42c.48.28.85.67,1.12,1.18.27.51.41,1.1.41,1.77s-.14,1.26-.41,1.78c-.27.52-.65.92-1.12,1.21-.48.29-1.01.43-1.59.43s-1.05-.13-1.48-.38c-.43-.25-.75-.57-.98-.94v4.33h-1.09v-9.7h1.09v1.21c.22-.38.54-.69.97-.94Zm3.2,1.7c-.2-.37-.47-.65-.81-.84-.34-.19-.71-.29-1.12-.29s-.77.1-1.11.29c-.34.2-.61.48-.82.85-.2.37-.31.8-.31,1.29s.1.93.31,1.3c.2.37.48.66.82.85.34.2.71.29,1.11.29s.78-.1,1.12-.29c.34-.2.61-.48.81-.85s.3-.81.3-1.31-.1-.93-.3-1.3Z"/>
      <path d="m434.11,724.47h-5.26c.04.65.26,1.15.67,1.52.4.36.89.55,1.47.55.47,0,.87-.11,1.18-.33.32-.22.54-.51.67-.88h1.18c-.18.63-.53,1.15-1.06,1.54-.53.4-1.18.59-1.97.59-.62,0-1.18-.14-1.67-.42-.49-.28-.88-.68-1.16-1.19-.28-.52-.42-1.11-.42-1.79s.14-1.28.41-1.79c.27-.51.65-.91,1.15-1.18.49-.28,1.06-.41,1.7-.41s1.18.14,1.66.41c.48.27.85.65,1.11,1.12.26.48.39,1.01.39,1.61,0,.21-.01.43-.04.66Zm-1.37-1.96c-.18-.3-.43-.53-.75-.68-.32-.16-.67-.23-1.05-.23-.55,0-1.02.18-1.41.53-.39.35-.61.84-.67,1.46h4.15c0-.42-.09-.77-.28-1.07Z"/>
      <path d="m437.5,720.97c.36-.21.79-.31,1.3-.31v1.13h-.29c-1.22,0-1.84.66-1.84,1.99v3.58h-1.09v-6.58h1.09v1.07c.19-.38.47-.67.82-.88Z"/>
      <path d="m441.39,721.68v3.88c0,.32.07.55.2.68s.37.2.71.2h.8v.92h-.98c-.61,0-1.06-.14-1.37-.42s-.46-.74-.46-1.38v-3.88h-.85v-.9h.85v-1.66h1.09v1.66h1.72v.9h-1.72Z"/>
      <path d="m450.26,720.78v6.58h-1.09v-.97c-.21.34-.5.6-.87.79-.37.19-.78.28-1.23.28-.51,0-.97-.11-1.38-.32s-.73-.53-.97-.95-.35-.94-.35-1.55v-3.85h1.08v3.71c0,.65.16,1.15.49,1.49s.78.52,1.34.52,1.04-.18,1.38-.54c.34-.36.5-.88.5-1.57v-3.61h1.09Z"/>
      <path d="m454.02,720.97c.36-.21.79-.31,1.3-.31v1.13h-.29c-1.22,0-1.84.66-1.84,1.99v3.58h-1.09v-6.58h1.09v1.07c.19-.38.47-.67.82-.88Z"/>
      <path d="m462.55,724.47h-5.26c.04.65.26,1.15.67,1.52.4.36.89.55,1.47.55.47,0,.87-.11,1.18-.33.32-.22.54-.51.67-.88h1.18c-.18.63-.53,1.15-1.06,1.54-.53.4-1.18.59-1.97.59-.62,0-1.18-.14-1.67-.42-.49-.28-.88-.68-1.16-1.19-.28-.52-.42-1.11-.42-1.79s.14-1.28.41-1.79c.27-.51.65-.91,1.15-1.18.49-.28,1.06-.41,1.7-.41s1.18.14,1.66.41c.48.27.85.65,1.11,1.12.26.48.39,1.01.39,1.61,0,.21-.01.43-.04.66Zm-1.37-1.96c-.18-.3-.43-.53-.75-.68-.32-.16-.67-.23-1.05-.23-.55,0-1.02.18-1.41.53-.39.35-.61.84-.67,1.46h4.15c0-.42-.09-.77-.28-1.07Z"/>
      <path d="m472.17,725.49h-3.65l-.67,1.86h-1.15l3.02-8.32h1.26l3.01,8.32h-1.15l-.67-1.86Zm-.31-.89l-1.51-4.22-1.51,4.22h3.02Z"/>
      <path d="m479.52,721.04c.43.25.75.56.95.94v-1.2h1.1v6.72c0,.6-.13,1.13-.38,1.6s-.62.83-1.1,1.1c-.48.26-1.03.4-1.66.4-.86,0-1.58-.2-2.16-.61s-.92-.96-1.02-1.67h1.08c.12.4.37.72.74.97s.83.37,1.36.37c.6,0,1.09-.19,1.47-.56s.57-.9.57-1.58v-1.38c-.22.38-.54.7-.96.96-.42.26-.92.38-1.49.38s-1.11-.14-1.59-.43c-.48-.29-.85-.69-1.12-1.21-.27-.52-.41-1.11-.41-1.78s.14-1.26.41-1.77c.27-.51.65-.9,1.12-1.18.48-.28,1.01-.42,1.59-.42s1.07.12,1.49.37Zm.65,1.72c-.2-.37-.47-.65-.81-.85-.34-.2-.71-.29-1.12-.29s-.78.1-1.12.29c-.34.19-.6.47-.8.84-.2.37-.3.8-.3,1.3s.1.94.3,1.31.47.66.8.85c.34.2.71.29,1.12.29s.78-.1,1.12-.29c.34-.2.61-.48.81-.85.2-.37.3-.81.3-1.3s-.1-.93-.3-1.3Z"/>
      <path d="m489.39,724.47h-5.26c.04.65.26,1.15.67,1.52.4.36.89.55,1.47.55.47,0,.87-.11,1.18-.33.32-.22.54-.51.67-.88h1.18c-.18.63-.53,1.15-1.06,1.54-.53.4-1.18.59-1.97.59-.62,0-1.18-.14-1.67-.42-.49-.28-.88-.68-1.16-1.19-.28-.52-.42-1.11-.42-1.79s.14-1.28.41-1.79c.27-.51.65-.91,1.15-1.18.49-.28,1.06-.41,1.7-.41s1.18.14,1.66.41c.48.27.85.65,1.11,1.12.26.48.39,1.01.39,1.61,0,.21-.01.43-.04.66Zm-1.37-1.96c-.18-.3-.43-.53-.75-.68-.32-.16-.67-.23-1.05-.23-.55,0-1.02.18-1.41.53-.39.35-.61.84-.67,1.46h4.15c0-.42-.09-.77-.28-1.07Z"/>
      <path d="m496.01,721.38c.5.48.74,1.18.74,2.09v3.88h-1.08v-3.72c0-.66-.16-1.16-.49-1.51-.33-.35-.78-.52-1.34-.52s-1.03.18-1.37.54-.51.88-.51,1.57v3.64h-1.09v-6.58h1.09v.94c.22-.34.51-.6.88-.78s.78-.28,1.23-.28c.8,0,1.45.24,1.94.73Z"/>
      <path d="m499.88,721.68v3.88c0,.32.07.55.2.68s.37.2.71.2h.8v.92h-.98c-.61,0-1.06-.14-1.37-.42s-.46-.74-.46-1.38v-3.88h-.85v-.9h.85v-1.66h1.09v1.66h1.72v.9h-1.72Z"/>
    </g>
    <rect class="e" x="649.5" y="176.85" width="140" height="35" rx="5.25" ry="5.25" pointer-events="none"/>
    <g class="j">
      <path class="h" d="m699.81,190.96c.37-.65.87-1.16,1.51-1.53s1.34-.55,2.12-.55c.91,0,1.71.22,2.39.66.68.44,1.18,1.06,1.49,1.87h-1.31c-.23-.5-.57-.89-1-1.16-.44-.27-.96-.41-1.57-.41s-1.11.14-1.57.41c-.46.27-.83.66-1.09,1.16s-.4,1.09-.4,1.76.13,1.25.4,1.75c.26.5.63.89,1.09,1.16.46.27.99.41,1.57.41s1.13-.13,1.57-.4c.44-.27.77-.65,1-1.16h1.31c-.31.8-.81,1.42-1.49,1.85-.68.44-1.48.65-2.39.65-.78,0-1.48-.18-2.12-.55-.64-.36-1.14-.87-1.51-1.52-.37-.65-.55-1.38-.55-2.2s.18-1.55.55-2.2Z"/>
      <path class="h" d="m710.13,197.04c-.5-.28-.89-.68-1.18-1.19-.28-.52-.43-1.11-.43-1.79s.15-1.27.44-1.78.69-.91,1.19-1.19c.5-.28,1.07-.41,1.69-.41s1.19.14,1.69.41c.5.28.9.67,1.19,1.18s.44,1.11.44,1.79-.15,1.28-.45,1.79c-.3.52-.71.91-1.22,1.19-.51.28-1.08.42-1.7.42s-1.17-.14-1.67-.42Zm2.78-.82c.34-.18.62-.46.83-.83s.32-.82.32-1.34-.1-.98-.31-1.34c-.21-.37-.48-.64-.82-.82-.34-.18-.7-.27-1.09-.27s-.77.09-1.1.27c-.33.18-.6.45-.8.82-.2.37-.3.82-.3,1.34s.1.99.29,1.36c.2.37.46.64.79.82s.69.27,1.08.27.76-.09,1.1-.28Z"/>
      <path class="h" d="m721.76,191.38c.5.48.74,1.18.74,2.09v3.88h-1.08v-3.72c0-.66-.16-1.16-.49-1.51-.33-.35-.78-.52-1.34-.52s-1.03.18-1.37.54-.51.88-.51,1.57v3.64h-1.09v-6.58h1.09v.94c.22-.34.51-.6.88-.78s.78-.28,1.23-.28c.8,0,1.45.24,1.94.73Z"/>
      <path class="h" d="m725.27,197.2c-.4-.17-.72-.41-.95-.72-.23-.31-.36-.66-.38-1.06h1.13c.03.33.19.6.46.8s.64.31,1.09.31c.42,0,.74-.09.98-.28.24-.18.36-.42.36-.7s-.13-.5-.38-.64c-.26-.14-.65-.28-1.19-.41-.49-.13-.89-.26-1.19-.39-.31-.13-.57-.33-.79-.59-.22-.26-.33-.6-.33-1.03,0-.34.1-.64.3-.92.2-.28.48-.5.85-.67.37-.16.79-.25,1.26-.25.73,0,1.32.18,1.76.55s.69.87.72,1.51h-1.09c-.02-.34-.16-.62-.41-.83s-.59-.31-1.01-.31c-.39,0-.7.08-.94.25-.23.17-.35.39-.35.66,0,.22.07.39.21.53.14.14.32.25.53.34s.51.18.88.28c.47.13.86.25,1.15.38s.55.31.76.56.32.57.33.97c0,.36-.1.68-.3.97-.2.29-.48.51-.85.68-.36.16-.78.25-1.25.25-.5,0-.96-.09-1.36-.26Z"/>
      <path class="h" d="m736.39,190.78v6.58h-1.09v-.97c-.21.34-.5.6-.87.79-.37.19-.78.28-1.23.28-.51,0-.97-.11-1.38-.32-.41-.21-.73-.53-.97-.95-.24-.42-.35-.94-.35-1.55v-3.85h1.08v3.71c0,.65.16,1.15.49,1.49s.78.52,1.34.52,1.04-.18,1.38-.54c.34-.36.5-.88.5-1.57v-3.61h1.09Z"/>
      <path class="h" d="m739.33,188.47v8.88h-1.09v-8.88h1.09Z"/>
    </g>
    <path class="c" d="m220.31,394.34c9.99,0,18.08-8.1,18.08-18.08s-8.1-18.08-18.08-18.08c-1.43,0-2.86.17-4.25.51,2.83-11.3-4.04-22.76-15.34-25.59-4.66-1.17-9.57-.71-13.93,1.3-6.82-18.6-27.42-28.15-46.02-21.33-11.52,4.22-20.08,14.04-22.7,26.03-15.21-1.78-28.98,9.1-30.76,24.31-1.78,15.21,9.1,28.98,24.31,30.76,1.07.13,2.15.19,3.22.19h105.48Z"/>
  </g>
</svg>