<?xml version="1.0" encoding="UTF-8"?>
<svg id="b" data-name="Warstwa 1" xmlns="http://www.w3.org/2000/svg" viewBox="0 0 964.98 670.71">
  <defs>
    <style>
      .c {
        fill: #f27a40;
      }

      .d {
        fill: #d9d9d9;
      }

      .d, .e {
        stroke: #d9d9d9;
        stroke-miterlimit: 10;
      }

      .f {
        fill: #333;
      }

      .g {
        fill: rgba(227, 227, 227, .4);
        stroke: rgba(189, 189, 189, .4);
      }

      .e {
        fill: none;
      }

      .h {
        fill: #e3e3e3;
      }
    </style>
  </defs>
  <rect class="g" x="321.43" y="566.45" width="435" height="90" rx="14.4" ry="14.4" pointer-events="all"/>
  <path d="m511.95,561.58l-2.42,8.36h-1.22l-1.94-6.73-2.02,6.73h-1.21s-2.34-8.36-2.34-8.36h1.16l1.82,7.09,2.02-7.09h1.22l1.92,7.07,1.84-7.07h1.18Z"/>
  <path d="m514.35,569.63c-.5-.28-.89-.68-1.18-1.19-.28-.52-.43-1.11-.43-1.79s.15-1.27.44-1.78c.29-.52.69-.91,1.19-1.19.5-.28,1.07-.41,1.69-.41s1.19.14,1.69.41c.5.28.9.67,1.19,1.18s.44,1.11.44,1.79-.15,1.28-.45,1.79c-.3.52-.71.91-1.22,1.19-.51.28-1.08.42-1.7.42s-1.17-.14-1.67-.42Zm2.78-.82c.34-.18.62-.46.83-.83s.32-.82.32-1.34-.1-.98-.31-1.34c-.21-.37-.48-.64-.82-.82-.34-.18-.7-.27-1.09-.27s-.77.09-1.1.27c-.33.18-.6.45-.8.82-.2.37-.3.82-.3,1.34s.1.99.29,1.36c.2.37.46.64.79.82s.69.27,1.08.27.76-.09,1.1-.28Z"/>
  <path d="m522.75,563.56c.36-.21.79-.31,1.3-.31v1.13h-.29c-1.22,0-1.84.66-1.84,1.99v3.58h-1.09v-6.58h1.09v1.07c.19-.38.46-.67.82-.88Z"/>
  <path d="m528.98,569.95l-2.58-2.9v2.9h-1.09v-8.88h1.09v5.22l2.53-2.92h1.52l-3.1,3.28,3.11,3.3h-1.49Z"/>
  <path d="m537.45,567.07h-5.26c.04.65.26,1.15.67,1.52.4.36.89.55,1.47.55.47,0,.87-.11,1.18-.33.32-.22.54-.51.67-.88h1.18c-.18.63-.53,1.15-1.06,1.54-.53.4-1.18.59-1.97.59-.62,0-1.18-.14-1.67-.42-.49-.28-.88-.68-1.16-1.19-.28-.52-.42-1.11-.42-1.79s.14-1.28.41-1.79c.27-.51.65-.91,1.15-1.18.49-.28,1.06-.41,1.7-.41s1.18.14,1.66.41c.48.27.85.65,1.11,1.12.26.48.39,1.01.39,1.61,0,.21-.01.43-.04.66Zm-1.37-1.96c-.18-.3-.43-.53-.75-.68-.32-.16-.67-.23-1.05-.23-.55,0-1.02.18-1.41.53-.39.35-.61.84-.67,1.46h4.15c0-.42-.09-.77-.28-1.07Z"/>
  <path d="m540.84,563.56c.36-.21.79-.31,1.3-.31v1.13h-.29c-1.22,0-1.84.66-1.84,1.99v3.58h-1.09v-6.58h1.09v1.07c.19-.38.46-.67.82-.88Z"/>
  <path d="m553.18,569.95h-1.09l-4.39-6.66v6.66h-1.09v-8.38h1.09l4.39,6.65v-6.65h1.09v8.38Z"/>
  <path d="m556.24,569.63c-.5-.28-.89-.68-1.18-1.19-.28-.52-.43-1.11-.43-1.79s.15-1.27.44-1.78c.29-.52.69-.91,1.19-1.19.5-.28,1.07-.41,1.69-.41s1.19.14,1.69.41c.5.28.9.67,1.19,1.18s.44,1.11.44,1.79-.15,1.28-.45,1.79c-.3.52-.71.91-1.22,1.19-.51.28-1.08.42-1.71.42s-1.17-.14-1.67-.42Zm2.78-.82c.34-.18.62-.46.83-.83s.32-.82.32-1.34-.1-.98-.31-1.34c-.21-.37-.48-.64-.82-.82-.34-.18-.7-.27-1.09-.27s-.77.09-1.1.27c-.33.18-.6.45-.8.82-.2.37-.3.82-.3,1.34s.1.99.29,1.36c.2.37.46.64.79.82s.69.27,1.08.27.76-.09,1.1-.28Z"/>
  <path d="m562.72,564.86c.27-.51.65-.9,1.12-1.18.48-.28,1.01-.42,1.6-.42.51,0,.99.12,1.43.35.44.24.78.55,1.01.93v-3.48h1.1v8.88h-1.1v-1.24c-.22.39-.54.71-.96.97-.42.25-.92.38-1.49.38s-1.11-.14-1.59-.43c-.48-.29-.85-.69-1.12-1.21-.27-.52-.41-1.11-.41-1.78s.14-1.26.41-1.77Zm4.86.49c-.2-.37-.47-.65-.81-.85-.34-.2-.71-.29-1.12-.29s-.78.1-1.12.29c-.34.19-.6.47-.8.84-.2.37-.3.8-.3,1.3s.1.94.3,1.31c.2.37.47.66.8.85.34.2.71.29,1.12.29s.78-.1,1.12-.29c.34-.2.61-.48.81-.85.2-.37.3-.81.3-1.3s-.1-.93-.3-1.3Z"/>
  <path d="m576.8,567.07h-5.26c.04.65.26,1.15.67,1.52.4.36.89.55,1.47.55.47,0,.87-.11,1.18-.33.32-.22.54-.51.67-.88h1.18c-.18.63-.53,1.15-1.06,1.54-.53.4-1.18.59-1.97.59-.62,0-1.18-.14-1.67-.42-.49-.28-.88-.68-1.16-1.19-.28-.52-.42-1.11-.42-1.79s.14-1.28.41-1.79c.27-.51.65-.91,1.15-1.18.49-.28,1.06-.41,1.7-.41s1.18.14,1.66.41c.48.27.85.65,1.11,1.12.26.48.39,1.01.39,1.61,0,.21-.01.43-.04.66Zm-1.37-1.96c-.18-.3-.43-.53-.75-.68-.32-.16-.67-.23-1.05-.23-.55,0-1.02.18-1.41.53-.39.35-.61.84-.67,1.46h4.15c0-.42-.09-.77-.28-1.07Z"/>
  <rect class="g" x="321.43" y="450.45" width="435" height="90" rx="14.4" ry="14.4" pointer-events="all"/>
  <path d="m511.95,445.58l-2.42,8.36h-1.22l-1.94-6.73-2.02,6.73h-1.21s-2.34-8.36-2.34-8.36h1.16l1.82,7.09,2.02-7.09h1.22l1.92,7.07,1.84-7.07h1.18Z"/>
  <path d="m514.35,453.63c-.5-.28-.89-.68-1.18-1.19-.28-.52-.43-1.11-.43-1.79s.15-1.27.44-1.78c.29-.52.69-.91,1.19-1.19.5-.28,1.07-.41,1.69-.41s1.19.14,1.69.41c.5.28.9.67,1.19,1.18s.44,1.11.44,1.79-.15,1.28-.45,1.79c-.3.52-.71.91-1.22,1.19-.51.28-1.08.42-1.7.42s-1.17-.14-1.67-.42Zm2.78-.82c.34-.18.62-.46.83-.83s.32-.82.32-1.34-.1-.98-.31-1.34c-.21-.37-.48-.64-.82-.82-.34-.18-.7-.27-1.09-.27s-.77.09-1.1.27c-.33.18-.6.45-.8.82-.2.37-.3.82-.3,1.34s.1.99.29,1.36c.2.37.46.64.79.82s.69.27,1.08.27.76-.09,1.1-.28Z"/>
  <path d="m522.75,447.56c.36-.21.79-.31,1.3-.31v1.13h-.29c-1.22,0-1.84.66-1.84,1.99v3.58h-1.09v-6.58h1.09v1.07c.19-.38.46-.67.82-.88Z"/>
  <path d="m528.98,453.95l-2.58-2.9v2.9h-1.09v-8.88h1.09v5.22l2.53-2.92h1.52l-3.1,3.28,3.11,3.3h-1.49Z"/>
  <path d="m537.45,451.07h-5.26c.04.65.26,1.15.67,1.52.4.36.89.55,1.47.55.47,0,.87-.11,1.18-.33.32-.22.54-.51.67-.88h1.18c-.18.63-.53,1.15-1.06,1.54-.53.4-1.18.59-1.97.59-.62,0-1.18-.14-1.67-.42-.49-.28-.88-.68-1.16-1.19-.28-.52-.42-1.11-.42-1.79s.14-1.28.41-1.79c.27-.51.65-.91,1.15-1.18.49-.28,1.06-.41,1.7-.41s1.18.14,1.66.41c.48.27.85.65,1.11,1.12.26.48.39,1.01.39,1.61,0,.21-.01.43-.04.66Zm-1.37-1.96c-.18-.3-.43-.53-.75-.68-.32-.16-.67-.23-1.05-.23-.55,0-1.02.18-1.41.53-.39.35-.61.84-.67,1.46h4.15c0-.42-.09-.77-.28-1.07Z"/>
  <path d="m540.84,447.56c.36-.21.79-.31,1.3-.31v1.13h-.29c-1.22,0-1.84.66-1.84,1.99v3.58h-1.09v-6.58h1.09v1.07c.19-.38.46-.67.82-.88Z"/>
  <path d="m553.18,453.95h-1.09l-4.39-6.66v6.66h-1.09v-8.38h1.09l4.39,6.65v-6.65h1.09v8.38Z"/>
  <path d="m556.24,453.63c-.5-.28-.89-.68-1.18-1.19-.28-.52-.43-1.11-.43-1.79s.15-1.27.44-1.78c.29-.52.69-.91,1.19-1.19.5-.28,1.07-.41,1.69-.41s1.19.14,1.69.41c.5.28.9.67,1.19,1.18s.44,1.11.44,1.79-.15,1.28-.45,1.79c-.3.52-.71.91-1.22,1.19-.51.28-1.08.42-1.71.42s-1.17-.14-1.67-.42Zm2.78-.82c.34-.18.62-.46.83-.83s.32-.82.32-1.34-.1-.98-.31-1.34c-.21-.37-.48-.64-.82-.82-.34-.18-.7-.27-1.09-.27s-.77.09-1.1.27c-.33.18-.6.45-.8.82-.2.37-.3.82-.3,1.34s.1.99.29,1.36c.2.37.46.64.79.82s.69.27,1.08.27.76-.09,1.1-.28Z"/>
  <path d="m562.72,448.86c.27-.51.65-.9,1.12-1.18.48-.28,1.01-.42,1.6-.42.51,0,.99.12,1.43.35.44.24.78.55,1.01.93v-3.48h1.1v8.88h-1.1v-1.24c-.22.39-.54.71-.96.97-.42.25-.92.38-1.49.38s-1.11-.14-1.59-.43c-.48-.29-.85-.69-1.12-1.21-.27-.52-.41-1.11-.41-1.78s.14-1.26.41-1.77Zm4.86.49c-.2-.37-.47-.65-.81-.85-.34-.2-.71-.29-1.12-.29s-.78.1-1.12.29c-.34.19-.6.47-.8.84-.2.37-.3.8-.3,1.3s.1.94.3,1.31c.2.37.47.66.8.85.34.2.71.29,1.12.29s.78-.1,1.12-.29c.34-.2.61-.48.81-.85.2-.37.3-.81.3-1.3s-.1-.93-.3-1.3Z"/>
  <path d="m576.8,451.07h-5.26c.04.65.26,1.15.67,1.52.4.36.89.55,1.47.55.47,0,.87-.11,1.18-.33.32-.22.54-.51.67-.88h1.18c-.18.63-.53,1.15-1.06,1.54-.53.4-1.18.59-1.97.59-.62,0-1.18-.14-1.67-.42-.49-.28-.88-.68-1.16-1.19-.28-.52-.42-1.11-.42-1.79s.14-1.28.41-1.79c.27-.51.65-.91,1.15-1.18.49-.28,1.06-.41,1.7-.41s1.18.14,1.66.41c.48.27.85.65,1.11,1.12.26.48.39,1.01.39,1.61,0,.21-.01.43-.04.66Zm-1.37-1.96c-.18-.3-.43-.53-.75-.68-.32-.16-.67-.23-1.05-.23-.55,0-1.02.18-1.41.53-.39.35-.61.84-.67,1.46h4.15c0-.42-.09-.77-.28-1.07Z"/>
  <rect class="g" x="321.43" y="20.45" width="435" height="406" rx="16.24" ry="16.24" pointer-events="all"/>
  <path d="m511.95,16.09l-2.42,8.36h-1.22l-1.94-6.73-2.02,6.73h-1.21s-2.34-8.36-2.34-8.36h1.16l1.82,7.09,2.02-7.09h1.22l1.92,7.07,1.84-7.07h1.18Z"/>
  <path d="m514.34,24.14c-.5-.28-.89-.68-1.18-1.19-.28-.52-.43-1.11-.43-1.79s.15-1.27.44-1.78.69-.91,1.19-1.19c.5-.28,1.07-.41,1.69-.41s1.19.14,1.69.41c.5.28.9.67,1.19,1.18s.44,1.11.44,1.79-.15,1.28-.45,1.79c-.3.52-.71.91-1.22,1.19-.51.28-1.08.42-1.7.42s-1.17-.14-1.67-.42Zm2.78-.82c.34-.18.62-.46.83-.83s.32-.82.32-1.34-.1-.98-.31-1.34c-.21-.37-.48-.64-.82-.82-.34-.18-.7-.27-1.09-.27s-.77.09-1.1.27c-.33.18-.6.45-.8.82-.2.37-.3.82-.3,1.34s.1.99.29,1.36c.2.37.46.64.79.82s.69.27,1.08.27.76-.09,1.1-.28Z"/>
  <path d="m522.75,18.07c.36-.21.79-.31,1.3-.31v1.13h-.29c-1.22,0-1.84.66-1.84,1.99v3.58h-1.09v-6.58h1.09v1.07c.19-.38.47-.67.82-.88Z"/>
  <path d="m528.98,24.45l-2.58-2.9v2.9h-1.09v-8.88h1.09v5.22l2.53-2.92h1.52l-3.1,3.28,3.11,3.3h-1.49Z"/>
  <path d="m537.45,21.57h-5.26c.04.65.26,1.15.67,1.52.4.36.89.55,1.47.55.47,0,.87-.11,1.18-.33.32-.22.54-.51.67-.88h1.18c-.18.63-.53,1.15-1.06,1.54-.53.4-1.18.59-1.97.59-.62,0-1.18-.14-1.67-.42-.49-.28-.88-.68-1.16-1.19-.28-.52-.42-1.11-.42-1.79s.14-1.28.41-1.79c.27-.51.65-.91,1.15-1.18.49-.28,1.06-.41,1.7-.41s1.18.14,1.66.41c.48.27.85.65,1.11,1.12.26.48.39,1.01.39,1.61,0,.21-.01.43-.04.66Zm-1.37-1.96c-.18-.3-.43-.53-.75-.68-.32-.16-.67-.23-1.05-.23-.55,0-1.02.18-1.41.53-.39.35-.61.84-.67,1.46h4.15c0-.42-.09-.77-.28-1.07Z"/>
  <path d="m540.84,18.07c.36-.21.79-.31,1.3-.31v1.13h-.29c-1.22,0-1.84.66-1.84,1.99v3.58h-1.09v-6.58h1.09v1.07c.19-.38.47-.67.82-.88Z"/>
  <path d="m553.18,24.45h-1.09l-4.39-6.66v6.66h-1.09v-8.38h1.09l4.39,6.65v-6.65h1.09v8.38Z"/>
  <path d="m556.24,24.14c-.5-.28-.89-.68-1.18-1.19-.28-.52-.43-1.11-.43-1.79s.15-1.27.44-1.78.69-.91,1.19-1.19c.5-.28,1.07-.41,1.69-.41s1.19.14,1.69.41c.5.28.9.67,1.19,1.18s.44,1.11.44,1.79-.15,1.28-.45,1.79c-.3.52-.71.91-1.22,1.19-.51.28-1.08.42-1.7.42s-1.17-.14-1.67-.42Zm2.78-.82c.34-.18.62-.46.83-.83s.32-.82.32-1.34-.1-.98-.31-1.34c-.21-.37-.48-.64-.82-.82-.34-.18-.7-.27-1.09-.27s-.77.09-1.1.27c-.33.18-.6.45-.8.82-.2.37-.3.82-.3,1.34s.1.99.29,1.36c.2.37.46.64.79.82s.69.27,1.08.27.76-.09,1.1-.28Z"/>
  <path d="m562.72,19.37c.27-.51.65-.9,1.12-1.18.48-.28,1.01-.42,1.6-.42.51,0,.99.12,1.43.35.44.24.78.55,1.01.93v-3.48h1.1v8.88h-1.1v-1.24c-.22.39-.54.71-.96.97-.42.25-.92.38-1.49.38s-1.11-.14-1.59-.43c-.48-.29-.85-.69-1.12-1.21-.27-.52-.41-1.11-.41-1.78s.14-1.26.41-1.77Zm4.86.49c-.2-.37-.47-.65-.81-.85-.34-.2-.71-.29-1.12-.29s-.78.1-1.12.29c-.34.19-.6.47-.8.84-.2.37-.3.8-.3,1.3s.1.94.3,1.31c.2.37.47.66.8.85.34.2.71.29,1.12.29s.78-.1,1.12-.29c.34-.2.61-.48.81-.85s.3-.81.3-1.3-.1-.93-.3-1.3Z"/>
  <path d="m576.8,21.57h-5.26c.04.65.26,1.15.67,1.52.4.36.89.55,1.47.55.47,0,.87-.11,1.18-.33.32-.22.54-.51.67-.88h1.18c-.18.63-.53,1.15-1.06,1.54-.53.4-1.18.59-1.97.59-.62,0-1.18-.14-1.67-.42-.49-.28-.88-.68-1.16-1.19-.28-.52-.42-1.11-.42-1.79s.14-1.28.41-1.79c.27-.51.65-.91,1.15-1.18.49-.28,1.06-.41,1.7-.41s1.18.14,1.66.41c.48.27.85.65,1.11,1.12.26.48.39,1.01.39,1.61,0,.21-.01.43-.04.66Zm-1.37-1.96c-.18-.3-.43-.53-.75-.68-.32-.16-.67-.23-1.05-.23-.55,0-1.02.18-1.41.53-.39.35-.61.84-.67,1.46h4.15c0-.42-.09-.77-.28-1.07Z"/>
  <rect class="h" x="598.93" y="339.45" width="140" height="70" rx="8.4" ry="8.4" pointer-events="all"/>
  <path d="m643.01,355.24h-3.34l-.62,1.71h-1.06l2.77-7.62h1.16l2.76,7.62h-1.06l-.62-1.71Zm-.29-.81l-1.39-3.87-1.39,3.87h2.77Z"/>
  <path d="m647.78,351.17c.39-.23.85-.35,1.37-.35s1.02.13,1.46.38c.44.26.78.62,1.03,1.08s.37,1.01.37,1.62-.12,1.15-.37,1.63-.59.85-1.03,1.11c-.44.26-.92.4-1.46.4s-.97-.12-1.36-.35c-.39-.23-.69-.52-.9-.86v3.97h-1v-8.89h1v1.11c.2-.34.49-.63.89-.86Zm2.93,1.56c-.18-.34-.43-.59-.74-.77s-.65-.26-1.03-.26-.71.09-1.02.27-.56.44-.75.78c-.19.34-.28.73-.28,1.18s.09.85.28,1.19c.19.34.44.6.75.78s.65.27,1.02.27.72-.09,1.03-.27.56-.44.74-.78c.18-.34.27-.74.27-1.21s-.09-.85-.27-1.19Z"/>
  <path d="m655.22,351.17c.39-.23.85-.35,1.37-.35s1.02.13,1.46.38.78.62,1.03,1.08c.25.47.37,1.01.37,1.62s-.12,1.15-.37,1.63c-.25.48-.59.85-1.03,1.11s-.92.4-1.46.4-.97-.12-1.36-.35c-.39-.23-.69-.52-.9-.86v3.97h-1v-8.89h1v1.11c.2-.34.49-.63.88-.86Zm2.93,1.56c-.18-.34-.43-.59-.74-.77s-.65-.26-1.03-.26-.71.09-1.02.27-.56.44-.75.78c-.19.34-.28.73-.28,1.18s.09.85.28,1.19c.19.34.44.6.75.78s.65.27,1.02.27.72-.09,1.03-.27.56-.44.74-.78c.18-.34.28-.74.28-1.21s-.09-.85-.28-1.19Z"/>
  <path d="m661.77,348.81v8.14h-1v-8.14h1Z"/>
  <path d="m663.5,349.74c-.13-.13-.2-.29-.2-.48s.07-.35.2-.48c.13-.13.29-.2.48-.2s.34.07.47.2c.13.13.19.29.19.48s-.06.35-.19.48c-.13.13-.28.2-.47.2s-.35-.07-.48-.2Zm.97,1.18v6.03h-1v-6.03h1Z"/>
  <path d="m666.18,352.29c.25-.47.6-.83,1.04-1.08s.95-.38,1.52-.38c.74,0,1.35.18,1.83.54.48.36.8.86.95,1.5h-1.08c-.1-.37-.3-.66-.6-.87s-.67-.32-1.11-.32c-.57,0-1.03.2-1.39.59-.35.39-.53.95-.53,1.67s.18,1.29.53,1.68c.35.4.81.59,1.39.59.44,0,.81-.1,1.1-.31.29-.21.5-.5.61-.88h1.08c-.16.62-.48,1.11-.97,1.48-.48.37-1.09.55-1.82.55-.57,0-1.08-.13-1.52-.38s-.79-.62-1.04-1.09c-.25-.47-.37-1.02-.37-1.65s.12-1.17.37-1.63Z"/>
  <path d="m672.85,352.29c.25-.47.59-.83,1.03-1.08.44-.26.92-.38,1.46-.38s.99.11,1.38.34.68.51.87.86v-1.1h1.01v6.03h-1.01v-1.12c-.2.35-.49.64-.89.88-.39.23-.85.35-1.37.35s-1.02-.13-1.45-.4-.77-.63-1.02-1.11c-.25-.48-.37-1.02-.37-1.63s.12-1.16.37-1.62Zm4.45.45c-.18-.34-.43-.6-.74-.78s-.65-.27-1.03-.27-.71.09-1.02.26c-.31.18-.55.43-.74.77-.18.34-.28.73-.28,1.19s.09.86.28,1.21c.18.34.43.6.74.78.31.18.65.27,1.02.27s.72-.09,1.03-.27.56-.44.74-.78c.18-.34.28-.74.28-1.19s-.09-.85-.28-1.19Z"/>
  <path d="m681.51,351.74v3.55c0,.29.06.5.19.62.12.12.34.18.65.18h.74v.85h-.9c-.56,0-.97-.13-1.25-.38-.28-.26-.42-.68-.42-1.27v-3.55h-.78v-.83h.78v-1.52h1v1.52h1.57v.83h-1.57Z"/>
  <path d="m684.33,349.74c-.13-.13-.2-.29-.2-.48s.07-.35.2-.48.29-.2.48-.2.34.07.47.2c.13.13.19.29.19.48s-.06.35-.19.48c-.13.13-.28.2-.47.2s-.35-.07-.48-.2Zm.97,1.18v6.03h-1v-6.03h1Z"/>
  <path d="m688.09,356.66c-.46-.26-.82-.62-1.08-1.09-.26-.47-.39-1.02-.39-1.64s.13-1.16.4-1.63c.27-.47.63-.84,1.09-1.09.46-.25.98-.38,1.55-.38s1.09.13,1.55.38c.46.25.83.61,1.09,1.08.27.47.4,1.02.4,1.64s-.14,1.17-.41,1.64c-.28.47-.65.84-1.12,1.09-.47.26-.99.38-1.56.38s-1.08-.13-1.53-.38Zm2.55-.75c.32-.17.57-.42.76-.76s.29-.75.29-1.23-.1-.89-.29-1.23-.44-.59-.75-.75-.64-.25-1-.25-.7.08-1.01.25c-.3.17-.55.42-.73.75s-.27.75-.27,1.23.09.91.27,1.24c.18.34.42.59.72.75s.63.25.99.25.7-.08,1.01-.25Z"/>
  <path d="m698.76,351.47c.45.44.68,1.08.68,1.92v3.55h-.99v-3.41c0-.6-.15-1.06-.45-1.38-.3-.32-.71-.48-1.23-.48s-.95.17-1.26.49c-.31.33-.47.81-.47,1.44v3.33h-1v-6.03h1v.86c.2-.31.47-.55.81-.71.34-.17.72-.25,1.13-.25.73,0,1.33.22,1.78.67Z"/>
  <rect class="h" x="598.93" y="250.45" width="140" height="70" rx="8.4" ry="8.4" pointer-events="all"/>
  <path d="m643.01,266.24h-3.34l-.62,1.71h-1.06l2.77-7.62h1.16l2.76,7.62h-1.06l-.62-1.71Zm-.29-.81l-1.39-3.87-1.39,3.87h2.77Z"/>
  <path d="m647.78,262.17c.39-.23.85-.35,1.37-.35s1.02.13,1.46.38c.44.26.78.62,1.03,1.08s.37,1.01.37,1.62-.12,1.15-.37,1.63-.59.85-1.03,1.11c-.44.26-.92.4-1.46.4s-.97-.12-1.36-.35c-.39-.23-.69-.52-.9-.86v3.97h-1v-8.89h1v1.11c.2-.34.49-.63.89-.86Zm2.93,1.56c-.18-.34-.43-.59-.74-.77s-.65-.26-1.03-.26-.71.09-1.02.27-.56.44-.75.78c-.19.34-.28.73-.28,1.18s.09.85.28,1.19c.19.34.44.6.75.78s.65.27,1.02.27.72-.09,1.03-.27.56-.44.74-.78c.18-.34.27-.74.27-1.21s-.09-.85-.27-1.19Z"/>
  <path d="m655.22,262.17c.39-.23.85-.35,1.37-.35s1.02.13,1.46.38.78.62,1.03,1.08c.25.47.37,1.01.37,1.62s-.12,1.15-.37,1.63c-.25.48-.59.85-1.03,1.11s-.92.4-1.46.4-.97-.12-1.36-.35c-.39-.23-.69-.52-.9-.86v3.97h-1v-8.89h1v1.11c.2-.34.49-.63.88-.86Zm2.93,1.56c-.18-.34-.43-.59-.74-.77s-.65-.26-1.03-.26-.71.09-1.02.27-.56.44-.75.78c-.19.34-.28.73-.28,1.18s.09.85.28,1.19c.19.34.44.6.75.78s.65.27,1.02.27.72-.09,1.03-.27.56-.44.74-.78c.18-.34.28-.74.28-1.21s-.09-.85-.28-1.19Z"/>
  <path d="m661.77,259.81v8.14h-1v-8.14h1Z"/>
  <path d="m663.5,260.74c-.13-.13-.2-.29-.2-.48s.07-.35.2-.48c.13-.13.29-.2.48-.2s.34.07.47.2c.13.13.19.29.19.48s-.06.35-.19.48c-.13.13-.28.2-.47.2s-.35-.07-.48-.2Zm.97,1.18v6.03h-1v-6.03h1Z"/>
  <path d="m666.18,263.29c.25-.47.6-.83,1.04-1.08s.95-.38,1.52-.38c.74,0,1.35.18,1.83.54.48.36.8.86.95,1.5h-1.08c-.1-.37-.3-.66-.6-.87s-.67-.32-1.11-.32c-.57,0-1.03.2-1.39.59-.35.39-.53.95-.53,1.67s.18,1.29.53,1.68c.35.4.81.59,1.39.59.44,0,.81-.1,1.1-.31.29-.21.5-.5.61-.88h1.08c-.16.62-.48,1.11-.97,1.48-.48.37-1.09.55-1.82.55-.57,0-1.08-.13-1.52-.38s-.79-.62-1.04-1.09c-.25-.47-.37-1.02-.37-1.65s.12-1.17.37-1.63Z"/>
  <path d="m672.85,263.29c.25-.47.59-.83,1.03-1.08.44-.26.92-.38,1.46-.38s.99.11,1.38.34.68.51.87.86v-1.1h1.01v6.03h-1.01v-1.12c-.2.35-.49.64-.89.88-.39.23-.85.35-1.37.35s-1.02-.13-1.45-.4-.77-.63-1.02-1.11c-.25-.48-.37-1.02-.37-1.63s.12-1.16.37-1.62Zm4.45.45c-.18-.34-.43-.6-.74-.78s-.65-.27-1.03-.27-.71.09-1.02.26c-.31.18-.55.43-.74.77-.18.34-.28.73-.28,1.19s.09.86.28,1.21c.18.34.43.6.74.78.31.18.65.27,1.02.27s.72-.09,1.03-.27.56-.44.74-.78c.18-.34.28-.74.28-1.19s-.09-.85-.28-1.19Z"/>
  <path d="m681.51,262.74v3.55c0,.29.06.5.19.62.12.12.34.18.65.18h.74v.85h-.9c-.56,0-.97-.13-1.25-.38-.28-.26-.42-.68-.42-1.27v-3.55h-.78v-.83h.78v-1.52h1v1.52h1.57v.83h-1.57Z"/>
  <path d="m684.33,260.74c-.13-.13-.2-.29-.2-.48s.07-.35.2-.48.29-.2.48-.2.34.07.47.2c.13.13.19.29.19.48s-.06.35-.19.48c-.13.13-.28.2-.47.2s-.35-.07-.48-.2Zm.97,1.18v6.03h-1v-6.03h1Z"/>
  <path d="m688.09,267.66c-.46-.26-.82-.62-1.08-1.09-.26-.47-.39-1.02-.39-1.64s.13-1.16.4-1.63c.27-.47.63-.84,1.09-1.09.46-.25.98-.38,1.55-.38s1.09.13,1.55.38c.46.25.83.61,1.09,1.08.27.47.4,1.02.4,1.64s-.14,1.17-.41,1.64c-.28.47-.65.84-1.12,1.09-.47.26-.99.38-1.56.38s-1.08-.13-1.53-.38Zm2.55-.75c.32-.17.57-.42.76-.76s.29-.75.29-1.23-.1-.89-.29-1.23-.44-.59-.75-.75-.64-.25-1-.25-.7.08-1.01.25c-.3.17-.55.42-.73.75s-.27.75-.27,1.23.09.91.27,1.24c.18.34.42.59.72.75s.63.25.99.25.7-.08,1.01-.25Z"/>
  <path d="m698.76,262.47c.45.44.68,1.08.68,1.92v3.55h-.99v-3.41c0-.6-.15-1.06-.45-1.38-.3-.32-.71-.48-1.23-.48s-.95.17-1.26.49c-.31.33-.47.81-.47,1.44v3.33h-1v-6.03h1v.86c.2-.31.47-.55.81-.71.34-.17.72-.25,1.13-.25.73,0,1.33.22,1.78.67Z"/>
  <path class="e" d="m340.06,233.45h-63.43c-6.67,0-13.33.02-20,.06l-63.56.4" pointer-events="stroke"/>
  <path class="d" d="m345.31,233.45l-7,2.33,1.75-2.33-1.75-2.33,7,2.33Z" pointer-events="all"/>
  <path class="d" d="m187.82,233.94l6.98-2.37-1.73,2.34,1.76,2.32-7.01-2.29Z" pointer-events="all"/>
  <path class="e" d="m472.8,233.45h49.93c6.67,0,10-3.33,10-10V90.95c0-6.67,3.33-10,10-10h49.83" pointer-events="stroke"/>
  <path class="d" d="m467.55,233.45l7-2.33-1.75,2.33,1.75,2.33-7-2.33Z" pointer-events="all"/>
  <path class="d" d="m597.81,80.95l-7,2.33,1.75-2.33-1.75-2.33,7,2.33Z" pointer-events="all"/>
  <path class="e" d="m472.8,233.45h49.93c6.67,0,10-3.33,10-10v-57.5c0-6.67,3.33-10,10-10h49.83" pointer-events="stroke"/>
  <path class="d" d="m467.55,233.45l7-2.33-1.75,2.33,1.75,2.33-7-2.33Z" pointer-events="all"/>
  <path class="d" d="m597.81,155.95l-7,2.33,1.75-2.33-1.75-2.33,7,2.33Z" pointer-events="all"/>
  <path class="e" d="m472.8,233.45h49.93c6.67,0,10-3.33,10-10v-15.5c0-6.67,3.33-10,10-10h49.83" pointer-events="stroke"/>
  <path class="d" d="m467.55,233.45l7-2.33-1.75,2.33,1.75,2.33-7-2.33Z" pointer-events="all"/>
  <path class="d" d="m597.81,197.95l-7,2.33,1.75-2.33-1.75-2.33,7,2.33Z" pointer-events="all"/>
  <path class="e" d="m472.8,233.45h49.63c6.67,0,10,3.33,10,10v40.5c0,6.67,3.33,10,10,10h57.63" pointer-events="stroke"/>
  <path class="d" d="m467.55,233.45l7-2.33-1.75,2.33,1.75,2.33-7-2.33Z" pointer-events="all"/>
  <path class="d" d="m605.31,293.95l-7,2.33,1.75-2.33-1.75-2.33,7,2.33Z" pointer-events="all"/>
  <path class="e" d="m472.8,233.45h141.13c6.67,0,13.33-.01,20-.03l141.13-.45" pointer-events="stroke"/>
  <path class="d" d="m467.55,233.45l7-2.33-1.75,2.33,1.75,2.33-7-2.33Z" pointer-events="all"/>
  <path class="d" d="m780.31,232.95l-6.99,2.36,1.74-2.34-1.76-2.33,7.01,2.31Z" pointer-events="all"/>
  <path class="e" d="m472.8,233.45h49.63c6.67,0,10,3.33,10,10v129.5c0,6.67,3.33,10,10,10h57.63" pointer-events="stroke"/>
  <path class="d" d="m467.55,233.45l7-2.33-1.75,2.33,1.75,2.33-7-2.33Z" pointer-events="all"/>
  <path class="d" d="m605.31,382.95l-7,2.33,1.75-2.33-1.75-2.33,7,2.33Z" pointer-events="all"/>
  <rect class="c" x="346.43" y="203.45" width="120" height="60" rx="9" ry="9" pointer-events="all"/>
  <path d="m366.32,235.09h-3.65l-.67,1.86h-1.15l3.02-8.32h1.26l3.01,8.32h-1.15l-.67-1.86Zm-.31-.89l-1.51-4.22-1.51,4.22h3.02Z"/>
  <path d="m371.52,230.64c.43-.25.93-.38,1.49-.38s1.11.14,1.59.42.85.67,1.12,1.18.41,1.1.41,1.77-.14,1.26-.41,1.78c-.27.52-.65.92-1.12,1.21s-1.01.43-1.59.43-1.05-.13-1.48-.38c-.43-.25-.75-.57-.98-.94v4.33h-1.09v-9.7h1.09v1.21c.22-.38.54-.69.97-.94Zm3.2,1.7c-.2-.37-.47-.65-.81-.84-.34-.19-.71-.29-1.12-.29s-.77.1-1.11.29c-.34.2-.61.48-.82.85-.2.37-.31.8-.31,1.29s.1.93.31,1.3c.2.37.48.66.82.85.34.2.71.29,1.11.29s.78-.1,1.12-.29c.34-.2.61-.48.81-.85.2-.37.3-.81.3-1.31s-.1-.93-.3-1.3Z"/>
  <path d="m383.54,234.07h-5.26c.04.65.26,1.15.67,1.52.4.36.89.55,1.47.55.47,0,.87-.11,1.18-.33.32-.22.54-.51.67-.88h1.18c-.18.63-.53,1.15-1.06,1.54-.53.4-1.18.59-1.97.59-.62,0-1.18-.14-1.67-.42-.49-.28-.88-.68-1.16-1.19-.28-.52-.42-1.11-.42-1.79s.14-1.28.41-1.79.65-.91,1.15-1.18c.49-.28,1.06-.41,1.7-.41s1.18.14,1.66.41c.48.27.85.65,1.11,1.12.26.48.39,1.01.39,1.61,0,.21-.01.43-.04.66Zm-1.37-1.96c-.18-.3-.43-.53-.75-.68-.32-.16-.67-.23-1.05-.23-.55,0-1.02.18-1.41.53-.39.35-.61.84-.67,1.46h4.15c0-.42-.09-.77-.28-1.07Z"/>
  <path d="m386.92,230.56c.36-.21.79-.31,1.3-.31v1.13h-.29c-1.22,0-1.84.66-1.84,1.99v3.58h-1.09v-6.58h1.09v1.07c.19-.38.47-.67.82-.88Z"/>
  <path d="m390.82,231.27v3.88c0,.32.07.55.2.68.14.13.37.2.71.2h.8v.92h-.98c-.61,0-1.06-.14-1.37-.42-.3-.28-.46-.74-.46-1.38v-3.88h-.85v-.9h.85v-1.66h1.09v1.66h1.72v.9h-1.72Z"/>
  <path d="m399.69,230.37v6.58h-1.09v-.97c-.21.34-.5.6-.87.79-.37.19-.78.28-1.23.28-.51,0-.97-.11-1.38-.32-.41-.21-.73-.53-.97-.95-.24-.42-.35-.94-.35-1.55v-3.85h1.08v3.71c0,.65.16,1.15.49,1.49s.78.52,1.34.52,1.04-.18,1.38-.54c.34-.36.5-.88.5-1.57v-3.61h1.09Z"/>
  <path d="m403.45,230.56c.36-.21.79-.31,1.3-.31v1.13h-.29c-1.22,0-1.84.66-1.84,1.99v3.58h-1.09v-6.58h1.09v1.07c.19-.38.47-.67.82-.88Z"/>
  <path d="m411.98,234.07h-5.26c.04.65.26,1.15.67,1.52.4.36.89.55,1.47.55.47,0,.87-.11,1.18-.33.32-.22.54-.51.67-.88h1.18c-.18.63-.53,1.15-1.06,1.54-.53.4-1.18.59-1.97.59-.62,0-1.18-.14-1.67-.42-.49-.28-.88-.68-1.16-1.19-.28-.52-.42-1.11-.42-1.79s.14-1.28.41-1.79.65-.91,1.15-1.18c.49-.28,1.06-.41,1.7-.41s1.18.14,1.66.41c.48.27.85.65,1.11,1.12.26.48.39,1.01.39,1.61,0,.21-.01.43-.04.66Zm-1.37-1.96c-.18-.3-.43-.53-.75-.68-.32-.16-.67-.23-1.05-.23-.55,0-1.02.18-1.41.53-.39.35-.61.84-.67,1.46h4.15c0-.42-.09-.77-.28-1.07Z"/>
  <path d="m421.6,235.09h-3.65l-.67,1.86h-1.15l3.02-8.32h1.26l3.01,8.32h-1.15l-.67-1.86Zm-.31-.89l-1.51-4.22-1.51,4.22h3.02Z"/>
  <path d="m428.95,230.63c.43.25.75.56.95.94v-1.2h1.1v6.72c0,.6-.13,1.13-.38,1.6-.26.47-.62.83-1.1,1.1-.48.26-1.03.4-1.66.4-.86,0-1.58-.2-2.16-.61-.58-.41-.92-.96-1.02-1.67h1.08c.12.4.37.72.74.97s.83.37,1.36.37c.6,0,1.09-.19,1.47-.56.38-.38.57-.9.57-1.58v-1.38c-.22.38-.54.7-.96.96-.42.26-.92.38-1.49.38s-1.11-.14-1.59-.43-.85-.69-1.12-1.21c-.27-.52-.41-1.11-.41-1.78s.14-1.26.41-1.77.65-.9,1.12-1.18,1.01-.42,1.59-.42,1.07.12,1.49.37Zm.65,1.72c-.2-.37-.47-.65-.81-.85-.34-.2-.71-.29-1.12-.29s-.78.1-1.12.29c-.34.19-.6.47-.8.84-.2.37-.3.8-.3,1.3s.1.94.3,1.31c.2.37.47.66.8.85.34.2.71.29,1.12.29s.78-.1,1.12-.29c.34-.2.61-.48.81-.85.2-.37.3-.81.3-1.3s-.1-.93-.3-1.3Z"/>
  <path d="m438.82,234.07h-5.26c.04.65.26,1.15.67,1.52.4.36.89.55,1.47.55.47,0,.87-.11,1.18-.33.32-.22.54-.51.67-.88h1.18c-.18.63-.53,1.15-1.06,1.54-.53.4-1.18.59-1.97.59-.62,0-1.18-.14-1.67-.42-.49-.28-.88-.68-1.16-1.19-.28-.52-.42-1.11-.42-1.79s.14-1.28.41-1.79.65-.91,1.15-1.18c.49-.28,1.06-.41,1.7-.41s1.18.14,1.66.41c.48.27.85.65,1.11,1.12.26.48.39,1.01.39,1.61,0,.21-.01.43-.04.66Zm-1.37-1.96c-.18-.3-.43-.53-.75-.68-.32-.16-.67-.23-1.05-.23-.55,0-1.02.18-1.41.53-.39.35-.61.84-.67,1.46h4.15c0-.42-.09-.77-.28-1.07Z"/>
  <path d="m445.44,230.98c.5.48.74,1.18.74,2.09v3.88h-1.08v-3.72c0-.66-.16-1.16-.49-1.51-.33-.35-.78-.52-1.34-.52s-1.03.18-1.37.54-.51.88-.51,1.57v3.64h-1.09v-6.58h1.09v.94c.22-.34.51-.6.88-.78s.78-.28,1.23-.28c.8,0,1.45.24,1.94.73Z"/>
  <path d="m449.31,231.27v3.88c0,.32.07.55.2.68s.37.2.71.2h.8v.92h-.98c-.61,0-1.06-.14-1.37-.42s-.46-.74-.46-1.38v-3.88h-.85v-.9h.85v-1.66h1.09v1.66h1.72v.9h-1.72Z"/>
  <rect class="h" x="781.43" y="215.45" width="140" height="35" rx="5.25" ry="5.25" pointer-events="none"/>
  <path d="m822.35,235.95l-3.44-3.82v3.82h-1.09v-8.36h1.09v3.88l3.46-3.88h1.38l-3.79,4.19,3.83,4.18h-1.43Z"/>
  <path d="m830.83,229.37v6.58h-1.09v-.97c-.21.34-.5.6-.87.79-.37.19-.78.28-1.23.28-.51,0-.97-.11-1.38-.32s-.73-.53-.97-.95-.35-.94-.35-1.55v-3.85h1.08v3.71c0,.65.16,1.15.49,1.49s.78.52,1.34.52,1.04-.18,1.38-.54c.34-.36.5-.88.5-1.57v-3.61h1.09Z"/>
  <path d="m834.76,229.63c.43-.25.92-.37,1.48-.37.59,0,1.12.14,1.6.42s.84.67,1.12,1.18c.27.51.41,1.1.41,1.77s-.14,1.26-.41,1.78c-.27.52-.65.92-1.12,1.21-.48.29-1.01.43-1.59.43s-1.07-.12-1.49-.37c-.43-.25-.75-.56-.97-.95v1.21h-1.09v-8.88h1.09v3.53c.22-.39.55-.71.98-.96Zm3.18,1.7c-.2-.37-.47-.65-.81-.84-.34-.19-.71-.29-1.12-.29s-.77.1-1.11.29c-.34.2-.61.48-.82.85s-.31.8-.31,1.29.1.93.31,1.3.48.66.82.85c.34.2.71.29,1.11.29s.78-.1,1.12-.29c.34-.2.61-.48.81-.85.2-.37.3-.81.3-1.31s-.1-.93-.3-1.3Z"/>
  <path d="m846.76,233.07h-5.26c.04.65.26,1.15.67,1.52.4.36.89.55,1.47.55.47,0,.87-.11,1.18-.33.32-.22.54-.51.67-.88h1.18c-.18.63-.53,1.15-1.06,1.54-.53.4-1.18.59-1.97.59-.62,0-1.18-.14-1.67-.42-.49-.28-.88-.68-1.16-1.19-.28-.52-.42-1.11-.42-1.79s.14-1.28.41-1.79c.27-.51.65-.91,1.15-1.18.49-.28,1.06-.41,1.7-.41s1.18.14,1.66.41c.48.27.85.65,1.11,1.12.26.48.39,1.01.39,1.61,0,.21-.01.43-.04.66Zm-1.37-1.96c-.18-.3-.43-.53-.75-.68-.32-.16-.67-.23-1.05-.23-.55,0-1.02.18-1.41.53-.39.35-.61.84-.67,1.46h4.15c0-.42-.09-.77-.28-1.07Z"/>
  <path d="m850.15,229.56c.36-.21.79-.31,1.3-.31v1.13h-.29c-1.22,0-1.84.66-1.84,1.99v3.58h-1.09v-6.58h1.09v1.07c.19-.38.47-.67.82-.88Z"/>
  <path d="m857.86,229.98c.5.48.74,1.18.74,2.09v3.88h-1.08v-3.72c0-.66-.16-1.16-.49-1.51-.33-.35-.78-.52-1.34-.52s-1.03.18-1.37.54-.51.88-.51,1.57v3.64h-1.09v-6.58h1.09v.94c.22-.34.51-.6.88-.78s.78-.28,1.23-.28c.8,0,1.45.24,1.94.73Z"/>
  <path d="m866.35,233.07h-5.26c.04.65.26,1.15.67,1.52.4.36.89.55,1.47.55.47,0,.87-.11,1.18-.33.32-.22.54-.51.67-.88h1.18c-.18.63-.53,1.15-1.06,1.54-.53.4-1.18.59-1.97.59-.62,0-1.18-.14-1.67-.42-.49-.28-.88-.68-1.16-1.19-.28-.52-.42-1.11-.42-1.79s.14-1.28.41-1.79c.27-.51.65-.91,1.15-1.18.49-.28,1.06-.41,1.7-.41s1.18.14,1.66.41c.48.27.85.65,1.11,1.12.26.48.39,1.01.39,1.61,0,.21-.01.43-.04.66Zm-1.37-1.96c-.18-.3-.43-.53-.75-.68-.32-.16-.67-.23-1.05-.23-.55,0-1.02.18-1.41.53-.39.35-.61.84-.67,1.46h4.15c0-.42-.09-.77-.28-1.07Z"/>
  <path d="m869.16,230.27v3.88c0,.32.07.55.2.68s.37.2.71.2h.8v.92h-.98c-.61,0-1.06-.14-1.37-.42s-.46-.74-.46-1.38v-3.88h-.85v-.9h.85v-1.66h1.09v1.66h1.72v.9h-1.72Z"/>
  <path d="m878.16,233.07h-5.26c.04.65.26,1.15.67,1.52.4.36.89.55,1.47.55.47,0,.87-.11,1.18-.33.32-.22.54-.51.67-.88h1.18c-.18.63-.53,1.15-1.06,1.54-.53.4-1.18.59-1.97.59-.62,0-1.18-.14-1.67-.42-.49-.28-.88-.68-1.16-1.19-.28-.52-.42-1.11-.42-1.79s.14-1.28.41-1.79c.27-.51.65-.91,1.15-1.18.49-.28,1.06-.41,1.7-.41s1.18.14,1.66.41c.48.27.85.65,1.11,1.12.26.48.39,1.01.39,1.61,0,.21-.01.43-.04.66Zm-1.37-1.96c-.18-.3-.43-.53-.75-.68-.32-.16-.67-.23-1.05-.23-.55,0-1.02.18-1.41.53-.39.35-.61.84-.67,1.46h4.15c0-.42-.09-.77-.28-1.07Z"/>
  <path d="m880.61,235.8c-.4-.17-.72-.41-.95-.72-.23-.31-.36-.66-.38-1.06h1.13c.03.33.19.6.46.8.28.21.64.31,1.09.31.42,0,.74-.09.98-.28.24-.18.36-.42.36-.7s-.13-.5-.38-.64c-.26-.14-.65-.28-1.19-.41-.49-.13-.89-.26-1.19-.39-.31-.13-.57-.33-.79-.59-.22-.26-.33-.6-.33-1.03,0-.34.1-.64.3-.92.2-.28.48-.5.85-.67.37-.16.79-.25,1.26-.25.73,0,1.32.18,1.76.55.45.37.69.87.72,1.51h-1.09c-.02-.34-.16-.62-.41-.83s-.59-.31-1.01-.31c-.39,0-.7.08-.94.25s-.35.39-.35.66c0,.22.07.39.21.53.14.14.32.25.53.34s.51.18.88.28c.47.13.86.25,1.15.38s.55.31.76.56.32.57.33.97c0,.36-.1.68-.3.97-.2.29-.48.51-.85.68-.36.16-.78.25-1.25.25-.5,0-.96-.09-1.36-.26Z"/>
  <path d="m812.37,203.48c-.64-.36-1.15-.87-1.52-1.52-.37-.65-.56-1.39-.56-2.2s.19-1.55.56-2.2c.37-.65.88-1.16,1.52-1.52.64-.36,1.35-.55,2.12-.55s1.5.18,2.14.55,1.14.87,1.51,1.52c.37.65.55,1.38.55,2.21s-.18,1.56-.55,2.21c-.37.65-.87,1.15-1.51,1.52s-1.35.55-2.14.55-1.48-.18-2.12-.55Zm3.7-.81c.47-.27.84-.66,1.1-1.16.27-.5.4-1.09.4-1.75s-.13-1.26-.4-1.76c-.27-.5-.63-.89-1.1-1.16-.46-.27-.99-.41-1.58-.41s-1.12.14-1.58.41c-.46.27-.83.66-1.1,1.16-.27.5-.4,1.09-.4,1.76s.13,1.25.4,1.75c.27.5.64.89,1.1,1.16.47.27.99.41,1.58.41s1.11-.14,1.58-.41Z"/>
  <path d="m822.04,197.56c.36-.21.79-.31,1.3-.31v1.13h-.29c-1.22,0-1.84.66-1.84,1.99v3.58h-1.09v-6.58h1.09v1.07c.19-.38.47-.67.82-.88Z"/>
  <path d="m824.6,198.86c.27-.51.65-.9,1.13-1.18.48-.28,1.04-.42,1.66-.42.81,0,1.47.2,2,.59.52.39.87.94,1.04,1.63h-1.18c-.11-.4-.33-.72-.65-.95-.32-.23-.73-.35-1.21-.35-.62,0-1.13.21-1.51.64-.38.43-.58,1.03-.58,1.82s.19,1.4.58,1.84c.38.43.89.65,1.51.65.48,0,.88-.11,1.2-.34.32-.22.54-.54.66-.96h1.18c-.18.67-.53,1.21-1.06,1.61s-1.19.61-1.98.61c-.62,0-1.18-.14-1.66-.42-.48-.28-.86-.68-1.13-1.19-.27-.51-.41-1.11-.41-1.8s.14-1.27.41-1.78Z"/>
  <path d="m836.5,197.57c.4.21.71.53.94.95.23.42.34.94.34,1.55v3.88h-1.08v-3.72c0-.66-.16-1.16-.49-1.51-.33-.35-.78-.52-1.34-.52s-1.03.18-1.37.54-.51.88-.51,1.57v3.64h-1.09v-8.88h1.09v3.24c.22-.34.51-.6.89-.78s.81-.28,1.28-.28c.5,0,.94.11,1.34.32Z"/>
  <path d="m845.53,201.07h-5.26c.04.65.26,1.15.67,1.52.4.36.89.55,1.47.55.47,0,.87-.11,1.18-.33.32-.22.54-.51.67-.88h1.18c-.18.63-.53,1.15-1.06,1.54-.53.4-1.18.59-1.97.59-.62,0-1.18-.14-1.67-.42-.49-.28-.88-.68-1.16-1.19-.28-.52-.42-1.11-.42-1.79s.14-1.28.41-1.79c.27-.51.65-.91,1.15-1.18.49-.28,1.06-.41,1.7-.41s1.18.14,1.66.41c.48.27.85.65,1.11,1.12.26.48.39,1.01.39,1.61,0,.21-.01.43-.04.66Zm-1.37-1.96c-.18-.3-.43-.53-.75-.68-.32-.16-.67-.23-1.05-.23-.55,0-1.02.18-1.41.53-.39.35-.61.84-.67,1.46h4.15c0-.42-.09-.77-.28-1.07Z"/>
  <path d="m847.98,203.8c-.4-.17-.72-.41-.95-.72-.23-.31-.36-.66-.38-1.06h1.13c.03.33.19.6.46.8.28.21.64.31,1.09.31.42,0,.74-.09.98-.28.24-.18.36-.42.36-.7s-.13-.5-.38-.64c-.26-.14-.65-.28-1.19-.41-.49-.13-.89-.26-1.19-.39-.31-.13-.57-.33-.79-.59-.22-.26-.33-.6-.33-1.03,0-.34.1-.64.3-.92.2-.28.48-.5.85-.67.37-.16.79-.25,1.26-.25.73,0,1.32.18,1.76.55.45.37.69.87.72,1.51h-1.09c-.02-.34-.16-.62-.41-.83s-.59-.31-1.01-.31c-.39,0-.7.08-.94.25s-.35.39-.35.66c0,.22.07.39.21.53.14.14.32.25.53.34s.51.18.88.28c.47.13.86.25,1.15.38s.55.31.76.56.32.57.33.97c0,.36-.1.68-.3.97-.2.29-.48.51-.85.68-.36.16-.78.25-1.25.25-.5,0-.96-.09-1.36-.26Z"/>
  <path d="m854.6,198.27v3.88c0,.32.07.55.2.68s.37.2.71.2h.8v.92h-.98c-.61,0-1.06-.14-1.37-.42s-.46-.74-.46-1.38v-3.88h-.85v-.9h.85v-1.66h1.09v1.66h1.72v.9h-1.72Z"/>
  <path d="m859.55,197.56c.36-.21.79-.31,1.3-.31v1.13h-.29c-1.22,0-1.84.66-1.84,1.99v3.58h-1.09v-6.58h1.09v1.07c.19-.38.47-.67.82-.88Z"/>
  <path d="m862.12,198.86c.27-.51.65-.9,1.12-1.18.48-.28,1.01-.42,1.59-.42s1.08.12,1.5.37c.42.25.74.56.95.94v-1.2h1.1v6.58h-1.1v-1.22c-.22.38-.54.7-.97.95-.43.25-.93.38-1.49.38s-1.11-.14-1.58-.43-.84-.69-1.12-1.21c-.27-.52-.41-1.11-.41-1.78s.14-1.26.41-1.77Zm4.86.49c-.2-.37-.47-.65-.81-.85-.34-.2-.71-.29-1.12-.29s-.78.1-1.12.29c-.34.19-.6.47-.8.84-.2.37-.3.8-.3,1.3s.1.94.3,1.31c.2.37.47.66.8.85.34.2.71.29,1.12.29s.78-.1,1.12-.29c.34-.2.61-.48.81-.85s.3-.81.3-1.3-.1-.93-.3-1.3Z"/>
  <path d="m871.56,198.27v3.88c0,.32.07.55.2.68.14.13.37.2.71.2h.8v.92h-.98c-.61,0-1.06-.14-1.37-.42-.3-.28-.46-.74-.46-1.38v-3.88h-.85v-.9h.85v-1.66h1.09v1.66h1.72v.9h-1.72Z"/>
  <path d="m875.79,203.63c-.5-.28-.89-.68-1.18-1.19-.28-.52-.43-1.11-.43-1.79s.15-1.27.44-1.78.69-.91,1.19-1.19c.5-.28,1.07-.41,1.69-.41s1.19.14,1.69.41c.5.28.9.67,1.19,1.18s.44,1.11.44,1.79-.15,1.28-.45,1.79c-.3.52-.71.91-1.22,1.19-.51.28-1.08.42-1.7.42s-1.17-.14-1.67-.42Zm2.78-.82c.34-.18.62-.46.83-.83s.32-.82.32-1.34-.1-.98-.31-1.34c-.21-.37-.48-.64-.82-.82-.34-.18-.7-.27-1.09-.27s-.77.09-1.1.27c-.33.18-.6.45-.8.82-.2.37-.3.82-.3,1.34s.1.99.29,1.36c.2.37.46.64.79.82s.69.27,1.08.27.76-.09,1.1-.28Z"/>
  <path d="m884.19,197.56c.36-.21.79-.31,1.3-.31v1.13h-.29c-1.22,0-1.84.66-1.84,1.99v3.58h-1.09v-6.58h1.09v1.07c.19-.38.47-.67.82-.88Z"/>
  <path d="m887.72,203.8c-.4-.17-.72-.41-.95-.72-.23-.31-.36-.66-.38-1.06h1.13c.03.33.19.6.46.8s.64.31,1.09.31c.42,0,.74-.09.98-.28.24-.18.36-.42.36-.7s-.13-.5-.38-.64c-.26-.14-.65-.28-1.19-.41-.49-.13-.89-.26-1.19-.39-.31-.13-.57-.33-.79-.59-.22-.26-.33-.6-.33-1.03,0-.34.1-.64.3-.92.2-.28.48-.5.85-.67.37-.16.79-.25,1.26-.25.73,0,1.32.18,1.76.55s.69.87.72,1.51h-1.09c-.02-.34-.16-.62-.41-.83s-.59-.31-1.01-.31c-.39,0-.7.08-.94.25-.23.17-.35.39-.35.66,0,.22.07.39.21.53.14.14.32.25.53.34s.51.18.88.28c.47.13.86.25,1.15.38s.55.31.76.56.32.57.33.97c0,.36-.1.68-.3.97-.2.29-.48.51-.85.68-.36.16-.78.25-1.25.25-.5,0-.96-.09-1.36-.26Z"/>
  <rect class="h" x="598.93" y="138.45" width="140" height="35" rx="5.25" ry="5.25" pointer-events="none"/>
  <path d="m659.06,158.95l-3.44-3.82v3.82h-1.09v-8.36h1.09v3.88l3.46-3.88h1.38l-3.79,4.19,3.83,4.18h-1.43Z"/>
  <path d="m662.91,158.63c-.5-.28-.89-.68-1.18-1.19-.28-.52-.43-1.11-.43-1.79s.15-1.27.44-1.78.69-.91,1.19-1.19c.5-.28,1.07-.41,1.69-.41s1.19.14,1.69.41c.5.28.9.67,1.19,1.18s.44,1.11.44,1.79-.15,1.28-.45,1.79c-.3.52-.71.91-1.22,1.19-.51.28-1.08.42-1.7.42s-1.17-.14-1.67-.42Zm2.78-.82c.34-.18.62-.46.83-.83s.32-.82.32-1.34-.1-.98-.31-1.34c-.21-.37-.48-.64-.82-.82-.34-.18-.7-.27-1.09-.27s-.77.09-1.1.27c-.33.18-.6.45-.8.82-.2.37-.3.82-.3,1.34s.1.99.29,1.36c.2.37.46.64.79.82s.69.27,1.08.27.76-.09,1.1-.28Z"/>
  <path d="m674.54,152.98c.5.48.74,1.18.74,2.09v3.88h-1.08v-3.72c0-.66-.16-1.16-.49-1.51-.33-.35-.78-.52-1.34-.52s-1.03.18-1.37.54-.51.88-.51,1.57v3.64h-1.09v-6.58h1.09v.94c.22-.34.51-.6.88-.78s.78-.28,1.23-.28c.8,0,1.45.24,1.94.73Z"/>
  <path d="m681.28,152.63c.43.25.75.56.95.94v-1.2h1.1v6.72c0,.6-.13,1.13-.38,1.6-.26.47-.62.83-1.1,1.1-.48.26-1.03.4-1.66.4-.86,0-1.58-.2-2.16-.61-.58-.41-.92-.96-1.02-1.67h1.08c.12.4.37.72.74.97s.83.37,1.36.37c.6,0,1.09-.19,1.47-.56.38-.38.57-.9.57-1.58v-1.38c-.22.38-.54.7-.96.96-.42.26-.92.38-1.49.38s-1.11-.14-1.59-.43c-.48-.29-.85-.69-1.12-1.21-.27-.52-.41-1.11-.41-1.78s.14-1.26.41-1.77c.27-.51.65-.9,1.12-1.18.48-.28,1.01-.42,1.59-.42s1.07.12,1.49.37Zm.65,1.72c-.2-.37-.47-.65-.81-.85-.34-.2-.71-.29-1.12-.29s-.78.1-1.12.29c-.34.19-.6.47-.8.84-.2.37-.3.8-.3,1.3s.1.94.3,1.31c.2.37.47.66.8.85.34.2.71.29,1.12.29s.78-.1,1.12-.29c.34-.2.61-.48.81-.85s.3-.81.3-1.3-.1-.93-.3-1.3Z"/>
  <rect class="h" x="598.93" y="180.45" width="140" height="35" rx="5.25" ry="5.25" pointer-events="none"/>
  <path d="m659.97,200.95h-1.09l-4.39-6.66v6.66h-1.09v-8.38h1.09l4.39,6.65v-6.65h1.09v8.38Z"/>
  <path d="m666.04,194.63c.43.25.75.56.95.94v-1.2h1.1v6.72c0,.6-.13,1.13-.38,1.6s-.62.83-1.1,1.1c-.48.26-1.03.4-1.66.4-.86,0-1.58-.2-2.16-.61s-.92-.96-1.02-1.67h1.08c.12.4.37.72.74.97s.83.37,1.36.37c.6,0,1.09-.19,1.47-.56s.57-.9.57-1.58v-1.38c-.22.38-.54.7-.96.96-.42.26-.92.38-1.49.38s-1.11-.14-1.59-.43c-.48-.29-.85-.69-1.12-1.21-.27-.52-.41-1.11-.41-1.78s.14-1.26.41-1.77c.27-.51.65-.9,1.12-1.18.48-.28,1.01-.42,1.59-.42s1.07.12,1.49.37Zm.65,1.72c-.2-.37-.47-.65-.81-.85-.34-.2-.71-.29-1.12-.29s-.78.1-1.12.29c-.34.19-.6.47-.8.84-.2.37-.3.8-.3,1.3s.1.94.3,1.31.47.66.8.85c.34.2.71.29,1.12.29s.78-.1,1.12-.29c.34-.2.61-.48.81-.85.2-.37.3-.81.3-1.3s-.1-.93-.3-1.3Z"/>
  <path d="m669.98,193.09c-.14-.14-.22-.32-.22-.53s.07-.38.22-.53c.14-.14.32-.22.53-.22s.37.07.51.22.21.32.21.53-.07.38-.21.53c-.14.14-.31.22-.51.22s-.38-.07-.53-.22Zm1.06,1.28v6.58h-1.09v-6.58h1.09Z"/>
  <path d="m678.04,194.98c.5.48.74,1.18.74,2.09v3.88h-1.08v-3.72c0-.66-.16-1.16-.49-1.51-.33-.35-.78-.52-1.34-.52s-1.03.18-1.37.54-.51.88-.51,1.57v3.64h-1.09v-6.58h1.09v.94c.22-.34.51-.6.88-.78s.78-.28,1.23-.28c.8,0,1.45.24,1.94.73Z"/>
  <path d="m684,200.95l-1.56-2.45-1.5,2.45h-1.14l2.12-3.26-2.12-3.31h1.24l1.56,2.44,1.49-2.44h1.14l-2.11,3.25,2.12,3.32h-1.24Z"/>
  <path d="m646.08,121.01c-.23-.49-.57-.87-1.01-1.13-.44-.27-.95-.4-1.54-.4s-1.11.13-1.58.4c-.47.27-.84.65-1.1,1.15-.27.5-.4,1.08-.4,1.73s.13,1.23.4,1.73c.27.5.64.88,1.1,1.15.47.27.99.4,1.58.4.82,0,1.49-.24,2.02-.73.53-.49.84-1.15.92-1.98h-3.34v-.89h4.5v.84c-.06.69-.28,1.32-.65,1.89-.37.57-.85,1.02-1.45,1.36s-1.27.5-2,.5c-.78,0-1.48-.18-2.12-.55-.64-.36-1.15-.87-1.52-1.52-.37-.65-.56-1.38-.56-2.2s.19-1.55.56-2.2c.37-.65.88-1.16,1.52-1.52.64-.36,1.35-.55,2.12-.55.89,0,1.67.22,2.36.66.68.44,1.18,1.06,1.49,1.86h-1.31Z"/>
  <path d="m649.08,121.86c.27-.51.65-.9,1.12-1.18.48-.28,1.01-.42,1.59-.42s1.08.12,1.5.37.74.56.95.94v-1.2h1.1v6.58h-1.1v-1.22c-.22.38-.54.7-.97.95-.43.25-.93.38-1.49.38s-1.11-.14-1.58-.43c-.47-.29-.84-.69-1.12-1.21-.27-.52-.41-1.11-.41-1.78s.14-1.26.41-1.77Zm4.86.49c-.2-.37-.47-.65-.81-.85-.34-.2-.71-.29-1.12-.29s-.78.1-1.12.29c-.34.19-.6.47-.8.84-.2.37-.3.8-.3,1.3s.1.94.3,1.31.47.66.8.85c.34.2.71.29,1.12.29s.78-.1,1.12-.29c.34-.2.61-.48.81-.85.2-.37.3-.81.3-1.3s-.1-.93-.3-1.3Z"/>
  <path d="m658.52,121.27v3.88c0,.32.07.55.2.68s.37.2.71.2h.8v.92h-.98c-.61,0-1.06-.14-1.37-.42s-.46-.74-.46-1.38v-3.88h-.85v-.9h.85v-1.66h1.09v1.66h1.72v.9h-1.72Z"/>
  <path d="m667.52,124.07h-5.26c.04.65.26,1.15.67,1.52.4.36.89.55,1.47.55.47,0,.87-.11,1.18-.33.32-.22.54-.51.67-.88h1.18c-.18.63-.53,1.15-1.06,1.54-.53.4-1.18.59-1.97.59-.62,0-1.18-.14-1.67-.42-.49-.28-.88-.68-1.16-1.19-.28-.52-.42-1.11-.42-1.79s.14-1.28.41-1.79c.27-.51.65-.91,1.15-1.18.49-.28,1.06-.41,1.7-.41s1.18.14,1.66.41c.48.27.85.65,1.11,1.12.26.48.39,1.01.39,1.61,0,.21-.01.43-.04.66Zm-1.37-1.96c-.18-.3-.43-.53-.75-.68-.32-.16-.67-.23-1.05-.23-.55,0-1.02.18-1.41.53-.39.35-.61.84-.67,1.46h4.15c0-.42-.09-.77-.28-1.07Z"/>
  <path d="m677.76,120.37l-2.05,6.58h-1.13l-1.58-5.22-1.58,5.22h-1.13l-2.06-6.58h1.12l1.51,5.52,1.63-5.52h1.12l1.6,5.53,1.49-5.53h1.08Z"/>
  <path d="m678.84,121.86c.27-.51.65-.9,1.12-1.18.48-.28,1.01-.42,1.59-.42s1.08.12,1.5.37.74.56.95.94v-1.2h1.1v6.58h-1.1v-1.22c-.22.38-.54.7-.97.95-.43.25-.93.38-1.49.38s-1.11-.14-1.58-.43c-.47-.29-.84-.69-1.12-1.21-.27-.52-.41-1.11-.41-1.78s.14-1.26.41-1.77Zm4.86.49c-.2-.37-.47-.65-.81-.85-.34-.2-.71-.29-1.12-.29s-.78.1-1.12.29c-.34.19-.6.47-.8.84-.2.37-.3.8-.3,1.3s.1.94.3,1.31.47.66.8.85c.34.2.71.29,1.12.29s.78-.1,1.12-.29c.34-.2.61-.48.81-.85.2-.37.3-.81.3-1.3s-.1-.93-.3-1.3Z"/>
  <path d="m692.61,120.37l-3.96,9.67h-1.13l1.3-3.17-2.65-6.5h1.21l2.06,5.33,2.04-5.33h1.13Z"/>
  <path d="m694.68,126.8c-.4-.17-.72-.41-.95-.72-.23-.31-.36-.66-.38-1.06h1.13c.03.33.19.6.46.8s.64.31,1.09.31c.42,0,.74-.09.98-.28.24-.18.36-.42.36-.7s-.13-.5-.38-.64c-.26-.14-.65-.28-1.19-.41-.49-.13-.89-.26-1.19-.39-.31-.13-.57-.33-.79-.59-.22-.26-.33-.6-.33-1.03,0-.34.1-.64.3-.92.2-.28.48-.5.85-.67.37-.16.79-.25,1.26-.25.73,0,1.32.18,1.76.55s.69.87.72,1.51h-1.09c-.02-.34-.16-.62-.41-.83s-.59-.31-1.01-.31c-.39,0-.7.08-.94.25-.23.17-.35.39-.35.66,0,.22.07.39.21.53.14.14.32.25.53.34s.51.18.88.28c.47.13.86.25,1.15.38s.55.31.76.56.32.57.33.97c0,.36-.1.68-.3.97-.2.29-.48.51-.85.68-.36.16-.78.25-1.25.25-.5,0-.96-.09-1.36-.26Z"/>
  <path d="m624.53,50.74c-.44-.2-.78-.47-1.03-.82-.25-.35-.38-.75-.38-1.21h1.16c.04.39.2.72.49.99.28.27.7.4,1.24.4s.93-.13,1.23-.39c.3-.26.45-.59.45-1,0-.32-.09-.58-.26-.78-.18-.2-.4-.35-.66-.46-.26-.1-.62-.22-1.07-.34-.55-.14-.99-.29-1.33-.43-.33-.14-.62-.37-.85-.68-.24-.31-.35-.72-.35-1.24,0-.46.12-.86.35-1.21.23-.35.56-.62.98-.82.42-.19.9-.29,1.45-.29.78,0,1.43.2,1.93.59s.78.91.85,1.56h-1.2c-.04-.32-.21-.6-.5-.85s-.69-.37-1.18-.37c-.46,0-.83.12-1.12.35-.29.24-.43.57-.43.99,0,.3.09.55.26.74.17.19.38.34.64.44.25.1.61.21,1.06.34.55.15,1,.3,1.33.45.34.15.62.38.86.68.24.31.36.73.36,1.25,0,.41-.11.79-.32,1.15-.22.36-.54.65-.96.88-.42.22-.92.34-1.5.34s-1.05-.1-1.48-.29Z"/>
  <path d="m636.37,48.07h-5.26c.04.65.26,1.15.67,1.52.4.36.89.55,1.47.55.47,0,.87-.11,1.18-.33.32-.22.54-.51.67-.88h1.18c-.18.63-.53,1.15-1.06,1.54-.53.4-1.18.59-1.97.59-.62,0-1.18-.14-1.67-.42-.49-.28-.88-.68-1.16-1.19-.28-.52-.42-1.11-.42-1.79s.14-1.28.41-1.79c.27-.51.65-.91,1.15-1.18.49-.28,1.06-.41,1.7-.41s1.18.14,1.66.41c.48.27.85.65,1.11,1.12.26.48.39,1.01.39,1.61,0,.21-.01.43-.04.66Zm-1.37-1.96c-.18-.3-.43-.53-.75-.68-.32-.16-.67-.23-1.05-.23-.55,0-1.02.18-1.41.53-.39.35-.61.84-.67,1.46h4.15c0-.42-.09-.77-.28-1.07Z"/>
  <path d="m639.76,44.56c.36-.21.79-.31,1.3-.31v1.13h-.29c-1.22,0-1.84.66-1.84,1.99v3.58h-1.09v-6.58h1.09v1.07c.19-.38.47-.67.82-.88Z"/>
  <path d="m644.77,49.94l2.04-5.57h1.16l-2.58,6.58h-1.27l-2.58-6.58h1.18l2.05,5.57Z"/>
  <path d="m649.09,43.09c-.14-.14-.22-.32-.22-.53s.07-.38.22-.53c.14-.14.32-.22.53-.22s.37.07.51.22c.14.14.21.32.21.53s-.07.38-.21.53c-.14.14-.31.22-.51.22s-.38-.07-.53-.22Zm1.06,1.28v6.58h-1.09v-6.58h1.09Z"/>
  <path d="m652,45.86c.27-.51.65-.9,1.13-1.18s1.04-.42,1.66-.42c.81,0,1.47.2,2,.59.52.39.87.94,1.04,1.63h-1.18c-.11-.4-.33-.72-.65-.95-.32-.23-.73-.35-1.21-.35-.62,0-1.13.21-1.51.64-.38.43-.58,1.03-.58,1.82s.19,1.4.58,1.84c.38.43.89.65,1.51.65.48,0,.88-.11,1.2-.34.32-.22.54-.54.66-.96h1.18c-.18.67-.53,1.21-1.06,1.61-.53.4-1.19.61-1.98.61-.62,0-1.18-.14-1.66-.42-.48-.28-.86-.68-1.13-1.19-.27-.51-.41-1.11-.41-1.8s.14-1.27.41-1.78Z"/>
  <path d="m665.25,48.07h-5.26c.04.65.26,1.15.67,1.52.4.36.89.55,1.47.55.47,0,.87-.11,1.18-.33.32-.22.54-.51.67-.88h1.18c-.18.63-.53,1.15-1.06,1.54-.53.4-1.18.59-1.97.59-.62,0-1.18-.14-1.67-.42-.49-.28-.88-.68-1.16-1.19-.28-.52-.42-1.11-.42-1.79s.14-1.28.41-1.79c.27-.51.65-.91,1.15-1.18.49-.28,1.06-.41,1.7-.41s1.18.14,1.66.41c.48.27.85.65,1.11,1.12.26.48.39,1.01.39,1.61,0,.21-.01.43-.04.66Zm-1.37-1.96c-.18-.3-.43-.53-.75-.68-.32-.16-.67-.23-1.05-.23-.55,0-1.02.18-1.41.53-.39.35-.61.84-.67,1.46h4.15c0-.42-.09-.77-.28-1.07Z"/>
  <path d="m678.42,42.64v8.3h-1.09v-6.19l-2.76,6.19h-.77l-2.77-6.2v6.2h-1.09v-8.3h1.18l3.07,6.86,3.07-6.86h1.16Z"/>
  <path d="m686.23,48.07h-5.26c.04.65.26,1.15.67,1.52.4.36.89.55,1.47.55.47,0,.87-.11,1.18-.33.32-.22.54-.51.67-.88h1.18c-.18.63-.53,1.15-1.06,1.54-.53.4-1.18.59-1.97.59-.62,0-1.18-.14-1.67-.42-.49-.28-.88-.68-1.16-1.19-.28-.52-.42-1.11-.42-1.79s.14-1.28.41-1.79c.27-.51.65-.91,1.15-1.18.49-.28,1.06-.41,1.7-.41s1.18.14,1.66.41c.48.27.85.65,1.11,1.12.26.48.39,1.01.39,1.61,0,.21-.01.43-.04.66Zm-1.37-1.96c-.18-.3-.43-.53-.75-.68-.32-.16-.67-.23-1.05-.23-.55,0-1.02.18-1.41.53-.39.35-.61.84-.67,1.46h4.15c0-.42-.09-.77-.28-1.07Z"/>
  <path d="m688.68,50.8c-.4-.17-.72-.41-.95-.72-.23-.31-.36-.66-.38-1.06h1.13c.03.33.19.6.46.8s.64.31,1.09.31c.42,0,.74-.09.98-.28.24-.18.36-.42.36-.7s-.13-.5-.38-.64c-.26-.14-.65-.28-1.19-.41-.49-.13-.89-.26-1.19-.39-.31-.13-.57-.33-.79-.59-.22-.26-.33-.6-.33-1.03,0-.34.1-.64.3-.92.2-.28.48-.5.85-.67.37-.16.79-.25,1.26-.25.73,0,1.32.18,1.76.55s.69.87.72,1.51h-1.09c-.02-.34-.16-.62-.41-.83s-.59-.31-1.01-.31c-.39,0-.7.08-.94.25-.23.17-.35.39-.35.66,0,.22.07.39.21.53.14.14.32.25.53.34s.51.18.88.28c.47.13.86.25,1.15.38s.55.31.76.56.32.57.33.97c0,.36-.1.68-.3.97-.2.29-.48.51-.85.68-.36.16-.78.25-1.25.25-.5,0-.96-.09-1.36-.26Z"/>
  <path d="m698.58,44.57c.4.21.71.53.94.95.23.42.34.94.34,1.55v3.88h-1.08v-3.72c0-.66-.16-1.16-.49-1.51-.33-.35-.78-.52-1.34-.52s-1.03.18-1.37.54-.51.88-.51,1.57v3.64h-1.09v-8.88h1.09v3.24c.22-.34.51-.6.89-.78s.81-.28,1.28-.28c.5,0,.94.11,1.34.32Z"/>
  <path d="m707.61,48.07h-5.26c.04.65.26,1.15.67,1.52.4.36.89.55,1.47.55.47,0,.87-.11,1.18-.33.32-.22.54-.51.67-.88h1.18c-.18.63-.53,1.15-1.06,1.54-.53.4-1.18.59-1.97.59-.62,0-1.18-.14-1.67-.42-.49-.28-.88-.68-1.16-1.19-.28-.52-.42-1.11-.42-1.79s.14-1.28.41-1.79c.27-.51.65-.91,1.15-1.18.49-.28,1.06-.41,1.7-.41s1.18.14,1.66.41c.48.27.85.65,1.11,1.12.26.48.39,1.01.39,1.61,0,.21-.01.43-.04.66Zm-1.37-1.96c-.18-.3-.43-.53-.75-.68-.32-.16-.67-.23-1.05-.23-.55,0-1.02.18-1.41.53-.39.35-.61.84-.67,1.46h4.15c0-.42-.09-.77-.28-1.07Z"/>
  <path d="m710.06,50.8c-.4-.17-.72-.41-.95-.72-.23-.31-.36-.66-.38-1.06h1.13c.03.33.19.6.46.8s.64.31,1.09.31c.42,0,.74-.09.98-.28.24-.18.36-.42.36-.7s-.13-.5-.38-.64c-.26-.14-.65-.28-1.19-.41-.49-.13-.89-.26-1.19-.39-.31-.13-.57-.33-.79-.59-.22-.26-.33-.6-.33-1.03,0-.34.1-.64.3-.92.2-.28.48-.5.85-.67.37-.16.79-.25,1.26-.25.73,0,1.32.18,1.76.55s.69.87.72,1.51h-1.09c-.02-.34-.16-.62-.41-.83s-.59-.31-1.01-.31c-.39,0-.7.08-.94.25-.23.17-.35.39-.35.66,0,.22.07.39.21.53.14.14.32.25.53.34s.51.18.88.28c.47.13.86.25,1.15.38s.55.31.76.56.32.57.33.97c0,.36-.1.68-.3.97-.2.29-.48.51-.85.68-.36.16-.78.25-1.25.25-.5,0-.96-.09-1.36-.26Z"/>
  <rect class="h" x="598.93" y="63.45" width="140" height="35" rx="5.25" ry="5.25" pointer-events="none"/>
  <path class="f" d="m658.84,75.58v8.36h-1.09v-8.36h1.09Z"/>
  <path class="f" d="m661.67,83.8c-.4-.17-.72-.41-.95-.72-.23-.31-.36-.66-.38-1.06h1.13c.03.33.19.6.46.8s.64.31,1.09.31c.42,0,.74-.09.98-.28.24-.18.36-.42.36-.7s-.13-.5-.38-.64c-.26-.14-.65-.28-1.19-.41-.49-.13-.89-.26-1.19-.39-.31-.13-.57-.33-.79-.59-.22-.26-.33-.6-.33-1.03,0-.34.1-.64.3-.92.2-.28.48-.5.85-.67.37-.16.79-.25,1.26-.25.73,0,1.32.18,1.76.55s.69.87.72,1.51h-1.09c-.02-.34-.16-.62-.41-.83s-.59-.31-1.01-.31c-.39,0-.7.08-.94.25-.23.17-.35.39-.35.66,0,.22.07.39.21.53.14.14.32.25.53.34s.51.18.88.28c.47.13.86.25,1.15.38s.55.31.76.56.32.57.33.97c0,.36-.1.68-.3.97-.2.29-.48.51-.85.68-.36.16-.78.25-1.25.25-.5,0-.96-.09-1.36-.26Z"/>
  <path class="f" d="m668.3,78.27v3.88c0,.32.07.55.2.68.14.13.37.2.71.2h.8v.92h-.98c-.61,0-1.06-.14-1.37-.42-.3-.28-.46-.74-.46-1.38v-3.88h-.85v-.9h.85v-1.66h1.09v1.66h1.72v.9h-1.72Z"/>
  <path class="f" d="m671.37,76.09c-.14-.14-.22-.32-.22-.53s.07-.38.22-.53c.14-.14.32-.22.53-.22s.37.07.51.22.21.32.21.53-.07.38-.21.53c-.14.14-.31.22-.51.22s-.38-.07-.53-.22Zm1.06,1.28v6.58h-1.09v-6.58h1.09Z"/>
  <path class="f" d="m675.48,83.63c-.5-.28-.89-.68-1.18-1.19-.28-.52-.43-1.11-.43-1.79s.15-1.27.44-1.78.69-.91,1.19-1.19c.5-.28,1.07-.41,1.69-.41s1.19.14,1.69.41c.5.28.9.67,1.19,1.18s.44,1.11.44,1.79-.15,1.28-.45,1.79c-.3.52-.71.91-1.22,1.19-.51.28-1.08.42-1.7.42s-1.17-.14-1.67-.42Zm2.78-.82c.34-.18.62-.46.83-.83s.32-.82.32-1.34-.1-.98-.31-1.34c-.21-.37-.48-.64-.82-.82-.34-.18-.7-.27-1.09-.27s-.77.09-1.1.27c-.33.18-.6.45-.8.82-.2.37-.3.82-.3,1.34s.1.99.29,1.36c.2.37.46.64.79.82s.69.27,1.08.27.76-.09,1.1-.28Z"/>
  <path d="m96.3,304.58v.89h-3.64v2.82h2.95v.89h-2.95v3.77h-1.09v-8.36h4.73Z"/>
  <path d="m98.71,304.07v8.88h-1.09v-8.88h1.09Z"/>
  <path d="m106.4,306.37v6.58h-1.09v-.97c-.21.34-.5.6-.87.79-.37.19-.78.28-1.23.28-.51,0-.97-.11-1.38-.32-.41-.21-.73-.53-.97-.95-.24-.42-.35-.94-.35-1.55v-3.85h1.08v3.71c0,.65.16,1.15.49,1.49s.78.52,1.34.52,1.04-.18,1.38-.54c.34-.36.5-.88.5-1.57v-3.61h1.09Z"/>
  <path d="m111.68,312.95l-1.56-2.45-1.5,2.45h-1.14l2.12-3.26-2.12-3.31h1.24l1.56,2.44,1.49-2.44h1.14l-2.11,3.25,2.12,3.32h-1.24Z"/>
  <path d="m120.57,312.95h-1.09l-4.39-6.66v6.66h-1.09v-8.38h1.09l4.39,6.65v-6.65h1.09v8.38Z"/>
  <path d="m122.47,305.09c-.14-.14-.22-.32-.22-.53s.07-.38.22-.53.32-.22.53-.22.37.07.51.22c.14.14.21.32.21.53s-.07.38-.21.53c-.14.14-.31.22-.51.22s-.38-.07-.53-.22Zm1.06,1.28v6.58h-1.09v-6.58h1.09Z"/>
  <path d="m130.53,306.98c.5.48.74,1.18.74,2.09v3.88h-1.08v-3.72c0-.66-.16-1.16-.49-1.51-.33-.35-.78-.52-1.34-.52s-1.03.18-1.37.54-.51.88-.51,1.57v3.64h-1.09v-6.58h1.09v.94c.22-.34.51-.6.88-.78s.78-.28,1.23-.28c.8,0,1.45.24,1.94.73Z"/>
  <path d="m134.19,314.37c0,.58-.15,1.01-.44,1.28-.3.27-.73.41-1.3.41h-.64v-.92h.46c.3,0,.52-.06.64-.18.12-.12.19-.32.19-.61v-7.98h1.09v8Zm-1.06-9.29c-.14-.14-.21-.32-.21-.53s.07-.38.21-.53c.14-.14.31-.22.52-.22s.38.07.52.22c.14.14.21.32.21.53s-.07.38-.21.53c-.14.14-.31.22-.52.22s-.38-.07-.52-.22Z"/>
  <path d="m136.04,307.86c.27-.51.65-.9,1.12-1.18s1.01-.42,1.59-.42,1.08.12,1.5.37c.42.25.74.56.95.94v-1.2h1.1v6.58h-1.1v-1.22c-.22.38-.54.7-.97.95-.43.25-.93.38-1.49.38s-1.11-.14-1.58-.43c-.47-.29-.84-.69-1.12-1.21-.27-.52-.41-1.11-.41-1.78s.14-1.26.41-1.77Zm4.86.49c-.2-.37-.47-.65-.81-.85-.34-.2-.71-.29-1.12-.29s-.78.1-1.12.29c-.34.19-.6.47-.8.84-.2.37-.3.8-.3,1.3s.1.94.3,1.31c.2.37.47.66.8.85.34.2.71.29,1.12.29s.78-.1,1.12-.29c.34-.2.61-.48.81-.85.2-.37.3-.81.3-1.3s-.1-.93-.3-1.3Z"/>
  <path d="m71.54,320.96c.37-.65.87-1.16,1.51-1.53.64-.37,1.34-.55,2.12-.55.91,0,1.71.22,2.39.66.68.44,1.18,1.06,1.49,1.87h-1.31c-.23-.5-.57-.89-1-1.16-.44-.27-.96-.41-1.57-.41s-1.11.14-1.57.41c-.46.27-.83.66-1.09,1.16-.26.5-.4,1.09-.4,1.76s.13,1.25.4,1.75c.26.5.63.89,1.09,1.16.46.27.99.41,1.57.41s1.13-.13,1.57-.4c.44-.27.77-.65,1-1.16h1.31c-.31.8-.81,1.42-1.49,1.85-.68.44-1.48.65-2.39.65-.78,0-1.48-.18-2.12-.55-.64-.36-1.14-.87-1.51-1.52-.37-.65-.55-1.38-.55-2.2s.18-1.55.55-2.2Z"/>
  <path d="m81.75,318.47v8.88h-1.09v-8.88h1.09Z"/>
  <path d="m84.8,327.04c-.5-.28-.89-.68-1.18-1.19-.28-.52-.43-1.11-.43-1.79s.15-1.27.44-1.78.69-.91,1.19-1.19c.5-.28,1.07-.41,1.69-.41s1.19.14,1.69.41c.5.28.9.67,1.19,1.18s.44,1.11.44,1.79-.15,1.28-.45,1.79c-.3.52-.71.91-1.22,1.19-.51.28-1.08.42-1.7.42s-1.17-.14-1.67-.42Zm2.78-.82c.34-.18.62-.46.83-.83s.32-.82.32-1.34-.1-.98-.31-1.34c-.21-.37-.48-.64-.82-.82-.34-.18-.7-.27-1.09-.27s-.77.09-1.1.27c-.33.18-.6.45-.8.82-.2.37-.3.82-.3,1.34s.1.99.29,1.36c.2.37.46.64.79.82s.69.27,1.08.27.76-.09,1.1-.28Z"/>
  <path d="m97.12,320.77v6.58h-1.09v-.97c-.21.34-.5.6-.87.79-.37.19-.78.28-1.23.28-.51,0-.97-.11-1.38-.32-.41-.21-.73-.53-.97-.95-.24-.42-.35-.94-.35-1.55v-3.85h1.08v3.71c0,.65.16,1.15.49,1.49s.78.52,1.34.52,1.04-.18,1.38-.54c.34-.36.5-.88.5-1.57v-3.61h1.09Z"/>
  <path d="m98.97,322.26c.27-.51.65-.9,1.12-1.18s1.01-.42,1.6-.42c.51,0,.99.12,1.43.35.44.24.78.55,1.01.93v-3.48h1.1v8.88h-1.1v-1.24c-.22.39-.54.71-.96.97-.42.25-.92.38-1.49.38s-1.11-.14-1.59-.43-.85-.69-1.12-1.21c-.27-.52-.41-1.11-.41-1.78s.14-1.26.41-1.77Zm4.86.49c-.2-.37-.47-.65-.81-.85-.34-.2-.71-.29-1.12-.29s-.78.1-1.12.29c-.34.19-.6.47-.8.84-.2.37-.3.8-.3,1.3s.1.94.3,1.31c.2.37.47.66.8.85.34.2.71.29,1.12.29s.78-.1,1.12-.29c.34-.2.61-.48.81-.85.2-.37.3-.81.3-1.3s-.1-.93-.3-1.3Z"/>
  <path d="m115.16,323.17c-.48.46-1.2.69-2.18.69h-1.61v3.49h-1.09v-8.36h2.7c.94,0,1.66.23,2.15.68.49.46.74,1.04.74,1.76s-.24,1.27-.71,1.73Zm-.83-.61c.29-.26.43-.64.43-1.13,0-1.03-.59-1.55-1.78-1.55h-1.61v3.07h1.61c.61,0,1.06-.13,1.34-.4Z"/>
  <path d="m118.32,318.47v8.88h-1.09v-8.88h1.09Z"/>
  <path d="m120.18,322.26c.27-.51.65-.9,1.12-1.18s1.01-.42,1.59-.42,1.08.12,1.5.37c.42.25.74.56.95.94v-1.2h1.1v6.58h-1.1v-1.22c-.22.38-.54.7-.97.95-.43.25-.93.38-1.49.38s-1.11-.14-1.58-.43c-.47-.29-.84-.69-1.12-1.21-.27-.52-.41-1.11-.41-1.78s.14-1.26.41-1.77Zm4.86.49c-.2-.37-.47-.65-.81-.85-.34-.2-.71-.29-1.12-.29s-.78.1-1.12.29c-.34.19-.6.47-.8.84-.2.37-.3.8-.3,1.3s.1.94.3,1.31c.2.37.47.66.8.85.34.2.71.29,1.12.29s.78-.1,1.12-.29c.34-.2.61-.48.81-.85.2-.37.3-.81.3-1.3s-.1-.93-.3-1.3Z"/>
  <path d="m129.63,321.67v3.88c0,.32.07.55.2.68.14.13.37.2.71.2h.8v.92h-.98c-.61,0-1.06-.14-1.37-.42-.3-.28-.46-.74-.46-1.38v-3.88h-.85v-.9h.85v-1.66h1.09v1.66h1.72v.9h-1.72Z"/>
  <path d="m135.34,321.67h-1.38v5.68h-1.09v-5.68h-.85v-.9h.85v-.47c0-.74.19-1.27.57-1.61.38-.34.99-.51,1.83-.51v.91c-.48,0-.82.09-1.01.28-.2.19-.29.5-.29.93v.47h1.38v.9Z"/>
  <path d="m137.81,327.04c-.5-.28-.89-.68-1.18-1.19-.28-.52-.43-1.11-.43-1.79s.15-1.27.44-1.78.69-.91,1.19-1.19c.5-.28,1.07-.41,1.69-.41s1.19.14,1.69.41c.5.28.9.67,1.19,1.18s.44,1.11.44,1.79-.15,1.28-.45,1.79c-.3.52-.71.91-1.22,1.19-.51.28-1.08.42-1.7.42s-1.17-.14-1.67-.42Zm2.78-.82c.34-.18.62-.46.83-.83s.32-.82.32-1.34-.1-.98-.31-1.34c-.21-.37-.48-.64-.82-.82-.34-.18-.7-.27-1.09-.27s-.77.09-1.1.27c-.33.18-.6.45-.8.82-.2.37-.3.82-.3,1.34s.1.99.29,1.36c.2.37.46.64.79.82s.69.27,1.08.27.76-.09,1.1-.28Z"/>
  <path d="m146.21,320.96c.36-.21.79-.31,1.3-.31v1.13h-.29c-1.22,0-1.84.66-1.84,1.99v3.58h-1.09v-6.58h1.09v1.07c.19-.38.47-.67.82-.88Z"/>
  <path d="m158.04,320.97c.4.21.72.53.95.95s.35.94.35,1.55v3.88h-1.08v-3.72c0-.66-.16-1.16-.49-1.51-.32-.35-.76-.52-1.31-.52s-1.02.18-1.36.55c-.34.36-.5.89-.5,1.58v3.62h-1.08v-3.72c0-.66-.16-1.16-.49-1.51-.32-.35-.76-.52-1.31-.52s-1.02.18-1.36.55-.5.89-.5,1.58v3.62h-1.09v-6.58h1.09v.95c.22-.34.51-.61.87-.79.36-.18.77-.28,1.21-.28.55,0,1.04.12,1.46.37.42.25.74.61.95,1.09.18-.46.49-.82.91-1.08.42-.26.9-.38,1.42-.38s.97.11,1.37.32Z"/>
  <path class="e" d="m193.07,233.95h63.56c6.67,0,10,3.33,10,10v241.5c0,6.67,3.33,10,10,10h63.43" pointer-events="none"/>
  <path class="d" d="m187.82,233.95l7-2.33-1.75,2.33,1.75,2.33-7-2.33Z" pointer-events="none"/>
  <path class="d" d="m345.31,495.45l-7,2.33,1.75-2.33-1.75-2.33,7,2.33Z" pointer-events="none"/>
  <path class="e" d="m193.07,233.95h63.56c6.67,0,10,3.33,10,10v357.5c0,6.67,3.33,10,10,10h63.43" pointer-events="none"/>
  <path class="d" d="m187.82,233.95l7-2.33-1.75,2.33,1.75,2.33-7-2.33Z" pointer-events="none"/>
  <path class="d" d="m345.31,611.45l-7,2.33,1.75-2.33-1.75-2.33,7,2.33Z" pointer-events="none"/>
  <rect class="c" x="606.43" y="276.45" width="125" height="35" rx="5.25" ry="5.25" pointer-events="none"/>
  <path d="m635.8,295.09h-3.65l-.67,1.86h-1.15l3.02-8.32h1.26l3.01,8.32h-1.15l-.67-1.86Zm-.31-.89l-1.51-4.22-1.51,4.22h3.02Z"/>
  <path d="m641,290.64c.43-.25.93-.38,1.49-.38s1.11.14,1.59.42c.48.28.85.67,1.12,1.18.27.51.41,1.1.41,1.77s-.14,1.26-.41,1.78c-.27.52-.65.92-1.12,1.21-.48.29-1.01.43-1.59.43s-1.05-.13-1.48-.38c-.43-.25-.75-.57-.98-.94v4.33h-1.09v-9.7h1.09v1.21c.22-.38.54-.69.97-.94Zm3.2,1.7c-.2-.37-.47-.65-.81-.84-.34-.19-.71-.29-1.12-.29s-.77.1-1.11.29c-.34.2-.61.48-.82.85-.2.37-.31.8-.31,1.29s.1.93.31,1.3c.2.37.48.66.82.85.34.2.71.29,1.11.29s.78-.1,1.12-.29c.34-.2.61-.48.81-.85s.3-.81.3-1.31-.1-.93-.3-1.3Z"/>
  <path d="m653.02,294.07h-5.26c.04.65.26,1.15.67,1.52.4.36.89.55,1.47.55.47,0,.87-.11,1.18-.33.32-.22.54-.51.67-.88h1.18c-.18.63-.53,1.15-1.06,1.54-.53.4-1.18.59-1.97.59-.62,0-1.18-.14-1.67-.42-.49-.28-.88-.68-1.16-1.19-.28-.52-.42-1.11-.42-1.79s.14-1.28.41-1.79c.27-.51.65-.91,1.15-1.18.49-.28,1.06-.41,1.7-.41s1.18.14,1.66.41c.48.27.85.65,1.11,1.12.26.48.39,1.01.39,1.61,0,.21-.01.43-.04.66Zm-1.37-1.96c-.18-.3-.43-.53-.75-.68-.32-.16-.67-.23-1.05-.23-.55,0-1.02.18-1.41.53-.39.35-.61.84-.67,1.46h4.15c0-.42-.09-.77-.28-1.07Z"/>
  <path d="m656.41,290.56c.36-.21.79-.31,1.3-.31v1.13h-.29c-1.22,0-1.84.66-1.84,1.99v3.58h-1.09v-6.58h1.09v1.07c.19-.38.47-.67.82-.88Z"/>
  <path d="m660.3,291.27v3.88c0,.32.07.55.2.68s.37.2.71.2h.8v.92h-.98c-.61,0-1.06-.14-1.37-.42s-.46-.74-.46-1.38v-3.88h-.85v-.9h.85v-1.66h1.09v1.66h1.72v.9h-1.72Z"/>
  <path d="m669.17,290.37v6.58h-1.09v-.97c-.21.34-.5.6-.87.79-.37.19-.78.28-1.23.28-.51,0-.97-.11-1.38-.32s-.73-.53-.97-.95-.35-.94-.35-1.55v-3.85h1.08v3.71c0,.65.16,1.15.49,1.49s.78.52,1.34.52,1.04-.18,1.38-.54c.34-.36.5-.88.5-1.57v-3.61h1.09Z"/>
  <path d="m672.93,290.56c.36-.21.79-.31,1.3-.31v1.13h-.29c-1.22,0-1.84.66-1.84,1.99v3.58h-1.09v-6.58h1.09v1.07c.19-.38.47-.67.82-.88Z"/>
  <path d="m681.46,294.07h-5.26c.04.65.26,1.15.67,1.52.4.36.89.55,1.47.55.47,0,.87-.11,1.18-.33.32-.22.54-.51.67-.88h1.18c-.18.63-.53,1.15-1.06,1.54-.53.4-1.18.59-1.97.59-.62,0-1.18-.14-1.67-.42-.49-.28-.88-.68-1.16-1.19-.28-.52-.42-1.11-.42-1.79s.14-1.28.41-1.79c.27-.51.65-.91,1.15-1.18.49-.28,1.06-.41,1.7-.41s1.18.14,1.66.41c.48.27.85.65,1.11,1.12.26.48.39,1.01.39,1.61,0,.21-.01.43-.04.66Zm-1.37-1.96c-.18-.3-.43-.53-.75-.68-.32-.16-.67-.23-1.05-.23-.55,0-1.02.18-1.41.53-.39.35-.61.84-.67,1.46h4.15c0-.42-.09-.77-.28-1.07Z"/>
  <path d="m687.31,296.74c-.44-.2-.78-.47-1.03-.82-.25-.35-.38-.75-.38-1.21h1.16c.04.39.2.72.49.99.28.27.7.4,1.24.4s.93-.13,1.23-.39c.3-.26.45-.59.45-1,0-.32-.09-.58-.26-.78-.18-.2-.4-.35-.66-.46-.26-.1-.62-.22-1.07-.34-.55-.14-.99-.29-1.33-.43-.33-.14-.62-.37-.85-.68-.24-.31-.35-.72-.35-1.24,0-.46.12-.86.35-1.21.23-.35.56-.62.98-.82.42-.19.9-.29,1.45-.29.78,0,1.43.2,1.93.59s.78.91.85,1.56h-1.2c-.04-.32-.21-.6-.5-.85s-.69-.37-1.18-.37c-.46,0-.83.12-1.12.35-.29.24-.43.57-.43.99,0,.3.09.55.26.74.17.19.38.34.64.44.25.1.61.21,1.06.34.55.15,1,.3,1.33.45.34.15.62.38.86.68.24.31.36.73.36,1.25,0,.41-.11.79-.32,1.15-.22.36-.54.65-.96.88-.42.22-.92.34-1.5.34s-1.05-.1-1.48-.29Z"/>
  <path d="m698.16,289.09c.67.34,1.18.83,1.54,1.46.36.63.53,1.38.53,2.23s-.18,1.6-.53,2.23c-.36.63-.87,1.11-1.54,1.44s-1.46.5-2.37.5h-2.6v-8.36h2.6c.91,0,1.7.17,2.37.51Zm.1,6.1c.57-.57.85-1.37.85-2.41s-.29-1.85-.86-2.44c-.57-.58-1.39-.88-2.47-.88h-1.51v6.58h1.51c1.08,0,1.9-.29,2.47-.86Z"/>
  <path d="m706.2,296.95l-3.44-3.82v3.82h-1.09v-8.36h1.09v3.88l3.46-3.88h1.38l-3.79,4.19,3.83,4.18h-1.43Z"/>
  <rect class="c" x="606.43" y="365.45" width="125" height="35" rx="5.25" ry="5.25" pointer-events="none"/>
  <path d="m635.8,384.09h-3.65l-.67,1.86h-1.15l3.02-8.32h1.26l3.01,8.32h-1.15l-.67-1.86Zm-.31-.89l-1.51-4.22-1.51,4.22h3.02Z"/>
  <path d="m641,379.64c.43-.25.93-.38,1.49-.38s1.11.14,1.59.42c.48.28.85.67,1.12,1.18.27.51.41,1.1.41,1.77s-.14,1.26-.41,1.78c-.27.52-.65.92-1.12,1.21-.48.29-1.01.43-1.59.43s-1.05-.13-1.48-.38c-.43-.25-.75-.57-.98-.94v4.33h-1.09v-9.7h1.09v1.21c.22-.38.54-.69.97-.94Zm3.2,1.7c-.2-.37-.47-.65-.81-.84-.34-.19-.71-.29-1.12-.29s-.77.1-1.11.29c-.34.2-.61.48-.82.85-.2.37-.31.8-.31,1.29s.1.93.31,1.3c.2.37.48.66.82.85.34.2.71.29,1.11.29s.78-.1,1.12-.29c.34-.2.61-.48.81-.85s.3-.81.3-1.31-.1-.93-.3-1.3Z"/>
  <path d="m653.02,383.07h-5.26c.04.65.26,1.15.67,1.52.4.36.89.55,1.47.55.47,0,.87-.11,1.18-.33.32-.22.54-.51.67-.88h1.18c-.18.63-.53,1.15-1.06,1.54-.53.4-1.18.59-1.97.59-.62,0-1.18-.14-1.67-.42-.49-.28-.88-.68-1.16-1.19-.28-.52-.42-1.11-.42-1.79s.14-1.28.41-1.79c.27-.51.65-.91,1.15-1.18.49-.28,1.06-.41,1.7-.41s1.18.14,1.66.41c.48.27.85.65,1.11,1.12.26.48.39,1.01.39,1.61,0,.21-.01.43-.04.66Zm-1.37-1.96c-.18-.3-.43-.53-.75-.68-.32-.16-.67-.23-1.05-.23-.55,0-1.02.18-1.41.53-.39.35-.61.84-.67,1.46h4.15c0-.42-.09-.77-.28-1.07Z"/>
  <path d="m656.41,379.56c.36-.21.79-.31,1.3-.31v1.13h-.29c-1.22,0-1.84.66-1.84,1.99v3.58h-1.09v-6.58h1.09v1.07c.19-.38.47-.67.82-.88Z"/>
  <path d="m660.3,380.27v3.88c0,.32.07.55.2.68s.37.2.71.2h.8v.92h-.98c-.61,0-1.06-.14-1.37-.42s-.46-.74-.46-1.38v-3.88h-.85v-.9h.85v-1.66h1.09v1.66h1.72v.9h-1.72Z"/>
  <path d="m669.17,379.37v6.58h-1.09v-.97c-.21.34-.5.6-.87.79-.37.19-.78.28-1.23.28-.51,0-.97-.11-1.38-.32s-.73-.53-.97-.95-.35-.94-.35-1.55v-3.85h1.08v3.71c0,.65.16,1.15.49,1.49s.78.52,1.34.52,1.04-.18,1.38-.54c.34-.36.5-.88.5-1.57v-3.61h1.09Z"/>
  <path d="m672.93,379.56c.36-.21.79-.31,1.3-.31v1.13h-.29c-1.22,0-1.84.66-1.84,1.99v3.58h-1.09v-6.58h1.09v1.07c.19-.38.47-.67.82-.88Z"/>
  <path d="m681.46,383.07h-5.26c.04.65.26,1.15.67,1.52.4.36.89.55,1.47.55.47,0,.87-.11,1.18-.33.32-.22.54-.51.67-.88h1.18c-.18.63-.53,1.15-1.06,1.54-.53.4-1.18.59-1.97.59-.62,0-1.18-.14-1.67-.42-.49-.28-.88-.68-1.16-1.19-.28-.52-.42-1.11-.42-1.79s.14-1.28.41-1.79c.27-.51.65-.91,1.15-1.18.49-.28,1.06-.41,1.7-.41s1.18.14,1.66.41c.48.27.85.65,1.11,1.12.26.48.39,1.01.39,1.61,0,.21-.01.43-.04.66Zm-1.37-1.96c-.18-.3-.43-.53-.75-.68-.32-.16-.67-.23-1.05-.23-.55,0-1.02.18-1.41.53-.39.35-.61.84-.67,1.46h4.15c0-.42-.09-.77-.28-1.07Z"/>
  <path d="m687.31,385.74c-.44-.2-.78-.47-1.03-.82-.25-.35-.38-.75-.38-1.21h1.16c.04.39.2.72.49.99.28.27.7.4,1.24.4s.93-.13,1.23-.39c.3-.26.45-.59.45-1,0-.32-.09-.58-.26-.78-.18-.2-.4-.35-.66-.46-.26-.1-.62-.22-1.07-.34-.55-.14-.99-.29-1.33-.43-.33-.14-.62-.37-.85-.68-.24-.31-.35-.72-.35-1.24,0-.46.12-.86.35-1.21.23-.35.56-.62.98-.82.42-.19.9-.29,1.45-.29.78,0,1.43.2,1.93.59s.78.91.85,1.56h-1.2c-.04-.32-.21-.6-.5-.85s-.69-.37-1.18-.37c-.46,0-.83.12-1.12.35-.29.24-.43.57-.43.99,0,.3.09.55.26.74.17.19.38.34.64.44.25.1.61.21,1.06.34.55.15,1,.3,1.33.45.34.15.62.38.86.68.24.31.36.73.36,1.25,0,.41-.11.79-.32,1.15-.22.36-.54.65-.96.88-.42.22-.92.34-1.5.34s-1.05-.1-1.48-.29Z"/>
  <path d="m698.16,378.09c.67.34,1.18.83,1.54,1.46.36.63.53,1.38.53,2.23s-.18,1.6-.53,2.23c-.36.63-.87,1.11-1.54,1.44s-1.46.5-2.37.5h-2.6v-8.36h2.6c.91,0,1.7.17,2.37.51Zm.1,6.1c.57-.57.85-1.37.85-2.41s-.29-1.85-.86-2.44c-.57-.58-1.39-.88-2.47-.88h-1.51v6.58h1.51c1.08,0,1.9-.29,2.47-.86Z"/>
  <path d="m706.2,385.95l-3.44-3.82v3.82h-1.09v-8.36h1.09v3.88l3.46-3.88h1.38l-3.79,4.19,3.83,4.18h-1.43Z"/>
  <path class="e" d="m406.43,459.08v-189.26" pointer-events="none"/>
  <path class="d" d="m406.43,464.33l-2.33-7,2.33,1.75,2.33-1.75-2.33,7Z" pointer-events="none"/>
  <path class="d" d="m406.43,264.57l2.33,7-2.33-1.75-2.33,1.75,2.33-7Z" pointer-events="none"/>
  <rect class="c" x="346.43" y="465.45" width="120" height="60" rx="9" ry="9" pointer-events="none"/>
  <path d="m366.32,497.09h-3.65l-.67,1.86h-1.15l3.02-8.32h1.26l3.01,8.32h-1.15l-.67-1.86Zm-.31-.89l-1.51-4.22-1.51,4.22h3.02Z"/>
  <path d="m371.52,492.64c.43-.25.93-.38,1.49-.38s1.11.14,1.59.42.85.67,1.12,1.18.41,1.1.41,1.77-.14,1.26-.41,1.78c-.27.52-.65.92-1.12,1.21s-1.01.43-1.59.43-1.05-.13-1.48-.38c-.43-.25-.75-.57-.98-.94v4.33h-1.09v-9.7h1.09v1.21c.22-.38.54-.69.97-.94Zm3.2,1.7c-.2-.37-.47-.65-.81-.84-.34-.19-.71-.29-1.12-.29s-.77.1-1.11.29c-.34.2-.61.48-.82.85-.2.37-.31.8-.31,1.29s.1.93.31,1.3c.2.37.48.66.82.85.34.2.71.29,1.11.29s.78-.1,1.12-.29c.34-.2.61-.48.81-.85.2-.37.3-.81.3-1.31s-.1-.93-.3-1.3Z"/>
  <path d="m383.54,496.07h-5.26c.04.65.26,1.15.67,1.52.4.36.89.55,1.47.55.47,0,.87-.11,1.18-.33.32-.22.54-.51.67-.88h1.18c-.18.63-.53,1.15-1.06,1.54-.53.4-1.18.59-1.97.59-.62,0-1.18-.14-1.67-.42-.49-.28-.88-.68-1.16-1.19-.28-.52-.42-1.11-.42-1.79s.14-1.28.41-1.79.65-.91,1.15-1.18c.49-.28,1.06-.41,1.7-.41s1.18.14,1.66.41c.48.27.85.65,1.11,1.12.26.48.39,1.01.39,1.61,0,.21-.01.43-.04.66Zm-1.37-1.96c-.18-.3-.43-.53-.75-.68-.32-.16-.67-.23-1.05-.23-.55,0-1.02.18-1.41.53-.39.35-.61.84-.67,1.46h4.15c0-.42-.09-.77-.28-1.07Z"/>
  <path d="m386.92,492.56c.36-.21.79-.31,1.3-.31v1.13h-.29c-1.22,0-1.84.66-1.84,1.99v3.58h-1.09v-6.58h1.09v1.07c.19-.38.47-.67.82-.88Z"/>
  <path d="m390.82,493.27v3.88c0,.32.07.55.2.68.14.13.37.2.71.2h.8v.92h-.98c-.61,0-1.06-.14-1.37-.42-.3-.28-.46-.74-.46-1.38v-3.88h-.85v-.9h.85v-1.66h1.09v1.66h1.72v.9h-1.72Z"/>
  <path d="m399.69,492.37v6.58h-1.09v-.97c-.21.34-.5.6-.87.79-.37.19-.78.28-1.23.28-.51,0-.97-.11-1.38-.32-.41-.21-.73-.53-.97-.95-.24-.42-.35-.94-.35-1.55v-3.85h1.08v3.71c0,.65.16,1.15.49,1.49s.78.52,1.34.52,1.04-.18,1.38-.54c.34-.36.5-.88.5-1.57v-3.61h1.09Z"/>
  <path d="m403.45,492.56c.36-.21.79-.31,1.3-.31v1.13h-.29c-1.22,0-1.84.66-1.84,1.99v3.58h-1.09v-6.58h1.09v1.07c.19-.38.47-.67.82-.88Z"/>
  <path d="m411.98,496.07h-5.26c.04.65.26,1.15.67,1.52.4.36.89.55,1.47.55.47,0,.87-.11,1.18-.33.32-.22.54-.51.67-.88h1.18c-.18.63-.53,1.15-1.06,1.54-.53.4-1.18.59-1.97.59-.62,0-1.18-.14-1.67-.42-.49-.28-.88-.68-1.16-1.19-.28-.52-.42-1.11-.42-1.79s.14-1.28.41-1.79.65-.91,1.15-1.18c.49-.28,1.06-.41,1.7-.41s1.18.14,1.66.41c.48.27.85.65,1.11,1.12.26.48.39,1.01.39,1.61,0,.21-.01.43-.04.66Zm-1.37-1.96c-.18-.3-.43-.53-.75-.68-.32-.16-.67-.23-1.05-.23-.55,0-1.02.18-1.41.53-.39.35-.61.84-.67,1.46h4.15c0-.42-.09-.77-.28-1.07Z"/>
  <path d="m421.6,497.09h-3.65l-.67,1.86h-1.15l3.02-8.32h1.26l3.01,8.32h-1.15l-.67-1.86Zm-.31-.89l-1.51-4.22-1.51,4.22h3.02Z"/>
  <path d="m428.95,492.63c.43.25.75.56.95.94v-1.2h1.1v6.72c0,.6-.13,1.13-.38,1.6-.26.47-.62.83-1.1,1.1-.48.26-1.03.4-1.66.4-.86,0-1.58-.2-2.16-.61-.58-.41-.92-.96-1.02-1.67h1.08c.12.4.37.72.74.97s.83.37,1.36.37c.6,0,1.09-.19,1.47-.56.38-.38.57-.9.57-1.58v-1.38c-.22.38-.54.7-.96.96-.42.26-.92.38-1.49.38s-1.11-.14-1.59-.43-.85-.69-1.12-1.21c-.27-.52-.41-1.11-.41-1.78s.14-1.26.41-1.77.65-.9,1.12-1.18,1.01-.42,1.59-.42,1.07.12,1.49.37Zm.65,1.72c-.2-.37-.47-.65-.81-.85-.34-.2-.71-.29-1.12-.29s-.78.1-1.12.29c-.34.19-.6.47-.8.84-.2.37-.3.8-.3,1.3s.1.94.3,1.31c.2.37.47.66.8.85.34.2.71.29,1.12.29s.78-.1,1.12-.29c.34-.2.61-.48.81-.85.2-.37.3-.81.3-1.3s-.1-.93-.3-1.3Z"/>
  <path d="m438.82,496.07h-5.26c.04.65.26,1.15.67,1.52.4.36.89.55,1.47.55.47,0,.87-.11,1.18-.33.32-.22.54-.51.67-.88h1.18c-.18.63-.53,1.15-1.06,1.54-.53.4-1.18.59-1.97.59-.62,0-1.18-.14-1.67-.42-.49-.28-.88-.68-1.16-1.19-.28-.52-.42-1.11-.42-1.79s.14-1.28.41-1.79.65-.91,1.15-1.18c.49-.28,1.06-.41,1.7-.41s1.18.14,1.66.41c.48.27.85.65,1.11,1.12.26.48.39,1.01.39,1.61,0,.21-.01.43-.04.66Zm-1.37-1.96c-.18-.3-.43-.53-.75-.68-.32-.16-.67-.23-1.05-.23-.55,0-1.02.18-1.41.53-.39.35-.61.84-.67,1.46h4.15c0-.42-.09-.77-.28-1.07Z"/>
  <path d="m445.44,492.98c.5.48.74,1.18.74,2.09v3.88h-1.08v-3.72c0-.66-.16-1.16-.49-1.51-.33-.35-.78-.52-1.34-.52s-1.03.18-1.37.54-.51.88-.51,1.57v3.64h-1.09v-6.58h1.09v.94c.22-.34.51-.6.88-.78s.78-.28,1.23-.28c.8,0,1.45.24,1.94.73Z"/>
  <path d="m449.31,493.27v3.88c0,.32.07.55.2.68s.37.2.71.2h.8v.92h-.98c-.61,0-1.06-.14-1.37-.42s-.46-.74-.46-1.38v-3.88h-.85v-.9h.85v-1.66h1.09v1.66h1.72v.9h-1.72Z"/>
  <path class="e" d="m406.43,575.08v-43.26" pointer-events="none"/>
  <path class="d" d="m406.43,580.33l-2.33-7,2.33,1.75,2.33-1.75-2.33,7Z" pointer-events="none"/>
  <path class="d" d="m406.43,526.57l2.33,7-2.33-1.75-2.33,1.75,2.33-7Z" pointer-events="none"/>
  <rect class="c" x="346.43" y="581.45" width="120" height="60" rx="9" ry="9" pointer-events="none"/>
  <path d="m366.32,613.09h-3.65l-.67,1.86h-1.15l3.02-8.32h1.26l3.01,8.32h-1.15l-.67-1.86Zm-.31-.89l-1.51-4.22-1.51,4.22h3.02Z"/>
  <path d="m371.52,608.64c.43-.25.93-.38,1.49-.38s1.11.14,1.59.42.85.67,1.12,1.18.41,1.1.41,1.77-.14,1.26-.41,1.78c-.27.52-.65.92-1.12,1.21s-1.01.43-1.59.43-1.05-.13-1.48-.38c-.43-.25-.75-.57-.98-.94v4.33h-1.09v-9.7h1.09v1.21c.22-.38.54-.69.97-.94Zm3.2,1.7c-.2-.37-.47-.65-.81-.84-.34-.19-.71-.29-1.12-.29s-.77.1-1.11.29c-.34.2-.61.48-.82.85-.2.37-.31.8-.31,1.29s.1.93.31,1.3c.2.37.48.66.82.85.34.2.71.29,1.11.29s.78-.1,1.12-.29c.34-.2.61-.48.81-.85.2-.37.3-.81.3-1.31s-.1-.93-.3-1.3Z"/>
  <path d="m383.54,612.07h-5.26c.04.65.26,1.15.67,1.52.4.36.89.55,1.47.55.47,0,.87-.11,1.18-.33.32-.22.54-.51.67-.88h1.18c-.18.63-.53,1.15-1.06,1.54-.53.4-1.18.59-1.97.59-.62,0-1.18-.14-1.67-.42-.49-.28-.88-.68-1.16-1.19-.28-.52-.42-1.11-.42-1.79s.14-1.28.41-1.79.65-.91,1.15-1.18c.49-.28,1.06-.41,1.7-.41s1.18.14,1.66.41c.48.27.85.65,1.11,1.12.26.48.39,1.01.39,1.61,0,.21-.01.43-.04.66Zm-1.37-1.96c-.18-.3-.43-.53-.75-.68-.32-.16-.67-.23-1.05-.23-.55,0-1.02.18-1.41.53-.39.35-.61.84-.67,1.46h4.15c0-.42-.09-.77-.28-1.07Z"/>
  <path d="m386.92,608.56c.36-.21.79-.31,1.3-.31v1.13h-.29c-1.22,0-1.84.66-1.84,1.99v3.58h-1.09v-6.58h1.09v1.07c.19-.38.47-.67.82-.88Z"/>
  <path d="m390.82,609.27v3.88c0,.32.07.55.2.68.14.13.37.2.71.2h.8v.92h-.98c-.61,0-1.06-.14-1.37-.42-.3-.28-.46-.74-.46-1.38v-3.88h-.85v-.9h.85v-1.66h1.09v1.66h1.72v.9h-1.72Z"/>
  <path d="m399.69,608.37v6.58h-1.09v-.97c-.21.34-.5.6-.87.79-.37.19-.78.28-1.23.28-.51,0-.97-.11-1.38-.32-.41-.21-.73-.53-.97-.95-.24-.42-.35-.94-.35-1.55v-3.85h1.08v3.71c0,.65.16,1.15.49,1.49s.78.52,1.34.52,1.04-.18,1.38-.54c.34-.36.5-.88.5-1.57v-3.61h1.09Z"/>
  <path d="m403.45,608.56c.36-.21.79-.31,1.3-.31v1.13h-.29c-1.22,0-1.84.66-1.84,1.99v3.58h-1.09v-6.58h1.09v1.07c.19-.38.47-.67.82-.88Z"/>
  <path d="m411.98,612.07h-5.26c.04.65.26,1.15.67,1.52.4.36.89.55,1.47.55.47,0,.87-.11,1.18-.33.32-.22.54-.51.67-.88h1.18c-.18.63-.53,1.15-1.06,1.54-.53.4-1.18.59-1.97.59-.62,0-1.18-.14-1.67-.42-.49-.28-.88-.68-1.16-1.19-.28-.52-.42-1.11-.42-1.79s.14-1.28.41-1.79.65-.91,1.15-1.18c.49-.28,1.06-.41,1.7-.41s1.18.14,1.66.41c.48.27.85.65,1.11,1.12.26.48.39,1.01.39,1.61,0,.21-.01.43-.04.66Zm-1.37-1.96c-.18-.3-.43-.53-.75-.68-.32-.16-.67-.23-1.05-.23-.55,0-1.02.18-1.41.53-.39.35-.61.84-.67,1.46h4.15c0-.42-.09-.77-.28-1.07Z"/>
  <path d="m421.6,613.09h-3.65l-.67,1.86h-1.15l3.02-8.32h1.26l3.01,8.32h-1.15l-.67-1.86Zm-.31-.89l-1.51-4.22-1.51,4.22h3.02Z"/>
  <path d="m428.95,608.63c.43.25.75.56.95.94v-1.2h1.1v6.72c0,.6-.13,1.13-.38,1.6-.26.47-.62.83-1.1,1.1-.48.26-1.03.4-1.66.4-.86,0-1.58-.2-2.16-.61-.58-.41-.92-.96-1.02-1.67h1.08c.12.4.37.72.74.97s.83.37,1.36.37c.6,0,1.09-.19,1.47-.56.38-.38.57-.9.57-1.58v-1.38c-.22.38-.54.7-.96.96-.42.26-.92.38-1.49.38s-1.11-.14-1.59-.43-.85-.69-1.12-1.21c-.27-.52-.41-1.11-.41-1.78s.14-1.26.41-1.77.65-.9,1.12-1.18,1.01-.42,1.59-.42,1.07.12,1.49.37Zm.65,1.72c-.2-.37-.47-.65-.81-.85-.34-.2-.71-.29-1.12-.29s-.78.1-1.12.29c-.34.19-.6.47-.8.84-.2.37-.3.8-.3,1.3s.1.94.3,1.31c.2.37.47.66.8.85.34.2.71.29,1.12.29s.78-.1,1.12-.29c.34-.2.61-.48.81-.85.2-.37.3-.81.3-1.3s-.1-.93-.3-1.3Z"/>
  <path d="m438.82,612.07h-5.26c.04.65.26,1.15.67,1.52.4.36.89.55,1.47.55.47,0,.87-.11,1.18-.33.32-.22.54-.51.67-.88h1.18c-.18.63-.53,1.15-1.06,1.54-.53.4-1.18.59-1.97.59-.62,0-1.18-.14-1.67-.42-.49-.28-.88-.68-1.16-1.19-.28-.52-.42-1.11-.42-1.79s.14-1.28.41-1.79.65-.91,1.15-1.18c.49-.28,1.06-.41,1.7-.41s1.18.14,1.66.41c.48.27.85.65,1.11,1.12.26.48.39,1.01.39,1.61,0,.21-.01.43-.04.66Zm-1.37-1.96c-.18-.3-.43-.53-.75-.68-.32-.16-.67-.23-1.05-.23-.55,0-1.02.18-1.41.53-.39.35-.61.84-.67,1.46h4.15c0-.42-.09-.77-.28-1.07Z"/>
  <path d="m445.44,608.98c.5.48.74,1.18.74,2.09v3.88h-1.08v-3.72c0-.66-.16-1.16-.49-1.51-.33-.35-.78-.52-1.34-.52s-1.03.18-1.37.54-.51.88-.51,1.57v3.64h-1.09v-6.58h1.09v.94c.22-.34.51-.6.88-.78s.78-.28,1.23-.28c.8,0,1.45.24,1.94.73Z"/>
  <path d="m449.31,609.27v3.88c0,.32.07.55.2.68s.37.2.71.2h.8v.92h-.98c-.61,0-1.06-.14-1.37-.42s-.46-.74-.46-1.38v-3.88h-.85v-.9h.85v-1.66h1.09v1.66h1.72v.9h-1.72Z"/>
  <path class="g" d="m176.74,288.01c9.99,0,18.08-8.1,18.08-18.08,0-9.99-8.1-18.08-18.08-18.08-1.43,0-2.86.17-4.25.51,2.83-11.3-4.04-22.76-15.34-25.59-4.66-1.17-9.57-.71-13.93,1.3-6.82-18.6-27.42-28.15-46.02-21.33-11.52,4.22-20.08,14.04-22.7,26.03-15.21-1.78-28.98,9.1-30.76,24.31-1.78,15.21,9.1,28.98,24.31,30.76,1.07.13,2.15.19,3.22.19h105.48Z"/>
</svg>