<?xml version="1.0" encoding="UTF-8"?>
<svg xmlns="http://www.w3.org/2000/svg" xmlns:xlink="http://www.w3.org/1999/xlink" viewBox="0 0 1000 700">
  <defs>
    <style>
      .g {
        fill: #f27a40;
      }

      .h {
        clip-path: url(#e);
      }

      .h, .i, .j, .k, .l, .m, .n, .o, .p, .q {
        fill: none;
      }

      .i {
        stroke-dasharray: 0 0 0 5.01;
      }

      .i, .j, .l, .m, .n, .p {
        stroke-linecap: round;
      }

      .i, .j, .l, .m, .n, .p, .q {
        stroke-miterlimit: 10;
      }

      .i, .l, .m, .p {
        stroke: #8ec4ad;
        stroke-width: 2px;
      }

      .r {
        fill: #34312f;
      }

      .j {
        stroke: #56ae89;
      }

      .s {
        fill: #f8773d;
      }

      .t {
        fill: #706b65;
      }

      .k {
        clip-path: url(#f);
      }

      .l {
        stroke-dasharray: 0 0 0 5.12;
      }

      .u {
        fill: #8ec4ad;
      }

      .m {
        stroke-dasharray: 0 0 0 5;
      }

      .v {
        fill: #efeeed;
      }

      .w {
        fill: #56ae89;
      }

      .n {
        stroke: #bfded1;
      }

      .x {
        fill: #bfded1;
      }

      .y {
        filter: url(#c);
        opacity: .1;
      }

      .y, .z {
        fill: #dbd9d7;
      }

      .q {
        stroke: #f27a40;
      }
    </style>
    <filter id="c" data-name="drop-shadow-2" filterUnits="userSpaceOnUse">
      <feOffset dx="7" dy="7"/>
      <feGaussianBlur result="d" stdDeviation="5"/>
      <feFlood flood-color="#000" flood-opacity=".05"/>
      <feComposite in2="d" operator="in"/>
      <feComposite in="SourceGraphic"/>
    </filter>
    <clipPath id="e">
      <rect class="o" x="370.07" y="245.81" width="281.21" height="102.07"/>
    </clipPath>
    <clipPath id="f">
      <rect class="o" x="370.07" y="245.81" width="281.21" height="102.07"/>
    </clipPath>
  </defs>
  <g id="a" data-name="bg">
    <rect class="r" x="-30.77" y="-16.3" width="1065.81" height="744.18"/>
  </g>
  <g id="b" data-name="Warstwa 1">
    <circle class="y" cx="510.68" cy="296.84" r="261.89"/>
    <g>
      <path class="u" d="m512.22,548.81h-12.98l-1.92,5.88h-12.81l14.24-38.93h14.08l14.19,38.93h-12.87l-1.92-5.88Zm-6.49-20.02l-3.52,10.83h7.04l-3.52-10.83Z"/>
      <path class="u" d="m543.96,523.29c7.97,0,13.97,4.73,15.45,12.87h-12.92c-.44-1.49-1.27-2.42-2.8-2.42-1.87,0-3.19,1.71-3.19,5.44s1.32,5.44,3.19,5.44c1.54,0,2.36-.93,2.8-2.42h12.92c-1.48,8.14-7.48,12.87-15.45,12.87-9.29,0-15.84-5.99-15.84-15.89s6.54-15.89,15.84-15.89Z"/>
      <path class="u" d="m565.19,533.85h-3.85v-10.17h3.85v-7.48h12.21v7.48h5.06v10.17h-5.06v8.36c0,1.43.66,2.09,2.25,2.09h2.91v10.39h-4.62c-7.26,0-12.76-3.08-12.76-12.7v-8.14Z"/>
      <path class="u" d="m620.07,554.69h-12.21v-4.73c-1.76,2.69-4.84,4.95-9.51,4.95-7.15,0-11.33-5.22-11.33-13.25v-17.98h12.15v16.44c0,2.97,1.71,4.78,4.34,4.78s4.34-1.81,4.34-4.78v-16.44h12.21v31.02Z"/>
      <path class="u" d="m636.74,523.29c4.12,0,7.09,1.81,8.58,4.62v-4.23h12.15v31.02h-12.15v-4.23c-1.49,2.8-4.45,4.62-8.58,4.62-7.15,0-12.81-5.88-12.81-15.89s5.66-15.89,12.81-15.89Zm4.07,10.67c-2.53,0-4.51,1.81-4.51,5.22s1.98,5.22,4.51,5.22,4.51-1.82,4.51-5.22-1.98-5.22-4.51-5.22Z"/>
      <path class="u" d="m664.9,533.85h-3.85v-10.17h3.85v-7.48h12.21v7.48h5.06v10.17h-5.06v8.36c0,1.43.66,2.09,2.25,2.09h2.91v10.39h-4.62c-7.26,0-12.76-3.08-12.76-12.7v-8.14Z"/>
      <path class="u" d="m701.14,555.07c-9.29,0-15.84-5.99-15.84-15.89s6.54-15.89,15.84-15.89,15.84,5.88,15.84,15.62c0,.77-.05,1.65-.17,2.42h-19.58c.17,3.13,1.65,4.01,3.3,4.01s2.42-.88,2.86-1.81h12.92c-1.32,6.6-7.37,11.55-15.18,11.55Zm-3.79-19.08h7.26c0-2.14-1.65-3.13-3.46-3.13-2.03,0-3.41.99-3.79,3.13Z"/>
    </g>
    <g>
      <path class="u" d="m701.77,321.25h-12.98l-1.92,5.88h-12.81l14.24-38.93h14.08l14.19,38.93h-12.87l-1.92-5.88Zm-6.49-20.02l-3.52,10.83h7.04l-3.52-10.83Z"/>
      <path class="u" d="m740.21,310.69c0-2.97-1.7-4.79-4.34-4.79s-4.34,1.82-4.34,4.79v16.44h-12.21v-31.02h12.21v4.73c1.76-2.7,4.84-4.95,9.51-4.95,7.15,0,11.33,5.22,11.33,13.25v17.98h-12.15v-16.44Z"/>
      <path class="u" d="m768.82,295.73c4.12,0,7.09,1.81,8.58,4.62v-4.23h12.15v31.02h-12.15v-4.23c-1.49,2.8-4.46,4.62-8.58,4.62-7.15,0-12.81-5.88-12.81-15.89s5.66-15.89,12.81-15.89Zm4.07,10.67c-2.53,0-4.51,1.81-4.51,5.22s1.98,5.22,4.51,5.22,4.51-1.82,4.51-5.22-1.98-5.22-4.51-5.22Z"/>
      <path class="u" d="m795.05,286.44h12.21v40.69h-12.21v-40.69Z"/>
      <path class="u" d="m834.32,296.11h13.47l-19.85,45.86h-13.36l7.81-16.39-12.92-29.48h13.58l5.83,15.73,5.44-15.73Z"/>
      <path class="u" d="m874.08,305.68l-12.37,11.33h12.92v10.12h-26.29v-9.57l11.82-11.33h-11.66v-10.12h25.57v9.57Z"/>
      <path class="u" d="m892.67,327.51c-9.29,0-15.84-5.99-15.84-15.89s6.54-15.89,15.84-15.89,15.84,5.88,15.84,15.62c0,.77-.05,1.65-.17,2.42h-19.58c.17,3.13,1.65,4.01,3.3,4.01s2.42-.88,2.86-1.81h12.92c-1.32,6.6-7.37,11.55-15.18,11.55Zm-3.79-19.08h7.26c0-2.14-1.65-3.13-3.46-3.13-2.03,0-3.41.99-3.79,3.13Z"/>
    </g>
    <g>
      <path class="z" d="m71.69,239.41h-5.47l-1.01,2.79h-1.73l4.54-12.47h1.89l4.52,12.47h-1.73l-1.01-2.79Zm-.47-1.33l-2.27-6.34-2.27,6.34h4.54Z"/>
      <path class="z" d="m79.5,232.74c.64-.38,1.39-.57,2.24-.57s1.67.21,2.38.63c.71.42,1.28,1.01,1.68,1.77.41.76.61,1.65.61,2.66s-.2,1.88-.61,2.66c-.41.78-.97,1.39-1.68,1.82-.71.43-1.51.65-2.38.65s-1.58-.19-2.22-.57c-.64-.38-1.13-.85-1.47-1.41v6.5h-1.64v-14.54h1.64v1.82c.32-.56.81-1.04,1.45-1.41Zm4.8,2.55c-.3-.55-.71-.97-1.21-1.26-.51-.29-1.07-.43-1.68-.43s-1.16.15-1.67.44-.92.72-1.22,1.28c-.31.56-.46,1.2-.46,1.93s.15,1.4.46,1.95.71.98,1.22,1.28,1.07.44,1.67.44,1.17-.15,1.68-.44c.51-.29.92-.72,1.21-1.28s.45-1.21.45-1.97-.15-1.39-.45-1.94Z"/>
      <path class="z" d="m97.52,237.88h-7.88c.06.97.39,1.73,1,2.28s1.34.82,2.21.82c.71,0,1.3-.17,1.77-.5.47-.33.81-.77,1-1.32h1.76c-.26.95-.79,1.72-1.58,2.31-.79.59-1.78.89-2.95.89-.94,0-1.77-.21-2.51-.63-.74-.42-1.32-1.02-1.74-1.79-.42-.77-.63-1.67-.63-2.69s.2-1.91.61-2.68.98-1.36,1.72-1.77,1.59-.62,2.55-.62,1.76.2,2.48.61c.72.41,1.28.97,1.66,1.68.39.71.59,1.52.59,2.42,0,.31-.02.64-.05.99Zm-2.05-2.94c-.28-.45-.65-.79-1.12-1.03s-1-.35-1.58-.35c-.83,0-1.53.26-2.12.79s-.91,1.26-1,2.2h6.23c0-.62-.14-1.16-.41-1.61Z"/>
      <path class="z" d="m102.61,232.63c.53-.31,1.18-.47,1.95-.47v1.69h-.43c-1.84,0-2.75,1-2.75,2.99v5.36h-1.64v-9.86h1.64v1.6c.29-.56.7-1,1.23-1.31Z"/>
      <path class="z" d="m108.45,233.69v5.81c0,.48.1.82.31,1.02.2.2.56.3,1.06.3h1.21v1.39h-1.48c-.91,0-1.6-.21-2.05-.63-.46-.42-.68-1.11-.68-2.07v-5.81h-1.28v-1.35h1.28v-2.48h1.64v2.48h2.57v1.35h-2.57Z"/>
      <path class="z" d="m121.75,232.34v9.86h-1.64v-1.46c-.31.5-.75.9-1.3,1.18-.56.28-1.17.42-1.84.42-.77,0-1.46-.16-2.07-.48-.61-.32-1.09-.79-1.45-1.43-.35-.64-.53-1.41-.53-2.32v-5.78h1.62v5.56c0,.97.25,1.72.74,2.24.49.52,1.16.78,2.02.78s1.57-.27,2.07-.81.76-1.33.76-2.36v-5.42h1.64Z"/>
      <path class="z" d="m127.39,232.63c.53-.31,1.19-.47,1.95-.47v1.69h-.43c-1.84,0-2.75,1-2.75,2.99v5.36h-1.64v-9.86h1.64v1.6c.29-.56.7-1,1.23-1.31Z"/>
      <path class="z" d="m140.18,237.88h-7.88c.06.97.39,1.73,1,2.28.61.55,1.34.82,2.21.82.71,0,1.3-.17,1.77-.5s.81-.77,1-1.32h1.76c-.26.95-.79,1.72-1.58,2.31-.79.59-1.78.89-2.95.89-.94,0-1.77-.21-2.51-.63s-1.32-1.02-1.74-1.79c-.42-.77-.63-1.67-.63-2.69s.21-1.91.61-2.68c.41-.77.98-1.36,1.72-1.77.74-.41,1.59-.62,2.55-.62s1.76.2,2.48.61c.72.41,1.27.97,1.66,1.68.39.71.59,1.52.59,2.42,0,.31-.02.64-.05.99Zm-2.05-2.94c-.28-.45-.65-.79-1.12-1.03-.47-.23-1-.35-1.57-.35-.83,0-1.53.26-2.12.79s-.92,1.26-1,2.2h6.23c0-.62-.14-1.16-.41-1.61Z"/>
      <path class="z" d="m154.62,239.41h-5.47l-1.01,2.79h-1.73l4.54-12.47h1.89l4.52,12.47h-1.73l-1.01-2.79Zm-.47-1.33l-2.27-6.34-2.27,6.34h4.54Z"/>
      <path class="z" d="m165.64,232.73c.64.37,1.12.84,1.43,1.4v-1.8h1.66v10.08c0,.9-.19,1.7-.58,2.4s-.93,1.25-1.65,1.65c-.71.4-1.54.59-2.49.59-1.3,0-2.38-.31-3.24-.92-.86-.61-1.38-1.45-1.53-2.5h1.62c.18.6.55,1.08,1.12,1.45.56.37,1.24.55,2.03.55.9,0,1.63-.28,2.21-.85.57-.56.85-1.36.85-2.38v-2.07c-.32.58-.8,1.06-1.44,1.44-.64.38-1.38.58-2.23.58s-1.67-.22-2.39-.65c-.71-.43-1.27-1.04-1.68-1.82-.41-.78-.61-1.67-.61-2.66s.21-1.89.61-2.66c.41-.76.97-1.35,1.68-1.77.71-.42,1.51-.63,2.39-.63s1.6.19,2.24.56Zm.98,2.57c-.3-.55-.71-.98-1.21-1.27s-1.07-.44-1.68-.44-1.17.14-1.67.43-.91.71-1.21,1.26c-.3.55-.45,1.2-.45,1.94s.15,1.41.45,1.97c.3.56.7.98,1.21,1.28s1.06.44,1.67.44,1.17-.15,1.68-.44.92-.72,1.21-1.28.45-1.21.45-1.95-.15-1.39-.45-1.94Z"/>
      <path class="z" d="m180.45,237.88h-7.88c.06.97.39,1.73,1,2.28.61.55,1.34.82,2.21.82.71,0,1.3-.17,1.77-.5s.81-.77,1-1.32h1.76c-.26.95-.79,1.72-1.58,2.31-.79.59-1.78.89-2.95.89-.94,0-1.77-.21-2.51-.63s-1.32-1.02-1.74-1.79c-.42-.77-.63-1.67-.63-2.69s.21-1.91.61-2.68c.41-.77.98-1.36,1.72-1.77.74-.41,1.59-.62,2.55-.62s1.76.2,2.48.61c.72.41,1.27.97,1.66,1.68.39.71.59,1.52.59,2.42,0,.31-.02.64-.05.99Zm-2.05-2.94c-.28-.45-.65-.79-1.12-1.03-.47-.23-1-.35-1.57-.35-.83,0-1.53.26-2.12.79s-.92,1.26-1,2.2h6.23c0-.62-.14-1.16-.41-1.61Z"/>
      <path class="z" d="m190.38,233.25c.74.73,1.12,1.77,1.12,3.14v5.81h-1.62v-5.58c0-.98-.25-1.74-.74-2.26-.49-.52-1.16-.78-2.02-.78s-1.55.27-2.06.81c-.51.54-.77,1.33-.77,2.36v5.45h-1.64v-9.86h1.64v1.4c.32-.5.77-.89,1.32-1.17s1.17-.41,1.84-.41c1.2,0,2.17.36,2.92,1.09Z"/>
      <path class="z" d="m196.18,233.69v5.81c0,.48.1.82.31,1.02.21.2.56.3,1.06.3h1.21v1.39h-1.48c-.91,0-1.6-.21-2.05-.63s-.68-1.11-.68-2.07v-5.81h-1.28v-1.35h1.28v-2.48h1.64v2.48h2.57v1.35h-2.57Z"/>
      <path class="z" d="m202.19,241.98c-.6-.26-1.07-.62-1.42-1.08s-.54-.99-.58-1.59h1.69c.05.49.28.89.69,1.21.41.31.96.47,1.63.47.62,0,1.12-.14,1.48-.41s.54-.62.54-1.04-.19-.75-.58-.96c-.38-.21-.98-.42-1.78-.62-.73-.19-1.33-.39-1.79-.58-.46-.2-.86-.49-1.19-.88-.33-.39-.5-.9-.5-1.54,0-.5.15-.97.45-1.39s.73-.75,1.28-1c.55-.25,1.18-.37,1.89-.37,1.09,0,1.97.28,2.65.83.67.55,1.03,1.31,1.08,2.27h-1.64c-.04-.52-.24-.93-.62-1.24s-.88-.47-1.52-.47c-.59,0-1.06.13-1.4.38s-.52.58-.52.99c0,.32.1.59.31.8s.47.38.79.5c.32.13.76.27,1.32.42.71.19,1.28.38,1.73.57.44.19.83.46,1.14.84.32.37.48.86.49,1.46,0,.54-.15,1.03-.45,1.46-.3.43-.72.77-1.27,1.02s-1.17.37-1.88.37c-.76,0-1.43-.13-2.03-.39Z"/>
      <path class="z" d="m228.85,232.63c.6.32,1.07.8,1.42,1.43.35.64.52,1.41.52,2.32v5.81h-1.62v-5.58c0-.98-.24-1.74-.73-2.26-.49-.52-1.14-.78-1.97-.78s-1.53.27-2.03.82-.76,1.33-.76,2.37v5.44h-1.62v-5.58c0-.98-.24-1.74-.73-2.26-.49-.52-1.14-.78-1.97-.78s-1.53.27-2.04.82c-.5.55-.76,1.33-.76,2.37v5.44h-1.64v-9.86h1.64v1.42c.32-.52.76-.91,1.31-1.19s1.15-.41,1.81-.41c.83,0,1.56.19,2.2.56.64.37,1.11.92,1.42,1.64.28-.7.73-1.24,1.37-1.62s1.34-.58,2.12-.58,1.45.16,2.05.48Z"/>
      <path class="z" d="m235.27,241.73c-.75-.42-1.34-1.02-1.76-1.79-.43-.77-.64-1.67-.64-2.69s.22-1.9.66-2.67c.44-.77,1.04-1.37,1.79-1.78s1.6-.62,2.54-.62,1.78.21,2.54.62,1.35,1.01,1.79,1.77.66,1.66.66,2.68-.23,1.92-.67,2.69c-.45.77-1.06,1.37-1.83,1.79-.77.42-1.62.63-2.56.63s-1.76-.21-2.51-.63Zm4.17-1.22c.52-.28.93-.69,1.25-1.24s.48-1.22.48-2.02-.16-1.46-.47-2.02c-.31-.55-.72-.96-1.22-1.23-.5-.27-1.05-.4-1.64-.4s-1.15.13-1.65.4c-.5.27-.9.68-1.2,1.23-.3.55-.45,1.22-.45,2.02s.15,1.48.44,2.03c.29.55.69.96,1.18,1.23.49.27,1.03.4,1.62.4s1.14-.14,1.66-.41Z"/>
      <path class="z" d="m252.72,233.25c.74.73,1.12,1.77,1.12,3.14v5.81h-1.62v-5.58c0-.98-.25-1.74-.74-2.26-.49-.52-1.16-.78-2.02-.78s-1.55.27-2.06.81c-.51.54-.77,1.33-.77,2.36v5.45h-1.64v-9.86h1.64v1.4c.32-.5.77-.89,1.32-1.17s1.17-.41,1.84-.41c1.2,0,2.17.36,2.92,1.09Z"/>
      <path class="z" d="m256.57,230.41c-.21-.22-.32-.48-.32-.79s.11-.58.32-.79c.22-.22.48-.32.79-.32s.55.11.76.32.32.48.32.79-.11.58-.32.79-.47.32-.76.32-.58-.11-.79-.32Zm1.58,1.93v9.86h-1.64v-9.86h1.64Z"/>
      <path class="z" d="m262.94,233.69v5.81c0,.48.1.82.31,1.02.21.2.56.3,1.06.3h1.21v1.39h-1.48c-.91,0-1.6-.21-2.05-.63s-.68-1.11-.68-2.07v-5.81h-1.28v-1.35h1.28v-2.48h1.64v2.48h2.57v1.35h-2.57Z"/>
      <path class="z" d="m269.29,241.73c-.75-.42-1.34-1.02-1.76-1.79-.43-.77-.64-1.67-.64-2.69s.22-1.9.66-2.67c.44-.77,1.04-1.37,1.79-1.78s1.6-.62,2.54-.62,1.78.21,2.54.62,1.35,1.01,1.79,1.77.66,1.66.66,2.68-.23,1.92-.67,2.69c-.45.77-1.06,1.37-1.83,1.79-.77.42-1.62.63-2.56.63s-1.76-.21-2.51-.63Zm4.17-1.22c.52-.28.93-.69,1.25-1.24s.48-1.22.48-2.02-.16-1.46-.47-2.02c-.31-.55-.72-.96-1.22-1.23-.5-.27-1.05-.4-1.64-.4s-1.15.13-1.65.4c-.5.27-.9.68-1.2,1.23-.3.55-.45,1.22-.45,2.02s.15,1.48.44,2.03c.29.55.69.96,1.18,1.23.49.27,1.03.4,1.62.4s1.14-.14,1.66-.41Z"/>
      <path class="z" d="m281.89,232.63c.54-.31,1.19-.47,1.95-.47v1.69h-.43c-1.84,0-2.75,1-2.75,2.99v5.36h-1.64v-9.86h1.64v1.6c.29-.56.7-1,1.23-1.31Z"/>
      <path class="z" d="m296.85,232.73c.64.37,1.12.84,1.43,1.4v-1.8h1.66v10.08c0,.9-.19,1.7-.58,2.4s-.93,1.25-1.65,1.65c-.71.4-1.54.59-2.49.59-1.3,0-2.38-.31-3.24-.92-.86-.61-1.38-1.45-1.53-2.5h1.62c.18.6.55,1.08,1.12,1.45.56.37,1.24.55,2.03.55.9,0,1.63-.28,2.21-.85.57-.56.85-1.36.85-2.38v-2.07c-.32.58-.8,1.06-1.44,1.44-.64.38-1.38.58-2.23.58s-1.67-.22-2.39-.65c-.71-.43-1.27-1.04-1.68-1.82-.41-.78-.61-1.67-.61-2.66s.21-1.89.61-2.66c.41-.76.97-1.35,1.68-1.77.71-.42,1.51-.63,2.39-.63s1.6.19,2.24.56Zm.98,2.57c-.3-.55-.71-.98-1.21-1.27s-1.07-.44-1.68-.44-1.17.14-1.67.43-.91.71-1.21,1.26c-.3.55-.45,1.2-.45,1.94s.15,1.41.45,1.97c.3.56.7.98,1.21,1.28s1.06.44,1.67.44,1.17-.15,1.68-.44.92-.72,1.21-1.28.45-1.21.45-1.95-.15-1.39-.45-1.94Z"/>
      <path class="z" d="m304.5,241.73c-.75-.42-1.34-1.02-1.76-1.79-.43-.77-.64-1.67-.64-2.69s.22-1.9.66-2.67c.44-.77,1.03-1.37,1.79-1.78.76-.41,1.6-.62,2.54-.62s1.78.21,2.54.62c.76.41,1.35,1.01,1.79,1.77s.66,1.66.66,2.68-.22,1.92-.68,2.69c-.45.77-1.06,1.37-1.83,1.79s-1.62.63-2.56.63-1.76-.21-2.51-.63Zm4.17-1.22c.52-.28.93-.69,1.25-1.24.32-.55.48-1.22.48-2.02s-.16-1.46-.47-2.02c-.31-.55-.72-.96-1.22-1.23-.5-.27-1.05-.4-1.64-.4s-1.15.13-1.65.4c-.5.27-.9.68-1.2,1.23-.3.55-.45,1.22-.45,2.02s.15,1.48.44,2.03c.29.55.69.96,1.18,1.23.49.27,1.03.4,1.62.4s1.14-.14,1.66-.41Z"/>
      <path class="z" d="m315.86,228.88v13.32h-1.64v-13.32h1.64Z"/>
      <path class="z" d="m318.65,234.58c.41-.76.97-1.35,1.68-1.77.71-.42,1.51-.63,2.4-.63.77,0,1.48.18,2.14.53.66.35,1.16.82,1.51,1.4v-5.22h1.66v13.32h-1.66v-1.85c-.32.59-.8,1.07-1.44,1.45s-1.38.57-2.23.57-1.67-.22-2.39-.65c-.71-.43-1.27-1.04-1.68-1.82s-.61-1.67-.61-2.66.2-1.89.61-2.66Zm7.29.73c-.3-.55-.71-.98-1.21-1.27s-1.07-.44-1.68-.44-1.17.14-1.67.43-.91.71-1.21,1.26-.45,1.2-.45,1.94.15,1.41.45,1.97.7.98,1.21,1.28,1.06.44,1.67.44,1.17-.15,1.68-.44.92-.72,1.21-1.28c.3-.56.45-1.21.45-1.95s-.15-1.39-.45-1.94Z"/>
      <path class="z" d="m339.77,237.88h-7.88c.06.97.39,1.73,1,2.28s1.34.82,2.21.82c.71,0,1.3-.17,1.77-.5.47-.33.81-.77,1-1.32h1.76c-.26.95-.79,1.72-1.58,2.31-.79.59-1.78.89-2.95.89-.94,0-1.77-.21-2.51-.63-.74-.42-1.32-1.02-1.74-1.79-.42-.77-.63-1.67-.63-2.69s.2-1.91.61-2.68.98-1.36,1.72-1.77,1.59-.62,2.55-.62,1.76.2,2.48.61c.72.41,1.28.97,1.66,1.68.39.71.59,1.52.59,2.42,0,.31-.02.64-.05.99Zm-2.05-2.94c-.28-.45-.65-.79-1.12-1.03s-1-.35-1.58-.35c-.83,0-1.53.26-2.12.79s-.91,1.26-1,2.2h6.23c0-.62-.14-1.16-.41-1.61Z"/>
      <path class="z" d="m349.7,233.25c.74.73,1.12,1.77,1.12,3.14v5.81h-1.62v-5.58c0-.98-.25-1.74-.74-2.26-.49-.52-1.16-.78-2.02-.78s-1.55.27-2.06.81c-.51.54-.76,1.33-.76,2.36v5.45h-1.64v-9.86h1.64v1.4c.32-.5.76-.89,1.32-1.17.56-.28,1.17-.41,1.84-.41,1.2,0,2.17.36,2.92,1.09Z"/>
      <path class="z" d="m69.55,270.06c-.6-.26-1.07-.62-1.42-1.08-.35-.46-.54-.99-.58-1.59h1.69c.05.49.28.89.69,1.21.41.31.96.47,1.63.47.62,0,1.12-.14,1.48-.41.36-.28.54-.62.54-1.04s-.19-.75-.58-.96c-.38-.21-.98-.42-1.78-.62-.73-.19-1.33-.39-1.79-.58-.46-.2-.86-.49-1.19-.88-.33-.39-.49-.9-.49-1.54,0-.5.15-.97.45-1.39.3-.42.73-.75,1.28-1,.55-.25,1.18-.37,1.89-.37,1.09,0,1.97.28,2.65.83.67.55,1.03,1.31,1.08,2.27h-1.64c-.04-.52-.24-.93-.62-1.24-.38-.31-.88-.47-1.52-.47-.59,0-1.06.13-1.4.38-.35.25-.52.58-.52.99,0,.32.1.59.32.8.21.21.47.38.79.5s.76.27,1.32.42c.71.19,1.28.38,1.73.57.44.19.83.46,1.14.84s.48.86.5,1.46c0,.54-.15,1.03-.45,1.46-.3.43-.72.77-1.27,1.02-.55.25-1.17.37-1.88.37-.76,0-1.43-.13-2.03-.39Z"/>
      <path class="z" d="m77.54,258.49c-.21-.22-.32-.48-.32-.79s.11-.58.32-.79c.22-.22.48-.32.79-.32s.55.11.76.32.32.48.32.79-.11.58-.32.79-.47.32-.76.32-.58-.11-.79-.32Zm1.58,1.93v9.86h-1.64v-9.86h1.64Z"/>
      <path class="z" d="m88.23,260.81c.64.37,1.12.84,1.43,1.4v-1.8h1.66v10.08c0,.9-.19,1.7-.58,2.4s-.93,1.25-1.65,1.65c-.71.4-1.54.59-2.49.59-1.3,0-2.38-.31-3.24-.92-.86-.61-1.38-1.45-1.53-2.5h1.62c.18.6.55,1.08,1.12,1.45.56.37,1.24.55,2.03.55.9,0,1.63-.28,2.21-.85.57-.56.85-1.36.85-2.38v-2.07c-.32.58-.8,1.06-1.44,1.44-.64.38-1.38.58-2.23.58s-1.67-.22-2.39-.65c-.71-.43-1.27-1.04-1.68-1.82-.41-.78-.61-1.67-.61-2.66s.21-1.89.61-2.66c.41-.76.97-1.35,1.68-1.77.71-.42,1.51-.63,2.39-.63s1.6.19,2.24.56Zm.98,2.57c-.3-.55-.71-.98-1.21-1.27s-1.07-.44-1.68-.44-1.17.14-1.67.43-.91.71-1.21,1.26c-.3.55-.45,1.2-.45,1.94s.15,1.41.45,1.97c.3.56.7.98,1.21,1.28s1.06.44,1.67.44,1.17-.15,1.68-.44.92-.72,1.21-1.28.45-1.21.45-1.95-.15-1.39-.45-1.94Z"/>
      <path class="z" d="m101.81,261.33c.74.73,1.12,1.77,1.12,3.14v5.81h-1.62v-5.58c0-.98-.25-1.74-.74-2.26-.49-.52-1.16-.78-2.02-.78s-1.55.27-2.06.81c-.51.54-.77,1.33-.77,2.36v5.45h-1.64v-9.86h1.64v1.4c.32-.5.77-.89,1.32-1.17.56-.28,1.17-.41,1.84-.41,1.2,0,2.17.36,2.92,1.09Z"/>
      <path class="z" d="m105.61,262.66c.41-.76.97-1.35,1.68-1.77.71-.42,1.51-.63,2.39-.63s1.61.19,2.25.56c.63.37,1.11.84,1.42,1.4v-1.8h1.66v9.86h-1.66v-1.84c-.32.58-.81,1.05-1.45,1.43-.64.38-1.39.57-2.24.57s-1.67-.22-2.38-.65c-.71-.43-1.27-1.04-1.67-1.82s-.61-1.67-.61-2.66.2-1.89.61-2.66Zm7.29.73c-.3-.55-.71-.98-1.21-1.27s-1.07-.44-1.68-.44-1.17.14-1.67.43-.91.71-1.21,1.26-.45,1.2-.45,1.94.15,1.41.45,1.97.7.98,1.21,1.28,1.06.44,1.67.44,1.17-.15,1.68-.44.92-.72,1.21-1.28c.3-.56.45-1.21.45-1.95s-.15-1.39-.45-1.94Z"/>
      <path class="z" d="m119.41,256.96v13.32h-1.64v-13.32h1.64Z"/>
      <path class="z" d="m123.66,270.06c-.6-.26-1.07-.62-1.42-1.08-.35-.46-.54-.99-.58-1.59h1.69c.05.49.28.89.69,1.21.41.31.96.47,1.63.47.62,0,1.12-.14,1.48-.41.36-.28.54-.62.54-1.04s-.19-.75-.58-.96c-.38-.21-.98-.42-1.78-.62-.73-.19-1.33-.39-1.79-.58-.46-.2-.86-.49-1.19-.88-.33-.39-.49-.9-.49-1.54,0-.5.15-.97.45-1.39.3-.42.73-.75,1.28-1,.55-.25,1.18-.37,1.89-.37,1.09,0,1.97.28,2.65.83.67.55,1.03,1.31,1.08,2.27h-1.64c-.04-.52-.24-.93-.62-1.24-.38-.31-.88-.47-1.52-.47-.59,0-1.06.13-1.4.38-.35.25-.52.58-.52.99,0,.32.1.59.32.8.21.21.47.38.79.5s.76.27,1.32.42c.71.19,1.28.38,1.73.57.44.19.83.46,1.14.84s.48.86.5,1.46c0,.54-.15,1.03-.45,1.46-.3.43-.72.77-1.27,1.02-.55.25-1.17.37-1.88.37-.76,0-1.43-.13-2.03-.39Z"/>
      <path class="z" d="m138.4,261.77v5.81c0,.48.1.82.31,1.02.2.2.56.3,1.06.3h1.21v1.39h-1.48c-.91,0-1.6-.21-2.05-.63-.46-.42-.68-1.11-.68-2.07v-5.81h-1.28v-1.35h1.28v-2.48h1.64v2.48h2.57v1.35h-2.57Z"/>
      <path class="z" d="m144.75,269.81c-.75-.42-1.34-1.02-1.76-1.79-.43-.77-.64-1.67-.64-2.69s.22-1.9.66-2.67c.44-.77,1.04-1.37,1.79-1.78s1.6-.62,2.54-.62,1.78.21,2.54.62,1.35,1.01,1.79,1.77c.44.77.66,1.66.66,2.68s-.22,1.92-.67,2.69c-.45.77-1.06,1.37-1.83,1.79s-1.62.63-2.56.63-1.76-.21-2.51-.63Zm4.17-1.22c.52-.28.93-.69,1.25-1.24.32-.55.48-1.22.48-2.02s-.16-1.46-.47-2.02-.72-.96-1.22-1.23c-.5-.27-1.05-.4-1.64-.4s-1.15.13-1.65.4c-.5.27-.9.68-1.2,1.23s-.45,1.22-.45,2.02.15,1.48.44,2.03.69.96,1.18,1.23c.49.27,1.03.4,1.62.4s1.14-.14,1.66-.41Z"/>
      <path class="z" d="m162.15,260.71c.53-.31,1.18-.47,1.95-.47v1.69h-.43c-1.84,0-2.75,1-2.75,2.99v5.36h-1.64v-9.86h1.64v1.6c.29-.56.7-1,1.23-1.31Z"/>
      <path class="z" d="m166,262.66c.41-.76.97-1.35,1.68-1.77.71-.42,1.51-.63,2.38-.63s1.61.19,2.25.56c.64.37,1.11.84,1.42,1.4v-1.8h1.66v9.86h-1.66v-1.84c-.32.58-.81,1.05-1.45,1.43-.64.38-1.39.57-2.24.57s-1.67-.22-2.38-.65c-.71-.43-1.27-1.04-1.67-1.82-.41-.78-.61-1.67-.61-2.66s.2-1.89.61-2.66Zm7.29.73c-.3-.55-.71-.98-1.21-1.27-.51-.29-1.07-.44-1.68-.44s-1.17.14-1.67.43-.91.71-1.21,1.26-.45,1.2-.45,1.94.15,1.41.45,1.97.7.98,1.21,1.28,1.06.44,1.67.44,1.17-.15,1.68-.44c.51-.29.91-.72,1.21-1.28.3-.56.45-1.21.45-1.95s-.15-1.39-.45-1.94Z"/>
      <path class="z" d="m181.25,260.82c.64-.38,1.39-.57,2.24-.57s1.67.21,2.39.63c.71.42,1.27,1.01,1.68,1.77.41.76.61,1.65.61,2.66s-.2,1.88-.61,2.66-.97,1.39-1.68,1.82c-.71.43-1.51.65-2.39.65s-1.58-.19-2.22-.57c-.64-.38-1.13-.85-1.47-1.41v6.5h-1.64v-14.54h1.64v1.82c.32-.56.81-1.04,1.45-1.41Zm4.8,2.55c-.3-.55-.71-.97-1.21-1.26s-1.07-.43-1.68-.43-1.15.15-1.66.44c-.51.29-.92.72-1.22,1.28-.31.56-.46,1.2-.46,1.93s.15,1.4.46,1.95.71.98,1.22,1.28c.51.29,1.06.44,1.66.44s1.17-.15,1.68-.44.91-.72,1.21-1.28c.3-.56.45-1.21.45-1.97s-.15-1.39-.45-1.94Z"/>
      <path class="z" d="m190.39,258.49c-.22-.22-.32-.48-.32-.79s.11-.58.32-.79.48-.32.79-.32.56.11.76.32c.21.22.32.48.32.79s-.1.58-.32.79c-.21.22-.46.32-.76.32s-.58-.11-.79-.32Zm1.58,1.93v9.86h-1.64v-9.86h1.64Z"/>
      <path class="z" d="m194.76,262.66c.41-.76.97-1.35,1.68-1.77.71-.42,1.52-.63,2.4-.63.77,0,1.48.18,2.14.53.66.35,1.16.82,1.51,1.4v-5.22h1.66v13.32h-1.66v-1.85c-.32.59-.8,1.07-1.44,1.45-.64.38-1.38.57-2.23.57s-1.67-.22-2.38-.65c-.71-.43-1.28-1.04-1.68-1.82-.41-.78-.61-1.67-.61-2.66s.2-1.89.61-2.66Zm7.29.73c-.3-.55-.71-.98-1.21-1.27-.51-.29-1.07-.44-1.68-.44s-1.17.14-1.67.43-.91.71-1.21,1.26-.45,1.2-.45,1.94.15,1.41.45,1.97.7.98,1.21,1.28,1.06.44,1.67.44,1.17-.15,1.68-.44c.51-.29.91-.72,1.21-1.28.3-.56.45-1.21.45-1.95s-.15-1.39-.45-1.94Z"/>
      <path class="z" d="m208.57,256.96v13.32h-1.64v-13.32h1.64Z"/>
      <path class="z" d="m219.85,260.42l-5.94,14.51h-1.69l1.94-4.75-3.98-9.76h1.82l3.1,7.99,3.06-7.99h1.69Z"/>
      <path class="z" d="m226.3,262.66c.41-.76.97-1.35,1.68-1.77.71-.42,1.52-.63,2.4-.63.77,0,1.48.18,2.14.53.66.35,1.16.82,1.51,1.4v-5.22h1.66v13.32h-1.66v-1.85c-.32.59-.8,1.07-1.44,1.45-.64.38-1.38.57-2.23.57s-1.67-.22-2.39-.65c-.71-.43-1.27-1.04-1.68-1.82-.41-.78-.61-1.67-.61-2.66s.21-1.89.61-2.66Zm7.29.73c-.3-.55-.71-.98-1.21-1.27s-1.07-.44-1.68-.44-1.17.14-1.67.43-.91.71-1.21,1.26c-.3.55-.45,1.2-.45,1.94s.15,1.41.45,1.97c.3.56.7.98,1.21,1.28s1.06.44,1.67.44,1.17-.15,1.68-.44.92-.72,1.21-1.28.45-1.21.45-1.95-.15-1.39-.45-1.94Z"/>
      <path class="z" d="m247.41,265.96h-7.88c.06.97.39,1.73,1,2.28.61.55,1.34.82,2.21.82.71,0,1.3-.17,1.77-.5s.81-.77,1-1.32h1.76c-.26.95-.79,1.72-1.58,2.31-.79.59-1.78.89-2.95.89-.94,0-1.77-.21-2.51-.63s-1.32-1.02-1.74-1.79c-.42-.77-.63-1.67-.63-2.69s.21-1.91.61-2.68c.41-.77.98-1.36,1.72-1.77.74-.41,1.59-.62,2.55-.62s1.76.2,2.48.61c.72.41,1.27.97,1.66,1.68.39.71.59,1.52.59,2.42,0,.31-.02.64-.05.99Zm-2.05-2.94c-.28-.45-.65-.79-1.12-1.03-.47-.23-1-.35-1.57-.35-.83,0-1.53.26-2.12.79s-.92,1.26-1,2.2h6.23c0-.62-.14-1.16-.41-1.61Z"/>
      <path class="z" d="m251.62,261.77v5.81c0,.48.1.82.31,1.02.2.2.56.3,1.06.3h1.21v1.39h-1.48c-.91,0-1.6-.21-2.05-.63-.46-.42-.68-1.11-.68-2.07v-5.81h-1.28v-1.35h1.28v-2.48h1.64v2.48h2.57v1.35h-2.57Z"/>
      <path class="z" d="m265.12,265.96h-7.88c.06.97.39,1.73,1,2.28s1.34.82,2.21.82c.71,0,1.3-.17,1.77-.5.47-.33.81-.77,1-1.32h1.76c-.26.95-.79,1.72-1.58,2.31-.79.59-1.78.89-2.95.89-.94,0-1.77-.21-2.51-.63-.74-.42-1.32-1.02-1.74-1.79-.42-.77-.63-1.67-.63-2.69s.2-1.91.61-2.68.98-1.36,1.72-1.77,1.59-.62,2.55-.62,1.76.2,2.48.61c.72.41,1.28.97,1.66,1.68.39.71.59,1.52.59,2.42,0,.31-.02.64-.05.99Zm-2.05-2.94c-.28-.45-.65-.79-1.12-1.03s-1-.35-1.58-.35c-.83,0-1.53.26-2.12.79s-.91,1.26-1,2.2h6.23c0-.62-.14-1.16-.41-1.61Z"/>
      <path class="z" d="m267.34,262.66c.41-.76.97-1.35,1.7-1.77.73-.42,1.56-.63,2.49-.63,1.21,0,2.21.29,3,.88.79.59,1.3,1.4,1.56,2.45h-1.76c-.17-.6-.5-1.07-.98-1.42-.49-.35-1.09-.52-1.81-.52-.94,0-1.69.32-2.27.96s-.86,1.55-.86,2.73.29,2.11.86,2.75c.58.65,1.33.97,2.27.97.72,0,1.32-.17,1.8-.5.48-.34.81-.82.99-1.44h1.76c-.26,1.01-.79,1.82-1.58,2.42-.79.61-1.78.91-2.97.91-.94,0-1.77-.21-2.49-.63-.73-.42-1.29-1.01-1.7-1.78-.41-.77-.61-1.67-.61-2.7s.2-1.91.61-2.67Z"/>
      <path class="z" d="m280.26,261.77v5.81c0,.48.1.82.31,1.02.2.2.56.3,1.06.3h1.21v1.39h-1.48c-.91,0-1.6-.21-2.05-.63s-.68-1.11-.68-2.07v-5.81h-1.28v-1.35h1.28v-2.48h1.64v2.48h2.57v1.35h-2.57Z"/>
      <path class="z" d="m291.08,270.06c-.6-.26-1.07-.62-1.42-1.08s-.54-.99-.58-1.59h1.69c.05.49.28.89.69,1.21.41.31.96.47,1.63.47.62,0,1.12-.14,1.48-.41s.54-.62.54-1.04-.19-.75-.58-.96c-.38-.21-.98-.42-1.78-.62-.73-.19-1.33-.39-1.79-.58-.46-.2-.86-.49-1.19-.88-.33-.39-.5-.9-.5-1.54,0-.5.15-.97.45-1.39s.73-.75,1.28-1c.55-.25,1.18-.37,1.89-.37,1.09,0,1.97.28,2.65.83.67.55,1.03,1.31,1.08,2.27h-1.64c-.04-.52-.24-.93-.62-1.24s-.88-.47-1.52-.47c-.59,0-1.06.13-1.4.38s-.52.58-.52.99c0,.32.1.59.31.8s.47.38.79.5c.32.13.76.27,1.32.42.71.19,1.28.38,1.73.57.44.19.83.46,1.14.84.32.37.48.86.49,1.46,0,.54-.15,1.03-.45,1.46-.3.43-.72.77-1.27,1.02s-1.17.37-1.88.37c-.76,0-1.43-.13-2.03-.39Z"/>
      <path class="z" d="m307.96,265.96h-7.88c.06.97.39,1.73,1,2.28s1.34.82,2.21.82c.71,0,1.3-.17,1.77-.5.47-.33.81-.77,1-1.32h1.76c-.26.95-.79,1.72-1.58,2.31-.79.59-1.78.89-2.95.89-.94,0-1.77-.21-2.51-.63-.74-.42-1.32-1.02-1.74-1.79-.42-.77-.63-1.67-.63-2.69s.2-1.91.61-2.68.98-1.36,1.72-1.77,1.59-.62,2.55-.62,1.76.2,2.48.61c.72.41,1.28.97,1.66,1.68.39.71.59,1.52.59,2.42,0,.31-.02.64-.05.99Zm-2.05-2.94c-.28-.45-.65-.79-1.12-1.03s-1-.35-1.58-.35c-.83,0-1.53.26-2.12.79s-.91,1.26-1,2.2h6.23c0-.62-.14-1.16-.41-1.61Z"/>
      <path class="z" d="m313.05,260.71c.53-.31,1.18-.47,1.95-.47v1.69h-.43c-1.84,0-2.75,1-2.75,2.99v5.36h-1.64v-9.86h1.64v1.6c.29-.56.7-1,1.23-1.31Z"/>
      <path class="z" d="m320.56,268.77l3.06-8.35h1.75l-3.87,9.86h-1.91l-3.87-9.86h1.76l3.08,8.35Z"/>
      <path class="z" d="m327.04,258.49c-.22-.22-.32-.48-.32-.79s.11-.58.32-.79.48-.32.79-.32.56.11.76.32c.21.22.32.48.32.79s-.1.58-.32.79c-.21.22-.46.32-.76.32s-.58-.11-.79-.32Zm1.58,1.93v9.86h-1.64v-9.86h1.64Z"/>
      <path class="z" d="m331.42,262.66c.41-.76.97-1.35,1.7-1.77.73-.42,1.56-.63,2.49-.63,1.21,0,2.21.29,3,.88.79.59,1.3,1.4,1.56,2.45h-1.76c-.17-.6-.49-1.07-.98-1.42-.49-.35-1.09-.52-1.81-.52-.94,0-1.69.32-2.27.96s-.86,1.55-.86,2.73.29,2.11.86,2.75c.58.65,1.33.97,2.27.97.72,0,1.32-.17,1.8-.5.48-.34.81-.82.99-1.44h1.76c-.26,1.01-.79,1.82-1.58,2.42-.79.61-1.78.91-2.97.91-.94,0-1.77-.21-2.49-.63-.73-.42-1.29-1.01-1.7-1.78-.41-.77-.61-1.67-.61-2.7s.2-1.91.61-2.67Z"/>
      <path class="z" d="m351.29,265.96h-7.88c.06.97.39,1.73,1,2.28s1.34.82,2.21.82c.71,0,1.3-.17,1.77-.5.47-.33.81-.77,1-1.32h1.76c-.26.95-.79,1.72-1.58,2.31-.79.59-1.78.89-2.95.89-.94,0-1.77-.21-2.51-.63s-1.32-1.02-1.74-1.79c-.42-.77-.63-1.67-.63-2.69s.2-1.91.61-2.68c.41-.77.98-1.36,1.72-1.77s1.59-.62,2.55-.62,1.76.2,2.48.61,1.27.97,1.67,1.68c.39.71.58,1.52.58,2.42,0,.31-.02.64-.05.99Zm-2.05-2.94c-.28-.45-.65-.79-1.12-1.03s-1-.35-1.57-.35c-.83,0-1.53.26-2.12.79s-.92,1.26-1,2.2h6.23c0-.62-.14-1.16-.41-1.61Z"/>
      <path class="z" d="m68.02,290.74c.41-.76.97-1.35,1.68-1.77.71-.42,1.52-.63,2.4-.63.77,0,1.48.18,2.14.53.66.35,1.16.82,1.51,1.4v-5.22h1.66v13.32h-1.66v-1.85c-.32.59-.8,1.07-1.44,1.45-.64.38-1.38.57-2.23.57s-1.67-.22-2.38-.65c-.71-.43-1.28-1.04-1.68-1.82-.41-.78-.61-1.67-.61-2.66s.2-1.89.61-2.66Zm7.29.73c-.3-.55-.71-.98-1.21-1.27-.51-.29-1.07-.44-1.68-.44s-1.17.14-1.67.43-.91.71-1.21,1.26-.45,1.2-.45,1.94.15,1.41.45,1.97.7.98,1.21,1.28,1.06.44,1.67.44,1.17-.15,1.68-.44c.51-.29.91-.72,1.21-1.28.3-.56.45-1.21.45-1.95s-.15-1.39-.45-1.94Z"/>
      <path class="z" d="m89.14,294.04h-7.88c.06.97.39,1.73,1,2.28s1.34.82,2.21.82c.71,0,1.3-.17,1.77-.5.47-.33.81-.77,1-1.32h1.76c-.26.95-.79,1.72-1.58,2.31-.79.59-1.78.89-2.95.89-.94,0-1.77-.21-2.51-.63s-1.32-1.02-1.74-1.79c-.42-.77-.63-1.67-.63-2.69s.2-1.91.61-2.68c.41-.77.98-1.36,1.72-1.77s1.59-.62,2.55-.62,1.76.2,2.48.61,1.27.97,1.67,1.68c.39.71.58,1.52.58,2.42,0,.31-.02.64-.05.99Zm-2.05-2.94c-.28-.45-.65-.79-1.12-1.03s-1-.35-1.57-.35c-.83,0-1.53.26-2.12.79s-.92,1.26-1,2.2h6.23c0-.62-.14-1.16-.41-1.61Z"/>
      <path class="z" d="m93.35,289.85v5.81c0,.48.1.82.31,1.02.2.2.56.3,1.06.3h1.21v1.39h-1.48c-.91,0-1.6-.21-2.05-.63-.46-.42-.68-1.11-.68-2.07v-5.81h-1.28v-1.35h1.28v-2.48h1.64v2.48h2.57v1.35h-2.57Z"/>
      <path class="z" d="m106.85,294.04h-7.88c.06.97.39,1.73,1,2.28s1.34.82,2.21.82c.71,0,1.3-.17,1.77-.5.47-.33.81-.77,1-1.32h1.76c-.26.95-.79,1.72-1.58,2.31-.79.59-1.78.89-2.95.89-.94,0-1.77-.21-2.51-.63-.74-.42-1.32-1.02-1.74-1.79-.42-.77-.63-1.67-.63-2.69s.2-1.91.61-2.68.98-1.36,1.72-1.77,1.59-.62,2.55-.62,1.76.2,2.48.61c.72.41,1.28.97,1.66,1.68.39.71.59,1.52.59,2.42,0,.31-.02.64-.05.99Zm-2.05-2.94c-.28-.45-.65-.79-1.12-1.03s-1-.35-1.58-.35c-.83,0-1.53.26-2.12.79s-.91,1.26-1,2.2h6.23c0-.62-.14-1.16-.41-1.61Z"/>
      <path class="z" d="m111.93,288.79c.53-.31,1.18-.47,1.95-.47v1.69h-.43c-1.84,0-2.75,1-2.75,2.99v5.36h-1.64v-9.86h1.64v1.6c.29-.56.7-1,1.23-1.31Z"/>
      <path class="z" d="m115.83,286.57c-.22-.22-.32-.48-.32-.79s.11-.58.32-.79.48-.32.79-.32.56.11.76.32c.21.22.32.48.32.79s-.1.58-.32.79c-.21.22-.46.32-.76.32s-.58-.11-.79-.32Zm1.58,1.93v9.86h-1.64v-9.86h1.64Z"/>
      <path class="z" d="m121.99,297.89c-.75-.42-1.34-1.02-1.76-1.79-.43-.77-.64-1.67-.64-2.69s.22-1.9.66-2.67,1.03-1.37,1.79-1.78c.76-.41,1.6-.62,2.54-.62s1.78.21,2.54.62c.76.41,1.35,1.01,1.79,1.77.44.77.66,1.66.66,2.68s-.23,1.92-.68,2.69c-.45.77-1.06,1.37-1.83,1.79-.77.42-1.62.63-2.56.63s-1.76-.21-2.51-.63Zm4.17-1.22c.52-.28.93-.69,1.25-1.24.32-.55.48-1.22.48-2.02s-.16-1.46-.47-2.02-.72-.96-1.22-1.23c-.5-.27-1.05-.4-1.64-.4s-1.15.13-1.65.4c-.5.27-.9.68-1.2,1.23s-.45,1.22-.45,2.02.15,1.48.44,2.03c.29.55.69.96,1.18,1.23.49.27,1.03.4,1.62.4s1.14-.14,1.66-.41Z"/>
      <path class="z" d="m134.59,288.79c.53-.31,1.18-.47,1.95-.47v1.69h-.43c-1.84,0-2.75,1-2.75,2.99v5.36h-1.64v-9.86h1.64v1.6c.29-.56.7-1,1.23-1.31Z"/>
      <path class="z" d="m138.44,290.74c.41-.76.97-1.35,1.68-1.77.71-.42,1.51-.63,2.38-.63s1.61.19,2.25.56c.64.37,1.11.84,1.42,1.4v-1.8h1.66v9.86h-1.66v-1.84c-.32.58-.81,1.05-1.45,1.43s-1.39.57-2.24.57-1.67-.22-2.38-.65c-.71-.43-1.27-1.04-1.67-1.82s-.61-1.67-.61-2.66.2-1.89.61-2.66Zm7.29.73c-.3-.55-.71-.98-1.21-1.27-.51-.29-1.07-.44-1.68-.44s-1.17.14-1.67.43-.91.71-1.21,1.26c-.3.55-.45,1.2-.45,1.94s.15,1.41.45,1.97c.3.56.7.98,1.21,1.28s1.06.44,1.67.44,1.17-.15,1.68-.44c.51-.29.92-.72,1.21-1.28s.45-1.21.45-1.95-.15-1.39-.45-1.94Z"/>
      <path class="z" d="m152.6,289.85v5.81c0,.48.1.82.31,1.02.2.2.56.3,1.06.3h1.21v1.39h-1.48c-.91,0-1.6-.21-2.05-.63-.46-.42-.68-1.11-.68-2.07v-5.81h-1.28v-1.35h1.28v-2.48h1.64v2.48h2.57v1.35h-2.57Z"/>
      <path class="z" d="m157.21,286.57c-.21-.22-.32-.48-.32-.79s.11-.58.32-.79c.22-.22.48-.32.79-.32s.55.11.76.32.32.48.32.79-.11.58-.32.79-.47.32-.76.32-.58-.11-.79-.32Zm1.58,1.93v9.86h-1.64v-9.86h1.64Z"/>
      <path class="z" d="m163.38,297.89c-.75-.42-1.34-1.02-1.76-1.79-.43-.77-.64-1.67-.64-2.69s.22-1.9.66-2.67c.44-.77,1.03-1.37,1.79-1.78.76-.41,1.6-.62,2.54-.62s1.78.21,2.54.62c.76.41,1.35,1.01,1.79,1.77s.66,1.66.66,2.68-.22,1.92-.68,2.69c-.45.77-1.06,1.37-1.83,1.79s-1.62.63-2.56.63-1.76-.21-2.51-.63Zm4.17-1.22c.52-.28.93-.69,1.25-1.24.32-.55.48-1.22.48-2.02s-.16-1.46-.47-2.02c-.31-.55-.72-.96-1.22-1.23-.5-.27-1.05-.4-1.64-.4s-1.15.13-1.65.4c-.5.27-.9.68-1.2,1.23-.3.55-.45,1.22-.45,2.02s.15,1.48.44,2.03c.29.55.69.96,1.18,1.23.49.27,1.03.4,1.62.4s1.14-.14,1.66-.41Z"/>
      <path class="z" d="m180.83,289.41c.74.73,1.12,1.77,1.12,3.14v5.81h-1.62v-5.58c0-.98-.25-1.74-.74-2.26-.49-.52-1.16-.78-2.02-.78s-1.55.27-2.06.81c-.51.54-.76,1.33-.76,2.36v5.45h-1.64v-9.86h1.64v1.4c.32-.5.76-.89,1.32-1.17.56-.28,1.17-.41,1.84-.41,1.2,0,2.17.36,2.92,1.09Z"/>
      <path class="z" d="m189.43,290.74c.41-.76.97-1.35,1.68-1.77.71-.42,1.51-.63,2.39-.63s1.61.19,2.25.56c.63.37,1.11.84,1.42,1.4v-1.8h1.66v9.86h-1.66v-1.84c-.32.58-.81,1.05-1.45,1.43-.64.38-1.39.57-2.24.57s-1.67-.22-2.38-.65c-.71-.43-1.27-1.04-1.67-1.82s-.61-1.67-.61-2.66.2-1.89.61-2.66Zm7.29.73c-.3-.55-.71-.98-1.21-1.27s-1.07-.44-1.68-.44-1.17.14-1.67.43-.91.71-1.21,1.26-.45,1.2-.45,1.94.15,1.41.45,1.97.7.98,1.21,1.28,1.06.44,1.67.44,1.17-.15,1.68-.44.92-.72,1.21-1.28c.3-.56.45-1.21.45-1.95s-.15-1.39-.45-1.94Z"/>
      <path class="z" d="m209.32,289.41c.74.73,1.12,1.77,1.12,3.14v5.81h-1.62v-5.58c0-.98-.25-1.74-.74-2.26-.49-.52-1.16-.78-2.02-.78s-1.55.27-2.06.81c-.51.54-.76,1.33-.76,2.36v5.45h-1.64v-9.86h1.64v1.4c.32-.5.76-.89,1.32-1.17.56-.28,1.17-.41,1.84-.41,1.2,0,2.17.36,2.92,1.09Z"/>
      <path class="z" d="m213.12,290.74c.41-.76.97-1.35,1.68-1.77.71-.42,1.51-.63,2.4-.63.77,0,1.48.18,2.14.53.66.35,1.16.82,1.51,1.4v-5.22h1.66v13.32h-1.66v-1.85c-.32.59-.8,1.07-1.44,1.45-.64.38-1.38.57-2.23.57s-1.67-.22-2.38-.65c-.71-.43-1.28-1.04-1.68-1.82s-.61-1.67-.61-2.66.2-1.89.61-2.66Zm7.29.73c-.3-.55-.71-.98-1.21-1.27-.51-.29-1.07-.44-1.68-.44s-1.17.14-1.67.43-.91.71-1.21,1.26c-.3.55-.45,1.2-.45,1.94s.15,1.41.45,1.97c.3.56.7.98,1.21,1.28s1.06.44,1.67.44,1.17-.15,1.68-.44c.51-.29.92-.72,1.21-1.28s.45-1.21.45-1.95-.15-1.39-.45-1.94Z"/>
      <path class="z" d="m231.73,285.04v13.32h-1.64v-13.32h1.64Z"/>
      <path class="z" d="m236.31,297.89c-.75-.42-1.34-1.02-1.76-1.79-.43-.77-.64-1.67-.64-2.69s.22-1.9.66-2.67c.44-.77,1.04-1.37,1.79-1.78s1.6-.62,2.54-.62,1.78.21,2.54.62,1.35,1.01,1.79,1.77c.44.77.66,1.66.66,2.68s-.22,1.92-.67,2.69c-.45.77-1.06,1.37-1.83,1.79s-1.62.63-2.56.63-1.76-.21-2.51-.63Zm4.17-1.22c.52-.28.93-.69,1.25-1.24.32-.55.48-1.22.48-2.02s-.16-1.46-.47-2.02-.72-.96-1.22-1.23c-.5-.27-1.05-.4-1.64-.4s-1.15.13-1.65.4c-.5.27-.9.68-1.2,1.23s-.45,1.22-.45,2.02.15,1.48.44,2.03.69.96,1.18,1.23c.49.27,1.03.4,1.62.4s1.14-.14,1.66-.41Z"/>
      <path class="z" d="m246.04,290.74c.41-.76.97-1.35,1.68-1.77.71-.42,1.51-.63,2.38-.63s1.61.19,2.25.56c.64.37,1.11.84,1.42,1.4v-1.8h1.66v9.86h-1.66v-1.84c-.32.58-.81,1.05-1.45,1.43s-1.39.57-2.24.57-1.67-.22-2.38-.65c-.71-.43-1.27-1.04-1.67-1.82s-.61-1.67-.61-2.66.2-1.89.61-2.66Zm7.29.73c-.3-.55-.71-.98-1.21-1.27-.51-.29-1.07-.44-1.68-.44s-1.17.14-1.67.43-.91.71-1.21,1.26c-.3.55-.45,1.2-.45,1.94s.15,1.41.45,1.97c.3.56.7.98,1.21,1.28s1.06.44,1.67.44,1.17-.15,1.68-.44c.51-.29.92-.72,1.21-1.28s.45-1.21.45-1.95-.15-1.39-.45-1.94Z"/>
      <path class="z" d="m258.21,290.74c.41-.76.97-1.35,1.68-1.77.71-.42,1.51-.63,2.4-.63.77,0,1.48.18,2.14.53.66.35,1.16.82,1.51,1.4v-5.22h1.66v13.32h-1.66v-1.85c-.32.59-.8,1.07-1.44,1.45-.64.38-1.38.57-2.23.57s-1.67-.22-2.38-.65c-.71-.43-1.28-1.04-1.68-1.82s-.61-1.67-.61-2.66.2-1.89.61-2.66Zm7.29.73c-.3-.55-.71-.98-1.21-1.27-.51-.29-1.07-.44-1.68-.44s-1.17.14-1.67.43-.91.71-1.21,1.26c-.3.55-.45,1.2-.45,1.94s.15,1.41.45,1.97c.3.56.7.98,1.21,1.28s1.06.44,1.67.44,1.17-.15,1.68-.44c.51-.29.92-.72,1.21-1.28s.45-1.21.45-1.95-.15-1.39-.45-1.94Z"/>
      <path class="z" d="m278.3,288.89c.65-.37,1.39-.56,2.21-.56.89,0,1.69.21,2.39.63.71.42,1.27,1.01,1.67,1.77.41.76.61,1.65.61,2.66s-.2,1.88-.61,2.66c-.41.78-.97,1.39-1.68,1.82-.71.43-1.51.65-2.38.65s-1.6-.19-2.24-.56c-.64-.37-1.12-.85-1.45-1.42v1.82h-1.64v-13.32h1.64v5.29c.34-.59.83-1.07,1.48-1.44Zm4.77,2.56c-.3-.55-.71-.97-1.21-1.26-.51-.29-1.07-.43-1.68-.43s-1.16.15-1.67.44-.92.72-1.22,1.28c-.31.56-.46,1.2-.46,1.93s.15,1.4.46,1.95.71.98,1.22,1.28,1.07.44,1.67.44,1.17-.15,1.68-.44c.51-.29.92-.72,1.21-1.28s.45-1.21.45-1.97-.15-1.39-.45-1.94Z"/>
      <path class="z" d="m296.1,288.5v9.86h-1.64v-1.46c-.31.5-.75.9-1.3,1.18-.56.28-1.17.42-1.84.42-.77,0-1.46-.16-2.07-.48-.61-.32-1.09-.79-1.45-1.43-.35-.64-.53-1.41-.53-2.32v-5.78h1.62v5.56c0,.97.25,1.72.74,2.24.49.52,1.16.78,2.02.78s1.57-.27,2.07-.81.76-1.33.76-2.36v-5.42h1.64Z"/>
      <path class="z" d="m298.93,286.57c-.22-.22-.32-.48-.32-.79s.11-.58.32-.79c.21-.22.48-.32.79-.32s.56.11.77.32.31.48.31.79-.1.58-.31.79-.46.32-.77.32-.58-.11-.79-.32Zm1.58,1.93v9.86h-1.64v-9.86h1.64Z"/>
      <path class="z" d="m304.94,285.04v13.32h-1.64v-13.32h1.64Z"/>
      <path class="z" d="m307.73,290.74c.41-.76.97-1.35,1.68-1.77.71-.42,1.51-.63,2.4-.63.77,0,1.48.18,2.14.53.66.35,1.16.82,1.51,1.4v-5.22h1.66v13.32h-1.66v-1.85c-.32.59-.8,1.07-1.44,1.45-.64.38-1.38.57-2.23.57s-1.67-.22-2.38-.65c-.71-.43-1.28-1.04-1.68-1.82s-.61-1.67-.61-2.66.2-1.89.61-2.66Zm7.29.73c-.3-.55-.71-.98-1.21-1.27-.51-.29-1.07-.44-1.68-.44s-1.17.14-1.67.43-.91.71-1.21,1.26c-.3.55-.45,1.2-.45,1.94s.15,1.41.45,1.97c.3.56.7.98,1.21,1.28s1.06.44,1.67.44,1.17-.15,1.68-.44c.51-.29.92-.72,1.21-1.28s.45-1.21.45-1.95-.15-1.39-.45-1.94Z"/>
      <path class="z" d="m326.73,291.07v1.39h-7.18v-1.39h7.18Z"/>
      <path class="z" d="m338.56,288.5v9.86h-1.64v-1.46c-.31.5-.75.9-1.31,1.18-.56.28-1.17.42-1.84.42-.77,0-1.46-.16-2.07-.48-.61-.32-1.1-.79-1.45-1.43-.35-.64-.53-1.41-.53-2.32v-5.78h1.62v5.56c0,.97.25,1.72.74,2.24.49.52,1.16.78,2.02.78s1.57-.27,2.07-.81c.5-.54.76-1.33.76-2.36v-5.42h1.64Z"/>
      <path class="z" d="m344.42,288.9c.64-.38,1.39-.57,2.24-.57s1.67.21,2.39.63c.71.42,1.27,1.01,1.68,1.77.41.76.61,1.65.61,2.66s-.2,1.88-.61,2.66-.97,1.39-1.68,1.82c-.71.43-1.51.65-2.39.65s-1.58-.19-2.22-.57c-.64-.38-1.13-.85-1.47-1.41v6.5h-1.64v-14.54h1.64v1.82c.32-.56.81-1.04,1.45-1.41Zm4.8,2.55c-.3-.55-.71-.97-1.21-1.26s-1.07-.43-1.68-.43-1.15.15-1.66.44c-.51.29-.92.72-1.22,1.28-.31.56-.46,1.2-.46,1.93s.15,1.4.46,1.95.71.98,1.22,1.28c.51.29,1.06.44,1.66.44s1.17-.15,1.68-.44.91-.72,1.21-1.28c.3-.56.45-1.21.45-1.97s-.15-1.39-.45-1.94Z"/>
    </g>
    <g>
      <path class="z" d="m682.86,357.15h-5.47l-1.01,2.79h-1.73l4.54-12.47h1.89l4.52,12.47h-1.73l-1.01-2.79Zm-.47-1.33l-2.27-6.34-2.27,6.34h4.54Z"/>
      <path class="z" d="m689.21,346.62v13.32h-1.64v-13.32h1.64Z"/>
      <path class="z" d="m705.14,350.07l-3.08,9.86h-1.69l-2.38-7.83-2.38,7.83h-1.69l-3.1-9.86h1.67l2.27,8.28,2.45-8.28h1.67l2.39,8.3,2.23-8.3h1.62Z"/>
      <path class="z" d="m706.76,352.31c.41-.76.97-1.35,1.68-1.77.71-.42,1.51-.63,2.38-.63s1.61.19,2.25.56,1.11.84,1.42,1.4v-1.8h1.66v9.86h-1.66v-1.84c-.32.58-.81,1.05-1.45,1.43-.64.38-1.39.57-2.24.57s-1.67-.22-2.38-.65c-.71-.43-1.27-1.04-1.67-1.82-.41-.78-.61-1.67-.61-2.66s.2-1.89.61-2.66Zm7.29.73c-.3-.55-.71-.98-1.21-1.27s-1.07-.44-1.68-.44-1.17.14-1.67.43-.91.71-1.21,1.26-.45,1.2-.45,1.94.15,1.41.45,1.97.7.98,1.21,1.28,1.06.44,1.67.44,1.17-.15,1.68-.44.92-.72,1.21-1.28.45-1.21.45-1.95-.15-1.39-.45-1.94Z"/>
      <path class="z" d="m727.42,350.07l-5.94,14.51h-1.69l1.94-4.75-3.98-9.76h1.82l3.1,7.99,3.06-7.99h1.69Z"/>
      <path class="z" d="m730.52,359.71c-.6-.26-1.07-.62-1.42-1.08-.35-.46-.54-.99-.58-1.59h1.69c.05.49.28.89.69,1.21.41.31.96.47,1.63.47.62,0,1.12-.14,1.48-.41.36-.28.54-.62.54-1.04s-.19-.75-.58-.96c-.38-.21-.98-.42-1.78-.62-.73-.19-1.33-.39-1.79-.58-.46-.2-.86-.49-1.19-.88-.33-.39-.5-.9-.5-1.54,0-.5.15-.97.45-1.39s.73-.75,1.28-1c.55-.25,1.18-.37,1.89-.37,1.09,0,1.97.28,2.65.83.67.55,1.03,1.31,1.08,2.27h-1.64c-.04-.52-.24-.93-.62-1.24s-.88-.47-1.52-.47c-.59,0-1.06.13-1.4.38s-.52.58-.52.99c0,.32.1.59.31.8s.47.38.79.5.76.27,1.32.42c.71.19,1.28.38,1.73.57.44.19.83.46,1.14.84.32.37.48.86.5,1.46,0,.54-.15,1.03-.45,1.46-.3.43-.72.77-1.27,1.02s-1.17.37-1.88.37c-.76,0-1.43-.13-2.03-.39Z"/>
      <path class="z" d="m745.3,352.65v1.39h-7.18v-1.39h7.18Z"/>
      <path class="z" d="m750.17,359.47c-.75-.42-1.34-1.02-1.76-1.79-.43-.77-.64-1.67-.64-2.69s.22-1.9.66-2.67,1.04-1.37,1.79-1.78,1.6-.62,2.54-.62,1.78.21,2.54.62,1.35,1.01,1.79,1.77c.44.77.66,1.66.66,2.68s-.23,1.92-.68,2.69c-.45.77-1.06,1.37-1.83,1.79-.77.42-1.62.63-2.56.63s-1.76-.21-2.51-.63Zm4.17-1.22c.52-.28.93-.69,1.25-1.24.32-.55.48-1.22.48-2.02s-.16-1.46-.47-2.02c-.31-.55-.72-.96-1.22-1.23-.5-.27-1.05-.4-1.64-.4s-1.15.13-1.65.4c-.5.27-.9.68-1.2,1.23s-.45,1.22-.45,2.02.15,1.48.44,2.03.69.96,1.18,1.23c.49.27,1.03.4,1.62.4s1.14-.14,1.66-.41Z"/>
      <path class="z" d="m767.62,350.98c.74.73,1.12,1.77,1.12,3.14v5.81h-1.62v-5.58c0-.98-.25-1.74-.74-2.26-.49-.52-1.16-.78-2.02-.78s-1.55.27-2.06.81c-.51.54-.76,1.33-.76,2.36v5.45h-1.64v-9.86h1.64v1.4c.32-.5.76-.89,1.32-1.17.56-.28,1.17-.41,1.84-.41,1.2,0,2.17.36,2.92,1.09Z"/>
      <path class="z" d="m783.64,357.15h-5.47l-1.01,2.79h-1.73l4.54-12.47h1.89l4.52,12.47h-1.73l-1.01-2.79Zm-.47-1.33l-2.27-6.34-2.27,6.34h4.54Z"/>
      <path class="z" d="m791.44,350.48c.64-.38,1.39-.57,2.24-.57s1.67.21,2.39.63c.71.42,1.27,1.01,1.68,1.77.41.76.61,1.65.61,2.66s-.2,1.88-.61,2.66-.97,1.39-1.68,1.82c-.71.43-1.51.65-2.39.65s-1.58-.19-2.22-.57-1.13-.85-1.47-1.41v6.5h-1.64v-14.54h1.64v1.82c.32-.56.81-1.04,1.45-1.41Zm4.8,2.55c-.3-.55-.71-.97-1.21-1.26-.51-.29-1.07-.43-1.68-.43s-1.16.15-1.67.44-.92.72-1.22,1.28c-.31.56-.46,1.2-.46,1.93s.15,1.4.46,1.95c.31.56.71.98,1.22,1.28s1.07.44,1.67.44,1.17-.15,1.68-.44c.51-.29.91-.72,1.21-1.28.3-.56.45-1.21.45-1.97s-.15-1.39-.45-1.94Z"/>
      <path class="z" d="m809.47,355.62h-7.88c.06.97.39,1.73,1,2.28.61.55,1.34.82,2.21.82.71,0,1.3-.17,1.77-.5.47-.33.81-.77,1-1.32h1.76c-.26.95-.79,1.72-1.58,2.31-.79.59-1.78.89-2.95.89-.94,0-1.77-.21-2.51-.63-.74-.42-1.32-1.02-1.74-1.79-.42-.77-.63-1.67-.63-2.69s.2-1.91.61-2.68c.41-.77.98-1.36,1.72-1.77.74-.41,1.59-.62,2.55-.62s1.76.2,2.48.61c.72.41,1.27.97,1.66,1.68.39.71.59,1.52.59,2.42,0,.31-.02.64-.05.99Zm-2.05-2.94c-.28-.45-.65-.79-1.12-1.03-.47-.23-1-.35-1.58-.35-.83,0-1.53.26-2.12.79s-.92,1.26-1,2.2h6.23c0-.62-.14-1.16-.41-1.61Z"/>
      <path class="z" d="m814.55,350.36c.53-.31,1.19-.47,1.95-.47v1.69h-.43c-1.84,0-2.75,1-2.75,2.99v5.36h-1.64v-9.86h1.64v1.6c.29-.56.7-1,1.23-1.31Z"/>
      <path class="z" d="m820.39,351.42v5.81c0,.48.1.82.31,1.02.2.2.56.3,1.06.3h1.21v1.39h-1.48c-.91,0-1.6-.21-2.05-.63-.46-.42-.68-1.11-.68-2.07v-5.81h-1.28v-1.35h1.28v-2.48h1.64v2.48h2.57v1.35h-2.57Z"/>
      <path class="z" d="m833.69,350.07v9.86h-1.64v-1.46c-.31.5-.75.9-1.3,1.18-.56.28-1.17.42-1.84.42-.77,0-1.46-.16-2.07-.48-.61-.32-1.1-.79-1.45-1.43-.35-.64-.53-1.41-.53-2.32v-5.78h1.62v5.56c0,.97.25,1.72.74,2.24.49.52,1.16.78,2.02.78s1.57-.27,2.07-.81.76-1.33.76-2.36v-5.42h1.64Z"/>
      <path class="z" d="m839.34,350.36c.53-.31,1.18-.47,1.95-.47v1.69h-.43c-1.84,0-2.75,1-2.75,2.99v5.36h-1.64v-9.86h1.64v1.6c.29-.56.7-1,1.23-1.31Z"/>
      <path class="z" d="m852.13,355.62h-7.88c.06.97.39,1.73,1,2.28.61.55,1.34.82,2.21.82.71,0,1.3-.17,1.77-.5.47-.33.81-.77,1-1.32h1.76c-.26.95-.79,1.72-1.58,2.31-.79.59-1.78.89-2.95.89-.94,0-1.77-.21-2.51-.63s-1.32-1.02-1.74-1.79c-.42-.77-.63-1.67-.63-2.69s.2-1.91.61-2.68.98-1.36,1.72-1.77c.74-.41,1.59-.62,2.55-.62s1.76.2,2.48.61,1.28.97,1.67,1.68c.39.71.58,1.52.58,2.42,0,.31-.02.64-.05.99Zm-2.05-2.94c-.28-.45-.65-.79-1.12-1.03-.47-.23-1-.35-1.57-.35-.83,0-1.53.26-2.12.79s-.92,1.26-1,2.2h6.23c0-.62-.14-1.16-.41-1.61Z"/>
      <path class="z" d="m859.36,350.35c.55-.98,1.31-1.74,2.26-2.29.95-.55,2.01-.83,3.18-.83,1.37,0,2.56.33,3.58.99,1.02.66,1.76,1.6,2.23,2.81h-1.96c-.35-.76-.85-1.34-1.5-1.75-.65-.41-1.44-.61-2.35-.61s-1.66.2-2.36.61c-.7.41-1.24.99-1.64,1.74-.4.75-.59,1.63-.59,2.64s.2,1.87.59,2.62c.4.75.94,1.33,1.64,1.74s1.48.61,2.36.61,1.69-.2,2.35-.6,1.16-.98,1.5-1.74h1.96c-.47,1.2-1.21,2.13-2.23,2.78-1.02.65-2.21.98-3.58.98-1.16,0-2.22-.27-3.18-.82-.95-.55-1.71-1.3-2.26-2.28-.55-.97-.83-2.07-.83-3.29s.28-2.32.83-3.3Z"/>
      <path class="z" d="m874.83,359.47c-.75-.42-1.34-1.02-1.76-1.79-.43-.77-.64-1.67-.64-2.69s.22-1.9.66-2.67c.44-.77,1.03-1.37,1.79-1.78.76-.41,1.6-.62,2.54-.62s1.78.21,2.54.62c.76.41,1.35,1.01,1.79,1.77.44.77.66,1.66.66,2.68s-.22,1.92-.67,2.69c-.45.77-1.06,1.37-1.83,1.79s-1.62.63-2.56.63-1.76-.21-2.51-.63Zm4.17-1.22c.52-.28.93-.69,1.25-1.24.32-.55.48-1.22.48-2.02s-.16-1.46-.47-2.02c-.31-.55-.72-.96-1.22-1.23-.5-.27-1.05-.4-1.64-.4s-1.15.13-1.65.4c-.5.27-.9.68-1.2,1.23s-.45,1.22-.45,2.02.15,1.48.44,2.03c.29.55.69.96,1.18,1.23.49.27,1.03.4,1.62.4s1.14-.14,1.66-.41Z"/>
      <path class="z" d="m892.28,350.98c.74.73,1.12,1.77,1.12,3.14v5.81h-1.62v-5.58c0-.98-.25-1.74-.74-2.26-.49-.52-1.16-.78-2.02-.78s-1.55.27-2.06.81c-.51.54-.77,1.33-.77,2.36v5.45h-1.64v-9.86h1.64v1.4c.32-.5.77-.89,1.32-1.17s1.17-.41,1.84-.41c1.2,0,2.17.36,2.92,1.09Z"/>
      <path class="z" d="m898.08,351.42v5.81c0,.48.1.82.31,1.02.2.2.56.3,1.06.3h1.21v1.39h-1.48c-.91,0-1.6-.21-2.05-.63-.46-.42-.68-1.11-.68-2.07v-5.81h-1.28v-1.35h1.28v-2.48h1.64v2.48h2.57v1.35h-2.57Z"/>
      <path class="z" d="m905.5,350.36c.53-.31,1.19-.47,1.95-.47v1.69h-.43c-1.84,0-2.75,1-2.75,2.99v5.36h-1.64v-9.86h1.64v1.6c.29-.56.7-1,1.23-1.31Z"/>
      <path class="z" d="m911.14,359.47c-.75-.42-1.34-1.02-1.76-1.79-.43-.77-.64-1.67-.64-2.69s.22-1.9.66-2.67c.44-.77,1.03-1.37,1.79-1.78.76-.41,1.6-.62,2.54-.62s1.78.21,2.54.62c.76.41,1.35,1.01,1.79,1.77.44.77.66,1.66.66,2.68s-.22,1.92-.67,2.69c-.45.77-1.06,1.37-1.83,1.79s-1.62.63-2.56.63-1.76-.21-2.51-.63Zm4.17-1.22c.52-.28.93-.69,1.25-1.24.32-.55.48-1.22.48-2.02s-.16-1.46-.47-2.02c-.31-.55-.72-.96-1.22-1.23-.5-.27-1.05-.4-1.64-.4s-1.15.13-1.65.4c-.5.27-.9.68-1.2,1.23s-.45,1.22-.45,2.02.15,1.48.44,2.03c.29.55.69.96,1.18,1.23.49.27,1.03.4,1.62.4s1.14-.14,1.66-.41Z"/>
      <path class="z" d="m922.51,346.62v13.32h-1.64v-13.32h1.64Z"/>
      <path class="z" d="m926.93,346.62v13.32h-1.64v-13.32h1.64Z"/>
      <path class="z" d="m938.67,355.62h-7.88c.06.97.39,1.73,1,2.28.61.55,1.34.82,2.21.82.71,0,1.3-.17,1.77-.5.47-.33.81-.77,1-1.32h1.76c-.26.95-.79,1.72-1.58,2.31-.79.59-1.78.89-2.95.89-.94,0-1.77-.21-2.51-.63s-1.32-1.02-1.74-1.79c-.42-.77-.63-1.67-.63-2.69s.2-1.91.61-2.68.98-1.36,1.72-1.77c.74-.41,1.59-.62,2.55-.62s1.76.2,2.48.61,1.28.97,1.67,1.68c.39.71.58,1.52.58,2.42,0,.31-.02.64-.05.99Zm-2.05-2.94c-.28-.45-.65-.79-1.12-1.03-.47-.23-1-.35-1.57-.35-.83,0-1.53.26-2.12.79s-.92,1.26-1,2.2h6.23c0-.62-.14-1.16-.41-1.61Z"/>
      <path class="z" d="m943.75,350.36c.53-.31,1.19-.47,1.95-.47v1.69h-.43c-1.84,0-2.75,1-2.75,2.99v5.36h-1.64v-9.86h1.64v1.6c.29-.56.7-1,1.23-1.31Z"/>
      <path class="z" d="m675.44,380.39c.41-.76.97-1.35,1.68-1.77.71-.42,1.51-.63,2.38-.63s1.61.19,2.25.56,1.11.84,1.42,1.4v-1.8h1.66v9.86h-1.66v-1.84c-.32.58-.81,1.05-1.45,1.43-.64.38-1.39.57-2.24.57s-1.67-.22-2.38-.65c-.71-.43-1.27-1.04-1.67-1.82-.41-.78-.61-1.67-.61-2.66s.2-1.89.61-2.66Zm7.29.73c-.3-.55-.71-.98-1.21-1.27s-1.07-.44-1.68-.44-1.17.14-1.67.43-.91.71-1.21,1.26-.45,1.2-.45,1.94.15,1.41.45,1.97.7.98,1.21,1.28,1.06.44,1.67.44,1.17-.15,1.68-.44.92-.72,1.21-1.28.45-1.21.45-1.95-.15-1.39-.45-1.94Z"/>
      <path class="z" d="m687.61,380.39c.41-.76.97-1.35,1.68-1.77.71-.42,1.51-.63,2.4-.63.77,0,1.48.18,2.14.53.66.35,1.16.82,1.51,1.4v-5.22h1.66v13.32h-1.66v-1.85c-.32.59-.8,1.07-1.44,1.45-.64.38-1.38.57-2.23.57s-1.67-.22-2.38-.65c-.71-.43-1.28-1.04-1.68-1.82-.41-.78-.61-1.67-.61-2.66s.2-1.89.61-2.66Zm7.29.73c-.3-.55-.71-.98-1.21-1.27s-1.07-.44-1.68-.44-1.17.14-1.67.43-.91.71-1.21,1.26-.45,1.2-.45,1.94.15,1.41.45,1.97.7.98,1.21,1.28,1.06.44,1.67.44,1.17-.15,1.68-.44.92-.72,1.21-1.28.45-1.21.45-1.95-.15-1.39-.45-1.94Z"/>
      <path class="z" d="m701.47,390.16c0,.88-.22,1.52-.67,1.93-.44.41-1.09.61-1.94.61h-.95v-1.39h.68c.46,0,.78-.09.96-.27.19-.18.28-.49.28-.92v-11.97h1.64v12.01Zm-1.59-13.93c-.21-.22-.32-.48-.32-.79s.11-.58.32-.79.47-.32.78-.32.57.11.78.32.32.48.32.79-.11.58-.32.79-.47.32-.78.32-.57-.11-.78-.32Z"/>
      <path class="z" d="m712.99,378.15v9.86h-1.64v-1.46c-.31.5-.75.9-1.3,1.18-.56.28-1.17.42-1.84.42-.77,0-1.46-.16-2.07-.48-.61-.32-1.1-.79-1.45-1.43-.35-.64-.53-1.41-.53-2.32v-5.78h1.62v5.56c0,.97.25,1.72.74,2.24.49.52,1.16.78,2.02.78s1.57-.27,2.07-.81.76-1.33.76-2.36v-5.42h1.64Z"/>
      <path class="z" d="m717.22,387.79c-.6-.26-1.07-.62-1.42-1.08-.35-.46-.54-.99-.58-1.59h1.69c.05.49.28.89.69,1.21.41.31.96.47,1.63.47.62,0,1.12-.14,1.48-.41.36-.28.54-.62.54-1.04s-.19-.75-.58-.96-.98-.42-1.78-.62c-.73-.19-1.33-.39-1.79-.58-.46-.2-.86-.49-1.19-.88-.33-.39-.5-.9-.5-1.54,0-.5.15-.97.45-1.39.3-.42.73-.75,1.28-1,.55-.25,1.18-.37,1.89-.37,1.09,0,1.97.28,2.65.83.67.55,1.03,1.31,1.08,2.27h-1.64c-.04-.52-.24-.93-.62-1.24s-.88-.47-1.52-.47c-.59,0-1.06.13-1.4.38-.35.25-.52.58-.52.99,0,.32.11.59.32.8s.47.38.79.5c.32.13.76.27,1.32.42.71.19,1.28.38,1.73.57.44.19.83.46,1.14.84.32.37.48.86.5,1.46,0,.54-.15,1.03-.45,1.46-.3.43-.72.77-1.27,1.02s-1.17.37-1.88.37c-.76,0-1.43-.13-2.03-.39Z"/>
      <path class="z" d="m727.15,379.5v5.81c0,.48.1.82.31,1.02.2.2.56.3,1.06.3h1.21v1.39h-1.48c-.91,0-1.6-.21-2.05-.63-.46-.42-.68-1.11-.68-2.07v-5.81h-1.28v-1.35h1.28v-2.48h1.64v2.48h2.57v1.35h-2.57Z"/>
      <path class="z" d="m733.17,387.79c-.6-.26-1.07-.62-1.42-1.08-.35-.46-.54-.99-.58-1.59h1.69c.05.49.28.89.69,1.21.41.31.96.47,1.63.47.62,0,1.12-.14,1.48-.41.36-.28.54-.62.54-1.04s-.19-.75-.58-.96c-.38-.21-.98-.42-1.78-.62-.73-.19-1.33-.39-1.79-.58-.46-.2-.86-.49-1.19-.88-.33-.39-.5-.9-.5-1.54,0-.5.15-.97.45-1.39s.73-.75,1.28-1c.55-.25,1.18-.37,1.89-.37,1.09,0,1.97.28,2.65.83.67.55,1.03,1.31,1.08,2.27h-1.64c-.04-.52-.24-.93-.62-1.24s-.88-.47-1.52-.47c-.59,0-1.06.13-1.4.38s-.52.58-.52.99c0,.32.1.59.31.8s.47.38.79.5.76.27,1.32.42c.71.19,1.28.38,1.73.57.44.19.83.46,1.14.84.32.37.48.86.5,1.46,0,.54-.15,1.03-.45,1.46-.3.43-.72.77-1.27,1.02s-1.17.37-1.88.37c-.76,0-1.43-.13-2.03-.39Z"/>
      <path class="z" d="m747.91,379.5v5.81c0,.48.1.82.31,1.02.2.2.56.3,1.06.3h1.21v1.39h-1.48c-.91,0-1.6-.21-2.05-.63-.46-.42-.68-1.11-.68-2.07v-5.81h-1.28v-1.35h1.28v-2.48h1.64v2.48h2.57v1.35h-2.57Z"/>
      <path class="z" d="m759.37,378.45c.6.32,1.07.8,1.41,1.43.34.64.51,1.41.51,2.32v5.81h-1.62v-5.58c0-.98-.25-1.74-.74-2.26-.49-.52-1.16-.78-2.02-.78s-1.55.27-2.06.81c-.51.54-.76,1.33-.76,2.36v5.45h-1.64v-13.32h1.64v4.86c.32-.5.77-.89,1.34-1.17.57-.28,1.21-.41,1.92-.41.74,0,1.42.16,2.02.48Z"/>
      <path class="z" d="m772.93,383.7h-7.88c.06.97.39,1.73,1,2.28.61.55,1.34.82,2.21.82.71,0,1.3-.17,1.77-.5.47-.33.81-.77,1-1.32h1.76c-.26.95-.79,1.72-1.58,2.31-.79.59-1.78.89-2.95.89-.94,0-1.77-.21-2.51-.63s-1.32-1.02-1.74-1.79c-.42-.77-.63-1.67-.63-2.69s.2-1.91.61-2.68.98-1.36,1.72-1.77c.74-.41,1.59-.62,2.55-.62s1.76.2,2.48.61,1.28.97,1.67,1.68c.39.71.58,1.52.58,2.42,0,.31-.02.64-.05.99Zm-2.05-2.94c-.28-.45-.65-.79-1.12-1.03-.47-.23-1-.35-1.57-.35-.83,0-1.53.26-2.12.79s-.92,1.26-1,2.2h6.23c0-.62-.14-1.16-.41-1.61Z"/>
      <path class="z" d="m779.95,380.39c.41-.76.97-1.35,1.7-1.77.73-.42,1.56-.63,2.49-.63,1.21,0,2.21.29,3,.88.79.59,1.3,1.4,1.56,2.45h-1.76c-.17-.6-.5-1.07-.98-1.42-.49-.35-1.09-.52-1.81-.52-.94,0-1.69.32-2.27.96s-.86,1.55-.86,2.73.29,2.11.86,2.75c.58.65,1.33.97,2.27.97.72,0,1.32-.17,1.8-.5.48-.34.81-.82.99-1.44h1.76c-.26,1.01-.79,1.82-1.58,2.42-.79.61-1.78.91-2.97.91-.94,0-1.77-.21-2.49-.63-.73-.42-1.29-1.01-1.7-1.78-.41-.77-.61-1.67-.61-2.7s.2-1.91.61-2.67Z"/>
      <path class="z" d="m792.66,387.55c-.75-.42-1.34-1.02-1.76-1.79-.43-.77-.64-1.67-.64-2.69s.22-1.9.66-2.67,1.04-1.37,1.79-1.78,1.6-.62,2.54-.62,1.78.21,2.54.62,1.35,1.01,1.79,1.77c.44.77.66,1.66.66,2.68s-.23,1.92-.68,2.69c-.45.77-1.06,1.37-1.83,1.79-.77.42-1.62.63-2.56.63s-1.76-.21-2.51-.63Zm4.17-1.22c.52-.28.93-.69,1.25-1.24.32-.55.48-1.22.48-2.02s-.16-1.46-.47-2.02c-.31-.55-.72-.96-1.22-1.23-.5-.27-1.05-.4-1.64-.4s-1.15.13-1.65.4c-.5.27-.9.68-1.2,1.23s-.45,1.22-.45,2.02.15,1.48.44,2.03.69.96,1.18,1.23c.49.27,1.03.4,1.62.4s1.14-.14,1.66-.41Z"/>
      <path class="z" d="m810.12,379.06c.74.73,1.12,1.77,1.12,3.14v5.81h-1.62v-5.58c0-.98-.25-1.74-.74-2.26-.49-.52-1.16-.78-2.02-.78s-1.55.27-2.06.81c-.51.54-.76,1.33-.76,2.36v5.45h-1.64v-9.86h1.64v1.4c.32-.5.76-.89,1.32-1.17.56-.28,1.17-.41,1.84-.41,1.2,0,2.17.36,2.92,1.09Z"/>
      <path class="z" d="m813.91,380.39c.41-.76.97-1.35,1.7-1.77.73-.42,1.56-.63,2.49-.63,1.21,0,2.21.29,3,.88.79.59,1.3,1.4,1.56,2.45h-1.76c-.17-.6-.5-1.07-.98-1.42-.49-.35-1.09-.52-1.81-.52-.94,0-1.69.32-2.27.96s-.86,1.55-.86,2.73.29,2.11.86,2.75c.58.65,1.33.97,2.27.97.72,0,1.32-.17,1.8-.5.48-.34.81-.82.99-1.44h1.76c-.26,1.01-.79,1.82-1.58,2.42-.79.61-1.78.91-2.97.91-.94,0-1.77-.21-2.49-.63-.73-.42-1.29-1.01-1.7-1.78-.41-.77-.61-1.67-.61-2.7s.2-1.91.61-2.67Z"/>
      <path class="z" d="m833.59,378.15v9.86h-1.64v-1.46c-.31.5-.75.9-1.31,1.18-.56.28-1.17.42-1.84.42-.77,0-1.46-.16-2.07-.48-.61-.32-1.09-.79-1.45-1.43-.35-.64-.53-1.41-.53-2.32v-5.78h1.62v5.56c0,.97.25,1.72.74,2.24.49.52,1.16.78,2.02.78s1.57-.27,2.07-.81c.5-.54.76-1.33.76-2.36v-5.42h1.64Z"/>
      <path class="z" d="m839.23,378.44c.53-.31,1.19-.47,1.95-.47v1.69h-.43c-1.84,0-2.75,1-2.75,2.99v5.36h-1.64v-9.86h1.64v1.6c.29-.56.7-1,1.23-1.31Z"/>
      <path class="z" d="m845.94,378.44c.53-.31,1.19-.47,1.95-.47v1.69h-.43c-1.84,0-2.75,1-2.75,2.99v5.36h-1.64v-9.86h1.64v1.6c.29-.56.7-1,1.23-1.31Z"/>
      <path class="z" d="m858.73,383.7h-7.88c.06.97.39,1.73,1,2.28.61.55,1.34.82,2.21.82.71,0,1.3-.17,1.77-.5.47-.33.81-.77,1-1.32h1.76c-.26.95-.79,1.72-1.58,2.31-.79.59-1.78.89-2.95.89-.94,0-1.77-.21-2.51-.63-.74-.42-1.32-1.02-1.74-1.79-.42-.77-.63-1.67-.63-2.69s.2-1.91.61-2.68c.41-.77.98-1.36,1.72-1.77.74-.41,1.59-.62,2.55-.62s1.76.2,2.48.61c.72.41,1.27.97,1.66,1.68.39.71.59,1.52.59,2.42,0,.31-.02.64-.05.99Zm-2.05-2.94c-.28-.45-.65-.79-1.12-1.03-.47-.23-1-.35-1.58-.35-.83,0-1.53.26-2.12.79s-.92,1.26-1,2.2h6.23c0-.62-.14-1.16-.41-1.61Z"/>
      <path class="z" d="m868.67,379.06c.74.73,1.12,1.77,1.12,3.14v5.81h-1.62v-5.58c0-.98-.25-1.74-.74-2.26-.49-.52-1.16-.78-2.02-.78s-1.55.27-2.06.81c-.51.54-.76,1.33-.76,2.36v5.45h-1.64v-9.86h1.64v1.4c.32-.5.76-.89,1.32-1.17.56-.28,1.17-.41,1.84-.41,1.2,0,2.17.36,2.92,1.09Z"/>
      <path class="z" d="m872.47,380.39c.41-.76.97-1.35,1.7-1.77.73-.42,1.56-.63,2.49-.63,1.21,0,2.21.29,3,.88.79.59,1.3,1.4,1.56,2.45h-1.76c-.17-.6-.5-1.07-.98-1.42-.49-.35-1.09-.52-1.81-.52-.94,0-1.69.32-2.27.96s-.86,1.55-.86,2.73.29,2.11.86,2.75c.58.65,1.33.97,2.27.97.72,0,1.32-.17,1.8-.5.48-.34.81-.82.99-1.44h1.76c-.26,1.01-.79,1.82-1.58,2.42-.79.61-1.78.91-2.97.91-.94,0-1.77-.21-2.49-.63-.73-.42-1.29-1.01-1.7-1.78-.41-.77-.61-1.67-.61-2.7s.2-1.91.61-2.67Z"/>
      <path class="z" d="m891.89,378.15l-5.94,14.51h-1.69l1.94-4.75-3.98-9.76h1.82l3.1,7.99,3.06-7.99h1.69Z"/>
      <path class="z" d="m899.97,374.7v13.32h-1.64v-13.32h1.64Z"/>
      <path class="z" d="m902.81,376.23c-.22-.22-.32-.48-.32-.79s.11-.58.32-.79.48-.32.79-.32.55.11.76.32.32.48.32.79-.11.58-.32.79-.46.32-.76.32-.58-.11-.79-.32Zm1.58,1.93v9.86h-1.64v-9.86h1.64Z"/>
      <path class="z" d="m921.1,378.45c.6.32,1.07.8,1.42,1.43.35.64.52,1.41.52,2.32v5.81h-1.62v-5.58c0-.98-.24-1.74-.73-2.26-.49-.52-1.14-.78-1.97-.78s-1.53.27-2.03.82-.76,1.33-.76,2.37v5.44h-1.62v-5.58c0-.98-.24-1.74-.73-2.26-.49-.52-1.14-.78-1.97-.78s-1.53.27-2.03.82-.76,1.33-.76,2.37v5.44h-1.64v-9.86h1.64v1.42c.32-.52.76-.91,1.3-1.19s1.15-.41,1.81-.41c.83,0,1.56.19,2.2.56.64.37,1.11.92,1.42,1.64.28-.7.73-1.24,1.37-1.62s1.34-.58,2.12-.58,1.45.16,2.05.48Z"/>
      <path class="z" d="m925.78,376.23c-.22-.22-.32-.48-.32-.79s.11-.58.32-.79.48-.32.79-.32.55.11.76.32.32.48.32.79-.11.58-.32.79-.46.32-.76.32-.58-.11-.79-.32Zm1.58,1.93v9.86h-1.64v-9.86h1.64Z"/>
      <path class="z" d="m932.15,379.5v5.81c0,.48.1.82.31,1.02.2.2.56.3,1.06.3h1.21v1.39h-1.48c-.91,0-1.6-.21-2.05-.63-.46-.42-.68-1.11-.68-2.07v-5.81h-1.28v-1.35h1.28v-2.48h1.64v2.48h2.57v1.35h-2.57Z"/>
      <path class="z" d="m677.23,415.63c-.75-.42-1.34-1.02-1.76-1.79-.43-.77-.64-1.67-.64-2.69s.22-1.9.66-2.67c.44-.77,1.03-1.37,1.79-1.78.76-.41,1.6-.62,2.54-.62s1.78.21,2.54.62c.76.41,1.35,1.01,1.79,1.77.44.77.66,1.66.66,2.68s-.22,1.92-.67,2.69c-.45.77-1.06,1.37-1.83,1.79s-1.62.63-2.56.63-1.76-.21-2.51-.63Zm4.17-1.22c.52-.28.93-.69,1.25-1.24.32-.55.48-1.22.48-2.02s-.16-1.46-.47-2.02c-.31-.55-.72-.96-1.22-1.23-.5-.27-1.05-.4-1.64-.4s-1.15.13-1.65.4c-.5.27-.9.68-1.2,1.23s-.45,1.22-.45,2.02.15,1.48.44,2.03c.29.55.69.96,1.18,1.23.49.27,1.03.4,1.62.4s1.14-.14,1.66-.41Z"/>
      <path class="z" d="m690.97,407.58h-2.07v8.51h-1.64v-8.51h-1.28v-1.35h1.28v-.7c0-1.1.29-1.91.86-2.42.57-.51,1.49-.76,2.75-.76v1.37c-.72,0-1.23.14-1.52.42s-.44.75-.44,1.39v.7h2.07v1.35Z"/>
      <path class="z" d="m699.69,407.58v5.81c0,.48.1.82.31,1.02.2.2.56.3,1.06.3h1.21v1.39h-1.48c-.91,0-1.6-.21-2.05-.63-.46-.42-.68-1.11-.68-2.07v-5.81h-1.28v-1.35h1.28v-2.48h1.64v2.48h2.57v1.35h-2.57Z"/>
      <path class="z" d="m711.15,406.53c.6.32,1.07.8,1.41,1.43.34.64.51,1.41.51,2.32v5.81h-1.62v-5.58c0-.98-.25-1.74-.74-2.26-.49-.52-1.16-.78-2.02-.78s-1.55.27-2.06.81c-.51.54-.76,1.33-.76,2.36v5.45h-1.64v-13.32h1.64v4.86c.32-.5.77-.89,1.34-1.17.57-.28,1.21-.41,1.92-.41.74,0,1.42.16,2.02.48Z"/>
      <path class="z" d="m724.71,411.78h-7.88c.06.97.39,1.73,1,2.28.61.55,1.34.82,2.21.82.71,0,1.3-.17,1.77-.5.47-.33.81-.77,1-1.32h1.76c-.26.95-.79,1.72-1.58,2.31-.79.59-1.78.89-2.95.89-.94,0-1.77-.21-2.51-.63s-1.32-1.02-1.74-1.79c-.42-.77-.63-1.67-.63-2.69s.2-1.91.61-2.68.98-1.36,1.72-1.77c.74-.41,1.59-.62,2.55-.62s1.76.2,2.48.61,1.28.97,1.67,1.68c.39.71.58,1.52.58,2.42,0,.31-.02.64-.05.99Zm-2.05-2.94c-.28-.45-.65-.79-1.12-1.03-.47-.23-1-.35-1.57-.35-.83,0-1.53.26-2.12.79s-.92,1.26-1,2.2h6.23c0-.62-.14-1.16-.41-1.61Z"/>
      <path class="z" d="m733.18,415.87c-.6-.26-1.07-.62-1.42-1.08-.35-.46-.54-.99-.58-1.59h1.69c.05.49.28.89.69,1.21.41.31.96.47,1.63.47.62,0,1.12-.14,1.48-.41.36-.28.54-.62.54-1.04s-.19-.75-.58-.96-.98-.42-1.78-.62c-.73-.19-1.33-.39-1.79-.58-.46-.2-.86-.49-1.19-.88-.33-.39-.5-.9-.5-1.54,0-.5.15-.97.45-1.39.3-.42.73-.75,1.28-1,.55-.25,1.18-.37,1.89-.37,1.09,0,1.97.28,2.65.83.67.55,1.03,1.31,1.08,2.27h-1.64c-.04-.52-.24-.93-.62-1.24s-.88-.47-1.52-.47c-.59,0-1.06.13-1.4.38-.35.25-.52.58-.52.99,0,.32.11.59.32.8s.47.38.79.5c.32.13.76.27,1.32.42.71.19,1.28.38,1.73.57.44.19.83.46,1.14.84.32.37.48.86.5,1.46,0,.54-.15,1.03-.45,1.46-.3.43-.72.77-1.27,1.02s-1.17.37-1.88.37c-.76,0-1.43-.13-2.03-.39Z"/>
      <path class="z" d="m750.07,411.78h-7.88c.06.97.39,1.73,1,2.28.61.55,1.34.82,2.21.82.71,0,1.3-.17,1.77-.5.47-.33.81-.77,1-1.32h1.76c-.26.95-.79,1.72-1.58,2.31-.79.59-1.78.89-2.95.89-.94,0-1.77-.21-2.51-.63-.74-.42-1.32-1.02-1.74-1.79-.42-.77-.63-1.67-.63-2.69s.2-1.91.61-2.68c.41-.77.98-1.36,1.72-1.77.74-.41,1.59-.62,2.55-.62s1.76.2,2.48.61c.72.41,1.27.97,1.66,1.68.39.71.59,1.52.59,2.42,0,.31-.02.64-.05.99Zm-2.05-2.94c-.28-.45-.65-.79-1.12-1.03-.47-.23-1-.35-1.58-.35-.83,0-1.53.26-2.12.79s-.92,1.26-1,2.2h6.23c0-.62-.14-1.16-.41-1.61Z"/>
      <path class="z" d="m755.15,406.52c.53-.31,1.19-.47,1.95-.47v1.69h-.43c-1.84,0-2.75,1-2.75,2.99v5.36h-1.64v-9.86h1.64v1.6c.29-.56.7-1,1.23-1.31Z"/>
      <path class="z" d="m762.67,414.58l3.06-8.35h1.75l-3.87,9.86h-1.91l-3.87-9.86h1.76l3.08,8.35Z"/>
      <path class="z" d="m769.15,404.31c-.22-.22-.32-.48-.32-.79s.11-.58.32-.79.48-.32.79-.32.55.11.76.32.32.48.32.79-.11.58-.32.79-.46.32-.76.32-.58-.11-.79-.32Zm1.58,1.93v9.86h-1.64v-9.86h1.64Z"/>
      <path class="z" d="m773.52,408.47c.41-.76.97-1.35,1.7-1.77.73-.42,1.56-.63,2.49-.63,1.21,0,2.21.29,3,.88s1.3,1.4,1.56,2.45h-1.76c-.17-.6-.5-1.07-.98-1.42-.49-.35-1.09-.52-1.81-.52-.94,0-1.69.32-2.27.96s-.86,1.55-.86,2.73.29,2.11.86,2.75c.58.65,1.33.97,2.27.97.72,0,1.32-.17,1.8-.5.48-.34.81-.82.99-1.44h1.76c-.26,1.01-.79,1.82-1.58,2.42-.79.61-1.78.91-2.97.91-.94,0-1.77-.21-2.49-.63-.73-.42-1.29-1.01-1.7-1.78-.41-.77-.61-1.67-.61-2.7s.2-1.91.61-2.67Z"/>
      <path class="z" d="m793.39,411.78h-7.88c.06.97.39,1.73,1,2.28.61.55,1.34.82,2.21.82.71,0,1.3-.17,1.77-.5.47-.33.81-.77,1-1.32h1.76c-.26.95-.79,1.72-1.58,2.31-.79.59-1.78.89-2.95.89-.94,0-1.77-.21-2.51-.63-.74-.42-1.32-1.02-1.74-1.79-.42-.77-.63-1.67-.63-2.69s.2-1.91.61-2.68c.41-.77.98-1.36,1.72-1.77.74-.41,1.59-.62,2.55-.62s1.76.2,2.48.61c.72.41,1.27.97,1.66,1.68.39.71.59,1.52.59,2.42,0,.31-.02.64-.05.99Zm-2.05-2.94c-.28-.45-.65-.79-1.12-1.03-.47-.23-1-.35-1.58-.35-.83,0-1.53.26-2.12.79s-.92,1.26-1,2.2h6.23c0-.62-.14-1.16-.41-1.61Z"/>
    </g>
    <g>
      <path class="z" d="m493.31,584.16h-5.47l-1.01,2.79h-1.73l4.54-12.47h1.89l4.52,12.47h-1.73l-1.01-2.79Zm-.47-1.33l-2.27-6.34-2.27,6.34h4.54Z"/>
      <path class="z" d="m501.11,577.49c.64-.38,1.39-.57,2.24-.57s1.67.21,2.38.63c.71.42,1.28,1.01,1.68,1.77.41.76.61,1.65.61,2.66s-.2,1.88-.61,2.66c-.41.78-.97,1.38-1.68,1.82-.71.43-1.51.65-2.38.65s-1.58-.19-2.22-.57c-.64-.38-1.13-.85-1.47-1.41v6.5h-1.64v-14.54h1.64v1.82c.32-.56.81-1.04,1.45-1.41Zm4.8,2.55c-.3-.55-.71-.97-1.21-1.26-.51-.29-1.07-.43-1.68-.43s-1.16.15-1.67.44c-.51.29-.92.72-1.22,1.28-.31.56-.46,1.2-.46,1.94s.15,1.39.46,1.95c.31.56.71.98,1.22,1.28.51.29,1.07.44,1.67.44s1.17-.15,1.68-.44c.51-.29.91-.72,1.21-1.28.3-.56.45-1.21.45-1.97s-.15-1.39-.45-1.95Z"/>
      <path class="z" d="m519.14,582.62h-7.88c.06.97.39,1.73,1,2.28.61.55,1.34.82,2.21.82.71,0,1.3-.17,1.77-.5s.81-.77,1-1.32h1.76c-.26.95-.79,1.72-1.58,2.31-.79.59-1.78.89-2.95.89-.94,0-1.77-.21-2.51-.63-.74-.42-1.32-1.02-1.74-1.79-.42-.78-.63-1.67-.63-2.69s.2-1.91.61-2.68.98-1.36,1.72-1.77c.74-.41,1.59-.62,2.55-.62s1.76.2,2.48.61c.72.41,1.28.97,1.67,1.68.39.71.58,1.52.58,2.42,0,.31-.02.64-.05.99Zm-2.05-2.94c-.28-.45-.65-.79-1.12-1.03-.47-.23-1-.35-1.58-.35-.83,0-1.53.26-2.12.79-.58.53-.92,1.26-1,2.2h6.23c0-.62-.14-1.16-.41-1.61Z"/>
      <path class="z" d="m524.22,577.37c.53-.31,1.19-.47,1.95-.47v1.69h-.43c-1.84,0-2.75,1-2.75,2.99v5.36h-1.64v-9.86h1.64v1.6c.29-.56.7-1,1.23-1.31Z"/>
      <path class="z" d="m530.06,578.43v5.81c0,.48.1.82.31,1.02.21.2.56.3,1.06.3h1.21v1.38h-1.48c-.91,0-1.6-.21-2.05-.63s-.68-1.11-.68-2.07v-5.81h-1.28v-1.35h1.28v-2.48h1.64v2.48h2.57v1.35h-2.57Z"/>
      <path class="z" d="m543.36,577.08v9.86h-1.64v-1.46c-.31.5-.75.9-1.31,1.18-.56.28-1.17.42-1.84.42-.77,0-1.46-.16-2.07-.48-.61-.32-1.1-.79-1.45-1.43s-.53-1.41-.53-2.32v-5.78h1.62v5.56c0,.97.25,1.72.74,2.24s1.16.78,2.02.78,1.57-.27,2.07-.81c.5-.54.76-1.33.76-2.36v-5.42h1.64Z"/>
      <path class="z" d="m549.01,577.37c.54-.31,1.19-.47,1.95-.47v1.69h-.43c-1.84,0-2.75,1-2.75,2.99v5.36h-1.64v-9.86h1.64v1.6c.29-.56.7-1,1.23-1.31Z"/>
      <path class="z" d="m561.79,582.62h-7.88c.06.97.39,1.73,1,2.28.61.55,1.34.82,2.21.82.71,0,1.3-.17,1.77-.5.47-.33.81-.77,1-1.32h1.76c-.26.95-.79,1.72-1.58,2.31s-1.78.89-2.95.89c-.94,0-1.77-.21-2.51-.63-.74-.42-1.32-1.02-1.74-1.79-.42-.78-.63-1.67-.63-2.69s.2-1.91.61-2.68.98-1.36,1.72-1.77,1.59-.62,2.55-.62,1.76.2,2.48.61c.72.41,1.28.97,1.66,1.68.39.71.59,1.52.59,2.42,0,.31-.02.64-.05.99Zm-2.05-2.94c-.28-.45-.65-.79-1.12-1.03s-1-.35-1.58-.35c-.83,0-1.53.26-2.12.79-.58.53-.91,1.26-1,2.2h6.23c0-.62-.14-1.16-.41-1.61Z"/>
      <path class="z" d="m576.23,584.16h-5.47l-1.01,2.79h-1.73l4.54-12.47h1.89l4.52,12.47h-1.73l-1.01-2.79Zm-.47-1.33l-2.27-6.34-2.27,6.34h4.54Z"/>
      <path class="z" d="m587.26,577.48c.64.37,1.12.84,1.43,1.4v-1.8h1.66v10.08c0,.9-.19,1.7-.58,2.4-.38.7-.93,1.25-1.65,1.65-.71.4-1.55.6-2.49.6-1.3,0-2.38-.31-3.24-.92-.86-.61-1.37-1.45-1.53-2.5h1.62c.18.6.55,1.08,1.12,1.45.56.37,1.24.55,2.03.55.9,0,1.63-.28,2.21-.85s.86-1.36.86-2.38v-2.07c-.32.58-.8,1.06-1.44,1.44-.64.38-1.38.58-2.23.58s-1.67-.21-2.39-.65c-.71-.43-1.27-1.04-1.68-1.82-.41-.78-.61-1.67-.61-2.66s.2-1.89.61-2.66c.41-.76.97-1.35,1.68-1.77.71-.42,1.51-.63,2.39-.63s1.6.19,2.24.56Zm.98,2.57c-.3-.55-.71-.98-1.21-1.27-.51-.29-1.07-.44-1.68-.44s-1.17.14-1.67.43c-.5.29-.91.71-1.21,1.26-.3.55-.45,1.2-.45,1.95s.15,1.41.45,1.97c.3.56.7.98,1.21,1.28.5.29,1.06.44,1.67.44s1.17-.15,1.68-.44c.51-.29.92-.72,1.21-1.28.3-.56.45-1.21.45-1.95s-.15-1.39-.45-1.94Z"/>
      <path class="z" d="m602.06,582.62h-7.88c.06.97.39,1.73,1,2.28.61.55,1.34.82,2.21.82.71,0,1.3-.17,1.77-.5.47-.33.81-.77,1-1.32h1.76c-.26.95-.79,1.72-1.58,2.31s-1.78.89-2.95.89c-.94,0-1.77-.21-2.51-.63-.74-.42-1.32-1.02-1.74-1.79-.42-.78-.63-1.67-.63-2.69s.2-1.91.61-2.68.98-1.36,1.72-1.77,1.59-.62,2.55-.62,1.76.2,2.48.61c.72.41,1.28.97,1.66,1.68.39.71.59,1.52.59,2.42,0,.31-.02.64-.05.99Zm-2.05-2.94c-.28-.45-.65-.79-1.12-1.03s-1-.35-1.58-.35c-.83,0-1.53.26-2.12.79-.58.53-.91,1.26-1,2.2h6.23c0-.62-.14-1.16-.41-1.61Z"/>
      <path class="z" d="m612,577.99c.74.73,1.12,1.77,1.12,3.14v5.81h-1.62v-5.58c0-.98-.25-1.74-.74-2.26-.49-.52-1.16-.78-2.02-.78s-1.55.27-2.06.81c-.51.54-.77,1.32-.77,2.36v5.45h-1.64v-9.86h1.64v1.4c.32-.5.77-.89,1.32-1.17.56-.28,1.17-.41,1.84-.41,1.2,0,2.17.36,2.92,1.09Z"/>
      <path class="z" d="m617.79,578.43v5.81c0,.48.1.82.31,1.02.2.2.56.3,1.06.3h1.21v1.38h-1.48c-.91,0-1.6-.21-2.05-.63s-.68-1.11-.68-2.07v-5.81h-1.28v-1.35h1.28v-2.48h1.64v2.48h2.57v1.35h-2.57Z"/>
      <path class="z" d="m623.8,586.72c-.6-.26-1.07-.62-1.42-1.08-.35-.46-.54-.99-.58-1.59h1.69c.05.49.28.89.69,1.21s.96.47,1.63.47c.62,0,1.12-.14,1.48-.41.36-.28.54-.62.54-1.04s-.19-.75-.58-.96c-.38-.21-.98-.42-1.78-.62-.73-.19-1.33-.39-1.79-.58-.46-.2-.86-.49-1.19-.88s-.5-.9-.5-1.54c0-.5.15-.97.45-1.39.3-.42.72-.75,1.28-1,.55-.25,1.18-.37,1.89-.37,1.09,0,1.97.28,2.65.83.67.55,1.03,1.31,1.08,2.27h-1.64c-.04-.52-.24-.93-.62-1.24-.38-.31-.88-.47-1.52-.47-.59,0-1.06.12-1.4.38s-.52.58-.52.99c0,.32.11.59.31.8s.47.38.79.5c.32.13.76.27,1.32.42.71.19,1.28.38,1.73.57.44.19.82.46,1.14.84.32.37.48.86.5,1.46,0,.54-.15,1.03-.45,1.46-.3.43-.72.77-1.27,1.02-.54.25-1.17.37-1.88.37-.76,0-1.43-.13-2.03-.39Z"/>
      <path class="z" d="m639.42,577.37c.53-.31,1.18-.47,1.95-.47v1.69h-.43c-1.84,0-2.75,1-2.75,2.99v5.36h-1.64v-9.86h1.64v1.6c.29-.56.7-1,1.23-1.31Z"/>
      <path class="z" d="m652.21,582.62h-7.88c.06.97.39,1.73,1,2.28.61.55,1.34.82,2.21.82.71,0,1.3-.17,1.77-.5.47-.33.81-.77,1-1.32h1.76c-.26.95-.79,1.72-1.58,2.31s-1.78.89-2.95.89c-.94,0-1.77-.21-2.51-.63s-1.32-1.02-1.74-1.79c-.42-.78-.63-1.67-.63-2.69s.2-1.91.61-2.68c.41-.77.98-1.36,1.72-1.77s1.59-.62,2.55-.62,1.76.2,2.48.61,1.27.97,1.67,1.68c.39.71.58,1.52.58,2.42,0,.31-.02.64-.05.99Zm-2.05-2.94c-.28-.45-.65-.79-1.12-1.03s-1-.35-1.57-.35c-.83,0-1.53.26-2.12.79-.58.53-.92,1.26-1,2.2h6.23c0-.62-.14-1.16-.41-1.61Z"/>
      <path class="z" d="m660.73,577.48c.64.37,1.12.84,1.43,1.4v-1.8h1.66v10.08c0,.9-.19,1.7-.58,2.4-.38.7-.93,1.25-1.65,1.65-.71.4-1.55.6-2.49.6-1.29,0-2.38-.31-3.24-.92-.86-.61-1.37-1.45-1.53-2.5h1.62c.18.6.55,1.08,1.12,1.45.56.37,1.24.55,2.03.55.9,0,1.63-.28,2.21-.85s.86-1.36.86-2.38v-2.07c-.32.58-.8,1.06-1.44,1.44-.64.38-1.38.58-2.23.58s-1.67-.21-2.38-.65c-.71-.43-1.28-1.04-1.68-1.82-.41-.78-.61-1.67-.61-2.66s.2-1.89.61-2.66c.41-.76.97-1.35,1.68-1.77.71-.42,1.51-.63,2.38-.63s1.6.19,2.24.56Zm.98,2.57c-.3-.55-.71-.98-1.21-1.27-.51-.29-1.07-.44-1.68-.44s-1.17.14-1.67.43c-.5.29-.91.71-1.21,1.26-.3.55-.45,1.2-.45,1.95s.15,1.41.45,1.97c.3.56.7.98,1.21,1.28.5.29,1.06.44,1.67.44s1.17-.15,1.68-.44c.51-.29.92-.72,1.21-1.28.3-.56.45-1.21.45-1.95s-.15-1.39-.45-1.94Z"/>
      <path class="z" d="m675.34,577.08v9.86h-1.64v-1.46c-.31.5-.75.9-1.31,1.18-.56.28-1.17.42-1.84.42-.77,0-1.46-.16-2.07-.48-.61-.32-1.1-.79-1.45-1.43s-.53-1.41-.53-2.32v-5.78h1.62v5.56c0,.97.25,1.72.74,2.24s1.16.78,2.02.78,1.57-.27,2.07-.81c.5-.54.76-1.33.76-2.36v-5.42h1.64Z"/>
      <path class="z" d="m679.75,573.62v13.32h-1.64v-13.32h1.64Z"/>
      <path class="z" d="m682.54,579.32c.41-.76.97-1.35,1.68-1.77.71-.42,1.51-.63,2.38-.63s1.61.19,2.25.56c.64.37,1.11.84,1.42,1.4v-1.8h1.66v9.86h-1.66v-1.84c-.32.58-.81,1.05-1.45,1.43-.64.38-1.39.57-2.24.57s-1.67-.21-2.38-.65c-.71-.43-1.27-1.04-1.67-1.82-.41-.78-.61-1.67-.61-2.66s.2-1.89.61-2.66Zm7.29.73c-.3-.55-.71-.98-1.21-1.27-.51-.29-1.07-.44-1.68-.44s-1.17.14-1.67.43c-.5.29-.91.71-1.21,1.26-.3.55-.45,1.2-.45,1.95s.15,1.41.45,1.97c.3.56.7.98,1.21,1.28.5.29,1.06.44,1.67.44s1.17-.15,1.68-.44c.51-.29.91-.72,1.21-1.28.3-.56.45-1.21.45-1.95s-.15-1.39-.45-1.94Z"/>
      <path class="z" d="m696.7,578.43v5.81c0,.48.1.82.31,1.02.2.2.56.3,1.06.3h1.21v1.38h-1.48c-.91,0-1.6-.21-2.05-.63-.46-.42-.68-1.11-.68-2.07v-5.81h-1.28v-1.35h1.28v-2.48h1.64v2.48h2.57v1.35h-2.57Z"/>
      <path class="z" d="m710.2,582.62h-7.88c.06.97.39,1.73,1,2.28.61.55,1.34.82,2.21.82.71,0,1.3-.17,1.77-.5.47-.33.81-.77,1-1.32h1.76c-.26.95-.79,1.72-1.58,2.31s-1.78.89-2.95.89c-.94,0-1.77-.21-2.51-.63-.74-.42-1.32-1.02-1.74-1.79-.42-.78-.63-1.67-.63-2.69s.2-1.91.61-2.68.98-1.36,1.72-1.77,1.59-.62,2.55-.62,1.76.2,2.48.61c.72.41,1.28.97,1.66,1.68.39.71.59,1.52.59,2.42,0,.31-.02.64-.05.99Zm-2.05-2.94c-.28-.45-.65-.79-1.12-1.03s-1-.35-1.58-.35c-.83,0-1.53.26-2.12.79-.58.53-.91,1.26-1,2.2h6.23c0-.62-.14-1.16-.41-1.61Z"/>
      <path class="z" d="m717.22,579.32c.41-.76.97-1.35,1.68-1.77.71-.42,1.51-.63,2.38-.63s1.61.19,2.25.56c.64.37,1.11.84,1.42,1.4v-1.8h1.66v9.86h-1.66v-1.84c-.32.58-.81,1.05-1.45,1.43-.64.38-1.39.57-2.24.57s-1.67-.21-2.38-.65c-.71-.43-1.27-1.04-1.67-1.82-.41-.78-.61-1.67-.61-2.66s.2-1.89.61-2.66Zm7.29.73c-.3-.55-.71-.98-1.21-1.27-.51-.29-1.07-.44-1.68-.44s-1.17.14-1.67.43c-.5.29-.91.71-1.21,1.26-.3.55-.45,1.2-.45,1.95s.15,1.41.45,1.97c.3.56.7.98,1.21,1.28.5.29,1.06.44,1.67.44s1.17-.15,1.68-.44c.51-.29.91-.72,1.21-1.28.3-.56.45-1.21.45-1.95s-.15-1.39-.45-1.94Z"/>
      <path class="z" d="m737.11,577.99c.74.73,1.12,1.77,1.12,3.14v5.81h-1.62v-5.58c0-.98-.25-1.74-.74-2.26-.49-.52-1.16-.78-2.02-.78s-1.55.27-2.06.81c-.51.54-.77,1.32-.77,2.36v5.45h-1.64v-9.86h1.64v1.4c.32-.5.77-.89,1.32-1.17.56-.28,1.17-.41,1.84-.41,1.2,0,2.17.36,2.92,1.09Z"/>
      <path class="z" d="m740.91,579.32c.41-.76.97-1.35,1.68-1.77.71-.42,1.52-.63,2.4-.63.77,0,1.48.18,2.14.53.66.35,1.16.82,1.51,1.39v-5.22h1.66v13.32h-1.66v-1.85c-.32.59-.8,1.07-1.44,1.45-.64.38-1.38.57-2.23.57s-1.67-.21-2.39-.65c-.71-.43-1.27-1.04-1.68-1.82-.41-.78-.61-1.67-.61-2.66s.21-1.89.61-2.66Zm7.29.73c-.3-.55-.71-.98-1.21-1.27-.51-.29-1.07-.44-1.68-.44s-1.17.14-1.67.43c-.5.29-.91.71-1.21,1.26-.3.55-.45,1.2-.45,1.95s.15,1.41.45,1.97c.3.56.7.98,1.21,1.28.5.29,1.06.44,1.67.44s1.17-.15,1.68-.44c.51-.29.92-.72,1.21-1.28.3-.56.45-1.21.45-1.95s-.15-1.39-.45-1.94Z"/>
      <path class="z" d="m488.98,605.57c.64-.38,1.39-.57,2.24-.57s1.67.21,2.39.63c.71.42,1.27,1.01,1.68,1.77.41.76.61,1.65.61,2.66s-.21,1.88-.61,2.66c-.41.78-.97,1.38-1.68,1.82-.71.43-1.51.65-2.39.65s-1.58-.19-2.22-.57c-.64-.38-1.13-.85-1.47-1.41v6.5h-1.64v-14.54h1.64v1.82c.32-.56.81-1.04,1.45-1.41Zm4.8,2.55c-.3-.55-.71-.97-1.21-1.26-.51-.29-1.07-.43-1.68-.43s-1.16.15-1.67.44c-.51.29-.92.72-1.22,1.28-.31.56-.46,1.2-.46,1.94s.15,1.39.46,1.95c.31.56.71.98,1.22,1.28.51.29,1.06.44,1.67.44s1.17-.15,1.68-.44c.51-.29.92-.72,1.21-1.28.3-.56.45-1.21.45-1.97s-.15-1.39-.45-1.95Z"/>
      <path class="z" d="m500.93,605.45c.53-.31,1.18-.47,1.95-.47v1.69h-.43c-1.84,0-2.75,1-2.75,2.99v5.36h-1.64v-9.86h1.64v1.6c.29-.56.7-1,1.23-1.31Z"/>
      <path class="z" d="m504.83,603.24c-.22-.22-.32-.48-.32-.79s.11-.58.32-.79c.21-.22.48-.32.79-.32s.56.11.77.32c.21.21.31.48.31.79s-.1.58-.31.79c-.21.21-.46.32-.77.32s-.58-.11-.79-.32Zm1.58,1.93v9.86h-1.64v-9.86h1.64Z"/>
      <path class="z" d="m510.99,614.56c-.75-.42-1.34-1.02-1.76-1.79-.43-.78-.64-1.67-.64-2.69s.22-1.9.66-2.67c.44-.77,1.04-1.37,1.79-1.78s1.6-.62,2.54-.62,1.78.21,2.54.62,1.35,1.01,1.79,1.77.66,1.66.66,2.68-.23,1.92-.67,2.69c-.45.77-1.06,1.37-1.83,1.79-.77.42-1.62.63-2.56.63s-1.76-.21-2.51-.63Zm4.17-1.22c.52-.28.93-.69,1.25-1.24.32-.55.48-1.22.48-2.02s-.16-1.46-.47-2.02c-.31-.55-.72-.96-1.22-1.23-.5-.27-1.05-.4-1.64-.4s-1.15.13-1.65.4c-.5.27-.9.68-1.2,1.23-.3.55-.45,1.22-.45,2.02s.15,1.48.44,2.03c.29.55.69.96,1.18,1.23.49.27,1.03.4,1.62.4s1.14-.14,1.66-.41Z"/>
      <path class="z" d="m523.59,605.45c.54-.31,1.19-.47,1.95-.47v1.69h-.43c-1.84,0-2.75,1-2.75,2.99v5.36h-1.64v-9.86h1.64v1.6c.29-.56.7-1,1.23-1.31Z"/>
      <path class="z" d="m527.49,603.24c-.22-.22-.32-.48-.32-.79s.11-.58.32-.79c.22-.22.48-.32.79-.32s.55.11.77.32c.21.21.31.48.31.79s-.11.58-.31.79c-.21.21-.47.32-.77.32s-.58-.11-.79-.32Zm1.58,1.93v9.86h-1.64v-9.86h1.64Z"/>
      <path class="z" d="m533.86,606.51v5.81c0,.48.1.82.31,1.02.2.2.56.3,1.06.3h1.21v1.38h-1.48c-.91,0-1.6-.21-2.05-.63s-.68-1.11-.68-2.07v-5.81h-1.28v-1.35h1.28v-2.48h1.64v2.48h2.57v1.35h-2.57Z"/>
      <path class="z" d="m538.47,603.24c-.22-.22-.32-.48-.32-.79s.11-.58.32-.79c.22-.22.48-.32.79-.32s.56.11.76.32c.21.21.32.48.32.79s-.1.58-.32.79c-.21.21-.46.32-.76.32s-.58-.11-.79-.32Zm1.58,1.93v9.86h-1.64v-9.86h1.64Z"/>
      <path class="z" d="m544.06,613.67h4.84v1.35h-6.71v-1.35l4.79-7.18h-4.75v-1.33h6.64v1.33l-4.81,7.18Z"/>
      <path class="z" d="m559.98,610.7h-7.88c.06.97.39,1.73,1,2.28.61.55,1.34.82,2.21.82.71,0,1.3-.17,1.77-.5s.81-.77,1-1.32h1.76c-.26.95-.79,1.72-1.58,2.31-.79.59-1.78.89-2.95.89-.94,0-1.77-.21-2.51-.63s-1.32-1.02-1.74-1.79c-.42-.78-.63-1.67-.63-2.69s.21-1.91.61-2.68c.41-.77.98-1.36,1.72-1.77.74-.41,1.59-.62,2.55-.62s1.76.2,2.48.61c.72.41,1.27.97,1.66,1.68.39.71.59,1.52.59,2.42,0,.31-.02.64-.05.99Zm-2.05-2.94c-.28-.45-.65-.79-1.12-1.03-.47-.23-1-.35-1.57-.35-.83,0-1.53.26-2.12.79-.58.53-.92,1.26-1,2.2h6.23c0-.62-.14-1.16-.41-1.61Z"/>
      <path class="z" d="m571.01,606.51h-2.07v8.51h-1.64v-8.51h-1.28v-1.35h1.28v-.7c0-1.1.29-1.91.86-2.42.57-.51,1.48-.77,2.74-.77v1.37c-.72,0-1.23.14-1.52.42-.29.28-.44.75-.44,1.39v.7h2.07v1.35Z"/>
      <path class="z" d="m574.56,601.7v13.32h-1.64v-13.32h1.64Z"/>
      <path class="z" d="m579.14,614.56c-.75-.42-1.34-1.02-1.76-1.79-.43-.78-.64-1.67-.64-2.69s.22-1.9.66-2.67c.44-.77,1.03-1.37,1.79-1.78.76-.41,1.6-.62,2.54-.62s1.78.21,2.54.62c.76.41,1.35,1.01,1.79,1.77.44.77.66,1.66.66,2.68s-.23,1.92-.68,2.69c-.45.77-1.06,1.37-1.83,1.79-.77.42-1.62.63-2.56.63s-1.76-.21-2.51-.63Zm4.17-1.22c.52-.28.93-.69,1.25-1.24.32-.55.48-1.22.48-2.02s-.16-1.46-.47-2.02c-.31-.55-.72-.96-1.22-1.23-.5-.27-1.05-.4-1.64-.4s-1.15.13-1.65.4c-.5.27-.9.68-1.2,1.23-.3.55-.45,1.22-.45,2.02s.15,1.48.44,2.03c.29.55.69.96,1.18,1.23.49.27,1.03.4,1.62.4s1.14-.14,1.66-.41Z"/>
      <path class="z" d="m602.01,605.16l-3.08,9.86h-1.69l-2.38-7.83-2.38,7.83h-1.69l-3.1-9.86h1.67l2.27,8.28,2.45-8.28h1.67l2.39,8.3,2.23-8.3h1.62Z"/>
      <path class="z" d="m605.08,614.8c-.6-.26-1.07-.62-1.42-1.08-.35-.46-.54-.99-.58-1.59h1.69c.05.49.28.89.69,1.21s.96.47,1.63.47c.62,0,1.12-.14,1.48-.41.36-.28.54-.62.54-1.04s-.19-.75-.58-.96c-.38-.21-.98-.42-1.78-.62-.73-.19-1.33-.39-1.79-.58-.46-.2-.86-.49-1.19-.88s-.5-.9-.5-1.54c0-.5.15-.97.45-1.39.3-.42.73-.75,1.28-1,.55-.25,1.18-.37,1.89-.37,1.09,0,1.97.28,2.65.83.67.55,1.03,1.31,1.08,2.27h-1.64c-.04-.52-.24-.93-.62-1.24s-.88-.47-1.52-.47c-.59,0-1.06.12-1.4.38-.35.25-.52.58-.52.99,0,.32.11.59.32.8.21.21.47.38.79.5.32.13.76.27,1.32.42.71.19,1.29.38,1.73.57s.83.46,1.14.84c.32.37.48.86.5,1.46,0,.54-.15,1.03-.45,1.46-.3.43-.72.77-1.27,1.02s-1.17.37-1.88.37c-.76,0-1.43-.13-2.03-.39Z"/>
      <path class="z" d="m620.94,605.56c.65-.37,1.39-.56,2.21-.56.89,0,1.69.21,2.39.63.71.42,1.27,1.01,1.67,1.77.41.76.61,1.65.61,2.66s-.2,1.88-.61,2.66c-.41.78-.97,1.38-1.68,1.82-.71.43-1.51.65-2.38.65s-1.6-.19-2.24-.56c-.64-.37-1.12-.85-1.45-1.42v1.82h-1.64v-13.32h1.64v5.29c.34-.59.83-1.07,1.48-1.44Zm4.77,2.55c-.3-.55-.71-.97-1.21-1.26-.51-.29-1.07-.43-1.68-.43s-1.16.15-1.67.44c-.51.29-.92.72-1.22,1.28-.31.56-.46,1.2-.46,1.94s.15,1.39.46,1.95c.31.56.71.98,1.22,1.28.51.29,1.07.44,1.67.44s1.17-.15,1.68-.44c.51-.29.91-.72,1.21-1.28.3-.56.45-1.21.45-1.97s-.15-1.39-.45-1.95Z"/>
      <path class="z" d="m630,607.4c.41-.76.97-1.35,1.68-1.77.71-.42,1.51-.63,2.38-.63s1.61.19,2.25.56c.64.37,1.11.84,1.42,1.4v-1.8h1.66v9.86h-1.66v-1.84c-.32.58-.81,1.05-1.45,1.43-.64.38-1.39.57-2.24.57s-1.67-.21-2.38-.65c-.71-.43-1.27-1.04-1.67-1.82-.41-.78-.61-1.67-.61-2.66s.2-1.89.61-2.66Zm7.29.73c-.3-.55-.71-.98-1.21-1.27-.51-.29-1.07-.44-1.68-.44s-1.17.14-1.67.43c-.5.29-.91.71-1.21,1.26-.3.55-.45,1.2-.45,1.95s.15,1.41.45,1.97c.3.56.7.98,1.21,1.28.5.29,1.06.44,1.67.44s1.17-.15,1.68-.44c.51-.29.92-.72,1.21-1.28.3-.56.45-1.21.45-1.95s-.15-1.39-.45-1.94Z"/>
      <path class="z" d="m643.62,614.8c-.6-.26-1.07-.62-1.42-1.08-.35-.46-.54-.99-.58-1.59h1.69c.05.49.28.89.69,1.21s.96.47,1.63.47c.62,0,1.12-.14,1.48-.41.36-.28.54-.62.54-1.04s-.19-.75-.58-.96c-.38-.21-.98-.42-1.78-.62-.73-.19-1.33-.39-1.79-.58-.46-.2-.86-.49-1.19-.88s-.5-.9-.5-1.54c0-.5.15-.97.45-1.39s.73-.75,1.28-1c.55-.25,1.18-.37,1.89-.37,1.09,0,1.97.28,2.65.83s1.03,1.31,1.08,2.27h-1.64c-.04-.52-.24-.93-.62-1.24s-.88-.47-1.52-.47c-.59,0-1.06.12-1.4.38s-.52.58-.52.99c0,.32.1.59.31.8.21.21.47.38.79.5.32.13.76.27,1.32.42.71.19,1.28.38,1.73.57s.83.46,1.14.84c.32.37.48.86.49,1.46,0,.54-.15,1.03-.45,1.46-.3.43-.72.77-1.27,1.02s-1.17.37-1.88.37c-.76,0-1.43-.13-2.03-.39Z"/>
      <path class="z" d="m660.51,610.7h-7.88c.06.97.39,1.73,1,2.28.61.55,1.34.82,2.21.82.71,0,1.3-.17,1.77-.5.47-.33.81-.77,1-1.32h1.76c-.26.95-.79,1.72-1.58,2.31s-1.78.89-2.95.89c-.94,0-1.77-.21-2.51-.63-.74-.42-1.32-1.02-1.74-1.79-.42-.78-.63-1.67-.63-2.69s.2-1.91.61-2.68.98-1.36,1.72-1.77,1.59-.62,2.55-.62,1.76.2,2.48.61c.72.41,1.28.97,1.66,1.68.39.71.59,1.52.59,2.42,0,.31-.02.64-.05.99Zm-2.05-2.94c-.28-.45-.65-.79-1.12-1.03s-1-.35-1.58-.35c-.83,0-1.53.26-2.12.79-.58.53-.91,1.26-1,2.2h6.23c0-.62-.14-1.16-.41-1.61Z"/>
      <path class="z" d="m662.72,607.4c.41-.76.97-1.35,1.68-1.77.71-.42,1.52-.63,2.4-.63.77,0,1.48.18,2.14.53.66.35,1.16.82,1.51,1.39v-5.22h1.66v13.32h-1.66v-1.85c-.32.59-.8,1.07-1.44,1.45-.64.38-1.38.57-2.23.57s-1.67-.21-2.39-.65c-.71-.43-1.27-1.04-1.68-1.82-.41-.78-.61-1.67-.61-2.66s.21-1.89.61-2.66Zm7.29.73c-.3-.55-.71-.98-1.21-1.27-.51-.29-1.07-.44-1.68-.44s-1.17.14-1.67.43c-.5.29-.91.71-1.21,1.26-.3.55-.45,1.2-.45,1.95s.15,1.41.45,1.97c.3.56.7.98,1.21,1.28.5.29,1.06.44,1.67.44s1.17-.15,1.68-.44c.51-.29.92-.72,1.21-1.28.3-.56.45-1.21.45-1.95s-.15-1.39-.45-1.94Z"/>
      <path class="z" d="m681.48,614.56c-.75-.42-1.34-1.02-1.76-1.79-.43-.78-.64-1.67-.64-2.69s.22-1.9.66-2.67c.44-.77,1.03-1.37,1.79-1.78.76-.41,1.6-.62,2.54-.62s1.78.21,2.54.62c.76.41,1.35,1.01,1.79,1.77.44.77.66,1.66.66,2.68s-.23,1.92-.68,2.69c-.45.77-1.06,1.37-1.83,1.79-.77.42-1.62.63-2.56.63s-1.76-.21-2.51-.63Zm4.17-1.22c.52-.28.93-.69,1.25-1.24.32-.55.48-1.22.48-2.02s-.16-1.46-.47-2.02c-.31-.55-.72-.96-1.22-1.23-.5-.27-1.05-.4-1.64-.4s-1.15.13-1.65.4c-.5.27-.9.68-1.2,1.23-.3.55-.45,1.22-.45,2.02s.15,1.48.44,2.03c.29.55.69.96,1.18,1.23.49.27,1.03.4,1.62.4s1.14-.14,1.66-.41Z"/>
      <path class="z" d="m698.94,606.07c.74.73,1.12,1.77,1.12,3.14v5.81h-1.62v-5.58c0-.98-.25-1.74-.74-2.26-.49-.52-1.16-.78-2.02-.78s-1.55.27-2.06.81c-.51.54-.77,1.32-.77,2.36v5.45h-1.64v-9.86h1.64v1.4c.32-.5.77-.89,1.32-1.17.56-.28,1.17-.41,1.84-.41,1.2,0,2.17.36,2.92,1.09Z"/>
      <path class="z" d="m710.41,605.45c.53-.31,1.18-.47,1.95-.47v1.69h-.43c-1.84,0-2.75,1-2.75,2.99v5.36h-1.64v-9.86h1.64v1.6c.29-.56.7-1,1.23-1.31Z"/>
      <path class="z" d="m723,605.16v9.86h-1.64v-1.46c-.31.5-.75.9-1.31,1.18-.56.28-1.17.42-1.84.42-.77,0-1.46-.16-2.07-.48-.61-.32-1.1-.79-1.45-1.43s-.53-1.41-.53-2.32v-5.78h1.62v5.56c0,.97.25,1.72.74,2.24s1.16.78,2.02.78,1.57-.27,2.07-.81c.5-.54.76-1.33.76-2.36v-5.42h1.64Z"/>
      <path class="z" d="m727.41,601.7v13.32h-1.64v-13.32h1.64Z"/>
      <path class="z" d="m739.15,610.7h-7.88c.06.97.39,1.73,1,2.28.61.55,1.34.82,2.21.82.71,0,1.3-.17,1.77-.5.47-.33.81-.77,1-1.32h1.76c-.26.95-.79,1.72-1.58,2.31s-1.78.89-2.95.89c-.94,0-1.77-.21-2.51-.63s-1.32-1.02-1.74-1.79c-.42-.78-.63-1.67-.63-2.69s.2-1.91.61-2.68c.41-.77.98-1.36,1.72-1.77s1.59-.62,2.55-.62,1.76.2,2.48.61,1.27.97,1.67,1.68c.39.71.58,1.52.58,2.42,0,.31-.02.64-.05.99Zm-2.05-2.94c-.28-.45-.65-.79-1.12-1.03s-1-.35-1.57-.35c-.83,0-1.53.26-2.12.79-.58.53-.92,1.26-1,2.2h6.23c0-.62-.14-1.16-.41-1.61Z"/>
      <path class="z" d="m742.82,614.8c-.6-.26-1.07-.62-1.42-1.08-.35-.46-.54-.99-.58-1.59h1.69c.05.49.28.89.69,1.21s.96.47,1.63.47c.62,0,1.12-.14,1.48-.41.36-.28.54-.62.54-1.04s-.19-.75-.58-.96c-.38-.21-.98-.42-1.78-.62-.73-.19-1.33-.39-1.79-.58-.46-.2-.86-.49-1.19-.88s-.5-.9-.5-1.54c0-.5.15-.97.45-1.39s.73-.75,1.28-1c.55-.25,1.18-.37,1.89-.37,1.09,0,1.97.28,2.65.83s1.03,1.31,1.08,2.27h-1.64c-.04-.52-.24-.93-.62-1.24s-.88-.47-1.52-.47c-.59,0-1.06.12-1.4.38s-.52.58-.52.99c0,.32.1.59.31.8.21.21.47.38.79.5.32.13.76.27,1.32.42.71.19,1.28.38,1.73.57s.83.46,1.14.84c.32.37.48.86.49,1.46,0,.54-.15,1.03-.45,1.46-.3.43-.72.77-1.27,1.02s-1.17.37-1.88.37c-.76,0-1.43-.13-2.03-.39Z"/>
      <path class="z" d="m489.56,641.59l3.06-8.35h1.75l-3.87,9.86h-1.91l-3.87-9.86h1.76l3.08,8.35Z"/>
      <path class="z" d="m496.04,631.32c-.21-.22-.32-.48-.32-.79s.11-.58.32-.79.48-.32.79-.32.55.11.76.32c.21.21.32.48.32.79s-.11.58-.32.79c-.21.21-.47.32-.76.32s-.58-.11-.79-.32Zm1.58,1.93v9.86h-1.64v-9.86h1.64Z"/>
      <path class="z" d="m500.42,635.48c.41-.76.97-1.35,1.68-1.77.71-.42,1.51-.63,2.39-.63s1.61.19,2.25.56c.64.37,1.11.84,1.42,1.4v-1.8h1.66v9.86h-1.66v-1.84c-.32.58-.81,1.05-1.45,1.43-.64.38-1.39.57-2.24.57s-1.67-.21-2.38-.65c-.71-.43-1.27-1.04-1.67-1.82-.41-.78-.61-1.67-.61-2.66s.21-1.89.61-2.66Zm7.29.73c-.3-.55-.71-.98-1.21-1.27-.51-.29-1.07-.44-1.68-.44s-1.17.14-1.67.43c-.5.29-.91.71-1.21,1.26-.3.55-.45,1.2-.45,1.95s.15,1.41.45,1.97c.3.56.7.98,1.21,1.28.5.29,1.06.44,1.67.44s1.17-.15,1.68-.44c.51-.29.92-.72,1.21-1.28.3-.56.45-1.21.45-1.95s-.15-1.39-.45-1.94Z"/>
      <path class="z" d="m517.39,635.48c.41-.76.97-1.35,1.68-1.77.71-.42,1.51-.63,2.38-.63s1.61.19,2.25.56c.64.37,1.11.84,1.42,1.4v-1.8h1.66v9.86h-1.66v-1.84c-.32.58-.81,1.05-1.45,1.43-.64.38-1.39.57-2.24.57s-1.67-.21-2.38-.65c-.71-.43-1.27-1.04-1.67-1.82-.41-.78-.61-1.67-.61-2.66s.2-1.89.61-2.66Zm7.29.73c-.3-.55-.71-.98-1.21-1.27-.51-.29-1.07-.44-1.68-.44s-1.17.14-1.67.43c-.5.29-.91.71-1.21,1.26-.3.55-.45,1.2-.45,1.95s.15,1.41.45,1.97c.3.56.7.98,1.21,1.28.5.29,1.06.44,1.67.44s1.17-.15,1.68-.44c.51-.29.91-.72,1.21-1.28.3-.56.45-1.21.45-1.95s-.15-1.39-.45-1.94Z"/>
      <path class="z" d="m535.82,642.88c-.6-.26-1.07-.62-1.42-1.08-.35-.46-.54-.99-.58-1.59h1.69c.05.49.28.89.69,1.21s.96.47,1.63.47c.62,0,1.12-.14,1.48-.41.36-.28.54-.62.54-1.04s-.19-.75-.58-.96c-.38-.21-.98-.42-1.78-.62-.73-.19-1.33-.39-1.79-.58-.46-.2-.86-.49-1.19-.88s-.5-.9-.5-1.54c0-.5.15-.97.45-1.39s.73-.75,1.28-1c.55-.25,1.18-.37,1.89-.37,1.09,0,1.97.28,2.65.83s1.03,1.31,1.08,2.27h-1.64c-.04-.52-.24-.93-.62-1.24s-.88-.47-1.52-.47c-.59,0-1.06.12-1.4.38s-.52.58-.52.99c0,.32.1.59.31.8.21.21.47.38.79.5.32.13.76.27,1.32.42.71.19,1.28.38,1.73.57s.83.46,1.14.84c.32.37.48.86.49,1.46,0,.54-.15,1.03-.45,1.46-.3.43-.72.77-1.27,1.02s-1.17.37-1.88.37c-.76,0-1.43-.13-2.03-.39Z"/>
      <path class="z" d="m543.76,635.48c.41-.76.97-1.35,1.7-1.77.73-.42,1.56-.63,2.49-.63,1.21,0,2.21.29,3,.88.79.59,1.3,1.4,1.56,2.45h-1.76c-.17-.6-.5-1.07-.98-1.42-.49-.35-1.09-.52-1.81-.52-.94,0-1.69.32-2.27.96-.58.64-.86,1.55-.86,2.73s.29,2.11.86,2.75,1.33.97,2.27.97c.72,0,1.32-.17,1.8-.5.48-.34.81-.82.99-1.44h1.76c-.26,1.01-.79,1.82-1.58,2.42-.79.61-1.78.91-2.97.91-.94,0-1.77-.21-2.49-.63-.73-.42-1.29-1.01-1.7-1.78-.41-.77-.61-1.67-.61-2.7s.2-1.91.61-2.67Z"/>
      <path class="z" d="m561.6,633.54c.6.32,1.07.79,1.41,1.43.34.63.51,1.41.51,2.32v5.81h-1.62v-5.58c0-.98-.25-1.74-.74-2.26-.49-.52-1.16-.78-2.02-.78s-1.55.27-2.06.81c-.51.54-.76,1.32-.76,2.36v5.45h-1.64v-13.32h1.64v4.86c.32-.5.77-.89,1.34-1.17.57-.28,1.21-.41,1.92-.41s1.42.16,2.02.48Z"/>
      <path class="z" d="m575.15,638.78h-7.88c.06.97.39,1.73,1,2.28.61.55,1.34.82,2.21.82.71,0,1.3-.17,1.77-.5s.81-.77,1-1.32h1.76c-.26.95-.79,1.72-1.58,2.31-.79.59-1.78.89-2.95.89-.94,0-1.77-.21-2.51-.63-.74-.42-1.32-1.02-1.74-1.79-.42-.78-.63-1.67-.63-2.69s.2-1.91.61-2.68.98-1.36,1.72-1.77c.74-.41,1.59-.62,2.55-.62s1.76.2,2.48.61c.72.41,1.28.97,1.67,1.68.39.71.58,1.52.58,2.42,0,.31-.02.64-.05.99Zm-2.05-2.94c-.28-.45-.65-.79-1.12-1.03-.47-.23-1-.35-1.58-.35-.83,0-1.53.26-2.12.79-.58.53-.92,1.26-1,2.2h6.23c0-.62-.14-1.16-.41-1.61Z"/>
      <path class="z" d="m577.37,635.48c.41-.76.97-1.35,1.68-1.77.71-.42,1.51-.63,2.4-.63.77,0,1.48.18,2.14.53s1.16.82,1.51,1.39v-5.22h1.66v13.32h-1.66v-1.85c-.32.59-.8,1.07-1.44,1.45-.64.38-1.38.57-2.23.57s-1.67-.21-2.38-.65c-.71-.43-1.28-1.04-1.68-1.82-.41-.78-.61-1.67-.61-2.66s.2-1.89.61-2.66Zm7.29.73c-.3-.55-.71-.98-1.21-1.27-.51-.29-1.07-.44-1.68-.44s-1.17.14-1.67.43c-.5.29-.91.71-1.21,1.26-.3.55-.45,1.2-.45,1.95s.15,1.41.45,1.97c.3.56.7.98,1.21,1.28.5.29,1.06.44,1.67.44s1.17-.15,1.68-.44c.51-.29.92-.72,1.21-1.28.3-.56.45-1.21.45-1.95s-.15-1.39-.45-1.94Z"/>
      <path class="z" d="m598.28,633.24v9.86h-1.64v-1.46c-.31.5-.75.9-1.31,1.18-.56.28-1.17.42-1.84.42-.77,0-1.46-.16-2.07-.48-.61-.32-1.1-.79-1.45-1.43s-.53-1.41-.53-2.32v-5.78h1.62v5.56c0,.97.25,1.72.74,2.24s1.16.78,2.02.78,1.57-.27,2.07-.81c.5-.54.76-1.33.76-2.36v-5.42h1.64Z"/>
      <path class="z" d="m602.69,629.78v13.32h-1.64v-13.32h1.64Z"/>
      <path class="z" d="m614.43,638.78h-7.88c.06.97.39,1.73,1,2.28.61.55,1.34.82,2.21.82.71,0,1.3-.17,1.77-.5.47-.33.81-.77,1-1.32h1.76c-.26.95-.79,1.72-1.58,2.31s-1.78.89-2.95.89c-.94,0-1.77-.21-2.51-.63s-1.32-1.02-1.74-1.79c-.42-.78-.63-1.67-.63-2.69s.2-1.91.61-2.68c.41-.77.98-1.36,1.72-1.77s1.59-.62,2.55-.62,1.76.2,2.48.61,1.27.97,1.67,1.68c.39.71.58,1.52.58,2.42,0,.31-.02.64-.05.99Zm-2.05-2.94c-.28-.45-.65-.79-1.12-1.03s-1-.35-1.57-.35c-.83,0-1.53.26-2.12.79-.58.53-.92,1.26-1,2.2h6.23c0-.62-.14-1.16-.41-1.61Z"/>
      <path class="z" d="m619.51,633.53c.53-.31,1.19-.47,1.95-.47v1.69h-.43c-1.84,0-2.75,1-2.75,2.99v5.36h-1.64v-9.86h1.64v1.6c.29-.56.7-1,1.23-1.31Z"/>
    </g>
    <g>
      <path class="u" d="m130.9,209.2c-11.05,0-20.07-8.3-20.07-20.02s9.02-19.96,20.07-19.96,19.96,8.25,19.96,19.96-8.96,20.02-19.96,20.02Zm0-11.38c4.89,0,7.59-3.46,7.59-8.63s-2.69-8.69-7.59-8.69-7.64,3.41-7.64,8.69,2.64,8.63,7.64,8.63Z"/>
      <path class="u" d="m176,177.42c7.15,0,12.81,5.88,12.81,15.89s-5.66,15.89-12.81,15.89c-4.12,0-7.04-1.81-8.52-4.62v4.23h-12.21v-40.69h12.21v13.91c1.48-2.8,4.4-4.62,8.52-4.62Zm-4.07,10.67c-2.53,0-4.51,1.81-4.51,5.22s1.98,5.22,4.51,5.22,4.51-1.82,4.51-5.22-1.98-5.22-4.51-5.22Z"/>
      <path class="u" d="m206.47,209.2c-8.96,0-14.85-4.78-15.4-11.11h11.71c.28,1.87,1.76,2.69,3.63,2.69,1.26,0,2.03-.66,2.03-1.43,0-4.07-16-.33-16-11.71,0-5.61,4.45-10.23,13.2-10.23s13.2,5,14.08,11.11h-10.83c-.33-1.65-1.54-2.64-3.52-2.64-1.21,0-1.93.49-1.93,1.43,0,3.85,16.22.27,16.22,12.21,0,5.5-4.95,9.68-13.2,9.68Z"/>
      <path class="u" d="m238.7,209.2c-9.29,0-15.84-5.99-15.84-15.89s6.54-15.89,15.84-15.89,15.84,5.88,15.84,15.62c0,.77-.05,1.65-.16,2.42h-19.58c.17,3.13,1.65,4.01,3.3,4.01s2.42-.88,2.86-1.81h12.92c-1.32,6.6-7.37,11.55-15.18,11.55Zm-3.79-19.08h7.26c0-2.14-1.65-3.13-3.46-3.13-2.03,0-3.41.99-3.79,3.13Z"/>
      <path class="u" d="m270.6,208.82h-12.21v-31.02h12.21v5.72c2.42-3.46,6.16-5.94,10.17-5.94v13.03h-3.46c-4.4,0-6.71,1.26-6.71,5.5v12.7Z"/>
      <path class="u" d="m294.8,177.8l5,19.41,4.95-19.41h12.98l-10.34,31.02h-15.23l-10.34-31.02h12.98Z"/>
      <path class="u" d="m335.17,209.2c-9.29,0-15.84-5.99-15.84-15.89s6.54-15.89,15.84-15.89,15.84,5.88,15.84,15.62c0,.77-.06,1.65-.17,2.42h-19.58c.17,3.13,1.65,4.01,3.3,4.01s2.42-.88,2.86-1.81h12.92c-1.32,6.6-7.37,11.55-15.18,11.55Zm-3.79-19.08h7.26c0-2.14-1.65-3.13-3.46-3.13-2.04,0-3.41.99-3.79,3.13Z"/>
    </g>
    <path class="t" d="m246.25,84.92h-11.59v-15.41h28.79v87.08h-17.2v-71.67Z"/>
    <path class="t" d="m434.13,469.63c17.92,0,27.47,10.15,27.47,23.05,0,10.87-6.81,17.56-13.14,19.71v.48c8.84,2.75,14.69,9.91,14.69,21.74,0,14.21-10.03,24.73-28.31,24.73-17.2,0-30.22-8.6-30.94-26.88h16.24c.36,7.53,5.38,12.9,14.33,12.9,8.36,0,12.66-5.26,12.66-12.18,0-9.79-6.21-13.38-18.63-13.38h-3.46v-13.74h3.46c9.79,0,16.96-2.75,16.96-11.35,0-6.81-4.18-10.87-11.83-10.87-8.12,0-11.59,5.26-12.18,10.75h-16.36c.84-16.12,12.3-24.96,29.03-24.96Z"/>
    <path class="t" d="m795.08,262.3c19.71-16.72,40.37-32.13,40.37-48.14,0-7.76-3.46-13.02-11.71-13.02s-12.42,5.73-12.54,14.93h-16.24c.6-19.95,13.38-29.14,29.03-29.14,18.75,0,28.19,11.11,28.19,26.28,0,20.19-19.47,35.95-33.33,47.66h35.24v13.86h-59.01v-12.42Z"/>
    <g>
      <g>
        <line class="p" x1="382.11" y1="473.55" x2="382.11" y2="473.55"/>
        <path class="m" d="m378.13,470.53c-46.06-35.72-75.88-88.59-82.99-146.03"/>
        <line class="p" x1="294.85" y1="322.02" x2="294.85" y2="322.02"/>
      </g>
      <g>
        <line class="p" x1="667.48" y1="451.53" x2="667.48" y2="451.53"/>
        <path class="l" d="m663.84,455.12c-16.69,16.06-35.77,29.32-56.44,39.34"/>
        <line class="p" x1="605.08" y1="495.56" x2="605.08" y2="495.56"/>
      </g>
      <g>
        <line class="p" x1="346.13" y1="155.53" x2="346.13" y2="155.53"/>
        <path class="i" d="m349.43,151.76c55.71-61.98,144.57-89.15,229.11-62.17,78.2,24.96,132.57,89.82,147.81,164.93"/>
        <line class="p" x1="726.83" y1="256.98" x2="726.83" y2="256.98"/>
      </g>
    </g>
    <g>
      <g>
        <path class="q" d="m688.4,451.91c-18.05,20.68-39.47,37.91-63.1,51.11"/>
        <path class="g" d="m686.91,450.7c.69-.77,1.88-.83,2.65-.14.77.69.83,1.88.14,2.65s-1.88.83-2.65.14c-.77-.69-.83-1.88-.14-2.65Z"/>
        <path class="g" d="m624.42,501.32c-.9.52-1.21,1.67-.69,2.57.52.9,1.67,1.21,2.57.69.9-.52,1.21-1.67.69-2.57-.52-.9-1.67-1.21-2.57-.69Z"/>
      </g>
      <g>
        <path class="q" d="m745.01,267.41c-10.94-88.99-72.17-167.89-163.19-196.94-94.34-30.11-193.63,1.98-253.59,73.4"/>
        <path class="g" d="m746.83,267.07c.14,1.03-.59,1.97-1.61,2.11-1.03.14-1.97-.59-2.11-1.61-.14-1.03.59-1.97,1.61-2.11,1.03-.14,1.97.59,2.11,1.61Z"/>
        <path class="g" d="m326.88,142.6c-.68.79-.59,1.97.2,2.65.79.68,1.97.59,2.65-.2.68-.79.59-1.97-.2-2.65-.79-.68-1.97-.59-2.65.2Z"/>
      </g>
      <g>
        <path class="q" d="m385.86,498.16c-61.99-37.97-102.52-102.3-111.27-173.02"/>
        <path class="g" d="m386.82,496.48c.87.56,1.13,1.72.56,2.6-.56.87-1.72,1.13-2.6.56-.87-.56-1.13-1.72-.56-2.6.56-.87,1.72-1.13,2.6-.56Z"/>
        <path class="g" d="m276.51,324.95c-.15-1.03-1.1-1.74-2.13-1.59-1.03.15-1.74,1.1-1.59,2.13.15,1.03,1.1,1.74,2.13,1.59,1.03-.15,1.74-1.1,1.59-2.13Z"/>
      </g>
    </g>
    <g>
      <polyline class="q" points="754.94 438.54 819.92 438.54 819.92 406.33 953.22 406.33"/>
      <circle class="g" cx="755.03" cy="438.54" r="1.88"/>
      <path class="g" d="m953.12,408.21c1.04,0,1.88-.84,1.88-1.88s-.84-1.88-1.88-1.88-1.88.84-1.88,1.88.84,1.88,1.88,1.88Z"/>
    </g>
    <g>
      <polyline class="q" points="462.52 587.96 462.52 665.05 689.63 665.05"/>
      <circle class="g" cx="462.52" cy="588.06" r="1.88"/>
      <circle class="g" cx="689.54" cy="665.05" r="1.88"/>
    </g>
    <g>
      <polyline class="q" points="175.35 322.89 45 322.89 45 287.65"/>
      <circle class="g" cx="175.26" cy="322.89" r="1.88"/>
      <path class="g" d="m46.88,287.74c0-1.04-.84-1.88-1.88-1.88s-1.88.84-1.88,1.88.84,1.88,1.88,1.88,1.88-.84,1.88-1.88Z"/>
    </g>
    <path class="o" d="m510.68,488.39c-42.41,0-81.54-14.08-112.95-37.82"/>
    <g>
      <g>
        <path class="n" d="m397.72,450.57c-36.9-27.88-63.17-69.09-71.65-116.47"/>
        <polygon class="x" points="324.96 327.13 330.6 336.28 326.2 334.62 322.58 337.61 324.96 327.13"/>
      </g>
      <g>
        <path class="n" d="m634.68,441.55c-31.41,27.7-72.17,45.05-116.94,46.71"/>
        <polygon class="x" points="510.68 488.39 520.53 484.09 518.27 488.21 520.72 492.22 510.68 488.39"/>
      </g>
      <g>
        <path class="n" d="m399.86,149.52c31.05-22.78,69.36-36.23,110.82-36.23,88.18,0,162.15,60.86,182.19,142.86"/>
        <polygon class="x" points="694.42 263.04 688.24 254.24 692.73 255.64 696.17 252.44 694.42 263.04"/>
      </g>
    </g>
    <g>
      <path class="j" d="m388.51,460.33c-41.59-31.38-70.73-78.38-78.7-132.28"/>
      <path class="j" d="m656.66,439.27c-27.23,28.15-62.53,48.45-102.17,57.17"/>
      <path class="j" d="m367.09,154.53c36.75-36.75,87.51-59.47,143.59-59.47,98.05,0,179.87,69.5,198.89,161.92"/>
    </g>
    <g class="h">
      <g>
        <path class="w" d="m533.38,322.61h-1.28c-.11,0-.21-.1-.23-.21l-.55-2.29h-2.77l-.55,2.29c-.02.11-.12.21-.23.21h-1.28c-.12,0-.22-.08-.22-.21,0-.01.01-.04.01-.06l1.98-7.56c.29-1.12,1.16-1.23,1.68-1.23s1.39.11,1.68,1.23l1.98,7.56s.01.05.01.06c0,.12-.1.21-.22.21Zm-3.25-7.45c-.04-.15-.07-.19-.19-.19s-.16.05-.19.19l-.87,3.58h2.12l-.87-3.58Z"/>
        <path class="w" d="m539.88,319.27c-.31,0-.79-.04-1.07-.05v3.15c0,.13-.1.24-.23.24h-1.21c-.13,0-.24-.11-.24-.24v-8.29c0-.24.14-.33.39-.36.63-.1,1.48-.16,2.36-.16,1.86,0,3.47.65,3.47,2.78v.11c0,2.13-1.62,2.82-3.47,2.82Zm1.81-2.93c0-1.01-.6-1.4-1.81-1.4-.25,0-.86.02-1.07.05v2.87c.19.01.87.04,1.07.04,1.3,0,1.81-.48,1.81-1.45v-.11Z"/>
        <path class="w" d="m552.16,322.53c-.39.06-.86.17-2.29.17-1.57,0-2.78-.42-2.78-2.47v-4.21c0-2.05,1.22-2.47,2.78-2.47,1.43,0,1.9.11,2.29.17.18.02.24.08.24.25v.77c0,.13-.11.24-.24.24h-2.46c-.7,0-.95.24-.95,1.04v1.3h3.27c.13,0,.24.11.24.24v.87c0,.13-.11.24-.24.24h-3.27v1.55c0,.8.25,1.04.95,1.04h2.46c.13,0,.24.11.24.24v.77c0,.17-.06.23-.24.25Z"/>
        <path class="w" d="m562.8,322.61h-1.47c-.13,0-.18-.12-.24-.24l-1.74-3.22h-.17c-.31,0-.8-.04-1.07-.05v3.27c0,.13-.1.24-.23.24h-1.21c-.13,0-.24-.11-.24-.24v-8.29c0-.24.14-.33.39-.36.63-.1,1.48-.16,2.36-.16,1.86,0,3.47.66,3.47,2.72v.11c0,1.28-.64,2.07-1.63,2.46l1.89,3.52s.02.07.02.1c0,.08-.05.14-.14.14Zm-1.81-6.33c0-.9-.6-1.29-1.81-1.29-.25,0-.86.02-1.07.05v2.71c.19.01.87.04,1.07.04,1.24,0,1.81-.34,1.81-1.4v-.11Z"/>
        <path class="w" d="m571.82,315.05h-2.11v7.32c0,.13-.11.24-.24.24h-1.19c-.13,0-.24-.11-.24-.24v-7.32h-2.11c-.13,0-.24-.08-.24-.22v-.95c0-.13.11-.23.24-.23h5.89c.13,0,.24.1.24.23v.95c0,.13-.11.22-.24.22Z"/>
        <path class="w" d="m578.93,322.7c-1.94,0-3.31-.84-3.31-3.41v-5.41c0-.13.11-.23.24-.23h1.19c.13,0,.24.1.24.23v5.41c0,1.38.34,2.03,1.64,2.03s1.64-.65,1.64-2.03v-5.41c0-.13.11-.23.24-.23h1.19c.13,0,.24.1.24.23v5.41c0,2.57-1.37,3.41-3.32,3.41Z"/>
        <path class="w" d="m592.76,322.61h-1.47c-.13,0-.18-.12-.24-.24l-1.74-3.22h-.17c-.31,0-.79-.04-1.07-.05v3.27c0,.13-.1.24-.23.24h-1.21c-.13,0-.24-.11-.24-.24v-8.29c0-.24.14-.33.39-.36.63-.1,1.48-.16,2.36-.16,1.86,0,3.47.66,3.47,2.72v.11c0,1.28-.64,2.07-1.63,2.46l1.89,3.52s.02.07.02.1c0,.08-.05.14-.14.14Zm-1.81-6.33c0-.9-.6-1.29-1.81-1.29-.25,0-.86.02-1.07.05v2.71c.19.01.87.04,1.07.04,1.24,0,1.81-.34,1.81-1.4v-.11Z"/>
        <path class="w" d="m601.44,322.53c-.39.06-.86.17-2.29.17-1.57,0-2.78-.42-2.78-2.47v-4.21c0-2.05,1.22-2.47,2.78-2.47,1.43,0,1.9.11,2.29.17.18.02.24.08.24.25v.77c0,.13-.11.24-.24.24h-2.46c-.7,0-.95.24-.95,1.04v1.3h3.27c.13,0,.24.11.24.24v.87c0,.13-.11.24-.24.24h-3.27v1.55c0,.8.25,1.04.95,1.04h2.46c.13,0,.24.11.24.24v.77c0,.17-.06.23-.24.25Z"/>
      </g>
      <g class="k">
        <path class="s" d="m485.7,286.46h-6.9c-1.6,0-2.18.54-2.18,2.31v3.06h8.81c.37,0,.68.31.68.68v3.23c0,.37-.31.68-.68.68h-8.81v9.93c0,.37-.31.68-.68.68h-4.42c-.37,0-.68-.31-.68-.68v-17.58c0-6.19,3.91-7.28,8.3-7.28,3.67,0,5.37.27,6.56.44.48.07.68.24.68.68v3.16c0,.37-.31.68-.68.68"/>
        <path class="s" d="m496.92,307.04h-4.15c-.37,0-.71-.34-.71-.71v-24.69c0-.37.34-.68.71-.68h4.15c.37,0,.65.31.65.68v24.69c0,.37-.27.71-.65.71"/>
        <path class="s" d="m519.39,307.04h-3.81c-.37,0-.68-.31-.68-.68v-.82c-1.87,1.33-3.37,1.77-5.54,1.77-4.93,0-6.02-3.44-6.02-7.72v-11.32c0-.37.34-.71.71-.71h4.12c.37,0,.68.34.68.71v11.32c0,2.38.44,3.16,2.52,3.16.99,0,2.04-.48,3.2-1.09v-13.4c0-.37.31-.71.68-.71h4.11c.37,0,.71.34.71.71v18.09c0,.37-.31.68-.68.68"/>
        <path class="s" d="m543.23,307.04h-5.14c-.37,0-.58-.2-.88-.71l-3.37-5.27-3.16,5.31c-.31.51-.51.68-.89.68h-4.56c-.24,0-.37-.17-.37-.41,0-.07,0-.17.07-.27l5.95-9.45-5.78-8.64c-.03-.07-.07-.14-.07-.2,0-.27.24-.51.51-.51h5.07c.37,0,.58.27.88.71l3.03,4.69,2.79-4.69c.31-.51.51-.71.88-.71h4.56c.24,0,.41.2.41.44,0,.1,0,.17-.07.27l-5.61,8.91,6.15,9.15c.03.07.07.14.07.24,0,.24-.2.48-.48.48"/>
        <path class="s" d="m567.58,307.04h-3.33c-.72,0-1.23-.14-1.77-1.05l-7.75-13.4c-.14-.2-.21-.27-.31-.27s-.17.07-.17.27v13.77c0,.37-.31.68-.68.68h-4.01c-.37,0-.68-.31-.68-.68v-23.29c0-.71.58-1.29,1.29-1.29h3.43c.68,0,1.02.34,1.43,1.05l8.06,14.01c.14.2.17.27.27.27.07,0,.17-.07.17-.31v-14.38c0-.37.31-.65.68-.65h4.01c.37,0,.68.27.68.65v23.33c0,.71-.61,1.29-1.33,1.29"/>
        <path class="s" d="m580.12,285.34h-4.42c-.37,0-.68-.31-.68-.68v-3.16c0-.37.31-.68.68-.68h4.42c.37,0,.68.31.68.68v3.16c0,.37-.31.68-.68.68m-.14,21.7h-4.15c-.37,0-.68-.31-.68-.68v-18.13c0-.37.31-.68.68-.68h4.15c.37,0,.68.31.68.68v18.13c0,.37-.31.68-.68.68"/>
        <path class="s" d="m602.6,307.04h-4.12c-.37,0-.68-.34-.68-.71v-11.32c0-2.38-.44-3.16-2.52-3.16-.99,0-2.04.48-3.2,1.09v13.4c0,.37-.31.71-.68.71h-4.12c-.37,0-.71-.34-.71-.71v-18.09c0-.37.31-.68.68-.68h3.81c.37,0,.68.31.68.68v.82c1.87-1.33,3.37-1.77,5.54-1.77,4.93,0,6.02,3.44,6.02,7.72v11.32c0,.37-.34.71-.71.71"/>
        <path class="s" d="m609.36,317.86c-.88,0-1.73-.07-2.72-.24-.44-.07-.68-.31-.68-.68v-2.69c0-.37.27-.61.71-.61h1.5c.95,0,1.05-.44,1.05-1.6v-23.79c0-.37.27-.71.65-.71h4.22c.37,0,.65.34.65.71v23.79c0,4.52-2.07,5.82-5.37,5.82m4.8-32.53h-4.39c-.37,0-.68-.31-.68-.68v-3.16c0-.38.31-.68.68-.68h4.39c.37,0,.71.31.71.68v3.16c0,.37-.34.68-.71.68"/>
        <path class="s" d="m635,307.03h-3.81c-.37,0-.68-.31-.68-.68v-.54c-1.33.95-2.69,1.53-4.73,1.53-2.96,0-5.81-1.43-5.81-5.85v-.31c0-3.98,2.55-5.75,8.36-5.75h1.84v-1.22c0-1.94-.95-2.35-2.55-2.35-2.18,0-4.59.14-5.64.24h-.17c-.34,0-.61-.17-.61-.61v-2.75c0-.37.24-.65.65-.75,1.26-.31,3.64-.71,5.88-.71,4.9,0,7.96,1.97,7.96,6.94v12.14c0,.37-.31.68-.68.68m-4.73-8.33h-1.94c-2.38,0-2.99.82-2.99,2.48v.31c0,1.43.71,1.7,2.14,1.7,1.02,0,1.97-.34,2.79-.75v-3.74Z"/>
        <path class="v" d="m442.82,298.53c-.94-1.31-.79-3.14.37-4.26.82-.8,1.76-1.51,2.79-2.12,1.01-.61,1.65-1.69,1.65-2.87v-3.84c0-10.51-10.2-11.5-15.67-12.04-7.53-.73-9.5-1.61-10.4-4.41-.16-.51-.43-1-.82-1.37-3.35-3.2-7.83-1.62-9.1,1.72-.96,2.53-3.07,3.36-10.28,4.06-5.48.53-15.67,1.52-15.67,12.04v3.85c0,1.18.64,2.26,1.65,2.87,1.02.61,1.96,1.32,2.78,2.12,1.16,1.12,1.31,2.95.37,4.26-.75,1.04-1.75,1.86-2.9,2.37-1.17.53-1.9,1.72-1.9,3v4.35c0,10.51,10.2,11.5,15.67,12.03,7.53.73,9.5,1.61,10.4,4.41.17.51.43,1,.82,1.37,3.35,3.2,7.83,1.63,9.1-1.72.96-2.52,3.07-3.36,10.28-4.06,5.48-.53,15.67-1.52,15.67-12.03v-4.35c0-1.29-.74-2.47-1.91-3-1.15-.52-2.15-1.33-2.9-2.38"/>
        <path class="s" d="m455.71,291.46c-3.97-.18-8.57,1.83-11.1,4.9,1.03,2.55,3.71,3.98,6.4,3.38-.77-1.92-2.49-3.2-4.44-3.46,3.44-.41,7.01-2.26,9.14-4.82"/>
        <path class="w" d="m403.77,293.57c-.48,0-.94.1-1.35.29.29.27.44.71.32,1.16-.12.43-.5.75-.94.81-.4.05-.76-.09-1.01-.36-.28.62-.38,1.34-.22,2.09.3,1.35,1.47,2.4,2.85,2.53,1.96.2,3.61-1.34,3.61-3.25,0-1.81-1.46-3.27-3.27-3.27m1.47,5.74c-.43,0-.77-.34-.77-.77s.34-.77.77-.77.77.35.77.77-.35.77-.77.77"/>
        <path class="w" d="m426.6,295.47c-.29.63-.39,1.36-.21,2.12.28,1.21,1.25,2.18,2.47,2.44,2.29.49,4.29-1.43,3.95-3.7-.22-1.44-1.42-2.58-2.86-2.74-.62-.07-1.21.03-1.73.27.29.27.45.69.33,1.14-.11.4-.45.73-.86.81-.43.09-.83-.06-1.09-.34m3.67,3.06c0-.42.35-.77.77-.77s.78.35.78.77-.35.77-.78.77-.77-.34-.77-.77"/>
        <path class="w" d="m430,288.54c-6.01,0-4,4.28-13.35,5.35-8.14-.93-7.67-4.3-11.38-5.16-4.95-1.14-9.91,2.47-10.24,7.54-.32,4.84,3.51,8.86,8.28,8.86,6,0,4-4.28,13.34-5.35,8.15.93,7.67,4.3,11.38,5.15,4.95,1.14,9.91-2.47,10.24-7.54.32-4.83-3.51-8.86-8.28-8.86m-26.22,13.17c-2.74,0-4.94-2.26-4.87-5.01.07-2.54,2.19-4.66,4.73-4.73,2.75-.08,5.01,2.13,5.01,4.87s-2.18,4.87-4.87,4.87m25.76,0c-2.74,0-4.95-2.26-4.87-5.01.07-2.54,2.19-4.66,4.74-4.73,2.75-.07,5,2.14,5,4.87s-2.18,4.87-4.87,4.87"/>
        <path class="s" d="m442.26,290.43c-1.13,0-2.05-.92-2.05-2.05v-2.95c0-3.29-2.02-3.98-8.97-4.65-5.01-.49-11.03-1.07-14.58-5.44-3.55,4.37-9.57,4.95-14.58,5.44-6.95.67-8.97,1.37-8.97,4.65v2.95c0,1.13-.92,2.05-2.05,2.05s-2.05-.92-2.05-2.05v-2.95c0-7.5,7.03-8.18,12.68-8.73,6.72-.65,11.26-1.44,13.06-6.19.3-.8,1.06-1.32,1.92-1.32s1.61.53,1.92,1.32c1.8,4.75,6.34,5.54,13.06,6.19,5.65.55,12.67,1.23,12.67,8.73v2.95c0,1.13-.92,2.05-2.05,2.05"/>
        <path class="s" d="m416.65,324.49c-.85,0-1.61-.53-1.92-1.32-1.8-4.75-6.34-5.53-13.06-6.19-5.65-.55-12.68-1.23-12.68-8.73v-2.95c0-1.13.92-2.05,2.05-2.05s2.05.92,2.05,2.05v2.95c0,3.29,2.02,3.98,8.97,4.66,5.01.49,11.03,1.07,14.58,5.44,3.55-4.37,9.57-4.95,14.58-5.44,6.95-.68,8.98-1.37,8.98-4.66v-2.95c0-1.13.92-2.05,2.05-2.05s2.05.92,2.05,2.05v2.95c0,7.5-7.03,8.18-12.68,8.73-6.72.65-11.26,1.44-13.06,6.19-.3.8-1.06,1.32-1.92,1.32"/>
      </g>
    </g>
  </g>
</svg>