<svg width="561" height="302" viewBox="0 0 561 302" fill="none" xmlns="http://www.w3.org/2000/svg">
<g filter="url(#filter0_d_59_1324)">
<rect x="295.5" y="38.5" width="225" height="103" rx="11.5" fill="#4F4D4A"/>
<path d="M354.368 65.648L353.816 67.568H357.824L357.272 65.648C357.016 64.816 356.768 63.96 356.528 63.08C356.304 62.2 356.08 61.328 355.856 60.464H355.76C355.552 61.344 355.328 62.224 355.088 63.104C354.864 63.968 354.624 64.816 354.368 65.648ZM349.112 74L354.224 58.304H357.488L362.6 74H359.672L358.448 69.752H353.168L351.944 74H349.112ZM364.295 78.656V62.216H366.575L366.767 63.464H366.863C367.359 63.048 367.911 62.688 368.519 62.384C369.143 62.08 369.775 61.928 370.415 61.928C371.887 61.928 373.023 62.472 373.823 63.56C374.639 64.648 375.047 66.104 375.047 67.928C375.047 69.272 374.807 70.424 374.327 71.384C373.847 72.328 373.223 73.048 372.455 73.544C371.703 74.04 370.887 74.288 370.007 74.288C369.495 74.288 368.983 74.176 368.471 73.952C367.959 73.712 367.463 73.392 366.983 72.992L367.055 74.96V78.656H364.295ZM369.431 72.008C370.215 72.008 370.871 71.664 371.399 70.976C371.927 70.288 372.191 69.28 372.191 67.952C372.191 66.768 371.991 65.848 371.591 65.192C371.191 64.536 370.543 64.208 369.647 64.208C368.815 64.208 367.951 64.648 367.055 65.528V71.024C367.487 71.376 367.903 71.632 368.303 71.792C368.703 71.936 369.079 72.008 369.431 72.008ZM377.842 78.656V62.216H380.122L380.314 63.464H380.41C380.906 63.048 381.458 62.688 382.066 62.384C382.69 62.08 383.322 61.928 383.962 61.928C385.434 61.928 386.57 62.472 387.37 63.56C388.186 64.648 388.594 66.104 388.594 67.928C388.594 69.272 388.354 70.424 387.874 71.384C387.394 72.328 386.77 73.048 386.002 73.544C385.25 74.04 384.434 74.288 383.554 74.288C383.042 74.288 382.53 74.176 382.018 73.952C381.506 73.712 381.01 73.392 380.53 72.992L380.602 74.96V78.656H377.842ZM382.978 72.008C383.762 72.008 384.418 71.664 384.946 70.976C385.474 70.288 385.738 69.28 385.738 67.952C385.738 66.768 385.538 65.848 385.138 65.192C384.738 64.536 384.09 64.208 383.194 64.208C382.362 64.208 381.498 64.648 380.602 65.528V71.024C381.034 71.376 381.45 71.632 381.85 71.792C382.25 71.936 382.626 72.008 382.978 72.008ZM394.077 74.288C393.101 74.288 392.405 73.992 391.989 73.4C391.589 72.808 391.389 72 391.389 70.976V57.056H394.149V71.12C394.149 71.456 394.213 71.696 394.341 71.84C394.469 71.968 394.605 72.032 394.749 72.032C394.813 72.032 394.869 72.032 394.917 72.032C394.981 72.016 395.069 72 395.181 71.984L395.541 74.048C395.381 74.112 395.173 74.168 394.917 74.216C394.677 74.264 394.397 74.288 394.077 74.288ZM397.904 74V62.216H400.664V74H397.904ZM399.296 60.152C398.8 60.152 398.4 60.008 398.096 59.72C397.792 59.432 397.64 59.048 397.64 58.568C397.64 58.104 397.792 57.728 398.096 57.44C398.4 57.152 398.8 57.008 399.296 57.008C399.792 57.008 400.192 57.152 400.496 57.44C400.8 57.728 400.952 58.104 400.952 58.568C400.952 59.048 400.8 59.432 400.496 59.72C400.192 60.008 399.792 60.152 399.296 60.152ZM409.106 74.288C408.034 74.288 407.066 74.048 406.202 73.568C405.354 73.072 404.674 72.368 404.162 71.456C403.666 70.528 403.418 69.416 403.418 68.12C403.418 66.808 403.69 65.696 404.234 64.784C404.778 63.856 405.498 63.152 406.394 62.672C407.306 62.176 408.282 61.928 409.322 61.928C410.074 61.928 410.73 62.056 411.29 62.312C411.85 62.568 412.346 62.88 412.778 63.248L411.434 65.048C411.13 64.776 410.818 64.568 410.498 64.424C410.178 64.264 409.834 64.184 409.466 64.184C408.522 64.184 407.746 64.544 407.138 65.264C406.546 65.984 406.25 66.936 406.25 68.12C406.25 69.288 406.538 70.232 407.114 70.952C407.706 71.672 408.466 72.032 409.394 72.032C409.858 72.032 410.29 71.936 410.69 71.744C411.106 71.536 411.482 71.296 411.818 71.024L412.946 72.848C412.402 73.328 411.794 73.688 411.122 73.928C410.45 74.168 409.778 74.288 409.106 74.288ZM417.893 74.288C416.869 74.288 416.029 73.968 415.373 73.328C414.733 72.688 414.413 71.856 414.413 70.832C414.413 69.568 414.965 68.592 416.069 67.904C417.173 67.2 418.933 66.72 421.349 66.464C421.333 65.84 421.165 65.304 420.845 64.856C420.541 64.392 419.989 64.16 419.189 64.16C418.613 64.16 418.045 64.272 417.485 64.496C416.941 64.72 416.405 64.992 415.877 65.312L414.869 63.464C415.525 63.048 416.261 62.688 417.077 62.384C417.909 62.08 418.789 61.928 419.717 61.928C421.189 61.928 422.285 62.368 423.005 63.248C423.741 64.112 424.109 65.368 424.109 67.016V74H421.829L421.637 72.704H421.541C421.013 73.152 420.445 73.528 419.837 73.832C419.245 74.136 418.597 74.288 417.893 74.288ZM418.781 72.128C419.261 72.128 419.693 72.016 420.077 71.792C420.477 71.552 420.901 71.232 421.349 70.832V68.192C419.749 68.4 418.637 68.712 418.013 69.128C417.389 69.528 417.077 70.024 417.077 70.616C417.077 71.144 417.237 71.528 417.557 71.768C417.877 72.008 418.285 72.128 418.781 72.128ZM431.189 74.288C429.829 74.288 428.861 73.896 428.285 73.112C427.725 72.312 427.445 71.28 427.445 70.016V64.4H425.765V62.336L427.589 62.216L427.925 59H430.229V62.216H433.229V64.4H430.229V70.016C430.229 71.392 430.781 72.08 431.885 72.08C432.093 72.08 432.309 72.056 432.533 72.008C432.757 71.944 432.949 71.88 433.109 71.816L433.589 73.856C433.269 73.968 432.901 74.064 432.485 74.144C432.085 74.24 431.653 74.288 431.189 74.288ZM435.709 74V62.216H438.469V74H435.709ZM437.101 60.152C436.605 60.152 436.205 60.008 435.901 59.72C435.597 59.432 435.445 59.048 435.445 58.568C435.445 58.104 435.597 57.728 435.901 57.44C436.205 57.152 436.605 57.008 437.101 57.008C437.597 57.008 437.997 57.152 438.301 57.44C438.605 57.728 438.757 58.104 438.757 58.568C438.757 59.048 438.605 59.432 438.301 59.72C437.997 60.008 437.597 60.152 437.101 60.152ZM446.814 74.288C445.838 74.288 444.926 74.048 444.078 73.568C443.23 73.072 442.542 72.368 442.014 71.456C441.486 70.528 441.222 69.416 441.222 68.12C441.222 66.808 441.486 65.696 442.014 64.784C442.542 63.856 443.23 63.152 444.078 62.672C444.926 62.176 445.838 61.928 446.814 61.928C447.806 61.928 448.726 62.176 449.574 62.672C450.422 63.152 451.11 63.856 451.638 64.784C452.166 65.696 452.43 66.808 452.43 68.12C452.43 69.416 452.166 70.528 451.638 71.456C451.11 72.368 450.422 73.072 449.574 73.568C448.726 74.048 447.806 74.288 446.814 74.288ZM446.814 72.032C447.678 72.032 448.358 71.672 448.854 70.952C449.35 70.232 449.598 69.288 449.598 68.12C449.598 66.936 449.35 65.984 448.854 65.264C448.358 64.544 447.678 64.184 446.814 64.184C445.95 64.184 445.27 64.544 444.774 65.264C444.294 65.984 444.054 66.936 444.054 68.12C444.054 69.288 444.294 70.232 444.774 70.952C445.27 71.672 445.95 72.032 446.814 72.032ZM455.162 74V62.216H457.442L457.634 63.8H457.73C458.258 63.288 458.834 62.848 459.458 62.48C460.082 62.112 460.794 61.928 461.594 61.928C462.858 61.928 463.778 62.336 464.354 63.152C464.93 63.968 465.218 65.12 465.218 66.608V74H462.458V66.968C462.458 65.992 462.314 65.304 462.026 64.904C461.738 64.504 461.266 64.304 460.61 64.304C460.098 64.304 459.642 64.432 459.242 64.688C458.858 64.928 458.418 65.288 457.922 65.768V74H455.162Z" fill="#F3F2F2"/>
<rect x="307.5" y="88.5" width="201" height="41" rx="7.5" fill="#F8773D"/>
<path d="M345.372 109.192L344.628 111.592H349.356L348.612 109.192C348.324 108.312 348.052 107.44 347.796 106.576C347.54 105.696 347.284 104.8 347.028 103.888H346.932C346.692 104.8 346.444 105.696 346.188 106.576C345.932 107.44 345.66 108.312 345.372 109.192ZM340.572 118L345.9 102.256H348.156L353.484 118H351.348L349.86 113.2H344.124L342.612 118H340.572ZM355.523 122.92V106.336H357.155L357.323 107.68H357.395C357.923 107.232 358.499 106.848 359.123 106.528C359.763 106.208 360.427 106.048 361.115 106.048C362.619 106.048 363.763 106.592 364.547 107.68C365.331 108.752 365.723 110.192 365.723 112C365.723 113.312 365.483 114.44 365.003 115.384C364.539 116.328 363.923 117.048 363.155 117.544C362.403 118.04 361.579 118.288 360.683 118.288C360.139 118.288 359.595 118.168 359.051 117.928C358.523 117.688 357.987 117.36 357.443 116.944L357.491 118.984V122.92H355.523ZM360.347 116.632C361.307 116.632 362.099 116.224 362.723 115.408C363.363 114.576 363.683 113.44 363.683 112C363.683 110.72 363.443 109.688 362.963 108.904C362.499 108.104 361.715 107.704 360.611 107.704C360.115 107.704 359.611 107.84 359.099 108.112C358.603 108.384 358.067 108.776 357.491 109.288V115.408C358.019 115.856 358.531 116.176 359.027 116.368C359.523 116.544 359.963 116.632 360.347 116.632ZM373.563 118.288C372.523 118.288 371.579 118.048 370.731 117.568C369.883 117.072 369.211 116.368 368.715 115.456C368.219 114.544 367.971 113.456 367.971 112.192C367.971 110.912 368.219 109.816 368.715 108.904C369.227 107.992 369.883 107.288 370.683 106.792C371.483 106.296 372.323 106.048 373.203 106.048C374.691 106.048 375.835 106.544 376.635 107.536C377.451 108.528 377.859 109.856 377.859 111.52C377.859 111.728 377.851 111.936 377.835 112.144C377.835 112.336 377.819 112.504 377.787 112.648H369.915C369.995 113.88 370.379 114.864 371.067 115.6C371.771 116.336 372.683 116.704 373.803 116.704C374.363 116.704 374.875 116.624 375.339 116.464C375.819 116.288 376.275 116.064 376.707 115.792L377.403 117.088C376.907 117.408 376.339 117.688 375.699 117.928C375.075 118.168 374.363 118.288 373.563 118.288ZM369.891 111.232H376.131C376.131 110.048 375.875 109.152 375.363 108.544C374.867 107.92 374.163 107.608 373.251 107.608C372.435 107.608 371.699 107.928 371.043 108.568C370.403 109.192 370.019 110.08 369.891 111.232ZM380.741 118V106.336H382.373L382.541 108.448H382.613C383.013 107.712 383.501 107.128 384.077 106.696C384.653 106.264 385.269 106.048 385.925 106.048C386.389 106.048 386.805 106.128 387.173 106.288L386.789 108.016C386.597 107.952 386.421 107.904 386.261 107.872C386.101 107.84 385.901 107.824 385.661 107.824C385.165 107.824 384.645 108.024 384.101 108.424C383.573 108.824 383.109 109.52 382.709 110.512V118H380.741ZM392.734 118.288C391.486 118.288 390.614 117.928 390.118 117.208C389.638 116.488 389.398 115.552 389.398 114.4V107.944H387.67V106.456L389.494 106.336L389.734 103.072H391.39V106.336H394.534V107.944H391.39V114.424C391.39 115.144 391.518 115.704 391.774 116.104C392.046 116.488 392.518 116.68 393.19 116.68C393.398 116.68 393.622 116.648 393.862 116.584C394.102 116.504 394.318 116.432 394.51 116.368L394.894 117.856C394.574 117.968 394.222 118.064 393.838 118.144C393.47 118.24 393.102 118.288 392.734 118.288ZM400.579 118.288C399.347 118.288 398.443 117.904 397.867 117.136C397.291 116.352 397.003 115.216 397.003 113.728V106.336H398.995V113.464C398.995 114.552 399.163 115.344 399.499 115.84C399.851 116.336 400.411 116.584 401.179 116.584C401.787 116.584 402.323 116.432 402.787 116.128C403.267 115.808 403.779 115.304 404.323 114.616V106.336H406.291V118H404.659L404.491 116.176H404.419C403.875 116.816 403.299 117.328 402.691 117.712C402.083 118.096 401.379 118.288 400.579 118.288ZM410.226 118V106.336H411.858L412.026 108.448H412.098C412.498 107.712 412.986 107.128 413.562 106.696C414.138 106.264 414.754 106.048 415.41 106.048C415.874 106.048 416.29 106.128 416.658 106.288L416.274 108.016C416.082 107.952 415.906 107.904 415.746 107.872C415.586 107.84 415.386 107.824 415.146 107.824C414.65 107.824 414.13 108.024 413.586 108.424C413.058 108.824 412.594 109.52 412.194 110.512V118H410.226ZM423.04 118.288C422 118.288 421.056 118.048 420.208 117.568C419.36 117.072 418.688 116.368 418.192 115.456C417.696 114.544 417.448 113.456 417.448 112.192C417.448 110.912 417.696 109.816 418.192 108.904C418.704 107.992 419.36 107.288 420.16 106.792C420.96 106.296 421.8 106.048 422.68 106.048C424.168 106.048 425.312 106.544 426.112 107.536C426.928 108.528 427.336 109.856 427.336 111.52C427.336 111.728 427.328 111.936 427.312 112.144C427.312 112.336 427.296 112.504 427.264 112.648H419.392C419.472 113.88 419.856 114.864 420.544 115.6C421.248 116.336 422.16 116.704 423.28 116.704C423.84 116.704 424.352 116.624 424.816 116.464C425.296 116.288 425.752 116.064 426.184 115.792L426.88 117.088C426.384 117.408 425.816 117.688 425.176 117.928C424.552 118.168 423.84 118.288 423.04 118.288ZM419.368 111.232H425.608C425.608 110.048 425.352 109.152 424.84 108.544C424.344 107.92 423.64 107.608 422.728 107.608C421.912 107.608 421.176 107.928 420.52 108.568C419.88 109.192 419.496 110.08 419.368 111.232ZM439.583 118.288C438.479 118.288 437.455 118.08 436.511 117.664C435.567 117.232 434.751 116.664 434.063 115.96L435.263 114.568C435.823 115.16 436.479 115.64 437.231 116.008C437.999 116.36 438.791 116.536 439.607 116.536C440.647 116.536 441.455 116.304 442.031 115.84C442.607 115.36 442.895 114.736 442.895 113.968C442.895 113.424 442.775 112.992 442.535 112.672C442.311 112.352 441.999 112.08 441.599 111.856C441.215 111.632 440.775 111.408 440.279 111.184L438.023 110.2C437.527 109.992 437.031 109.72 436.535 109.384C436.055 109.048 435.647 108.616 435.311 108.088C434.991 107.56 434.831 106.912 434.831 106.144C434.831 105.344 435.039 104.632 435.455 104.008C435.887 103.368 436.479 102.872 437.231 102.52C437.983 102.152 438.831 101.968 439.775 101.968C440.719 101.968 441.591 102.152 442.391 102.52C443.191 102.872 443.871 103.336 444.431 103.912L443.351 105.208C442.871 104.744 442.335 104.384 441.743 104.128C441.167 103.856 440.511 103.72 439.775 103.72C438.895 103.72 438.183 103.928 437.639 104.344C437.111 104.76 436.847 105.32 436.847 106.024C436.847 106.52 436.975 106.936 437.231 107.272C437.503 107.592 437.839 107.856 438.239 108.064C438.639 108.272 439.047 108.464 439.463 108.64L441.695 109.6C442.303 109.856 442.847 110.168 443.327 110.536C443.823 110.888 444.215 111.328 444.503 111.856C444.791 112.368 444.935 113.016 444.935 113.8C444.935 114.632 444.719 115.392 444.287 116.08C443.855 116.752 443.239 117.288 442.439 117.688C441.639 118.088 440.687 118.288 439.583 118.288ZM448.035 118V102.256H451.971C454.403 102.256 456.251 102.936 457.515 104.296C458.779 105.64 459.411 107.56 459.411 110.056C459.411 112.568 458.779 114.52 457.515 115.912C456.267 117.304 454.451 118 452.067 118H448.035ZM450.027 116.368H451.827C453.667 116.368 455.043 115.816 455.955 114.712C456.883 113.592 457.347 112.04 457.347 110.056C457.347 108.072 456.883 106.552 455.955 105.496C455.043 104.424 453.667 103.888 451.827 103.888H450.027V116.368ZM462.801 118V102.256H464.793V110.152H464.865L471.417 102.256H473.673L468.753 108.256L474.441 118H472.209L467.505 109.816L464.793 113.008V118H462.801Z" fill="#252322"/>
<rect x="307.5" y="88.5" width="201" height="41" rx="7.5" stroke="#B2B4B8"/>
<rect x="295.5" y="38.5" width="225" height="103" rx="11.5" stroke="#B2B4B8"/>
<rect x="295.5" y="161.5" width="225" height="103" rx="11.5" fill="#4F4D4A"/>
<path d="M354.368 188.648L353.816 190.568H357.824L357.272 188.648C357.016 187.816 356.768 186.96 356.528 186.08C356.304 185.2 356.08 184.328 355.856 183.464H355.76C355.552 184.344 355.328 185.224 355.088 186.104C354.864 186.968 354.624 187.816 354.368 188.648ZM349.112 197L354.224 181.304H357.488L362.6 197H359.672L358.448 192.752H353.168L351.944 197H349.112ZM364.295 201.656V185.216H366.575L366.767 186.464H366.863C367.359 186.048 367.911 185.688 368.519 185.384C369.143 185.08 369.775 184.928 370.415 184.928C371.887 184.928 373.023 185.472 373.823 186.56C374.639 187.648 375.047 189.104 375.047 190.928C375.047 192.272 374.807 193.424 374.327 194.384C373.847 195.328 373.223 196.048 372.455 196.544C371.703 197.04 370.887 197.288 370.007 197.288C369.495 197.288 368.983 197.176 368.471 196.952C367.959 196.712 367.463 196.392 366.983 195.992L367.055 197.96V201.656H364.295ZM369.431 195.008C370.215 195.008 370.871 194.664 371.399 193.976C371.927 193.288 372.191 192.28 372.191 190.952C372.191 189.768 371.991 188.848 371.591 188.192C371.191 187.536 370.543 187.208 369.647 187.208C368.815 187.208 367.951 187.648 367.055 188.528V194.024C367.487 194.376 367.903 194.632 368.303 194.792C368.703 194.936 369.079 195.008 369.431 195.008ZM377.842 201.656V185.216H380.122L380.314 186.464H380.41C380.906 186.048 381.458 185.688 382.066 185.384C382.69 185.08 383.322 184.928 383.962 184.928C385.434 184.928 386.57 185.472 387.37 186.56C388.186 187.648 388.594 189.104 388.594 190.928C388.594 192.272 388.354 193.424 387.874 194.384C387.394 195.328 386.77 196.048 386.002 196.544C385.25 197.04 384.434 197.288 383.554 197.288C383.042 197.288 382.53 197.176 382.018 196.952C381.506 196.712 381.01 196.392 380.53 195.992L380.602 197.96V201.656H377.842ZM382.978 195.008C383.762 195.008 384.418 194.664 384.946 193.976C385.474 193.288 385.738 192.28 385.738 190.952C385.738 189.768 385.538 188.848 385.138 188.192C384.738 187.536 384.09 187.208 383.194 187.208C382.362 187.208 381.498 187.648 380.602 188.528V194.024C381.034 194.376 381.45 194.632 381.85 194.792C382.25 194.936 382.626 195.008 382.978 195.008ZM394.077 197.288C393.101 197.288 392.405 196.992 391.989 196.4C391.589 195.808 391.389 195 391.389 193.976V180.056H394.149V194.12C394.149 194.456 394.213 194.696 394.341 194.84C394.469 194.968 394.605 195.032 394.749 195.032C394.813 195.032 394.869 195.032 394.917 195.032C394.981 195.016 395.069 195 395.181 194.984L395.541 197.048C395.381 197.112 395.173 197.168 394.917 197.216C394.677 197.264 394.397 197.288 394.077 197.288ZM397.904 197V185.216H400.664V197H397.904ZM399.296 183.152C398.8 183.152 398.4 183.008 398.096 182.72C397.792 182.432 397.64 182.048 397.64 181.568C397.64 181.104 397.792 180.728 398.096 180.44C398.4 180.152 398.8 180.008 399.296 180.008C399.792 180.008 400.192 180.152 400.496 180.44C400.8 180.728 400.952 181.104 400.952 181.568C400.952 182.048 400.8 182.432 400.496 182.72C400.192 183.008 399.792 183.152 399.296 183.152ZM409.106 197.288C408.034 197.288 407.066 197.048 406.202 196.568C405.354 196.072 404.674 195.368 404.162 194.456C403.666 193.528 403.418 192.416 403.418 191.12C403.418 189.808 403.69 188.696 404.234 187.784C404.778 186.856 405.498 186.152 406.394 185.672C407.306 185.176 408.282 184.928 409.322 184.928C410.074 184.928 410.73 185.056 411.29 185.312C411.85 185.568 412.346 185.88 412.778 186.248L411.434 188.048C411.13 187.776 410.818 187.568 410.498 187.424C410.178 187.264 409.834 187.184 409.466 187.184C408.522 187.184 407.746 187.544 407.138 188.264C406.546 188.984 406.25 189.936 406.25 191.12C406.25 192.288 406.538 193.232 407.114 193.952C407.706 194.672 408.466 195.032 409.394 195.032C409.858 195.032 410.29 194.936 410.69 194.744C411.106 194.536 411.482 194.296 411.818 194.024L412.946 195.848C412.402 196.328 411.794 196.688 411.122 196.928C410.45 197.168 409.778 197.288 409.106 197.288ZM417.893 197.288C416.869 197.288 416.029 196.968 415.373 196.328C414.733 195.688 414.413 194.856 414.413 193.832C414.413 192.568 414.965 191.592 416.069 190.904C417.173 190.2 418.933 189.72 421.349 189.464C421.333 188.84 421.165 188.304 420.845 187.856C420.541 187.392 419.989 187.16 419.189 187.16C418.613 187.16 418.045 187.272 417.485 187.496C416.941 187.72 416.405 187.992 415.877 188.312L414.869 186.464C415.525 186.048 416.261 185.688 417.077 185.384C417.909 185.08 418.789 184.928 419.717 184.928C421.189 184.928 422.285 185.368 423.005 186.248C423.741 187.112 424.109 188.368 424.109 190.016V197H421.829L421.637 195.704H421.541C421.013 196.152 420.445 196.528 419.837 196.832C419.245 197.136 418.597 197.288 417.893 197.288ZM418.781 195.128C419.261 195.128 419.693 195.016 420.077 194.792C420.477 194.552 420.901 194.232 421.349 193.832V191.192C419.749 191.4 418.637 191.712 418.013 192.128C417.389 192.528 417.077 193.024 417.077 193.616C417.077 194.144 417.237 194.528 417.557 194.768C417.877 195.008 418.285 195.128 418.781 195.128ZM431.189 197.288C429.829 197.288 428.861 196.896 428.285 196.112C427.725 195.312 427.445 194.28 427.445 193.016V187.4H425.765V185.336L427.589 185.216L427.925 182H430.229V185.216H433.229V187.4H430.229V193.016C430.229 194.392 430.781 195.08 431.885 195.08C432.093 195.08 432.309 195.056 432.533 195.008C432.757 194.944 432.949 194.88 433.109 194.816L433.589 196.856C433.269 196.968 432.901 197.064 432.485 197.144C432.085 197.24 431.653 197.288 431.189 197.288ZM435.709 197V185.216H438.469V197H435.709ZM437.101 183.152C436.605 183.152 436.205 183.008 435.901 182.72C435.597 182.432 435.445 182.048 435.445 181.568C435.445 181.104 435.597 180.728 435.901 180.44C436.205 180.152 436.605 180.008 437.101 180.008C437.597 180.008 437.997 180.152 438.301 180.44C438.605 180.728 438.757 181.104 438.757 181.568C438.757 182.048 438.605 182.432 438.301 182.72C437.997 183.008 437.597 183.152 437.101 183.152ZM446.814 197.288C445.838 197.288 444.926 197.048 444.078 196.568C443.23 196.072 442.542 195.368 442.014 194.456C441.486 193.528 441.222 192.416 441.222 191.12C441.222 189.808 441.486 188.696 442.014 187.784C442.542 186.856 443.23 186.152 444.078 185.672C444.926 185.176 445.838 184.928 446.814 184.928C447.806 184.928 448.726 185.176 449.574 185.672C450.422 186.152 451.11 186.856 451.638 187.784C452.166 188.696 452.43 189.808 452.43 191.12C452.43 192.416 452.166 193.528 451.638 194.456C451.11 195.368 450.422 196.072 449.574 196.568C448.726 197.048 447.806 197.288 446.814 197.288ZM446.814 195.032C447.678 195.032 448.358 194.672 448.854 193.952C449.35 193.232 449.598 192.288 449.598 191.12C449.598 189.936 449.35 188.984 448.854 188.264C448.358 187.544 447.678 187.184 446.814 187.184C445.95 187.184 445.27 187.544 444.774 188.264C444.294 188.984 444.054 189.936 444.054 191.12C444.054 192.288 444.294 193.232 444.774 193.952C445.27 194.672 445.95 195.032 446.814 195.032ZM455.162 197V185.216H457.442L457.634 186.8H457.73C458.258 186.288 458.834 185.848 459.458 185.48C460.082 185.112 460.794 184.928 461.594 184.928C462.858 184.928 463.778 185.336 464.354 186.152C464.93 186.968 465.218 188.12 465.218 189.608V197H462.458V189.968C462.458 188.992 462.314 188.304 462.026 187.904C461.738 187.504 461.266 187.304 460.61 187.304C460.098 187.304 459.642 187.432 459.242 187.688C458.858 187.928 458.418 188.288 457.922 188.768V197H455.162Z" fill="#F3F2F2"/>
<rect x="307.5" y="211.5" width="201" height="41" rx="7.5" fill="#F8773D"/>
<path d="M345.372 232.192L344.628 234.592H349.356L348.612 232.192C348.324 231.312 348.052 230.44 347.796 229.576C347.54 228.696 347.284 227.8 347.028 226.888H346.932C346.692 227.8 346.444 228.696 346.188 229.576C345.932 230.44 345.66 231.312 345.372 232.192ZM340.572 241L345.9 225.256H348.156L353.484 241H351.348L349.86 236.2H344.124L342.612 241H340.572ZM355.523 245.92V229.336H357.155L357.323 230.68H357.395C357.923 230.232 358.499 229.848 359.123 229.528C359.763 229.208 360.427 229.048 361.115 229.048C362.619 229.048 363.763 229.592 364.547 230.68C365.331 231.752 365.723 233.192 365.723 235C365.723 236.312 365.483 237.44 365.003 238.384C364.539 239.328 363.923 240.048 363.155 240.544C362.403 241.04 361.579 241.288 360.683 241.288C360.139 241.288 359.595 241.168 359.051 240.928C358.523 240.688 357.987 240.36 357.443 239.944L357.491 241.984V245.92H355.523ZM360.347 239.632C361.307 239.632 362.099 239.224 362.723 238.408C363.363 237.576 363.683 236.44 363.683 235C363.683 233.72 363.443 232.688 362.963 231.904C362.499 231.104 361.715 230.704 360.611 230.704C360.115 230.704 359.611 230.84 359.099 231.112C358.603 231.384 358.067 231.776 357.491 232.288V238.408C358.019 238.856 358.531 239.176 359.027 239.368C359.523 239.544 359.963 239.632 360.347 239.632ZM373.563 241.288C372.523 241.288 371.579 241.048 370.731 240.568C369.883 240.072 369.211 239.368 368.715 238.456C368.219 237.544 367.971 236.456 367.971 235.192C367.971 233.912 368.219 232.816 368.715 231.904C369.227 230.992 369.883 230.288 370.683 229.792C371.483 229.296 372.323 229.048 373.203 229.048C374.691 229.048 375.835 229.544 376.635 230.536C377.451 231.528 377.859 232.856 377.859 234.52C377.859 234.728 377.851 234.936 377.835 235.144C377.835 235.336 377.819 235.504 377.787 235.648H369.915C369.995 236.88 370.379 237.864 371.067 238.6C371.771 239.336 372.683 239.704 373.803 239.704C374.363 239.704 374.875 239.624 375.339 239.464C375.819 239.288 376.275 239.064 376.707 238.792L377.403 240.088C376.907 240.408 376.339 240.688 375.699 240.928C375.075 241.168 374.363 241.288 373.563 241.288ZM369.891 234.232H376.131C376.131 233.048 375.875 232.152 375.363 231.544C374.867 230.92 374.163 230.608 373.251 230.608C372.435 230.608 371.699 230.928 371.043 231.568C370.403 232.192 370.019 233.08 369.891 234.232ZM380.741 241V229.336H382.373L382.541 231.448H382.613C383.013 230.712 383.501 230.128 384.077 229.696C384.653 229.264 385.269 229.048 385.925 229.048C386.389 229.048 386.805 229.128 387.173 229.288L386.789 231.016C386.597 230.952 386.421 230.904 386.261 230.872C386.101 230.84 385.901 230.824 385.661 230.824C385.165 230.824 384.645 231.024 384.101 231.424C383.573 231.824 383.109 232.52 382.709 233.512V241H380.741ZM392.734 241.288C391.486 241.288 390.614 240.928 390.118 240.208C389.638 239.488 389.398 238.552 389.398 237.4V230.944H387.67V229.456L389.494 229.336L389.734 226.072H391.39V229.336H394.534V230.944H391.39V237.424C391.39 238.144 391.518 238.704 391.774 239.104C392.046 239.488 392.518 239.68 393.19 239.68C393.398 239.68 393.622 239.648 393.862 239.584C394.102 239.504 394.318 239.432 394.51 239.368L394.894 240.856C394.574 240.968 394.222 241.064 393.838 241.144C393.47 241.24 393.102 241.288 392.734 241.288ZM400.579 241.288C399.347 241.288 398.443 240.904 397.867 240.136C397.291 239.352 397.003 238.216 397.003 236.728V229.336H398.995V236.464C398.995 237.552 399.163 238.344 399.499 238.84C399.851 239.336 400.411 239.584 401.179 239.584C401.787 239.584 402.323 239.432 402.787 239.128C403.267 238.808 403.779 238.304 404.323 237.616V229.336H406.291V241H404.659L404.491 239.176H404.419C403.875 239.816 403.299 240.328 402.691 240.712C402.083 241.096 401.379 241.288 400.579 241.288ZM410.226 241V229.336H411.858L412.026 231.448H412.098C412.498 230.712 412.986 230.128 413.562 229.696C414.138 229.264 414.754 229.048 415.41 229.048C415.874 229.048 416.29 229.128 416.658 229.288L416.274 231.016C416.082 230.952 415.906 230.904 415.746 230.872C415.586 230.84 415.386 230.824 415.146 230.824C414.65 230.824 414.13 231.024 413.586 231.424C413.058 231.824 412.594 232.52 412.194 233.512V241H410.226ZM423.04 241.288C422 241.288 421.056 241.048 420.208 240.568C419.36 240.072 418.688 239.368 418.192 238.456C417.696 237.544 417.448 236.456 417.448 235.192C417.448 233.912 417.696 232.816 418.192 231.904C418.704 230.992 419.36 230.288 420.16 229.792C420.96 229.296 421.8 229.048 422.68 229.048C424.168 229.048 425.312 229.544 426.112 230.536C426.928 231.528 427.336 232.856 427.336 234.52C427.336 234.728 427.328 234.936 427.312 235.144C427.312 235.336 427.296 235.504 427.264 235.648H419.392C419.472 236.88 419.856 237.864 420.544 238.6C421.248 239.336 422.16 239.704 423.28 239.704C423.84 239.704 424.352 239.624 424.816 239.464C425.296 239.288 425.752 239.064 426.184 238.792L426.88 240.088C426.384 240.408 425.816 240.688 425.176 240.928C424.552 241.168 423.84 241.288 423.04 241.288ZM419.368 234.232H425.608C425.608 233.048 425.352 232.152 424.84 231.544C424.344 230.92 423.64 230.608 422.728 230.608C421.912 230.608 421.176 230.928 420.52 231.568C419.88 232.192 419.496 233.08 419.368 234.232ZM439.583 241.288C438.479 241.288 437.455 241.08 436.511 240.664C435.567 240.232 434.751 239.664 434.063 238.96L435.263 237.568C435.823 238.16 436.479 238.64 437.231 239.008C437.999 239.36 438.791 239.536 439.607 239.536C440.647 239.536 441.455 239.304 442.031 238.84C442.607 238.36 442.895 237.736 442.895 236.968C442.895 236.424 442.775 235.992 442.535 235.672C442.311 235.352 441.999 235.08 441.599 234.856C441.215 234.632 440.775 234.408 440.279 234.184L438.023 233.2C437.527 232.992 437.031 232.72 436.535 232.384C436.055 232.048 435.647 231.616 435.311 231.088C434.991 230.56 434.831 229.912 434.831 229.144C434.831 228.344 435.039 227.632 435.455 227.008C435.887 226.368 436.479 225.872 437.231 225.52C437.983 225.152 438.831 224.968 439.775 224.968C440.719 224.968 441.591 225.152 442.391 225.52C443.191 225.872 443.871 226.336 444.431 226.912L443.351 228.208C442.871 227.744 442.335 227.384 441.743 227.128C441.167 226.856 440.511 226.72 439.775 226.72C438.895 226.72 438.183 226.928 437.639 227.344C437.111 227.76 436.847 228.32 436.847 229.024C436.847 229.52 436.975 229.936 437.231 230.272C437.503 230.592 437.839 230.856 438.239 231.064C438.639 231.272 439.047 231.464 439.463 231.64L441.695 232.6C442.303 232.856 442.847 233.168 443.327 233.536C443.823 233.888 444.215 234.328 444.503 234.856C444.791 235.368 444.935 236.016 444.935 236.8C444.935 237.632 444.719 238.392 444.287 239.08C443.855 239.752 443.239 240.288 442.439 240.688C441.639 241.088 440.687 241.288 439.583 241.288ZM448.035 241V225.256H451.971C454.403 225.256 456.251 225.936 457.515 227.296C458.779 228.64 459.411 230.56 459.411 233.056C459.411 235.568 458.779 237.52 457.515 238.912C456.267 240.304 454.451 241 452.067 241H448.035ZM450.027 239.368H451.827C453.667 239.368 455.043 238.816 455.955 237.712C456.883 236.592 457.347 235.04 457.347 233.056C457.347 231.072 456.883 229.552 455.955 228.496C455.043 227.424 453.667 226.888 451.827 226.888H450.027V239.368ZM462.801 241V225.256H464.793V233.152H464.865L471.417 225.256H473.673L468.753 231.256L474.441 241H472.209L467.505 232.816L464.793 236.008V241H462.801Z" fill="#252322"/>
<rect x="307.5" y="211.5" width="201" height="41" rx="7.5" stroke="#B2B4B8"/>
<rect x="295.5" y="161.5" width="225" height="103" rx="11.5" stroke="#B2B4B8"/>
<path d="M131.784 145.852C131.784 145.535 131.837 145.219 131.837 144.902C131.837 127.948 117.915 114 101.04 114C88.8848 114 78.417 121.356 73.5127 131.666C71.377 130.585 69.0039 129.979 66.4463 129.979C58.6416 129.979 52.1816 136.228 50.916 143.689C41.6348 146.906 34.9375 155.344 34.9375 165.785C34.9375 178.916 45.5107 189.938 58.5625 189.938H131.441C143.307 189.938 153.062 179.681 153.062 167.71C153.062 155.687 143.729 145.878 131.784 145.852ZM131.31 185.613L130.466 185.719H58.7734C47.9893 185.719 39.209 176.517 39.209 165.653C39.209 157.242 44.5352 150.255 52.4453 147.513L54.6602 146.722L55.0557 144.401C56.0049 138.706 60.8828 134.039 66.6309 134.039C68.4502 134.039 70.2432 134.461 71.8779 135.305L75.4375 137.098L77.1514 133.485C81.5283 124.283 90.8887 118.14 100.987 118.14C115.568 118.14 127.592 129.768 127.592 144.428C127.592 147.935 127.539 149.78 127.539 149.78L131.547 149.807C141.224 149.938 148.844 157.849 148.844 167.578C148.844 177.308 140.986 185.561 131.31 185.613Z" fill="#F3F2F2"/>
<path d="M22.872 217.129L22.128 219.529H26.856L26.112 217.129C25.824 216.249 25.552 215.377 25.296 214.513C25.04 213.633 24.784 212.737 24.528 211.826H24.432C24.192 212.737 23.944 213.633 23.688 214.513C23.432 215.377 23.16 216.249 22.872 217.129ZM18.072 225.938L23.4 210.193H25.656L30.984 225.938H28.848L27.36 221.137H21.624L20.112 225.938H18.072ZM33.0227 230.858V214.273H34.6547L34.8227 215.617H34.8947C35.4227 215.169 35.9987 214.785 36.6227 214.465C37.2627 214.145 37.9267 213.985 38.6147 213.985C40.1187 213.985 41.2627 214.529 42.0467 215.617C42.8307 216.689 43.2227 218.129 43.2227 219.938C43.2227 221.249 42.9827 222.377 42.5027 223.321C42.0387 224.265 41.4227 224.985 40.6547 225.481C39.9027 225.977 39.0787 226.226 38.1827 226.226C37.6387 226.226 37.0947 226.106 36.5507 225.865C36.0227 225.625 35.4867 225.297 34.9427 224.881L34.9907 226.922V230.858H33.0227ZM37.8467 224.569C38.8067 224.569 39.5987 224.161 40.2227 223.345C40.8627 222.513 41.1827 221.377 41.1827 219.938C41.1827 218.657 40.9427 217.625 40.4627 216.841C39.9987 216.041 39.2147 215.641 38.1107 215.641C37.6147 215.641 37.1107 215.777 36.5987 216.049C36.1027 216.321 35.5667 216.713 34.9907 217.225V223.345C35.5187 223.793 36.0307 224.113 36.5267 224.305C37.0227 224.481 37.4627 224.569 37.8467 224.569ZM51.0632 226.226C50.0232 226.226 49.0792 225.985 48.2312 225.505C47.3832 225.009 46.7112 224.305 46.2152 223.393C45.7192 222.481 45.4712 221.393 45.4712 220.129C45.4712 218.849 45.7192 217.753 46.2152 216.841C46.7272 215.929 47.3832 215.225 48.1832 214.729C48.9832 214.233 49.8232 213.985 50.7032 213.985C52.1912 213.985 53.3352 214.481 54.1352 215.473C54.9512 216.465 55.3592 217.793 55.3592 219.457C55.3592 219.665 55.3512 219.873 55.3352 220.081C55.3352 220.273 55.3192 220.441 55.2872 220.585H47.4152C47.4952 221.817 47.8792 222.801 48.5672 223.537C49.2712 224.273 50.1832 224.641 51.3032 224.641C51.8632 224.641 52.3752 224.561 52.8392 224.401C53.3192 224.225 53.7752 224.001 54.2072 223.729L54.9032 225.025C54.4072 225.345 53.8392 225.625 53.1992 225.865C52.5752 226.106 51.8632 226.226 51.0632 226.226ZM47.3912 219.169H53.6312C53.6312 217.985 53.3752 217.089 52.8632 216.481C52.3672 215.857 51.6632 215.545 50.7512 215.545C49.9352 215.545 49.1992 215.865 48.5432 216.505C47.9032 217.129 47.5192 218.017 47.3912 219.169ZM58.2414 225.938V214.273H59.8734L60.0414 216.385H60.1134C60.5134 215.649 61.0014 215.065 61.5774 214.633C62.1534 214.201 62.7694 213.985 63.4254 213.985C63.8894 213.985 64.3054 214.065 64.6734 214.225L64.2894 215.953C64.0974 215.889 63.9214 215.841 63.7614 215.809C63.6014 215.777 63.4014 215.761 63.1614 215.761C62.6654 215.761 62.1454 215.961 61.6014 216.361C61.0734 216.761 60.6094 217.457 60.2094 218.449V225.938H58.2414ZM70.2338 226.226C68.9858 226.226 68.1138 225.866 67.6178 225.146C67.1378 224.425 66.8978 223.489 66.8978 222.337V215.881H65.1698V214.393L66.9938 214.273L67.2338 211.009H68.8898V214.273H72.0338V215.881H68.8898V222.361C68.8898 223.081 69.0178 223.641 69.2738 224.041C69.5458 224.425 70.0178 224.617 70.6898 224.617C70.8978 224.617 71.1218 224.585 71.3618 224.521C71.6018 224.441 71.8178 224.369 72.0098 224.305L72.3938 225.793C72.0738 225.906 71.7218 226.002 71.3378 226.082C70.9698 226.178 70.6018 226.226 70.2338 226.226ZM78.0791 226.226C76.8471 226.226 75.9431 225.841 75.3671 225.073C74.7911 224.289 74.5031 223.153 74.5031 221.665V214.273H76.4951V221.401C76.4951 222.489 76.6631 223.281 76.9991 223.777C77.3511 224.273 77.9111 224.521 78.6791 224.521C79.2871 224.521 79.8231 224.369 80.2871 224.065C80.7671 223.745 81.2791 223.241 81.8231 222.553V214.273H83.7911V225.938H82.1591L81.9911 224.113H81.9191C81.3751 224.753 80.7991 225.265 80.1911 225.649C79.5831 226.034 78.8791 226.226 78.0791 226.226ZM87.7258 225.938V214.273H89.3578L89.5258 216.385H89.5978C89.9978 215.649 90.4858 215.065 91.0618 214.633C91.6378 214.201 92.2538 213.985 92.9098 213.985C93.3738 213.985 93.7898 214.065 94.1578 214.225L93.7738 215.953C93.5818 215.889 93.4058 215.841 93.2458 215.809C93.0858 215.777 92.8858 215.761 92.6458 215.761C92.1498 215.761 91.6298 215.961 91.0858 216.361C90.5578 216.761 90.0938 217.457 89.6938 218.449V225.938H87.7258ZM100.54 226.226C99.4998 226.226 98.5558 225.985 97.7078 225.505C96.8598 225.009 96.1878 224.305 95.6918 223.393C95.1958 222.481 94.9478 221.393 94.9478 220.129C94.9478 218.849 95.1958 217.753 95.6918 216.841C96.2038 215.929 96.8598 215.225 97.6598 214.729C98.4598 214.233 99.2998 213.985 100.18 213.985C101.668 213.985 102.812 214.481 103.612 215.473C104.428 216.465 104.836 217.793 104.836 219.457C104.836 219.665 104.828 219.873 104.812 220.081C104.812 220.273 104.796 220.441 104.764 220.585H96.8918C96.9718 221.817 97.3558 222.801 98.0438 223.537C98.7478 224.273 99.6598 224.641 100.78 224.641C101.34 224.641 101.852 224.561 102.316 224.401C102.796 224.225 103.252 224.001 103.684 223.729L104.38 225.025C103.884 225.345 103.316 225.625 102.676 225.865C102.052 226.106 101.34 226.226 100.54 226.226ZM96.8678 219.169H103.108C103.108 217.985 102.852 217.089 102.34 216.481C101.844 215.857 101.14 215.545 100.228 215.545C99.4118 215.545 98.6758 215.865 98.0198 216.505C97.3798 217.129 96.9958 218.017 96.8678 219.169ZM118.667 226.226C117.355 226.226 116.179 225.905 115.139 225.265C114.115 224.609 113.299 223.673 112.691 222.457C112.099 221.241 111.803 219.777 111.803 218.065C111.803 216.369 112.107 214.913 112.715 213.697C113.323 212.481 114.155 211.545 115.211 210.889C116.267 210.233 117.459 209.905 118.787 209.905C119.747 209.905 120.595 210.105 121.331 210.505C122.067 210.889 122.659 211.337 123.107 211.849L122.027 213.145C121.611 212.697 121.139 212.337 120.611 212.065C120.083 211.793 119.483 211.657 118.811 211.657C117.819 211.657 116.947 211.921 116.195 212.449C115.459 212.961 114.883 213.689 114.467 214.633C114.067 215.577 113.867 216.705 113.867 218.017C113.867 219.329 114.067 220.473 114.467 221.449C114.867 222.409 115.427 223.153 116.147 223.681C116.883 224.209 117.747 224.473 118.739 224.473C119.491 224.473 120.163 224.313 120.755 223.993C121.347 223.673 121.891 223.241 122.387 222.697L123.491 223.945C122.867 224.665 122.163 225.225 121.379 225.625C120.595 226.025 119.691 226.226 118.667 226.226ZM128.322 226.226C127.586 226.226 127.05 226.001 126.714 225.553C126.394 225.089 126.234 224.433 126.234 223.585V208.849H128.202V223.729C128.202 224.033 128.258 224.257 128.37 224.401C128.482 224.529 128.61 224.593 128.754 224.593C128.818 224.593 128.874 224.593 128.922 224.593C128.986 224.577 129.074 224.561 129.186 224.545L129.45 226.034C129.322 226.098 129.17 226.146 128.994 226.178C128.818 226.21 128.594 226.226 128.322 226.226ZM136.887 226.226C135.943 226.226 135.055 225.985 134.223 225.505C133.407 225.025 132.743 224.329 132.231 223.417C131.735 222.505 131.487 221.409 131.487 220.129C131.487 218.817 131.735 217.705 132.231 216.793C132.743 215.881 133.407 215.185 134.223 214.705C135.055 214.225 135.943 213.985 136.887 213.985C137.847 213.985 138.735 214.225 139.551 214.705C140.367 215.185 141.023 215.881 141.519 216.793C142.031 217.705 142.287 218.817 142.287 220.129C142.287 221.409 142.031 222.505 141.519 223.417C141.023 224.329 140.367 225.025 139.551 225.505C138.735 225.985 137.847 226.226 136.887 226.226ZM136.887 224.593C137.895 224.593 138.703 224.185 139.311 223.369C139.935 222.537 140.247 221.457 140.247 220.129C140.247 218.785 139.935 217.697 139.311 216.865C138.703 216.033 137.895 215.617 136.887 215.617C135.895 215.617 135.087 216.033 134.463 216.865C133.839 217.697 133.527 218.785 133.527 220.129C133.527 221.457 133.839 222.537 134.463 223.369C135.087 224.185 135.895 224.593 136.887 224.593ZM148.767 226.226C147.535 226.226 146.631 225.841 146.055 225.073C145.479 224.289 145.191 223.153 145.191 221.665V214.273H147.183V221.401C147.183 222.489 147.351 223.281 147.687 223.777C148.039 224.273 148.599 224.521 149.367 224.521C149.975 224.521 150.511 224.369 150.975 224.065C151.455 223.745 151.967 223.241 152.511 222.553V214.273H154.479V225.938H152.847L152.679 224.113H152.607C152.063 224.753 151.487 225.265 150.879 225.649C150.271 226.034 149.567 226.226 148.767 226.226ZM162.397 226.226C160.941 226.226 159.773 225.697 158.893 224.641C158.013 223.569 157.573 222.065 157.573 220.129C157.573 218.865 157.805 217.777 158.269 216.865C158.749 215.937 159.373 215.225 160.141 214.729C160.925 214.233 161.757 213.985 162.637 213.985C163.309 213.985 163.893 214.105 164.389 214.345C164.885 214.585 165.389 214.913 165.901 215.329L165.805 213.337V208.849H167.797V225.938H166.165L165.997 224.569H165.925C165.477 225.017 164.949 225.409 164.341 225.745C163.733 226.065 163.085 226.226 162.397 226.226ZM162.829 224.569C163.853 224.569 164.845 224.033 165.805 222.961V216.865C165.309 216.417 164.829 216.105 164.365 215.929C163.917 215.737 163.453 215.641 162.973 215.641C162.349 215.641 161.781 215.833 161.269 216.217C160.773 216.585 160.373 217.105 160.069 217.777C159.765 218.433 159.613 219.209 159.613 220.105C159.613 221.497 159.893 222.593 160.453 223.393C161.013 224.177 161.805 224.569 162.829 224.569Z" fill="#F3F2F2"/>
<path d="M174 171.969C173.448 171.969 173 172.416 173 172.969C173 173.521 173.448 173.969 174 173.969V171.969ZM303.707 109.707C304.098 109.317 304.098 108.683 303.707 108.293L297.343 101.929C296.953 101.538 296.319 101.538 295.929 101.929C295.538 102.319 295.538 102.953 295.929 103.343L301.586 109L295.929 114.657C295.538 115.047 295.538 115.681 295.929 116.071C296.319 116.462 296.953 116.462 297.343 116.071L303.707 109.707ZM174 173.969H204V171.969H174V173.969ZM229 148.969V133H227V148.969H229ZM252 110H303V108H252V110ZM229 133C229 120.297 239.298 110 252 110V108C238.193 108 227 119.193 227 133H229ZM204 173.969C217.807 173.969 229 162.776 229 148.969H227C227 161.671 216.703 171.969 204 171.969V173.969Z" fill="#7F8086"/>
<path d="M174 171.969C173.448 171.969 173 172.416 173 172.969C173 173.521 173.448 173.969 174 173.969V171.969ZM303.707 232.707C304.098 232.317 304.098 231.683 303.707 231.293L297.343 224.929C296.953 224.538 296.319 224.538 295.929 224.929C295.538 225.319 295.538 225.953 295.929 226.343L301.586 232L295.929 237.657C295.538 238.047 295.538 238.681 295.929 239.071C296.319 239.462 296.953 239.462 297.343 239.071L303.707 232.707ZM174 173.969H204V171.969H174V173.969ZM227 196.969V208H229V196.969H227ZM252 233H303V231H252V233ZM227 208C227 221.807 238.192 233 252 233V231C239.297 231 229 220.703 229 208H227ZM204 173.969C216.702 173.969 227 184.266 227 196.969H229C229 183.162 217.807 171.969 204 171.969V173.969Z" fill="#7F8086"/>
</g>
<defs>
<filter id="filter0_d_59_1324" x="-4" y="0" width="569" height="310" filterUnits="userSpaceOnUse" color-interpolation-filters="sRGB">
<feFlood flood-opacity="0" result="BackgroundImageFix"/>
<feColorMatrix in="SourceAlpha" type="matrix" values="0 0 0 0 0 0 0 0 0 0 0 0 0 0 0 0 0 0 127 0" result="hardAlpha"/>
<feOffset dy="4"/>
<feGaussianBlur stdDeviation="2"/>
<feComposite in2="hardAlpha" operator="out"/>
<feColorMatrix type="matrix" values="0 0 0 0 0 0 0 0 0 0 0 0 0 0 0 0 0 0 0.25 0"/>
<feBlend mode="normal" in2="BackgroundImageFix" result="effect1_dropShadow_59_1324"/>
<feBlend mode="normal" in="SourceGraphic" in2="effect1_dropShadow_59_1324" result="shape"/>
</filter>
</defs>
</svg>
