<svg xmlns="http://www.w3.org/2000/svg" width="561" height="302" fill="none" viewBox="0 0 561 302"><g filter="url(#filter0_d_58_743)"><rect width="225" height="103" x="299.5" y="22.5" fill="#D6D8DC" rx="11.5"/><path fill="#252322" d="M358.368 49.648L357.816 51.568H361.824L361.272 49.648C361.016 48.816 360.768 47.96 360.528 47.08C360.304 46.2 360.08 45.328 359.856 44.464H359.76C359.552 45.344 359.328 46.224 359.088 47.104C358.864 47.968 358.624 48.816 358.368 49.648ZM353.112 58L358.224 42.304H361.488L366.6 58H363.672L362.448 53.752H357.168L355.944 58H353.112ZM368.295 62.656V46.216H370.575L370.767 47.464H370.863C371.359 47.048 371.911 46.688 372.519 46.384C373.143 46.08 373.775 45.928 374.415 45.928C375.887 45.928 377.023 46.472 377.823 47.56C378.639 48.648 379.047 50.104 379.047 51.928C379.047 53.272 378.807 54.424 378.327 55.384C377.847 56.328 377.223 57.048 376.455 57.544C375.703 58.04 374.887 58.288 374.007 58.288C373.495 58.288 372.983 58.176 372.471 57.952C371.959 57.712 371.463 57.392 370.983 56.992L371.055 58.96V62.656H368.295ZM373.431 56.008C374.215 56.008 374.871 55.664 375.399 54.976C375.927 54.288 376.191 53.28 376.191 51.952C376.191 50.768 375.991 49.848 375.591 49.192C375.191 48.536 374.543 48.208 373.647 48.208C372.815 48.208 371.951 48.648 371.055 49.528V55.024C371.487 55.376 371.903 55.632 372.303 55.792C372.703 55.936 373.079 56.008 373.431 56.008ZM381.842 62.656V46.216H384.122L384.314 47.464H384.41C384.906 47.048 385.458 46.688 386.066 46.384C386.69 46.08 387.322 45.928 387.962 45.928C389.434 45.928 390.57 46.472 391.37 47.56C392.186 48.648 392.594 50.104 392.594 51.928C392.594 53.272 392.354 54.424 391.874 55.384C391.394 56.328 390.77 57.048 390.002 57.544C389.25 58.04 388.434 58.288 387.554 58.288C387.042 58.288 386.53 58.176 386.018 57.952C385.506 57.712 385.01 57.392 384.53 56.992L384.602 58.96V62.656H381.842ZM386.978 56.008C387.762 56.008 388.418 55.664 388.946 54.976C389.474 54.288 389.738 53.28 389.738 51.952C389.738 50.768 389.538 49.848 389.138 49.192C388.738 48.536 388.09 48.208 387.194 48.208C386.362 48.208 385.498 48.648 384.602 49.528V55.024C385.034 55.376 385.45 55.632 385.85 55.792C386.25 55.936 386.626 56.008 386.978 56.008ZM398.077 58.288C397.101 58.288 396.405 57.992 395.989 57.4C395.589 56.808 395.389 56 395.389 54.976V41.056H398.149V55.12C398.149 55.456 398.213 55.696 398.341 55.84C398.469 55.968 398.605 56.032 398.749 56.032C398.813 56.032 398.869 56.032 398.917 56.032C398.981 56.016 399.069 56 399.181 55.984L399.541 58.048C399.381 58.112 399.173 58.168 398.917 58.216C398.677 58.264 398.397 58.288 398.077 58.288ZM401.904 58V46.216H404.664V58H401.904ZM403.296 44.152C402.8 44.152 402.4 44.008 402.096 43.72C401.792 43.432 401.64 43.048 401.64 42.568C401.64 42.104 401.792 41.728 402.096 41.44C402.4 41.152 402.8 41.008 403.296 41.008C403.792 41.008 404.192 41.152 404.496 41.44C404.8 41.728 404.952 42.104 404.952 42.568C404.952 43.048 404.8 43.432 404.496 43.72C404.192 44.008 403.792 44.152 403.296 44.152ZM413.106 58.288C412.034 58.288 411.066 58.048 410.202 57.568C409.354 57.072 408.674 56.368 408.162 55.456C407.666 54.528 407.418 53.416 407.418 52.12C407.418 50.808 407.69 49.696 408.234 48.784C408.778 47.856 409.498 47.152 410.394 46.672C411.306 46.176 412.282 45.928 413.322 45.928C414.074 45.928 414.73 46.056 415.29 46.312C415.85 46.568 416.346 46.88 416.778 47.248L415.434 49.048C415.13 48.776 414.818 48.568 414.498 48.424C414.178 48.264 413.834 48.184 413.466 48.184C412.522 48.184 411.746 48.544 411.138 49.264C410.546 49.984 410.25 50.936 410.25 52.12C410.25 53.288 410.538 54.232 411.114 54.952C411.706 55.672 412.466 56.032 413.394 56.032C413.858 56.032 414.29 55.936 414.69 55.744C415.106 55.536 415.482 55.296 415.818 55.024L416.946 56.848C416.402 57.328 415.794 57.688 415.122 57.928C414.45 58.168 413.778 58.288 413.106 58.288ZM421.893 58.288C420.869 58.288 420.029 57.968 419.373 57.328C418.733 56.688 418.413 55.856 418.413 54.832C418.413 53.568 418.965 52.592 420.069 51.904C421.173 51.2 422.933 50.72 425.349 50.464C425.333 49.84 425.165 49.304 424.845 48.856C424.541 48.392 423.989 48.16 423.189 48.16C422.613 48.16 422.045 48.272 421.485 48.496C420.941 48.72 420.405 48.992 419.877 49.312L418.869 47.464C419.525 47.048 420.261 46.688 421.077 46.384C421.909 46.08 422.789 45.928 423.717 45.928C425.189 45.928 426.285 46.368 427.005 47.248C427.741 48.112 428.109 49.368 428.109 51.016V58H425.829L425.637 56.704H425.541C425.013 57.152 424.445 57.528 423.837 57.832C423.245 58.136 422.597 58.288 421.893 58.288ZM422.781 56.128C423.261 56.128 423.693 56.016 424.077 55.792C424.477 55.552 424.901 55.232 425.349 54.832V52.192C423.749 52.4 422.637 52.712 422.013 53.128C421.389 53.528 421.077 54.024 421.077 54.616C421.077 55.144 421.237 55.528 421.557 55.768C421.877 56.008 422.285 56.128 422.781 56.128ZM435.189 58.288C433.829 58.288 432.861 57.896 432.285 57.112C431.725 56.312 431.445 55.28 431.445 54.016V48.4H429.765V46.336L431.589 46.216L431.925 43H434.229V46.216H437.229V48.4H434.229V54.016C434.229 55.392 434.781 56.08 435.885 56.08C436.093 56.08 436.309 56.056 436.533 56.008C436.757 55.944 436.949 55.88 437.109 55.816L437.589 57.856C437.269 57.968 436.901 58.064 436.485 58.144C436.085 58.24 435.653 58.288 435.189 58.288ZM439.709 58V46.216H442.469V58H439.709ZM441.101 44.152C440.605 44.152 440.205 44.008 439.901 43.72C439.597 43.432 439.445 43.048 439.445 42.568C439.445 42.104 439.597 41.728 439.901 41.44C440.205 41.152 440.605 41.008 441.101 41.008C441.597 41.008 441.997 41.152 442.301 41.44C442.605 41.728 442.757 42.104 442.757 42.568C442.757 43.048 442.605 43.432 442.301 43.72C441.997 44.008 441.597 44.152 441.101 44.152ZM450.814 58.288C449.838 58.288 448.926 58.048 448.078 57.568C447.23 57.072 446.542 56.368 446.014 55.456C445.486 54.528 445.222 53.416 445.222 52.12C445.222 50.808 445.486 49.696 446.014 48.784C446.542 47.856 447.23 47.152 448.078 46.672C448.926 46.176 449.838 45.928 450.814 45.928C451.806 45.928 452.726 46.176 453.574 46.672C454.422 47.152 455.11 47.856 455.638 48.784C456.166 49.696 456.43 50.808 456.43 52.12C456.43 53.416 456.166 54.528 455.638 55.456C455.11 56.368 454.422 57.072 453.574 57.568C452.726 58.048 451.806 58.288 450.814 58.288ZM450.814 56.032C451.678 56.032 452.358 55.672 452.854 54.952C453.35 54.232 453.598 53.288 453.598 52.12C453.598 50.936 453.35 49.984 452.854 49.264C452.358 48.544 451.678 48.184 450.814 48.184C449.95 48.184 449.27 48.544 448.774 49.264C448.294 49.984 448.054 50.936 448.054 52.12C448.054 53.288 448.294 54.232 448.774 54.952C449.27 55.672 449.95 56.032 450.814 56.032ZM459.162 58V46.216H461.442L461.634 47.8H461.73C462.258 47.288 462.834 46.848 463.458 46.48C464.082 46.112 464.794 45.928 465.594 45.928C466.858 45.928 467.778 46.336 468.354 47.152C468.93 47.968 469.218 49.12 469.218 50.608V58H466.458V50.968C466.458 49.992 466.314 49.304 466.026 48.904C465.738 48.504 465.266 48.304 464.61 48.304C464.098 48.304 463.642 48.432 463.242 48.688C462.858 48.928 462.418 49.288 461.922 49.768V58H459.162Z"/><rect width="201" height="41" x="311.5" y="72.5" fill="#F8773D" rx="7.5"/><path fill="#252322" d="M349.372 93.192L348.628 95.592H353.356L352.612 93.192C352.324 92.312 352.052 91.44 351.796 90.576C351.54 89.696 351.284 88.8 351.028 87.888H350.932C350.692 88.8 350.444 89.696 350.188 90.576C349.932 91.44 349.66 92.312 349.372 93.192ZM344.572 102L349.9 86.256H352.156L357.484 102H355.348L353.86 97.2H348.124L346.612 102H344.572ZM359.523 106.92V90.336H361.155L361.323 91.68H361.395C361.923 91.232 362.499 90.848 363.123 90.528C363.763 90.208 364.427 90.048 365.115 90.048C366.619 90.048 367.763 90.592 368.547 91.68C369.331 92.752 369.723 94.192 369.723 96C369.723 97.312 369.483 98.44 369.003 99.384C368.539 100.328 367.923 101.048 367.155 101.544C366.403 102.04 365.579 102.288 364.683 102.288C364.139 102.288 363.595 102.168 363.051 101.928C362.523 101.688 361.987 101.36 361.443 100.944L361.491 102.984V106.92H359.523ZM364.347 100.632C365.307 100.632 366.099 100.224 366.723 99.408C367.363 98.576 367.683 97.44 367.683 96C367.683 94.72 367.443 93.688 366.963 92.904C366.499 92.104 365.715 91.704 364.611 91.704C364.115 91.704 363.611 91.84 363.099 92.112C362.603 92.384 362.067 92.776 361.491 93.288V99.408C362.019 99.856 362.531 100.176 363.027 100.368C363.523 100.544 363.963 100.632 364.347 100.632ZM377.563 102.288C376.523 102.288 375.579 102.048 374.731 101.568C373.883 101.072 373.211 100.368 372.715 99.456C372.219 98.544 371.971 97.456 371.971 96.192C371.971 94.912 372.219 93.816 372.715 92.904C373.227 91.992 373.883 91.288 374.683 90.792C375.483 90.296 376.323 90.048 377.203 90.048C378.691 90.048 379.835 90.544 380.635 91.536C381.451 92.528 381.859 93.856 381.859 95.52C381.859 95.728 381.851 95.936 381.835 96.144C381.835 96.336 381.819 96.504 381.787 96.648H373.915C373.995 97.88 374.379 98.864 375.067 99.6C375.771 100.336 376.683 100.704 377.803 100.704C378.363 100.704 378.875 100.624 379.339 100.464C379.819 100.288 380.275 100.064 380.707 99.792L381.403 101.088C380.907 101.408 380.339 101.688 379.699 101.928C379.075 102.168 378.363 102.288 377.563 102.288ZM373.891 95.232H380.131C380.131 94.048 379.875 93.152 379.363 92.544C378.867 91.92 378.163 91.608 377.251 91.608C376.435 91.608 375.699 91.928 375.043 92.568C374.403 93.192 374.019 94.08 373.891 95.232ZM384.741 102V90.336H386.373L386.541 92.448H386.613C387.013 91.712 387.501 91.128 388.077 90.696C388.653 90.264 389.269 90.048 389.925 90.048C390.389 90.048 390.805 90.128 391.173 90.288L390.789 92.016C390.597 91.952 390.421 91.904 390.261 91.872C390.101 91.84 389.901 91.824 389.661 91.824C389.165 91.824 388.645 92.024 388.101 92.424C387.573 92.824 387.109 93.52 386.709 94.512V102H384.741ZM396.734 102.288C395.486 102.288 394.614 101.928 394.118 101.208C393.638 100.488 393.398 99.552 393.398 98.4V91.944H391.67V90.456L393.494 90.336L393.734 87.072H395.39V90.336H398.534V91.944H395.39V98.424C395.39 99.144 395.518 99.704 395.774 100.104C396.046 100.488 396.518 100.68 397.19 100.68C397.398 100.68 397.622 100.648 397.862 100.584C398.102 100.504 398.318 100.432 398.51 100.368L398.894 101.856C398.574 101.968 398.222 102.064 397.838 102.144C397.47 102.24 397.102 102.288 396.734 102.288ZM404.579 102.288C403.347 102.288 402.443 101.904 401.867 101.136C401.291 100.352 401.003 99.216 401.003 97.728V90.336H402.995V97.464C402.995 98.552 403.163 99.344 403.499 99.84C403.851 100.336 404.411 100.584 405.179 100.584C405.787 100.584 406.323 100.432 406.787 100.128C407.267 99.808 407.779 99.304 408.323 98.616V90.336H410.291V102H408.659L408.491 100.176H408.419C407.875 100.816 407.299 101.328 406.691 101.712C406.083 102.096 405.379 102.288 404.579 102.288ZM414.226 102V90.336H415.858L416.026 92.448H416.098C416.498 91.712 416.986 91.128 417.562 90.696C418.138 90.264 418.754 90.048 419.41 90.048C419.874 90.048 420.29 90.128 420.658 90.288L420.274 92.016C420.082 91.952 419.906 91.904 419.746 91.872C419.586 91.84 419.386 91.824 419.146 91.824C418.65 91.824 418.13 92.024 417.586 92.424C417.058 92.824 416.594 93.52 416.194 94.512V102H414.226ZM427.04 102.288C426 102.288 425.056 102.048 424.208 101.568C423.36 101.072 422.688 100.368 422.192 99.456C421.696 98.544 421.448 97.456 421.448 96.192C421.448 94.912 421.696 93.816 422.192 92.904C422.704 91.992 423.36 91.288 424.16 90.792C424.96 90.296 425.8 90.048 426.68 90.048C428.168 90.048 429.312 90.544 430.112 91.536C430.928 92.528 431.336 93.856 431.336 95.52C431.336 95.728 431.328 95.936 431.312 96.144C431.312 96.336 431.296 96.504 431.264 96.648H423.392C423.472 97.88 423.856 98.864 424.544 99.6C425.248 100.336 426.16 100.704 427.28 100.704C427.84 100.704 428.352 100.624 428.816 100.464C429.296 100.288 429.752 100.064 430.184 99.792L430.88 101.088C430.384 101.408 429.816 101.688 429.176 101.928C428.552 102.168 427.84 102.288 427.04 102.288ZM423.368 95.232H429.608C429.608 94.048 429.352 93.152 428.84 92.544C428.344 91.92 427.64 91.608 426.728 91.608C425.912 91.608 425.176 91.928 424.52 92.568C423.88 93.192 423.496 94.08 423.368 95.232ZM443.583 102.288C442.479 102.288 441.455 102.08 440.511 101.664C439.567 101.232 438.751 100.664 438.063 99.96L439.263 98.568C439.823 99.16 440.479 99.64 441.231 100.008C441.999 100.36 442.791 100.536 443.607 100.536C444.647 100.536 445.455 100.304 446.031 99.84C446.607 99.36 446.895 98.736 446.895 97.968C446.895 97.424 446.775 96.992 446.535 96.672C446.311 96.352 445.999 96.08 445.599 95.856C445.215 95.632 444.775 95.408 444.279 95.184L442.023 94.2C441.527 93.992 441.031 93.72 440.535 93.384C440.055 93.048 439.647 92.616 439.311 92.088C438.991 91.56 438.831 90.912 438.831 90.144C438.831 89.344 439.039 88.632 439.455 88.008C439.887 87.368 440.479 86.872 441.231 86.52C441.983 86.152 442.831 85.968 443.775 85.968C444.719 85.968 445.591 86.152 446.391 86.52C447.191 86.872 447.871 87.336 448.431 87.912L447.351 89.208C446.871 88.744 446.335 88.384 445.743 88.128C445.167 87.856 444.511 87.72 443.775 87.72C442.895 87.72 442.183 87.928 441.639 88.344C441.111 88.76 440.847 89.32 440.847 90.024C440.847 90.52 440.975 90.936 441.231 91.272C441.503 91.592 441.839 91.856 442.239 92.064C442.639 92.272 443.047 92.464 443.463 92.64L445.695 93.6C446.303 93.856 446.847 94.168 447.327 94.536C447.823 94.888 448.215 95.328 448.503 95.856C448.791 96.368 448.935 97.016 448.935 97.8C448.935 98.632 448.719 99.392 448.287 100.08C447.855 100.752 447.239 101.288 446.439 101.688C445.639 102.088 444.687 102.288 443.583 102.288ZM452.035 102V86.256H455.971C458.403 86.256 460.251 86.936 461.515 88.296C462.779 89.64 463.411 91.56 463.411 94.056C463.411 96.568 462.779 98.52 461.515 99.912C460.267 101.304 458.451 102 456.067 102H452.035ZM454.027 100.368H455.827C457.667 100.368 459.043 99.816 459.955 98.712C460.883 97.592 461.347 96.04 461.347 94.056C461.347 92.072 460.883 90.552 459.955 89.496C459.043 88.424 457.667 87.888 455.827 87.888H454.027V100.368ZM466.801 102V86.256H468.793V94.152H468.865L475.417 86.256H477.673L472.753 92.256L478.441 102H476.209L471.505 93.816L468.793 97.008V102H466.801Z"/><rect width="201" height="41" x="311.5" y="72.5" stroke="#B2B4B8" rx="7.5"/><rect width="225" height="103" x="299.5" y="22.5" stroke="#B2B4B8" rx="11.5"/><rect width="225" height="103" x="299.5" y="145.5" fill="#D6D8DC" rx="11.5"/><path fill="#252322" d="M358.368 172.648L357.816 174.568H361.824L361.272 172.648C361.016 171.816 360.768 170.96 360.528 170.08C360.304 169.2 360.08 168.328 359.856 167.464H359.76C359.552 168.344 359.328 169.224 359.088 170.104C358.864 170.968 358.624 171.816 358.368 172.648ZM353.112 181L358.224 165.304H361.488L366.6 181H363.672L362.448 176.752H357.168L355.944 181H353.112ZM368.295 185.656V169.216H370.575L370.767 170.464H370.863C371.359 170.048 371.911 169.688 372.519 169.384C373.143 169.08 373.775 168.928 374.415 168.928C375.887 168.928 377.023 169.472 377.823 170.56C378.639 171.648 379.047 173.104 379.047 174.928C379.047 176.272 378.807 177.424 378.327 178.384C377.847 179.328 377.223 180.048 376.455 180.544C375.703 181.04 374.887 181.288 374.007 181.288C373.495 181.288 372.983 181.176 372.471 180.952C371.959 180.712 371.463 180.392 370.983 179.992L371.055 181.96V185.656H368.295ZM373.431 179.008C374.215 179.008 374.871 178.664 375.399 177.976C375.927 177.288 376.191 176.28 376.191 174.952C376.191 173.768 375.991 172.848 375.591 172.192C375.191 171.536 374.543 171.208 373.647 171.208C372.815 171.208 371.951 171.648 371.055 172.528V178.024C371.487 178.376 371.903 178.632 372.303 178.792C372.703 178.936 373.079 179.008 373.431 179.008ZM381.842 185.656V169.216H384.122L384.314 170.464H384.41C384.906 170.048 385.458 169.688 386.066 169.384C386.69 169.08 387.322 168.928 387.962 168.928C389.434 168.928 390.57 169.472 391.37 170.56C392.186 171.648 392.594 173.104 392.594 174.928C392.594 176.272 392.354 177.424 391.874 178.384C391.394 179.328 390.77 180.048 390.002 180.544C389.25 181.04 388.434 181.288 387.554 181.288C387.042 181.288 386.53 181.176 386.018 180.952C385.506 180.712 385.01 180.392 384.53 179.992L384.602 181.96V185.656H381.842ZM386.978 179.008C387.762 179.008 388.418 178.664 388.946 177.976C389.474 177.288 389.738 176.28 389.738 174.952C389.738 173.768 389.538 172.848 389.138 172.192C388.738 171.536 388.09 171.208 387.194 171.208C386.362 171.208 385.498 171.648 384.602 172.528V178.024C385.034 178.376 385.45 178.632 385.85 178.792C386.25 178.936 386.626 179.008 386.978 179.008ZM398.077 181.288C397.101 181.288 396.405 180.992 395.989 180.4C395.589 179.808 395.389 179 395.389 177.976V164.056H398.149V178.12C398.149 178.456 398.213 178.696 398.341 178.84C398.469 178.968 398.605 179.032 398.749 179.032C398.813 179.032 398.869 179.032 398.917 179.032C398.981 179.016 399.069 179 399.181 178.984L399.541 181.048C399.381 181.112 399.173 181.168 398.917 181.216C398.677 181.264 398.397 181.288 398.077 181.288ZM401.904 181V169.216H404.664V181H401.904ZM403.296 167.152C402.8 167.152 402.4 167.008 402.096 166.72C401.792 166.432 401.64 166.048 401.64 165.568C401.64 165.104 401.792 164.728 402.096 164.44C402.4 164.152 402.8 164.008 403.296 164.008C403.792 164.008 404.192 164.152 404.496 164.44C404.8 164.728 404.952 165.104 404.952 165.568C404.952 166.048 404.8 166.432 404.496 166.72C404.192 167.008 403.792 167.152 403.296 167.152ZM413.106 181.288C412.034 181.288 411.066 181.048 410.202 180.568C409.354 180.072 408.674 179.368 408.162 178.456C407.666 177.528 407.418 176.416 407.418 175.12C407.418 173.808 407.69 172.696 408.234 171.784C408.778 170.856 409.498 170.152 410.394 169.672C411.306 169.176 412.282 168.928 413.322 168.928C414.074 168.928 414.73 169.056 415.29 169.312C415.85 169.568 416.346 169.88 416.778 170.248L415.434 172.048C415.13 171.776 414.818 171.568 414.498 171.424C414.178 171.264 413.834 171.184 413.466 171.184C412.522 171.184 411.746 171.544 411.138 172.264C410.546 172.984 410.25 173.936 410.25 175.12C410.25 176.288 410.538 177.232 411.114 177.952C411.706 178.672 412.466 179.032 413.394 179.032C413.858 179.032 414.29 178.936 414.69 178.744C415.106 178.536 415.482 178.296 415.818 178.024L416.946 179.848C416.402 180.328 415.794 180.688 415.122 180.928C414.45 181.168 413.778 181.288 413.106 181.288ZM421.893 181.288C420.869 181.288 420.029 180.968 419.373 180.328C418.733 179.688 418.413 178.856 418.413 177.832C418.413 176.568 418.965 175.592 420.069 174.904C421.173 174.2 422.933 173.72 425.349 173.464C425.333 172.84 425.165 172.304 424.845 171.856C424.541 171.392 423.989 171.16 423.189 171.16C422.613 171.16 422.045 171.272 421.485 171.496C420.941 171.72 420.405 171.992 419.877 172.312L418.869 170.464C419.525 170.048 420.261 169.688 421.077 169.384C421.909 169.08 422.789 168.928 423.717 168.928C425.189 168.928 426.285 169.368 427.005 170.248C427.741 171.112 428.109 172.368 428.109 174.016V181H425.829L425.637 179.704H425.541C425.013 180.152 424.445 180.528 423.837 180.832C423.245 181.136 422.597 181.288 421.893 181.288ZM422.781 179.128C423.261 179.128 423.693 179.016 424.077 178.792C424.477 178.552 424.901 178.232 425.349 177.832V175.192C423.749 175.4 422.637 175.712 422.013 176.128C421.389 176.528 421.077 177.024 421.077 177.616C421.077 178.144 421.237 178.528 421.557 178.768C421.877 179.008 422.285 179.128 422.781 179.128ZM435.189 181.288C433.829 181.288 432.861 180.896 432.285 180.112C431.725 179.312 431.445 178.28 431.445 177.016V171.4H429.765V169.336L431.589 169.216L431.925 166H434.229V169.216H437.229V171.4H434.229V177.016C434.229 178.392 434.781 179.08 435.885 179.08C436.093 179.08 436.309 179.056 436.533 179.008C436.757 178.944 436.949 178.88 437.109 178.816L437.589 180.856C437.269 180.968 436.901 181.064 436.485 181.144C436.085 181.24 435.653 181.288 435.189 181.288ZM439.709 181V169.216H442.469V181H439.709ZM441.101 167.152C440.605 167.152 440.205 167.008 439.901 166.72C439.597 166.432 439.445 166.048 439.445 165.568C439.445 165.104 439.597 164.728 439.901 164.44C440.205 164.152 440.605 164.008 441.101 164.008C441.597 164.008 441.997 164.152 442.301 164.44C442.605 164.728 442.757 165.104 442.757 165.568C442.757 166.048 442.605 166.432 442.301 166.72C441.997 167.008 441.597 167.152 441.101 167.152ZM450.814 181.288C449.838 181.288 448.926 181.048 448.078 180.568C447.23 180.072 446.542 179.368 446.014 178.456C445.486 177.528 445.222 176.416 445.222 175.12C445.222 173.808 445.486 172.696 446.014 171.784C446.542 170.856 447.23 170.152 448.078 169.672C448.926 169.176 449.838 168.928 450.814 168.928C451.806 168.928 452.726 169.176 453.574 169.672C454.422 170.152 455.11 170.856 455.638 171.784C456.166 172.696 456.43 173.808 456.43 175.12C456.43 176.416 456.166 177.528 455.638 178.456C455.11 179.368 454.422 180.072 453.574 180.568C452.726 181.048 451.806 181.288 450.814 181.288ZM450.814 179.032C451.678 179.032 452.358 178.672 452.854 177.952C453.35 177.232 453.598 176.288 453.598 175.12C453.598 173.936 453.35 172.984 452.854 172.264C452.358 171.544 451.678 171.184 450.814 171.184C449.95 171.184 449.27 171.544 448.774 172.264C448.294 172.984 448.054 173.936 448.054 175.12C448.054 176.288 448.294 177.232 448.774 177.952C449.27 178.672 449.95 179.032 450.814 179.032ZM459.162 181V169.216H461.442L461.634 170.8H461.73C462.258 170.288 462.834 169.848 463.458 169.48C464.082 169.112 464.794 168.928 465.594 168.928C466.858 168.928 467.778 169.336 468.354 170.152C468.93 170.968 469.218 172.12 469.218 173.608V181H466.458V173.968C466.458 172.992 466.314 172.304 466.026 171.904C465.738 171.504 465.266 171.304 464.61 171.304C464.098 171.304 463.642 171.432 463.242 171.688C462.858 171.928 462.418 172.288 461.922 172.768V181H459.162Z"/><rect width="201" height="41" x="311.5" y="195.5" fill="#F8773D" rx="7.5"/><path fill="#252322" d="M349.372 216.192L348.628 218.592H353.356L352.612 216.192C352.324 215.312 352.052 214.44 351.796 213.576C351.54 212.696 351.284 211.8 351.028 210.888H350.932C350.692 211.8 350.444 212.696 350.188 213.576C349.932 214.44 349.66 215.312 349.372 216.192ZM344.572 225L349.9 209.256H352.156L357.484 225H355.348L353.86 220.2H348.124L346.612 225H344.572ZM359.523 229.92V213.336H361.155L361.323 214.68H361.395C361.923 214.232 362.499 213.848 363.123 213.528C363.763 213.208 364.427 213.048 365.115 213.048C366.619 213.048 367.763 213.592 368.547 214.68C369.331 215.752 369.723 217.192 369.723 219C369.723 220.312 369.483 221.44 369.003 222.384C368.539 223.328 367.923 224.048 367.155 224.544C366.403 225.04 365.579 225.288 364.683 225.288C364.139 225.288 363.595 225.168 363.051 224.928C362.523 224.688 361.987 224.36 361.443 223.944L361.491 225.984V229.92H359.523ZM364.347 223.632C365.307 223.632 366.099 223.224 366.723 222.408C367.363 221.576 367.683 220.44 367.683 219C367.683 217.72 367.443 216.688 366.963 215.904C366.499 215.104 365.715 214.704 364.611 214.704C364.115 214.704 363.611 214.84 363.099 215.112C362.603 215.384 362.067 215.776 361.491 216.288V222.408C362.019 222.856 362.531 223.176 363.027 223.368C363.523 223.544 363.963 223.632 364.347 223.632ZM377.563 225.288C376.523 225.288 375.579 225.048 374.731 224.568C373.883 224.072 373.211 223.368 372.715 222.456C372.219 221.544 371.971 220.456 371.971 219.192C371.971 217.912 372.219 216.816 372.715 215.904C373.227 214.992 373.883 214.288 374.683 213.792C375.483 213.296 376.323 213.048 377.203 213.048C378.691 213.048 379.835 213.544 380.635 214.536C381.451 215.528 381.859 216.856 381.859 218.52C381.859 218.728 381.851 218.936 381.835 219.144C381.835 219.336 381.819 219.504 381.787 219.648H373.915C373.995 220.88 374.379 221.864 375.067 222.6C375.771 223.336 376.683 223.704 377.803 223.704C378.363 223.704 378.875 223.624 379.339 223.464C379.819 223.288 380.275 223.064 380.707 222.792L381.403 224.088C380.907 224.408 380.339 224.688 379.699 224.928C379.075 225.168 378.363 225.288 377.563 225.288ZM373.891 218.232H380.131C380.131 217.048 379.875 216.152 379.363 215.544C378.867 214.92 378.163 214.608 377.251 214.608C376.435 214.608 375.699 214.928 375.043 215.568C374.403 216.192 374.019 217.08 373.891 218.232ZM384.741 225V213.336H386.373L386.541 215.448H386.613C387.013 214.712 387.501 214.128 388.077 213.696C388.653 213.264 389.269 213.048 389.925 213.048C390.389 213.048 390.805 213.128 391.173 213.288L390.789 215.016C390.597 214.952 390.421 214.904 390.261 214.872C390.101 214.84 389.901 214.824 389.661 214.824C389.165 214.824 388.645 215.024 388.101 215.424C387.573 215.824 387.109 216.52 386.709 217.512V225H384.741ZM396.734 225.288C395.486 225.288 394.614 224.928 394.118 224.208C393.638 223.488 393.398 222.552 393.398 221.4V214.944H391.67V213.456L393.494 213.336L393.734 210.072H395.39V213.336H398.534V214.944H395.39V221.424C395.39 222.144 395.518 222.704 395.774 223.104C396.046 223.488 396.518 223.68 397.19 223.68C397.398 223.68 397.622 223.648 397.862 223.584C398.102 223.504 398.318 223.432 398.51 223.368L398.894 224.856C398.574 224.968 398.222 225.064 397.838 225.144C397.47 225.24 397.102 225.288 396.734 225.288ZM404.579 225.288C403.347 225.288 402.443 224.904 401.867 224.136C401.291 223.352 401.003 222.216 401.003 220.728V213.336H402.995V220.464C402.995 221.552 403.163 222.344 403.499 222.84C403.851 223.336 404.411 223.584 405.179 223.584C405.787 223.584 406.323 223.432 406.787 223.128C407.267 222.808 407.779 222.304 408.323 221.616V213.336H410.291V225H408.659L408.491 223.176H408.419C407.875 223.816 407.299 224.328 406.691 224.712C406.083 225.096 405.379 225.288 404.579 225.288ZM414.226 225V213.336H415.858L416.026 215.448H416.098C416.498 214.712 416.986 214.128 417.562 213.696C418.138 213.264 418.754 213.048 419.41 213.048C419.874 213.048 420.29 213.128 420.658 213.288L420.274 215.016C420.082 214.952 419.906 214.904 419.746 214.872C419.586 214.84 419.386 214.824 419.146 214.824C418.65 214.824 418.13 215.024 417.586 215.424C417.058 215.824 416.594 216.52 416.194 217.512V225H414.226ZM427.04 225.288C426 225.288 425.056 225.048 424.208 224.568C423.36 224.072 422.688 223.368 422.192 222.456C421.696 221.544 421.448 220.456 421.448 219.192C421.448 217.912 421.696 216.816 422.192 215.904C422.704 214.992 423.36 214.288 424.16 213.792C424.96 213.296 425.8 213.048 426.68 213.048C428.168 213.048 429.312 213.544 430.112 214.536C430.928 215.528 431.336 216.856 431.336 218.52C431.336 218.728 431.328 218.936 431.312 219.144C431.312 219.336 431.296 219.504 431.264 219.648H423.392C423.472 220.88 423.856 221.864 424.544 222.6C425.248 223.336 426.16 223.704 427.28 223.704C427.84 223.704 428.352 223.624 428.816 223.464C429.296 223.288 429.752 223.064 430.184 222.792L430.88 224.088C430.384 224.408 429.816 224.688 429.176 224.928C428.552 225.168 427.84 225.288 427.04 225.288ZM423.368 218.232H429.608C429.608 217.048 429.352 216.152 428.84 215.544C428.344 214.92 427.64 214.608 426.728 214.608C425.912 214.608 425.176 214.928 424.52 215.568C423.88 216.192 423.496 217.08 423.368 218.232ZM443.583 225.288C442.479 225.288 441.455 225.08 440.511 224.664C439.567 224.232 438.751 223.664 438.063 222.96L439.263 221.568C439.823 222.16 440.479 222.64 441.231 223.008C441.999 223.36 442.791 223.536 443.607 223.536C444.647 223.536 445.455 223.304 446.031 222.84C446.607 222.36 446.895 221.736 446.895 220.968C446.895 220.424 446.775 219.992 446.535 219.672C446.311 219.352 445.999 219.08 445.599 218.856C445.215 218.632 444.775 218.408 444.279 218.184L442.023 217.2C441.527 216.992 441.031 216.72 440.535 216.384C440.055 216.048 439.647 215.616 439.311 215.088C438.991 214.56 438.831 213.912 438.831 213.144C438.831 212.344 439.039 211.632 439.455 211.008C439.887 210.368 440.479 209.872 441.231 209.52C441.983 209.152 442.831 208.968 443.775 208.968C444.719 208.968 445.591 209.152 446.391 209.52C447.191 209.872 447.871 210.336 448.431 210.912L447.351 212.208C446.871 211.744 446.335 211.384 445.743 211.128C445.167 210.856 444.511 210.72 443.775 210.72C442.895 210.72 442.183 210.928 441.639 211.344C441.111 211.76 440.847 212.32 440.847 213.024C440.847 213.52 440.975 213.936 441.231 214.272C441.503 214.592 441.839 214.856 442.239 215.064C442.639 215.272 443.047 215.464 443.463 215.64L445.695 216.6C446.303 216.856 446.847 217.168 447.327 217.536C447.823 217.888 448.215 218.328 448.503 218.856C448.791 219.368 448.935 220.016 448.935 220.8C448.935 221.632 448.719 222.392 448.287 223.08C447.855 223.752 447.239 224.288 446.439 224.688C445.639 225.088 444.687 225.288 443.583 225.288ZM452.035 225V209.256H455.971C458.403 209.256 460.251 209.936 461.515 211.296C462.779 212.64 463.411 214.56 463.411 217.056C463.411 219.568 462.779 221.52 461.515 222.912C460.267 224.304 458.451 225 456.067 225H452.035ZM454.027 223.368H455.827C457.667 223.368 459.043 222.816 459.955 221.712C460.883 220.592 461.347 219.04 461.347 217.056C461.347 215.072 460.883 213.552 459.955 212.496C459.043 211.424 457.667 210.888 455.827 210.888H454.027V223.368ZM466.801 225V209.256H468.793V217.152H468.865L475.417 209.256H477.673L472.753 215.256L478.441 225H476.209L471.505 216.816L468.793 220.008V225H466.801Z"/><rect width="201" height="41" x="311.5" y="195.5" stroke="#B2B4B8" rx="7.5"/><rect width="225" height="103" x="299.5" y="145.5" stroke="#B2B4B8" rx="11.5"/><path fill="#252322" d="M135.784 129.852C135.784 129.535 135.837 129.219 135.837 128.902C135.837 111.948 121.915 98 105.04 98C92.8848 98 82.417 105.356 77.5127 115.666C75.377 114.585 73.0039 113.979 70.4463 113.979C62.6416 113.979 56.1816 120.228 54.916 127.689C45.6348 130.906 38.9375 139.344 38.9375 149.785C38.9375 162.916 49.5107 173.938 62.5625 173.938H135.441C147.307 173.938 157.062 163.681 157.062 151.71C157.062 139.687 147.729 129.878 135.784 129.852ZM135.31 169.613L134.466 169.719H62.7734C51.9893 169.719 43.209 160.517 43.209 149.653C43.209 141.242 48.5352 134.255 56.4453 131.513L58.6602 130.722L59.0557 128.401C60.0049 122.706 64.8828 118.039 70.6309 118.039C72.4502 118.039 74.2432 118.461 75.8779 119.305L79.4375 121.098L81.1514 117.485C85.5283 108.283 94.8887 102.14 104.987 102.14C119.568 102.14 131.592 113.768 131.592 128.428C131.592 131.935 131.539 133.78 131.539 133.78L135.547 133.807C145.224 133.938 152.844 141.849 152.844 151.578C152.844 161.308 144.986 169.561 135.31 169.613Z"/><path fill="#252322" d="M26.872 201.129L26.128 203.529H30.856L30.112 201.129C29.824 200.249 29.552 199.377 29.296 198.513C29.04 197.633 28.784 196.737 28.528 195.826H28.432C28.192 196.737 27.944 197.633 27.688 198.513C27.432 199.377 27.16 200.249 26.872 201.129ZM22.072 209.938L27.4 194.193H29.656L34.984 209.938H32.848L31.36 205.137H25.624L24.112 209.938H22.072ZM37.0227 214.858V198.273H38.6547L38.8227 199.617H38.8947C39.4227 199.169 39.9987 198.785 40.6227 198.465C41.2627 198.145 41.9267 197.985 42.6147 197.985C44.1187 197.985 45.2627 198.529 46.0467 199.617C46.8307 200.689 47.2227 202.129 47.2227 203.938C47.2227 205.249 46.9827 206.377 46.5027 207.321C46.0387 208.265 45.4227 208.985 44.6547 209.481C43.9027 209.977 43.0787 210.226 42.1827 210.226C41.6387 210.226 41.0947 210.106 40.5507 209.865C40.0227 209.625 39.4867 209.297 38.9427 208.881L38.9907 210.922V214.858H37.0227ZM41.8467 208.569C42.8067 208.569 43.5987 208.161 44.2227 207.345C44.8627 206.513 45.1827 205.377 45.1827 203.938C45.1827 202.657 44.9427 201.625 44.4627 200.841C43.9987 200.041 43.2147 199.641 42.1107 199.641C41.6147 199.641 41.1107 199.777 40.5987 200.049C40.1027 200.321 39.5667 200.713 38.9907 201.225V207.345C39.5187 207.793 40.0307 208.113 40.5267 208.305C41.0227 208.481 41.4627 208.569 41.8467 208.569ZM55.0632 210.226C54.0232 210.226 53.0792 209.985 52.2312 209.505C51.3832 209.009 50.7112 208.305 50.2152 207.393C49.7192 206.481 49.4712 205.393 49.4712 204.129C49.4712 202.849 49.7192 201.753 50.2152 200.841C50.7272 199.929 51.3832 199.225 52.1832 198.729C52.9832 198.233 53.8232 197.985 54.7032 197.985C56.1912 197.985 57.3352 198.481 58.1352 199.473C58.9512 200.465 59.3592 201.793 59.3592 203.457C59.3592 203.665 59.3512 203.873 59.3352 204.081C59.3352 204.273 59.3192 204.441 59.2872 204.585H51.4152C51.4952 205.817 51.8792 206.801 52.5672 207.537C53.2712 208.273 54.1832 208.641 55.3032 208.641C55.8632 208.641 56.3752 208.561 56.8392 208.401C57.3192 208.225 57.7752 208.001 58.2072 207.729L58.9032 209.025C58.4072 209.345 57.8392 209.625 57.1992 209.865C56.5752 210.106 55.8632 210.226 55.0632 210.226ZM51.3912 203.169H57.6312C57.6312 201.985 57.3752 201.089 56.8632 200.481C56.3672 199.857 55.6632 199.545 54.7512 199.545C53.9352 199.545 53.1992 199.865 52.5432 200.505C51.9032 201.129 51.5192 202.017 51.3912 203.169ZM62.2414 209.938V198.273H63.8734L64.0414 200.385H64.1134C64.5134 199.649 65.0014 199.065 65.5774 198.633C66.1534 198.201 66.7694 197.985 67.4254 197.985C67.8894 197.985 68.3054 198.065 68.6734 198.225L68.2894 199.953C68.0974 199.889 67.9214 199.841 67.7614 199.809C67.6014 199.777 67.4014 199.761 67.1614 199.761C66.6654 199.761 66.1454 199.961 65.6014 200.361C65.0734 200.761 64.6094 201.457 64.2094 202.449V209.938H62.2414ZM74.2338 210.226C72.9858 210.226 72.1138 209.866 71.6178 209.146C71.1378 208.425 70.8978 207.489 70.8978 206.337V199.881H69.1698V198.393L70.9938 198.273L71.2338 195.009H72.8898V198.273H76.0338V199.881H72.8898V206.361C72.8898 207.081 73.0178 207.641 73.2738 208.041C73.5458 208.425 74.0178 208.617 74.6898 208.617C74.8978 208.617 75.1218 208.585 75.3618 208.521C75.6018 208.441 75.8178 208.369 76.0098 208.305L76.3938 209.793C76.0738 209.906 75.7218 210.002 75.3378 210.082C74.9698 210.178 74.6018 210.226 74.2338 210.226ZM82.0791 210.226C80.8471 210.226 79.9431 209.841 79.3671 209.073C78.7911 208.289 78.5031 207.153 78.5031 205.665V198.273H80.4951V205.401C80.4951 206.489 80.6631 207.281 80.9991 207.777C81.3511 208.273 81.9111 208.521 82.6791 208.521C83.2871 208.521 83.8231 208.369 84.2871 208.065C84.7671 207.745 85.2791 207.241 85.8231 206.553V198.273H87.7911V209.938H86.1591L85.9911 208.113H85.9191C85.3751 208.753 84.7991 209.265 84.1911 209.649C83.5831 210.034 82.8791 210.226 82.0791 210.226ZM91.7258 209.938V198.273H93.3578L93.5258 200.385H93.5978C93.9978 199.649 94.4858 199.065 95.0618 198.633C95.6378 198.201 96.2538 197.985 96.9098 197.985C97.3738 197.985 97.7898 198.065 98.1578 198.225L97.7738 199.953C97.5818 199.889 97.4058 199.841 97.2458 199.809C97.0858 199.777 96.8858 199.761 96.6458 199.761C96.1498 199.761 95.6298 199.961 95.0858 200.361C94.5578 200.761 94.0938 201.457 93.6938 202.449V209.938H91.7258ZM104.54 210.226C103.5 210.226 102.556 209.985 101.708 209.505C100.86 209.009 100.188 208.305 99.6918 207.393C99.1958 206.481 98.9478 205.393 98.9478 204.129C98.9478 202.849 99.1958 201.753 99.6918 200.841C100.204 199.929 100.86 199.225 101.66 198.729C102.46 198.233 103.3 197.985 104.18 197.985C105.668 197.985 106.812 198.481 107.612 199.473C108.428 200.465 108.836 201.793 108.836 203.457C108.836 203.665 108.828 203.873 108.812 204.081C108.812 204.273 108.796 204.441 108.764 204.585H100.892C100.972 205.817 101.356 206.801 102.044 207.537C102.748 208.273 103.66 208.641 104.78 208.641C105.34 208.641 105.852 208.561 106.316 208.401C106.796 208.225 107.252 208.001 107.684 207.729L108.38 209.025C107.884 209.345 107.316 209.625 106.676 209.865C106.052 210.106 105.34 210.226 104.54 210.226ZM100.868 203.169H107.108C107.108 201.985 106.852 201.089 106.34 200.481C105.844 199.857 105.14 199.545 104.228 199.545C103.412 199.545 102.676 199.865 102.02 200.505C101.38 201.129 100.996 202.017 100.868 203.169ZM122.667 210.226C121.355 210.226 120.179 209.905 119.139 209.265C118.115 208.609 117.299 207.673 116.691 206.457C116.099 205.241 115.803 203.777 115.803 202.065C115.803 200.369 116.107 198.913 116.715 197.697C117.323 196.481 118.155 195.545 119.211 194.889C120.267 194.233 121.459 193.905 122.787 193.905C123.747 193.905 124.595 194.105 125.331 194.505C126.067 194.889 126.659 195.337 127.107 195.849L126.027 197.145C125.611 196.697 125.139 196.337 124.611 196.065C124.083 195.793 123.483 195.657 122.811 195.657C121.819 195.657 120.947 195.921 120.195 196.449C119.459 196.961 118.883 197.689 118.467 198.633C118.067 199.577 117.867 200.705 117.867 202.017C117.867 203.329 118.067 204.473 118.467 205.449C118.867 206.409 119.427 207.153 120.147 207.681C120.883 208.209 121.747 208.473 122.739 208.473C123.491 208.473 124.163 208.313 124.755 207.993C125.347 207.673 125.891 207.241 126.387 206.697L127.491 207.945C126.867 208.665 126.163 209.225 125.379 209.625C124.595 210.025 123.691 210.226 122.667 210.226ZM132.322 210.226C131.586 210.226 131.05 210.001 130.714 209.553C130.394 209.089 130.234 208.433 130.234 207.585V192.849H132.202V207.729C132.202 208.033 132.258 208.257 132.37 208.401C132.482 208.529 132.61 208.593 132.754 208.593C132.818 208.593 132.874 208.593 132.922 208.593C132.986 208.577 133.074 208.561 133.186 208.545L133.45 210.034C133.322 210.098 133.17 210.146 132.994 210.178C132.818 210.21 132.594 210.226 132.322 210.226ZM140.887 210.226C139.943 210.226 139.055 209.985 138.223 209.505C137.407 209.025 136.743 208.329 136.231 207.417C135.735 206.505 135.487 205.409 135.487 204.129C135.487 202.817 135.735 201.705 136.231 200.793C136.743 199.881 137.407 199.185 138.223 198.705C139.055 198.225 139.943 197.985 140.887 197.985C141.847 197.985 142.735 198.225 143.551 198.705C144.367 199.185 145.023 199.881 145.519 200.793C146.031 201.705 146.287 202.817 146.287 204.129C146.287 205.409 146.031 206.505 145.519 207.417C145.023 208.329 144.367 209.025 143.551 209.505C142.735 209.985 141.847 210.226 140.887 210.226ZM140.887 208.593C141.895 208.593 142.703 208.185 143.311 207.369C143.935 206.537 144.247 205.457 144.247 204.129C144.247 202.785 143.935 201.697 143.311 200.865C142.703 200.033 141.895 199.617 140.887 199.617C139.895 199.617 139.087 200.033 138.463 200.865C137.839 201.697 137.527 202.785 137.527 204.129C137.527 205.457 137.839 206.537 138.463 207.369C139.087 208.185 139.895 208.593 140.887 208.593ZM152.767 210.226C151.535 210.226 150.631 209.841 150.055 209.073C149.479 208.289 149.191 207.153 149.191 205.665V198.273H151.183V205.401C151.183 206.489 151.351 207.281 151.687 207.777C152.039 208.273 152.599 208.521 153.367 208.521C153.975 208.521 154.511 208.369 154.975 208.065C155.455 207.745 155.967 207.241 156.511 206.553V198.273H158.479V209.938H156.847L156.679 208.113H156.607C156.063 208.753 155.487 209.265 154.879 209.649C154.271 210.034 153.567 210.226 152.767 210.226ZM166.397 210.226C164.941 210.226 163.773 209.697 162.893 208.641C162.013 207.569 161.573 206.065 161.573 204.129C161.573 202.865 161.805 201.777 162.269 200.865C162.749 199.937 163.373 199.225 164.141 198.729C164.925 198.233 165.757 197.985 166.637 197.985C167.309 197.985 167.893 198.105 168.389 198.345C168.885 198.585 169.389 198.913 169.901 199.329L169.805 197.337V192.849H171.797V209.938H170.165L169.997 208.569H169.925C169.477 209.017 168.949 209.409 168.341 209.745C167.733 210.065 167.085 210.226 166.397 210.226ZM166.829 208.569C167.853 208.569 168.845 208.033 169.805 206.961V200.865C169.309 200.417 168.829 200.105 168.365 199.929C167.917 199.737 167.453 199.641 166.973 199.641C166.349 199.641 165.781 199.833 165.269 200.217C164.773 200.585 164.373 201.105 164.069 201.777C163.765 202.433 163.613 203.209 163.613 204.105C163.613 205.497 163.893 206.593 164.453 207.393C165.013 208.177 165.805 208.569 166.829 208.569Z"/><path fill="#7F8086" d="M178 155.969C177.448 155.969 177 156.416 177 156.969C177 157.521 177.448 157.969 178 157.969V155.969ZM307.707 93.7071C308.098 93.3166 308.098 92.6834 307.707 92.2929L301.343 85.9289C300.953 85.5384 300.319 85.5384 299.929 85.9289C299.538 86.3195 299.538 86.9526 299.929 87.3431L305.586 93L299.929 98.6569C299.538 99.0474 299.538 99.6805 299.929 100.071C300.319 100.462 300.953 100.462 301.343 100.071L307.707 93.7071ZM178 157.969H208V155.969H178V157.969ZM233 132.969V117H231V132.969H233ZM256 94H307V92H256V94ZM233 117C233 104.297 243.298 94 256 94V92C242.193 92 231 103.193 231 117H233ZM208 157.969C221.807 157.969 233 146.776 233 132.969H231C231 145.671 220.703 155.969 208 155.969V157.969Z"/><path fill="#7F8086" d="M178 155.969C177.448 155.969 177 156.416 177 156.969C177 157.521 177.448 157.969 178 157.969V155.969ZM307.707 216.707C308.098 216.317 308.098 215.683 307.707 215.293L301.343 208.929C300.953 208.538 300.319 208.538 299.929 208.929C299.538 209.319 299.538 209.953 299.929 210.343L305.586 216L299.929 221.657C299.538 222.047 299.538 222.681 299.929 223.071C300.319 223.462 300.953 223.462 301.343 223.071L307.707 216.707ZM178 157.969H208V155.969H178V157.969ZM231 180.969V192H233V180.969H231ZM256 217H307V215H256V217ZM231 192C231 205.807 242.192 217 256 217V215C243.297 215 233 204.703 233 192H231ZM208 157.969C220.702 157.969 231 168.266 231 180.969H233C233 167.162 221.807 155.969 208 155.969V157.969Z"/></g><defs><filter id="filter0_d_58_743" width="569" height="310" x="-4" y="0" color-interpolation-filters="sRGB" filterUnits="userSpaceOnUse"><feFlood flood-opacity="0" result="BackgroundImageFix"/><feColorMatrix in="SourceAlpha" result="hardAlpha" type="matrix" values="0 0 0 0 0 0 0 0 0 0 0 0 0 0 0 0 0 0 127 0"/><feOffset dy="4"/><feGaussianBlur stdDeviation="2"/><feComposite in2="hardAlpha" operator="out"/><feColorMatrix type="matrix" values="0 0 0 0 0 0 0 0 0 0 0 0 0 0 0 0 0 0 0.25 0"/><feBlend in2="BackgroundImageFix" mode="normal" result="effect1_dropShadow_58_743"/><feBlend in="SourceGraphic" in2="effect1_dropShadow_58_743" mode="normal" result="shape"/></filter></defs></svg>