<svg xmlns="http://www.w3.org/2000/svg" xmlns:xlink="http://www.w3.org/1999/xlink" width="2667" height="1095" overflow="hidden" xml:space="preserve"><g><g transform="translate(-316 -527)"><path fill="#8EC4AD" fill-opacity="1" fill-rule="evenodd" stroke="#312D2B" stroke-linecap="butt" stroke-linejoin="round" stroke-miterlimit="10" stroke-opacity="1" stroke-width="3.438" d="M319.5 865C319.5 849.812 331.812 837.5 347 837.5L822 837.5C837.188 837.5 849.5 849.812 849.5 865L849.5 974.999C849.5 990.188 837.188 1002.5 822 1002.5L347 1002.5C331.812 1002.5 319.5 990.188 319.5 974.999Z"/><text fill="#000" fill-opacity="1" direction="ltr" font-family="Arial,Arial_MSFontService,sans-serif" font-size="55" font-stretch="normal" font-style="normal" font-variant="normal" font-weight="400" text-anchor="start" text-decoration="none" transform="matrix(1 0 0 1 377.076 939)" unicode-bidi="normal" writing-mode="lr-tb">Critical Requests</text><path fill="#68A7D9" fill-opacity="1" fill-rule="evenodd" stroke="#312D2B" stroke-linecap="butt" stroke-linejoin="round" stroke-miterlimit="10" stroke-opacity="1" stroke-width="3.438" d="M1275.5 741.5 1696.5 846.749 1696.5 1220.25 1275.5 1325.5Z"/><rect width="347" height="222" x="1312" y="922" fill="#68A7D9" fill-opacity="1"/><text fill="#000" fill-opacity="1" direction="ltr" font-family="Arial,Arial_MSFontService,sans-serif" font-size="64" font-stretch="normal" font-style="normal" font-variant="normal" font-weight="400" text-anchor="start" text-decoration="none" transform="matrix(1 0 0 1 1414.53 1017)" unicode-bidi="normal" writing-mode="lr-tb">Load</text><text fill="#000" fill-opacity="1" direction="ltr" font-family="Arial,Arial_MSFontService,sans-serif" font-size="64" font-stretch="normal" font-style="normal" font-variant="normal" font-weight="400" text-anchor="start" text-decoration="none" transform="matrix(1 0 0 1 1364.68 1094)" unicode-bidi="normal" writing-mode="lr-tb">Shedder</text><path fill="#F27A40" fill-opacity="1" fill-rule="evenodd" stroke="#312D2B" stroke-linecap="butt" stroke-linejoin="round" stroke-miterlimit="10" stroke-opacity="1" stroke-width="3.438" d="M319.5 1116C319.5 1100.81 331.812 1088.5 347 1088.5L822 1088.5C837.188 1088.5 849.5 1100.81 849.5 1116L849.5 1226C849.5 1241.19 837.188 1253.5 822 1253.5L347 1253.5C331.812 1253.5 319.5 1241.19 319.5 1226Z"/><text fill="#000" fill-opacity="1" direction="ltr" font-family="Arial,Arial_MSFontService,sans-serif" font-size="55" font-stretch="normal" font-style="normal" font-variant="normal" font-weight="400" text-anchor="start" text-decoration="none" transform="matrix(1 0 0 1 442.675 1158)" unicode-bidi="normal" writing-mode="lr-tb">Non Critical</text><text fill="#000" fill-opacity="1" direction="ltr" font-family="Arial,Arial_MSFontService,sans-serif" font-size="55" font-stretch="normal" font-style="normal" font-variant="normal" font-weight="400" text-anchor="start" text-decoration="none" transform="matrix(1 0 0 1 468.456 1224)" unicode-bidi="normal" writing-mode="lr-tb">Requests</text><path fill="#8EC4AD" fill-opacity="1" fill-rule="nonzero" d="M0.0124033-6.87499 385.716-6.17913 385.691 7.57085-0.0124033 6.87499ZM378.866-19.9415 420.079 0.757874 378.792 21.3084Z" transform="matrix(1 -1.22465e-16 -1.22465e-16 -1 849 918.758)"/><path fill="#F27A40" fill-opacity="1" fill-rule="nonzero" d="M0.0301221-6.87493 385.734-5.18499 385.674 8.56488-0.0301221 6.87493ZM378.919-18.965 420.079 1.84055 378.739 22.2846Z" transform="matrix(1 -1.22465e-16 -1.22465e-16 -1 849 1170.84)"/><path fill="#ECB43F" fill-opacity="1" fill-rule="evenodd" stroke="#312D2B" stroke-linecap="butt" stroke-linejoin="round" stroke-miterlimit="10" stroke-opacity="1" stroke-width="3.438" d="M2345.5 885.668C2345.5 844.706 2378.71 811.5 2419.67 811.5L2907.33 811.5C2948.29 811.5 2981.5 844.706 2981.5 885.668L2981.5 1182.33C2981.5 1223.29 2948.29 1256.5 2907.33 1256.5L2419.67 1256.5C2378.71 1256.5 2345.5 1223.29 2345.5 1182.33Z"/><text fill="#000" fill-opacity="1" direction="ltr" font-family="Arial,Arial_MSFontService,sans-serif" font-size="55" font-stretch="normal" font-style="normal" font-variant="normal" font-weight="400" text-anchor="start" text-decoration="none" transform="matrix(1 0 0 1 2571.44 1053)" unicode-bidi="normal" writing-mode="lr-tb">Service</text><path fill="#8EC4AD" fill-opacity="1" fill-rule="nonzero" d="M0.0218765-6.87497 612.113-4.92726 612.069 8.82267-0.0218765 6.87497ZM605.282-18.6991 646.467 2.05709 605.151 22.5507Z" transform="matrix(1 -1.22465e-16 -1.22465e-16 -1 1698 920.057)"/><path fill="#F27A40" fill-opacity="1" fill-rule="nonzero" d="M0.0154244-1.71868 628.547 3.92212 628.516 7.35948-0.0154244 1.71868ZM624.071-8.14978 651.447 5.84646 623.825 19.3491Z" transform="matrix(1 -1.22465e-16 -1.22465e-16 -1 1696.5 1171.35)"/><path fill="#ECB43F" fill-opacity="1" fill-rule="nonzero" d="M0-1.71875 155.17-1.71875C156.119-1.71875 156.889-0.949239 156.889 0L156.889 1177.19C156.889 1178.14 156.119 1178.91 155.17 1178.91L35.0065 1178.91 35.0065 1175.48 155.17 1175.48 153.451 1177.19 153.451 0 155.17 1.71875 0 1.71875ZM35.0066 1177.19 44.1732 1190.94 16.6732 1177.19 44.1732 1163.44Z" transform="matrix(-6.12323e-17 -1 -1 6.12323e-17 2663.69 811.173)"/><text fill="#ECB43F" fill-opacity="1" direction="ltr" font-family="Arial,Arial_MSFontService,sans-serif" font-size="55" font-stretch="normal" font-style="italic" font-variant="normal" font-weight="400" text-anchor="start" text-decoration="none" transform="matrix(1 0 0 1 1865.68 617)" unicode-bidi="normal" writing-mode="lr-tb">Saturation Signal</text><text fill="#8EC4AD" fill-opacity="1" direction="ltr" font-family="Arial,Arial_MSFontService,sans-serif" font-size="46" font-stretch="normal" font-style="italic" font-variant="normal" font-weight="400" text-anchor="start" text-decoration="none" transform="matrix(1 0 0 1 874.009 865)" unicode-bidi="normal" writing-mode="lr-tb">80% Accepted</text><text fill="#F27A40" fill-opacity="1" direction="ltr" font-family="Arial,Arial_MSFontService,sans-serif" font-size="46" font-stretch="normal" font-style="italic" font-variant="normal" font-weight="400" text-anchor="start" text-decoration="none" transform="matrix(1 0 0 1 910.974 1105)" unicode-bidi="normal" writing-mode="lr-tb">15% Accepted</text><text fill="#8EC4AD" fill-opacity="1" direction="ltr" font-family="Arial,Arial_MSFontService,sans-serif" font-size="64" font-stretch="normal" font-style="normal" font-variant="normal" font-weight="400" text-anchor="start" text-decoration="none" transform="matrix(1 0 0 1 1317.14 1568)" unicode-bidi="normal" writing-mode="lr-tb">Adaptive Service Limits</text></g></g></svg>