<?xml version="1.0" encoding="UTF-8" standalone="no"?>
<!DOCTYPE svg PUBLIC "-//W3C//DTD SVG 1.1//EN"
 "http://www.w3.org/Graphics/SVG/1.1/DTD/svg11.dtd">
<!-- Generated by graphviz version 5.0.1 (20220820.1526)
 -->
<!-- Pages: 1 -->
<svg width="441pt" height="183pt"
 viewBox="0.00 0.00 441.19 183.00" xmlns="http://www.w3.org/2000/svg" xmlns:xlink="http://www.w3.org/1999/xlink">
<g id="graph0" class="graph" transform="scale(1 1) rotate(0) translate(4 179)">
<polygon fill="white" stroke="none" points="-4,4 -4,-179 437.19,-179 437.19,4 -4,4"/>
<g id="clust1" class="cluster">
<title>cluster_s1</title>
<polygon fill="none" stroke="black" points="8,-8 8,-167 174.29,-167 174.29,-8 8,-8"/>
<text text-anchor="middle" x="91.15" y="-151.8" font-family="Times,serif" font-size="14.00">Constant (0)</text>
</g>
<g id="clust3" class="cluster">
<title>cluster_s3</title>
<polygon fill="none" stroke="black" points="269.29,-8 269.29,-167 425.19,-167 425.19,-8 269.29,-8"/>
<text text-anchor="middle" x="347.24" y="-151.8" font-family="Times,serif" font-size="14.00">RateLimiter (1)</text>
</g>
<!-- n2 -->
<g id="node1" class="node">
<title>n2</title>
<ellipse fill="none" stroke="black" cx="91.15" cy="-76" rx="33.29" ry="18"/>
<text text-anchor="middle" x="91.15" y="-72.3" font-family="Times,serif" font-size="14.00">output</text>
</g>
<!-- n4 -->
<g id="node2" class="node">
<title>n4</title>
<ellipse fill="none" stroke="black" cx="347.24" cy="-76" rx="27.9" ry="18"/>
<text text-anchor="middle" x="347.24" y="-72.3" font-family="Times,serif" font-size="14.00">limit</text>
</g>
<!-- n2&#45;&gt;n4 -->
<g id="edge1" class="edge">
<title>n2&#45;&gt;n4</title>
<path fill="none" stroke="black" d="M124.36,-76C124.36,-76 309.19,-76 309.19,-76"/>
<polygon fill="black" stroke="black" points="309.19,-79.5 319.19,-76 309.19,-72.5 309.19,-79.5"/>
<text text-anchor="middle" x="221.79" y="-79.8" font-family="Times,serif" font-size="14.00">RATE_LIMIT</text>
</g>
</g>
</svg>
