<?xml version="1.0" encoding="UTF-8" standalone="no"?>
<!DOCTYPE svg PUBLIC "-//W3C//DTD SVG 1.1//EN"
 "http://www.w3.org/Graphics/SVG/1.1/DTD/svg11.dtd">
<!-- Generated by graphviz version 2.43.0 (0)
 -->
<!-- Title: %3 Pages: 1 -->
<svg width="477pt" height="183pt"
 viewBox="0.00 0.00 477.19 183.00" xmlns="http://www.w3.org/2000/svg" xmlns:xlink="http://www.w3.org/1999/xlink">
<g id="graph0" class="graph" transform="scale(1 1) rotate(0) translate(4 179)">
<title>%3</title>
<polygon fill="white" stroke="transparent" points="-4,4 -4,-179 473.19,-179 473.19,4 -4,4"/>
<g id="clust1" class="cluster">
<title>cluster_s1</title>
<polygon fill="none" stroke="black" points="8,-8 8,-167 191.19,-167 191.19,-8 8,-8"/>
<text text-anchor="middle" x="99.6" y="-151.8" font-family="Times,serif" font-size="14.00">Constant (0)</text>
</g>
<g id="clust3" class="cluster">
<title>cluster_s3</title>
<polygon fill="none" stroke="black" points="296.19,-8 296.19,-167 461.19,-167 461.19,-8 296.19,-8"/>
<text text-anchor="middle" x="378.69" y="-151.8" font-family="Times,serif" font-size="14.00">RateLimiter (1)</text>
</g>
<!-- n2 -->
<g id="node1" class="node">
<title>n2</title>
<ellipse fill="none" stroke="black" cx="99.6" cy="-76" rx="41.69" ry="18"/>
<text text-anchor="middle" x="99.6" y="-72.3" font-family="Times,serif" font-size="14.00">output</text>
</g>
<!-- n4 -->
<g id="node2" class="node">
<title>n4</title>
<ellipse fill="none" stroke="black" cx="378.69" cy="-76" rx="32.49" ry="18"/>
<text text-anchor="middle" x="378.69" y="-72.3" font-family="Times,serif" font-size="14.00">limit</text>
</g>
<!-- n2&#45;&gt;n4 -->
<g id="edge1" class="edge">
<title>n2&#45;&gt;n4</title>
<path fill="none" stroke="black" d="M141.38,-76C141.38,-76 335.8,-76 335.8,-76"/>
<polygon fill="black" stroke="black" points="335.8,-79.5 345.8,-76 335.8,-72.5 335.8,-79.5"/>
<text text-anchor="middle" x="243.69" y="-79.8" font-family="Times,serif" font-size="14.00">RATE_LIMIT</text>
</g>
</g>
</svg>
