<svg xmlns="http://www.w3.org/2000/svg" xmlns:xlink="http://www.w3.org/1999/xlink" width="4235pt" height="2647pt" viewBox="0 0 4235.14 2647"><g id="graph0" class="graph" transform="scale(1 1) rotate(0) translate(4 2643)"><polygon fill="#fff" stroke="none" points="-4 4 -4 -2643 4231.14 -2643 4231.14 4 -4 4"/><g id="clust1" class="cluster"><title>cluster_s1</title><polygon fill="none" stroke="#000" points="18.4 -1861 18.4 -2074 580.39 -2074 580.39 -1861 18.4 -1861"/><text x="299.39" y="-2058.8" font-family="Times,serif" font-size="14" text-anchor="middle">ArithmeticCombinator[0]</text></g><g id="clust4" class="cluster"><title>cluster_s6</title><polygon fill="none" stroke="#000" points="2420.49 -2418 2420.49 -2631 3484.66 -2631 3484.66 -2418 2420.49 -2418"/><text x="2952.58" y="-2615.8" font-family="Times,serif" font-size="14" text-anchor="middle">ArithmeticCombinator[1]</text></g><g id="clust7" class="cluster"><title>cluster_s11</title><polygon fill="none" stroke="#000" points="2096.34 -725 2096.34 -938 2593.28 -938 2593.28 -725 2096.34 -725"/><text x="2344.81" y="-922.8" font-family="Times,serif" font-size="14" text-anchor="middle">ArithmeticCombinator[2]</text></g><g id="clust10" class="cluster"><title>cluster_s15</title><polygon fill="none" stroke="#000" points="2096.34 -504 2096.34 -717 2593.28 -717 2593.28 -504 2096.34 -504"/><text x="2344.81" y="-701.8" font-family="Times,serif" font-size="14" text-anchor="middle">ArithmeticCombinator[3]</text></g><g id="clust13" class="cluster"><title>cluster_s19</title><polygon fill="none" stroke="#000" points="1563.46 -2197 1563.46 -2410 2593.28 -2410 2593.28 -2197 1563.46 -2197"/><text x="2078.37" y="-2394.8" font-family="Times,serif" font-size="14" text-anchor="middle">ArithmeticCombinator[4]</text></g><g id="clust16" class="cluster"><title>cluster_s24</title><polygon fill="none" stroke="#000" points="970.47 -1456 970.47 -1669 1736.25 -1669 1736.25 -1456 970.47 -1456"/><text x="1353.36" y="-1653.8" font-family="Times,serif" font-size="14" text-anchor="middle">ArithmeticCombinator[5]</text></g><g id="clust19" class="cluster"><title>cluster_s29</title><polygon fill="none" stroke="#000" points="2420.49 -8 2420.49 -221 3484.66 -221 3484.66 -8 2420.49 -8"/><text x="2952.58" y="-205.8" font-family="Times,serif" font-size="14" text-anchor="middle">ArithmeticCombinator[6]</text></g><g id="clust22" class="cluster"><title>cluster_s34</title><polygon fill="none" stroke="#000" points="3886.81 -283 3886.81 -496 4219.14 -496 4219.14 -283 3886.81 -283"/><text x="4052.97" y="-480.8" font-family="Times,serif" font-size="14" text-anchor="middle">ArithmeticCombinator[7]</text></g><g id="clust25" class="cluster"><title>cluster_s61</title><polygon fill="none" stroke="#000" points="1430.27 -633 1430.27 -1178 1859.04 -1178 1859.04 -633 1430.27 -633"/><text x="1644.66" y="-1162.8" font-family="Times,serif" font-size="14" text-anchor="middle">ConcurrencyLimiter[14]</text></g><g id="clust26" class="cluster"><title>cluster_s65</title><polygon fill="none" stroke="#000" points="1488.26 -683 1488.26 -842 1802.05 -842 1802.05 -683 1488.26 -683"/><text x="1645.16" y="-826.8" font-family="Times,serif" font-size="14" text-anchor="middle">LoadShedActuator[14.LoadShedActuator]</text></g><g id="clust28" class="cluster"><title>cluster_s62</title><polygon fill="none" stroke="#000" points="1480.27 -892 1480.27 -1105 1809.04 -1105 1809.04 -892 1480.27 -892"/><text x="1644.66" y="-1089.8" font-family="Times,serif" font-size="14" text-anchor="middle">Scheduler[14.Scheduler]</text></g><g id="clust30" class="cluster"><title>cluster_s67</title><polygon fill="none" stroke="#000" points="2096.34 -1422 2096.34 -1635 2593.28 -1635 2593.28 -1422 2096.34 -1422"/><text x="2344.81" y="-1619.8" font-family="Times,serif" font-size="14" text-anchor="middle">Decider[15]</text></g><g id="clust33" class="cluster"><title>cluster_s50</title><polygon fill="none" stroke="#000" points="672.39 -1842 672.39 -2055 1143.27 -2055 1143.27 -1842 672.39 -1842"/><text x="907.83" y="-2039.8" font-family="Times,serif" font-size="14" text-anchor="middle">EMA[12]</text></g><g id="clust36" class="cluster"><title>cluster_s54</title><polygon fill="none" stroke="#000" points="3828.66 -1586 3828.66 -1961 4219.14 -1961 4219.14 -1586 3828.66 -1586"/><text x="4023.9" y="-1945.8" font-family="Times,serif" font-size="14" text-anchor="middle">Gradient[13]</text></g><g id="clust39" class="cluster"><title>cluster_s41</title><polygon fill="none" stroke="#000" points="2414.64 -2030 2414.64 -2189 3484.66 -2189 3484.66 -2030 2414.64 -2030"/><text x="2949.65" y="-2173.8" font-family="Times,serif" font-size="14" text-anchor="middle">Max[9]</text></g><g id="clust42" class="cluster"><title>cluster_s38</title><polygon fill="none" stroke="#000" points="2083.04 -1143 2083.04 -1302 2593.28 -1302 2593.28 -1143 2083.04 -1143"/><text x="2338.16" y="-1286.8" font-family="Times,serif" font-size="14" text-anchor="middle">Min[8]</text></g><g id="clust45" class="cluster"><title>cluster_s48</title><polygon fill="none" stroke="#000" points="8 -1692 8 -1851 191.19 -1851 191.19 -1692 8 -1692"/><text x="99.6" y="-1835.8" font-family="Times,serif" font-size="14" text-anchor="middle">PromQL[11]</text></g><g id="clust47" class="cluster"><title>cluster_s45</title><polygon fill="none" stroke="#000" points="2088.24 -946 2088.24 -1105 2593.28 -1105 2593.28 -946 2088.24 -946"/><text x="2340.76" y="-1089.8" font-family="Times,serif" font-size="14" text-anchor="middle">Sqrt[10]</text></g><g id="clust50" class="cluster"><title>cluster_s71</title><polygon fill="none" stroke="#000" points="2414.64 -1755 2414.64 -2022 3484.66 -2022 3484.66 -1755 2414.64 -1755"/><text x="2949.65" y="-2006.8" font-family="Times,serif" font-size="14" text-anchor="middle">Switcher[16]</text></g><g id="clust53" class="cluster"><title>cluster_s77</title><polygon fill="none" stroke="#000" points="2420.49 -229 2420.49 -496 3484.66 -496 3484.66 -229 2420.49 -229"/><text x="2952.58" y="-480.8" font-family="Times,serif" font-size="14" text-anchor="middle">Switcher[17]</text></g><g id="node1" class="node"><title>n4</title><ellipse cx="99.6" cy="-1983" fill="none" stroke="#000" rx="31.4" ry="18"/><text x="99.6" y="-1979.3" font-family="Times,serif" font-size="14" text-anchor="middle">2.00</text></g><g id="node4" class="node"><title>n3</title><ellipse cx="314.19" cy="-1983" fill="none" stroke="#000" rx="27" ry="18"/><text x="314.19" y="-1979.3" font-family="Times,serif" font-size="14" text-anchor="middle">rhs</text></g><g id="edge1" class="edge"><title>n4-&gt;n3</title><path fill="none" stroke="#000" d="M130.8,-1983C130.8,-1983 277.03,-1983 277.03,-1983"/><polygon fill="#000" stroke="#000" points="277.03 -1986.5 287.03 -1983 277.03 -1979.5 277.03 -1986.5"/></g><g id="node2" class="node"><title>n2</title><ellipse cx="314.19" cy="-1929" fill="none" stroke="#000" rx="27" ry="18"/><text x="314.19" y="-1925.3" font-family="Times,serif" font-size="14" text-anchor="middle">lhs</text></g><g id="node3" class="node"><title>n5</title><ellipse cx="488.79" cy="-1975" fill="none" stroke="#000" rx="41.69" ry="18"/><text x="488.79" y="-1971.3" font-family="Times,serif" font-size="14" text-anchor="middle">output</text></g><g id="node37" class="node"><title>n52</title><ellipse cx="798.43" cy="-1964" fill="none" stroke="#000" rx="76.09" ry="18"/><text x="798.43" y="-1960.3" font-family="Times,serif" font-size="14" text-anchor="middle">max_envelope</text></g><g id="edge31" class="edge"><title>n5-&gt;n52</title><path fill="none" stroke="#000" d="M528.63,-1969.5C528.63,-1969.5 715.92,-1969.5 715.92,-1969.5"/><polygon fill="#000" stroke="#000" points="715.92 -1973 725.92 -1969.5 715.91 -1966 715.92 -1973"/><text x="626.39" y="-1969.8" font-family="Times,serif" font-size="14" text-anchor="middle">MAX_EMA</text></g><g id="node5" class="node"><title>n9</title><ellipse cx="2501.68" cy="-2540" fill="none" stroke="#000" rx="31.4" ry="18"/><text x="2501.68" y="-2536.3" font-family="Times,serif" font-size="14" text-anchor="middle">1.10</text></g><g id="node8" class="node"><title>n8</title><ellipse cx="2962.38" cy="-2540" fill="none" stroke="#000" rx="27" ry="18"/><text x="2962.38" y="-2536.3" font-family="Times,serif" font-size="14" text-anchor="middle">rhs</text></g><g id="edge3" class="edge"><title>n9-&gt;n8</title><path fill="none" stroke="#000" d="M2532.99,-2540C2532.99,-2540 2925.16,-2540 2925.16,-2540"/><polygon fill="#000" stroke="#000" points="2925.16 -2543.5 2935.16 -2540 2925.16 -2536.5 2925.16 -2543.5"/></g><g id="node6" class="node"><title>n7</title><ellipse cx="2962.38" cy="-2486" fill="none" stroke="#000" rx="27" ry="18"/><text x="2962.38" y="-2482.3" font-family="Times,serif" font-size="14" text-anchor="middle">lhs</text></g><g id="node7" class="node"><title>n10</title><ellipse cx="3393.07" cy="-2513" fill="none" stroke="#000" rx="41.69" ry="18"/><text x="3393.07" y="-2509.3" font-family="Times,serif" font-size="14" text-anchor="middle">output</text></g><g id="node43" class="node"><title>n59</title><ellipse cx="3963.81" cy="-1870" fill="none" stroke="#000" rx="48.99" ry="18"/><text x="3963.81" y="-1866.3" font-family="Times,serif" font-size="14" text-anchor="middle">setpoint</text></g><g id="edge32" class="edge"><title>n10-&gt;n59</title><path fill="none" stroke="#000" d="M3435.06,-2513C3566.94,-2513 3964.14,-2513 3964.14,-2513 3964.14,-2513 3964.14,-1898.21 3964.14,-1898.21"/><polygon fill="#000" stroke="#000" points="3967.64 -1898.21 3964.14 -1888.21 3960.64 -1898.21 3967.64 -1898.21"/><text x="3656.66" y="-2203.8" font-family="Times,serif" font-size="14" text-anchor="middle">LATENCY_SETPOINT</text></g><g id="node9" class="node"><title>n12</title><ellipse cx="2173.34" cy="-847" fill="none" stroke="#000" rx="27" ry="18"/><text x="2173.34" y="-843.3" font-family="Times,serif" font-size="14" text-anchor="middle">lhs</text></g><g id="node10" class="node"><title>n14</title><ellipse cx="2501.68" cy="-847" fill="none" stroke="#000" rx="41.69" ry="18"/><text x="2501.68" y="-843.3" font-family="Times,serif" font-size="14" text-anchor="middle">output</text></g><g id="node12" class="node"><title>n16</title><ellipse cx="2173.34" cy="-626" fill="none" stroke="#000" rx="27" ry="18"/><text x="2173.34" y="-622.3" font-family="Times,serif" font-size="14" text-anchor="middle">lhs</text></g><g id="edge52" class="edge"><title>n14-&gt;n16</title><path fill="none" stroke="#000" d="M2523.14,-831.46C2523.14,-781.16 2523.14,-626 2523.14,-626 2523.14,-626 2210.5,-626 2210.5,-626"/><polygon fill="#000" stroke="#000" points="2210.5 -622.5 2200.5 -626 2210.5 -629.5 2210.5 -622.5"/><text x="2319.14" y="-701.8" font-family="Times,serif" font-size="14" text-anchor="middle">DELTA_CONCURRENCY</text></g><g id="node11" class="node"><title>n13</title><ellipse cx="2173.34" cy="-793" fill="none" stroke="#000" rx="27" ry="18"/><text x="2173.34" y="-789.3" font-family="Times,serif" font-size="14" text-anchor="middle">rhs</text></g><g id="node13" class="node"><title>n18</title><ellipse cx="2501.68" cy="-572" fill="none" stroke="#000" rx="41.69" ry="18"/><text x="2501.68" y="-568.3" font-family="Times,serif" font-size="14" text-anchor="middle">output</text></g><g id="node30" class="node"><title>n66</title><ellipse cx="1644.66" cy="-751" fill="none" stroke="#000" rx="88.28" ry="18"/><text x="1644.66" y="-747.3" font-family="Times,serif" font-size="14" text-anchor="middle">load_shed_factor</text></g><g id="edge44" class="edge"><title>n18-&gt;n66</title><path fill="none" stroke="#000" d="M2481.14,-587.89C2481.14,-631.69 2481.14,-751 2481.14,-751 2481.14,-751 1743.38,-751 1743.38,-751"/><polygon fill="#000" stroke="#000" points="1743.38 -747.5 1733.38 -751 1743.38 -754.5 1743.38 -747.5"/><text x="2173.34" y="-524.8" font-family="Times,serif" font-size="14" text-anchor="middle">LSF</text></g><g id="node14" class="node"><title>n17</title><ellipse cx="2173.34" cy="-572" fill="none" stroke="#000" rx="27" ry="18"/><text x="2173.34" y="-568.3" font-family="Times,serif" font-size="14" text-anchor="middle">rhs</text></g><g id="node15" class="node"><title>n22</title><ellipse cx="1644.66" cy="-2319" fill="none" stroke="#000" rx="31.4" ry="18"/><text x="1644.66" y="-2315.3" font-family="Times,serif" font-size="14" text-anchor="middle">2.00</text></g><g id="node16" class="node"><title>n21</title><ellipse cx="2173.34" cy="-2319" fill="none" stroke="#000" rx="27" ry="18"/><text x="2173.34" y="-2315.3" font-family="Times,serif" font-size="14" text-anchor="middle">lhs</text></g><g id="edge7" class="edge"><title>n22-&gt;n21</title><path fill="none" stroke="#000" d="M1676.14,-2319C1676.14,-2319 2136.21,-2319 2136.21,-2319"/><polygon fill="#000" stroke="#000" points="2136.21 -2322.5 2146.21 -2319 2136.21 -2315.5 2136.21 -2322.5"/></g><g id="node17" class="node"><title>n23</title><ellipse cx="2501.68" cy="-2292" fill="none" stroke="#000" rx="41.69" ry="18"/><text x="2501.68" y="-2288.3" font-family="Times,serif" font-size="14" text-anchor="middle">output</text></g><g id="node46" class="node"><title>n42</title><ellipse cx="2962.38" cy="-2098" fill="none" stroke="#000" rx="40.09" ry="18"/><text x="2962.38" y="-2094.3" font-family="Times,serif" font-size="14" text-anchor="middle">inputs</text></g><g id="edge53" class="edge"><title>n23-&gt;n42</title><path fill="none" stroke="#000" d="M2543.45,-2292C2651.01,-2292 2929.14,-2292 2929.14,-2292 2929.14,-2292 2929.14,-2118.43 2929.14,-2118.43"/><polygon fill="#000" stroke="#000" points="2932.64 -2118.43 2929.14 -2108.43 2925.64 -2118.43 2932.64 -2118.43"/><text x="2748.78" y="-2196.8" font-family="Times,serif" font-size="14" text-anchor="middle">UPPER_CONCURRENCY_LIMIT</text></g><g id="node18" class="node"><title>n20</title><ellipse cx="2173.34" cy="-2265" fill="none" stroke="#000" rx="27" ry="18"/><text x="2173.34" y="-2261.3" font-family="Times,serif" font-size="14" text-anchor="middle">rhs</text></g><g id="node19" class="node"><title>n26</title><ellipse cx="1051.67" cy="-1524" fill="none" stroke="#000" rx="31.4" ry="18"/><text x="1051.67" y="-1520.3" font-family="Times,serif" font-size="14" text-anchor="middle">1.10</text></g><g id="node22" class="node"><title>n25</title><ellipse cx="1307.27" cy="-1524" fill="none" stroke="#000" rx="27" ry="18"/><text x="1307.27" y="-1520.3" font-family="Times,serif" font-size="14" text-anchor="middle">rhs</text></g><g id="edge9" class="edge"><title>n26-&gt;n25</title><path fill="none" stroke="#000" d="M1083.01,-1524C1083.01,-1524 1269.96,-1524 1269.96,-1524"/><polygon fill="#000" stroke="#000" points="1269.96 -1527.5 1279.96 -1524 1269.96 -1520.5 1269.96 -1527.5"/></g><g id="node20" class="node"><title>n27</title><ellipse cx="1307.27" cy="-1578" fill="none" stroke="#000" rx="27" ry="18"/><text x="1307.27" y="-1574.3" font-family="Times,serif" font-size="14" text-anchor="middle">lhs</text></g><g id="node21" class="node"><title>n28</title><ellipse cx="1644.66" cy="-1551" fill="none" stroke="#000" rx="41.69" ry="18"/><text x="1644.66" y="-1547.3" font-family="Times,serif" font-size="14" text-anchor="middle">output</text></g><g id="node35" class="node"><title>n69</title><ellipse cx="2173.34" cy="-1490" fill="none" stroke="#000" rx="27" ry="18"/><text x="2173.34" y="-1486.3" font-family="Times,serif" font-size="14" text-anchor="middle">rhs</text></g><g id="edge46" class="edge"><title>n28-&gt;n69</title><path fill="none" stroke="#000" d="M1645.14,-1532.73C1645.14,-1514.44 1645.14,-1489 1645.14,-1489 1645.14,-1489 2136.06,-1489 2136.06,-1489"/><polygon fill="#000" stroke="#000" points="2136.06 -1492.5 2146.06 -1489 2136.06 -1485.5 2136.06 -1492.5"/><text x="1971.04" y="-1523.8" font-family="Times,serif" font-size="14" text-anchor="middle">LATENCY_OVERLOAD</text></g><g id="node23" class="node"><title>n31</title><ellipse cx="2501.68" cy="-76" fill="none" stroke="#000" rx="31.4" ry="18"/><text x="2501.68" y="-72.3" font-family="Times,serif" font-size="14" text-anchor="middle">5.00</text></g><g id="node24" class="node"><title>n30</title><ellipse cx="2962.38" cy="-76" fill="none" stroke="#000" rx="27" ry="18"/><text x="2962.38" y="-72.3" font-family="Times,serif" font-size="14" text-anchor="middle">lhs</text></g><g id="edge11" class="edge"><title>n31-&gt;n30</title><path fill="none" stroke="#000" d="M2532.99,-76C2532.99,-76 2925.16,-76 2925.16,-76"/><polygon fill="#000" stroke="#000" points="2925.16 -79.5 2935.16 -76 2925.16 -72.5 2925.16 -79.5"/></g><g id="node25" class="node"><title>n33</title><ellipse cx="3393.07" cy="-130" fill="none" stroke="#000" rx="41.69" ry="18"/><text x="3393.07" y="-126.3" font-family="Times,serif" font-size="14" text-anchor="middle">output</text></g><g id="node27" class="node"><title>n35</title><ellipse cx="3963.81" cy="-351" fill="none" stroke="#000" rx="27" ry="18"/><text x="3963.81" y="-347.3" font-family="Times,serif" font-size="14" text-anchor="middle">lhs</text></g><g id="edge40" class="edge"><title>n33-&gt;n35</title><path fill="none" stroke="#000" d="M3435.06,-130C3566.94,-130 3964.14,-130 3964.14,-130 3964.14,-130 3964.14,-322.91 3964.14,-322.91"/><polygon fill="#000" stroke="#000" points="3960.64 -322.91 3964.14 -332.91 3967.64 -322.91 3960.64 -322.91"/><text x="3656.66" y="-244.8" font-family="Times,serif" font-size="14" text-anchor="middle">CONCURRENCY_INCREMENT_SINGLE_TICK</text></g><g id="node26" class="node"><title>n32</title><ellipse cx="2962.38" cy="-130" fill="none" stroke="#000" rx="27" ry="18"/><text x="2962.38" y="-126.3" font-family="Times,serif" font-size="14" text-anchor="middle">rhs</text></g><g id="node28" class="node"><title>n37</title><ellipse cx="4127.55" cy="-405" fill="none" stroke="#000" rx="41.69" ry="18"/><text x="4127.55" y="-401.3" font-family="Times,serif" font-size="14" text-anchor="middle">output</text></g><g id="node48" class="node"><title>n39</title><ellipse cx="2173.34" cy="-1211" fill="none" stroke="#000" rx="40.09" ry="18"/><text x="2173.34" y="-1207.3" font-family="Times,serif" font-size="14" text-anchor="middle">inputs</text></g><g id="edge41" class="edge"><title>n37-&gt;n39</title><path fill="none" stroke="#000" d="M4142.14,-422.14C4142.14,-530.19 4142.14,-1112.5 4142.14,-1112.5 4142.14,-1112.5 2174.14,-1112.5 2174.14,-1112.5 2174.14,-1112.5 2174.14,-1182.93 2174.14,-1182.93"/><polygon fill="#000" stroke="#000" points="2170.64 -1182.93 2174.14 -1192.93 2177.64 -1182.93 2170.64 -1182.93"/><text x="3180.97" y="-966.8" font-family="Times,serif" font-size="14" text-anchor="middle">CONCURRENCY_INCREMENT_INTEGRAL</text></g><g id="node29" class="node"><title>n36</title><ellipse cx="3963.81" cy="-405" fill="none" stroke="#000" rx="27" ry="18"/><text x="3963.81" y="-401.3" font-family="Times,serif" font-size="14" text-anchor="middle">rhs</text></g><g id="node31" class="node"><title>n64</title><ellipse cx="1644.66" cy="-1014" fill="none" stroke="#000" rx="113.98" ry="18"/><text x="1644.66" y="-1010.3" font-family="Times,serif" font-size="14" text-anchor="middle">accepted_concurrency</text></g><g id="edge25" class="edge"><title>n64-&gt;n20</title><path fill="none" stroke="#000" d="M1705.14,-1029.37C1705.14,-1172.35 1705.14,-2265 1705.14,-2265 1705.14,-2265 2136.15,-2265 2136.15,-2265"/><polygon fill="#000" stroke="#000" points="2136.15 -2268.5 2146.15 -2265 2136.15 -2261.5 2136.15 -2268.5"/><text x="1971.04" y="-1731.8" font-family="Times,serif" font-size="14" text-anchor="middle">ACCEPTED_CONCURRENCY</text></g><g id="node39" class="node"><title>n57</title><ellipse cx="3963.81" cy="-1708" fill="none" stroke="#000" rx="85.29" ry="18"/><text x="3963.81" y="-1704.3" font-family="Times,serif" font-size="14" text-anchor="middle">control_variable</text></g><g id="edge28" class="edge"><title>n64-&gt;n57</title><path fill="none" stroke="#000" d="M1723.14,-1027.24C1723.14,-1123.19 1723.14,-1708 1723.14,-1708 1723.14,-1708 3868.37,-1708 3868.37,-1708"/><polygon fill="#000" stroke="#000" points="3868.37 -1711.5 3878.37 -1708 3868.37 -1704.5 3868.37 -1711.5"/><text x="2748.78" y="-1693.8" font-family="Times,serif" font-size="14" text-anchor="middle">ACCEPTED_CONCURRENCY</text></g><g id="edge26" class="edge"><title>n64-&gt;n39</title><path fill="none" stroke="#000" d="M1741.14,-1023.77C1741.14,-1063.52 1741.14,-1211 1741.14,-1211 1741.14,-1211 2122.68,-1211 2122.68,-1211"/><polygon fill="#000" stroke="#000" points="2122.68 -1214.5 2132.68 -1211 2122.68 -1207.5 2122.68 -1214.5"/><text x="1971.04" y="-1135.8" font-family="Times,serif" font-size="14" text-anchor="middle">ACCEPTED_CONCURRENCY</text></g><g id="node51" class="node"><title>n46</title><ellipse cx="2173.34" cy="-1014" fill="none" stroke="#000" rx="35.19" ry="18"/><text x="2173.34" y="-1010.3" font-family="Times,serif" font-size="14" text-anchor="middle">input</text></g><g id="edge27" class="edge"><title>n64-&gt;n46</title><path fill="none" stroke="#000" d="M1758.4,-1014C1758.4,-1014 2128.18,-1014 2128.18,-1014"/><polygon fill="#000" stroke="#000" points="2128.18 -1017.5 2138.18 -1014 2128.18 -1010.5 2128.18 -1017.5"/><text x="1971.04" y="-1017.8" font-family="Times,serif" font-size="14" text-anchor="middle">ACCEPTED_CONCURRENCY</text></g><g id="node32" class="node"><title>n63</title><ellipse cx="1644.66" cy="-960" fill="none" stroke="#000" rx="114.28" ry="18"/><text x="1644.66" y="-956.3" font-family="Times,serif" font-size="14" text-anchor="middle">incoming_concurrency</text></g><g id="edge29" class="edge"><title>n63-&gt;n12</title><path fill="none" stroke="#000" d="M1751.14,-953.27C1751.14,-928.94 1751.14,-847 1751.14,-847 1751.14,-847 2136.29,-847 2136.29,-847"/><polygon fill="#000" stroke="#000" points="2136.29 -850.5 2146.29 -847 2136.29 -843.5 2136.29 -850.5"/><text x="1971.04" y="-906.8" font-family="Times,serif" font-size="14" text-anchor="middle">INCOMING_CONCURRENCY</text></g><g id="edge30" class="edge"><title>n63-&gt;n17</title><path fill="none" stroke="#000" d="M1742.14,-950.41C1742.14,-890.66 1742.14,-572 1742.14,-572 1742.14,-572 2136.04,-572 2136.04,-572"/><polygon fill="#000" stroke="#000" points="2136.04 -575.5 2146.04 -572 2136.04 -568.5 2136.04 -575.5"/><text x="1971.04" y="-693.8" font-family="Times,serif" font-size="14" text-anchor="middle">INCOMING_CONCURRENCY</text></g><g id="node33" class="node"><title>n68</title><ellipse cx="2173.34" cy="-1544" fill="none" stroke="#000" rx="27" ry="18"/><text x="2173.34" y="-1540.3" font-family="Times,serif" font-size="14" text-anchor="middle">lhs</text></g><g id="node34" class="node"><title>n70</title><ellipse cx="2501.68" cy="-1490" fill="none" stroke="#000" rx="41.69" ry="18"/><text x="2501.68" y="-1486.3" font-family="Times,serif" font-size="14" text-anchor="middle">output</text></g><g id="node57" class="node"><title>n72</title><ellipse cx="2962.38" cy="-1877" fill="none" stroke="#000" rx="40.89" ry="18"/><text x="2962.38" y="-1873.3" font-family="Times,serif" font-size="14" text-anchor="middle">switch</text></g><g id="edge49" class="edge"><title>n70-&gt;n72</title><path fill="none" stroke="#000" d="M2502.14,-1508.08C2502.14,-1584.29 2502.14,-1875.5 2502.14,-1875.5 2502.14,-1875.5 2911.53,-1875.5 2911.53,-1875.5"/><polygon fill="#000" stroke="#000" points="2911.53 -1879 2921.53 -1875.5 2911.53 -1872 2911.53 -1879"/><text x="2748.78" y="-1538.8" font-family="Times,serif" font-size="14" text-anchor="middle">IS_OVERLOAD_SWITCH</text></g><g id="node62" class="node"><title>n81</title><ellipse cx="2962.38" cy="-405" fill="none" stroke="#000" rx="40.89" ry="18"/><text x="2962.38" y="-401.3" font-family="Times,serif" font-size="14" text-anchor="middle">switch</text></g><g id="edge50" class="edge"><title>n70-&gt;n81</title><path fill="none" stroke="#000" d="M2543.45,-1490C2657.04,-1490 2963.14,-1490 2963.14,-1490 2963.14,-1490 2963.14,-433.38 2963.14,-433.38"/><polygon fill="#000" stroke="#000" points="2966.64 -433.38 2963.14 -423.38 2959.64 -433.38 2966.64 -433.38"/><text x="2748.78" y="-1448.8" font-family="Times,serif" font-size="14" text-anchor="middle">IS_OVERLOAD_SWITCH</text></g><g id="node36" class="node"><title>n51</title><ellipse cx="798.43" cy="-1910" fill="none" stroke="#000" rx="35.19" ry="18"/><text x="798.43" y="-1906.3" font-family="Times,serif" font-size="14" text-anchor="middle">input</text></g><g id="node38" class="node"><title>n53</title><ellipse cx="1051.67" cy="-1964" fill="none" stroke="#000" rx="41.69" ry="18"/><text x="1051.67" y="-1960.3" font-family="Times,serif" font-size="14" text-anchor="middle">output</text></g><g id="edge47" class="edge"><title>n53-&gt;n7</title><path fill="none" stroke="#000" d="M1052.14,-1982.27C1052.14,-2074.66 1052.14,-2486 1052.14,-2486 1052.14,-2486 2925.37,-2486 2925.37,-2486"/><polygon fill="#000" stroke="#000" points="2925.37 -2489.5 2935.37 -2486 2925.37 -2482.5 2925.37 -2489.5"/><text x="1971.04" y="-2485.8" font-family="Times,serif" font-size="14" text-anchor="middle">LATENCY_EMA</text></g><g id="edge48" class="edge"><title>n53-&gt;n27</title><path fill="none" stroke="#000" d="M1088.14,-1955.21C1088.14,-1897.76 1088.14,-1578 1088.14,-1578 1088.14,-1578 1269.96,-1578 1269.96,-1578"/><polygon fill="#000" stroke="#000" points="1269.96 -1581.5 1279.96 -1578 1269.96 -1574.5 1269.96 -1581.5"/><text x="1206.77" y="-1881.8" font-family="Times,serif" font-size="14" text-anchor="middle">LATENCY_EMA</text></g><g id="node40" class="node"><title>n56</title><ellipse cx="3963.81" cy="-1816" fill="none" stroke="#000" rx="30.59" ry="18"/><text x="3963.81" y="-1812.3" font-family="Times,serif" font-size="14" text-anchor="middle">max</text></g><g id="node41" class="node"><title>n55</title><ellipse cx="3963.81" cy="-1762" fill="none" stroke="#000" rx="50.89" ry="18"/><text x="3963.81" y="-1758.3" font-family="Times,serif" font-size="14" text-anchor="middle">optimize</text></g><g id="node42" class="node"><title>n60</title><ellipse cx="4127.55" cy="-1762" fill="none" stroke="#000" rx="41.69" ry="18"/><text x="4127.55" y="-1758.3" font-family="Times,serif" font-size="14" text-anchor="middle">output</text></g><g id="edge42" class="edge"><title>n60-&gt;n13</title><path fill="none" stroke="#000" d="M4114.14,-1744.66C4114.14,-1613.85 4114.14,-787 4114.14,-787 4114.14,-787 2208.95,-787 2208.95,-787"/><polygon fill="#000" stroke="#000" points="2208.95 -783.5 2198.95 -787 2208.95 -790.5 2208.95 -783.5"/><text x="3180.97" y="-1004.8" font-family="Times,serif" font-size="14" text-anchor="middle">DESIRED_CONCURRENCY</text></g><g id="node44" class="node"><title>n58</title><ellipse cx="3963.81" cy="-1654" fill="none" stroke="#000" rx="38.19" ry="18"/><text x="3963.81" y="-1650.3" font-family="Times,serif" font-size="14" text-anchor="middle">signal</text></g><g id="node45" class="node"><title>n43</title><ellipse cx="2501.68" cy="-2098" fill="none" stroke="#000" rx="37.09" ry="18"/><text x="2501.68" y="-2094.3" font-family="Times,serif" font-size="14" text-anchor="middle">10.00</text></g><g id="edge17" class="edge"><title>n43-&gt;n42</title><path fill="none" stroke="#000" d="M2538.99,-2098C2538.99,-2098 2911.77,-2098 2911.77,-2098"/><polygon fill="#000" stroke="#000" points="2911.77 -2101.5 2921.77 -2098 2911.77 -2094.5 2911.77 -2101.5"/></g><g id="node47" class="node"><title>n44</title><ellipse cx="3393.07" cy="-2098" fill="none" stroke="#000" rx="41.69" ry="18"/><text x="3393.07" y="-2094.3" font-family="Times,serif" font-size="14" text-anchor="middle">output</text></g><g id="edge35" class="edge"><title>n44-&gt;n56</title><path fill="none" stroke="#000" d="M3434.91,-2098C3509.37,-2098 3657.14,-2098 3657.14,-2098 3657.14,-2098 3657.14,-1824.33 3657.14,-1824.33 3657.14,-1824.33 3926.59,-1824.33 3926.59,-1824.33"/><polygon fill="#000" stroke="#000" points="3926.59 -1827.83 3936.59 -1824.33 3926.59 -1820.83 3926.59 -1827.83"/><text x="3656.66" y="-1854.8" font-family="Times,serif" font-size="14" text-anchor="middle">MAX_CONCURRENCY</text></g><g id="node49" class="node"><title>n40</title><ellipse cx="2501.68" cy="-1211" fill="none" stroke="#000" rx="41.69" ry="18"/><text x="2501.68" y="-1207.3" font-family="Times,serif" font-size="14" text-anchor="middle">output</text></g><g id="node54" class="node"><title>n75</title><ellipse cx="2962.38" cy="-1823" fill="none" stroke="#000" rx="48.19" ry="18"/><text x="2962.38" y="-1819.3" font-family="Times,serif" font-size="14" text-anchor="middle">on_false</text></g><g id="edge33" class="edge"><title>n40-&gt;n75</title><path fill="none" stroke="#000" d="M2540.96,-1217C2644.88,-1217 2919.14,-1217 2919.14,-1217 2919.14,-1217 2919.14,-1804.89 2919.14,-1804.89"/><polygon fill="#000" stroke="#000" points="2915.64 -1804.89 2919.14 -1814.89 2922.64 -1804.89 2915.64 -1804.89"/><text x="2748.78" y="-1495.8" font-family="Times,serif" font-size="14" text-anchor="middle">CONCURRENCY_INCREMENT_NORMAL</text></g><g id="node59" class="node"><title>n80</title><ellipse cx="2962.38" cy="-351" fill="none" stroke="#000" rx="48.19" ry="18"/><text x="2962.38" y="-347.3" font-family="Times,serif" font-size="14" text-anchor="middle">on_false</text></g><g id="edge34" class="edge"><title>n40-&gt;n80</title><path fill="none" stroke="#000" d="M2541.14,-1205C2644.85,-1205 2917.14,-1205 2917.14,-1205 2917.14,-1205 2917.14,-367.38 2917.14,-367.38"/><polygon fill="#000" stroke="#000" points="2920.64 -367.38 2917.14 -357.38 2913.64 -367.38 2920.64 -367.38"/><text x="2748.78" y="-904.8" font-family="Times,serif" font-size="14" text-anchor="middle">CONCURRENCY_INCREMENT_NORMAL</text></g><g id="node50" class="node"><title>n49</title><ellipse cx="99.6" cy="-1760" fill="none" stroke="#000" rx="41.69" ry="18"/><text x="99.6" y="-1756.3" font-family="Times,serif" font-size="14" text-anchor="middle">output</text></g><g id="edge36" class="edge"><title>n49-&gt;n2</title><path fill="none" stroke="#000" d="M135.14,-1769.57C135.14,-1805.32 135.14,-1929 135.14,-1929 135.14,-1929 277,-1929 277,-1929"/><polygon fill="#000" stroke="#000" points="277 -1932.5 287 -1929 277 -1925.5 277 -1932.5"/><text x="234.19" y="-1882.8" font-family="Times,serif" font-size="14" text-anchor="middle">LATENCY</text></g><g id="edge39" class="edge"><title>n49-&gt;n68</title><path fill="none" stroke="#000" d="M141.5,-1761C435.28,-1761 2174.14,-1761 2174.14,-1761 2174.14,-1761 2174.14,-1572.13 2174.14,-1572.13"/><polygon fill="#000" stroke="#000" points="2177.64 -1572.13 2174.14 -1562.13 2170.64 -1572.13 2177.64 -1572.13"/><text x="927.47" y="-1761.8" font-family="Times,serif" font-size="14" text-anchor="middle">LATENCY</text></g><g id="edge37" class="edge"><title>n49-&gt;n51</title><path fill="none" stroke="#000" d="M138.14,-1766.82C138.14,-1795.09 138.14,-1901.5 138.14,-1901.5 138.14,-1901.5 757.47,-1901.5 757.47,-1901.5"/><polygon fill="#000" stroke="#000" points="757.47 -1905 767.47 -1901.5 757.47 -1898 757.47 -1905"/><text x="394.19" y="-1799.8" font-family="Times,serif" font-size="14" text-anchor="middle">LATENCY</text></g><g id="edge38" class="edge"><title>n49-&gt;n58</title><path fill="none" stroke="#000" d="M100.14,-1741.54C100.14,-1711.17 100.14,-1654 100.14,-1654 100.14,-1654 3915.25,-1654 3915.25,-1654"/><polygon fill="#000" stroke="#000" points="3915.25 -1657.5 3925.25 -1654 3915.25 -1650.5 3915.25 -1657.5"/><text x="1387.27" y="-1365.8" font-family="Times,serif" font-size="14" text-anchor="middle">LATENCY</text></g><g id="node52" class="node"><title>n47</title><ellipse cx="2501.68" cy="-1014" fill="none" stroke="#000" rx="41.69" ry="18"/><text x="2501.68" y="-1010.3" font-family="Times,serif" font-size="14" text-anchor="middle">output</text></g><g id="edge45" class="edge"><title>n47-&gt;n32</title><path fill="none" stroke="#000" d="M2543.4,-1014C2609.07,-1014 2729.14,-1014 2729.14,-1014 2729.14,-1014 2729.14,-130 2729.14,-130 2729.14,-130 2925.17,-130 2925.17,-130"/><polygon fill="#000" stroke="#000" points="2925.17 -133.5 2935.17 -130 2925.17 -126.5 2925.17 -133.5"/><text x="2748.78" y="-794.8" font-family="Times,serif" font-size="14" text-anchor="middle">SQRT_CONCURRENCY_INCREMENT</text></g><g id="node53" class="node"><title>n74</title><ellipse cx="2501.68" cy="-1931" fill="none" stroke="#000" rx="37.09" ry="18"/><text x="2501.68" y="-1927.3" font-family="Times,serif" font-size="14" text-anchor="middle">10.00</text></g><g id="node55" class="node"><title>n73</title><ellipse cx="2962.38" cy="-1931" fill="none" stroke="#000" rx="46.29" ry="18"/><text x="2962.38" y="-1927.3" font-family="Times,serif" font-size="14" text-anchor="middle">on_true</text></g><g id="edge21" class="edge"><title>n74-&gt;n73</title><path fill="none" stroke="#000" d="M2538.99,-1931C2538.99,-1931 2905.95,-1931 2905.95,-1931"/><polygon fill="#000" stroke="#000" points="2905.95 -1934.5 2915.95 -1931 2905.95 -1927.5 2905.95 -1934.5"/></g><g id="node56" class="node"><title>n76</title><ellipse cx="3393.07" cy="-1823" fill="none" stroke="#000" rx="41.69" ry="18"/><text x="3393.07" y="-1819.3" font-family="Times,serif" font-size="14" text-anchor="middle">output</text></g><g id="edge51" class="edge"><title>n76-&gt;n55</title><path fill="none" stroke="#000" d="M3430.06,-1814.67C3550.72,-1814.67 3925.14,-1814.67 3925.14,-1814.67 3925.14,-1814.67 3925.14,-1783.69 3925.14,-1783.69"/><polygon fill="#000" stroke="#000" points="3928.64 -1783.69 3925.14 -1773.69 3921.64 -1783.69 3928.64 -1783.69"/><text x="3656.66" y="-1808.8" font-family="Times,serif" font-size="14" text-anchor="middle">CONCURRENCY_INCREMENT</text></g><g id="node58" class="node"><title>n79</title><ellipse cx="2501.68" cy="-297" fill="none" stroke="#000" rx="31.4" ry="18"/><text x="2501.68" y="-293.3" font-family="Times,serif" font-size="14" text-anchor="middle">0.00</text></g><g id="node60" class="node"><title>n78</title><ellipse cx="2962.38" cy="-297" fill="none" stroke="#000" rx="46.29" ry="18"/><text x="2962.38" y="-293.3" font-family="Times,serif" font-size="14" text-anchor="middle">on_true</text></g><g id="edge23" class="edge"><title>n79-&gt;n78</title><path fill="none" stroke="#000" d="M2532.99,-297C2532.99,-297 2906.11,-297 2906.11,-297"/><polygon fill="#000" stroke="#000" points="2906.11 -300.5 2916.11 -297 2906.11 -293.5 2906.11 -300.5"/></g><g id="node61" class="node"><title>n82</title><ellipse cx="3393.07" cy="-405" fill="none" stroke="#000" rx="41.69" ry="18"/><text x="3393.07" y="-401.3" font-family="Times,serif" font-size="14" text-anchor="middle">output</text></g><g id="edge43" class="edge"><title>n82-&gt;n36</title><path fill="none" stroke="#000" d="M3435.04,-405C3435.04,-405 3926.62,-405 3926.62,-405"/><polygon fill="#000" stroke="#000" points="3926.62 -408.5 3936.62 -405 3926.62 -401.5 3926.62 -408.5"/><text x="3656.66" y="-408.8" font-family="Times,serif" font-size="14" text-anchor="middle">CONCURRENCY_INCREMENT_FEEDBACK</text></g></g></svg>