<?xml version="1.0" encoding="UTF-8" standalone="no"?>
<!DOCTYPE svg PUBLIC "-//W3C//DTD SVG 1.1//EN"
 "http://www.w3.org/Graphics/SVG/1.1/DTD/svg11.dtd">
<!-- Generated by graphviz version 6.0.1 (20220911.1526)
 -->
<!-- Pages: 1 -->
<svg width="4563pt" height="2398pt"
 viewBox="0.00 0.00 4563.09 2398.00" xmlns="http://www.w3.org/2000/svg" xmlns:xlink="http://www.w3.org/1999/xlink">
<g id="graph0" class="graph" transform="scale(1 1) rotate(0) translate(4 2394)">
<polygon fill="white" stroke="none" points="-4,4 -4,-2394 4559.09,-2394 4559.09,4 -4,4"/>
<g id="clust1" class="cluster">
<title>cluster_s27</title>
<polygon fill="none" stroke="black" points="2363.74,-2002 2363.74,-2215 2865.23,-2215 2865.23,-2002 2363.74,-2002"/>
<text text-anchor="middle" x="2614.49" y="-2199.8" font-family="Times,serif" font-size="14.00">ArithmeticCombinator[10]</text>
</g>
<g id="clust4" class="cluster">
<title>cluster_s31</title>
<polygon fill="none" stroke="black" points="2363.74,-292 2363.74,-505 2865.23,-505 2865.23,-292 2363.74,-292"/>
<text text-anchor="middle" x="2614.49" y="-489.8" font-family="Times,serif" font-size="14.00">ArithmeticCombinator[11]</text>
</g>
<g id="clust7" class="cluster">
<title>cluster_s35</title>
<polygon fill="none" stroke="black" points="1435.66,-565 1435.66,-778 1941.65,-778 1941.65,-565 1435.66,-565"/>
<text text-anchor="middle" x="1688.66" y="-762.8" font-family="Times,serif" font-size="14.00">ArithmeticCombinator[12]</text>
</g>
<g id="clust10" class="cluster">
<title>cluster_s39</title>
<polygon fill="none" stroke="black" points="3213.33,-1422 3213.33,-1635 3812.61,-1635 3812.61,-1422 3213.33,-1422"/>
<text text-anchor="middle" x="3512.97" y="-1619.8" font-family="Times,serif" font-size="14.00">ArithmeticCombinator[13]</text>
</g>
<g id="clust13" class="cluster">
<title>cluster_s43</title>
<polygon fill="none" stroke="black" points="4214.76,-1422 4214.76,-1635 4547.09,-1635 4547.09,-1422 4214.76,-1422"/>
<text text-anchor="middle" x="4380.92" y="-1619.8" font-family="Times,serif" font-size="14.00">ArithmeticCombinator[14]</text>
</g>
<g id="clust16" class="cluster">
<title>cluster_s15</title>
<polygon fill="none" stroke="black" points="392.19,-198 392.19,-411 735.39,-411 735.39,-198 392.19,-198"/>
<text text-anchor="middle" x="563.79" y="-395.8" font-family="Times,serif" font-size="14.00">ArithmeticCombinator[7]</text>
</g>
<g id="clust19" class="cluster">
<title>cluster_s19</title>
<polygon fill="none" stroke="black" points="1435.66,-65 1435.66,-278 1941.65,-278 1941.65,-65 1435.66,-65"/>
<text text-anchor="middle" x="1688.66" y="-262.8" font-family="Times,serif" font-size="14.00">ArithmeticCombinator[8]</text>
</g>
<g id="clust22" class="cluster">
<title>cluster_s23</title>
<polygon fill="none" stroke="black" points="2363.74,-1738 2363.74,-1951 2865.23,-1951 2865.23,-1738 2363.74,-1738"/>
<text text-anchor="middle" x="2614.49" y="-1935.8" font-family="Times,serif" font-size="14.00">ArithmeticCombinator[9]</text>
</g>
<g id="clust25" class="cluster">
<title>cluster_s69</title>
<polygon fill="none" stroke="black" points="1635.66,-1638 1635.66,-2183 2064.44,-2183 2064.44,-1638 1635.66,-1638"/>
<text text-anchor="middle" x="1850.05" y="-2167.8" font-family="Times,serif" font-size="14.00">ConcurrencyLimiter[21]</text>
</g>
<g id="clust26" class="cluster">
<title>cluster_s73</title>
<polygon fill="none" stroke="black" points="1693.66,-1951 1693.66,-2110 2007.45,-2110 2007.45,-1951 1693.66,-1951"/>
<text text-anchor="middle" x="1850.55" y="-2094.8" font-family="Times,serif" font-size="14.00">LoadShedActuator[21.LoadShedActuator]</text>
</g>
<g id="clust28" class="cluster">
<title>cluster_s70</title>
<polygon fill="none" stroke="black" points="1685.66,-1688 1685.66,-1901 2014.44,-1901 2014.44,-1688 1685.66,-1688"/>
<text text-anchor="middle" x="1850.05" y="-1885.8" font-family="Times,serif" font-size="14.00">Scheduler[21.Scheduler]</text>
</g>
<g id="clust30" class="cluster">
<title>cluster_s1</title>
<polygon fill="none" stroke="black" points="8,-470 8,-629 191.19,-629 191.19,-470 8,-470"/>
<text text-anchor="middle" x="99.6" y="-613.8" font-family="Times,serif" font-size="14.00">Constant[0]</text>
</g>
<g id="clust32" class="cluster">
<title>cluster_s3</title>
<polygon fill="none" stroke="black" points="1758.46,-286 1758.46,-445 1941.65,-445 1941.65,-286 1758.46,-286"/>
<text text-anchor="middle" x="1850.05" y="-429.8" font-family="Times,serif" font-size="14.00">Constant[1]</text>
</g>
<g id="clust34" class="cluster">
<title>cluster_s5</title>
<polygon fill="none" stroke="black" points="2682.04,-125 2682.04,-284 2865.23,-284 2865.23,-125 2682.04,-125"/>
<text text-anchor="middle" x="2773.63" y="-268.8" font-family="Times,serif" font-size="14.00">Constant[2]</text>
</g>
<g id="clust36" class="cluster">
<title>cluster_s7</title>
<polygon fill="none" stroke="black" points="2682.04,-1459 2682.04,-1618 2865.23,-1618 2865.23,-1459 2682.04,-1459"/>
<text text-anchor="middle" x="2773.63" y="-1602.8" font-family="Times,serif" font-size="14.00">Constant[3]</text>
</g>
<g id="clust38" class="cluster">
<title>cluster_s9</title>
<polygon fill="none" stroke="black" points="2682.04,-625 2682.04,-784 2865.23,-784 2865.23,-625 2682.04,-625"/>
<text text-anchor="middle" x="2773.63" y="-768.8" font-family="Times,serif" font-size="14.00">Constant[4]</text>
</g>
<g id="clust40" class="cluster">
<title>cluster_s11</title>
<polygon fill="none" stroke="black" points="1125.47,-286 1125.47,-445 1308.66,-445 1308.66,-286 1125.47,-286"/>
<text text-anchor="middle" x="1217.07" y="-429.8" font-family="Times,serif" font-size="14.00">Constant[5]</text>
</g>
<g id="clust42" class="cluster">
<title>cluster_s13</title>
<polygon fill="none" stroke="black" points="2682.04,-1292 2682.04,-1451 2865.23,-1451 2865.23,-1292 2682.04,-1292"/>
<text text-anchor="middle" x="2773.63" y="-1435.8" font-family="Times,serif" font-size="14.00">Constant[6]</text>
</g>
<g id="clust44" class="cluster">
<title>cluster_s75</title>
<polygon fill="none" stroke="black" points="2363.74,-792 2363.74,-1005 2865.23,-1005 2865.23,-792 2363.74,-792"/>
<text text-anchor="middle" x="2614.49" y="-989.8" font-family="Times,serif" font-size="14.00">Decider[22]</text>
</g>
<g id="clust47" class="cluster">
<title>cluster_s58</title>
<polygon fill="none" stroke="black" points="827.39,-65 827.39,-278 1308.66,-278 1308.66,-65 827.39,-65"/>
<text text-anchor="middle" x="1068.02" y="-262.8" font-family="Times,serif" font-size="14.00">EMA[19]</text>
</g>
<g id="clust50" class="cluster">
<title>cluster_s62</title>
<polygon fill="none" stroke="black" points="4156.61,-311 4156.61,-686 4547.09,-686 4547.09,-311 4156.61,-311"/>
<text text-anchor="middle" x="4351.85" y="-670.8" font-family="Times,serif" font-size="14.00">Gradient[20]</text>
</g>
<g id="clust53" class="cluster">
<title>cluster_s50</title>
<polygon fill="none" stroke="black" points="3200.03,-346 3200.03,-505 3812.61,-505 3812.61,-346 3200.03,-346"/>
<text text-anchor="middle" x="3506.32" y="-489.8" font-family="Times,serif" font-size="14.00">Max[16]</text>
</g>
<g id="clust56" class="cluster">
<title>cluster_s47</title>
<polygon fill="none" stroke="black" points="2350.44,-1013 2350.44,-1172 2865.23,-1172 2865.23,-1013 2350.44,-1013"/>
<text text-anchor="middle" x="2607.84" y="-1156.8" font-family="Times,serif" font-size="14.00">Min[15]</text>
</g>
<g id="clust59" class="cluster">
<title>cluster_s56</title>
<polygon fill="none" stroke="black" points="8,-99 8,-258 191.19,-258 191.19,-99 8,-99"/>
<text text-anchor="middle" x="99.6" y="-242.8" font-family="Times,serif" font-size="14.00">PromQL[18]</text>
</g>
<g id="clust61" class="cluster">
<title>cluster_s53</title>
<polygon fill="none" stroke="black" points="2355.64,-2223 2355.64,-2382 2865.23,-2382 2865.23,-2223 2355.64,-2223"/>
<text text-anchor="middle" x="2610.44" y="-2366.8" font-family="Times,serif" font-size="14.00">Sqrt[17]</text>
</g>
<g id="clust64" class="cluster">
<title>cluster_s79</title>
<polygon fill="none" stroke="black" points="3192.23,-704 3192.23,-971 3812.61,-971 3812.61,-704 3192.23,-704"/>
<text text-anchor="middle" x="3502.42" y="-955.8" font-family="Times,serif" font-size="14.00">Switcher[23]</text>
</g>
<g id="clust67" class="cluster">
<title>cluster_s84</title>
<polygon fill="none" stroke="black" points="3192.23,-1147 3192.23,-1414 3812.61,-1414 3812.61,-1147 3192.23,-1147"/>
<text text-anchor="middle" x="3502.42" y="-1398.8" font-family="Times,serif" font-size="14.00">Switcher[24]</text>
</g>
<!-- n28 -->
<g id="node1" class="node">
<title>n28</title>
<ellipse fill="none" stroke="black" cx="2440.74" cy="-2070" rx="27" ry="18"/>
<text text-anchor="middle" x="2440.74" y="-2066.3" font-family="Times,serif" font-size="14.00">lhs</text>
</g>
<!-- n30 -->
<g id="node2" class="node">
<title>n30</title>
<ellipse fill="none" stroke="black" cx="2773.63" cy="-2086" rx="41.69" ry="18"/>
<text text-anchor="middle" x="2773.63" y="-2082.3" font-family="Times,serif" font-size="14.00">output</text>
</g>
<!-- n74 -->
<g id="node25" class="node">
<title>n74</title>
<ellipse fill="none" stroke="black" cx="1850.05" cy="-2019" rx="88.28" ry="18"/>
<text text-anchor="middle" x="1850.05" y="-2015.3" font-family="Times,serif" font-size="14.00">load_shed_factor</text>
</g>
<!-- n30&#45;&gt;n74 -->
<g id="edge25" class="edge">
<title>n30&#45;&gt;n74</title>
<path fill="none" stroke="black" d="M2760.09,-2068.75C2760.09,-2048.89 2760.09,-2019 2760.09,-2019 2760.09,-2019 1948.55,-2019 1948.55,-2019"/>
<polygon fill="black" stroke="black" points="1948.55,-2015.5 1938.55,-2019 1948.55,-2022.5 1948.55,-2015.5"/>
<text text-anchor="middle" x="2440.74" y="-2022.8" font-family="Times,serif" font-size="14.00">LSF</text>
</g>
<!-- n29 -->
<g id="node3" class="node">
<title>n29</title>
<ellipse fill="none" stroke="black" cx="2440.74" cy="-2124" rx="27" ry="18"/>
<text text-anchor="middle" x="2440.74" y="-2120.3" font-family="Times,serif" font-size="14.00">rhs</text>
</g>
<!-- n29&#45;&gt;n30 -->
<!-- n32 -->
<g id="node4" class="node">
<title>n32</title>
<ellipse fill="none" stroke="black" cx="2440.74" cy="-360" rx="27" ry="18"/>
<text text-anchor="middle" x="2440.74" y="-356.3" font-family="Times,serif" font-size="14.00">lhs</text>
</g>
<!-- n34 -->
<g id="node5" class="node">
<title>n34</title>
<ellipse fill="none" stroke="black" cx="2773.63" cy="-414" rx="41.69" ry="18"/>
<text text-anchor="middle" x="2773.63" y="-410.3" font-family="Times,serif" font-size="14.00">output</text>
</g>
<!-- n51 -->
<g id="node47" class="node">
<title>n51</title>
<ellipse fill="none" stroke="black" cx="3290.33" cy="-414" rx="40.09" ry="18"/>
<text text-anchor="middle" x="3290.33" y="-410.3" font-family="Times,serif" font-size="14.00">inputs</text>
</g>
<!-- n34&#45;&gt;n51 -->
<g id="edge33" class="edge">
<title>n34&#45;&gt;n51</title>
<path fill="none" stroke="black" d="M2815.48,-414C2815.48,-414 3239.88,-414 3239.88,-414"/>
<polygon fill="black" stroke="black" points="3239.88,-417.5 3249.88,-414 3239.88,-410.5 3239.88,-417.5"/>
<text text-anchor="middle" x="3028.73" y="-417.8" font-family="Times,serif" font-size="14.00">UPPER_CONCURRENCY_LIMIT</text>
</g>
<!-- n33 -->
<g id="node6" class="node">
<title>n33</title>
<ellipse fill="none" stroke="black" cx="2440.74" cy="-414" rx="27" ry="18"/>
<text text-anchor="middle" x="2440.74" y="-410.3" font-family="Times,serif" font-size="14.00">rhs</text>
</g>
<!-- n33&#45;&gt;n34 -->
<!-- n36 -->
<g id="node7" class="node">
<title>n36</title>
<ellipse fill="none" stroke="black" cx="1512.66" cy="-633" rx="27" ry="18"/>
<text text-anchor="middle" x="1512.66" y="-629.3" font-family="Times,serif" font-size="14.00">lhs</text>
</g>
<!-- n38 -->
<g id="node8" class="node">
<title>n38</title>
<ellipse fill="none" stroke="black" cx="1850.05" cy="-660" rx="41.69" ry="18"/>
<text text-anchor="middle" x="1850.05" y="-656.3" font-family="Times,serif" font-size="14.00">output</text>
</g>
<!-- n77 -->
<g id="node37" class="node">
<title>n77</title>
<ellipse fill="none" stroke="black" cx="2440.74" cy="-914" rx="27" ry="18"/>
<text text-anchor="middle" x="2440.74" y="-910.3" font-family="Times,serif" font-size="14.00">rhs</text>
</g>
<!-- n38&#45;&gt;n77 -->
<g id="edge34" class="edge">
<title>n38&#45;&gt;n77</title>
<path fill="none" stroke="black" d="M1850.09,-678.27C1850.09,-736.51 1850.09,-914 1850.09,-914 1850.09,-914 2403.44,-914 2403.44,-914"/>
<polygon fill="black" stroke="black" points="2403.44,-917.5 2413.44,-914 2403.44,-910.5 2403.44,-917.5"/>
<text text-anchor="middle" x="2207.44" y="-541.8" font-family="Times,serif" font-size="14.00">LATENCY_OVERLOAD</text>
</g>
<!-- n37 -->
<g id="node9" class="node">
<title>n37</title>
<ellipse fill="none" stroke="black" cx="1512.66" cy="-687" rx="27" ry="18"/>
<text text-anchor="middle" x="1512.66" y="-683.3" font-family="Times,serif" font-size="14.00">rhs</text>
</g>
<!-- n37&#45;&gt;n38 -->
<!-- n40 -->
<g id="node10" class="node">
<title>n40</title>
<ellipse fill="none" stroke="black" cx="3290.33" cy="-1490" rx="27" ry="18"/>
<text text-anchor="middle" x="3290.33" y="-1486.3" font-family="Times,serif" font-size="14.00">lhs</text>
</g>
<!-- n42 -->
<g id="node11" class="node">
<title>n42</title>
<ellipse fill="none" stroke="black" cx="3721.02" cy="-1544" rx="41.69" ry="18"/>
<text text-anchor="middle" x="3721.02" y="-1540.3" font-family="Times,serif" font-size="14.00">output</text>
</g>
<!-- n44 -->
<g id="node13" class="node">
<title>n44</title>
<ellipse fill="none" stroke="black" cx="4291.76" cy="-1544" rx="27" ry="18"/>
<text text-anchor="middle" x="4291.76" y="-1540.3" font-family="Times,serif" font-size="14.00">lhs</text>
</g>
<!-- n42&#45;&gt;n44 -->
<g id="edge26" class="edge">
<title>n42&#45;&gt;n44</title>
<path fill="none" stroke="black" d="M3762.99,-1544C3762.99,-1544 4254.57,-1544 4254.57,-1544"/>
<polygon fill="black" stroke="black" points="4254.57,-1547.5 4264.57,-1544 4254.57,-1540.5 4254.57,-1547.5"/>
<text text-anchor="middle" x="3984.61" y="-1547.8" font-family="Times,serif" font-size="14.00">CONCURRENCY_INCREMENT_SINGLE_TICK</text>
</g>
<!-- n41 -->
<g id="node12" class="node">
<title>n41</title>
<ellipse fill="none" stroke="black" cx="3290.33" cy="-1544" rx="27" ry="18"/>
<text text-anchor="middle" x="3290.33" y="-1540.3" font-family="Times,serif" font-size="14.00">rhs</text>
</g>
<!-- n41&#45;&gt;n42 -->
<!-- n46 -->
<g id="node14" class="node">
<title>n46</title>
<ellipse fill="none" stroke="black" cx="4455.49" cy="-1517" rx="41.69" ry="18"/>
<text text-anchor="middle" x="4455.49" y="-1513.3" font-family="Times,serif" font-size="14.00">output</text>
</g>
<!-- n48 -->
<g id="node49" class="node">
<title>n48</title>
<ellipse fill="none" stroke="black" cx="2440.74" cy="-1081" rx="40.09" ry="18"/>
<text text-anchor="middle" x="2440.74" y="-1077.3" font-family="Times,serif" font-size="14.00">inputs</text>
</g>
<!-- n46&#45;&gt;n48 -->
<g id="edge45" class="edge">
<title>n46&#45;&gt;n48</title>
<path fill="none" stroke="black" d="M4456.09,-1498.82C4456.09,-1472.01 4456.09,-1425 4456.09,-1425 4456.09,-1425 2472.09,-1425 2472.09,-1425 2472.09,-1425 2472.09,-1102.45 2472.09,-1102.45"/>
<polygon fill="black" stroke="black" points="2475.59,-1102.45 2472.09,-1092.45 2468.59,-1102.45 2475.59,-1102.45"/>
<text text-anchor="middle" x="3508.92" y="-1706.8" font-family="Times,serif" font-size="14.00">CONCURRENCY_INCREMENT_INTEGRAL</text>
</g>
<!-- n45 -->
<g id="node15" class="node">
<title>n45</title>
<ellipse fill="none" stroke="black" cx="4291.76" cy="-1490" rx="27" ry="18"/>
<text text-anchor="middle" x="4291.76" y="-1486.3" font-family="Times,serif" font-size="14.00">rhs</text>
</g>
<!-- n45&#45;&gt;n46 -->
<!-- n17 -->
<g id="node16" class="node">
<title>n17</title>
<ellipse fill="none" stroke="black" cx="469.19" cy="-266" rx="27" ry="18"/>
<text text-anchor="middle" x="469.19" y="-262.3" font-family="Times,serif" font-size="14.00">lhs</text>
</g>
<!-- n18 -->
<g id="node17" class="node">
<title>n18</title>
<ellipse fill="none" stroke="black" cx="643.79" cy="-266" rx="41.69" ry="18"/>
<text text-anchor="middle" x="643.79" y="-262.3" font-family="Times,serif" font-size="14.00">output</text>
</g>
<!-- n17&#45;&gt;n18 -->
<!-- n60 -->
<g id="node39" class="node">
<title>n60</title>
<ellipse fill="none" stroke="black" cx="953.43" cy="-187" rx="76.09" ry="18"/>
<text text-anchor="middle" x="953.43" y="-183.3" font-family="Times,serif" font-size="14.00">max_envelope</text>
</g>
<!-- n18&#45;&gt;n60 -->
<g id="edge53" class="edge">
<title>n18&#45;&gt;n60</title>
<path fill="none" stroke="black" d="M644.09,-247.72C644.09,-226.68 644.09,-195 644.09,-195 644.09,-195 875.16,-195 875.16,-195"/>
<polygon fill="black" stroke="black" points="875.16,-198.5 885.16,-195 875.16,-191.5 875.16,-198.5"/>
<text text-anchor="middle" x="781.39" y="-230.8" font-family="Times,serif" font-size="14.00">MAX_EMA</text>
</g>
<!-- n16 -->
<g id="node18" class="node">
<title>n16</title>
<ellipse fill="none" stroke="black" cx="469.19" cy="-320" rx="27" ry="18"/>
<text text-anchor="middle" x="469.19" y="-316.3" font-family="Times,serif" font-size="14.00">rhs</text>
</g>
<!-- n20 -->
<g id="node19" class="node">
<title>n20</title>
<ellipse fill="none" stroke="black" cx="1512.66" cy="-133" rx="27" ry="18"/>
<text text-anchor="middle" x="1512.66" y="-129.3" font-family="Times,serif" font-size="14.00">lhs</text>
</g>
<!-- n22 -->
<g id="node20" class="node">
<title>n22</title>
<ellipse fill="none" stroke="black" cx="1850.05" cy="-160" rx="41.69" ry="18"/>
<text text-anchor="middle" x="1850.05" y="-156.3" font-family="Times,serif" font-size="14.00">output</text>
</g>
<!-- n66 -->
<g id="node45" class="node">
<title>n66</title>
<ellipse fill="none" stroke="black" cx="4291.76" cy="-433" rx="48.99" ry="18"/>
<text text-anchor="middle" x="4291.76" y="-429.3" font-family="Times,serif" font-size="14.00">setpoint</text>
</g>
<!-- n22&#45;&gt;n66 -->
<g id="edge44" class="edge">
<title>n22&#45;&gt;n66</title>
<path fill="none" stroke="black" d="M1891.69,-158.5C2210.26,-158.5 4249.09,-158.5 4249.09,-158.5 4249.09,-158.5 4249.09,-414.18 4249.09,-414.18"/>
<polygon fill="black" stroke="black" points="4245.59,-414.18 4249.09,-424.18 4252.59,-414.18 4245.59,-414.18"/>
<text text-anchor="middle" x="3028.73" y="-68.8" font-family="Times,serif" font-size="14.00">LATENCY_SETPOINT</text>
</g>
<!-- n21 -->
<g id="node21" class="node">
<title>n21</title>
<ellipse fill="none" stroke="black" cx="1512.66" cy="-187" rx="27" ry="18"/>
<text text-anchor="middle" x="1512.66" y="-183.3" font-family="Times,serif" font-size="14.00">rhs</text>
</g>
<!-- n21&#45;&gt;n22 -->
<!-- n24 -->
<g id="node22" class="node">
<title>n24</title>
<ellipse fill="none" stroke="black" cx="2440.74" cy="-1860" rx="27" ry="18"/>
<text text-anchor="middle" x="2440.74" y="-1856.3" font-family="Times,serif" font-size="14.00">lhs</text>
</g>
<!-- n26 -->
<g id="node23" class="node">
<title>n26</title>
<ellipse fill="none" stroke="black" cx="2773.63" cy="-1846" rx="41.69" ry="18"/>
<text text-anchor="middle" x="2773.63" y="-1842.3" font-family="Times,serif" font-size="14.00">output</text>
</g>
<!-- n26&#45;&gt;n28 -->
<g id="edge24" class="edge">
<title>n26&#45;&gt;n28</title>
<path fill="none" stroke="black" d="M2788.09,-1863.15C2788.09,-1913.93 2788.09,-2060 2788.09,-2060 2788.09,-2060 2473.26,-2060 2473.26,-2060"/>
<polygon fill="black" stroke="black" points="2473.26,-2056.5 2463.26,-2060 2473.26,-2063.5 2473.26,-2056.5"/>
<text text-anchor="middle" x="2586.54" y="-2064.8" font-family="Times,serif" font-size="14.00">DELTA_CONCURRENCY</text>
</g>
<!-- n25 -->
<g id="node24" class="node">
<title>n25</title>
<ellipse fill="none" stroke="black" cx="2440.74" cy="-1806" rx="27" ry="18"/>
<text text-anchor="middle" x="2440.74" y="-1802.3" font-family="Times,serif" font-size="14.00">rhs</text>
</g>
<!-- n25&#45;&gt;n26 -->
<!-- n71 -->
<g id="node26" class="node">
<title>n71</title>
<ellipse fill="none" stroke="black" cx="1850.05" cy="-1756" rx="113.98" ry="18"/>
<text text-anchor="middle" x="1850.05" y="-1752.3" font-family="Times,serif" font-size="14.00">accepted_concurrency</text>
</g>
<!-- n71&#45;&gt;n33 -->
<g id="edge17" class="edge">
<title>n71&#45;&gt;n33</title>
<path fill="none" stroke="black" d="M1928.09,-1742.72C1928.09,-1603.34 1928.09,-414 1928.09,-414 1928.09,-414 2403.54,-414 2403.54,-414"/>
<polygon fill="black" stroke="black" points="2403.54,-417.5 2413.54,-414 2403.54,-410.5 2403.54,-417.5"/>
<text text-anchor="middle" x="2207.44" y="-447.8" font-family="Times,serif" font-size="14.00">ACCEPTED_CONCURRENCY</text>
</g>
<!-- n64 -->
<g id="node41" class="node">
<title>n64</title>
<ellipse fill="none" stroke="black" cx="4291.76" cy="-541" rx="85.29" ry="18"/>
<text text-anchor="middle" x="4291.76" y="-537.3" font-family="Times,serif" font-size="14.00">control_variable</text>
</g>
<!-- n71&#45;&gt;n64 -->
<g id="edge20" class="edge">
<title>n71&#45;&gt;n64</title>
<path fill="none" stroke="black" d="M1964.16,-1756C2437.78,-1756 4224.09,-1756 4224.09,-1756 4224.09,-1756 4224.09,-562.25 4224.09,-562.25"/>
<polygon fill="black" stroke="black" points="4227.59,-562.25 4224.09,-552.25 4220.59,-562.25 4227.59,-562.25"/>
<text text-anchor="middle" x="3028.73" y="-568.8" font-family="Times,serif" font-size="14.00">ACCEPTED_CONCURRENCY</text>
</g>
<!-- n71&#45;&gt;n48 -->
<g id="edge18" class="edge">
<title>n71&#45;&gt;n48</title>
<path fill="none" stroke="black" d="M1948.71,-1747C2109.2,-1747 2409.09,-1747 2409.09,-1747 2409.09,-1747 2409.09,-1102.28 2409.09,-1102.28"/>
<polygon fill="black" stroke="black" points="2412.59,-1102.28 2409.09,-1092.28 2405.59,-1102.28 2412.59,-1102.28"/>
<text text-anchor="middle" x="2207.44" y="-1421.8" font-family="Times,serif" font-size="14.00">ACCEPTED_CONCURRENCY</text>
</g>
<!-- n54 -->
<g id="node52" class="node">
<title>n54</title>
<ellipse fill="none" stroke="black" cx="2440.74" cy="-2291" rx="35.19" ry="18"/>
<text text-anchor="middle" x="2440.74" y="-2287.3" font-family="Times,serif" font-size="14.00">input</text>
</g>
<!-- n71&#45;&gt;n54 -->
<g id="edge19" class="edge">
<title>n71&#45;&gt;n54</title>
<path fill="none" stroke="black" d="M1948.74,-1765C2109.73,-1765 2411.09,-1765 2411.09,-1765 2411.09,-1765 2411.09,-2270.96 2411.09,-2270.96"/>
<polygon fill="black" stroke="black" points="2407.59,-2270.96 2411.09,-2280.96 2414.59,-2270.96 2407.59,-2270.96"/>
<text text-anchor="middle" x="2207.44" y="-1966.8" font-family="Times,serif" font-size="14.00">ACCEPTED_CONCURRENCY</text>
</g>
<!-- n72 -->
<g id="node27" class="node">
<title>n72</title>
<ellipse fill="none" stroke="black" cx="1850.05" cy="-1810" rx="114.28" ry="18"/>
<text text-anchor="middle" x="1850.05" y="-1806.3" font-family="Times,serif" font-size="14.00">incoming_concurrency</text>
</g>
<!-- n72&#45;&gt;n29 -->
<g id="edge22" class="edge">
<title>n72&#45;&gt;n29</title>
<path fill="none" stroke="black" d="M1948.09,-1819.4C1948.09,-1871.64 1948.09,-2124 1948.09,-2124 1948.09,-2124 2403.55,-2124 2403.55,-2124"/>
<polygon fill="black" stroke="black" points="2403.55,-2127.5 2413.55,-2124 2403.55,-2120.5 2403.55,-2127.5"/>
<text text-anchor="middle" x="2207.44" y="-1877.8" font-family="Times,serif" font-size="14.00">INCOMING_CONCURRENCY</text>
</g>
<!-- n72&#45;&gt;n24 -->
<g id="edge21" class="edge">
<title>n72&#45;&gt;n24</title>
<path fill="none" stroke="black" d="M1956.09,-1816.95C1956.09,-1830.69 1956.09,-1860 1956.09,-1860 1956.09,-1860 2403.65,-1860 2403.65,-1860"/>
<polygon fill="black" stroke="black" points="2403.65,-1863.5 2413.65,-1860 2403.65,-1856.5 2403.65,-1863.5"/>
<text text-anchor="middle" x="2207.44" y="-1826.8" font-family="Times,serif" font-size="14.00">INCOMING_CONCURRENCY</text>
</g>
<!-- n2 -->
<g id="node28" class="node">
<title>n2</title>
<ellipse fill="none" stroke="black" cx="99.6" cy="-538" rx="41.69" ry="18"/>
<text text-anchor="middle" x="99.6" y="-534.3" font-family="Times,serif" font-size="14.00">output</text>
</g>
<!-- n2&#45;&gt;n16 -->
<g id="edge41" class="edge">
<title>n2&#45;&gt;n16</title>
<path fill="none" stroke="black" d="M141.38,-539.5C238.27,-539.5 470.09,-539.5 470.09,-539.5 470.09,-539.5 470.09,-348.34 470.09,-348.34"/>
<polygon fill="black" stroke="black" points="473.59,-348.34 470.09,-338.34 466.59,-348.34 473.59,-348.34"/>
<text text-anchor="middle" x="291.69" y="-541.8" font-family="Times,serif" font-size="14.00">EMA_LIMIT_MULTIPLIER</text>
</g>
<!-- n4 -->
<g id="node29" class="node">
<title>n4</title>
<ellipse fill="none" stroke="black" cx="1850.05" cy="-354" rx="41.69" ry="18"/>
<text text-anchor="middle" x="1850.05" y="-350.3" font-family="Times,serif" font-size="14.00">output</text>
</g>
<!-- n4&#45;&gt;n32 -->
<g id="edge49" class="edge">
<title>n4&#45;&gt;n32</title>
<path fill="none" stroke="black" d="M1891.12,-357C1891.12,-357 2403.94,-357 2403.94,-357"/>
<polygon fill="black" stroke="black" points="2403.94,-360.5 2413.94,-357 2403.94,-353.5 2403.94,-360.5"/>
<text text-anchor="middle" x="2207.44" y="-359.8" font-family="Times,serif" font-size="14.00">CONCURRENCY_LIMIT_MULTIPLIER</text>
</g>
<!-- n6 -->
<g id="node30" class="node">
<title>n6</title>
<ellipse fill="none" stroke="black" cx="2773.63" cy="-193" rx="41.69" ry="18"/>
<text text-anchor="middle" x="2773.63" y="-189.3" font-family="Times,serif" font-size="14.00">output</text>
</g>
<!-- n6&#45;&gt;n51 -->
<g id="edge50" class="edge">
<title>n6&#45;&gt;n51</title>
<path fill="none" stroke="black" d="M2815.54,-193C2938.73,-193 3291.09,-193 3291.09,-193 3291.09,-193 3291.09,-385.91 3291.09,-385.91"/>
<polygon fill="black" stroke="black" points="3287.59,-385.91 3291.09,-395.91 3294.59,-385.91 3287.59,-385.91"/>
<text text-anchor="middle" x="3028.73" y="-288.8" font-family="Times,serif" font-size="14.00">MIN_CONCURRENCY</text>
</g>
<!-- n8 -->
<g id="node31" class="node">
<title>n8</title>
<ellipse fill="none" stroke="black" cx="2773.63" cy="-1527" rx="41.69" ry="18"/>
<text text-anchor="middle" x="2773.63" y="-1523.3" font-family="Times,serif" font-size="14.00">output</text>
</g>
<!-- n8&#45;&gt;n40 -->
<g id="edge51" class="edge">
<title>n8&#45;&gt;n40</title>
<path fill="none" stroke="black" d="M2809.2,-1517.5C2926.11,-1517.5 3291.09,-1517.5 3291.09,-1517.5 3291.09,-1517.5 3291.09,-1516.57 3291.09,-1516.57"/>
<polygon fill="black" stroke="black" points="3294.59,-1518.19 3291.09,-1508.19 3287.59,-1518.19 3294.59,-1518.19"/>
<text text-anchor="middle" x="3028.73" y="-1501.8" font-family="Times,serif" font-size="14.00">LINEAR_CONCURRENCY_INCREMENT</text>
</g>
<!-- n10 -->
<g id="node32" class="node">
<title>n10</title>
<ellipse fill="none" stroke="black" cx="2773.63" cy="-693" rx="41.69" ry="18"/>
<text text-anchor="middle" x="2773.63" y="-689.3" font-family="Times,serif" font-size="14.00">output</text>
</g>
<!-- n82 -->
<g id="node55" class="node">
<title>n82</title>
<ellipse fill="none" stroke="black" cx="3290.33" cy="-772" rx="46.29" ry="18"/>
<text text-anchor="middle" x="3290.33" y="-768.3" font-family="Times,serif" font-size="14.00">on_true</text>
</g>
<!-- n10&#45;&gt;n82 -->
<g id="edge52" class="edge">
<title>n10&#45;&gt;n82</title>
<path fill="none" stroke="black" d="M2788.09,-710.14C2788.09,-733.38 2788.09,-772 2788.09,-772 2788.09,-772 3233.98,-772 3233.98,-772"/>
<polygon fill="black" stroke="black" points="3233.98,-775.5 3243.98,-772 3233.98,-768.5 3233.98,-775.5"/>
<text text-anchor="middle" x="3028.73" y="-725.8" font-family="Times,serif" font-size="14.00">CONCURRENCY_INCREMENT_OVERLOAD</text>
</g>
<!-- n12 -->
<g id="node33" class="node">
<title>n12</title>
<ellipse fill="none" stroke="black" cx="1217.07" cy="-354" rx="41.69" ry="18"/>
<text text-anchor="middle" x="1217.07" y="-350.3" font-family="Times,serif" font-size="14.00">output</text>
</g>
<!-- n12&#45;&gt;n37 -->
<g id="edge43" class="edge">
<title>n12&#45;&gt;n37</title>
<path fill="none" stroke="black" d="M1217.09,-372.38C1217.09,-442.19 1217.09,-687 1217.09,-687 1217.09,-687 1475.65,-687 1475.65,-687"/>
<polygon fill="black" stroke="black" points="1475.65,-690.5 1485.65,-687 1475.65,-683.5 1475.65,-690.5"/>
<text text-anchor="middle" x="1372.16" y="-467.8" font-family="Times,serif" font-size="14.00">TOLERANCE</text>
</g>
<!-- n12&#45;&gt;n21 -->
<g id="edge42" class="edge">
<title>n12&#45;&gt;n21</title>
<path fill="none" stroke="black" d="M1258.85,-354C1340.45,-354 1513.09,-354 1513.09,-354 1513.09,-354 1513.09,-215.19 1513.09,-215.19"/>
<polygon fill="black" stroke="black" points="1516.59,-215.19 1513.09,-205.19 1509.59,-215.19 1516.59,-215.19"/>
<text text-anchor="middle" x="1372.16" y="-274.8" font-family="Times,serif" font-size="14.00">TOLERANCE</text>
</g>
<!-- n14 -->
<g id="node34" class="node">
<title>n14</title>
<ellipse fill="none" stroke="black" cx="2773.63" cy="-1360" rx="41.69" ry="18"/>
<text text-anchor="middle" x="2773.63" y="-1356.3" font-family="Times,serif" font-size="14.00">output</text>
</g>
<!-- n86 -->
<g id="node59" class="node">
<title>n86</title>
<ellipse fill="none" stroke="black" cx="3290.33" cy="-1323" rx="46.29" ry="18"/>
<text text-anchor="middle" x="3290.33" y="-1319.3" font-family="Times,serif" font-size="14.00">on_true</text>
</g>
<!-- n14&#45;&gt;n86 -->
<g id="edge32" class="edge">
<title>n14&#45;&gt;n86</title>
<path fill="none" stroke="black" d="M2815.43,-1360C2932.32,-1360 3254.09,-1360 3254.09,-1360 3254.09,-1360 3254.09,-1344.3 3254.09,-1344.3"/>
<polygon fill="black" stroke="black" points="3257.59,-1344.3 3254.09,-1334.3 3250.59,-1344.3 3257.59,-1344.3"/>
<text text-anchor="middle" x="3028.73" y="-1345.8" font-family="Times,serif" font-size="14.00">ZERO</text>
</g>
<!-- n76 -->
<g id="node35" class="node">
<title>n76</title>
<ellipse fill="none" stroke="black" cx="2440.74" cy="-860" rx="27" ry="18"/>
<text text-anchor="middle" x="2440.74" y="-856.3" font-family="Times,serif" font-size="14.00">lhs</text>
</g>
<!-- n78 -->
<g id="node36" class="node">
<title>n78</title>
<ellipse fill="none" stroke="black" cx="2773.63" cy="-914" rx="41.69" ry="18"/>
<text text-anchor="middle" x="2773.63" y="-910.3" font-family="Times,serif" font-size="14.00">output</text>
</g>
<!-- n81 -->
<g id="node57" class="node">
<title>n81</title>
<ellipse fill="none" stroke="black" cx="3290.33" cy="-826" rx="40.89" ry="18"/>
<text text-anchor="middle" x="3290.33" y="-822.3" font-family="Times,serif" font-size="14.00">switch</text>
</g>
<!-- n78&#45;&gt;n81 -->
<g id="edge36" class="edge">
<title>n78&#45;&gt;n81</title>
<path fill="none" stroke="black" d="M2760.09,-896.84C2760.09,-870.98 2760.09,-825 2760.09,-825 2760.09,-825 3239.16,-825 3239.16,-825"/>
<polygon fill="black" stroke="black" points="3239.16,-828.5 3249.16,-825 3239.16,-821.5 3239.16,-828.5"/>
<text text-anchor="middle" x="3028.73" y="-859.8" font-family="Times,serif" font-size="14.00">IS_OVERLOAD_SWITCH</text>
</g>
<!-- n85 -->
<g id="node61" class="node">
<title>n85</title>
<ellipse fill="none" stroke="black" cx="3290.33" cy="-1215" rx="40.89" ry="18"/>
<text text-anchor="middle" x="3290.33" y="-1211.3" font-family="Times,serif" font-size="14.00">switch</text>
</g>
<!-- n78&#45;&gt;n85 -->
<g id="edge37" class="edge">
<title>n78&#45;&gt;n85</title>
<path fill="none" stroke="black" d="M2815.54,-915C2938.73,-915 3291.09,-915 3291.09,-915 3291.09,-915 3291.09,-1186.69 3291.09,-1186.69"/>
<polygon fill="black" stroke="black" points="3287.59,-1186.69 3291.09,-1196.69 3294.59,-1186.69 3287.59,-1186.69"/>
<text text-anchor="middle" x="3028.73" y="-1020.8" font-family="Times,serif" font-size="14.00">IS_OVERLOAD_SWITCH</text>
</g>
<!-- n77&#45;&gt;n78 -->
<!-- n59 -->
<g id="node38" class="node">
<title>n59</title>
<ellipse fill="none" stroke="black" cx="953.43" cy="-133" rx="35.19" ry="18"/>
<text text-anchor="middle" x="953.43" y="-129.3" font-family="Times,serif" font-size="14.00">input</text>
</g>
<!-- n61 -->
<g id="node40" class="node">
<title>n61</title>
<ellipse fill="none" stroke="black" cx="1217.07" cy="-187" rx="41.69" ry="18"/>
<text text-anchor="middle" x="1217.07" y="-183.3" font-family="Times,serif" font-size="14.00">output</text>
</g>
<!-- n60&#45;&gt;n61 -->
<!-- n61&#45;&gt;n36 -->
<g id="edge39" class="edge">
<title>n61&#45;&gt;n36</title>
<path fill="none" stroke="black" d="M1258.88,-187C1305.1,-187 1373.09,-187 1373.09,-187 1373.09,-187 1373.09,-633 1373.09,-633 1373.09,-633 1475.42,-633 1475.42,-633"/>
<polygon fill="black" stroke="black" points="1475.42,-636.5 1485.42,-633 1475.42,-629.5 1475.42,-636.5"/>
<text text-anchor="middle" x="1372.16" y="-407.8" font-family="Times,serif" font-size="14.00">LATENCY_EMA</text>
</g>
<!-- n61&#45;&gt;n20 -->
<g id="edge38" class="edge">
<title>n61&#45;&gt;n20</title>
<path fill="none" stroke="black" d="M1217.09,-168.72C1217.09,-153.05 1217.09,-133 1217.09,-133 1217.09,-133 1475.65,-133 1475.65,-133"/>
<polygon fill="black" stroke="black" points="1475.65,-136.5 1485.65,-133 1475.65,-129.5 1475.65,-136.5"/>
<text text-anchor="middle" x="1372.16" y="-163.8" font-family="Times,serif" font-size="14.00">LATENCY_EMA</text>
</g>
<!-- n63 -->
<g id="node42" class="node">
<title>n63</title>
<ellipse fill="none" stroke="black" cx="4291.76" cy="-487" rx="30.59" ry="18"/>
<text text-anchor="middle" x="4291.76" y="-483.3" font-family="Times,serif" font-size="14.00">max</text>
</g>
<!-- n67 -->
<g id="node43" class="node">
<title>n67</title>
<ellipse fill="none" stroke="black" cx="4291.76" cy="-595" rx="50.89" ry="18"/>
<text text-anchor="middle" x="4291.76" y="-591.3" font-family="Times,serif" font-size="14.00">optimize</text>
</g>
<!-- n68 -->
<g id="node44" class="node">
<title>n68</title>
<ellipse fill="none" stroke="black" cx="4455.49" cy="-595" rx="41.69" ry="18"/>
<text text-anchor="middle" x="4455.49" y="-591.3" font-family="Times,serif" font-size="14.00">output</text>
</g>
<!-- n67&#45;&gt;n68 -->
<!-- n68&#45;&gt;n25 -->
<g id="edge31" class="edge">
<title>n68&#45;&gt;n25</title>
<path fill="none" stroke="black" d="M4416.2,-589C4405.16,-589 4396.09,-589 4396.09,-589 4396.09,-589 4396.09,-1806 4396.09,-1806 4396.09,-1806 2478.01,-1806 2478.01,-1806"/>
<polygon fill="black" stroke="black" points="2478.01,-1802.5 2468.01,-1806 2478.01,-1809.5 2478.01,-1802.5"/>
<text text-anchor="middle" x="3508.92" y="-1085.8" font-family="Times,serif" font-size="14.00">DESIRED_CONCURRENCY</text>
</g>
<!-- n65 -->
<g id="node46" class="node">
<title>n65</title>
<ellipse fill="none" stroke="black" cx="4291.76" cy="-379" rx="38.19" ry="18"/>
<text text-anchor="middle" x="4291.76" y="-375.3" font-family="Times,serif" font-size="14.00">signal</text>
</g>
<!-- n52 -->
<g id="node48" class="node">
<title>n52</title>
<ellipse fill="none" stroke="black" cx="3721.02" cy="-414" rx="41.69" ry="18"/>
<text text-anchor="middle" x="3721.02" y="-410.3" font-family="Times,serif" font-size="14.00">output</text>
</g>
<!-- n51&#45;&gt;n52 -->
<!-- n52&#45;&gt;n63 -->
<g id="edge35" class="edge">
<title>n52&#45;&gt;n63</title>
<path fill="none" stroke="black" d="M3721.09,-432.04C3721.09,-453.66 3721.09,-487 3721.09,-487 3721.09,-487 4251.07,-487 4251.07,-487"/>
<polygon fill="black" stroke="black" points="4251.07,-490.5 4261.07,-487 4251.07,-483.5 4251.07,-490.5"/>
<text text-anchor="middle" x="3984.61" y="-465.8" font-family="Times,serif" font-size="14.00">MAX_CONCURRENCY</text>
</g>
<!-- n49 -->
<g id="node50" class="node">
<title>n49</title>
<ellipse fill="none" stroke="black" cx="2773.63" cy="-1081" rx="41.69" ry="18"/>
<text text-anchor="middle" x="2773.63" y="-1077.3" font-family="Times,serif" font-size="14.00">output</text>
</g>
<!-- n48&#45;&gt;n49 -->
<!-- n80 -->
<g id="node54" class="node">
<title>n80</title>
<ellipse fill="none" stroke="black" cx="3290.33" cy="-880" rx="48.19" ry="18"/>
<text text-anchor="middle" x="3290.33" y="-876.3" font-family="Times,serif" font-size="14.00">on_false</text>
</g>
<!-- n49&#45;&gt;n80 -->
<g id="edge47" class="edge">
<title>n49&#45;&gt;n80</title>
<path fill="none" stroke="black" d="M2813.02,-1075C2926.33,-1075 3245.09,-1075 3245.09,-1075 3245.09,-1075 3245.09,-896.49 3245.09,-896.49"/>
<polygon fill="black" stroke="black" points="3248.59,-896.49 3245.09,-886.49 3241.59,-896.49 3248.59,-896.49"/>
<text text-anchor="middle" x="3028.73" y="-954.8" font-family="Times,serif" font-size="14.00">CONCURRENCY_INCREMENT_NORMAL</text>
</g>
<!-- n87 -->
<g id="node58" class="node">
<title>n87</title>
<ellipse fill="none" stroke="black" cx="3290.33" cy="-1269" rx="48.19" ry="18"/>
<text text-anchor="middle" x="3290.33" y="-1265.3" font-family="Times,serif" font-size="14.00">on_false</text>
</g>
<!-- n49&#45;&gt;n87 -->
<g id="edge48" class="edge">
<title>n49&#45;&gt;n87</title>
<path fill="none" stroke="black" d="M2813.19,-1087C2926.98,-1087 3247.09,-1087 3247.09,-1087 3247.09,-1087 3247.09,-1250.71 3247.09,-1250.71"/>
<polygon fill="black" stroke="black" points="3243.59,-1250.71 3247.09,-1260.71 3250.59,-1250.71 3243.59,-1250.71"/>
<text text-anchor="middle" x="3028.73" y="-1115.8" font-family="Times,serif" font-size="14.00">CONCURRENCY_INCREMENT_NORMAL</text>
</g>
<!-- n57 -->
<g id="node51" class="node">
<title>n57</title>
<ellipse fill="none" stroke="black" cx="99.6" cy="-167" rx="41.69" ry="18"/>
<text text-anchor="middle" x="99.6" y="-163.3" font-family="Times,serif" font-size="14.00">output</text>
</g>
<!-- n57&#45;&gt;n17 -->
<g id="edge27" class="edge">
<title>n57&#45;&gt;n17</title>
<path fill="none" stroke="black" d="M129.29,-179.67C217.21,-179.67 470.09,-179.67 470.09,-179.67 470.09,-179.67 470.09,-237.69 470.09,-237.69"/>
<polygon fill="black" stroke="black" points="466.59,-237.69 470.09,-247.69 473.59,-237.69 466.59,-237.69"/>
<text text-anchor="middle" x="291.69" y="-236.8" font-family="Times,serif" font-size="14.00">LATENCY</text>
</g>
<!-- n57&#45;&gt;n76 -->
<g id="edge30" class="edge">
<title>n57&#45;&gt;n76</title>
<path fill="none" stroke="black" d="M137.63,-174.33C193.73,-174.33 292.09,-174.33 292.09,-174.33 292.09,-174.33 292.09,-860 292.09,-860 292.09,-860 2403.57,-860 2403.57,-860"/>
<polygon fill="black" stroke="black" points="2403.57,-863.5 2413.57,-860 2403.57,-856.5 2403.57,-863.5"/>
<text text-anchor="middle" x="1082.47" y="-508.8" font-family="Times,serif" font-size="14.00">LATENCY</text>
</g>
<!-- n57&#45;&gt;n59 -->
<g id="edge28" class="edge">
<title>n57&#45;&gt;n59</title>
<path fill="none" stroke="black" d="M137.97,-160C304.24,-160 954.09,-160 954.09,-160 954.09,-160 954.09,-159.12 954.09,-159.12"/>
<polygon fill="black" stroke="black" points="957.59,-161.16 954.09,-151.16 950.59,-161.16 957.59,-161.16"/>
<text text-anchor="middle" x="549.19" y="-136.8" font-family="Times,serif" font-size="14.00">LATENCY</text>
</g>
<!-- n57&#45;&gt;n65 -->
<g id="edge29" class="edge">
<title>n57&#45;&gt;n65</title>
<path fill="none" stroke="black" d="M100.09,-185C100.09,-237.55 100.09,-387 100.09,-387 100.09,-387 4247.4,-387 4247.4,-387"/>
<polygon fill="black" stroke="black" points="4247.4,-390.5 4257.4,-387 4247.4,-383.5 4247.4,-390.5"/>
<text text-anchor="middle" x="1592.66" y="-3.8" font-family="Times,serif" font-size="14.00">LATENCY</text>
</g>
<!-- n55 -->
<g id="node53" class="node">
<title>n55</title>
<ellipse fill="none" stroke="black" cx="2773.63" cy="-2291" rx="41.69" ry="18"/>
<text text-anchor="middle" x="2773.63" y="-2287.3" font-family="Times,serif" font-size="14.00">output</text>
</g>
<!-- n54&#45;&gt;n55 -->
<!-- n55&#45;&gt;n41 -->
<g id="edge46" class="edge">
<title>n55&#45;&gt;n41</title>
<path fill="none" stroke="black" d="M2815.54,-2291C2938.73,-2291 3291.09,-2291 3291.09,-2291 3291.09,-2291 3291.09,-1572.1 3291.09,-1572.1"/>
<polygon fill="black" stroke="black" points="3294.59,-1572.1 3291.09,-1562.1 3287.59,-1572.1 3294.59,-1572.1"/>
<text text-anchor="middle" x="3028.73" y="-2011.8" font-family="Times,serif" font-size="14.00">SQRT_CONCURRENCY_INCREMENT</text>
</g>
<!-- n83 -->
<g id="node56" class="node">
<title>n83</title>
<ellipse fill="none" stroke="black" cx="3721.02" cy="-772" rx="41.69" ry="18"/>
<text text-anchor="middle" x="3721.02" y="-768.3" font-family="Times,serif" font-size="14.00">output</text>
</g>
<!-- n82&#45;&gt;n83 -->
<!-- n83&#45;&gt;n67 -->
<g id="edge23" class="edge">
<title>n83&#45;&gt;n67</title>
<path fill="none" stroke="black" d="M3762.77,-772C3888.2,-772 4253.09,-772 4253.09,-772 4253.09,-772 4253.09,-616.89 4253.09,-616.89"/>
<polygon fill="black" stroke="black" points="4256.59,-616.89 4253.09,-606.89 4249.59,-616.89 4256.59,-616.89"/>
<text text-anchor="middle" x="3984.61" y="-738.8" font-family="Times,serif" font-size="14.00">CONCURRENCY_INCREMENT</text>
</g>
<!-- n88 -->
<g id="node60" class="node">
<title>n88</title>
<ellipse fill="none" stroke="black" cx="3721.02" cy="-1309" rx="41.69" ry="18"/>
<text text-anchor="middle" x="3721.02" y="-1305.3" font-family="Times,serif" font-size="14.00">output</text>
</g>
<!-- n87&#45;&gt;n88 -->
<!-- n88&#45;&gt;n45 -->
<g id="edge40" class="edge">
<title>n88&#45;&gt;n45</title>
<path fill="none" stroke="black" d="M3763.01,-1309C3894.89,-1309 4292.09,-1309 4292.09,-1309 4292.09,-1309 4292.09,-1461.98 4292.09,-1461.98"/>
<polygon fill="black" stroke="black" points="4288.59,-1461.98 4292.09,-1471.98 4295.59,-1461.98 4288.59,-1461.98"/>
<text text-anchor="middle" x="3984.61" y="-1383.8" font-family="Times,serif" font-size="14.00">CONCURRENCY_INCREMENT_FEEDBACK</text>
</g>
</g>
</svg>
