<svg xmlns="http://www.w3.org/2000/svg" xmlns:xlink="http://www.w3.org/1999/xlink" width="2324pt" height="2573pt" viewBox="0 0 2324.14 2573"><g id="graph0" class="graph" transform="scale(1 1) rotate(0) translate(4 2569)"><polygon fill="#fff" stroke="none" points="-4 4 -4 -2569 2320.14 -2569 2320.14 4 -4 4"/><g id="clust1" class="cluster"><title>cluster_s1</title><polygon fill="none" stroke="#000" points="18.4 -1568 18.4 -1781 422.39 -1781 422.39 -1568 18.4 -1568"/><text x="220.39" y="-1765.8" font-family="Times,serif" font-size="14" text-anchor="middle">ArithmeticCombinator[0]</text></g><g id="clust4" class="cluster"><title>cluster_s6</title><polygon fill="none" stroke="#000" points="1464.49 -1956 1464.49 -2169 1910.66 -2169 1910.66 -1956 1464.49 -1956"/><text x="1687.58" y="-2153.8" font-family="Times,serif" font-size="14" text-anchor="middle">ArithmeticCombinator[1]</text></g><g id="clust7" class="cluster"><title>cluster_s11</title><polygon fill="none" stroke="#000" points="1333.34 -892 1333.34 -1105 1637.28 -1105 1637.28 -892 1333.34 -892"/><text x="1485.31" y="-1089.8" font-family="Times,serif" font-size="14" text-anchor="middle">ArithmeticCombinator[2]</text></g><g id="clust10" class="cluster"><title>cluster_s15</title><polygon fill="none" stroke="#000" points="1333.34 -671 1333.34 -884 1637.28 -884 1637.28 -671 1333.34 -671"/><text x="1485.31" y="-868.8" font-family="Times,serif" font-size="14" text-anchor="middle">ArithmeticCombinator[3]</text></g><g id="clust13" class="cluster"><title>cluster_s19</title><polygon fill="none" stroke="#000" points="1016.46 -2177 1016.46 -2390 1637.28 -2390 1637.28 -2177 1016.46 -2177"/><text x="1326.87" y="-2374.8" font-family="Times,serif" font-size="14" text-anchor="middle">ArithmeticCombinator[4]</text></g><g id="clust16" class="cluster"><title>cluster_s24</title><polygon fill="none" stroke="#000" points="640.47 -1235 640.47 -1448 1189.25 -1448 1189.25 -1235 640.47 -1235"/><text x="914.86" y="-1432.8" font-family="Times,serif" font-size="14" text-anchor="middle">ArithmeticCombinator[5]</text></g><g id="clust19" class="cluster"><title>cluster_s29</title><polygon fill="none" stroke="#000" points="1464.49 -8 1464.49 -221 1910.66 -221 1910.66 -8 1464.49 -8"/><text x="1687.58" y="-205.8" font-family="Times,serif" font-size="14" text-anchor="middle">ArithmeticCombinator[6]</text></g><g id="clust22" class="cluster"><title>cluster_s34</title><polygon fill="none" stroke="#000" points="1976.81 -450 1976.81 -663 2308.14 -663 2308.14 -450 1976.81 -450"/><text x="2142.47" y="-647.8" font-family="Times,serif" font-size="14" text-anchor="middle">ArithmeticCombinator[7]</text></g><g id="clust25" class="cluster"><title>cluster_s61</title><polygon fill="none" stroke="#000" points="883.27 -633 883.27 -1178 1312.04 -1178 1312.04 -633 883.27 -633"/><text x="1097.66" y="-1162.8" font-family="Times,serif" font-size="14" text-anchor="middle">ConcurrencyLimiter[14]</text></g><g id="clust26" class="cluster"><title>cluster_s65</title><polygon fill="none" stroke="#000" points="941.26 -683 941.26 -842 1255.05 -842 1255.05 -683 941.26 -683"/><text x="1098.16" y="-826.8" font-family="Times,serif" font-size="14" text-anchor="middle">LoadShedActuator[14.LoadShedActuator]</text></g><g id="clust28" class="cluster"><title>cluster_s62</title><polygon fill="none" stroke="#000" points="933.27 -892 933.27 -1105 1262.04 -1105 1262.04 -892 933.27 -892"/><text x="1097.66" y="-1089.8" font-family="Times,serif" font-size="14" text-anchor="middle">Scheduler[14.Scheduler]</text></g><g id="clust30" class="cluster"><title>cluster_s67</title><polygon fill="none" stroke="#000" points="1333.34 -1310 1333.34 -1523 1637.28 -1523 1637.28 -1310 1333.34 -1310"/><text x="1485.31" y="-1507.8" font-family="Times,serif" font-size="14" text-anchor="middle">Decider[15]</text></g><g id="clust33" class="cluster"><title>cluster_s50</title><polygon fill="none" stroke="#000" points="430.39 -1587 430.39 -1800 813.27 -1800 813.27 -1587 430.39 -1587"/><text x="621.83" y="-1784.8" font-family="Times,serif" font-size="14" text-anchor="middle">EMA[12]</text></g><g id="clust36" class="cluster"><title>cluster_s54</title><polygon fill="none" stroke="#000" points="1918.66 -1571 1918.66 -1946 2308.14 -1946 2308.14 -1571 1918.66 -1571"/><text x="2113.4" y="-1930.8" font-family="Times,serif" font-size="14" text-anchor="middle">Gradient[13]</text></g><g id="clust39" class="cluster"><title>cluster_s41</title><polygon fill="none" stroke="#000" points="1458.64 -2398 1458.64 -2557 1910.66 -2557 1910.66 -2398 1458.64 -2398"/><text x="1684.65" y="-2541.8" font-family="Times,serif" font-size="14" text-anchor="middle">Max[9]</text></g><g id="clust42" class="cluster"><title>cluster_s38</title><polygon fill="none" stroke="#000" points="1320.04 -1143 1320.04 -1302 1637.28 -1302 1637.28 -1143 1320.04 -1143"/><text x="1478.66" y="-1286.8" font-family="Times,serif" font-size="14" text-anchor="middle">Min[8]</text></g><g id="clust45" class="cluster"><title>cluster_s48</title><polygon fill="none" stroke="#000" points="8 -1789 8 -1948 191.19 -1948 191.19 -1789 8 -1789"/><text x="99.6" y="-1932.8" font-family="Times,serif" font-size="14" text-anchor="middle">PromQL[11]</text></g><g id="clust47" class="cluster"><title>cluster_s45</title><polygon fill="none" stroke="#000" points="1325.24 -229 1325.24 -388 1637.28 -388 1637.28 -229 1325.24 -229"/><text x="1481.26" y="-372.8" font-family="Times,serif" font-size="14" text-anchor="middle">Sqrt[10]</text></g><g id="clust50" class="cluster"><title>cluster_s71</title><polygon fill="none" stroke="#000" points="1458.64 -1681 1458.64 -1948 1910.66 -1948 1910.66 -1681 1458.64 -1681"/><text x="1684.65" y="-1932.8" font-family="Times,serif" font-size="14" text-anchor="middle">Switcher[16]</text></g><g id="clust53" class="cluster"><title>cluster_s77</title><polygon fill="none" stroke="#000" points="1464.49 -396 1464.49 -663 1910.66 -663 1910.66 -396 1464.49 -396"/><text x="1687.58" y="-647.8" font-family="Times,serif" font-size="14" text-anchor="middle">Switcher[17]</text></g><g id="node1" class="node"><title>n4</title><ellipse cx="99.6" cy="-1636" fill="none" stroke="#000" rx="31.4" ry="18"/><text x="99.6" y="-1632.3" font-family="Times,serif" font-size="14" text-anchor="middle">2.00</text></g><g id="node4" class="node"><title>n3</title><ellipse cx="226.19" cy="-1636" fill="none" stroke="#000" rx="27" ry="18"/><text x="226.19" y="-1632.3" font-family="Times,serif" font-size="14" text-anchor="middle">rhs</text></g><g id="edge1" class="edge"><title>n4-&gt;n3</title><path fill="none" stroke="#000" d="M130.89,-1636C130.89,-1636 189.12,-1636 189.12,-1636"/><polygon fill="#000" stroke="#000" points="189.12 -1639.5 199.12 -1636 189.12 -1632.5 189.12 -1639.5"/></g><g id="node2" class="node"><title>n2</title><ellipse cx="226.19" cy="-1690" fill="none" stroke="#000" rx="27" ry="18"/><text x="226.19" y="-1686.3" font-family="Times,serif" font-size="14" text-anchor="middle">lhs</text></g><g id="node3" class="node"><title>n5</title><ellipse cx="330.79" cy="-1645" fill="none" stroke="#000" rx="41.69" ry="18"/><text x="330.79" y="-1641.3" font-family="Times,serif" font-size="14" text-anchor="middle">output</text></g><g id="node37" class="node"><title>n52</title><ellipse cx="556.43" cy="-1655" fill="none" stroke="#000" rx="76.09" ry="18"/><text x="556.43" y="-1651.3" font-family="Times,serif" font-size="14" text-anchor="middle">max_envelope</text></g><g id="edge33" class="edge"><title>n5-&gt;n52</title><path fill="none" stroke="#000" d="M370.87,-1650C370.87,-1650 472.99,-1650 472.99,-1650"/><polygon fill="#000" stroke="#000" points="472.99 -1653.5 482.99 -1650 472.99 -1646.5 472.99 -1653.5"/></g><g id="node5" class="node"><title>n9</title><ellipse cx="1545.68" cy="-2078" fill="none" stroke="#000" rx="31.4" ry="18"/><text x="1545.68" y="-2074.3" font-family="Times,serif" font-size="14" text-anchor="middle">1.10</text></g><g id="node8" class="node"><title>n8</title><ellipse cx="1693.38" cy="-2078" fill="none" stroke="#000" rx="27" ry="18"/><text x="1693.38" y="-2074.3" font-family="Times,serif" font-size="14" text-anchor="middle">rhs</text></g><g id="edge3" class="edge"><title>n9-&gt;n8</title><path fill="none" stroke="#000" d="M1577.01,-2078C1577.01,-2078 1656.07,-2078 1656.07,-2078"/><polygon fill="#000" stroke="#000" points="1656.07 -2081.5 1666.07 -2078 1656.07 -2074.5 1656.07 -2081.5"/></g><g id="node6" class="node"><title>n7</title><ellipse cx="1693.38" cy="-2024" fill="none" stroke="#000" rx="27" ry="18"/><text x="1693.38" y="-2020.3" font-family="Times,serif" font-size="14" text-anchor="middle">lhs</text></g><g id="node7" class="node"><title>n10</title><ellipse cx="1819.07" cy="-2051" fill="none" stroke="#000" rx="41.69" ry="18"/><text x="1819.07" y="-2047.3" font-family="Times,serif" font-size="14" text-anchor="middle">output</text></g><g id="node43" class="node"><title>n56</title><ellipse cx="2053.81" cy="-1801" fill="none" stroke="#000" rx="48.99" ry="18"/><text x="2053.81" y="-1797.3" font-family="Times,serif" font-size="14" text-anchor="middle">setpoint</text></g><g id="edge50" class="edge"><title>n10-&gt;n56</title><path fill="none" stroke="#000" d="M1861.13,-2051C1918.74,-2051 2015.14,-2051 2015.14,-2051 2015.14,-2051 2015.14,-1822.06 2015.14,-1822.06"/><polygon fill="#000" stroke="#000" points="2018.64 -1822.06 2015.14 -1812.06 2011.64 -1822.06 2018.64 -1822.06"/></g><g id="node9" class="node"><title>n13</title><ellipse cx="1410.34" cy="-960" fill="none" stroke="#000" rx="27" ry="18"/><text x="1410.34" y="-956.3" font-family="Times,serif" font-size="14" text-anchor="middle">lhs</text></g><g id="node10" class="node"><title>n14</title><ellipse cx="1545.68" cy="-960" fill="none" stroke="#000" rx="41.69" ry="18"/><text x="1545.68" y="-956.3" font-family="Times,serif" font-size="14" text-anchor="middle">output</text></g><g id="node12" class="node"><title>n16</title><ellipse cx="1410.34" cy="-793" fill="none" stroke="#000" rx="27" ry="18"/><text x="1410.34" y="-789.3" font-family="Times,serif" font-size="14" text-anchor="middle">lhs</text></g><g id="edge31" class="edge"><title>n14-&gt;n16</title><path fill="none" stroke="#000" d="M1560.14,-943.07C1560.14,-900.61 1560.14,-793 1560.14,-793 1560.14,-793 1447.47,-793 1447.47,-793"/><polygon fill="#000" stroke="#000" points="1447.47 -789.5 1437.47 -793 1447.47 -796.5 1447.47 -789.5"/></g><g id="node11" class="node"><title>n12</title><ellipse cx="1410.34" cy="-1014" fill="none" stroke="#000" rx="27" ry="18"/><text x="1410.34" y="-1010.3" font-family="Times,serif" font-size="14" text-anchor="middle">rhs</text></g><g id="node13" class="node"><title>n18</title><ellipse cx="1545.68" cy="-739" fill="none" stroke="#000" rx="41.69" ry="18"/><text x="1545.68" y="-735.3" font-family="Times,serif" font-size="14" text-anchor="middle">output</text></g><g id="node30" class="node"><title>n66</title><ellipse cx="1097.66" cy="-751" fill="none" stroke="#000" rx="88.28" ry="18"/><text x="1097.66" y="-747.3" font-family="Times,serif" font-size="14" text-anchor="middle">load_shed_factor</text></g><g id="edge41" class="edge"><title>n18-&gt;n66</title><path fill="none" stroke="#000" d="M1532.14,-756.19C1532.14,-760.03 1532.14,-763 1532.14,-763 1532.14,-763 1173.64,-763 1173.64,-763"/><polygon fill="#000" stroke="#000" points="1173.64 -759.5 1163.64 -763 1173.64 -766.5 1173.64 -759.5"/></g><g id="node14" class="node"><title>n17</title><ellipse cx="1410.34" cy="-739" fill="none" stroke="#000" rx="27" ry="18"/><text x="1410.34" y="-735.3" font-family="Times,serif" font-size="14" text-anchor="middle">rhs</text></g><g id="node15" class="node"><title>n21</title><ellipse cx="1097.66" cy="-2299" fill="none" stroke="#000" rx="31.4" ry="18"/><text x="1097.66" y="-2295.3" font-family="Times,serif" font-size="14" text-anchor="middle">2.00</text></g><g id="node16" class="node"><title>n20</title><ellipse cx="1410.34" cy="-2299" fill="none" stroke="#000" rx="27" ry="18"/><text x="1410.34" y="-2295.3" font-family="Times,serif" font-size="14" text-anchor="middle">lhs</text></g><g id="edge7" class="edge"><title>n21-&gt;n20</title><path fill="none" stroke="#000" d="M1129.07,-2299C1129.07,-2299 1373.01,-2299 1373.01,-2299"/><polygon fill="#000" stroke="#000" points="1373.01 -2302.5 1383.01 -2299 1373.01 -2295.5 1373.01 -2302.5"/></g><g id="node17" class="node"><title>n23</title><ellipse cx="1545.68" cy="-2272" fill="none" stroke="#000" rx="41.69" ry="18"/><text x="1545.68" y="-2268.3" font-family="Times,serif" font-size="14" text-anchor="middle">output</text></g><g id="node46" class="node"><title>n42</title><ellipse cx="1693.38" cy="-2466" fill="none" stroke="#000" rx="40.09" ry="18"/><text x="1693.38" y="-2462.3" font-family="Times,serif" font-size="14" text-anchor="middle">inputs</text></g><g id="edge34" class="edge"><title>n23-&gt;n42</title><path fill="none" stroke="#000" d="M1587.33,-2272C1620.06,-2272 1660.14,-2272 1660.14,-2272 1660.14,-2272 1660.14,-2445.57 1660.14,-2445.57"/><polygon fill="#000" stroke="#000" points="1656.64 -2445.57 1660.14 -2455.57 1663.64 -2445.57 1656.64 -2445.57"/></g><g id="node18" class="node"><title>n22</title><ellipse cx="1410.34" cy="-2245" fill="none" stroke="#000" rx="27" ry="18"/><text x="1410.34" y="-2241.3" font-family="Times,serif" font-size="14" text-anchor="middle">rhs</text></g><g id="node19" class="node"><title>n27</title><ellipse cx="721.67" cy="-1303" fill="none" stroke="#000" rx="31.4" ry="18"/><text x="721.67" y="-1299.3" font-family="Times,serif" font-size="14" text-anchor="middle">1.10</text></g><g id="node22" class="node"><title>n26</title><ellipse cx="848.27" cy="-1303" fill="none" stroke="#000" rx="27" ry="18"/><text x="848.27" y="-1299.3" font-family="Times,serif" font-size="14" text-anchor="middle">rhs</text></g><g id="edge9" class="edge"><title>n27-&gt;n26</title><path fill="none" stroke="#000" d="M752.96,-1303C752.96,-1303 811.19,-1303 811.19,-1303"/><polygon fill="#000" stroke="#000" points="811.19 -1306.5 821.19 -1303 811.19 -1299.5 811.19 -1306.5"/></g><g id="node20" class="node"><title>n25</title><ellipse cx="848.27" cy="-1357" fill="none" stroke="#000" rx="27" ry="18"/><text x="848.27" y="-1353.3" font-family="Times,serif" font-size="14" text-anchor="middle">lhs</text></g><g id="node21" class="node"><title>n28</title><ellipse cx="1097.66" cy="-1330" fill="none" stroke="#000" rx="41.69" ry="18"/><text x="1097.66" y="-1326.3" font-family="Times,serif" font-size="14" text-anchor="middle">output</text></g><g id="node35" class="node"><title>n69</title><ellipse cx="1410.34" cy="-1378" fill="none" stroke="#000" rx="27" ry="18"/><text x="1410.34" y="-1374.3" font-family="Times,serif" font-size="14" text-anchor="middle">rhs</text></g><g id="edge51" class="edge"><title>n28-&gt;n69</title><path fill="none" stroke="#000" d="M1134.14,-1338.7C1134.14,-1349.78 1134.14,-1367.5 1134.14,-1367.5 1134.14,-1367.5 1378.21,-1367.5 1378.21,-1367.5"/><polygon fill="#000" stroke="#000" points="1378.21 -1371 1388.21 -1367.5 1378.21 -1364 1378.21 -1371"/></g><g id="node23" class="node"><title>n31</title><ellipse cx="1545.68" cy="-76" fill="none" stroke="#000" rx="31.4" ry="18"/><text x="1545.68" y="-72.3" font-family="Times,serif" font-size="14" text-anchor="middle">5.00</text></g><g id="node24" class="node"><title>n30</title><ellipse cx="1693.38" cy="-76" fill="none" stroke="#000" rx="27" ry="18"/><text x="1693.38" y="-72.3" font-family="Times,serif" font-size="14" text-anchor="middle">lhs</text></g><g id="edge11" class="edge"><title>n31-&gt;n30</title><path fill="none" stroke="#000" d="M1577.01,-76C1577.01,-76 1656.07,-76 1656.07,-76"/><polygon fill="#000" stroke="#000" points="1656.07 -79.5 1666.07 -76 1656.07 -72.5 1656.07 -79.5"/></g><g id="node25" class="node"><title>n33</title><ellipse cx="1819.07" cy="-130" fill="none" stroke="#000" rx="41.69" ry="18"/><text x="1819.07" y="-126.3" font-family="Times,serif" font-size="14" text-anchor="middle">output</text></g><g id="node27" class="node"><title>n35</title><ellipse cx="2053.81" cy="-518" fill="none" stroke="#000" rx="27" ry="18"/><text x="2053.81" y="-514.3" font-family="Times,serif" font-size="14" text-anchor="middle">lhs</text></g><g id="edge42" class="edge"><title>n33-&gt;n35</title><path fill="none" stroke="#000" d="M1860.82,-130C1928.38,-130 2054.14,-130 2054.14,-130 2054.14,-130 2054.14,-489.81 2054.14,-489.81"/><polygon fill="#000" stroke="#000" points="2050.64 -489.81 2054.14 -499.81 2057.64 -489.81 2050.64 -489.81"/></g><g id="node26" class="node"><title>n32</title><ellipse cx="1693.38" cy="-130" fill="none" stroke="#000" rx="27" ry="18"/><text x="1693.38" y="-126.3" font-family="Times,serif" font-size="14" text-anchor="middle">rhs</text></g><g id="node28" class="node"><title>n37</title><ellipse cx="2216.55" cy="-572" fill="none" stroke="#000" rx="41.69" ry="18"/><text x="2216.55" y="-568.3" font-family="Times,serif" font-size="14" text-anchor="middle">output</text></g><g id="node48" class="node"><title>n39</title><ellipse cx="1410.34" cy="-1211" fill="none" stroke="#000" rx="40.09" ry="18"/><text x="1410.34" y="-1207.3" font-family="Times,serif" font-size="14" text-anchor="middle">inputs</text></g><g id="edge35" class="edge"><title>n37-&gt;n39</title><path fill="none" stroke="#000" d="M2203.14,-589.3C2203.14,-613.76 2203.14,-655.5 2203.14,-655.5 2203.14,-655.5 1442.14,-655.5 1442.14,-655.5 1442.14,-655.5 1442.14,-1189.9 1442.14,-1189.9"/><polygon fill="#000" stroke="#000" points="1438.64 -1189.9 1442.14 -1199.9 1445.64 -1189.9 1438.64 -1189.9"/></g><g id="node29" class="node"><title>n36</title><ellipse cx="2053.81" cy="-572" fill="none" stroke="#000" rx="27" ry="18"/><text x="2053.81" y="-568.3" font-family="Times,serif" font-size="14" text-anchor="middle">rhs</text></g><g id="node31" class="node"><title>n63</title><ellipse cx="1097.66" cy="-1014" fill="none" stroke="#000" rx="113.98" ry="18"/><text x="1097.66" y="-1010.3" font-family="Times,serif" font-size="14" text-anchor="middle">accepted_concurrency</text></g><g id="edge25" class="edge"><title>n63-&gt;n22</title><path fill="none" stroke="#000" d="M1164.14,-1028.68C1164.14,-1167.57 1164.14,-2245 1164.14,-2245 1164.14,-2245 1373.05,-2245 1373.05,-2245"/><polygon fill="#000" stroke="#000" points="1373.05 -2248.5 1383.05 -2245 1373.05 -2241.5 1373.05 -2248.5"/></g><g id="node39" class="node"><title>n59</title><ellipse cx="2053.81" cy="-1639" fill="none" stroke="#000" rx="85.29" ry="18"/><text x="2053.81" y="-1635.3" font-family="Times,serif" font-size="14" text-anchor="middle">control_variable</text></g><g id="edge28" class="edge"><title>n63-&gt;n59</title><path fill="none" stroke="#000" d="M1188.14,-1024.99C1188.14,-1107.9 1188.14,-1632 1188.14,-1632 1188.14,-1632 1965.07,-1632 1965.07,-1632"/><polygon fill="#000" stroke="#000" points="1965.07 -1635.5 1975.07 -1632 1965.07 -1628.5 1965.07 -1635.5"/></g><g id="edge26" class="edge"><title>n63-&gt;n39</title><path fill="none" stroke="#000" d="M1205.23,-1020C1285.43,-1020 1381.14,-1020 1381.14,-1020 1381.14,-1020 1381.14,-1188.47 1381.14,-1188.47"/><polygon fill="#000" stroke="#000" points="1377.64 -1188.47 1381.14 -1198.47 1384.64 -1188.47 1377.64 -1188.47"/></g><g id="node51" class="node"><title>n46</title><ellipse cx="1410.34" cy="-297" fill="none" stroke="#000" rx="35.19" ry="18"/><text x="1410.34" y="-293.3" font-family="Times,serif" font-size="14" text-anchor="middle">input</text></g><g id="edge27" class="edge"><title>n63-&gt;n46</title><path fill="none" stroke="#000" d="M1204.9,-1008C1284.08,-1008 1378.14,-1008 1378.14,-1008 1378.14,-1008 1378.14,-314.5 1378.14,-314.5"/><polygon fill="#000" stroke="#000" points="1381.64 -314.5 1378.14 -304.5 1374.64 -314.5 1381.64 -314.5"/></g><g id="node32" class="node"><title>n64</title><ellipse cx="1097.66" cy="-960" fill="none" stroke="#000" rx="114.28" ry="18"/><text x="1097.66" y="-956.3" font-family="Times,serif" font-size="14" text-anchor="middle">incoming_concurrency</text></g><g id="edge29" class="edge"><title>n64-&gt;n13</title><path fill="none" stroke="#000" d="M1212.31,-960C1212.31,-960 1373.03,-960 1373.03,-960"/><polygon fill="#000" stroke="#000" points="1373.03 -963.5 1383.03 -960 1373.03 -956.5 1373.03 -963.5"/></g><g id="edge30" class="edge"><title>n64-&gt;n17</title><path fill="none" stroke="#000" d="M1199.14,-951.57C1199.14,-911.82 1199.14,-745 1199.14,-745 1199.14,-745 1374.87,-745 1374.87,-745"/><polygon fill="#000" stroke="#000" points="1374.87 -748.5 1384.87 -745 1374.87 -741.5 1374.87 -748.5"/></g><g id="node33" class="node"><title>n68</title><ellipse cx="1410.34" cy="-1432" fill="none" stroke="#000" rx="27" ry="18"/><text x="1410.34" y="-1428.3" font-family="Times,serif" font-size="14" text-anchor="middle">lhs</text></g><g id="node34" class="node"><title>n70</title><ellipse cx="1545.68" cy="-1378" fill="none" stroke="#000" rx="41.69" ry="18"/><text x="1545.68" y="-1374.3" font-family="Times,serif" font-size="14" text-anchor="middle">output</text></g><g id="node57" class="node"><title>n73</title><ellipse cx="1693.38" cy="-1803" fill="none" stroke="#000" rx="40.89" ry="18"/><text x="1693.38" y="-1799.3" font-family="Times,serif" font-size="14" text-anchor="middle">switch</text></g><g id="edge48" class="edge"><title>n70-&gt;n73</title><path fill="none" stroke="#000" d="M1546.14,-1396.26C1546.14,-1477.61 1546.14,-1803 1546.14,-1803 1546.14,-1803 1642.36,-1803 1642.36,-1803"/><polygon fill="#000" stroke="#000" points="1642.36 -1806.5 1652.36 -1803 1642.36 -1799.5 1642.36 -1806.5"/></g><g id="node62" class="node"><title>n81</title><ellipse cx="1693.38" cy="-572" fill="none" stroke="#000" rx="40.89" ry="18"/><text x="1693.38" y="-568.3" font-family="Times,serif" font-size="14" text-anchor="middle">switch</text></g><g id="edge49" class="edge"><title>n70-&gt;n81</title><path fill="none" stroke="#000" d="M1587.43,-1378C1631.34,-1378 1694.14,-1378 1694.14,-1378 1694.14,-1378 1694.14,-600.35 1694.14,-600.35"/><polygon fill="#000" stroke="#000" points="1697.64 -600.35 1694.14 -590.35 1690.64 -600.35 1697.64 -600.35"/></g><g id="node36" class="node"><title>n51</title><ellipse cx="556.43" cy="-1709" fill="none" stroke="#000" rx="35.19" ry="18"/><text x="556.43" y="-1705.3" font-family="Times,serif" font-size="14" text-anchor="middle">input</text></g><g id="node38" class="node"><title>n53</title><ellipse cx="721.67" cy="-1655" fill="none" stroke="#000" rx="41.69" ry="18"/><text x="721.67" y="-1651.3" font-family="Times,serif" font-size="14" text-anchor="middle">output</text></g><g id="edge38" class="edge"><title>n53-&gt;n7</title><path fill="none" stroke="#000" d="M722.14,-1673.05C722.14,-1747.13 722.14,-2024 722.14,-2024 722.14,-2024 1656.13,-2024 1656.13,-2024"/><polygon fill="#000" stroke="#000" points="1656.13 -2027.5 1666.13 -2024 1656.13 -2020.5 1656.13 -2027.5"/></g><g id="edge39" class="edge"><title>n53-&gt;n25</title><path fill="none" stroke="#000" d="M758.14,-1646.08C758.14,-1596.5 758.14,-1357 758.14,-1357 758.14,-1357 811.23,-1357 811.23,-1357"/><polygon fill="#000" stroke="#000" points="811.23 -1360.5 821.23 -1357 811.23 -1353.5 811.23 -1360.5"/></g><g id="node42" class="node"><title>n60</title><ellipse cx="2216.55" cy="-1639" fill="none" stroke="#000" rx="41.69" ry="18"/><text x="2216.55" y="-1635.3" font-family="Times,serif" font-size="14" text-anchor="middle">output</text></g><g id="node40" class="node"><title>n58</title><ellipse cx="2053.81" cy="-1855" fill="none" stroke="#000" rx="30.59" ry="18"/><text x="2053.81" y="-1851.3" font-family="Times,serif" font-size="14" text-anchor="middle">max</text></g><g id="node41" class="node"><title>n57</title><ellipse cx="2053.81" cy="-1747" fill="none" stroke="#000" rx="50.89" ry="18"/><text x="2053.81" y="-1743.3" font-family="Times,serif" font-size="14" text-anchor="middle">optimize</text></g><g id="edge47" class="edge"><title>n60-&gt;n12</title><path fill="none" stroke="#000" d="M2231.14,-1621.96C2231.14,-1521.79 2231.14,-1014 2231.14,-1014 2231.14,-1014 1447.65,-1014 1447.65,-1014"/><polygon fill="#000" stroke="#000" points="1447.65 -1010.5 1437.65 -1014 1447.65 -1017.5 1447.65 -1010.5"/></g><g id="node44" class="node"><title>n55</title><ellipse cx="2053.81" cy="-1693" fill="none" stroke="#000" rx="38.19" ry="18"/><text x="2053.81" y="-1689.3" font-family="Times,serif" font-size="14" text-anchor="middle">signal</text></g><g id="node45" class="node"><title>n43</title><ellipse cx="1545.68" cy="-2466" fill="none" stroke="#000" rx="37.09" ry="18"/><text x="1545.68" y="-2462.3" font-family="Times,serif" font-size="14" text-anchor="middle">10.00</text></g><g id="edge17" class="edge"><title>n43-&gt;n42</title><path fill="none" stroke="#000" d="M1582.95,-2466C1582.95,-2466 1643.01,-2466 1643.01,-2466"/><polygon fill="#000" stroke="#000" points="1643.01 -2469.5 1653.01 -2466 1643.01 -2462.5 1643.01 -2469.5"/></g><g id="node47" class="node"><title>n44</title><ellipse cx="1819.07" cy="-2466" fill="none" stroke="#000" rx="41.69" ry="18"/><text x="1819.07" y="-2462.3" font-family="Times,serif" font-size="14" text-anchor="middle">output</text></g><g id="edge36" class="edge"><title>n44-&gt;n58</title><path fill="none" stroke="#000" d="M1860.82,-2466C1928.38,-2466 2054.14,-2466 2054.14,-2466 2054.14,-2466 2054.14,-1883.29 2054.14,-1883.29"/><polygon fill="#000" stroke="#000" points="2057.64 -1883.29 2054.14 -1873.29 2050.64 -1883.29 2057.64 -1883.29"/></g><g id="node49" class="node"><title>n40</title><ellipse cx="1545.68" cy="-1211" fill="none" stroke="#000" rx="41.69" ry="18"/><text x="1545.68" y="-1207.3" font-family="Times,serif" font-size="14" text-anchor="middle">output</text></g><g id="node54" class="node"><title>n72</title><ellipse cx="1693.38" cy="-1749" fill="none" stroke="#000" rx="48.19" ry="18"/><text x="1693.38" y="-1745.3" font-family="Times,serif" font-size="14" text-anchor="middle">on_false</text></g><g id="edge52" class="edge"><title>n40-&gt;n72</title><path fill="none" stroke="#000" d="M1585.18,-1217C1614.76,-1217 1650.14,-1217 1650.14,-1217 1650.14,-1217 1650.14,-1731.07 1650.14,-1731.07"/><polygon fill="#000" stroke="#000" points="1646.64 -1731.07 1650.14 -1741.07 1653.64 -1731.07 1646.64 -1731.07"/></g><g id="node59" class="node"><title>n80</title><ellipse cx="1693.38" cy="-518" fill="none" stroke="#000" rx="48.19" ry="18"/><text x="1693.38" y="-514.3" font-family="Times,serif" font-size="14" text-anchor="middle">on_false</text></g><g id="edge53" class="edge"><title>n40-&gt;n80</title><path fill="none" stroke="#000" d="M1585,-1205C1613.9,-1205 1648.14,-1205 1648.14,-1205 1648.14,-1205 1648.14,-534.36 1648.14,-534.36"/><polygon fill="#000" stroke="#000" points="1651.64 -534.36 1648.14 -524.36 1644.64 -534.36 1651.64 -534.36"/></g><g id="node50" class="node"><title>n49</title><ellipse cx="99.6" cy="-1857" fill="none" stroke="#000" rx="41.69" ry="18"/><text x="99.6" y="-1853.3" font-family="Times,serif" font-size="14" text-anchor="middle">output</text></g><g id="edge43" class="edge"><title>n49-&gt;n2</title><path fill="none" stroke="#000" d="M136.14,-1848.02C136.14,-1813.33 136.14,-1690 136.14,-1690 136.14,-1690 189.17,-1690 189.17,-1690"/><polygon fill="#000" stroke="#000" points="189.17 -1693.5 199.17 -1690 189.17 -1686.5 189.17 -1693.5"/></g><g id="edge46" class="edge"><title>n49-&gt;n68</title><path fill="none" stroke="#000" d="M134.14,-1846.91C134.14,-1782.55 134.14,-1432 134.14,-1432 134.14,-1432 1373.1,-1432 1373.1,-1432"/><polygon fill="#000" stroke="#000" points="1373.1 -1435.5 1383.1 -1432 1373.1 -1428.5 1373.1 -1435.5"/></g><g id="edge44" class="edge"><title>n49-&gt;n51</title><path fill="none" stroke="#000" d="M139.14,-1851.36C139.14,-1825.26 139.14,-1717.5 139.14,-1717.5 139.14,-1717.5 515.41,-1717.5 515.41,-1717.5"/><polygon fill="#000" stroke="#000" points="515.41 -1721 525.41 -1717.5 515.41 -1714 515.41 -1721"/></g><g id="edge45" class="edge"><title>n49-&gt;n55</title><path fill="none" stroke="#000" d="M141.5,-1857C271.17,-1857 657.14,-1857 657.14,-1857 657.14,-1857 657.14,-1701 657.14,-1701 657.14,-1701 2009.28,-1701 2009.28,-1701"/><polygon fill="#000" stroke="#000" points="2009.28 -1704.5 2019.28 -1701 2009.28 -1697.5 2009.28 -1704.5"/></g><g id="node52" class="node"><title>n47</title><ellipse cx="1545.68" cy="-297" fill="none" stroke="#000" rx="41.69" ry="18"/><text x="1545.68" y="-293.3" font-family="Times,serif" font-size="14" text-anchor="middle">output</text></g><g id="edge37" class="edge"><title>n47-&gt;n32</title><path fill="none" stroke="#000" d="M1582.14,-288.02C1582.14,-253.33 1582.14,-130 1582.14,-130 1582.14,-130 1656.17,-130 1656.17,-130"/><polygon fill="#000" stroke="#000" points="1656.17 -133.5 1666.17 -130 1656.17 -126.5 1656.17 -133.5"/></g><g id="node53" class="node"><title>n75</title><ellipse cx="1545.68" cy="-1857" fill="none" stroke="#000" rx="37.09" ry="18"/><text x="1545.68" y="-1853.3" font-family="Times,serif" font-size="14" text-anchor="middle">10.00</text></g><g id="node55" class="node"><title>n74</title><ellipse cx="1693.38" cy="-1857" fill="none" stroke="#000" rx="46.29" ry="18"/><text x="1693.38" y="-1853.3" font-family="Times,serif" font-size="14" text-anchor="middle">on_true</text></g><g id="edge21" class="edge"><title>n75-&gt;n74</title><path fill="none" stroke="#000" d="M1582.95,-1857C1582.95,-1857 1637.13,-1857 1637.13,-1857"/><polygon fill="#000" stroke="#000" points="1637.13 -1860.5 1647.13 -1857 1637.13 -1853.5 1637.13 -1860.5"/></g><g id="node56" class="node"><title>n76</title><ellipse cx="1819.07" cy="-1803" fill="none" stroke="#000" rx="41.69" ry="18"/><text x="1819.07" y="-1799.3" font-family="Times,serif" font-size="14" text-anchor="middle">output</text></g><g id="edge40" class="edge"><title>n76-&gt;n57</title><path fill="none" stroke="#000" d="M1819.14,-1784.99C1819.14,-1768.95 1819.14,-1748 1819.14,-1748 1819.14,-1748 1993.18,-1748 1993.18,-1748"/><polygon fill="#000" stroke="#000" points="1993.18 -1751.5 2003.18 -1748 1993.18 -1744.5 1993.18 -1751.5"/></g><g id="node58" class="node"><title>n79</title><ellipse cx="1545.68" cy="-464" fill="none" stroke="#000" rx="31.4" ry="18"/><text x="1545.68" y="-460.3" font-family="Times,serif" font-size="14" text-anchor="middle">0.00</text></g><g id="node60" class="node"><title>n78</title><ellipse cx="1693.38" cy="-464" fill="none" stroke="#000" rx="46.29" ry="18"/><text x="1693.38" y="-460.3" font-family="Times,serif" font-size="14" text-anchor="middle">on_true</text></g><g id="edge23" class="edge"><title>n79-&gt;n78</title><path fill="none" stroke="#000" d="M1577.01,-464C1577.01,-464 1636.95,-464 1636.95,-464"/><polygon fill="#000" stroke="#000" points="1636.95 -467.5 1646.95 -464 1636.95 -460.5 1636.95 -467.5"/></g><g id="node61" class="node"><title>n82</title><ellipse cx="1819.07" cy="-572" fill="none" stroke="#000" rx="41.69" ry="18"/><text x="1819.07" y="-568.3" font-family="Times,serif" font-size="14" text-anchor="middle">output</text></g><g id="edge32" class="edge"><title>n82-&gt;n36</title><path fill="none" stroke="#000" d="M1860.76,-572C1860.76,-572 2016.76,-572 2016.76,-572"/><polygon fill="#000" stroke="#000" points="2016.76 -575.5 2026.76 -572 2016.76 -568.5 2016.76 -575.5"/></g></g></svg>