<?xml version="1.0" encoding="UTF-8" standalone="no"?>
<!DOCTYPE svg PUBLIC "-//W3C//DTD SVG 1.1//EN"
 "http://www.w3.org/Graphics/SVG/1.1/DTD/svg11.dtd">
<!-- Generated by graphviz version 6.0.1 (20220911.1526)
 -->
<!-- Pages: 1 -->
<svg width="4563pt" height="2416pt"
 viewBox="0.00 0.00 4562.80 2416.00" xmlns="http://www.w3.org/2000/svg" xmlns:xlink="http://www.w3.org/1999/xlink">
<g id="graph0" class="graph" transform="scale(1 1) rotate(0) translate(4 2412)">
<polygon fill="white" stroke="none" points="-4,4 -4,-2412 4558.8,-2412 4558.8,4 -4,4"/>
<g id="clust1" class="cluster">
<title>cluster_s1</title>
<polygon fill="none" stroke="black" points="18.4,-1581 18.4,-1794 580.39,-1794 580.39,-1581 18.4,-1581"/>
<text text-anchor="middle" x="299.39" y="-1778.8" font-family="Times,serif" font-size="14.00">ArithmeticCombinator[0]</text>
</g>
<g id="clust4" class="cluster">
<title>cluster_s6</title>
<polygon fill="none" stroke="black" points="970.47,-1466 970.47,-1679 1748.25,-1679 1748.25,-1466 970.47,-1466"/>
<text text-anchor="middle" x="1359.36" y="-1663.8" font-family="Times,serif" font-size="14.00">ArithmeticCombinator[1]</text>
</g>
<g id="clust7" class="cluster">
<title>cluster_s11</title>
<polygon fill="none" stroke="black" points="1575.46,-2187 1575.46,-2400 2821.13,-2400 2821.13,-2187 1575.46,-2187"/>
<text text-anchor="middle" x="2198.29" y="-2384.8" font-family="Times,serif" font-size="14.00">ArithmeticCombinator[2]</text>
</g>
<g id="clust10" class="cluster">
<title>cluster_s16</title>
<polygon fill="none" stroke="black" points="2648.34,-287 2648.34,-500 3812.32,-500 3812.32,-287 2648.34,-287"/>
<text text-anchor="middle" x="3230.33" y="-484.8" font-family="Times,serif" font-size="14.00">ArithmeticCombinator[3]</text>
</g>
<g id="clust13" class="cluster">
<title>cluster_s21</title>
<polygon fill="none" stroke="black" points="4214.47,-287 4214.47,-500 4546.8,-500 4546.8,-287 4214.47,-287"/>
<text text-anchor="middle" x="4380.63" y="-484.8" font-family="Times,serif" font-size="14.00">ArithmeticCombinator[4]</text>
</g>
<g id="clust16" class="cluster">
<title>cluster_s52</title>
<polygon fill="none" stroke="black" points="1430.06,-509 1430.06,-1054 1883.25,-1054 1883.25,-509 1430.06,-509"/>
<text text-anchor="middle" x="1656.66" y="-1038.8" font-family="Times,serif" font-size="14.00">ConcurrencyLimiter[12]</text>
</g>
<g id="clust17" class="cluster">
<title>cluster_s56</title>
<polygon fill="none" stroke="black" points="1480.06,-559 1480.06,-718 1833.25,-718 1833.25,-559 1480.06,-559"/>
<text text-anchor="middle" x="1656.66" y="-702.8" font-family="Times,serif" font-size="14.00">ConcurrencyActuator[12.ConcurrencyActuator]</text>
</g>
<g id="clust19" class="cluster">
<title>cluster_s53</title>
<polygon fill="none" stroke="black" points="1492.27,-768 1492.27,-981 1821.04,-981 1821.04,-768 1492.27,-768"/>
<text text-anchor="middle" x="1656.66" y="-965.8" font-family="Times,serif" font-size="14.00">Scheduler[12.Scheduler]</text>
</g>
<g id="clust21" class="cluster">
<title>cluster_s58</title>
<polygon fill="none" stroke="black" points="2120.34,-1341 2120.34,-1554 2821.13,-1554 2821.13,-1341 2120.34,-1341"/>
<text text-anchor="middle" x="2470.74" y="-1538.8" font-family="Times,serif" font-size="14.00">Decider[13]</text>
</g>
<g id="clust24" class="cluster">
<title>cluster_s41</title>
<polygon fill="none" stroke="black" points="672.39,-1687 672.39,-1900 1143.27,-1900 1143.27,-1687 672.39,-1687"/>
<text text-anchor="middle" x="907.83" y="-1884.8" font-family="Times,serif" font-size="14.00">EMA[10]</text>
</g>
<g id="clust27" class="cluster">
<title>cluster_s28</title>
<polygon fill="none" stroke="black" points="1575.46,-1062 1575.46,-1221 2821.13,-1221 2821.13,-1062 1575.46,-1062"/>
<text text-anchor="middle" x="2198.29" y="-1205.8" font-family="Times,serif" font-size="14.00">FirstValid[6]</text>
</g>
<g id="clust30" class="cluster">
<title>cluster_s45</title>
<polygon fill="none" stroke="black" points="4156.32,-1690 4156.32,-2065 4546.8,-2065 4546.8,-1690 4156.32,-1690"/>
<text text-anchor="middle" x="4351.56" y="-2049.8" font-family="Times,serif" font-size="14.00">Gradient[11]</text>
</g>
<g id="clust33" class="cluster">
<title>cluster_s32</title>
<polygon fill="none" stroke="black" points="2642.49,-2020 2642.49,-2179 3812.32,-2179 3812.32,-2020 2642.49,-2020"/>
<text text-anchor="middle" x="3227.41" y="-2163.8" font-family="Times,serif" font-size="14.00">Max[7]</text>
</g>
<g id="clust36" class="cluster">
<title>cluster_s25</title>
<polygon fill="none" stroke="black" points="2107.04,-895 2107.04,-1054 2821.13,-1054 2821.13,-895 2107.04,-895"/>
<text text-anchor="middle" x="2464.09" y="-1038.8" font-family="Times,serif" font-size="14.00">Min[5]</text>
</g>
<g id="clust39" class="cluster">
<title>cluster_s39</title>
<polygon fill="none" stroke="black" points="8,-1802 8,-1961 191.19,-1961 191.19,-1802 8,-1802"/>
<text text-anchor="middle" x="99.6" y="-1945.8" font-family="Times,serif" font-size="14.00">PromQL[9]</text>
</g>
<g id="clust41" class="cluster">
<title>cluster_s36</title>
<polygon fill="none" stroke="black" points="2112.24,-8 2112.24,-167 2821.13,-167 2821.13,-8 2112.24,-8"/>
<text text-anchor="middle" x="2466.69" y="-151.8" font-family="Times,serif" font-size="14.00">Sqrt[8]</text>
</g>
<g id="clust44" class="cluster">
<title>cluster_s62</title>
<polygon fill="none" stroke="black" points="2636.64,-1562 2636.64,-1829 3812.32,-1829 3812.32,-1562 2636.64,-1562"/>
<text text-anchor="middle" x="3224.48" y="-1813.8" font-family="Times,serif" font-size="14.00">Switcher[14]</text>
</g>
<g id="clust47" class="cluster">
<title>cluster_s68</title>
<polygon fill="none" stroke="black" points="2648.34,-508 2648.34,-775 3812.32,-775 3812.32,-508 2648.34,-508"/>
<text text-anchor="middle" x="3230.33" y="-759.8" font-family="Times,serif" font-size="14.00">Switcher[15]</text>
</g>
<!-- n4 -->
<g id="node1" class="node">
<title>n4</title>
<ellipse fill="none" stroke="black" cx="99.6" cy="-1649" rx="31.4" ry="18"/>
<text text-anchor="middle" x="99.6" y="-1645.3" font-family="Times,serif" font-size="14.00">2.00</text>
</g>
<!-- n3 -->
<g id="node4" class="node">
<title>n3</title>
<ellipse fill="none" stroke="black" cx="314.19" cy="-1649" rx="27" ry="18"/>
<text text-anchor="middle" x="314.19" y="-1645.3" font-family="Times,serif" font-size="14.00">rhs</text>
</g>
<!-- n4&#45;&gt;n3 -->
<g id="edge1" class="edge">
<title>n4&#45;&gt;n3</title>
<path fill="none" stroke="black" d="M130.8,-1649C130.8,-1649 277.03,-1649 277.03,-1649"/>
<polygon fill="black" stroke="black" points="277.03,-1652.5 287.03,-1649 277.03,-1645.5 277.03,-1652.5"/>
</g>
<!-- n2 -->
<g id="node2" class="node">
<title>n2</title>
<ellipse fill="none" stroke="black" cx="314.19" cy="-1703" rx="27" ry="18"/>
<text text-anchor="middle" x="314.19" y="-1699.3" font-family="Times,serif" font-size="14.00">lhs</text>
</g>
<!-- n5 -->
<g id="node3" class="node">
<title>n5</title>
<ellipse fill="none" stroke="black" cx="488.79" cy="-1687" rx="41.69" ry="18"/>
<text text-anchor="middle" x="488.79" y="-1683.3" font-family="Times,serif" font-size="14.00">output</text>
</g>
<!-- n43 -->
<g id="node27" class="node">
<title>n43</title>
<ellipse fill="none" stroke="black" cx="798.43" cy="-1755" rx="76.09" ry="18"/>
<text text-anchor="middle" x="798.43" y="-1751.3" font-family="Times,serif" font-size="14.00">max_envelope</text>
</g>
<!-- n5&#45;&gt;n43 -->
<g id="edge27" class="edge">
<title>n5&#45;&gt;n43</title>
<path fill="none" stroke="black" d="M488.8,-1705.22C488.8,-1725.37 488.8,-1755 488.8,-1755 488.8,-1755 712.29,-1755 712.29,-1755"/>
<polygon fill="black" stroke="black" points="712.29,-1758.5 722.29,-1755 712.29,-1751.5 712.29,-1758.5"/>
<text text-anchor="middle" x="626.39" y="-1731.8" font-family="Times,serif" font-size="14.00">MAX_EMA</text>
</g>
<!-- n3&#45;&gt;n5 -->
<!-- n9 -->
<g id="node5" class="node">
<title>n9</title>
<ellipse fill="none" stroke="black" cx="1051.67" cy="-1534" rx="31.4" ry="18"/>
<text text-anchor="middle" x="1051.67" y="-1530.3" font-family="Times,serif" font-size="14.00">1.10</text>
</g>
<!-- n8 -->
<g id="node8" class="node">
<title>n8</title>
<ellipse fill="none" stroke="black" cx="1307.27" cy="-1534" rx="27" ry="18"/>
<text text-anchor="middle" x="1307.27" y="-1530.3" font-family="Times,serif" font-size="14.00">rhs</text>
</g>
<!-- n9&#45;&gt;n8 -->
<g id="edge3" class="edge">
<title>n9&#45;&gt;n8</title>
<path fill="none" stroke="black" d="M1083.01,-1534C1083.01,-1534 1269.96,-1534 1269.96,-1534"/>
<polygon fill="black" stroke="black" points="1269.96,-1537.5 1279.96,-1534 1269.96,-1530.5 1269.96,-1537.5"/>
</g>
<!-- n7 -->
<g id="node6" class="node">
<title>n7</title>
<ellipse fill="none" stroke="black" cx="1307.27" cy="-1588" rx="27" ry="18"/>
<text text-anchor="middle" x="1307.27" y="-1584.3" font-family="Times,serif" font-size="14.00">lhs</text>
</g>
<!-- n10 -->
<g id="node7" class="node">
<title>n10</title>
<ellipse fill="none" stroke="black" cx="1656.66" cy="-1534" rx="41.69" ry="18"/>
<text text-anchor="middle" x="1656.66" y="-1530.3" font-family="Times,serif" font-size="14.00">output</text>
</g>
<!-- n59 -->
<g id="node25" class="node">
<title>n59</title>
<ellipse fill="none" stroke="black" cx="2197.34" cy="-1463" rx="27" ry="18"/>
<text text-anchor="middle" x="2197.34" y="-1459.3" font-family="Times,serif" font-size="14.00">rhs</text>
</g>
<!-- n10&#45;&gt;n59 -->
<g id="edge44" class="edge">
<title>n10&#45;&gt;n59</title>
<path fill="none" stroke="black" d="M1693.8,-1525.86C1693.8,-1507.21 1693.8,-1463 1693.8,-1463 1693.8,-1463 2160.27,-1463 2160.27,-1463"/>
<polygon fill="black" stroke="black" points="2160.27,-1466.5 2170.27,-1463 2160.27,-1459.5 2160.27,-1466.5"/>
<text text-anchor="middle" x="1995.04" y="-1501.8" font-family="Times,serif" font-size="14.00">LATENCY_SETPOINT</text>
</g>
<!-- n49 -->
<g id="node36" class="node">
<title>n49</title>
<ellipse fill="none" stroke="black" cx="4291.47" cy="-1866" rx="48.99" ry="18"/>
<text text-anchor="middle" x="4291.47" y="-1862.3" font-family="Times,serif" font-size="14.00">setpoint</text>
</g>
<!-- n10&#45;&gt;n49 -->
<g id="edge43" class="edge">
<title>n10&#45;&gt;n49</title>
<path fill="none" stroke="black" d="M1693.8,-1542.26C1693.8,-1593.69 1693.8,-1868 1693.8,-1868 1693.8,-1868 4232.75,-1868 4232.75,-1868"/>
<polygon fill="black" stroke="black" points="4232.75,-1871.5 4242.75,-1868 4232.75,-1864.5 4232.75,-1871.5"/>
<text text-anchor="middle" x="2976.63" y="-1900.8" font-family="Times,serif" font-size="14.00">LATENCY_SETPOINT</text>
</g>
<!-- n8&#45;&gt;n10 -->
<!-- n13 -->
<g id="node9" class="node">
<title>n13</title>
<ellipse fill="none" stroke="black" cx="1656.66" cy="-2309" rx="31.4" ry="18"/>
<text text-anchor="middle" x="1656.66" y="-2305.3" font-family="Times,serif" font-size="14.00">2.00</text>
</g>
<!-- n12 -->
<g id="node10" class="node">
<title>n12</title>
<ellipse fill="none" stroke="black" cx="2197.34" cy="-2309" rx="27" ry="18"/>
<text text-anchor="middle" x="2197.34" y="-2305.3" font-family="Times,serif" font-size="14.00">lhs</text>
</g>
<!-- n13&#45;&gt;n12 -->
<g id="edge5" class="edge">
<title>n13&#45;&gt;n12</title>
<path fill="none" stroke="black" d="M1688.06,-2309C1688.06,-2309 2160.11,-2309 2160.11,-2309"/>
<polygon fill="black" stroke="black" points="2160.11,-2312.5 2170.11,-2309 2160.11,-2305.5 2160.11,-2312.5"/>
</g>
<!-- n15 -->
<g id="node11" class="node">
<title>n15</title>
<ellipse fill="none" stroke="black" cx="2729.53" cy="-2255" rx="41.69" ry="18"/>
<text text-anchor="middle" x="2729.53" y="-2251.3" font-family="Times,serif" font-size="14.00">output</text>
</g>
<!-- n33 -->
<g id="node39" class="node">
<title>n33</title>
<ellipse fill="none" stroke="black" cx="3240.13" cy="-2088" rx="40.09" ry="18"/>
<text text-anchor="middle" x="3240.13" y="-2084.3" font-family="Times,serif" font-size="14.00">inputs</text>
</g>
<!-- n15&#45;&gt;n33 -->
<g id="edge28" class="edge">
<title>n15&#45;&gt;n33</title>
<path fill="none" stroke="black" d="M2771.37,-2255C2893.48,-2255 3240.8,-2255 3240.8,-2255 3240.8,-2255 3240.8,-2116.19 3240.8,-2116.19"/>
<polygon fill="black" stroke="black" points="3244.3,-2116.19 3240.8,-2106.19 3237.3,-2116.19 3244.3,-2116.19"/>
<text text-anchor="middle" x="2976.63" y="-2186.8" font-family="Times,serif" font-size="14.00">UPPER_CONCURRENCY_LIMIT</text>
</g>
<!-- n14 -->
<g id="node12" class="node">
<title>n14</title>
<ellipse fill="none" stroke="black" cx="2197.34" cy="-2255" rx="27" ry="18"/>
<text text-anchor="middle" x="2197.34" y="-2251.3" font-family="Times,serif" font-size="14.00">rhs</text>
</g>
<!-- n14&#45;&gt;n15 -->
<!-- n18 -->
<g id="node13" class="node">
<title>n18</title>
<ellipse fill="none" stroke="black" cx="2729.53" cy="-409" rx="31.4" ry="18"/>
<text text-anchor="middle" x="2729.53" y="-405.3" font-family="Times,serif" font-size="14.00">5.00</text>
</g>
<!-- n17 -->
<g id="node14" class="node">
<title>n17</title>
<ellipse fill="none" stroke="black" cx="3240.13" cy="-409" rx="27" ry="18"/>
<text text-anchor="middle" x="3240.13" y="-405.3" font-family="Times,serif" font-size="14.00">lhs</text>
</g>
<!-- n18&#45;&gt;n17 -->
<g id="edge7" class="edge">
<title>n18&#45;&gt;n17</title>
<path fill="none" stroke="black" d="M2761.09,-409C2761.09,-409 3202.89,-409 3202.89,-409"/>
<polygon fill="black" stroke="black" points="3202.89,-412.5 3212.89,-409 3202.89,-405.5 3202.89,-412.5"/>
</g>
<!-- n20 -->
<g id="node15" class="node">
<title>n20</title>
<ellipse fill="none" stroke="black" cx="3720.73" cy="-355" rx="41.69" ry="18"/>
<text text-anchor="middle" x="3720.73" y="-351.3" font-family="Times,serif" font-size="14.00">output</text>
</g>
<!-- n22 -->
<g id="node17" class="node">
<title>n22</title>
<ellipse fill="none" stroke="black" cx="4291.47" cy="-355" rx="27" ry="18"/>
<text text-anchor="middle" x="4291.47" y="-351.3" font-family="Times,serif" font-size="14.00">lhs</text>
</g>
<!-- n20&#45;&gt;n22 -->
<g id="edge32" class="edge">
<title>n20&#45;&gt;n22</title>
<path fill="none" stroke="black" d="M3762.69,-355C3762.69,-355 4254.28,-355 4254.28,-355"/>
<polygon fill="black" stroke="black" points="4254.28,-358.5 4264.28,-355 4254.28,-351.5 4254.28,-358.5"/>
<text text-anchor="middle" x="3984.32" y="-358.8" font-family="Times,serif" font-size="14.00">CONCURRENCY_INCREMENT_SINGLE_TICK</text>
</g>
<!-- n19 -->
<g id="node16" class="node">
<title>n19</title>
<ellipse fill="none" stroke="black" cx="3240.13" cy="-355" rx="27" ry="18"/>
<text text-anchor="middle" x="3240.13" y="-351.3" font-family="Times,serif" font-size="14.00">rhs</text>
</g>
<!-- n19&#45;&gt;n20 -->
<!-- n24 -->
<g id="node18" class="node">
<title>n24</title>
<ellipse fill="none" stroke="black" cx="4455.2" cy="-382" rx="41.69" ry="18"/>
<text text-anchor="middle" x="4455.2" y="-378.3" font-family="Times,serif" font-size="14.00">output</text>
</g>
<!-- n26 -->
<g id="node41" class="node">
<title>n26</title>
<ellipse fill="none" stroke="black" cx="2197.34" cy="-963" rx="40.09" ry="18"/>
<text text-anchor="middle" x="2197.34" y="-959.3" font-family="Times,serif" font-size="14.00">inputs</text>
</g>
<!-- n24&#45;&gt;n26 -->
<g id="edge33" class="edge">
<title>n24&#45;&gt;n26</title>
<path fill="none" stroke="black" d="M4413.34,-382C4105.96,-382 2209.8,-382 2209.8,-382 2209.8,-382 2209.8,-935.61 2209.8,-935.61"/>
<polygon fill="black" stroke="black" points="2206.3,-935.61 2209.8,-945.61 2213.3,-935.61 2206.3,-935.61"/>
<text text-anchor="middle" x="3508.63" y="-225.8" font-family="Times,serif" font-size="14.00">CONCURRENCY_INCREMENT_INTEGRAL</text>
</g>
<!-- n23 -->
<g id="node19" class="node">
<title>n23</title>
<ellipse fill="none" stroke="black" cx="4291.47" cy="-409" rx="27" ry="18"/>
<text text-anchor="middle" x="4291.47" y="-405.3" font-family="Times,serif" font-size="14.00">rhs</text>
</g>
<!-- n23&#45;&gt;n24 -->
<!-- n57 -->
<g id="node20" class="node">
<title>n57</title>
<ellipse fill="none" stroke="black" cx="1656.66" cy="-627" rx="106.68" ry="18"/>
<text text-anchor="middle" x="1656.66" y="-623.3" font-family="Times,serif" font-size="14.00">desired_concurrency</text>
</g>
<!-- n54 -->
<g id="node21" class="node">
<title>n54</title>
<ellipse fill="none" stroke="black" cx="1656.66" cy="-890" rx="113.98" ry="18"/>
<text text-anchor="middle" x="1656.66" y="-886.3" font-family="Times,serif" font-size="14.00">accepted_concurrency</text>
</g>
<!-- n54&#45;&gt;n14 -->
<g id="edge23" class="edge">
<title>n54&#45;&gt;n14</title>
<path fill="none" stroke="black" d="M1722.8,-904.86C1722.8,-1052.79 1722.8,-2255 1722.8,-2255 1722.8,-2255 2160.12,-2255 2160.12,-2255"/>
<polygon fill="black" stroke="black" points="2160.12,-2258.5 2170.12,-2255 2160.12,-2251.5 2160.12,-2258.5"/>
<text text-anchor="middle" x="1995.04" y="-1933.8" font-family="Times,serif" font-size="14.00">ACCEPTED_CONCURRENCY</text>
</g>
<!-- n47 -->
<g id="node32" class="node">
<title>n47</title>
<ellipse fill="none" stroke="black" cx="4291.47" cy="-1758" rx="85.29" ry="18"/>
<text text-anchor="middle" x="4291.47" y="-1754.3" font-family="Times,serif" font-size="14.00">control_variable</text>
</g>
<!-- n54&#45;&gt;n47 -->
<g id="edge26" class="edge">
<title>n54&#45;&gt;n47</title>
<path fill="none" stroke="black" d="M1764.19,-896C2252.32,-896 4235.8,-896 4235.8,-896 4235.8,-896 4235.8,-1734.11 4235.8,-1734.11"/>
<polygon fill="black" stroke="black" points="4232.3,-1734.11 4235.8,-1744.11 4239.3,-1734.11 4232.3,-1734.11"/>
<text text-anchor="middle" x="2976.63" y="-1284.8" font-family="Times,serif" font-size="14.00">ACCEPTED_CONCURRENCY</text>
</g>
<!-- n54&#45;&gt;n26 -->
<g id="edge24" class="edge">
<title>n54&#45;&gt;n26</title>
<path fill="none" stroke="black" d="M1746.8,-901.09C1746.8,-921.51 1746.8,-963 1746.8,-963 1746.8,-963 2146.96,-963 2146.96,-963"/>
<polygon fill="black" stroke="black" points="2146.96,-966.5 2156.96,-963 2146.96,-959.5 2146.96,-966.5"/>
<text text-anchor="middle" x="1995.04" y="-929.8" font-family="Times,serif" font-size="14.00">ACCEPTED_CONCURRENCY</text>
</g>
<!-- n37 -->
<g id="node44" class="node">
<title>n37</title>
<ellipse fill="none" stroke="black" cx="2197.34" cy="-76" rx="35.19" ry="18"/>
<text text-anchor="middle" x="2197.34" y="-72.3" font-family="Times,serif" font-size="14.00">input</text>
</g>
<!-- n54&#45;&gt;n37 -->
<g id="edge25" class="edge">
<title>n54&#45;&gt;n37</title>
<path fill="none" stroke="black" d="M1764.05,-884C1918.72,-884 2185.8,-884 2185.8,-884 2185.8,-884 2185.8,-103.25 2185.8,-103.25"/>
<polygon fill="black" stroke="black" points="2189.3,-103.25 2185.8,-93.25 2182.3,-103.25 2189.3,-103.25"/>
<text text-anchor="middle" x="1995.04" y="-807.8" font-family="Times,serif" font-size="14.00">ACCEPTED_CONCURRENCY</text>
</g>
<!-- n55 -->
<g id="node22" class="node">
<title>n55</title>
<ellipse fill="none" stroke="black" cx="1656.66" cy="-836" rx="114.28" ry="18"/>
<text text-anchor="middle" x="1656.66" y="-832.3" font-family="Times,serif" font-size="14.00">incoming_concurrency</text>
</g>
<!-- n60 -->
<g id="node23" class="node">
<title>n60</title>
<ellipse fill="none" stroke="black" cx="2197.34" cy="-1409" rx="27" ry="18"/>
<text text-anchor="middle" x="2197.34" y="-1405.3" font-family="Times,serif" font-size="14.00">lhs</text>
</g>
<!-- n61 -->
<g id="node24" class="node">
<title>n61</title>
<ellipse fill="none" stroke="black" cx="2729.53" cy="-1409" rx="41.69" ry="18"/>
<text text-anchor="middle" x="2729.53" y="-1405.3" font-family="Times,serif" font-size="14.00">output</text>
</g>
<!-- n60&#45;&gt;n61 -->
<!-- n66 -->
<g id="node50" class="node">
<title>n66</title>
<ellipse fill="none" stroke="black" cx="3240.13" cy="-1684" rx="40.89" ry="18"/>
<text text-anchor="middle" x="3240.13" y="-1680.3" font-family="Times,serif" font-size="14.00">switch</text>
</g>
<!-- n61&#45;&gt;n66 -->
<g id="edge46" class="edge">
<title>n61&#45;&gt;n66</title>
<path fill="none" stroke="black" d="M2729.8,-1427.14C2729.8,-1488.66 2729.8,-1685.5 2729.8,-1685.5 2729.8,-1685.5 3189.23,-1685.5 3189.23,-1685.5"/>
<polygon fill="black" stroke="black" points="3189.23,-1689 3199.23,-1685.5 3189.23,-1682 3189.23,-1689"/>
<text text-anchor="middle" x="2976.63" y="-1432.8" font-family="Times,serif" font-size="14.00">IS_OVERLOAD_SWITCH</text>
</g>
<!-- n72 -->
<g id="node55" class="node">
<title>n72</title>
<ellipse fill="none" stroke="black" cx="3240.13" cy="-684" rx="40.89" ry="18"/>
<text text-anchor="middle" x="3240.13" y="-680.3" font-family="Times,serif" font-size="14.00">switch</text>
</g>
<!-- n61&#45;&gt;n72 -->
<g id="edge47" class="edge">
<title>n61&#45;&gt;n72</title>
<path fill="none" stroke="black" d="M2771.37,-1409C2893.48,-1409 3240.8,-1409 3240.8,-1409 3240.8,-1409 3240.8,-712.28 3240.8,-712.28"/>
<polygon fill="black" stroke="black" points="3244.3,-712.28 3240.8,-702.28 3237.3,-712.28 3244.3,-712.28"/>
<text text-anchor="middle" x="2976.63" y="-1391.8" font-family="Times,serif" font-size="14.00">IS_OVERLOAD_SWITCH</text>
</g>
<!-- n42 -->
<g id="node26" class="node">
<title>n42</title>
<ellipse fill="none" stroke="black" cx="798.43" cy="-1809" rx="35.19" ry="18"/>
<text text-anchor="middle" x="798.43" y="-1805.3" font-family="Times,serif" font-size="14.00">input</text>
</g>
<!-- n44 -->
<g id="node28" class="node">
<title>n44</title>
<ellipse fill="none" stroke="black" cx="1051.67" cy="-1755" rx="41.69" ry="18"/>
<text text-anchor="middle" x="1051.67" y="-1751.3" font-family="Times,serif" font-size="14.00">output</text>
</g>
<!-- n43&#45;&gt;n44 -->
<!-- n44&#45;&gt;n7 -->
<g id="edge41" class="edge">
<title>n44&#45;&gt;n7</title>
<path fill="none" stroke="black" d="M1088.8,-1746.49C1088.8,-1712.46 1088.8,-1588 1088.8,-1588 1088.8,-1588 1270.04,-1588 1270.04,-1588"/>
<polygon fill="black" stroke="black" points="1270.04,-1591.5 1280.04,-1588 1270.04,-1584.5 1270.04,-1591.5"/>
<text text-anchor="middle" x="1206.77" y="-1674.8" font-family="Times,serif" font-size="14.00">LATENCY_EMA</text>
</g>
<!-- n30 -->
<g id="node29" class="node">
<title>n30</title>
<ellipse fill="none" stroke="black" cx="1656.66" cy="-1130" rx="31.4" ry="18"/>
<text text-anchor="middle" x="1656.66" y="-1126.3" font-family="Times,serif" font-size="14.00">0.00</text>
</g>
<!-- n29 -->
<g id="node30" class="node">
<title>n29</title>
<ellipse fill="none" stroke="black" cx="2197.34" cy="-1130" rx="40.09" ry="18"/>
<text text-anchor="middle" x="2197.34" y="-1126.3" font-family="Times,serif" font-size="14.00">inputs</text>
</g>
<!-- n30&#45;&gt;n29 -->
<g id="edge12" class="edge">
<title>n30&#45;&gt;n29</title>
<path fill="none" stroke="black" d="M1688.06,-1130C1688.06,-1130 2146.9,-1130 2146.9,-1130"/>
<polygon fill="black" stroke="black" points="2146.9,-1133.5 2156.9,-1130 2146.9,-1126.5 2146.9,-1133.5"/>
</g>
<!-- n31 -->
<g id="node31" class="node">
<title>n31</title>
<ellipse fill="none" stroke="black" cx="2729.53" cy="-1130" rx="41.69" ry="18"/>
<text text-anchor="middle" x="2729.53" y="-1126.3" font-family="Times,serif" font-size="14.00">output</text>
</g>
<!-- n29&#45;&gt;n31 -->
<!-- n65 -->
<g id="node47" class="node">
<title>n65</title>
<ellipse fill="none" stroke="black" cx="3240.13" cy="-1630" rx="48.19" ry="18"/>
<text text-anchor="middle" x="3240.13" y="-1626.3" font-family="Times,serif" font-size="14.00">on_false</text>
</g>
<!-- n31&#45;&gt;n65 -->
<g id="edge29" class="edge">
<title>n31&#45;&gt;n65</title>
<path fill="none" stroke="black" d="M2769.05,-1136C2881.95,-1136 3197.8,-1136 3197.8,-1136 3197.8,-1136 3197.8,-1611.43 3197.8,-1611.43"/>
<polygon fill="black" stroke="black" points="3194.3,-1611.43 3197.8,-1621.43 3201.3,-1611.43 3194.3,-1611.43"/>
<text text-anchor="middle" x="2976.63" y="-1329.8" font-family="Times,serif" font-size="14.00">CONCURRENCY_INCREMENT_NORMAL</text>
</g>
<!-- n71 -->
<g id="node52" class="node">
<title>n71</title>
<ellipse fill="none" stroke="black" cx="3240.13" cy="-630" rx="48.19" ry="18"/>
<text text-anchor="middle" x="3240.13" y="-626.3" font-family="Times,serif" font-size="14.00">on_false</text>
</g>
<!-- n31&#45;&gt;n71 -->
<g id="edge30" class="edge">
<title>n31&#45;&gt;n71</title>
<path fill="none" stroke="black" d="M2768.8,-1124C2880.97,-1124 3194.8,-1124 3194.8,-1124 3194.8,-1124 3194.8,-646.25 3194.8,-646.25"/>
<polygon fill="black" stroke="black" points="3198.3,-646.25 3194.8,-636.25 3191.3,-646.25 3198.3,-646.25"/>
<text text-anchor="middle" x="2976.63" y="-722.8" font-family="Times,serif" font-size="14.00">CONCURRENCY_INCREMENT_NORMAL</text>
</g>
<!-- n46 -->
<g id="node33" class="node">
<title>n46</title>
<ellipse fill="none" stroke="black" cx="4291.47" cy="-1974" rx="30.59" ry="18"/>
<text text-anchor="middle" x="4291.47" y="-1970.3" font-family="Times,serif" font-size="14.00">max</text>
</g>
<!-- n50 -->
<g id="node34" class="node">
<title>n50</title>
<ellipse fill="none" stroke="black" cx="4291.47" cy="-1812" rx="50.89" ry="18"/>
<text text-anchor="middle" x="4291.47" y="-1808.3" font-family="Times,serif" font-size="14.00">optimize</text>
</g>
<!-- n51 -->
<g id="node35" class="node">
<title>n51</title>
<ellipse fill="none" stroke="black" cx="4455.2" cy="-1785" rx="41.69" ry="18"/>
<text text-anchor="middle" x="4455.2" y="-1781.3" font-family="Times,serif" font-size="14.00">output</text>
</g>
<!-- n50&#45;&gt;n51 -->
<!-- n51&#45;&gt;n57 -->
<g id="edge45" class="edge">
<title>n51&#45;&gt;n57</title>
<path fill="none" stroke="black" d="M4413.54,-1783.5C4088.01,-1783.5 1964.8,-1783.5 1964.8,-1783.5 1964.8,-1783.5 1964.8,-628.5 1964.8,-628.5 1964.8,-628.5 1773.13,-628.5 1773.13,-628.5"/>
<polygon fill="black" stroke="black" points="1773.13,-625 1763.13,-628.5 1773.13,-632 1773.13,-625"/>
<text text-anchor="middle" x="3240.13" y="-846.8" font-family="Times,serif" font-size="14.00">DESIRED_CONCURRENCY</text>
</g>
<!-- n48 -->
<g id="node37" class="node">
<title>n48</title>
<ellipse fill="none" stroke="black" cx="4291.47" cy="-1920" rx="38.19" ry="18"/>
<text text-anchor="middle" x="4291.47" y="-1916.3" font-family="Times,serif" font-size="14.00">signal</text>
</g>
<!-- n34 -->
<g id="node38" class="node">
<title>n34</title>
<ellipse fill="none" stroke="black" cx="2729.53" cy="-2088" rx="37.09" ry="18"/>
<text text-anchor="middle" x="2729.53" y="-2084.3" font-family="Times,serif" font-size="14.00">10.00</text>
</g>
<!-- n34&#45;&gt;n33 -->
<g id="edge15" class="edge">
<title>n34&#45;&gt;n33</title>
<path fill="none" stroke="black" d="M2766.67,-2088C2766.67,-2088 3189.63,-2088 3189.63,-2088"/>
<polygon fill="black" stroke="black" points="3189.63,-2091.5 3199.63,-2088 3189.63,-2084.5 3189.63,-2091.5"/>
</g>
<!-- n35 -->
<g id="node40" class="node">
<title>n35</title>
<ellipse fill="none" stroke="black" cx="3720.73" cy="-2088" rx="41.69" ry="18"/>
<text text-anchor="middle" x="3720.73" y="-2084.3" font-family="Times,serif" font-size="14.00">output</text>
</g>
<!-- n33&#45;&gt;n35 -->
<!-- n35&#45;&gt;n46 -->
<g id="edge36" class="edge">
<title>n35&#45;&gt;n46</title>
<path fill="none" stroke="black" d="M3762.72,-2088C3894.6,-2088 4291.8,-2088 4291.8,-2088 4291.8,-2088 4291.8,-2002.06 4291.8,-2002.06"/>
<polygon fill="black" stroke="black" points="4295.3,-2002.06 4291.8,-1992.06 4288.3,-2002.06 4295.3,-2002.06"/>
<text text-anchor="middle" x="3984.32" y="-2002.8" font-family="Times,serif" font-size="14.00">MAX_CONCURRENCY</text>
</g>
<!-- n27 -->
<g id="node42" class="node">
<title>n27</title>
<ellipse fill="none" stroke="black" cx="2729.53" cy="-963" rx="41.69" ry="18"/>
<text text-anchor="middle" x="2729.53" y="-959.3" font-family="Times,serif" font-size="14.00">output</text>
</g>
<!-- n26&#45;&gt;n27 -->
<!-- n27&#45;&gt;n29 -->
<g id="edge35" class="edge">
<title>n27&#45;&gt;n29</title>
<path fill="none" stroke="black" d="M2690.18,-969C2615.98,-969 2462.8,-969 2462.8,-969 2462.8,-969 2462.8,-1124 2462.8,-1124 2462.8,-1124 2245.38,-1124 2245.38,-1124"/>
<polygon fill="black" stroke="black" points="2245.38,-1120.5 2235.38,-1124 2245.38,-1127.5 2245.38,-1120.5"/>
<text text-anchor="middle" x="2442.14" y="-1051.8" font-family="Times,serif" font-size="14.00">CONCURRENCY_INCREMENT_INTEGRAL_CAPPED</text>
</g>
<!-- n40 -->
<g id="node43" class="node">
<title>n40</title>
<ellipse fill="none" stroke="black" cx="99.6" cy="-1870" rx="41.69" ry="18"/>
<text text-anchor="middle" x="99.6" y="-1866.3" font-family="Times,serif" font-size="14.00">output</text>
</g>
<!-- n40&#45;&gt;n2 -->
<g id="edge37" class="edge">
<title>n40&#45;&gt;n2</title>
<path fill="none" stroke="black" d="M136.8,-1861.95C136.8,-1828.59 136.8,-1703 136.8,-1703 136.8,-1703 276.86,-1703 276.86,-1703"/>
<polygon fill="black" stroke="black" points="276.86,-1706.5 286.86,-1703 276.86,-1699.5 276.86,-1706.5"/>
<text text-anchor="middle" x="234.19" y="-1772.8" font-family="Times,serif" font-size="14.00">LATENCY</text>
</g>
<!-- n40&#45;&gt;n60 -->
<g id="edge40" class="edge">
<title>n40&#45;&gt;n60</title>
<path fill="none" stroke="black" d="M133.8,-1859.51C133.8,-1790.89 133.8,-1409 133.8,-1409 133.8,-1409 2160.11,-1409 2160.11,-1409"/>
<polygon fill="black" stroke="black" points="2160.11,-1412.5 2170.11,-1409 2160.11,-1405.5 2160.11,-1412.5"/>
<text text-anchor="middle" x="927.47" y="-1409.8" font-family="Times,serif" font-size="14.00">LATENCY</text>
</g>
<!-- n40&#45;&gt;n42 -->
<g id="edge38" class="edge">
<title>n40&#45;&gt;n42</title>
<path fill="none" stroke="black" d="M138.8,-1863.93C138.8,-1848.5 138.8,-1809 138.8,-1809 138.8,-1809 752.96,-1809 752.96,-1809"/>
<polygon fill="black" stroke="black" points="752.96,-1812.5 762.96,-1809 752.96,-1805.5 752.96,-1812.5"/>
<text text-anchor="middle" x="394.19" y="-1869.8" font-family="Times,serif" font-size="14.00">LATENCY</text>
</g>
<!-- n40&#45;&gt;n48 -->
<g id="edge39" class="edge">
<title>n40&#45;&gt;n48</title>
<path fill="none" stroke="black" d="M99.8,-1888.05C99.8,-1902.37 99.8,-1920 99.8,-1920 99.8,-1920 4242.97,-1920 4242.97,-1920"/>
<polygon fill="black" stroke="black" points="4242.97,-1923.5 4252.97,-1920 4242.97,-1916.5 4242.97,-1923.5"/>
<text text-anchor="middle" x="1387.27" y="-1963.8" font-family="Times,serif" font-size="14.00">LATENCY</text>
</g>
<!-- n38 -->
<g id="node45" class="node">
<title>n38</title>
<ellipse fill="none" stroke="black" cx="2729.53" cy="-76" rx="41.69" ry="18"/>
<text text-anchor="middle" x="2729.53" y="-72.3" font-family="Times,serif" font-size="14.00">output</text>
</g>
<!-- n37&#45;&gt;n38 -->
<!-- n38&#45;&gt;n19 -->
<g id="edge34" class="edge">
<title>n38&#45;&gt;n19</title>
<path fill="none" stroke="black" d="M2766.8,-84.05C2766.8,-129.79 2766.8,-355 2766.8,-355 2766.8,-355 3202.98,-355 3202.98,-355"/>
<polygon fill="black" stroke="black" points="3202.98,-358.5 3212.98,-355 3202.98,-351.5 3202.98,-358.5"/>
<text text-anchor="middle" x="2976.63" y="-140.8" font-family="Times,serif" font-size="14.00">SQRT_CONCURRENCY_INCREMENT</text>
</g>
<!-- n64 -->
<g id="node46" class="node">
<title>n64</title>
<ellipse fill="none" stroke="black" cx="2729.53" cy="-1738" rx="42.79" ry="18"/>
<text text-anchor="middle" x="2729.53" y="-1734.3" font-family="Times,serif" font-size="14.00">100.00</text>
</g>
<!-- n63 -->
<g id="node48" class="node">
<title>n63</title>
<ellipse fill="none" stroke="black" cx="3240.13" cy="-1738" rx="46.29" ry="18"/>
<text text-anchor="middle" x="3240.13" y="-1734.3" font-family="Times,serif" font-size="14.00">on_true</text>
</g>
<!-- n64&#45;&gt;n63 -->
<g id="edge19" class="edge">
<title>n64&#45;&gt;n63</title>
<path fill="none" stroke="black" d="M2772.63,-1738C2772.63,-1738 3183.67,-1738 3183.67,-1738"/>
<polygon fill="black" stroke="black" points="3183.67,-1741.5 3193.67,-1738 3183.67,-1734.5 3183.67,-1741.5"/>
</g>
<!-- n67 -->
<g id="node49" class="node">
<title>n67</title>
<ellipse fill="none" stroke="black" cx="3720.73" cy="-1724" rx="41.69" ry="18"/>
<text text-anchor="middle" x="3720.73" y="-1720.3" font-family="Times,serif" font-size="14.00">output</text>
</g>
<!-- n67&#45;&gt;n50 -->
<g id="edge31" class="edge">
<title>n67&#45;&gt;n50</title>
<path fill="none" stroke="black" d="M3720.8,-1742.34C3720.8,-1767.74 3720.8,-1810.5 3720.8,-1810.5 3720.8,-1810.5 4230.82,-1810.5 4230.82,-1810.5"/>
<polygon fill="black" stroke="black" points="4230.82,-1814 4240.82,-1810.5 4230.82,-1807 4230.82,-1814"/>
<text text-anchor="middle" x="3984.32" y="-1790.8" font-family="Times,serif" font-size="14.00">CONCURRENCY_INCREMENT</text>
</g>
<!-- n66&#45;&gt;n67 -->
<!-- n70 -->
<g id="node51" class="node">
<title>n70</title>
<ellipse fill="none" stroke="black" cx="2729.53" cy="-576" rx="31.4" ry="18"/>
<text text-anchor="middle" x="2729.53" y="-572.3" font-family="Times,serif" font-size="14.00">0.00</text>
</g>
<!-- n69 -->
<g id="node53" class="node">
<title>n69</title>
<ellipse fill="none" stroke="black" cx="3240.13" cy="-576" rx="46.29" ry="18"/>
<text text-anchor="middle" x="3240.13" y="-572.3" font-family="Times,serif" font-size="14.00">on_true</text>
</g>
<!-- n70&#45;&gt;n69 -->
<g id="edge21" class="edge">
<title>n70&#45;&gt;n69</title>
<path fill="none" stroke="black" d="M2761.09,-576C2761.09,-576 3183.88,-576 3183.88,-576"/>
<polygon fill="black" stroke="black" points="3183.88,-579.5 3193.88,-576 3183.88,-572.5 3183.88,-579.5"/>
</g>
<!-- n73 -->
<g id="node54" class="node">
<title>n73</title>
<ellipse fill="none" stroke="black" cx="3720.73" cy="-630" rx="41.69" ry="18"/>
<text text-anchor="middle" x="3720.73" y="-626.3" font-family="Times,serif" font-size="14.00">output</text>
</g>
<!-- n73&#45;&gt;n23 -->
<g id="edge42" class="edge">
<title>n73&#45;&gt;n23</title>
<path fill="none" stroke="black" d="M3762.72,-630C3894.6,-630 4291.8,-630 4291.8,-630 4291.8,-630 4291.8,-437.09 4291.8,-437.09"/>
<polygon fill="black" stroke="black" points="4295.3,-437.09 4291.8,-427.09 4288.3,-437.09 4295.3,-437.09"/>
<text text-anchor="middle" x="3984.32" y="-522.8" font-family="Times,serif" font-size="14.00">CONCURRENCY_INCREMENT_FEEDBACK</text>
</g>
<!-- n72&#45;&gt;n73 -->
</g>
</svg>
