<?xml version="1.0" encoding="UTF-8" standalone="no"?>
<!DOCTYPE svg PUBLIC "-//W3C//DTD SVG 1.1//EN"
 "http://www.w3.org/Graphics/SVG/1.1/DTD/svg11.dtd">
<!-- Generated by graphviz version 6.0.1 (20220911.1526)
 -->
<!-- Pages: 1 -->
<svg width="2324pt" height="2926pt"
 viewBox="0.00 0.00 2324.14 2926.00" xmlns="http://www.w3.org/2000/svg" xmlns:xlink="http://www.w3.org/1999/xlink">
<g id="graph0" class="graph" transform="scale(1 1) rotate(0) translate(4 2922)">
<polygon fill="white" stroke="none" points="-4,4 -4,-2922 2320.14,-2922 2320.14,4 -4,4"/>
<g id="clust1" class="cluster">
<title>cluster_s1</title>
<polygon fill="none" stroke="black" points="18.4,-1479 18.4,-1692 422.39,-1692 422.39,-1479 18.4,-1479"/>
<text text-anchor="middle" x="220.39" y="-1676.8" font-family="Times,serif" font-size="14.00">ArithmeticCombinator[0]</text>
</g>
<g id="clust4" class="cluster">
<title>cluster_s6</title>
<polygon fill="none" stroke="black" points="1464.49,-2197 1464.49,-2410 1910.66,-2410 1910.66,-2197 1464.49,-2197"/>
<text text-anchor="middle" x="1687.58" y="-2394.8" font-family="Times,serif" font-size="14.00">ArithmeticCombinator[1]</text>
</g>
<g id="clust7" class="cluster">
<title>cluster_s11</title>
<polygon fill="none" stroke="black" points="1333.34,-1201 1333.34,-1414 1637.28,-1414 1637.28,-1201 1333.34,-1201"/>
<text text-anchor="middle" x="1485.31" y="-1398.8" font-family="Times,serif" font-size="14.00">ArithmeticCombinator[2]</text>
</g>
<g id="clust10" class="cluster">
<title>cluster_s15</title>
<polygon fill="none" stroke="black" points="1333.34,-980 1333.34,-1193 1637.28,-1193 1637.28,-980 1333.34,-980"/>
<text text-anchor="middle" x="1485.31" y="-1177.8" font-family="Times,serif" font-size="14.00">ArithmeticCombinator[3]</text>
</g>
<g id="clust13" class="cluster">
<title>cluster_s19</title>
<polygon fill="none" stroke="black" points="1016.46,-2697 1016.46,-2910 1637.28,-2910 1637.28,-2697 1016.46,-2697"/>
<text text-anchor="middle" x="1326.87" y="-2894.8" font-family="Times,serif" font-size="14.00">ArithmeticCombinator[4]</text>
</g>
<g id="clust16" class="cluster">
<title>cluster_s24</title>
<polygon fill="none" stroke="black" points="640.47,-1812 640.47,-2025 1189.25,-2025 1189.25,-1812 640.47,-1812"/>
<text text-anchor="middle" x="914.86" y="-2009.8" font-family="Times,serif" font-size="14.00">ArithmeticCombinator[5]</text>
</g>
<g id="clust19" class="cluster">
<title>cluster_s29</title>
<polygon fill="none" stroke="black" points="1464.49,-287 1464.49,-500 1910.66,-500 1910.66,-287 1464.49,-287"/>
<text text-anchor="middle" x="1687.58" y="-484.8" font-family="Times,serif" font-size="14.00">ArithmeticCombinator[6]</text>
</g>
<g id="clust22" class="cluster">
<title>cluster_s34</title>
<polygon fill="none" stroke="black" points="1976.81,-287 1976.81,-500 2308.14,-500 2308.14,-287 1976.81,-287"/>
<text text-anchor="middle" x="2142.47" y="-484.8" font-family="Times,serif" font-size="14.00">ArithmeticCombinator[7]</text>
</g>
<g id="clust25" class="cluster">
<title>cluster_s65</title>
<polygon fill="none" stroke="black" points="883.27,-869 883.27,-1414 1312.04,-1414 1312.04,-869 883.27,-869"/>
<text text-anchor="middle" x="1097.66" y="-1398.8" font-family="Times,serif" font-size="14.00">ConcurrencyLimiter[15]</text>
</g>
<g id="clust26" class="cluster">
<title>cluster_s69</title>
<polygon fill="none" stroke="black" points="941.26,-919 941.26,-1078 1255.05,-1078 1255.05,-919 941.26,-919"/>
<text text-anchor="middle" x="1098.16" y="-1062.8" font-family="Times,serif" font-size="14.00">LoadShedActuator[15.LoadShedActuator]</text>
</g>
<g id="clust28" class="cluster">
<title>cluster_s66</title>
<polygon fill="none" stroke="black" points="933.27,-1128 933.27,-1341 1262.04,-1341 1262.04,-1128 933.27,-1128"/>
<text text-anchor="middle" x="1097.66" y="-1325.8" font-family="Times,serif" font-size="14.00">Scheduler[15.Scheduler]</text>
</g>
<g id="clust30" class="cluster">
<title>cluster_s71</title>
<polygon fill="none" stroke="black" points="1333.34,-1589 1333.34,-1802 1637.28,-1802 1637.28,-1589 1333.34,-1589"/>
<text text-anchor="middle" x="1485.31" y="-1786.8" font-family="Times,serif" font-size="14.00">Decider[16]</text>
</g>
<g id="clust33" class="cluster">
<title>cluster_s54</title>
<polygon fill="none" stroke="black" points="430.39,-2033 430.39,-2246 813.27,-2246 813.27,-2033 430.39,-2033"/>
<text text-anchor="middle" x="621.83" y="-2230.8" font-family="Times,serif" font-size="14.00">EMA[13]</text>
</g>
<g id="clust36" class="cluster">
<title>cluster_s41</title>
<polygon fill="none" stroke="black" points="1016.46,-1422 1016.46,-1581 1637.28,-1581 1637.28,-1422 1016.46,-1422"/>
<text text-anchor="middle" x="1326.87" y="-1565.8" font-family="Times,serif" font-size="14.00">FirstValid[9]</text>
</g>
<g id="clust39" class="cluster">
<title>cluster_s58</title>
<polygon fill="none" stroke="black" points="1918.66,-2046 1918.66,-2421 2308.14,-2421 2308.14,-2046 1918.66,-2046"/>
<text text-anchor="middle" x="2113.4" y="-2405.8" font-family="Times,serif" font-size="14.00">Gradient[14]</text>
</g>
<g id="clust42" class="cluster">
<title>cluster_s45</title>
<polygon fill="none" stroke="black" points="1458.64,-2530 1458.64,-2689 1910.66,-2689 1910.66,-2530 1458.64,-2530"/>
<text text-anchor="middle" x="1684.65" y="-2673.8" font-family="Times,serif" font-size="14.00">Max[10]</text>
</g>
<g id="clust45" class="cluster">
<title>cluster_s38</title>
<polygon fill="none" stroke="black" points="1320.04,-783 1320.04,-942 1637.28,-942 1637.28,-783 1320.04,-783"/>
<text text-anchor="middle" x="1478.66" y="-926.8" font-family="Times,serif" font-size="14.00">Min[8]</text>
</g>
<g id="clust48" class="cluster">
<title>cluster_s52</title>
<polygon fill="none" stroke="black" points="8,-1802 8,-1961 191.19,-1961 191.19,-1802 8,-1802"/>
<text text-anchor="middle" x="99.6" y="-1945.8" font-family="Times,serif" font-size="14.00">PromQL[12]</text>
</g>
<g id="clust50" class="cluster">
<title>cluster_s49</title>
<polygon fill="none" stroke="black" points="1325.24,-8 1325.24,-167 1637.28,-167 1637.28,-8 1325.24,-8"/>
<text text-anchor="middle" x="1481.26" y="-151.8" font-family="Times,serif" font-size="14.00">Sqrt[11]</text>
</g>
<g id="clust53" class="cluster">
<title>cluster_s75</title>
<polygon fill="none" stroke="black" points="1458.64,-1922 1458.64,-2189 1910.66,-2189 1910.66,-1922 1458.64,-1922"/>
<text text-anchor="middle" x="1684.65" y="-2173.8" font-family="Times,serif" font-size="14.00">Switcher[17]</text>
</g>
<g id="clust56" class="cluster">
<title>cluster_s81</title>
<polygon fill="none" stroke="black" points="1464.49,-508 1464.49,-775 1910.66,-775 1910.66,-508 1464.49,-508"/>
<text text-anchor="middle" x="1687.58" y="-759.8" font-family="Times,serif" font-size="14.00">Switcher[18]</text>
</g>
<!-- n4 -->
<g id="node1" class="node">
<title>n4</title>
<ellipse fill="none" stroke="black" cx="99.6" cy="-1547" rx="31.4" ry="18"/>
<text text-anchor="middle" x="99.6" y="-1543.3" font-family="Times,serif" font-size="14.00">2.00</text>
</g>
<!-- n3 -->
<g id="node4" class="node">
<title>n3</title>
<ellipse fill="none" stroke="black" cx="226.19" cy="-1547" rx="27" ry="18"/>
<text text-anchor="middle" x="226.19" y="-1543.3" font-family="Times,serif" font-size="14.00">rhs</text>
</g>
<!-- n4&#45;&gt;n3 -->
<g id="edge1" class="edge">
<title>n4&#45;&gt;n3</title>
<path fill="none" stroke="black" d="M130.89,-1547C130.89,-1547 189.12,-1547 189.12,-1547"/>
<polygon fill="black" stroke="black" points="189.12,-1550.5 199.12,-1547 189.12,-1543.5 189.12,-1550.5"/>
</g>
<!-- n2 -->
<g id="node2" class="node">
<title>n2</title>
<ellipse fill="none" stroke="black" cx="226.19" cy="-1601" rx="27" ry="18"/>
<text text-anchor="middle" x="226.19" y="-1597.3" font-family="Times,serif" font-size="14.00">lhs</text>
</g>
<!-- n5 -->
<g id="node3" class="node">
<title>n5</title>
<ellipse fill="none" stroke="black" cx="330.79" cy="-1574" rx="41.69" ry="18"/>
<text text-anchor="middle" x="330.79" y="-1570.3" font-family="Times,serif" font-size="14.00">output</text>
</g>
<!-- n55 -->
<g id="node37" class="node">
<title>n55</title>
<ellipse fill="none" stroke="black" cx="556.43" cy="-2101" rx="76.09" ry="18"/>
<text text-anchor="middle" x="556.43" y="-2097.3" font-family="Times,serif" font-size="14.00">max_envelope</text>
</g>
<!-- n5&#45;&gt;n55 -->
<g id="edge35" class="edge">
<title>n5&#45;&gt;n55</title>
<path fill="none" stroke="black" d="M331.14,-1592.14C331.14,-1684.81 331.14,-2101 331.14,-2101 331.14,-2101 470.16,-2101 470.16,-2101"/>
<polygon fill="black" stroke="black" points="470.16,-2104.5 480.16,-2101 470.16,-2097.5 470.16,-2104.5"/>
</g>
<!-- n3&#45;&gt;n5 -->
<!-- n9 -->
<g id="node5" class="node">
<title>n9</title>
<ellipse fill="none" stroke="black" cx="1545.68" cy="-2319" rx="31.4" ry="18"/>
<text text-anchor="middle" x="1545.68" y="-2315.3" font-family="Times,serif" font-size="14.00">1.10</text>
</g>
<!-- n8 -->
<g id="node8" class="node">
<title>n8</title>
<ellipse fill="none" stroke="black" cx="1693.38" cy="-2319" rx="27" ry="18"/>
<text text-anchor="middle" x="1693.38" y="-2315.3" font-family="Times,serif" font-size="14.00">rhs</text>
</g>
<!-- n9&#45;&gt;n8 -->
<g id="edge3" class="edge">
<title>n9&#45;&gt;n8</title>
<path fill="none" stroke="black" d="M1577.01,-2319C1577.01,-2319 1656.07,-2319 1656.07,-2319"/>
<polygon fill="black" stroke="black" points="1656.07,-2322.5 1666.07,-2319 1656.07,-2315.5 1656.07,-2322.5"/>
</g>
<!-- n7 -->
<g id="node6" class="node">
<title>n7</title>
<ellipse fill="none" stroke="black" cx="1693.38" cy="-2265" rx="27" ry="18"/>
<text text-anchor="middle" x="1693.38" y="-2261.3" font-family="Times,serif" font-size="14.00">lhs</text>
</g>
<!-- n10 -->
<g id="node7" class="node">
<title>n10</title>
<ellipse fill="none" stroke="black" cx="1819.07" cy="-2292" rx="41.69" ry="18"/>
<text text-anchor="middle" x="1819.07" y="-2288.3" font-family="Times,serif" font-size="14.00">output</text>
</g>
<!-- n60 -->
<g id="node46" class="node">
<title>n60</title>
<ellipse fill="none" stroke="black" cx="2053.81" cy="-2222" rx="48.99" ry="18"/>
<text text-anchor="middle" x="2053.81" y="-2218.3" font-family="Times,serif" font-size="14.00">setpoint</text>
</g>
<!-- n10&#45;&gt;n60 -->
<g id="edge54" class="edge">
<title>n10&#45;&gt;n60</title>
<path fill="none" stroke="black" d="M1856.56,-2284C1912.46,-2284 2011.14,-2284 2011.14,-2284 2011.14,-2284 2011.14,-2240.88 2011.14,-2240.88"/>
<polygon fill="black" stroke="black" points="2014.64,-2240.88 2011.14,-2230.88 2007.64,-2240.88 2014.64,-2240.88"/>
</g>
<!-- n8&#45;&gt;n10 -->
<!-- n13 -->
<g id="node9" class="node">
<title>n13</title>
<ellipse fill="none" stroke="black" cx="1410.34" cy="-1269" rx="27" ry="18"/>
<text text-anchor="middle" x="1410.34" y="-1265.3" font-family="Times,serif" font-size="14.00">lhs</text>
</g>
<!-- n14 -->
<g id="node10" class="node">
<title>n14</title>
<ellipse fill="none" stroke="black" cx="1545.68" cy="-1269" rx="41.69" ry="18"/>
<text text-anchor="middle" x="1545.68" y="-1265.3" font-family="Times,serif" font-size="14.00">output</text>
</g>
<!-- n13&#45;&gt;n14 -->
<!-- n16 -->
<g id="node12" class="node">
<title>n16</title>
<ellipse fill="none" stroke="black" cx="1410.34" cy="-1102" rx="27" ry="18"/>
<text text-anchor="middle" x="1410.34" y="-1098.3" font-family="Times,serif" font-size="14.00">lhs</text>
</g>
<!-- n14&#45;&gt;n16 -->
<g id="edge55" class="edge">
<title>n14&#45;&gt;n16</title>
<path fill="none" stroke="black" d="M1546.14,-1250.81C1546.14,-1207.53 1546.14,-1102 1546.14,-1102 1546.14,-1102 1447.5,-1102 1447.5,-1102"/>
<polygon fill="black" stroke="black" points="1447.5,-1098.5 1437.5,-1102 1447.5,-1105.5 1447.5,-1098.5"/>
</g>
<!-- n12 -->
<g id="node11" class="node">
<title>n12</title>
<ellipse fill="none" stroke="black" cx="1410.34" cy="-1323" rx="27" ry="18"/>
<text text-anchor="middle" x="1410.34" y="-1319.3" font-family="Times,serif" font-size="14.00">rhs</text>
</g>
<!-- n18 -->
<g id="node13" class="node">
<title>n18</title>
<ellipse fill="none" stroke="black" cx="1545.68" cy="-1048" rx="41.69" ry="18"/>
<text text-anchor="middle" x="1545.68" y="-1044.3" font-family="Times,serif" font-size="14.00">output</text>
</g>
<!-- n70 -->
<g id="node30" class="node">
<title>n70</title>
<ellipse fill="none" stroke="black" cx="1097.66" cy="-987" rx="88.28" ry="18"/>
<text text-anchor="middle" x="1097.66" y="-983.3" font-family="Times,serif" font-size="14.00">load_shed_factor</text>
</g>
<!-- n18&#45;&gt;n70 -->
<g id="edge36" class="edge">
<title>n18&#45;&gt;n70</title>
<path fill="none" stroke="black" d="M1546.14,-1029.7C1546.14,-1011.73 1546.14,-987 1546.14,-987 1546.14,-987 1196.26,-987 1196.26,-987"/>
<polygon fill="black" stroke="black" points="1196.26,-983.5 1186.26,-987 1196.26,-990.5 1196.26,-983.5"/>
</g>
<!-- n17 -->
<g id="node14" class="node">
<title>n17</title>
<ellipse fill="none" stroke="black" cx="1410.34" cy="-1048" rx="27" ry="18"/>
<text text-anchor="middle" x="1410.34" y="-1044.3" font-family="Times,serif" font-size="14.00">rhs</text>
</g>
<!-- n17&#45;&gt;n18 -->
<!-- n21 -->
<g id="node15" class="node">
<title>n21</title>
<ellipse fill="none" stroke="black" cx="1097.66" cy="-2819" rx="31.4" ry="18"/>
<text text-anchor="middle" x="1097.66" y="-2815.3" font-family="Times,serif" font-size="14.00">2.00</text>
</g>
<!-- n20 -->
<g id="node16" class="node">
<title>n20</title>
<ellipse fill="none" stroke="black" cx="1410.34" cy="-2819" rx="27" ry="18"/>
<text text-anchor="middle" x="1410.34" y="-2815.3" font-family="Times,serif" font-size="14.00">lhs</text>
</g>
<!-- n21&#45;&gt;n20 -->
<g id="edge7" class="edge">
<title>n21&#45;&gt;n20</title>
<path fill="none" stroke="black" d="M1129.07,-2819C1129.07,-2819 1373.01,-2819 1373.01,-2819"/>
<polygon fill="black" stroke="black" points="1373.01,-2822.5 1383.01,-2819 1373.01,-2815.5 1373.01,-2822.5"/>
</g>
<!-- n23 -->
<g id="node17" class="node">
<title>n23</title>
<ellipse fill="none" stroke="black" cx="1545.68" cy="-2765" rx="41.69" ry="18"/>
<text text-anchor="middle" x="1545.68" y="-2761.3" font-family="Times,serif" font-size="14.00">output</text>
</g>
<!-- n46 -->
<g id="node49" class="node">
<title>n46</title>
<ellipse fill="none" stroke="black" cx="1693.38" cy="-2598" rx="40.09" ry="18"/>
<text text-anchor="middle" x="1693.38" y="-2594.3" font-family="Times,serif" font-size="14.00">inputs</text>
</g>
<!-- n23&#45;&gt;n46 -->
<g id="edge56" class="edge">
<title>n23&#45;&gt;n46</title>
<path fill="none" stroke="black" d="M1587.43,-2765C1631.34,-2765 1694.14,-2765 1694.14,-2765 1694.14,-2765 1694.14,-2626.19 1694.14,-2626.19"/>
<polygon fill="black" stroke="black" points="1697.64,-2626.19 1694.14,-2616.19 1690.64,-2626.19 1697.64,-2626.19"/>
</g>
<!-- n22 -->
<g id="node18" class="node">
<title>n22</title>
<ellipse fill="none" stroke="black" cx="1410.34" cy="-2765" rx="27" ry="18"/>
<text text-anchor="middle" x="1410.34" y="-2761.3" font-family="Times,serif" font-size="14.00">rhs</text>
</g>
<!-- n22&#45;&gt;n23 -->
<!-- n27 -->
<g id="node19" class="node">
<title>n27</title>
<ellipse fill="none" stroke="black" cx="721.67" cy="-1880" rx="31.4" ry="18"/>
<text text-anchor="middle" x="721.67" y="-1876.3" font-family="Times,serif" font-size="14.00">1.10</text>
</g>
<!-- n26 -->
<g id="node22" class="node">
<title>n26</title>
<ellipse fill="none" stroke="black" cx="848.27" cy="-1880" rx="27" ry="18"/>
<text text-anchor="middle" x="848.27" y="-1876.3" font-family="Times,serif" font-size="14.00">rhs</text>
</g>
<!-- n27&#45;&gt;n26 -->
<g id="edge9" class="edge">
<title>n27&#45;&gt;n26</title>
<path fill="none" stroke="black" d="M752.96,-1880C752.96,-1880 811.19,-1880 811.19,-1880"/>
<polygon fill="black" stroke="black" points="811.19,-1883.5 821.19,-1880 811.19,-1876.5 811.19,-1883.5"/>
</g>
<!-- n25 -->
<g id="node20" class="node">
<title>n25</title>
<ellipse fill="none" stroke="black" cx="848.27" cy="-1934" rx="27" ry="18"/>
<text text-anchor="middle" x="848.27" y="-1930.3" font-family="Times,serif" font-size="14.00">lhs</text>
</g>
<!-- n28 -->
<g id="node21" class="node">
<title>n28</title>
<ellipse fill="none" stroke="black" cx="1097.66" cy="-1880" rx="41.69" ry="18"/>
<text text-anchor="middle" x="1097.66" y="-1876.3" font-family="Times,serif" font-size="14.00">output</text>
</g>
<!-- n72 -->
<g id="node35" class="node">
<title>n72</title>
<ellipse fill="none" stroke="black" cx="1410.34" cy="-1711" rx="27" ry="18"/>
<text text-anchor="middle" x="1410.34" y="-1707.3" font-family="Times,serif" font-size="14.00">rhs</text>
</g>
<!-- n28&#45;&gt;n72 -->
<g id="edge37" class="edge">
<title>n28&#45;&gt;n72</title>
<path fill="none" stroke="black" d="M1134.14,-1870.91C1134.14,-1835.81 1134.14,-1711 1134.14,-1711 1134.14,-1711 1373.1,-1711 1373.1,-1711"/>
<polygon fill="black" stroke="black" points="1373.1,-1714.5 1383.1,-1711 1373.1,-1707.5 1373.1,-1714.5"/>
</g>
<!-- n26&#45;&gt;n28 -->
<!-- n31 -->
<g id="node23" class="node">
<title>n31</title>
<ellipse fill="none" stroke="black" cx="1545.68" cy="-409" rx="31.4" ry="18"/>
<text text-anchor="middle" x="1545.68" y="-405.3" font-family="Times,serif" font-size="14.00">5.00</text>
</g>
<!-- n30 -->
<g id="node24" class="node">
<title>n30</title>
<ellipse fill="none" stroke="black" cx="1693.38" cy="-409" rx="27" ry="18"/>
<text text-anchor="middle" x="1693.38" y="-405.3" font-family="Times,serif" font-size="14.00">lhs</text>
</g>
<!-- n31&#45;&gt;n30 -->
<g id="edge11" class="edge">
<title>n31&#45;&gt;n30</title>
<path fill="none" stroke="black" d="M1577.01,-409C1577.01,-409 1656.07,-409 1656.07,-409"/>
<polygon fill="black" stroke="black" points="1656.07,-412.5 1666.07,-409 1656.07,-405.5 1656.07,-412.5"/>
</g>
<!-- n33 -->
<g id="node25" class="node">
<title>n33</title>
<ellipse fill="none" stroke="black" cx="1819.07" cy="-355" rx="41.69" ry="18"/>
<text text-anchor="middle" x="1819.07" y="-351.3" font-family="Times,serif" font-size="14.00">output</text>
</g>
<!-- n35 -->
<g id="node27" class="node">
<title>n35</title>
<ellipse fill="none" stroke="black" cx="2053.81" cy="-355" rx="27" ry="18"/>
<text text-anchor="middle" x="2053.81" y="-351.3" font-family="Times,serif" font-size="14.00">lhs</text>
</g>
<!-- n33&#45;&gt;n35 -->
<g id="edge33" class="edge">
<title>n33&#45;&gt;n35</title>
<path fill="none" stroke="black" d="M1860.76,-355C1860.76,-355 2016.76,-355 2016.76,-355"/>
<polygon fill="black" stroke="black" points="2016.76,-358.5 2026.76,-355 2016.76,-351.5 2016.76,-358.5"/>
</g>
<!-- n32 -->
<g id="node26" class="node">
<title>n32</title>
<ellipse fill="none" stroke="black" cx="1693.38" cy="-355" rx="27" ry="18"/>
<text text-anchor="middle" x="1693.38" y="-351.3" font-family="Times,serif" font-size="14.00">rhs</text>
</g>
<!-- n32&#45;&gt;n33 -->
<!-- n37 -->
<g id="node28" class="node">
<title>n37</title>
<ellipse fill="none" stroke="black" cx="2216.55" cy="-382" rx="41.69" ry="18"/>
<text text-anchor="middle" x="2216.55" y="-378.3" font-family="Times,serif" font-size="14.00">output</text>
</g>
<!-- n39 -->
<g id="node51" class="node">
<title>n39</title>
<ellipse fill="none" stroke="black" cx="1410.34" cy="-851" rx="40.09" ry="18"/>
<text text-anchor="middle" x="1410.34" y="-847.3" font-family="Times,serif" font-size="14.00">inputs</text>
</g>
<!-- n37&#45;&gt;n39 -->
<g id="edge48" class="edge">
<title>n37&#45;&gt;n39</title>
<path fill="none" stroke="black" d="M2174.94,-382C2010.02,-382 1411.14,-382 1411.14,-382 1411.14,-382 1411.14,-822.9 1411.14,-822.9"/>
<polygon fill="black" stroke="black" points="1407.64,-822.9 1411.14,-832.9 1414.64,-822.9 1407.64,-822.9"/>
</g>
<!-- n36 -->
<g id="node29" class="node">
<title>n36</title>
<ellipse fill="none" stroke="black" cx="2053.81" cy="-409" rx="27" ry="18"/>
<text text-anchor="middle" x="2053.81" y="-405.3" font-family="Times,serif" font-size="14.00">rhs</text>
</g>
<!-- n36&#45;&gt;n37 -->
<!-- n67 -->
<g id="node31" class="node">
<title>n67</title>
<ellipse fill="none" stroke="black" cx="1097.66" cy="-1250" rx="113.98" ry="18"/>
<text text-anchor="middle" x="1097.66" y="-1246.3" font-family="Times,serif" font-size="14.00">accepted_concurrency</text>
</g>
<!-- n67&#45;&gt;n22 -->
<g id="edge27" class="edge">
<title>n67&#45;&gt;n22</title>
<path fill="none" stroke="black" d="M1176.14,-1263.1C1176.14,-1411.17 1176.14,-2765 1176.14,-2765 1176.14,-2765 1373.02,-2765 1373.02,-2765"/>
<polygon fill="black" stroke="black" points="1373.02,-2768.5 1383.02,-2765 1373.02,-2761.5 1373.02,-2768.5"/>
</g>
<!-- n63 -->
<g id="node42" class="node">
<title>n63</title>
<ellipse fill="none" stroke="black" cx="2053.81" cy="-2114" rx="85.29" ry="18"/>
<text text-anchor="middle" x="2053.81" y="-2110.3" font-family="Times,serif" font-size="14.00">control_variable</text>
</g>
<!-- n67&#45;&gt;n63 -->
<g id="edge30" class="edge">
<title>n67&#45;&gt;n63</title>
<path fill="none" stroke="black" d="M1208.98,-1246.25C1449.9,-1246.25 1998.14,-1246.25 1998.14,-1246.25 1998.14,-1246.25 1998.14,-2090.37 1998.14,-2090.37"/>
<polygon fill="black" stroke="black" points="1994.64,-2090.37 1998.14,-2100.37 2001.64,-2090.37 1994.64,-2090.37"/>
</g>
<!-- n67&#45;&gt;n39 -->
<g id="edge28" class="edge">
<title>n67&#45;&gt;n39</title>
<path fill="none" stroke="black" d="M1198.16,-1241.5C1278.29,-1241.5 1377.14,-1241.5 1377.14,-1241.5 1377.14,-1241.5 1377.14,-871.44 1377.14,-871.44"/>
<polygon fill="black" stroke="black" points="1380.64,-871.44 1377.14,-861.44 1373.64,-871.44 1380.64,-871.44"/>
</g>
<!-- n50 -->
<g id="node54" class="node">
<title>n50</title>
<ellipse fill="none" stroke="black" cx="1410.34" cy="-76" rx="35.19" ry="18"/>
<text text-anchor="middle" x="1410.34" y="-72.3" font-family="Times,serif" font-size="14.00">input</text>
</g>
<!-- n67&#45;&gt;n50 -->
<g id="edge29" class="edge">
<title>n67&#45;&gt;n50</title>
<path fill="none" stroke="black" d="M1174.68,-1236.75C1228.64,-1236.75 1291.14,-1236.75 1291.14,-1236.75 1291.14,-1236.75 1291.14,-76 1291.14,-76 1291.14,-76 1365.22,-76 1365.22,-76"/>
<polygon fill="black" stroke="black" points="1365.22,-79.5 1375.22,-76 1365.22,-72.5 1365.22,-79.5"/>
</g>
<!-- n68 -->
<g id="node32" class="node">
<title>n68</title>
<ellipse fill="none" stroke="black" cx="1097.66" cy="-1196" rx="114.28" ry="18"/>
<text text-anchor="middle" x="1097.66" y="-1192.3" font-family="Times,serif" font-size="14.00">incoming_concurrency</text>
</g>
<!-- n68&#45;&gt;n13 -->
<g id="edge31" class="edge">
<title>n68&#45;&gt;n13</title>
<path fill="none" stroke="black" d="M1212.16,-1196C1301.71,-1196 1411.14,-1196 1411.14,-1196 1411.14,-1196 1411.14,-1240.96 1411.14,-1240.96"/>
<polygon fill="black" stroke="black" points="1407.64,-1240.96 1411.14,-1250.96 1414.64,-1240.96 1407.64,-1240.96"/>
</g>
<!-- n68&#45;&gt;n17 -->
<g id="edge32" class="edge">
<title>n68&#45;&gt;n17</title>
<path fill="none" stroke="black" d="M1199.14,-1187.62C1199.14,-1156.31 1199.14,-1048 1199.14,-1048 1199.14,-1048 1373.16,-1048 1373.16,-1048"/>
<polygon fill="black" stroke="black" points="1373.16,-1051.5 1383.16,-1048 1373.16,-1044.5 1373.16,-1051.5"/>
</g>
<!-- n73 -->
<g id="node33" class="node">
<title>n73</title>
<ellipse fill="none" stroke="black" cx="1410.34" cy="-1657" rx="27" ry="18"/>
<text text-anchor="middle" x="1410.34" y="-1653.3" font-family="Times,serif" font-size="14.00">lhs</text>
</g>
<!-- n74 -->
<g id="node34" class="node">
<title>n74</title>
<ellipse fill="none" stroke="black" cx="1545.68" cy="-1657" rx="41.69" ry="18"/>
<text text-anchor="middle" x="1545.68" y="-1653.3" font-family="Times,serif" font-size="14.00">output</text>
</g>
<!-- n73&#45;&gt;n74 -->
<!-- n77 -->
<g id="node60" class="node">
<title>n77</title>
<ellipse fill="none" stroke="black" cx="1693.38" cy="-2044" rx="40.89" ry="18"/>
<text text-anchor="middle" x="1693.38" y="-2040.3" font-family="Times,serif" font-size="14.00">switch</text>
</g>
<!-- n74&#45;&gt;n77 -->
<g id="edge38" class="edge">
<title>n74&#45;&gt;n77</title>
<path fill="none" stroke="black" d="M1546.14,-1675.15C1546.14,-1751.66 1546.14,-2044 1546.14,-2044 1546.14,-2044 1642.36,-2044 1642.36,-2044"/>
<polygon fill="black" stroke="black" points="1642.36,-2047.5 1652.36,-2044 1642.36,-2040.5 1642.36,-2047.5"/>
</g>
<!-- n85 -->
<g id="node65" class="node">
<title>n85</title>
<ellipse fill="none" stroke="black" cx="1693.38" cy="-684" rx="40.89" ry="18"/>
<text text-anchor="middle" x="1693.38" y="-680.3" font-family="Times,serif" font-size="14.00">switch</text>
</g>
<!-- n74&#45;&gt;n85 -->
<g id="edge39" class="edge">
<title>n74&#45;&gt;n85</title>
<path fill="none" stroke="black" d="M1587.43,-1657C1631.34,-1657 1694.14,-1657 1694.14,-1657 1694.14,-1657 1694.14,-712.14 1694.14,-712.14"/>
<polygon fill="black" stroke="black" points="1697.64,-712.14 1694.14,-702.14 1690.64,-712.14 1697.64,-712.14"/>
</g>
<!-- n56 -->
<g id="node36" class="node">
<title>n56</title>
<ellipse fill="none" stroke="black" cx="556.43" cy="-2155" rx="35.19" ry="18"/>
<text text-anchor="middle" x="556.43" y="-2151.3" font-family="Times,serif" font-size="14.00">input</text>
</g>
<!-- n57 -->
<g id="node38" class="node">
<title>n57</title>
<ellipse fill="none" stroke="black" cx="721.67" cy="-2155" rx="41.69" ry="18"/>
<text text-anchor="middle" x="721.67" y="-2151.3" font-family="Times,serif" font-size="14.00">output</text>
</g>
<!-- n56&#45;&gt;n57 -->
<!-- n57&#45;&gt;n7 -->
<g id="edge49" class="edge">
<title>n57&#45;&gt;n7</title>
<path fill="none" stroke="black" d="M762.83,-2157.67C947.93,-2157.67 1694.14,-2157.67 1694.14,-2157.67 1694.14,-2157.67 1694.14,-2236.79 1694.14,-2236.79"/>
<polygon fill="black" stroke="black" points="1690.64,-2236.79 1694.14,-2246.79 1697.64,-2236.79 1690.64,-2236.79"/>
</g>
<!-- n57&#45;&gt;n25 -->
<g id="edge50" class="edge">
<title>n57&#45;&gt;n25</title>
<path fill="none" stroke="black" d="M758.14,-2146.34C758.14,-2105.48 758.14,-1934 758.14,-1934 758.14,-1934 811.23,-1934 811.23,-1934"/>
<polygon fill="black" stroke="black" points="811.23,-1937.5 821.23,-1934 811.23,-1930.5 811.23,-1937.5"/>
</g>
<!-- n43 -->
<g id="node39" class="node">
<title>n43</title>
<ellipse fill="none" stroke="black" cx="1097.66" cy="-1490" rx="31.4" ry="18"/>
<text text-anchor="middle" x="1097.66" y="-1486.3" font-family="Times,serif" font-size="14.00">0.00</text>
</g>
<!-- n42 -->
<g id="node40" class="node">
<title>n42</title>
<ellipse fill="none" stroke="black" cx="1410.34" cy="-1490" rx="40.09" ry="18"/>
<text text-anchor="middle" x="1410.34" y="-1486.3" font-family="Times,serif" font-size="14.00">inputs</text>
</g>
<!-- n43&#45;&gt;n42 -->
<g id="edge16" class="edge">
<title>n43&#45;&gt;n42</title>
<path fill="none" stroke="black" d="M1129.07,-1490C1129.07,-1490 1359.89,-1490 1359.89,-1490"/>
<polygon fill="black" stroke="black" points="1359.89,-1493.5 1369.89,-1490 1359.89,-1486.5 1359.89,-1493.5"/>
</g>
<!-- n44 -->
<g id="node41" class="node">
<title>n44</title>
<ellipse fill="none" stroke="black" cx="1545.68" cy="-1490" rx="41.69" ry="18"/>
<text text-anchor="middle" x="1545.68" y="-1486.3" font-family="Times,serif" font-size="14.00">output</text>
</g>
<!-- n42&#45;&gt;n44 -->
<!-- n76 -->
<g id="node57" class="node">
<title>n76</title>
<ellipse fill="none" stroke="black" cx="1693.38" cy="-1990" rx="48.19" ry="18"/>
<text text-anchor="middle" x="1693.38" y="-1986.3" font-family="Times,serif" font-size="14.00">on_false</text>
</g>
<!-- n44&#45;&gt;n76 -->
<g id="edge41" class="edge">
<title>n44&#45;&gt;n76</title>
<path fill="none" stroke="black" d="M1585.18,-1496C1614.76,-1496 1650.14,-1496 1650.14,-1496 1650.14,-1496 1650.14,-1971.84 1650.14,-1971.84"/>
<polygon fill="black" stroke="black" points="1646.64,-1971.84 1650.14,-1981.84 1653.64,-1971.84 1646.64,-1971.84"/>
</g>
<!-- n84 -->
<g id="node62" class="node">
<title>n84</title>
<ellipse fill="none" stroke="black" cx="1693.38" cy="-630" rx="48.19" ry="18"/>
<text text-anchor="middle" x="1693.38" y="-626.3" font-family="Times,serif" font-size="14.00">on_false</text>
</g>
<!-- n44&#45;&gt;n84 -->
<g id="edge42" class="edge">
<title>n44&#45;&gt;n84</title>
<path fill="none" stroke="black" d="M1585,-1484C1613.9,-1484 1648.14,-1484 1648.14,-1484 1648.14,-1484 1648.14,-646.38 1648.14,-646.38"/>
<polygon fill="black" stroke="black" points="1651.64,-646.38 1648.14,-636.38 1644.64,-646.38 1651.64,-646.38"/>
</g>
<!-- n64 -->
<g id="node45" class="node">
<title>n64</title>
<ellipse fill="none" stroke="black" cx="2216.55" cy="-2114" rx="41.69" ry="18"/>
<text text-anchor="middle" x="2216.55" y="-2110.3" font-family="Times,serif" font-size="14.00">output</text>
</g>
<!-- n63&#45;&gt;n64 -->
<!-- n62 -->
<g id="node43" class="node">
<title>n62</title>
<ellipse fill="none" stroke="black" cx="2053.81" cy="-2330" rx="30.59" ry="18"/>
<text text-anchor="middle" x="2053.81" y="-2326.3" font-family="Times,serif" font-size="14.00">max</text>
</g>
<!-- n61 -->
<g id="node44" class="node">
<title>n61</title>
<ellipse fill="none" stroke="black" cx="2053.81" cy="-2168" rx="50.89" ry="18"/>
<text text-anchor="middle" x="2053.81" y="-2164.3" font-family="Times,serif" font-size="14.00">optimize</text>
</g>
<!-- n64&#45;&gt;n12 -->
<g id="edge51" class="edge">
<title>n64&#45;&gt;n12</title>
<path fill="none" stroke="black" d="M2217.14,-2095.99C2217.14,-1978.25 2217.14,-1323 2217.14,-1323 2217.14,-1323 1447.65,-1323 1447.65,-1323"/>
<polygon fill="black" stroke="black" points="1447.65,-1319.5 1437.65,-1323 1447.65,-1326.5 1447.65,-1319.5"/>
</g>
<!-- n59 -->
<g id="node47" class="node">
<title>n59</title>
<ellipse fill="none" stroke="black" cx="2053.81" cy="-2276" rx="38.19" ry="18"/>
<text text-anchor="middle" x="2053.81" y="-2272.3" font-family="Times,serif" font-size="14.00">signal</text>
</g>
<!-- n47 -->
<g id="node48" class="node">
<title>n47</title>
<ellipse fill="none" stroke="black" cx="1545.68" cy="-2598" rx="37.09" ry="18"/>
<text text-anchor="middle" x="1545.68" y="-2594.3" font-family="Times,serif" font-size="14.00">10.00</text>
</g>
<!-- n47&#45;&gt;n46 -->
<g id="edge19" class="edge">
<title>n47&#45;&gt;n46</title>
<path fill="none" stroke="black" d="M1582.95,-2598C1582.95,-2598 1643.01,-2598 1643.01,-2598"/>
<polygon fill="black" stroke="black" points="1643.01,-2601.5 1653.01,-2598 1643.01,-2594.5 1643.01,-2601.5"/>
</g>
<!-- n48 -->
<g id="node50" class="node">
<title>n48</title>
<ellipse fill="none" stroke="black" cx="1819.07" cy="-2598" rx="41.69" ry="18"/>
<text text-anchor="middle" x="1819.07" y="-2594.3" font-family="Times,serif" font-size="14.00">output</text>
</g>
<!-- n46&#45;&gt;n48 -->
<!-- n48&#45;&gt;n62 -->
<g id="edge53" class="edge">
<title>n48&#45;&gt;n62</title>
<path fill="none" stroke="black" d="M1819.14,-2579.63C1819.14,-2521.04 1819.14,-2342.5 1819.14,-2342.5 1819.14,-2342.5 2021.73,-2342.5 2021.73,-2342.5"/>
<polygon fill="black" stroke="black" points="2021.73,-2346 2031.73,-2342.5 2021.73,-2339 2021.73,-2346"/>
</g>
<!-- n40 -->
<g id="node52" class="node">
<title>n40</title>
<ellipse fill="none" stroke="black" cx="1545.68" cy="-851" rx="41.69" ry="18"/>
<text text-anchor="middle" x="1545.68" y="-847.3" font-family="Times,serif" font-size="14.00">output</text>
</g>
<!-- n39&#45;&gt;n40 -->
<!-- n40&#45;&gt;n42 -->
<g id="edge52" class="edge">
<title>n40&#45;&gt;n42</title>
<path fill="none" stroke="black" d="M1506.4,-857C1491.54,-857 1478.14,-857 1478.14,-857 1478.14,-857 1478.14,-1484 1478.14,-1484 1478.14,-1484 1458.6,-1484 1458.6,-1484"/>
<polygon fill="black" stroke="black" points="1458.6,-1480.5 1448.6,-1484 1458.6,-1487.5 1458.6,-1480.5"/>
</g>
<!-- n53 -->
<g id="node53" class="node">
<title>n53</title>
<ellipse fill="none" stroke="black" cx="99.6" cy="-1870" rx="41.69" ry="18"/>
<text text-anchor="middle" x="99.6" y="-1866.3" font-family="Times,serif" font-size="14.00">output</text>
</g>
<!-- n53&#45;&gt;n2 -->
<g id="edge44" class="edge">
<title>n53&#45;&gt;n2</title>
<path fill="none" stroke="black" d="M135.14,-1860.43C135.14,-1812.51 135.14,-1601 135.14,-1601 135.14,-1601 188.87,-1601 188.87,-1601"/>
<polygon fill="black" stroke="black" points="188.87,-1604.5 198.87,-1601 188.87,-1597.5 188.87,-1604.5"/>
</g>
<!-- n53&#45;&gt;n73 -->
<g id="edge47" class="edge">
<title>n53&#45;&gt;n73</title>
<path fill="none" stroke="black" d="M138.14,-1862.91C138.14,-1825.95 138.14,-1657 138.14,-1657 138.14,-1657 1373.18,-1657 1373.18,-1657"/>
<polygon fill="black" stroke="black" points="1373.18,-1660.5 1383.18,-1657 1373.18,-1653.5 1373.18,-1660.5"/>
</g>
<!-- n53&#45;&gt;n56 -->
<g id="edge45" class="edge">
<title>n53&#45;&gt;n56</title>
<path fill="none" stroke="black" d="M100.14,-1888.26C100.14,-1951.16 100.14,-2155 100.14,-2155 100.14,-2155 511,-2155 511,-2155"/>
<polygon fill="black" stroke="black" points="511,-2158.5 521,-2155 511,-2151.5 511,-2158.5"/>
</g>
<!-- n53&#45;&gt;n59 -->
<g id="edge46" class="edge">
<title>n53&#45;&gt;n59</title>
<path fill="none" stroke="black" d="M128.42,-1857C348.92,-1857 1760.14,-1857 1760.14,-1857 1760.14,-1857 1760.14,-2266 1760.14,-2266 1760.14,-2266 2011.82,-2266 2011.82,-2266"/>
<polygon fill="black" stroke="black" points="2011.82,-2269.5 2021.82,-2266 2011.82,-2262.5 2011.82,-2269.5"/>
</g>
<!-- n51 -->
<g id="node55" class="node">
<title>n51</title>
<ellipse fill="none" stroke="black" cx="1545.68" cy="-76" rx="41.69" ry="18"/>
<text text-anchor="middle" x="1545.68" y="-72.3" font-family="Times,serif" font-size="14.00">output</text>
</g>
<!-- n50&#45;&gt;n51 -->
<!-- n51&#45;&gt;n32 -->
<g id="edge43" class="edge">
<title>n51&#45;&gt;n32</title>
<path fill="none" stroke="black" d="M1582.14,-84.97C1582.14,-132.72 1582.14,-355 1582.14,-355 1582.14,-355 1656.17,-355 1656.17,-355"/>
<polygon fill="black" stroke="black" points="1656.17,-358.5 1666.17,-355 1656.17,-351.5 1656.17,-358.5"/>
</g>
<!-- n79 -->
<g id="node56" class="node">
<title>n79</title>
<ellipse fill="none" stroke="black" cx="1545.68" cy="-2098" rx="37.09" ry="18"/>
<text text-anchor="middle" x="1545.68" y="-2094.3" font-family="Times,serif" font-size="14.00">10.00</text>
</g>
<!-- n78 -->
<g id="node58" class="node">
<title>n78</title>
<ellipse fill="none" stroke="black" cx="1693.38" cy="-2098" rx="46.29" ry="18"/>
<text text-anchor="middle" x="1693.38" y="-2094.3" font-family="Times,serif" font-size="14.00">on_true</text>
</g>
<!-- n79&#45;&gt;n78 -->
<g id="edge23" class="edge">
<title>n79&#45;&gt;n78</title>
<path fill="none" stroke="black" d="M1582.95,-2098C1582.95,-2098 1637.13,-2098 1637.13,-2098"/>
<polygon fill="black" stroke="black" points="1637.13,-2101.5 1647.13,-2098 1637.13,-2094.5 1637.13,-2101.5"/>
</g>
<!-- n80 -->
<g id="node59" class="node">
<title>n80</title>
<ellipse fill="none" stroke="black" cx="1819.07" cy="-2098" rx="41.69" ry="18"/>
<text text-anchor="middle" x="1819.07" y="-2094.3" font-family="Times,serif" font-size="14.00">output</text>
</g>
<!-- n78&#45;&gt;n80 -->
<!-- n80&#45;&gt;n61 -->
<g id="edge34" class="edge">
<title>n80&#45;&gt;n61</title>
<path fill="none" stroke="black" d="M1819.14,-2116.04C1819.14,-2135.99 1819.14,-2165.33 1819.14,-2165.33 1819.14,-2165.33 1993.47,-2165.33 1993.47,-2165.33"/>
<polygon fill="black" stroke="black" points="1993.47,-2168.83 2003.47,-2165.33 1993.47,-2161.83 1993.47,-2168.83"/>
</g>
<!-- n83 -->
<g id="node61" class="node">
<title>n83</title>
<ellipse fill="none" stroke="black" cx="1545.68" cy="-576" rx="31.4" ry="18"/>
<text text-anchor="middle" x="1545.68" y="-572.3" font-family="Times,serif" font-size="14.00">0.00</text>
</g>
<!-- n82 -->
<g id="node63" class="node">
<title>n82</title>
<ellipse fill="none" stroke="black" cx="1693.38" cy="-576" rx="46.29" ry="18"/>
<text text-anchor="middle" x="1693.38" y="-572.3" font-family="Times,serif" font-size="14.00">on_true</text>
</g>
<!-- n83&#45;&gt;n82 -->
<g id="edge25" class="edge">
<title>n83&#45;&gt;n82</title>
<path fill="none" stroke="black" d="M1577.01,-576C1577.01,-576 1636.95,-576 1636.95,-576"/>
<polygon fill="black" stroke="black" points="1636.95,-579.5 1646.95,-576 1636.95,-572.5 1636.95,-579.5"/>
</g>
<!-- n86 -->
<g id="node64" class="node">
<title>n86</title>
<ellipse fill="none" stroke="black" cx="1819.07" cy="-630" rx="41.69" ry="18"/>
<text text-anchor="middle" x="1819.07" y="-626.3" font-family="Times,serif" font-size="14.00">output</text>
</g>
<!-- n86&#45;&gt;n36 -->
<g id="edge40" class="edge">
<title>n86&#45;&gt;n36</title>
<path fill="none" stroke="black" d="M1860.82,-630C1928.38,-630 2054.14,-630 2054.14,-630 2054.14,-630 2054.14,-437.09 2054.14,-437.09"/>
<polygon fill="black" stroke="black" points="2057.64,-437.09 2054.14,-427.09 2050.64,-437.09 2057.64,-437.09"/>
</g>
<!-- n85&#45;&gt;n86 -->
</g>
</svg>
