<?xml version="1.0" encoding="UTF-8" standalone="no"?>
<!DOCTYPE svg PUBLIC "-//W3C//DTD SVG 1.1//EN"
 "http://www.w3.org/Graphics/SVG/1.1/DTD/svg11.dtd">
<!-- Generated by graphviz version 6.0.1 (20220911.1526)
 -->
<!-- Pages: 1 -->
<svg width="4433pt" height="2769pt"
 viewBox="0.00 0.00 4433.14 2769.00" xmlns="http://www.w3.org/2000/svg" xmlns:xlink="http://www.w3.org/1999/xlink">
<g id="graph0" class="graph" transform="scale(1 1) rotate(0) translate(4 2765)">
<polygon fill="white" stroke="none" points="-4,4 -4,-2765 4429.14,-2765 4429.14,4 -4,4"/>
<g id="clust1" class="cluster">
<title>cluster_s1</title>
<polygon fill="none" stroke="black" points="18.4,-1948 18.4,-2161 580.39,-2161 580.39,-1948 18.4,-1948"/>
<text text-anchor="middle" x="299.39" y="-2145.8" font-family="Times,serif" font-size="14.00">ArithmeticCombinator[0]</text>
</g>
<g id="clust4" class="cluster">
<title>cluster_s6</title>
<polygon fill="none" stroke="black" points="2618.49,-2473 2618.49,-2686 3682.66,-2686 3682.66,-2473 2618.49,-2473"/>
<text text-anchor="middle" x="3150.58" y="-2670.8" font-family="Times,serif" font-size="14.00">ArithmeticCombinator[1]</text>
</g>
<g id="clust7" class="cluster">
<title>cluster_s11</title>
<polygon fill="none" stroke="black" points="2096.34,-725 2096.34,-938 2791.28,-938 2791.28,-725 2096.34,-725"/>
<text text-anchor="middle" x="2443.81" y="-922.8" font-family="Times,serif" font-size="14.00">ArithmeticCombinator[2]</text>
</g>
<g id="clust10" class="cluster">
<title>cluster_s15</title>
<polygon fill="none" stroke="black" points="2096.34,-8 2096.34,-221 2791.28,-221 2791.28,-8 2096.34,-8"/>
<text text-anchor="middle" x="2443.81" y="-205.8" font-family="Times,serif" font-size="14.00">ArithmeticCombinator[3]</text>
</g>
<g id="clust13" class="cluster">
<title>cluster_s19</title>
<polygon fill="none" stroke="black" points="1563.46,-2085 1563.46,-2298 2791.28,-2298 2791.28,-2085 1563.46,-2085"/>
<text text-anchor="middle" x="2177.37" y="-2282.8" font-family="Times,serif" font-size="14.00">ArithmeticCombinator[4]</text>
</g>
<g id="clust16" class="cluster">
<title>cluster_s24</title>
<polygon fill="none" stroke="black" points="970.47,-1546 970.47,-1759 1736.25,-1759 1736.25,-1546 970.47,-1546"/>
<text text-anchor="middle" x="1353.36" y="-1743.8" font-family="Times,serif" font-size="14.00">ArithmeticCombinator[5]</text>
</g>
<g id="clust19" class="cluster">
<title>cluster_s29</title>
<polygon fill="none" stroke="black" points="2618.49,-229 2618.49,-442 3682.66,-442 3682.66,-229 2618.49,-229"/>
<text text-anchor="middle" x="3150.58" y="-426.8" font-family="Times,serif" font-size="14.00">ArithmeticCombinator[6]</text>
</g>
<g id="clust22" class="cluster">
<title>cluster_s34</title>
<polygon fill="none" stroke="black" points="4084.81,-504 4084.81,-717 4417.14,-717 4417.14,-504 4084.81,-504"/>
<text text-anchor="middle" x="4250.97" y="-701.8" font-family="Times,serif" font-size="14.00">ArithmeticCombinator[7]</text>
</g>
<g id="clust25" class="cluster">
<title>cluster_s65</title>
<polygon fill="none" stroke="black" points="1430.27,-633 1430.27,-1178 1859.04,-1178 1859.04,-633 1430.27,-633"/>
<text text-anchor="middle" x="1644.66" y="-1162.8" font-family="Times,serif" font-size="14.00">ConcurrencyLimiter[15]</text>
</g>
<g id="clust26" class="cluster">
<title>cluster_s69</title>
<polygon fill="none" stroke="black" points="1488.26,-683 1488.26,-842 1802.05,-842 1802.05,-683 1488.26,-683"/>
<text text-anchor="middle" x="1645.16" y="-826.8" font-family="Times,serif" font-size="14.00">LoadShedActuator[15.LoadShedActuator]</text>
</g>
<g id="clust28" class="cluster">
<title>cluster_s66</title>
<polygon fill="none" stroke="black" points="1480.27,-892 1480.27,-1105 1809.04,-1105 1809.04,-892 1480.27,-892"/>
<text text-anchor="middle" x="1644.66" y="-1089.8" font-family="Times,serif" font-size="14.00">Scheduler[15.Scheduler]</text>
</g>
<g id="clust30" class="cluster">
<title>cluster_s71</title>
<polygon fill="none" stroke="black" points="2096.34,-1477 2096.34,-1690 2791.28,-1690 2791.28,-1477 2096.34,-1477"/>
<text text-anchor="middle" x="2443.81" y="-1674.8" font-family="Times,serif" font-size="14.00">Decider[16]</text>
</g>
<g id="clust33" class="cluster">
<title>cluster_s54</title>
<polygon fill="none" stroke="black" points="672.39,-2069 672.39,-2282 1143.27,-2282 1143.27,-2069 672.39,-2069"/>
<text text-anchor="middle" x="907.83" y="-2266.8" font-family="Times,serif" font-size="14.00">EMA[13]</text>
</g>
<g id="clust36" class="cluster">
<title>cluster_s41</title>
<polygon fill="none" stroke="black" points="1563.46,-1310 1563.46,-1469 2791.28,-1469 2791.28,-1310 1563.46,-1310"/>
<text text-anchor="middle" x="2177.37" y="-1453.8" font-family="Times,serif" font-size="14.00">FirstValid[9]</text>
</g>
<g id="clust39" class="cluster">
<title>cluster_s58</title>
<polygon fill="none" stroke="black" points="4026.66,-1979 4026.66,-2354 4417.14,-2354 4417.14,-1979 4026.66,-1979"/>
<text text-anchor="middle" x="4221.9" y="-2338.8" font-family="Times,serif" font-size="14.00">Gradient[14]</text>
</g>
<g id="clust42" class="cluster">
<title>cluster_s45</title>
<polygon fill="none" stroke="black" points="2612.64,-2306 2612.64,-2465 3682.66,-2465 3682.66,-2306 2612.64,-2306"/>
<text text-anchor="middle" x="3147.65" y="-2449.8" font-family="Times,serif" font-size="14.00">Max[10]</text>
</g>
<g id="clust45" class="cluster">
<title>cluster_s38</title>
<polygon fill="none" stroke="black" points="2083.04,-1143 2083.04,-1302 2791.28,-1302 2791.28,-1143 2083.04,-1143"/>
<text text-anchor="middle" x="2437.16" y="-1286.8" font-family="Times,serif" font-size="14.00">Min[8]</text>
</g>
<g id="clust48" class="cluster">
<title>cluster_s52</title>
<polygon fill="none" stroke="black" points="8,-2201 8,-2360 191.19,-2360 191.19,-2201 8,-2201"/>
<text text-anchor="middle" x="99.6" y="-2344.8" font-family="Times,serif" font-size="14.00">PromQL[12]</text>
</g>
<g id="clust50" class="cluster">
<title>cluster_s49</title>
<polygon fill="none" stroke="black" points="2088.24,-946 2088.24,-1105 2791.28,-1105 2791.28,-946 2088.24,-946"/>
<text text-anchor="middle" x="2439.76" y="-1089.8" font-family="Times,serif" font-size="14.00">Sqrt[11]</text>
</g>
<g id="clust53" class="cluster">
<title>cluster_s75</title>
<polygon fill="none" stroke="black" points="2612.64,-1810 2612.64,-2077 3682.66,-2077 3682.66,-1810 2612.64,-1810"/>
<text text-anchor="middle" x="3147.65" y="-2061.8" font-family="Times,serif" font-size="14.00">Switcher[17]</text>
</g>
<g id="clust56" class="cluster">
<title>cluster_s81</title>
<polygon fill="none" stroke="black" points="2618.49,-450 2618.49,-717 3682.66,-717 3682.66,-450 2618.49,-450"/>
<text text-anchor="middle" x="3150.58" y="-701.8" font-family="Times,serif" font-size="14.00">Switcher[18]</text>
</g>
<!-- n4 -->
<g id="node1" class="node">
<title>n4</title>
<ellipse fill="none" stroke="black" cx="99.6" cy="-2016" rx="31.4" ry="18"/>
<text text-anchor="middle" x="99.6" y="-2012.3" font-family="Times,serif" font-size="14.00">2.00</text>
</g>
<!-- n3 -->
<g id="node4" class="node">
<title>n3</title>
<ellipse fill="none" stroke="black" cx="314.19" cy="-2016" rx="27" ry="18"/>
<text text-anchor="middle" x="314.19" y="-2012.3" font-family="Times,serif" font-size="14.00">rhs</text>
</g>
<!-- n4&#45;&gt;n3 -->
<g id="edge1" class="edge">
<title>n4&#45;&gt;n3</title>
<path fill="none" stroke="black" d="M130.8,-2016C130.8,-2016 277.03,-2016 277.03,-2016"/>
<polygon fill="black" stroke="black" points="277.03,-2019.5 287.03,-2016 277.03,-2012.5 277.03,-2019.5"/>
</g>
<!-- n2 -->
<g id="node2" class="node">
<title>n2</title>
<ellipse fill="none" stroke="black" cx="314.19" cy="-2070" rx="27" ry="18"/>
<text text-anchor="middle" x="314.19" y="-2066.3" font-family="Times,serif" font-size="14.00">lhs</text>
</g>
<!-- n5 -->
<g id="node3" class="node">
<title>n5</title>
<ellipse fill="none" stroke="black" cx="488.79" cy="-2056" rx="41.69" ry="18"/>
<text text-anchor="middle" x="488.79" y="-2052.3" font-family="Times,serif" font-size="14.00">output</text>
</g>
<!-- n56 -->
<g id="node37" class="node">
<title>n56</title>
<ellipse fill="none" stroke="black" cx="798.43" cy="-2137" rx="76.09" ry="18"/>
<text text-anchor="middle" x="798.43" y="-2133.3" font-family="Times,serif" font-size="14.00">max_envelope</text>
</g>
<!-- n5&#45;&gt;n56 -->
<g id="edge44" class="edge">
<title>n5&#45;&gt;n56</title>
<path fill="none" stroke="black" d="M489.14,-2074.38C489.14,-2098.28 489.14,-2137 489.14,-2137 489.14,-2137 712.37,-2137 712.37,-2137"/>
<polygon fill="black" stroke="black" points="712.37,-2140.5 722.37,-2137 712.37,-2133.5 712.37,-2140.5"/>
<text text-anchor="middle" x="626.39" y="-2106.8" font-family="Times,serif" font-size="14.00">MAX_EMA</text>
</g>
<!-- n3&#45;&gt;n5 -->
<!-- n9 -->
<g id="node5" class="node">
<title>n9</title>
<ellipse fill="none" stroke="black" cx="2699.68" cy="-2595" rx="31.4" ry="18"/>
<text text-anchor="middle" x="2699.68" y="-2591.3" font-family="Times,serif" font-size="14.00">1.10</text>
</g>
<!-- n8 -->
<g id="node8" class="node">
<title>n8</title>
<ellipse fill="none" stroke="black" cx="3160.38" cy="-2595" rx="27" ry="18"/>
<text text-anchor="middle" x="3160.38" y="-2591.3" font-family="Times,serif" font-size="14.00">rhs</text>
</g>
<!-- n9&#45;&gt;n8 -->
<g id="edge3" class="edge">
<title>n9&#45;&gt;n8</title>
<path fill="none" stroke="black" d="M2730.99,-2595C2730.99,-2595 3123.16,-2595 3123.16,-2595"/>
<polygon fill="black" stroke="black" points="3123.16,-2598.5 3133.16,-2595 3123.16,-2591.5 3123.16,-2598.5"/>
</g>
<!-- n7 -->
<g id="node6" class="node">
<title>n7</title>
<ellipse fill="none" stroke="black" cx="3160.38" cy="-2541" rx="27" ry="18"/>
<text text-anchor="middle" x="3160.38" y="-2537.3" font-family="Times,serif" font-size="14.00">lhs</text>
</g>
<!-- n10 -->
<g id="node7" class="node">
<title>n10</title>
<ellipse fill="none" stroke="black" cx="3591.07" cy="-2568" rx="41.69" ry="18"/>
<text text-anchor="middle" x="3591.07" y="-2564.3" font-family="Times,serif" font-size="14.00">output</text>
</g>
<!-- n60 -->
<g id="node46" class="node">
<title>n60</title>
<ellipse fill="none" stroke="black" cx="4161.81" cy="-2209" rx="48.99" ry="18"/>
<text text-anchor="middle" x="4161.81" y="-2205.3" font-family="Times,serif" font-size="14.00">setpoint</text>
</g>
<!-- n10&#45;&gt;n60 -->
<g id="edge33" class="edge">
<title>n10&#45;&gt;n60</title>
<path fill="none" stroke="black" d="M3632.95,-2568C3757.85,-2568 4119.14,-2568 4119.14,-2568 4119.14,-2568 4119.14,-2227.87 4119.14,-2227.87"/>
<polygon fill="black" stroke="black" points="4122.64,-2227.87 4119.14,-2217.87 4115.64,-2227.87 4122.64,-2227.87"/>
<text text-anchor="middle" x="3854.66" y="-2372.8" font-family="Times,serif" font-size="14.00">LATENCY_SETPOINT</text>
</g>
<!-- n8&#45;&gt;n10 -->
<!-- n12 -->
<g id="node9" class="node">
<title>n12</title>
<ellipse fill="none" stroke="black" cx="2173.34" cy="-847" rx="27" ry="18"/>
<text text-anchor="middle" x="2173.34" y="-843.3" font-family="Times,serif" font-size="14.00">lhs</text>
</g>
<!-- n14 -->
<g id="node10" class="node">
<title>n14</title>
<ellipse fill="none" stroke="black" cx="2699.68" cy="-793" rx="41.69" ry="18"/>
<text text-anchor="middle" x="2699.68" y="-789.3" font-family="Times,serif" font-size="14.00">output</text>
</g>
<!-- n16 -->
<g id="node12" class="node">
<title>n16</title>
<ellipse fill="none" stroke="black" cx="2173.34" cy="-130" rx="27" ry="18"/>
<text text-anchor="middle" x="2173.34" y="-126.3" font-family="Times,serif" font-size="14.00">lhs</text>
</g>
<!-- n14&#45;&gt;n16 -->
<g id="edge56" class="edge">
<title>n14&#45;&gt;n16</title>
<path fill="none" stroke="black" d="M2665.14,-782.71C2665.14,-699.38 2665.14,-138 2665.14,-138 2665.14,-138 2207.73,-138 2207.73,-138"/>
<polygon fill="black" stroke="black" points="2207.73,-134.5 2197.73,-138 2207.73,-141.5 2207.73,-134.5"/>
<text text-anchor="middle" x="2418.14" y="-164.8" font-family="Times,serif" font-size="14.00">DELTA_CONCURRENCY</text>
</g>
<!-- n13 -->
<g id="node11" class="node">
<title>n13</title>
<ellipse fill="none" stroke="black" cx="2173.34" cy="-793" rx="27" ry="18"/>
<text text-anchor="middle" x="2173.34" y="-789.3" font-family="Times,serif" font-size="14.00">rhs</text>
</g>
<!-- n13&#45;&gt;n14 -->
<!-- n18 -->
<g id="node13" class="node">
<title>n18</title>
<ellipse fill="none" stroke="black" cx="2699.68" cy="-110" rx="41.69" ry="18"/>
<text text-anchor="middle" x="2699.68" y="-106.3" font-family="Times,serif" font-size="14.00">output</text>
</g>
<!-- n70 -->
<g id="node30" class="node">
<title>n70</title>
<ellipse fill="none" stroke="black" cx="1644.66" cy="-751" rx="88.28" ry="18"/>
<text text-anchor="middle" x="1644.66" y="-747.3" font-family="Times,serif" font-size="14.00">load_shed_factor</text>
</g>
<!-- n18&#45;&gt;n70 -->
<g id="edge54" class="edge">
<title>n18&#45;&gt;n70</title>
<path fill="none" stroke="black" d="M2662.14,-118.1C2662.14,-192.31 2662.14,-751 2662.14,-751 2662.14,-751 1743.17,-751 1743.17,-751"/>
<polygon fill="black" stroke="black" points="1743.17,-747.5 1733.17,-751 1743.17,-754.5 1743.17,-747.5"/>
<text text-anchor="middle" x="2173.34" y="-206.8" font-family="Times,serif" font-size="14.00">LSF</text>
</g>
<!-- n17 -->
<g id="node14" class="node">
<title>n17</title>
<ellipse fill="none" stroke="black" cx="2173.34" cy="-76" rx="27" ry="18"/>
<text text-anchor="middle" x="2173.34" y="-72.3" font-family="Times,serif" font-size="14.00">rhs</text>
</g>
<!-- n17&#45;&gt;n18 -->
<!-- n21 -->
<g id="node15" class="node">
<title>n21</title>
<ellipse fill="none" stroke="black" cx="1644.66" cy="-2207" rx="31.4" ry="18"/>
<text text-anchor="middle" x="1644.66" y="-2203.3" font-family="Times,serif" font-size="14.00">2.00</text>
</g>
<!-- n20 -->
<g id="node16" class="node">
<title>n20</title>
<ellipse fill="none" stroke="black" cx="2173.34" cy="-2207" rx="27" ry="18"/>
<text text-anchor="middle" x="2173.34" y="-2203.3" font-family="Times,serif" font-size="14.00">lhs</text>
</g>
<!-- n21&#45;&gt;n20 -->
<g id="edge7" class="edge">
<title>n21&#45;&gt;n20</title>
<path fill="none" stroke="black" d="M1676.14,-2207C1676.14,-2207 2136.21,-2207 2136.21,-2207"/>
<polygon fill="black" stroke="black" points="2136.21,-2210.5 2146.21,-2207 2136.21,-2203.5 2136.21,-2210.5"/>
</g>
<!-- n23 -->
<g id="node17" class="node">
<title>n23</title>
<ellipse fill="none" stroke="black" cx="2699.68" cy="-2193" rx="41.69" ry="18"/>
<text text-anchor="middle" x="2699.68" y="-2189.3" font-family="Times,serif" font-size="14.00">output</text>
</g>
<!-- n46 -->
<g id="node49" class="node">
<title>n46</title>
<ellipse fill="none" stroke="black" cx="3160.38" cy="-2374" rx="40.09" ry="18"/>
<text text-anchor="middle" x="3160.38" y="-2370.3" font-family="Times,serif" font-size="14.00">inputs</text>
</g>
<!-- n23&#45;&gt;n46 -->
<g id="edge34" class="edge">
<title>n23&#45;&gt;n46</title>
<path fill="none" stroke="black" d="M2737.06,-2201C2846.91,-2201 3161.14,-2201 3161.14,-2201 3161.14,-2201 3161.14,-2345.81 3161.14,-2345.81"/>
<polygon fill="black" stroke="black" points="3157.64,-2345.81 3161.14,-2355.81 3164.64,-2345.81 3157.64,-2345.81"/>
<text text-anchor="middle" x="2946.78" y="-2282.8" font-family="Times,serif" font-size="14.00">UPPER_CONCURRENCY_LIMIT</text>
</g>
<!-- n22 -->
<g id="node18" class="node">
<title>n22</title>
<ellipse fill="none" stroke="black" cx="2173.34" cy="-2153" rx="27" ry="18"/>
<text text-anchor="middle" x="2173.34" y="-2149.3" font-family="Times,serif" font-size="14.00">rhs</text>
</g>
<!-- n22&#45;&gt;n23 -->
<!-- n27 -->
<g id="node19" class="node">
<title>n27</title>
<ellipse fill="none" stroke="black" cx="1051.67" cy="-1614" rx="31.4" ry="18"/>
<text text-anchor="middle" x="1051.67" y="-1610.3" font-family="Times,serif" font-size="14.00">1.10</text>
</g>
<!-- n26 -->
<g id="node22" class="node">
<title>n26</title>
<ellipse fill="none" stroke="black" cx="1307.27" cy="-1614" rx="27" ry="18"/>
<text text-anchor="middle" x="1307.27" y="-1610.3" font-family="Times,serif" font-size="14.00">rhs</text>
</g>
<!-- n27&#45;&gt;n26 -->
<g id="edge9" class="edge">
<title>n27&#45;&gt;n26</title>
<path fill="none" stroke="black" d="M1083.01,-1614C1083.01,-1614 1269.96,-1614 1269.96,-1614"/>
<polygon fill="black" stroke="black" points="1269.96,-1617.5 1279.96,-1614 1269.96,-1610.5 1269.96,-1617.5"/>
</g>
<!-- n25 -->
<g id="node20" class="node">
<title>n25</title>
<ellipse fill="none" stroke="black" cx="1307.27" cy="-1668" rx="27" ry="18"/>
<text text-anchor="middle" x="1307.27" y="-1664.3" font-family="Times,serif" font-size="14.00">lhs</text>
</g>
<!-- n28 -->
<g id="node21" class="node">
<title>n28</title>
<ellipse fill="none" stroke="black" cx="1644.66" cy="-1614" rx="41.69" ry="18"/>
<text text-anchor="middle" x="1644.66" y="-1610.3" font-family="Times,serif" font-size="14.00">output</text>
</g>
<!-- n73 -->
<g id="node35" class="node">
<title>n73</title>
<ellipse fill="none" stroke="black" cx="2173.34" cy="-1545" rx="27" ry="18"/>
<text text-anchor="middle" x="2173.34" y="-1541.3" font-family="Times,serif" font-size="14.00">rhs</text>
</g>
<!-- n28&#45;&gt;n73 -->
<g id="edge35" class="edge">
<title>n28&#45;&gt;n73</title>
<path fill="none" stroke="black" d="M1681.14,-1605.26C1681.14,-1586.69 1681.14,-1545 1681.14,-1545 1681.14,-1545 2136.18,-1545 2136.18,-1545"/>
<polygon fill="black" stroke="black" points="2136.18,-1548.5 2146.18,-1545 2136.18,-1541.5 2136.18,-1548.5"/>
<text text-anchor="middle" x="1971.04" y="-1583.8" font-family="Times,serif" font-size="14.00">LATENCY_OVERLOAD</text>
</g>
<!-- n26&#45;&gt;n28 -->
<!-- n32 -->
<g id="node23" class="node">
<title>n32</title>
<ellipse fill="none" stroke="black" cx="2699.68" cy="-297" rx="31.4" ry="18"/>
<text text-anchor="middle" x="2699.68" y="-293.3" font-family="Times,serif" font-size="14.00">5.00</text>
</g>
<!-- n31 -->
<g id="node24" class="node">
<title>n31</title>
<ellipse fill="none" stroke="black" cx="3160.38" cy="-297" rx="27" ry="18"/>
<text text-anchor="middle" x="3160.38" y="-293.3" font-family="Times,serif" font-size="14.00">lhs</text>
</g>
<!-- n32&#45;&gt;n31 -->
<g id="edge11" class="edge">
<title>n32&#45;&gt;n31</title>
<path fill="none" stroke="black" d="M2730.99,-297C2730.99,-297 3123.16,-297 3123.16,-297"/>
<polygon fill="black" stroke="black" points="3123.16,-300.5 3133.16,-297 3123.16,-293.5 3123.16,-300.5"/>
</g>
<!-- n33 -->
<g id="node25" class="node">
<title>n33</title>
<ellipse fill="none" stroke="black" cx="3591.07" cy="-324" rx="41.69" ry="18"/>
<text text-anchor="middle" x="3591.07" y="-320.3" font-family="Times,serif" font-size="14.00">output</text>
</g>
<!-- n31&#45;&gt;n33 -->
<!-- n36 -->
<g id="node27" class="node">
<title>n36</title>
<ellipse fill="none" stroke="black" cx="4161.81" cy="-572" rx="27" ry="18"/>
<text text-anchor="middle" x="4161.81" y="-568.3" font-family="Times,serif" font-size="14.00">lhs</text>
</g>
<!-- n33&#45;&gt;n36 -->
<g id="edge36" class="edge">
<title>n33&#45;&gt;n36</title>
<path fill="none" stroke="black" d="M3633.06,-324C3764.94,-324 4162.14,-324 4162.14,-324 4162.14,-324 4162.14,-543.76 4162.14,-543.76"/>
<polygon fill="black" stroke="black" points="4158.64,-543.76 4162.14,-553.76 4165.64,-543.76 4158.64,-543.76"/>
<text text-anchor="middle" x="3854.66" y="-451.8" font-family="Times,serif" font-size="14.00">CONCURRENCY_INCREMENT_SINGLE_TICK</text>
</g>
<!-- n30 -->
<g id="node26" class="node">
<title>n30</title>
<ellipse fill="none" stroke="black" cx="3160.38" cy="-351" rx="27" ry="18"/>
<text text-anchor="middle" x="3160.38" y="-347.3" font-family="Times,serif" font-size="14.00">rhs</text>
</g>
<!-- n37 -->
<g id="node28" class="node">
<title>n37</title>
<ellipse fill="none" stroke="black" cx="4325.55" cy="-599" rx="41.69" ry="18"/>
<text text-anchor="middle" x="4325.55" y="-595.3" font-family="Times,serif" font-size="14.00">output</text>
</g>
<!-- n36&#45;&gt;n37 -->
<!-- n39 -->
<g id="node51" class="node">
<title>n39</title>
<ellipse fill="none" stroke="black" cx="2173.34" cy="-1211" rx="40.09" ry="18"/>
<text text-anchor="middle" x="2173.34" y="-1207.3" font-family="Times,serif" font-size="14.00">inputs</text>
</g>
<!-- n37&#45;&gt;n39 -->
<g id="edge37" class="edge">
<title>n37&#45;&gt;n39</title>
<path fill="none" stroke="black" d="M4283.63,-599C3999.08,-599 2362.14,-599 2362.14,-599 2362.14,-599 2362.14,-1202 2362.14,-1202 2362.14,-1202 2218.41,-1202 2218.41,-1202"/>
<polygon fill="black" stroke="black" points="2218.41,-1198.5 2208.41,-1202 2218.41,-1205.5 2218.41,-1198.5"/>
<text text-anchor="middle" x="3378.97" y="-1108.8" font-family="Times,serif" font-size="14.00">CONCURRENCY_INCREMENT_INTEGRAL</text>
</g>
<!-- n35 -->
<g id="node29" class="node">
<title>n35</title>
<ellipse fill="none" stroke="black" cx="4161.81" cy="-626" rx="27" ry="18"/>
<text text-anchor="middle" x="4161.81" y="-622.3" font-family="Times,serif" font-size="14.00">rhs</text>
</g>
<!-- n67 -->
<g id="node31" class="node">
<title>n67</title>
<ellipse fill="none" stroke="black" cx="1644.66" cy="-1014" rx="113.98" ry="18"/>
<text text-anchor="middle" x="1644.66" y="-1010.3" font-family="Times,serif" font-size="14.00">accepted_concurrency</text>
</g>
<!-- n67&#45;&gt;n22 -->
<g id="edge27" class="edge">
<title>n67&#45;&gt;n22</title>
<path fill="none" stroke="black" d="M1705.14,-1029.56C1705.14,-1165.4 1705.14,-2145 1705.14,-2145 1705.14,-2145 2138.83,-2145 2138.83,-2145"/>
<polygon fill="black" stroke="black" points="2138.83,-2148.5 2148.83,-2145 2138.83,-2141.5 2138.83,-2148.5"/>
<text text-anchor="middle" x="1971.04" y="-1248.8" font-family="Times,serif" font-size="14.00">ACCEPTED_CONCURRENCY</text>
</g>
<!-- n63 -->
<g id="node42" class="node">
<title>n63</title>
<ellipse fill="none" stroke="black" cx="4161.81" cy="-2047" rx="85.29" ry="18"/>
<text text-anchor="middle" x="4161.81" y="-2043.3" font-family="Times,serif" font-size="14.00">control_variable</text>
</g>
<!-- n67&#45;&gt;n63 -->
<g id="edge30" class="edge">
<title>n67&#45;&gt;n63</title>
<path fill="none" stroke="black" d="M1723.14,-1027.12C1723.14,-1147.22 1723.14,-2051.5 1723.14,-2051.5 1723.14,-2051.5 4069.27,-2051.5 4069.27,-2051.5"/>
<polygon fill="black" stroke="black" points="4069.27,-2055 4079.27,-2051.5 4069.27,-2048 4069.27,-2055"/>
<text text-anchor="middle" x="2946.78" y="-1748.8" font-family="Times,serif" font-size="14.00">ACCEPTED_CONCURRENCY</text>
</g>
<!-- n67&#45;&gt;n39 -->
<g id="edge28" class="edge">
<title>n67&#45;&gt;n39</title>
<path fill="none" stroke="black" d="M1741.14,-1023.77C1741.14,-1063.52 1741.14,-1211 1741.14,-1211 1741.14,-1211 2122.68,-1211 2122.68,-1211"/>
<polygon fill="black" stroke="black" points="2122.68,-1214.5 2132.68,-1211 2122.68,-1207.5 2122.68,-1214.5"/>
<text text-anchor="middle" x="1971.04" y="-1120.8" font-family="Times,serif" font-size="14.00">ACCEPTED_CONCURRENCY</text>
</g>
<!-- n50 -->
<g id="node54" class="node">
<title>n50</title>
<ellipse fill="none" stroke="black" cx="2173.34" cy="-1014" rx="35.19" ry="18"/>
<text text-anchor="middle" x="2173.34" y="-1010.3" font-family="Times,serif" font-size="14.00">input</text>
</g>
<!-- n67&#45;&gt;n50 -->
<g id="edge29" class="edge">
<title>n67&#45;&gt;n50</title>
<path fill="none" stroke="black" d="M1758.4,-1014C1758.4,-1014 2128.18,-1014 2128.18,-1014"/>
<polygon fill="black" stroke="black" points="2128.18,-1017.5 2138.18,-1014 2128.18,-1010.5 2128.18,-1017.5"/>
<text text-anchor="middle" x="1971.04" y="-1017.8" font-family="Times,serif" font-size="14.00">ACCEPTED_CONCURRENCY</text>
</g>
<!-- n68 -->
<g id="node32" class="node">
<title>n68</title>
<ellipse fill="none" stroke="black" cx="1644.66" cy="-960" rx="114.28" ry="18"/>
<text text-anchor="middle" x="1644.66" y="-956.3" font-family="Times,serif" font-size="14.00">incoming_concurrency</text>
</g>
<!-- n68&#45;&gt;n12 -->
<g id="edge31" class="edge">
<title>n68&#45;&gt;n12</title>
<path fill="none" stroke="black" d="M1751.14,-953.27C1751.14,-928.94 1751.14,-847 1751.14,-847 1751.14,-847 2136.29,-847 2136.29,-847"/>
<polygon fill="black" stroke="black" points="2136.29,-850.5 2146.29,-847 2136.29,-843.5 2136.29,-850.5"/>
<text text-anchor="middle" x="1971.04" y="-906.8" font-family="Times,serif" font-size="14.00">INCOMING_CONCURRENCY</text>
</g>
<!-- n68&#45;&gt;n17 -->
<g id="edge32" class="edge">
<title>n68&#45;&gt;n17</title>
<path fill="none" stroke="black" d="M1742.14,-950.37C1742.14,-854.57 1742.14,-76 1742.14,-76 1742.14,-76 2136.04,-76 2136.04,-76"/>
<polygon fill="black" stroke="black" points="2136.04,-79.5 2146.04,-76 2136.04,-72.5 2136.04,-79.5"/>
<text text-anchor="middle" x="1971.04" y="-582.8" font-family="Times,serif" font-size="14.00">INCOMING_CONCURRENCY</text>
</g>
<!-- n72 -->
<g id="node33" class="node">
<title>n72</title>
<ellipse fill="none" stroke="black" cx="2173.34" cy="-1599" rx="27" ry="18"/>
<text text-anchor="middle" x="2173.34" y="-1595.3" font-family="Times,serif" font-size="14.00">lhs</text>
</g>
<!-- n74 -->
<g id="node34" class="node">
<title>n74</title>
<ellipse fill="none" stroke="black" cx="2699.68" cy="-1545" rx="41.69" ry="18"/>
<text text-anchor="middle" x="2699.68" y="-1541.3" font-family="Times,serif" font-size="14.00">output</text>
</g>
<!-- n79 -->
<g id="node60" class="node">
<title>n79</title>
<ellipse fill="none" stroke="black" cx="3160.38" cy="-1932" rx="40.89" ry="18"/>
<text text-anchor="middle" x="3160.38" y="-1928.3" font-family="Times,serif" font-size="14.00">switch</text>
</g>
<!-- n74&#45;&gt;n79 -->
<g id="edge51" class="edge">
<title>n74&#45;&gt;n79</title>
<path fill="none" stroke="black" d="M2700.14,-1563.15C2700.14,-1639.66 2700.14,-1932 2700.14,-1932 2700.14,-1932 3109.13,-1932 3109.13,-1932"/>
<polygon fill="black" stroke="black" points="3109.13,-1935.5 3119.13,-1932 3109.13,-1928.5 3109.13,-1935.5"/>
<text text-anchor="middle" x="2946.78" y="-1629.8" font-family="Times,serif" font-size="14.00">IS_OVERLOAD_SWITCH</text>
</g>
<!-- n85 -->
<g id="node65" class="node">
<title>n85</title>
<ellipse fill="none" stroke="black" cx="3160.38" cy="-626" rx="40.89" ry="18"/>
<text text-anchor="middle" x="3160.38" y="-622.3" font-family="Times,serif" font-size="14.00">switch</text>
</g>
<!-- n74&#45;&gt;n85 -->
<g id="edge52" class="edge">
<title>n74&#45;&gt;n85</title>
<path fill="none" stroke="black" d="M2741.45,-1545C2855.04,-1545 3161.14,-1545 3161.14,-1545 3161.14,-1545 3161.14,-654.36 3161.14,-654.36"/>
<polygon fill="black" stroke="black" points="3164.64,-654.36 3161.14,-644.36 3157.64,-654.36 3164.64,-654.36"/>
<text text-anchor="middle" x="2946.78" y="-1334.8" font-family="Times,serif" font-size="14.00">IS_OVERLOAD_SWITCH</text>
</g>
<!-- n73&#45;&gt;n74 -->
<!-- n55 -->
<g id="node36" class="node">
<title>n55</title>
<ellipse fill="none" stroke="black" cx="798.43" cy="-2191" rx="35.19" ry="18"/>
<text text-anchor="middle" x="798.43" y="-2187.3" font-family="Times,serif" font-size="14.00">input</text>
</g>
<!-- n57 -->
<g id="node38" class="node">
<title>n57</title>
<ellipse fill="none" stroke="black" cx="1051.67" cy="-2137" rx="41.69" ry="18"/>
<text text-anchor="middle" x="1051.67" y="-2133.3" font-family="Times,serif" font-size="14.00">output</text>
</g>
<!-- n56&#45;&gt;n57 -->
<!-- n57&#45;&gt;n7 -->
<g id="edge42" class="edge">
<title>n57&#45;&gt;n7</title>
<path fill="none" stroke="black" d="M1052.14,-2155.14C1052.14,-2233.76 1052.14,-2541 1052.14,-2541 1052.14,-2541 3123.34,-2541 3123.34,-2541"/>
<polygon fill="black" stroke="black" points="3123.34,-2544.5 3133.34,-2541 3123.34,-2537.5 3123.34,-2544.5"/>
<text text-anchor="middle" x="1971.04" y="-2536.8" font-family="Times,serif" font-size="14.00">LATENCY_EMA</text>
</g>
<!-- n57&#45;&gt;n25 -->
<g id="edge43" class="edge">
<title>n57&#45;&gt;n25</title>
<path fill="none" stroke="black" d="M1088.14,-2128.05C1088.14,-2063.21 1088.14,-1668 1088.14,-1668 1088.14,-1668 1269.96,-1668 1269.96,-1668"/>
<polygon fill="black" stroke="black" points="1269.96,-1671.5 1279.96,-1668 1269.96,-1664.5 1269.96,-1671.5"/>
<text text-anchor="middle" x="1206.77" y="-2032.8" font-family="Times,serif" font-size="14.00">LATENCY_EMA</text>
</g>
<!-- n43 -->
<g id="node39" class="node">
<title>n43</title>
<ellipse fill="none" stroke="black" cx="1644.66" cy="-1378" rx="31.4" ry="18"/>
<text text-anchor="middle" x="1644.66" y="-1374.3" font-family="Times,serif" font-size="14.00">0.00</text>
</g>
<!-- n42 -->
<g id="node40" class="node">
<title>n42</title>
<ellipse fill="none" stroke="black" cx="2173.34" cy="-1378" rx="40.09" ry="18"/>
<text text-anchor="middle" x="2173.34" y="-1374.3" font-family="Times,serif" font-size="14.00">inputs</text>
</g>
<!-- n43&#45;&gt;n42 -->
<g id="edge16" class="edge">
<title>n43&#45;&gt;n42</title>
<path fill="none" stroke="black" d="M1676.14,-1378C1676.14,-1378 2122.86,-1378 2122.86,-1378"/>
<polygon fill="black" stroke="black" points="2122.86,-1381.5 2132.86,-1378 2122.86,-1374.5 2122.86,-1381.5"/>
</g>
<!-- n44 -->
<g id="node41" class="node">
<title>n44</title>
<ellipse fill="none" stroke="black" cx="2699.68" cy="-1378" rx="41.69" ry="18"/>
<text text-anchor="middle" x="2699.68" y="-1374.3" font-family="Times,serif" font-size="14.00">output</text>
</g>
<!-- n42&#45;&gt;n44 -->
<!-- n78 -->
<g id="node57" class="node">
<title>n78</title>
<ellipse fill="none" stroke="black" cx="3160.38" cy="-1878" rx="48.19" ry="18"/>
<text text-anchor="middle" x="3160.38" y="-1874.3" font-family="Times,serif" font-size="14.00">on_false</text>
</g>
<!-- n44&#45;&gt;n78 -->
<g id="edge47" class="edge">
<title>n44&#45;&gt;n78</title>
<path fill="none" stroke="black" d="M2738.96,-1384C2842.88,-1384 3117.14,-1384 3117.14,-1384 3117.14,-1384 3117.14,-1859.84 3117.14,-1859.84"/>
<polygon fill="black" stroke="black" points="3113.64,-1859.84 3117.14,-1869.84 3120.64,-1859.84 3113.64,-1859.84"/>
<text text-anchor="middle" x="2946.78" y="-1527.8" font-family="Times,serif" font-size="14.00">CONCURRENCY_INCREMENT_NORMAL</text>
</g>
<!-- n84 -->
<g id="node62" class="node">
<title>n84</title>
<ellipse fill="none" stroke="black" cx="3160.38" cy="-572" rx="48.19" ry="18"/>
<text text-anchor="middle" x="3160.38" y="-568.3" font-family="Times,serif" font-size="14.00">on_false</text>
</g>
<!-- n44&#45;&gt;n84 -->
<g id="edge48" class="edge">
<title>n44&#45;&gt;n84</title>
<path fill="none" stroke="black" d="M2739.14,-1372C2842.85,-1372 3115.14,-1372 3115.14,-1372 3115.14,-1372 3115.14,-588.44 3115.14,-588.44"/>
<polygon fill="black" stroke="black" points="3118.64,-588.44 3115.14,-578.44 3111.64,-588.44 3118.64,-588.44"/>
<text text-anchor="middle" x="2946.78" y="-1020.8" font-family="Times,serif" font-size="14.00">CONCURRENCY_INCREMENT_NORMAL</text>
</g>
<!-- n64 -->
<g id="node45" class="node">
<title>n64</title>
<ellipse fill="none" stroke="black" cx="4325.55" cy="-2047" rx="41.69" ry="18"/>
<text text-anchor="middle" x="4325.55" y="-2043.3" font-family="Times,serif" font-size="14.00">output</text>
</g>
<!-- n63&#45;&gt;n64 -->
<!-- n62 -->
<g id="node43" class="node">
<title>n62</title>
<ellipse fill="none" stroke="black" cx="4161.81" cy="-2155" rx="30.59" ry="18"/>
<text text-anchor="middle" x="4161.81" y="-2151.3" font-family="Times,serif" font-size="14.00">max</text>
</g>
<!-- n61 -->
<g id="node44" class="node">
<title>n61</title>
<ellipse fill="none" stroke="black" cx="4161.81" cy="-2101" rx="50.89" ry="18"/>
<text text-anchor="middle" x="4161.81" y="-2097.3" font-family="Times,serif" font-size="14.00">optimize</text>
</g>
<!-- n64&#45;&gt;n13 -->
<g id="edge50" class="edge">
<title>n64&#45;&gt;n13</title>
<path fill="none" stroke="black" d="M4326.14,-2028.7C4326.14,-1876.07 4326.14,-820 4326.14,-820 4326.14,-820 2174.14,-820 2174.14,-820 2174.14,-820 2174.14,-819.12 2174.14,-819.12"/>
<polygon fill="black" stroke="black" points="2177.64,-821.16 2174.14,-811.16 2170.64,-821.16 2177.64,-821.16"/>
<text text-anchor="middle" x="3378.97" y="-1062.8" font-family="Times,serif" font-size="14.00">DESIRED_CONCURRENCY</text>
</g>
<!-- n59 -->
<g id="node47" class="node">
<title>n59</title>
<ellipse fill="none" stroke="black" cx="4161.81" cy="-2263" rx="38.19" ry="18"/>
<text text-anchor="middle" x="4161.81" y="-2259.3" font-family="Times,serif" font-size="14.00">signal</text>
</g>
<!-- n47 -->
<g id="node48" class="node">
<title>n47</title>
<ellipse fill="none" stroke="black" cx="2699.68" cy="-2374" rx="37.09" ry="18"/>
<text text-anchor="middle" x="2699.68" y="-2370.3" font-family="Times,serif" font-size="14.00">10.00</text>
</g>
<!-- n47&#45;&gt;n46 -->
<g id="edge19" class="edge">
<title>n47&#45;&gt;n46</title>
<path fill="none" stroke="black" d="M2736.99,-2374C2736.99,-2374 3109.77,-2374 3109.77,-2374"/>
<polygon fill="black" stroke="black" points="3109.77,-2377.5 3119.77,-2374 3109.77,-2370.5 3109.77,-2377.5"/>
</g>
<!-- n48 -->
<g id="node50" class="node">
<title>n48</title>
<ellipse fill="none" stroke="black" cx="3591.07" cy="-2374" rx="41.69" ry="18"/>
<text text-anchor="middle" x="3591.07" y="-2370.3" font-family="Times,serif" font-size="14.00">output</text>
</g>
<!-- n46&#45;&gt;n48 -->
<!-- n48&#45;&gt;n62 -->
<g id="edge49" class="edge">
<title>n48&#45;&gt;n62</title>
<path fill="none" stroke="black" d="M3578.14,-2356.74C3578.14,-2304.87 3578.14,-2154 3578.14,-2154 3578.14,-2154 4121.25,-2154 4121.25,-2154"/>
<polygon fill="black" stroke="black" points="4121.25,-2157.5 4131.25,-2154 4121.25,-2150.5 4121.25,-2157.5"/>
<text text-anchor="middle" x="3854.66" y="-2197.8" font-family="Times,serif" font-size="14.00">MAX_CONCURRENCY</text>
</g>
<!-- n40 -->
<g id="node52" class="node">
<title>n40</title>
<ellipse fill="none" stroke="black" cx="2699.68" cy="-1211" rx="41.69" ry="18"/>
<text text-anchor="middle" x="2699.68" y="-1207.3" font-family="Times,serif" font-size="14.00">output</text>
</g>
<!-- n39&#45;&gt;n40 -->
<!-- n40&#45;&gt;n42 -->
<g id="edge46" class="edge">
<title>n40&#45;&gt;n42</title>
<path fill="none" stroke="black" d="M2663.59,-1220C2608.59,-1220 2510.14,-1220 2510.14,-1220 2510.14,-1220 2510.14,-1372 2510.14,-1372 2510.14,-1372 2221.65,-1372 2221.65,-1372"/>
<polygon fill="black" stroke="black" points="2221.65,-1368.5 2211.65,-1372 2221.65,-1375.5 2221.65,-1368.5"/>
<text text-anchor="middle" x="2418.14" y="-1299.8" font-family="Times,serif" font-size="14.00">CONCURRENCY_INCREMENT_INTEGRAL_CAPPED</text>
</g>
<!-- n53 -->
<g id="node53" class="node">
<title>n53</title>
<ellipse fill="none" stroke="black" cx="99.6" cy="-2269" rx="41.69" ry="18"/>
<text text-anchor="middle" x="99.6" y="-2265.3" font-family="Times,serif" font-size="14.00">output</text>
</g>
<!-- n53&#45;&gt;n2 -->
<g id="edge38" class="edge">
<title>n53&#45;&gt;n2</title>
<path fill="none" stroke="black" d="M136.14,-2260.19C136.14,-2221.68 136.14,-2070 136.14,-2070 136.14,-2070 277.15,-2070 277.15,-2070"/>
<polygon fill="black" stroke="black" points="277.15,-2073.5 287.15,-2070 277.15,-2066.5 277.15,-2073.5"/>
<text text-anchor="middle" x="234.19" y="-2257.8" font-family="Times,serif" font-size="14.00">LATENCY</text>
</g>
<!-- n53&#45;&gt;n72 -->
<g id="edge41" class="edge">
<title>n53&#45;&gt;n72</title>
<path fill="none" stroke="black" d="M134.14,-2258.85C134.14,-2174.2 134.14,-1588.5 134.14,-1588.5 134.14,-1588.5 2141.14,-1588.5 2141.14,-1588.5"/>
<polygon fill="black" stroke="black" points="2141.14,-1592 2151.14,-1588.5 2141.14,-1585 2141.14,-1592"/>
<text text-anchor="middle" x="927.47" y="-1891.8" font-family="Times,serif" font-size="14.00">LATENCY</text>
</g>
<!-- n53&#45;&gt;n55 -->
<g id="edge39" class="edge">
<title>n53&#45;&gt;n55</title>
<path fill="none" stroke="black" d="M139.14,-2263.39C139.14,-2245.51 139.14,-2191 139.14,-2191 139.14,-2191 752.98,-2191 752.98,-2191"/>
<polygon fill="black" stroke="black" points="752.98,-2194.5 762.98,-2191 752.98,-2187.5 752.98,-2194.5"/>
<text text-anchor="middle" x="394.19" y="-2287.8" font-family="Times,serif" font-size="14.00">LATENCY</text>
</g>
<!-- n53&#45;&gt;n59 -->
<g id="edge40" class="edge">
<title>n53&#45;&gt;n59</title>
<path fill="none" stroke="black" d="M140.79,-2266C140.79,-2266 4113.78,-2266 4113.78,-2266"/>
<polygon fill="black" stroke="black" points="4113.78,-2269.5 4123.78,-2266 4113.78,-2262.5 4113.78,-2269.5"/>
<text text-anchor="middle" x="1387.27" y="-2749.8" font-family="Times,serif" font-size="14.00">LATENCY</text>
</g>
<!-- n51 -->
<g id="node55" class="node">
<title>n51</title>
<ellipse fill="none" stroke="black" cx="2699.68" cy="-1014" rx="41.69" ry="18"/>
<text text-anchor="middle" x="2699.68" y="-1010.3" font-family="Times,serif" font-size="14.00">output</text>
</g>
<!-- n50&#45;&gt;n51 -->
<!-- n51&#45;&gt;n30 -->
<g id="edge45" class="edge">
<title>n51&#45;&gt;n30</title>
<path fill="none" stroke="black" d="M2741.4,-1014C2807.07,-1014 2927.14,-1014 2927.14,-1014 2927.14,-1014 2927.14,-351 2927.14,-351 2927.14,-351 3123.17,-351 3123.17,-351"/>
<polygon fill="black" stroke="black" points="3123.17,-354.5 3133.17,-351 3123.17,-347.5 3123.17,-354.5"/>
<text text-anchor="middle" x="2946.78" y="-903.8" font-family="Times,serif" font-size="14.00">SQRT_CONCURRENCY_INCREMENT</text>
</g>
<!-- n77 -->
<g id="node56" class="node">
<title>n77</title>
<ellipse fill="none" stroke="black" cx="2699.68" cy="-1986" rx="37.09" ry="18"/>
<text text-anchor="middle" x="2699.68" y="-1982.3" font-family="Times,serif" font-size="14.00">10.00</text>
</g>
<!-- n76 -->
<g id="node58" class="node">
<title>n76</title>
<ellipse fill="none" stroke="black" cx="3160.38" cy="-1986" rx="46.29" ry="18"/>
<text text-anchor="middle" x="3160.38" y="-1982.3" font-family="Times,serif" font-size="14.00">on_true</text>
</g>
<!-- n77&#45;&gt;n76 -->
<g id="edge23" class="edge">
<title>n77&#45;&gt;n76</title>
<path fill="none" stroke="black" d="M2736.99,-1986C2736.99,-1986 3103.95,-1986 3103.95,-1986"/>
<polygon fill="black" stroke="black" points="3103.95,-1989.5 3113.95,-1986 3103.95,-1982.5 3103.95,-1989.5"/>
</g>
<!-- n80 -->
<g id="node59" class="node">
<title>n80</title>
<ellipse fill="none" stroke="black" cx="3591.07" cy="-1972" rx="41.69" ry="18"/>
<text text-anchor="middle" x="3591.07" y="-1968.3" font-family="Times,serif" font-size="14.00">output</text>
</g>
<!-- n80&#45;&gt;n61 -->
<g id="edge53" class="edge">
<title>n80&#45;&gt;n61</title>
<path fill="none" stroke="black" d="M3605.14,-1989.19C3605.14,-2024.84 3605.14,-2103.5 3605.14,-2103.5 3605.14,-2103.5 4101.43,-2103.5 4101.43,-2103.5"/>
<polygon fill="black" stroke="black" points="4101.43,-2107 4111.43,-2103.5 4101.43,-2100 4101.43,-2107"/>
<text text-anchor="middle" x="3854.66" y="-2065.8" font-family="Times,serif" font-size="14.00">CONCURRENCY_INCREMENT</text>
</g>
<!-- n79&#45;&gt;n80 -->
<!-- n83 -->
<g id="node61" class="node">
<title>n83</title>
<ellipse fill="none" stroke="black" cx="2699.68" cy="-518" rx="31.4" ry="18"/>
<text text-anchor="middle" x="2699.68" y="-514.3" font-family="Times,serif" font-size="14.00">0.00</text>
</g>
<!-- n82 -->
<g id="node63" class="node">
<title>n82</title>
<ellipse fill="none" stroke="black" cx="3160.38" cy="-518" rx="46.29" ry="18"/>
<text text-anchor="middle" x="3160.38" y="-514.3" font-family="Times,serif" font-size="14.00">on_true</text>
</g>
<!-- n83&#45;&gt;n82 -->
<g id="edge25" class="edge">
<title>n83&#45;&gt;n82</title>
<path fill="none" stroke="black" d="M2730.99,-518C2730.99,-518 3104.11,-518 3104.11,-518"/>
<polygon fill="black" stroke="black" points="3104.11,-521.5 3114.11,-518 3104.11,-514.5 3104.11,-521.5"/>
</g>
<!-- n86 -->
<g id="node64" class="node">
<title>n86</title>
<ellipse fill="none" stroke="black" cx="3591.07" cy="-626" rx="41.69" ry="18"/>
<text text-anchor="middle" x="3591.07" y="-622.3" font-family="Times,serif" font-size="14.00">output</text>
</g>
<!-- n86&#45;&gt;n35 -->
<g id="edge55" class="edge">
<title>n86&#45;&gt;n35</title>
<path fill="none" stroke="black" d="M3633.04,-626C3633.04,-626 4124.62,-626 4124.62,-626"/>
<polygon fill="black" stroke="black" points="4124.62,-629.5 4134.62,-626 4124.62,-622.5 4124.62,-629.5"/>
<text text-anchor="middle" x="3854.66" y="-629.8" font-family="Times,serif" font-size="14.00">CONCURRENCY_INCREMENT_FEEDBACK</text>
</g>
<!-- n85&#45;&gt;n86 -->
</g>
</svg>
