<?xml version="1.0" encoding="UTF-8" standalone="no"?>
<!DOCTYPE svg PUBLIC "-//W3C//DTD SVG 1.1//EN"
 "http://www.w3.org/Graphics/SVG/1.1/DTD/svg11.dtd">
<!-- Generated by graphviz version 6.0.1 (20220911.1526)
 -->
<!-- Pages: 1 -->
<svg width="4572pt" height="2453pt"
 viewBox="0.00 0.00 4571.58 2453.00" xmlns="http://www.w3.org/2000/svg" xmlns:xlink="http://www.w3.org/1999/xlink">
<g id="graph0" class="graph" transform="scale(1 1) rotate(0) translate(4 2449)">
<polygon fill="white" stroke="none" points="-4,4 -4,-2449 4567.58,-2449 4567.58,4 -4,4"/>
<g id="clust1" class="cluster">
<title>cluster_s1</title>
<polygon fill="none" stroke="black" points="18.4,-1357 18.4,-1570 580.39,-1570 580.39,-1357 18.4,-1357"/>
<text text-anchor="middle" x="299.39" y="-1554.8" font-family="Times,serif" font-size="14.00">ArithmeticCombinator[0]</text>
</g>
<g id="clust4" class="cluster">
<title>cluster_s6</title>
<polygon fill="none" stroke="black" points="970.47,-1231 970.47,-1444 1736.25,-1444 1736.25,-1231 970.47,-1231"/>
<text text-anchor="middle" x="1353.36" y="-1428.8" font-family="Times,serif" font-size="14.00">ArithmeticCombinator[1]</text>
</g>
<g id="clust7" class="cluster">
<title>cluster_s11</title>
<polygon fill="none" stroke="black" points="1563.46,-8 1563.46,-221 2929.72,-221 2929.72,-8 1563.46,-8"/>
<text text-anchor="middle" x="2246.59" y="-205.8" font-family="Times,serif" font-size="14.00">ArithmeticCombinator[2]</text>
</g>
<g id="clust10" class="cluster">
<title>cluster_s16</title>
<polygon fill="none" stroke="black" points="2756.93,-952 2756.93,-1165 3821.1,-1165 3821.1,-952 2756.93,-952"/>
<text text-anchor="middle" x="3289.01" y="-1149.8" font-family="Times,serif" font-size="14.00">ArithmeticCombinator[3]</text>
</g>
<g id="clust13" class="cluster">
<title>cluster_s21</title>
<polygon fill="none" stroke="black" points="4223.25,-1006 4223.25,-1219 4555.58,-1219 4555.58,-1006 4223.25,-1006"/>
<text text-anchor="middle" x="4389.41" y="-1203.8" font-family="Times,serif" font-size="14.00">ArithmeticCombinator[4]</text>
</g>
<g id="clust16" class="cluster">
<title>cluster_s52</title>
<polygon fill="none" stroke="black" points="1430.27,-508 1430.27,-1053 2356.23,-1053 2356.23,-508 1430.27,-508"/>
<text text-anchor="middle" x="1893.25" y="-1037.8" font-family="Times,serif" font-size="14.00">ConcurrencyLimiter[12]</text>
</g>
<g id="clust17" class="cluster">
<title>cluster_s56</title>
<polygon fill="none" stroke="black" points="1545.91,-821 1545.91,-980 2306.23,-980 2306.23,-821 1545.91,-821"/>
<text text-anchor="middle" x="1926.07" y="-964.8" font-family="Times,serif" font-size="14.00">ConcurrencyActuator[12.ConcurrencyActuator]</text>
</g>
<g id="clust19" class="cluster">
<title>cluster_s53</title>
<polygon fill="none" stroke="black" points="1480.27,-558 1480.27,-771 1809.04,-771 1809.04,-558 1480.27,-558"/>
<text text-anchor="middle" x="1644.66" y="-755.8" font-family="Times,serif" font-size="14.00">Scheduler[12.Scheduler]</text>
</g>
<g id="clust21" class="cluster">
<title>cluster_s59</title>
<polygon fill="none" stroke="black" points="2072.64,-1782 2072.64,-1995 2929.72,-1995 2929.72,-1782 2072.64,-1782"/>
<text text-anchor="middle" x="2501.18" y="-1979.8" font-family="Times,serif" font-size="14.00">Decider[13]</text>
</g>
<g id="clust24" class="cluster">
<title>cluster_s41</title>
<polygon fill="none" stroke="black" points="672.39,-1452 672.39,-1665 1143.27,-1665 1143.27,-1452 672.39,-1452"/>
<text text-anchor="middle" x="907.83" y="-1649.8" font-family="Times,serif" font-size="14.00">EMA[10]</text>
</g>
<g id="clust27" class="cluster">
<title>cluster_s28</title>
<polygon fill="none" stroke="black" points="1563.46,-2003 1563.46,-2162 2929.72,-2162 2929.72,-2003 1563.46,-2003"/>
<text text-anchor="middle" x="2246.59" y="-2146.8" font-family="Times,serif" font-size="14.00">FirstValid[6]</text>
</g>
<g id="clust30" class="cluster">
<title>cluster_s45</title>
<polygon fill="none" stroke="black" points="4165.1,-452 4165.1,-827 4555.58,-827 4555.58,-452 4165.1,-452"/>
<text text-anchor="middle" x="4360.34" y="-811.8" font-family="Times,serif" font-size="14.00">Gradient[11]</text>
</g>
<g id="clust33" class="cluster">
<title>cluster_s32</title>
<polygon fill="none" stroke="black" points="2751.08,-229 2751.08,-388 3821.1,-388 3821.1,-229 2751.08,-229"/>
<text text-anchor="middle" x="3286.09" y="-372.8" font-family="Times,serif" font-size="14.00">Max[7]</text>
</g>
<g id="clust36" class="cluster">
<title>cluster_s25</title>
<polygon fill="none" stroke="black" points="2059.34,-1340 2059.34,-1499 2929.72,-1499 2929.72,-1340 2059.34,-1340"/>
<text text-anchor="middle" x="2494.53" y="-1483.8" font-family="Times,serif" font-size="14.00">Min[5]</text>
</g>
<g id="clust39" class="cluster">
<title>cluster_s39</title>
<polygon fill="none" stroke="black" points="8,-1578 8,-1737 191.19,-1737 191.19,-1578 8,-1578"/>
<text text-anchor="middle" x="99.6" y="-1721.8" font-family="Times,serif" font-size="14.00">PromQL[9]</text>
</g>
<g id="clust41" class="cluster">
<title>cluster_s36</title>
<polygon fill="none" stroke="black" points="2064.54,-1173 2064.54,-1332 2929.72,-1332 2929.72,-1173 2064.54,-1173"/>
<text text-anchor="middle" x="2497.13" y="-1316.8" font-family="Times,serif" font-size="14.00">Sqrt[8]</text>
</g>
<g id="clust44" class="cluster">
<title>cluster_s63</title>
<polygon fill="none" stroke="black" points="2745.23,-1507 2745.23,-1774 3821.1,-1774 3821.1,-1507 2745.23,-1507"/>
<text text-anchor="middle" x="3283.16" y="-1758.8" font-family="Times,serif" font-size="14.00">Switcher[14]</text>
</g>
<g id="clust47" class="cluster">
<title>cluster_s69</title>
<polygon fill="none" stroke="black" points="2756.93,-2170 2756.93,-2437 3821.1,-2437 3821.1,-2170 2756.93,-2170"/>
<text text-anchor="middle" x="3289.01" y="-2421.8" font-family="Times,serif" font-size="14.00">Switcher[15]</text>
</g>
<!-- n4 -->
<g id="node1" class="node">
<title>n4</title>
<ellipse fill="none" stroke="black" cx="99.6" cy="-1425" rx="31.4" ry="18"/>
<text text-anchor="middle" x="99.6" y="-1421.3" font-family="Times,serif" font-size="14.00">2.00</text>
</g>
<!-- n3 -->
<g id="node4" class="node">
<title>n3</title>
<ellipse fill="none" stroke="black" cx="314.19" cy="-1425" rx="27" ry="18"/>
<text text-anchor="middle" x="314.19" y="-1421.3" font-family="Times,serif" font-size="14.00">rhs</text>
</g>
<!-- n4&#45;&gt;n3 -->
<g id="edge1" class="edge">
<title>n4&#45;&gt;n3</title>
<path fill="none" stroke="black" d="M130.8,-1425C130.8,-1425 277.03,-1425 277.03,-1425"/>
<polygon fill="black" stroke="black" points="277.03,-1428.5 287.03,-1425 277.03,-1421.5 277.03,-1428.5"/>
</g>
<!-- n2 -->
<g id="node2" class="node">
<title>n2</title>
<ellipse fill="none" stroke="black" cx="314.19" cy="-1479" rx="27" ry="18"/>
<text text-anchor="middle" x="314.19" y="-1475.3" font-family="Times,serif" font-size="14.00">lhs</text>
</g>
<!-- n5 -->
<g id="node3" class="node">
<title>n5</title>
<ellipse fill="none" stroke="black" cx="488.79" cy="-1465" rx="41.69" ry="18"/>
<text text-anchor="middle" x="488.79" y="-1461.3" font-family="Times,serif" font-size="14.00">output</text>
</g>
<!-- n43 -->
<g id="node28" class="node">
<title>n43</title>
<ellipse fill="none" stroke="black" cx="798.43" cy="-1520" rx="76.09" ry="18"/>
<text text-anchor="middle" x="798.43" y="-1516.3" font-family="Times,serif" font-size="14.00">max_envelope</text>
</g>
<!-- n5&#45;&gt;n43 -->
<g id="edge37" class="edge">
<title>n5&#45;&gt;n43</title>
<path fill="none" stroke="black" d="M489.58,-1483.01C489.58,-1499.05 489.58,-1520 489.58,-1520 489.58,-1520 712.08,-1520 712.08,-1520"/>
<polygon fill="black" stroke="black" points="712.08,-1523.5 722.08,-1520 712.08,-1516.5 712.08,-1523.5"/>
<text text-anchor="middle" x="626.39" y="-1502.8" font-family="Times,serif" font-size="14.00">MAX_EMA</text>
</g>
<!-- n3&#45;&gt;n5 -->
<!-- n9 -->
<g id="node5" class="node">
<title>n9</title>
<ellipse fill="none" stroke="black" cx="1051.67" cy="-1299" rx="31.4" ry="18"/>
<text text-anchor="middle" x="1051.67" y="-1295.3" font-family="Times,serif" font-size="14.00">1.10</text>
</g>
<!-- n8 -->
<g id="node8" class="node">
<title>n8</title>
<ellipse fill="none" stroke="black" cx="1307.27" cy="-1299" rx="27" ry="18"/>
<text text-anchor="middle" x="1307.27" y="-1295.3" font-family="Times,serif" font-size="14.00">rhs</text>
</g>
<!-- n9&#45;&gt;n8 -->
<g id="edge3" class="edge">
<title>n9&#45;&gt;n8</title>
<path fill="none" stroke="black" d="M1083.01,-1299C1083.01,-1299 1269.96,-1299 1269.96,-1299"/>
<polygon fill="black" stroke="black" points="1269.96,-1302.5 1279.96,-1299 1269.96,-1295.5 1269.96,-1302.5"/>
</g>
<!-- n7 -->
<g id="node6" class="node">
<title>n7</title>
<ellipse fill="none" stroke="black" cx="1307.27" cy="-1353" rx="27" ry="18"/>
<text text-anchor="middle" x="1307.27" y="-1349.3" font-family="Times,serif" font-size="14.00">lhs</text>
</g>
<!-- n10 -->
<g id="node7" class="node">
<title>n10</title>
<ellipse fill="none" stroke="black" cx="1644.66" cy="-1299" rx="41.69" ry="18"/>
<text text-anchor="middle" x="1644.66" y="-1295.3" font-family="Times,serif" font-size="14.00">output</text>
</g>
<!-- n61 -->
<g id="node26" class="node">
<title>n61</title>
<ellipse fill="none" stroke="black" cx="2149.64" cy="-1850" rx="27" ry="18"/>
<text text-anchor="middle" x="2149.64" y="-1846.3" font-family="Times,serif" font-size="14.00">rhs</text>
</g>
<!-- n10&#45;&gt;n61 -->
<g id="edge29" class="edge">
<title>n10&#45;&gt;n61</title>
<path fill="none" stroke="black" d="M1681.58,-1307.65C1681.58,-1377.75 1681.58,-1850 1681.58,-1850 1681.58,-1850 2112.45,-1850 2112.45,-1850"/>
<polygon fill="black" stroke="black" points="2112.45,-1853.5 2122.45,-1850 2112.45,-1846.5 2112.45,-1853.5"/>
<text text-anchor="middle" x="1921.04" y="-1599.8" font-family="Times,serif" font-size="14.00">LATENCY_SETPOINT</text>
</g>
<!-- n46 -->
<g id="node37" class="node">
<title>n46</title>
<ellipse fill="none" stroke="black" cx="4300.25" cy="-682" rx="48.99" ry="18"/>
<text text-anchor="middle" x="4300.25" y="-678.3" font-family="Times,serif" font-size="14.00">setpoint</text>
</g>
<!-- n10&#45;&gt;n46 -->
<g id="edge28" class="edge">
<title>n10&#45;&gt;n46</title>
<path fill="none" stroke="black" d="M1686.51,-1299C1759.31,-1299 1901.58,-1299 1901.58,-1299 1901.58,-1299 1901.58,-689.5 1901.58,-689.5 1901.58,-689.5 4245.78,-689.5 4245.78,-689.5"/>
<polygon fill="black" stroke="black" points="4245.78,-693 4255.78,-689.5 4245.78,-686 4245.78,-693"/>
<text text-anchor="middle" x="3085.22" y="-852.8" font-family="Times,serif" font-size="14.00">LATENCY_SETPOINT</text>
</g>
<!-- n8&#45;&gt;n10 -->
<!-- n13 -->
<g id="node9" class="node">
<title>n13</title>
<ellipse fill="none" stroke="black" cx="1644.66" cy="-76" rx="31.4" ry="18"/>
<text text-anchor="middle" x="1644.66" y="-72.3" font-family="Times,serif" font-size="14.00">2.00</text>
</g>
<!-- n12 -->
<g id="node10" class="node">
<title>n12</title>
<ellipse fill="none" stroke="black" cx="2149.64" cy="-76" rx="27" ry="18"/>
<text text-anchor="middle" x="2149.64" y="-72.3" font-family="Times,serif" font-size="14.00">lhs</text>
</g>
<!-- n13&#45;&gt;n12 -->
<g id="edge5" class="edge">
<title>n13&#45;&gt;n12</title>
<path fill="none" stroke="black" d="M1675.86,-76C1675.86,-76 2112.39,-76 2112.39,-76"/>
<polygon fill="black" stroke="black" points="2112.39,-79.5 2122.39,-76 2112.39,-72.5 2112.39,-79.5"/>
</g>
<!-- n15 -->
<g id="node11" class="node">
<title>n15</title>
<ellipse fill="none" stroke="black" cx="2838.12" cy="-130" rx="41.69" ry="18"/>
<text text-anchor="middle" x="2838.12" y="-126.3" font-family="Times,serif" font-size="14.00">output</text>
</g>
<!-- n33 -->
<g id="node40" class="node">
<title>n33</title>
<ellipse fill="none" stroke="black" cx="3298.81" cy="-297" rx="40.09" ry="18"/>
<text text-anchor="middle" x="3298.81" y="-293.3" font-family="Times,serif" font-size="14.00">inputs</text>
</g>
<!-- n15&#45;&gt;n33 -->
<g id="edge38" class="edge">
<title>n15&#45;&gt;n33</title>
<path fill="none" stroke="black" d="M2879.89,-130C2993.48,-130 3299.58,-130 3299.58,-130 3299.58,-130 3299.58,-268.81 3299.58,-268.81"/>
<polygon fill="black" stroke="black" points="3296.08,-268.81 3299.58,-278.81 3303.08,-268.81 3296.08,-268.81"/>
<text text-anchor="middle" x="3085.22" y="-206.8" font-family="Times,serif" font-size="14.00">UPPER_CONCURRENCY_LIMIT</text>
</g>
<!-- n14 -->
<g id="node12" class="node">
<title>n14</title>
<ellipse fill="none" stroke="black" cx="2149.64" cy="-130" rx="27" ry="18"/>
<text text-anchor="middle" x="2149.64" y="-126.3" font-family="Times,serif" font-size="14.00">rhs</text>
</g>
<!-- n14&#45;&gt;n15 -->
<!-- n18 -->
<g id="node13" class="node">
<title>n18</title>
<ellipse fill="none" stroke="black" cx="2838.12" cy="-1020" rx="31.4" ry="18"/>
<text text-anchor="middle" x="2838.12" y="-1016.3" font-family="Times,serif" font-size="14.00">5.00</text>
</g>
<!-- n17 -->
<g id="node14" class="node">
<title>n17</title>
<ellipse fill="none" stroke="black" cx="3298.81" cy="-1020" rx="27" ry="18"/>
<text text-anchor="middle" x="3298.81" y="-1016.3" font-family="Times,serif" font-size="14.00">lhs</text>
</g>
<!-- n18&#45;&gt;n17 -->
<g id="edge7" class="edge">
<title>n18&#45;&gt;n17</title>
<path fill="none" stroke="black" d="M2869.43,-1020C2869.43,-1020 3261.6,-1020 3261.6,-1020"/>
<polygon fill="black" stroke="black" points="3261.6,-1023.5 3271.6,-1020 3261.6,-1016.5 3261.6,-1023.5"/>
</g>
<!-- n20 -->
<g id="node15" class="node">
<title>n20</title>
<ellipse fill="none" stroke="black" cx="3729.51" cy="-1074" rx="41.69" ry="18"/>
<text text-anchor="middle" x="3729.51" y="-1070.3" font-family="Times,serif" font-size="14.00">output</text>
</g>
<!-- n22 -->
<g id="node17" class="node">
<title>n22</title>
<ellipse fill="none" stroke="black" cx="4300.25" cy="-1074" rx="27" ry="18"/>
<text text-anchor="middle" x="4300.25" y="-1070.3" font-family="Times,serif" font-size="14.00">lhs</text>
</g>
<!-- n20&#45;&gt;n22 -->
<g id="edge30" class="edge">
<title>n20&#45;&gt;n22</title>
<path fill="none" stroke="black" d="M3771.47,-1074C3771.47,-1074 4263.06,-1074 4263.06,-1074"/>
<polygon fill="black" stroke="black" points="4263.06,-1077.5 4273.06,-1074 4263.06,-1070.5 4263.06,-1077.5"/>
<text text-anchor="middle" x="3993.1" y="-1077.8" font-family="Times,serif" font-size="14.00">CONCURRENCY_INCREMENT_SINGLE_TICK</text>
</g>
<!-- n19 -->
<g id="node16" class="node">
<title>n19</title>
<ellipse fill="none" stroke="black" cx="3298.81" cy="-1074" rx="27" ry="18"/>
<text text-anchor="middle" x="3298.81" y="-1070.3" font-family="Times,serif" font-size="14.00">rhs</text>
</g>
<!-- n19&#45;&gt;n20 -->
<!-- n24 -->
<g id="node18" class="node">
<title>n24</title>
<ellipse fill="none" stroke="black" cx="4463.98" cy="-1101" rx="41.69" ry="18"/>
<text text-anchor="middle" x="4463.98" y="-1097.3" font-family="Times,serif" font-size="14.00">output</text>
</g>
<!-- n26 -->
<g id="node42" class="node">
<title>n26</title>
<ellipse fill="none" stroke="black" cx="2149.64" cy="-1408" rx="40.09" ry="18"/>
<text text-anchor="middle" x="2149.64" y="-1404.3" font-family="Times,serif" font-size="14.00">inputs</text>
</g>
<!-- n24&#45;&gt;n26 -->
<g id="edge39" class="edge">
<title>n24&#45;&gt;n26</title>
<path fill="none" stroke="black" d="M4422.1,-1101C4132.31,-1101 2436.58,-1101 2436.58,-1101 2436.58,-1101 2436.58,-1399 2436.58,-1399 2436.58,-1399 2194.53,-1399 2194.53,-1399"/>
<polygon fill="black" stroke="black" points="2194.53,-1395.5 2184.53,-1399 2194.53,-1402.5 2194.53,-1395.5"/>
<text text-anchor="middle" x="3517.41" y="-890.8" font-family="Times,serif" font-size="14.00">CONCURRENCY_INCREMENT_INTEGRAL</text>
</g>
<!-- n23 -->
<g id="node19" class="node">
<title>n23</title>
<ellipse fill="none" stroke="black" cx="4300.25" cy="-1128" rx="27" ry="18"/>
<text text-anchor="middle" x="4300.25" y="-1124.3" font-family="Times,serif" font-size="14.00">rhs</text>
</g>
<!-- n23&#45;&gt;n24 -->
<!-- n58 -->
<g id="node20" class="node">
<title>n58</title>
<ellipse fill="none" stroke="black" cx="1644.66" cy="-889" rx="48.99" ry="18"/>
<text text-anchor="middle" x="1644.66" y="-885.3" font-family="Times,serif" font-size="14.00">1000.00</text>
</g>
<!-- n57 -->
<g id="node21" class="node">
<title>n57</title>
<ellipse fill="none" stroke="black" cx="2149.64" cy="-889" rx="106.68" ry="18"/>
<text text-anchor="middle" x="2149.64" y="-885.3" font-family="Times,serif" font-size="14.00">desired_concurrency</text>
</g>
<!-- n58&#45;&gt;n57 -->
<g id="edge10" class="edge">
<title>n58&#45;&gt;n57</title>
<path fill="none" stroke="black" d="M1693.53,-889C1693.53,-889 2032.75,-889 2032.75,-889"/>
<polygon fill="black" stroke="black" points="2032.75,-892.5 2042.75,-889 2032.75,-885.5 2032.75,-892.5"/>
</g>
<!-- n54 -->
<g id="node22" class="node">
<title>n54</title>
<ellipse fill="none" stroke="black" cx="1644.66" cy="-680" rx="113.98" ry="18"/>
<text text-anchor="middle" x="1644.66" y="-676.3" font-family="Times,serif" font-size="14.00">accepted_concurrency</text>
</g>
<!-- n54&#45;&gt;n14 -->
<g id="edge24" class="edge">
<title>n54&#45;&gt;n14</title>
<path fill="none" stroke="black" d="M1748.26,-672.5C1896.27,-672.5 2150.58,-672.5 2150.58,-672.5 2150.58,-672.5 2150.58,-158.05 2150.58,-158.05"/>
<polygon fill="black" stroke="black" points="2154.08,-158.05 2150.58,-148.05 2147.08,-158.05 2154.08,-158.05"/>
<text text-anchor="middle" x="1921.04" y="-543.8" font-family="Times,serif" font-size="14.00">ACCEPTED_CONCURRENCY</text>
</g>
<!-- n49 -->
<g id="node33" class="node">
<title>n49</title>
<ellipse fill="none" stroke="black" cx="4300.25" cy="-628" rx="85.29" ry="18"/>
<text text-anchor="middle" x="4300.25" y="-624.3" font-family="Times,serif" font-size="14.00">control_variable</text>
</g>
<!-- n54&#45;&gt;n49 -->
<g id="edge27" class="edge">
<title>n54&#45;&gt;n49</title>
<path fill="none" stroke="black" d="M1758.36,-681C2257.83,-681 4232.58,-681 4232.58,-681 4232.58,-681 4232.58,-648.98 4232.58,-648.98"/>
<polygon fill="black" stroke="black" points="4236.08,-648.98 4232.58,-638.98 4229.08,-648.98 4236.08,-648.98"/>
<text text-anchor="middle" x="3085.22" y="-657.8" font-family="Times,serif" font-size="14.00">ACCEPTED_CONCURRENCY</text>
</g>
<!-- n54&#45;&gt;n26 -->
<g id="edge25" class="edge">
<title>n54&#45;&gt;n26</title>
<path fill="none" stroke="black" d="M1715.58,-694.35C1715.58,-795.62 1715.58,-1398.5 1715.58,-1398.5 1715.58,-1398.5 2105.21,-1398.5 2105.21,-1398.5"/>
<polygon fill="black" stroke="black" points="2105.21,-1402 2115.21,-1398.5 2105.21,-1395 2105.21,-1402"/>
<text text-anchor="middle" x="1921.04" y="-1089.8" font-family="Times,serif" font-size="14.00">ACCEPTED_CONCURRENCY</text>
</g>
<!-- n37 -->
<g id="node45" class="node">
<title>n37</title>
<ellipse fill="none" stroke="black" cx="2149.64" cy="-1241" rx="35.19" ry="18"/>
<text text-anchor="middle" x="2149.64" y="-1237.3" font-family="Times,serif" font-size="14.00">input</text>
</g>
<!-- n54&#45;&gt;n37 -->
<g id="edge26" class="edge">
<title>n54&#45;&gt;n37</title>
<path fill="none" stroke="black" d="M1737.58,-690.71C1737.58,-768.26 1737.58,-1241 1737.58,-1241 1737.58,-1241 2104.5,-1241 2104.5,-1241"/>
<polygon fill="black" stroke="black" points="2104.5,-1244.5 2114.5,-1241 2104.5,-1237.5 2104.5,-1244.5"/>
<text text-anchor="middle" x="1921.04" y="-1051.8" font-family="Times,serif" font-size="14.00">ACCEPTED_CONCURRENCY</text>
</g>
<!-- n55 -->
<g id="node23" class="node">
<title>n55</title>
<ellipse fill="none" stroke="black" cx="1644.66" cy="-626" rx="114.28" ry="18"/>
<text text-anchor="middle" x="1644.66" y="-622.3" font-family="Times,serif" font-size="14.00">incoming_concurrency</text>
</g>
<!-- n60 -->
<g id="node24" class="node">
<title>n60</title>
<ellipse fill="none" stroke="black" cx="2149.64" cy="-1904" rx="27" ry="18"/>
<text text-anchor="middle" x="2149.64" y="-1900.3" font-family="Times,serif" font-size="14.00">lhs</text>
</g>
<!-- n62 -->
<g id="node25" class="node">
<title>n62</title>
<ellipse fill="none" stroke="black" cx="2838.12" cy="-1850" rx="41.69" ry="18"/>
<text text-anchor="middle" x="2838.12" y="-1846.3" font-family="Times,serif" font-size="14.00">output</text>
</g>
<!-- n67 -->
<g id="node51" class="node">
<title>n67</title>
<ellipse fill="none" stroke="black" cx="3298.81" cy="-1629" rx="40.89" ry="18"/>
<text text-anchor="middle" x="3298.81" y="-1625.3" font-family="Times,serif" font-size="14.00">switch</text>
</g>
<!-- n62&#45;&gt;n67 -->
<g id="edge33" class="edge">
<title>n62&#45;&gt;n67</title>
<path fill="none" stroke="black" d="M2838.58,-1831.88C2838.58,-1780.49 2838.58,-1637.5 2838.58,-1637.5 2838.58,-1637.5 3252.7,-1637.5 3252.7,-1637.5"/>
<polygon fill="black" stroke="black" points="3252.7,-1641 3262.7,-1637.5 3252.7,-1634 3252.7,-1641"/>
<text text-anchor="middle" x="3085.22" y="-1742.8" font-family="Times,serif" font-size="14.00">IS_OVERLOAD_SWITCH</text>
</g>
<!-- n70 -->
<g id="node56" class="node">
<title>n70</title>
<ellipse fill="none" stroke="black" cx="3298.81" cy="-2238" rx="40.89" ry="18"/>
<text text-anchor="middle" x="3298.81" y="-2234.3" font-family="Times,serif" font-size="14.00">switch</text>
</g>
<!-- n62&#45;&gt;n70 -->
<g id="edge34" class="edge">
<title>n62&#45;&gt;n70</title>
<path fill="none" stroke="black" d="M2879.89,-1850C2993.48,-1850 3299.58,-1850 3299.58,-1850 3299.58,-1850 3299.58,-2209.81 3299.58,-2209.81"/>
<polygon fill="black" stroke="black" points="3296.08,-2209.81 3299.58,-2219.81 3303.08,-2209.81 3296.08,-2209.81"/>
<text text-anchor="middle" x="3085.22" y="-1927.8" font-family="Times,serif" font-size="14.00">IS_OVERLOAD_SWITCH</text>
</g>
<!-- n61&#45;&gt;n62 -->
<!-- n42 -->
<g id="node27" class="node">
<title>n42</title>
<ellipse fill="none" stroke="black" cx="798.43" cy="-1574" rx="35.19" ry="18"/>
<text text-anchor="middle" x="798.43" y="-1570.3" font-family="Times,serif" font-size="14.00">input</text>
</g>
<!-- n44 -->
<g id="node29" class="node">
<title>n44</title>
<ellipse fill="none" stroke="black" cx="1051.67" cy="-1520" rx="41.69" ry="18"/>
<text text-anchor="middle" x="1051.67" y="-1516.3" font-family="Times,serif" font-size="14.00">output</text>
</g>
<!-- n43&#45;&gt;n44 -->
<!-- n44&#45;&gt;n7 -->
<g id="edge47" class="edge">
<title>n44&#45;&gt;n7</title>
<path fill="none" stroke="black" d="M1088.58,-1511.49C1088.58,-1477.46 1088.58,-1353 1088.58,-1353 1088.58,-1353 1270.01,-1353 1270.01,-1353"/>
<polygon fill="black" stroke="black" points="1270.01,-1356.5 1280.01,-1353 1270.01,-1349.5 1270.01,-1356.5"/>
<text text-anchor="middle" x="1206.77" y="-1439.8" font-family="Times,serif" font-size="14.00">LATENCY_EMA</text>
</g>
<!-- n30 -->
<g id="node30" class="node">
<title>n30</title>
<ellipse fill="none" stroke="black" cx="1644.66" cy="-2071" rx="31.4" ry="18"/>
<text text-anchor="middle" x="1644.66" y="-2067.3" font-family="Times,serif" font-size="14.00">0.00</text>
</g>
<!-- n29 -->
<g id="node31" class="node">
<title>n29</title>
<ellipse fill="none" stroke="black" cx="2149.64" cy="-2071" rx="40.09" ry="18"/>
<text text-anchor="middle" x="2149.64" y="-2067.3" font-family="Times,serif" font-size="14.00">inputs</text>
</g>
<!-- n30&#45;&gt;n29 -->
<g id="edge13" class="edge">
<title>n30&#45;&gt;n29</title>
<path fill="none" stroke="black" d="M1675.86,-2071C1675.86,-2071 2099.07,-2071 2099.07,-2071"/>
<polygon fill="black" stroke="black" points="2099.07,-2074.5 2109.07,-2071 2099.07,-2067.5 2099.07,-2074.5"/>
</g>
<!-- n31 -->
<g id="node32" class="node">
<title>n31</title>
<ellipse fill="none" stroke="black" cx="2838.12" cy="-2071" rx="41.69" ry="18"/>
<text text-anchor="middle" x="2838.12" y="-2067.3" font-family="Times,serif" font-size="14.00">output</text>
</g>
<!-- n29&#45;&gt;n31 -->
<!-- n66 -->
<g id="node48" class="node">
<title>n66</title>
<ellipse fill="none" stroke="black" cx="3298.81" cy="-1683" rx="48.19" ry="18"/>
<text text-anchor="middle" x="3298.81" y="-1679.3" font-family="Times,serif" font-size="14.00">on_false</text>
</g>
<!-- n31&#45;&gt;n66 -->
<g id="edge31" class="edge">
<title>n31&#45;&gt;n66</title>
<path fill="none" stroke="black" d="M2877.58,-2065C2981.29,-2065 3253.58,-2065 3253.58,-2065 3253.58,-2065 3253.58,-1699.31 3253.58,-1699.31"/>
<polygon fill="black" stroke="black" points="3257.08,-1699.31 3253.58,-1689.31 3250.08,-1699.31 3257.08,-1699.31"/>
<text text-anchor="middle" x="3085.22" y="-2037.8" font-family="Times,serif" font-size="14.00">CONCURRENCY_INCREMENT_NORMAL</text>
</g>
<!-- n73 -->
<g id="node53" class="node">
<title>n73</title>
<ellipse fill="none" stroke="black" cx="3298.81" cy="-2292" rx="48.19" ry="18"/>
<text text-anchor="middle" x="3298.81" y="-2288.3" font-family="Times,serif" font-size="14.00">on_false</text>
</g>
<!-- n31&#45;&gt;n73 -->
<g id="edge32" class="edge">
<title>n31&#45;&gt;n73</title>
<path fill="none" stroke="black" d="M2877.4,-2077C2981.32,-2077 3255.58,-2077 3255.58,-2077 3255.58,-2077 3255.58,-2274.09 3255.58,-2274.09"/>
<polygon fill="black" stroke="black" points="3252.08,-2274.09 3255.58,-2284.09 3259.08,-2274.09 3252.08,-2274.09"/>
<text text-anchor="middle" x="3085.22" y="-2111.8" font-family="Times,serif" font-size="14.00">CONCURRENCY_INCREMENT_NORMAL</text>
</g>
<!-- n48 -->
<g id="node34" class="node">
<title>n48</title>
<ellipse fill="none" stroke="black" cx="4300.25" cy="-520" rx="30.59" ry="18"/>
<text text-anchor="middle" x="4300.25" y="-516.3" font-family="Times,serif" font-size="14.00">max</text>
</g>
<!-- n47 -->
<g id="node35" class="node">
<title>n47</title>
<ellipse fill="none" stroke="black" cx="4300.25" cy="-736" rx="50.89" ry="18"/>
<text text-anchor="middle" x="4300.25" y="-732.3" font-family="Times,serif" font-size="14.00">optimize</text>
</g>
<!-- n51 -->
<g id="node36" class="node">
<title>n51</title>
<ellipse fill="none" stroke="black" cx="4463.98" cy="-574" rx="41.69" ry="18"/>
<text text-anchor="middle" x="4463.98" y="-570.3" font-family="Times,serif" font-size="14.00">output</text>
</g>
<!-- n50 -->
<g id="node38" class="node">
<title>n50</title>
<ellipse fill="none" stroke="black" cx="4300.25" cy="-574" rx="38.19" ry="18"/>
<text text-anchor="middle" x="4300.25" y="-570.3" font-family="Times,serif" font-size="14.00">signal</text>
</g>
<!-- n50&#45;&gt;n51 -->
<!-- n34 -->
<g id="node39" class="node">
<title>n34</title>
<ellipse fill="none" stroke="black" cx="2838.12" cy="-297" rx="37.09" ry="18"/>
<text text-anchor="middle" x="2838.12" y="-293.3" font-family="Times,serif" font-size="14.00">10.00</text>
</g>
<!-- n34&#45;&gt;n33 -->
<g id="edge16" class="edge">
<title>n34&#45;&gt;n33</title>
<path fill="none" stroke="black" d="M2875.43,-297C2875.43,-297 3248.21,-297 3248.21,-297"/>
<polygon fill="black" stroke="black" points="3248.21,-300.5 3258.21,-297 3248.21,-293.5 3248.21,-300.5"/>
</g>
<!-- n35 -->
<g id="node41" class="node">
<title>n35</title>
<ellipse fill="none" stroke="black" cx="3729.51" cy="-297" rx="41.69" ry="18"/>
<text text-anchor="middle" x="3729.51" y="-293.3" font-family="Times,serif" font-size="14.00">output</text>
</g>
<!-- n33&#45;&gt;n35 -->
<!-- n35&#45;&gt;n48 -->
<g id="edge45" class="edge">
<title>n35&#45;&gt;n48</title>
<path fill="none" stroke="black" d="M3771.5,-297C3903.38,-297 4300.58,-297 4300.58,-297 4300.58,-297 4300.58,-491.75 4300.58,-491.75"/>
<polygon fill="black" stroke="black" points="4297.08,-491.75 4300.58,-501.75 4304.08,-491.75 4297.08,-491.75"/>
<text text-anchor="middle" x="3993.1" y="-361.8" font-family="Times,serif" font-size="14.00">MAX_CONCURRENCY</text>
</g>
<!-- n27 -->
<g id="node43" class="node">
<title>n27</title>
<ellipse fill="none" stroke="black" cx="2838.12" cy="-1408" rx="41.69" ry="18"/>
<text text-anchor="middle" x="2838.12" y="-1404.3" font-family="Times,serif" font-size="14.00">output</text>
</g>
<!-- n26&#45;&gt;n27 -->
<!-- n27&#45;&gt;n29 -->
<g id="edge44" class="edge">
<title>n27&#45;&gt;n29</title>
<path fill="none" stroke="black" d="M2801.87,-1417C2738.81,-1417 2615.58,-1417 2615.58,-1417 2615.58,-1417 2615.58,-2065 2615.58,-2065 2615.58,-2065 2197.77,-2065 2197.77,-2065"/>
<polygon fill="black" stroke="black" points="2197.77,-2061.5 2187.77,-2065 2197.77,-2068.5 2197.77,-2061.5"/>
<text text-anchor="middle" x="2550.73" y="-1577.8" font-family="Times,serif" font-size="14.00">CONCURRENCY_INCREMENT_INTEGRAL_CAPPED</text>
</g>
<!-- n40 -->
<g id="node44" class="node">
<title>n40</title>
<ellipse fill="none" stroke="black" cx="99.6" cy="-1646" rx="41.69" ry="18"/>
<text text-anchor="middle" x="99.6" y="-1642.3" font-family="Times,serif" font-size="14.00">output</text>
</g>
<!-- n40&#45;&gt;n2 -->
<g id="edge40" class="edge">
<title>n40&#45;&gt;n2</title>
<path fill="none" stroke="black" d="M136.58,-1637.49C136.58,-1603.46 136.58,-1479 136.58,-1479 136.58,-1479 276.83,-1479 276.83,-1479"/>
<polygon fill="black" stroke="black" points="276.83,-1482.5 286.83,-1479 276.83,-1475.5 276.83,-1482.5"/>
<text text-anchor="middle" x="234.19" y="-1548.8" font-family="Times,serif" font-size="14.00">LATENCY</text>
</g>
<!-- n40&#45;&gt;n60 -->
<g id="edge43" class="edge">
<title>n40&#45;&gt;n60</title>
<path fill="none" stroke="black" d="M100.58,-1664.14C100.58,-1722.87 100.58,-1904 100.58,-1904 100.58,-1904 2112.6,-1904 2112.6,-1904"/>
<polygon fill="black" stroke="black" points="2112.6,-1907.5 2122.6,-1904 2112.6,-1900.5 2112.6,-1907.5"/>
<text text-anchor="middle" x="927.47" y="-1821.8" font-family="Times,serif" font-size="14.00">LATENCY</text>
</g>
<!-- n40&#45;&gt;n42 -->
<g id="edge41" class="edge">
<title>n40&#45;&gt;n42</title>
<path fill="none" stroke="black" d="M139.58,-1640.82C139.58,-1624.31 139.58,-1574 139.58,-1574 139.58,-1574 753.01,-1574 753.01,-1574"/>
<polygon fill="black" stroke="black" points="753.01,-1577.5 763.01,-1574 753.01,-1570.5 753.01,-1577.5"/>
<text text-anchor="middle" x="394.19" y="-1645.8" font-family="Times,serif" font-size="14.00">LATENCY</text>
</g>
<!-- n40&#45;&gt;n50 -->
<g id="edge42" class="edge">
<title>n40&#45;&gt;n50</title>
<path fill="none" stroke="black" d="M133.58,-1635.39C133.58,-1524.06 133.58,-574 133.58,-574 133.58,-574 4251.66,-574 4251.66,-574"/>
<polygon fill="black" stroke="black" points="4251.66,-577.5 4261.66,-574 4251.66,-570.5 4251.66,-577.5"/>
<text text-anchor="middle" x="1387.27" y="-451.8" font-family="Times,serif" font-size="14.00">LATENCY</text>
</g>
<!-- n38 -->
<g id="node46" class="node">
<title>n38</title>
<ellipse fill="none" stroke="black" cx="2838.12" cy="-1241" rx="41.69" ry="18"/>
<text text-anchor="middle" x="2838.12" y="-1237.3" font-family="Times,serif" font-size="14.00">output</text>
</g>
<!-- n37&#45;&gt;n38 -->
<!-- n38&#45;&gt;n19 -->
<g id="edge46" class="edge">
<title>n38&#45;&gt;n19</title>
<path fill="none" stroke="black" d="M2879.89,-1241C2993.48,-1241 3299.58,-1241 3299.58,-1241 3299.58,-1241 3299.58,-1102.19 3299.58,-1102.19"/>
<polygon fill="black" stroke="black" points="3303.08,-1102.19 3299.58,-1092.19 3296.08,-1102.19 3303.08,-1102.19"/>
<text text-anchor="middle" x="3085.22" y="-1160.8" font-family="Times,serif" font-size="14.00">SQRT_CONCURRENCY_INCREMENT</text>
</g>
<!-- n65 -->
<g id="node47" class="node">
<title>n65</title>
<ellipse fill="none" stroke="black" cx="2838.12" cy="-1575" rx="42.79" ry="18"/>
<text text-anchor="middle" x="2838.12" y="-1571.3" font-family="Times,serif" font-size="14.00">100.00</text>
</g>
<!-- n64 -->
<g id="node49" class="node">
<title>n64</title>
<ellipse fill="none" stroke="black" cx="3298.81" cy="-1575" rx="46.29" ry="18"/>
<text text-anchor="middle" x="3298.81" y="-1571.3" font-family="Times,serif" font-size="14.00">on_true</text>
</g>
<!-- n65&#45;&gt;n64 -->
<g id="edge20" class="edge">
<title>n65&#45;&gt;n64</title>
<path fill="none" stroke="black" d="M2881.05,-1575C2881.05,-1575 3242.42,-1575 3242.42,-1575"/>
<polygon fill="black" stroke="black" points="3242.42,-1578.5 3252.42,-1575 3242.42,-1571.5 3242.42,-1578.5"/>
</g>
<!-- n68 -->
<g id="node50" class="node">
<title>n68</title>
<ellipse fill="none" stroke="black" cx="3729.51" cy="-1602" rx="41.69" ry="18"/>
<text text-anchor="middle" x="3729.51" y="-1598.3" font-family="Times,serif" font-size="14.00">output</text>
</g>
<!-- n68&#45;&gt;n47 -->
<g id="edge35" class="edge">
<title>n68&#45;&gt;n47</title>
<path fill="none" stroke="black" d="M3771.26,-1602C3896.69,-1602 4261.58,-1602 4261.58,-1602 4261.58,-1602 4261.58,-757.91 4261.58,-757.91"/>
<polygon fill="black" stroke="black" points="4265.08,-757.91 4261.58,-747.91 4258.08,-757.91 4265.08,-757.91"/>
<text text-anchor="middle" x="3993.1" y="-1360.8" font-family="Times,serif" font-size="14.00">CONCURRENCY_INCREMENT</text>
</g>
<!-- n67&#45;&gt;n68 -->
<!-- n72 -->
<g id="node52" class="node">
<title>n72</title>
<ellipse fill="none" stroke="black" cx="2838.12" cy="-2346" rx="31.4" ry="18"/>
<text text-anchor="middle" x="2838.12" y="-2342.3" font-family="Times,serif" font-size="14.00">0.00</text>
</g>
<!-- n71 -->
<g id="node54" class="node">
<title>n71</title>
<ellipse fill="none" stroke="black" cx="3298.81" cy="-2346" rx="46.29" ry="18"/>
<text text-anchor="middle" x="3298.81" y="-2342.3" font-family="Times,serif" font-size="14.00">on_true</text>
</g>
<!-- n72&#45;&gt;n71 -->
<g id="edge22" class="edge">
<title>n72&#45;&gt;n71</title>
<path fill="none" stroke="black" d="M2869.43,-2346C2869.43,-2346 3242.55,-2346 3242.55,-2346"/>
<polygon fill="black" stroke="black" points="3242.55,-2349.5 3252.55,-2346 3242.55,-2342.5 3242.55,-2349.5"/>
</g>
<!-- n74 -->
<g id="node55" class="node">
<title>n74</title>
<ellipse fill="none" stroke="black" cx="3729.51" cy="-2265" rx="41.69" ry="18"/>
<text text-anchor="middle" x="3729.51" y="-2261.3" font-family="Times,serif" font-size="14.00">output</text>
</g>
<!-- n73&#45;&gt;n74 -->
<!-- n74&#45;&gt;n23 -->
<g id="edge36" class="edge">
<title>n74&#45;&gt;n23</title>
<path fill="none" stroke="black" d="M3771.5,-2265C3903.38,-2265 4300.58,-2265 4300.58,-2265 4300.58,-2265 4300.58,-1156.32 4300.58,-1156.32"/>
<polygon fill="black" stroke="black" points="4304.08,-1156.32 4300.58,-1146.32 4297.08,-1156.32 4304.08,-1156.32"/>
<text text-anchor="middle" x="3993.1" y="-1833.8" font-family="Times,serif" font-size="14.00">CONCURRENCY_INCREMENT_FEEDBACK</text>
</g>
</g>
</svg>
