<svg xmlns="http://www.w3.org/2000/svg" xmlns:xlink="http://www.w3.org/1999/xlink" width="4433pt" height="3692" viewBox="0 0 4433.14 2769"><g id="graph0" class="graph" transform="scale(1 1) rotate(0) translate(4 2765)"><polygon fill="#fff" stroke="none" points="-4 4 -4 -2765 4429.14 -2765 4429.14 4 -4 4"/><g id="clust1" class="cluster"><title>cluster_s1</title><polygon fill="none" stroke="#000" points="18.4 -1948 18.4 -2161 580.39 -2161 580.39 -1948 18.4 -1948"/><text x="299.39" y="-2145.8" font-family="Times,serif" font-size="14" text-anchor="middle">ArithmeticCombinator[0]</text></g><g id="clust4" class="cluster"><title>cluster_s6</title><polygon fill="none" stroke="#000" points="2618.49 -2473 2618.49 -2686 3682.66 -2686 3682.66 -2473 2618.49 -2473"/><text x="3150.58" y="-2670.8" font-family="Times,serif" font-size="14" text-anchor="middle">ArithmeticCombinator[1]</text></g><g id="clust7" class="cluster"><title>cluster_s11</title><polygon fill="none" stroke="#000" points="2096.34 -725 2096.34 -938 2791.28 -938 2791.28 -725 2096.34 -725"/><text x="2443.81" y="-922.8" font-family="Times,serif" font-size="14" text-anchor="middle">ArithmeticCombinator[2]</text></g><g id="clust10" class="cluster"><title>cluster_s15</title><polygon fill="none" stroke="#000" points="2096.34 -8 2096.34 -221 2791.28 -221 2791.28 -8 2096.34 -8"/><text x="2443.81" y="-205.8" font-family="Times,serif" font-size="14" text-anchor="middle">ArithmeticCombinator[3]</text></g><g id="clust13" class="cluster"><title>cluster_s19</title><polygon fill="none" stroke="#000" points="1563.46 -2085 1563.46 -2298 2791.28 -2298 2791.28 -2085 1563.46 -2085"/><text x="2177.37" y="-2282.8" font-family="Times,serif" font-size="14" text-anchor="middle">ArithmeticCombinator[4]</text></g><g id="clust16" class="cluster"><title>cluster_s24</title><polygon fill="none" stroke="#000" points="970.47 -1546 970.47 -1759 1736.25 -1759 1736.25 -1546 970.47 -1546"/><text x="1353.36" y="-1743.8" font-family="Times,serif" font-size="14" text-anchor="middle">ArithmeticCombinator[5]</text></g><g id="clust19" class="cluster"><title>cluster_s29</title><polygon fill="none" stroke="#000" points="2618.49 -229 2618.49 -442 3682.66 -442 3682.66 -229 2618.49 -229"/><text x="3150.58" y="-426.8" font-family="Times,serif" font-size="14" text-anchor="middle">ArithmeticCombinator[6]</text></g><g id="clust22" class="cluster"><title>cluster_s34</title><polygon fill="none" stroke="#000" points="4084.81 -504 4084.81 -717 4417.14 -717 4417.14 -504 4084.81 -504"/><text x="4250.97" y="-701.8" font-family="Times,serif" font-size="14" text-anchor="middle">ArithmeticCombinator[7]</text></g><g id="clust25" class="cluster"><title>cluster_s65</title><polygon fill="none" stroke="#000" points="1430.27 -633 1430.27 -1178 1859.04 -1178 1859.04 -633 1430.27 -633"/><text x="1644.66" y="-1162.8" font-family="Times,serif" font-size="14" text-anchor="middle">ConcurrencyLimiter[15]</text></g><g id="clust26" class="cluster"><title>cluster_s69</title><polygon fill="none" stroke="#000" points="1488.26 -683 1488.26 -842 1802.05 -842 1802.05 -683 1488.26 -683"/><text x="1645.16" y="-826.8" font-family="Times,serif" font-size="14" text-anchor="middle">LoadShedActuator[15.LoadShedActuator]</text></g><g id="clust28" class="cluster"><title>cluster_s66</title><polygon fill="none" stroke="#000" points="1480.27 -892 1480.27 -1105 1809.04 -1105 1809.04 -892 1480.27 -892"/><text x="1644.66" y="-1089.8" font-family="Times,serif" font-size="14" text-anchor="middle">Scheduler[15.Scheduler]</text></g><g id="clust30" class="cluster"><title>cluster_s71</title><polygon fill="none" stroke="#000" points="2096.34 -1477 2096.34 -1690 2791.28 -1690 2791.28 -1477 2096.34 -1477"/><text x="2443.81" y="-1674.8" font-family="Times,serif" font-size="14" text-anchor="middle">Decider[16]</text></g><g id="clust33" class="cluster"><title>cluster_s54</title><polygon fill="none" stroke="#000" points="672.39 -2069 672.39 -2282 1143.27 -2282 1143.27 -2069 672.39 -2069"/><text x="907.83" y="-2266.8" font-family="Times,serif" font-size="14" text-anchor="middle">EMA[13]</text></g><g id="clust36" class="cluster"><title>cluster_s41</title><polygon fill="none" stroke="#000" points="1563.46 -1310 1563.46 -1469 2791.28 -1469 2791.28 -1310 1563.46 -1310"/><text x="2177.37" y="-1453.8" font-family="Times,serif" font-size="14" text-anchor="middle">FirstValid[9]</text></g><g id="clust39" class="cluster"><title>cluster_s58</title><polygon fill="none" stroke="#000" points="4026.66 -1979 4026.66 -2354 4417.14 -2354 4417.14 -1979 4026.66 -1979"/><text x="4221.9" y="-2338.8" font-family="Times,serif" font-size="14" text-anchor="middle">Gradient[14]</text></g><g id="clust42" class="cluster"><title>cluster_s45</title><polygon fill="none" stroke="#000" points="2612.64 -2306 2612.64 -2465 3682.66 -2465 3682.66 -2306 2612.64 -2306"/><text x="3147.65" y="-2449.8" font-family="Times,serif" font-size="14" text-anchor="middle">Max[10]</text></g><g id="clust45" class="cluster"><title>cluster_s38</title><polygon fill="none" stroke="#000" points="2083.04 -1143 2083.04 -1302 2791.28 -1302 2791.28 -1143 2083.04 -1143"/><text x="2437.16" y="-1286.8" font-family="Times,serif" font-size="14" text-anchor="middle">Min[8]</text></g><g id="clust48" class="cluster"><title>cluster_s52</title><polygon fill="none" stroke="#000" points="8 -2201 8 -2360 191.19 -2360 191.19 -2201 8 -2201"/><text x="99.6" y="-2344.8" font-family="Times,serif" font-size="14" text-anchor="middle">PromQL[12]</text></g><g id="clust50" class="cluster"><title>cluster_s49</title><polygon fill="none" stroke="#000" points="2088.24 -946 2088.24 -1105 2791.28 -1105 2791.28 -946 2088.24 -946"/><text x="2439.76" y="-1089.8" font-family="Times,serif" font-size="14" text-anchor="middle">Sqrt[11]</text></g><g id="clust53" class="cluster"><title>cluster_s75</title><polygon fill="none" stroke="#000" points="2612.64 -1810 2612.64 -2077 3682.66 -2077 3682.66 -1810 2612.64 -1810"/><text x="3147.65" y="-2061.8" font-family="Times,serif" font-size="14" text-anchor="middle">Switcher[17]</text></g><g id="clust56" class="cluster"><title>cluster_s81</title><polygon fill="none" stroke="#000" points="2618.49 -450 2618.49 -717 3682.66 -717 3682.66 -450 2618.49 -450"/><text x="3150.58" y="-701.8" font-family="Times,serif" font-size="14" text-anchor="middle">Switcher[18]</text></g><g id="node1" class="node"><title>n4</title><ellipse cx="99.6" cy="-2016" fill="none" stroke="#000" rx="31.4" ry="18"/><text x="99.6" y="-2012.3" font-family="Times,serif" font-size="14" text-anchor="middle">2.00</text></g><g id="node4" class="node"><title>n3</title><ellipse cx="314.19" cy="-2016" fill="none" stroke="#000" rx="27" ry="18"/><text x="314.19" y="-2012.3" font-family="Times,serif" font-size="14" text-anchor="middle">rhs</text></g><g id="edge1" class="edge"><title>n4-&gt;n3</title><path fill="none" stroke="#000" d="M130.8,-2016C130.8,-2016 277.03,-2016 277.03,-2016"/><polygon fill="#000" stroke="#000" points="277.03 -2019.5 287.03 -2016 277.03 -2012.5 277.03 -2019.5"/></g><g id="node2" class="node"><title>n2</title><ellipse cx="314.19" cy="-2070" fill="none" stroke="#000" rx="27" ry="18"/><text x="314.19" y="-2066.3" font-family="Times,serif" font-size="14" text-anchor="middle">lhs</text></g><g id="node3" class="node"><title>n5</title><ellipse cx="488.79" cy="-2056" fill="none" stroke="#000" rx="41.69" ry="18"/><text x="488.79" y="-2052.3" font-family="Times,serif" font-size="14" text-anchor="middle">output</text></g><g id="node37" class="node"><title>n56</title><ellipse cx="798.43" cy="-2137" fill="none" stroke="#000" rx="76.09" ry="18"/><text x="798.43" y="-2133.3" font-family="Times,serif" font-size="14" text-anchor="middle">max_envelope</text></g><g id="edge44" class="edge"><title>n5-&gt;n56</title><path fill="none" stroke="#000" d="M489.14,-2074.38C489.14,-2098.28 489.14,-2137 489.14,-2137 489.14,-2137 712.37,-2137 712.37,-2137"/><polygon fill="#000" stroke="#000" points="712.37 -2140.5 722.37 -2137 712.37 -2133.5 712.37 -2140.5"/><text x="626.39" y="-2106.8" font-family="Times,serif" font-size="14" text-anchor="middle">MAX_EMA</text></g><g id="node5" class="node"><title>n9</title><ellipse cx="2699.68" cy="-2595" fill="none" stroke="#000" rx="31.4" ry="18"/><text x="2699.68" y="-2591.3" font-family="Times,serif" font-size="14" text-anchor="middle">1.10</text></g><g id="node8" class="node"><title>n8</title><ellipse cx="3160.38" cy="-2595" fill="none" stroke="#000" rx="27" ry="18"/><text x="3160.38" y="-2591.3" font-family="Times,serif" font-size="14" text-anchor="middle">rhs</text></g><g id="edge3" class="edge"><title>n9-&gt;n8</title><path fill="none" stroke="#000" d="M2730.99,-2595C2730.99,-2595 3123.16,-2595 3123.16,-2595"/><polygon fill="#000" stroke="#000" points="3123.16 -2598.5 3133.16 -2595 3123.16 -2591.5 3123.16 -2598.5"/></g><g id="node6" class="node"><title>n7</title><ellipse cx="3160.38" cy="-2541" fill="none" stroke="#000" rx="27" ry="18"/><text x="3160.38" y="-2537.3" font-family="Times,serif" font-size="14" text-anchor="middle">lhs</text></g><g id="node7" class="node"><title>n10</title><ellipse cx="3591.07" cy="-2568" fill="none" stroke="#000" rx="41.69" ry="18"/><text x="3591.07" y="-2564.3" font-family="Times,serif" font-size="14" text-anchor="middle">output</text></g><g id="node46" class="node"><title>n60</title><ellipse cx="4161.81" cy="-2209" fill="none" stroke="#000" rx="48.99" ry="18"/><text x="4161.81" y="-2205.3" font-family="Times,serif" font-size="14" text-anchor="middle">setpoint</text></g><g id="edge33" class="edge"><title>n10-&gt;n60</title><path fill="none" stroke="#000" d="M3632.95,-2568C3757.85,-2568 4119.14,-2568 4119.14,-2568 4119.14,-2568 4119.14,-2227.87 4119.14,-2227.87"/><polygon fill="#000" stroke="#000" points="4122.64 -2227.87 4119.14 -2217.87 4115.64 -2227.87 4122.64 -2227.87"/><text x="3854.66" y="-2372.8" font-family="Times,serif" font-size="14" text-anchor="middle">LATENCY_SETPOINT</text></g><g id="node9" class="node"><title>n12</title><ellipse cx="2173.34" cy="-847" fill="none" stroke="#000" rx="27" ry="18"/><text x="2173.34" y="-843.3" font-family="Times,serif" font-size="14" text-anchor="middle">lhs</text></g><g id="node10" class="node"><title>n14</title><ellipse cx="2699.68" cy="-793" fill="none" stroke="#000" rx="41.69" ry="18"/><text x="2699.68" y="-789.3" font-family="Times,serif" font-size="14" text-anchor="middle">output</text></g><g id="node12" class="node"><title>n16</title><ellipse cx="2173.34" cy="-130" fill="none" stroke="#000" rx="27" ry="18"/><text x="2173.34" y="-126.3" font-family="Times,serif" font-size="14" text-anchor="middle">lhs</text></g><g id="edge56" class="edge"><title>n14-&gt;n16</title><path fill="none" stroke="#000" d="M2665.14,-782.71C2665.14,-699.38 2665.14,-138 2665.14,-138 2665.14,-138 2207.73,-138 2207.73,-138"/><polygon fill="#000" stroke="#000" points="2207.73 -134.5 2197.73 -138 2207.73 -141.5 2207.73 -134.5"/><text x="2418.14" y="-164.8" font-family="Times,serif" font-size="14" text-anchor="middle">DELTA_CONCURRENCY</text></g><g id="node11" class="node"><title>n13</title><ellipse cx="2173.34" cy="-793" fill="none" stroke="#000" rx="27" ry="18"/><text x="2173.34" y="-789.3" font-family="Times,serif" font-size="14" text-anchor="middle">rhs</text></g><g id="node13" class="node"><title>n18</title><ellipse cx="2699.68" cy="-110" fill="none" stroke="#000" rx="41.69" ry="18"/><text x="2699.68" y="-106.3" font-family="Times,serif" font-size="14" text-anchor="middle">output</text></g><g id="node30" class="node"><title>n70</title><ellipse cx="1644.66" cy="-751" fill="none" stroke="#000" rx="88.28" ry="18"/><text x="1644.66" y="-747.3" font-family="Times,serif" font-size="14" text-anchor="middle">load_shed_factor</text></g><g id="edge54" class="edge"><title>n18-&gt;n70</title><path fill="none" stroke="#000" d="M2662.14,-118.1C2662.14,-192.31 2662.14,-751 2662.14,-751 2662.14,-751 1743.17,-751 1743.17,-751"/><polygon fill="#000" stroke="#000" points="1743.17 -747.5 1733.17 -751 1743.17 -754.5 1743.17 -747.5"/><text x="2173.34" y="-206.8" font-family="Times,serif" font-size="14" text-anchor="middle">LSF</text></g><g id="node14" class="node"><title>n17</title><ellipse cx="2173.34" cy="-76" fill="none" stroke="#000" rx="27" ry="18"/><text x="2173.34" y="-72.3" font-family="Times,serif" font-size="14" text-anchor="middle">rhs</text></g><g id="node15" class="node"><title>n21</title><ellipse cx="1644.66" cy="-2207" fill="none" stroke="#000" rx="31.4" ry="18"/><text x="1644.66" y="-2203.3" font-family="Times,serif" font-size="14" text-anchor="middle">2.00</text></g><g id="node16" class="node"><title>n20</title><ellipse cx="2173.34" cy="-2207" fill="none" stroke="#000" rx="27" ry="18"/><text x="2173.34" y="-2203.3" font-family="Times,serif" font-size="14" text-anchor="middle">lhs</text></g><g id="edge7" class="edge"><title>n21-&gt;n20</title><path fill="none" stroke="#000" d="M1676.14,-2207C1676.14,-2207 2136.21,-2207 2136.21,-2207"/><polygon fill="#000" stroke="#000" points="2136.21 -2210.5 2146.21 -2207 2136.21 -2203.5 2136.21 -2210.5"/></g><g id="node17" class="node"><title>n23</title><ellipse cx="2699.68" cy="-2193" fill="none" stroke="#000" rx="41.69" ry="18"/><text x="2699.68" y="-2189.3" font-family="Times,serif" font-size="14" text-anchor="middle">output</text></g><g id="node49" class="node"><title>n46</title><ellipse cx="3160.38" cy="-2374" fill="none" stroke="#000" rx="40.09" ry="18"/><text x="3160.38" y="-2370.3" font-family="Times,serif" font-size="14" text-anchor="middle">inputs</text></g><g id="edge34" class="edge"><title>n23-&gt;n46</title><path fill="none" stroke="#000" d="M2737.06,-2201C2846.91,-2201 3161.14,-2201 3161.14,-2201 3161.14,-2201 3161.14,-2345.81 3161.14,-2345.81"/><polygon fill="#000" stroke="#000" points="3157.64 -2345.81 3161.14 -2355.81 3164.64 -2345.81 3157.64 -2345.81"/><text x="2946.78" y="-2282.8" font-family="Times,serif" font-size="14" text-anchor="middle">UPPER_CONCURRENCY_LIMIT</text></g><g id="node18" class="node"><title>n22</title><ellipse cx="2173.34" cy="-2153" fill="none" stroke="#000" rx="27" ry="18"/><text x="2173.34" y="-2149.3" font-family="Times,serif" font-size="14" text-anchor="middle">rhs</text></g><g id="node19" class="node"><title>n27</title><ellipse cx="1051.67" cy="-1614" fill="none" stroke="#000" rx="31.4" ry="18"/><text x="1051.67" y="-1610.3" font-family="Times,serif" font-size="14" text-anchor="middle">1.10</text></g><g id="node22" class="node"><title>n26</title><ellipse cx="1307.27" cy="-1614" fill="none" stroke="#000" rx="27" ry="18"/><text x="1307.27" y="-1610.3" font-family="Times,serif" font-size="14" text-anchor="middle">rhs</text></g><g id="edge9" class="edge"><title>n27-&gt;n26</title><path fill="none" stroke="#000" d="M1083.01,-1614C1083.01,-1614 1269.96,-1614 1269.96,-1614"/><polygon fill="#000" stroke="#000" points="1269.96 -1617.5 1279.96 -1614 1269.96 -1610.5 1269.96 -1617.5"/></g><g id="node20" class="node"><title>n25</title><ellipse cx="1307.27" cy="-1668" fill="none" stroke="#000" rx="27" ry="18"/><text x="1307.27" y="-1664.3" font-family="Times,serif" font-size="14" text-anchor="middle">lhs</text></g><g id="node21" class="node"><title>n28</title><ellipse cx="1644.66" cy="-1614" fill="none" stroke="#000" rx="41.69" ry="18"/><text x="1644.66" y="-1610.3" font-family="Times,serif" font-size="14" text-anchor="middle">output</text></g><g id="node35" class="node"><title>n73</title><ellipse cx="2173.34" cy="-1545" fill="none" stroke="#000" rx="27" ry="18"/><text x="2173.34" y="-1541.3" font-family="Times,serif" font-size="14" text-anchor="middle">rhs</text></g><g id="edge35" class="edge"><title>n28-&gt;n73</title><path fill="none" stroke="#000" d="M1681.14,-1605.26C1681.14,-1586.69 1681.14,-1545 1681.14,-1545 1681.14,-1545 2136.18,-1545 2136.18,-1545"/><polygon fill="#000" stroke="#000" points="2136.18 -1548.5 2146.18 -1545 2136.18 -1541.5 2136.18 -1548.5"/><text x="1971.04" y="-1583.8" font-family="Times,serif" font-size="14" text-anchor="middle">LATENCY_OVERLOAD</text></g><g id="node23" class="node"><title>n32</title><ellipse cx="2699.68" cy="-297" fill="none" stroke="#000" rx="31.4" ry="18"/><text x="2699.68" y="-293.3" font-family="Times,serif" font-size="14" text-anchor="middle">5.00</text></g><g id="node24" class="node"><title>n31</title><ellipse cx="3160.38" cy="-297" fill="none" stroke="#000" rx="27" ry="18"/><text x="3160.38" y="-293.3" font-family="Times,serif" font-size="14" text-anchor="middle">lhs</text></g><g id="edge11" class="edge"><title>n32-&gt;n31</title><path fill="none" stroke="#000" d="M2730.99,-297C2730.99,-297 3123.16,-297 3123.16,-297"/><polygon fill="#000" stroke="#000" points="3123.16 -300.5 3133.16 -297 3123.16 -293.5 3123.16 -300.5"/></g><g id="node25" class="node"><title>n33</title><ellipse cx="3591.07" cy="-324" fill="none" stroke="#000" rx="41.69" ry="18"/><text x="3591.07" y="-320.3" font-family="Times,serif" font-size="14" text-anchor="middle">output</text></g><g id="node27" class="node"><title>n36</title><ellipse cx="4161.81" cy="-572" fill="none" stroke="#000" rx="27" ry="18"/><text x="4161.81" y="-568.3" font-family="Times,serif" font-size="14" text-anchor="middle">lhs</text></g><g id="edge36" class="edge"><title>n33-&gt;n36</title><path fill="none" stroke="#000" d="M3633.06,-324C3764.94,-324 4162.14,-324 4162.14,-324 4162.14,-324 4162.14,-543.76 4162.14,-543.76"/><polygon fill="#000" stroke="#000" points="4158.64 -543.76 4162.14 -553.76 4165.64 -543.76 4158.64 -543.76"/><text x="3854.66" y="-451.8" font-family="Times,serif" font-size="14" text-anchor="middle">CONCURRENCY_INCREMENT_SINGLE_TICK</text></g><g id="node26" class="node"><title>n30</title><ellipse cx="3160.38" cy="-351" fill="none" stroke="#000" rx="27" ry="18"/><text x="3160.38" y="-347.3" font-family="Times,serif" font-size="14" text-anchor="middle">rhs</text></g><g id="node28" class="node"><title>n37</title><ellipse cx="4325.55" cy="-599" fill="none" stroke="#000" rx="41.69" ry="18"/><text x="4325.55" y="-595.3" font-family="Times,serif" font-size="14" text-anchor="middle">output</text></g><g id="node51" class="node"><title>n39</title><ellipse cx="2173.34" cy="-1211" fill="none" stroke="#000" rx="40.09" ry="18"/><text x="2173.34" y="-1207.3" font-family="Times,serif" font-size="14" text-anchor="middle">inputs</text></g><g id="edge37" class="edge"><title>n37-&gt;n39</title><path fill="none" stroke="#000" d="M4283.63,-599C3999.08,-599 2362.14,-599 2362.14,-599 2362.14,-599 2362.14,-1202 2362.14,-1202 2362.14,-1202 2218.41,-1202 2218.41,-1202"/><polygon fill="#000" stroke="#000" points="2218.41 -1198.5 2208.41 -1202 2218.41 -1205.5 2218.41 -1198.5"/><text x="3378.97" y="-1108.8" font-family="Times,serif" font-size="14" text-anchor="middle">CONCURRENCY_INCREMENT_INTEGRAL</text></g><g id="node29" class="node"><title>n35</title><ellipse cx="4161.81" cy="-626" fill="none" stroke="#000" rx="27" ry="18"/><text x="4161.81" y="-622.3" font-family="Times,serif" font-size="14" text-anchor="middle">rhs</text></g><g id="node31" class="node"><title>n67</title><ellipse cx="1644.66" cy="-1014" fill="none" stroke="#000" rx="113.98" ry="18"/><text x="1644.66" y="-1010.3" font-family="Times,serif" font-size="14" text-anchor="middle">accepted_concurrency</text></g><g id="edge27" class="edge"><title>n67-&gt;n22</title><path fill="none" stroke="#000" d="M1705.14,-1029.56C1705.14,-1165.4 1705.14,-2145 1705.14,-2145 1705.14,-2145 2138.83,-2145 2138.83,-2145"/><polygon fill="#000" stroke="#000" points="2138.83 -2148.5 2148.83 -2145 2138.83 -2141.5 2138.83 -2148.5"/><text x="1971.04" y="-1248.8" font-family="Times,serif" font-size="14" text-anchor="middle">ACCEPTED_CONCURRENCY</text></g><g id="node42" class="node"><title>n63</title><ellipse cx="4161.81" cy="-2047" fill="none" stroke="#000" rx="85.29" ry="18"/><text x="4161.81" y="-2043.3" font-family="Times,serif" font-size="14" text-anchor="middle">control_variable</text></g><g id="edge30" class="edge"><title>n67-&gt;n63</title><path fill="none" stroke="#000" d="M1723.14,-1027.12C1723.14,-1147.22 1723.14,-2051.5 1723.14,-2051.5 1723.14,-2051.5 4069.27,-2051.5 4069.27,-2051.5"/><polygon fill="#000" stroke="#000" points="4069.27 -2055 4079.27 -2051.5 4069.27 -2048 4069.27 -2055"/><text x="2946.78" y="-1748.8" font-family="Times,serif" font-size="14" text-anchor="middle">ACCEPTED_CONCURRENCY</text></g><g id="edge28" class="edge"><title>n67-&gt;n39</title><path fill="none" stroke="#000" d="M1741.14,-1023.77C1741.14,-1063.52 1741.14,-1211 1741.14,-1211 1741.14,-1211 2122.68,-1211 2122.68,-1211"/><polygon fill="#000" stroke="#000" points="2122.68 -1214.5 2132.68 -1211 2122.68 -1207.5 2122.68 -1214.5"/><text x="1971.04" y="-1120.8" font-family="Times,serif" font-size="14" text-anchor="middle">ACCEPTED_CONCURRENCY</text></g><g id="node54" class="node"><title>n50</title><ellipse cx="2173.34" cy="-1014" fill="none" stroke="#000" rx="35.19" ry="18"/><text x="2173.34" y="-1010.3" font-family="Times,serif" font-size="14" text-anchor="middle">input</text></g><g id="edge29" class="edge"><title>n67-&gt;n50</title><path fill="none" stroke="#000" d="M1758.4,-1014C1758.4,-1014 2128.18,-1014 2128.18,-1014"/><polygon fill="#000" stroke="#000" points="2128.18 -1017.5 2138.18 -1014 2128.18 -1010.5 2128.18 -1017.5"/><text x="1971.04" y="-1017.8" font-family="Times,serif" font-size="14" text-anchor="middle">ACCEPTED_CONCURRENCY</text></g><g id="node32" class="node"><title>n68</title><ellipse cx="1644.66" cy="-960" fill="none" stroke="#000" rx="114.28" ry="18"/><text x="1644.66" y="-956.3" font-family="Times,serif" font-size="14" text-anchor="middle">incoming_concurrency</text></g><g id="edge31" class="edge"><title>n68-&gt;n12</title><path fill="none" stroke="#000" d="M1751.14,-953.27C1751.14,-928.94 1751.14,-847 1751.14,-847 1751.14,-847 2136.29,-847 2136.29,-847"/><polygon fill="#000" stroke="#000" points="2136.29 -850.5 2146.29 -847 2136.29 -843.5 2136.29 -850.5"/><text x="1971.04" y="-906.8" font-family="Times,serif" font-size="14" text-anchor="middle">INCOMING_CONCURRENCY</text></g><g id="edge32" class="edge"><title>n68-&gt;n17</title><path fill="none" stroke="#000" d="M1742.14,-950.37C1742.14,-854.57 1742.14,-76 1742.14,-76 1742.14,-76 2136.04,-76 2136.04,-76"/><polygon fill="#000" stroke="#000" points="2136.04 -79.5 2146.04 -76 2136.04 -72.5 2136.04 -79.5"/><text x="1971.04" y="-582.8" font-family="Times,serif" font-size="14" text-anchor="middle">INCOMING_CONCURRENCY</text></g><g id="node33" class="node"><title>n72</title><ellipse cx="2173.34" cy="-1599" fill="none" stroke="#000" rx="27" ry="18"/><text x="2173.34" y="-1595.3" font-family="Times,serif" font-size="14" text-anchor="middle">lhs</text></g><g id="node34" class="node"><title>n74</title><ellipse cx="2699.68" cy="-1545" fill="none" stroke="#000" rx="41.69" ry="18"/><text x="2699.68" y="-1541.3" font-family="Times,serif" font-size="14" text-anchor="middle">output</text></g><g id="node60" class="node"><title>n79</title><ellipse cx="3160.38" cy="-1932" fill="none" stroke="#000" rx="40.89" ry="18"/><text x="3160.38" y="-1928.3" font-family="Times,serif" font-size="14" text-anchor="middle">switch</text></g><g id="edge51" class="edge"><title>n74-&gt;n79</title><path fill="none" stroke="#000" d="M2700.14,-1563.15C2700.14,-1639.66 2700.14,-1932 2700.14,-1932 2700.14,-1932 3109.13,-1932 3109.13,-1932"/><polygon fill="#000" stroke="#000" points="3109.13 -1935.5 3119.13 -1932 3109.13 -1928.5 3109.13 -1935.5"/><text x="2946.78" y="-1629.8" font-family="Times,serif" font-size="14" text-anchor="middle">IS_OVERLOAD_SWITCH</text></g><g id="node65" class="node"><title>n85</title><ellipse cx="3160.38" cy="-626" fill="none" stroke="#000" rx="40.89" ry="18"/><text x="3160.38" y="-622.3" font-family="Times,serif" font-size="14" text-anchor="middle">switch</text></g><g id="edge52" class="edge"><title>n74-&gt;n85</title><path fill="none" stroke="#000" d="M2741.45,-1545C2855.04,-1545 3161.14,-1545 3161.14,-1545 3161.14,-1545 3161.14,-654.36 3161.14,-654.36"/><polygon fill="#000" stroke="#000" points="3164.64 -654.36 3161.14 -644.36 3157.64 -654.36 3164.64 -654.36"/><text x="2946.78" y="-1334.8" font-family="Times,serif" font-size="14" text-anchor="middle">IS_OVERLOAD_SWITCH</text></g><g id="node36" class="node"><title>n55</title><ellipse cx="798.43" cy="-2191" fill="none" stroke="#000" rx="35.19" ry="18"/><text x="798.43" y="-2187.3" font-family="Times,serif" font-size="14" text-anchor="middle">input</text></g><g id="node38" class="node"><title>n57</title><ellipse cx="1051.67" cy="-2137" fill="none" stroke="#000" rx="41.69" ry="18"/><text x="1051.67" y="-2133.3" font-family="Times,serif" font-size="14" text-anchor="middle">output</text></g><g id="edge42" class="edge"><title>n57-&gt;n7</title><path fill="none" stroke="#000" d="M1052.14,-2155.14C1052.14,-2233.76 1052.14,-2541 1052.14,-2541 1052.14,-2541 3123.34,-2541 3123.34,-2541"/><polygon fill="#000" stroke="#000" points="3123.34 -2544.5 3133.34 -2541 3123.34 -2537.5 3123.34 -2544.5"/><text x="1971.04" y="-2536.8" font-family="Times,serif" font-size="14" text-anchor="middle">LATENCY_EMA</text></g><g id="edge43" class="edge"><title>n57-&gt;n25</title><path fill="none" stroke="#000" d="M1088.14,-2128.05C1088.14,-2063.21 1088.14,-1668 1088.14,-1668 1088.14,-1668 1269.96,-1668 1269.96,-1668"/><polygon fill="#000" stroke="#000" points="1269.96 -1671.5 1279.96 -1668 1269.96 -1664.5 1269.96 -1671.5"/><text x="1206.77" y="-2032.8" font-family="Times,serif" font-size="14" text-anchor="middle">LATENCY_EMA</text></g><g id="node39" class="node"><title>n43</title><ellipse cx="1644.66" cy="-1378" fill="none" stroke="#000" rx="31.4" ry="18"/><text x="1644.66" y="-1374.3" font-family="Times,serif" font-size="14" text-anchor="middle">0.00</text></g><g id="node40" class="node"><title>n42</title><ellipse cx="2173.34" cy="-1378" fill="none" stroke="#000" rx="40.09" ry="18"/><text x="2173.34" y="-1374.3" font-family="Times,serif" font-size="14" text-anchor="middle">inputs</text></g><g id="edge16" class="edge"><title>n43-&gt;n42</title><path fill="none" stroke="#000" d="M1676.14,-1378C1676.14,-1378 2122.86,-1378 2122.86,-1378"/><polygon fill="#000" stroke="#000" points="2122.86 -1381.5 2132.86 -1378 2122.86 -1374.5 2122.86 -1381.5"/></g><g id="node41" class="node"><title>n44</title><ellipse cx="2699.68" cy="-1378" fill="none" stroke="#000" rx="41.69" ry="18"/><text x="2699.68" y="-1374.3" font-family="Times,serif" font-size="14" text-anchor="middle">output</text></g><g id="node57" class="node"><title>n78</title><ellipse cx="3160.38" cy="-1878" fill="none" stroke="#000" rx="48.19" ry="18"/><text x="3160.38" y="-1874.3" font-family="Times,serif" font-size="14" text-anchor="middle">on_false</text></g><g id="edge47" class="edge"><title>n44-&gt;n78</title><path fill="none" stroke="#000" d="M2738.96,-1384C2842.88,-1384 3117.14,-1384 3117.14,-1384 3117.14,-1384 3117.14,-1859.84 3117.14,-1859.84"/><polygon fill="#000" stroke="#000" points="3113.64 -1859.84 3117.14 -1869.84 3120.64 -1859.84 3113.64 -1859.84"/><text x="2946.78" y="-1527.8" font-family="Times,serif" font-size="14" text-anchor="middle">CONCURRENCY_INCREMENT_NORMAL</text></g><g id="node62" class="node"><title>n84</title><ellipse cx="3160.38" cy="-572" fill="none" stroke="#000" rx="48.19" ry="18"/><text x="3160.38" y="-568.3" font-family="Times,serif" font-size="14" text-anchor="middle">on_false</text></g><g id="edge48" class="edge"><title>n44-&gt;n84</title><path fill="none" stroke="#000" d="M2739.14,-1372C2842.85,-1372 3115.14,-1372 3115.14,-1372 3115.14,-1372 3115.14,-588.44 3115.14,-588.44"/><polygon fill="#000" stroke="#000" points="3118.64 -588.44 3115.14 -578.44 3111.64 -588.44 3118.64 -588.44"/><text x="2946.78" y="-1020.8" font-family="Times,serif" font-size="14" text-anchor="middle">CONCURRENCY_INCREMENT_NORMAL</text></g><g id="node45" class="node"><title>n64</title><ellipse cx="4325.55" cy="-2047" fill="none" stroke="#000" rx="41.69" ry="18"/><text x="4325.55" y="-2043.3" font-family="Times,serif" font-size="14" text-anchor="middle">output</text></g><g id="node43" class="node"><title>n62</title><ellipse cx="4161.81" cy="-2155" fill="none" stroke="#000" rx="30.59" ry="18"/><text x="4161.81" y="-2151.3" font-family="Times,serif" font-size="14" text-anchor="middle">max</text></g><g id="node44" class="node"><title>n61</title><ellipse cx="4161.81" cy="-2101" fill="none" stroke="#000" rx="50.89" ry="18"/><text x="4161.81" y="-2097.3" font-family="Times,serif" font-size="14" text-anchor="middle">optimize</text></g><g id="edge50" class="edge"><title>n64-&gt;n13</title><path fill="none" stroke="#000" d="M4326.14,-2028.7C4326.14,-1876.07 4326.14,-820 4326.14,-820 4326.14,-820 2174.14,-820 2174.14,-820 2174.14,-820 2174.14,-819.12 2174.14,-819.12"/><polygon fill="#000" stroke="#000" points="2177.64 -821.16 2174.14 -811.16 2170.64 -821.16 2177.64 -821.16"/><text x="3378.97" y="-1062.8" font-family="Times,serif" font-size="14" text-anchor="middle">DESIRED_CONCURRENCY</text></g><g id="node47" class="node"><title>n59</title><ellipse cx="4161.81" cy="-2263" fill="none" stroke="#000" rx="38.19" ry="18"/><text x="4161.81" y="-2259.3" font-family="Times,serif" font-size="14" text-anchor="middle">signal</text></g><g id="node48" class="node"><title>n47</title><ellipse cx="2699.68" cy="-2374" fill="none" stroke="#000" rx="37.09" ry="18"/><text x="2699.68" y="-2370.3" font-family="Times,serif" font-size="14" text-anchor="middle">10.00</text></g><g id="edge19" class="edge"><title>n47-&gt;n46</title><path fill="none" stroke="#000" d="M2736.99,-2374C2736.99,-2374 3109.77,-2374 3109.77,-2374"/><polygon fill="#000" stroke="#000" points="3109.77 -2377.5 3119.77 -2374 3109.77 -2370.5 3109.77 -2377.5"/></g><g id="node50" class="node"><title>n48</title><ellipse cx="3591.07" cy="-2374" fill="none" stroke="#000" rx="41.69" ry="18"/><text x="3591.07" y="-2370.3" font-family="Times,serif" font-size="14" text-anchor="middle">output</text></g><g id="edge49" class="edge"><title>n48-&gt;n62</title><path fill="none" stroke="#000" d="M3578.14,-2356.74C3578.14,-2304.87 3578.14,-2154 3578.14,-2154 3578.14,-2154 4121.25,-2154 4121.25,-2154"/><polygon fill="#000" stroke="#000" points="4121.25 -2157.5 4131.25 -2154 4121.25 -2150.5 4121.25 -2157.5"/><text x="3854.66" y="-2197.8" font-family="Times,serif" font-size="14" text-anchor="middle">MAX_CONCURRENCY</text></g><g id="node52" class="node"><title>n40</title><ellipse cx="2699.68" cy="-1211" fill="none" stroke="#000" rx="41.69" ry="18"/><text x="2699.68" y="-1207.3" font-family="Times,serif" font-size="14" text-anchor="middle">output</text></g><g id="edge46" class="edge"><title>n40-&gt;n42</title><path fill="none" stroke="#000" d="M2663.59,-1220C2608.59,-1220 2510.14,-1220 2510.14,-1220 2510.14,-1220 2510.14,-1372 2510.14,-1372 2510.14,-1372 2221.65,-1372 2221.65,-1372"/><polygon fill="#000" stroke="#000" points="2221.65 -1368.5 2211.65 -1372 2221.65 -1375.5 2221.65 -1368.5"/><text x="2418.14" y="-1299.8" font-family="Times,serif" font-size="14" text-anchor="middle">CONCURRENCY_INCREMENT_INTEGRAL_CAPPED</text></g><g id="node53" class="node"><title>n53</title><ellipse cx="99.6" cy="-2269" fill="none" stroke="#000" rx="41.69" ry="18"/><text x="99.6" y="-2265.3" font-family="Times,serif" font-size="14" text-anchor="middle">output</text></g><g id="edge38" class="edge"><title>n53-&gt;n2</title><path fill="none" stroke="#000" d="M136.14,-2260.19C136.14,-2221.68 136.14,-2070 136.14,-2070 136.14,-2070 277.15,-2070 277.15,-2070"/><polygon fill="#000" stroke="#000" points="277.15 -2073.5 287.15 -2070 277.15 -2066.5 277.15 -2073.5"/><text x="234.19" y="-2257.8" font-family="Times,serif" font-size="14" text-anchor="middle">LATENCY</text></g><g id="edge41" class="edge"><title>n53-&gt;n72</title><path fill="none" stroke="#000" d="M134.14,-2258.85C134.14,-2174.2 134.14,-1588.5 134.14,-1588.5 134.14,-1588.5 2141.14,-1588.5 2141.14,-1588.5"/><polygon fill="#000" stroke="#000" points="2141.14 -1592 2151.14 -1588.5 2141.14 -1585 2141.14 -1592"/><text x="927.47" y="-1891.8" font-family="Times,serif" font-size="14" text-anchor="middle">LATENCY</text></g><g id="edge39" class="edge"><title>n53-&gt;n55</title><path fill="none" stroke="#000" d="M139.14,-2263.39C139.14,-2245.51 139.14,-2191 139.14,-2191 139.14,-2191 752.98,-2191 752.98,-2191"/><polygon fill="#000" stroke="#000" points="752.98 -2194.5 762.98 -2191 752.98 -2187.5 752.98 -2194.5"/><text x="394.19" y="-2287.8" font-family="Times,serif" font-size="14" text-anchor="middle">LATENCY</text></g><g id="edge40" class="edge"><title>n53-&gt;n59</title><path fill="none" stroke="#000" d="M140.79,-2266C140.79,-2266 4113.78,-2266 4113.78,-2266"/><polygon fill="#000" stroke="#000" points="4113.78 -2269.5 4123.78 -2266 4113.78 -2262.5 4113.78 -2269.5"/><text x="1387.27" y="-2749.8" font-family="Times,serif" font-size="14" text-anchor="middle">LATENCY</text></g><g id="node55" class="node"><title>n51</title><ellipse cx="2699.68" cy="-1014" fill="none" stroke="#000" rx="41.69" ry="18"/><text x="2699.68" y="-1010.3" font-family="Times,serif" font-size="14" text-anchor="middle">output</text></g><g id="edge45" class="edge"><title>n51-&gt;n30</title><path fill="none" stroke="#000" d="M2741.4,-1014C2807.07,-1014 2927.14,-1014 2927.14,-1014 2927.14,-1014 2927.14,-351 2927.14,-351 2927.14,-351 3123.17,-351 3123.17,-351"/><polygon fill="#000" stroke="#000" points="3123.17 -354.5 3133.17 -351 3123.17 -347.5 3123.17 -354.5"/><text x="2946.78" y="-903.8" font-family="Times,serif" font-size="14" text-anchor="middle">SQRT_CONCURRENCY_INCREMENT</text></g><g id="node56" class="node"><title>n77</title><ellipse cx="2699.68" cy="-1986" fill="none" stroke="#000" rx="37.09" ry="18"/><text x="2699.68" y="-1982.3" font-family="Times,serif" font-size="14" text-anchor="middle">10.00</text></g><g id="node58" class="node"><title>n76</title><ellipse cx="3160.38" cy="-1986" fill="none" stroke="#000" rx="46.29" ry="18"/><text x="3160.38" y="-1982.3" font-family="Times,serif" font-size="14" text-anchor="middle">on_true</text></g><g id="edge23" class="edge"><title>n77-&gt;n76</title><path fill="none" stroke="#000" d="M2736.99,-1986C2736.99,-1986 3103.95,-1986 3103.95,-1986"/><polygon fill="#000" stroke="#000" points="3103.95 -1989.5 3113.95 -1986 3103.95 -1982.5 3103.95 -1989.5"/></g><g id="node59" class="node"><title>n80</title><ellipse cx="3591.07" cy="-1972" fill="none" stroke="#000" rx="41.69" ry="18"/><text x="3591.07" y="-1968.3" font-family="Times,serif" font-size="14" text-anchor="middle">output</text></g><g id="edge53" class="edge"><title>n80-&gt;n61</title><path fill="none" stroke="#000" d="M3605.14,-1989.19C3605.14,-2024.84 3605.14,-2103.5 3605.14,-2103.5 3605.14,-2103.5 4101.43,-2103.5 4101.43,-2103.5"/><polygon fill="#000" stroke="#000" points="4101.43 -2107 4111.43 -2103.5 4101.43 -2100 4101.43 -2107"/><text x="3854.66" y="-2065.8" font-family="Times,serif" font-size="14" text-anchor="middle">CONCURRENCY_INCREMENT</text></g><g id="node61" class="node"><title>n83</title><ellipse cx="2699.68" cy="-518" fill="none" stroke="#000" rx="31.4" ry="18"/><text x="2699.68" y="-514.3" font-family="Times,serif" font-size="14" text-anchor="middle">0.00</text></g><g id="node63" class="node"><title>n82</title><ellipse cx="3160.38" cy="-518" fill="none" stroke="#000" rx="46.29" ry="18"/><text x="3160.38" y="-514.3" font-family="Times,serif" font-size="14" text-anchor="middle">on_true</text></g><g id="edge25" class="edge"><title>n83-&gt;n82</title><path fill="none" stroke="#000" d="M2730.99,-518C2730.99,-518 3104.11,-518 3104.11,-518"/><polygon fill="#000" stroke="#000" points="3104.11 -521.5 3114.11 -518 3104.11 -514.5 3104.11 -521.5"/></g><g id="node64" class="node"><title>n86</title><ellipse cx="3591.07" cy="-626" fill="none" stroke="#000" rx="41.69" ry="18"/><text x="3591.07" y="-622.3" font-family="Times,serif" font-size="14" text-anchor="middle">output</text></g><g id="edge55" class="edge"><title>n86-&gt;n35</title><path fill="none" stroke="#000" d="M3633.04,-626C3633.04,-626 4124.62,-626 4124.62,-626"/><polygon fill="#000" stroke="#000" points="4124.62 -629.5 4134.62 -626 4124.62 -622.5 4124.62 -629.5"/><text x="3854.66" y="-629.8" font-family="Times,serif" font-size="14" text-anchor="middle">CONCURRENCY_INCREMENT_FEEDBACK</text></g></g></svg>