<?xml version="1.0" encoding="UTF-8" standalone="no"?>
<!DOCTYPE svg PUBLIC "-//W3C//DTD SVG 1.1//EN"
 "http://www.w3.org/Graphics/SVG/1.1/DTD/svg11.dtd">
<!-- Generated by graphviz version 6.0.1 (20220911.1526)
 -->
<!-- Pages: 1 -->
<svg width="4290pt" height="1653pt"
 viewBox="0.00 0.00 4290.09 1653.00" xmlns="http://www.w3.org/2000/svg" xmlns:xlink="http://www.w3.org/1999/xlink">
<g id="graph0" class="graph" transform="scale(1 1) rotate(0) translate(4 1649)">
<polygon fill="white" stroke="none" points="-4,4 -4,-1649 4286.09,-1649 4286.09,4 -4,4"/>
<g id="clust1" class="cluster">
<title>cluster_s1</title>
<polygon fill="none" stroke="black" points="277.19,-1161 277.19,-1374 620.39,-1374 620.39,-1161 277.19,-1161"/>
<text text-anchor="middle" x="448.79" y="-1358.8" font-family="Times,serif" font-size="14.00">ArithmeticCombinator[0]</text>
</g>
<g id="clust4" class="cluster">
<title>cluster_s5</title>
<polygon fill="none" stroke="black" points="2940.33,-1357 2940.33,-1570 3539.61,-1570 3539.61,-1357 2940.33,-1357"/>
<text text-anchor="middle" x="3239.97" y="-1554.8" font-family="Times,serif" font-size="14.00">ArithmeticCombinator[1]</text>
</g>
<g id="clust7" class="cluster">
<title>cluster_s9</title>
<polygon fill="none" stroke="black" points="2146.74,-439 2146.74,-652 2608.23,-652 2608.23,-439 2146.74,-439"/>
<text text-anchor="middle" x="2377.49" y="-636.8" font-family="Times,serif" font-size="14.00">ArithmeticCombinator[2]</text>
</g>
<g id="clust10" class="cluster">
<title>cluster_s13</title>
<polygon fill="none" stroke="black" points="2146.74,-218 2146.74,-431 2608.23,-431 2608.23,-218 2146.74,-218"/>
<text text-anchor="middle" x="2377.49" y="-415.8" font-family="Times,serif" font-size="14.00">ArithmeticCombinator[3]</text>
</g>
<g id="clust13" class="cluster">
<title>cluster_s17</title>
<polygon fill="none" stroke="black" points="2146.74,-1190 2146.74,-1403 2608.23,-1403 2608.23,-1190 2146.74,-1190"/>
<text text-anchor="middle" x="2377.49" y="-1387.8" font-family="Times,serif" font-size="14.00">ArithmeticCombinator[4]</text>
</g>
<g id="clust16" class="cluster">
<title>cluster_s21</title>
<polygon fill="none" stroke="black" points="1280.66,-1162 1280.66,-1375 1786.65,-1375 1786.65,-1162 1280.66,-1162"/>
<text text-anchor="middle" x="1533.66" y="-1359.8" font-family="Times,serif" font-size="14.00">ArithmeticCombinator[5]</text>
</g>
<g id="clust19" class="cluster">
<title>cluster_s25</title>
<polygon fill="none" stroke="black" points="2940.33,-76 2940.33,-289 3539.61,-289 3539.61,-76 2940.33,-76"/>
<text text-anchor="middle" x="3239.97" y="-273.8" font-family="Times,serif" font-size="14.00">ArithmeticCombinator[6]</text>
</g>
<g id="clust22" class="cluster">
<title>cluster_s29</title>
<polygon fill="none" stroke="black" points="3941.76,-311 3941.76,-524 4274.09,-524 4274.09,-311 3941.76,-311"/>
<text text-anchor="middle" x="4107.92" y="-508.8" font-family="Times,serif" font-size="14.00">ArithmeticCombinator[7]</text>
</g>
<g id="clust25" class="cluster">
<title>cluster_s55</title>
<polygon fill="none" stroke="black" points="1480.66,-234 1480.66,-779 1909.44,-779 1909.44,-234 1480.66,-234"/>
<text text-anchor="middle" x="1695.05" y="-763.8" font-family="Times,serif" font-size="14.00">ConcurrencyLimiter[14]</text>
</g>
<g id="clust26" class="cluster">
<title>cluster_s59</title>
<polygon fill="none" stroke="black" points="1538.66,-284 1538.66,-443 1852.45,-443 1852.45,-284 1538.66,-284"/>
<text text-anchor="middle" x="1695.55" y="-427.8" font-family="Times,serif" font-size="14.00">LoadShedActuator[14.LoadShedActuator]</text>
</g>
<g id="clust28" class="cluster">
<title>cluster_s56</title>
<polygon fill="none" stroke="black" points="1530.66,-493 1530.66,-706 1859.44,-706 1859.44,-493 1530.66,-493"/>
<text text-anchor="middle" x="1695.05" y="-690.8" font-family="Times,serif" font-size="14.00">Scheduler[14.Scheduler]</text>
</g>
<g id="clust30" class="cluster">
<title>cluster_s61</title>
<polygon fill="none" stroke="black" points="2146.74,-660 2146.74,-873 2608.23,-873 2608.23,-660 2146.74,-660"/>
<text text-anchor="middle" x="2377.49" y="-857.8" font-family="Times,serif" font-size="14.00">Decider[15]</text>
</g>
<g id="clust33" class="cluster">
<title>cluster_s44</title>
<polygon fill="none" stroke="black" points="712.39,-1287 712.39,-1500 1153.66,-1500 1153.66,-1287 712.39,-1287"/>
<text text-anchor="middle" x="933.02" y="-1484.8" font-family="Times,serif" font-size="14.00">EMA[12]</text>
</g>
<g id="clust36" class="cluster">
<title>cluster_s48</title>
<polygon fill="none" stroke="black" points="3883.61,-1020 3883.61,-1395 4274.09,-1395 4274.09,-1020 3883.61,-1020"/>
<text text-anchor="middle" x="4078.85" y="-1379.8" font-family="Times,serif" font-size="14.00">Gradient[13]</text>
</g>
<g id="clust39" class="cluster">
<title>cluster_s36</title>
<polygon fill="none" stroke="black" points="2927.03,-1190 2927.03,-1349 3539.61,-1349 3539.61,-1190 2927.03,-1190"/>
<text text-anchor="middle" x="3233.32" y="-1333.8" font-family="Times,serif" font-size="14.00">Max[9]</text>
</g>
<g id="clust42" class="cluster">
<title>cluster_s33</title>
<polygon fill="none" stroke="black" points="2133.44,-911 2133.44,-1070 2608.23,-1070 2608.23,-911 2133.44,-911"/>
<text text-anchor="middle" x="2370.84" y="-1054.8" font-family="Times,serif" font-size="14.00">Min[8]</text>
</g>
<g id="clust45" class="cluster">
<title>cluster_s42</title>
<polygon fill="none" stroke="black" points="8,-1295 8,-1454 191.19,-1454 191.19,-1295 8,-1295"/>
<text text-anchor="middle" x="99.6" y="-1438.8" font-family="Times,serif" font-size="14.00">PromQL[11]</text>
</g>
<g id="clust47" class="cluster">
<title>cluster_s39</title>
<polygon fill="none" stroke="black" points="2138.64,-8 2138.64,-167 2608.23,-167 2608.23,-8 2138.64,-8"/>
<text text-anchor="middle" x="2373.44" y="-151.8" font-family="Times,serif" font-size="14.00">Sqrt[10]</text>
</g>
<g id="clust50" class="cluster">
<title>cluster_s65</title>
<polygon fill="none" stroke="black" points="2919.23,-803 2919.23,-1070 3539.61,-1070 3539.61,-803 2919.23,-803"/>
<text text-anchor="middle" x="3229.42" y="-1054.8" font-family="Times,serif" font-size="14.00">Switcher[16]</text>
</g>
<g id="clust53" class="cluster">
<title>cluster_s70</title>
<polygon fill="none" stroke="black" points="2919.23,-365 2919.23,-632 3539.61,-632 3539.61,-365 2919.23,-365"/>
<text text-anchor="middle" x="3229.42" y="-616.8" font-family="Times,serif" font-size="14.00">Switcher[17]</text>
</g>
<!-- n2 -->
<g id="node1" class="node">
<title>n2</title>
<ellipse fill="none" stroke="black" cx="354.19" cy="-1283" rx="27" ry="18"/>
<text text-anchor="middle" x="354.19" y="-1279.3" font-family="Times,serif" font-size="14.00">lhs</text>
</g>
<!-- n4 -->
<g id="node2" class="node">
<title>n4</title>
<ellipse fill="none" stroke="black" cx="528.79" cy="-1256" rx="41.69" ry="18"/>
<text text-anchor="middle" x="528.79" y="-1252.3" font-family="Times,serif" font-size="14.00">output</text>
</g>
<!-- n46 -->
<g id="node32" class="node">
<title>n46</title>
<ellipse fill="none" stroke="black" cx="838.43" cy="-1355" rx="76.09" ry="18"/>
<text text-anchor="middle" x="838.43" y="-1351.3" font-family="Times,serif" font-size="14.00">max_envelope</text>
</g>
<!-- n4&#45;&gt;n46 -->
<g id="edge40" class="edge">
<title>n4&#45;&gt;n46</title>
<path fill="none" stroke="black" d="M529.09,-1274.03C529.09,-1298.98 529.09,-1341 529.09,-1341 529.09,-1341 780.43,-1341 780.43,-1341"/>
<polygon fill="black" stroke="black" points="780.43,-1344.5 790.43,-1341 780.43,-1337.5 780.43,-1344.5"/>
<text text-anchor="middle" x="666.39" y="-1292.8" font-family="Times,serif" font-size="14.00">MAX_EMA</text>
</g>
<!-- n3 -->
<g id="node3" class="node">
<title>n3</title>
<ellipse fill="none" stroke="black" cx="354.19" cy="-1229" rx="27" ry="18"/>
<text text-anchor="middle" x="354.19" y="-1225.3" font-family="Times,serif" font-size="14.00">rhs</text>
</g>
<!-- n3&#45;&gt;n4 -->
<!-- n6 -->
<g id="node4" class="node">
<title>n6</title>
<ellipse fill="none" stroke="black" cx="3017.33" cy="-1479" rx="27" ry="18"/>
<text text-anchor="middle" x="3017.33" y="-1475.3" font-family="Times,serif" font-size="14.00">lhs</text>
</g>
<!-- n8 -->
<g id="node5" class="node">
<title>n8</title>
<ellipse fill="none" stroke="black" cx="3448.02" cy="-1425" rx="41.69" ry="18"/>
<text text-anchor="middle" x="3448.02" y="-1421.3" font-family="Times,serif" font-size="14.00">output</text>
</g>
<!-- n52 -->
<g id="node38" class="node">
<title>n52</title>
<ellipse fill="none" stroke="black" cx="4018.76" cy="-1250" rx="48.99" ry="18"/>
<text text-anchor="middle" x="4018.76" y="-1246.3" font-family="Times,serif" font-size="14.00">setpoint</text>
</g>
<!-- n8&#45;&gt;n52 -->
<g id="edge41" class="edge">
<title>n8&#45;&gt;n52</title>
<path fill="none" stroke="black" d="M3489.9,-1425C3614.8,-1425 3976.09,-1425 3976.09,-1425 3976.09,-1425 3976.09,-1268.92 3976.09,-1268.92"/>
<polygon fill="black" stroke="black" points="3979.59,-1268.92 3976.09,-1258.92 3972.59,-1268.92 3979.59,-1268.92"/>
<text text-anchor="middle" x="3711.61" y="-1280.8" font-family="Times,serif" font-size="14.00">LATENCY_SETPOINT</text>
</g>
<!-- n7 -->
<g id="node6" class="node">
<title>n7</title>
<ellipse fill="none" stroke="black" cx="3017.33" cy="-1425" rx="27" ry="18"/>
<text text-anchor="middle" x="3017.33" y="-1421.3" font-family="Times,serif" font-size="14.00">rhs</text>
</g>
<!-- n7&#45;&gt;n8 -->
<!-- n10 -->
<g id="node7" class="node">
<title>n10</title>
<ellipse fill="none" stroke="black" cx="2223.74" cy="-561" rx="27" ry="18"/>
<text text-anchor="middle" x="2223.74" y="-557.3" font-family="Times,serif" font-size="14.00">lhs</text>
</g>
<!-- n12 -->
<g id="node8" class="node">
<title>n12</title>
<ellipse fill="none" stroke="black" cx="2516.63" cy="-507" rx="41.69" ry="18"/>
<text text-anchor="middle" x="2516.63" y="-503.3" font-family="Times,serif" font-size="14.00">output</text>
</g>
<!-- n14 -->
<g id="node10" class="node">
<title>n14</title>
<ellipse fill="none" stroke="black" cx="2223.74" cy="-340" rx="27" ry="18"/>
<text text-anchor="middle" x="2223.74" y="-336.3" font-family="Times,serif" font-size="14.00">lhs</text>
</g>
<!-- n12&#45;&gt;n14 -->
<g id="edge24" class="edge">
<title>n12&#45;&gt;n14</title>
<path fill="none" stroke="black" d="M2531.09,-490.07C2531.09,-447.61 2531.09,-340 2531.09,-340 2531.09,-340 2260.75,-340 2260.75,-340"/>
<polygon fill="black" stroke="black" points="2260.75,-336.5 2250.75,-340 2260.75,-343.5 2260.75,-336.5"/>
<text text-anchor="middle" x="2369.54" y="-416.8" font-family="Times,serif" font-size="14.00">DELTA_CONCURRENCY</text>
</g>
<!-- n11 -->
<g id="node9" class="node">
<title>n11</title>
<ellipse fill="none" stroke="black" cx="2223.74" cy="-507" rx="27" ry="18"/>
<text text-anchor="middle" x="2223.74" y="-503.3" font-family="Times,serif" font-size="14.00">rhs</text>
</g>
<!-- n11&#45;&gt;n12 -->
<!-- n16 -->
<g id="node11" class="node">
<title>n16</title>
<ellipse fill="none" stroke="black" cx="2516.63" cy="-286" rx="41.69" ry="18"/>
<text text-anchor="middle" x="2516.63" y="-282.3" font-family="Times,serif" font-size="14.00">output</text>
</g>
<!-- n60 -->
<g id="node25" class="node">
<title>n60</title>
<ellipse fill="none" stroke="black" cx="1695.05" cy="-352" rx="88.28" ry="18"/>
<text text-anchor="middle" x="1695.05" y="-348.3" font-family="Times,serif" font-size="14.00">load_shed_factor</text>
</g>
<!-- n16&#45;&gt;n60 -->
<g id="edge25" class="edge">
<title>n16&#45;&gt;n60</title>
<path fill="none" stroke="black" d="M2503.09,-303.25C2503.09,-326.63 2503.09,-365.5 2503.09,-365.5 2503.09,-365.5 1763.82,-365.5 1763.82,-365.5"/>
<polygon fill="black" stroke="black" points="1763.82,-362 1753.82,-365.5 1763.82,-369 1763.82,-362"/>
<text text-anchor="middle" x="2223.74" y="-238.8" font-family="Times,serif" font-size="14.00">LSF</text>
</g>
<!-- n15 -->
<g id="node12" class="node">
<title>n15</title>
<ellipse fill="none" stroke="black" cx="2223.74" cy="-286" rx="27" ry="18"/>
<text text-anchor="middle" x="2223.74" y="-282.3" font-family="Times,serif" font-size="14.00">rhs</text>
</g>
<!-- n15&#45;&gt;n16 -->
<!-- n18 -->
<g id="node13" class="node">
<title>n18</title>
<ellipse fill="none" stroke="black" cx="2223.74" cy="-1312" rx="27" ry="18"/>
<text text-anchor="middle" x="2223.74" y="-1308.3" font-family="Times,serif" font-size="14.00">lhs</text>
</g>
<!-- n20 -->
<g id="node14" class="node">
<title>n20</title>
<ellipse fill="none" stroke="black" cx="2516.63" cy="-1258" rx="41.69" ry="18"/>
<text text-anchor="middle" x="2516.63" y="-1254.3" font-family="Times,serif" font-size="14.00">output</text>
</g>
<!-- n37 -->
<g id="node40" class="node">
<title>n37</title>
<ellipse fill="none" stroke="black" cx="3017.33" cy="-1258" rx="40.09" ry="18"/>
<text text-anchor="middle" x="3017.33" y="-1254.3" font-family="Times,serif" font-size="14.00">inputs</text>
</g>
<!-- n20&#45;&gt;n37 -->
<g id="edge26" class="edge">
<title>n20&#45;&gt;n37</title>
<path fill="none" stroke="black" d="M2558.46,-1258C2558.46,-1258 2967.02,-1258 2967.02,-1258"/>
<polygon fill="black" stroke="black" points="2967.02,-1261.5 2977.02,-1258 2967.02,-1254.5 2967.02,-1261.5"/>
<text text-anchor="middle" x="2763.73" y="-1261.8" font-family="Times,serif" font-size="14.00">UPPER_CONCURRENCY_LIMIT</text>
</g>
<!-- n19 -->
<g id="node15" class="node">
<title>n19</title>
<ellipse fill="none" stroke="black" cx="2223.74" cy="-1258" rx="27" ry="18"/>
<text text-anchor="middle" x="2223.74" y="-1254.3" font-family="Times,serif" font-size="14.00">rhs</text>
</g>
<!-- n19&#45;&gt;n20 -->
<!-- n22 -->
<g id="node16" class="node">
<title>n22</title>
<ellipse fill="none" stroke="black" cx="1357.66" cy="-1284" rx="27" ry="18"/>
<text text-anchor="middle" x="1357.66" y="-1280.3" font-family="Times,serif" font-size="14.00">lhs</text>
</g>
<!-- n24 -->
<g id="node17" class="node">
<title>n24</title>
<ellipse fill="none" stroke="black" cx="1695.05" cy="-1230" rx="41.69" ry="18"/>
<text text-anchor="middle" x="1695.05" y="-1226.3" font-family="Times,serif" font-size="14.00">output</text>
</g>
<!-- n63 -->
<g id="node30" class="node">
<title>n63</title>
<ellipse fill="none" stroke="black" cx="2223.74" cy="-782" rx="27" ry="18"/>
<text text-anchor="middle" x="2223.74" y="-778.3" font-family="Times,serif" font-size="14.00">rhs</text>
</g>
<!-- n24&#45;&gt;n63 -->
<g id="edge27" class="edge">
<title>n24&#45;&gt;n63</title>
<path fill="none" stroke="black" d="M1695.09,-1211.88C1695.09,-1128.07 1695.09,-782 1695.09,-782 1695.09,-782 2186.43,-782 2186.43,-782"/>
<polygon fill="black" stroke="black" points="2186.43,-785.5 2196.43,-782 2186.43,-778.5 2186.43,-785.5"/>
<text text-anchor="middle" x="2021.44" y="-1225.8" font-family="Times,serif" font-size="14.00">LATENCY_OVERLOAD</text>
</g>
<!-- n23 -->
<g id="node18" class="node">
<title>n23</title>
<ellipse fill="none" stroke="black" cx="1357.66" cy="-1230" rx="27" ry="18"/>
<text text-anchor="middle" x="1357.66" y="-1226.3" font-family="Times,serif" font-size="14.00">rhs</text>
</g>
<!-- n23&#45;&gt;n24 -->
<!-- n27 -->
<g id="node19" class="node">
<title>n27</title>
<ellipse fill="none" stroke="black" cx="3017.33" cy="-198" rx="27" ry="18"/>
<text text-anchor="middle" x="3017.33" y="-194.3" font-family="Times,serif" font-size="14.00">lhs</text>
</g>
<!-- n28 -->
<g id="node20" class="node">
<title>n28</title>
<ellipse fill="none" stroke="black" cx="3448.02" cy="-198" rx="41.69" ry="18"/>
<text text-anchor="middle" x="3448.02" y="-194.3" font-family="Times,serif" font-size="14.00">output</text>
</g>
<!-- n27&#45;&gt;n28 -->
<!-- n30 -->
<g id="node22" class="node">
<title>n30</title>
<ellipse fill="none" stroke="black" cx="4018.76" cy="-379" rx="27" ry="18"/>
<text text-anchor="middle" x="4018.76" y="-375.3" font-family="Times,serif" font-size="14.00">lhs</text>
</g>
<!-- n28&#45;&gt;n30 -->
<g id="edge42" class="edge">
<title>n28&#45;&gt;n30</title>
<path fill="none" stroke="black" d="M3490.01,-198C3621.89,-198 4019.09,-198 4019.09,-198 4019.09,-198 4019.09,-350.98 4019.09,-350.98"/>
<polygon fill="black" stroke="black" points="4015.59,-350.98 4019.09,-360.98 4022.59,-350.98 4015.59,-350.98"/>
<text text-anchor="middle" x="3711.61" y="-292.8" font-family="Times,serif" font-size="14.00">CONCURRENCY_INCREMENT_SINGLE_TICK</text>
</g>
<!-- n26 -->
<g id="node21" class="node">
<title>n26</title>
<ellipse fill="none" stroke="black" cx="3017.33" cy="-144" rx="27" ry="18"/>
<text text-anchor="middle" x="3017.33" y="-140.3" font-family="Times,serif" font-size="14.00">rhs</text>
</g>
<!-- n32 -->
<g id="node23" class="node">
<title>n32</title>
<ellipse fill="none" stroke="black" cx="4182.49" cy="-433" rx="41.69" ry="18"/>
<text text-anchor="middle" x="4182.49" y="-429.3" font-family="Times,serif" font-size="14.00">output</text>
</g>
<!-- n34 -->
<g id="node42" class="node">
<title>n34</title>
<ellipse fill="none" stroke="black" cx="2223.74" cy="-979" rx="40.09" ry="18"/>
<text text-anchor="middle" x="2223.74" y="-975.3" font-family="Times,serif" font-size="14.00">inputs</text>
</g>
<!-- n32&#45;&gt;n34 -->
<g id="edge45" class="edge">
<title>n32&#45;&gt;n34</title>
<path fill="none" stroke="black" d="M4169.09,-450.1C4169.09,-456.84 4169.09,-463 4169.09,-463 4169.09,-463 2255.09,-463 2255.09,-463 2255.09,-463 2255.09,-957.25 2255.09,-957.25"/>
<polygon fill="black" stroke="black" points="2251.59,-957.25 2255.09,-967.25 2258.59,-957.25 2251.59,-957.25"/>
<text text-anchor="middle" x="3235.92" y="-703.8" font-family="Times,serif" font-size="14.00">CONCURRENCY_INCREMENT_INTEGRAL</text>
</g>
<!-- n31 -->
<g id="node24" class="node">
<title>n31</title>
<ellipse fill="none" stroke="black" cx="4018.76" cy="-433" rx="27" ry="18"/>
<text text-anchor="middle" x="4018.76" y="-429.3" font-family="Times,serif" font-size="14.00">rhs</text>
</g>
<!-- n31&#45;&gt;n32 -->
<!-- n57 -->
<g id="node26" class="node">
<title>n57</title>
<ellipse fill="none" stroke="black" cx="1695.05" cy="-615" rx="113.98" ry="18"/>
<text text-anchor="middle" x="1695.05" y="-611.3" font-family="Times,serif" font-size="14.00">accepted_concurrency</text>
</g>
<!-- n57&#45;&gt;n19 -->
<g id="edge17" class="edge">
<title>n57&#45;&gt;n19</title>
<path fill="none" stroke="black" d="M1773.09,-628.14C1773.09,-718.46 1773.09,-1244 1773.09,-1244 1773.09,-1244 2196.62,-1244 2196.62,-1244"/>
<polygon fill="black" stroke="black" points="2196.62,-1247.5 2206.62,-1244 2196.62,-1240.5 2196.62,-1247.5"/>
<text text-anchor="middle" x="2021.44" y="-1180.8" font-family="Times,serif" font-size="14.00">ACCEPTED_CONCURRENCY</text>
</g>
<!-- n50 -->
<g id="node34" class="node">
<title>n50</title>
<ellipse fill="none" stroke="black" cx="4018.76" cy="-1142" rx="85.29" ry="18"/>
<text text-anchor="middle" x="4018.76" y="-1138.3" font-family="Times,serif" font-size="14.00">control_variable</text>
</g>
<!-- n57&#45;&gt;n50 -->
<g id="edge20" class="edge">
<title>n57&#45;&gt;n50</title>
<path fill="none" stroke="black" d="M1808.87,-615C2266.92,-615 3951.09,-615 3951.09,-615 3951.09,-615 3951.09,-1120.99 3951.09,-1120.99"/>
<polygon fill="black" stroke="black" points="3947.59,-1120.99 3951.09,-1130.99 3954.59,-1120.99 3947.59,-1120.99"/>
<text text-anchor="middle" x="2763.73" y="-1133.8" font-family="Times,serif" font-size="14.00">ACCEPTED_CONCURRENCY</text>
</g>
<!-- n57&#45;&gt;n34 -->
<g id="edge18" class="edge">
<title>n57&#45;&gt;n34</title>
<path fill="none" stroke="black" d="M1793.65,-624C1939.08,-624 2194.09,-624 2194.09,-624 2194.09,-624 2194.09,-956.78 2194.09,-956.78"/>
<polygon fill="black" stroke="black" points="2190.59,-956.78 2194.09,-966.78 2197.59,-956.78 2190.59,-956.78"/>
<text text-anchor="middle" x="2021.44" y="-955.8" font-family="Times,serif" font-size="14.00">ACCEPTED_CONCURRENCY</text>
</g>
<!-- n40 -->
<g id="node45" class="node">
<title>n40</title>
<ellipse fill="none" stroke="black" cx="2223.74" cy="-76" rx="35.19" ry="18"/>
<text text-anchor="middle" x="2223.74" y="-72.3" font-family="Times,serif" font-size="14.00">input</text>
</g>
<!-- n57&#45;&gt;n40 -->
<g id="edge19" class="edge">
<title>n57&#45;&gt;n40</title>
<path fill="none" stroke="black" d="M1793.85,-606C1938.8,-606 2192.09,-606 2192.09,-606 2192.09,-606 2192.09,-93.9 2192.09,-93.9"/>
<polygon fill="black" stroke="black" points="2195.59,-93.9 2192.09,-83.9 2188.59,-93.9 2195.59,-93.9"/>
<text text-anchor="middle" x="2021.44" y="-610.8" font-family="Times,serif" font-size="14.00">ACCEPTED_CONCURRENCY</text>
</g>
<!-- n58 -->
<g id="node27" class="node">
<title>n58</title>
<ellipse fill="none" stroke="black" cx="1695.05" cy="-561" rx="114.28" ry="18"/>
<text text-anchor="middle" x="1695.05" y="-557.3" font-family="Times,serif" font-size="14.00">incoming_concurrency</text>
</g>
<!-- n58&#45;&gt;n10 -->
<g id="edge21" class="edge">
<title>n58&#45;&gt;n10</title>
<path fill="none" stroke="black" d="M1809.45,-561C1809.45,-561 2186.56,-561 2186.56,-561"/>
<polygon fill="black" stroke="black" points="2186.56,-564.5 2196.56,-561 2186.56,-557.5 2186.56,-564.5"/>
<text text-anchor="middle" x="2021.44" y="-564.8" font-family="Times,serif" font-size="14.00">INCOMING_CONCURRENCY</text>
</g>
<!-- n58&#45;&gt;n15 -->
<g id="edge22" class="edge">
<title>n58&#45;&gt;n15</title>
<path fill="none" stroke="black" d="M1797.09,-552.77C1797.09,-507.01 1797.09,-286 1797.09,-286 1797.09,-286 2186.73,-286 2186.73,-286"/>
<polygon fill="black" stroke="black" points="2186.73,-289.5 2196.73,-286 2186.73,-282.5 2186.73,-289.5"/>
<text text-anchor="middle" x="2021.44" y="-407.8" font-family="Times,serif" font-size="14.00">INCOMING_CONCURRENCY</text>
</g>
<!-- n62 -->
<g id="node28" class="node">
<title>n62</title>
<ellipse fill="none" stroke="black" cx="2223.74" cy="-728" rx="27" ry="18"/>
<text text-anchor="middle" x="2223.74" y="-724.3" font-family="Times,serif" font-size="14.00">lhs</text>
</g>
<!-- n64 -->
<g id="node29" class="node">
<title>n64</title>
<ellipse fill="none" stroke="black" cx="2516.63" cy="-782" rx="41.69" ry="18"/>
<text text-anchor="middle" x="2516.63" y="-778.3" font-family="Times,serif" font-size="14.00">output</text>
</g>
<!-- n68 -->
<g id="node50" class="node">
<title>n68</title>
<ellipse fill="none" stroke="black" cx="3017.33" cy="-871" rx="40.89" ry="18"/>
<text text-anchor="middle" x="3017.33" y="-867.3" font-family="Times,serif" font-size="14.00">switch</text>
</g>
<!-- n64&#45;&gt;n68 -->
<g id="edge38" class="edge">
<title>n64&#45;&gt;n68</title>
<path fill="none" stroke="black" d="M2555.98,-788C2674.2,-788 3018.09,-788 3018.09,-788 3018.09,-788 3018.09,-842.99 3018.09,-842.99"/>
<polygon fill="black" stroke="black" points="3014.59,-842.99 3018.09,-852.99 3021.59,-842.99 3014.59,-842.99"/>
<text text-anchor="middle" x="2763.73" y="-829.8" font-family="Times,serif" font-size="14.00">IS_OVERLOAD_SWITCH</text>
</g>
<!-- n73 -->
<g id="node54" class="node">
<title>n73</title>
<ellipse fill="none" stroke="black" cx="3017.33" cy="-433" rx="40.89" ry="18"/>
<text text-anchor="middle" x="3017.33" y="-429.3" font-family="Times,serif" font-size="14.00">switch</text>
</g>
<!-- n64&#45;&gt;n73 -->
<g id="edge39" class="edge">
<title>n64&#45;&gt;n73</title>
<path fill="none" stroke="black" d="M2556.02,-776C2608.84,-776 2696.09,-776 2696.09,-776 2696.09,-776 2696.09,-433 2696.09,-433 2696.09,-433 2966.31,-433 2966.31,-433"/>
<polygon fill="black" stroke="black" points="2966.31,-436.5 2976.31,-433 2966.31,-429.5 2966.31,-436.5"/>
<text text-anchor="middle" x="2763.73" y="-535.8" font-family="Times,serif" font-size="14.00">IS_OVERLOAD_SWITCH</text>
</g>
<!-- n63&#45;&gt;n64 -->
<!-- n45 -->
<g id="node31" class="node">
<title>n45</title>
<ellipse fill="none" stroke="black" cx="838.43" cy="-1409" rx="35.19" ry="18"/>
<text text-anchor="middle" x="838.43" y="-1405.3" font-family="Times,serif" font-size="14.00">input</text>
</g>
<!-- n47 -->
<g id="node33" class="node">
<title>n47</title>
<ellipse fill="none" stroke="black" cx="1062.07" cy="-1355" rx="41.69" ry="18"/>
<text text-anchor="middle" x="1062.07" y="-1351.3" font-family="Times,serif" font-size="14.00">output</text>
</g>
<!-- n46&#45;&gt;n47 -->
<!-- n47&#45;&gt;n6 -->
<g id="edge35" class="edge">
<title>n47&#45;&gt;n6</title>
<path fill="none" stroke="black" d="M1062.09,-1373.03C1062.09,-1407.42 1062.09,-1479 1062.09,-1479 1062.09,-1479 2980.06,-1479 2980.06,-1479"/>
<polygon fill="black" stroke="black" points="2980.06,-1482.5 2990.06,-1479 2980.06,-1475.5 2980.06,-1482.5"/>
<text text-anchor="middle" x="2021.44" y="-1474.8" font-family="Times,serif" font-size="14.00">LATENCY_EMA</text>
</g>
<!-- n47&#45;&gt;n22 -->
<g id="edge36" class="edge">
<title>n47&#45;&gt;n22</title>
<path fill="none" stroke="black" d="M1103.85,-1355C1185.45,-1355 1358.09,-1355 1358.09,-1355 1358.09,-1355 1358.09,-1312.28 1358.09,-1312.28"/>
<polygon fill="black" stroke="black" points="1361.59,-1312.28 1358.09,-1302.28 1354.59,-1312.28 1361.59,-1312.28"/>
<text text-anchor="middle" x="1217.16" y="-1322.8" font-family="Times,serif" font-size="14.00">LATENCY_EMA</text>
</g>
<!-- n49 -->
<g id="node35" class="node">
<title>n49</title>
<ellipse fill="none" stroke="black" cx="4018.76" cy="-1196" rx="30.59" ry="18"/>
<text text-anchor="middle" x="4018.76" y="-1192.3" font-family="Times,serif" font-size="14.00">max</text>
</g>
<!-- n53 -->
<g id="node36" class="node">
<title>n53</title>
<ellipse fill="none" stroke="black" cx="4018.76" cy="-1088" rx="50.89" ry="18"/>
<text text-anchor="middle" x="4018.76" y="-1084.3" font-family="Times,serif" font-size="14.00">optimize</text>
</g>
<!-- n54 -->
<g id="node37" class="node">
<title>n54</title>
<ellipse fill="none" stroke="black" cx="4182.49" cy="-1088" rx="41.69" ry="18"/>
<text text-anchor="middle" x="4182.49" y="-1084.3" font-family="Times,serif" font-size="14.00">output</text>
</g>
<!-- n53&#45;&gt;n54 -->
<!-- n54&#45;&gt;n11 -->
<g id="edge44" class="edge">
<title>n54&#45;&gt;n11</title>
<path fill="none" stroke="black" d="M4197.09,-1071.12C4197.09,-970.78 4197.09,-457 4197.09,-457 4197.09,-457 2224.09,-457 2224.09,-457 2224.09,-457 2224.09,-478.95 2224.09,-478.95"/>
<polygon fill="black" stroke="black" points="2220.59,-478.95 2224.09,-488.95 2227.59,-478.95 2220.59,-478.95"/>
<text text-anchor="middle" x="3235.92" y="-741.8" font-family="Times,serif" font-size="14.00">DESIRED_CONCURRENCY</text>
</g>
<!-- n51 -->
<g id="node39" class="node">
<title>n51</title>
<ellipse fill="none" stroke="black" cx="4018.76" cy="-1304" rx="38.19" ry="18"/>
<text text-anchor="middle" x="4018.76" y="-1300.3" font-family="Times,serif" font-size="14.00">signal</text>
</g>
<!-- n38 -->
<g id="node41" class="node">
<title>n38</title>
<ellipse fill="none" stroke="black" cx="3448.02" cy="-1258" rx="41.69" ry="18"/>
<text text-anchor="middle" x="3448.02" y="-1254.3" font-family="Times,serif" font-size="14.00">output</text>
</g>
<!-- n37&#45;&gt;n38 -->
<!-- n38&#45;&gt;n49 -->
<g id="edge43" class="edge">
<title>n38&#45;&gt;n49</title>
<path fill="none" stroke="black" d="M3448.09,-1239.97C3448.09,-1221.2 3448.09,-1194.5 3448.09,-1194.5 3448.09,-1194.5 3978.07,-1194.5 3978.07,-1194.5"/>
<polygon fill="black" stroke="black" points="3978.07,-1198 3988.07,-1194.5 3978.07,-1191 3978.07,-1198"/>
<text text-anchor="middle" x="3711.61" y="-1234.8" font-family="Times,serif" font-size="14.00">MAX_CONCURRENCY</text>
</g>
<!-- n35 -->
<g id="node43" class="node">
<title>n35</title>
<ellipse fill="none" stroke="black" cx="2516.63" cy="-979" rx="41.69" ry="18"/>
<text text-anchor="middle" x="2516.63" y="-975.3" font-family="Times,serif" font-size="14.00">output</text>
</g>
<!-- n34&#45;&gt;n35 -->
<!-- n67 -->
<g id="node47" class="node">
<title>n67</title>
<ellipse fill="none" stroke="black" cx="3017.33" cy="-979" rx="48.19" ry="18"/>
<text text-anchor="middle" x="3017.33" y="-975.3" font-family="Times,serif" font-size="14.00">on_false</text>
</g>
<!-- n35&#45;&gt;n67 -->
<g id="edge29" class="edge">
<title>n35&#45;&gt;n67</title>
<path fill="none" stroke="black" d="M2555.92,-985C2555.92,-985 2961.8,-985 2961.8,-985"/>
<polygon fill="black" stroke="black" points="2961.8,-988.5 2971.8,-985 2961.8,-981.5 2961.8,-988.5"/>
<text text-anchor="middle" x="2763.73" y="-982.8" font-family="Times,serif" font-size="14.00">CONCURRENCY_INCREMENT_NORMAL</text>
</g>
<!-- n72 -->
<g id="node51" class="node">
<title>n72</title>
<ellipse fill="none" stroke="black" cx="3017.33" cy="-541" rx="48.19" ry="18"/>
<text text-anchor="middle" x="3017.33" y="-537.3" font-family="Times,serif" font-size="14.00">on_false</text>
</g>
<!-- n35&#45;&gt;n72 -->
<g id="edge30" class="edge">
<title>n35&#45;&gt;n72</title>
<path fill="none" stroke="black" d="M2556.07,-973C2640.91,-973 2833.09,-973 2833.09,-973 2833.09,-973 2833.09,-551 2833.09,-551 2833.09,-551 2966.89,-551 2966.89,-551"/>
<polygon fill="black" stroke="black" points="2966.89,-554.5 2976.89,-551 2966.89,-547.5 2966.89,-554.5"/>
<text text-anchor="middle" x="2763.73" y="-906.8" font-family="Times,serif" font-size="14.00">CONCURRENCY_INCREMENT_NORMAL</text>
</g>
<!-- n43 -->
<g id="node44" class="node">
<title>n43</title>
<ellipse fill="none" stroke="black" cx="99.6" cy="-1363" rx="41.69" ry="18"/>
<text text-anchor="middle" x="99.6" y="-1359.3" font-family="Times,serif" font-size="14.00">output</text>
</g>
<!-- n43&#45;&gt;n2 -->
<g id="edge31" class="edge">
<title>n43&#45;&gt;n2</title>
<path fill="none" stroke="black" d="M140.36,-1359C212.5,-1359 355.09,-1359 355.09,-1359 355.09,-1359 355.09,-1311.01 355.09,-1311.01"/>
<polygon fill="black" stroke="black" points="358.59,-1311.01 355.09,-1301.01 351.59,-1311.01 358.59,-1311.01"/>
<text text-anchor="middle" x="234.19" y="-1326.8" font-family="Times,serif" font-size="14.00">LATENCY</text>
</g>
<!-- n43&#45;&gt;n62 -->
<g id="edge34" class="edge">
<title>n43&#45;&gt;n62</title>
<path fill="none" stroke="black" d="M100.09,-1344.68C100.09,-1240.57 100.09,-728 100.09,-728 100.09,-728 2186.5,-728 2186.5,-728"/>
<polygon fill="black" stroke="black" points="2186.5,-731.5 2196.5,-728 2186.5,-724.5 2186.5,-731.5"/>
<text text-anchor="middle" x="967.47" y="-895.8" font-family="Times,serif" font-size="14.00">LATENCY</text>
</g>
<!-- n43&#45;&gt;n45 -->
<g id="edge32" class="edge">
<title>n43&#45;&gt;n45</title>
<path fill="none" stroke="black" d="M121.73,-1378.33C244.77,-1378.33 839.09,-1378.33 839.09,-1378.33 839.09,-1378.33 839.09,-1380.81 839.09,-1380.81"/>
<polygon fill="black" stroke="black" points="835.59,-1380.81 839.09,-1390.81 842.59,-1380.81 835.59,-1380.81"/>
<text text-anchor="middle" x="434.19" y="-1445.8" font-family="Times,serif" font-size="14.00">LATENCY</text>
</g>
<!-- n43&#45;&gt;n51 -->
<g id="edge33" class="edge">
<title>n43&#45;&gt;n51</title>
<path fill="none" stroke="black" d="M129.17,-1375.67C489.38,-1375.67 4019.09,-1375.67 4019.09,-1375.67 4019.09,-1375.67 4019.09,-1332.08 4019.09,-1332.08"/>
<polygon fill="black" stroke="black" points="4022.59,-1332.08 4019.09,-1322.08 4015.59,-1332.08 4022.59,-1332.08"/>
<text text-anchor="middle" x="1437.66" y="-1633.8" font-family="Times,serif" font-size="14.00">LATENCY</text>
</g>
<!-- n41 -->
<g id="node46" class="node">
<title>n41</title>
<ellipse fill="none" stroke="black" cx="2516.63" cy="-76" rx="41.69" ry="18"/>
<text text-anchor="middle" x="2516.63" y="-72.3" font-family="Times,serif" font-size="14.00">output</text>
</g>
<!-- n40&#45;&gt;n41 -->
<!-- n41&#45;&gt;n26 -->
<g id="edge28" class="edge">
<title>n41&#45;&gt;n26</title>
<path fill="none" stroke="black" d="M2558.52,-76C2679.05,-76 3018.09,-76 3018.09,-76 3018.09,-76 3018.09,-115.78 3018.09,-115.78"/>
<polygon fill="black" stroke="black" points="3014.59,-115.78 3018.09,-125.78 3021.59,-115.78 3014.59,-115.78"/>
<text text-anchor="middle" x="2763.73" y="-113.8" font-family="Times,serif" font-size="14.00">SQRT_CONCURRENCY_INCREMENT</text>
</g>
<!-- n66 -->
<g id="node48" class="node">
<title>n66</title>
<ellipse fill="none" stroke="black" cx="3017.33" cy="-925" rx="46.29" ry="18"/>
<text text-anchor="middle" x="3017.33" y="-921.3" font-family="Times,serif" font-size="14.00">on_true</text>
</g>
<!-- n69 -->
<g id="node49" class="node">
<title>n69</title>
<ellipse fill="none" stroke="black" cx="3448.02" cy="-925" rx="41.69" ry="18"/>
<text text-anchor="middle" x="3448.02" y="-921.3" font-family="Times,serif" font-size="14.00">output</text>
</g>
<!-- n69&#45;&gt;n53 -->
<g id="edge23" class="edge">
<title>n69&#45;&gt;n53</title>
<path fill="none" stroke="black" d="M3489.77,-925C3615.2,-925 3980.09,-925 3980.09,-925 3980.09,-925 3980.09,-1066.28 3980.09,-1066.28"/>
<polygon fill="black" stroke="black" points="3976.59,-1066.28 3980.09,-1076.28 3983.59,-1066.28 3976.59,-1066.28"/>
<text text-anchor="middle" x="3711.61" y="-1010.8" font-family="Times,serif" font-size="14.00">CONCURRENCY_INCREMENT</text>
</g>
<!-- n68&#45;&gt;n69 -->
<!-- n71 -->
<g id="node52" class="node">
<title>n71</title>
<ellipse fill="none" stroke="black" cx="3017.33" cy="-487" rx="46.29" ry="18"/>
<text text-anchor="middle" x="3017.33" y="-483.3" font-family="Times,serif" font-size="14.00">on_true</text>
</g>
<!-- n74 -->
<g id="node53" class="node">
<title>n74</title>
<ellipse fill="none" stroke="black" cx="3448.02" cy="-433" rx="41.69" ry="18"/>
<text text-anchor="middle" x="3448.02" y="-429.3" font-family="Times,serif" font-size="14.00">output</text>
</g>
<!-- n74&#45;&gt;n31 -->
<g id="edge37" class="edge">
<title>n74&#45;&gt;n31</title>
<path fill="none" stroke="black" d="M3489.99,-433C3489.99,-433 3981.57,-433 3981.57,-433"/>
<polygon fill="black" stroke="black" points="3981.57,-436.5 3991.57,-433 3981.57,-429.5 3981.57,-436.5"/>
<text text-anchor="middle" x="3711.61" y="-436.8" font-family="Times,serif" font-size="14.00">CONCURRENCY_INCREMENT_FEEDBACK</text>
</g>
<!-- n73&#45;&gt;n74 -->
</g>
</svg>
