<?xml version="1.0" encoding="UTF-8" standalone="no"?>
<!DOCTYPE svg PUBLIC "-//W3C//DTD SVG 1.1//EN"
 "http://www.w3.org/Graphics/SVG/1.1/DTD/svg11.dtd">
<!-- Generated by graphviz version 6.0.1 (20220911.1526)
 -->
<!-- Pages: 1 -->
<svg width="4631pt" height="2447pt"
 viewBox="0.00 0.00 4631.09 2447.00" xmlns="http://www.w3.org/2000/svg" xmlns:xlink="http://www.w3.org/1999/xlink">
<g id="graph0" class="graph" transform="scale(1 1) rotate(0) translate(4 2443)">
<polygon fill="white" stroke="none" points="-4,4 -4,-2443 4627.09,-2443 4627.09,4 -4,4"/>
<g id="clust1" class="cluster">
<title>cluster_s27</title>
<polygon fill="none" stroke="black" points="2363.74,-2051 2363.74,-2264 2865.23,-2264 2865.23,-2051 2363.74,-2051"/>
<text text-anchor="middle" x="2614.49" y="-2248.8" font-family="Times,serif" font-size="14.00">ArithmeticCombinator (10)</text>
</g>
<g id="clust4" class="cluster">
<title>cluster_s31</title>
<polygon fill="none" stroke="black" points="2363.74,-1454 2363.74,-1667 2865.23,-1667 2865.23,-1454 2363.74,-1454"/>
<text text-anchor="middle" x="2614.49" y="-1651.8" font-family="Times,serif" font-size="14.00">ArithmeticCombinator (11)</text>
</g>
<g id="clust7" class="cluster">
<title>cluster_s35</title>
<polygon fill="none" stroke="black" points="1435.66,-906 1435.66,-1119 1941.65,-1119 1941.65,-906 1435.66,-906"/>
<text text-anchor="middle" x="1688.66" y="-1103.8" font-family="Times,serif" font-size="14.00">ArithmeticCombinator (12)</text>
</g>
<g id="clust10" class="cluster">
<title>cluster_s39</title>
<polygon fill="none" stroke="black" points="3281.33,-621 3281.33,-834 3880.61,-834 3880.61,-621 3281.33,-621"/>
<text text-anchor="middle" x="3580.97" y="-818.8" font-family="Times,serif" font-size="14.00">ArithmeticCombinator (13)</text>
</g>
<g id="clust13" class="cluster">
<title>cluster_s43</title>
<polygon fill="none" stroke="black" points="4282.76,-346 4282.76,-559 4615.09,-559 4615.09,-346 4282.76,-346"/>
<text text-anchor="middle" x="4448.92" y="-543.8" font-family="Times,serif" font-size="14.00">ArithmeticCombinator (14)</text>
</g>
<g id="clust16" class="cluster">
<title>cluster_s15</title>
<polygon fill="none" stroke="black" points="392.19,-800 392.19,-1013 735.39,-1013 735.39,-800 392.19,-800"/>
<text text-anchor="middle" x="563.79" y="-997.8" font-family="Times,serif" font-size="14.00">ArithmeticCombinator (7)</text>
</g>
<g id="clust19" class="cluster">
<title>cluster_s19</title>
<polygon fill="none" stroke="black" points="1435.66,-685 1435.66,-898 1941.65,-898 1941.65,-685 1435.66,-685"/>
<text text-anchor="middle" x="1688.66" y="-882.8" font-family="Times,serif" font-size="14.00">ArithmeticCombinator (8)</text>
</g>
<g id="clust22" class="cluster">
<title>cluster_s23</title>
<polygon fill="none" stroke="black" points="2363.74,-1787 2363.74,-2000 2865.23,-2000 2865.23,-1787 2363.74,-1787"/>
<text text-anchor="middle" x="2614.49" y="-1984.8" font-family="Times,serif" font-size="14.00">ArithmeticCombinator (9)</text>
</g>
<g id="clust25" class="cluster">
<title>cluster_s69</title>
<polygon fill="none" stroke="black" points="1635.66,-1700 1635.66,-2245 2064.44,-2245 2064.44,-1700 1635.66,-1700"/>
<text text-anchor="middle" x="1850.05" y="-2229.8" font-family="Times,serif" font-size="14.00">ConcurrencyLimiter (21)</text>
</g>
<g id="clust26" class="cluster">
<title>cluster_s73</title>
<polygon fill="none" stroke="black" points="1691.66,-2013 1691.66,-2172 2009.45,-2172 2009.45,-2013 1691.66,-2013"/>
<text text-anchor="middle" x="1850.55" y="-2156.8" font-family="Times,serif" font-size="14.00">LoadShedActuator (21.LoadShedActuator)</text>
</g>
<g id="clust28" class="cluster">
<title>cluster_s70</title>
<polygon fill="none" stroke="black" points="1685.66,-1750 1685.66,-1963 2014.44,-1963 2014.44,-1750 1685.66,-1750"/>
<text text-anchor="middle" x="1850.05" y="-1947.8" font-family="Times,serif" font-size="14.00">Scheduler (21.Scheduler)</text>
</g>
<g id="clust30" class="cluster">
<title>cluster_s1</title>
<polygon fill="none" stroke="black" points="8,-527 8,-686 191.19,-686 191.19,-527 8,-527"/>
<text text-anchor="middle" x="99.6" y="-670.8" font-family="Times,serif" font-size="14.00">Constant (0)</text>
</g>
<g id="clust32" class="cluster">
<title>cluster_s3</title>
<polygon fill="none" stroke="black" points="1758.46,-1454 1758.46,-1613 1941.65,-1613 1941.65,-1454 1758.46,-1454"/>
<text text-anchor="middle" x="1850.05" y="-1597.8" font-family="Times,serif" font-size="14.00">Constant (1)</text>
</g>
<g id="clust34" class="cluster">
<title>cluster_s5</title>
<polygon fill="none" stroke="black" points="8,-1719 8,-1878 191.19,-1878 191.19,-1719 8,-1719"/>
<text text-anchor="middle" x="99.6" y="-1862.8" font-family="Times,serif" font-size="14.00">Constant (2)</text>
</g>
<g id="clust36" class="cluster">
<title>cluster_s7</title>
<polygon fill="none" stroke="black" points="2682.04,-508 2682.04,-667 2865.23,-667 2865.23,-508 2682.04,-508"/>
<text text-anchor="middle" x="2773.63" y="-651.8" font-family="Times,serif" font-size="14.00">Constant (3)</text>
</g>
<g id="clust38" class="cluster">
<title>cluster_s9</title>
<polygon fill="none" stroke="black" points="2682.04,-1175 2682.04,-1334 2865.23,-1334 2865.23,-1175 2682.04,-1175"/>
<text text-anchor="middle" x="2773.63" y="-1318.8" font-family="Times,serif" font-size="14.00">Constant (4)</text>
</g>
<g id="clust40" class="cluster">
<title>cluster_s11</title>
<polygon fill="none" stroke="black" points="1125.47,-717 1125.47,-876 1308.66,-876 1308.66,-717 1125.47,-717"/>
<text text-anchor="middle" x="1217.07" y="-860.8" font-family="Times,serif" font-size="14.00">Constant (5)</text>
</g>
<g id="clust42" class="cluster">
<title>cluster_s13</title>
<polygon fill="none" stroke="black" points="2682.04,-341 2682.04,-500 2865.23,-500 2865.23,-341 2682.04,-341"/>
<text text-anchor="middle" x="2773.63" y="-484.8" font-family="Times,serif" font-size="14.00">Constant (6)</text>
</g>
<g id="clust44" class="cluster">
<title>cluster_s75</title>
<polygon fill="none" stroke="black" points="2363.74,-954 2363.74,-1167 2865.23,-1167 2865.23,-954 2363.74,-954"/>
<text text-anchor="middle" x="2614.49" y="-1151.8" font-family="Times,serif" font-size="14.00">Decider (22)</text>
</g>
<g id="clust47" class="cluster">
<title>cluster_s84</title>
<polygon fill="none" stroke="black" points="2363.74,-8 2363.74,-221 2865.23,-221 2865.23,-8 2363.74,-8"/>
<text text-anchor="middle" x="2614.49" y="-205.8" font-family="Times,serif" font-size="14.00">Decider (24)</text>
</g>
<g id="clust50" class="cluster">
<title>cluster_s58</title>
<polygon fill="none" stroke="black" points="827.39,-896 827.39,-1109 1308.66,-1109 1308.66,-896 827.39,-896"/>
<text text-anchor="middle" x="1068.02" y="-1093.8" font-family="Times,serif" font-size="14.00">EMA (19)</text>
</g>
<g id="clust53" class="cluster">
<title>cluster_s62</title>
<polygon fill="none" stroke="black" points="4224.61,-1250 4224.61,-1625 4615.09,-1625 4615.09,-1250 4224.61,-1250"/>
<text text-anchor="middle" x="4419.85" y="-1609.8" font-family="Times,serif" font-size="14.00">Gradient (20)</text>
</g>
<g id="clust56" class="cluster">
<title>cluster_s50</title>
<polygon fill="none" stroke="black" points="3268.03,-1467 3268.03,-1626 3880.61,-1626 3880.61,-1467 3268.03,-1467"/>
<text text-anchor="middle" x="3574.32" y="-1610.8" font-family="Times,serif" font-size="14.00">Max (16)</text>
</g>
<g id="clust59" class="cluster">
<title>cluster_s47</title>
<polygon fill="none" stroke="black" points="2350.44,-675 2350.44,-834 2865.23,-834 2865.23,-675 2350.44,-675"/>
<text text-anchor="middle" x="2607.84" y="-818.8" font-family="Times,serif" font-size="14.00">Min (15)</text>
</g>
<g id="clust62" class="cluster">
<title>cluster_s56</title>
<polygon fill="none" stroke="black" points="8,-1013 8,-1172 191.19,-1172 191.19,-1013 8,-1013"/>
<text text-anchor="middle" x="99.6" y="-1156.8" font-family="Times,serif" font-size="14.00">PromQL (18)</text>
</g>
<g id="clust64" class="cluster">
<title>cluster_s53</title>
<polygon fill="none" stroke="black" points="2355.64,-2272 2355.64,-2431 2865.23,-2431 2865.23,-2272 2355.64,-2272"/>
<text text-anchor="middle" x="2610.44" y="-2415.8" font-family="Times,serif" font-size="14.00">Sqrt (17)</text>
</g>
<g id="clust67" class="cluster">
<title>cluster_s79</title>
<polygon fill="none" stroke="black" points="3260.23,-1010 3260.23,-1277 3880.61,-1277 3880.61,-1010 3260.23,-1010"/>
<text text-anchor="middle" x="3570.42" y="-1261.8" font-family="Times,serif" font-size="14.00">Switcher (23)</text>
</g>
<g id="clust70" class="cluster">
<title>cluster_s88</title>
<polygon fill="none" stroke="black" points="3260.23,-346 3260.23,-613 3880.61,-613 3880.61,-346 3260.23,-346"/>
<text text-anchor="middle" x="3570.42" y="-597.8" font-family="Times,serif" font-size="14.00">Switcher (25)</text>
</g>
<!-- n28 -->
<g id="node1" class="node">
<title>n28</title>
<ellipse fill="none" stroke="black" cx="2440.74" cy="-2119" rx="27" ry="18"/>
<text text-anchor="middle" x="2440.74" y="-2115.3" font-family="Times,serif" font-size="14.00">lhs</text>
</g>
<!-- n30 -->
<g id="node2" class="node">
<title>n30</title>
<ellipse fill="none" stroke="black" cx="2773.63" cy="-2135" rx="41.69" ry="18"/>
<text text-anchor="middle" x="2773.63" y="-2131.3" font-family="Times,serif" font-size="14.00">output</text>
</g>
<!-- n74 -->
<g id="node25" class="node">
<title>n74</title>
<ellipse fill="none" stroke="black" cx="1850.05" cy="-2081" rx="88.28" ry="18"/>
<text text-anchor="middle" x="1850.05" y="-2077.3" font-family="Times,serif" font-size="14.00">load_shed_factor</text>
</g>
<!-- n30&#45;&gt;n74 -->
<g id="edge37" class="edge">
<title>n30&#45;&gt;n74</title>
<path fill="none" stroke="black" d="M2760.09,-2117.91C2760.09,-2102.09 2760.09,-2081 2760.09,-2081 2760.09,-2081 1948.55,-2081 1948.55,-2081"/>
<polygon fill="black" stroke="black" points="1948.55,-2077.5 1938.55,-2081 1948.55,-2084.5 1948.55,-2077.5"/>
<text text-anchor="middle" x="2440.74" y="-2071.8" font-family="Times,serif" font-size="14.00">LSF</text>
</g>
<!-- n29 -->
<g id="node3" class="node">
<title>n29</title>
<ellipse fill="none" stroke="black" cx="2440.74" cy="-2173" rx="27" ry="18"/>
<text text-anchor="middle" x="2440.74" y="-2169.3" font-family="Times,serif" font-size="14.00">rhs</text>
</g>
<!-- n29&#45;&gt;n30 -->
<!-- n32 -->
<g id="node4" class="node">
<title>n32</title>
<ellipse fill="none" stroke="black" cx="2440.74" cy="-1522" rx="27" ry="18"/>
<text text-anchor="middle" x="2440.74" y="-1518.3" font-family="Times,serif" font-size="14.00">lhs</text>
</g>
<!-- n34 -->
<g id="node5" class="node">
<title>n34</title>
<ellipse fill="none" stroke="black" cx="2773.63" cy="-1565" rx="41.69" ry="18"/>
<text text-anchor="middle" x="2773.63" y="-1561.3" font-family="Times,serif" font-size="14.00">output</text>
</g>
<!-- n51 -->
<g id="node50" class="node">
<title>n51</title>
<ellipse fill="none" stroke="black" cx="3358.33" cy="-1535" rx="40.09" ry="18"/>
<text text-anchor="middle" x="3358.33" y="-1531.3" font-family="Times,serif" font-size="14.00">inputs</text>
</g>
<!-- n34&#45;&gt;n51 -->
<g id="edge54" class="edge">
<title>n34&#45;&gt;n51</title>
<path fill="none" stroke="black" d="M2774.09,-1546.86C2774.09,-1544.84 2774.09,-1543.5 2774.09,-1543.5 2774.09,-1543.5 3312.66,-1543.5 3312.66,-1543.5"/>
<polygon fill="black" stroke="black" points="3312.66,-1547 3322.66,-1543.5 3312.66,-1540 3312.66,-1547"/>
<text text-anchor="middle" x="3062.73" y="-1541.8" font-family="Times,serif" font-size="14.00">UPPER_CONCURRENCY_LIMIT</text>
</g>
<!-- n33 -->
<g id="node6" class="node">
<title>n33</title>
<ellipse fill="none" stroke="black" cx="2440.74" cy="-1576" rx="27" ry="18"/>
<text text-anchor="middle" x="2440.74" y="-1572.3" font-family="Times,serif" font-size="14.00">rhs</text>
</g>
<!-- n33&#45;&gt;n34 -->
<!-- n36 -->
<g id="node7" class="node">
<title>n36</title>
<ellipse fill="none" stroke="black" cx="1512.66" cy="-1028" rx="27" ry="18"/>
<text text-anchor="middle" x="1512.66" y="-1024.3" font-family="Times,serif" font-size="14.00">lhs</text>
</g>
<!-- n38 -->
<g id="node8" class="node">
<title>n38</title>
<ellipse fill="none" stroke="black" cx="1850.05" cy="-974" rx="41.69" ry="18"/>
<text text-anchor="middle" x="1850.05" y="-970.3" font-family="Times,serif" font-size="14.00">output</text>
</g>
<!-- n77 -->
<g id="node37" class="node">
<title>n77</title>
<ellipse fill="none" stroke="black" cx="2440.74" cy="-1022" rx="27" ry="18"/>
<text text-anchor="middle" x="2440.74" y="-1018.3" font-family="Times,serif" font-size="14.00">rhs</text>
</g>
<!-- n38&#45;&gt;n77 -->
<g id="edge47" class="edge">
<title>n38&#45;&gt;n77</title>
<path fill="none" stroke="black" d="M1889.29,-980C2021.3,-980 2441.09,-980 2441.09,-980 2441.09,-980 2441.09,-993.94 2441.09,-993.94"/>
<polygon fill="black" stroke="black" points="2437.59,-993.94 2441.09,-1003.94 2444.59,-993.94 2437.59,-993.94"/>
<text text-anchor="middle" x="2207.44" y="-1010.8" font-family="Times,serif" font-size="14.00">LATENCY_OVERLOAD</text>
</g>
<!-- n86 -->
<g id="node40" class="node">
<title>n86</title>
<ellipse fill="none" stroke="black" cx="2440.74" cy="-130" rx="27" ry="18"/>
<text text-anchor="middle" x="2440.74" y="-126.3" font-family="Times,serif" font-size="14.00">rhs</text>
</g>
<!-- n38&#45;&gt;n86 -->
<g id="edge48" class="edge">
<title>n38&#45;&gt;n86</title>
<path fill="none" stroke="black" d="M1889.53,-968C1908.89,-968 1928.09,-968 1928.09,-968 1928.09,-968 1928.09,-130 1928.09,-130 1928.09,-130 2403.54,-130 2403.54,-130"/>
<polygon fill="black" stroke="black" points="2403.54,-133.5 2413.54,-130 2403.54,-126.5 2403.54,-133.5"/>
<text text-anchor="middle" x="2207.44" y="-944.8" font-family="Times,serif" font-size="14.00">LATENCY_OVERLOAD</text>
</g>
<!-- n37 -->
<g id="node9" class="node">
<title>n37</title>
<ellipse fill="none" stroke="black" cx="1512.66" cy="-974" rx="27" ry="18"/>
<text text-anchor="middle" x="1512.66" y="-970.3" font-family="Times,serif" font-size="14.00">rhs</text>
</g>
<!-- n37&#45;&gt;n38 -->
<!-- n40 -->
<g id="node10" class="node">
<title>n40</title>
<ellipse fill="none" stroke="black" cx="3358.33" cy="-689" rx="27" ry="18"/>
<text text-anchor="middle" x="3358.33" y="-685.3" font-family="Times,serif" font-size="14.00">lhs</text>
</g>
<!-- n42 -->
<g id="node11" class="node">
<title>n42</title>
<ellipse fill="none" stroke="black" cx="3789.02" cy="-716" rx="41.69" ry="18"/>
<text text-anchor="middle" x="3789.02" y="-712.3" font-family="Times,serif" font-size="14.00">output</text>
</g>
<!-- n45 -->
<g id="node13" class="node">
<title>n45</title>
<ellipse fill="none" stroke="black" cx="4359.76" cy="-468" rx="27" ry="18"/>
<text text-anchor="middle" x="4359.76" y="-464.3" font-family="Times,serif" font-size="14.00">lhs</text>
</g>
<!-- n42&#45;&gt;n45 -->
<g id="edge38" class="edge">
<title>n42&#45;&gt;n45</title>
<path fill="none" stroke="black" d="M3831.01,-716C3962.89,-716 4360.09,-716 4360.09,-716 4360.09,-716 4360.09,-496.24 4360.09,-496.24"/>
<polygon fill="black" stroke="black" points="4363.59,-496.24 4360.09,-486.24 4356.59,-496.24 4363.59,-496.24"/>
<text text-anchor="middle" x="4052.61" y="-595.8" font-family="Times,serif" font-size="14.00">CONCURRENCY_INCREMENT_SINGLE_TICK</text>
</g>
<!-- n41 -->
<g id="node12" class="node">
<title>n41</title>
<ellipse fill="none" stroke="black" cx="3358.33" cy="-743" rx="27" ry="18"/>
<text text-anchor="middle" x="3358.33" y="-739.3" font-family="Times,serif" font-size="14.00">rhs</text>
</g>
<!-- n41&#45;&gt;n42 -->
<!-- n46 -->
<g id="node14" class="node">
<title>n46</title>
<ellipse fill="none" stroke="black" cx="4523.49" cy="-441" rx="41.69" ry="18"/>
<text text-anchor="middle" x="4523.49" y="-437.3" font-family="Times,serif" font-size="14.00">output</text>
</g>
<!-- n45&#45;&gt;n46 -->
<!-- n48 -->
<g id="node52" class="node">
<title>n48</title>
<ellipse fill="none" stroke="black" cx="2440.74" cy="-743" rx="40.09" ry="18"/>
<text text-anchor="middle" x="2440.74" y="-739.3" font-family="Times,serif" font-size="14.00">inputs</text>
</g>
<!-- n46&#45;&gt;n48 -->
<g id="edge42" class="edge">
<title>n46&#45;&gt;n48</title>
<path fill="none" stroke="black" d="M4481.65,-441C4190.21,-441 2475.09,-441 2475.09,-441 2475.09,-441 2475.09,-723.29 2475.09,-723.29"/>
<polygon fill="black" stroke="black" points="2471.59,-723.29 2475.09,-733.29 2478.59,-723.29 2471.59,-723.29"/>
<text text-anchor="middle" x="3576.92" y="-284.8" font-family="Times,serif" font-size="14.00">CONCURRENCY_INCREMENT_INTEGRAL</text>
</g>
<!-- n44 -->
<g id="node15" class="node">
<title>n44</title>
<ellipse fill="none" stroke="black" cx="4359.76" cy="-414" rx="27" ry="18"/>
<text text-anchor="middle" x="4359.76" y="-410.3" font-family="Times,serif" font-size="14.00">rhs</text>
</g>
<!-- n16 -->
<g id="node16" class="node">
<title>n16</title>
<ellipse fill="none" stroke="black" cx="469.19" cy="-922" rx="27" ry="18"/>
<text text-anchor="middle" x="469.19" y="-918.3" font-family="Times,serif" font-size="14.00">lhs</text>
</g>
<!-- n18 -->
<g id="node17" class="node">
<title>n18</title>
<ellipse fill="none" stroke="black" cx="643.79" cy="-908" rx="41.69" ry="18"/>
<text text-anchor="middle" x="643.79" y="-904.3" font-family="Times,serif" font-size="14.00">output</text>
</g>
<!-- n60 -->
<g id="node42" class="node">
<title>n60</title>
<ellipse fill="none" stroke="black" cx="953.43" cy="-964" rx="76.09" ry="18"/>
<text text-anchor="middle" x="953.43" y="-960.3" font-family="Times,serif" font-size="14.00">max_envelope</text>
</g>
<!-- n18&#45;&gt;n60 -->
<g id="edge51" class="edge">
<title>n18&#45;&gt;n60</title>
<path fill="none" stroke="black" d="M644.09,-926.03C644.09,-942.4 644.09,-964 644.09,-964 644.09,-964 867.36,-964 867.36,-964"/>
<polygon fill="black" stroke="black" points="867.36,-967.5 877.36,-964 867.36,-960.5 867.36,-967.5"/>
<text text-anchor="middle" x="781.39" y="-932.8" font-family="Times,serif" font-size="14.00">MAX_EMA</text>
</g>
<!-- n17 -->
<g id="node18" class="node">
<title>n17</title>
<ellipse fill="none" stroke="black" cx="469.19" cy="-868" rx="27" ry="18"/>
<text text-anchor="middle" x="469.19" y="-864.3" font-family="Times,serif" font-size="14.00">rhs</text>
</g>
<!-- n17&#45;&gt;n18 -->
<!-- n20 -->
<g id="node19" class="node">
<title>n20</title>
<ellipse fill="none" stroke="black" cx="1512.66" cy="-807" rx="27" ry="18"/>
<text text-anchor="middle" x="1512.66" y="-803.3" font-family="Times,serif" font-size="14.00">lhs</text>
</g>
<!-- n22 -->
<g id="node20" class="node">
<title>n22</title>
<ellipse fill="none" stroke="black" cx="1850.05" cy="-780" rx="41.69" ry="18"/>
<text text-anchor="middle" x="1850.05" y="-776.3" font-family="Times,serif" font-size="14.00">output</text>
</g>
<!-- n64 -->
<g id="node48" class="node">
<title>n64</title>
<ellipse fill="none" stroke="black" cx="4359.76" cy="-1318" rx="48.99" ry="18"/>
<text text-anchor="middle" x="4359.76" y="-1314.3" font-family="Times,serif" font-size="14.00">setpoint</text>
</g>
<!-- n22&#45;&gt;n64 -->
<g id="edge46" class="edge">
<title>n22&#45;&gt;n64</title>
<path fill="none" stroke="black" d="M1891.67,-780C2215.65,-780 4322.09,-780 4322.09,-780 4322.09,-780 4322.09,-1296.51 4322.09,-1296.51"/>
<polygon fill="black" stroke="black" points="4318.59,-1296.51 4322.09,-1306.51 4325.59,-1296.51 4318.59,-1296.51"/>
<text text-anchor="middle" x="3062.73" y="-897.8" font-family="Times,serif" font-size="14.00">LATENCY_SETPOINT</text>
</g>
<!-- n21 -->
<g id="node21" class="node">
<title>n21</title>
<ellipse fill="none" stroke="black" cx="1512.66" cy="-753" rx="27" ry="18"/>
<text text-anchor="middle" x="1512.66" y="-749.3" font-family="Times,serif" font-size="14.00">rhs</text>
</g>
<!-- n21&#45;&gt;n22 -->
<!-- n24 -->
<g id="node22" class="node">
<title>n24</title>
<ellipse fill="none" stroke="black" cx="2440.74" cy="-1909" rx="27" ry="18"/>
<text text-anchor="middle" x="2440.74" y="-1905.3" font-family="Times,serif" font-size="14.00">lhs</text>
</g>
<!-- n26 -->
<g id="node23" class="node">
<title>n26</title>
<ellipse fill="none" stroke="black" cx="2773.63" cy="-1895" rx="41.69" ry="18"/>
<text text-anchor="middle" x="2773.63" y="-1891.3" font-family="Times,serif" font-size="14.00">output</text>
</g>
<!-- n26&#45;&gt;n28 -->
<g id="edge53" class="edge">
<title>n26&#45;&gt;n28</title>
<path fill="none" stroke="black" d="M2788.09,-1912.15C2788.09,-1962.93 2788.09,-2109 2788.09,-2109 2788.09,-2109 2473.26,-2109 2473.26,-2109"/>
<polygon fill="black" stroke="black" points="2473.26,-2105.5 2463.26,-2109 2473.26,-2112.5 2473.26,-2105.5"/>
<text text-anchor="middle" x="2586.54" y="-2113.8" font-family="Times,serif" font-size="14.00">DELTA_CONCURRENCY</text>
</g>
<!-- n25 -->
<g id="node24" class="node">
<title>n25</title>
<ellipse fill="none" stroke="black" cx="2440.74" cy="-1855" rx="27" ry="18"/>
<text text-anchor="middle" x="2440.74" y="-1851.3" font-family="Times,serif" font-size="14.00">rhs</text>
</g>
<!-- n25&#45;&gt;n26 -->
<!-- n71 -->
<g id="node26" class="node">
<title>n71</title>
<ellipse fill="none" stroke="black" cx="1850.05" cy="-1818" rx="113.98" ry="18"/>
<text text-anchor="middle" x="1850.05" y="-1814.3" font-family="Times,serif" font-size="14.00">accepted_concurrency</text>
</g>
<!-- n71&#45;&gt;n33 -->
<g id="edge18" class="edge">
<title>n71&#45;&gt;n33</title>
<path fill="none" stroke="black" d="M1948.65,-1809C2116.81,-1809 2441.09,-1809 2441.09,-1809 2441.09,-1809 2441.09,-1604.28 2441.09,-1604.28"/>
<polygon fill="black" stroke="black" points="2444.59,-1604.28 2441.09,-1594.28 2437.59,-1604.28 2444.59,-1604.28"/>
<text text-anchor="middle" x="2207.44" y="-1640.8" font-family="Times,serif" font-size="14.00">ACCEPTED_CONCURRENCY</text>
</g>
<!-- n67 -->
<g id="node44" class="node">
<title>n67</title>
<ellipse fill="none" stroke="black" cx="4359.76" cy="-1534" rx="85.29" ry="18"/>
<text text-anchor="middle" x="4359.76" y="-1530.3" font-family="Times,serif" font-size="14.00">control_variable</text>
</g>
<!-- n71&#45;&gt;n67 -->
<g id="edge20" class="edge">
<title>n71&#45;&gt;n67</title>
<path fill="none" stroke="black" d="M1964.02,-1818C2454.4,-1818 4360.09,-1818 4360.09,-1818 4360.09,-1818 4360.09,-1562.2 4360.09,-1562.2"/>
<polygon fill="black" stroke="black" points="4363.59,-1562.2 4360.09,-1552.2 4356.59,-1562.2 4363.59,-1562.2"/>
<text text-anchor="middle" x="3062.73" y="-1730.8" font-family="Times,serif" font-size="14.00">ACCEPTED_CONCURRENCY</text>
</g>
<!-- n54 -->
<g id="node55" class="node">
<title>n54</title>
<ellipse fill="none" stroke="black" cx="2440.74" cy="-2340" rx="35.19" ry="18"/>
<text text-anchor="middle" x="2440.74" y="-2336.3" font-family="Times,serif" font-size="14.00">input</text>
</g>
<!-- n71&#45;&gt;n54 -->
<g id="edge19" class="edge">
<title>n71&#45;&gt;n54</title>
<path fill="none" stroke="black" d="M1948.57,-1827C2109.26,-1827 2410.09,-1827 2410.09,-1827 2410.09,-1827 2410.09,-2321.1 2410.09,-2321.1"/>
<polygon fill="black" stroke="black" points="2406.59,-2321.1 2410.09,-2331.1 2413.59,-2321.1 2406.59,-2321.1"/>
<text text-anchor="middle" x="2207.44" y="-2034.8" font-family="Times,serif" font-size="14.00">ACCEPTED_CONCURRENCY</text>
</g>
<!-- n72 -->
<g id="node27" class="node">
<title>n72</title>
<ellipse fill="none" stroke="black" cx="1850.05" cy="-1872" rx="114.28" ry="18"/>
<text text-anchor="middle" x="1850.05" y="-1868.3" font-family="Times,serif" font-size="14.00">incoming_concurrency</text>
</g>
<!-- n72&#45;&gt;n29 -->
<g id="edge22" class="edge">
<title>n72&#45;&gt;n29</title>
<path fill="none" stroke="black" d="M1948.09,-1881.34C1948.09,-1932.14 1948.09,-2173 1948.09,-2173 1948.09,-2173 2403.55,-2173 2403.55,-2173"/>
<polygon fill="black" stroke="black" points="2403.55,-2176.5 2413.55,-2173 2403.55,-2169.5 2403.55,-2176.5"/>
<text text-anchor="middle" x="2207.44" y="-1970.8" font-family="Times,serif" font-size="14.00">INCOMING_CONCURRENCY</text>
</g>
<!-- n72&#45;&gt;n24 -->
<g id="edge21" class="edge">
<title>n72&#45;&gt;n24</title>
<path fill="none" stroke="black" d="M1956.09,-1878.79C1956.09,-1889.47 1956.09,-1909 1956.09,-1909 1956.09,-1909 2403.65,-1909 2403.65,-1909"/>
<polygon fill="black" stroke="black" points="2403.65,-1912.5 2413.65,-1909 2403.65,-1905.5 2403.65,-1912.5"/>
<text text-anchor="middle" x="2207.44" y="-1881.8" font-family="Times,serif" font-size="14.00">INCOMING_CONCURRENCY</text>
</g>
<!-- n2 -->
<g id="node28" class="node">
<title>n2</title>
<ellipse fill="none" stroke="black" cx="99.6" cy="-595" rx="41.69" ry="18"/>
<text text-anchor="middle" x="99.6" y="-591.3" font-family="Times,serif" font-size="14.00">output</text>
</g>
<!-- n2&#45;&gt;n17 -->
<g id="edge49" class="edge">
<title>n2&#45;&gt;n17</title>
<path fill="none" stroke="black" d="M136.48,-603.5C230.19,-603.5 470.09,-603.5 470.09,-603.5 470.09,-603.5 470.09,-839.82 470.09,-839.82"/>
<polygon fill="black" stroke="black" points="466.59,-839.82 470.09,-849.82 473.59,-839.82 466.59,-839.82"/>
<text text-anchor="middle" x="291.69" y="-598.8" font-family="Times,serif" font-size="14.00">EMA_LIMIT_MULTIPLIER</text>
</g>
<!-- n4 -->
<g id="node29" class="node">
<title>n4</title>
<ellipse fill="none" stroke="black" cx="1850.05" cy="-1522" rx="41.69" ry="18"/>
<text text-anchor="middle" x="1850.05" y="-1518.3" font-family="Times,serif" font-size="14.00">output</text>
</g>
<!-- n4&#45;&gt;n32 -->
<g id="edge35" class="edge">
<title>n4&#45;&gt;n32</title>
<path fill="none" stroke="black" d="M1892.06,-1522C1892.06,-1522 2403.73,-1522 2403.73,-1522"/>
<polygon fill="black" stroke="black" points="2403.73,-1525.5 2413.73,-1522 2403.73,-1518.5 2403.73,-1525.5"/>
<text text-anchor="middle" x="2207.44" y="-1525.8" font-family="Times,serif" font-size="14.00">CONCURRENCY_LIMIT_MULTIPLIER</text>
</g>
<!-- n6 -->
<g id="node30" class="node">
<title>n6</title>
<ellipse fill="none" stroke="black" cx="99.6" cy="-1787" rx="41.69" ry="18"/>
<text text-anchor="middle" x="99.6" y="-1783.3" font-family="Times,serif" font-size="14.00">output</text>
</g>
<!-- n8 -->
<g id="node31" class="node">
<title>n8</title>
<ellipse fill="none" stroke="black" cx="2773.63" cy="-576" rx="41.69" ry="18"/>
<text text-anchor="middle" x="2773.63" y="-572.3" font-family="Times,serif" font-size="14.00">output</text>
</g>
<!-- n8&#45;&gt;n40 -->
<g id="edge52" class="edge">
<title>n8&#45;&gt;n40</title>
<path fill="none" stroke="black" d="M2815.27,-576C2949.02,-576 3359.09,-576 3359.09,-576 3359.09,-576 3359.09,-660.84 3359.09,-660.84"/>
<polygon fill="black" stroke="black" points="3355.59,-660.84 3359.09,-670.84 3362.59,-660.84 3355.59,-660.84"/>
<text text-anchor="middle" x="3062.73" y="-636.8" font-family="Times,serif" font-size="14.00">LINEAR_CONCURRENCY_INCREMENT</text>
</g>
<!-- n10 -->
<g id="node32" class="node">
<title>n10</title>
<ellipse fill="none" stroke="black" cx="2773.63" cy="-1243" rx="41.69" ry="18"/>
<text text-anchor="middle" x="2773.63" y="-1239.3" font-family="Times,serif" font-size="14.00">output</text>
</g>
<!-- n81 -->
<g id="node58" class="node">
<title>n81</title>
<ellipse fill="none" stroke="black" cx="3358.33" cy="-1186" rx="46.29" ry="18"/>
<text text-anchor="middle" x="3358.33" y="-1182.3" font-family="Times,serif" font-size="14.00">on_true</text>
</g>
<!-- n10&#45;&gt;n81 -->
<g id="edge41" class="edge">
<title>n10&#45;&gt;n81</title>
<path fill="none" stroke="black" d="M2788.09,-1225.9C2788.09,-1209.11 2788.09,-1186 2788.09,-1186 2788.09,-1186 3302.14,-1186 3302.14,-1186"/>
<polygon fill="black" stroke="black" points="3302.14,-1189.5 3312.14,-1186 3302.14,-1182.5 3302.14,-1189.5"/>
<text text-anchor="middle" x="3062.73" y="-1217.8" font-family="Times,serif" font-size="14.00">CONCURRENCY_INCREMENT_OVERLOAD</text>
</g>
<!-- n12 -->
<g id="node33" class="node">
<title>n12</title>
<ellipse fill="none" stroke="black" cx="1217.07" cy="-785" rx="41.69" ry="18"/>
<text text-anchor="middle" x="1217.07" y="-781.3" font-family="Times,serif" font-size="14.00">output</text>
</g>
<!-- n12&#45;&gt;n37 -->
<g id="edge30" class="edge">
<title>n12&#45;&gt;n37</title>
<path fill="none" stroke="black" d="M1250.16,-796C1295.96,-796 1373.09,-796 1373.09,-796 1373.09,-796 1373.09,-969 1373.09,-969 1373.09,-969 1476.41,-969 1476.41,-969"/>
<polygon fill="black" stroke="black" points="1476.41,-972.5 1486.41,-969 1476.41,-965.5 1476.41,-972.5"/>
<text text-anchor="middle" x="1372.16" y="-809.8" font-family="Times,serif" font-size="14.00">TOLERANCE</text>
</g>
<!-- n12&#45;&gt;n21 -->
<g id="edge29" class="edge">
<title>n12&#45;&gt;n21</title>
<path fill="none" stroke="black" d="M1257.3,-780C1338.24,-780 1513.09,-780 1513.09,-780 1513.09,-780 1513.09,-779.12 1513.09,-779.12"/>
<polygon fill="black" stroke="black" points="1516.59,-781.16 1513.09,-771.16 1509.59,-781.16 1516.59,-781.16"/>
<text text-anchor="middle" x="1372.16" y="-767.8" font-family="Times,serif" font-size="14.00">TOLERANCE</text>
</g>
<!-- n14 -->
<g id="node34" class="node">
<title>n14</title>
<ellipse fill="none" stroke="black" cx="2773.63" cy="-409" rx="41.69" ry="18"/>
<text text-anchor="middle" x="2773.63" y="-405.3" font-family="Times,serif" font-size="14.00">output</text>
</g>
<!-- n89 -->
<g id="node62" class="node">
<title>n89</title>
<ellipse fill="none" stroke="black" cx="3358.33" cy="-468" rx="46.29" ry="18"/>
<text text-anchor="middle" x="3358.33" y="-464.3" font-family="Times,serif" font-size="14.00">on_true</text>
</g>
<!-- n14&#45;&gt;n89 -->
<g id="edge50" class="edge">
<title>n14&#45;&gt;n89</title>
<path fill="none" stroke="black" d="M2774.09,-427.02C2774.09,-444.37 2774.09,-468 2774.09,-468 2774.09,-468 3301.99,-468 3301.99,-468"/>
<polygon fill="black" stroke="black" points="3301.99,-471.5 3311.99,-468 3301.99,-464.5 3301.99,-471.5"/>
<text text-anchor="middle" x="3062.73" y="-442.8" font-family="Times,serif" font-size="14.00">ZERO</text>
</g>
<!-- n76 -->
<g id="node35" class="node">
<title>n76</title>
<ellipse fill="none" stroke="black" cx="2440.74" cy="-1076" rx="27" ry="18"/>
<text text-anchor="middle" x="2440.74" y="-1072.3" font-family="Times,serif" font-size="14.00">lhs</text>
</g>
<!-- n78 -->
<g id="node36" class="node">
<title>n78</title>
<ellipse fill="none" stroke="black" cx="2773.63" cy="-1049" rx="41.69" ry="18"/>
<text text-anchor="middle" x="2773.63" y="-1045.3" font-family="Times,serif" font-size="14.00">output</text>
</g>
<!-- n80 -->
<g id="node60" class="node">
<title>n80</title>
<ellipse fill="none" stroke="black" cx="3358.33" cy="-1132" rx="40.89" ry="18"/>
<text text-anchor="middle" x="3358.33" y="-1128.3" font-family="Times,serif" font-size="14.00">switch</text>
</g>
<!-- n78&#45;&gt;n80 -->
<g id="edge39" class="edge">
<title>n78&#45;&gt;n80</title>
<path fill="none" stroke="black" d="M2760.09,-1066.2C2760.09,-1090.51 2760.09,-1132 2760.09,-1132 2760.09,-1132 3307.21,-1132 3307.21,-1132"/>
<polygon fill="black" stroke="black" points="3307.21,-1135.5 3317.21,-1132 3307.21,-1128.5 3307.21,-1135.5"/>
<text text-anchor="middle" x="3062.73" y="-1093.8" font-family="Times,serif" font-size="14.00">CONCURRENCY_INCREMENT_SWITCH</text>
</g>
<!-- n77&#45;&gt;n78 -->
<!-- n85 -->
<g id="node38" class="node">
<title>n85</title>
<ellipse fill="none" stroke="black" cx="2440.74" cy="-76" rx="27" ry="18"/>
<text text-anchor="middle" x="2440.74" y="-72.3" font-family="Times,serif" font-size="14.00">lhs</text>
</g>
<!-- n87 -->
<g id="node39" class="node">
<title>n87</title>
<ellipse fill="none" stroke="black" cx="2773.63" cy="-130" rx="41.69" ry="18"/>
<text text-anchor="middle" x="2773.63" y="-126.3" font-family="Times,serif" font-size="14.00">output</text>
</g>
<!-- n91 -->
<g id="node64" class="node">
<title>n91</title>
<ellipse fill="none" stroke="black" cx="3358.33" cy="-414" rx="40.89" ry="18"/>
<text text-anchor="middle" x="3358.33" y="-410.3" font-family="Times,serif" font-size="14.00">switch</text>
</g>
<!-- n87&#45;&gt;n91 -->
<g id="edge36" class="edge">
<title>n87&#45;&gt;n91</title>
<path fill="none" stroke="black" d="M2815.27,-130C2949.02,-130 3359.09,-130 3359.09,-130 3359.09,-130 3359.09,-385.8 3359.09,-385.8"/>
<polygon fill="black" stroke="black" points="3355.59,-385.8 3359.09,-395.8 3362.59,-385.8 3355.59,-385.8"/>
<text text-anchor="middle" x="3062.73" y="-194.8" font-family="Times,serif" font-size="14.00">CONCURRENCY_INCREMENT_FEEDBACK_SWITCH</text>
</g>
<!-- n86&#45;&gt;n87 -->
<!-- n59 -->
<g id="node41" class="node">
<title>n59</title>
<ellipse fill="none" stroke="black" cx="953.43" cy="-1018" rx="35.19" ry="18"/>
<text text-anchor="middle" x="953.43" y="-1014.3" font-family="Times,serif" font-size="14.00">input</text>
</g>
<!-- n61 -->
<g id="node43" class="node">
<title>n61</title>
<ellipse fill="none" stroke="black" cx="1217.07" cy="-964" rx="41.69" ry="18"/>
<text text-anchor="middle" x="1217.07" y="-960.3" font-family="Times,serif" font-size="14.00">output</text>
</g>
<!-- n60&#45;&gt;n61 -->
<!-- n61&#45;&gt;n36 -->
<g id="edge32" class="edge">
<title>n61&#45;&gt;n36</title>
<path fill="none" stroke="black" d="M1217.09,-982.02C1217.09,-999.37 1217.09,-1023 1217.09,-1023 1217.09,-1023 1476.69,-1023 1476.69,-1023"/>
<polygon fill="black" stroke="black" points="1476.69,-1026.5 1486.69,-1023 1476.69,-1019.5 1476.69,-1026.5"/>
<text text-anchor="middle" x="1372.16" y="-999.8" font-family="Times,serif" font-size="14.00">LATENCY_EMA</text>
</g>
<!-- n61&#45;&gt;n20 -->
<g id="edge31" class="edge">
<title>n61&#45;&gt;n20</title>
<path fill="none" stroke="black" d="M1245.99,-951C1320.48,-951 1513.09,-951 1513.09,-951 1513.09,-951 1513.09,-835.24 1513.09,-835.24"/>
<polygon fill="black" stroke="black" points="1516.59,-835.24 1513.09,-825.24 1509.59,-835.24 1516.59,-835.24"/>
<text text-anchor="middle" x="1372.16" y="-914.8" font-family="Times,serif" font-size="14.00">LATENCY_EMA</text>
</g>
<!-- n68 -->
<g id="node47" class="node">
<title>n68</title>
<ellipse fill="none" stroke="black" cx="4523.49" cy="-1534" rx="41.69" ry="18"/>
<text text-anchor="middle" x="4523.49" y="-1530.3" font-family="Times,serif" font-size="14.00">output</text>
</g>
<!-- n67&#45;&gt;n68 -->
<!-- n66 -->
<g id="node45" class="node">
<title>n66</title>
<ellipse fill="none" stroke="black" cx="4359.76" cy="-1480" rx="30.59" ry="18"/>
<text text-anchor="middle" x="4359.76" y="-1476.3" font-family="Times,serif" font-size="14.00">max</text>
</g>
<!-- n65 -->
<g id="node46" class="node">
<title>n65</title>
<ellipse fill="none" stroke="black" cx="4359.76" cy="-1372" rx="50.89" ry="18"/>
<text text-anchor="middle" x="4359.76" y="-1368.3" font-family="Times,serif" font-size="14.00">optimize</text>
</g>
<!-- n68&#45;&gt;n25 -->
<g id="edge33" class="edge">
<title>n68&#45;&gt;n25</title>
<path fill="none" stroke="black" d="M4524.09,-1552.18C4524.09,-1620.08 4524.09,-1855 4524.09,-1855 4524.09,-1855 2477.84,-1855 2477.84,-1855"/>
<polygon fill="black" stroke="black" points="2477.84,-1851.5 2467.84,-1855 2477.84,-1858.5 2477.84,-1851.5"/>
<text text-anchor="middle" x="3576.92" y="-1790.8" font-family="Times,serif" font-size="14.00">DESIRED_CONCURRENCY</text>
</g>
<!-- n63 -->
<g id="node49" class="node">
<title>n63</title>
<ellipse fill="none" stroke="black" cx="4359.76" cy="-1426" rx="38.19" ry="18"/>
<text text-anchor="middle" x="4359.76" y="-1422.3" font-family="Times,serif" font-size="14.00">signal</text>
</g>
<!-- n52 -->
<g id="node51" class="node">
<title>n52</title>
<ellipse fill="none" stroke="black" cx="3789.02" cy="-1535" rx="41.69" ry="18"/>
<text text-anchor="middle" x="3789.02" y="-1531.3" font-family="Times,serif" font-size="14.00">output</text>
</g>
<!-- n51&#45;&gt;n52 -->
<!-- n52&#45;&gt;n66 -->
<g id="edge45" class="edge">
<title>n52&#45;&gt;n66</title>
<path fill="none" stroke="black" d="M3803.09,-1517.9C3803.09,-1501.75 3803.09,-1480 3803.09,-1480 3803.09,-1480 4319.03,-1480 4319.03,-1480"/>
<polygon fill="black" stroke="black" points="4319.03,-1483.5 4329.03,-1480 4319.03,-1476.5 4319.03,-1483.5"/>
<text text-anchor="middle" x="4052.61" y="-1501.8" font-family="Times,serif" font-size="14.00">MAX_CONCURRENCY</text>
</g>
<!-- n49 -->
<g id="node53" class="node">
<title>n49</title>
<ellipse fill="none" stroke="black" cx="2773.63" cy="-743" rx="41.69" ry="18"/>
<text text-anchor="middle" x="2773.63" y="-739.3" font-family="Times,serif" font-size="14.00">output</text>
</g>
<!-- n48&#45;&gt;n49 -->
<!-- n82 -->
<g id="node57" class="node">
<title>n82</title>
<ellipse fill="none" stroke="black" cx="3358.33" cy="-1078" rx="48.19" ry="18"/>
<text text-anchor="middle" x="3358.33" y="-1074.3" font-family="Times,serif" font-size="14.00">on_false</text>
</g>
<!-- n49&#45;&gt;n82 -->
<g id="edge43" class="edge">
<title>n49&#45;&gt;n82</title>
<path fill="none" stroke="black" d="M2809.78,-752C2931.38,-752 3318.09,-752 3318.09,-752 3318.09,-752 3318.09,-1057.89 3318.09,-1057.89"/>
<polygon fill="black" stroke="black" points="3314.59,-1057.89 3318.09,-1067.89 3321.59,-1057.89 3314.59,-1057.89"/>
<text text-anchor="middle" x="3062.73" y="-974.8" font-family="Times,serif" font-size="14.00">CONCURRENCY_INCREMENT_NORMAL</text>
</g>
<!-- n90 -->
<g id="node61" class="node">
<title>n90</title>
<ellipse fill="none" stroke="black" cx="3358.33" cy="-522" rx="48.19" ry="18"/>
<text text-anchor="middle" x="3358.33" y="-518.3" font-family="Times,serif" font-size="14.00">on_false</text>
</g>
<!-- n49&#45;&gt;n90 -->
<g id="edge44" class="edge">
<title>n49&#45;&gt;n90</title>
<path fill="none" stroke="black" d="M2809.82,-734C2932.5,-734 3325.09,-734 3325.09,-734 3325.09,-734 3325.09,-545.26 3325.09,-545.26"/>
<polygon fill="black" stroke="black" points="3328.59,-545.26 3325.09,-535.26 3321.59,-545.26 3328.59,-545.26"/>
<text text-anchor="middle" x="3062.73" y="-738.8" font-family="Times,serif" font-size="14.00">CONCURRENCY_INCREMENT_NORMAL</text>
</g>
<!-- n57 -->
<g id="node54" class="node">
<title>n57</title>
<ellipse fill="none" stroke="black" cx="99.6" cy="-1081" rx="41.69" ry="18"/>
<text text-anchor="middle" x="99.6" y="-1077.3" font-family="Times,serif" font-size="14.00">output</text>
</g>
<!-- n57&#45;&gt;n16 -->
<g id="edge24" class="edge">
<title>n57&#45;&gt;n16</title>
<path fill="none" stroke="black" d="M131.18,-1069.2C220.78,-1069.2 470.09,-1069.2 470.09,-1069.2 470.09,-1069.2 470.09,-950.05 470.09,-950.05"/>
<polygon fill="black" stroke="black" points="473.59,-950.05 470.09,-940.05 466.59,-950.05 473.59,-950.05"/>
<text text-anchor="middle" x="291.69" y="-989.8" font-family="Times,serif" font-size="14.00">LATENCY</text>
</g>
<!-- n57&#45;&gt;n76 -->
<g id="edge27" class="edge">
<title>n57&#45;&gt;n76</title>
<path fill="none" stroke="black" d="M138.28,-1087.8C138.28,-1087.8 2410.25,-1087.8 2410.25,-1087.8"/>
<polygon fill="black" stroke="black" points="2410.25,-1091.3 2420.25,-1087.8 2410.25,-1084.3 2410.25,-1091.3"/>
<text text-anchor="middle" x="1082.47" y="-1182.8" font-family="Times,serif" font-size="14.00">LATENCY</text>
</g>
<!-- n57&#45;&gt;n85 -->
<g id="edge28" class="edge">
<title>n57&#45;&gt;n85</title>
<path fill="none" stroke="black" d="M141.44,-1081.6C331.36,-1081.6 1103.09,-1081.6 1103.09,-1081.6 1103.09,-1081.6 1103.09,-76 1103.09,-76 1103.09,-76 2403.72,-76 2403.72,-76"/>
<polygon fill="black" stroke="black" points="2403.72,-79.5 2413.72,-76 2403.72,-72.5 2403.72,-79.5"/>
<text text-anchor="middle" x="1082.47" y="-628.8" font-family="Times,serif" font-size="14.00">LATENCY</text>
</g>
<!-- n57&#45;&gt;n59 -->
<g id="edge25" class="edge">
<title>n57&#45;&gt;n59</title>
<path fill="none" stroke="black" d="M139.38,-1075.4C307.88,-1075.4 954.09,-1075.4 954.09,-1075.4 954.09,-1075.4 954.09,-1046.16 954.09,-1046.16"/>
<polygon fill="black" stroke="black" points="957.59,-1046.16 954.09,-1036.16 950.59,-1046.16 957.59,-1046.16"/>
<text text-anchor="middle" x="549.19" y="-1084.8" font-family="Times,serif" font-size="14.00">LATENCY</text>
</g>
<!-- n57&#45;&gt;n63 -->
<g id="edge26" class="edge">
<title>n57&#45;&gt;n63</title>
<path fill="none" stroke="black" d="M100.09,-1099.06C100.09,-1170.05 100.09,-1426 100.09,-1426 100.09,-1426 4311.3,-1426 4311.3,-1426"/>
<polygon fill="black" stroke="black" points="4311.3,-1429.5 4321.3,-1426 4311.3,-1422.5 4311.3,-1429.5"/>
<text text-anchor="middle" x="1592.66" y="-1397.8" font-family="Times,serif" font-size="14.00">LATENCY</text>
</g>
<!-- n55 -->
<g id="node56" class="node">
<title>n55</title>
<ellipse fill="none" stroke="black" cx="2773.63" cy="-2340" rx="41.69" ry="18"/>
<text text-anchor="middle" x="2773.63" y="-2336.3" font-family="Times,serif" font-size="14.00">output</text>
</g>
<!-- n54&#45;&gt;n55 -->
<!-- n55&#45;&gt;n41 -->
<g id="edge23" class="edge">
<title>n55&#45;&gt;n41</title>
<path fill="none" stroke="black" d="M2815.41,-2340C2895.57,-2340 3063.09,-2340 3063.09,-2340 3063.09,-2340 3063.09,-743 3063.09,-743 3063.09,-743 3321.08,-743 3321.08,-743"/>
<polygon fill="black" stroke="black" points="3321.08,-746.5 3331.08,-743 3321.08,-739.5 3321.08,-746.5"/>
<text text-anchor="middle" x="3062.73" y="-2083.8" font-family="Times,serif" font-size="14.00">SQRT_CONCURRENCY_INCREMENT</text>
</g>
<!-- n83 -->
<g id="node59" class="node">
<title>n83</title>
<ellipse fill="none" stroke="black" cx="3789.02" cy="-1159" rx="41.69" ry="18"/>
<text text-anchor="middle" x="3789.02" y="-1155.3" font-family="Times,serif" font-size="14.00">output</text>
</g>
<!-- n82&#45;&gt;n83 -->
<!-- n83&#45;&gt;n65 -->
<g id="edge34" class="edge">
<title>n83&#45;&gt;n65</title>
<path fill="none" stroke="black" d="M3776.09,-1176.43C3776.09,-1227.3 3776.09,-1372 3776.09,-1372 3776.09,-1372 4298.98,-1372 4298.98,-1372"/>
<polygon fill="black" stroke="black" points="4298.98,-1375.5 4308.98,-1372 4298.98,-1368.5 4298.98,-1375.5"/>
<text text-anchor="middle" x="4052.61" y="-1278.8" font-family="Times,serif" font-size="14.00">CONCURRENCY_INCREMENT</text>
</g>
<!-- n92 -->
<g id="node63" class="node">
<title>n92</title>
<ellipse fill="none" stroke="black" cx="3789.02" cy="-414" rx="41.69" ry="18"/>
<text text-anchor="middle" x="3789.02" y="-410.3" font-family="Times,serif" font-size="14.00">output</text>
</g>
<!-- n92&#45;&gt;n44 -->
<g id="edge40" class="edge">
<title>n92&#45;&gt;n44</title>
<path fill="none" stroke="black" d="M3830.99,-414C3830.99,-414 4322.57,-414 4322.57,-414"/>
<polygon fill="black" stroke="black" points="4322.57,-417.5 4332.57,-414 4322.57,-410.5 4322.57,-417.5"/>
<text text-anchor="middle" x="4052.61" y="-417.8" font-family="Times,serif" font-size="14.00">CONCURRENCY_INCREMENT_FEEDBACK</text>
</g>
<!-- n91&#45;&gt;n92 -->
</g>
</svg>
