<?xml version="1.0" encoding="UTF-8" standalone="no"?>
<!DOCTYPE svg PUBLIC "-//W3C//DTD SVG 1.1//EN"
 "http://www.w3.org/Graphics/SVG/1.1/DTD/svg11.dtd">
<!-- Generated by graphviz version 6.0.1 (20220911.1526)
 -->
<!-- Pages: 1 -->
<svg width="2139pt" height="2119pt"
 viewBox="0.00 0.00 2139.35 2119.00" xmlns="http://www.w3.org/2000/svg" xmlns:xlink="http://www.w3.org/1999/xlink">
<g id="graph0" class="graph" transform="scale(1 1) rotate(0) translate(4 2115)">
<polygon fill="white" stroke="none" points="-4,4 -4,-2115 2135.35,-2115 2135.35,4 -4,4"/>
<g id="clust1" class="cluster">
<title>cluster_s1</title>
<polygon fill="none" stroke="black" points="18.4,-8 18.4,-221 422.39,-221 422.39,-8 18.4,-8"/>
<text text-anchor="middle" x="220.39" y="-205.8" font-family="Times,serif" font-size="14.00">ArithmeticCombinator[0]</text>
</g>
<g id="clust4" class="cluster">
<title>cluster_s6</title>
<polygon fill="none" stroke="black" points="1235.29,-1058 1235.29,-1271 1725.88,-1271 1725.88,-1058 1235.29,-1058"/>
<text text-anchor="middle" x="1480.59" y="-1255.8" font-family="Times,serif" font-size="14.00">ArithmeticCombinator[1]</text>
</g>
<g id="clust7" class="cluster">
<title>cluster_s11</title>
<polygon fill="none" stroke="black" points="785.66,-1890 785.66,-2103 1408.09,-2103 1408.09,-1890 785.66,-1890"/>
<text text-anchor="middle" x="1096.88" y="-2087.8" font-family="Times,serif" font-size="14.00">ArithmeticCombinator[2]</text>
</g>
<g id="clust10" class="cluster">
<title>cluster_s16</title>
<polygon fill="none" stroke="black" points="785.66,-341 785.66,-554 1408.09,-554 1408.09,-341 785.66,-341"/>
<text text-anchor="middle" x="1096.88" y="-538.8" font-family="Times,serif" font-size="14.00">ArithmeticCombinator[3]</text>
</g>
<g id="clust13" class="cluster">
<title>cluster_s21</title>
<polygon fill="none" stroke="black" points="1235.29,-562 1235.29,-775 1725.88,-775 1725.88,-562 1235.29,-562"/>
<text text-anchor="middle" x="1480.59" y="-759.8" font-family="Times,serif" font-size="14.00">ArithmeticCombinator[4]</text>
</g>
<g id="clust16" class="cluster">
<title>cluster_s46</title>
<polygon fill="none" stroke="black" points="640.27,-1337 640.27,-1882 1093.45,-1882 1093.45,-1337 640.27,-1337"/>
<text text-anchor="middle" x="866.86" y="-1866.8" font-family="Times,serif" font-size="14.00">ConcurrencyLimiter[10]</text>
</g>
<g id="clust17" class="cluster">
<title>cluster_s50</title>
<polygon fill="none" stroke="black" points="690.27,-1650 690.27,-1809 1043.45,-1809 1043.45,-1650 690.27,-1650"/>
<text text-anchor="middle" x="866.86" y="-1793.8" font-family="Times,serif" font-size="14.00">ConcurrencyActuator[10.ConcurrencyActuator]</text>
</g>
<g id="clust19" class="cluster">
<title>cluster_s47</title>
<polygon fill="none" stroke="black" points="702.47,-1387 702.47,-1600 1031.25,-1600 1031.25,-1387 702.47,-1387"/>
<text text-anchor="middle" x="866.86" y="-1584.8" font-family="Times,serif" font-size="14.00">Scheduler[10.Scheduler]</text>
</g>
<g id="clust21" class="cluster">
<title>cluster_s52</title>
<polygon fill="none" stroke="black" points="1416.09,-287 1416.09,-500 1725.88,-500 1725.88,-287 1416.09,-287"/>
<text text-anchor="middle" x="1570.98" y="-484.8" font-family="Times,serif" font-size="14.00">Decider[11]</text>
</g>
<g id="clust24" class="cluster">
<title>cluster_s35</title>
<polygon fill="none" stroke="black" points="430.39,-562 430.39,-775 958.46,-775 958.46,-562 430.39,-562"/>
<text text-anchor="middle" x="694.42" y="-759.8" font-family="Times,serif" font-size="14.00">EMA[8]</text>
</g>
<g id="clust27" class="cluster">
<title>cluster_s39</title>
<polygon fill="none" stroke="black" points="1733.88,-1209 1733.88,-1584 2123.35,-1584 2123.35,-1209 1733.88,-1209"/>
<text text-anchor="middle" x="1928.62" y="-1568.8" font-family="Times,serif" font-size="14.00">Gradient[9]</text>
</g>
<g id="clust30" class="cluster">
<title>cluster_s26</title>
<polygon fill="none" stroke="black" points="1229.45,-1499 1229.45,-1658 1725.88,-1658 1725.88,-1499 1229.45,-1499"/>
<text text-anchor="middle" x="1477.66" y="-1642.8" font-family="Times,serif" font-size="14.00">Max[5]</text>
</g>
<g id="clust33" class="cluster">
<title>cluster_s33</title>
<polygon fill="none" stroke="black" points="8,-331 8,-490 191.19,-490 191.19,-331 8,-331"/>
<text text-anchor="middle" x="99.6" y="-474.8" font-family="Times,serif" font-size="14.00">PromQL[7]</text>
</g>
<g id="clust35" class="cluster">
<title>cluster_s30</title>
<polygon fill="none" stroke="black" points="1101.25,-837 1101.25,-996 1408.09,-996 1408.09,-837 1101.25,-837"/>
<text text-anchor="middle" x="1254.67" y="-980.8" font-family="Times,serif" font-size="14.00">Sqrt[6]</text>
</g>
<g id="clust38" class="cluster">
<title>cluster_s56</title>
<polygon fill="none" stroke="black" points="1541.38,-783 1541.38,-1050 2123.35,-1050 2123.35,-783 1541.38,-783"/>
<text text-anchor="middle" x="1832.37" y="-1034.8" font-family="Times,serif" font-size="14.00">Switcher[12]</text>
</g>
<!-- n4 -->
<g id="node1" class="node">
<title>n4</title>
<ellipse fill="none" stroke="black" cx="99.6" cy="-76" rx="31.4" ry="18"/>
<text text-anchor="middle" x="99.6" y="-72.3" font-family="Times,serif" font-size="14.00">2.00</text>
</g>
<!-- n3 -->
<g id="node4" class="node">
<title>n3</title>
<ellipse fill="none" stroke="black" cx="226.19" cy="-76" rx="27" ry="18"/>
<text text-anchor="middle" x="226.19" y="-72.3" font-family="Times,serif" font-size="14.00">rhs</text>
</g>
<!-- n4&#45;&gt;n3 -->
<g id="edge1" class="edge">
<title>n4&#45;&gt;n3</title>
<path fill="none" stroke="black" d="M130.89,-76C130.89,-76 189.12,-76 189.12,-76"/>
<polygon fill="black" stroke="black" points="189.12,-79.5 199.12,-76 189.12,-72.5 189.12,-79.5"/>
</g>
<!-- n2 -->
<g id="node2" class="node">
<title>n2</title>
<ellipse fill="none" stroke="black" cx="226.19" cy="-130" rx="27" ry="18"/>
<text text-anchor="middle" x="226.19" y="-126.3" font-family="Times,serif" font-size="14.00">lhs</text>
</g>
<!-- n5 -->
<g id="node3" class="node">
<title>n5</title>
<ellipse fill="none" stroke="black" cx="330.79" cy="-103" rx="41.69" ry="18"/>
<text text-anchor="middle" x="330.79" y="-99.3" font-family="Times,serif" font-size="14.00">output</text>
</g>
<!-- n36 -->
<g id="node28" class="node">
<title>n36</title>
<ellipse fill="none" stroke="black" cx="556.43" cy="-630" rx="76.09" ry="18"/>
<text text-anchor="middle" x="556.43" y="-626.3" font-family="Times,serif" font-size="14.00">max_envelope</text>
</g>
<!-- n5&#45;&gt;n36 -->
<g id="edge25" class="edge">
<title>n5&#45;&gt;n36</title>
<path fill="none" stroke="black" d="M331.35,-121.14C331.35,-213.81 331.35,-630 331.35,-630 331.35,-630 470.23,-630 470.23,-630"/>
<polygon fill="black" stroke="black" points="470.23,-633.5 480.23,-630 470.23,-626.5 470.23,-633.5"/>
</g>
<!-- n3&#45;&gt;n5 -->
<!-- n9 -->
<g id="node5" class="node">
<title>n9</title>
<ellipse fill="none" stroke="black" cx="1316.49" cy="-1180" rx="31.4" ry="18"/>
<text text-anchor="middle" x="1316.49" y="-1176.3" font-family="Times,serif" font-size="14.00">1.10</text>
</g>
<!-- n8 -->
<g id="node8" class="node">
<title>n8</title>
<ellipse fill="none" stroke="black" cx="1493.09" cy="-1180" rx="27" ry="18"/>
<text text-anchor="middle" x="1493.09" y="-1176.3" font-family="Times,serif" font-size="14.00">rhs</text>
</g>
<!-- n9&#45;&gt;n8 -->
<g id="edge3" class="edge">
<title>n9&#45;&gt;n8</title>
<path fill="none" stroke="black" d="M1348.06,-1180C1348.06,-1180 1455.84,-1180 1455.84,-1180"/>
<polygon fill="black" stroke="black" points="1455.84,-1183.5 1465.84,-1180 1455.84,-1176.5 1455.84,-1183.5"/>
</g>
<!-- n7 -->
<g id="node6" class="node">
<title>n7</title>
<ellipse fill="none" stroke="black" cx="1493.09" cy="-1126" rx="27" ry="18"/>
<text text-anchor="middle" x="1493.09" y="-1122.3" font-family="Times,serif" font-size="14.00">lhs</text>
</g>
<!-- n10 -->
<g id="node7" class="node">
<title>n10</title>
<ellipse fill="none" stroke="black" cx="1634.28" cy="-1180" rx="41.69" ry="18"/>
<text text-anchor="middle" x="1634.28" y="-1176.3" font-family="Times,serif" font-size="14.00">output</text>
</g>
<!-- n42 -->
<g id="node34" class="node">
<title>n42</title>
<ellipse fill="none" stroke="black" cx="1869.02" cy="-1277" rx="48.99" ry="18"/>
<text text-anchor="middle" x="1869.02" y="-1273.3" font-family="Times,serif" font-size="14.00">setpoint</text>
</g>
<!-- n10&#45;&gt;n42 -->
<g id="edge22" class="edge">
<title>n10&#45;&gt;n42</title>
<path fill="none" stroke="black" d="M1634.35,-1198.24C1634.35,-1226.34 1634.35,-1277 1634.35,-1277 1634.35,-1277 1810.11,-1277 1810.11,-1277"/>
<polygon fill="black" stroke="black" points="1810.11,-1280.5 1820.11,-1277 1810.11,-1273.5 1810.11,-1280.5"/>
</g>
<!-- n8&#45;&gt;n10 -->
<!-- n13 -->
<g id="node9" class="node">
<title>n13</title>
<ellipse fill="none" stroke="black" cx="866.86" cy="-2012" rx="31.4" ry="18"/>
<text text-anchor="middle" x="866.86" y="-2008.3" font-family="Times,serif" font-size="14.00">2.00</text>
</g>
<!-- n12 -->
<g id="node10" class="node">
<title>n12</title>
<ellipse fill="none" stroke="black" cx="1186.35" cy="-2012" rx="27" ry="18"/>
<text text-anchor="middle" x="1186.35" y="-2008.3" font-family="Times,serif" font-size="14.00">lhs</text>
</g>
<!-- n13&#45;&gt;n12 -->
<g id="edge5" class="edge">
<title>n13&#45;&gt;n12</title>
<path fill="none" stroke="black" d="M898.08,-2012C898.08,-2012 1149.13,-2012 1149.13,-2012"/>
<polygon fill="black" stroke="black" points="1149.13,-2015.5 1159.13,-2012 1149.13,-2008.5 1149.13,-2015.5"/>
</g>
<!-- n15 -->
<g id="node11" class="node">
<title>n15</title>
<ellipse fill="none" stroke="black" cx="1316.49" cy="-1958" rx="41.69" ry="18"/>
<text text-anchor="middle" x="1316.49" y="-1954.3" font-family="Times,serif" font-size="14.00">output</text>
</g>
<!-- n27 -->
<g id="node37" class="node">
<title>n27</title>
<ellipse fill="none" stroke="black" cx="1493.09" cy="-1567" rx="40.09" ry="18"/>
<text text-anchor="middle" x="1493.09" y="-1563.3" font-family="Times,serif" font-size="14.00">inputs</text>
</g>
<!-- n15&#45;&gt;n27 -->
<g id="edge29" class="edge">
<title>n15&#45;&gt;n27</title>
<path fill="none" stroke="black" d="M1358.41,-1958C1410.71,-1958 1493.35,-1958 1493.35,-1958 1493.35,-1958 1493.35,-1595.07 1493.35,-1595.07"/>
<polygon fill="black" stroke="black" points="1496.85,-1595.07 1493.35,-1585.07 1489.85,-1595.07 1496.85,-1595.07"/>
</g>
<!-- n14 -->
<g id="node12" class="node">
<title>n14</title>
<ellipse fill="none" stroke="black" cx="1186.35" cy="-1958" rx="27" ry="18"/>
<text text-anchor="middle" x="1186.35" y="-1954.3" font-family="Times,serif" font-size="14.00">rhs</text>
</g>
<!-- n14&#45;&gt;n15 -->
<!-- n19 -->
<g id="node13" class="node">
<title>n19</title>
<ellipse fill="none" stroke="black" cx="866.86" cy="-409" rx="31.4" ry="18"/>
<text text-anchor="middle" x="866.86" y="-405.3" font-family="Times,serif" font-size="14.00">1.10</text>
</g>
<!-- n18 -->
<g id="node16" class="node">
<title>n18</title>
<ellipse fill="none" stroke="black" cx="1186.35" cy="-409" rx="27" ry="18"/>
<text text-anchor="middle" x="1186.35" y="-405.3" font-family="Times,serif" font-size="14.00">rhs</text>
</g>
<!-- n19&#45;&gt;n18 -->
<g id="edge7" class="edge">
<title>n19&#45;&gt;n18</title>
<path fill="none" stroke="black" d="M898.08,-409C898.08,-409 1149.13,-409 1149.13,-409"/>
<polygon fill="black" stroke="black" points="1149.13,-412.5 1159.13,-409 1149.13,-405.5 1149.13,-412.5"/>
</g>
<!-- n17 -->
<g id="node14" class="node">
<title>n17</title>
<ellipse fill="none" stroke="black" cx="1186.35" cy="-463" rx="27" ry="18"/>
<text text-anchor="middle" x="1186.35" y="-459.3" font-family="Times,serif" font-size="14.00">lhs</text>
</g>
<!-- n20 -->
<g id="node15" class="node">
<title>n20</title>
<ellipse fill="none" stroke="black" cx="1316.49" cy="-409" rx="41.69" ry="18"/>
<text text-anchor="middle" x="1316.49" y="-405.3" font-family="Times,serif" font-size="14.00">output</text>
</g>
<!-- n53 -->
<g id="node26" class="node">
<title>n53</title>
<ellipse fill="none" stroke="black" cx="1493.09" cy="-409" rx="27" ry="18"/>
<text text-anchor="middle" x="1493.09" y="-405.3" font-family="Times,serif" font-size="14.00">rhs</text>
</g>
<!-- n20&#45;&gt;n53 -->
<g id="edge23" class="edge">
<title>n20&#45;&gt;n53</title>
<path fill="none" stroke="black" d="M1358.34,-409C1358.34,-409 1455.82,-409 1455.82,-409"/>
<polygon fill="black" stroke="black" points="1455.82,-412.5 1465.82,-409 1455.82,-405.5 1455.82,-412.5"/>
</g>
<!-- n18&#45;&gt;n20 -->
<!-- n23 -->
<g id="node17" class="node">
<title>n23</title>
<ellipse fill="none" stroke="black" cx="1316.49" cy="-630" rx="31.4" ry="18"/>
<text text-anchor="middle" x="1316.49" y="-626.3" font-family="Times,serif" font-size="14.00">5.00</text>
</g>
<!-- n22 -->
<g id="node18" class="node">
<title>n22</title>
<ellipse fill="none" stroke="black" cx="1493.09" cy="-630" rx="27" ry="18"/>
<text text-anchor="middle" x="1493.09" y="-626.3" font-family="Times,serif" font-size="14.00">lhs</text>
</g>
<!-- n23&#45;&gt;n22 -->
<g id="edge9" class="edge">
<title>n23&#45;&gt;n22</title>
<path fill="none" stroke="black" d="M1348.06,-630C1348.06,-630 1455.84,-630 1455.84,-630"/>
<polygon fill="black" stroke="black" points="1455.84,-633.5 1465.84,-630 1455.84,-626.5 1455.84,-633.5"/>
</g>
<!-- n25 -->
<g id="node19" class="node">
<title>n25</title>
<ellipse fill="none" stroke="black" cx="1634.28" cy="-684" rx="41.69" ry="18"/>
<text text-anchor="middle" x="1634.28" y="-680.3" font-family="Times,serif" font-size="14.00">output</text>
</g>
<!-- n60 -->
<g id="node43" class="node">
<title>n60</title>
<ellipse fill="none" stroke="black" cx="1869.02" cy="-905" rx="48.19" ry="18"/>
<text text-anchor="middle" x="1869.02" y="-901.3" font-family="Times,serif" font-size="14.00">on_false</text>
</g>
<!-- n25&#45;&gt;n60 -->
<g id="edge26" class="edge">
<title>n25&#45;&gt;n60</title>
<path fill="none" stroke="black" d="M1676.21,-684C1732.46,-684 1825.35,-684 1825.35,-684 1825.35,-684 1825.35,-887.39 1825.35,-887.39"/>
<polygon fill="black" stroke="black" points="1821.85,-887.39 1825.35,-897.39 1828.85,-887.39 1821.85,-887.39"/>
</g>
<!-- n24 -->
<g id="node20" class="node">
<title>n24</title>
<ellipse fill="none" stroke="black" cx="1493.09" cy="-684" rx="27" ry="18"/>
<text text-anchor="middle" x="1493.09" y="-680.3" font-family="Times,serif" font-size="14.00">rhs</text>
</g>
<!-- n24&#45;&gt;n25 -->
<!-- n51 -->
<g id="node21" class="node">
<title>n51</title>
<ellipse fill="none" stroke="black" cx="866.86" cy="-1718" rx="106.68" ry="18"/>
<text text-anchor="middle" x="866.86" y="-1714.3" font-family="Times,serif" font-size="14.00">desired_concurrency</text>
</g>
<!-- n48 -->
<g id="node22" class="node">
<title>n48</title>
<ellipse fill="none" stroke="black" cx="866.86" cy="-1509" rx="113.98" ry="18"/>
<text text-anchor="middle" x="866.86" y="-1505.3" font-family="Times,serif" font-size="14.00">accepted_concurrency</text>
</g>
<!-- n48&#45;&gt;n14 -->
<g id="edge19" class="edge">
<title>n48&#45;&gt;n14</title>
<path fill="none" stroke="black" d="M977.35,-1513.44C977.35,-1560.08 977.35,-1958 977.35,-1958 977.35,-1958 1149.03,-1958 1149.03,-1958"/>
<polygon fill="black" stroke="black" points="1149.03,-1961.5 1159.03,-1958 1149.03,-1954.5 1149.03,-1961.5"/>
</g>
<!-- n40 -->
<g id="node30" class="node">
<title>n40</title>
<ellipse fill="none" stroke="black" cx="1869.02" cy="-1439" rx="85.29" ry="18"/>
<text text-anchor="middle" x="1869.02" y="-1435.3" font-family="Times,serif" font-size="14.00">control_variable</text>
</g>
<!-- n48&#45;&gt;n40 -->
<g id="edge21" class="edge">
<title>n48&#45;&gt;n40</title>
<path fill="none" stroke="black" d="M977.06,-1504.33C1226.2,-1504.33 1811.35,-1504.33 1811.35,-1504.33 1811.35,-1504.33 1811.35,-1462.54 1811.35,-1462.54"/>
<polygon fill="black" stroke="black" points="1814.85,-1462.54 1811.35,-1452.54 1807.85,-1462.54 1814.85,-1462.54"/>
</g>
<!-- n31 -->
<g id="node40" class="node">
<title>n31</title>
<ellipse fill="none" stroke="black" cx="1186.35" cy="-905" rx="35.19" ry="18"/>
<text text-anchor="middle" x="1186.35" y="-901.3" font-family="Times,serif" font-size="14.00">input</text>
</g>
<!-- n48&#45;&gt;n31 -->
<g id="edge20" class="edge">
<title>n48&#45;&gt;n31</title>
<path fill="none" stroke="black" d="M955.38,-1497.67C1040.18,-1497.67 1155.35,-1497.67 1155.35,-1497.67 1155.35,-1497.67 1155.35,-923.84 1155.35,-923.84"/>
<polygon fill="black" stroke="black" points="1158.85,-923.84 1155.35,-913.84 1151.85,-923.84 1158.85,-923.84"/>
</g>
<!-- n49 -->
<g id="node23" class="node">
<title>n49</title>
<ellipse fill="none" stroke="black" cx="866.86" cy="-1455" rx="114.28" ry="18"/>
<text text-anchor="middle" x="866.86" y="-1451.3" font-family="Times,serif" font-size="14.00">incoming_concurrency</text>
</g>
<!-- n54 -->
<g id="node24" class="node">
<title>n54</title>
<ellipse fill="none" stroke="black" cx="1493.09" cy="-355" rx="27" ry="18"/>
<text text-anchor="middle" x="1493.09" y="-351.3" font-family="Times,serif" font-size="14.00">lhs</text>
</g>
<!-- n55 -->
<g id="node25" class="node">
<title>n55</title>
<ellipse fill="none" stroke="black" cx="1634.28" cy="-382" rx="41.69" ry="18"/>
<text text-anchor="middle" x="1634.28" y="-378.3" font-family="Times,serif" font-size="14.00">output</text>
</g>
<!-- n54&#45;&gt;n55 -->
<!-- n57 -->
<g id="node46" class="node">
<title>n57</title>
<ellipse fill="none" stroke="black" cx="1869.02" cy="-851" rx="40.89" ry="18"/>
<text text-anchor="middle" x="1869.02" y="-847.3" font-family="Times,serif" font-size="14.00">switch</text>
</g>
<!-- n55&#45;&gt;n57 -->
<g id="edge27" class="edge">
<title>n55&#45;&gt;n57</title>
<path fill="none" stroke="black" d="M1676.04,-382C1743.59,-382 1869.35,-382 1869.35,-382 1869.35,-382 1869.35,-822.9 1869.35,-822.9"/>
<polygon fill="black" stroke="black" points="1865.85,-822.9 1869.35,-832.9 1872.85,-822.9 1865.85,-822.9"/>
</g>
<!-- n37 -->
<g id="node27" class="node">
<title>n37</title>
<ellipse fill="none" stroke="black" cx="556.43" cy="-684" rx="35.19" ry="18"/>
<text text-anchor="middle" x="556.43" y="-680.3" font-family="Times,serif" font-size="14.00">input</text>
</g>
<!-- n38 -->
<g id="node29" class="node">
<title>n38</title>
<ellipse fill="none" stroke="black" cx="866.86" cy="-684" rx="41.69" ry="18"/>
<text text-anchor="middle" x="866.86" y="-680.3" font-family="Times,serif" font-size="14.00">output</text>
</g>
<!-- n37&#45;&gt;n38 -->
<!-- n38&#45;&gt;n7 -->
<g id="edge35" class="edge">
<title>n38&#45;&gt;n7</title>
<path fill="none" stroke="black" d="M867.35,-702.15C867.35,-785.32 867.35,-1126 867.35,-1126 867.35,-1126 1455.8,-1126 1455.8,-1126"/>
<polygon fill="black" stroke="black" points="1455.8,-1129.5 1465.8,-1126 1455.8,-1122.5 1455.8,-1129.5"/>
</g>
<!-- n38&#45;&gt;n17 -->
<g id="edge36" class="edge">
<title>n38&#45;&gt;n17</title>
<path fill="none" stroke="black" d="M903.35,-675.34C903.35,-634.48 903.35,-463 903.35,-463 903.35,-463 1149.21,-463 1149.21,-463"/>
<polygon fill="black" stroke="black" points="1149.21,-466.5 1159.21,-463 1149.21,-459.5 1149.21,-466.5"/>
</g>
<!-- n44 -->
<g id="node31" class="node">
<title>n44</title>
<ellipse fill="none" stroke="black" cx="1869.02" cy="-1493" rx="30.59" ry="18"/>
<text text-anchor="middle" x="1869.02" y="-1489.3" font-family="Times,serif" font-size="14.00">max</text>
</g>
<!-- n45 -->
<g id="node33" class="node">
<title>n45</title>
<ellipse fill="none" stroke="black" cx="2031.76" cy="-1493" rx="41.69" ry="18"/>
<text text-anchor="middle" x="2031.76" y="-1489.3" font-family="Times,serif" font-size="14.00">output</text>
</g>
<!-- n44&#45;&gt;n45 -->
<!-- n43 -->
<g id="node32" class="node">
<title>n43</title>
<ellipse fill="none" stroke="black" cx="1869.02" cy="-1385" rx="50.89" ry="18"/>
<text text-anchor="middle" x="1869.02" y="-1381.3" font-family="Times,serif" font-size="14.00">optimize</text>
</g>
<!-- n45&#45;&gt;n51 -->
<g id="edge37" class="edge">
<title>n45&#45;&gt;n51</title>
<path fill="none" stroke="black" d="M2032.35,-1511.03C2032.35,-1564.42 2032.35,-1718 2032.35,-1718 2032.35,-1718 983.64,-1718 983.64,-1718"/>
<polygon fill="black" stroke="black" points="983.64,-1714.5 973.64,-1718 983.64,-1721.5 983.64,-1714.5"/>
</g>
<!-- n41 -->
<g id="node35" class="node">
<title>n41</title>
<ellipse fill="none" stroke="black" cx="1869.02" cy="-1331" rx="38.19" ry="18"/>
<text text-anchor="middle" x="1869.02" y="-1327.3" font-family="Times,serif" font-size="14.00">signal</text>
</g>
<!-- n28 -->
<g id="node36" class="node">
<title>n28</title>
<ellipse fill="none" stroke="black" cx="1316.49" cy="-1567" rx="37.09" ry="18"/>
<text text-anchor="middle" x="1316.49" y="-1563.3" font-family="Times,serif" font-size="14.00">10.00</text>
</g>
<!-- n28&#45;&gt;n27 -->
<g id="edge14" class="edge">
<title>n28&#45;&gt;n27</title>
<path fill="none" stroke="black" d="M1353.94,-1567C1353.94,-1567 1442.62,-1567 1442.62,-1567"/>
<polygon fill="black" stroke="black" points="1442.62,-1570.5 1452.62,-1567 1442.61,-1563.5 1442.62,-1570.5"/>
</g>
<!-- n29 -->
<g id="node38" class="node">
<title>n29</title>
<ellipse fill="none" stroke="black" cx="1634.28" cy="-1567" rx="41.69" ry="18"/>
<text text-anchor="middle" x="1634.28" y="-1563.3" font-family="Times,serif" font-size="14.00">output</text>
</g>
<!-- n27&#45;&gt;n29 -->
<!-- n29&#45;&gt;n44 -->
<g id="edge30" class="edge">
<title>n29&#45;&gt;n44</title>
<path fill="none" stroke="black" d="M1676.04,-1567C1743.59,-1567 1869.35,-1567 1869.35,-1567 1869.35,-1567 1869.35,-1521.29 1869.35,-1521.29"/>
<polygon fill="black" stroke="black" points="1872.85,-1521.29 1869.35,-1511.29 1865.85,-1521.29 1872.85,-1521.29"/>
</g>
<!-- n34 -->
<g id="node39" class="node">
<title>n34</title>
<ellipse fill="none" stroke="black" cx="99.6" cy="-399" rx="41.69" ry="18"/>
<text text-anchor="middle" x="99.6" y="-395.3" font-family="Times,serif" font-size="14.00">output</text>
</g>
<!-- n34&#45;&gt;n2 -->
<g id="edge31" class="edge">
<title>n34&#45;&gt;n2</title>
<path fill="none" stroke="black" d="M134.35,-389.11C134.35,-340.58 134.35,-130 134.35,-130 134.35,-130 189.13,-130 189.13,-130"/>
<polygon fill="black" stroke="black" points="189.13,-133.5 199.13,-130 189.13,-126.5 189.13,-133.5"/>
</g>
<!-- n34&#45;&gt;n54 -->
<g id="edge34" class="edge">
<title>n34&#45;&gt;n54</title>
<path fill="none" stroke="black" d="M138.35,-392.12C138.35,-379.75 138.35,-355 138.35,-355 138.35,-355 1456.03,-355 1456.03,-355"/>
<polygon fill="black" stroke="black" points="1456.03,-358.5 1466.03,-355 1456.03,-351.5 1456.03,-358.5"/>
</g>
<!-- n34&#45;&gt;n37 -->
<g id="edge32" class="edge">
<title>n34&#45;&gt;n37</title>
<path fill="none" stroke="black" d="M114.35,-415.97C114.35,-477.33 114.35,-684 114.35,-684 114.35,-684 511,-684 511,-684"/>
<polygon fill="black" stroke="black" points="511,-687.5 521,-684 511,-680.5 511,-687.5"/>
</g>
<!-- n34&#45;&gt;n41 -->
<g id="edge33" class="edge">
<title>n34&#45;&gt;n41</title>
<path fill="none" stroke="black" d="M86.35,-416.38C86.35,-543.96 86.35,-1331 86.35,-1331 86.35,-1331 1820.55,-1331 1820.55,-1331"/>
<polygon fill="black" stroke="black" points="1820.55,-1334.5 1830.55,-1331 1820.55,-1327.5 1820.55,-1334.5"/>
</g>
<!-- n32 -->
<g id="node41" class="node">
<title>n32</title>
<ellipse fill="none" stroke="black" cx="1316.49" cy="-905" rx="41.69" ry="18"/>
<text text-anchor="middle" x="1316.49" y="-901.3" font-family="Times,serif" font-size="14.00">output</text>
</g>
<!-- n31&#45;&gt;n32 -->
<!-- n32&#45;&gt;n24 -->
<g id="edge24" class="edge">
<title>n32&#45;&gt;n24</title>
<path fill="none" stroke="black" d="M1353.35,-896.61C1353.35,-856.24 1353.35,-684 1353.35,-684 1353.35,-684 1455.81,-684 1455.81,-684"/>
<polygon fill="black" stroke="black" points="1455.81,-687.5 1465.81,-684 1455.81,-680.5 1455.81,-687.5"/>
</g>
<!-- n59 -->
<g id="node42" class="node">
<title>n59</title>
<ellipse fill="none" stroke="black" cx="1634.28" cy="-959" rx="42.79" ry="18"/>
<text text-anchor="middle" x="1634.28" y="-955.3" font-family="Times,serif" font-size="14.00">100.00</text>
</g>
<!-- n58 -->
<g id="node44" class="node">
<title>n58</title>
<ellipse fill="none" stroke="black" cx="1869.02" cy="-959" rx="46.29" ry="18"/>
<text text-anchor="middle" x="1869.02" y="-955.3" font-family="Times,serif" font-size="14.00">on_true</text>
</g>
<!-- n59&#45;&gt;n58 -->
<g id="edge17" class="edge">
<title>n59&#45;&gt;n58</title>
<path fill="none" stroke="black" d="M1677.34,-959C1677.34,-959 1812.62,-959 1812.62,-959"/>
<polygon fill="black" stroke="black" points="1812.62,-962.5 1822.62,-959 1812.62,-955.5 1812.62,-962.5"/>
</g>
<!-- n61 -->
<g id="node45" class="node">
<title>n61</title>
<ellipse fill="none" stroke="black" cx="2031.76" cy="-932" rx="41.69" ry="18"/>
<text text-anchor="middle" x="2031.76" y="-928.3" font-family="Times,serif" font-size="14.00">output</text>
</g>
<!-- n60&#45;&gt;n61 -->
<!-- n61&#45;&gt;n43 -->
<g id="edge28" class="edge">
<title>n61&#45;&gt;n43</title>
<path fill="none" stroke="black" d="M2032.35,-950.04C2032.35,-1034.29 2032.35,-1385 2032.35,-1385 2032.35,-1385 1929.8,-1385 1929.8,-1385"/>
<polygon fill="black" stroke="black" points="1929.8,-1381.5 1919.8,-1385 1929.8,-1388.5 1929.8,-1381.5"/>
</g>
</g>
</svg>
