<?xml version="1.0" encoding="UTF-8" standalone="no"?>
<!DOCTYPE svg PUBLIC "-//W3C//DTD SVG 1.1//EN"
 "http://www.w3.org/Graphics/SVG/1.1/DTD/svg11.dtd">
<!-- Generated by graphviz version 2.43.0 (0)
 -->
<!-- Title: %3 Pages: 1 -->
<svg width="4290pt" height="1707pt"
 viewBox="0.00 0.00 4290.09 1707.00" xmlns="http://www.w3.org/2000/svg" xmlns:xlink="http://www.w3.org/1999/xlink">
<g id="graph0" class="graph" transform="scale(1 1) rotate(0) translate(4 1703)">
<title>%3</title>
<polygon fill="white" stroke="transparent" points="-4,4 -4,-1703 4286.09,-1703 4286.09,4 -4,4"/>
<g id="clust1" class="cluster">
<title>cluster_s1</title>
<polygon fill="none" stroke="black" points="277.19,-1257 277.19,-1470 620.39,-1470 620.39,-1257 277.19,-1257"/>
<text text-anchor="middle" x="448.79" y="-1454.8" font-family="Times,serif" font-size="14.00">ArithmeticCombinator (0)</text>
</g>
<g id="clust4" class="cluster">
<title>cluster_s5</title>
<polygon fill="none" stroke="black" points="2940.33,-1411 2940.33,-1624 3539.61,-1624 3539.61,-1411 2940.33,-1411"/>
<text text-anchor="middle" x="3239.97" y="-1608.8" font-family="Times,serif" font-size="14.00">ArithmeticCombinator (1)</text>
</g>
<g id="clust7" class="cluster">
<title>cluster_s9</title>
<polygon fill="none" stroke="black" points="2146.74,-439 2146.74,-652 2608.23,-652 2608.23,-439 2146.74,-439"/>
<text text-anchor="middle" x="2377.49" y="-636.8" font-family="Times,serif" font-size="14.00">ArithmeticCombinator (2)</text>
</g>
<g id="clust10" class="cluster">
<title>cluster_s13</title>
<polygon fill="none" stroke="black" points="2146.74,-218 2146.74,-431 2608.23,-431 2608.23,-218 2146.74,-218"/>
<text text-anchor="middle" x="2377.49" y="-415.8" font-family="Times,serif" font-size="14.00">ArithmeticCombinator (3)</text>
</g>
<g id="clust13" class="cluster">
<title>cluster_s17</title>
<polygon fill="none" stroke="black" points="2146.74,-1078 2146.74,-1291 2608.23,-1291 2608.23,-1078 2146.74,-1078"/>
<text text-anchor="middle" x="2377.49" y="-1275.8" font-family="Times,serif" font-size="14.00">ArithmeticCombinator (4)</text>
</g>
<g id="clust16" class="cluster">
<title>cluster_s21</title>
<polygon fill="none" stroke="black" points="1280.66,-1268 1280.66,-1481 1786.65,-1481 1786.65,-1268 1280.66,-1268"/>
<text text-anchor="middle" x="1533.66" y="-1465.8" font-family="Times,serif" font-size="14.00">ArithmeticCombinator (5)</text>
</g>
<g id="clust19" class="cluster">
<title>cluster_s25</title>
<polygon fill="none" stroke="black" points="2940.33,-119 2940.33,-332 3539.61,-332 3539.61,-119 2940.33,-119"/>
<text text-anchor="middle" x="3239.97" y="-316.8" font-family="Times,serif" font-size="14.00">ArithmeticCombinator (6)</text>
</g>
<g id="clust22" class="cluster">
<title>cluster_s29</title>
<polygon fill="none" stroke="black" points="3941.76,-431 3941.76,-644 4274.09,-644 4274.09,-431 3941.76,-431"/>
<text text-anchor="middle" x="4107.92" y="-628.8" font-family="Times,serif" font-size="14.00">ArithmeticCombinator (7)</text>
</g>
<g id="clust25" class="cluster">
<title>cluster_s55</title>
<polygon fill="none" stroke="black" points="1480.66,-174 1480.66,-719 1909.44,-719 1909.44,-174 1480.66,-174"/>
<text text-anchor="middle" x="1695.05" y="-703.8" font-family="Times,serif" font-size="14.00">ConcurrencyLimiter (14)</text>
</g>
<g id="clust26" class="cluster">
<title>cluster_s59</title>
<polygon fill="none" stroke="black" points="1536.66,-224 1536.66,-383 1854.45,-383 1854.45,-224 1536.66,-224"/>
<text text-anchor="middle" x="1695.55" y="-367.8" font-family="Times,serif" font-size="14.00">LoadShedActuator (14.LoadShedActuator)</text>
</g>
<g id="clust28" class="cluster">
<title>cluster_s56</title>
<polygon fill="none" stroke="black" points="1530.66,-433 1530.66,-646 1859.44,-646 1859.44,-433 1530.66,-433"/>
<text text-anchor="middle" x="1695.05" y="-630.8" font-family="Times,serif" font-size="14.00">Scheduler (14.Scheduler)</text>
</g>
<g id="clust30" class="cluster">
<title>cluster_s61</title>
<polygon fill="none" stroke="black" points="2146.74,-857 2146.74,-1070 2608.23,-1070 2608.23,-857 2146.74,-857"/>
<text text-anchor="middle" x="2377.49" y="-1054.8" font-family="Times,serif" font-size="14.00">Decider (15)</text>
</g>
<g id="clust33" class="cluster">
<title>cluster_s44</title>
<polygon fill="none" stroke="black" points="712.39,-1383 712.39,-1596 1153.66,-1596 1153.66,-1383 712.39,-1383"/>
<text text-anchor="middle" x="933.02" y="-1580.8" font-family="Times,serif" font-size="14.00">EMA (12)</text>
</g>
<g id="clust36" class="cluster">
<title>cluster_s48</title>
<polygon fill="none" stroke="black" points="3883.61,-1145 3883.61,-1520 4274.09,-1520 4274.09,-1145 3883.61,-1145"/>
<text text-anchor="middle" x="4078.85" y="-1504.8" font-family="Times,serif" font-size="14.00">Gradient (13)</text>
</g>
<g id="clust39" class="cluster">
<title>cluster_s36</title>
<polygon fill="none" stroke="black" points="2927.03,-1111 2927.03,-1270 3539.61,-1270 3539.61,-1111 2927.03,-1111"/>
<text text-anchor="middle" x="3233.32" y="-1254.8" font-family="Times,serif" font-size="14.00">Max (9)</text>
</g>
<g id="clust42" class="cluster">
<title>cluster_s33</title>
<polygon fill="none" stroke="black" points="2133.44,-690 2133.44,-849 2608.23,-849 2608.23,-690 2133.44,-690"/>
<text text-anchor="middle" x="2370.84" y="-833.8" font-family="Times,serif" font-size="14.00">Min (8)</text>
</g>
<g id="clust45" class="cluster">
<title>cluster_s42</title>
<polygon fill="none" stroke="black" points="8,-1423 8,-1582 191.19,-1582 191.19,-1423 8,-1423"/>
<text text-anchor="middle" x="99.6" y="-1566.8" font-family="Times,serif" font-size="14.00">PromQL (11)</text>
</g>
<g id="clust47" class="cluster">
<title>cluster_s39</title>
<polygon fill="none" stroke="black" points="2138.64,-8 2138.64,-167 2608.23,-167 2608.23,-8 2138.64,-8"/>
<text text-anchor="middle" x="2373.44" y="-151.8" font-family="Times,serif" font-size="14.00">Sqrt (10)</text>
</g>
<g id="clust50" class="cluster">
<title>cluster_s65</title>
<polygon fill="none" stroke="black" points="2919.23,-815 2919.23,-1082 3539.61,-1082 3539.61,-815 2919.23,-815"/>
<text text-anchor="middle" x="3229.42" y="-1066.8" font-family="Times,serif" font-size="14.00">Switcher (16)</text>
</g>
<g id="clust53" class="cluster">
<title>cluster_s70</title>
<polygon fill="none" stroke="black" points="2919.23,-377 2919.23,-644 3539.61,-644 3539.61,-377 2919.23,-377"/>
<text text-anchor="middle" x="3229.42" y="-628.8" font-family="Times,serif" font-size="14.00">Switcher (17)</text>
</g>
<!-- n2 -->
<g id="node1" class="node">
<title>n2</title>
<ellipse fill="none" stroke="black" cx="354.19" cy="-1379" rx="27" ry="18"/>
<text text-anchor="middle" x="354.19" y="-1375.3" font-family="Times,serif" font-size="14.00">lhs</text>
</g>
<!-- n4 -->
<g id="node2" class="node">
<title>n4</title>
<ellipse fill="none" stroke="black" cx="528.79" cy="-1352" rx="41.69" ry="18"/>
<text text-anchor="middle" x="528.79" y="-1348.3" font-family="Times,serif" font-size="14.00">output</text>
</g>
<!-- n46 -->
<g id="node32" class="node">
<title>n46</title>
<ellipse fill="none" stroke="black" cx="838.43" cy="-1451" rx="76.09" ry="18"/>
<text text-anchor="middle" x="838.43" y="-1447.3" font-family="Times,serif" font-size="14.00">max_envelope</text>
</g>
<!-- n4&#45;&gt;n46 -->
<g id="edge35" class="edge">
<title>n4&#45;&gt;n46</title>
<path fill="none" stroke="black" d="M529.09,-1370.16C529.09,-1398.74 529.09,-1451 529.09,-1451 529.09,-1451 752.36,-1451 752.36,-1451"/>
<polygon fill="black" stroke="black" points="752.36,-1454.5 762.36,-1451 752.36,-1447.5 752.36,-1454.5"/>
<text text-anchor="middle" x="666.39" y="-1388.8" font-family="Times,serif" font-size="14.00">MAX_EMA</text>
</g>
<!-- n3 -->
<g id="node3" class="node">
<title>n3</title>
<ellipse fill="none" stroke="black" cx="354.19" cy="-1325" rx="27" ry="18"/>
<text text-anchor="middle" x="354.19" y="-1321.3" font-family="Times,serif" font-size="14.00">rhs</text>
</g>
<!-- n3&#45;&gt;n4 -->
<!-- n6 -->
<g id="node4" class="node">
<title>n6</title>
<ellipse fill="none" stroke="black" cx="3017.33" cy="-1533" rx="27" ry="18"/>
<text text-anchor="middle" x="3017.33" y="-1529.3" font-family="Times,serif" font-size="14.00">lhs</text>
</g>
<!-- n8 -->
<g id="node5" class="node">
<title>n8</title>
<ellipse fill="none" stroke="black" cx="3448.02" cy="-1479" rx="41.69" ry="18"/>
<text text-anchor="middle" x="3448.02" y="-1475.3" font-family="Times,serif" font-size="14.00">output</text>
</g>
<!-- n52 -->
<g id="node38" class="node">
<title>n52</title>
<ellipse fill="none" stroke="black" cx="4018.76" cy="-1375" rx="48.99" ry="18"/>
<text text-anchor="middle" x="4018.76" y="-1371.3" font-family="Times,serif" font-size="14.00">setpoint</text>
</g>
<!-- n8&#45;&gt;n52 -->
<g id="edge36" class="edge">
<title>n8&#45;&gt;n52</title>
<path fill="none" stroke="black" d="M3489.9,-1479C3614.8,-1479 3976.09,-1479 3976.09,-1479 3976.09,-1479 3976.09,-1393.87 3976.09,-1393.87"/>
<polygon fill="black" stroke="black" points="3979.59,-1393.87 3976.09,-1383.87 3972.59,-1393.87 3979.59,-1393.87"/>
<text text-anchor="middle" x="3711.61" y="-1435.8" font-family="Times,serif" font-size="14.00">LATENCY_SETPOINT</text>
</g>
<!-- n7 -->
<g id="node6" class="node">
<title>n7</title>
<ellipse fill="none" stroke="black" cx="3017.33" cy="-1479" rx="27" ry="18"/>
<text text-anchor="middle" x="3017.33" y="-1475.3" font-family="Times,serif" font-size="14.00">rhs</text>
</g>
<!-- n7&#45;&gt;n8 -->
<!-- n10 -->
<g id="node7" class="node">
<title>n10</title>
<ellipse fill="none" stroke="black" cx="2223.74" cy="-561" rx="27" ry="18"/>
<text text-anchor="middle" x="2223.74" y="-557.3" font-family="Times,serif" font-size="14.00">lhs</text>
</g>
<!-- n12 -->
<g id="node8" class="node">
<title>n12</title>
<ellipse fill="none" stroke="black" cx="2516.63" cy="-507" rx="41.69" ry="18"/>
<text text-anchor="middle" x="2516.63" y="-503.3" font-family="Times,serif" font-size="14.00">output</text>
</g>
<!-- n14 -->
<g id="node10" class="node">
<title>n14</title>
<ellipse fill="none" stroke="black" cx="2223.74" cy="-340" rx="27" ry="18"/>
<text text-anchor="middle" x="2223.74" y="-336.3" font-family="Times,serif" font-size="14.00">lhs</text>
</g>
<!-- n12&#45;&gt;n14 -->
<g id="edge22" class="edge">
<title>n12&#45;&gt;n14</title>
<path fill="none" stroke="black" d="M2517.09,-488.81C2517.09,-445.53 2517.09,-340 2517.09,-340 2517.09,-340 2260.81,-340 2260.81,-340"/>
<polygon fill="black" stroke="black" points="2260.81,-336.5 2250.81,-340 2260.81,-343.5 2260.81,-336.5"/>
<text text-anchor="middle" x="2369.54" y="-416.8" font-family="Times,serif" font-size="14.00">DELTA_CONCURRENCY</text>
</g>
<!-- n11 -->
<g id="node9" class="node">
<title>n11</title>
<ellipse fill="none" stroke="black" cx="2223.74" cy="-507" rx="27" ry="18"/>
<text text-anchor="middle" x="2223.74" y="-503.3" font-family="Times,serif" font-size="14.00">rhs</text>
</g>
<!-- n11&#45;&gt;n12 -->
<!-- n16 -->
<g id="node11" class="node">
<title>n16</title>
<ellipse fill="none" stroke="black" cx="2516.63" cy="-286" rx="41.69" ry="18"/>
<text text-anchor="middle" x="2516.63" y="-282.3" font-family="Times,serif" font-size="14.00">output</text>
</g>
<!-- n60 -->
<g id="node25" class="node">
<title>n60</title>
<ellipse fill="none" stroke="black" cx="1695.05" cy="-292" rx="88.28" ry="18"/>
<text text-anchor="middle" x="1695.05" y="-288.3" font-family="Times,serif" font-size="14.00">load_shed_factor</text>
</g>
<!-- n16&#45;&gt;n60 -->
<g id="edge23" class="edge">
<title>n16&#45;&gt;n60</title>
<path fill="none" stroke="black" d="M2517.09,-267.84C2517.09,-265.28 2517.09,-263.5 2517.09,-263.5 2517.09,-263.5 1695.09,-263.5 1695.09,-263.5 1695.09,-263.5 1695.09,-264.53 1695.09,-264.53"/>
<polygon fill="black" stroke="black" points="1691.59,-263.79 1695.09,-273.79 1698.59,-263.79 1691.59,-263.79"/>
<text text-anchor="middle" x="2223.74" y="-238.8" font-family="Times,serif" font-size="14.00">LSF</text>
</g>
<!-- n15 -->
<g id="node12" class="node">
<title>n15</title>
<ellipse fill="none" stroke="black" cx="2223.74" cy="-286" rx="27" ry="18"/>
<text text-anchor="middle" x="2223.74" y="-282.3" font-family="Times,serif" font-size="14.00">rhs</text>
</g>
<!-- n15&#45;&gt;n16 -->
<!-- n18 -->
<g id="node13" class="node">
<title>n18</title>
<ellipse fill="none" stroke="black" cx="2223.74" cy="-1200" rx="27" ry="18"/>
<text text-anchor="middle" x="2223.74" y="-1196.3" font-family="Times,serif" font-size="14.00">lhs</text>
</g>
<!-- n20 -->
<g id="node14" class="node">
<title>n20</title>
<ellipse fill="none" stroke="black" cx="2516.63" cy="-1155" rx="41.69" ry="18"/>
<text text-anchor="middle" x="2516.63" y="-1151.3" font-family="Times,serif" font-size="14.00">output</text>
</g>
<!-- n37 -->
<g id="node40" class="node">
<title>n37</title>
<ellipse fill="none" stroke="black" cx="3017.33" cy="-1179" rx="40.09" ry="18"/>
<text text-anchor="middle" x="3017.33" y="-1175.3" font-family="Times,serif" font-size="14.00">inputs</text>
</g>
<!-- n20&#45;&gt;n37 -->
<g id="edge24" class="edge">
<title>n20&#45;&gt;n37</title>
<path fill="none" stroke="black" d="M2547.95,-1167C2547.95,-1167 2977.29,-1167 2977.29,-1167"/>
<polygon fill="black" stroke="black" points="2977.29,-1170.5 2987.29,-1167 2977.29,-1163.5 2977.29,-1170.5"/>
<text text-anchor="middle" x="2763.73" y="-1166.8" font-family="Times,serif" font-size="14.00">UPPER_CONCURRENCY_LIMIT</text>
</g>
<!-- n19 -->
<g id="node15" class="node">
<title>n19</title>
<ellipse fill="none" stroke="black" cx="2223.74" cy="-1146" rx="27" ry="18"/>
<text text-anchor="middle" x="2223.74" y="-1142.3" font-family="Times,serif" font-size="14.00">rhs</text>
</g>
<!-- n19&#45;&gt;n20 -->
<!-- n22 -->
<g id="node16" class="node">
<title>n22</title>
<ellipse fill="none" stroke="black" cx="1357.66" cy="-1390" rx="27" ry="18"/>
<text text-anchor="middle" x="1357.66" y="-1386.3" font-family="Times,serif" font-size="14.00">lhs</text>
</g>
<!-- n24 -->
<g id="node17" class="node">
<title>n24</title>
<ellipse fill="none" stroke="black" cx="1695.05" cy="-1370" rx="41.69" ry="18"/>
<text text-anchor="middle" x="1695.05" y="-1366.3" font-family="Times,serif" font-size="14.00">output</text>
</g>
<!-- n63 -->
<g id="node30" class="node">
<title>n63</title>
<ellipse fill="none" stroke="black" cx="2223.74" cy="-979" rx="27" ry="18"/>
<text text-anchor="middle" x="2223.74" y="-975.3" font-family="Times,serif" font-size="14.00">rhs</text>
</g>
<!-- n24&#45;&gt;n63 -->
<g id="edge29" class="edge">
<title>n24&#45;&gt;n63</title>
<path fill="none" stroke="black" d="M1695.09,-1351.93C1695.09,-1275.03 1695.09,-979 1695.09,-979 1695.09,-979 2186.43,-979 2186.43,-979"/>
<polygon fill="black" stroke="black" points="2186.43,-982.5 2196.43,-979 2186.43,-975.5 2186.43,-982.5"/>
<text text-anchor="middle" x="2021.44" y="-1387.8" font-family="Times,serif" font-size="14.00">LATENCY_OVERLOAD</text>
</g>
<!-- n23 -->
<g id="node18" class="node">
<title>n23</title>
<ellipse fill="none" stroke="black" cx="1357.66" cy="-1336" rx="27" ry="18"/>
<text text-anchor="middle" x="1357.66" y="-1332.3" font-family="Times,serif" font-size="14.00">rhs</text>
</g>
<!-- n23&#45;&gt;n24 -->
<!-- n26 -->
<g id="node19" class="node">
<title>n26</title>
<ellipse fill="none" stroke="black" cx="3017.33" cy="-241" rx="27" ry="18"/>
<text text-anchor="middle" x="3017.33" y="-237.3" font-family="Times,serif" font-size="14.00">lhs</text>
</g>
<!-- n28 -->
<g id="node20" class="node">
<title>n28</title>
<ellipse fill="none" stroke="black" cx="3448.02" cy="-214" rx="41.69" ry="18"/>
<text text-anchor="middle" x="3448.02" y="-210.3" font-family="Times,serif" font-size="14.00">output</text>
</g>
<!-- n30 -->
<g id="node22" class="node">
<title>n30</title>
<ellipse fill="none" stroke="black" cx="4018.76" cy="-499" rx="27" ry="18"/>
<text text-anchor="middle" x="4018.76" y="-495.3" font-family="Times,serif" font-size="14.00">lhs</text>
</g>
<!-- n28&#45;&gt;n30 -->
<g id="edge37" class="edge">
<title>n28&#45;&gt;n30</title>
<path fill="none" stroke="black" d="M3490.01,-214C3621.89,-214 4019.09,-214 4019.09,-214 4019.09,-214 4019.09,-470.74 4019.09,-470.74"/>
<polygon fill="black" stroke="black" points="4015.59,-470.74 4019.09,-480.74 4022.59,-470.74 4015.59,-470.74"/>
<text text-anchor="middle" x="3711.61" y="-378.8" font-family="Times,serif" font-size="14.00">CONCURRENCY_INCREMENT_SINGLE_TICK</text>
</g>
<!-- n27 -->
<g id="node21" class="node">
<title>n27</title>
<ellipse fill="none" stroke="black" cx="3017.33" cy="-187" rx="27" ry="18"/>
<text text-anchor="middle" x="3017.33" y="-183.3" font-family="Times,serif" font-size="14.00">rhs</text>
</g>
<!-- n27&#45;&gt;n28 -->
<!-- n32 -->
<g id="node23" class="node">
<title>n32</title>
<ellipse fill="none" stroke="black" cx="4182.49" cy="-553" rx="41.69" ry="18"/>
<text text-anchor="middle" x="4182.49" y="-549.3" font-family="Times,serif" font-size="14.00">output</text>
</g>
<!-- n34 -->
<g id="node42" class="node">
<title>n34</title>
<ellipse fill="none" stroke="black" cx="2223.74" cy="-758" rx="40.09" ry="18"/>
<text text-anchor="middle" x="2223.74" y="-754.3" font-family="Times,serif" font-size="14.00">inputs</text>
</g>
<!-- n32&#45;&gt;n34 -->
<g id="edge38" class="edge">
<title>n32&#45;&gt;n34</title>
<path fill="none" stroke="black" d="M4183.09,-571.17C4183.09,-573.45 4183.09,-575 4183.09,-575 4183.09,-575 2255.09,-575 2255.09,-575 2255.09,-575 2255.09,-736.55 2255.09,-736.55"/>
<polygon fill="black" stroke="black" points="2251.59,-736.55 2255.09,-746.55 2258.59,-736.55 2251.59,-736.55"/>
<text text-anchor="middle" x="3235.92" y="-715.8" font-family="Times,serif" font-size="14.00">CONCURRENCY_INCREMENT_INTEGRAL</text>
</g>
<!-- n31 -->
<g id="node24" class="node">
<title>n31</title>
<ellipse fill="none" stroke="black" cx="4018.76" cy="-553" rx="27" ry="18"/>
<text text-anchor="middle" x="4018.76" y="-549.3" font-family="Times,serif" font-size="14.00">rhs</text>
</g>
<!-- n31&#45;&gt;n32 -->
<!-- n57 -->
<g id="node26" class="node">
<title>n57</title>
<ellipse fill="none" stroke="black" cx="1695.05" cy="-555" rx="113.98" ry="18"/>
<text text-anchor="middle" x="1695.05" y="-551.3" font-family="Times,serif" font-size="14.00">accepted_concurrency</text>
</g>
<!-- n57&#45;&gt;n19 -->
<g id="edge17" class="edge">
<title>n57&#45;&gt;n19</title>
<path fill="none" stroke="black" d="M1785.09,-566.02C1785.09,-646.92 1785.09,-1146 1785.09,-1146 1785.09,-1146 2186.63,-1146 2186.63,-1146"/>
<polygon fill="black" stroke="black" points="2186.63,-1149.5 2196.63,-1146 2186.63,-1142.5 2186.63,-1149.5"/>
<text text-anchor="middle" x="2021.44" y="-1055.8" font-family="Times,serif" font-size="14.00">ACCEPTED_CONCURRENCY</text>
</g>
<!-- n50 -->
<g id="node34" class="node">
<title>n50</title>
<ellipse fill="none" stroke="black" cx="4018.76" cy="-1321" rx="85.29" ry="18"/>
<text text-anchor="middle" x="4018.76" y="-1317.3" font-family="Times,serif" font-size="14.00">control_variable</text>
</g>
<!-- n57&#45;&gt;n50 -->
<g id="edge19" class="edge">
<title>n57&#45;&gt;n50</title>
<path fill="none" stroke="black" d="M1761.09,-569.79C1761.09,-675.54 1761.09,-1312.5 1761.09,-1312.5 1761.09,-1312.5 3933.64,-1312.5 3933.64,-1312.5"/>
<polygon fill="black" stroke="black" points="3933.64,-1316 3943.64,-1312.5 3933.64,-1309 3933.64,-1316"/>
<text text-anchor="middle" x="2763.73" y="-1354.8" font-family="Times,serif" font-size="14.00">ACCEPTED_CONCURRENCY</text>
</g>
<!-- n40 -->
<g id="node45" class="node">
<title>n40</title>
<ellipse fill="none" stroke="black" cx="2223.74" cy="-76" rx="35.19" ry="18"/>
<text text-anchor="middle" x="2223.74" y="-72.3" font-family="Times,serif" font-size="14.00">input</text>
</g>
<!-- n57&#45;&gt;n40 -->
<g id="edge18" class="edge">
<title>n57&#45;&gt;n40</title>
<path fill="none" stroke="black" d="M1797.04,-563C1942.75,-563 2193.09,-563 2193.09,-563 2193.09,-563 2193.09,-94.87 2193.09,-94.87"/>
<polygon fill="black" stroke="black" points="2196.59,-94.87 2193.09,-84.87 2189.59,-94.87 2196.59,-94.87"/>
<text text-anchor="middle" x="2021.44" y="-550.8" font-family="Times,serif" font-size="14.00">ACCEPTED_CONCURRENCY</text>
</g>
<!-- n58 -->
<g id="node27" class="node">
<title>n58</title>
<ellipse fill="none" stroke="black" cx="1695.05" cy="-501" rx="114.28" ry="18"/>
<text text-anchor="middle" x="1695.05" y="-497.3" font-family="Times,serif" font-size="14.00">incoming_concurrency</text>
</g>
<!-- n58&#45;&gt;n10 -->
<g id="edge20" class="edge">
<title>n58&#45;&gt;n10</title>
<path fill="none" stroke="black" d="M1807.95,-504C1893.74,-504 1997.09,-504 1997.09,-504 1997.09,-504 1997.09,-553 1997.09,-553 1997.09,-553 2189.49,-553 2189.49,-553"/>
<polygon fill="black" stroke="black" points="2189.49,-556.5 2199.49,-553 2189.48,-549.5 2189.49,-556.5"/>
<text text-anchor="middle" x="2021.44" y="-508.8" font-family="Times,serif" font-size="14.00">INCOMING_CONCURRENCY</text>
</g>
<!-- n58&#45;&gt;n15 -->
<g id="edge21" class="edge">
<title>n58&#45;&gt;n15</title>
<path fill="none" stroke="black" d="M1797.09,-492.69C1797.09,-453.49 1797.09,-289 1797.09,-289 1797.09,-289 2187.05,-289 2187.05,-289"/>
<polygon fill="black" stroke="black" points="2187.05,-292.5 2197.05,-289 2187.05,-285.5 2187.05,-292.5"/>
<text text-anchor="middle" x="2021.44" y="-407.8" font-family="Times,serif" font-size="14.00">INCOMING_CONCURRENCY</text>
</g>
<!-- n62 -->
<g id="node28" class="node">
<title>n62</title>
<ellipse fill="none" stroke="black" cx="2223.74" cy="-925" rx="27" ry="18"/>
<text text-anchor="middle" x="2223.74" y="-921.3" font-family="Times,serif" font-size="14.00">lhs</text>
</g>
<!-- n64 -->
<g id="node29" class="node">
<title>n64</title>
<ellipse fill="none" stroke="black" cx="2516.63" cy="-979" rx="41.69" ry="18"/>
<text text-anchor="middle" x="2516.63" y="-975.3" font-family="Times,serif" font-size="14.00">output</text>
</g>
<!-- n68 -->
<g id="node50" class="node">
<title>n68</title>
<ellipse fill="none" stroke="black" cx="3017.33" cy="-991" rx="40.89" ry="18"/>
<text text-anchor="middle" x="3017.33" y="-987.3" font-family="Times,serif" font-size="14.00">switch</text>
</g>
<!-- n64&#45;&gt;n68 -->
<g id="edge26" class="edge">
<title>n64&#45;&gt;n68</title>
<path fill="none" stroke="black" d="M2555.92,-985C2555.92,-985 2968.56,-985 2968.56,-985"/>
<polygon fill="black" stroke="black" points="2968.56,-988.5 2978.56,-985 2968.56,-981.5 2968.56,-988.5"/>
<text text-anchor="middle" x="2763.73" y="-988.8" font-family="Times,serif" font-size="14.00">IS_OVERLOAD_SWITCH</text>
</g>
<!-- n73 -->
<g id="node54" class="node">
<title>n73</title>
<ellipse fill="none" stroke="black" cx="3017.33" cy="-553" rx="40.89" ry="18"/>
<text text-anchor="middle" x="3017.33" y="-549.3" font-family="Times,serif" font-size="14.00">switch</text>
</g>
<!-- n64&#45;&gt;n73 -->
<g id="edge27" class="edge">
<title>n64&#45;&gt;n73</title>
<path fill="none" stroke="black" d="M2547.84,-967C2627.68,-967 2833.09,-967 2833.09,-967 2833.09,-967 2833.09,-557 2833.09,-557 2833.09,-557 2967.35,-557 2967.35,-557"/>
<polygon fill="black" stroke="black" points="2967.35,-560.5 2977.35,-557 2967.35,-553.5 2967.35,-560.5"/>
<text text-anchor="middle" x="2763.73" y="-912.8" font-family="Times,serif" font-size="14.00">IS_OVERLOAD_SWITCH</text>
</g>
<!-- n63&#45;&gt;n64 -->
<!-- n45 -->
<g id="node31" class="node">
<title>n45</title>
<ellipse fill="none" stroke="black" cx="838.43" cy="-1505" rx="35.19" ry="18"/>
<text text-anchor="middle" x="838.43" y="-1501.3" font-family="Times,serif" font-size="14.00">input</text>
</g>
<!-- n47 -->
<g id="node33" class="node">
<title>n47</title>
<ellipse fill="none" stroke="black" cx="1062.07" cy="-1451" rx="41.69" ry="18"/>
<text text-anchor="middle" x="1062.07" y="-1447.3" font-family="Times,serif" font-size="14.00">output</text>
</g>
<!-- n46&#45;&gt;n47 -->
<!-- n47&#45;&gt;n6 -->
<g id="edge39" class="edge">
<title>n47&#45;&gt;n6</title>
<path fill="none" stroke="black" d="M1062.09,-1469.22C1062.09,-1489.37 1062.09,-1519 1062.09,-1519 1062.09,-1519 2990.12,-1519 2990.12,-1519"/>
<polygon fill="black" stroke="black" points="2990.12,-1522.5 3000.12,-1519 2990.12,-1515.5 2990.12,-1522.5"/>
<text text-anchor="middle" x="2021.44" y="-1544.8" font-family="Times,serif" font-size="14.00">LATENCY_EMA</text>
</g>
<!-- n47&#45;&gt;n22 -->
<g id="edge40" class="edge">
<title>n47&#45;&gt;n22</title>
<path fill="none" stroke="black" d="M1095.16,-1440C1172.41,-1440 1358.09,-1440 1358.09,-1440 1358.09,-1440 1358.09,-1418.05 1358.09,-1418.05"/>
<polygon fill="black" stroke="black" points="1361.59,-1418.05 1358.09,-1408.05 1354.59,-1418.05 1361.59,-1418.05"/>
<text text-anchor="middle" x="1217.16" y="-1420.8" font-family="Times,serif" font-size="14.00">LATENCY_EMA</text>
</g>
<!-- n49 -->
<g id="node35" class="node">
<title>n49</title>
<ellipse fill="none" stroke="black" cx="4018.76" cy="-1267" rx="30.59" ry="18"/>
<text text-anchor="middle" x="4018.76" y="-1263.3" font-family="Times,serif" font-size="14.00">max</text>
</g>
<!-- n53 -->
<g id="node36" class="node">
<title>n53</title>
<ellipse fill="none" stroke="black" cx="4018.76" cy="-1213" rx="50.89" ry="18"/>
<text text-anchor="middle" x="4018.76" y="-1209.3" font-family="Times,serif" font-size="14.00">optimize</text>
</g>
<!-- n54 -->
<g id="node37" class="node">
<title>n54</title>
<ellipse fill="none" stroke="black" cx="4182.49" cy="-1213" rx="41.69" ry="18"/>
<text text-anchor="middle" x="4182.49" y="-1209.3" font-family="Times,serif" font-size="14.00">output</text>
</g>
<!-- n53&#45;&gt;n54 -->
<!-- n54&#45;&gt;n11 -->
<g id="edge34" class="edge">
<title>n54&#45;&gt;n11</title>
<path fill="none" stroke="black" d="M4143.2,-1219C4132.16,-1219 4123.09,-1219 4123.09,-1219 4123.09,-1219 4123.09,-530 4123.09,-530 4123.09,-530 2224.09,-530 2224.09,-530 2224.09,-530 2224.09,-529.51 2224.09,-529.51"/>
<polygon fill="black" stroke="black" points="2227.59,-535.12 2224.09,-525.12 2220.59,-535.12 2227.59,-535.12"/>
<text text-anchor="middle" x="3235.92" y="-753.8" font-family="Times,serif" font-size="14.00">DESIRED_CONCURRENCY</text>
</g>
<!-- n51 -->
<g id="node39" class="node">
<title>n51</title>
<ellipse fill="none" stroke="black" cx="4018.76" cy="-1429" rx="38.19" ry="18"/>
<text text-anchor="middle" x="4018.76" y="-1425.3" font-family="Times,serif" font-size="14.00">signal</text>
</g>
<!-- n38 -->
<g id="node41" class="node">
<title>n38</title>
<ellipse fill="none" stroke="black" cx="3448.02" cy="-1179" rx="41.69" ry="18"/>
<text text-anchor="middle" x="3448.02" y="-1175.3" font-family="Times,serif" font-size="14.00">output</text>
</g>
<!-- n37&#45;&gt;n38 -->
<!-- n38&#45;&gt;n49 -->
<g id="edge44" class="edge">
<title>n38&#45;&gt;n49</title>
<path fill="none" stroke="black" d="M3448.09,-1197.23C3448.09,-1223.01 3448.09,-1267 3448.09,-1267 3448.09,-1267 3978.07,-1267 3978.07,-1267"/>
<polygon fill="black" stroke="black" points="3978.07,-1270.5 3988.07,-1267 3978.07,-1263.5 3978.07,-1270.5"/>
<text text-anchor="middle" x="3711.61" y="-1241.8" font-family="Times,serif" font-size="14.00">MAX_CONCURRENCY</text>
</g>
<!-- n35 -->
<g id="node43" class="node">
<title>n35</title>
<ellipse fill="none" stroke="black" cx="2516.63" cy="-758" rx="41.69" ry="18"/>
<text text-anchor="middle" x="2516.63" y="-754.3" font-family="Times,serif" font-size="14.00">output</text>
</g>
<!-- n34&#45;&gt;n35 -->
<!-- n67 -->
<g id="node47" class="node">
<title>n67</title>
<ellipse fill="none" stroke="black" cx="3017.33" cy="-883" rx="48.19" ry="18"/>
<text text-anchor="middle" x="3017.33" y="-879.3" font-family="Times,serif" font-size="14.00">on_false</text>
</g>
<!-- n35&#45;&gt;n67 -->
<g id="edge42" class="edge">
<title>n35&#45;&gt;n67</title>
<path fill="none" stroke="black" d="M2517.09,-776.18C2517.09,-810.84 2517.09,-883 2517.09,-883 2517.09,-883 2958.91,-883 2958.91,-883"/>
<polygon fill="black" stroke="black" points="2958.91,-886.5 2968.91,-883 2958.91,-879.5 2958.91,-886.5"/>
<text text-anchor="middle" x="2763.73" y="-830.8" font-family="Times,serif" font-size="14.00">CONCURRENCY_INCREMENT_NORMAL</text>
</g>
<!-- n72 -->
<g id="node51" class="node">
<title>n72</title>
<ellipse fill="none" stroke="black" cx="3017.33" cy="-445" rx="48.19" ry="18"/>
<text text-anchor="middle" x="3017.33" y="-441.3" font-family="Times,serif" font-size="14.00">on_false</text>
</g>
<!-- n35&#45;&gt;n72 -->
<g id="edge43" class="edge">
<title>n35&#45;&gt;n72</title>
<path fill="none" stroke="black" d="M2558.26,-758C2611.27,-758 2696.09,-758 2696.09,-758 2696.09,-758 2696.09,-445 2696.09,-445 2696.09,-445 2958.89,-445 2958.89,-445"/>
<polygon fill="black" stroke="black" points="2958.89,-448.5 2968.89,-445 2958.89,-441.5 2958.89,-448.5"/>
<text text-anchor="middle" x="2763.73" y="-566.8" font-family="Times,serif" font-size="14.00">CONCURRENCY_INCREMENT_NORMAL</text>
</g>
<!-- n43 -->
<g id="node44" class="node">
<title>n43</title>
<ellipse fill="none" stroke="black" cx="99.6" cy="-1491" rx="41.69" ry="18"/>
<text text-anchor="middle" x="99.6" y="-1487.3" font-family="Times,serif" font-size="14.00">output</text>
</g>
<!-- n43&#45;&gt;n2 -->
<g id="edge30" class="edge">
<title>n43&#45;&gt;n2</title>
<path fill="none" stroke="black" d="M132.74,-1480C201.87,-1480 355.09,-1480 355.09,-1480 355.09,-1480 355.09,-1407.06 355.09,-1407.06"/>
<polygon fill="black" stroke="black" points="358.59,-1407.06 355.09,-1397.06 351.59,-1407.06 358.59,-1407.06"/>
<text text-anchor="middle" x="234.19" y="-1447.8" font-family="Times,serif" font-size="14.00">LATENCY</text>
</g>
<!-- n43&#45;&gt;n62 -->
<g id="edge33" class="edge">
<title>n43&#45;&gt;n62</title>
<path fill="none" stroke="black" d="M86.09,-1473.75C86.09,-1378.89 86.09,-925 86.09,-925 86.09,-925 2186.71,-925 2186.71,-925"/>
<polygon fill="black" stroke="black" points="2186.71,-928.5 2196.71,-925 2186.71,-921.5 2186.71,-928.5"/>
<text text-anchor="middle" x="967.47" y="-975.8" font-family="Times,serif" font-size="14.00">LATENCY</text>
</g>
<!-- n43&#45;&gt;n45 -->
<g id="edge31" class="edge">
<title>n43&#45;&gt;n45</title>
<path fill="none" stroke="black" d="M138.02,-1498C138.02,-1498 796.08,-1498 796.08,-1498"/>
<polygon fill="black" stroke="black" points="796.08,-1501.5 806.08,-1498 796.08,-1494.5 796.08,-1501.5"/>
<text text-anchor="middle" x="434.19" y="-1541.8" font-family="Times,serif" font-size="14.00">LATENCY</text>
</g>
<!-- n43&#45;&gt;n51 -->
<g id="edge32" class="edge">
<title>n43&#45;&gt;n51</title>
<path fill="none" stroke="black" d="M114.09,-1473.94C114.09,-1453.51 114.09,-1422 114.09,-1422 114.09,-1422 3973.2,-1422 3973.2,-1422"/>
<polygon fill="black" stroke="black" points="3973.2,-1425.5 3983.2,-1422 3973.2,-1418.5 3973.2,-1425.5"/>
<text text-anchor="middle" x="1437.66" y="-1687.8" font-family="Times,serif" font-size="14.00">LATENCY</text>
</g>
<!-- n41 -->
<g id="node46" class="node">
<title>n41</title>
<ellipse fill="none" stroke="black" cx="2516.63" cy="-76" rx="41.69" ry="18"/>
<text text-anchor="middle" x="2516.63" y="-72.3" font-family="Times,serif" font-size="14.00">output</text>
</g>
<!-- n40&#45;&gt;n41 -->
<!-- n41&#45;&gt;n27 -->
<g id="edge25" class="edge">
<title>n41&#45;&gt;n27</title>
<path fill="none" stroke="black" d="M2558.52,-76C2679.05,-76 3018.09,-76 3018.09,-76 3018.09,-76 3018.09,-158.67 3018.09,-158.67"/>
<polygon fill="black" stroke="black" points="3014.59,-158.67 3018.09,-168.67 3021.59,-158.67 3014.59,-158.67"/>
<text text-anchor="middle" x="2763.73" y="-153.8" font-family="Times,serif" font-size="14.00">SQRT_CONCURRENCY_INCREMENT</text>
</g>
<!-- n66 -->
<g id="node48" class="node">
<title>n66</title>
<ellipse fill="none" stroke="black" cx="3017.33" cy="-937" rx="46.29" ry="18"/>
<text text-anchor="middle" x="3017.33" y="-933.3" font-family="Times,serif" font-size="14.00">on_true</text>
</g>
<!-- n69 -->
<g id="node49" class="node">
<title>n69</title>
<ellipse fill="none" stroke="black" cx="3448.02" cy="-991" rx="41.69" ry="18"/>
<text text-anchor="middle" x="3448.02" y="-987.3" font-family="Times,serif" font-size="14.00">output</text>
</g>
<!-- n69&#45;&gt;n53 -->
<g id="edge41" class="edge">
<title>n69&#45;&gt;n53</title>
<path fill="none" stroke="black" d="M3489.77,-991C3615.2,-991 3980.09,-991 3980.09,-991 3980.09,-991 3980.09,-1191.06 3980.09,-1191.06"/>
<polygon fill="black" stroke="black" points="3976.59,-1191.06 3980.09,-1201.06 3983.59,-1191.06 3976.59,-1191.06"/>
<text text-anchor="middle" x="3711.61" y="-1149.8" font-family="Times,serif" font-size="14.00">CONCURRENCY_INCREMENT</text>
</g>
<!-- n68&#45;&gt;n69 -->
<!-- n71 -->
<g id="node52" class="node">
<title>n71</title>
<ellipse fill="none" stroke="black" cx="3017.33" cy="-499" rx="46.29" ry="18"/>
<text text-anchor="middle" x="3017.33" y="-495.3" font-family="Times,serif" font-size="14.00">on_true</text>
</g>
<!-- n74 -->
<g id="node53" class="node">
<title>n74</title>
<ellipse fill="none" stroke="black" cx="3448.02" cy="-553" rx="41.69" ry="18"/>
<text text-anchor="middle" x="3448.02" y="-549.3" font-family="Times,serif" font-size="14.00">output</text>
</g>
<!-- n74&#45;&gt;n31 -->
<g id="edge28" class="edge">
<title>n74&#45;&gt;n31</title>
<path fill="none" stroke="black" d="M3489.99,-553C3489.99,-553 3981.57,-553 3981.57,-553"/>
<polygon fill="black" stroke="black" points="3981.57,-556.5 3991.57,-553 3981.57,-549.5 3981.57,-556.5"/>
<text text-anchor="middle" x="3711.61" y="-556.8" font-family="Times,serif" font-size="14.00">CONCURRENCY_INCREMENT_FEEDBACK</text>
</g>
<!-- n73&#45;&gt;n74 -->
</g>
</svg>
