<?xml version="1.0" encoding="UTF-8" standalone="no"?>
<!DOCTYPE svg PUBLIC "-//W3C//DTD SVG 1.1//EN"
 "http://www.w3.org/Graphics/SVG/1.1/DTD/svg11.dtd">
<!-- Generated by graphviz version 6.0.1 (20220911.1526)
 -->
<!-- Pages: 1 -->
<svg width="4235pt" height="2647pt"
 viewBox="0.00 0.00 4235.14 2647.00" xmlns="http://www.w3.org/2000/svg" xmlns:xlink="http://www.w3.org/1999/xlink">
<g id="graph0" class="graph" transform="scale(1 1) rotate(0) translate(4 2643)">
<polygon fill="white" stroke="none" points="-4,4 -4,-2643 4231.14,-2643 4231.14,4 -4,4"/>
<g id="clust1" class="cluster">
<title>cluster_s1</title>
<polygon fill="none" stroke="black" points="18.4,-1861 18.4,-2074 580.39,-2074 580.39,-1861 18.4,-1861"/>
<text text-anchor="middle" x="299.39" y="-2058.8" font-family="Times,serif" font-size="14.00">ArithmeticCombinator[0]</text>
</g>
<g id="clust4" class="cluster">
<title>cluster_s6</title>
<polygon fill="none" stroke="black" points="2420.49,-2418 2420.49,-2631 3484.66,-2631 3484.66,-2418 2420.49,-2418"/>
<text text-anchor="middle" x="2952.58" y="-2615.8" font-family="Times,serif" font-size="14.00">ArithmeticCombinator[1]</text>
</g>
<g id="clust7" class="cluster">
<title>cluster_s11</title>
<polygon fill="none" stroke="black" points="2096.34,-725 2096.34,-938 2593.28,-938 2593.28,-725 2096.34,-725"/>
<text text-anchor="middle" x="2344.81" y="-922.8" font-family="Times,serif" font-size="14.00">ArithmeticCombinator[2]</text>
</g>
<g id="clust10" class="cluster">
<title>cluster_s15</title>
<polygon fill="none" stroke="black" points="2096.34,-504 2096.34,-717 2593.28,-717 2593.28,-504 2096.34,-504"/>
<text text-anchor="middle" x="2344.81" y="-701.8" font-family="Times,serif" font-size="14.00">ArithmeticCombinator[3]</text>
</g>
<g id="clust13" class="cluster">
<title>cluster_s19</title>
<polygon fill="none" stroke="black" points="1563.46,-2197 1563.46,-2410 2593.28,-2410 2593.28,-2197 1563.46,-2197"/>
<text text-anchor="middle" x="2078.37" y="-2394.8" font-family="Times,serif" font-size="14.00">ArithmeticCombinator[4]</text>
</g>
<g id="clust16" class="cluster">
<title>cluster_s24</title>
<polygon fill="none" stroke="black" points="970.47,-1456 970.47,-1669 1736.25,-1669 1736.25,-1456 970.47,-1456"/>
<text text-anchor="middle" x="1353.36" y="-1653.8" font-family="Times,serif" font-size="14.00">ArithmeticCombinator[5]</text>
</g>
<g id="clust19" class="cluster">
<title>cluster_s29</title>
<polygon fill="none" stroke="black" points="2420.49,-8 2420.49,-221 3484.66,-221 3484.66,-8 2420.49,-8"/>
<text text-anchor="middle" x="2952.58" y="-205.8" font-family="Times,serif" font-size="14.00">ArithmeticCombinator[6]</text>
</g>
<g id="clust22" class="cluster">
<title>cluster_s34</title>
<polygon fill="none" stroke="black" points="3886.81,-283 3886.81,-496 4219.14,-496 4219.14,-283 3886.81,-283"/>
<text text-anchor="middle" x="4052.97" y="-480.8" font-family="Times,serif" font-size="14.00">ArithmeticCombinator[7]</text>
</g>
<g id="clust25" class="cluster">
<title>cluster_s61</title>
<polygon fill="none" stroke="black" points="1430.27,-633 1430.27,-1178 1859.04,-1178 1859.04,-633 1430.27,-633"/>
<text text-anchor="middle" x="1644.66" y="-1162.8" font-family="Times,serif" font-size="14.00">ConcurrencyLimiter[14]</text>
</g>
<g id="clust26" class="cluster">
<title>cluster_s65</title>
<polygon fill="none" stroke="black" points="1488.26,-683 1488.26,-842 1802.05,-842 1802.05,-683 1488.26,-683"/>
<text text-anchor="middle" x="1645.16" y="-826.8" font-family="Times,serif" font-size="14.00">LoadShedActuator[14.LoadShedActuator]</text>
</g>
<g id="clust28" class="cluster">
<title>cluster_s62</title>
<polygon fill="none" stroke="black" points="1480.27,-892 1480.27,-1105 1809.04,-1105 1809.04,-892 1480.27,-892"/>
<text text-anchor="middle" x="1644.66" y="-1089.8" font-family="Times,serif" font-size="14.00">Scheduler[14.Scheduler]</text>
</g>
<g id="clust30" class="cluster">
<title>cluster_s67</title>
<polygon fill="none" stroke="black" points="2096.34,-1422 2096.34,-1635 2593.28,-1635 2593.28,-1422 2096.34,-1422"/>
<text text-anchor="middle" x="2344.81" y="-1619.8" font-family="Times,serif" font-size="14.00">Decider[15]</text>
</g>
<g id="clust33" class="cluster">
<title>cluster_s50</title>
<polygon fill="none" stroke="black" points="672.39,-1842 672.39,-2055 1143.27,-2055 1143.27,-1842 672.39,-1842"/>
<text text-anchor="middle" x="907.83" y="-2039.8" font-family="Times,serif" font-size="14.00">EMA[12]</text>
</g>
<g id="clust36" class="cluster">
<title>cluster_s54</title>
<polygon fill="none" stroke="black" points="3828.66,-1586 3828.66,-1961 4219.14,-1961 4219.14,-1586 3828.66,-1586"/>
<text text-anchor="middle" x="4023.9" y="-1945.8" font-family="Times,serif" font-size="14.00">Gradient[13]</text>
</g>
<g id="clust39" class="cluster">
<title>cluster_s41</title>
<polygon fill="none" stroke="black" points="2414.64,-2030 2414.64,-2189 3484.66,-2189 3484.66,-2030 2414.64,-2030"/>
<text text-anchor="middle" x="2949.65" y="-2173.8" font-family="Times,serif" font-size="14.00">Max[9]</text>
</g>
<g id="clust42" class="cluster">
<title>cluster_s38</title>
<polygon fill="none" stroke="black" points="2083.04,-1143 2083.04,-1302 2593.28,-1302 2593.28,-1143 2083.04,-1143"/>
<text text-anchor="middle" x="2338.16" y="-1286.8" font-family="Times,serif" font-size="14.00">Min[8]</text>
</g>
<g id="clust45" class="cluster">
<title>cluster_s48</title>
<polygon fill="none" stroke="black" points="8,-1692 8,-1851 191.19,-1851 191.19,-1692 8,-1692"/>
<text text-anchor="middle" x="99.6" y="-1835.8" font-family="Times,serif" font-size="14.00">PromQL[11]</text>
</g>
<g id="clust47" class="cluster">
<title>cluster_s45</title>
<polygon fill="none" stroke="black" points="2088.24,-946 2088.24,-1105 2593.28,-1105 2593.28,-946 2088.24,-946"/>
<text text-anchor="middle" x="2340.76" y="-1089.8" font-family="Times,serif" font-size="14.00">Sqrt[10]</text>
</g>
<g id="clust50" class="cluster">
<title>cluster_s71</title>
<polygon fill="none" stroke="black" points="2414.64,-1755 2414.64,-2022 3484.66,-2022 3484.66,-1755 2414.64,-1755"/>
<text text-anchor="middle" x="2949.65" y="-2006.8" font-family="Times,serif" font-size="14.00">Switcher[16]</text>
</g>
<g id="clust53" class="cluster">
<title>cluster_s77</title>
<polygon fill="none" stroke="black" points="2420.49,-229 2420.49,-496 3484.66,-496 3484.66,-229 2420.49,-229"/>
<text text-anchor="middle" x="2952.58" y="-480.8" font-family="Times,serif" font-size="14.00">Switcher[17]</text>
</g>
<!-- n4 -->
<g id="node1" class="node">
<title>n4</title>
<ellipse fill="none" stroke="black" cx="99.6" cy="-1983" rx="31.4" ry="18"/>
<text text-anchor="middle" x="99.6" y="-1979.3" font-family="Times,serif" font-size="14.00">2.00</text>
</g>
<!-- n3 -->
<g id="node4" class="node">
<title>n3</title>
<ellipse fill="none" stroke="black" cx="314.19" cy="-1983" rx="27" ry="18"/>
<text text-anchor="middle" x="314.19" y="-1979.3" font-family="Times,serif" font-size="14.00">rhs</text>
</g>
<!-- n4&#45;&gt;n3 -->
<g id="edge1" class="edge">
<title>n4&#45;&gt;n3</title>
<path fill="none" stroke="black" d="M130.8,-1983C130.8,-1983 277.03,-1983 277.03,-1983"/>
<polygon fill="black" stroke="black" points="277.03,-1986.5 287.03,-1983 277.03,-1979.5 277.03,-1986.5"/>
</g>
<!-- n2 -->
<g id="node2" class="node">
<title>n2</title>
<ellipse fill="none" stroke="black" cx="314.19" cy="-1929" rx="27" ry="18"/>
<text text-anchor="middle" x="314.19" y="-1925.3" font-family="Times,serif" font-size="14.00">lhs</text>
</g>
<!-- n5 -->
<g id="node3" class="node">
<title>n5</title>
<ellipse fill="none" stroke="black" cx="488.79" cy="-1975" rx="41.69" ry="18"/>
<text text-anchor="middle" x="488.79" y="-1971.3" font-family="Times,serif" font-size="14.00">output</text>
</g>
<!-- n52 -->
<g id="node37" class="node">
<title>n52</title>
<ellipse fill="none" stroke="black" cx="798.43" cy="-1964" rx="76.09" ry="18"/>
<text text-anchor="middle" x="798.43" y="-1960.3" font-family="Times,serif" font-size="14.00">max_envelope</text>
</g>
<!-- n5&#45;&gt;n52 -->
<g id="edge31" class="edge">
<title>n5&#45;&gt;n52</title>
<path fill="none" stroke="black" d="M528.63,-1969.5C528.63,-1969.5 715.92,-1969.5 715.92,-1969.5"/>
<polygon fill="black" stroke="black" points="715.92,-1973 725.92,-1969.5 715.91,-1966 715.92,-1973"/>
<text text-anchor="middle" x="626.39" y="-1969.8" font-family="Times,serif" font-size="14.00">MAX_EMA</text>
</g>
<!-- n3&#45;&gt;n5 -->
<!-- n9 -->
<g id="node5" class="node">
<title>n9</title>
<ellipse fill="none" stroke="black" cx="2501.68" cy="-2540" rx="31.4" ry="18"/>
<text text-anchor="middle" x="2501.68" y="-2536.3" font-family="Times,serif" font-size="14.00">1.10</text>
</g>
<!-- n8 -->
<g id="node8" class="node">
<title>n8</title>
<ellipse fill="none" stroke="black" cx="2962.38" cy="-2540" rx="27" ry="18"/>
<text text-anchor="middle" x="2962.38" y="-2536.3" font-family="Times,serif" font-size="14.00">rhs</text>
</g>
<!-- n9&#45;&gt;n8 -->
<g id="edge3" class="edge">
<title>n9&#45;&gt;n8</title>
<path fill="none" stroke="black" d="M2532.99,-2540C2532.99,-2540 2925.16,-2540 2925.16,-2540"/>
<polygon fill="black" stroke="black" points="2925.16,-2543.5 2935.16,-2540 2925.16,-2536.5 2925.16,-2543.5"/>
</g>
<!-- n7 -->
<g id="node6" class="node">
<title>n7</title>
<ellipse fill="none" stroke="black" cx="2962.38" cy="-2486" rx="27" ry="18"/>
<text text-anchor="middle" x="2962.38" y="-2482.3" font-family="Times,serif" font-size="14.00">lhs</text>
</g>
<!-- n10 -->
<g id="node7" class="node">
<title>n10</title>
<ellipse fill="none" stroke="black" cx="3393.07" cy="-2513" rx="41.69" ry="18"/>
<text text-anchor="middle" x="3393.07" y="-2509.3" font-family="Times,serif" font-size="14.00">output</text>
</g>
<!-- n59 -->
<g id="node43" class="node">
<title>n59</title>
<ellipse fill="none" stroke="black" cx="3963.81" cy="-1870" rx="48.99" ry="18"/>
<text text-anchor="middle" x="3963.81" y="-1866.3" font-family="Times,serif" font-size="14.00">setpoint</text>
</g>
<!-- n10&#45;&gt;n59 -->
<g id="edge32" class="edge">
<title>n10&#45;&gt;n59</title>
<path fill="none" stroke="black" d="M3435.06,-2513C3566.94,-2513 3964.14,-2513 3964.14,-2513 3964.14,-2513 3964.14,-1898.21 3964.14,-1898.21"/>
<polygon fill="black" stroke="black" points="3967.64,-1898.21 3964.14,-1888.21 3960.64,-1898.21 3967.64,-1898.21"/>
<text text-anchor="middle" x="3656.66" y="-2203.8" font-family="Times,serif" font-size="14.00">LATENCY_SETPOINT</text>
</g>
<!-- n8&#45;&gt;n10 -->
<!-- n12 -->
<g id="node9" class="node">
<title>n12</title>
<ellipse fill="none" stroke="black" cx="2173.34" cy="-847" rx="27" ry="18"/>
<text text-anchor="middle" x="2173.34" y="-843.3" font-family="Times,serif" font-size="14.00">lhs</text>
</g>
<!-- n14 -->
<g id="node10" class="node">
<title>n14</title>
<ellipse fill="none" stroke="black" cx="2501.68" cy="-847" rx="41.69" ry="18"/>
<text text-anchor="middle" x="2501.68" y="-843.3" font-family="Times,serif" font-size="14.00">output</text>
</g>
<!-- n16 -->
<g id="node12" class="node">
<title>n16</title>
<ellipse fill="none" stroke="black" cx="2173.34" cy="-626" rx="27" ry="18"/>
<text text-anchor="middle" x="2173.34" y="-622.3" font-family="Times,serif" font-size="14.00">lhs</text>
</g>
<!-- n14&#45;&gt;n16 -->
<g id="edge52" class="edge">
<title>n14&#45;&gt;n16</title>
<path fill="none" stroke="black" d="M2523.14,-831.46C2523.14,-781.16 2523.14,-626 2523.14,-626 2523.14,-626 2210.5,-626 2210.5,-626"/>
<polygon fill="black" stroke="black" points="2210.5,-622.5 2200.5,-626 2210.5,-629.5 2210.5,-622.5"/>
<text text-anchor="middle" x="2319.14" y="-701.8" font-family="Times,serif" font-size="14.00">DELTA_CONCURRENCY</text>
</g>
<!-- n13 -->
<g id="node11" class="node">
<title>n13</title>
<ellipse fill="none" stroke="black" cx="2173.34" cy="-793" rx="27" ry="18"/>
<text text-anchor="middle" x="2173.34" y="-789.3" font-family="Times,serif" font-size="14.00">rhs</text>
</g>
<!-- n13&#45;&gt;n14 -->
<!-- n18 -->
<g id="node13" class="node">
<title>n18</title>
<ellipse fill="none" stroke="black" cx="2501.68" cy="-572" rx="41.69" ry="18"/>
<text text-anchor="middle" x="2501.68" y="-568.3" font-family="Times,serif" font-size="14.00">output</text>
</g>
<!-- n66 -->
<g id="node30" class="node">
<title>n66</title>
<ellipse fill="none" stroke="black" cx="1644.66" cy="-751" rx="88.28" ry="18"/>
<text text-anchor="middle" x="1644.66" y="-747.3" font-family="Times,serif" font-size="14.00">load_shed_factor</text>
</g>
<!-- n18&#45;&gt;n66 -->
<g id="edge44" class="edge">
<title>n18&#45;&gt;n66</title>
<path fill="none" stroke="black" d="M2481.14,-587.89C2481.14,-631.69 2481.14,-751 2481.14,-751 2481.14,-751 1743.38,-751 1743.38,-751"/>
<polygon fill="black" stroke="black" points="1743.38,-747.5 1733.38,-751 1743.38,-754.5 1743.38,-747.5"/>
<text text-anchor="middle" x="2173.34" y="-524.8" font-family="Times,serif" font-size="14.00">LSF</text>
</g>
<!-- n17 -->
<g id="node14" class="node">
<title>n17</title>
<ellipse fill="none" stroke="black" cx="2173.34" cy="-572" rx="27" ry="18"/>
<text text-anchor="middle" x="2173.34" y="-568.3" font-family="Times,serif" font-size="14.00">rhs</text>
</g>
<!-- n17&#45;&gt;n18 -->
<!-- n22 -->
<g id="node15" class="node">
<title>n22</title>
<ellipse fill="none" stroke="black" cx="1644.66" cy="-2319" rx="31.4" ry="18"/>
<text text-anchor="middle" x="1644.66" y="-2315.3" font-family="Times,serif" font-size="14.00">2.00</text>
</g>
<!-- n21 -->
<g id="node16" class="node">
<title>n21</title>
<ellipse fill="none" stroke="black" cx="2173.34" cy="-2319" rx="27" ry="18"/>
<text text-anchor="middle" x="2173.34" y="-2315.3" font-family="Times,serif" font-size="14.00">lhs</text>
</g>
<!-- n22&#45;&gt;n21 -->
<g id="edge7" class="edge">
<title>n22&#45;&gt;n21</title>
<path fill="none" stroke="black" d="M1676.14,-2319C1676.14,-2319 2136.21,-2319 2136.21,-2319"/>
<polygon fill="black" stroke="black" points="2136.21,-2322.5 2146.21,-2319 2136.21,-2315.5 2136.21,-2322.5"/>
</g>
<!-- n23 -->
<g id="node17" class="node">
<title>n23</title>
<ellipse fill="none" stroke="black" cx="2501.68" cy="-2292" rx="41.69" ry="18"/>
<text text-anchor="middle" x="2501.68" y="-2288.3" font-family="Times,serif" font-size="14.00">output</text>
</g>
<!-- n21&#45;&gt;n23 -->
<!-- n42 -->
<g id="node46" class="node">
<title>n42</title>
<ellipse fill="none" stroke="black" cx="2962.38" cy="-2098" rx="40.09" ry="18"/>
<text text-anchor="middle" x="2962.38" y="-2094.3" font-family="Times,serif" font-size="14.00">inputs</text>
</g>
<!-- n23&#45;&gt;n42 -->
<g id="edge53" class="edge">
<title>n23&#45;&gt;n42</title>
<path fill="none" stroke="black" d="M2543.45,-2292C2651.01,-2292 2929.14,-2292 2929.14,-2292 2929.14,-2292 2929.14,-2118.43 2929.14,-2118.43"/>
<polygon fill="black" stroke="black" points="2932.64,-2118.43 2929.14,-2108.43 2925.64,-2118.43 2932.64,-2118.43"/>
<text text-anchor="middle" x="2748.78" y="-2196.8" font-family="Times,serif" font-size="14.00">UPPER_CONCURRENCY_LIMIT</text>
</g>
<!-- n20 -->
<g id="node18" class="node">
<title>n20</title>
<ellipse fill="none" stroke="black" cx="2173.34" cy="-2265" rx="27" ry="18"/>
<text text-anchor="middle" x="2173.34" y="-2261.3" font-family="Times,serif" font-size="14.00">rhs</text>
</g>
<!-- n26 -->
<g id="node19" class="node">
<title>n26</title>
<ellipse fill="none" stroke="black" cx="1051.67" cy="-1524" rx="31.4" ry="18"/>
<text text-anchor="middle" x="1051.67" y="-1520.3" font-family="Times,serif" font-size="14.00">1.10</text>
</g>
<!-- n25 -->
<g id="node22" class="node">
<title>n25</title>
<ellipse fill="none" stroke="black" cx="1307.27" cy="-1524" rx="27" ry="18"/>
<text text-anchor="middle" x="1307.27" y="-1520.3" font-family="Times,serif" font-size="14.00">rhs</text>
</g>
<!-- n26&#45;&gt;n25 -->
<g id="edge9" class="edge">
<title>n26&#45;&gt;n25</title>
<path fill="none" stroke="black" d="M1083.01,-1524C1083.01,-1524 1269.96,-1524 1269.96,-1524"/>
<polygon fill="black" stroke="black" points="1269.96,-1527.5 1279.96,-1524 1269.96,-1520.5 1269.96,-1527.5"/>
</g>
<!-- n27 -->
<g id="node20" class="node">
<title>n27</title>
<ellipse fill="none" stroke="black" cx="1307.27" cy="-1578" rx="27" ry="18"/>
<text text-anchor="middle" x="1307.27" y="-1574.3" font-family="Times,serif" font-size="14.00">lhs</text>
</g>
<!-- n28 -->
<g id="node21" class="node">
<title>n28</title>
<ellipse fill="none" stroke="black" cx="1644.66" cy="-1551" rx="41.69" ry="18"/>
<text text-anchor="middle" x="1644.66" y="-1547.3" font-family="Times,serif" font-size="14.00">output</text>
</g>
<!-- n27&#45;&gt;n28 -->
<!-- n69 -->
<g id="node35" class="node">
<title>n69</title>
<ellipse fill="none" stroke="black" cx="2173.34" cy="-1490" rx="27" ry="18"/>
<text text-anchor="middle" x="2173.34" y="-1486.3" font-family="Times,serif" font-size="14.00">rhs</text>
</g>
<!-- n28&#45;&gt;n69 -->
<g id="edge46" class="edge">
<title>n28&#45;&gt;n69</title>
<path fill="none" stroke="black" d="M1645.14,-1532.73C1645.14,-1514.44 1645.14,-1489 1645.14,-1489 1645.14,-1489 2136.06,-1489 2136.06,-1489"/>
<polygon fill="black" stroke="black" points="2136.06,-1492.5 2146.06,-1489 2136.06,-1485.5 2136.06,-1492.5"/>
<text text-anchor="middle" x="1971.04" y="-1523.8" font-family="Times,serif" font-size="14.00">LATENCY_OVERLOAD</text>
</g>
<!-- n31 -->
<g id="node23" class="node">
<title>n31</title>
<ellipse fill="none" stroke="black" cx="2501.68" cy="-76" rx="31.4" ry="18"/>
<text text-anchor="middle" x="2501.68" y="-72.3" font-family="Times,serif" font-size="14.00">5.00</text>
</g>
<!-- n30 -->
<g id="node24" class="node">
<title>n30</title>
<ellipse fill="none" stroke="black" cx="2962.38" cy="-76" rx="27" ry="18"/>
<text text-anchor="middle" x="2962.38" y="-72.3" font-family="Times,serif" font-size="14.00">lhs</text>
</g>
<!-- n31&#45;&gt;n30 -->
<g id="edge11" class="edge">
<title>n31&#45;&gt;n30</title>
<path fill="none" stroke="black" d="M2532.99,-76C2532.99,-76 2925.16,-76 2925.16,-76"/>
<polygon fill="black" stroke="black" points="2925.16,-79.5 2935.16,-76 2925.16,-72.5 2925.16,-79.5"/>
</g>
<!-- n33 -->
<g id="node25" class="node">
<title>n33</title>
<ellipse fill="none" stroke="black" cx="3393.07" cy="-130" rx="41.69" ry="18"/>
<text text-anchor="middle" x="3393.07" y="-126.3" font-family="Times,serif" font-size="14.00">output</text>
</g>
<!-- n35 -->
<g id="node27" class="node">
<title>n35</title>
<ellipse fill="none" stroke="black" cx="3963.81" cy="-351" rx="27" ry="18"/>
<text text-anchor="middle" x="3963.81" y="-347.3" font-family="Times,serif" font-size="14.00">lhs</text>
</g>
<!-- n33&#45;&gt;n35 -->
<g id="edge40" class="edge">
<title>n33&#45;&gt;n35</title>
<path fill="none" stroke="black" d="M3435.06,-130C3566.94,-130 3964.14,-130 3964.14,-130 3964.14,-130 3964.14,-322.91 3964.14,-322.91"/>
<polygon fill="black" stroke="black" points="3960.64,-322.91 3964.14,-332.91 3967.64,-322.91 3960.64,-322.91"/>
<text text-anchor="middle" x="3656.66" y="-244.8" font-family="Times,serif" font-size="14.00">CONCURRENCY_INCREMENT_SINGLE_TICK</text>
</g>
<!-- n32 -->
<g id="node26" class="node">
<title>n32</title>
<ellipse fill="none" stroke="black" cx="2962.38" cy="-130" rx="27" ry="18"/>
<text text-anchor="middle" x="2962.38" y="-126.3" font-family="Times,serif" font-size="14.00">rhs</text>
</g>
<!-- n32&#45;&gt;n33 -->
<!-- n37 -->
<g id="node28" class="node">
<title>n37</title>
<ellipse fill="none" stroke="black" cx="4127.55" cy="-405" rx="41.69" ry="18"/>
<text text-anchor="middle" x="4127.55" y="-401.3" font-family="Times,serif" font-size="14.00">output</text>
</g>
<!-- n39 -->
<g id="node48" class="node">
<title>n39</title>
<ellipse fill="none" stroke="black" cx="2173.34" cy="-1211" rx="40.09" ry="18"/>
<text text-anchor="middle" x="2173.34" y="-1207.3" font-family="Times,serif" font-size="14.00">inputs</text>
</g>
<!-- n37&#45;&gt;n39 -->
<g id="edge41" class="edge">
<title>n37&#45;&gt;n39</title>
<path fill="none" stroke="black" d="M4142.14,-422.14C4142.14,-530.19 4142.14,-1112.5 4142.14,-1112.5 4142.14,-1112.5 2174.14,-1112.5 2174.14,-1112.5 2174.14,-1112.5 2174.14,-1182.93 2174.14,-1182.93"/>
<polygon fill="black" stroke="black" points="2170.64,-1182.93 2174.14,-1192.93 2177.64,-1182.93 2170.64,-1182.93"/>
<text text-anchor="middle" x="3180.97" y="-966.8" font-family="Times,serif" font-size="14.00">CONCURRENCY_INCREMENT_INTEGRAL</text>
</g>
<!-- n36 -->
<g id="node29" class="node">
<title>n36</title>
<ellipse fill="none" stroke="black" cx="3963.81" cy="-405" rx="27" ry="18"/>
<text text-anchor="middle" x="3963.81" y="-401.3" font-family="Times,serif" font-size="14.00">rhs</text>
</g>
<!-- n36&#45;&gt;n37 -->
<!-- n64 -->
<g id="node31" class="node">
<title>n64</title>
<ellipse fill="none" stroke="black" cx="1644.66" cy="-1014" rx="113.98" ry="18"/>
<text text-anchor="middle" x="1644.66" y="-1010.3" font-family="Times,serif" font-size="14.00">accepted_concurrency</text>
</g>
<!-- n64&#45;&gt;n20 -->
<g id="edge25" class="edge">
<title>n64&#45;&gt;n20</title>
<path fill="none" stroke="black" d="M1705.14,-1029.37C1705.14,-1172.35 1705.14,-2265 1705.14,-2265 1705.14,-2265 2136.15,-2265 2136.15,-2265"/>
<polygon fill="black" stroke="black" points="2136.15,-2268.5 2146.15,-2265 2136.15,-2261.5 2136.15,-2268.5"/>
<text text-anchor="middle" x="1971.04" y="-1731.8" font-family="Times,serif" font-size="14.00">ACCEPTED_CONCURRENCY</text>
</g>
<!-- n57 -->
<g id="node39" class="node">
<title>n57</title>
<ellipse fill="none" stroke="black" cx="3963.81" cy="-1708" rx="85.29" ry="18"/>
<text text-anchor="middle" x="3963.81" y="-1704.3" font-family="Times,serif" font-size="14.00">control_variable</text>
</g>
<!-- n64&#45;&gt;n57 -->
<g id="edge28" class="edge">
<title>n64&#45;&gt;n57</title>
<path fill="none" stroke="black" d="M1723.14,-1027.24C1723.14,-1123.19 1723.14,-1708 1723.14,-1708 1723.14,-1708 3868.37,-1708 3868.37,-1708"/>
<polygon fill="black" stroke="black" points="3868.37,-1711.5 3878.37,-1708 3868.37,-1704.5 3868.37,-1711.5"/>
<text text-anchor="middle" x="2748.78" y="-1693.8" font-family="Times,serif" font-size="14.00">ACCEPTED_CONCURRENCY</text>
</g>
<!-- n64&#45;&gt;n39 -->
<g id="edge26" class="edge">
<title>n64&#45;&gt;n39</title>
<path fill="none" stroke="black" d="M1741.14,-1023.77C1741.14,-1063.52 1741.14,-1211 1741.14,-1211 1741.14,-1211 2122.68,-1211 2122.68,-1211"/>
<polygon fill="black" stroke="black" points="2122.68,-1214.5 2132.68,-1211 2122.68,-1207.5 2122.68,-1214.5"/>
<text text-anchor="middle" x="1971.04" y="-1135.8" font-family="Times,serif" font-size="14.00">ACCEPTED_CONCURRENCY</text>
</g>
<!-- n46 -->
<g id="node51" class="node">
<title>n46</title>
<ellipse fill="none" stroke="black" cx="2173.34" cy="-1014" rx="35.19" ry="18"/>
<text text-anchor="middle" x="2173.34" y="-1010.3" font-family="Times,serif" font-size="14.00">input</text>
</g>
<!-- n64&#45;&gt;n46 -->
<g id="edge27" class="edge">
<title>n64&#45;&gt;n46</title>
<path fill="none" stroke="black" d="M1758.4,-1014C1758.4,-1014 2128.18,-1014 2128.18,-1014"/>
<polygon fill="black" stroke="black" points="2128.18,-1017.5 2138.18,-1014 2128.18,-1010.5 2128.18,-1017.5"/>
<text text-anchor="middle" x="1971.04" y="-1017.8" font-family="Times,serif" font-size="14.00">ACCEPTED_CONCURRENCY</text>
</g>
<!-- n63 -->
<g id="node32" class="node">
<title>n63</title>
<ellipse fill="none" stroke="black" cx="1644.66" cy="-960" rx="114.28" ry="18"/>
<text text-anchor="middle" x="1644.66" y="-956.3" font-family="Times,serif" font-size="14.00">incoming_concurrency</text>
</g>
<!-- n63&#45;&gt;n12 -->
<g id="edge29" class="edge">
<title>n63&#45;&gt;n12</title>
<path fill="none" stroke="black" d="M1751.14,-953.27C1751.14,-928.94 1751.14,-847 1751.14,-847 1751.14,-847 2136.29,-847 2136.29,-847"/>
<polygon fill="black" stroke="black" points="2136.29,-850.5 2146.29,-847 2136.29,-843.5 2136.29,-850.5"/>
<text text-anchor="middle" x="1971.04" y="-906.8" font-family="Times,serif" font-size="14.00">INCOMING_CONCURRENCY</text>
</g>
<!-- n63&#45;&gt;n17 -->
<g id="edge30" class="edge">
<title>n63&#45;&gt;n17</title>
<path fill="none" stroke="black" d="M1742.14,-950.41C1742.14,-890.66 1742.14,-572 1742.14,-572 1742.14,-572 2136.04,-572 2136.04,-572"/>
<polygon fill="black" stroke="black" points="2136.04,-575.5 2146.04,-572 2136.04,-568.5 2136.04,-575.5"/>
<text text-anchor="middle" x="1971.04" y="-693.8" font-family="Times,serif" font-size="14.00">INCOMING_CONCURRENCY</text>
</g>
<!-- n68 -->
<g id="node33" class="node">
<title>n68</title>
<ellipse fill="none" stroke="black" cx="2173.34" cy="-1544" rx="27" ry="18"/>
<text text-anchor="middle" x="2173.34" y="-1540.3" font-family="Times,serif" font-size="14.00">lhs</text>
</g>
<!-- n70 -->
<g id="node34" class="node">
<title>n70</title>
<ellipse fill="none" stroke="black" cx="2501.68" cy="-1490" rx="41.69" ry="18"/>
<text text-anchor="middle" x="2501.68" y="-1486.3" font-family="Times,serif" font-size="14.00">output</text>
</g>
<!-- n72 -->
<g id="node57" class="node">
<title>n72</title>
<ellipse fill="none" stroke="black" cx="2962.38" cy="-1877" rx="40.89" ry="18"/>
<text text-anchor="middle" x="2962.38" y="-1873.3" font-family="Times,serif" font-size="14.00">switch</text>
</g>
<!-- n70&#45;&gt;n72 -->
<g id="edge49" class="edge">
<title>n70&#45;&gt;n72</title>
<path fill="none" stroke="black" d="M2502.14,-1508.08C2502.14,-1584.29 2502.14,-1875.5 2502.14,-1875.5 2502.14,-1875.5 2911.53,-1875.5 2911.53,-1875.5"/>
<polygon fill="black" stroke="black" points="2911.53,-1879 2921.53,-1875.5 2911.53,-1872 2911.53,-1879"/>
<text text-anchor="middle" x="2748.78" y="-1538.8" font-family="Times,serif" font-size="14.00">IS_OVERLOAD_SWITCH</text>
</g>
<!-- n81 -->
<g id="node62" class="node">
<title>n81</title>
<ellipse fill="none" stroke="black" cx="2962.38" cy="-405" rx="40.89" ry="18"/>
<text text-anchor="middle" x="2962.38" y="-401.3" font-family="Times,serif" font-size="14.00">switch</text>
</g>
<!-- n70&#45;&gt;n81 -->
<g id="edge50" class="edge">
<title>n70&#45;&gt;n81</title>
<path fill="none" stroke="black" d="M2543.45,-1490C2657.04,-1490 2963.14,-1490 2963.14,-1490 2963.14,-1490 2963.14,-433.38 2963.14,-433.38"/>
<polygon fill="black" stroke="black" points="2966.64,-433.38 2963.14,-423.38 2959.64,-433.38 2966.64,-433.38"/>
<text text-anchor="middle" x="2748.78" y="-1448.8" font-family="Times,serif" font-size="14.00">IS_OVERLOAD_SWITCH</text>
</g>
<!-- n69&#45;&gt;n70 -->
<!-- n51 -->
<g id="node36" class="node">
<title>n51</title>
<ellipse fill="none" stroke="black" cx="798.43" cy="-1910" rx="35.19" ry="18"/>
<text text-anchor="middle" x="798.43" y="-1906.3" font-family="Times,serif" font-size="14.00">input</text>
</g>
<!-- n53 -->
<g id="node38" class="node">
<title>n53</title>
<ellipse fill="none" stroke="black" cx="1051.67" cy="-1964" rx="41.69" ry="18"/>
<text text-anchor="middle" x="1051.67" y="-1960.3" font-family="Times,serif" font-size="14.00">output</text>
</g>
<!-- n52&#45;&gt;n53 -->
<!-- n53&#45;&gt;n7 -->
<g id="edge47" class="edge">
<title>n53&#45;&gt;n7</title>
<path fill="none" stroke="black" d="M1052.14,-1982.27C1052.14,-2074.66 1052.14,-2486 1052.14,-2486 1052.14,-2486 2925.37,-2486 2925.37,-2486"/>
<polygon fill="black" stroke="black" points="2925.37,-2489.5 2935.37,-2486 2925.37,-2482.5 2925.37,-2489.5"/>
<text text-anchor="middle" x="1971.04" y="-2485.8" font-family="Times,serif" font-size="14.00">LATENCY_EMA</text>
</g>
<!-- n53&#45;&gt;n27 -->
<g id="edge48" class="edge">
<title>n53&#45;&gt;n27</title>
<path fill="none" stroke="black" d="M1088.14,-1955.21C1088.14,-1897.76 1088.14,-1578 1088.14,-1578 1088.14,-1578 1269.96,-1578 1269.96,-1578"/>
<polygon fill="black" stroke="black" points="1269.96,-1581.5 1279.96,-1578 1269.96,-1574.5 1269.96,-1581.5"/>
<text text-anchor="middle" x="1206.77" y="-1881.8" font-family="Times,serif" font-size="14.00">LATENCY_EMA</text>
</g>
<!-- n56 -->
<g id="node40" class="node">
<title>n56</title>
<ellipse fill="none" stroke="black" cx="3963.81" cy="-1816" rx="30.59" ry="18"/>
<text text-anchor="middle" x="3963.81" y="-1812.3" font-family="Times,serif" font-size="14.00">max</text>
</g>
<!-- n55 -->
<g id="node41" class="node">
<title>n55</title>
<ellipse fill="none" stroke="black" cx="3963.81" cy="-1762" rx="50.89" ry="18"/>
<text text-anchor="middle" x="3963.81" y="-1758.3" font-family="Times,serif" font-size="14.00">optimize</text>
</g>
<!-- n60 -->
<g id="node42" class="node">
<title>n60</title>
<ellipse fill="none" stroke="black" cx="4127.55" cy="-1762" rx="41.69" ry="18"/>
<text text-anchor="middle" x="4127.55" y="-1758.3" font-family="Times,serif" font-size="14.00">output</text>
</g>
<!-- n60&#45;&gt;n13 -->
<g id="edge42" class="edge">
<title>n60&#45;&gt;n13</title>
<path fill="none" stroke="black" d="M4114.14,-1744.66C4114.14,-1613.85 4114.14,-787 4114.14,-787 4114.14,-787 2208.95,-787 2208.95,-787"/>
<polygon fill="black" stroke="black" points="2208.95,-783.5 2198.95,-787 2208.95,-790.5 2208.95,-783.5"/>
<text text-anchor="middle" x="3180.97" y="-1004.8" font-family="Times,serif" font-size="14.00">DESIRED_CONCURRENCY</text>
</g>
<!-- n59&#45;&gt;n60 -->
<!-- n58 -->
<g id="node44" class="node">
<title>n58</title>
<ellipse fill="none" stroke="black" cx="3963.81" cy="-1654" rx="38.19" ry="18"/>
<text text-anchor="middle" x="3963.81" y="-1650.3" font-family="Times,serif" font-size="14.00">signal</text>
</g>
<!-- n43 -->
<g id="node45" class="node">
<title>n43</title>
<ellipse fill="none" stroke="black" cx="2501.68" cy="-2098" rx="37.09" ry="18"/>
<text text-anchor="middle" x="2501.68" y="-2094.3" font-family="Times,serif" font-size="14.00">10.00</text>
</g>
<!-- n43&#45;&gt;n42 -->
<g id="edge17" class="edge">
<title>n43&#45;&gt;n42</title>
<path fill="none" stroke="black" d="M2538.99,-2098C2538.99,-2098 2911.77,-2098 2911.77,-2098"/>
<polygon fill="black" stroke="black" points="2911.77,-2101.5 2921.77,-2098 2911.77,-2094.5 2911.77,-2101.5"/>
</g>
<!-- n44 -->
<g id="node47" class="node">
<title>n44</title>
<ellipse fill="none" stroke="black" cx="3393.07" cy="-2098" rx="41.69" ry="18"/>
<text text-anchor="middle" x="3393.07" y="-2094.3" font-family="Times,serif" font-size="14.00">output</text>
</g>
<!-- n42&#45;&gt;n44 -->
<!-- n44&#45;&gt;n56 -->
<g id="edge35" class="edge">
<title>n44&#45;&gt;n56</title>
<path fill="none" stroke="black" d="M3434.91,-2098C3509.37,-2098 3657.14,-2098 3657.14,-2098 3657.14,-2098 3657.14,-1824.33 3657.14,-1824.33 3657.14,-1824.33 3926.59,-1824.33 3926.59,-1824.33"/>
<polygon fill="black" stroke="black" points="3926.59,-1827.83 3936.59,-1824.33 3926.59,-1820.83 3926.59,-1827.83"/>
<text text-anchor="middle" x="3656.66" y="-1854.8" font-family="Times,serif" font-size="14.00">MAX_CONCURRENCY</text>
</g>
<!-- n40 -->
<g id="node49" class="node">
<title>n40</title>
<ellipse fill="none" stroke="black" cx="2501.68" cy="-1211" rx="41.69" ry="18"/>
<text text-anchor="middle" x="2501.68" y="-1207.3" font-family="Times,serif" font-size="14.00">output</text>
</g>
<!-- n39&#45;&gt;n40 -->
<!-- n75 -->
<g id="node54" class="node">
<title>n75</title>
<ellipse fill="none" stroke="black" cx="2962.38" cy="-1823" rx="48.19" ry="18"/>
<text text-anchor="middle" x="2962.38" y="-1819.3" font-family="Times,serif" font-size="14.00">on_false</text>
</g>
<!-- n40&#45;&gt;n75 -->
<g id="edge33" class="edge">
<title>n40&#45;&gt;n75</title>
<path fill="none" stroke="black" d="M2540.96,-1217C2644.88,-1217 2919.14,-1217 2919.14,-1217 2919.14,-1217 2919.14,-1804.89 2919.14,-1804.89"/>
<polygon fill="black" stroke="black" points="2915.64,-1804.89 2919.14,-1814.89 2922.64,-1804.89 2915.64,-1804.89"/>
<text text-anchor="middle" x="2748.78" y="-1495.8" font-family="Times,serif" font-size="14.00">CONCURRENCY_INCREMENT_NORMAL</text>
</g>
<!-- n80 -->
<g id="node59" class="node">
<title>n80</title>
<ellipse fill="none" stroke="black" cx="2962.38" cy="-351" rx="48.19" ry="18"/>
<text text-anchor="middle" x="2962.38" y="-347.3" font-family="Times,serif" font-size="14.00">on_false</text>
</g>
<!-- n40&#45;&gt;n80 -->
<g id="edge34" class="edge">
<title>n40&#45;&gt;n80</title>
<path fill="none" stroke="black" d="M2541.14,-1205C2644.85,-1205 2917.14,-1205 2917.14,-1205 2917.14,-1205 2917.14,-367.38 2917.14,-367.38"/>
<polygon fill="black" stroke="black" points="2920.64,-367.38 2917.14,-357.38 2913.64,-367.38 2920.64,-367.38"/>
<text text-anchor="middle" x="2748.78" y="-904.8" font-family="Times,serif" font-size="14.00">CONCURRENCY_INCREMENT_NORMAL</text>
</g>
<!-- n49 -->
<g id="node50" class="node">
<title>n49</title>
<ellipse fill="none" stroke="black" cx="99.6" cy="-1760" rx="41.69" ry="18"/>
<text text-anchor="middle" x="99.6" y="-1756.3" font-family="Times,serif" font-size="14.00">output</text>
</g>
<!-- n49&#45;&gt;n2 -->
<g id="edge36" class="edge">
<title>n49&#45;&gt;n2</title>
<path fill="none" stroke="black" d="M135.14,-1769.57C135.14,-1805.32 135.14,-1929 135.14,-1929 135.14,-1929 277,-1929 277,-1929"/>
<polygon fill="black" stroke="black" points="277,-1932.5 287,-1929 277,-1925.5 277,-1932.5"/>
<text text-anchor="middle" x="234.19" y="-1882.8" font-family="Times,serif" font-size="14.00">LATENCY</text>
</g>
<!-- n49&#45;&gt;n68 -->
<g id="edge39" class="edge">
<title>n49&#45;&gt;n68</title>
<path fill="none" stroke="black" d="M141.5,-1761C435.28,-1761 2174.14,-1761 2174.14,-1761 2174.14,-1761 2174.14,-1572.13 2174.14,-1572.13"/>
<polygon fill="black" stroke="black" points="2177.64,-1572.13 2174.14,-1562.13 2170.64,-1572.13 2177.64,-1572.13"/>
<text text-anchor="middle" x="927.47" y="-1761.8" font-family="Times,serif" font-size="14.00">LATENCY</text>
</g>
<!-- n49&#45;&gt;n51 -->
<g id="edge37" class="edge">
<title>n49&#45;&gt;n51</title>
<path fill="none" stroke="black" d="M138.14,-1766.82C138.14,-1795.09 138.14,-1901.5 138.14,-1901.5 138.14,-1901.5 757.47,-1901.5 757.47,-1901.5"/>
<polygon fill="black" stroke="black" points="757.47,-1905 767.47,-1901.5 757.47,-1898 757.47,-1905"/>
<text text-anchor="middle" x="394.19" y="-1799.8" font-family="Times,serif" font-size="14.00">LATENCY</text>
</g>
<!-- n49&#45;&gt;n58 -->
<g id="edge38" class="edge">
<title>n49&#45;&gt;n58</title>
<path fill="none" stroke="black" d="M100.14,-1741.54C100.14,-1711.17 100.14,-1654 100.14,-1654 100.14,-1654 3915.25,-1654 3915.25,-1654"/>
<polygon fill="black" stroke="black" points="3915.25,-1657.5 3925.25,-1654 3915.25,-1650.5 3915.25,-1657.5"/>
<text text-anchor="middle" x="1387.27" y="-1365.8" font-family="Times,serif" font-size="14.00">LATENCY</text>
</g>
<!-- n47 -->
<g id="node52" class="node">
<title>n47</title>
<ellipse fill="none" stroke="black" cx="2501.68" cy="-1014" rx="41.69" ry="18"/>
<text text-anchor="middle" x="2501.68" y="-1010.3" font-family="Times,serif" font-size="14.00">output</text>
</g>
<!-- n46&#45;&gt;n47 -->
<!-- n47&#45;&gt;n32 -->
<g id="edge45" class="edge">
<title>n47&#45;&gt;n32</title>
<path fill="none" stroke="black" d="M2543.4,-1014C2609.07,-1014 2729.14,-1014 2729.14,-1014 2729.14,-1014 2729.14,-130 2729.14,-130 2729.14,-130 2925.17,-130 2925.17,-130"/>
<polygon fill="black" stroke="black" points="2925.17,-133.5 2935.17,-130 2925.17,-126.5 2925.17,-133.5"/>
<text text-anchor="middle" x="2748.78" y="-794.8" font-family="Times,serif" font-size="14.00">SQRT_CONCURRENCY_INCREMENT</text>
</g>
<!-- n74 -->
<g id="node53" class="node">
<title>n74</title>
<ellipse fill="none" stroke="black" cx="2501.68" cy="-1931" rx="37.09" ry="18"/>
<text text-anchor="middle" x="2501.68" y="-1927.3" font-family="Times,serif" font-size="14.00">10.00</text>
</g>
<!-- n73 -->
<g id="node55" class="node">
<title>n73</title>
<ellipse fill="none" stroke="black" cx="2962.38" cy="-1931" rx="46.29" ry="18"/>
<text text-anchor="middle" x="2962.38" y="-1927.3" font-family="Times,serif" font-size="14.00">on_true</text>
</g>
<!-- n74&#45;&gt;n73 -->
<g id="edge21" class="edge">
<title>n74&#45;&gt;n73</title>
<path fill="none" stroke="black" d="M2538.99,-1931C2538.99,-1931 2905.95,-1931 2905.95,-1931"/>
<polygon fill="black" stroke="black" points="2905.95,-1934.5 2915.95,-1931 2905.95,-1927.5 2905.95,-1934.5"/>
</g>
<!-- n76 -->
<g id="node56" class="node">
<title>n76</title>
<ellipse fill="none" stroke="black" cx="3393.07" cy="-1823" rx="41.69" ry="18"/>
<text text-anchor="middle" x="3393.07" y="-1819.3" font-family="Times,serif" font-size="14.00">output</text>
</g>
<!-- n75&#45;&gt;n76 -->
<!-- n76&#45;&gt;n55 -->
<g id="edge51" class="edge">
<title>n76&#45;&gt;n55</title>
<path fill="none" stroke="black" d="M3430.06,-1814.67C3550.72,-1814.67 3925.14,-1814.67 3925.14,-1814.67 3925.14,-1814.67 3925.14,-1783.69 3925.14,-1783.69"/>
<polygon fill="black" stroke="black" points="3928.64,-1783.69 3925.14,-1773.69 3921.64,-1783.69 3928.64,-1783.69"/>
<text text-anchor="middle" x="3656.66" y="-1808.8" font-family="Times,serif" font-size="14.00">CONCURRENCY_INCREMENT</text>
</g>
<!-- n79 -->
<g id="node58" class="node">
<title>n79</title>
<ellipse fill="none" stroke="black" cx="2501.68" cy="-297" rx="31.4" ry="18"/>
<text text-anchor="middle" x="2501.68" y="-293.3" font-family="Times,serif" font-size="14.00">0.00</text>
</g>
<!-- n78 -->
<g id="node60" class="node">
<title>n78</title>
<ellipse fill="none" stroke="black" cx="2962.38" cy="-297" rx="46.29" ry="18"/>
<text text-anchor="middle" x="2962.38" y="-293.3" font-family="Times,serif" font-size="14.00">on_true</text>
</g>
<!-- n79&#45;&gt;n78 -->
<g id="edge23" class="edge">
<title>n79&#45;&gt;n78</title>
<path fill="none" stroke="black" d="M2532.99,-297C2532.99,-297 2906.11,-297 2906.11,-297"/>
<polygon fill="black" stroke="black" points="2906.11,-300.5 2916.11,-297 2906.11,-293.5 2906.11,-300.5"/>
</g>
<!-- n82 -->
<g id="node61" class="node">
<title>n82</title>
<ellipse fill="none" stroke="black" cx="3393.07" cy="-405" rx="41.69" ry="18"/>
<text text-anchor="middle" x="3393.07" y="-401.3" font-family="Times,serif" font-size="14.00">output</text>
</g>
<!-- n82&#45;&gt;n36 -->
<g id="edge43" class="edge">
<title>n82&#45;&gt;n36</title>
<path fill="none" stroke="black" d="M3435.04,-405C3435.04,-405 3926.62,-405 3926.62,-405"/>
<polygon fill="black" stroke="black" points="3926.62,-408.5 3936.62,-405 3926.62,-401.5 3926.62,-408.5"/>
<text text-anchor="middle" x="3656.66" y="-408.8" font-family="Times,serif" font-size="14.00">CONCURRENCY_INCREMENT_FEEDBACK</text>
</g>
<!-- n81&#45;&gt;n82 -->
</g>
</svg>
