<?xml version="1.0" encoding="UTF-8" standalone="no"?>
<!DOCTYPE svg PUBLIC "-//W3C//DTD SVG 1.1//EN"
 "http://www.w3.org/Graphics/SVG/1.1/DTD/svg11.dtd">
<!-- Generated by graphviz version 6.0.1 (20220911.1526)
 -->
<!-- Pages: 1 -->
<svg width="4563pt" height="2031pt"
 viewBox="0.00 0.00 4563.09 2031.00" xmlns="http://www.w3.org/2000/svg" xmlns:xlink="http://www.w3.org/1999/xlink">
<g id="graph0" class="graph" transform="scale(1 1) rotate(0) translate(4 2027)">
<polygon fill="white" stroke="none" points="-4,4 -4,-2027 4559.09,-2027 4559.09,4 -4,4"/>
<g id="clust1" class="cluster">
<title>cluster_s27</title>
<polygon fill="none" stroke="black" points="2363.74,-1776 2363.74,-1989 2865.23,-1989 2865.23,-1776 2363.74,-1776"/>
<text text-anchor="middle" x="2614.49" y="-1973.8" font-family="Times,serif" font-size="14.00">ArithmeticCombinator (10)</text>
</g>
<g id="clust4" class="cluster">
<title>cluster_s31</title>
<polygon fill="none" stroke="black" points="2363.74,-1334 2363.74,-1547 2865.23,-1547 2865.23,-1334 2363.74,-1334"/>
<text text-anchor="middle" x="2614.49" y="-1531.8" font-family="Times,serif" font-size="14.00">ArithmeticCombinator (11)</text>
</g>
<g id="clust7" class="cluster">
<title>cluster_s35</title>
<polygon fill="none" stroke="black" points="1435.66,-605 1435.66,-818 1941.65,-818 1941.65,-605 1435.66,-605"/>
<text text-anchor="middle" x="1688.66" y="-802.8" font-family="Times,serif" font-size="14.00">ArithmeticCombinator (12)</text>
</g>
<g id="clust10" class="cluster">
<title>cluster_s39</title>
<polygon fill="none" stroke="black" points="3213.33,-121 3213.33,-334 3812.61,-334 3812.61,-121 3213.33,-121"/>
<text text-anchor="middle" x="3512.97" y="-318.8" font-family="Times,serif" font-size="14.00">ArithmeticCombinator (13)</text>
</g>
<g id="clust13" class="cluster">
<title>cluster_s43</title>
<polygon fill="none" stroke="black" points="4214.76,-457 4214.76,-670 4547.09,-670 4547.09,-457 4214.76,-457"/>
<text text-anchor="middle" x="4380.92" y="-654.8" font-family="Times,serif" font-size="14.00">ArithmeticCombinator (14)</text>
</g>
<g id="clust16" class="cluster">
<title>cluster_s15</title>
<polygon fill="none" stroke="black" points="392.19,-613 392.19,-826 735.39,-826 735.39,-613 392.19,-613"/>
<text text-anchor="middle" x="563.79" y="-810.8" font-family="Times,serif" font-size="14.00">ArithmeticCombinator (7)</text>
</g>
<g id="clust19" class="cluster">
<title>cluster_s19</title>
<polygon fill="none" stroke="black" points="1435.66,-826 1435.66,-1039 1941.65,-1039 1941.65,-826 1435.66,-826"/>
<text text-anchor="middle" x="1688.66" y="-1023.8" font-family="Times,serif" font-size="14.00">ArithmeticCombinator (8)</text>
</g>
<g id="clust22" class="cluster">
<title>cluster_s23</title>
<polygon fill="none" stroke="black" points="2363.74,-1555 2363.74,-1768 2865.23,-1768 2865.23,-1555 2363.74,-1555"/>
<text text-anchor="middle" x="2614.49" y="-1752.8" font-family="Times,serif" font-size="14.00">ArithmeticCombinator (9)</text>
</g>
<g id="clust25" class="cluster">
<title>cluster_s69</title>
<polygon fill="none" stroke="black" points="1635.66,-1470 1635.66,-2015 2064.44,-2015 2064.44,-1470 1635.66,-1470"/>
<text text-anchor="middle" x="1850.05" y="-1999.8" font-family="Times,serif" font-size="14.00">ConcurrencyLimiter (21)</text>
</g>
<g id="clust26" class="cluster">
<title>cluster_s73</title>
<polygon fill="none" stroke="black" points="1691.66,-1783 1691.66,-1942 2009.45,-1942 2009.45,-1783 1691.66,-1783"/>
<text text-anchor="middle" x="1850.55" y="-1926.8" font-family="Times,serif" font-size="14.00">LoadShedActuator (21.LoadShedActuator)</text>
</g>
<g id="clust28" class="cluster">
<title>cluster_s70</title>
<polygon fill="none" stroke="black" points="1685.66,-1520 1685.66,-1733 2014.44,-1733 2014.44,-1520 1685.66,-1520"/>
<text text-anchor="middle" x="1850.05" y="-1717.8" font-family="Times,serif" font-size="14.00">Scheduler (21.Scheduler)</text>
</g>
<g id="clust30" class="cluster">
<title>cluster_s1</title>
<polygon fill="none" stroke="black" points="8,-447 8,-606 191.19,-606 191.19,-447 8,-447"/>
<text text-anchor="middle" x="99.6" y="-590.8" font-family="Times,serif" font-size="14.00">Constant (0)</text>
</g>
<g id="clust32" class="cluster">
<title>cluster_s3</title>
<polygon fill="none" stroke="black" points="1758.46,-1288 1758.46,-1447 1941.65,-1447 1941.65,-1288 1758.46,-1288"/>
<text text-anchor="middle" x="1850.05" y="-1431.8" font-family="Times,serif" font-size="14.00">Constant (1)</text>
</g>
<g id="clust34" class="cluster">
<title>cluster_s5</title>
<polygon fill="none" stroke="black" points="8,-1455 8,-1614 191.19,-1614 191.19,-1455 8,-1455"/>
<text text-anchor="middle" x="99.6" y="-1598.8" font-family="Times,serif" font-size="14.00">Constant (2)</text>
</g>
<g id="clust36" class="cluster">
<title>cluster_s7</title>
<polygon fill="none" stroke="black" points="2682.04,-8 2682.04,-167 2865.23,-167 2865.23,-8 2682.04,-8"/>
<text text-anchor="middle" x="2773.63" y="-151.8" font-family="Times,serif" font-size="14.00">Constant (3)</text>
</g>
<g id="clust38" class="cluster">
<title>cluster_s9</title>
<polygon fill="none" stroke="black" points="2682.04,-1009 2682.04,-1168 2865.23,-1168 2865.23,-1009 2682.04,-1009"/>
<text text-anchor="middle" x="2773.63" y="-1152.8" font-family="Times,serif" font-size="14.00">Constant (4)</text>
</g>
<g id="clust40" class="cluster">
<title>cluster_s11</title>
<polygon fill="none" stroke="black" points="1125.47,-605 1125.47,-764 1308.66,-764 1308.66,-605 1125.47,-605"/>
<text text-anchor="middle" x="1217.07" y="-748.8" font-family="Times,serif" font-size="14.00">Constant (5)</text>
</g>
<g id="clust42" class="cluster">
<title>cluster_s13</title>
<polygon fill="none" stroke="black" points="2682.04,-342 2682.04,-501 2865.23,-501 2865.23,-342 2682.04,-342"/>
<text text-anchor="middle" x="2773.63" y="-485.8" font-family="Times,serif" font-size="14.00">Constant (6)</text>
</g>
<g id="clust44" class="cluster">
<title>cluster_s75</title>
<polygon fill="none" stroke="black" points="2363.74,-509 2363.74,-722 2865.23,-722 2865.23,-509 2363.74,-509"/>
<text text-anchor="middle" x="2614.49" y="-706.8" font-family="Times,serif" font-size="14.00">Decider (22)</text>
</g>
<g id="clust47" class="cluster">
<title>cluster_s58</title>
<polygon fill="none" stroke="black" points="827.39,-772 827.39,-985 1308.66,-985 1308.66,-772 827.39,-772"/>
<text text-anchor="middle" x="1068.02" y="-969.8" font-family="Times,serif" font-size="14.00">EMA (19)</text>
</g>
<g id="clust50" class="cluster">
<title>cluster_s62</title>
<polygon fill="none" stroke="black" points="4156.61,-1048 4156.61,-1423 4547.09,-1423 4547.09,-1048 4156.61,-1048"/>
<text text-anchor="middle" x="4351.85" y="-1407.8" font-family="Times,serif" font-size="14.00">Gradient (20)</text>
</g>
<g id="clust53" class="cluster">
<title>cluster_s50</title>
<polygon fill="none" stroke="black" points="3200.03,-1347 3200.03,-1506 3812.61,-1506 3812.61,-1347 3200.03,-1347"/>
<text text-anchor="middle" x="3506.32" y="-1490.8" font-family="Times,serif" font-size="14.00">Max (16)</text>
</g>
<g id="clust56" class="cluster">
<title>cluster_s47</title>
<polygon fill="none" stroke="black" points="2350.44,-842 2350.44,-1001 2865.23,-1001 2865.23,-842 2350.44,-842"/>
<text text-anchor="middle" x="2607.84" y="-985.8" font-family="Times,serif" font-size="14.00">Min (15)</text>
</g>
<g id="clust59" class="cluster">
<title>cluster_s56</title>
<polygon fill="none" stroke="black" points="8,-786 8,-945 191.19,-945 191.19,-786 8,-786"/>
<text text-anchor="middle" x="99.6" y="-929.8" font-family="Times,serif" font-size="14.00">PromQL (18)</text>
</g>
<g id="clust61" class="cluster">
<title>cluster_s53</title>
<polygon fill="none" stroke="black" points="2355.64,-175 2355.64,-334 2865.23,-334 2865.23,-175 2355.64,-175"/>
<text text-anchor="middle" x="2610.44" y="-318.8" font-family="Times,serif" font-size="14.00">Sqrt (17)</text>
</g>
<g id="clust64" class="cluster">
<title>cluster_s79</title>
<polygon fill="none" stroke="black" points="3192.23,-899 3192.23,-1166 3812.61,-1166 3812.61,-899 3192.23,-899"/>
<text text-anchor="middle" x="3502.42" y="-1150.8" font-family="Times,serif" font-size="14.00">Switcher (23)</text>
</g>
<g id="clust67" class="cluster">
<title>cluster_s84</title>
<polygon fill="none" stroke="black" points="3192.23,-457 3192.23,-724 3812.61,-724 3812.61,-457 3192.23,-457"/>
<text text-anchor="middle" x="3502.42" y="-708.8" font-family="Times,serif" font-size="14.00">Switcher (24)</text>
</g>
<!-- n28 -->
<g id="node1" class="node">
<title>n28</title>
<ellipse fill="none" stroke="black" cx="2440.74" cy="-1844" rx="27" ry="18"/>
<text text-anchor="middle" x="2440.74" y="-1840.3" font-family="Times,serif" font-size="14.00">lhs</text>
</g>
<!-- n30 -->
<g id="node2" class="node">
<title>n30</title>
<ellipse fill="none" stroke="black" cx="2773.63" cy="-1898" rx="41.69" ry="18"/>
<text text-anchor="middle" x="2773.63" y="-1894.3" font-family="Times,serif" font-size="14.00">output</text>
</g>
<!-- n74 -->
<g id="node25" class="node">
<title>n74</title>
<ellipse fill="none" stroke="black" cx="1850.05" cy="-1851" rx="88.28" ry="18"/>
<text text-anchor="middle" x="1850.05" y="-1847.3" font-family="Times,serif" font-size="14.00">load_shed_factor</text>
</g>
<!-- n30&#45;&gt;n74 -->
<g id="edge40" class="edge">
<title>n30&#45;&gt;n74</title>
<path fill="none" stroke="black" d="M2760.09,-1880.61C2760.09,-1872.88 2760.09,-1865.5 2760.09,-1865.5 2760.09,-1865.5 1912.58,-1865.5 1912.58,-1865.5"/>
<polygon fill="black" stroke="black" points="1912.58,-1862 1902.58,-1865.5 1912.58,-1869 1912.58,-1862"/>
<text text-anchor="middle" x="2440.74" y="-1955.8" font-family="Times,serif" font-size="14.00">LSF</text>
</g>
<!-- n29 -->
<g id="node3" class="node">
<title>n29</title>
<ellipse fill="none" stroke="black" cx="2440.74" cy="-1898" rx="27" ry="18"/>
<text text-anchor="middle" x="2440.74" y="-1894.3" font-family="Times,serif" font-size="14.00">rhs</text>
</g>
<!-- n29&#45;&gt;n30 -->
<!-- n32 -->
<g id="node4" class="node">
<title>n32</title>
<ellipse fill="none" stroke="black" cx="2440.74" cy="-1402" rx="27" ry="18"/>
<text text-anchor="middle" x="2440.74" y="-1398.3" font-family="Times,serif" font-size="14.00">lhs</text>
</g>
<!-- n34 -->
<g id="node5" class="node">
<title>n34</title>
<ellipse fill="none" stroke="black" cx="2773.63" cy="-1449" rx="41.69" ry="18"/>
<text text-anchor="middle" x="2773.63" y="-1445.3" font-family="Times,serif" font-size="14.00">output</text>
</g>
<!-- n51 -->
<g id="node47" class="node">
<title>n51</title>
<ellipse fill="none" stroke="black" cx="3290.33" cy="-1415" rx="40.09" ry="18"/>
<text text-anchor="middle" x="3290.33" y="-1411.3" font-family="Times,serif" font-size="14.00">inputs</text>
</g>
<!-- n34&#45;&gt;n51 -->
<g id="edge26" class="edge">
<title>n34&#45;&gt;n51</title>
<path fill="none" stroke="black" d="M2774.09,-1430.95C2774.09,-1427.79 2774.09,-1425.5 2774.09,-1425.5 2774.09,-1425.5 3247.25,-1425.5 3247.25,-1425.5"/>
<polygon fill="black" stroke="black" points="3247.25,-1429 3257.25,-1425.5 3247.25,-1422 3247.25,-1429"/>
<text text-anchor="middle" x="3028.73" y="-1445.8" font-family="Times,serif" font-size="14.00">UPPER_CONCURRENCY_LIMIT</text>
</g>
<!-- n33 -->
<g id="node6" class="node">
<title>n33</title>
<ellipse fill="none" stroke="black" cx="2440.74" cy="-1456" rx="27" ry="18"/>
<text text-anchor="middle" x="2440.74" y="-1452.3" font-family="Times,serif" font-size="14.00">rhs</text>
</g>
<!-- n33&#45;&gt;n34 -->
<!-- n37 -->
<g id="node7" class="node">
<title>n37</title>
<ellipse fill="none" stroke="black" cx="1512.66" cy="-727" rx="27" ry="18"/>
<text text-anchor="middle" x="1512.66" y="-723.3" font-family="Times,serif" font-size="14.00">lhs</text>
</g>
<!-- n38 -->
<g id="node8" class="node">
<title>n38</title>
<ellipse fill="none" stroke="black" cx="1850.05" cy="-700" rx="41.69" ry="18"/>
<text text-anchor="middle" x="1850.05" y="-696.3" font-family="Times,serif" font-size="14.00">output</text>
</g>
<!-- n37&#45;&gt;n38 -->
<!-- n76 -->
<g id="node37" class="node">
<title>n76</title>
<ellipse fill="none" stroke="black" cx="2440.74" cy="-631" rx="27" ry="18"/>
<text text-anchor="middle" x="2440.74" y="-627.3" font-family="Times,serif" font-size="14.00">rhs</text>
</g>
<!-- n38&#45;&gt;n76 -->
<g id="edge46" class="edge">
<title>n38&#45;&gt;n76</title>
<path fill="none" stroke="black" d="M1892.09,-700C2027.11,-700 2441.09,-700 2441.09,-700 2441.09,-700 2441.09,-659.13 2441.09,-659.13"/>
<polygon fill="black" stroke="black" points="2444.59,-659.13 2441.09,-649.13 2437.59,-659.13 2444.59,-659.13"/>
<text text-anchor="middle" x="2207.44" y="-666.8" font-family="Times,serif" font-size="14.00">LATENCY_OVERLOAD</text>
</g>
<!-- n36 -->
<g id="node9" class="node">
<title>n36</title>
<ellipse fill="none" stroke="black" cx="1512.66" cy="-673" rx="27" ry="18"/>
<text text-anchor="middle" x="1512.66" y="-669.3" font-family="Times,serif" font-size="14.00">rhs</text>
</g>
<!-- n41 -->
<g id="node10" class="node">
<title>n41</title>
<ellipse fill="none" stroke="black" cx="3290.33" cy="-189" rx="27" ry="18"/>
<text text-anchor="middle" x="3290.33" y="-185.3" font-family="Times,serif" font-size="14.00">lhs</text>
</g>
<!-- n42 -->
<g id="node11" class="node">
<title>n42</title>
<ellipse fill="none" stroke="black" cx="3721.02" cy="-216" rx="41.69" ry="18"/>
<text text-anchor="middle" x="3721.02" y="-212.3" font-family="Times,serif" font-size="14.00">output</text>
</g>
<!-- n41&#45;&gt;n42 -->
<!-- n44 -->
<g id="node13" class="node">
<title>n44</title>
<ellipse fill="none" stroke="black" cx="4291.76" cy="-525" rx="27" ry="18"/>
<text text-anchor="middle" x="4291.76" y="-521.3" font-family="Times,serif" font-size="14.00">lhs</text>
</g>
<!-- n42&#45;&gt;n44 -->
<g id="edge34" class="edge">
<title>n42&#45;&gt;n44</title>
<path fill="none" stroke="black" d="M3763.01,-216C3894.89,-216 4292.09,-216 4292.09,-216 4292.09,-216 4292.09,-496.6 4292.09,-496.6"/>
<polygon fill="black" stroke="black" points="4288.59,-496.6 4292.09,-506.6 4295.59,-496.6 4288.59,-496.6"/>
<text text-anchor="middle" x="3984.61" y="-373.8" font-family="Times,serif" font-size="14.00">CONCURRENCY_INCREMENT_SINGLE_TICK</text>
</g>
<!-- n40 -->
<g id="node12" class="node">
<title>n40</title>
<ellipse fill="none" stroke="black" cx="3290.33" cy="-243" rx="27" ry="18"/>
<text text-anchor="middle" x="3290.33" y="-239.3" font-family="Times,serif" font-size="14.00">rhs</text>
</g>
<!-- n46 -->
<g id="node14" class="node">
<title>n46</title>
<ellipse fill="none" stroke="black" cx="4455.49" cy="-579" rx="41.69" ry="18"/>
<text text-anchor="middle" x="4455.49" y="-575.3" font-family="Times,serif" font-size="14.00">output</text>
</g>
<!-- n48 -->
<g id="node49" class="node">
<title>n48</title>
<ellipse fill="none" stroke="black" cx="2440.74" cy="-910" rx="40.09" ry="18"/>
<text text-anchor="middle" x="2440.74" y="-906.3" font-family="Times,serif" font-size="14.00">inputs</text>
</g>
<!-- n46&#45;&gt;n48 -->
<g id="edge35" class="edge">
<title>n46&#45;&gt;n48</title>
<path fill="none" stroke="black" d="M4442.09,-596.2C4442.09,-601.03 4442.09,-605 4442.09,-605 4442.09,-605 2472.09,-605 2472.09,-605 2472.09,-605 2472.09,-888.42 2472.09,-888.42"/>
<polygon fill="black" stroke="black" points="2468.59,-888.42 2472.09,-898.42 2475.59,-888.42 2468.59,-888.42"/>
<text text-anchor="middle" x="3508.92" y="-798.8" font-family="Times,serif" font-size="14.00">CONCURRENCY_INCREMENT_INTEGRAL</text>
</g>
<!-- n45 -->
<g id="node15" class="node">
<title>n45</title>
<ellipse fill="none" stroke="black" cx="4291.76" cy="-579" rx="27" ry="18"/>
<text text-anchor="middle" x="4291.76" y="-575.3" font-family="Times,serif" font-size="14.00">rhs</text>
</g>
<!-- n45&#45;&gt;n46 -->
<!-- n16 -->
<g id="node16" class="node">
<title>n16</title>
<ellipse fill="none" stroke="black" cx="469.19" cy="-735" rx="27" ry="18"/>
<text text-anchor="middle" x="469.19" y="-731.3" font-family="Times,serif" font-size="14.00">lhs</text>
</g>
<!-- n18 -->
<g id="node17" class="node">
<title>n18</title>
<ellipse fill="none" stroke="black" cx="643.79" cy="-721" rx="41.69" ry="18"/>
<text text-anchor="middle" x="643.79" y="-717.3" font-family="Times,serif" font-size="14.00">output</text>
</g>
<!-- n60 -->
<g id="node39" class="node">
<title>n60</title>
<ellipse fill="none" stroke="black" cx="953.43" cy="-840" rx="76.09" ry="18"/>
<text text-anchor="middle" x="953.43" y="-836.3" font-family="Times,serif" font-size="14.00">max_envelope</text>
</g>
<!-- n18&#45;&gt;n60 -->
<g id="edge33" class="edge">
<title>n18&#45;&gt;n60</title>
<path fill="none" stroke="black" d="M644.09,-739.32C644.09,-770.13 644.09,-829 644.09,-829 644.09,-829 883.05,-829 883.05,-829"/>
<polygon fill="black" stroke="black" points="883.05,-832.5 893.05,-829 883.05,-825.5 883.05,-832.5"/>
<text text-anchor="middle" x="781.39" y="-790.8" font-family="Times,serif" font-size="14.00">MAX_EMA</text>
</g>
<!-- n17 -->
<g id="node18" class="node">
<title>n17</title>
<ellipse fill="none" stroke="black" cx="469.19" cy="-681" rx="27" ry="18"/>
<text text-anchor="middle" x="469.19" y="-677.3" font-family="Times,serif" font-size="14.00">rhs</text>
</g>
<!-- n17&#45;&gt;n18 -->
<!-- n20 -->
<g id="node19" class="node">
<title>n20</title>
<ellipse fill="none" stroke="black" cx="1512.66" cy="-948" rx="27" ry="18"/>
<text text-anchor="middle" x="1512.66" y="-944.3" font-family="Times,serif" font-size="14.00">lhs</text>
</g>
<!-- n22 -->
<g id="node20" class="node">
<title>n22</title>
<ellipse fill="none" stroke="black" cx="1850.05" cy="-894" rx="41.69" ry="18"/>
<text text-anchor="middle" x="1850.05" y="-890.3" font-family="Times,serif" font-size="14.00">output</text>
</g>
<!-- n67 -->
<g id="node45" class="node">
<title>n67</title>
<ellipse fill="none" stroke="black" cx="4291.76" cy="-1116" rx="48.99" ry="18"/>
<text text-anchor="middle" x="4291.76" y="-1112.3" font-family="Times,serif" font-size="14.00">setpoint</text>
</g>
<!-- n22&#45;&gt;n67 -->
<g id="edge45" class="edge">
<title>n22&#45;&gt;n67</title>
<path fill="none" stroke="black" d="M1884.97,-884C2180.6,-884 4254.09,-884 4254.09,-884 4254.09,-884 4254.09,-1094.5 4254.09,-1094.5"/>
<polygon fill="black" stroke="black" points="4250.59,-1094.5 4254.09,-1104.5 4257.59,-1094.5 4250.59,-1094.5"/>
<text text-anchor="middle" x="3028.73" y="-787.8" font-family="Times,serif" font-size="14.00">LATENCY_SETPOINT</text>
</g>
<!-- n21 -->
<g id="node21" class="node">
<title>n21</title>
<ellipse fill="none" stroke="black" cx="1512.66" cy="-894" rx="27" ry="18"/>
<text text-anchor="middle" x="1512.66" y="-890.3" font-family="Times,serif" font-size="14.00">rhs</text>
</g>
<!-- n21&#45;&gt;n22 -->
<!-- n24 -->
<g id="node22" class="node">
<title>n24</title>
<ellipse fill="none" stroke="black" cx="2440.74" cy="-1677" rx="27" ry="18"/>
<text text-anchor="middle" x="2440.74" y="-1673.3" font-family="Times,serif" font-size="14.00">lhs</text>
</g>
<!-- n26 -->
<g id="node23" class="node">
<title>n26</title>
<ellipse fill="none" stroke="black" cx="2773.63" cy="-1669" rx="41.69" ry="18"/>
<text text-anchor="middle" x="2773.63" y="-1665.3" font-family="Times,serif" font-size="14.00">output</text>
</g>
<!-- n26&#45;&gt;n28 -->
<g id="edge25" class="edge">
<title>n26&#45;&gt;n28</title>
<path fill="none" stroke="black" d="M2788.09,-1686.1C2788.09,-1730.13 2788.09,-1844 2788.09,-1844 2788.09,-1844 2478,-1844 2478,-1844"/>
<polygon fill="black" stroke="black" points="2478,-1840.5 2468,-1844 2478,-1847.5 2478,-1840.5"/>
<text text-anchor="middle" x="2586.54" y="-1685.8" font-family="Times,serif" font-size="14.00">DELTA_CONCURRENCY</text>
</g>
<!-- n25 -->
<g id="node24" class="node">
<title>n25</title>
<ellipse fill="none" stroke="black" cx="2440.74" cy="-1623" rx="27" ry="18"/>
<text text-anchor="middle" x="2440.74" y="-1619.3" font-family="Times,serif" font-size="14.00">rhs</text>
</g>
<!-- n25&#45;&gt;n26 -->
<!-- n71 -->
<g id="node26" class="node">
<title>n71</title>
<ellipse fill="none" stroke="black" cx="1850.05" cy="-1588" rx="113.98" ry="18"/>
<text text-anchor="middle" x="1850.05" y="-1584.3" font-family="Times,serif" font-size="14.00">accepted_concurrency</text>
</g>
<!-- n71&#45;&gt;n33 -->
<g id="edge17" class="edge">
<title>n71&#45;&gt;n33</title>
<path fill="none" stroke="black" d="M1956.74,-1581.67C2126.99,-1581.67 2441.09,-1581.67 2441.09,-1581.67 2441.09,-1581.67 2441.09,-1484 2441.09,-1484"/>
<polygon fill="black" stroke="black" points="2444.59,-1484 2441.09,-1474 2437.59,-1484.01 2444.59,-1484"/>
<text text-anchor="middle" x="2207.44" y="-1525.8" font-family="Times,serif" font-size="14.00">ACCEPTED_CONCURRENCY</text>
</g>
<!-- n65 -->
<g id="node41" class="node">
<title>n65</title>
<ellipse fill="none" stroke="black" cx="4291.76" cy="-1278" rx="85.29" ry="18"/>
<text text-anchor="middle" x="4291.76" y="-1274.3" font-family="Times,serif" font-size="14.00">control_variable</text>
</g>
<!-- n71&#45;&gt;n65 -->
<g id="edge19" class="edge">
<title>n71&#45;&gt;n65</title>
<path fill="none" stroke="black" d="M1959.08,-1593.33C2426.09,-1593.33 4234.09,-1593.33 4234.09,-1593.33 4234.09,-1593.33 4234.09,-1301.55 4234.09,-1301.55"/>
<polygon fill="black" stroke="black" points="4237.59,-1301.55 4234.09,-1291.55 4230.59,-1301.55 4237.59,-1301.55"/>
<text text-anchor="middle" x="3028.73" y="-1277.8" font-family="Times,serif" font-size="14.00">ACCEPTED_CONCURRENCY</text>
</g>
<!-- n54 -->
<g id="node52" class="node">
<title>n54</title>
<ellipse fill="none" stroke="black" cx="2440.74" cy="-243" rx="35.19" ry="18"/>
<text text-anchor="middle" x="2440.74" y="-239.3" font-family="Times,serif" font-size="14.00">input</text>
</g>
<!-- n71&#45;&gt;n54 -->
<g id="edge18" class="edge">
<title>n71&#45;&gt;n54</title>
<path fill="none" stroke="black" d="M1928.09,-1574.69C1928.09,-1435 1928.09,-243 1928.09,-243 1928.09,-243 2395.5,-243 2395.5,-243"/>
<polygon fill="black" stroke="black" points="2395.5,-246.5 2405.5,-243 2395.5,-239.5 2395.5,-246.5"/>
<text text-anchor="middle" x="2207.44" y="-1264.8" font-family="Times,serif" font-size="14.00">ACCEPTED_CONCURRENCY</text>
</g>
<!-- n72 -->
<g id="node27" class="node">
<title>n72</title>
<ellipse fill="none" stroke="black" cx="1850.05" cy="-1642" rx="114.28" ry="18"/>
<text text-anchor="middle" x="1850.05" y="-1638.3" font-family="Times,serif" font-size="14.00">incoming_concurrency</text>
</g>
<!-- n72&#45;&gt;n29 -->
<g id="edge21" class="edge">
<title>n72&#45;&gt;n29</title>
<path fill="none" stroke="black" d="M1948.09,-1651.41C1948.09,-1697.6 1948.09,-1898 1948.09,-1898 1948.09,-1898 2403.55,-1898 2403.55,-1898"/>
<polygon fill="black" stroke="black" points="2403.55,-1901.5 2413.55,-1898 2403.55,-1894.5 2403.55,-1901.5"/>
<text text-anchor="middle" x="2207.44" y="-1795.8" font-family="Times,serif" font-size="14.00">INCOMING_CONCURRENCY</text>
</g>
<!-- n72&#45;&gt;n24 -->
<g id="edge20" class="edge">
<title>n72&#45;&gt;n24</title>
<path fill="none" stroke="black" d="M1956.09,-1648.84C1956.09,-1659.16 1956.09,-1677.5 1956.09,-1677.5 1956.09,-1677.5 2403.65,-1677.5 2403.65,-1677.5"/>
<polygon fill="black" stroke="black" points="2403.65,-1681 2413.65,-1677.5 2403.65,-1674 2403.65,-1681"/>
<text text-anchor="middle" x="2207.44" y="-1666.8" font-family="Times,serif" font-size="14.00">INCOMING_CONCURRENCY</text>
</g>
<!-- n2 -->
<g id="node28" class="node">
<title>n2</title>
<ellipse fill="none" stroke="black" cx="99.6" cy="-515" rx="41.69" ry="18"/>
<text text-anchor="middle" x="99.6" y="-511.3" font-family="Times,serif" font-size="14.00">output</text>
</g>
<!-- n2&#45;&gt;n17 -->
<g id="edge32" class="edge">
<title>n2&#45;&gt;n17</title>
<path fill="none" stroke="black" d="M139.6,-520C235.4,-520 470.09,-520 470.09,-520 470.09,-520 470.09,-652.84 470.09,-652.84"/>
<polygon fill="black" stroke="black" points="466.59,-652.84 470.09,-662.84 473.59,-652.84 466.59,-652.84"/>
<text text-anchor="middle" x="291.69" y="-518.8" font-family="Times,serif" font-size="14.00">EMA_LIMIT_MULTIPLIER</text>
</g>
<!-- n4 -->
<g id="node29" class="node">
<title>n4</title>
<ellipse fill="none" stroke="black" cx="1850.05" cy="-1356" rx="41.69" ry="18"/>
<text text-anchor="middle" x="1850.05" y="-1352.3" font-family="Times,serif" font-size="14.00">output</text>
</g>
<!-- n4&#45;&gt;n32 -->
<g id="edge23" class="edge">
<title>n4&#45;&gt;n32</title>
<path fill="none" stroke="black" d="M1889.29,-1362C2021.3,-1362 2441.09,-1362 2441.09,-1362 2441.09,-1362 2441.09,-1373.87 2441.09,-1373.87"/>
<polygon fill="black" stroke="black" points="2437.59,-1373.87 2441.09,-1383.87 2444.59,-1373.87 2437.59,-1373.87"/>
<text text-anchor="middle" x="2207.44" y="-1302.8" font-family="Times,serif" font-size="14.00">CONCURRENCY_LIMIT_MULTIPLIER</text>
</g>
<!-- n6 -->
<g id="node30" class="node">
<title>n6</title>
<ellipse fill="none" stroke="black" cx="99.6" cy="-1523" rx="41.69" ry="18"/>
<text text-anchor="middle" x="99.6" y="-1519.3" font-family="Times,serif" font-size="14.00">output</text>
</g>
<!-- n8 -->
<g id="node31" class="node">
<title>n8</title>
<ellipse fill="none" stroke="black" cx="2773.63" cy="-76" rx="41.69" ry="18"/>
<text text-anchor="middle" x="2773.63" y="-72.3" font-family="Times,serif" font-size="14.00">output</text>
</g>
<!-- n8&#45;&gt;n41 -->
<g id="edge44" class="edge">
<title>n8&#45;&gt;n41</title>
<path fill="none" stroke="black" d="M2815.54,-76C2938.73,-76 3291.09,-76 3291.09,-76 3291.09,-76 3291.09,-160.84 3291.09,-160.84"/>
<polygon fill="black" stroke="black" points="3287.59,-160.84 3291.09,-170.84 3294.59,-160.84 3287.59,-160.84"/>
<text text-anchor="middle" x="3028.73" y="-136.8" font-family="Times,serif" font-size="14.00">LINEAR_CONCURRENCY_INCREMENT</text>
</g>
<!-- n10 -->
<g id="node32" class="node">
<title>n10</title>
<ellipse fill="none" stroke="black" cx="2773.63" cy="-1077" rx="41.69" ry="18"/>
<text text-anchor="middle" x="2773.63" y="-1073.3" font-family="Times,serif" font-size="14.00">output</text>
</g>
<!-- n80 -->
<g id="node55" class="node">
<title>n80</title>
<ellipse fill="none" stroke="black" cx="3290.33" cy="-1075" rx="46.29" ry="18"/>
<text text-anchor="middle" x="3290.33" y="-1071.3" font-family="Times,serif" font-size="14.00">on_true</text>
</g>
<!-- n10&#45;&gt;n80 -->
<g id="edge24" class="edge">
<title>n10&#45;&gt;n80</title>
<path fill="none" stroke="black" d="M2815.48,-1076C2815.48,-1076 3234.03,-1076 3234.03,-1076"/>
<polygon fill="black" stroke="black" points="3234.03,-1079.5 3244.03,-1076 3234.03,-1072.5 3234.03,-1079.5"/>
<text text-anchor="middle" x="3028.73" y="-1079.8" font-family="Times,serif" font-size="14.00">CONCURRENCY_INCREMENT_OVERLOAD</text>
</g>
<!-- n12 -->
<g id="node33" class="node">
<title>n12</title>
<ellipse fill="none" stroke="black" cx="1217.07" cy="-673" rx="41.69" ry="18"/>
<text text-anchor="middle" x="1217.07" y="-669.3" font-family="Times,serif" font-size="14.00">output</text>
</g>
<!-- n12&#45;&gt;n36 -->
<g id="edge38" class="edge">
<title>n12&#45;&gt;n36</title>
<path fill="none" stroke="black" d="M1256.32,-667C1256.32,-667 1477.17,-667 1477.17,-667"/>
<polygon fill="black" stroke="black" points="1477.17,-670.5 1487.17,-667 1477.17,-663.5 1477.17,-670.5"/>
<text text-anchor="middle" x="1372.16" y="-676.8" font-family="Times,serif" font-size="14.00">TOLERANCE</text>
</g>
<!-- n12&#45;&gt;n21 -->
<g id="edge37" class="edge">
<title>n12&#45;&gt;n21</title>
<path fill="none" stroke="black" d="M1256.44,-679C1302.66,-679 1373.09,-679 1373.09,-679 1373.09,-679 1373.09,-894 1373.09,-894 1373.09,-894 1475.42,-894 1475.42,-894"/>
<polygon fill="black" stroke="black" points="1475.42,-897.5 1485.42,-894 1475.42,-890.5 1475.42,-897.5"/>
<text text-anchor="middle" x="1372.16" y="-727.8" font-family="Times,serif" font-size="14.00">TOLERANCE</text>
</g>
<!-- n14 -->
<g id="node34" class="node">
<title>n14</title>
<ellipse fill="none" stroke="black" cx="2773.63" cy="-410" rx="41.69" ry="18"/>
<text text-anchor="middle" x="2773.63" y="-406.3" font-family="Times,serif" font-size="14.00">output</text>
</g>
<!-- n85 -->
<g id="node59" class="node">
<title>n85</title>
<ellipse fill="none" stroke="black" cx="3290.33" cy="-525" rx="46.29" ry="18"/>
<text text-anchor="middle" x="3290.33" y="-521.3" font-family="Times,serif" font-size="14.00">on_true</text>
</g>
<!-- n14&#45;&gt;n85 -->
<g id="edge39" class="edge">
<title>n14&#45;&gt;n85</title>
<path fill="none" stroke="black" d="M2815.43,-410C2932.32,-410 3254.09,-410 3254.09,-410 3254.09,-410 3254.09,-503.55 3254.09,-503.55"/>
<polygon fill="black" stroke="black" points="3250.59,-503.55 3254.09,-513.55 3257.59,-503.55 3250.59,-503.55"/>
<text text-anchor="middle" x="3028.73" y="-470.8" font-family="Times,serif" font-size="14.00">ZERO</text>
</g>
<!-- n77 -->
<g id="node35" class="node">
<title>n77</title>
<ellipse fill="none" stroke="black" cx="2440.74" cy="-577" rx="27" ry="18"/>
<text text-anchor="middle" x="2440.74" y="-573.3" font-family="Times,serif" font-size="14.00">lhs</text>
</g>
<!-- n78 -->
<g id="node36" class="node">
<title>n78</title>
<ellipse fill="none" stroke="black" cx="2773.63" cy="-579" rx="41.69" ry="18"/>
<text text-anchor="middle" x="2773.63" y="-575.3" font-family="Times,serif" font-size="14.00">output</text>
</g>
<!-- n77&#45;&gt;n78 -->
<!-- n82 -->
<g id="node57" class="node">
<title>n82</title>
<ellipse fill="none" stroke="black" cx="3290.33" cy="-967" rx="40.89" ry="18"/>
<text text-anchor="middle" x="3290.33" y="-963.3" font-family="Times,serif" font-size="14.00">switch</text>
</g>
<!-- n78&#45;&gt;n82 -->
<g id="edge50" class="edge">
<title>n78&#45;&gt;n82</title>
<path fill="none" stroke="black" d="M2812.99,-573C2884.65,-573 3029.09,-573 3029.09,-573 3029.09,-573 3029.09,-957.5 3029.09,-957.5 3029.09,-957.5 3245.37,-957.5 3245.37,-957.5"/>
<polygon fill="black" stroke="black" points="3245.37,-961 3255.37,-957.5 3245.37,-954 3245.37,-961"/>
<text text-anchor="middle" x="3028.73" y="-865.8" font-family="Times,serif" font-size="14.00">IS_OVERLOAD_SWITCH</text>
</g>
<!-- n87 -->
<g id="node61" class="node">
<title>n87</title>
<ellipse fill="none" stroke="black" cx="3290.33" cy="-579" rx="40.89" ry="18"/>
<text text-anchor="middle" x="3290.33" y="-575.3" font-family="Times,serif" font-size="14.00">switch</text>
</g>
<!-- n78&#45;&gt;n87 -->
<g id="edge51" class="edge">
<title>n78&#45;&gt;n87</title>
<path fill="none" stroke="black" d="M2812.89,-585C2812.89,-585 3241.48,-585 3241.48,-585"/>
<polygon fill="black" stroke="black" points="3241.48,-588.5 3251.48,-585 3241.48,-581.5 3241.48,-588.5"/>
<text text-anchor="middle" x="3028.73" y="-582.8" font-family="Times,serif" font-size="14.00">IS_OVERLOAD_SWITCH</text>
</g>
<!-- n59 -->
<g id="node38" class="node">
<title>n59</title>
<ellipse fill="none" stroke="black" cx="953.43" cy="-894" rx="35.19" ry="18"/>
<text text-anchor="middle" x="953.43" y="-890.3" font-family="Times,serif" font-size="14.00">input</text>
</g>
<!-- n61 -->
<g id="node40" class="node">
<title>n61</title>
<ellipse fill="none" stroke="black" cx="1217.07" cy="-840" rx="41.69" ry="18"/>
<text text-anchor="middle" x="1217.07" y="-836.3" font-family="Times,serif" font-size="14.00">output</text>
</g>
<!-- n60&#45;&gt;n61 -->
<!-- n61&#45;&gt;n37 -->
<g id="edge42" class="edge">
<title>n61&#45;&gt;n37</title>
<path fill="none" stroke="black" d="M1258.85,-840C1340.45,-840 1513.09,-840 1513.09,-840 1513.09,-840 1513.09,-755.16 1513.09,-755.16"/>
<polygon fill="black" stroke="black" points="1516.59,-755.16 1513.09,-745.16 1509.59,-755.16 1516.59,-755.16"/>
<text text-anchor="middle" x="1372.16" y="-791.8" font-family="Times,serif" font-size="14.00">LATENCY_EMA</text>
</g>
<!-- n61&#45;&gt;n20 -->
<g id="edge41" class="edge">
<title>n61&#45;&gt;n20</title>
<path fill="none" stroke="black" d="M1217.09,-858.32C1217.09,-889.13 1217.09,-948 1217.09,-948 1217.09,-948 1475.65,-948 1475.65,-948"/>
<polygon fill="black" stroke="black" points="1475.65,-951.5 1485.65,-948 1475.65,-944.5 1475.65,-951.5"/>
<text text-anchor="middle" x="1372.16" y="-897.8" font-family="Times,serif" font-size="14.00">LATENCY_EMA</text>
</g>
<!-- n64 -->
<g id="node42" class="node">
<title>n64</title>
<ellipse fill="none" stroke="black" cx="4291.76" cy="-1332" rx="30.59" ry="18"/>
<text text-anchor="middle" x="4291.76" y="-1328.3" font-family="Times,serif" font-size="14.00">max</text>
</g>
<!-- n63 -->
<g id="node43" class="node">
<title>n63</title>
<ellipse fill="none" stroke="black" cx="4291.76" cy="-1170" rx="50.89" ry="18"/>
<text text-anchor="middle" x="4291.76" y="-1166.3" font-family="Times,serif" font-size="14.00">optimize</text>
</g>
<!-- n68 -->
<g id="node44" class="node">
<title>n68</title>
<ellipse fill="none" stroke="black" cx="4455.49" cy="-1224" rx="41.69" ry="18"/>
<text text-anchor="middle" x="4455.49" y="-1220.3" font-family="Times,serif" font-size="14.00">output</text>
</g>
<!-- n68&#45;&gt;n25 -->
<g id="edge43" class="edge">
<title>n68&#45;&gt;n25</title>
<path fill="none" stroke="black" d="M4456.09,-1242.18C4456.09,-1320.24 4456.09,-1623 4456.09,-1623 4456.09,-1623 2478.08,-1623 2478.08,-1623"/>
<polygon fill="black" stroke="black" points="2478.08,-1619.5 2468.08,-1623 2478.08,-1626.5 2478.08,-1619.5"/>
<text text-anchor="middle" x="3508.92" y="-1618.8" font-family="Times,serif" font-size="14.00">DESIRED_CONCURRENCY</text>
</g>
<!-- n67&#45;&gt;n68 -->
<!-- n66 -->
<g id="node46" class="node">
<title>n66</title>
<ellipse fill="none" stroke="black" cx="4291.76" cy="-1224" rx="38.19" ry="18"/>
<text text-anchor="middle" x="4291.76" y="-1220.3" font-family="Times,serif" font-size="14.00">signal</text>
</g>
<!-- n52 -->
<g id="node48" class="node">
<title>n52</title>
<ellipse fill="none" stroke="black" cx="3721.02" cy="-1415" rx="41.69" ry="18"/>
<text text-anchor="middle" x="3721.02" y="-1411.3" font-family="Times,serif" font-size="14.00">output</text>
</g>
<!-- n51&#45;&gt;n52 -->
<!-- n52&#45;&gt;n64 -->
<g id="edge49" class="edge">
<title>n52&#45;&gt;n64</title>
<path fill="none" stroke="black" d="M3735.09,-1397.81C3735.09,-1376.8 3735.09,-1344 3735.09,-1344 3735.09,-1344 4258.9,-1344 4258.9,-1344"/>
<polygon fill="black" stroke="black" points="4258.9,-1347.5 4268.9,-1344 4258.9,-1340.5 4258.9,-1347.5"/>
<text text-anchor="middle" x="3984.61" y="-1379.8" font-family="Times,serif" font-size="14.00">MAX_CONCURRENCY</text>
</g>
<!-- n49 -->
<g id="node50" class="node">
<title>n49</title>
<ellipse fill="none" stroke="black" cx="2773.63" cy="-910" rx="41.69" ry="18"/>
<text text-anchor="middle" x="2773.63" y="-906.3" font-family="Times,serif" font-size="14.00">output</text>
</g>
<!-- n48&#45;&gt;n49 -->
<!-- n81 -->
<g id="node54" class="node">
<title>n81</title>
<ellipse fill="none" stroke="black" cx="3290.33" cy="-1021" rx="48.19" ry="18"/>
<text text-anchor="middle" x="3290.33" y="-1017.3" font-family="Times,serif" font-size="14.00">on_false</text>
</g>
<!-- n49&#45;&gt;n81 -->
<g id="edge47" class="edge">
<title>n49&#45;&gt;n81</title>
<path fill="none" stroke="black" d="M2813.19,-916C2926.98,-916 3247.09,-916 3247.09,-916 3247.09,-916 3247.09,-1003.11 3247.09,-1003.11"/>
<polygon fill="black" stroke="black" points="3243.59,-1003.11 3247.09,-1013.11 3250.59,-1003.11 3243.59,-1003.11"/>
<text text-anchor="middle" x="3028.73" y="-997.8" font-family="Times,serif" font-size="14.00">CONCURRENCY_INCREMENT_NORMAL</text>
</g>
<!-- n86 -->
<g id="node58" class="node">
<title>n86</title>
<ellipse fill="none" stroke="black" cx="3290.33" cy="-633" rx="48.19" ry="18"/>
<text text-anchor="middle" x="3290.33" y="-629.3" font-family="Times,serif" font-size="14.00">on_false</text>
</g>
<!-- n49&#45;&gt;n86 -->
<g id="edge48" class="edge">
<title>n49&#45;&gt;n86</title>
<path fill="none" stroke="black" d="M2813.02,-904C2926.33,-904 3245.09,-904 3245.09,-904 3245.09,-904 3245.09,-649.17 3245.09,-649.17"/>
<polygon fill="black" stroke="black" points="3248.59,-649.17 3245.09,-639.17 3241.59,-649.17 3248.59,-649.17"/>
<text text-anchor="middle" x="3028.73" y="-909.8" font-family="Times,serif" font-size="14.00">CONCURRENCY_INCREMENT_NORMAL</text>
</g>
<!-- n57 -->
<g id="node51" class="node">
<title>n57</title>
<ellipse fill="none" stroke="black" cx="99.6" cy="-854" rx="41.69" ry="18"/>
<text text-anchor="middle" x="99.6" y="-850.3" font-family="Times,serif" font-size="14.00">output</text>
</g>
<!-- n57&#45;&gt;n16 -->
<g id="edge28" class="edge">
<title>n57&#45;&gt;n16</title>
<path fill="none" stroke="black" d="M138.2,-847C233.09,-847 470.09,-847 470.09,-847 470.09,-847 470.09,-762.99 470.09,-762.99"/>
<polygon fill="black" stroke="black" points="473.59,-762.99 470.09,-752.99 466.59,-762.99 473.59,-762.99"/>
<text text-anchor="middle" x="291.69" y="-778.8" font-family="Times,serif" font-size="14.00">LATENCY</text>
</g>
<!-- n57&#45;&gt;n77 -->
<g id="edge31" class="edge">
<title>n57&#45;&gt;n77</title>
<path fill="none" stroke="black" d="M100.09,-835.83C100.09,-774.2 100.09,-577 100.09,-577 100.09,-577 2403.64,-577 2403.64,-577"/>
<polygon fill="black" stroke="black" points="2403.64,-580.5 2413.64,-577 2403.64,-573.5 2403.64,-580.5"/>
<text text-anchor="middle" x="1082.47" y="-548.8" font-family="Times,serif" font-size="14.00">LATENCY</text>
</g>
<!-- n57&#45;&gt;n59 -->
<g id="edge29" class="edge">
<title>n57&#45;&gt;n59</title>
<path fill="none" stroke="black" d="M132.57,-865C289.61,-865 954.09,-865 954.09,-865 954.09,-865 954.09,-866.08 954.09,-866.08"/>
<polygon fill="black" stroke="black" points="950.59,-865.8 954.09,-875.8 957.59,-865.8 950.59,-865.8"/>
<text text-anchor="middle" x="549.19" y="-897.8" font-family="Times,serif" font-size="14.00">LATENCY</text>
</g>
<!-- n57&#45;&gt;n66 -->
<g id="edge30" class="edge">
<title>n57&#45;&gt;n66</title>
<path fill="none" stroke="black" d="M100.09,-872.1C100.09,-946.38 100.09,-1224 100.09,-1224 100.09,-1224 4243.26,-1224 4243.26,-1224"/>
<polygon fill="black" stroke="black" points="4243.26,-1227.5 4253.26,-1224 4243.26,-1220.5 4243.26,-1227.5"/>
<text text-anchor="middle" x="1592.66" y="-1231.8" font-family="Times,serif" font-size="14.00">LATENCY</text>
</g>
<!-- n55 -->
<g id="node53" class="node">
<title>n55</title>
<ellipse fill="none" stroke="black" cx="2773.63" cy="-243" rx="41.69" ry="18"/>
<text text-anchor="middle" x="2773.63" y="-239.3" font-family="Times,serif" font-size="14.00">output</text>
</g>
<!-- n54&#45;&gt;n55 -->
<!-- n55&#45;&gt;n40 -->
<g id="edge27" class="edge">
<title>n55&#45;&gt;n40</title>
<path fill="none" stroke="black" d="M2815.48,-243C2815.48,-243 3253.3,-243 3253.3,-243"/>
<polygon fill="black" stroke="black" points="3253.3,-246.5 3263.3,-243 3253.3,-239.5 3253.3,-246.5"/>
<text text-anchor="middle" x="3028.73" y="-246.8" font-family="Times,serif" font-size="14.00">SQRT_CONCURRENCY_INCREMENT</text>
</g>
<!-- n83 -->
<g id="node56" class="node">
<title>n83</title>
<ellipse fill="none" stroke="black" cx="3721.02" cy="-1021" rx="41.69" ry="18"/>
<text text-anchor="middle" x="3721.02" y="-1017.3" font-family="Times,serif" font-size="14.00">output</text>
</g>
<!-- n83&#45;&gt;n63 -->
<g id="edge36" class="edge">
<title>n83&#45;&gt;n63</title>
<path fill="none" stroke="black" d="M3708.09,-1038.38C3708.09,-1077.69 3708.09,-1170 3708.09,-1170 3708.09,-1170 4230.98,-1170 4230.98,-1170"/>
<polygon fill="black" stroke="black" points="4230.98,-1173.5 4240.98,-1170 4230.98,-1166.5 4230.98,-1173.5"/>
<text text-anchor="middle" x="3984.61" y="-1097.8" font-family="Times,serif" font-size="14.00">CONCURRENCY_INCREMENT</text>
</g>
<!-- n82&#45;&gt;n83 -->
<!-- n88 -->
<g id="node60" class="node">
<title>n88</title>
<ellipse fill="none" stroke="black" cx="3721.02" cy="-579" rx="41.69" ry="18"/>
<text text-anchor="middle" x="3721.02" y="-575.3" font-family="Times,serif" font-size="14.00">output</text>
</g>
<!-- n88&#45;&gt;n45 -->
<g id="edge22" class="edge">
<title>n88&#45;&gt;n45</title>
<path fill="none" stroke="black" d="M3762.99,-579C3762.99,-579 4254.57,-579 4254.57,-579"/>
<polygon fill="black" stroke="black" points="4254.57,-582.5 4264.57,-579 4254.57,-575.5 4254.57,-582.5"/>
<text text-anchor="middle" x="3984.61" y="-582.8" font-family="Times,serif" font-size="14.00">CONCURRENCY_INCREMENT_FEEDBACK</text>
</g>
<!-- n87&#45;&gt;n88 -->
</g>
</svg>
