<?xml version="1.0" encoding="UTF-8" standalone="no"?>
<!DOCTYPE svg PUBLIC "-//W3C//DTD SVG 1.1//EN"
 "http://www.w3.org/Graphics/SVG/1.1/DTD/svg11.dtd">
<!-- Generated by graphviz version 6.0.1 (20220911.1526)
 -->
<!-- Pages: 1 -->
<svg width="2324pt" height="2573pt"
 viewBox="0.00 0.00 2324.14 2573.00" xmlns="http://www.w3.org/2000/svg" xmlns:xlink="http://www.w3.org/1999/xlink">
<g id="graph0" class="graph" transform="scale(1 1) rotate(0) translate(4 2569)">
<polygon fill="white" stroke="none" points="-4,4 -4,-2569 2320.14,-2569 2320.14,4 -4,4"/>
<g id="clust1" class="cluster">
<title>cluster_s1</title>
<polygon fill="none" stroke="black" points="18.4,-1595 18.4,-1808 422.39,-1808 422.39,-1595 18.4,-1595"/>
<text text-anchor="middle" x="220.39" y="-1792.8" font-family="Times,serif" font-size="14.00">ArithmeticCombinator[0]</text>
</g>
<g id="clust4" class="cluster">
<title>cluster_s6</title>
<polygon fill="none" stroke="black" points="1464.49,-1956 1464.49,-2169 1910.66,-2169 1910.66,-1956 1464.49,-1956"/>
<text text-anchor="middle" x="1687.58" y="-2153.8" font-family="Times,serif" font-size="14.00">ArithmeticCombinator[1]</text>
</g>
<g id="clust7" class="cluster">
<title>cluster_s11</title>
<polygon fill="none" stroke="black" points="1333.34,-892 1333.34,-1105 1637.28,-1105 1637.28,-892 1333.34,-892"/>
<text text-anchor="middle" x="1485.31" y="-1089.8" font-family="Times,serif" font-size="14.00">ArithmeticCombinator[2]</text>
</g>
<g id="clust10" class="cluster">
<title>cluster_s15</title>
<polygon fill="none" stroke="black" points="1333.34,-671 1333.34,-884 1637.28,-884 1637.28,-671 1333.34,-671"/>
<text text-anchor="middle" x="1485.31" y="-868.8" font-family="Times,serif" font-size="14.00">ArithmeticCombinator[3]</text>
</g>
<g id="clust13" class="cluster">
<title>cluster_s19</title>
<polygon fill="none" stroke="black" points="1016.46,-2177 1016.46,-2390 1637.28,-2390 1637.28,-2177 1016.46,-2177"/>
<text text-anchor="middle" x="1326.87" y="-2374.8" font-family="Times,serif" font-size="14.00">ArithmeticCombinator[4]</text>
</g>
<g id="clust16" class="cluster">
<title>cluster_s24</title>
<polygon fill="none" stroke="black" points="640.47,-1262 640.47,-1475 1189.25,-1475 1189.25,-1262 640.47,-1262"/>
<text text-anchor="middle" x="914.86" y="-1459.8" font-family="Times,serif" font-size="14.00">ArithmeticCombinator[5]</text>
</g>
<g id="clust19" class="cluster">
<title>cluster_s29</title>
<polygon fill="none" stroke="black" points="1464.49,-8 1464.49,-221 1910.66,-221 1910.66,-8 1464.49,-8"/>
<text text-anchor="middle" x="1687.58" y="-205.8" font-family="Times,serif" font-size="14.00">ArithmeticCombinator[6]</text>
</g>
<g id="clust22" class="cluster">
<title>cluster_s34</title>
<polygon fill="none" stroke="black" points="1976.81,-396 1976.81,-609 2308.14,-609 2308.14,-396 1976.81,-396"/>
<text text-anchor="middle" x="2142.47" y="-593.8" font-family="Times,serif" font-size="14.00">ArithmeticCombinator[7]</text>
</g>
<g id="clust25" class="cluster">
<title>cluster_s61</title>
<polygon fill="none" stroke="black" points="883.27,-687 883.27,-1232 1312.04,-1232 1312.04,-687 883.27,-687"/>
<text text-anchor="middle" x="1097.66" y="-1216.8" font-family="Times,serif" font-size="14.00">ConcurrencyLimiter[14]</text>
</g>
<g id="clust26" class="cluster">
<title>cluster_s65</title>
<polygon fill="none" stroke="black" points="941.26,-737 941.26,-896 1255.05,-896 1255.05,-737 941.26,-737"/>
<text text-anchor="middle" x="1098.16" y="-880.8" font-family="Times,serif" font-size="14.00">LoadShedActuator[14.LoadShedActuator]</text>
</g>
<g id="clust28" class="cluster">
<title>cluster_s62</title>
<polygon fill="none" stroke="black" points="933.27,-946 933.27,-1159 1262.04,-1159 1262.04,-946 933.27,-946"/>
<text text-anchor="middle" x="1097.66" y="-1143.8" font-family="Times,serif" font-size="14.00">Scheduler[14.Scheduler]</text>
</g>
<g id="clust30" class="cluster">
<title>cluster_s67</title>
<polygon fill="none" stroke="black" points="1333.34,-1310 1333.34,-1523 1637.28,-1523 1637.28,-1310 1333.34,-1310"/>
<text text-anchor="middle" x="1485.31" y="-1507.8" font-family="Times,serif" font-size="14.00">Decider[15]</text>
</g>
<g id="clust33" class="cluster">
<title>cluster_s50</title>
<polygon fill="none" stroke="black" points="430.39,-1614 430.39,-1827 813.27,-1827 813.27,-1614 430.39,-1614"/>
<text text-anchor="middle" x="621.83" y="-1811.8" font-family="Times,serif" font-size="14.00">EMA[12]</text>
</g>
<g id="clust36" class="cluster">
<title>cluster_s54</title>
<polygon fill="none" stroke="black" points="1918.66,-1544 1918.66,-1919 2308.14,-1919 2308.14,-1544 1918.66,-1544"/>
<text text-anchor="middle" x="2113.4" y="-1903.8" font-family="Times,serif" font-size="14.00">Gradient[13]</text>
</g>
<g id="clust39" class="cluster">
<title>cluster_s41</title>
<polygon fill="none" stroke="black" points="1458.64,-2398 1458.64,-2557 1910.66,-2557 1910.66,-2398 1458.64,-2398"/>
<text text-anchor="middle" x="1684.65" y="-2541.8" font-family="Times,serif" font-size="14.00">Max[9]</text>
</g>
<g id="clust42" class="cluster">
<title>cluster_s38</title>
<polygon fill="none" stroke="black" points="1320.04,-1143 1320.04,-1302 1637.28,-1302 1637.28,-1143 1320.04,-1143"/>
<text text-anchor="middle" x="1478.66" y="-1286.8" font-family="Times,serif" font-size="14.00">Min[8]</text>
</g>
<g id="clust45" class="cluster">
<title>cluster_s48</title>
<polygon fill="none" stroke="black" points="8,-1816 8,-1975 191.19,-1975 191.19,-1816 8,-1816"/>
<text text-anchor="middle" x="99.6" y="-1959.8" font-family="Times,serif" font-size="14.00">PromQL[11]</text>
</g>
<g id="clust47" class="cluster">
<title>cluster_s45</title>
<polygon fill="none" stroke="black" points="1325.24,-229 1325.24,-388 1637.28,-388 1637.28,-229 1325.24,-229"/>
<text text-anchor="middle" x="1481.26" y="-372.8" font-family="Times,serif" font-size="14.00">Sqrt[10]</text>
</g>
<g id="clust50" class="cluster">
<title>cluster_s71</title>
<polygon fill="none" stroke="black" points="1458.64,-1681 1458.64,-1948 1910.66,-1948 1910.66,-1681 1458.64,-1681"/>
<text text-anchor="middle" x="1684.65" y="-1932.8" font-family="Times,serif" font-size="14.00">Switcher[16]</text>
</g>
<g id="clust53" class="cluster">
<title>cluster_s77</title>
<polygon fill="none" stroke="black" points="1464.49,-396 1464.49,-663 1910.66,-663 1910.66,-396 1464.49,-396"/>
<text text-anchor="middle" x="1687.58" y="-647.8" font-family="Times,serif" font-size="14.00">Switcher[17]</text>
</g>
<!-- n4 -->
<g id="node1" class="node">
<title>n4</title>
<ellipse fill="none" stroke="black" cx="99.6" cy="-1663" rx="31.4" ry="18"/>
<text text-anchor="middle" x="99.6" y="-1659.3" font-family="Times,serif" font-size="14.00">2.00</text>
</g>
<!-- n3 -->
<g id="node4" class="node">
<title>n3</title>
<ellipse fill="none" stroke="black" cx="226.19" cy="-1663" rx="27" ry="18"/>
<text text-anchor="middle" x="226.19" y="-1659.3" font-family="Times,serif" font-size="14.00">rhs</text>
</g>
<!-- n4&#45;&gt;n3 -->
<g id="edge1" class="edge">
<title>n4&#45;&gt;n3</title>
<path fill="none" stroke="black" d="M130.89,-1663C130.89,-1663 189.12,-1663 189.12,-1663"/>
<polygon fill="black" stroke="black" points="189.12,-1666.5 199.12,-1663 189.12,-1659.5 189.12,-1666.5"/>
</g>
<!-- n2 -->
<g id="node2" class="node">
<title>n2</title>
<ellipse fill="none" stroke="black" cx="226.19" cy="-1717" rx="27" ry="18"/>
<text text-anchor="middle" x="226.19" y="-1713.3" font-family="Times,serif" font-size="14.00">lhs</text>
</g>
<!-- n5 -->
<g id="node3" class="node">
<title>n5</title>
<ellipse fill="none" stroke="black" cx="330.79" cy="-1672" rx="41.69" ry="18"/>
<text text-anchor="middle" x="330.79" y="-1668.3" font-family="Times,serif" font-size="14.00">output</text>
</g>
<!-- n52 -->
<g id="node37" class="node">
<title>n52</title>
<ellipse fill="none" stroke="black" cx="556.43" cy="-1682" rx="76.09" ry="18"/>
<text text-anchor="middle" x="556.43" y="-1678.3" font-family="Times,serif" font-size="14.00">max_envelope</text>
</g>
<!-- n5&#45;&gt;n52 -->
<g id="edge48" class="edge">
<title>n5&#45;&gt;n52</title>
<path fill="none" stroke="black" d="M370.87,-1677C370.87,-1677 472.99,-1677 472.99,-1677"/>
<polygon fill="black" stroke="black" points="472.99,-1680.5 482.99,-1677 472.99,-1673.5 472.99,-1680.5"/>
</g>
<!-- n3&#45;&gt;n5 -->
<!-- n9 -->
<g id="node5" class="node">
<title>n9</title>
<ellipse fill="none" stroke="black" cx="1545.68" cy="-2078" rx="31.4" ry="18"/>
<text text-anchor="middle" x="1545.68" y="-2074.3" font-family="Times,serif" font-size="14.00">1.10</text>
</g>
<!-- n8 -->
<g id="node8" class="node">
<title>n8</title>
<ellipse fill="none" stroke="black" cx="1693.38" cy="-2078" rx="27" ry="18"/>
<text text-anchor="middle" x="1693.38" y="-2074.3" font-family="Times,serif" font-size="14.00">rhs</text>
</g>
<!-- n9&#45;&gt;n8 -->
<g id="edge3" class="edge">
<title>n9&#45;&gt;n8</title>
<path fill="none" stroke="black" d="M1577.01,-2078C1577.01,-2078 1656.07,-2078 1656.07,-2078"/>
<polygon fill="black" stroke="black" points="1656.07,-2081.5 1666.07,-2078 1656.07,-2074.5 1656.07,-2081.5"/>
</g>
<!-- n7 -->
<g id="node6" class="node">
<title>n7</title>
<ellipse fill="none" stroke="black" cx="1693.38" cy="-2024" rx="27" ry="18"/>
<text text-anchor="middle" x="1693.38" y="-2020.3" font-family="Times,serif" font-size="14.00">lhs</text>
</g>
<!-- n10 -->
<g id="node7" class="node">
<title>n10</title>
<ellipse fill="none" stroke="black" cx="1819.07" cy="-2051" rx="41.69" ry="18"/>
<text text-anchor="middle" x="1819.07" y="-2047.3" font-family="Times,serif" font-size="14.00">output</text>
</g>
<!-- n59 -->
<g id="node43" class="node">
<title>n59</title>
<ellipse fill="none" stroke="black" cx="2053.81" cy="-1774" rx="48.99" ry="18"/>
<text text-anchor="middle" x="2053.81" y="-1770.3" font-family="Times,serif" font-size="14.00">setpoint</text>
</g>
<!-- n10&#45;&gt;n59 -->
<g id="edge52" class="edge">
<title>n10&#45;&gt;n59</title>
<path fill="none" stroke="black" d="M1861.13,-2051C1918.74,-2051 2015.14,-2051 2015.14,-2051 2015.14,-2051 2015.14,-1795.2 2015.14,-1795.2"/>
<polygon fill="black" stroke="black" points="2018.64,-1795.2 2015.14,-1785.2 2011.64,-1795.2 2018.64,-1795.2"/>
</g>
<!-- n8&#45;&gt;n10 -->
<!-- n12 -->
<g id="node9" class="node">
<title>n12</title>
<ellipse fill="none" stroke="black" cx="1410.34" cy="-1014" rx="27" ry="18"/>
<text text-anchor="middle" x="1410.34" y="-1010.3" font-family="Times,serif" font-size="14.00">lhs</text>
</g>
<!-- n14 -->
<g id="node10" class="node">
<title>n14</title>
<ellipse fill="none" stroke="black" cx="1545.68" cy="-960" rx="41.69" ry="18"/>
<text text-anchor="middle" x="1545.68" y="-956.3" font-family="Times,serif" font-size="14.00">output</text>
</g>
<!-- n16 -->
<g id="node12" class="node">
<title>n16</title>
<ellipse fill="none" stroke="black" cx="1410.34" cy="-793" rx="27" ry="18"/>
<text text-anchor="middle" x="1410.34" y="-789.3" font-family="Times,serif" font-size="14.00">lhs</text>
</g>
<!-- n14&#45;&gt;n16 -->
<g id="edge49" class="edge">
<title>n14&#45;&gt;n16</title>
<path fill="none" stroke="black" d="M1560.14,-943.07C1560.14,-900.61 1560.14,-793 1560.14,-793 1560.14,-793 1447.47,-793 1447.47,-793"/>
<polygon fill="black" stroke="black" points="1447.47,-789.5 1437.47,-793 1447.47,-796.5 1447.47,-789.5"/>
</g>
<!-- n13 -->
<g id="node11" class="node">
<title>n13</title>
<ellipse fill="none" stroke="black" cx="1410.34" cy="-960" rx="27" ry="18"/>
<text text-anchor="middle" x="1410.34" y="-956.3" font-family="Times,serif" font-size="14.00">rhs</text>
</g>
<!-- n13&#45;&gt;n14 -->
<!-- n18 -->
<g id="node13" class="node">
<title>n18</title>
<ellipse fill="none" stroke="black" cx="1545.68" cy="-739" rx="41.69" ry="18"/>
<text text-anchor="middle" x="1545.68" y="-735.3" font-family="Times,serif" font-size="14.00">output</text>
</g>
<!-- n66 -->
<g id="node30" class="node">
<title>n66</title>
<ellipse fill="none" stroke="black" cx="1097.66" cy="-805" rx="88.28" ry="18"/>
<text text-anchor="middle" x="1097.66" y="-801.3" font-family="Times,serif" font-size="14.00">load_shed_factor</text>
</g>
<!-- n18&#45;&gt;n66 -->
<g id="edge41" class="edge">
<title>n18&#45;&gt;n66</title>
<path fill="none" stroke="black" d="M1532.14,-756.31C1532.14,-779.29 1532.14,-817 1532.14,-817 1532.14,-817 1173.64,-817 1173.64,-817"/>
<polygon fill="black" stroke="black" points="1173.64,-813.5 1163.64,-817 1173.64,-820.5 1173.64,-813.5"/>
</g>
<!-- n17 -->
<g id="node14" class="node">
<title>n17</title>
<ellipse fill="none" stroke="black" cx="1410.34" cy="-739" rx="27" ry="18"/>
<text text-anchor="middle" x="1410.34" y="-735.3" font-family="Times,serif" font-size="14.00">rhs</text>
</g>
<!-- n17&#45;&gt;n18 -->
<!-- n21 -->
<g id="node15" class="node">
<title>n21</title>
<ellipse fill="none" stroke="black" cx="1097.66" cy="-2299" rx="31.4" ry="18"/>
<text text-anchor="middle" x="1097.66" y="-2295.3" font-family="Times,serif" font-size="14.00">2.00</text>
</g>
<!-- n20 -->
<g id="node16" class="node">
<title>n20</title>
<ellipse fill="none" stroke="black" cx="1410.34" cy="-2299" rx="27" ry="18"/>
<text text-anchor="middle" x="1410.34" y="-2295.3" font-family="Times,serif" font-size="14.00">lhs</text>
</g>
<!-- n21&#45;&gt;n20 -->
<g id="edge7" class="edge">
<title>n21&#45;&gt;n20</title>
<path fill="none" stroke="black" d="M1129.07,-2299C1129.07,-2299 1373.01,-2299 1373.01,-2299"/>
<polygon fill="black" stroke="black" points="1373.01,-2302.5 1383.01,-2299 1373.01,-2295.5 1373.01,-2302.5"/>
</g>
<!-- n23 -->
<g id="node17" class="node">
<title>n23</title>
<ellipse fill="none" stroke="black" cx="1545.68" cy="-2272" rx="41.69" ry="18"/>
<text text-anchor="middle" x="1545.68" y="-2268.3" font-family="Times,serif" font-size="14.00">output</text>
</g>
<!-- n42 -->
<g id="node46" class="node">
<title>n42</title>
<ellipse fill="none" stroke="black" cx="1693.38" cy="-2466" rx="40.09" ry="18"/>
<text text-anchor="middle" x="1693.38" y="-2462.3" font-family="Times,serif" font-size="14.00">inputs</text>
</g>
<!-- n23&#45;&gt;n42 -->
<g id="edge31" class="edge">
<title>n23&#45;&gt;n42</title>
<path fill="none" stroke="black" d="M1587.33,-2272C1620.06,-2272 1660.14,-2272 1660.14,-2272 1660.14,-2272 1660.14,-2445.57 1660.14,-2445.57"/>
<polygon fill="black" stroke="black" points="1656.64,-2445.57 1660.14,-2455.57 1663.64,-2445.57 1656.64,-2445.57"/>
</g>
<!-- n22 -->
<g id="node18" class="node">
<title>n22</title>
<ellipse fill="none" stroke="black" cx="1410.34" cy="-2245" rx="27" ry="18"/>
<text text-anchor="middle" x="1410.34" y="-2241.3" font-family="Times,serif" font-size="14.00">rhs</text>
</g>
<!-- n22&#45;&gt;n23 -->
<!-- n27 -->
<g id="node19" class="node">
<title>n27</title>
<ellipse fill="none" stroke="black" cx="721.67" cy="-1330" rx="31.4" ry="18"/>
<text text-anchor="middle" x="721.67" y="-1326.3" font-family="Times,serif" font-size="14.00">1.10</text>
</g>
<!-- n26 -->
<g id="node22" class="node">
<title>n26</title>
<ellipse fill="none" stroke="black" cx="848.27" cy="-1330" rx="27" ry="18"/>
<text text-anchor="middle" x="848.27" y="-1326.3" font-family="Times,serif" font-size="14.00">rhs</text>
</g>
<!-- n27&#45;&gt;n26 -->
<g id="edge9" class="edge">
<title>n27&#45;&gt;n26</title>
<path fill="none" stroke="black" d="M752.96,-1330C752.96,-1330 811.19,-1330 811.19,-1330"/>
<polygon fill="black" stroke="black" points="811.19,-1333.5 821.19,-1330 811.19,-1326.5 811.19,-1333.5"/>
</g>
<!-- n25 -->
<g id="node20" class="node">
<title>n25</title>
<ellipse fill="none" stroke="black" cx="848.27" cy="-1384" rx="27" ry="18"/>
<text text-anchor="middle" x="848.27" y="-1380.3" font-family="Times,serif" font-size="14.00">lhs</text>
</g>
<!-- n28 -->
<g id="node21" class="node">
<title>n28</title>
<ellipse fill="none" stroke="black" cx="1097.66" cy="-1357" rx="41.69" ry="18"/>
<text text-anchor="middle" x="1097.66" y="-1353.3" font-family="Times,serif" font-size="14.00">output</text>
</g>
<!-- n69 -->
<g id="node35" class="node">
<title>n69</title>
<ellipse fill="none" stroke="black" cx="1410.34" cy="-1378" rx="27" ry="18"/>
<text text-anchor="middle" x="1410.34" y="-1374.3" font-family="Times,serif" font-size="14.00">rhs</text>
</g>
<!-- n28&#45;&gt;n69 -->
<g id="edge42" class="edge">
<title>n28&#45;&gt;n69</title>
<path fill="none" stroke="black" d="M1131.71,-1367.5C1131.71,-1367.5 1378.12,-1367.5 1378.12,-1367.5"/>
<polygon fill="black" stroke="black" points="1378.12,-1371 1388.12,-1367.5 1378.12,-1364 1378.12,-1371"/>
</g>
<!-- n26&#45;&gt;n28 -->
<!-- n31 -->
<g id="node23" class="node">
<title>n31</title>
<ellipse fill="none" stroke="black" cx="1545.68" cy="-76" rx="31.4" ry="18"/>
<text text-anchor="middle" x="1545.68" y="-72.3" font-family="Times,serif" font-size="14.00">5.00</text>
</g>
<!-- n30 -->
<g id="node24" class="node">
<title>n30</title>
<ellipse fill="none" stroke="black" cx="1693.38" cy="-76" rx="27" ry="18"/>
<text text-anchor="middle" x="1693.38" y="-72.3" font-family="Times,serif" font-size="14.00">lhs</text>
</g>
<!-- n31&#45;&gt;n30 -->
<g id="edge11" class="edge">
<title>n31&#45;&gt;n30</title>
<path fill="none" stroke="black" d="M1577.01,-76C1577.01,-76 1656.07,-76 1656.07,-76"/>
<polygon fill="black" stroke="black" points="1656.07,-79.5 1666.07,-76 1656.07,-72.5 1656.07,-79.5"/>
</g>
<!-- n33 -->
<g id="node25" class="node">
<title>n33</title>
<ellipse fill="none" stroke="black" cx="1819.07" cy="-130" rx="41.69" ry="18"/>
<text text-anchor="middle" x="1819.07" y="-126.3" font-family="Times,serif" font-size="14.00">output</text>
</g>
<!-- n35 -->
<g id="node27" class="node">
<title>n35</title>
<ellipse fill="none" stroke="black" cx="2053.81" cy="-464" rx="27" ry="18"/>
<text text-anchor="middle" x="2053.81" y="-460.3" font-family="Times,serif" font-size="14.00">lhs</text>
</g>
<!-- n33&#45;&gt;n35 -->
<g id="edge50" class="edge">
<title>n33&#45;&gt;n35</title>
<path fill="none" stroke="black" d="M1860.82,-130C1928.38,-130 2054.14,-130 2054.14,-130 2054.14,-130 2054.14,-435.57 2054.14,-435.57"/>
<polygon fill="black" stroke="black" points="2050.64,-435.57 2054.14,-445.57 2057.64,-435.57 2050.64,-435.57"/>
</g>
<!-- n32 -->
<g id="node26" class="node">
<title>n32</title>
<ellipse fill="none" stroke="black" cx="1693.38" cy="-130" rx="27" ry="18"/>
<text text-anchor="middle" x="1693.38" y="-126.3" font-family="Times,serif" font-size="14.00">rhs</text>
</g>
<!-- n32&#45;&gt;n33 -->
<!-- n37 -->
<g id="node28" class="node">
<title>n37</title>
<ellipse fill="none" stroke="black" cx="2216.55" cy="-518" rx="41.69" ry="18"/>
<text text-anchor="middle" x="2216.55" y="-514.3" font-family="Times,serif" font-size="14.00">output</text>
</g>
<!-- n39 -->
<g id="node48" class="node">
<title>n39</title>
<ellipse fill="none" stroke="black" cx="1410.34" cy="-1211" rx="40.09" ry="18"/>
<text text-anchor="middle" x="1410.34" y="-1207.3" font-family="Times,serif" font-size="14.00">inputs</text>
</g>
<!-- n37&#45;&gt;n39 -->
<g id="edge43" class="edge">
<title>n37&#45;&gt;n39</title>
<path fill="none" stroke="black" d="M2217.14,-536.16C2217.14,-541.04 2217.14,-545 2217.14,-545 2217.14,-545 1442.14,-545 1442.14,-545 1442.14,-545 1442.14,-1189.72 1442.14,-1189.72"/>
<polygon fill="black" stroke="black" points="1438.64,-1189.72 1442.14,-1199.72 1445.64,-1189.72 1438.64,-1189.72"/>
</g>
<!-- n36 -->
<g id="node29" class="node">
<title>n36</title>
<ellipse fill="none" stroke="black" cx="2053.81" cy="-518" rx="27" ry="18"/>
<text text-anchor="middle" x="2053.81" y="-514.3" font-family="Times,serif" font-size="14.00">rhs</text>
</g>
<!-- n36&#45;&gt;n37 -->
<!-- n63 -->
<g id="node31" class="node">
<title>n63</title>
<ellipse fill="none" stroke="black" cx="1097.66" cy="-1068" rx="113.98" ry="18"/>
<text text-anchor="middle" x="1097.66" y="-1064.3" font-family="Times,serif" font-size="14.00">accepted_concurrency</text>
</g>
<!-- n63&#45;&gt;n22 -->
<g id="edge25" class="edge">
<title>n63&#45;&gt;n22</title>
<path fill="none" stroke="black" d="M1176.14,-1081.22C1176.14,-1210.53 1176.14,-2245 1176.14,-2245 1176.14,-2245 1373.02,-2245 1373.02,-2245"/>
<polygon fill="black" stroke="black" points="1373.02,-2248.5 1383.02,-2245 1373.02,-2241.5 1373.02,-2248.5"/>
</g>
<!-- n57 -->
<g id="node39" class="node">
<title>n57</title>
<ellipse fill="none" stroke="black" cx="2053.81" cy="-1612" rx="85.29" ry="18"/>
<text text-anchor="middle" x="2053.81" y="-1608.3" font-family="Times,serif" font-size="14.00">control_variable</text>
</g>
<!-- n63&#45;&gt;n57 -->
<g id="edge28" class="edge">
<title>n63&#45;&gt;n57</title>
<path fill="none" stroke="black" d="M1211.7,-1068C1454.01,-1068 1998.14,-1068 1998.14,-1068 1998.14,-1068 1998.14,-1588.28 1998.14,-1588.28"/>
<polygon fill="black" stroke="black" points="1994.64,-1588.28 1998.14,-1598.28 2001.64,-1588.28 1994.64,-1588.28"/>
</g>
<!-- n63&#45;&gt;n39 -->
<g id="edge26" class="edge">
<title>n63&#45;&gt;n39</title>
<path fill="none" stroke="black" d="M1196.41,-1077C1278.22,-1077 1381.14,-1077 1381.14,-1077 1381.14,-1077 1381.14,-1188.15 1381.14,-1188.15"/>
<polygon fill="black" stroke="black" points="1377.64,-1188.15 1381.14,-1198.15 1384.64,-1188.15 1377.64,-1188.15"/>
</g>
<!-- n46 -->
<g id="node51" class="node">
<title>n46</title>
<ellipse fill="none" stroke="black" cx="1410.34" cy="-297" rx="35.19" ry="18"/>
<text text-anchor="middle" x="1410.34" y="-293.3" font-family="Times,serif" font-size="14.00">input</text>
</g>
<!-- n63&#45;&gt;n46 -->
<g id="edge27" class="edge">
<title>n63&#45;&gt;n46</title>
<path fill="none" stroke="black" d="M1196.54,-1059C1277.3,-1059 1378.14,-1059 1378.14,-1059 1378.14,-1059 1378.14,-314.54 1378.14,-314.54"/>
<polygon fill="black" stroke="black" points="1381.64,-314.54 1378.14,-304.54 1374.64,-314.54 1381.64,-314.54"/>
</g>
<!-- n64 -->
<g id="node32" class="node">
<title>n64</title>
<ellipse fill="none" stroke="black" cx="1097.66" cy="-1014" rx="114.28" ry="18"/>
<text text-anchor="middle" x="1097.66" y="-1010.3" font-family="Times,serif" font-size="14.00">incoming_concurrency</text>
</g>
<!-- n64&#45;&gt;n12 -->
<g id="edge29" class="edge">
<title>n64&#45;&gt;n12</title>
<path fill="none" stroke="black" d="M1212.31,-1014C1212.31,-1014 1373.03,-1014 1373.03,-1014"/>
<polygon fill="black" stroke="black" points="1373.03,-1017.5 1383.03,-1014 1373.03,-1010.5 1373.03,-1017.5"/>
</g>
<!-- n64&#45;&gt;n17 -->
<g id="edge30" class="edge">
<title>n64&#45;&gt;n17</title>
<path fill="none" stroke="black" d="M1199.14,-1005.47C1199.14,-959.05 1199.14,-739 1199.14,-739 1199.14,-739 1373.16,-739 1373.16,-739"/>
<polygon fill="black" stroke="black" points="1373.16,-742.5 1383.16,-739 1373.16,-735.5 1373.16,-742.5"/>
</g>
<!-- n68 -->
<g id="node33" class="node">
<title>n68</title>
<ellipse fill="none" stroke="black" cx="1410.34" cy="-1432" rx="27" ry="18"/>
<text text-anchor="middle" x="1410.34" y="-1428.3" font-family="Times,serif" font-size="14.00">lhs</text>
</g>
<!-- n70 -->
<g id="node34" class="node">
<title>n70</title>
<ellipse fill="none" stroke="black" cx="1545.68" cy="-1378" rx="41.69" ry="18"/>
<text text-anchor="middle" x="1545.68" y="-1374.3" font-family="Times,serif" font-size="14.00">output</text>
</g>
<!-- n72 -->
<g id="node57" class="node">
<title>n72</title>
<ellipse fill="none" stroke="black" cx="1693.38" cy="-1803" rx="40.89" ry="18"/>
<text text-anchor="middle" x="1693.38" y="-1799.3" font-family="Times,serif" font-size="14.00">switch</text>
</g>
<!-- n70&#45;&gt;n72 -->
<g id="edge45" class="edge">
<title>n70&#45;&gt;n72</title>
<path fill="none" stroke="black" d="M1546.14,-1396.26C1546.14,-1477.61 1546.14,-1803 1546.14,-1803 1546.14,-1803 1642.36,-1803 1642.36,-1803"/>
<polygon fill="black" stroke="black" points="1642.36,-1806.5 1652.36,-1803 1642.36,-1799.5 1642.36,-1806.5"/>
</g>
<!-- n78 -->
<g id="node62" class="node">
<title>n78</title>
<ellipse fill="none" stroke="black" cx="1693.38" cy="-572" rx="40.89" ry="18"/>
<text text-anchor="middle" x="1693.38" y="-568.3" font-family="Times,serif" font-size="14.00">switch</text>
</g>
<!-- n70&#45;&gt;n78 -->
<g id="edge46" class="edge">
<title>n70&#45;&gt;n78</title>
<path fill="none" stroke="black" d="M1587.43,-1378C1631.34,-1378 1694.14,-1378 1694.14,-1378 1694.14,-1378 1694.14,-600.35 1694.14,-600.35"/>
<polygon fill="black" stroke="black" points="1697.64,-600.35 1694.14,-590.35 1690.64,-600.35 1697.64,-600.35"/>
</g>
<!-- n69&#45;&gt;n70 -->
<!-- n51 -->
<g id="node36" class="node">
<title>n51</title>
<ellipse fill="none" stroke="black" cx="556.43" cy="-1736" rx="35.19" ry="18"/>
<text text-anchor="middle" x="556.43" y="-1732.3" font-family="Times,serif" font-size="14.00">input</text>
</g>
<!-- n53 -->
<g id="node38" class="node">
<title>n53</title>
<ellipse fill="none" stroke="black" cx="721.67" cy="-1682" rx="41.69" ry="18"/>
<text text-anchor="middle" x="721.67" y="-1678.3" font-family="Times,serif" font-size="14.00">output</text>
</g>
<!-- n52&#45;&gt;n53 -->
<!-- n53&#45;&gt;n7 -->
<g id="edge38" class="edge">
<title>n53&#45;&gt;n7</title>
<path fill="none" stroke="black" d="M722.14,-1700.39C722.14,-1771.42 722.14,-2024 722.14,-2024 722.14,-2024 1656.13,-2024 1656.13,-2024"/>
<polygon fill="black" stroke="black" points="1656.13,-2027.5 1666.13,-2024 1656.13,-2020.5 1656.13,-2027.5"/>
</g>
<!-- n53&#45;&gt;n25 -->
<g id="edge39" class="edge">
<title>n53&#45;&gt;n25</title>
<path fill="none" stroke="black" d="M758.14,-1673.08C758.14,-1623.5 758.14,-1384 758.14,-1384 758.14,-1384 811.23,-1384 811.23,-1384"/>
<polygon fill="black" stroke="black" points="811.23,-1387.5 821.23,-1384 811.23,-1380.5 811.23,-1387.5"/>
</g>
<!-- n56 -->
<g id="node40" class="node">
<title>n56</title>
<ellipse fill="none" stroke="black" cx="2053.81" cy="-1828" rx="30.59" ry="18"/>
<text text-anchor="middle" x="2053.81" y="-1824.3" font-family="Times,serif" font-size="14.00">max</text>
</g>
<!-- n55 -->
<g id="node41" class="node">
<title>n55</title>
<ellipse fill="none" stroke="black" cx="2053.81" cy="-1720" rx="50.89" ry="18"/>
<text text-anchor="middle" x="2053.81" y="-1716.3" font-family="Times,serif" font-size="14.00">optimize</text>
</g>
<!-- n60 -->
<g id="node42" class="node">
<title>n60</title>
<ellipse fill="none" stroke="black" cx="2216.55" cy="-1693" rx="41.69" ry="18"/>
<text text-anchor="middle" x="2216.55" y="-1689.3" font-family="Times,serif" font-size="14.00">output</text>
</g>
<!-- n60&#45;&gt;n13 -->
<g id="edge40" class="edge">
<title>n60&#45;&gt;n13</title>
<path fill="none" stroke="black" d="M2175,-1692C2019.14,-1692 1478.14,-1692 1478.14,-1692 1478.14,-1692 1478.14,-966 1478.14,-966 1478.14,-966 1445.97,-966 1445.97,-966"/>
<polygon fill="black" stroke="black" points="1445.97,-962.5 1435.97,-966 1445.97,-969.5 1445.97,-962.5"/>
</g>
<!-- n59&#45;&gt;n60 -->
<!-- n58 -->
<g id="node44" class="node">
<title>n58</title>
<ellipse fill="none" stroke="black" cx="2053.81" cy="-1666" rx="38.19" ry="18"/>
<text text-anchor="middle" x="2053.81" y="-1662.3" font-family="Times,serif" font-size="14.00">signal</text>
</g>
<!-- n43 -->
<g id="node45" class="node">
<title>n43</title>
<ellipse fill="none" stroke="black" cx="1545.68" cy="-2466" rx="37.09" ry="18"/>
<text text-anchor="middle" x="1545.68" y="-2462.3" font-family="Times,serif" font-size="14.00">10.00</text>
</g>
<!-- n43&#45;&gt;n42 -->
<g id="edge17" class="edge">
<title>n43&#45;&gt;n42</title>
<path fill="none" stroke="black" d="M1582.95,-2466C1582.95,-2466 1643.01,-2466 1643.01,-2466"/>
<polygon fill="black" stroke="black" points="1643.01,-2469.5 1653.01,-2466 1643.01,-2462.5 1643.01,-2469.5"/>
</g>
<!-- n44 -->
<g id="node47" class="node">
<title>n44</title>
<ellipse fill="none" stroke="black" cx="1819.07" cy="-2466" rx="41.69" ry="18"/>
<text text-anchor="middle" x="1819.07" y="-2462.3" font-family="Times,serif" font-size="14.00">output</text>
</g>
<!-- n42&#45;&gt;n44 -->
<!-- n44&#45;&gt;n56 -->
<g id="edge51" class="edge">
<title>n44&#45;&gt;n56</title>
<path fill="none" stroke="black" d="M1860.82,-2466C1928.38,-2466 2054.14,-2466 2054.14,-2466 2054.14,-2466 2054.14,-1856.07 2054.14,-1856.07"/>
<polygon fill="black" stroke="black" points="2057.64,-1856.07 2054.14,-1846.07 2050.64,-1856.07 2057.64,-1856.07"/>
</g>
<!-- n40 -->
<g id="node49" class="node">
<title>n40</title>
<ellipse fill="none" stroke="black" cx="1545.68" cy="-1211" rx="41.69" ry="18"/>
<text text-anchor="middle" x="1545.68" y="-1207.3" font-family="Times,serif" font-size="14.00">output</text>
</g>
<!-- n39&#45;&gt;n40 -->
<!-- n75 -->
<g id="node54" class="node">
<title>n75</title>
<ellipse fill="none" stroke="black" cx="1693.38" cy="-1749" rx="48.19" ry="18"/>
<text text-anchor="middle" x="1693.38" y="-1745.3" font-family="Times,serif" font-size="14.00">on_false</text>
</g>
<!-- n40&#45;&gt;n75 -->
<g id="edge32" class="edge">
<title>n40&#45;&gt;n75</title>
<path fill="none" stroke="black" d="M1585.18,-1217C1614.76,-1217 1650.14,-1217 1650.14,-1217 1650.14,-1217 1650.14,-1731.07 1650.14,-1731.07"/>
<polygon fill="black" stroke="black" points="1646.64,-1731.07 1650.14,-1741.07 1653.64,-1731.07 1646.64,-1731.07"/>
</g>
<!-- n81 -->
<g id="node59" class="node">
<title>n81</title>
<ellipse fill="none" stroke="black" cx="1693.38" cy="-518" rx="48.19" ry="18"/>
<text text-anchor="middle" x="1693.38" y="-514.3" font-family="Times,serif" font-size="14.00">on_false</text>
</g>
<!-- n40&#45;&gt;n81 -->
<g id="edge33" class="edge">
<title>n40&#45;&gt;n81</title>
<path fill="none" stroke="black" d="M1585,-1205C1613.9,-1205 1648.14,-1205 1648.14,-1205 1648.14,-1205 1648.14,-534.36 1648.14,-534.36"/>
<polygon fill="black" stroke="black" points="1651.64,-534.36 1648.14,-524.36 1644.64,-534.36 1651.64,-534.36"/>
</g>
<!-- n49 -->
<g id="node50" class="node">
<title>n49</title>
<ellipse fill="none" stroke="black" cx="99.6" cy="-1884" rx="41.69" ry="18"/>
<text text-anchor="middle" x="99.6" y="-1880.3" font-family="Times,serif" font-size="14.00">output</text>
</g>
<!-- n49&#45;&gt;n2 -->
<g id="edge34" class="edge">
<title>n49&#45;&gt;n2</title>
<path fill="none" stroke="black" d="M136.14,-1875.02C136.14,-1840.33 136.14,-1717 136.14,-1717 136.14,-1717 189.17,-1717 189.17,-1717"/>
<polygon fill="black" stroke="black" points="189.17,-1720.5 199.17,-1717 189.17,-1713.5 189.17,-1720.5"/>
</g>
<!-- n49&#45;&gt;n68 -->
<g id="edge37" class="edge">
<title>n49&#45;&gt;n68</title>
<path fill="none" stroke="black" d="M134.14,-1873.71C134.14,-1806.43 134.14,-1432 134.14,-1432 134.14,-1432 1373.1,-1432 1373.1,-1432"/>
<polygon fill="black" stroke="black" points="1373.1,-1435.5 1383.1,-1432 1373.1,-1428.5 1373.1,-1435.5"/>
</g>
<!-- n49&#45;&gt;n51 -->
<g id="edge35" class="edge">
<title>n49&#45;&gt;n51</title>
<path fill="none" stroke="black" d="M139.14,-1878.36C139.14,-1852.26 139.14,-1744.5 139.14,-1744.5 139.14,-1744.5 515.41,-1744.5 515.41,-1744.5"/>
<polygon fill="black" stroke="black" points="515.41,-1748 525.41,-1744.5 515.41,-1741 515.41,-1748"/>
</g>
<!-- n49&#45;&gt;n58 -->
<g id="edge36" class="edge">
<title>n49&#45;&gt;n58</title>
<path fill="none" stroke="black" d="M127.21,-1870.5C256.2,-1870.5 793.14,-1870.5 793.14,-1870.5 793.14,-1870.5 793.14,-1674 793.14,-1674 793.14,-1674 2009.43,-1674 2009.43,-1674"/>
<polygon fill="black" stroke="black" points="2009.43,-1677.5 2019.43,-1674 2009.43,-1670.5 2009.43,-1677.5"/>
</g>
<!-- n47 -->
<g id="node52" class="node">
<title>n47</title>
<ellipse fill="none" stroke="black" cx="1545.68" cy="-297" rx="41.69" ry="18"/>
<text text-anchor="middle" x="1545.68" y="-293.3" font-family="Times,serif" font-size="14.00">output</text>
</g>
<!-- n46&#45;&gt;n47 -->
<!-- n47&#45;&gt;n32 -->
<g id="edge44" class="edge">
<title>n47&#45;&gt;n32</title>
<path fill="none" stroke="black" d="M1582.14,-288.02C1582.14,-253.33 1582.14,-130 1582.14,-130 1582.14,-130 1656.17,-130 1656.17,-130"/>
<polygon fill="black" stroke="black" points="1656.17,-133.5 1666.17,-130 1656.17,-126.5 1656.17,-133.5"/>
</g>
<!-- n74 -->
<g id="node53" class="node">
<title>n74</title>
<ellipse fill="none" stroke="black" cx="1545.68" cy="-1857" rx="37.09" ry="18"/>
<text text-anchor="middle" x="1545.68" y="-1853.3" font-family="Times,serif" font-size="14.00">10.00</text>
</g>
<!-- n73 -->
<g id="node55" class="node">
<title>n73</title>
<ellipse fill="none" stroke="black" cx="1693.38" cy="-1857" rx="46.29" ry="18"/>
<text text-anchor="middle" x="1693.38" y="-1853.3" font-family="Times,serif" font-size="14.00">on_true</text>
</g>
<!-- n74&#45;&gt;n73 -->
<g id="edge21" class="edge">
<title>n74&#45;&gt;n73</title>
<path fill="none" stroke="black" d="M1582.95,-1857C1582.95,-1857 1637.13,-1857 1637.13,-1857"/>
<polygon fill="black" stroke="black" points="1637.13,-1860.5 1647.13,-1857 1637.13,-1853.5 1637.13,-1860.5"/>
</g>
<!-- n76 -->
<g id="node56" class="node">
<title>n76</title>
<ellipse fill="none" stroke="black" cx="1819.07" cy="-1749" rx="41.69" ry="18"/>
<text text-anchor="middle" x="1819.07" y="-1745.3" font-family="Times,serif" font-size="14.00">output</text>
</g>
<!-- n75&#45;&gt;n76 -->
<!-- n76&#45;&gt;n55 -->
<g id="edge47" class="edge">
<title>n76&#45;&gt;n55</title>
<path fill="none" stroke="black" d="M1843.75,-1734.5C1843.75,-1734.5 2013.58,-1734.5 2013.58,-1734.5"/>
<polygon fill="black" stroke="black" points="2013.59,-1738 2023.58,-1734.5 2013.58,-1731 2013.59,-1738"/>
</g>
<!-- n80 -->
<g id="node58" class="node">
<title>n80</title>
<ellipse fill="none" stroke="black" cx="1545.68" cy="-464" rx="31.4" ry="18"/>
<text text-anchor="middle" x="1545.68" y="-460.3" font-family="Times,serif" font-size="14.00">0.00</text>
</g>
<!-- n79 -->
<g id="node60" class="node">
<title>n79</title>
<ellipse fill="none" stroke="black" cx="1693.38" cy="-464" rx="46.29" ry="18"/>
<text text-anchor="middle" x="1693.38" y="-460.3" font-family="Times,serif" font-size="14.00">on_true</text>
</g>
<!-- n80&#45;&gt;n79 -->
<g id="edge23" class="edge">
<title>n80&#45;&gt;n79</title>
<path fill="none" stroke="black" d="M1577.01,-464C1577.01,-464 1636.95,-464 1636.95,-464"/>
<polygon fill="black" stroke="black" points="1636.95,-467.5 1646.95,-464 1636.95,-460.5 1636.95,-467.5"/>
</g>
<!-- n82 -->
<g id="node61" class="node">
<title>n82</title>
<ellipse fill="none" stroke="black" cx="1819.07" cy="-518" rx="41.69" ry="18"/>
<text text-anchor="middle" x="1819.07" y="-514.3" font-family="Times,serif" font-size="14.00">output</text>
</g>
<!-- n81&#45;&gt;n82 -->
<!-- n82&#45;&gt;n36 -->
<g id="edge53" class="edge">
<title>n82&#45;&gt;n36</title>
<path fill="none" stroke="black" d="M1860.76,-518C1860.76,-518 2016.76,-518 2016.76,-518"/>
<polygon fill="black" stroke="black" points="2016.76,-521.5 2026.76,-518 2016.76,-514.5 2016.76,-521.5"/>
</g>
</g>
</svg>
