<?xml version="1.0" encoding="UTF-8" standalone="no"?>
<!DOCTYPE svg PUBLIC "-//W3C//DTD SVG 1.1//EN"
 "http://www.w3.org/Graphics/SVG/1.1/DTD/svg11.dtd">
<!-- Generated by graphviz version 6.0.1 (20220911.1526)
 -->
<!-- Pages: 1 -->
<svg width="4433pt" height="2716pt"
 viewBox="0.00 0.00 4433.14 2716.00" xmlns="http://www.w3.org/2000/svg" xmlns:xlink="http://www.w3.org/1999/xlink">
<g id="graph0" class="graph" transform="scale(1 1) rotate(0) translate(4 2712)">
<polygon fill="white" stroke="none" points="-4,4 -4,-2712 4429.14,-2712 4429.14,4 -4,4"/>
<g id="clust1" class="cluster">
<title>cluster_s1</title>
<polygon fill="none" stroke="black" points="18.4,-60 18.4,-273 580.39,-273 580.39,-60 18.4,-60"/>
<text text-anchor="middle" x="299.39" y="-257.8" font-family="Times,serif" font-size="14.00">ArithmeticCombinator[0]</text>
</g>
<g id="clust4" class="cluster">
<title>cluster_s6</title>
<polygon fill="none" stroke="black" points="970.47,-491 970.47,-704 1736.25,-704 1736.25,-491 970.47,-491"/>
<text text-anchor="middle" x="1353.36" y="-688.8" font-family="Times,serif" font-size="14.00">ArithmeticCombinator[1]</text>
</g>
<g id="clust7" class="cluster">
<title>cluster_s11</title>
<polygon fill="none" stroke="black" points="2096.34,-875 2096.34,-1088 2791.28,-1088 2791.28,-875 2096.34,-875"/>
<text text-anchor="middle" x="2443.81" y="-1072.8" font-family="Times,serif" font-size="14.00">ArithmeticCombinator[2]</text>
</g>
<g id="clust10" class="cluster">
<title>cluster_s15</title>
<polygon fill="none" stroke="black" points="2096.34,-654 2096.34,-867 2791.28,-867 2791.28,-654 2096.34,-654"/>
<text text-anchor="middle" x="2443.81" y="-851.8" font-family="Times,serif" font-size="14.00">ArithmeticCombinator[3]</text>
</g>
<g id="clust13" class="cluster">
<title>cluster_s19</title>
<polygon fill="none" stroke="black" points="1563.46,-270 1563.46,-483 2791.28,-483 2791.28,-270 1563.46,-270"/>
<text text-anchor="middle" x="2177.37" y="-467.8" font-family="Times,serif" font-size="14.00">ArithmeticCombinator[4]</text>
</g>
<g id="clust16" class="cluster">
<title>cluster_s24</title>
<polygon fill="none" stroke="black" points="2618.49,-2320 2618.49,-2533 3682.66,-2533 3682.66,-2320 2618.49,-2320"/>
<text text-anchor="middle" x="3150.58" y="-2517.8" font-family="Times,serif" font-size="14.00">ArithmeticCombinator[5]</text>
</g>
<g id="clust19" class="cluster">
<title>cluster_s29</title>
<polygon fill="none" stroke="black" points="4084.81,-1650 4084.81,-1863 4417.14,-1863 4417.14,-1650 4084.81,-1650"/>
<text text-anchor="middle" x="4250.97" y="-1847.8" font-family="Times,serif" font-size="14.00">ArithmeticCombinator[6]</text>
</g>
<g id="clust22" class="cluster">
<title>cluster_s60</title>
<polygon fill="none" stroke="black" points="1430.27,-712 1430.27,-1257 1859.04,-1257 1859.04,-712 1430.27,-712"/>
<text text-anchor="middle" x="1644.66" y="-1241.8" font-family="Times,serif" font-size="14.00">ConcurrencyLimiter[14]</text>
</g>
<g id="clust23" class="cluster">
<title>cluster_s64</title>
<polygon fill="none" stroke="black" points="1488.26,-762 1488.26,-921 1802.05,-921 1802.05,-762 1488.26,-762"/>
<text text-anchor="middle" x="1645.16" y="-905.8" font-family="Times,serif" font-size="14.00">LoadShedActuator[14.LoadShedActuator]</text>
</g>
<g id="clust25" class="cluster">
<title>cluster_s61</title>
<polygon fill="none" stroke="black" points="1480.27,-971 1480.27,-1184 1809.04,-1184 1809.04,-971 1480.27,-971"/>
<text text-anchor="middle" x="1644.66" y="-1168.8" font-family="Times,serif" font-size="14.00">Scheduler[14.Scheduler]</text>
</g>
<g id="clust27" class="cluster">
<title>cluster_s66</title>
<polygon fill="none" stroke="black" points="2096.34,-1483 2096.34,-1696 2791.28,-1696 2791.28,-1483 2096.34,-1483"/>
<text text-anchor="middle" x="2443.81" y="-1680.8" font-family="Times,serif" font-size="14.00">Decider[15]</text>
</g>
<g id="clust30" class="cluster">
<title>cluster_s49</title>
<polygon fill="none" stroke="black" points="672.39,-270 672.39,-483 1143.27,-483 1143.27,-270 672.39,-270"/>
<text text-anchor="middle" x="907.83" y="-467.8" font-family="Times,serif" font-size="14.00">EMA[12]</text>
</g>
<g id="clust33" class="cluster">
<title>cluster_s36</title>
<polygon fill="none" stroke="black" points="1563.46,-1878 1563.46,-2037 2791.28,-2037 2791.28,-1878 1563.46,-1878"/>
<text text-anchor="middle" x="2177.37" y="-2021.8" font-family="Times,serif" font-size="14.00">FirstValid[8]</text>
</g>
<g id="clust36" class="cluster">
<title>cluster_s53</title>
<polygon fill="none" stroke="black" points="4026.66,-225 4026.66,-600 4417.14,-600 4417.14,-225 4026.66,-225"/>
<text text-anchor="middle" x="4221.9" y="-584.8" font-family="Times,serif" font-size="14.00">Gradient[13]</text>
</g>
<g id="clust39" class="cluster">
<title>cluster_s40</title>
<polygon fill="none" stroke="black" points="2612.64,-103 2612.64,-262 3682.66,-262 3682.66,-103 2612.64,-103"/>
<text text-anchor="middle" x="3147.65" y="-246.8" font-family="Times,serif" font-size="14.00">Max[9]</text>
</g>
<g id="clust42" class="cluster">
<title>cluster_s33</title>
<polygon fill="none" stroke="black" points="2083.04,-1704 2083.04,-1863 2791.28,-1863 2791.28,-1704 2083.04,-1704"/>
<text text-anchor="middle" x="2437.16" y="-1847.8" font-family="Times,serif" font-size="14.00">Min[7]</text>
</g>
<g id="clust45" class="cluster">
<title>cluster_s47</title>
<polygon fill="none" stroke="black" points="8,-313 8,-472 191.19,-472 191.19,-313 8,-313"/>
<text text-anchor="middle" x="99.6" y="-456.8" font-family="Times,serif" font-size="14.00">PromQL[11]</text>
</g>
<g id="clust47" class="cluster">
<title>cluster_s44</title>
<polygon fill="none" stroke="black" points="2088.24,-2541 2088.24,-2700 2791.28,-2700 2791.28,-2541 2088.24,-2541"/>
<text text-anchor="middle" x="2439.76" y="-2684.8" font-family="Times,serif" font-size="14.00">Sqrt[10]</text>
</g>
<g id="clust50" class="cluster">
<title>cluster_s70</title>
<polygon fill="none" stroke="black" points="2612.64,-1096 2612.64,-1363 3682.66,-1363 3682.66,-1096 2612.64,-1096"/>
<text text-anchor="middle" x="3147.65" y="-1347.8" font-family="Times,serif" font-size="14.00">Switcher[16]</text>
</g>
<g id="clust53" class="cluster">
<title>cluster_s76</title>
<polygon fill="none" stroke="black" points="2618.49,-2045 2618.49,-2312 3682.66,-2312 3682.66,-2045 2618.49,-2045"/>
<text text-anchor="middle" x="3150.58" y="-2296.8" font-family="Times,serif" font-size="14.00">Switcher[17]</text>
</g>
<!-- n4 -->
<g id="node1" class="node">
<title>n4</title>
<ellipse fill="none" stroke="black" cx="99.6" cy="-128" rx="31.4" ry="18"/>
<text text-anchor="middle" x="99.6" y="-124.3" font-family="Times,serif" font-size="14.00">2.00</text>
</g>
<!-- n3 -->
<g id="node4" class="node">
<title>n3</title>
<ellipse fill="none" stroke="black" cx="314.19" cy="-128" rx="27" ry="18"/>
<text text-anchor="middle" x="314.19" y="-124.3" font-family="Times,serif" font-size="14.00">rhs</text>
</g>
<!-- n4&#45;&gt;n3 -->
<g id="edge1" class="edge">
<title>n4&#45;&gt;n3</title>
<path fill="none" stroke="black" d="M130.8,-128C130.8,-128 277.03,-128 277.03,-128"/>
<polygon fill="black" stroke="black" points="277.03,-131.5 287.03,-128 277.03,-124.5 277.03,-131.5"/>
</g>
<!-- n2 -->
<g id="node2" class="node">
<title>n2</title>
<ellipse fill="none" stroke="black" cx="314.19" cy="-182" rx="27" ry="18"/>
<text text-anchor="middle" x="314.19" y="-178.3" font-family="Times,serif" font-size="14.00">lhs</text>
</g>
<!-- n5 -->
<g id="node3" class="node">
<title>n5</title>
<ellipse fill="none" stroke="black" cx="488.79" cy="-168" rx="41.69" ry="18"/>
<text text-anchor="middle" x="488.79" y="-164.3" font-family="Times,serif" font-size="14.00">output</text>
</g>
<!-- n51 -->
<g id="node33" class="node">
<title>n51</title>
<ellipse fill="none" stroke="black" cx="798.43" cy="-338" rx="76.09" ry="18"/>
<text text-anchor="middle" x="798.43" y="-334.3" font-family="Times,serif" font-size="14.00">max_envelope</text>
</g>
<!-- n5&#45;&gt;n51 -->
<g id="edge41" class="edge">
<title>n5&#45;&gt;n51</title>
<path fill="none" stroke="black" d="M489.14,-186.19C489.14,-230.05 489.14,-338 489.14,-338 489.14,-338 712.37,-338 712.37,-338"/>
<polygon fill="black" stroke="black" points="712.37,-341.5 722.37,-338 712.37,-334.5 712.37,-341.5"/>
<text text-anchor="middle" x="626.39" y="-250.8" font-family="Times,serif" font-size="14.00">MAX_EMA</text>
</g>
<!-- n3&#45;&gt;n5 -->
<!-- n8 -->
<g id="node5" class="node">
<title>n8</title>
<ellipse fill="none" stroke="black" cx="1051.67" cy="-613" rx="31.4" ry="18"/>
<text text-anchor="middle" x="1051.67" y="-609.3" font-family="Times,serif" font-size="14.00">1.10</text>
</g>
<!-- n7 -->
<g id="node8" class="node">
<title>n7</title>
<ellipse fill="none" stroke="black" cx="1307.27" cy="-613" rx="27" ry="18"/>
<text text-anchor="middle" x="1307.27" y="-609.3" font-family="Times,serif" font-size="14.00">rhs</text>
</g>
<!-- n8&#45;&gt;n7 -->
<g id="edge3" class="edge">
<title>n8&#45;&gt;n7</title>
<path fill="none" stroke="black" d="M1083.01,-613C1083.01,-613 1269.96,-613 1269.96,-613"/>
<polygon fill="black" stroke="black" points="1269.96,-616.5 1279.96,-613 1269.96,-609.5 1269.96,-616.5"/>
</g>
<!-- n9 -->
<g id="node6" class="node">
<title>n9</title>
<ellipse fill="none" stroke="black" cx="1307.27" cy="-559" rx="27" ry="18"/>
<text text-anchor="middle" x="1307.27" y="-555.3" font-family="Times,serif" font-size="14.00">lhs</text>
</g>
<!-- n10 -->
<g id="node7" class="node">
<title>n10</title>
<ellipse fill="none" stroke="black" cx="1644.66" cy="-559" rx="41.69" ry="18"/>
<text text-anchor="middle" x="1644.66" y="-555.3" font-family="Times,serif" font-size="14.00">output</text>
</g>
<!-- n9&#45;&gt;n10 -->
<!-- n67 -->
<g id="node31" class="node">
<title>n67</title>
<ellipse fill="none" stroke="black" cx="2173.34" cy="-1551" rx="27" ry="18"/>
<text text-anchor="middle" x="2173.34" y="-1547.3" font-family="Times,serif" font-size="14.00">rhs</text>
</g>
<!-- n10&#45;&gt;n67 -->
<g id="edge44" class="edge">
<title>n10&#45;&gt;n67</title>
<path fill="none" stroke="black" d="M1686.3,-559C1806.1,-559 2143.14,-559 2143.14,-559 2143.14,-559 2143.14,-1551 2143.14,-1551 2143.14,-1551 2143.42,-1551 2143.42,-1551"/>
<polygon fill="black" stroke="black" points="2135.93,-1554.5 2145.93,-1551 2135.93,-1547.5 2135.93,-1554.5"/>
<text text-anchor="middle" x="1971.04" y="-801.8" font-family="Times,serif" font-size="14.00">LATENCY_SETPOINT</text>
</g>
<!-- n55 -->
<g id="node42" class="node">
<title>n55</title>
<ellipse fill="none" stroke="black" cx="4161.81" cy="-347" rx="48.99" ry="18"/>
<text text-anchor="middle" x="4161.81" y="-343.3" font-family="Times,serif" font-size="14.00">setpoint</text>
</g>
<!-- n10&#45;&gt;n55 -->
<g id="edge43" class="edge">
<title>n10&#45;&gt;n55</title>
<path fill="none" stroke="black" d="M1681.14,-549.96C1681.14,-518.33 1681.14,-414.5 1681.14,-414.5 1681.14,-414.5 4123.14,-414.5 4123.14,-414.5 4123.14,-414.5 4123.14,-368.15 4123.14,-368.15"/>
<polygon fill="black" stroke="black" points="4126.64,-368.15 4123.14,-358.15 4119.64,-368.15 4126.64,-368.15"/>
<text text-anchor="middle" x="2946.78" y="-41.8" font-family="Times,serif" font-size="14.00">LATENCY_SETPOINT</text>
</g>
<!-- n12 -->
<g id="node9" class="node">
<title>n12</title>
<ellipse fill="none" stroke="black" cx="2173.34" cy="-997" rx="27" ry="18"/>
<text text-anchor="middle" x="2173.34" y="-993.3" font-family="Times,serif" font-size="14.00">lhs</text>
</g>
<!-- n14 -->
<g id="node10" class="node">
<title>n14</title>
<ellipse fill="none" stroke="black" cx="2699.68" cy="-943" rx="41.69" ry="18"/>
<text text-anchor="middle" x="2699.68" y="-939.3" font-family="Times,serif" font-size="14.00">output</text>
</g>
<!-- n16 -->
<g id="node12" class="node">
<title>n16</title>
<ellipse fill="none" stroke="black" cx="2173.34" cy="-776" rx="27" ry="18"/>
<text text-anchor="middle" x="2173.34" y="-772.3" font-family="Times,serif" font-size="14.00">lhs</text>
</g>
<!-- n14&#45;&gt;n16 -->
<g id="edge31" class="edge">
<title>n14&#45;&gt;n16</title>
<path fill="none" stroke="black" d="M2714.14,-926.07C2714.14,-883.61 2714.14,-776 2714.14,-776 2714.14,-776 2210.53,-776 2210.53,-776"/>
<polygon fill="black" stroke="black" points="2210.53,-772.5 2200.53,-776 2210.53,-779.5 2210.53,-772.5"/>
<text text-anchor="middle" x="2418.14" y="-852.8" font-family="Times,serif" font-size="14.00">DELTA_CONCURRENCY</text>
</g>
<!-- n13 -->
<g id="node11" class="node">
<title>n13</title>
<ellipse fill="none" stroke="black" cx="2173.34" cy="-943" rx="27" ry="18"/>
<text text-anchor="middle" x="2173.34" y="-939.3" font-family="Times,serif" font-size="14.00">rhs</text>
</g>
<!-- n13&#45;&gt;n14 -->
<!-- n18 -->
<g id="node13" class="node">
<title>n18</title>
<ellipse fill="none" stroke="black" cx="2699.68" cy="-722" rx="41.69" ry="18"/>
<text text-anchor="middle" x="2699.68" y="-718.3" font-family="Times,serif" font-size="14.00">output</text>
</g>
<!-- n65 -->
<g id="node26" class="node">
<title>n65</title>
<ellipse fill="none" stroke="black" cx="1644.66" cy="-830" rx="88.28" ry="18"/>
<text text-anchor="middle" x="1644.66" y="-826.3" font-family="Times,serif" font-size="14.00">load_shed_factor</text>
</g>
<!-- n18&#45;&gt;n65 -->
<g id="edge48" class="edge">
<title>n18&#45;&gt;n65</title>
<path fill="none" stroke="black" d="M2686.14,-739.35C2686.14,-769.88 2686.14,-830 2686.14,-830 2686.14,-830 1743.45,-830 1743.45,-830"/>
<polygon fill="black" stroke="black" points="1743.45,-826.5 1733.45,-830 1743.45,-833.5 1743.45,-826.5"/>
<text text-anchor="middle" x="2173.34" y="-554.8" font-family="Times,serif" font-size="14.00">LSF</text>
</g>
<!-- n17 -->
<g id="node14" class="node">
<title>n17</title>
<ellipse fill="none" stroke="black" cx="2173.34" cy="-722" rx="27" ry="18"/>
<text text-anchor="middle" x="2173.34" y="-718.3" font-family="Times,serif" font-size="14.00">rhs</text>
</g>
<!-- n17&#45;&gt;n18 -->
<!-- n21 -->
<g id="node15" class="node">
<title>n21</title>
<ellipse fill="none" stroke="black" cx="1644.66" cy="-338" rx="31.4" ry="18"/>
<text text-anchor="middle" x="1644.66" y="-334.3" font-family="Times,serif" font-size="14.00">2.00</text>
</g>
<!-- n20 -->
<g id="node16" class="node">
<title>n20</title>
<ellipse fill="none" stroke="black" cx="2173.34" cy="-338" rx="27" ry="18"/>
<text text-anchor="middle" x="2173.34" y="-334.3" font-family="Times,serif" font-size="14.00">lhs</text>
</g>
<!-- n21&#45;&gt;n20 -->
<g id="edge7" class="edge">
<title>n21&#45;&gt;n20</title>
<path fill="none" stroke="black" d="M1676.14,-338C1676.14,-338 2136.21,-338 2136.21,-338"/>
<polygon fill="black" stroke="black" points="2136.21,-341.5 2146.21,-338 2136.21,-334.5 2136.21,-341.5"/>
</g>
<!-- n23 -->
<g id="node17" class="node">
<title>n23</title>
<ellipse fill="none" stroke="black" cx="2699.68" cy="-365" rx="41.69" ry="18"/>
<text text-anchor="middle" x="2699.68" y="-361.3" font-family="Times,serif" font-size="14.00">output</text>
</g>
<!-- n41 -->
<g id="node45" class="node">
<title>n41</title>
<ellipse fill="none" stroke="black" cx="3160.38" cy="-171" rx="40.09" ry="18"/>
<text text-anchor="middle" x="3160.38" y="-167.3" font-family="Times,serif" font-size="14.00">inputs</text>
</g>
<!-- n23&#45;&gt;n41 -->
<g id="edge32" class="edge">
<title>n23&#45;&gt;n41</title>
<path fill="none" stroke="black" d="M2735.89,-356C2844.68,-356 3161.14,-356 3161.14,-356 3161.14,-356 3161.14,-199.08 3161.14,-199.08"/>
<polygon fill="black" stroke="black" points="3164.64,-199.08 3161.14,-189.08 3157.64,-199.08 3164.64,-199.08"/>
<text text-anchor="middle" x="2946.78" y="-269.8" font-family="Times,serif" font-size="14.00">UPPER_CONCURRENCY_LIMIT</text>
</g>
<!-- n22 -->
<g id="node18" class="node">
<title>n22</title>
<ellipse fill="none" stroke="black" cx="2173.34" cy="-392" rx="27" ry="18"/>
<text text-anchor="middle" x="2173.34" y="-388.3" font-family="Times,serif" font-size="14.00">rhs</text>
</g>
<!-- n22&#45;&gt;n23 -->
<!-- n26 -->
<g id="node19" class="node">
<title>n26</title>
<ellipse fill="none" stroke="black" cx="2699.68" cy="-2388" rx="31.4" ry="18"/>
<text text-anchor="middle" x="2699.68" y="-2384.3" font-family="Times,serif" font-size="14.00">5.00</text>
</g>
<!-- n25 -->
<g id="node20" class="node">
<title>n25</title>
<ellipse fill="none" stroke="black" cx="3160.38" cy="-2388" rx="27" ry="18"/>
<text text-anchor="middle" x="3160.38" y="-2384.3" font-family="Times,serif" font-size="14.00">lhs</text>
</g>
<!-- n26&#45;&gt;n25 -->
<g id="edge9" class="edge">
<title>n26&#45;&gt;n25</title>
<path fill="none" stroke="black" d="M2730.99,-2388C2730.99,-2388 3123.16,-2388 3123.16,-2388"/>
<polygon fill="black" stroke="black" points="3123.16,-2391.5 3133.16,-2388 3123.16,-2384.5 3123.16,-2391.5"/>
</g>
<!-- n28 -->
<g id="node21" class="node">
<title>n28</title>
<ellipse fill="none" stroke="black" cx="3591.07" cy="-2415" rx="41.69" ry="18"/>
<text text-anchor="middle" x="3591.07" y="-2411.3" font-family="Times,serif" font-size="14.00">output</text>
</g>
<!-- n30 -->
<g id="node23" class="node">
<title>n30</title>
<ellipse fill="none" stroke="black" cx="4161.81" cy="-1772" rx="27" ry="18"/>
<text text-anchor="middle" x="4161.81" y="-1768.3" font-family="Times,serif" font-size="14.00">lhs</text>
</g>
<!-- n28&#45;&gt;n30 -->
<g id="edge42" class="edge">
<title>n28&#45;&gt;n30</title>
<path fill="none" stroke="black" d="M3633.06,-2415C3764.94,-2415 4162.14,-2415 4162.14,-2415 4162.14,-2415 4162.14,-1800.21 4162.14,-1800.21"/>
<polygon fill="black" stroke="black" points="4165.64,-1800.21 4162.14,-1790.21 4158.64,-1800.21 4165.64,-1800.21"/>
<text text-anchor="middle" x="3854.66" y="-2122.8" font-family="Times,serif" font-size="14.00">CONCURRENCY_INCREMENT_SINGLE_TICK</text>
</g>
<!-- n27 -->
<g id="node22" class="node">
<title>n27</title>
<ellipse fill="none" stroke="black" cx="3160.38" cy="-2442" rx="27" ry="18"/>
<text text-anchor="middle" x="3160.38" y="-2438.3" font-family="Times,serif" font-size="14.00">rhs</text>
</g>
<!-- n27&#45;&gt;n28 -->
<!-- n32 -->
<g id="node24" class="node">
<title>n32</title>
<ellipse fill="none" stroke="black" cx="4325.55" cy="-1745" rx="41.69" ry="18"/>
<text text-anchor="middle" x="4325.55" y="-1741.3" font-family="Times,serif" font-size="14.00">output</text>
</g>
<!-- n34 -->
<g id="node47" class="node">
<title>n34</title>
<ellipse fill="none" stroke="black" cx="2173.34" cy="-1772" rx="40.09" ry="18"/>
<text text-anchor="middle" x="2173.34" y="-1768.3" font-family="Times,serif" font-size="14.00">inputs</text>
</g>
<!-- n32&#45;&gt;n34 -->
<g id="edge45" class="edge">
<title>n32&#45;&gt;n34</title>
<path fill="none" stroke="black" d="M4283.77,-1745C3987.04,-1745 2210.14,-1745 2210.14,-1745 2210.14,-1745 2210.14,-1754.62 2210.14,-1754.62"/>
<polygon fill="black" stroke="black" points="2206.64,-1754.62 2210.14,-1764.62 2213.64,-1754.62 2206.64,-1754.62"/>
<text text-anchor="middle" x="3378.97" y="-1821.8" font-family="Times,serif" font-size="14.00">CONCURRENCY_INCREMENT_INTEGRAL</text>
</g>
<!-- n31 -->
<g id="node25" class="node">
<title>n31</title>
<ellipse fill="none" stroke="black" cx="4161.81" cy="-1718" rx="27" ry="18"/>
<text text-anchor="middle" x="4161.81" y="-1714.3" font-family="Times,serif" font-size="14.00">rhs</text>
</g>
<!-- n31&#45;&gt;n32 -->
<!-- n62 -->
<g id="node27" class="node">
<title>n62</title>
<ellipse fill="none" stroke="black" cx="1644.66" cy="-1093" rx="113.98" ry="18"/>
<text text-anchor="middle" x="1644.66" y="-1089.3" font-family="Times,serif" font-size="14.00">accepted_concurrency</text>
</g>
<!-- n62&#45;&gt;n22 -->
<g id="edge25" class="edge">
<title>n62&#45;&gt;n22</title>
<path fill="none" stroke="black" d="M1743.43,-1084C1887.2,-1084 2137.14,-1084 2137.14,-1084 2137.14,-1084 2137.14,-403 2137.14,-403 2137.14,-403 2141.87,-403 2141.87,-403"/>
<polygon fill="black" stroke="black" points="2141.87,-406.5 2151.87,-403 2141.87,-399.5 2141.87,-406.5"/>
<text text-anchor="middle" x="1971.04" y="-459.8" font-family="Times,serif" font-size="14.00">ACCEPTED_CONCURRENCY</text>
</g>
<!-- n58 -->
<g id="node38" class="node">
<title>n58</title>
<ellipse fill="none" stroke="black" cx="4161.81" cy="-455" rx="85.29" ry="18"/>
<text text-anchor="middle" x="4161.81" y="-451.3" font-family="Times,serif" font-size="14.00">control_variable</text>
</g>
<!-- n62&#45;&gt;n58 -->
<g id="edge28" class="edge">
<title>n62&#45;&gt;n58</title>
<path fill="none" stroke="black" d="M1758.7,-1093C2241.71,-1093 4094.14,-1093 4094.14,-1093 4094.14,-1093 4094.14,-476.07 4094.14,-476.07"/>
<polygon fill="black" stroke="black" points="4097.64,-476.07 4094.14,-466.07 4090.64,-476.07 4097.64,-476.07"/>
<text text-anchor="middle" x="2946.78" y="-597.8" font-family="Times,serif" font-size="14.00">ACCEPTED_CONCURRENCY</text>
</g>
<!-- n62&#45;&gt;n34 -->
<g id="edge26" class="edge">
<title>n62&#45;&gt;n34</title>
<path fill="none" stroke="black" d="M1743.44,-1102C1887.98,-1102 2140.14,-1102 2140.14,-1102 2140.14,-1102 2140.14,-1751.74 2140.14,-1751.74"/>
<polygon fill="black" stroke="black" points="2136.64,-1751.74 2140.14,-1761.74 2143.64,-1751.74 2136.64,-1751.74"/>
<text text-anchor="middle" x="1971.04" y="-1265.8" font-family="Times,serif" font-size="14.00">ACCEPTED_CONCURRENCY</text>
</g>
<!-- n45 -->
<g id="node50" class="node">
<title>n45</title>
<ellipse fill="none" stroke="black" cx="2173.34" cy="-2609" rx="35.19" ry="18"/>
<text text-anchor="middle" x="2173.34" y="-2605.3" font-family="Times,serif" font-size="14.00">input</text>
</g>
<!-- n62&#45;&gt;n45 -->
<g id="edge27" class="edge">
<title>n62&#45;&gt;n45</title>
<path fill="none" stroke="black" d="M1717.14,-1107.04C1717.14,-1259.87 1717.14,-2609 1717.14,-2609 1717.14,-2609 2127.92,-2609 2127.92,-2609"/>
<polygon fill="black" stroke="black" points="2127.92,-2612.5 2137.92,-2609 2127.92,-2605.5 2127.92,-2612.5"/>
<text text-anchor="middle" x="1971.04" y="-2360.8" font-family="Times,serif" font-size="14.00">ACCEPTED_CONCURRENCY</text>
</g>
<!-- n63 -->
<g id="node28" class="node">
<title>n63</title>
<ellipse fill="none" stroke="black" cx="1644.66" cy="-1039" rx="114.28" ry="18"/>
<text text-anchor="middle" x="1644.66" y="-1035.3" font-family="Times,serif" font-size="14.00">incoming_concurrency</text>
</g>
<!-- n63&#45;&gt;n12 -->
<g id="edge29" class="edge">
<title>n63&#45;&gt;n12</title>
<path fill="none" stroke="black" d="M1751.14,-1032.06C1751.14,-1020.14 1751.14,-997 1751.14,-997 1751.14,-997 2136.29,-997 2136.29,-997"/>
<polygon fill="black" stroke="black" points="2136.29,-1000.5 2146.29,-997 2136.29,-993.5 2136.29,-1000.5"/>
<text text-anchor="middle" x="1971.04" y="-763.8" font-family="Times,serif" font-size="14.00">INCOMING_CONCURRENCY</text>
</g>
<!-- n63&#45;&gt;n17 -->
<g id="edge30" class="edge">
<title>n63&#45;&gt;n17</title>
<path fill="none" stroke="black" d="M1742.14,-1029.51C1742.14,-976.77 1742.14,-722 1742.14,-722 1742.14,-722 2136.04,-722 2136.04,-722"/>
<polygon fill="black" stroke="black" points="2136.04,-725.5 2146.04,-722 2136.04,-718.5 2136.04,-725.5"/>
<text text-anchor="middle" x="1971.04" y="-725.8" font-family="Times,serif" font-size="14.00">INCOMING_CONCURRENCY</text>
</g>
<!-- n68 -->
<g id="node29" class="node">
<title>n68</title>
<ellipse fill="none" stroke="black" cx="2173.34" cy="-1605" rx="27" ry="18"/>
<text text-anchor="middle" x="2173.34" y="-1601.3" font-family="Times,serif" font-size="14.00">lhs</text>
</g>
<!-- n69 -->
<g id="node30" class="node">
<title>n69</title>
<ellipse fill="none" stroke="black" cx="2699.68" cy="-1605" rx="41.69" ry="18"/>
<text text-anchor="middle" x="2699.68" y="-1601.3" font-family="Times,serif" font-size="14.00">output</text>
</g>
<!-- n68&#45;&gt;n69 -->
<!-- n71 -->
<g id="node56" class="node">
<title>n71</title>
<ellipse fill="none" stroke="black" cx="3160.38" cy="-1218" rx="40.89" ry="18"/>
<text text-anchor="middle" x="3160.38" y="-1214.3" font-family="Times,serif" font-size="14.00">switch</text>
</g>
<!-- n69&#45;&gt;n71 -->
<g id="edge46" class="edge">
<title>n69&#45;&gt;n71</title>
<path fill="none" stroke="black" d="M2700.14,-1586.85C2700.14,-1510.34 2700.14,-1218 2700.14,-1218 2700.14,-1218 3109.13,-1218 3109.13,-1218"/>
<polygon fill="black" stroke="black" points="3109.13,-1221.5 3119.13,-1218 3109.13,-1214.5 3109.13,-1221.5"/>
<text text-anchor="middle" x="2946.78" y="-1309.8" font-family="Times,serif" font-size="14.00">IS_OVERLOAD_SWITCH</text>
</g>
<!-- n80 -->
<g id="node61" class="node">
<title>n80</title>
<ellipse fill="none" stroke="black" cx="3160.38" cy="-2113" rx="40.89" ry="18"/>
<text text-anchor="middle" x="3160.38" y="-2109.3" font-family="Times,serif" font-size="14.00">switch</text>
</g>
<!-- n69&#45;&gt;n80 -->
<g id="edge47" class="edge">
<title>n69&#45;&gt;n80</title>
<path fill="none" stroke="black" d="M2741.45,-1605C2855.04,-1605 3161.14,-1605 3161.14,-1605 3161.14,-1605 3161.14,-2084.92 3161.14,-2084.92"/>
<polygon fill="black" stroke="black" points="3157.64,-2084.92 3161.14,-2094.92 3164.64,-2084.92 3157.64,-2084.92"/>
<text text-anchor="middle" x="2946.78" y="-1863.8" font-family="Times,serif" font-size="14.00">IS_OVERLOAD_SWITCH</text>
</g>
<!-- n50 -->
<g id="node32" class="node">
<title>n50</title>
<ellipse fill="none" stroke="black" cx="798.43" cy="-392" rx="35.19" ry="18"/>
<text text-anchor="middle" x="798.43" y="-388.3" font-family="Times,serif" font-size="14.00">input</text>
</g>
<!-- n52 -->
<g id="node34" class="node">
<title>n52</title>
<ellipse fill="none" stroke="black" cx="1051.67" cy="-378" rx="41.69" ry="18"/>
<text text-anchor="middle" x="1051.67" y="-374.3" font-family="Times,serif" font-size="14.00">output</text>
</g>
<!-- n51&#45;&gt;n52 -->
<!-- n52&#45;&gt;n9 -->
<g id="edge39" class="edge">
<title>n52&#45;&gt;n9</title>
<path fill="none" stroke="black" d="M1088.14,-386.73C1088.14,-422.89 1088.14,-559 1088.14,-559 1088.14,-559 1269.96,-559 1269.96,-559"/>
<polygon fill="black" stroke="black" points="1269.96,-562.5 1279.96,-559 1269.96,-555.5 1269.96,-562.5"/>
<text text-anchor="middle" x="1206.77" y="-478.8" font-family="Times,serif" font-size="14.00">LATENCY_EMA</text>
</g>
<!-- n38 -->
<g id="node35" class="node">
<title>n38</title>
<ellipse fill="none" stroke="black" cx="1644.66" cy="-1946" rx="31.4" ry="18"/>
<text text-anchor="middle" x="1644.66" y="-1942.3" font-family="Times,serif" font-size="14.00">0.00</text>
</g>
<!-- n37 -->
<g id="node36" class="node">
<title>n37</title>
<ellipse fill="none" stroke="black" cx="2173.34" cy="-1946" rx="40.09" ry="18"/>
<text text-anchor="middle" x="2173.34" y="-1942.3" font-family="Times,serif" font-size="14.00">inputs</text>
</g>
<!-- n38&#45;&gt;n37 -->
<g id="edge14" class="edge">
<title>n38&#45;&gt;n37</title>
<path fill="none" stroke="black" d="M1676.14,-1946C1676.14,-1946 2122.86,-1946 2122.86,-1946"/>
<polygon fill="black" stroke="black" points="2122.86,-1949.5 2132.86,-1946 2122.86,-1942.5 2122.86,-1949.5"/>
</g>
<!-- n39 -->
<g id="node37" class="node">
<title>n39</title>
<ellipse fill="none" stroke="black" cx="2699.68" cy="-1946" rx="41.69" ry="18"/>
<text text-anchor="middle" x="2699.68" y="-1942.3" font-family="Times,serif" font-size="14.00">output</text>
</g>
<!-- n37&#45;&gt;n39 -->
<!-- n74 -->
<g id="node53" class="node">
<title>n74</title>
<ellipse fill="none" stroke="black" cx="3160.38" cy="-1272" rx="48.19" ry="18"/>
<text text-anchor="middle" x="3160.38" y="-1268.3" font-family="Times,serif" font-size="14.00">on_false</text>
</g>
<!-- n39&#45;&gt;n74 -->
<g id="edge50" class="edge">
<title>n39&#45;&gt;n74</title>
<path fill="none" stroke="black" d="M2739.14,-1940C2842.85,-1940 3115.14,-1940 3115.14,-1940 3115.14,-1940 3115.14,-1288.19 3115.14,-1288.19"/>
<polygon fill="black" stroke="black" points="3118.64,-1288.19 3115.14,-1278.19 3111.64,-1288.19 3118.64,-1288.19"/>
<text text-anchor="middle" x="2946.78" y="-1927.8" font-family="Times,serif" font-size="14.00">CONCURRENCY_INCREMENT_NORMAL</text>
</g>
<!-- n79 -->
<g id="node58" class="node">
<title>n79</title>
<ellipse fill="none" stroke="black" cx="3160.38" cy="-2167" rx="48.19" ry="18"/>
<text text-anchor="middle" x="3160.38" y="-2163.3" font-family="Times,serif" font-size="14.00">on_false</text>
</g>
<!-- n39&#45;&gt;n79 -->
<g id="edge51" class="edge">
<title>n39&#45;&gt;n79</title>
<path fill="none" stroke="black" d="M2738.96,-1952C2842.88,-1952 3117.14,-1952 3117.14,-1952 3117.14,-1952 3117.14,-2149.09 3117.14,-2149.09"/>
<polygon fill="black" stroke="black" points="3113.64,-2149.09 3117.14,-2159.09 3120.64,-2149.09 3113.64,-2149.09"/>
<text text-anchor="middle" x="2946.78" y="-1970.8" font-family="Times,serif" font-size="14.00">CONCURRENCY_INCREMENT_NORMAL</text>
</g>
<!-- n59 -->
<g id="node41" class="node">
<title>n59</title>
<ellipse fill="none" stroke="black" cx="4325.55" cy="-482" rx="41.69" ry="18"/>
<text text-anchor="middle" x="4325.55" y="-478.3" font-family="Times,serif" font-size="14.00">output</text>
</g>
<!-- n58&#45;&gt;n59 -->
<!-- n57 -->
<g id="node39" class="node">
<title>n57</title>
<ellipse fill="none" stroke="black" cx="4161.81" cy="-401" rx="30.59" ry="18"/>
<text text-anchor="middle" x="4161.81" y="-397.3" font-family="Times,serif" font-size="14.00">max</text>
</g>
<!-- n56 -->
<g id="node40" class="node">
<title>n56</title>
<ellipse fill="none" stroke="black" cx="4161.81" cy="-509" rx="50.89" ry="18"/>
<text text-anchor="middle" x="4161.81" y="-505.3" font-family="Times,serif" font-size="14.00">optimize</text>
</g>
<!-- n59&#45;&gt;n13 -->
<g id="edge40" class="edge">
<title>n59&#45;&gt;n13</title>
<path fill="none" stroke="black" d="M4283.67,-482C3986.24,-482 2205.14,-482 2205.14,-482 2205.14,-482 2205.14,-937 2205.14,-937 2205.14,-937 2204.53,-937 2204.53,-937"/>
<polygon fill="black" stroke="black" points="2209.01,-933.5 2199.01,-937 2209.01,-940.5 2209.01,-933.5"/>
<text text-anchor="middle" x="3378.97" y="-1434.8" font-family="Times,serif" font-size="14.00">DESIRED_CONCURRENCY</text>
</g>
<!-- n54 -->
<g id="node43" class="node">
<title>n54</title>
<ellipse fill="none" stroke="black" cx="4161.81" cy="-293" rx="38.19" ry="18"/>
<text text-anchor="middle" x="4161.81" y="-289.3" font-family="Times,serif" font-size="14.00">signal</text>
</g>
<!-- n42 -->
<g id="node44" class="node">
<title>n42</title>
<ellipse fill="none" stroke="black" cx="2699.68" cy="-171" rx="37.09" ry="18"/>
<text text-anchor="middle" x="2699.68" y="-167.3" font-family="Times,serif" font-size="14.00">10.00</text>
</g>
<!-- n42&#45;&gt;n41 -->
<g id="edge17" class="edge">
<title>n42&#45;&gt;n41</title>
<path fill="none" stroke="black" d="M2736.99,-171C2736.99,-171 3109.77,-171 3109.77,-171"/>
<polygon fill="black" stroke="black" points="3109.77,-174.5 3119.77,-171 3109.77,-167.5 3109.77,-174.5"/>
</g>
<!-- n43 -->
<g id="node46" class="node">
<title>n43</title>
<ellipse fill="none" stroke="black" cx="3591.07" cy="-171" rx="41.69" ry="18"/>
<text text-anchor="middle" x="3591.07" y="-167.3" font-family="Times,serif" font-size="14.00">output</text>
</g>
<!-- n41&#45;&gt;n43 -->
<!-- n43&#45;&gt;n57 -->
<g id="edge33" class="edge">
<title>n43&#45;&gt;n57</title>
<path fill="none" stroke="black" d="M3591.14,-189.07C3591.14,-242.58 3591.14,-396.5 3591.14,-396.5 3591.14,-396.5 4121.93,-396.5 4121.93,-396.5"/>
<polygon fill="black" stroke="black" points="4121.93,-400 4131.93,-396.5 4121.93,-393 4121.93,-400"/>
<text text-anchor="middle" x="3854.66" y="-289.8" font-family="Times,serif" font-size="14.00">MAX_CONCURRENCY</text>
</g>
<!-- n35 -->
<g id="node48" class="node">
<title>n35</title>
<ellipse fill="none" stroke="black" cx="2699.68" cy="-1772" rx="41.69" ry="18"/>
<text text-anchor="middle" x="2699.68" y="-1768.3" font-family="Times,serif" font-size="14.00">output</text>
</g>
<!-- n34&#45;&gt;n35 -->
<!-- n35&#45;&gt;n37 -->
<g id="edge49" class="edge">
<title>n35&#45;&gt;n37</title>
<path fill="none" stroke="black" d="M2660.23,-1778C2586.71,-1778 2436.14,-1778 2436.14,-1778 2436.14,-1778 2436.14,-1940 2436.14,-1940 2436.14,-1940 2221.55,-1940 2221.55,-1940"/>
<polygon fill="black" stroke="black" points="2221.55,-1936.5 2211.55,-1940 2221.55,-1943.5 2221.55,-1936.5"/>
<text text-anchor="middle" x="2418.14" y="-1891.8" font-family="Times,serif" font-size="14.00">CONCURRENCY_INCREMENT_INTEGRAL_CAPPED</text>
</g>
<!-- n48 -->
<g id="node49" class="node">
<title>n48</title>
<ellipse fill="none" stroke="black" cx="99.6" cy="-381" rx="41.69" ry="18"/>
<text text-anchor="middle" x="99.6" y="-377.3" font-family="Times,serif" font-size="14.00">output</text>
</g>
<!-- n48&#45;&gt;n2 -->
<g id="edge35" class="edge">
<title>n48&#45;&gt;n2</title>
<path fill="none" stroke="black" d="M135.14,-371.4C135.14,-331.65 135.14,-182 135.14,-182 135.14,-182 277,-182 277,-182"/>
<polygon fill="black" stroke="black" points="277,-185.5 287,-182 277,-178.5 277,-185.5"/>
<text text-anchor="middle" x="234.19" y="-369.8" font-family="Times,serif" font-size="14.00">LATENCY</text>
</g>
<!-- n48&#45;&gt;n68 -->
<g id="edge38" class="edge">
<title>n48&#45;&gt;n68</title>
<path fill="none" stroke="black" d="M100.14,-399.25C100.14,-551.51 100.14,-1605 100.14,-1605 100.14,-1605 2135.99,-1605 2135.99,-1605"/>
<polygon fill="black" stroke="black" points="2135.99,-1608.5 2145.99,-1605 2135.99,-1601.5 2135.99,-1608.5"/>
<text text-anchor="middle" x="927.47" y="-1464.8" font-family="Times,serif" font-size="14.00">LATENCY</text>
</g>
<!-- n48&#45;&gt;n50 -->
<g id="edge36" class="edge">
<title>n48&#45;&gt;n50</title>
<path fill="none" stroke="black" d="M139.42,-386.5C139.42,-386.5 754.75,-386.5 754.75,-386.5"/>
<polygon fill="black" stroke="black" points="754.75,-390 764.75,-386.5 754.75,-383 754.75,-390"/>
<text text-anchor="middle" x="394.19" y="-399.8" font-family="Times,serif" font-size="14.00">LATENCY</text>
</g>
<!-- n48&#45;&gt;n54 -->
<g id="edge37" class="edge">
<title>n48&#45;&gt;n54</title>
<path fill="none" stroke="black" d="M138.14,-374.09C138.14,-353.35 138.14,-293 138.14,-293 138.14,-293 4113.27,-293 4113.27,-293"/>
<polygon fill="black" stroke="black" points="4113.27,-296.5 4123.27,-293 4113.27,-289.5 4113.27,-296.5"/>
<text text-anchor="middle" x="1387.27" y="-3.8" font-family="Times,serif" font-size="14.00">LATENCY</text>
</g>
<!-- n46 -->
<g id="node51" class="node">
<title>n46</title>
<ellipse fill="none" stroke="black" cx="2699.68" cy="-2609" rx="41.69" ry="18"/>
<text text-anchor="middle" x="2699.68" y="-2605.3" font-family="Times,serif" font-size="14.00">output</text>
</g>
<!-- n45&#45;&gt;n46 -->
<!-- n46&#45;&gt;n27 -->
<g id="edge34" class="edge">
<title>n46&#45;&gt;n27</title>
<path fill="none" stroke="black" d="M2736.14,-2600.02C2736.14,-2565.33 2736.14,-2442 2736.14,-2442 2736.14,-2442 3123.19,-2442 3123.19,-2442"/>
<polygon fill="black" stroke="black" points="3123.19,-2445.5 3133.19,-2442 3123.19,-2438.5 3123.19,-2445.5"/>
<text text-anchor="middle" x="2946.78" y="-2528.8" font-family="Times,serif" font-size="14.00">SQRT_CONCURRENCY_INCREMENT</text>
</g>
<!-- n73 -->
<g id="node52" class="node">
<title>n73</title>
<ellipse fill="none" stroke="black" cx="2699.68" cy="-1164" rx="37.09" ry="18"/>
<text text-anchor="middle" x="2699.68" y="-1160.3" font-family="Times,serif" font-size="14.00">10.00</text>
</g>
<!-- n72 -->
<g id="node54" class="node">
<title>n72</title>
<ellipse fill="none" stroke="black" cx="3160.38" cy="-1164" rx="46.29" ry="18"/>
<text text-anchor="middle" x="3160.38" y="-1160.3" font-family="Times,serif" font-size="14.00">on_true</text>
</g>
<!-- n73&#45;&gt;n72 -->
<g id="edge21" class="edge">
<title>n73&#45;&gt;n72</title>
<path fill="none" stroke="black" d="M2736.99,-1164C2736.99,-1164 3103.95,-1164 3103.95,-1164"/>
<polygon fill="black" stroke="black" points="3103.95,-1167.5 3113.95,-1164 3103.95,-1160.5 3103.95,-1167.5"/>
</g>
<!-- n75 -->
<g id="node55" class="node">
<title>n75</title>
<ellipse fill="none" stroke="black" cx="3591.07" cy="-1218" rx="41.69" ry="18"/>
<text text-anchor="middle" x="3591.07" y="-1214.3" font-family="Times,serif" font-size="14.00">output</text>
</g>
<!-- n74&#45;&gt;n75 -->
<!-- n75&#45;&gt;n56 -->
<g id="edge52" class="edge">
<title>n75&#45;&gt;n56</title>
<path fill="none" stroke="black" d="M3632.82,-1218C3758.25,-1218 4123.14,-1218 4123.14,-1218 4123.14,-1218 4123.14,-530.71 4123.14,-530.71"/>
<polygon fill="black" stroke="black" points="4126.64,-530.71 4123.14,-520.71 4119.64,-530.71 4126.64,-530.71"/>
<text text-anchor="middle" x="3854.66" y="-770.8" font-family="Times,serif" font-size="14.00">CONCURRENCY_INCREMENT</text>
</g>
<!-- n78 -->
<g id="node57" class="node">
<title>n78</title>
<ellipse fill="none" stroke="black" cx="2699.68" cy="-2221" rx="31.4" ry="18"/>
<text text-anchor="middle" x="2699.68" y="-2217.3" font-family="Times,serif" font-size="14.00">0.00</text>
</g>
<!-- n77 -->
<g id="node59" class="node">
<title>n77</title>
<ellipse fill="none" stroke="black" cx="3160.38" cy="-2221" rx="46.29" ry="18"/>
<text text-anchor="middle" x="3160.38" y="-2217.3" font-family="Times,serif" font-size="14.00">on_true</text>
</g>
<!-- n78&#45;&gt;n77 -->
<g id="edge23" class="edge">
<title>n78&#45;&gt;n77</title>
<path fill="none" stroke="black" d="M2730.99,-2221C2730.99,-2221 3104.11,-2221 3104.11,-2221"/>
<polygon fill="black" stroke="black" points="3104.11,-2224.5 3114.11,-2221 3104.11,-2217.5 3104.11,-2224.5"/>
</g>
<!-- n81 -->
<g id="node60" class="node">
<title>n81</title>
<ellipse fill="none" stroke="black" cx="3591.07" cy="-2113" rx="41.69" ry="18"/>
<text text-anchor="middle" x="3591.07" y="-2109.3" font-family="Times,serif" font-size="14.00">output</text>
</g>
<!-- n81&#45;&gt;n31 -->
<g id="edge53" class="edge">
<title>n81&#45;&gt;n31</title>
<path fill="none" stroke="black" d="M3578.14,-2095.77C3578.14,-2019.75 3578.14,-1718 3578.14,-1718 3578.14,-1718 4124.44,-1718 4124.44,-1718"/>
<polygon fill="black" stroke="black" points="4124.44,-1721.5 4134.44,-1718 4124.44,-1714.5 4124.44,-1721.5"/>
<text text-anchor="middle" x="3854.66" y="-1756.8" font-family="Times,serif" font-size="14.00">CONCURRENCY_INCREMENT_FEEDBACK</text>
</g>
<!-- n80&#45;&gt;n81 -->
</g>
</svg>
