<?xml version="1.0" encoding="UTF-8" standalone="no"?>
<!DOCTYPE svg PUBLIC "-//W3C//DTD SVG 1.1//EN"
 "http://www.w3.org/Graphics/SVG/1.1/DTD/svg11.dtd">
<!-- Generated by graphviz version 6.0.1 (20220911.1526)
 -->
<!-- Pages: 1 -->
<svg width="4131pt" height="2447pt"
 viewBox="0.00 0.00 4131.21 2447.00" xmlns="http://www.w3.org/2000/svg" xmlns:xlink="http://www.w3.org/1999/xlink">
<g id="graph0" class="graph" transform="scale(1 1) rotate(0) translate(4 2443)">
<polygon fill="white" stroke="none" points="-4,4 -4,-2443 4127.21,-2443 4127.21,4 -4,4"/>
<g id="clust1" class="cluster">
<title>cluster_s27</title>
<polygon fill="none" stroke="black" points="2135.75,-2051 2135.75,-2264 2589.54,-2264 2589.54,-2051 2135.75,-2051"/>
<text text-anchor="middle" x="2362.65" y="-2248.8" font-family="Times,serif" font-size="14.00">ArithmeticCombinator (10)</text>
</g>
<g id="clust4" class="cluster">
<title>cluster_s31</title>
<polygon fill="none" stroke="black" points="2135.75,-1454 2135.75,-1667 2589.54,-1667 2589.54,-1454 2135.75,-1454"/>
<text text-anchor="middle" x="2362.65" y="-1651.8" font-family="Times,serif" font-size="14.00">ArithmeticCombinator (11)</text>
</g>
<g id="clust7" class="cluster">
<title>cluster_s35</title>
<polygon fill="none" stroke="black" points="1302.67,-906 1302.67,-1119 1770.11,-1119 1770.11,-906 1302.67,-906"/>
<text text-anchor="middle" x="1536.39" y="-1103.8" font-family="Times,serif" font-size="14.00">ArithmeticCombinator (12)</text>
</g>
<g id="clust10" class="cluster">
<title>cluster_s39</title>
<polygon fill="none" stroke="black" points="2944.84,-621 2944.84,-834 3477.43,-834 3477.43,-621 2944.84,-621"/>
<text text-anchor="middle" x="3211.13" y="-818.8" font-family="Times,serif" font-size="14.00">ArithmeticCombinator (13)</text>
</g>
<g id="clust13" class="cluster">
<title>cluster_s43</title>
<polygon fill="none" stroke="black" points="3816.67,-400 3816.67,-613 4115.21,-613 4115.21,-400 3816.67,-400"/>
<text text-anchor="middle" x="3965.94" y="-597.8" font-family="Times,serif" font-size="14.00">ArithmeticCombinator (14)</text>
</g>
<g id="clust16" class="cluster">
<title>cluster_s15</title>
<polygon fill="none" stroke="black" points="353.29,-800 353.29,-1013 671.59,-1013 671.59,-800 353.29,-800"/>
<text text-anchor="middle" x="512.44" y="-997.8" font-family="Times,serif" font-size="14.00">ArithmeticCombinator (7)</text>
</g>
<g id="clust19" class="cluster">
<title>cluster_s19</title>
<polygon fill="none" stroke="black" points="1302.67,-685 1302.67,-898 1770.11,-898 1770.11,-685 1302.67,-685"/>
<text text-anchor="middle" x="1536.39" y="-882.8" font-family="Times,serif" font-size="14.00">ArithmeticCombinator (8)</text>
</g>
<g id="clust22" class="cluster">
<title>cluster_s23</title>
<polygon fill="none" stroke="black" points="2135.75,-1787 2135.75,-2000 2589.54,-2000 2589.54,-1787 2135.75,-1787"/>
<text text-anchor="middle" x="2362.65" y="-1984.8" font-family="Times,serif" font-size="14.00">ArithmeticCombinator (9)</text>
</g>
<g id="clust25" class="cluster">
<title>cluster_s69</title>
<polygon fill="none" stroke="black" points="1494.67,-1700 1494.67,-2245 1879.25,-2245 1879.25,-1700 1494.67,-1700"/>
<text text-anchor="middle" x="1686.96" y="-2229.8" font-family="Times,serif" font-size="14.00">ConcurrencyLimiter (21)</text>
</g>
<g id="clust26" class="cluster">
<title>cluster_s73</title>
<polygon fill="none" stroke="black" points="1561.47,-2013 1561.47,-2172 1812.46,-2172 1812.46,-2013 1561.47,-2013"/>
<text text-anchor="middle" x="1686.96" y="-2156.8" font-family="Times,serif" font-size="14.00">LoadShedActuator (21.LoadShedActuator)</text>
</g>
<g id="clust28" class="cluster">
<title>cluster_s70</title>
<polygon fill="none" stroke="black" points="1544.67,-1750 1544.67,-1963 1829.25,-1963 1829.25,-1750 1544.67,-1750"/>
<text text-anchor="middle" x="1686.96" y="-1947.8" font-family="Times,serif" font-size="14.00">Scheduler (21.Scheduler)</text>
</g>
<g id="clust30" class="cluster">
<title>cluster_s1</title>
<polygon fill="none" stroke="black" points="8,-527 8,-686 174.29,-686 174.29,-527 8,-527"/>
<text text-anchor="middle" x="91.15" y="-670.8" font-family="Times,serif" font-size="14.00">Constant (0)</text>
</g>
<g id="clust32" class="cluster">
<title>cluster_s3</title>
<polygon fill="none" stroke="black" points="1603.82,-1454 1603.82,-1613 1770.11,-1613 1770.11,-1454 1603.82,-1454"/>
<text text-anchor="middle" x="1686.96" y="-1597.8" font-family="Times,serif" font-size="14.00">Constant (1)</text>
</g>
<g id="clust34" class="cluster">
<title>cluster_s5</title>
<polygon fill="none" stroke="black" points="8,-1719 8,-1878 174.29,-1878 174.29,-1719 8,-1719"/>
<text text-anchor="middle" x="91.15" y="-1862.8" font-family="Times,serif" font-size="14.00">Constant (2)</text>
</g>
<g id="clust36" class="cluster">
<title>cluster_s7</title>
<polygon fill="none" stroke="black" points="2423.25,-508 2423.25,-667 2589.54,-667 2589.54,-508 2423.25,-508"/>
<text text-anchor="middle" x="2506.4" y="-651.8" font-family="Times,serif" font-size="14.00">Constant (3)</text>
</g>
<g id="clust38" class="cluster">
<title>cluster_s9</title>
<polygon fill="none" stroke="black" points="2423.25,-1175 2423.25,-1334 2589.54,-1334 2589.54,-1175 2423.25,-1175"/>
<text text-anchor="middle" x="2506.4" y="-1318.8" font-family="Times,serif" font-size="14.00">Constant (4)</text>
</g>
<g id="clust40" class="cluster">
<title>cluster_s11</title>
<polygon fill="none" stroke="black" points="1020.38,-717 1020.38,-876 1186.67,-876 1186.67,-717 1020.38,-717"/>
<text text-anchor="middle" x="1103.52" y="-860.8" font-family="Times,serif" font-size="14.00">Constant (5)</text>
</g>
<g id="clust42" class="cluster">
<title>cluster_s13</title>
<polygon fill="none" stroke="black" points="2423.25,-341 2423.25,-500 2589.54,-500 2589.54,-341 2423.25,-341"/>
<text text-anchor="middle" x="2506.4" y="-484.8" font-family="Times,serif" font-size="14.00">Constant (6)</text>
</g>
<g id="clust44" class="cluster">
<title>cluster_s75</title>
<polygon fill="none" stroke="black" points="2135.75,-954 2135.75,-1167 2589.54,-1167 2589.54,-954 2135.75,-954"/>
<text text-anchor="middle" x="2362.65" y="-1151.8" font-family="Times,serif" font-size="14.00">Decider (22)</text>
</g>
<g id="clust47" class="cluster">
<title>cluster_s84</title>
<polygon fill="none" stroke="black" points="2135.75,-8 2135.75,-221 2589.54,-221 2589.54,-8 2135.75,-8"/>
<text text-anchor="middle" x="2362.65" y="-205.8" font-family="Times,serif" font-size="14.00">Decider (24)</text>
</g>
<g id="clust50" class="cluster">
<title>cluster_s58</title>
<polygon fill="none" stroke="black" points="757.59,-896 757.59,-1109 1186.67,-1109 1186.67,-896 757.59,-896"/>
<text text-anchor="middle" x="972.13" y="-1093.8" font-family="Times,serif" font-size="14.00">EMA (19)</text>
</g>
<g id="clust53" class="cluster">
<title>cluster_s62</title>
<polygon fill="none" stroke="black" points="3775.43,-1250 3775.43,-1625 4115.21,-1625 4115.21,-1250 3775.43,-1250"/>
<text text-anchor="middle" x="3945.32" y="-1609.8" font-family="Times,serif" font-size="14.00">Gradient (20)</text>
</g>
<g id="clust56" class="cluster">
<title>cluster_s50</title>
<polygon fill="none" stroke="black" points="2939.34,-1467 2939.34,-1626 3477.43,-1626 3477.43,-1467 2939.34,-1467"/>
<text text-anchor="middle" x="3208.39" y="-1610.8" font-family="Times,serif" font-size="14.00">Max (16)</text>
</g>
<g id="clust59" class="cluster">
<title>cluster_s47</title>
<polygon fill="none" stroke="black" points="2130.25,-675 2130.25,-834 2589.54,-834 2589.54,-675 2130.25,-675"/>
<text text-anchor="middle" x="2359.9" y="-818.8" font-family="Times,serif" font-size="14.00">Min (15)</text>
</g>
<g id="clust62" class="cluster">
<title>cluster_s56</title>
<polygon fill="none" stroke="black" points="8,-1013 8,-1172 174.29,-1172 174.29,-1013 8,-1013"/>
<text text-anchor="middle" x="91.15" y="-1156.8" font-family="Times,serif" font-size="14.00">PromQL (18)</text>
</g>
<g id="clust64" class="cluster">
<title>cluster_s53</title>
<polygon fill="none" stroke="black" points="2134.15,-2272 2134.15,-2431 2589.54,-2431 2589.54,-2272 2134.15,-2272"/>
<text text-anchor="middle" x="2361.85" y="-2415.8" font-family="Times,serif" font-size="14.00">Sqrt (17)</text>
</g>
<g id="clust67" class="cluster">
<title>cluster_s79</title>
<polygon fill="none" stroke="black" points="2931.54,-1010 2931.54,-1277 3477.43,-1277 3477.43,-1010 2931.54,-1010"/>
<text text-anchor="middle" x="3204.49" y="-1261.8" font-family="Times,serif" font-size="14.00">Switcher (23)</text>
</g>
<g id="clust70" class="cluster">
<title>cluster_s88</title>
<polygon fill="none" stroke="black" points="2931.54,-346 2931.54,-613 3477.43,-613 3477.43,-346 2931.54,-346"/>
<text text-anchor="middle" x="3204.49" y="-597.8" font-family="Times,serif" font-size="14.00">Switcher (25)</text>
</g>
<!-- n29 -->
<g id="node1" class="node">
<title>n29</title>
<ellipse fill="none" stroke="black" cx="2212.75" cy="-2173" rx="27" ry="18"/>
<text text-anchor="middle" x="2212.75" y="-2169.3" font-family="Times,serif" font-size="14.00">lhs</text>
</g>
<!-- n30 -->
<g id="node2" class="node">
<title>n30</title>
<ellipse fill="none" stroke="black" cx="2506.4" cy="-2139" rx="33.29" ry="18"/>
<text text-anchor="middle" x="2506.4" y="-2135.3" font-family="Times,serif" font-size="14.00">output</text>
</g>
<!-- n29&#45;&gt;n30 -->
<!-- n74 -->
<g id="node25" class="node">
<title>n74</title>
<ellipse fill="none" stroke="black" cx="1686.96" cy="-2081" rx="71.49" ry="18"/>
<text text-anchor="middle" x="1686.96" y="-2077.3" font-family="Times,serif" font-size="14.00">load_shed_factor</text>
</g>
<!-- n30&#45;&gt;n74 -->
<g id="edge29" class="edge">
<title>n30&#45;&gt;n74</title>
<path fill="none" stroke="black" d="M2507.21,-2120.97C2507.21,-2103.94 2507.21,-2081 2507.21,-2081 2507.21,-2081 1768.68,-2081 1768.68,-2081"/>
<polygon fill="black" stroke="black" points="1768.68,-2077.5 1758.68,-2081 1768.68,-2084.5 1768.68,-2077.5"/>
<text text-anchor="middle" x="2212.75" y="-2071.8" font-family="Times,serif" font-size="14.00">LSF</text>
</g>
<!-- n28 -->
<g id="node3" class="node">
<title>n28</title>
<ellipse fill="none" stroke="black" cx="2212.75" cy="-2119" rx="27" ry="18"/>
<text text-anchor="middle" x="2212.75" y="-2115.3" font-family="Times,serif" font-size="14.00">rhs</text>
</g>
<!-- n32 -->
<g id="node4" class="node">
<title>n32</title>
<ellipse fill="none" stroke="black" cx="2212.75" cy="-1522" rx="27" ry="18"/>
<text text-anchor="middle" x="2212.75" y="-1518.3" font-family="Times,serif" font-size="14.00">lhs</text>
</g>
<!-- n34 -->
<g id="node5" class="node">
<title>n34</title>
<ellipse fill="none" stroke="black" cx="2506.4" cy="-1565" rx="33.29" ry="18"/>
<text text-anchor="middle" x="2506.4" y="-1561.3" font-family="Times,serif" font-size="14.00">output</text>
</g>
<!-- n51 -->
<g id="node50" class="node">
<title>n51</title>
<ellipse fill="none" stroke="black" cx="3021.84" cy="-1535" rx="32.49" ry="18"/>
<text text-anchor="middle" x="3021.84" y="-1531.3" font-family="Times,serif" font-size="14.00">inputs</text>
</g>
<!-- n34&#45;&gt;n51 -->
<g id="edge52" class="edge">
<title>n34&#45;&gt;n51</title>
<path fill="none" stroke="black" d="M2507.21,-1546.86C2507.21,-1544.84 2507.21,-1543.5 2507.21,-1543.5 2507.21,-1543.5 2983.07,-1543.5 2983.07,-1543.5"/>
<polygon fill="black" stroke="black" points="2983.07,-1547 2993.07,-1543.5 2983.07,-1540 2983.07,-1547"/>
<text text-anchor="middle" x="2760.54" y="-1541.8" font-family="Times,serif" font-size="14.00">UPPER_CONCURRENCY_LIMIT</text>
</g>
<!-- n33 -->
<g id="node6" class="node">
<title>n33</title>
<ellipse fill="none" stroke="black" cx="2212.75" cy="-1576" rx="27" ry="18"/>
<text text-anchor="middle" x="2212.75" y="-1572.3" font-family="Times,serif" font-size="14.00">rhs</text>
</g>
<!-- n33&#45;&gt;n34 -->
<!-- n36 -->
<g id="node7" class="node">
<title>n36</title>
<ellipse fill="none" stroke="black" cx="1379.67" cy="-1028" rx="27" ry="18"/>
<text text-anchor="middle" x="1379.67" y="-1024.3" font-family="Times,serif" font-size="14.00">lhs</text>
</g>
<!-- n38 -->
<g id="node8" class="node">
<title>n38</title>
<ellipse fill="none" stroke="black" cx="1686.96" cy="-974" rx="33.29" ry="18"/>
<text text-anchor="middle" x="1686.96" y="-970.3" font-family="Times,serif" font-size="14.00">output</text>
</g>
<!-- n77 -->
<g id="node37" class="node">
<title>n77</title>
<ellipse fill="none" stroke="black" cx="2212.75" cy="-1022" rx="27" ry="18"/>
<text text-anchor="middle" x="2212.75" y="-1018.3" font-family="Times,serif" font-size="14.00">rhs</text>
</g>
<!-- n38&#45;&gt;n77 -->
<g id="edge42" class="edge">
<title>n38&#45;&gt;n77</title>
<path fill="none" stroke="black" d="M1718.31,-980C1831.6,-980 2213.21,-980 2213.21,-980 2213.21,-980 2213.21,-993.94 2213.21,-993.94"/>
<polygon fill="black" stroke="black" points="2209.71,-993.94 2213.21,-1003.94 2216.71,-993.94 2209.71,-993.94"/>
<text text-anchor="middle" x="2004.75" y="-1010.8" font-family="Times,serif" font-size="14.00">LATENCY_OVERLOAD</text>
</g>
<!-- n86 -->
<g id="node40" class="node">
<title>n86</title>
<ellipse fill="none" stroke="black" cx="2212.75" cy="-130" rx="27" ry="18"/>
<text text-anchor="middle" x="2212.75" y="-126.3" font-family="Times,serif" font-size="14.00">rhs</text>
</g>
<!-- n38&#45;&gt;n86 -->
<g id="edge43" class="edge">
<title>n38&#45;&gt;n86</title>
<path fill="none" stroke="black" d="M1718.31,-968C1733.37,-968 1748.21,-968 1748.21,-968 1748.21,-968 1748.21,-130 1748.21,-130 1748.21,-130 2175.43,-130 2175.43,-130"/>
<polygon fill="black" stroke="black" points="2175.43,-133.5 2185.43,-130 2175.43,-126.5 2175.43,-133.5"/>
<text text-anchor="middle" x="2004.75" y="-944.8" font-family="Times,serif" font-size="14.00">LATENCY_OVERLOAD</text>
</g>
<!-- n37 -->
<g id="node9" class="node">
<title>n37</title>
<ellipse fill="none" stroke="black" cx="1379.67" cy="-974" rx="27" ry="18"/>
<text text-anchor="middle" x="1379.67" y="-970.3" font-family="Times,serif" font-size="14.00">rhs</text>
</g>
<!-- n37&#45;&gt;n38 -->
<!-- n40 -->
<g id="node10" class="node">
<title>n40</title>
<ellipse fill="none" stroke="black" cx="3021.84" cy="-689" rx="27" ry="18"/>
<text text-anchor="middle" x="3021.84" y="-685.3" font-family="Times,serif" font-size="14.00">lhs</text>
</g>
<!-- n42 -->
<g id="node11" class="node">
<title>n42</title>
<ellipse fill="none" stroke="black" cx="3394.28" cy="-716" rx="33.29" ry="18"/>
<text text-anchor="middle" x="3394.28" y="-712.3" font-family="Times,serif" font-size="14.00">output</text>
</g>
<!-- n44 -->
<g id="node13" class="node">
<title>n44</title>
<ellipse fill="none" stroke="black" cx="3893.67" cy="-522" rx="27" ry="18"/>
<text text-anchor="middle" x="3893.67" y="-518.3" font-family="Times,serif" font-size="14.00">lhs</text>
</g>
<!-- n42&#45;&gt;n44 -->
<g id="edge44" class="edge">
<title>n42&#45;&gt;n44</title>
<path fill="none" stroke="black" d="M3427.47,-716C3539.13,-716 3894.21,-716 3894.21,-716 3894.21,-716 3894.21,-550.25 3894.21,-550.25"/>
<polygon fill="black" stroke="black" points="3897.71,-550.25 3894.21,-540.25 3890.71,-550.25 3897.71,-550.25"/>
<text text-anchor="middle" x="3626.43" y="-622.8" font-family="Times,serif" font-size="14.00">CONCURRENCY_INCREMENT_SINGLE_TICK</text>
</g>
<!-- n41 -->
<g id="node12" class="node">
<title>n41</title>
<ellipse fill="none" stroke="black" cx="3021.84" cy="-743" rx="27" ry="18"/>
<text text-anchor="middle" x="3021.84" y="-739.3" font-family="Times,serif" font-size="14.00">rhs</text>
</g>
<!-- n41&#45;&gt;n42 -->
<!-- n46 -->
<g id="node14" class="node">
<title>n46</title>
<ellipse fill="none" stroke="black" cx="4032.07" cy="-468" rx="33.29" ry="18"/>
<text text-anchor="middle" x="4032.07" y="-464.3" font-family="Times,serif" font-size="14.00">output</text>
</g>
<!-- n48 -->
<g id="node52" class="node">
<title>n48</title>
<ellipse fill="none" stroke="black" cx="2212.75" cy="-743" rx="32.49" ry="18"/>
<text text-anchor="middle" x="2212.75" y="-739.3" font-family="Times,serif" font-size="14.00">inputs</text>
</g>
<!-- n46&#45;&gt;n48 -->
<g id="edge30" class="edge">
<title>n46&#45;&gt;n48</title>
<path fill="none" stroke="black" d="M4032.21,-486.16C4032.21,-491.04 4032.21,-495 4032.21,-495 4032.21,-495 2213.21,-495 2213.21,-495 2213.21,-495 2213.21,-714.76 2213.21,-714.76"/>
<polygon fill="black" stroke="black" points="2209.71,-714.76 2213.21,-724.76 2216.71,-714.76 2209.71,-714.76"/>
<text text-anchor="middle" x="3211.64" y="-284.8" font-family="Times,serif" font-size="14.00">CONCURRENCY_INCREMENT_INTEGRAL</text>
</g>
<!-- n45 -->
<g id="node15" class="node">
<title>n45</title>
<ellipse fill="none" stroke="black" cx="3893.67" cy="-468" rx="27" ry="18"/>
<text text-anchor="middle" x="3893.67" y="-464.3" font-family="Times,serif" font-size="14.00">rhs</text>
</g>
<!-- n45&#45;&gt;n46 -->
<!-- n16 -->
<g id="node16" class="node">
<title>n16</title>
<ellipse fill="none" stroke="black" cx="430.29" cy="-922" rx="27" ry="18"/>
<text text-anchor="middle" x="430.29" y="-918.3" font-family="Times,serif" font-size="14.00">lhs</text>
</g>
<!-- n18 -->
<g id="node17" class="node">
<title>n18</title>
<ellipse fill="none" stroke="black" cx="588.44" cy="-908" rx="33.29" ry="18"/>
<text text-anchor="middle" x="588.44" y="-904.3" font-family="Times,serif" font-size="14.00">output</text>
</g>
<!-- n59 -->
<g id="node42" class="node">
<title>n59</title>
<ellipse fill="none" stroke="black" cx="869.98" cy="-964" rx="62.29" ry="18"/>
<text text-anchor="middle" x="869.98" y="-960.3" font-family="Times,serif" font-size="14.00">max_envelope</text>
</g>
<!-- n18&#45;&gt;n59 -->
<g id="edge41" class="edge">
<title>n18&#45;&gt;n59</title>
<path fill="none" stroke="black" d="M589.21,-926.03C589.21,-942.4 589.21,-964 589.21,-964 589.21,-964 797.32,-964 797.32,-964"/>
<polygon fill="black" stroke="black" points="797.32,-967.5 807.32,-964 797.32,-960.5 797.32,-967.5"/>
<text text-anchor="middle" x="714.59" y="-932.8" font-family="Times,serif" font-size="14.00">MAX_EMA</text>
</g>
<!-- n17 -->
<g id="node18" class="node">
<title>n17</title>
<ellipse fill="none" stroke="black" cx="430.29" cy="-868" rx="27" ry="18"/>
<text text-anchor="middle" x="430.29" y="-864.3" font-family="Times,serif" font-size="14.00">rhs</text>
</g>
<!-- n17&#45;&gt;n18 -->
<!-- n20 -->
<g id="node19" class="node">
<title>n20</title>
<ellipse fill="none" stroke="black" cx="1379.67" cy="-807" rx="27" ry="18"/>
<text text-anchor="middle" x="1379.67" y="-803.3" font-family="Times,serif" font-size="14.00">lhs</text>
</g>
<!-- n22 -->
<g id="node20" class="node">
<title>n22</title>
<ellipse fill="none" stroke="black" cx="1686.96" cy="-780" rx="33.29" ry="18"/>
<text text-anchor="middle" x="1686.96" y="-776.3" font-family="Times,serif" font-size="14.00">output</text>
</g>
<!-- n64 -->
<g id="node48" class="node">
<title>n64</title>
<ellipse fill="none" stroke="black" cx="3893.67" cy="-1318" rx="38.19" ry="18"/>
<text text-anchor="middle" x="3893.67" y="-1314.3" font-family="Times,serif" font-size="14.00">setpoint</text>
</g>
<!-- n22&#45;&gt;n64 -->
<g id="edge38" class="edge">
<title>n22&#45;&gt;n64</title>
<path fill="none" stroke="black" d="M1720.25,-780C1993.79,-780 3861.21,-780 3861.21,-780 3861.21,-780 3861.21,-1298.2 3861.21,-1298.2"/>
<polygon fill="black" stroke="black" points="3857.71,-1298.2 3861.21,-1308.2 3864.71,-1298.2 3857.71,-1298.2"/>
<text text-anchor="middle" x="2760.54" y="-897.8" font-family="Times,serif" font-size="14.00">LATENCY_SETPOINT</text>
</g>
<!-- n21 -->
<g id="node21" class="node">
<title>n21</title>
<ellipse fill="none" stroke="black" cx="1379.67" cy="-753" rx="27" ry="18"/>
<text text-anchor="middle" x="1379.67" y="-749.3" font-family="Times,serif" font-size="14.00">rhs</text>
</g>
<!-- n21&#45;&gt;n22 -->
<!-- n24 -->
<g id="node22" class="node">
<title>n24</title>
<ellipse fill="none" stroke="black" cx="2212.75" cy="-1909" rx="27" ry="18"/>
<text text-anchor="middle" x="2212.75" y="-1905.3" font-family="Times,serif" font-size="14.00">lhs</text>
</g>
<!-- n26 -->
<g id="node23" class="node">
<title>n26</title>
<ellipse fill="none" stroke="black" cx="2506.4" cy="-1895" rx="33.29" ry="18"/>
<text text-anchor="middle" x="2506.4" y="-1891.3" font-family="Times,serif" font-size="14.00">output</text>
</g>
<!-- n26&#45;&gt;n29 -->
<g id="edge23" class="edge">
<title>n26&#45;&gt;n29</title>
<path fill="none" stroke="black" d="M2475.75,-1902C2432.89,-1902 2360.21,-1902 2360.21,-1902 2360.21,-1902 2360.21,-2174 2360.21,-2174 2360.21,-2174 2249.8,-2174 2249.8,-2174"/>
<polygon fill="black" stroke="black" points="2249.8,-2170.5 2239.8,-2174 2249.8,-2177.5 2249.8,-2170.5"/>
<text text-anchor="middle" x="2339.25" y="-2129.8" font-family="Times,serif" font-size="14.00">DELTA_CONCURRENCY</text>
</g>
<!-- n25 -->
<g id="node24" class="node">
<title>n25</title>
<ellipse fill="none" stroke="black" cx="2212.75" cy="-1855" rx="27" ry="18"/>
<text text-anchor="middle" x="2212.75" y="-1851.3" font-family="Times,serif" font-size="14.00">rhs</text>
</g>
<!-- n25&#45;&gt;n26 -->
<!-- n71 -->
<g id="node26" class="node">
<title>n71</title>
<ellipse fill="none" stroke="black" cx="1686.96" cy="-1818" rx="89.08" ry="18"/>
<text text-anchor="middle" x="1686.96" y="-1814.3" font-family="Times,serif" font-size="14.00">accepted_concurrency</text>
</g>
<!-- n71&#45;&gt;n33 -->
<g id="edge18" class="edge">
<title>n71&#45;&gt;n33</title>
<path fill="none" stroke="black" d="M1764.33,-1809C1910.61,-1809 2213.21,-1809 2213.21,-1809 2213.21,-1809 2213.21,-1604.28 2213.21,-1604.28"/>
<polygon fill="black" stroke="black" points="2216.71,-1604.28 2213.21,-1594.28 2209.71,-1604.28 2216.71,-1604.28"/>
<text text-anchor="middle" x="2004.75" y="-1640.8" font-family="Times,serif" font-size="14.00">ACCEPTED_CONCURRENCY</text>
</g>
<!-- n67 -->
<g id="node44" class="node">
<title>n67</title>
<ellipse fill="none" stroke="black" cx="3893.67" cy="-1534" rx="68.49" ry="18"/>
<text text-anchor="middle" x="3893.67" y="-1530.3" font-family="Times,serif" font-size="14.00">control_variable</text>
</g>
<!-- n71&#45;&gt;n67 -->
<g id="edge20" class="edge">
<title>n71&#45;&gt;n67</title>
<path fill="none" stroke="black" d="M1776.22,-1818C2189.16,-1818 3894.21,-1818 3894.21,-1818 3894.21,-1818 3894.21,-1562.2 3894.21,-1562.2"/>
<polygon fill="black" stroke="black" points="3897.71,-1562.2 3894.21,-1552.2 3890.71,-1562.2 3897.71,-1562.2"/>
<text text-anchor="middle" x="2760.54" y="-1730.8" font-family="Times,serif" font-size="14.00">ACCEPTED_CONCURRENCY</text>
</g>
<!-- n54 -->
<g id="node55" class="node">
<title>n54</title>
<ellipse fill="none" stroke="black" cx="2212.75" cy="-2340" rx="28.7" ry="18"/>
<text text-anchor="middle" x="2212.75" y="-2336.3" font-family="Times,serif" font-size="14.00">input</text>
</g>
<!-- n71&#45;&gt;n54 -->
<g id="edge19" class="edge">
<title>n71&#45;&gt;n54</title>
<path fill="none" stroke="black" d="M1764.39,-1827C1851.28,-1827 1980.21,-1827 1980.21,-1827 1980.21,-1827 1980.21,-2340 1980.21,-2340 1980.21,-2340 2173.77,-2340 2173.77,-2340"/>
<polygon fill="black" stroke="black" points="2173.77,-2343.5 2183.77,-2340 2173.77,-2336.5 2173.77,-2343.5"/>
<text text-anchor="middle" x="2004.75" y="-2034.8" font-family="Times,serif" font-size="14.00">ACCEPTED_CONCURRENCY</text>
</g>
<!-- n72 -->
<g id="node27" class="node">
<title>n72</title>
<ellipse fill="none" stroke="black" cx="1686.96" cy="-1872" rx="92.08" ry="18"/>
<text text-anchor="middle" x="1686.96" y="-1868.3" font-family="Times,serif" font-size="14.00">incoming_concurrency</text>
</g>
<!-- n72&#45;&gt;n28 -->
<g id="edge22" class="edge">
<title>n72&#45;&gt;n28</title>
<path fill="none" stroke="black" d="M1766.21,-1881.38C1766.21,-1926.5 1766.21,-2119 1766.21,-2119 1766.21,-2119 2175.49,-2119 2175.49,-2119"/>
<polygon fill="black" stroke="black" points="2175.49,-2122.5 2185.49,-2119 2175.49,-2115.5 2175.49,-2122.5"/>
<text text-anchor="middle" x="2004.75" y="-1970.8" font-family="Times,serif" font-size="14.00">INCOMING_CONCURRENCY</text>
</g>
<!-- n72&#45;&gt;n24 -->
<g id="edge21" class="edge">
<title>n72&#45;&gt;n24</title>
<path fill="none" stroke="black" d="M1773.21,-1878.44C1773.21,-1889.05 1773.21,-1909 1773.21,-1909 1773.21,-1909 2175.59,-1909 2175.59,-1909"/>
<polygon fill="black" stroke="black" points="2175.59,-1912.5 2185.59,-1909 2175.59,-1905.5 2175.59,-1912.5"/>
<text text-anchor="middle" x="2004.75" y="-1881.8" font-family="Times,serif" font-size="14.00">INCOMING_CONCURRENCY</text>
</g>
<!-- n2 -->
<g id="node28" class="node">
<title>n2</title>
<ellipse fill="none" stroke="black" cx="91.15" cy="-595" rx="33.29" ry="18"/>
<text text-anchor="middle" x="91.15" y="-591.3" font-family="Times,serif" font-size="14.00">output</text>
</g>
<!-- n2&#45;&gt;n17 -->
<g id="edge25" class="edge">
<title>n2&#45;&gt;n17</title>
<path fill="none" stroke="black" d="M120.44,-603.5C202.92,-603.5 431.21,-603.5 431.21,-603.5 431.21,-603.5 431.21,-839.82 431.21,-839.82"/>
<polygon fill="black" stroke="black" points="427.71,-839.82 431.21,-849.82 434.71,-839.82 427.71,-839.82"/>
<text text-anchor="middle" x="263.79" y="-598.8" font-family="Times,serif" font-size="14.00">EMA_LIMIT_MULTIPLIER</text>
</g>
<!-- n4 -->
<g id="node29" class="node">
<title>n4</title>
<ellipse fill="none" stroke="black" cx="1686.96" cy="-1522" rx="33.29" ry="18"/>
<text text-anchor="middle" x="1686.96" y="-1518.3" font-family="Times,serif" font-size="14.00">output</text>
</g>
<!-- n4&#45;&gt;n32 -->
<g id="edge26" class="edge">
<title>n4&#45;&gt;n32</title>
<path fill="none" stroke="black" d="M1720.25,-1522C1720.25,-1522 2175.45,-1522 2175.45,-1522"/>
<polygon fill="black" stroke="black" points="2175.45,-1525.5 2185.45,-1522 2175.45,-1518.5 2175.45,-1525.5"/>
<text text-anchor="middle" x="2004.75" y="-1525.8" font-family="Times,serif" font-size="14.00">CONCURRENCY_LIMIT_MULTIPLIER</text>
</g>
<!-- n6 -->
<g id="node30" class="node">
<title>n6</title>
<ellipse fill="none" stroke="black" cx="91.15" cy="-1787" rx="33.29" ry="18"/>
<text text-anchor="middle" x="91.15" y="-1783.3" font-family="Times,serif" font-size="14.00">output</text>
</g>
<!-- n8 -->
<g id="node31" class="node">
<title>n8</title>
<ellipse fill="none" stroke="black" cx="2506.4" cy="-576" rx="33.29" ry="18"/>
<text text-anchor="middle" x="2506.4" y="-572.3" font-family="Times,serif" font-size="14.00">output</text>
</g>
<!-- n8&#45;&gt;n40 -->
<g id="edge45" class="edge">
<title>n8&#45;&gt;n40</title>
<path fill="none" stroke="black" d="M2539.84,-576C2654.15,-576 3022.21,-576 3022.21,-576 3022.21,-576 3022.21,-660.84 3022.21,-660.84"/>
<polygon fill="black" stroke="black" points="3018.71,-660.84 3022.21,-670.84 3025.71,-660.84 3018.71,-660.84"/>
<text text-anchor="middle" x="2760.54" y="-636.8" font-family="Times,serif" font-size="14.00">LINEAR_CONCURRENCY_INCREMENT</text>
</g>
<!-- n10 -->
<g id="node32" class="node">
<title>n10</title>
<ellipse fill="none" stroke="black" cx="2506.4" cy="-1243" rx="33.29" ry="18"/>
<text text-anchor="middle" x="2506.4" y="-1239.3" font-family="Times,serif" font-size="14.00">output</text>
</g>
<!-- n80 -->
<g id="node58" class="node">
<title>n80</title>
<ellipse fill="none" stroke="black" cx="3021.84" cy="-1186" rx="37.89" ry="18"/>
<text text-anchor="middle" x="3021.84" y="-1182.3" font-family="Times,serif" font-size="14.00">on_true</text>
</g>
<!-- n10&#45;&gt;n80 -->
<g id="edge51" class="edge">
<title>n10&#45;&gt;n80</title>
<path fill="none" stroke="black" d="M2518.21,-1225.9C2518.21,-1209.11 2518.21,-1186 2518.21,-1186 2518.21,-1186 2973.99,-1186 2973.99,-1186"/>
<polygon fill="black" stroke="black" points="2973.99,-1189.5 2983.99,-1186 2973.99,-1182.5 2973.99,-1189.5"/>
<text text-anchor="middle" x="2760.54" y="-1217.8" font-family="Times,serif" font-size="14.00">CONCURRENCY_INCREMENT_OVERLOAD</text>
</g>
<!-- n12 -->
<g id="node33" class="node">
<title>n12</title>
<ellipse fill="none" stroke="black" cx="1103.52" cy="-785" rx="33.29" ry="18"/>
<text text-anchor="middle" x="1103.52" y="-781.3" font-family="Times,serif" font-size="14.00">output</text>
</g>
<!-- n12&#45;&gt;n37 -->
<g id="edge28" class="edge">
<title>n12&#45;&gt;n37</title>
<path fill="none" stroke="black" d="M1115.21,-801.98C1115.21,-847.53 1115.21,-969 1115.21,-969 1115.21,-969 1343.35,-969 1343.35,-969"/>
<polygon fill="black" stroke="black" points="1343.35,-972.5 1353.35,-969 1343.35,-965.5 1343.35,-972.5"/>
<text text-anchor="middle" x="1244.67" y="-809.8" font-family="Times,serif" font-size="14.00">TOLERANCE</text>
</g>
<!-- n12&#45;&gt;n21 -->
<g id="edge27" class="edge">
<title>n12&#45;&gt;n21</title>
<path fill="none" stroke="black" d="M1135.53,-780C1208.37,-780 1380.21,-780 1380.21,-780 1380.21,-780 1380.21,-779.12 1380.21,-779.12"/>
<polygon fill="black" stroke="black" points="1383.71,-781.16 1380.21,-771.16 1376.71,-781.16 1383.71,-781.16"/>
<text text-anchor="middle" x="1244.67" y="-767.8" font-family="Times,serif" font-size="14.00">TOLERANCE</text>
</g>
<!-- n14 -->
<g id="node34" class="node">
<title>n14</title>
<ellipse fill="none" stroke="black" cx="2506.4" cy="-409" rx="33.29" ry="18"/>
<text text-anchor="middle" x="2506.4" y="-405.3" font-family="Times,serif" font-size="14.00">output</text>
</g>
<!-- n91 -->
<g id="node62" class="node">
<title>n91</title>
<ellipse fill="none" stroke="black" cx="3021.84" cy="-468" rx="37.89" ry="18"/>
<text text-anchor="middle" x="3021.84" y="-464.3" font-family="Times,serif" font-size="14.00">on_true</text>
</g>
<!-- n14&#45;&gt;n91 -->
<g id="edge37" class="edge">
<title>n14&#45;&gt;n91</title>
<path fill="none" stroke="black" d="M2507.21,-427.02C2507.21,-444.37 2507.21,-468 2507.21,-468 2507.21,-468 2974,-468 2974,-468"/>
<polygon fill="black" stroke="black" points="2974,-471.5 2984,-468 2974,-464.5 2974,-471.5"/>
<text text-anchor="middle" x="2760.54" y="-442.8" font-family="Times,serif" font-size="14.00">ZERO</text>
</g>
<!-- n76 -->
<g id="node35" class="node">
<title>n76</title>
<ellipse fill="none" stroke="black" cx="2212.75" cy="-1076" rx="27" ry="18"/>
<text text-anchor="middle" x="2212.75" y="-1072.3" font-family="Times,serif" font-size="14.00">lhs</text>
</g>
<!-- n78 -->
<g id="node36" class="node">
<title>n78</title>
<ellipse fill="none" stroke="black" cx="2506.4" cy="-1049" rx="33.29" ry="18"/>
<text text-anchor="middle" x="2506.4" y="-1045.3" font-family="Times,serif" font-size="14.00">output</text>
</g>
<!-- n82 -->
<g id="node60" class="node">
<title>n82</title>
<ellipse fill="none" stroke="black" cx="3021.84" cy="-1132" rx="33.6" ry="18"/>
<text text-anchor="middle" x="3021.84" y="-1128.3" font-family="Times,serif" font-size="14.00">switch</text>
</g>
<!-- n78&#45;&gt;n82 -->
<g id="edge34" class="edge">
<title>n78&#45;&gt;n82</title>
<path fill="none" stroke="black" d="M2496.21,-1066.2C2496.21,-1090.51 2496.21,-1132 2496.21,-1132 2496.21,-1132 2977.76,-1132 2977.76,-1132"/>
<polygon fill="black" stroke="black" points="2977.76,-1135.5 2987.76,-1132 2977.76,-1128.5 2977.76,-1135.5"/>
<text text-anchor="middle" x="2760.54" y="-1093.8" font-family="Times,serif" font-size="14.00">CONCURRENCY_INCREMENT_SWITCH</text>
</g>
<!-- n77&#45;&gt;n78 -->
<!-- n85 -->
<g id="node38" class="node">
<title>n85</title>
<ellipse fill="none" stroke="black" cx="2212.75" cy="-76" rx="27" ry="18"/>
<text text-anchor="middle" x="2212.75" y="-72.3" font-family="Times,serif" font-size="14.00">lhs</text>
</g>
<!-- n87 -->
<g id="node39" class="node">
<title>n87</title>
<ellipse fill="none" stroke="black" cx="2506.4" cy="-130" rx="33.29" ry="18"/>
<text text-anchor="middle" x="2506.4" y="-126.3" font-family="Times,serif" font-size="14.00">output</text>
</g>
<!-- n90 -->
<g id="node64" class="node">
<title>n90</title>
<ellipse fill="none" stroke="black" cx="3021.84" cy="-414" rx="33.6" ry="18"/>
<text text-anchor="middle" x="3021.84" y="-410.3" font-family="Times,serif" font-size="14.00">switch</text>
</g>
<!-- n87&#45;&gt;n90 -->
<g id="edge36" class="edge">
<title>n87&#45;&gt;n90</title>
<path fill="none" stroke="black" d="M2539.84,-130C2654.15,-130 3022.21,-130 3022.21,-130 3022.21,-130 3022.21,-385.8 3022.21,-385.8"/>
<polygon fill="black" stroke="black" points="3018.71,-385.8 3022.21,-395.8 3025.71,-385.8 3018.71,-385.8"/>
<text text-anchor="middle" x="2760.54" y="-194.8" font-family="Times,serif" font-size="14.00">CONCURRENCY_INCREMENT_FEEDBACK_SWITCH</text>
</g>
<!-- n86&#45;&gt;n87 -->
<!-- n60 -->
<g id="node41" class="node">
<title>n60</title>
<ellipse fill="none" stroke="black" cx="869.98" cy="-1018" rx="28.7" ry="18"/>
<text text-anchor="middle" x="869.98" y="-1014.3" font-family="Times,serif" font-size="14.00">input</text>
</g>
<!-- n61 -->
<g id="node43" class="node">
<title>n61</title>
<ellipse fill="none" stroke="black" cx="1103.52" cy="-1018" rx="33.29" ry="18"/>
<text text-anchor="middle" x="1103.52" y="-1014.3" font-family="Times,serif" font-size="14.00">output</text>
</g>
<!-- n60&#45;&gt;n61 -->
<!-- n61&#45;&gt;n36 -->
<g id="edge32" class="edge">
<title>n61&#45;&gt;n36</title>
<path fill="none" stroke="black" d="M1135.47,-1023C1135.47,-1023 1343.72,-1023 1343.72,-1023"/>
<polygon fill="black" stroke="black" points="1343.72,-1026.5 1353.72,-1023 1343.72,-1019.5 1343.72,-1026.5"/>
<text text-anchor="middle" x="1244.67" y="-1026.8" font-family="Times,serif" font-size="14.00">LATENCY_EMA</text>
</g>
<!-- n61&#45;&gt;n20 -->
<g id="edge31" class="edge">
<title>n61&#45;&gt;n20</title>
<path fill="none" stroke="black" d="M1093.21,-1000.61C1093.21,-951.27 1093.21,-814 1093.21,-814 1093.21,-814 1344.75,-814 1344.75,-814"/>
<polygon fill="black" stroke="black" points="1344.75,-817.5 1354.75,-814 1344.75,-810.5 1344.75,-817.5"/>
<text text-anchor="middle" x="1244.67" y="-914.8" font-family="Times,serif" font-size="14.00">LATENCY_EMA</text>
</g>
<!-- n68 -->
<g id="node47" class="node">
<title>n68</title>
<ellipse fill="none" stroke="black" cx="4032.07" cy="-1534" rx="33.29" ry="18"/>
<text text-anchor="middle" x="4032.07" y="-1530.3" font-family="Times,serif" font-size="14.00">output</text>
</g>
<!-- n67&#45;&gt;n68 -->
<!-- n66 -->
<g id="node45" class="node">
<title>n66</title>
<ellipse fill="none" stroke="black" cx="3893.67" cy="-1480" rx="27" ry="18"/>
<text text-anchor="middle" x="3893.67" y="-1476.3" font-family="Times,serif" font-size="14.00">max</text>
</g>
<!-- n65 -->
<g id="node46" class="node">
<title>n65</title>
<ellipse fill="none" stroke="black" cx="3893.67" cy="-1372" rx="42.49" ry="18"/>
<text text-anchor="middle" x="3893.67" y="-1368.3" font-family="Times,serif" font-size="14.00">optimize</text>
</g>
<!-- n68&#45;&gt;n25 -->
<g id="edge33" class="edge">
<title>n68&#45;&gt;n25</title>
<path fill="none" stroke="black" d="M4032.21,-1552.18C4032.21,-1620.08 4032.21,-1855 4032.21,-1855 4032.21,-1855 2249.88,-1855 2249.88,-1855"/>
<polygon fill="black" stroke="black" points="2249.88,-1851.5 2239.88,-1855 2249.88,-1858.5 2249.88,-1851.5"/>
<text text-anchor="middle" x="3211.64" y="-1790.8" font-family="Times,serif" font-size="14.00">DESIRED_CONCURRENCY</text>
</g>
<!-- n63 -->
<g id="node49" class="node">
<title>n63</title>
<ellipse fill="none" stroke="black" cx="3893.67" cy="-1426" rx="31.7" ry="18"/>
<text text-anchor="middle" x="3893.67" y="-1422.3" font-family="Times,serif" font-size="14.00">signal</text>
</g>
<!-- n52 -->
<g id="node51" class="node">
<title>n52</title>
<ellipse fill="none" stroke="black" cx="3394.28" cy="-1535" rx="33.29" ry="18"/>
<text text-anchor="middle" x="3394.28" y="-1531.3" font-family="Times,serif" font-size="14.00">output</text>
</g>
<!-- n51&#45;&gt;n52 -->
<!-- n52&#45;&gt;n66 -->
<g id="edge53" class="edge">
<title>n52&#45;&gt;n66</title>
<path fill="none" stroke="black" d="M3406.21,-1518.2C3406.21,-1502.02 3406.21,-1480 3406.21,-1480 3406.21,-1480 3856.42,-1480 3856.42,-1480"/>
<polygon fill="black" stroke="black" points="3856.42,-1483.5 3866.42,-1480 3856.42,-1476.5 3856.42,-1483.5"/>
<text text-anchor="middle" x="3626.43" y="-1501.8" font-family="Times,serif" font-size="14.00">MAX_CONCURRENCY</text>
</g>
<!-- n49 -->
<g id="node53" class="node">
<title>n49</title>
<ellipse fill="none" stroke="black" cx="2506.4" cy="-743" rx="33.29" ry="18"/>
<text text-anchor="middle" x="2506.4" y="-739.3" font-family="Times,serif" font-size="14.00">output</text>
</g>
<!-- n48&#45;&gt;n49 -->
<!-- n81 -->
<g id="node57" class="node">
<title>n81</title>
<ellipse fill="none" stroke="black" cx="3021.84" cy="-1078" rx="40.09" ry="18"/>
<text text-anchor="middle" x="3021.84" y="-1074.3" font-family="Times,serif" font-size="14.00">on_false</text>
</g>
<!-- n49&#45;&gt;n81 -->
<g id="edge39" class="edge">
<title>n49&#45;&gt;n81</title>
<path fill="none" stroke="black" d="M2535.33,-752C2639.07,-752 2986.21,-752 2986.21,-752 2986.21,-752 2986.21,-1059.28 2986.21,-1059.28"/>
<polygon fill="black" stroke="black" points="2982.71,-1059.28 2986.21,-1069.28 2989.71,-1059.28 2982.71,-1059.28"/>
<text text-anchor="middle" x="2760.54" y="-974.8" font-family="Times,serif" font-size="14.00">CONCURRENCY_INCREMENT_NORMAL</text>
</g>
<!-- n89 -->
<g id="node61" class="node">
<title>n89</title>
<ellipse fill="none" stroke="black" cx="3021.84" cy="-522" rx="40.09" ry="18"/>
<text text-anchor="middle" x="3021.84" y="-518.3" font-family="Times,serif" font-size="14.00">on_false</text>
</g>
<!-- n49&#45;&gt;n89 -->
<g id="edge40" class="edge">
<title>n49&#45;&gt;n89</title>
<path fill="none" stroke="black" d="M2535.27,-734C2639.64,-734 2991.21,-734 2991.21,-734 2991.21,-734 2991.21,-543.7 2991.21,-543.7"/>
<polygon fill="black" stroke="black" points="2994.71,-543.7 2991.21,-533.7 2987.71,-543.7 2994.71,-543.7"/>
<text text-anchor="middle" x="2760.54" y="-738.8" font-family="Times,serif" font-size="14.00">CONCURRENCY_INCREMENT_NORMAL</text>
</g>
<!-- n57 -->
<g id="node54" class="node">
<title>n57</title>
<ellipse fill="none" stroke="black" cx="91.15" cy="-1081" rx="33.29" ry="18"/>
<text text-anchor="middle" x="91.15" y="-1077.3" font-family="Times,serif" font-size="14.00">output</text>
</g>
<!-- n57&#45;&gt;n16 -->
<g id="edge46" class="edge">
<title>n57&#45;&gt;n16</title>
<path fill="none" stroke="black" d="M116.43,-1069.2C195.24,-1069.2 431.21,-1069.2 431.21,-1069.2 431.21,-1069.2 431.21,-950.05 431.21,-950.05"/>
<polygon fill="black" stroke="black" points="434.71,-950.05 431.21,-940.05 427.71,-950.05 434.71,-950.05"/>
<text text-anchor="middle" x="263.79" y="-989.8" font-family="Times,serif" font-size="14.00">LATENCY</text>
</g>
<!-- n57&#45;&gt;n76 -->
<g id="edge49" class="edge">
<title>n57&#45;&gt;n76</title>
<path fill="none" stroke="black" d="M121.96,-1087.8C121.96,-1087.8 2182.14,-1087.8 2182.14,-1087.8"/>
<polygon fill="black" stroke="black" points="2182.14,-1091.3 2192.14,-1087.8 2182.14,-1084.3 2182.14,-1091.3"/>
<text text-anchor="middle" x="981.38" y="-1182.8" font-family="Times,serif" font-size="14.00">LATENCY</text>
</g>
<!-- n57&#45;&gt;n85 -->
<g id="edge50" class="edge">
<title>n57&#45;&gt;n85</title>
<path fill="none" stroke="black" d="M124.38,-1081.6C288.23,-1081.6 1002.21,-1081.6 1002.21,-1081.6 1002.21,-1081.6 1002.21,-76 1002.21,-76 1002.21,-76 2175.48,-76 2175.48,-76"/>
<polygon fill="black" stroke="black" points="2175.48,-79.5 2185.48,-76 2175.48,-72.5 2175.48,-79.5"/>
<text text-anchor="middle" x="981.38" y="-628.8" font-family="Times,serif" font-size="14.00">LATENCY</text>
</g>
<!-- n57&#45;&gt;n60 -->
<g id="edge47" class="edge">
<title>n57&#45;&gt;n60</title>
<path fill="none" stroke="black" d="M122.65,-1075.4C268.4,-1075.4 870.21,-1075.4 870.21,-1075.4 870.21,-1075.4 870.21,-1046.16 870.21,-1046.16"/>
<polygon fill="black" stroke="black" points="873.71,-1046.16 870.21,-1036.16 866.71,-1046.16 873.71,-1046.16"/>
<text text-anchor="middle" x="506.29" y="-1084.8" font-family="Times,serif" font-size="14.00">LATENCY</text>
</g>
<!-- n57&#45;&gt;n63 -->
<g id="edge48" class="edge">
<title>n57&#45;&gt;n63</title>
<path fill="none" stroke="black" d="M91.21,-1099.06C91.21,-1170.05 91.21,-1426 91.21,-1426 91.21,-1426 3851.66,-1426 3851.66,-1426"/>
<polygon fill="black" stroke="black" points="3851.66,-1429.5 3861.66,-1426 3851.66,-1422.5 3851.66,-1429.5"/>
<text text-anchor="middle" x="1455.67" y="-1397.8" font-family="Times,serif" font-size="14.00">LATENCY</text>
</g>
<!-- n55 -->
<g id="node56" class="node">
<title>n55</title>
<ellipse fill="none" stroke="black" cx="2506.4" cy="-2340" rx="33.29" ry="18"/>
<text text-anchor="middle" x="2506.4" y="-2336.3" font-family="Times,serif" font-size="14.00">output</text>
</g>
<!-- n54&#45;&gt;n55 -->
<!-- n55&#45;&gt;n41 -->
<g id="edge24" class="edge">
<title>n55&#45;&gt;n41</title>
<path fill="none" stroke="black" d="M2539.71,-2340C2608.78,-2340 2761.21,-2340 2761.21,-2340 2761.21,-2340 2761.21,-743 2761.21,-743 2761.21,-743 2984.44,-743 2984.44,-743"/>
<polygon fill="black" stroke="black" points="2984.44,-746.5 2994.44,-743 2984.44,-739.5 2984.44,-746.5"/>
<text text-anchor="middle" x="2760.54" y="-2083.8" font-family="Times,serif" font-size="14.00">SQRT_CONCURRENCY_INCREMENT</text>
</g>
<!-- n83 -->
<g id="node59" class="node">
<title>n83</title>
<ellipse fill="none" stroke="black" cx="3394.28" cy="-1172" rx="33.29" ry="18"/>
<text text-anchor="middle" x="3394.28" y="-1168.3" font-family="Times,serif" font-size="14.00">output</text>
</g>
<!-- n83&#45;&gt;n65 -->
<g id="edge35" class="edge">
<title>n83&#45;&gt;n65</title>
<path fill="none" stroke="black" d="M3384.21,-1189.4C3384.21,-1238.06 3384.21,-1372 3384.21,-1372 3384.21,-1372 3841.11,-1372 3841.11,-1372"/>
<polygon fill="black" stroke="black" points="3841.11,-1375.5 3851.11,-1372 3841.11,-1368.5 3841.11,-1375.5"/>
<text text-anchor="middle" x="3626.43" y="-1277.8" font-family="Times,serif" font-size="14.00">CONCURRENCY_INCREMENT</text>
</g>
<!-- n82&#45;&gt;n83 -->
<!-- n92 -->
<g id="node63" class="node">
<title>n92</title>
<ellipse fill="none" stroke="black" cx="3394.28" cy="-468" rx="33.29" ry="18"/>
<text text-anchor="middle" x="3394.28" y="-464.3" font-family="Times,serif" font-size="14.00">output</text>
</g>
<!-- n91&#45;&gt;n92 -->
<!-- n92&#45;&gt;n45 -->
<g id="edge54" class="edge">
<title>n92&#45;&gt;n45</title>
<path fill="none" stroke="black" d="M3427.44,-468C3427.44,-468 3856.49,-468 3856.49,-468"/>
<polygon fill="black" stroke="black" points="3856.49,-471.5 3866.49,-468 3856.49,-464.5 3856.49,-471.5"/>
<text text-anchor="middle" x="3626.43" y="-471.8" font-family="Times,serif" font-size="14.00">CONCURRENCY_INCREMENT_FEEDBACK</text>
</g>
</g>
</svg>
