<?xml version="1.0" encoding="UTF-8" standalone="no"?>
<!DOCTYPE svg PUBLIC "-//W3C//DTD SVG 1.1//EN"
 "http://www.w3.org/Graphics/SVG/1.1/DTD/svg11.dtd">
<!-- Generated by graphviz version 6.0.1 (20220911.1526)
 -->
<!-- Pages: 1 -->
<svg width="4589pt" height="2430pt"
 viewBox="0.00 0.00 4588.69 2430.00" xmlns="http://www.w3.org/2000/svg" xmlns:xlink="http://www.w3.org/1999/xlink">
<g id="graph0" class="graph" transform="scale(1 1) rotate(0) translate(4 2426)">
<polygon fill="white" stroke="none" points="-4,4 -4,-2426 4584.69,-2426 4584.69,4 -4,4"/>
<g id="clust1" class="cluster">
<title>cluster_s1</title>
<polygon fill="none" stroke="black" points="18.4,-467 18.4,-680 580.39,-680 580.39,-467 18.4,-467"/>
<text text-anchor="middle" x="299.39" y="-664.8" font-family="Times,serif" font-size="14.00">ArithmeticCombinator[0]</text>
</g>
<g id="clust4" class="cluster">
<title>cluster_s6</title>
<polygon fill="none" stroke="black" points="988.02,-770 988.02,-983 1891.8,-983 1891.8,-770 988.02,-770"/>
<text text-anchor="middle" x="1439.91" y="-967.8" font-family="Times,serif" font-size="14.00">ArithmeticCombinator[1]</text>
</g>
<g id="clust7" class="cluster">
<title>cluster_s11</title>
<polygon fill="none" stroke="black" points="970.47,-1544 970.47,-1757 1891.8,-1757 1891.8,-1544 970.47,-1544"/>
<text text-anchor="middle" x="1431.14" y="-1741.8" font-family="Times,serif" font-size="14.00">ArithmeticCombinator[2]</text>
</g>
<g id="clust10" class="cluster">
<title>cluster_s16</title>
<polygon fill="none" stroke="black" points="2251.89,-1355 2251.89,-1568 2946.83,-1568 2946.83,-1355 2251.89,-1355"/>
<text text-anchor="middle" x="2599.36" y="-1552.8" font-family="Times,serif" font-size="14.00">ArithmeticCombinator[3]</text>
</g>
<g id="clust13" class="cluster">
<title>cluster_s20</title>
<polygon fill="none" stroke="black" points="1719.01,-227 1719.01,-440 2946.83,-440 2946.83,-227 1719.01,-227"/>
<text text-anchor="middle" x="2332.92" y="-424.8" font-family="Times,serif" font-size="14.00">ArithmeticCombinator[4]</text>
</g>
<g id="clust16" class="cluster">
<title>cluster_s25</title>
<polygon fill="none" stroke="black" points="2774.04,-894 2774.04,-1107 3838.21,-1107 3838.21,-894 2774.04,-894"/>
<text text-anchor="middle" x="3306.12" y="-1091.8" font-family="Times,serif" font-size="14.00">ArithmeticCombinator[5]</text>
</g>
<g id="clust19" class="cluster">
<title>cluster_s30</title>
<polygon fill="none" stroke="black" points="4240.36,-1153 4240.36,-1366 4572.69,-1366 4572.69,-1153 4240.36,-1153"/>
<text text-anchor="middle" x="4406.52" y="-1350.8" font-family="Times,serif" font-size="14.00">ArithmeticCombinator[6]</text>
</g>
<g id="clust22" class="cluster">
<title>cluster_s61</title>
<polygon fill="none" stroke="black" points="1585.81,-991 1585.81,-1536 2014.59,-1536 2014.59,-991 1585.81,-991"/>
<text text-anchor="middle" x="1800.2" y="-1520.8" font-family="Times,serif" font-size="14.00">ConcurrencyLimiter[14]</text>
</g>
<g id="clust23" class="cluster">
<title>cluster_s65</title>
<polygon fill="none" stroke="black" points="1643.81,-1304 1643.81,-1463 1957.6,-1463 1957.6,-1304 1643.81,-1304"/>
<text text-anchor="middle" x="1800.7" y="-1447.8" font-family="Times,serif" font-size="14.00">LoadShedActuator[14.LoadShedActuator]</text>
</g>
<g id="clust25" class="cluster">
<title>cluster_s62</title>
<polygon fill="none" stroke="black" points="1635.81,-1041 1635.81,-1254 1964.59,-1254 1964.59,-1041 1635.81,-1041"/>
<text text-anchor="middle" x="1800.2" y="-1238.8" font-family="Times,serif" font-size="14.00">Scheduler[14.Scheduler]</text>
</g>
<g id="clust27" class="cluster">
<title>cluster_s67</title>
<polygon fill="none" stroke="black" points="2251.89,-1851 2251.89,-2064 2946.83,-2064 2946.83,-1851 2251.89,-1851"/>
<text text-anchor="middle" x="2599.36" y="-2048.8" font-family="Times,serif" font-size="14.00">Decider[15]</text>
</g>
<g id="clust30" class="cluster">
<title>cluster_s50</title>
<polygon fill="none" stroke="black" points="672.39,-549 672.39,-762 1160.81,-762 1160.81,-549 672.39,-549"/>
<text text-anchor="middle" x="916.6" y="-746.8" font-family="Times,serif" font-size="14.00">EMA[12]</text>
</g>
<g id="clust33" class="cluster">
<title>cluster_s37</title>
<polygon fill="none" stroke="black" points="1719.01,-448 1719.01,-607 2946.83,-607 2946.83,-448 1719.01,-448"/>
<text text-anchor="middle" x="2332.92" y="-591.8" font-family="Times,serif" font-size="14.00">FirstValid[8]</text>
</g>
<g id="clust36" class="cluster">
<title>cluster_s54</title>
<polygon fill="none" stroke="black" points="4182.21,-491 4182.21,-866 4572.69,-866 4572.69,-491 4182.21,-491"/>
<text text-anchor="middle" x="4377.45" y="-850.8" font-family="Times,serif" font-size="14.00">Gradient[13]</text>
</g>
<g id="clust39" class="cluster">
<title>cluster_s41</title>
<polygon fill="none" stroke="black" points="2768.19,-60 2768.19,-219 3838.21,-219 3838.21,-60 2768.19,-60"/>
<text text-anchor="middle" x="3303.2" y="-203.8" font-family="Times,serif" font-size="14.00">Max[9]</text>
</g>
<g id="clust42" class="cluster">
<title>cluster_s34</title>
<polygon fill="none" stroke="black" points="2238.59,-1145 2238.59,-1304 2946.83,-1304 2946.83,-1145 2238.59,-1145"/>
<text text-anchor="middle" x="2592.71" y="-1288.8" font-family="Times,serif" font-size="14.00">Min[7]</text>
</g>
<g id="clust45" class="cluster">
<title>cluster_s48</title>
<polygon fill="none" stroke="black" points="8,-688 8,-847 191.19,-847 191.19,-688 8,-688"/>
<text text-anchor="middle" x="99.6" y="-831.8" font-family="Times,serif" font-size="14.00">PromQL[11]</text>
</g>
<g id="clust47" class="cluster">
<title>cluster_s45</title>
<polygon fill="none" stroke="black" points="2243.79,-727 2243.79,-886 2946.83,-886 2946.83,-727 2243.79,-727"/>
<text text-anchor="middle" x="2595.31" y="-870.8" font-family="Times,serif" font-size="14.00">Sqrt[10]</text>
</g>
<g id="clust50" class="cluster">
<title>cluster_s71</title>
<polygon fill="none" stroke="black" points="2768.19,-1576 2768.19,-1843 3838.21,-1843 3838.21,-1576 2768.19,-1576"/>
<text text-anchor="middle" x="3303.2" y="-1827.8" font-family="Times,serif" font-size="14.00">Switcher[16]</text>
</g>
<g id="clust53" class="cluster">
<title>cluster_s77</title>
<polygon fill="none" stroke="black" points="2774.04,-2072 2774.04,-2339 3838.21,-2339 3838.21,-2072 2774.04,-2072"/>
<text text-anchor="middle" x="3306.12" y="-2323.8" font-family="Times,serif" font-size="14.00">Switcher[17]</text>
</g>
<!-- n4 -->
<g id="node1" class="node">
<title>n4</title>
<ellipse fill="none" stroke="black" cx="99.6" cy="-535" rx="31.4" ry="18"/>
<text text-anchor="middle" x="99.6" y="-531.3" font-family="Times,serif" font-size="14.00">2.00</text>
</g>
<!-- n3 -->
<g id="node4" class="node">
<title>n3</title>
<ellipse fill="none" stroke="black" cx="314.19" cy="-535" rx="27" ry="18"/>
<text text-anchor="middle" x="314.19" y="-531.3" font-family="Times,serif" font-size="14.00">rhs</text>
</g>
<!-- n4&#45;&gt;n3 -->
<g id="edge1" class="edge">
<title>n4&#45;&gt;n3</title>
<path fill="none" stroke="black" d="M130.8,-535C130.8,-535 277.03,-535 277.03,-535"/>
<polygon fill="black" stroke="black" points="277.03,-538.5 287.03,-535 277.03,-531.5 277.03,-538.5"/>
</g>
<!-- n2 -->
<g id="node2" class="node">
<title>n2</title>
<ellipse fill="none" stroke="black" cx="314.19" cy="-589" rx="27" ry="18"/>
<text text-anchor="middle" x="314.19" y="-585.3" font-family="Times,serif" font-size="14.00">lhs</text>
</g>
<!-- n5 -->
<g id="node3" class="node">
<title>n5</title>
<ellipse fill="none" stroke="black" cx="488.79" cy="-575" rx="41.69" ry="18"/>
<text text-anchor="middle" x="488.79" y="-571.3" font-family="Times,serif" font-size="14.00">output</text>
</g>
<!-- n52 -->
<g id="node34" class="node">
<title>n52</title>
<ellipse fill="none" stroke="black" cx="798.43" cy="-617" rx="76.09" ry="18"/>
<text text-anchor="middle" x="798.43" y="-613.3" font-family="Times,serif" font-size="14.00">max_envelope</text>
</g>
<!-- n5&#45;&gt;n52 -->
<g id="edge42" class="edge">
<title>n5&#45;&gt;n52</title>
<path fill="none" stroke="black" d="M489.69,-593.21C489.69,-598.55 489.69,-603 489.69,-603 489.69,-603 740.53,-603 740.53,-603"/>
<polygon fill="black" stroke="black" points="740.53,-606.5 750.53,-603 740.53,-599.5 740.53,-606.5"/>
<text text-anchor="middle" x="626.39" y="-593.8" font-family="Times,serif" font-size="14.00">MAX_EMA</text>
</g>
<!-- n3&#45;&gt;n5 -->
<!-- n9 -->
<g id="node5" class="node">
<title>n9</title>
<ellipse fill="none" stroke="black" cx="1069.22" cy="-892" rx="31.4" ry="18"/>
<text text-anchor="middle" x="1069.22" y="-888.3" font-family="Times,serif" font-size="14.00">1.10</text>
</g>
<!-- n8 -->
<g id="node8" class="node">
<title>n8</title>
<ellipse fill="none" stroke="black" cx="1324.81" cy="-892" rx="27" ry="18"/>
<text text-anchor="middle" x="1324.81" y="-888.3" font-family="Times,serif" font-size="14.00">rhs</text>
</g>
<!-- n9&#45;&gt;n8 -->
<g id="edge3" class="edge">
<title>n9&#45;&gt;n8</title>
<path fill="none" stroke="black" d="M1100.56,-892C1100.56,-892 1287.51,-892 1287.51,-892"/>
<polygon fill="black" stroke="black" points="1287.51,-895.5 1297.51,-892 1287.51,-888.5 1287.51,-895.5"/>
</g>
<!-- n7 -->
<g id="node6" class="node">
<title>n7</title>
<ellipse fill="none" stroke="black" cx="1324.81" cy="-838" rx="27" ry="18"/>
<text text-anchor="middle" x="1324.81" y="-834.3" font-family="Times,serif" font-size="14.00">lhs</text>
</g>
<!-- n10 -->
<g id="node7" class="node">
<title>n10</title>
<ellipse fill="none" stroke="black" cx="1800.2" cy="-892" rx="41.69" ry="18"/>
<text text-anchor="middle" x="1800.2" y="-888.3" font-family="Times,serif" font-size="14.00">output</text>
</g>
<!-- n69 -->
<g id="node32" class="node">
<title>n69</title>
<ellipse fill="none" stroke="black" cx="2328.89" cy="-1919" rx="27" ry="18"/>
<text text-anchor="middle" x="2328.89" y="-1915.3" font-family="Times,serif" font-size="14.00">rhs</text>
</g>
<!-- n10&#45;&gt;n69 -->
<g id="edge44" class="edge">
<title>n10&#45;&gt;n69</title>
<path fill="none" stroke="black" d="M1839.62,-898C1921.34,-898 2101.69,-898 2101.69,-898 2101.69,-898 2101.69,-1919 2101.69,-1919 2101.69,-1919 2291.48,-1919 2291.48,-1919"/>
<polygon fill="black" stroke="black" points="2291.48,-1922.5 2301.48,-1919 2291.48,-1915.5 2291.48,-1922.5"/>
<text text-anchor="middle" x="2126.59" y="-910.8" font-family="Times,serif" font-size="14.00">LATENCY_SETPOINT</text>
</g>
<!-- n55 -->
<g id="node43" class="node">
<title>n55</title>
<ellipse fill="none" stroke="black" cx="4317.36" cy="-775" rx="48.99" ry="18"/>
<text text-anchor="middle" x="4317.36" y="-771.3" font-family="Times,serif" font-size="14.00">setpoint</text>
</g>
<!-- n10&#45;&gt;n55 -->
<g id="edge43" class="edge">
<title>n10&#45;&gt;n55</title>
<path fill="none" stroke="black" d="M1839.65,-886C2156.84,-886 4279.69,-886 4279.69,-886 4279.69,-886 4279.69,-796.46 4279.69,-796.46"/>
<polygon fill="black" stroke="black" points="4283.19,-796.46 4279.69,-786.46 4276.19,-796.46 4283.19,-796.46"/>
<text text-anchor="middle" x="3102.33" y="-2410.8" font-family="Times,serif" font-size="14.00">LATENCY_SETPOINT</text>
</g>
<!-- n8&#45;&gt;n10 -->
<!-- n14 -->
<g id="node9" class="node">
<title>n14</title>
<ellipse fill="none" stroke="black" cx="1069.22" cy="-1666" rx="48.99" ry="18"/>
<text text-anchor="middle" x="1069.22" y="-1662.3" font-family="Times,serif" font-size="14.00">1000.00</text>
</g>
<!-- n13 -->
<g id="node12" class="node">
<title>n13</title>
<ellipse fill="none" stroke="black" cx="1324.81" cy="-1666" rx="27" ry="18"/>
<text text-anchor="middle" x="1324.81" y="-1662.3" font-family="Times,serif" font-size="14.00">rhs</text>
</g>
<!-- n14&#45;&gt;n13 -->
<g id="edge5" class="edge">
<title>n14&#45;&gt;n13</title>
<path fill="none" stroke="black" d="M1118.2,-1666C1118.2,-1666 1287.63,-1666 1287.63,-1666"/>
<polygon fill="black" stroke="black" points="1287.63,-1669.5 1297.63,-1666 1287.63,-1662.5 1287.63,-1669.5"/>
</g>
<!-- n12 -->
<g id="node10" class="node">
<title>n12</title>
<ellipse fill="none" stroke="black" cx="1324.81" cy="-1612" rx="27" ry="18"/>
<text text-anchor="middle" x="1324.81" y="-1608.3" font-family="Times,serif" font-size="14.00">lhs</text>
</g>
<!-- n15 -->
<g id="node11" class="node">
<title>n15</title>
<ellipse fill="none" stroke="black" cx="1800.2" cy="-1639" rx="41.69" ry="18"/>
<text text-anchor="middle" x="1800.2" y="-1635.3" font-family="Times,serif" font-size="14.00">output</text>
</g>
<!-- n17 -->
<g id="node13" class="node">
<title>n17</title>
<ellipse fill="none" stroke="black" cx="2328.89" cy="-1477" rx="27" ry="18"/>
<text text-anchor="middle" x="2328.89" y="-1473.3" font-family="Times,serif" font-size="14.00">lhs</text>
</g>
<!-- n15&#45;&gt;n17 -->
<g id="edge50" class="edge">
<title>n15&#45;&gt;n17</title>
<path fill="none" stroke="black" d="M1841.75,-1641.5C1966.57,-1641.5 2329.69,-1641.5 2329.69,-1641.5 2329.69,-1641.5 2329.69,-1505.23 2329.69,-1505.23"/>
<polygon fill="black" stroke="black" points="2333.19,-1505.23 2329.69,-1495.23 2326.19,-1505.23 2333.19,-1505.23"/>
<text text-anchor="middle" x="2126.59" y="-1561.8" font-family="Times,serif" font-size="14.00">DELTA_CONCURRENCY</text>
</g>
<!-- n13&#45;&gt;n15 -->
<!-- n19 -->
<g id="node14" class="node">
<title>n19</title>
<ellipse fill="none" stroke="black" cx="2855.23" cy="-1423" rx="41.69" ry="18"/>
<text text-anchor="middle" x="2855.23" y="-1419.3" font-family="Times,serif" font-size="14.00">output</text>
</g>
<!-- n66 -->
<g id="node27" class="node">
<title>n66</title>
<ellipse fill="none" stroke="black" cx="1800.2" cy="-1372" rx="88.28" ry="18"/>
<text text-anchor="middle" x="1800.2" y="-1368.3" font-family="Times,serif" font-size="14.00">load_shed_factor</text>
</g>
<!-- n19&#45;&gt;n66 -->
<g id="edge32" class="edge">
<title>n19&#45;&gt;n66</title>
<path fill="none" stroke="black" d="M2855.69,-1404.88C2855.69,-1390.22 2855.69,-1372 2855.69,-1372 2855.69,-1372 1898.83,-1372 1898.83,-1372"/>
<polygon fill="black" stroke="black" points="1898.83,-1368.5 1888.83,-1372 1898.83,-1375.5 1898.83,-1368.5"/>
<text text-anchor="middle" x="2328.89" y="-1375.8" font-family="Times,serif" font-size="14.00">LSF</text>
</g>
<!-- n18 -->
<g id="node15" class="node">
<title>n18</title>
<ellipse fill="none" stroke="black" cx="2328.89" cy="-1423" rx="27" ry="18"/>
<text text-anchor="middle" x="2328.89" y="-1419.3" font-family="Times,serif" font-size="14.00">rhs</text>
</g>
<!-- n18&#45;&gt;n19 -->
<!-- n22 -->
<g id="node16" class="node">
<title>n22</title>
<ellipse fill="none" stroke="black" cx="1800.2" cy="-295" rx="31.4" ry="18"/>
<text text-anchor="middle" x="1800.2" y="-291.3" font-family="Times,serif" font-size="14.00">2.00</text>
</g>
<!-- n21 -->
<g id="node17" class="node">
<title>n21</title>
<ellipse fill="none" stroke="black" cx="2328.89" cy="-295" rx="27" ry="18"/>
<text text-anchor="middle" x="2328.89" y="-291.3" font-family="Times,serif" font-size="14.00">lhs</text>
</g>
<!-- n22&#45;&gt;n21 -->
<g id="edge8" class="edge">
<title>n22&#45;&gt;n21</title>
<path fill="none" stroke="black" d="M1831.69,-295C1831.69,-295 2291.76,-295 2291.76,-295"/>
<polygon fill="black" stroke="black" points="2291.76,-298.5 2301.76,-295 2291.76,-291.5 2291.76,-298.5"/>
</g>
<!-- n24 -->
<g id="node18" class="node">
<title>n24</title>
<ellipse fill="none" stroke="black" cx="2855.23" cy="-322" rx="41.69" ry="18"/>
<text text-anchor="middle" x="2855.23" y="-318.3" font-family="Times,serif" font-size="14.00">output</text>
</g>
<!-- n42 -->
<g id="node46" class="node">
<title>n42</title>
<ellipse fill="none" stroke="black" cx="3315.93" cy="-128" rx="40.09" ry="18"/>
<text text-anchor="middle" x="3315.93" y="-124.3" font-family="Times,serif" font-size="14.00">inputs</text>
</g>
<!-- n24&#45;&gt;n42 -->
<g id="edge45" class="edge">
<title>n24&#45;&gt;n42</title>
<path fill="none" stroke="black" d="M2897,-322C3004.56,-322 3282.69,-322 3282.69,-322 3282.69,-322 3282.69,-148.43 3282.69,-148.43"/>
<polygon fill="black" stroke="black" points="3286.19,-148.43 3282.69,-138.43 3279.19,-148.43 3286.19,-148.43"/>
<text text-anchor="middle" x="3102.33" y="-226.8" font-family="Times,serif" font-size="14.00">UPPER_CONCURRENCY_LIMIT</text>
</g>
<!-- n23 -->
<g id="node19" class="node">
<title>n23</title>
<ellipse fill="none" stroke="black" cx="2328.89" cy="-349" rx="27" ry="18"/>
<text text-anchor="middle" x="2328.89" y="-345.3" font-family="Times,serif" font-size="14.00">rhs</text>
</g>
<!-- n23&#45;&gt;n24 -->
<!-- n27 -->
<g id="node20" class="node">
<title>n27</title>
<ellipse fill="none" stroke="black" cx="2855.23" cy="-1016" rx="31.4" ry="18"/>
<text text-anchor="middle" x="2855.23" y="-1012.3" font-family="Times,serif" font-size="14.00">5.00</text>
</g>
<!-- n26 -->
<g id="node21" class="node">
<title>n26</title>
<ellipse fill="none" stroke="black" cx="3315.93" cy="-1016" rx="27" ry="18"/>
<text text-anchor="middle" x="3315.93" y="-1012.3" font-family="Times,serif" font-size="14.00">lhs</text>
</g>
<!-- n27&#45;&gt;n26 -->
<g id="edge10" class="edge">
<title>n27&#45;&gt;n26</title>
<path fill="none" stroke="black" d="M2886.54,-1016C2886.54,-1016 3278.71,-1016 3278.71,-1016"/>
<polygon fill="black" stroke="black" points="3278.71,-1019.5 3288.71,-1016 3278.71,-1012.5 3278.71,-1019.5"/>
</g>
<!-- n29 -->
<g id="node22" class="node">
<title>n29</title>
<ellipse fill="none" stroke="black" cx="3746.62" cy="-989" rx="41.69" ry="18"/>
<text text-anchor="middle" x="3746.62" y="-985.3" font-family="Times,serif" font-size="14.00">output</text>
</g>
<!-- n32 -->
<g id="node24" class="node">
<title>n32</title>
<ellipse fill="none" stroke="black" cx="4317.36" cy="-1221" rx="27" ry="18"/>
<text text-anchor="middle" x="4317.36" y="-1217.3" font-family="Times,serif" font-size="14.00">lhs</text>
</g>
<!-- n29&#45;&gt;n32 -->
<g id="edge51" class="edge">
<title>n29&#45;&gt;n32</title>
<path fill="none" stroke="black" d="M3788.61,-989C3920.49,-989 4317.69,-989 4317.69,-989 4317.69,-989 4317.69,-1192.8 4317.69,-1192.8"/>
<polygon fill="black" stroke="black" points="4314.19,-1192.8 4317.69,-1202.8 4321.19,-1192.8 4314.19,-1192.8"/>
<text text-anchor="middle" x="4010.21" y="-1084.8" font-family="Times,serif" font-size="14.00">CONCURRENCY_INCREMENT_SINGLE_TICK</text>
</g>
<!-- n28 -->
<g id="node23" class="node">
<title>n28</title>
<ellipse fill="none" stroke="black" cx="3315.93" cy="-962" rx="27" ry="18"/>
<text text-anchor="middle" x="3315.93" y="-958.3" font-family="Times,serif" font-size="14.00">rhs</text>
</g>
<!-- n28&#45;&gt;n29 -->
<!-- n33 -->
<g id="node25" class="node">
<title>n33</title>
<ellipse fill="none" stroke="black" cx="4481.09" cy="-1221" rx="41.69" ry="18"/>
<text text-anchor="middle" x="4481.09" y="-1217.3" font-family="Times,serif" font-size="14.00">output</text>
</g>
<!-- n32&#45;&gt;n33 -->
<!-- n35 -->
<g id="node48" class="node">
<title>n35</title>
<ellipse fill="none" stroke="black" cx="2328.89" cy="-1213" rx="40.09" ry="18"/>
<text text-anchor="middle" x="2328.89" y="-1209.3" font-family="Times,serif" font-size="14.00">inputs</text>
</g>
<!-- n33&#45;&gt;n35 -->
<g id="edge46" class="edge">
<title>n33&#45;&gt;n35</title>
<path fill="none" stroke="black" d="M4481.69,-1239.16C4481.69,-1244.04 4481.69,-1248 4481.69,-1248 4481.69,-1248 2362.69,-1248 2362.69,-1248 2362.69,-1248 2362.69,-1232.94 2362.69,-1232.94"/>
<polygon fill="black" stroke="black" points="2366.19,-1232.94 2362.69,-1222.94 2359.19,-1232.94 2366.19,-1232.94"/>
<text text-anchor="middle" x="3534.52" y="-1178.8" font-family="Times,serif" font-size="14.00">CONCURRENCY_INCREMENT_INTEGRAL</text>
</g>
<!-- n31 -->
<g id="node26" class="node">
<title>n31</title>
<ellipse fill="none" stroke="black" cx="4317.36" cy="-1275" rx="27" ry="18"/>
<text text-anchor="middle" x="4317.36" y="-1271.3" font-family="Times,serif" font-size="14.00">rhs</text>
</g>
<!-- n63 -->
<g id="node28" class="node">
<title>n63</title>
<ellipse fill="none" stroke="black" cx="1800.2" cy="-1109" rx="113.98" ry="18"/>
<text text-anchor="middle" x="1800.2" y="-1105.3" font-family="Times,serif" font-size="14.00">accepted_concurrency</text>
</g>
<!-- n63&#45;&gt;n23 -->
<g id="edge26" class="edge">
<title>n63&#45;&gt;n23</title>
<path fill="none" stroke="black" d="M1878.69,-1095.81C1878.69,-994.89 1878.69,-349 1878.69,-349 1878.69,-349 2291.74,-349 2291.74,-349"/>
<polygon fill="black" stroke="black" points="2291.74,-352.5 2301.74,-349 2291.74,-345.5 2291.74,-352.5"/>
<text text-anchor="middle" x="2126.59" y="-369.8" font-family="Times,serif" font-size="14.00">ACCEPTED_CONCURRENCY</text>
</g>
<!-- n58 -->
<g id="node39" class="node">
<title>n58</title>
<ellipse fill="none" stroke="black" cx="4317.36" cy="-667" rx="85.29" ry="18"/>
<text text-anchor="middle" x="4317.36" y="-663.3" font-family="Times,serif" font-size="14.00">control_variable</text>
</g>
<!-- n63&#45;&gt;n58 -->
<g id="edge29" class="edge">
<title>n63&#45;&gt;n58</title>
<path fill="none" stroke="black" d="M1914.25,-1109C2397.26,-1109 4249.69,-1109 4249.69,-1109 4249.69,-1109 4249.69,-687.93 4249.69,-687.93"/>
<polygon fill="black" stroke="black" points="4253.19,-687.93 4249.69,-677.93 4246.19,-687.93 4253.19,-687.93"/>
<text text-anchor="middle" x="3102.33" y="-670.8" font-family="Times,serif" font-size="14.00">ACCEPTED_CONCURRENCY</text>
</g>
<!-- n63&#45;&gt;n35 -->
<g id="edge27" class="edge">
<title>n63&#45;&gt;n35</title>
<path fill="none" stroke="black" d="M1898.71,-1118C2054.6,-1118 2340.69,-1118 2340.69,-1118 2340.69,-1118 2340.69,-1185.58 2340.69,-1185.58"/>
<polygon fill="black" stroke="black" points="2337.19,-1185.58 2340.69,-1195.58 2344.19,-1185.58 2337.19,-1185.58"/>
<text text-anchor="middle" x="2126.59" y="-1120.8" font-family="Times,serif" font-size="14.00">ACCEPTED_CONCURRENCY</text>
</g>
<!-- n46 -->
<g id="node51" class="node">
<title>n46</title>
<ellipse fill="none" stroke="black" cx="2328.89" cy="-795" rx="35.19" ry="18"/>
<text text-anchor="middle" x="2328.89" y="-791.3" font-family="Times,serif" font-size="14.00">input</text>
</g>
<!-- n63&#45;&gt;n46 -->
<g id="edge28" class="edge">
<title>n63&#45;&gt;n46</title>
<path fill="none" stroke="black" d="M1898.76,-1100C2048.9,-1100 2317.69,-1100 2317.69,-1100 2317.69,-1100 2317.69,-822.27 2317.69,-822.27"/>
<polygon fill="black" stroke="black" points="2321.19,-822.27 2317.69,-812.27 2314.19,-822.27 2321.19,-822.27"/>
<text text-anchor="middle" x="2126.59" y="-1066.8" font-family="Times,serif" font-size="14.00">ACCEPTED_CONCURRENCY</text>
</g>
<!-- n64 -->
<g id="node29" class="node">
<title>n64</title>
<ellipse fill="none" stroke="black" cx="1800.2" cy="-1163" rx="114.28" ry="18"/>
<text text-anchor="middle" x="1800.2" y="-1159.3" font-family="Times,serif" font-size="14.00">incoming_concurrency</text>
</g>
<!-- n64&#45;&gt;n12 -->
<g id="edge30" class="edge">
<title>n64&#45;&gt;n12</title>
<path fill="none" stroke="black" d="M1699.69,-1171.88C1699.69,-1234.53 1699.69,-1607.5 1699.69,-1607.5 1699.69,-1607.5 1361.17,-1607.5 1361.17,-1607.5"/>
<polygon fill="black" stroke="black" points="1361.17,-1604 1351.17,-1607.5 1361.17,-1611 1361.17,-1604"/>
<text text-anchor="middle" x="1473.81" y="-1390.8" font-family="Times,serif" font-size="14.00">INCOMING_CONCURRENCY</text>
</g>
<!-- n64&#45;&gt;n18 -->
<g id="edge31" class="edge">
<title>n64&#45;&gt;n18</title>
<path fill="none" stroke="black" d="M1901.69,-1171.36C1901.69,-1215.86 1901.69,-1423 1901.69,-1423 1901.69,-1423 2291.84,-1423 2291.84,-1423"/>
<polygon fill="black" stroke="black" points="2291.84,-1426.5 2301.84,-1423 2291.84,-1419.5 2291.84,-1426.5"/>
<text text-anchor="middle" x="2126.59" y="-1255.8" font-family="Times,serif" font-size="14.00">INCOMING_CONCURRENCY</text>
</g>
<!-- n68 -->
<g id="node30" class="node">
<title>n68</title>
<ellipse fill="none" stroke="black" cx="2328.89" cy="-1973" rx="27" ry="18"/>
<text text-anchor="middle" x="2328.89" y="-1969.3" font-family="Times,serif" font-size="14.00">lhs</text>
</g>
<!-- n70 -->
<g id="node31" class="node">
<title>n70</title>
<ellipse fill="none" stroke="black" cx="2855.23" cy="-1919" rx="41.69" ry="18"/>
<text text-anchor="middle" x="2855.23" y="-1915.3" font-family="Times,serif" font-size="14.00">output</text>
</g>
<!-- n75 -->
<g id="node57" class="node">
<title>n75</title>
<ellipse fill="none" stroke="black" cx="3315.93" cy="-1752" rx="40.89" ry="18"/>
<text text-anchor="middle" x="3315.93" y="-1748.3" font-family="Times,serif" font-size="14.00">switch</text>
</g>
<!-- n70&#45;&gt;n75 -->
<g id="edge40" class="edge">
<title>n70&#45;&gt;n75</title>
<path fill="none" stroke="black" d="M2897,-1919C3010.59,-1919 3316.69,-1919 3316.69,-1919 3316.69,-1919 3316.69,-1780.19 3316.69,-1780.19"/>
<polygon fill="black" stroke="black" points="3320.19,-1780.19 3316.69,-1770.19 3313.19,-1780.19 3320.19,-1780.19"/>
<text text-anchor="middle" x="3102.33" y="-1838.8" font-family="Times,serif" font-size="14.00">IS_OVERLOAD_SWITCH</text>
</g>
<!-- n81 -->
<g id="node62" class="node">
<title>n81</title>
<ellipse fill="none" stroke="black" cx="3315.93" cy="-2194" rx="40.89" ry="18"/>
<text text-anchor="middle" x="3315.93" y="-2190.3" font-family="Times,serif" font-size="14.00">switch</text>
</g>
<!-- n70&#45;&gt;n81 -->
<g id="edge41" class="edge">
<title>n70&#45;&gt;n81</title>
<path fill="none" stroke="black" d="M2891.69,-1927.84C2891.69,-1974.91 2891.69,-2194 2891.69,-2194 2891.69,-2194 3264.86,-2194 3264.86,-2194"/>
<polygon fill="black" stroke="black" points="3264.86,-2197.5 3274.86,-2194 3264.86,-2190.5 3264.86,-2197.5"/>
<text text-anchor="middle" x="3102.33" y="-2059.8" font-family="Times,serif" font-size="14.00">IS_OVERLOAD_SWITCH</text>
</g>
<!-- n69&#45;&gt;n70 -->
<!-- n51 -->
<g id="node33" class="node">
<title>n51</title>
<ellipse fill="none" stroke="black" cx="798.43" cy="-671" rx="35.19" ry="18"/>
<text text-anchor="middle" x="798.43" y="-667.3" font-family="Times,serif" font-size="14.00">input</text>
</g>
<!-- n53 -->
<g id="node35" class="node">
<title>n53</title>
<ellipse fill="none" stroke="black" cx="1069.22" cy="-657" rx="41.69" ry="18"/>
<text text-anchor="middle" x="1069.22" y="-653.3" font-family="Times,serif" font-size="14.00">output</text>
</g>
<!-- n52&#45;&gt;n53 -->
<!-- n53&#45;&gt;n7 -->
<g id="edge53" class="edge">
<title>n53&#45;&gt;n7</title>
<path fill="none" stroke="black" d="M1105.69,-665.73C1105.69,-701.89 1105.69,-838 1105.69,-838 1105.69,-838 1287.5,-838 1287.5,-838"/>
<polygon fill="black" stroke="black" points="1287.5,-841.5 1297.5,-838 1287.5,-834.5 1287.5,-841.5"/>
<text text-anchor="middle" x="1224.31" y="-757.8" font-family="Times,serif" font-size="14.00">LATENCY_EMA</text>
</g>
<!-- n39 -->
<g id="node36" class="node">
<title>n39</title>
<ellipse fill="none" stroke="black" cx="1800.2" cy="-516" rx="31.4" ry="18"/>
<text text-anchor="middle" x="1800.2" y="-512.3" font-family="Times,serif" font-size="14.00">0.00</text>
</g>
<!-- n38 -->
<g id="node37" class="node">
<title>n38</title>
<ellipse fill="none" stroke="black" cx="2328.89" cy="-516" rx="40.09" ry="18"/>
<text text-anchor="middle" x="2328.89" y="-512.3" font-family="Times,serif" font-size="14.00">inputs</text>
</g>
<!-- n39&#45;&gt;n38 -->
<g id="edge15" class="edge">
<title>n39&#45;&gt;n38</title>
<path fill="none" stroke="black" d="M1831.69,-516C1831.69,-516 2278.41,-516 2278.41,-516"/>
<polygon fill="black" stroke="black" points="2278.41,-519.5 2288.41,-516 2278.41,-512.5 2278.41,-519.5"/>
</g>
<!-- n40 -->
<g id="node38" class="node">
<title>n40</title>
<ellipse fill="none" stroke="black" cx="2855.23" cy="-516" rx="41.69" ry="18"/>
<text text-anchor="middle" x="2855.23" y="-512.3" font-family="Times,serif" font-size="14.00">output</text>
</g>
<!-- n38&#45;&gt;n40 -->
<!-- n74 -->
<g id="node54" class="node">
<title>n74</title>
<ellipse fill="none" stroke="black" cx="3315.93" cy="-1644" rx="48.19" ry="18"/>
<text text-anchor="middle" x="3315.93" y="-1640.3" font-family="Times,serif" font-size="14.00">on_false</text>
</g>
<!-- n40&#45;&gt;n74 -->
<g id="edge33" class="edge">
<title>n40&#45;&gt;n74</title>
<path fill="none" stroke="black" d="M2894.51,-522C2998.43,-522 3272.69,-522 3272.69,-522 3272.69,-522 3272.69,-1625.93 3272.69,-1625.93"/>
<polygon fill="black" stroke="black" points="3269.19,-1625.93 3272.69,-1635.93 3276.19,-1625.93 3269.19,-1625.93"/>
<text text-anchor="middle" x="3102.33" y="-538.8" font-family="Times,serif" font-size="14.00">CONCURRENCY_INCREMENT_NORMAL</text>
</g>
<!-- n80 -->
<g id="node59" class="node">
<title>n80</title>
<ellipse fill="none" stroke="black" cx="3315.93" cy="-2140" rx="48.19" ry="18"/>
<text text-anchor="middle" x="3315.93" y="-2136.3" font-family="Times,serif" font-size="14.00">on_false</text>
</g>
<!-- n40&#45;&gt;n80 -->
<g id="edge34" class="edge">
<title>n40&#45;&gt;n80</title>
<path fill="none" stroke="black" d="M2894.59,-510C2959.69,-510 3082.69,-510 3082.69,-510 3082.69,-510 3082.69,-2140 3082.69,-2140 3082.69,-2140 3257.6,-2140 3257.6,-2140"/>
<polygon fill="black" stroke="black" points="3257.6,-2143.5 3267.6,-2140 3257.6,-2136.5 3257.6,-2143.5"/>
<text text-anchor="middle" x="3102.33" y="-613.8" font-family="Times,serif" font-size="14.00">CONCURRENCY_INCREMENT_NORMAL</text>
</g>
<!-- n57 -->
<g id="node40" class="node">
<title>n57</title>
<ellipse fill="none" stroke="black" cx="4317.36" cy="-613" rx="30.59" ry="18"/>
<text text-anchor="middle" x="4317.36" y="-609.3" font-family="Times,serif" font-size="14.00">max</text>
</g>
<!-- n56 -->
<g id="node41" class="node">
<title>n56</title>
<ellipse fill="none" stroke="black" cx="4317.36" cy="-721" rx="50.89" ry="18"/>
<text text-anchor="middle" x="4317.36" y="-717.3" font-family="Times,serif" font-size="14.00">optimize</text>
</g>
<!-- n60 -->
<g id="node42" class="node">
<title>n60</title>
<ellipse fill="none" stroke="black" cx="4481.09" cy="-559" rx="41.69" ry="18"/>
<text text-anchor="middle" x="4481.09" y="-555.3" font-family="Times,serif" font-size="14.00">output</text>
</g>
<!-- n59 -->
<g id="node44" class="node">
<title>n59</title>
<ellipse fill="none" stroke="black" cx="4317.36" cy="-559" rx="38.19" ry="18"/>
<text text-anchor="middle" x="4317.36" y="-555.3" font-family="Times,serif" font-size="14.00">signal</text>
</g>
<!-- n59&#45;&gt;n60 -->
<!-- n43 -->
<g id="node45" class="node">
<title>n43</title>
<ellipse fill="none" stroke="black" cx="2855.23" cy="-128" rx="37.09" ry="18"/>
<text text-anchor="middle" x="2855.23" y="-124.3" font-family="Times,serif" font-size="14.00">10.00</text>
</g>
<!-- n43&#45;&gt;n42 -->
<g id="edge18" class="edge">
<title>n43&#45;&gt;n42</title>
<path fill="none" stroke="black" d="M2892.54,-128C2892.54,-128 3265.32,-128 3265.32,-128"/>
<polygon fill="black" stroke="black" points="3265.32,-131.5 3275.32,-128 3265.32,-124.5 3265.32,-131.5"/>
</g>
<!-- n44 -->
<g id="node47" class="node">
<title>n44</title>
<ellipse fill="none" stroke="black" cx="3746.62" cy="-128" rx="41.69" ry="18"/>
<text text-anchor="middle" x="3746.62" y="-124.3" font-family="Times,serif" font-size="14.00">output</text>
</g>
<!-- n42&#45;&gt;n44 -->
<!-- n44&#45;&gt;n57 -->
<g id="edge52" class="edge">
<title>n44&#45;&gt;n57</title>
<path fill="none" stroke="black" d="M3746.69,-146.2C3746.69,-234.61 3746.69,-615 3746.69,-615 3746.69,-615 4276.67,-615 4276.67,-615"/>
<polygon fill="black" stroke="black" points="4276.67,-618.5 4286.67,-615 4276.67,-611.5 4276.67,-618.5"/>
<text text-anchor="middle" x="4010.21" y="-373.8" font-family="Times,serif" font-size="14.00">MAX_CONCURRENCY</text>
</g>
<!-- n36 -->
<g id="node49" class="node">
<title>n36</title>
<ellipse fill="none" stroke="black" cx="2855.23" cy="-1213" rx="41.69" ry="18"/>
<text text-anchor="middle" x="2855.23" y="-1209.3" font-family="Times,serif" font-size="14.00">output</text>
</g>
<!-- n35&#45;&gt;n36 -->
<!-- n36&#45;&gt;n38 -->
<g id="edge47" class="edge">
<title>n36&#45;&gt;n38</title>
<path fill="none" stroke="black" d="M2815.78,-1207C2742.26,-1207 2591.69,-1207 2591.69,-1207 2591.69,-1207 2591.69,-522 2591.69,-522 2591.69,-522 2377.1,-522 2377.1,-522"/>
<polygon fill="black" stroke="black" points="2377.1,-518.5 2367.1,-522 2377.1,-525.5 2377.1,-518.5"/>
<text text-anchor="middle" x="2573.69" y="-1049.8" font-family="Times,serif" font-size="14.00">CONCURRENCY_INCREMENT_INTEGRAL_CAPPED</text>
</g>
<!-- n49 -->
<g id="node50" class="node">
<title>n49</title>
<ellipse fill="none" stroke="black" cx="99.6" cy="-756" rx="41.69" ry="18"/>
<text text-anchor="middle" x="99.6" y="-752.3" font-family="Times,serif" font-size="14.00">output</text>
</g>
<!-- n49&#45;&gt;n2 -->
<g id="edge35" class="edge">
<title>n49&#45;&gt;n2</title>
<path fill="none" stroke="black" d="M134.69,-746.05C134.69,-710.1 134.69,-589 134.69,-589 134.69,-589 276.93,-589 276.93,-589"/>
<polygon fill="black" stroke="black" points="276.93,-592.5 286.93,-589 276.93,-585.5 276.93,-592.5"/>
<text text-anchor="middle" x="234.19" y="-658.8" font-family="Times,serif" font-size="14.00">LATENCY</text>
</g>
<!-- n49&#45;&gt;n68 -->
<g id="edge38" class="edge">
<title>n49&#45;&gt;n68</title>
<path fill="none" stroke="black" d="M99.69,-774.15C99.69,-925.54 99.69,-1973 99.69,-1973 99.69,-1973 2291.51,-1973 2291.51,-1973"/>
<polygon fill="black" stroke="black" points="2291.51,-1976.5 2301.51,-1973 2291.51,-1969.5 2291.51,-1976.5"/>
<text text-anchor="middle" x="927.47" y="-1898.8" font-family="Times,serif" font-size="14.00">LATENCY</text>
</g>
<!-- n49&#45;&gt;n51 -->
<g id="edge36" class="edge">
<title>n49&#45;&gt;n51</title>
<path fill="none" stroke="black" d="M138.69,-749.61C138.69,-729.84 138.69,-671 138.69,-671 138.69,-671 752.96,-671 752.96,-671"/>
<polygon fill="black" stroke="black" points="752.96,-674.5 762.96,-671 752.96,-667.5 752.96,-674.5"/>
<text text-anchor="middle" x="394.19" y="-755.8" font-family="Times,serif" font-size="14.00">LATENCY</text>
</g>
<!-- n49&#45;&gt;n59 -->
<g id="edge37" class="edge">
<title>n49&#45;&gt;n59</title>
<path fill="none" stroke="black" d="M136.93,-748C320.06,-748 1114.69,-748 1114.69,-748 1114.69,-748 1114.69,-567 1114.69,-567 1114.69,-567 4272.75,-567 4272.75,-567"/>
<polygon fill="black" stroke="black" points="4272.75,-570.5 4282.75,-567 4272.75,-563.5 4272.75,-570.5"/>
<text text-anchor="middle" x="1473.81" y="-3.8" font-family="Times,serif" font-size="14.00">LATENCY</text>
</g>
<!-- n47 -->
<g id="node52" class="node">
<title>n47</title>
<ellipse fill="none" stroke="black" cx="2855.23" cy="-795" rx="41.69" ry="18"/>
<text text-anchor="middle" x="2855.23" y="-791.3" font-family="Times,serif" font-size="14.00">output</text>
</g>
<!-- n46&#45;&gt;n47 -->
<!-- n47&#45;&gt;n28 -->
<g id="edge48" class="edge">
<title>n47&#45;&gt;n28</title>
<path fill="none" stroke="black" d="M2891.69,-803.98C2891.69,-838.67 2891.69,-962 2891.69,-962 2891.69,-962 3278.74,-962 3278.74,-962"/>
<polygon fill="black" stroke="black" points="3278.74,-965.5 3288.74,-962 3278.74,-958.5 3278.74,-965.5"/>
<text text-anchor="middle" x="3102.33" y="-881.8" font-family="Times,serif" font-size="14.00">SQRT_CONCURRENCY_INCREMENT</text>
</g>
<!-- n73 -->
<g id="node53" class="node">
<title>n73</title>
<ellipse fill="none" stroke="black" cx="2855.23" cy="-1698" rx="37.09" ry="18"/>
<text text-anchor="middle" x="2855.23" y="-1694.3" font-family="Times,serif" font-size="14.00">10.00</text>
</g>
<!-- n72 -->
<g id="node55" class="node">
<title>n72</title>
<ellipse fill="none" stroke="black" cx="3315.93" cy="-1698" rx="46.29" ry="18"/>
<text text-anchor="middle" x="3315.93" y="-1694.3" font-family="Times,serif" font-size="14.00">on_true</text>
</g>
<!-- n73&#45;&gt;n72 -->
<g id="edge22" class="edge">
<title>n73&#45;&gt;n72</title>
<path fill="none" stroke="black" d="M2892.54,-1698C2892.54,-1698 3259.49,-1698 3259.49,-1698"/>
<polygon fill="black" stroke="black" points="3259.49,-1701.5 3269.49,-1698 3259.49,-1694.5 3259.49,-1701.5"/>
</g>
<!-- n76 -->
<g id="node56" class="node">
<title>n76</title>
<ellipse fill="none" stroke="black" cx="3746.62" cy="-1698" rx="41.69" ry="18"/>
<text text-anchor="middle" x="3746.62" y="-1694.3" font-family="Times,serif" font-size="14.00">output</text>
</g>
<!-- n76&#45;&gt;n56 -->
<g id="edge39" class="edge">
<title>n76&#45;&gt;n56</title>
<path fill="none" stroke="black" d="M3788.46,-1698C3862.92,-1698 4010.69,-1698 4010.69,-1698 4010.69,-1698 4010.69,-720.5 4010.69,-720.5 4010.69,-720.5 4256.37,-720.5 4256.37,-720.5"/>
<polygon fill="black" stroke="black" points="4256.37,-724 4266.37,-720.5 4256.37,-717 4256.37,-724"/>
<text text-anchor="middle" x="4010.21" y="-1456.8" font-family="Times,serif" font-size="14.00">CONCURRENCY_INCREMENT</text>
</g>
<!-- n75&#45;&gt;n76 -->
<!-- n79 -->
<g id="node58" class="node">
<title>n79</title>
<ellipse fill="none" stroke="black" cx="2855.23" cy="-2248" rx="31.4" ry="18"/>
<text text-anchor="middle" x="2855.23" y="-2244.3" font-family="Times,serif" font-size="14.00">0.00</text>
</g>
<!-- n78 -->
<g id="node60" class="node">
<title>n78</title>
<ellipse fill="none" stroke="black" cx="3315.93" cy="-2248" rx="46.29" ry="18"/>
<text text-anchor="middle" x="3315.93" y="-2244.3" font-family="Times,serif" font-size="14.00">on_true</text>
</g>
<!-- n79&#45;&gt;n78 -->
<g id="edge24" class="edge">
<title>n79&#45;&gt;n78</title>
<path fill="none" stroke="black" d="M2886.54,-2248C2886.54,-2248 3259.66,-2248 3259.66,-2248"/>
<polygon fill="black" stroke="black" points="3259.66,-2251.5 3269.66,-2248 3259.66,-2244.5 3259.66,-2251.5"/>
</g>
<!-- n82 -->
<g id="node61" class="node">
<title>n82</title>
<ellipse fill="none" stroke="black" cx="3746.62" cy="-2167" rx="41.69" ry="18"/>
<text text-anchor="middle" x="3746.62" y="-2163.3" font-family="Times,serif" font-size="14.00">output</text>
</g>
<!-- n82&#45;&gt;n31 -->
<g id="edge49" class="edge">
<title>n82&#45;&gt;n31</title>
<path fill="none" stroke="black" d="M3788.61,-2167C3920.49,-2167 4317.69,-2167 4317.69,-2167 4317.69,-2167 4317.69,-1303.22 4317.69,-1303.22"/>
<polygon fill="black" stroke="black" points="4321.19,-1303.22 4317.69,-1293.22 4314.19,-1303.22 4321.19,-1303.22"/>
<text text-anchor="middle" x="4010.21" y="-1941.8" font-family="Times,serif" font-size="14.00">CONCURRENCY_INCREMENT_FEEDBACK</text>
</g>
<!-- n81&#45;&gt;n82 -->
</g>
</svg>
