<?xml version="1.0" encoding="UTF-8"?>
<svg xmlns="http://www.w3.org/2000/svg" viewBox="0 0 750 500">
  <defs>
    <style>
      .c {
        fill: #c7c4c1;
      }

      .d {
        fill: #f27a40;
      }

      .e {
        fill: #56524d;
      }

      .f {
        fill: #2e2b29;
      }

      .g {
        fill: #8ec4ad;
      }

      .h {
        stroke: #bfded1;
      }

      .h, .i, .j {
        fill: none;
        stroke-width: .72px;
      }

      .k {
        fill: #403d3a;
      }

      .l {
        fill: #868079;
      }

      .i, .j {
        stroke: #868079;
      }

      .m {
        fill: #1d1d1b;
      }

      .j {
        stroke-miterlimit: 10;
      }
    </style>
  </defs>
  <g id="a" data-name="bg">
    <rect class="f" x="-1673.7" width="4090.86" height="500"/>
  </g>
  <g id="b" data-name="Warstwa 1">
    <path class="k" d="m95.24,27.35h624.07c.28,0,.56.03.84.08.28.06.55.14.81.25.26.11.51.24.75.4.24.16.45.34.65.54.2.2.38.42.54.65.16.24.29.48.4.75.11.26.19.53.25.81.06.28.08.56.08.84v422.76c0,.28-.03.56-.08.84-.06.28-.14.55-.25.81-.11.26-.24.51-.4.75-.16.24-.34.45-.54.65-.2.2-.42.38-.65.54-.24.16-.48.29-.75.4-.26.11-.53.19-.81.25-.28.06-.56.08-.84.08H95.24c-.28,0-.56-.03-.84-.08-.28-.06-.55-.14-.81-.25s-.51-.24-.75-.4c-.24-.16-.45-.34-.65-.54-.2-.2-.38-.42-.54-.65-.16-.24-.29-.48-.4-.75-.11-.26-.19-.53-.25-.81s-.08-.56-.08-.84V31.66c0-.28.03-.56.08-.84.06-.28.14-.55.25-.81.11-.26.24-.51.4-.75.16-.24.34-.45.54-.65.2-.2.42-.38.65-.54.24-.16.48-.29.75-.4.26-.11.53-.19.81-.25.28-.06.56-.08.84-.08Z"/>
    <path class="i" d="m95.24,27.35h624.07c.28,0,.56.03.84.08.28.06.55.14.81.25.26.11.51.24.75.4.24.16.45.34.65.54.2.2.38.42.54.65.16.24.29.48.4.75.11.26.19.53.25.81.06.28.08.56.08.84v422.76c0,.28-.03.56-.08.84-.06.28-.14.55-.25.81-.11.26-.24.51-.4.75-.16.24-.34.45-.54.65-.2.2-.42.38-.65.54-.24.16-.48.29-.75.4-.26.11-.53.19-.81.25-.28.06-.56.08-.84.08H95.24c-.28,0-.56-.03-.84-.08-.28-.06-.55-.14-.81-.25s-.51-.24-.75-.4c-.24-.16-.45-.34-.65-.54-.2-.2-.38-.42-.54-.65-.16-.24-.29-.48-.4-.75-.11-.26-.19-.53-.25-.81s-.08-.56-.08-.84V31.66c0-.28.03-.56.08-.84.06-.28.14-.55.25-.81.11-.26.24-.51.4-.75.16-.24.34-.45.54-.65.2-.2.42-.38.65-.54.24-.16.48-.29.75-.4.26-.11.53-.19.81-.25.28-.06.56-.08.84-.08Z"/>
    <g>
      <path class="c" d="m394.6,45.14l.77-.07c.04.31.12.56.25.76.13.2.34.36.62.48.28.12.6.18.95.18.31,0,.59-.05.83-.14.24-.09.42-.22.53-.38.12-.16.17-.34.17-.53s-.06-.36-.17-.51-.3-.27-.56-.36c-.17-.06-.53-.17-1.1-.3-.57-.14-.96-.26-1.19-.39-.29-.15-.51-.35-.66-.58-.14-.23-.22-.49-.22-.77,0-.31.09-.6.26-.87.18-.27.44-.48.78-.62s.72-.21,1.13-.21c.46,0,.86.07,1.21.22s.62.36.81.65.29.61.3.97l-.78.06c-.04-.39-.18-.69-.43-.88-.24-.2-.6-.3-1.08-.3s-.85.09-1.08.27c-.23.18-.34.4-.34.66,0,.22.08.4.24.55.16.14.57.29,1.23.44.66.15,1.12.28,1.37.39.36.17.62.38.8.63.17.25.26.55.26.88s-.09.64-.28.93c-.19.29-.46.52-.81.68-.35.16-.75.24-1.19.24-.56,0-1.03-.08-1.4-.24-.38-.16-.67-.41-.89-.74s-.33-.7-.34-1.11Z"/>
      <path class="c" d="m403.59,45.68l.78.1c-.12.46-.35.81-.69,1.07-.33.25-.76.38-1.28.38-.65,0-1.17-.2-1.56-.61-.38-.4-.58-.97-.58-1.7s.19-1.34.58-1.75c.39-.42.89-.62,1.51-.62s1.09.2,1.47.61.57.98.57,1.72c0,.04,0,.11,0,.2h-3.34c.03.49.17.87.42,1.13.25.26.56.39.93.39.28,0,.52-.07.71-.22.2-.15.35-.38.47-.7Zm-2.49-1.23h2.5c-.03-.38-.13-.66-.29-.85-.24-.29-.55-.44-.94-.44-.35,0-.64.12-.88.35-.24.23-.37.54-.39.93Z"/>
      <path class="c" d="m405.32,47.12v-4.47h.68v.68c.17-.32.33-.53.48-.63.15-.1.31-.15.49-.15.26,0,.52.08.78.24l-.26.7c-.19-.11-.37-.16-.56-.16-.17,0-.31.05-.45.15s-.23.24-.28.42c-.08.27-.13.56-.13.88v2.34h-.76Z"/>
      <path class="c" d="m409.45,47.12l-1.7-4.47h.8l.96,2.68c.1.29.2.59.29.9.07-.24.16-.52.28-.85l.99-2.73h.78l-1.69,4.47h-.71Z"/>
      <path class="c" d="m415.58,45.68l.78.1c-.12.46-.35.81-.69,1.07-.33.25-.76.38-1.28.38-.65,0-1.17-.2-1.56-.61-.38-.4-.58-.97-.58-1.7s.19-1.34.58-1.75c.39-.42.89-.62,1.51-.62s1.09.2,1.47.61.57.98.57,1.72c0,.04,0,.11,0,.2h-3.34c.03.49.17.87.42,1.13.25.26.56.39.93.39.28,0,.52-.07.71-.22.2-.15.35-.38.47-.7Zm-2.49-1.23h2.5c-.03-.38-.13-.66-.29-.85-.24-.29-.55-.44-.94-.44-.35,0-.64.12-.88.35-.24.23-.37.54-.39.93Z"/>
      <path class="c" d="m417.31,47.12v-4.47h.68v.68c.17-.32.33-.53.48-.63.15-.1.31-.15.49-.15.26,0,.52.08.78.24l-.26.7c-.19-.11-.37-.16-.56-.16-.17,0-.31.05-.45.15s-.23.24-.28.42c-.08.27-.13.56-.13.88v2.34h-.76Z"/>
    </g>
    <path class="g" d="m164.4,343.7h162.2c.34,0,.68.03,1.01.1.33.07.66.16.97.29.31.13.61.29.89.48.28.19.54.4.78.64s.45.5.64.78.35.58.48.89c.13.31.23.64.29.97.07.33.1.67.1,1.01v75.92c0,.34-.03.68-.1,1.01-.07.33-.16.66-.29.97-.13.31-.29.61-.48.9-.19.28-.4.54-.64.78-.24.24-.5.45-.78.64s-.58.35-.89.48c-.31.13-.64.23-.97.29-.33.07-.67.1-1.01.1h-162.2c-.34,0-.68-.03-1.01-.1-.33-.07-.66-.16-.97-.29-.31-.13-.61-.29-.89-.48-.28-.19-.54-.4-.78-.64-.24-.24-.45-.5-.64-.78-.19-.28-.35-.58-.48-.89s-.23-.64-.29-.97c-.07-.33-.1-.67-.1-1.01v-75.92c0-.34.03-.68.1-1.01.07-.33.16-.66.29-.97.13-.31.29-.61.48-.89.19-.28.4-.54.64-.78.24-.24.5-.45.78-.64.28-.19.58-.35.89-.48.31-.13.64-.23.97-.29.33-.07.67-.1,1.01-.1Z"/>
    <path class="h" d="m164.4,343.7h162.2c.34,0,.68.03,1.01.1.33.07.66.16.97.29.31.13.61.29.89.48.28.19.54.4.78.64s.45.5.64.78.35.58.48.89c.13.31.23.64.29.97.07.33.1.67.1,1.01v75.92c0,.34-.03.68-.1,1.01-.07.33-.16.66-.29.97-.13.31-.29.61-.48.9-.19.28-.4.54-.64.78-.24.24-.5.45-.78.64s-.58.35-.89.48c-.31.13-.64.23-.97.29-.33.07-.67.1-1.01.1h-162.2c-.34,0-.68-.03-1.01-.1-.33-.07-.66-.16-.97-.29-.31-.13-.61-.29-.89-.48-.28-.19-.54-.4-.78-.64-.24-.24-.45-.5-.64-.78-.19-.28-.35-.58-.48-.89s-.23-.64-.29-.97c-.07-.33-.1-.67-.1-1.01v-75.92c0-.34.03-.68.1-1.01.07-.33.16-.66.29-.97.13-.31.29-.61.48-.89.19-.28.4-.54.64-.78.24-.24.5-.45.78-.64.28-.19.58-.35.89-.48.31-.13.64-.23.97-.29.33-.07.67-.1,1.01-.1Z"/>
    <g>
      <path class="m" d="m216.35,389.35l2.37-6.18h.88l2.53,6.18h-.93l-.72-1.87h-2.58l-.68,1.87h-.87Zm1.78-2.54h2.09l-.64-1.71c-.2-.52-.34-.95-.44-1.28-.08.4-.19.79-.33,1.18l-.68,1.81Z"/>
      <path class="m" d="m222.69,391.07v-6.19h.69v.58c.16-.23.35-.4.55-.51.21-.11.45-.17.75-.17.38,0,.72.1,1.01.29s.51.47.66.83c.15.36.22.75.22,1.18,0,.46-.08.87-.25,1.24-.17.37-.4.65-.72.84-.31.2-.64.29-.99.29-.25,0-.48-.05-.68-.16-.2-.11-.37-.24-.5-.41v2.18h-.76Zm.69-3.93c0,.58.12,1,.35,1.28.23.28.52.41.85.41s.63-.14.87-.43c.24-.29.36-.73.36-1.32s-.12-1-.35-1.28c-.23-.28-.51-.43-.84-.43s-.61.15-.86.45c-.25.3-.37.74-.37,1.32Z"/>
      <path class="m" d="m230.55,387.91l.78.1c-.12.46-.35.81-.69,1.07-.33.25-.76.38-1.28.38-.65,0-1.17-.2-1.56-.61-.38-.4-.58-.97-.58-1.7s.19-1.34.58-1.75c.39-.42.89-.62,1.51-.62s1.09.2,1.47.61.57.98.57,1.72c0,.04,0,.11,0,.2h-3.34c.03.49.17.87.42,1.13.25.26.56.39.93.39.28,0,.52-.07.71-.22.2-.15.35-.38.47-.7Zm-2.49-1.23h2.5c-.03-.38-.13-.66-.29-.85-.24-.29-.55-.44-.94-.44-.35,0-.64.12-.88.35-.24.23-.37.54-.39.93Z"/>
      <path class="m" d="m232.28,389.35v-4.47h.68v.68c.17-.32.33-.53.48-.63.15-.1.31-.15.49-.15.26,0,.52.08.78.24l-.26.7c-.19-.11-.37-.16-.56-.16-.17,0-.31.05-.45.15s-.23.24-.28.42c-.08.27-.13.56-.13.88v2.34h-.76Z"/>
      <path class="m" d="m236.81,388.67l.11.67c-.21.04-.4.07-.57.07-.27,0-.49-.04-.64-.13-.15-.09-.26-.2-.32-.34s-.09-.44-.09-.9v-2.57h-.56v-.59h.56v-1.11l.75-.46v1.56h.76v.59h-.76v2.62c0,.22.01.35.04.42.03.06.07.11.13.15.06.04.15.05.26.05.08,0,.2,0,.33-.03Z"/>
      <path class="m" d="m240.49,389.35v-.66c-.35.51-.82.76-1.42.76-.26,0-.51-.05-.74-.15-.23-.1-.4-.23-.51-.38-.11-.15-.19-.34-.23-.56-.03-.15-.05-.38-.05-.71v-2.77h.76v2.48c0,.4.02.66.05.8.05.2.15.36.3.47.16.11.35.17.57.17s.44-.06.64-.17.34-.28.42-.48c.08-.2.12-.49.12-.87v-2.4h.76v4.47h-.68Z"/>
      <path class="m" d="m242.34,389.35v-4.47h.68v.68c.17-.32.33-.53.48-.63.15-.1.31-.15.49-.15.26,0,.52.08.78.24l-.26.7c-.19-.11-.37-.16-.56-.16-.17,0-.31.05-.45.15s-.23.24-.28.42c-.08.27-.13.56-.13.88v2.34h-.76Z"/>
      <path class="m" d="m248.29,387.91l.78.1c-.12.46-.35.81-.69,1.07s-.76.38-1.28.38c-.66,0-1.17-.2-1.56-.61-.38-.4-.58-.97-.58-1.7s.19-1.34.58-1.75c.39-.42.89-.62,1.51-.62s1.09.2,1.47.61c.38.41.57.98.57,1.72,0,.04,0,.11,0,.2h-3.34c.03.49.17.87.42,1.13.25.26.56.39.94.39.28,0,.52-.07.71-.22.2-.15.35-.38.47-.7Zm-2.49-1.23h2.5c-.03-.38-.13-.66-.29-.85-.24-.29-.55-.44-.94-.44-.35,0-.64.12-.88.35-.24.23-.37.54-.39.93Z"/>
    </g>
    <g>
      <path class="m" d="m251.36,389.35l2.37-6.18h.88l2.53,6.18h-.93l-.72-1.87h-2.58l-.68,1.87h-.87Zm1.78-2.54h2.09l-.64-1.71c-.2-.52-.34-.95-.44-1.28-.08.4-.19.79-.33,1.18l-.68,1.81Z"/>
      <path class="m" d="m257.56,389.72l.74.11c.03.23.12.39.26.5.19.14.45.21.77.21.35,0,.62-.07.81-.21.19-.14.32-.34.39-.59.04-.15.06-.48.05-.97-.33.39-.74.59-1.24.59-.62,0-1.09-.22-1.43-.67-.34-.44-.51-.98-.51-1.6,0-.43.08-.82.23-1.18.15-.36.38-.64.67-.84.29-.2.64-.29,1.03-.29.53,0,.96.21,1.31.64v-.54h.7v3.87c0,.7-.07,1.19-.21,1.48-.14.29-.37.52-.67.69-.31.17-.69.25-1.13.25-.53,0-.96-.12-1.29-.36-.33-.24-.49-.6-.48-1.08Zm.63-2.69c0,.59.12,1.02.35,1.29.23.27.52.4.88.4s.64-.13.88-.4c.24-.27.35-.69.35-1.26s-.12-.96-.36-1.24c-.24-.28-.54-.42-.88-.42s-.62.14-.86.41c-.24.27-.35.68-.35,1.22Z"/>
      <path class="m" d="m265.56,387.91l.78.1c-.12.46-.35.81-.69,1.07s-.76.38-1.28.38c-.66,0-1.17-.2-1.56-.61-.38-.4-.58-.97-.58-1.7s.19-1.34.58-1.75c.39-.42.89-.62,1.51-.62s1.09.2,1.47.61c.38.41.57.98.57,1.72,0,.04,0,.11,0,.2h-3.34c.03.49.17.87.42,1.13.25.26.56.39.94.39.28,0,.52-.07.71-.22.2-.15.35-.38.47-.7Zm-2.49-1.23h2.5c-.03-.38-.13-.66-.29-.85-.24-.29-.55-.44-.94-.44-.35,0-.64.12-.88.35-.24.23-.37.54-.39.93Z"/>
      <path class="m" d="m267.3,389.35v-4.47h.68v.64c.33-.49.8-.74,1.42-.74.27,0,.52.05.74.15.23.1.4.22.51.38s.19.34.24.56c.03.14.04.39.04.74v2.75h-.76v-2.72c0-.31-.03-.54-.09-.69-.06-.15-.16-.28-.31-.37-.15-.09-.33-.14-.53-.14-.32,0-.6.1-.84.31s-.35.59-.35,1.17v2.44h-.76Z"/>
      <path class="m" d="m273.75,388.67l.11.67c-.21.04-.4.07-.57.07-.27,0-.49-.04-.64-.13-.15-.09-.26-.2-.32-.34s-.09-.44-.09-.9v-2.57h-.56v-.59h.56v-1.11l.75-.46v1.56h.76v.59h-.76v2.62c0,.22.01.35.04.42.03.06.07.11.13.15.06.04.15.05.26.05.08,0,.2,0,.33-.03Z"/>
    </g>
    <path class="g" d="m490.87,343.7h162.2c.34,0,.68.03,1.01.1.33.07.66.16.97.29.31.13.61.29.89.48.28.19.54.4.78.64.24.24.45.5.64.78.19.28.35.58.48.89.13.31.23.64.29.97.07.33.1.67.1,1.01v75.92c0,.34-.03.68-.1,1.01-.07.33-.16.66-.29.97-.13.31-.29.61-.48.9-.19.28-.4.54-.64.78-.24.24-.5.45-.78.64s-.58.35-.89.48c-.31.13-.64.23-.97.29-.33.07-.67.1-1.01.1h-162.2c-.34,0-.68-.03-1.01-.1s-.66-.16-.97-.29c-.31-.13-.61-.29-.89-.48-.28-.19-.54-.4-.78-.64-.24-.24-.45-.5-.64-.78-.19-.28-.35-.58-.48-.89s-.23-.64-.29-.97c-.07-.33-.1-.67-.1-1.01v-75.92c0-.34.03-.68.1-1.01.07-.33.16-.66.29-.97s.29-.61.48-.89c.19-.28.4-.54.64-.78s.5-.45.78-.64c.28-.19.58-.35.89-.48.31-.13.64-.23.97-.29.33-.07.67-.1,1.01-.1Z"/>
    <path class="h" d="m490.87,343.7h162.2c.34,0,.68.03,1.01.1.33.07.66.16.97.29.31.13.61.29.89.48.28.19.54.4.78.64.24.24.45.5.64.78.19.28.35.58.48.89.13.31.23.64.29.97.07.33.1.67.1,1.01v75.92c0,.34-.03.68-.1,1.01-.07.33-.16.66-.29.97-.13.31-.29.61-.48.9-.19.28-.4.54-.64.78-.24.24-.5.45-.78.64s-.58.35-.89.48c-.31.13-.64.23-.97.29-.33.07-.67.1-1.01.1h-162.2c-.34,0-.68-.03-1.01-.1s-.66-.16-.97-.29c-.31-.13-.61-.29-.89-.48-.28-.19-.54-.4-.78-.64-.24-.24-.45-.5-.64-.78-.19-.28-.35-.58-.48-.89s-.23-.64-.29-.97c-.07-.33-.1-.67-.1-1.01v-75.92c0-.34.03-.68.1-1.01.07-.33.16-.66.29-.97s.29-.61.48-.89c.19-.28.4-.54.64-.78s.5-.45.78-.64c.28-.19.58-.35.89-.48.31-.13.64-.23.97-.29.33-.07.67-.1,1.01-.1Z"/>
    <g>
      <path class="m" d="m535.09,389.35l2.37-6.18h.88l2.53,6.18h-.93l-.72-1.87h-2.58l-.68,1.87h-.87Zm1.78-2.54h2.09l-.64-1.71c-.2-.52-.34-.95-.44-1.28-.08.4-.19.79-.33,1.18l-.68,1.81Z"/>
      <path class="m" d="m541.43,391.07v-6.19h.69v.58c.16-.23.35-.4.55-.51.21-.11.45-.17.75-.17.38,0,.72.1,1.01.29s.51.47.66.83c.15.36.22.75.22,1.18,0,.46-.08.87-.25,1.24-.17.37-.4.65-.72.84-.31.2-.64.29-.99.29-.25,0-.48-.05-.68-.16-.2-.11-.37-.24-.5-.41v2.18h-.76Zm.69-3.93c0,.58.12,1,.35,1.28.23.28.52.41.85.41s.63-.14.87-.43c.24-.29.36-.73.36-1.32s-.12-1-.35-1.28c-.23-.28-.51-.43-.84-.43s-.61.15-.86.45c-.25.3-.37.74-.37,1.32Z"/>
      <path class="m" d="m549.29,387.91l.78.1c-.12.46-.35.81-.69,1.07-.33.25-.76.38-1.28.38-.65,0-1.17-.2-1.56-.61-.38-.4-.58-.97-.58-1.7s.19-1.34.58-1.75c.39-.42.89-.62,1.51-.62s1.09.2,1.47.61.57.98.57,1.72c0,.04,0,.11,0,.2h-3.34c.03.49.17.87.42,1.13.25.26.56.39.93.39.28,0,.52-.07.71-.22.2-.15.35-.38.47-.7Zm-2.49-1.23h2.5c-.03-.38-.13-.66-.29-.85-.24-.29-.55-.44-.94-.44-.35,0-.64.12-.88.35-.24.23-.37.54-.39.93Z"/>
      <path class="m" d="m551.02,389.35v-4.47h.68v.68c.17-.32.33-.53.48-.63.15-.1.31-.15.49-.15.26,0,.52.08.78.24l-.26.7c-.19-.11-.37-.16-.56-.16-.17,0-.31.05-.45.15s-.23.24-.28.42c-.08.27-.13.56-.13.88v2.34h-.76Z"/>
      <path class="m" d="m555.55,388.67l.11.67c-.21.04-.4.07-.57.07-.27,0-.49-.04-.64-.13-.15-.09-.26-.2-.32-.34s-.09-.44-.09-.9v-2.57h-.56v-.59h.56v-1.11l.75-.46v1.56h.76v.59h-.76v2.62c0,.22.01.35.04.42.03.06.07.11.13.15.06.04.15.05.26.05.08,0,.2,0,.33-.03Z"/>
      <path class="m" d="m559.23,389.35v-.66c-.35.51-.82.76-1.42.76-.26,0-.51-.05-.74-.15-.23-.1-.4-.23-.51-.38-.11-.15-.19-.34-.23-.56-.03-.15-.05-.38-.05-.71v-2.77h.76v2.48c0,.4.02.66.05.8.05.2.15.36.3.47.16.11.35.17.57.17s.44-.06.64-.17.34-.28.42-.48c.08-.2.12-.49.12-.87v-2.4h.76v4.47h-.68Z"/>
      <path class="m" d="m561.08,389.35v-4.47h.68v.68c.17-.32.33-.53.48-.63.15-.1.31-.15.49-.15.26,0,.52.08.78.24l-.26.7c-.19-.11-.37-.16-.56-.16-.17,0-.31.05-.45.15s-.23.24-.28.42c-.08.27-.13.56-.13.88v2.34h-.76Z"/>
      <path class="m" d="m567.03,387.91l.78.1c-.12.46-.35.81-.69,1.07s-.76.38-1.28.38c-.66,0-1.17-.2-1.56-.61-.38-.4-.58-.97-.58-1.7s.19-1.34.58-1.75c.39-.42.89-.62,1.51-.62s1.09.2,1.47.61c.38.41.57.98.57,1.72,0,.04,0,.11,0,.2h-3.34c.03.49.17.87.42,1.13.25.26.56.39.94.39.28,0,.52-.07.71-.22.2-.15.35-.38.47-.7Zm-2.49-1.23h2.5c-.03-.38-.13-.66-.29-.85-.24-.29-.55-.44-.94-.44-.35,0-.64.12-.88.35-.24.23-.37.54-.39.93Z"/>
      <path class="m" d="m575.67,387.19l.82.21c-.17.67-.48,1.18-.92,1.54-.45.35-.99.53-1.63.53s-1.21-.14-1.62-.41c-.42-.27-.74-.66-.95-1.18-.22-.51-.33-1.07-.33-1.66,0-.64.12-1.21.37-1.68.25-.48.59-.84,1.05-1.09.45-.25.95-.37,1.5-.37.62,0,1.14.16,1.56.47.42.31.71.76.88,1.33l-.8.19c-.14-.45-.35-.78-.62-.98s-.62-.31-1.03-.31c-.47,0-.87.11-1.19.34-.32.23-.54.53-.67.92-.13.38-.19.78-.19,1.19,0,.53.08.98.23,1.38.15.39.39.68.71.88.32.19.67.29,1.05.29.46,0,.85-.13,1.16-.4.32-.26.53-.66.64-1.17Z"/>
      <path class="m" d="m577.11,387.12c0-.83.23-1.44.69-1.84.38-.33.85-.5,1.41-.5.62,0,1.12.2,1.51.6.39.4.58.96.58,1.67,0,.58-.09,1.03-.26,1.36s-.42.59-.75.77-.69.27-1.08.27c-.63,0-1.13-.2-1.52-.6-.39-.4-.58-.98-.58-1.74Zm.78,0c0,.57.12,1,.38,1.29s.56.43.94.43.69-.14.94-.43.38-.72.38-1.31c0-.55-.12-.97-.38-1.26-.25-.29-.56-.43-.94-.43s-.69.14-.94.43c-.25.28-.38.71-.38,1.28Z"/>
      <path class="m" d="m582.19,389.35v-4.47h.68v.64c.33-.49.8-.74,1.42-.74.27,0,.52.05.74.15.23.1.4.22.51.38s.19.34.24.56c.03.14.04.39.04.74v2.75h-.76v-2.72c0-.31-.03-.54-.09-.69-.06-.15-.16-.28-.31-.37-.15-.09-.33-.14-.53-.14-.32,0-.6.1-.84.31s-.35.59-.35,1.17v2.44h-.76Z"/>
      <path class="m" d="m588.64,388.67l.11.67c-.21.04-.41.07-.57.07-.28,0-.49-.04-.64-.13-.15-.09-.26-.2-.32-.34-.06-.14-.09-.44-.09-.9v-2.57h-.56v-.59h.56v-1.11l.75-.46v1.56h.76v.59h-.76v2.62c0,.22.01.35.04.42.03.06.07.11.13.15.06.04.15.05.26.05.08,0,.2,0,.33-.03Z"/>
      <path class="m" d="m589.38,389.35v-4.47h.68v.68c.17-.32.33-.53.48-.63.15-.1.31-.15.49-.15.26,0,.52.08.78.24l-.26.7c-.19-.11-.37-.16-.56-.16-.17,0-.31.05-.45.15s-.23.24-.28.42c-.08.27-.13.56-.13.88v2.34h-.76Z"/>
      <path class="m" d="m591.98,387.12c0-.83.23-1.44.69-1.84.38-.33.85-.5,1.41-.5.62,0,1.12.2,1.51.6.39.4.59.96.59,1.67,0,.58-.09,1.03-.26,1.36-.17.33-.42.59-.75.77s-.69.27-1.08.27c-.63,0-1.13-.2-1.52-.6-.39-.4-.58-.98-.58-1.74Zm.78,0c0,.57.12,1,.38,1.29s.56.43.94.43.69-.14.94-.43.38-.72.38-1.31c0-.55-.13-.97-.38-1.26-.25-.29-.56-.43-.94-.43s-.69.14-.94.43c-.25.28-.38.71-.38,1.28Z"/>
      <path class="m" d="m597.04,389.35v-6.18h.76v6.18h-.76Z"/>
      <path class="m" d="m598.96,389.35v-6.18h.76v6.18h-.76Z"/>
      <path class="m" d="m603.95,387.91l.78.1c-.12.46-.35.81-.69,1.07s-.76.38-1.28.38c-.66,0-1.17-.2-1.56-.61-.38-.4-.58-.97-.58-1.7s.19-1.34.58-1.75c.39-.42.89-.62,1.51-.62s1.09.2,1.47.61c.38.41.57.98.57,1.72,0,.04,0,.11,0,.2h-3.34c.03.49.17.87.42,1.13.25.26.56.39.94.39.28,0,.52-.07.71-.22.2-.15.35-.38.47-.7Zm-2.49-1.23h2.5c-.03-.38-.13-.66-.29-.85-.24-.29-.55-.44-.94-.44-.35,0-.64.12-.88.35-.24.23-.37.54-.39.93Z"/>
      <path class="m" d="m605.68,389.35v-4.47h.68v.68c.17-.32.33-.53.48-.63.15-.1.31-.15.49-.15.25,0,.51.08.78.24l-.26.7c-.19-.11-.37-.16-.56-.16-.17,0-.31.05-.45.15-.13.1-.23.24-.28.42-.08.27-.13.56-.13.88v2.34h-.76Z"/>
    </g>
    <line class="j" x1="336.36" y1="386.84" x2="481.11" y2="386.84"/>
    <polygon class="l" points="332.59 386.84 337.62 384.32 336.36 386.84 337.62 389.35 332.59 386.84"/>
    <polygon class="j" points="332.59 386.84 337.62 384.32 336.36 386.84 337.62 389.35 332.59 386.84"/>
    <polygon class="l" points="484.89 386.84 479.85 389.35 481.11 386.84 479.85 384.32 484.89 386.84"/>
    <polygon class="j" points="484.89 386.84 479.85 389.35 481.11 386.84 479.85 384.32 484.89 386.84"/>
    <rect class="k" x="363.78" y="382.16" width="89.87" height="9.35"/>
    <g>
      <path class="c" d="m364.21,387.86l.7-.09c.08.39.22.68.41.85.19.17.43.26.7.26.33,0,.6-.11.83-.34.23-.23.34-.51.34-.84s-.1-.58-.31-.79c-.21-.21-.47-.31-.8-.31-.13,0-.29.03-.49.08l.08-.61s.08,0,.11,0c.3,0,.56-.08.8-.23.24-.16.36-.39.36-.71,0-.25-.09-.47-.26-.63-.17-.17-.39-.25-.67-.25s-.5.08-.68.25c-.18.17-.3.42-.35.76l-.69-.12c.08-.47.28-.83.58-1.08.3-.26.68-.38,1.12-.38.31,0,.59.07.85.2.26.13.46.31.6.54.14.23.21.47.21.73,0,.24-.07.47-.2.67-.13.2-.33.36-.58.48.33.08.59.24.78.48.19.24.28.55.28.91,0,.49-.18.91-.54,1.26s-.82.52-1.37.52c-.5,0-.91-.15-1.24-.44s-.52-.68-.56-1.15Z"/>
      <path class="c" d="m368.99,389.35v-.79h.79v.79h-.79Z"/>
      <path class="c" d="m373.32,389.35v-5.66h3.82v.67h-3.07v1.75h2.66v.67h-2.66v2.57h-.75Z"/>
      <path class="c" d="m378.01,389.35v-5.66h.7v5.66h-.7Z"/>
      <path class="c" d="m379.52,387.3c0-.76.21-1.32.63-1.69.35-.3.78-.46,1.29-.46.56,0,1.03.18,1.38.55s.54.88.54,1.53c0,.53-.08.94-.24,1.25-.16.3-.39.54-.69.71-.3.17-.63.25-.99.25-.57,0-1.04-.18-1.39-.55-.35-.37-.53-.9-.53-1.59Zm.71,0c0,.53.11.92.34,1.18.23.26.52.39.86.39s.63-.13.86-.39c.23-.26.34-.66.34-1.2,0-.51-.12-.89-.35-1.15-.23-.26-.52-.39-.86-.39s-.64.13-.86.39c-.23.26-.34.65-.34,1.18Z"/>
      <path class="c" d="m384.93,389.35l-1.25-4.1h.72l.65,2.37.24.88s.08-.33.21-.85l.65-2.4h.71l.61,2.38.21.78.24-.79.7-2.37h.68l-1.28,4.1h-.72l-.65-2.46-.16-.7-.83,3.16h-.73Z"/>
      <path class="c" d="m396.21,387.37l.75.19c-.16.62-.44,1.08-.85,1.41-.41.32-.91.48-1.5.48s-1.11-.12-1.49-.37c-.38-.25-.67-.61-.87-1.08-.2-.47-.3-.98-.3-1.52,0-.59.11-1.1.34-1.54.23-.44.55-.77.96-1,.42-.23.87-.34,1.37-.34.57,0,1.04.14,1.43.43.39.29.65.69.81,1.22l-.74.17c-.13-.41-.32-.71-.57-.9-.25-.19-.56-.28-.94-.28-.44,0-.8.1-1.09.31-.29.21-.5.49-.62.84s-.18.71-.18,1.09c0,.48.07.9.21,1.26.14.36.36.63.66.81.3.18.62.27.96.27.42,0,.78-.12,1.07-.36s.49-.6.59-1.08Z"/>
      <path class="c" d="m397.54,387.3c0-.76.21-1.32.63-1.69.35-.3.78-.46,1.29-.46.56,0,1.03.18,1.38.55s.54.88.54,1.53c0,.53-.08.94-.24,1.25-.16.3-.39.54-.69.71-.3.17-.63.25-.99.25-.57,0-1.04-.18-1.39-.55-.35-.37-.53-.9-.53-1.59Zm.71,0c0,.53.11.92.34,1.18.23.26.52.39.86.39s.63-.13.86-.39c.23-.26.34-.66.34-1.2,0-.51-.12-.89-.35-1.15-.23-.26-.52-.39-.86-.39s-.64.13-.86.39c-.23.26-.34.65-.34,1.18Z"/>
      <path class="c" d="m402.2,389.35v-4.1h.63v.58c.3-.45.74-.68,1.3-.68.25,0,.47.04.68.13s.36.21.47.35c.1.14.17.32.22.51.03.13.04.35.04.68v2.52h-.7v-2.5c0-.28-.03-.49-.08-.63s-.15-.25-.29-.34-.3-.13-.48-.13c-.3,0-.55.09-.77.28-.21.19-.32.54-.32,1.07v2.24h-.7Z"/>
      <path class="c" d="m408.11,388.73l.1.61c-.2.04-.37.06-.53.06-.25,0-.45-.04-.59-.12-.14-.08-.24-.18-.29-.32-.06-.13-.08-.4-.08-.82v-2.36h-.51v-.54h.51v-1.02l.69-.42v1.43h.7v.54h-.7v2.4c0,.2.01.33.04.38s.06.1.12.14c.05.03.13.05.24.05.08,0,.18,0,.3-.03Z"/>
      <path class="c" d="m408.78,389.35v-4.1h.63v.62c.16-.29.31-.48.44-.58.13-.09.28-.14.45-.14.23,0,.47.07.71.22l-.24.64c-.17-.1-.34-.15-.51-.15-.15,0-.29.05-.41.14-.12.09-.21.22-.26.38-.08.25-.12.52-.12.81v2.15h-.7Z"/>
      <path class="c" d="m411.17,387.3c0-.76.21-1.32.63-1.69.35-.3.78-.46,1.29-.46.56,0,1.03.18,1.38.55s.54.88.54,1.53c0,.53-.08.94-.24,1.25-.16.3-.39.54-.69.71-.3.17-.63.25-.99.25-.57,0-1.04-.18-1.39-.55-.35-.37-.53-.9-.53-1.59Zm.71,0c0,.53.11.92.34,1.18.23.26.52.39.86.39s.63-.13.86-.39c.23-.26.34-.66.34-1.2,0-.51-.12-.89-.35-1.15-.23-.26-.52-.39-.86-.39s-.64.13-.86.39c-.23.26-.34.65-.34,1.18Z"/>
      <path class="c" d="m415.81,389.35v-5.66h.7v5.66h-.7Z"/>
      <path class="c" d="m419.87,389.35v-5.66h1.95c.44,0,.78.03,1.01.08.32.07.6.21.83.41.3.25.52.58.67.97.15.39.22.84.22,1.35,0,.43-.05.81-.15,1.14-.1.33-.23.61-.39.83-.16.22-.33.39-.52.51-.19.12-.41.22-.68.28s-.57.1-.91.1h-2.04Zm.75-.67h1.21c.37,0,.67-.04.88-.1.21-.07.38-.17.51-.29.18-.18.32-.42.42-.72.1-.3.15-.66.15-1.09,0-.59-.1-1.05-.29-1.37-.19-.32-.43-.53-.71-.64-.2-.08-.52-.12-.97-.12h-1.19v4.33Z"/>
      <path class="c" d="m428.3,388.03l.72.09c-.11.42-.32.75-.63.98-.31.23-.7.35-1.17.35-.6,0-1.08-.18-1.43-.55-.35-.37-.53-.89-.53-1.55s.18-1.23.53-1.61.82-.57,1.38-.57,1,.19,1.34.56.52.9.52,1.58c0,.04,0,.1,0,.19h-3.06c.03.45.15.8.38,1.04.23.24.52.36.86.36.25,0,.47-.07.65-.2.18-.13.32-.35.43-.64Zm-2.28-1.12h2.29c-.03-.34-.12-.6-.26-.78-.22-.27-.51-.4-.86-.4-.32,0-.59.11-.81.32s-.34.5-.36.86Z"/>
      <path class="c" d="m432.56,387.85l.68.09c-.08.47-.27.84-.57,1.11-.31.27-.69.4-1.13.4-.56,0-1.01-.18-1.35-.55-.34-.37-.51-.89-.51-1.58,0-.44.07-.83.22-1.16.15-.33.37-.58.67-.75.3-.17.63-.25.98-.25.45,0,.81.11,1.09.34.28.22.46.54.54.96l-.68.1c-.06-.28-.18-.48-.34-.62-.16-.14-.36-.21-.59-.21-.35,0-.63.12-.85.38s-.33.65-.33,1.19.11.95.32,1.2.49.38.83.38c.27,0,.5-.08.68-.25.18-.17.3-.42.35-.77Z"/>
      <path class="c" d="m433.85,384.49v-.8h.7v.8h-.7Zm0,4.86v-4.1h.7v4.1h-.7Z"/>
      <path class="c" d="m435.32,388.13l.69-.11c.04.28.15.49.32.63.18.15.42.22.74.22s.56-.07.71-.2.23-.28.23-.46c0-.16-.07-.28-.21-.37-.1-.06-.33-.14-.71-.24-.51-.13-.86-.24-1.06-.33-.2-.09-.35-.22-.45-.39s-.15-.35-.15-.55c0-.18.04-.35.13-.51.08-.16.2-.29.34-.39.11-.08.26-.15.44-.2.19-.06.39-.08.6-.08.32,0,.6.05.85.14s.42.22.54.38c.12.16.2.37.24.64l-.68.09c-.03-.21-.12-.38-.27-.49-.15-.12-.36-.18-.63-.18-.32,0-.55.05-.68.16-.14.11-.21.23-.21.37,0,.09.03.17.08.24.06.07.15.14.27.18.07.03.27.08.61.18.49.13.83.24,1.03.32.2.08.35.21.46.36.11.16.17.36.17.59s-.07.45-.2.66c-.14.2-.33.36-.59.47s-.54.17-.86.17c-.53,0-.94-.11-1.22-.33s-.46-.55-.54-.99Z"/>
      <path class="c" d="m439.56,384.49v-.8h.69v.8h-.69Zm0,4.86v-4.1h.69v4.1h-.69Z"/>
      <path class="c" d="m441.05,387.3c0-.76.21-1.32.63-1.69.35-.3.78-.46,1.29-.46.56,0,1.02.18,1.38.55.36.37.54.88.54,1.53,0,.53-.08.94-.24,1.25s-.39.54-.69.71-.63.25-.99.25c-.57,0-1.04-.18-1.39-.55-.35-.37-.53-.9-.53-1.59Zm.71,0c0,.53.11.92.34,1.18.23.26.52.39.87.39s.63-.13.86-.39c.23-.26.34-.66.34-1.2,0-.51-.12-.89-.35-1.15-.23-.26-.52-.39-.86-.39s-.64.13-.87.39-.34.65-.34,1.18Z"/>
      <path class="c" d="m445.71,389.35v-4.1h.62v.58c.3-.45.74-.68,1.31-.68.25,0,.47.04.68.13.21.09.36.21.46.35.1.14.17.32.22.51.03.13.04.35.04.68v2.52h-.7v-2.5c0-.28-.03-.49-.08-.63-.05-.14-.15-.25-.29-.34s-.3-.13-.49-.13c-.3,0-.55.09-.77.28-.22.19-.32.54-.32,1.07v2.24h-.69Z"/>
      <path class="c" d="m449.83,388.13l.69-.11c.04.28.15.49.32.63.18.15.42.22.74.22s.56-.07.71-.2.23-.28.23-.46c0-.16-.07-.28-.21-.37-.09-.06-.33-.14-.71-.24-.51-.13-.86-.24-1.06-.33-.2-.09-.35-.22-.45-.39s-.15-.35-.15-.55c0-.18.04-.35.12-.51.08-.16.2-.29.34-.39.11-.08.26-.15.44-.2.19-.06.39-.08.6-.08.32,0,.6.05.85.14s.42.22.54.38c.12.16.2.37.24.64l-.68.09c-.03-.21-.12-.38-.27-.49-.15-.12-.36-.18-.63-.18-.32,0-.55.05-.68.16s-.2.23-.2.37c0,.09.03.17.08.24.06.07.14.14.27.18.07.03.27.08.61.18.49.13.83.24,1.03.32.19.08.35.21.46.36.11.16.17.36.17.59s-.07.45-.2.66c-.13.2-.33.36-.58.47s-.54.17-.87.17c-.53,0-.94-.11-1.22-.33-.28-.22-.46-.55-.54-.99Z"/>
    </g>
    <polygon class="d" points="16.51 120.97 16.51 113.47 117.77 113.47 117.77 106.9 137.3 117.22 117.77 127.54 117.77 120.97 16.51 120.97"/>
    <rect class="k" x="64.62" y="101.76" width="38.11" height="9.35"/>
    <g>
      <path class="c" d="m67.5,108.95h-.69v-4.43c-.17.16-.39.32-.66.48-.27.16-.51.28-.73.36v-.67c.39-.18.73-.4,1.02-.66.29-.26.5-.51.62-.76h.45v5.68Z"/>
      <path class="c" d="m69.67,108.95v-.79h.79v.79h-.79Z"/>
      <path class="c" d="m73.96,108.95v-5.66h2.51c.5,0,.89.05,1.15.15s.47.28.63.54c.16.26.24.54.24.85,0,.4-.13.74-.39,1.02s-.66.45-1.21.52c.2.1.35.19.45.28.22.2.43.45.62.75l.98,1.54h-.94l-.75-1.18c-.22-.34-.4-.6-.54-.78-.14-.18-.27-.31-.38-.38-.11-.07-.23-.12-.34-.15-.08-.02-.22-.03-.42-.03h-.87v2.51h-.75Zm.75-3.16h1.61c.34,0,.61-.04.8-.11.19-.07.34-.18.44-.34.1-.16.15-.33.15-.51,0-.27-.1-.49-.29-.66-.19-.17-.5-.26-.92-.26h-1.79v1.87Z"/>
      <path class="c" d="m82.38,107.63l.72.09c-.11.42-.32.75-.63.98-.31.23-.7.35-1.17.35-.6,0-1.08-.18-1.43-.55-.35-.37-.53-.89-.53-1.55s.18-1.23.53-1.61.82-.57,1.38-.57,1,.19,1.34.56.52.9.52,1.58c0,.04,0,.1,0,.19h-3.06c.03.45.15.8.38,1.04.23.24.52.36.86.36.25,0,.47-.07.65-.2.18-.13.32-.35.43-.64Zm-2.28-1.12h2.29c-.03-.34-.12-.6-.26-.78-.22-.27-.51-.4-.86-.4-.32,0-.59.11-.81.32s-.34.5-.36.86Z"/>
      <path class="c" d="m86.59,110.52v-2.01c-.11.15-.26.28-.45.38-.19.1-.4.15-.62.15-.49,0-.91-.19-1.26-.58s-.53-.92-.53-1.6c0-.41.07-.78.21-1.11s.35-.58.62-.74c.27-.17.57-.25.89-.25.51,0,.91.21,1.2.64v-.55h.62v5.67h-.69Zm-2.14-3.63c0,.53.11.92.33,1.19.22.26.49.4.8.4s.55-.13.76-.38c.21-.25.32-.63.32-1.14,0-.55-.11-.96-.34-1.23s-.49-.41-.79-.41-.56.13-.77.38c-.21.26-.31.66-.31,1.2Z"/>
      <path class="c" d="m91.06,108.95v-.6c-.32.46-.75.7-1.3.7-.24,0-.47-.05-.68-.14-.21-.09-.37-.21-.47-.35-.1-.14-.17-.31-.21-.52-.03-.14-.04-.35-.04-.65v-2.54h.7v2.28c0,.36.01.61.04.73.04.18.14.33.28.43s.32.16.53.16.4-.05.59-.16c.18-.11.31-.25.39-.44.08-.18.11-.45.11-.8v-2.2h.69v4.1h-.62Z"/>
      <path class="c" d="m95.58,107.63l.72.09c-.11.42-.32.75-.63.98-.31.23-.7.35-1.17.35-.6,0-1.08-.18-1.43-.55-.35-.37-.53-.89-.53-1.55s.18-1.23.53-1.61.82-.57,1.38-.57,1,.19,1.34.56.52.9.52,1.58c0,.04,0,.1,0,.19h-3.06c.03.45.15.8.38,1.04.23.24.52.36.86.36.25,0,.47-.07.65-.2.18-.13.32-.35.43-.64Zm-2.28-1.12h2.29c-.03-.34-.12-.6-.26-.78-.22-.27-.51-.4-.86-.4-.32,0-.59.11-.81.32s-.34.5-.36.86Z"/>
      <path class="c" d="m96.89,107.73l.69-.11c.04.28.15.49.32.63.18.15.42.22.74.22s.56-.07.71-.2.23-.28.23-.46c0-.16-.07-.28-.21-.37-.09-.06-.33-.14-.71-.24-.51-.13-.86-.24-1.06-.33-.2-.09-.35-.22-.45-.39s-.15-.35-.15-.55c0-.18.04-.35.12-.51.08-.16.2-.29.34-.39.11-.08.26-.15.44-.2.19-.06.39-.08.6-.08.32,0,.6.05.85.14s.42.22.54.38c.12.16.2.37.24.64l-.68.09c-.03-.21-.12-.38-.27-.49-.15-.12-.36-.18-.63-.18-.32,0-.55.05-.68.16s-.2.23-.2.37c0,.09.03.17.08.24.06.07.14.14.27.18.07.03.27.08.61.18.49.13.83.24,1.03.32.19.08.35.21.46.36.11.16.17.36.17.59s-.07.45-.2.66c-.13.2-.33.36-.58.47s-.54.17-.87.17c-.53,0-.94-.11-1.22-.33-.28-.22-.46-.55-.54-.99Z"/>
      <path class="c" d="m102.64,108.33l.1.61c-.2.04-.37.06-.53.06-.25,0-.45-.04-.59-.12-.14-.08-.24-.18-.29-.32-.06-.13-.08-.4-.08-.82v-2.36h-.51v-.54h.51v-1.02l.69-.42v1.43h.7v.54h-.7v2.4c0,.2.01.33.04.38s.06.1.12.14c.05.03.13.05.24.05.08,0,.18,0,.3-.03Z"/>
    </g>
    <polygon class="d" points="137.3 221.31 137.3 228.82 36.04 228.82 36.04 235.39 16.51 225.07 36.04 214.74 36.04 221.31 137.3 221.31"/>
    <rect class="k" x="59.65" y="229.74" width="43.86" height="9.35"/>
    <g>
      <path class="c" d="m59.71,235.45l.73-.06c.05.36.18.62.38.8.2.18.43.27.71.27.33,0,.62-.13.85-.38s.35-.59.35-1-.11-.71-.33-.94-.51-.34-.88-.34c-.22,0-.43.05-.61.15-.18.1-.32.23-.42.4l-.65-.08.55-2.91h2.82v.66h-2.26l-.31,1.52c.34-.24.7-.36,1.07-.36.49,0,.91.17,1.25.51.34.34.51.78.51,1.32s-.15.96-.45,1.33c-.36.46-.86.69-1.49.69-.51,0-.94-.14-1.26-.43-.33-.29-.51-.67-.56-1.15Z"/>
      <path class="c" d="m64.5,236.93v-.79h.79v.79h-.79Z"/>
      <path class="c" d="m68.8,236.93v-5.66h2.51c.5,0,.89.05,1.15.15s.47.28.63.54c.16.26.24.54.24.85,0,.4-.13.74-.39,1.02s-.66.45-1.21.52c.2.1.35.19.45.28.22.2.43.45.62.75l.98,1.54h-.94l-.75-1.18c-.22-.34-.4-.6-.54-.78-.14-.18-.27-.31-.38-.38-.11-.07-.23-.12-.34-.15-.08-.02-.22-.03-.42-.03h-.87v2.51h-.75Zm.75-3.16h1.61c.34,0,.61-.04.8-.11.19-.07.34-.18.44-.34.1-.16.15-.33.15-.51,0-.27-.1-.49-.29-.66-.19-.17-.5-.26-.92-.26h-1.79v1.87Z"/>
      <path class="c" d="m77.21,235.61l.72.09c-.11.42-.32.75-.63.98-.31.23-.7.35-1.17.35-.6,0-1.08-.18-1.43-.55-.35-.37-.53-.89-.53-1.55s.18-1.23.53-1.61.82-.57,1.38-.57,1,.19,1.34.56.52.9.52,1.58c0,.04,0,.1,0,.19h-3.06c.03.45.15.8.38,1.04.23.24.52.36.86.36.25,0,.47-.07.65-.2.18-.13.32-.35.43-.64Zm-2.28-1.12h2.29c-.03-.34-.12-.6-.26-.78-.22-.27-.51-.4-.86-.4-.32,0-.59.11-.81.32s-.34.5-.36.86Z"/>
      <path class="c" d="m78.53,235.71l.69-.11c.04.28.15.49.32.63.18.15.42.22.74.22s.56-.07.71-.2.23-.28.23-.46c0-.16-.07-.28-.21-.37-.09-.06-.33-.14-.71-.24-.51-.13-.86-.24-1.06-.33-.2-.09-.35-.22-.45-.39s-.15-.35-.15-.55c0-.18.04-.35.12-.51.08-.16.2-.29.34-.39.11-.08.26-.15.44-.2.19-.06.39-.08.6-.08.32,0,.6.05.85.14s.42.22.54.38c.12.16.2.37.24.64l-.68.09c-.03-.21-.12-.38-.27-.49-.15-.12-.36-.18-.63-.18-.32,0-.55.05-.68.16s-.2.23-.2.37c0,.09.03.17.08.24.06.07.14.14.27.18.07.03.27.08.61.18.49.13.83.24,1.03.32.19.08.35.21.46.36.11.16.17.36.17.59s-.07.45-.2.66c-.13.2-.33.36-.58.47s-.54.17-.87.17c-.53,0-.94-.11-1.22-.33-.28-.22-.46-.55-.54-.99Z"/>
      <path class="c" d="m82.76,238.5v-5.67h.63v.53c.15-.21.32-.37.51-.47.19-.1.42-.16.68-.16.35,0,.66.09.93.27.27.18.47.43.61.76.14.33.21.69.21,1.08,0,.42-.08.8-.23,1.13-.15.34-.37.59-.66.77s-.59.27-.91.27c-.23,0-.44-.05-.62-.15-.18-.1-.34-.22-.45-.37v2h-.7Zm.63-3.6c0,.53.11.92.32,1.17.21.25.47.38.78.38s.57-.13.79-.39c.22-.26.33-.67.33-1.21s-.11-.91-.32-1.17c-.21-.26-.47-.39-.77-.39s-.56.14-.79.42c-.23.28-.34.68-.34,1.21Z"/>
      <path class="c" d="m86.9,234.88c0-.76.21-1.32.63-1.69.35-.3.78-.46,1.29-.46.56,0,1.03.18,1.38.55s.54.88.54,1.53c0,.53-.08.94-.24,1.25-.16.3-.39.54-.69.71-.3.17-.63.25-.99.25-.57,0-1.04-.18-1.39-.55-.35-.37-.53-.9-.53-1.59Zm.71,0c0,.53.11.92.34,1.18.23.26.52.39.86.39s.63-.13.86-.39c.23-.26.34-.66.34-1.2,0-.51-.12-.89-.35-1.15-.23-.26-.52-.39-.86-.39s-.64.13-.86.39c-.23.26-.34.65-.34,1.18Z"/>
      <path class="c" d="m91.56,236.93v-4.1h.63v.58c.3-.45.74-.68,1.3-.68.25,0,.47.04.68.13s.36.21.47.35c.1.14.17.32.22.51.03.13.04.35.04.68v2.52h-.7v-2.5c0-.28-.03-.49-.08-.63s-.15-.25-.29-.34-.3-.13-.48-.13c-.3,0-.55.09-.77.28-.21.19-.32.54-.32,1.07v2.24h-.7Z"/>
      <path class="c" d="m95.68,235.71l.69-.11c.04.28.15.49.32.63.18.15.42.22.74.22s.56-.07.71-.2.23-.28.23-.46c0-.16-.07-.28-.21-.37-.1-.06-.33-.14-.71-.24-.51-.13-.86-.24-1.06-.33-.2-.09-.35-.22-.45-.39s-.15-.35-.15-.55c0-.18.04-.35.13-.51.08-.16.2-.29.34-.39.11-.08.26-.15.44-.2.19-.06.39-.08.6-.08.32,0,.6.05.85.14s.42.22.54.38c.12.16.2.37.24.64l-.68.09c-.03-.21-.12-.38-.27-.49-.15-.12-.36-.18-.63-.18-.32,0-.55.05-.68.16-.14.11-.21.23-.21.37,0,.09.03.17.08.24.06.07.15.14.27.18.07.03.27.08.61.18.49.13.83.24,1.03.32.2.08.35.21.46.36.11.16.17.36.17.59s-.07.45-.2.66c-.14.2-.33.36-.59.47s-.54.17-.86.17c-.53,0-.94-.11-1.22-.33s-.46-.55-.54-.99Z"/>
      <path class="c" d="m102.72,235.61l.72.09c-.11.42-.32.75-.63.98s-.7.35-1.17.35c-.6,0-1.08-.18-1.43-.55-.35-.37-.53-.89-.53-1.55s.18-1.23.53-1.61c.35-.38.82-.57,1.38-.57s1,.19,1.34.56.52.9.52,1.58c0,.04,0,.1,0,.19h-3.06c.03.45.15.8.38,1.04.23.24.51.36.86.36.25,0,.47-.07.65-.2.18-.13.32-.35.43-.64Zm-2.28-1.12h2.29c-.03-.34-.12-.6-.26-.78-.22-.27-.51-.4-.86-.4-.32,0-.59.11-.8.32-.22.21-.34.5-.36.86Z"/>
    </g>
    <path class="e" d="m150.6,63.3h189.81c.85,0,1.69.08,2.52.25.83.17,1.64.41,2.43.74.79.33,1.53.72,2.24,1.2.71.47,1.36,1.01,1.96,1.61.6.6,1.14,1.25,1.61,1.96.47.71.87,1.45,1.2,2.24.33.79.57,1.59.74,2.43.17.83.25,1.68.25,2.52v189.81c0,.85-.08,1.69-.25,2.52-.17.83-.41,1.64-.74,2.43s-.72,1.53-1.2,2.24c-.47.71-1.01,1.36-1.61,1.96-.6.6-1.25,1.14-1.96,1.61-.71.47-1.45.87-2.24,1.2-.79.33-1.59.57-2.43.74-.83.17-1.68.25-2.52.25h-189.81c-.85,0-1.69-.08-2.52-.25-.83-.17-1.64-.41-2.43-.74-.79-.33-1.53-.72-2.24-1.2-.71-.47-1.36-1.01-1.96-1.61-.6-.6-1.14-1.25-1.61-1.96-.47-.71-.87-1.45-1.2-2.24s-.57-1.59-.74-2.43c-.17-.83-.25-1.68-.25-2.52V76.24c0-.85.08-1.69.25-2.52.17-.83.41-1.64.74-2.43.33-.79.72-1.53,1.2-2.24.47-.71,1.01-1.36,1.61-1.96.6-.6,1.25-1.14,1.96-1.61.71-.47,1.45-.87,2.24-1.2.79-.33,1.59-.57,2.43-.74.83-.17,1.68-.25,2.52-.25Z"/>
    <path class="i" d="m150.6,63.3h189.81c.85,0,1.69.08,2.52.25.83.17,1.64.41,2.43.74.79.33,1.53.72,2.24,1.2.71.47,1.36,1.01,1.96,1.61.6.6,1.14,1.25,1.61,1.96.47.71.87,1.45,1.2,2.24.33.79.57,1.59.74,2.43.17.83.25,1.68.25,2.52v189.81c0,.85-.08,1.69-.25,2.52-.17.83-.41,1.64-.74,2.43s-.72,1.53-1.2,2.24c-.47.71-1.01,1.36-1.61,1.96-.6.6-1.25,1.14-1.96,1.61-.71.47-1.45.87-2.24,1.2-.79.33-1.59.57-2.43.74-.83.17-1.68.25-2.52.25h-189.81c-.85,0-1.69-.08-2.52-.25-.83-.17-1.64-.41-2.43-.74-.79-.33-1.53-.72-2.24-1.2-.71-.47-1.36-1.01-1.96-1.61-.6-.6-1.14-1.25-1.61-1.96-.47-.71-.87-1.45-1.2-2.24s-.57-1.59-.74-2.43c-.17-.83-.25-1.68-.25-2.52V76.24c0-.85.08-1.69.25-2.52.17-.83.41-1.64.74-2.43.33-.79.72-1.53,1.2-2.24.47-.71,1.01-1.36,1.61-1.96.6-.6,1.25-1.14,1.96-1.61.71-.47,1.45-.87,2.24-1.2.79-.33,1.59-.57,2.43-.74.83-.17,1.68-.25,2.52-.25Z"/>
    <g>
      <path class="c" d="m224.02,83.07l2.37-6.18h.88l2.53,6.18h-.93l-.72-1.87h-2.58l-.68,1.87h-.87Zm1.78-2.54h2.09l-.64-1.71c-.2-.52-.34-.95-.44-1.28-.08.4-.19.79-.33,1.18l-.68,1.81Z"/>
      <path class="c" d="m230.36,84.78v-6.19h.69v.58c.16-.23.35-.4.55-.51.21-.11.45-.17.75-.17.38,0,.72.1,1.01.29s.51.47.66.83c.15.36.22.75.22,1.18,0,.46-.08.87-.25,1.24-.17.37-.4.65-.72.84-.31.2-.64.29-.99.29-.25,0-.48-.05-.68-.16-.2-.11-.37-.24-.5-.41v2.18h-.76Zm.69-3.93c0,.58.12,1,.35,1.28.23.28.52.41.85.41s.63-.14.87-.43c.24-.29.36-.73.36-1.32s-.12-1-.35-1.28c-.23-.28-.51-.43-.84-.43s-.61.15-.86.45c-.25.3-.37.74-.37,1.32Z"/>
      <path class="c" d="m235.16,84.78v-6.19h.69v.58c.16-.23.35-.4.55-.51.21-.11.45-.17.75-.17.38,0,.72.1,1.01.29.29.2.51.47.66.83.15.36.22.75.22,1.18,0,.46-.08.87-.25,1.24s-.4.65-.72.84c-.31.2-.64.29-.99.29-.25,0-.48-.05-.68-.16-.2-.11-.37-.24-.49-.41v2.18h-.76Zm.69-3.93c0,.58.12,1,.35,1.28.23.28.52.41.85.41s.63-.14.87-.43.36-.73.36-1.32-.12-1-.35-1.28c-.24-.28-.52-.43-.84-.43s-.61.15-.86.45c-.25.3-.37.74-.37,1.32Z"/>
      <path class="c" d="m239.94,83.07v-6.18h.76v6.18h-.76Z"/>
      <path class="c" d="m241.88,77.77v-.87h.76v.87h-.76Zm0,5.3v-4.47h.76v4.47h-.76Z"/>
      <path class="c" d="m246.71,81.43l.75.1c-.08.51-.29.92-.62,1.21-.34.29-.75.44-1.24.44-.61,0-1.1-.2-1.48-.6s-.56-.97-.56-1.72c0-.48.08-.91.24-1.27s.4-.63.73-.82c.33-.18.68-.27,1.07-.27.49,0,.88.12,1.19.37.31.25.51.59.59,1.05l-.74.11c-.07-.3-.19-.53-.37-.68-.18-.15-.39-.23-.65-.23-.38,0-.69.14-.93.41-.24.27-.36.71-.36,1.3s.12,1.04.35,1.31c.23.27.53.41.9.41.3,0,.55-.09.75-.27.2-.18.33-.46.38-.84Z"/>
      <path class="c" d="m251.02,82.52c-.28.24-.55.41-.81.51-.26.1-.54.15-.84.15-.49,0-.87-.12-1.13-.36s-.4-.55-.4-.92c0-.22.05-.42.15-.6.1-.18.23-.33.39-.44.16-.11.34-.19.54-.25.15-.04.37-.08.67-.11.61-.07,1.06-.16,1.35-.26,0-.1,0-.17,0-.2,0-.31-.07-.53-.21-.65-.19-.17-.48-.26-.86-.26-.36,0-.62.06-.79.19-.17.12-.3.35-.38.66l-.74-.1c.07-.32.18-.57.33-.77.15-.2.38-.35.67-.45s.63-.16,1.02-.16.69.04.93.13c.24.09.41.2.53.34.11.14.19.31.24.52.03.13.04.36.04.7v1.01c0,.71.02,1.15.05,1.34s.1.37.19.54h-.79c-.08-.16-.13-.34-.15-.55Zm-.06-1.69c-.27.11-.69.21-1.24.29-.31.04-.53.1-.66.15-.13.06-.23.14-.3.25-.07.11-.11.23-.11.36,0,.2.08.37.23.5s.38.2.67.2.55-.06.78-.19.39-.3.5-.52c.08-.17.12-.42.12-.76v-.28Z"/>
      <path class="c" d="m254.56,82.39l.11.67c-.21.04-.41.07-.57.07-.28,0-.49-.04-.64-.13-.15-.09-.26-.2-.32-.34-.06-.14-.09-.44-.09-.9v-2.57h-.56v-.59h.56v-1.11l.75-.46v1.56h.76v.59h-.76v2.62c0,.22.01.35.04.42.03.06.07.11.13.15.06.04.15.05.26.05.08,0,.2,0,.33-.03Z"/>
      <path class="c" d="m255.3,77.77v-.87h.76v.87h-.76Zm0,5.3v-4.47h.76v4.47h-.76Z"/>
      <path class="c" d="m256.93,80.83c0-.83.23-1.44.69-1.84.38-.33.85-.5,1.41-.5.62,0,1.12.2,1.51.6.39.4.59.96.59,1.67,0,.58-.09,1.03-.26,1.36-.17.33-.42.59-.75.77s-.69.27-1.08.27c-.63,0-1.13-.2-1.52-.6-.39-.4-.58-.98-.58-1.74Zm.78,0c0,.57.12,1,.38,1.29s.56.43.94.43.69-.14.94-.43.38-.72.38-1.31c0-.55-.13-.97-.38-1.26-.25-.29-.56-.43-.94-.43s-.69.14-.94.43c-.25.28-.38.71-.38,1.28Z"/>
      <path class="c" d="m262.01,83.07v-4.47h.68v.64c.33-.49.8-.74,1.42-.74.27,0,.52.05.74.15.23.1.4.22.51.38s.19.34.24.56c.03.14.04.39.04.74v2.75h-.76v-2.72c0-.31-.03-.54-.09-.69-.06-.15-.16-.28-.31-.37-.15-.09-.33-.14-.53-.14-.32,0-.6.1-.84.31s-.35.59-.35,1.17v2.44h-.76Z"/>
    </g>
    <path class="k" d="m164.4,176.9h162.2c.34,0,.68.03,1.01.1.33.07.66.16.97.29.31.13.61.29.89.48.28.19.54.4.78.64s.45.5.64.78c.19.28.35.58.48.9.13.31.23.64.29.97.07.33.1.67.1,1.01v75.92c0,.34-.03.68-.1,1.01-.07.33-.16.66-.29.97-.13.31-.29.61-.48.89-.19.28-.4.54-.64.78-.24.24-.5.45-.78.64-.28.19-.58.35-.89.48-.31.13-.64.23-.97.29-.33.07-.67.1-1.01.1h-162.2c-.34,0-.68-.03-1.01-.1-.33-.07-.66-.16-.97-.29-.31-.13-.61-.29-.89-.48-.28-.19-.54-.4-.78-.64-.24-.24-.45-.5-.64-.78-.19-.28-.35-.58-.48-.9-.13-.31-.23-.64-.29-.97-.07-.33-.1-.67-.1-1.01v-75.92c0-.34.03-.68.1-1.01.07-.33.16-.66.29-.97.13-.31.29-.61.48-.9.19-.28.4-.54.64-.78.24-.24.5-.45.78-.64.28-.19.58-.35.89-.48.31-.13.64-.23.97-.29.33-.07.67-.1,1.01-.1Z"/>
    <path class="i" d="m164.4,176.9h162.2c.34,0,.68.03,1.01.1.33.07.66.16.97.29.31.13.61.29.89.48.28.19.54.4.78.64s.45.5.64.78c.19.28.35.58.48.9.13.31.23.64.29.97.07.33.1.67.1,1.01v75.92c0,.34-.03.68-.1,1.01-.07.33-.16.66-.29.97-.13.31-.29.61-.48.89-.19.28-.4.54-.64.78-.24.24-.5.45-.78.64-.28.19-.58.35-.89.48-.31.13-.64.23-.97.29-.33.07-.67.1-1.01.1h-162.2c-.34,0-.68-.03-1.01-.1-.33-.07-.66-.16-.97-.29-.31-.13-.61-.29-.89-.48-.28-.19-.54-.4-.78-.64-.24-.24-.45-.5-.64-.78-.19-.28-.35-.58-.48-.9-.13-.31-.23-.64-.29-.97-.07-.33-.1-.67-.1-1.01v-75.92c0-.34.03-.68.1-1.01.07-.33.16-.66.29-.97.13-.31.29-.61.48-.9.19-.28.4-.54.64-.78.24-.24.5-.45.78-.64.28-.19.58-.35.89-.48.31-.13.64-.23.97-.29.33-.07.67-.1,1.01-.1Z"/>
    <g>
      <path class="c" d="m234.5,220.57l.77-.07c.04.31.12.56.25.76s.34.36.62.48c.28.12.6.18.95.18.31,0,.59-.05.83-.14.24-.09.42-.22.53-.38.12-.16.17-.34.17-.53s-.06-.36-.17-.51-.3-.27-.56-.36c-.17-.06-.53-.17-1.1-.3-.57-.14-.96-.26-1.19-.39-.29-.15-.51-.35-.66-.58-.14-.23-.22-.49-.22-.77,0-.31.09-.6.27-.87.18-.27.44-.48.78-.62s.72-.21,1.13-.21c.46,0,.86.07,1.21.22s.62.36.81.65c.19.29.29.61.3.97l-.78.06c-.04-.39-.18-.69-.43-.88s-.6-.3-1.08-.3-.85.09-1.08.27c-.23.18-.34.4-.34.66,0,.22.08.4.24.55.16.14.57.29,1.23.44.66.15,1.12.28,1.37.39.36.17.62.38.8.63.17.25.26.55.26.88s-.09.64-.28.93c-.19.29-.46.52-.81.68-.35.16-.75.24-1.19.24-.56,0-1.03-.08-1.41-.24-.38-.16-.67-.41-.89-.74s-.33-.7-.34-1.11Z"/>
      <path class="c" d="m240.53,222.55v-6.18h2.13c.48,0,.85.03,1.1.09.35.08.66.23.91.44.33.28.57.63.73,1.06.16.43.24.92.24,1.47,0,.47-.05.88-.16,1.25s-.25.66-.42.9c-.17.24-.36.42-.56.56-.2.14-.45.24-.74.31s-.62.11-.99.11h-2.23Zm.82-.73h1.32c.41,0,.73-.04.96-.11.23-.08.42-.18.55-.32.19-.19.34-.45.45-.78.11-.33.16-.72.16-1.19,0-.65-.11-1.14-.32-1.49-.21-.35-.47-.58-.77-.7-.22-.08-.57-.13-1.06-.13h-1.3v4.72Z"/>
      <path class="c" d="m246.73,222.55v-6.18h.82v3.06l3.07-3.06h1.11l-2.59,2.5,2.7,3.67h-1.08l-2.2-3.13-1.01.99v2.14h-.82Z"/>
      <path class="c" d="m252.12,221.21l.75-.12c.04.3.16.53.35.69s.46.24.81.24.61-.07.78-.21c.17-.14.25-.31.25-.5,0-.17-.07-.31-.22-.4-.1-.07-.36-.15-.78-.26-.56-.14-.94-.26-1.16-.36s-.38-.25-.49-.43c-.11-.18-.17-.38-.17-.6,0-.2.05-.38.14-.55.09-.17.21-.31.37-.42.12-.09.28-.16.48-.22.2-.06.42-.09.66-.09.35,0,.66.05.92.15.27.1.46.24.59.41.13.17.21.4.26.69l-.74.1c-.03-.23-.13-.41-.29-.54-.16-.13-.39-.19-.68-.19-.35,0-.6.06-.75.17-.15.12-.22.25-.22.41,0,.1.03.19.09.26.06.08.16.15.29.2.08.03.3.09.67.19.54.14.91.26,1.12.35.21.09.38.22.5.4.12.17.18.39.18.65s-.07.49-.22.71c-.15.22-.36.4-.64.52s-.59.18-.94.18c-.58,0-1.02-.12-1.33-.36-.3-.24-.5-.6-.58-1.07Z"/>
    </g>
    <line class="j" x1="202.37" y1="339.12" x2="202.37" y2="263.17"/>
    <polygon class="l" points="202.37 342.89 199.85 337.86 202.37 339.12 204.88 337.86 202.37 342.89"/>
    <polygon class="j" points="202.37 342.89 199.85 337.86 202.37 339.12 204.88 337.86 202.37 342.89"/>
    <rect class="k" x="176.12" y="298.76" width="53.2" height="9.35"/>
    <g>
      <path class="c" d="m179.76,305.28v.67h-3.74c0-.17.02-.33.08-.48.09-.25.25-.51.46-.75.21-.25.51-.53.91-.86.62-.5,1.03-.9,1.25-1.2.22-.29.32-.57.32-.84s-.1-.51-.29-.7c-.2-.19-.45-.28-.77-.28-.33,0-.6.1-.8.3s-.3.48-.3.83l-.71-.07c.05-.53.23-.94.55-1.22s.75-.42,1.29-.42.97.15,1.29.45c.32.3.48.67.48,1.12,0,.23-.05.45-.14.67-.09.22-.25.45-.46.69-.21.24-.57.57-1.07,1-.42.35-.69.59-.8.71-.12.12-.22.25-.29.38h2.78Z"/>
      <path class="c" d="m180.89,305.95v-.79h.79v.79h-.79Z"/>
      <path class="c" d="m185.22,305.95v-5.66h3.82v.67h-3.07v1.75h2.66v.67h-2.66v2.57h-.75Z"/>
      <path class="c" d="m189.91,305.95v-5.66h.7v5.66h-.7Z"/>
      <path class="c" d="m191.42,303.9c0-.76.21-1.32.63-1.69.35-.3.78-.46,1.29-.46.56,0,1.02.18,1.38.55.36.37.54.88.54,1.53,0,.53-.08.94-.24,1.25s-.39.54-.69.71-.63.25-.99.25c-.57,0-1.04-.18-1.39-.55-.35-.37-.53-.9-.53-1.59Zm.71,0c0,.53.11.92.34,1.18.23.26.52.39.87.39s.63-.13.86-.39c.23-.26.34-.66.34-1.2,0-.51-.12-.89-.35-1.15-.23-.26-.52-.39-.86-.39s-.64.13-.87.39-.34.65-.34,1.18Z"/>
      <path class="c" d="m196.83,305.95l-1.26-4.1h.72l.65,2.37.24.88s.08-.33.21-.85l.65-2.4h.71l.61,2.38.21.78.24-.79.7-2.37h.68l-1.28,4.1h-.72l-.65-2.46-.16-.7-.83,3.16h-.73Z"/>
      <path class="c" d="m208.11,303.97l.75.19c-.16.62-.44,1.08-.85,1.41-.41.32-.91.48-1.5.48s-1.11-.12-1.49-.37c-.38-.25-.67-.61-.87-1.08s-.3-.98-.3-1.52c0-.59.11-1.1.34-1.54.22-.44.54-.77.96-1s.87-.34,1.37-.34c.57,0,1.04.14,1.43.43.39.29.66.69.81,1.22l-.74.17c-.13-.41-.32-.71-.57-.9-.25-.19-.56-.28-.94-.28-.43,0-.8.1-1.09.31-.29.21-.5.49-.62.84-.12.35-.18.71-.18,1.09,0,.48.07.9.21,1.26s.36.63.65.81c.3.18.62.27.96.27.42,0,.77-.12,1.07-.36s.49-.6.59-1.08Z"/>
      <path class="c" d="m209.44,303.9c0-.76.21-1.32.63-1.69.35-.3.78-.46,1.29-.46.56,0,1.02.18,1.38.55.36.37.54.88.54,1.53,0,.53-.08.94-.24,1.25s-.39.54-.69.71-.63.25-.99.25c-.57,0-1.04-.18-1.39-.55-.35-.37-.53-.9-.53-1.59Zm.71,0c0,.53.11.92.34,1.18.23.26.52.39.87.39s.63-.13.86-.39c.23-.26.34-.66.34-1.2,0-.51-.12-.89-.35-1.15-.23-.26-.52-.39-.86-.39s-.64.13-.87.39-.34.65-.34,1.18Z"/>
      <path class="c" d="m214.1,305.95v-4.1h.62v.58c.3-.45.74-.68,1.31-.68.25,0,.47.04.68.13.21.09.36.21.46.35.1.14.17.32.22.51.03.13.04.35.04.68v2.52h-.7v-2.5c0-.28-.03-.49-.08-.63-.05-.14-.15-.25-.29-.34s-.3-.13-.49-.13c-.3,0-.55.09-.77.28-.22.19-.32.54-.32,1.07v2.24h-.69Z"/>
      <path class="c" d="m220.01,305.33l.1.61c-.2.04-.37.06-.52.06-.25,0-.45-.04-.59-.12-.14-.08-.24-.18-.29-.32-.06-.13-.08-.4-.08-.82v-2.36h-.51v-.54h.51v-1.02l.69-.42v1.43h.7v.54h-.7v2.4c0,.2.01.33.04.38.03.06.06.1.12.14.06.03.13.05.24.05.08,0,.18,0,.31-.03Z"/>
      <path class="c" d="m220.68,305.95v-4.1h.62v.62c.16-.29.31-.48.44-.58s.28-.14.45-.14c.23,0,.47.07.71.22l-.24.64c-.17-.1-.34-.15-.51-.15-.15,0-.29.05-.41.14-.12.09-.21.22-.26.38-.08.25-.12.52-.12.81v2.15h-.69Z"/>
      <path class="c" d="m223.07,303.9c0-.76.21-1.32.63-1.69.35-.3.78-.46,1.29-.46.56,0,1.02.18,1.38.55.36.37.54.88.54,1.53,0,.53-.08.94-.24,1.25s-.39.54-.69.71-.63.25-.99.25c-.57,0-1.04-.18-1.39-.55-.35-.37-.53-.9-.53-1.59Zm.71,0c0,.53.11.92.34,1.18.23.26.52.39.87.39s.63-.13.86-.39c.23-.26.34-.66.34-1.2,0-.51-.12-.89-.35-1.15-.23-.26-.52-.39-.86-.39s-.64.13-.87.39-.34.65-.34,1.18Z"/>
      <path class="c" d="m227.71,305.95v-5.66h.7v5.66h-.7Z"/>
    </g>
    <line class="j" x1="288.64" y1="267.75" x2="288.64" y2="343.7"/>
    <polygon class="l" points="288.64 263.98 291.16 269.01 288.64 267.75 286.13 269.01 288.64 263.98"/>
    <polygon class="j" points="288.64 263.98 291.16 269.01 288.64 267.75 286.13 269.01 288.64 263.98"/>
    <rect class="k" x="257.37" y="298.76" width="62.55" height="9.35"/>
    <g>
      <path class="c" d="m260.22,305.95v-1.36h-2.46v-.64l2.58-3.67h.57v3.67h.76v.64h-.76v1.36h-.7Zm0-1.99v-2.55l-1.77,2.55h1.77Z"/>
      <path class="c" d="m262.78,305.95v-.79h.79v.79h-.79Z"/>
      <path class="c" d="m267.1,305.95v-5.66h3.82v.67h-3.07v1.75h2.66v.67h-2.66v2.57h-.75Z"/>
      <path class="c" d="m271.79,305.95v-5.66h.7v5.66h-.7Z"/>
      <path class="c" d="m273.3,303.9c0-.76.21-1.32.63-1.69.35-.3.78-.46,1.29-.46.56,0,1.03.18,1.38.55s.54.88.54,1.53c0,.53-.08.94-.24,1.25-.16.3-.39.54-.69.71-.3.17-.63.25-.99.25-.57,0-1.04-.18-1.39-.55-.35-.37-.53-.9-.53-1.59Zm.71,0c0,.53.11.92.34,1.18.23.26.52.39.86.39s.63-.13.86-.39c.23-.26.34-.66.34-1.2,0-.51-.12-.89-.35-1.15-.23-.26-.52-.39-.86-.39s-.64.13-.86.39c-.23.26-.34.65-.34,1.18Z"/>
      <path class="c" d="m278.72,305.95l-1.25-4.1h.72l.65,2.37.24.88s.08-.33.21-.85l.65-2.4h.71l.61,2.38.21.78.24-.79.7-2.37h.68l-1.28,4.1h-.72l-.65-2.46-.16-.7-.83,3.16h-.73Z"/>
      <path class="c" d="m285.96,305.95v-5.66h1.95c.44,0,.78.03,1.01.08.32.07.6.21.83.41.3.25.52.58.67.97.15.39.22.84.22,1.35,0,.43-.05.81-.15,1.14s-.23.61-.39.83c-.16.22-.33.39-.52.51-.19.12-.41.22-.68.28-.26.06-.57.1-.91.1h-2.04Zm.75-.67h1.21c.37,0,.67-.04.88-.1.21-.07.38-.17.51-.29.18-.18.32-.42.42-.72.1-.3.15-.66.15-1.09,0-.59-.1-1.05-.29-1.37-.19-.32-.43-.53-.71-.64-.2-.08-.52-.12-.97-.12h-1.19v4.33Z"/>
      <path class="c" d="m294.39,304.63l.72.09c-.11.42-.32.75-.63.98s-.7.35-1.17.35c-.6,0-1.08-.18-1.43-.55-.35-.37-.53-.89-.53-1.55s.18-1.23.53-1.61c.35-.38.82-.57,1.38-.57s1,.19,1.34.56.52.9.52,1.58c0,.04,0,.1,0,.19h-3.06c.03.45.15.8.38,1.04.23.24.51.36.86.36.25,0,.47-.07.65-.2.18-.13.32-.35.43-.64Zm-2.28-1.12h2.29c-.03-.34-.12-.6-.26-.78-.22-.27-.51-.4-.86-.4-.32,0-.59.11-.8.32-.22.21-.34.5-.36.86Z"/>
      <path class="c" d="m298.66,304.45l.68.09c-.07.47-.27.84-.57,1.11-.31.27-.69.4-1.13.4-.56,0-1.01-.18-1.35-.55-.34-.37-.51-.89-.51-1.58,0-.44.07-.83.22-1.16s.37-.58.67-.75.63-.25.98-.25c.45,0,.81.11,1.09.34.28.22.46.54.54.96l-.68.1c-.06-.28-.18-.48-.34-.62-.16-.14-.36-.21-.59-.21-.35,0-.63.12-.85.38s-.33.65-.33,1.19.11.95.32,1.2c.21.25.49.38.83.38.27,0,.5-.08.68-.25.18-.17.3-.42.35-.77Z"/>
      <path class="c" d="m299.94,301.09v-.8h.69v.8h-.69Zm0,4.86v-4.1h.69v4.1h-.69Z"/>
      <path class="c" d="m301.41,304.73l.69-.11c.04.28.15.49.32.63.18.15.42.22.74.22s.56-.07.71-.2.23-.28.23-.46c0-.16-.07-.28-.21-.37-.09-.06-.33-.14-.71-.24-.51-.13-.86-.24-1.06-.33-.2-.09-.35-.22-.45-.39s-.15-.35-.15-.55c0-.18.04-.35.12-.51.08-.16.2-.29.34-.39.11-.08.26-.15.44-.2.19-.06.39-.08.6-.08.32,0,.6.05.85.14s.42.22.54.38c.12.16.2.37.24.64l-.68.09c-.03-.21-.12-.38-.27-.49-.15-.12-.36-.18-.63-.18-.32,0-.55.05-.68.16s-.2.23-.2.37c0,.09.03.17.08.24.06.07.14.14.27.18.07.03.27.08.61.18.49.13.83.24,1.03.32.19.08.35.21.46.36.11.16.17.36.17.59s-.07.45-.2.66c-.13.2-.33.36-.58.47s-.54.17-.87.17c-.53,0-.94-.11-1.22-.33-.28-.22-.46-.55-.54-.99Z"/>
      <path class="c" d="m305.65,301.09v-.8h.7v.8h-.7Zm0,4.86v-4.1h.7v4.1h-.7Z"/>
      <path class="c" d="m307.14,303.9c0-.76.21-1.32.63-1.69.35-.3.78-.46,1.29-.46.56,0,1.03.18,1.38.55s.54.88.54,1.53c0,.53-.08.94-.24,1.25-.16.3-.39.54-.69.71-.3.17-.63.25-.99.25-.57,0-1.04-.18-1.39-.55-.35-.37-.53-.9-.53-1.59Zm.71,0c0,.53.11.92.34,1.18.23.26.52.39.86.39s.63-.13.86-.39c.23-.26.34-.66.34-1.2,0-.51-.12-.89-.35-1.15-.23-.26-.52-.39-.86-.39s-.64.13-.86.39c-.23.26-.34.65-.34,1.18Z"/>
      <path class="c" d="m311.8,305.95v-4.1h.63v.58c.3-.45.74-.68,1.3-.68.25,0,.47.04.68.13s.36.21.47.35c.1.14.17.32.22.51.03.13.04.35.04.68v2.52h-.7v-2.5c0-.28-.03-.49-.08-.63s-.15-.25-.29-.34-.3-.13-.48-.13c-.3,0-.55.09-.77.28-.21.19-.32.54-.32,1.07v2.24h-.7Z"/>
      <path class="c" d="m315.92,304.73l.69-.11c.04.28.15.49.32.63.18.15.42.22.74.22s.56-.07.71-.2.23-.28.23-.46c0-.16-.07-.28-.21-.37-.1-.06-.33-.14-.71-.24-.51-.13-.86-.24-1.06-.33-.2-.09-.35-.22-.45-.39s-.15-.35-.15-.55c0-.18.04-.35.13-.51.08-.16.2-.29.34-.39.11-.08.26-.15.44-.2.19-.06.39-.08.6-.08.32,0,.6.05.85.14s.42.22.54.38c.12.16.2.37.24.64l-.68.09c-.03-.21-.12-.38-.27-.49-.15-.12-.36-.18-.63-.18-.32,0-.55.05-.68.16-.14.11-.21.23-.21.37,0,.09.03.17.08.24.06.07.15.14.27.18.07.03.27.08.61.18.49.13.83.24,1.03.32.2.08.35.21.46.36.11.16.17.36.17.59s-.07.45-.2.66c-.14.2-.33.36-.59.47s-.54.17-.86.17c-.53,0-.94-.11-1.22-.33s-.46-.55-.54-.99Z"/>
    </g>
  </g>
</svg>