<svg width="512" height="131" viewBox="0 0 512 131" fill="none" xmlns="http://www.w3.org/2000/svg">
<path d="M499.5 1H297.5C291.149 1 286 6.14873 286 12.5V92.5C286 98.8513 291.149 104 297.5 104H499.5C505.851 104 511 98.8513 511 92.5V12.5C511 6.14873 505.851 1 499.5 1Z" fill="#D6D8DC"/>
<path d="M344.868 28.1478L344.316 30.0678H348.324L347.772 28.1478C347.516 27.3158 347.268 26.4598 347.028 25.5798C346.804 24.6998 346.58 23.8278 346.356 22.9638H346.26C346.052 23.8438 345.828 24.7238 345.588 25.6038C345.364 26.4678 345.124 27.3158 344.868 28.1478ZM339.612 36.4998L344.724 20.8038H347.988L353.1 36.4998H350.172L348.948 32.2518H343.668L342.444 36.4998H339.612ZM354.795 41.1558V24.7158H357.075L357.267 25.9638H357.363C357.859 25.5478 358.411 25.1878 359.019 24.8838C359.643 24.5798 360.275 24.4278 360.915 24.4278C362.387 24.4278 363.523 24.9718 364.323 26.0598C365.139 27.1478 365.547 28.6038 365.547 30.4278C365.547 31.7718 365.307 32.9238 364.827 33.8838C364.347 34.8278 363.723 35.5478 362.955 36.0438C362.203 36.5398 361.387 36.7878 360.507 36.7878C359.995 36.7878 359.483 36.6758 358.971 36.4518C358.459 36.2118 357.963 35.8918 357.483 35.4918L357.555 37.4598V41.1558H354.795ZM359.931 34.5078C360.715 34.5078 361.371 34.1638 361.899 33.4758C362.427 32.7878 362.691 31.7798 362.691 30.4518C362.691 29.2678 362.491 28.3478 362.091 27.6918C361.691 27.0358 361.043 26.7078 360.147 26.7078C359.315 26.7078 358.451 27.1478 357.555 28.0278V33.5238C357.987 33.8758 358.403 34.1318 358.803 34.2918C359.203 34.4358 359.579 34.5078 359.931 34.5078ZM368.342 41.1558V24.7158H370.622L370.814 25.9638H370.91C371.406 25.5478 371.958 25.1878 372.566 24.8838C373.19 24.5798 373.822 24.4278 374.462 24.4278C375.934 24.4278 377.07 24.9718 377.87 26.0598C378.686 27.1478 379.094 28.6038 379.094 30.4278C379.094 31.7718 378.854 32.9238 378.374 33.8838C377.894 34.8278 377.27 35.5478 376.502 36.0438C375.75 36.5398 374.934 36.7878 374.054 36.7878C373.542 36.7878 373.03 36.6758 372.518 36.4518C372.006 36.2118 371.51 35.8918 371.03 35.4918L371.102 37.4598V41.1558H368.342ZM373.478 34.5078C374.262 34.5078 374.918 34.1638 375.446 33.4758C375.974 32.7878 376.238 31.7798 376.238 30.4518C376.238 29.2678 376.038 28.3478 375.638 27.6918C375.238 27.0358 374.59 26.7078 373.694 26.7078C372.862 26.7078 371.998 27.1478 371.102 28.0278V33.5238C371.534 33.8758 371.95 34.1318 372.35 34.2918C372.75 34.4358 373.126 34.5078 373.478 34.5078ZM384.577 36.7878C383.601 36.7878 382.905 36.4918 382.489 35.8998C382.089 35.3078 381.889 34.4998 381.889 33.4758V19.5558H384.649V33.6198C384.649 33.9558 384.713 34.1958 384.841 34.3398C384.969 34.4678 385.105 34.5318 385.249 34.5318C385.313 34.5318 385.369 34.5318 385.417 34.5318C385.481 34.5158 385.569 34.4998 385.681 34.4838L386.041 36.5478C385.881 36.6118 385.673 36.6678 385.417 36.7158C385.177 36.7638 384.897 36.7878 384.577 36.7878ZM388.404 36.4998V24.7158H391.164V36.4998H388.404ZM389.796 22.6518C389.3 22.6518 388.9 22.5078 388.596 22.2198C388.292 21.9318 388.14 21.5478 388.14 21.0678C388.14 20.6038 388.292 20.2278 388.596 19.9398C388.9 19.6518 389.3 19.5078 389.796 19.5078C390.292 19.5078 390.692 19.6518 390.996 19.9398C391.3 20.2278 391.452 20.6038 391.452 21.0678C391.452 21.5478 391.3 21.9318 390.996 22.2198C390.692 22.5078 390.292 22.6518 389.796 22.6518ZM399.606 36.7878C398.534 36.7878 397.566 36.5478 396.702 36.0678C395.854 35.5718 395.174 34.8678 394.662 33.9558C394.166 33.0278 393.918 31.9158 393.918 30.6198C393.918 29.3078 394.19 28.1958 394.734 27.2838C395.278 26.3558 395.998 25.6518 396.894 25.1718C397.806 24.6758 398.782 24.4278 399.822 24.4278C400.574 24.4278 401.23 24.5558 401.79 24.8118C402.35 25.0678 402.846 25.3798 403.278 25.7478L401.934 27.5478C401.63 27.2758 401.318 27.0678 400.998 26.9238C400.678 26.7638 400.334 26.6838 399.966 26.6838C399.022 26.6838 398.246 27.0438 397.638 27.7638C397.046 28.4838 396.75 29.4358 396.75 30.6198C396.75 31.7878 397.038 32.7318 397.614 33.4518C398.206 34.1718 398.966 34.5318 399.894 34.5318C400.358 34.5318 400.79 34.4358 401.19 34.2438C401.606 34.0358 401.982 33.7958 402.318 33.5238L403.446 35.3478C402.902 35.8278 402.294 36.1878 401.622 36.4278C400.95 36.6678 400.278 36.7878 399.606 36.7878ZM408.393 36.7878C407.369 36.7878 406.529 36.4678 405.873 35.8278C405.233 35.1878 404.913 34.3558 404.913 33.3318C404.913 32.0678 405.465 31.0918 406.569 30.4038C407.673 29.6998 409.433 29.2198 411.849 28.9638C411.833 28.3398 411.665 27.8038 411.345 27.3558C411.041 26.8918 410.489 26.6598 409.689 26.6598C409.113 26.6598 408.545 26.7718 407.985 26.9958C407.441 27.2198 406.905 27.4918 406.377 27.8118L405.369 25.9638C406.025 25.5478 406.761 25.1878 407.577 24.8838C408.409 24.5798 409.289 24.4278 410.217 24.4278C411.689 24.4278 412.785 24.8678 413.505 25.7478C414.241 26.6118 414.609 27.8678 414.609 29.5158V36.4998H412.329L412.137 35.2038H412.041C411.513 35.6518 410.945 36.0278 410.337 36.3318C409.745 36.6358 409.097 36.7878 408.393 36.7878ZM409.281 34.6278C409.761 34.6278 410.193 34.5158 410.577 34.2918C410.977 34.0518 411.401 33.7318 411.849 33.3318V30.6918C410.249 30.8998 409.137 31.2118 408.513 31.6278C407.889 32.0278 407.577 32.5238 407.577 33.1158C407.577 33.6438 407.737 34.0278 408.057 34.2678C408.377 34.5078 408.785 34.6278 409.281 34.6278ZM421.689 36.7878C420.329 36.7878 419.361 36.3958 418.785 35.6118C418.225 34.8118 417.945 33.7798 417.945 32.5158V26.8998H416.265V24.8358L418.089 24.7158L418.425 21.4998H420.729V24.7158H423.729V26.8998H420.729V32.5158C420.729 33.8918 421.281 34.5798 422.385 34.5798C422.593 34.5798 422.809 34.5558 423.033 34.5078C423.257 34.4438 423.449 34.3798 423.609 34.3158L424.089 36.3558C423.769 36.4678 423.401 36.5638 422.985 36.6438C422.585 36.7398 422.153 36.7878 421.689 36.7878ZM426.209 36.4998V24.7158H428.969V36.4998H426.209ZM427.601 22.6518C427.105 22.6518 426.705 22.5078 426.401 22.2198C426.097 21.9318 425.945 21.5478 425.945 21.0678C425.945 20.6038 426.097 20.2278 426.401 19.9398C426.705 19.6518 427.105 19.5078 427.601 19.5078C428.097 19.5078 428.497 19.6518 428.801 19.9398C429.105 20.2278 429.257 20.6038 429.257 21.0678C429.257 21.5478 429.105 21.9318 428.801 22.2198C428.497 22.5078 428.097 22.6518 427.601 22.6518ZM437.314 36.7878C436.338 36.7878 435.426 36.5478 434.578 36.0678C433.73 35.5718 433.042 34.8678 432.514 33.9558C431.986 33.0278 431.722 31.9158 431.722 30.6198C431.722 29.3078 431.986 28.1958 432.514 27.2838C433.042 26.3558 433.73 25.6518 434.578 25.1718C435.426 24.6758 436.338 24.4278 437.314 24.4278C438.306 24.4278 439.226 24.6758 440.074 25.1718C440.922 25.6518 441.61 26.3558 442.138 27.2838C442.666 28.1958 442.93 29.3078 442.93 30.6198C442.93 31.9158 442.666 33.0278 442.138 33.9558C441.61 34.8678 440.922 35.5718 440.074 36.0678C439.226 36.5478 438.306 36.7878 437.314 36.7878ZM437.314 34.5318C438.178 34.5318 438.858 34.1718 439.354 33.4518C439.85 32.7318 440.098 31.7878 440.098 30.6198C440.098 29.4358 439.85 28.4838 439.354 27.7638C438.858 27.0438 438.178 26.6838 437.314 26.6838C436.45 26.6838 435.77 27.0438 435.274 27.7638C434.794 28.4838 434.554 29.4358 434.554 30.6198C434.554 31.7878 434.794 32.7318 435.274 33.4518C435.77 34.1718 436.45 34.5318 437.314 34.5318ZM445.662 36.4998V24.7158H447.942L448.134 26.2998H448.23C448.758 25.7878 449.334 25.3478 449.958 24.9798C450.582 24.6118 451.294 24.4278 452.094 24.4278C453.358 24.4278 454.278 24.8358 454.854 25.6518C455.43 26.4678 455.718 27.6198 455.718 29.1078V36.4998H452.958V29.4678C452.958 28.4918 452.814 27.8038 452.526 27.4038C452.238 27.0038 451.766 26.8038 451.11 26.8038C450.598 26.8038 450.142 26.9318 449.742 27.1878C449.358 27.4278 448.918 27.7878 448.422 28.2678V36.4998H445.662Z" fill="#252322"/>
<path d="M491.5 51H305.5C301.358 51 298 54.3579 298 58.5V84.5C298 88.6421 301.358 92 305.5 92H491.5C495.642 92 499 88.6421 499 84.5V58.5C499 54.3579 495.642 51 491.5 51Z" fill="#F8773D"/>
<path d="M335.872 71.6918L335.128 74.0918H339.856L339.112 71.6918C338.824 70.8118 338.552 69.9398 338.296 69.0758C338.04 68.1958 337.784 67.2998 337.528 66.3878H337.432C337.192 67.2998 336.944 68.1958 336.688 69.0758C336.432 69.9398 336.16 70.8118 335.872 71.6918ZM331.072 80.4998L336.4 64.7558H338.656L343.984 80.4998H341.848L340.36 75.6998H334.624L333.112 80.4998H331.072ZM346.023 85.4198V68.8358H347.655L347.823 70.1798H347.895C348.423 69.7318 348.999 69.3478 349.623 69.0278C350.263 68.7078 350.927 68.5478 351.615 68.5478C353.119 68.5478 354.263 69.0918 355.047 70.1798C355.831 71.2518 356.223 72.6918 356.223 74.4998C356.223 75.8118 355.983 76.9398 355.503 77.8838C355.039 78.8278 354.423 79.5478 353.655 80.0438C352.903 80.5398 352.079 80.7878 351.183 80.7878C350.639 80.7878 350.095 80.6678 349.551 80.4278C349.023 80.1878 348.487 79.8598 347.943 79.4438L347.991 81.4838V85.4198H346.023ZM350.847 79.1318C351.807 79.1318 352.599 78.7238 353.223 77.9078C353.863 77.0758 354.183 75.9398 354.183 74.4998C354.183 73.2198 353.943 72.1878 353.463 71.4038C352.999 70.6038 352.215 70.2038 351.111 70.2038C350.615 70.2038 350.111 70.3398 349.599 70.6118C349.103 70.8838 348.567 71.2758 347.991 71.7878V77.9078C348.519 78.3558 349.031 78.6758 349.527 78.8678C350.023 79.0438 350.463 79.1318 350.847 79.1318ZM364.063 80.7878C363.023 80.7878 362.079 80.5478 361.231 80.0678C360.383 79.5718 359.711 78.8678 359.215 77.9558C358.719 77.0438 358.471 75.9558 358.471 74.6918C358.471 73.4118 358.719 72.3158 359.215 71.4038C359.727 70.4918 360.383 69.7878 361.183 69.2918C361.983 68.7958 362.823 68.5478 363.703 68.5478C365.191 68.5478 366.335 69.0438 367.135 70.0358C367.951 71.0278 368.359 72.3558 368.359 74.0198C368.359 74.2278 368.351 74.4358 368.335 74.6438C368.335 74.8358 368.319 75.0038 368.287 75.1478H360.415C360.495 76.3798 360.879 77.3638 361.567 78.0998C362.271 78.8358 363.183 79.2038 364.303 79.2038C364.863 79.2038 365.375 79.1238 365.839 78.9638C366.319 78.7878 366.775 78.5638 367.207 78.2918L367.903 79.5878C367.407 79.9078 366.839 80.1878 366.199 80.4278C365.575 80.6678 364.863 80.7878 364.063 80.7878ZM360.391 73.7318H366.631C366.631 72.5478 366.375 71.6518 365.863 71.0438C365.367 70.4198 364.663 70.1078 363.751 70.1078C362.935 70.1078 362.199 70.4278 361.543 71.0678C360.903 71.6918 360.519 72.5798 360.391 73.7318ZM371.241 80.4998V68.8358H372.873L373.041 70.9478H373.113C373.513 70.2118 374.001 69.6278 374.577 69.1958C375.153 68.7638 375.769 68.5478 376.425 68.5478C376.889 68.5478 377.305 68.6278 377.673 68.7878L377.289 70.5158C377.097 70.4518 376.921 70.4038 376.761 70.3718C376.601 70.3398 376.401 70.3238 376.161 70.3238C375.665 70.3238 375.145 70.5238 374.601 70.9238C374.073 71.3238 373.609 72.0198 373.209 73.0118V80.4998H371.241ZM383.234 80.7878C381.986 80.7878 381.114 80.4278 380.618 79.7078C380.138 78.9878 379.898 78.0518 379.898 76.8998V70.4438H378.17V68.9558L379.994 68.8358L380.234 65.5718H381.89V68.8358H385.034V70.4438H381.89V76.9238C381.89 77.6438 382.018 78.2038 382.274 78.6038C382.546 78.9878 383.018 79.1798 383.69 79.1798C383.898 79.1798 384.122 79.1478 384.362 79.0838C384.602 79.0038 384.818 78.9318 385.01 78.8678L385.394 80.3558C385.074 80.4678 384.722 80.5638 384.338 80.6438C383.97 80.7398 383.602 80.7878 383.234 80.7878ZM391.079 80.7878C389.847 80.7878 388.943 80.4038 388.367 79.6358C387.791 78.8518 387.503 77.7158 387.503 76.2278V68.8358H389.495V75.9638C389.495 77.0518 389.663 77.8438 389.999 78.3398C390.351 78.8358 390.911 79.0838 391.679 79.0838C392.287 79.0838 392.823 78.9318 393.287 78.6278C393.767 78.3078 394.279 77.8038 394.823 77.1158V68.8358H396.791V80.4998H395.159L394.991 78.6758H394.919C394.375 79.3158 393.799 79.8278 393.191 80.2118C392.583 80.5958 391.879 80.7878 391.079 80.7878ZM400.726 80.4998V68.8358H402.358L402.526 70.9478H402.598C402.998 70.2118 403.486 69.6278 404.062 69.1958C404.638 68.7638 405.254 68.5478 405.91 68.5478C406.374 68.5478 406.79 68.6278 407.158 68.7878L406.774 70.5158C406.582 70.4518 406.406 70.4038 406.246 70.3718C406.086 70.3398 405.886 70.3238 405.646 70.3238C405.15 70.3238 404.63 70.5238 404.086 70.9238C403.558 71.3238 403.094 72.0198 402.694 73.0118V80.4998H400.726ZM413.54 80.7878C412.5 80.7878 411.556 80.5478 410.708 80.0678C409.86 79.5718 409.188 78.8678 408.692 77.9558C408.196 77.0438 407.948 75.9558 407.948 74.6918C407.948 73.4118 408.196 72.3158 408.692 71.4038C409.204 70.4918 409.86 69.7878 410.66 69.2918C411.46 68.7958 412.3 68.5478 413.18 68.5478C414.668 68.5478 415.812 69.0438 416.612 70.0358C417.428 71.0278 417.836 72.3558 417.836 74.0198C417.836 74.2278 417.828 74.4358 417.812 74.6438C417.812 74.8358 417.796 75.0038 417.764 75.1478H409.892C409.972 76.3798 410.356 77.3638 411.044 78.0998C411.748 78.8358 412.66 79.2038 413.78 79.2038C414.34 79.2038 414.852 79.1238 415.316 78.9638C415.796 78.7878 416.252 78.5638 416.684 78.2918L417.38 79.5878C416.884 79.9078 416.316 80.1878 415.676 80.4278C415.052 80.6678 414.34 80.7878 413.54 80.7878ZM409.868 73.7318H416.108C416.108 72.5478 415.852 71.6518 415.34 71.0438C414.844 70.4198 414.14 70.1078 413.228 70.1078C412.412 70.1078 411.676 70.4278 411.02 71.0678C410.38 71.6918 409.996 72.5798 409.868 73.7318ZM430.083 80.7878C428.979 80.7878 427.955 80.5798 427.011 80.1638C426.067 79.7318 425.251 79.1638 424.563 78.4598L425.763 77.0678C426.323 77.6598 426.979 78.1398 427.731 78.5078C428.499 78.8598 429.291 79.0358 430.107 79.0358C431.147 79.0358 431.955 78.8038 432.531 78.3398C433.107 77.8598 433.395 77.2358 433.395 76.4678C433.395 75.9238 433.275 75.4918 433.035 75.1718C432.811 74.8518 432.499 74.5798 432.099 74.3558C431.715 74.1318 431.275 73.9078 430.779 73.6838L428.523 72.6998C428.027 72.4918 427.531 72.2198 427.035 71.8838C426.555 71.5478 426.147 71.1158 425.811 70.5878C425.491 70.0598 425.331 69.4118 425.331 68.6438C425.331 67.8438 425.539 67.1318 425.955 66.5078C426.387 65.8678 426.979 65.3718 427.731 65.0198C428.483 64.6518 429.331 64.4678 430.275 64.4678C431.219 64.4678 432.091 64.6518 432.891 65.0198C433.691 65.3718 434.371 65.8358 434.931 66.4118L433.851 67.7078C433.371 67.2438 432.835 66.8838 432.243 66.6278C431.667 66.3558 431.011 66.2198 430.275 66.2198C429.395 66.2198 428.683 66.4278 428.139 66.8438C427.611 67.2598 427.347 67.8198 427.347 68.5238C427.347 69.0198 427.475 69.4358 427.731 69.7718C428.003 70.0918 428.339 70.3558 428.739 70.5638C429.139 70.7718 429.547 70.9638 429.963 71.1398L432.195 72.0998C432.803 72.3558 433.347 72.6678 433.827 73.0358C434.323 73.3878 434.715 73.8278 435.003 74.3558C435.291 74.8678 435.435 75.5158 435.435 76.2998C435.435 77.1318 435.219 77.8918 434.787 78.5798C434.355 79.2518 433.739 79.7878 432.939 80.1878C432.139 80.5878 431.187 80.7878 430.083 80.7878ZM438.535 80.4998V64.7558H442.471C444.903 64.7558 446.751 65.4358 448.015 66.7958C449.279 68.1398 449.911 70.0598 449.911 72.5558C449.911 75.0678 449.279 77.0198 448.015 78.4118C446.767 79.8038 444.951 80.4998 442.567 80.4998H438.535ZM440.527 78.8678H442.327C444.167 78.8678 445.543 78.3158 446.455 77.2118C447.383 76.0918 447.847 74.5398 447.847 72.5558C447.847 70.5718 447.383 69.0518 446.455 67.9958C445.543 66.9238 444.167 66.3878 442.327 66.3878H440.527V78.8678ZM453.301 80.4998V64.7558H455.293V72.6518H455.365L461.917 64.7558H464.173L459.253 70.7558L464.941 80.4998H462.709L458.005 72.3158L455.293 75.5078V80.4998H453.301Z" fill="#252322"/>
<path d="M491.5 51H305.5C301.358 51 298 54.3579 298 58.5V84.5C298 88.6421 301.358 92 305.5 92H491.5C495.642 92 499 88.6421 499 84.5V58.5C499 54.3579 495.642 51 491.5 51Z" stroke="#B2B4B8"/>
<path d="M499.5 1H297.5C291.149 1 286 6.14873 286 12.5V92.5C286 98.8513 291.149 104 297.5 104H499.5C505.851 104 511 98.8513 511 92.5V12.5C511 6.14873 505.851 1 499.5 1Z" stroke="#B2B4B8"/>
<path d="M113.784 45.852C113.784 45.535 113.837 45.219 113.837 44.902C113.837 27.948 99.915 14 83.04 14C70.8848 14 60.417 21.356 55.5127 31.666C53.377 30.585 51.0039 29.979 48.4463 29.979C40.6416 29.979 34.1816 36.228 32.916 43.689C23.6348 46.906 16.9375 55.344 16.9375 65.785C16.9375 78.916 27.5107 89.938 40.5625 89.938H113.441C125.307 89.938 135.062 79.681 135.062 67.71C135.062 55.687 125.729 45.878 113.784 45.852ZM113.31 85.613L112.466 85.719H40.7734C29.9893 85.719 21.209 76.517 21.209 65.653C21.209 57.242 26.5352 50.255 34.4453 47.513L36.6602 46.722L37.0557 44.401C38.0049 38.706 42.8828 34.039 48.6309 34.039C50.4502 34.039 52.2432 34.461 53.8779 35.305L57.4375 37.098L59.1514 33.485C63.5283 24.283 72.8887 18.14 82.987 18.14C97.568 18.14 109.592 29.768 109.592 44.428C109.592 47.935 109.539 49.78 109.539 49.78L113.547 49.807C123.224 49.938 130.844 57.849 130.844 67.578C130.844 77.308 122.986 85.561 113.31 85.613Z" fill="#252322"/>
<path d="M4.87226 117.129L4.12827 119.529H8.85627L8.11226 117.129C7.82426 116.249 7.55226 115.377 7.29626 114.513C7.04026 113.633 6.78427 112.737 6.52826 111.826H6.43226C6.19226 112.737 5.94426 113.633 5.68826 114.513C5.43226 115.377 5.16026 116.249 4.87226 117.129ZM0.0722656 125.938L5.40026 110.193H7.65627L12.9843 125.938H10.8483L9.36027 121.137H3.62427L2.11226 125.938H0.0722656ZM15.023 130.858V114.273H16.655L16.823 115.617H16.895C17.423 115.169 17.999 114.785 18.623 114.465C19.263 114.145 19.927 113.985 20.615 113.985C22.119 113.985 23.263 114.529 24.047 115.617C24.831 116.689 25.223 118.129 25.223 119.938C25.223 121.249 24.983 122.377 24.503 123.321C24.039 124.265 23.423 124.985 22.655 125.481C21.903 125.977 21.079 126.226 20.183 126.226C19.639 126.226 19.095 126.106 18.551 125.865C18.023 125.625 17.487 125.297 16.943 124.881L16.991 126.922V130.858H15.023ZM19.847 124.569C20.807 124.569 21.599 124.161 22.223 123.345C22.863 122.513 23.183 121.377 23.183 119.938C23.183 118.657 22.943 117.625 22.463 116.841C21.999 116.041 21.215 115.641 20.111 115.641C19.615 115.641 19.111 115.777 18.599 116.049C18.103 116.321 17.567 116.713 16.991 117.225V123.345C17.519 123.793 18.031 124.113 18.527 124.305C19.023 124.481 19.463 124.569 19.847 124.569ZM33.0635 126.226C32.0235 126.226 31.0795 125.985 30.2315 125.505C29.3835 125.009 28.7115 124.305 28.2155 123.393C27.7195 122.481 27.4715 121.393 27.4715 120.129C27.4715 118.849 27.7195 117.753 28.2155 116.841C28.7275 115.929 29.3835 115.225 30.1835 114.729C30.9835 114.233 31.8235 113.985 32.7035 113.985C34.1915 113.985 35.3355 114.481 36.1355 115.473C36.9515 116.465 37.3595 117.793 37.3595 119.457C37.3595 119.665 37.3515 119.873 37.3355 120.081C37.3355 120.273 37.3195 120.441 37.2875 120.585H29.4155C29.4955 121.817 29.8795 122.801 30.5675 123.537C31.2715 124.273 32.1835 124.641 33.3035 124.641C33.8635 124.641 34.3755 124.561 34.8395 124.401C35.3195 124.225 35.7755 124.001 36.2075 123.729L36.9035 125.025C36.4075 125.345 35.8395 125.625 35.1995 125.865C34.5755 126.106 33.8635 126.226 33.0635 126.226ZM29.3915 119.169H35.6315C35.6315 117.985 35.3755 117.089 34.8635 116.481C34.3675 115.857 33.6635 115.545 32.7515 115.545C31.9355 115.545 31.1995 115.865 30.5435 116.505C29.9035 117.129 29.5195 118.017 29.3915 119.169ZM40.2417 125.938V114.273H41.8737L42.0417 116.385H42.1137C42.5137 115.649 43.0017 115.065 43.5777 114.633C44.1537 114.201 44.7697 113.985 45.4257 113.985C45.8897 113.985 46.3057 114.065 46.6737 114.225L46.2897 115.953C46.0977 115.889 45.9217 115.841 45.7617 115.809C45.6017 115.777 45.4017 115.761 45.1617 115.761C44.6657 115.761 44.1457 115.961 43.6017 116.361C43.0737 116.761 42.6097 117.457 42.2097 118.449V125.938H40.2417ZM52.2341 126.226C50.9861 126.226 50.1141 125.866 49.6181 125.146C49.1381 124.425 48.8981 123.489 48.8981 122.337V115.881H47.1701V114.393L48.9941 114.273L49.2341 111.009H50.8901V114.273H54.0341V115.881H50.8901V122.361C50.8901 123.081 51.0181 123.641 51.2741 124.041C51.5461 124.425 52.0181 124.617 52.6901 124.617C52.8981 124.617 53.1221 124.585 53.3621 124.521C53.6021 124.441 53.8181 124.369 54.0101 124.305L54.3941 125.793C54.0741 125.906 53.7221 126.002 53.3381 126.082C52.9701 126.178 52.6021 126.226 52.2341 126.226ZM60.0794 126.226C58.8474 126.226 57.9434 125.841 57.3674 125.073C56.7914 124.289 56.5034 123.153 56.5034 121.665V114.273H58.4954V121.401C58.4954 122.489 58.6634 123.281 58.9994 123.777C59.3514 124.273 59.9114 124.521 60.6794 124.521C61.2874 124.521 61.8234 124.369 62.2874 124.065C62.7674 123.745 63.2794 123.241 63.8234 122.553V114.273H65.7914V125.938H64.1594L63.9914 124.113H63.9194C63.3754 124.753 62.7994 125.265 62.1914 125.649C61.5834 126.034 60.8794 126.226 60.0794 126.226ZM69.7261 125.938V114.273H71.3581L71.5261 116.385H71.5981C71.9981 115.649 72.4861 115.065 73.0621 114.633C73.6381 114.201 74.2541 113.985 74.9101 113.985C75.3741 113.985 75.7901 114.065 76.1581 114.225L75.7741 115.953C75.5821 115.889 75.4061 115.841 75.2461 115.809C75.0861 115.777 74.8861 115.761 74.6461 115.761C74.1501 115.761 73.6301 115.961 73.0861 116.361C72.5581 116.761 72.0941 117.457 71.6941 118.449V125.938H69.7261ZM82.5403 126.226C81.5003 126.226 80.5563 125.985 79.7083 125.505C78.8603 125.009 78.1883 124.305 77.6921 123.393C77.1961 122.481 76.9481 121.393 76.9481 120.129C76.9481 118.849 77.1961 117.753 77.6921 116.841C78.2043 115.929 78.8603 115.225 79.6603 114.729C80.4603 114.233 81.3003 113.985 82.1803 113.985C83.6683 113.985 84.8123 114.481 85.6123 115.473C86.4283 116.465 86.8363 117.793 86.8363 119.457C86.8363 119.665 86.8283 119.873 86.8123 120.081C86.8123 120.273 86.7963 120.441 86.7643 120.585H78.8923C78.9723 121.817 79.3563 122.801 80.0443 123.537C80.7483 124.273 81.6603 124.641 82.7803 124.641C83.3403 124.641 83.8523 124.561 84.3163 124.401C84.7963 124.225 85.2523 124.001 85.6843 123.729L86.3803 125.025C85.8843 125.345 85.3163 125.625 84.6763 125.865C84.0523 126.106 83.3403 126.226 82.5403 126.226ZM78.8683 119.169H85.1083C85.1083 117.985 84.8523 117.089 84.3403 116.481C83.8443 115.857 83.1403 115.545 82.2283 115.545C81.4123 115.545 80.6763 115.865 80.0203 116.505C79.3803 117.129 78.9963 118.017 78.8683 119.169ZM100.667 126.226C99.3553 126.226 98.1793 125.905 97.1393 125.265C96.1153 124.609 95.2993 123.673 94.6913 122.457C94.0993 121.241 93.8033 119.777 93.8033 118.065C93.8033 116.369 94.1073 114.913 94.7153 113.697C95.3233 112.481 96.1553 111.545 97.2113 110.889C98.2673 110.233 99.4593 109.905 100.787 109.905C101.747 109.905 102.595 110.105 103.331 110.505C104.067 110.889 104.659 111.337 105.107 111.849L104.027 113.145C103.611 112.697 103.139 112.337 102.611 112.065C102.083 111.793 101.483 111.657 100.811 111.657C99.8193 111.657 98.9473 111.921 98.1953 112.449C97.4593 112.961 96.8833 113.689 96.4673 114.633C96.0673 115.577 95.8673 116.705 95.8673 118.017C95.8673 119.329 96.0673 120.473 96.4673 121.449C96.8673 122.409 97.4273 123.153 98.1473 123.681C98.8833 124.209 99.7473 124.473 100.739 124.473C101.491 124.473 102.163 124.313 102.755 123.993C103.347 123.673 103.891 123.241 104.387 122.697L105.491 123.945C104.867 124.665 104.163 125.225 103.379 125.625C102.595 126.025 101.691 126.226 100.667 126.226ZM110.322 126.226C109.586 126.226 109.05 126.001 108.714 125.553C108.394 125.089 108.234 124.433 108.234 123.585V108.849H110.202V123.729C110.202 124.033 110.258 124.257 110.37 124.401C110.482 124.529 110.61 124.593 110.754 124.593C110.818 124.593 110.874 124.593 110.922 124.593C110.986 124.577 111.074 124.561 111.186 124.545L111.45 126.034C111.322 126.098 111.17 126.146 110.994 126.178C110.818 126.21 110.594 126.226 110.322 126.226ZM118.887 126.226C117.943 126.226 117.055 125.985 116.223 125.505C115.407 125.025 114.743 124.329 114.231 123.417C113.735 122.505 113.487 121.409 113.487 120.129C113.487 118.817 113.735 117.705 114.231 116.793C114.743 115.881 115.407 115.185 116.223 114.705C117.055 114.225 117.943 113.985 118.887 113.985C119.847 113.985 120.735 114.225 121.551 114.705C122.367 115.185 123.023 115.881 123.519 116.793C124.031 117.705 124.287 118.817 124.287 120.129C124.287 121.409 124.031 122.505 123.519 123.417C123.023 124.329 122.367 125.025 121.551 125.505C120.735 125.985 119.847 126.226 118.887 126.226ZM118.887 124.593C119.895 124.593 120.703 124.185 121.311 123.369C121.935 122.537 122.247 121.457 122.247 120.129C122.247 118.785 121.935 117.697 121.311 116.865C120.703 116.033 119.895 115.617 118.887 115.617C117.895 115.617 117.087 116.033 116.463 116.865C115.839 117.697 115.527 118.785 115.527 120.129C115.527 121.457 115.839 122.537 116.463 123.369C117.087 124.185 117.895 124.593 118.887 124.593ZM130.767 126.226C129.535 126.226 128.631 125.841 128.055 125.073C127.479 124.289 127.191 123.153 127.191 121.665V114.273H129.183V121.401C129.183 122.489 129.351 123.281 129.687 123.777C130.039 124.273 130.599 124.521 131.367 124.521C131.975 124.521 132.511 124.369 132.975 124.065C133.455 123.745 133.967 123.241 134.511 122.553V114.273H136.479V125.938H134.847L134.679 124.113H134.607C134.063 124.753 133.487 125.265 132.879 125.649C132.271 126.034 131.567 126.226 130.767 126.226ZM144.397 126.226C142.941 126.226 141.773 125.697 140.893 124.641C140.013 123.569 139.573 122.065 139.573 120.129C139.573 118.865 139.805 117.777 140.269 116.865C140.749 115.937 141.373 115.225 142.141 114.729C142.925 114.233 143.757 113.985 144.637 113.985C145.309 113.985 145.893 114.105 146.389 114.345C146.885 114.585 147.389 114.913 147.901 115.329L147.805 113.337V108.849H149.797V125.938H148.165L147.997 124.569H147.925C147.477 125.017 146.949 125.409 146.341 125.745C145.733 126.065 145.085 126.226 144.397 126.226ZM144.829 124.569C145.853 124.569 146.845 124.033 147.805 122.961V116.865C147.309 116.417 146.829 116.105 146.365 115.929C145.917 115.737 145.453 115.641 144.973 115.641C144.349 115.641 143.781 115.833 143.269 116.217C142.773 116.585 142.373 117.105 142.069 117.777C141.765 118.433 141.613 119.209 141.613 120.105C141.613 121.497 141.893 122.593 142.453 123.393C143.013 124.177 143.805 124.569 144.829 124.569Z" fill="#252322"/>
<path d="M149.293 51.2929C148.902 51.6834 148.902 52.3165 149.293 52.7071L155.657 59.0714C156.047 59.4619 156.68 59.4619 157.071 59.0714C157.461 58.6809 157.461 58.0478 157.071 57.6572L151.414 52.0001L157.071 46.3435C157.462 45.953 157.462 45.3198 157.071 44.9293C156.681 44.5387 156.048 44.5387 155.657 44.9292L149.293 51.2929ZM286 51.0068L150 51L150 53L286 53.0068L286 51.0068Z" fill="#7F8086"/>
</svg>
