<svg xmlns="http://www.w3.org/2000/svg" width="516" height="139" fill="none" viewBox="0 0 516 139"><path fill="#4F4D4A" d="M503.428 1H301.428C295.076 1 289.928 6.14873 289.928 12.5V92.5C289.928 98.8513 295.076 104 301.428 104H503.428C509.779 104 514.928 98.8513 514.928 92.5V12.5C514.928 6.14873 509.779 1 503.428 1Z"/><path fill="#F3F2F2" d="M348.796 28.1478L348.244 30.0678H352.252L351.7 28.1478C351.444 27.3158 351.196 26.4598 350.956 25.5798C350.732 24.6998 350.508 23.8278 350.284 22.9638H350.188C349.98 23.8438 349.756 24.7238 349.516 25.6038C349.292 26.4678 349.052 27.3158 348.796 28.1478ZM343.54 36.4998L348.652 20.8038H351.916L357.028 36.4998H354.1L352.876 32.2518H347.596L346.372 36.4998H343.54ZM358.723 41.1558V24.7158H361.003L361.195 25.9638H361.291C361.787 25.5478 362.339 25.1878 362.947 24.8838C363.571 24.5798 364.203 24.4278 364.843 24.4278C366.315 24.4278 367.451 24.9718 368.251 26.0598C369.067 27.1478 369.475 28.6038 369.475 30.4278C369.475 31.7718 369.235 32.9238 368.755 33.8838C368.275 34.8278 367.651 35.5478 366.883 36.0438C366.131 36.5398 365.315 36.7878 364.435 36.7878C363.923 36.7878 363.411 36.6758 362.899 36.4518C362.387 36.2118 361.891 35.8918 361.411 35.4918L361.483 37.4598V41.1558H358.723ZM363.859 34.5078C364.643 34.5078 365.299 34.1638 365.827 33.4758C366.355 32.7878 366.619 31.7798 366.619 30.4518C366.619 29.2678 366.419 28.3478 366.019 27.6918C365.619 27.0358 364.971 26.7078 364.075 26.7078C363.243 26.7078 362.379 27.1478 361.483 28.0278V33.5238C361.915 33.8758 362.331 34.1318 362.731 34.2918C363.131 34.4358 363.507 34.5078 363.859 34.5078ZM372.27 41.1558V24.7158H374.55L374.742 25.9638H374.838C375.334 25.5478 375.886 25.1878 376.494 24.8838C377.118 24.5798 377.75 24.4278 378.39 24.4278C379.862 24.4278 380.998 24.9718 381.798 26.0598C382.614 27.1478 383.022 28.6038 383.022 30.4278C383.022 31.7718 382.782 32.9238 382.302 33.8838C381.822 34.8278 381.198 35.5478 380.43 36.0438C379.678 36.5398 378.862 36.7878 377.982 36.7878C377.47 36.7878 376.958 36.6758 376.446 36.4518C375.934 36.2118 375.438 35.8918 374.958 35.4918L375.03 37.4598V41.1558H372.27ZM377.406 34.5078C378.19 34.5078 378.846 34.1638 379.374 33.4758C379.902 32.7878 380.166 31.7798 380.166 30.4518C380.166 29.2678 379.966 28.3478 379.566 27.6918C379.166 27.0358 378.518 26.7078 377.622 26.7078C376.79 26.7078 375.926 27.1478 375.03 28.0278V33.5238C375.462 33.8758 375.878 34.1318 376.278 34.2918C376.678 34.4358 377.054 34.5078 377.406 34.5078ZM388.505 36.7878C387.529 36.7878 386.833 36.4918 386.417 35.8998C386.017 35.3078 385.817 34.4998 385.817 33.4758V19.5558H388.577V33.6198C388.577 33.9558 388.641 34.1958 388.769 34.3398C388.897 34.4678 389.033 34.5318 389.177 34.5318C389.241 34.5318 389.297 34.5318 389.345 34.5318C389.409 34.5158 389.497 34.4998 389.609 34.4838L389.969 36.5478C389.809 36.6118 389.601 36.6678 389.345 36.7158C389.105 36.7638 388.825 36.7878 388.505 36.7878ZM392.332 36.4998V24.7158H395.092V36.4998H392.332ZM393.724 22.6518C393.228 22.6518 392.828 22.5078 392.524 22.2198C392.22 21.9318 392.068 21.5478 392.068 21.0678C392.068 20.6038 392.22 20.2278 392.524 19.9398C392.828 19.6518 393.228 19.5078 393.724 19.5078C394.22 19.5078 394.62 19.6518 394.924 19.9398C395.228 20.2278 395.38 20.6038 395.38 21.0678C395.38 21.5478 395.228 21.9318 394.924 22.2198C394.62 22.5078 394.22 22.6518 393.724 22.6518ZM403.534 36.7878C402.462 36.7878 401.494 36.5478 400.63 36.0678C399.782 35.5718 399.102 34.8678 398.59 33.9558C398.094 33.0278 397.846 31.9158 397.846 30.6198C397.846 29.3078 398.118 28.1958 398.662 27.2838C399.206 26.3558 399.926 25.6518 400.822 25.1718C401.734 24.6758 402.71 24.4278 403.75 24.4278C404.502 24.4278 405.158 24.5558 405.718 24.8118C406.278 25.0678 406.774 25.3798 407.206 25.7478L405.862 27.5478C405.558 27.2758 405.246 27.0678 404.926 26.9238C404.606 26.7638 404.262 26.6838 403.894 26.6838C402.95 26.6838 402.174 27.0438 401.566 27.7638C400.974 28.4838 400.678 29.4358 400.678 30.6198C400.678 31.7878 400.966 32.7318 401.542 33.4518C402.134 34.1718 402.894 34.5318 403.822 34.5318C404.286 34.5318 404.718 34.4358 405.118 34.2438C405.534 34.0358 405.91 33.7958 406.246 33.5238L407.374 35.3478C406.83 35.8278 406.222 36.1878 405.55 36.4278C404.878 36.6678 404.206 36.7878 403.534 36.7878ZM412.321 36.7878C411.297 36.7878 410.457 36.4678 409.801 35.8278C409.161 35.1878 408.841 34.3558 408.841 33.3318C408.841 32.0678 409.393 31.0918 410.497 30.4038C411.601 29.6998 413.361 29.2198 415.777 28.9638C415.761 28.3398 415.593 27.8038 415.273 27.3558C414.969 26.8918 414.417 26.6598 413.617 26.6598C413.041 26.6598 412.473 26.7718 411.913 26.9958C411.369 27.2198 410.833 27.4918 410.305 27.8118L409.297 25.9638C409.953 25.5478 410.689 25.1878 411.505 24.8838C412.337 24.5798 413.217 24.4278 414.145 24.4278C415.617 24.4278 416.713 24.8678 417.433 25.7478C418.169 26.6118 418.537 27.8678 418.537 29.5158V36.4998H416.257L416.065 35.2038H415.969C415.441 35.6518 414.873 36.0278 414.265 36.3318C413.673 36.6358 413.025 36.7878 412.321 36.7878ZM413.209 34.6278C413.689 34.6278 414.121 34.5158 414.505 34.2918C414.905 34.0518 415.329 33.7318 415.777 33.3318V30.6918C414.177 30.8998 413.065 31.2118 412.441 31.6278C411.817 32.0278 411.505 32.5238 411.505 33.1158C411.505 33.6438 411.665 34.0278 411.985 34.2678C412.305 34.5078 412.713 34.6278 413.209 34.6278ZM425.617 36.7878C424.257 36.7878 423.289 36.3958 422.713 35.6118C422.153 34.8118 421.873 33.7798 421.873 32.5158V26.8998H420.193V24.8358L422.017 24.7158L422.353 21.4998H424.657V24.7158H427.657V26.8998H424.657V32.5158C424.657 33.8918 425.209 34.5798 426.313 34.5798C426.521 34.5798 426.737 34.5558 426.961 34.5078C427.185 34.4438 427.377 34.3798 427.537 34.3158L428.017 36.3558C427.697 36.4678 427.329 36.5638 426.913 36.6438C426.513 36.7398 426.081 36.7878 425.617 36.7878ZM430.137 36.4998V24.7158H432.897V36.4998H430.137ZM431.529 22.6518C431.033 22.6518 430.633 22.5078 430.329 22.2198C430.025 21.9318 429.873 21.5478 429.873 21.0678C429.873 20.6038 430.025 20.2278 430.329 19.9398C430.633 19.6518 431.033 19.5078 431.529 19.5078C432.025 19.5078 432.425 19.6518 432.729 19.9398C433.033 20.2278 433.185 20.6038 433.185 21.0678C433.185 21.5478 433.033 21.9318 432.729 22.2198C432.425 22.5078 432.025 22.6518 431.529 22.6518ZM441.242 36.7878C440.266 36.7878 439.354 36.5478 438.506 36.0678C437.658 35.5718 436.97 34.8678 436.442 33.9558C435.914 33.0278 435.65 31.9158 435.65 30.6198C435.65 29.3078 435.914 28.1958 436.442 27.2838C436.97 26.3558 437.658 25.6518 438.506 25.1718C439.354 24.6758 440.266 24.4278 441.242 24.4278C442.234 24.4278 443.154 24.6758 444.002 25.1718C444.85 25.6518 445.538 26.3558 446.066 27.2838C446.594 28.1958 446.858 29.3078 446.858 30.6198C446.858 31.9158 446.594 33.0278 446.066 33.9558C445.538 34.8678 444.85 35.5718 444.002 36.0678C443.154 36.5478 442.234 36.7878 441.242 36.7878ZM441.242 34.5318C442.106 34.5318 442.786 34.1718 443.282 33.4518C443.778 32.7318 444.026 31.7878 444.026 30.6198C444.026 29.4358 443.778 28.4838 443.282 27.7638C442.786 27.0438 442.106 26.6838 441.242 26.6838C440.378 26.6838 439.698 27.0438 439.202 27.7638C438.722 28.4838 438.482 29.4358 438.482 30.6198C438.482 31.7878 438.722 32.7318 439.202 33.4518C439.698 34.1718 440.378 34.5318 441.242 34.5318ZM449.59 36.4998V24.7158H451.87L452.062 26.2998H452.158C452.686 25.7878 453.262 25.3478 453.886 24.9798C454.51 24.6118 455.222 24.4278 456.022 24.4278C457.286 24.4278 458.206 24.8358 458.782 25.6518C459.358 26.4678 459.646 27.6198 459.646 29.1078V36.4998H456.886V29.4678C456.886 28.4918 456.742 27.8038 456.454 27.4038C456.166 27.0038 455.694 26.8038 455.038 26.8038C454.526 26.8038 454.07 26.9318 453.67 27.1878C453.286 27.4278 452.846 27.7878 452.35 28.2678V36.4998H449.59Z"/><path fill="#F8773D" d="M495.428 51H309.428C305.286 51 301.928 54.3579 301.928 58.5V84.5C301.928 88.6421 305.286 92 309.428 92H495.428C499.57 92 502.928 88.6421 502.928 84.5V58.5C502.928 54.3579 499.57 51 495.428 51Z"/><path fill="#252322" d="M339.8 71.6918L339.056 74.0918H343.784L343.04 71.6918C342.752 70.8118 342.48 69.9398 342.224 69.0758C341.968 68.1958 341.712 67.2998 341.456 66.3878H341.36C341.12 67.2998 340.872 68.1958 340.616 69.0758C340.36 69.9398 340.088 70.8118 339.8 71.6918ZM335 80.4998L340.328 64.7558H342.584L347.912 80.4998H345.776L344.288 75.6998H338.552L337.04 80.4998H335ZM349.951 85.4198V68.8358H351.583L351.751 70.1798H351.823C352.351 69.7318 352.927 69.3478 353.551 69.0278C354.191 68.7078 354.855 68.5478 355.543 68.5478C357.047 68.5478 358.191 69.0918 358.975 70.1798C359.759 71.2518 360.151 72.6918 360.151 74.4998C360.151 75.8118 359.911 76.9398 359.431 77.8838C358.967 78.8278 358.351 79.5478 357.583 80.0438C356.831 80.5398 356.007 80.7878 355.111 80.7878C354.567 80.7878 354.023 80.6678 353.479 80.4278C352.951 80.1878 352.415 79.8598 351.871 79.4438L351.919 81.4838V85.4198H349.951ZM354.775 79.1318C355.735 79.1318 356.527 78.7238 357.151 77.9078C357.791 77.0758 358.111 75.9398 358.111 74.4998C358.111 73.2198 357.871 72.1878 357.391 71.4038C356.927 70.6038 356.143 70.2038 355.039 70.2038C354.543 70.2038 354.039 70.3398 353.527 70.6118C353.031 70.8838 352.495 71.2758 351.919 71.7878V77.9078C352.447 78.3558 352.959 78.6758 353.455 78.8678C353.951 79.0438 354.391 79.1318 354.775 79.1318ZM367.991 80.7878C366.951 80.7878 366.007 80.5478 365.159 80.0678C364.311 79.5718 363.639 78.8678 363.143 77.9558C362.647 77.0438 362.399 75.9558 362.399 74.6918C362.399 73.4118 362.647 72.3158 363.143 71.4038C363.655 70.4918 364.311 69.7878 365.111 69.2918C365.911 68.7958 366.751 68.5478 367.631 68.5478C369.119 68.5478 370.263 69.0438 371.063 70.0358C371.879 71.0278 372.287 72.3558 372.287 74.0198C372.287 74.2278 372.279 74.4358 372.263 74.6438C372.263 74.8358 372.247 75.0038 372.215 75.1478H364.343C364.423 76.3798 364.807 77.3638 365.495 78.0998C366.199 78.8358 367.111 79.2038 368.231 79.2038C368.791 79.2038 369.303 79.1238 369.767 78.9638C370.247 78.7878 370.703 78.5638 371.135 78.2918L371.831 79.5878C371.335 79.9078 370.767 80.1878 370.127 80.4278C369.503 80.6678 368.791 80.7878 367.991 80.7878ZM364.319 73.7318H370.559C370.559 72.5478 370.303 71.6518 369.791 71.0438C369.295 70.4198 368.591 70.1078 367.679 70.1078C366.863 70.1078 366.127 70.4278 365.471 71.0678C364.831 71.6918 364.447 72.5798 364.319 73.7318ZM375.169 80.4998V68.8358H376.801L376.969 70.9478H377.041C377.441 70.2118 377.929 69.6278 378.505 69.1958C379.081 68.7638 379.697 68.5478 380.353 68.5478C380.817 68.5478 381.233 68.6278 381.601 68.7878L381.217 70.5158C381.025 70.4518 380.849 70.4038 380.689 70.3718C380.529 70.3398 380.329 70.3238 380.089 70.3238C379.593 70.3238 379.073 70.5238 378.529 70.9238C378.001 71.3238 377.537 72.0198 377.137 73.0118V80.4998H375.169ZM387.162 80.7878C385.914 80.7878 385.042 80.4278 384.546 79.7078C384.066 78.9878 383.826 78.0518 383.826 76.8998V70.4438H382.098V68.9558L383.922 68.8358L384.162 65.5718H385.818V68.8358H388.962V70.4438H385.818V76.9238C385.818 77.6438 385.946 78.2038 386.202 78.6038C386.474 78.9878 386.946 79.1798 387.618 79.1798C387.826 79.1798 388.05 79.1478 388.29 79.0838C388.53 79.0038 388.746 78.9318 388.938 78.8678L389.322 80.3558C389.002 80.4678 388.65 80.5638 388.266 80.6438C387.898 80.7398 387.53 80.7878 387.162 80.7878ZM395.007 80.7878C393.775 80.7878 392.871 80.4038 392.295 79.6358C391.719 78.8518 391.431 77.7158 391.431 76.2278V68.8358H393.423V75.9638C393.423 77.0518 393.591 77.8438 393.927 78.3398C394.279 78.8358 394.839 79.0838 395.607 79.0838C396.215 79.0838 396.751 78.9318 397.215 78.6278C397.695 78.3078 398.207 77.8038 398.751 77.1158V68.8358H400.719V80.4998H399.087L398.919 78.6758H398.847C398.303 79.3158 397.727 79.8278 397.119 80.2118C396.511 80.5958 395.807 80.7878 395.007 80.7878ZM404.654 80.4998V68.8358H406.286L406.454 70.9478H406.526C406.926 70.2118 407.414 69.6278 407.99 69.1958C408.566 68.7638 409.182 68.5478 409.838 68.5478C410.302 68.5478 410.718 68.6278 411.086 68.7878L410.702 70.5158C410.51 70.4518 410.334 70.4038 410.174 70.3718C410.014 70.3398 409.814 70.3238 409.574 70.3238C409.078 70.3238 408.558 70.5238 408.014 70.9238C407.486 71.3238 407.022 72.0198 406.622 73.0118V80.4998H404.654ZM417.468 80.7878C416.428 80.7878 415.484 80.5478 414.636 80.0678C413.788 79.5718 413.116 78.8678 412.62 77.9558C412.124 77.0438 411.876 75.9558 411.876 74.6918C411.876 73.4118 412.124 72.3158 412.62 71.4038C413.132 70.4918 413.788 69.7878 414.588 69.2918C415.388 68.7958 416.228 68.5478 417.108 68.5478C418.596 68.5478 419.74 69.0438 420.54 70.0358C421.356 71.0278 421.764 72.3558 421.764 74.0198C421.764 74.2278 421.756 74.4358 421.74 74.6438C421.74 74.8358 421.724 75.0038 421.692 75.1478H413.82C413.9 76.3798 414.284 77.3638 414.972 78.0998C415.676 78.8358 416.588 79.2038 417.708 79.2038C418.268 79.2038 418.78 79.1238 419.244 78.9638C419.724 78.7878 420.18 78.5638 420.612 78.2918L421.308 79.5878C420.812 79.9078 420.244 80.1878 419.604 80.4278C418.98 80.6678 418.268 80.7878 417.468 80.7878ZM413.796 73.7318H420.036C420.036 72.5478 419.78 71.6518 419.268 71.0438C418.772 70.4198 418.068 70.1078 417.156 70.1078C416.34 70.1078 415.604 70.4278 414.948 71.0678C414.308 71.6918 413.924 72.5798 413.796 73.7318ZM434.011 80.7878C432.907 80.7878 431.883 80.5798 430.939 80.1638C429.995 79.7318 429.179 79.1638 428.491 78.4598L429.691 77.0678C430.251 77.6598 430.907 78.1398 431.659 78.5078C432.427 78.8598 433.219 79.0358 434.035 79.0358C435.075 79.0358 435.883 78.8038 436.459 78.3398C437.035 77.8598 437.323 77.2358 437.323 76.4678C437.323 75.9238 437.203 75.4918 436.963 75.1718C436.739 74.8518 436.427 74.5798 436.027 74.3558C435.643 74.1318 435.203 73.9078 434.707 73.6838L432.451 72.6998C431.955 72.4918 431.459 72.2198 430.963 71.8838C430.483 71.5478 430.075 71.1158 429.739 70.5878C429.419 70.0598 429.259 69.4118 429.259 68.6438C429.259 67.8438 429.467 67.1318 429.883 66.5078C430.315 65.8678 430.907 65.3718 431.659 65.0198C432.411 64.6518 433.259 64.4678 434.203 64.4678C435.147 64.4678 436.019 64.6518 436.819 65.0198C437.619 65.3718 438.299 65.8358 438.859 66.4118L437.779 67.7078C437.299 67.2438 436.763 66.8838 436.171 66.6278C435.595 66.3558 434.939 66.2198 434.203 66.2198C433.323 66.2198 432.611 66.4278 432.067 66.8438C431.539 67.2598 431.275 67.8198 431.275 68.5238C431.275 69.0198 431.403 69.4358 431.659 69.7718C431.931 70.0918 432.267 70.3558 432.667 70.5638C433.067 70.7718 433.475 70.9638 433.891 71.1398L436.123 72.0998C436.731 72.3558 437.275 72.6678 437.755 73.0358C438.251 73.3878 438.643 73.8278 438.931 74.3558C439.219 74.8678 439.363 75.5158 439.363 76.2998C439.363 77.1318 439.147 77.8918 438.715 78.5798C438.283 79.2518 437.667 79.7878 436.867 80.1878C436.067 80.5878 435.115 80.7878 434.011 80.7878ZM442.463 80.4998V64.7558H446.399C448.831 64.7558 450.679 65.4358 451.943 66.7958C453.207 68.1398 453.839 70.0598 453.839 72.5558C453.839 75.0678 453.207 77.0198 451.943 78.4118C450.695 79.8038 448.879 80.4998 446.495 80.4998H442.463ZM444.455 78.8678H446.255C448.095 78.8678 449.471 78.3158 450.383 77.2118C451.311 76.0918 451.775 74.5398 451.775 72.5558C451.775 70.5718 451.311 69.0518 450.383 67.9958C449.471 66.9238 448.095 66.3878 446.255 66.3878H444.455V78.8678ZM457.229 80.4998V64.7558H459.221V72.6518H459.293L465.845 64.7558H468.101L463.181 70.7558L468.869 80.4998H466.637L461.933 72.3158L459.221 75.5078V80.4998H457.229Z"/><path stroke="#B2B4B8" d="M495.428 51H309.428C305.286 51 301.928 54.3579 301.928 58.5V84.5C301.928 88.6421 305.286 92 309.428 92H495.428C499.57 92 502.928 88.6421 502.928 84.5V58.5C502.928 54.3579 499.57 51 495.428 51Z"/><path stroke="#B2B4B8" d="M503.428 1H301.428C295.076 1 289.928 6.14873 289.928 12.5V92.5C289.928 98.8513 295.076 104 301.428 104H503.428C509.779 104 514.928 98.8513 514.928 92.5V12.5C514.928 6.14873 509.779 1 503.428 1Z"/><g filter="url(#filter0_d_0_1)"><path fill="#F3F2F2" d="M117.712 45.852C117.712 45.535 117.765 45.219 117.765 44.902C117.765 27.948 103.843 14 86.9677 14C74.8125 14 64.3447 21.356 59.4404 31.666C57.3047 30.585 54.9316 29.979 52.374 29.979C44.5693 29.979 38.1093 36.228 36.8437 43.689C27.5625 46.906 20.8652 55.344 20.8652 65.785C20.8652 78.916 31.4384 89.938 44.4902 89.938H117.369C129.235 89.938 138.99 79.681 138.99 67.71C138.99 55.687 129.657 45.878 117.712 45.852ZM117.238 85.613L116.394 85.719H44.7011C33.917 85.719 25.1367 76.517 25.1367 65.653C25.1367 57.242 30.4629 50.255 38.373 47.513L40.5879 46.722L40.9834 44.401C41.9326 38.706 46.8105 34.039 52.5586 34.039C54.3779 34.039 56.1709 34.461 57.8056 35.305L61.3652 37.098L63.0791 33.485C67.456 24.283 76.8164 18.14 86.9147 18.14C101.496 18.14 113.52 29.768 113.52 44.428C113.52 47.935 113.467 49.78 113.467 49.78L117.475 49.807C127.152 49.938 134.772 57.849 134.772 67.578C134.772 77.308 126.914 85.561 117.238 85.613Z"/></g><g filter="url(#filter1_d_0_1)"><path fill="#F3F2F2" d="M8.8 117.129L8.056 119.529H12.784L12.04 117.129C11.752 116.249 11.48 115.377 11.224 114.513C10.968 113.633 10.712 112.737 10.456 111.826H10.36C10.12 112.737 9.872 113.633 9.616 114.513C9.36 115.377 9.088 116.249 8.8 117.129ZM4 125.938L9.328 110.193H11.584L16.912 125.938H14.776L13.288 121.137H7.552L6.04 125.938H4ZM18.9507 130.858V114.273H20.5827L20.7507 115.617H20.8227C21.3507 115.169 21.9267 114.785 22.5507 114.465C23.1907 114.145 23.8547 113.985 24.5427 113.985C26.0467 113.985 27.1907 114.529 27.9747 115.617C28.7587 116.689 29.1507 118.129 29.1507 119.938C29.1507 121.249 28.9107 122.377 28.4307 123.321C27.9667 124.265 27.3507 124.985 26.5827 125.481C25.8307 125.977 25.0067 126.226 24.1107 126.226C23.5667 126.226 23.0227 126.106 22.4787 125.865C21.9507 125.625 21.4147 125.297 20.8707 124.881L20.9187 126.922V130.858H18.9507ZM23.7747 124.569C24.7347 124.569 25.5267 124.161 26.1507 123.345C26.7907 122.513 27.1107 121.377 27.1107 119.938C27.1107 118.657 26.8707 117.625 26.3907 116.841C25.9267 116.041 25.1427 115.641 24.0387 115.641C23.5427 115.641 23.0387 115.777 22.5267 116.049C22.0307 116.321 21.4947 116.713 20.9187 117.225V123.345C21.4467 123.793 21.9587 124.113 22.4547 124.305C22.9507 124.481 23.3907 124.569 23.7747 124.569ZM36.9912 126.226C35.9512 126.226 35.0072 125.985 34.1592 125.505C33.3112 125.009 32.6392 124.305 32.1432 123.393C31.6472 122.481 31.3992 121.393 31.3992 120.129C31.3992 118.849 31.6472 117.753 32.1432 116.841C32.6552 115.929 33.3112 115.225 34.1112 114.729C34.9112 114.233 35.7512 113.985 36.6312 113.985C38.1192 113.985 39.2632 114.481 40.0632 115.473C40.8792 116.465 41.2872 117.793 41.2872 119.457C41.2872 119.665 41.2792 119.873 41.2632 120.081C41.2632 120.273 41.2472 120.441 41.2152 120.585H33.3432C33.4232 121.817 33.8072 122.801 34.4952 123.537C35.1992 124.273 36.1112 124.641 37.2312 124.641C37.7912 124.641 38.3032 124.561 38.7672 124.401C39.2472 124.225 39.7032 124.001 40.1352 123.729L40.8312 125.025C40.3352 125.345 39.7672 125.625 39.1272 125.865C38.5032 126.106 37.7912 126.226 36.9912 126.226ZM33.3192 119.169H39.5592C39.5592 117.985 39.3032 117.089 38.7912 116.481C38.2952 115.857 37.5912 115.545 36.6792 115.545C35.8632 115.545 35.1272 115.865 34.4712 116.505C33.8312 117.129 33.4472 118.017 33.3192 119.169ZM44.1694 125.938V114.273H45.8014L45.9694 116.385H46.0414C46.4414 115.649 46.9294 115.065 47.5054 114.633C48.0814 114.201 48.6974 113.985 49.3534 113.985C49.8174 113.985 50.2334 114.065 50.6014 114.225L50.2174 115.953C50.0254 115.889 49.8494 115.841 49.6894 115.809C49.5294 115.777 49.3294 115.761 49.0894 115.761C48.5934 115.761 48.0734 115.961 47.5294 116.361C47.0014 116.761 46.5374 117.457 46.1374 118.449V125.938H44.1694ZM56.1618 126.226C54.9138 126.226 54.0418 125.866 53.5458 125.146C53.0658 124.425 52.8258 123.489 52.8258 122.337V115.881H51.0978V114.393L52.9218 114.273L53.1618 111.009H54.8178V114.273H57.9618V115.881H54.8178V122.361C54.8178 123.081 54.9458 123.641 55.2018 124.041C55.4738 124.425 55.9458 124.617 56.6178 124.617C56.8258 124.617 57.0498 124.585 57.2898 124.521C57.5298 124.441 57.7458 124.369 57.9378 124.305L58.3218 125.793C58.0018 125.906 57.6498 126.002 57.2658 126.082C56.8978 126.178 56.5298 126.226 56.1618 126.226ZM64.0071 126.226C62.7751 126.226 61.8711 125.841 61.2951 125.073C60.7191 124.289 60.4311 123.153 60.4311 121.665V114.273H62.4231V121.401C62.4231 122.489 62.5911 123.281 62.9271 123.777C63.2791 124.273 63.8391 124.521 64.6071 124.521C65.2151 124.521 65.7511 124.369 66.2151 124.065C66.6951 123.745 67.2071 123.241 67.7511 122.553V114.273H69.7191V125.938H68.0871L67.9191 124.113H67.8471C67.3031 124.753 66.7271 125.265 66.1191 125.649C65.5111 126.034 64.8071 126.226 64.0071 126.226ZM73.6538 125.938V114.273H75.2858L75.4538 116.385H75.5258C75.9258 115.649 76.4138 115.065 76.9898 114.633C77.5658 114.201 78.1818 113.985 78.8378 113.985C79.3018 113.985 79.7178 114.065 80.0858 114.225L79.7018 115.953C79.5098 115.889 79.3338 115.841 79.1738 115.809C79.0138 115.777 78.8138 115.761 78.5738 115.761C78.0778 115.761 77.5578 115.961 77.0138 116.361C76.4858 116.761 76.0218 117.457 75.6218 118.449V125.938H73.6538ZM86.468 126.226C85.428 126.226 84.484 125.985 83.636 125.505C82.788 125.009 82.116 124.305 81.6198 123.393C81.1238 122.481 80.8758 121.393 80.8758 120.129C80.8758 118.849 81.1238 117.753 81.6198 116.841C82.132 115.929 82.788 115.225 83.588 114.729C84.388 114.233 85.228 113.985 86.108 113.985C87.596 113.985 88.74 114.481 89.54 115.473C90.356 116.465 90.764 117.793 90.764 119.457C90.764 119.665 90.756 119.873 90.74 120.081C90.74 120.273 90.724 120.441 90.692 120.585H82.82C82.9 121.817 83.284 122.801 83.972 123.537C84.676 124.273 85.588 124.641 86.708 124.641C87.268 124.641 87.78 124.561 88.244 124.401C88.724 124.225 89.18 124.001 89.612 123.729L90.308 125.025C89.812 125.345 89.244 125.625 88.604 125.865C87.98 126.106 87.268 126.226 86.468 126.226ZM82.796 119.169H89.036C89.036 117.985 88.78 117.089 88.268 116.481C87.772 115.857 87.068 115.545 86.156 115.545C85.34 115.545 84.604 115.865 83.948 116.505C83.308 117.129 82.924 118.017 82.796 119.169ZM104.595 126.226C103.283 126.226 102.107 125.905 101.067 125.265C100.043 124.609 99.227 123.673 98.619 122.457C98.027 121.241 97.731 119.777 97.731 118.065C97.731 116.369 98.035 114.913 98.643 113.697C99.251 112.481 100.083 111.545 101.139 110.889C102.195 110.233 103.387 109.905 104.715 109.905C105.675 109.905 106.523 110.105 107.259 110.505C107.995 110.889 108.587 111.337 109.035 111.849L107.955 113.145C107.539 112.697 107.067 112.337 106.539 112.065C106.011 111.793 105.411 111.657 104.739 111.657C103.747 111.657 102.875 111.921 102.123 112.449C101.387 112.961 100.811 113.689 100.395 114.633C99.995 115.577 99.795 116.705 99.795 118.017C99.795 119.329 99.995 120.473 100.395 121.449C100.795 122.409 101.355 123.153 102.075 123.681C102.811 124.209 103.675 124.473 104.667 124.473C105.419 124.473 106.091 124.313 106.683 123.993C107.275 123.673 107.819 123.241 108.315 122.697L109.419 123.945C108.795 124.665 108.091 125.225 107.307 125.625C106.523 126.025 105.619 126.226 104.595 126.226ZM114.25 126.226C113.514 126.226 112.978 126.001 112.642 125.553C112.322 125.089 112.162 124.433 112.162 123.585V108.849H114.13V123.729C114.13 124.033 114.186 124.257 114.298 124.401C114.41 124.529 114.538 124.593 114.682 124.593C114.746 124.593 114.802 124.593 114.85 124.593C114.914 124.577 115.002 124.561 115.114 124.545L115.378 126.034C115.25 126.098 115.098 126.146 114.922 126.178C114.746 126.21 114.522 126.226 114.25 126.226ZM122.815 126.226C121.871 126.226 120.983 125.985 120.151 125.505C119.335 125.025 118.671 124.329 118.159 123.417C117.663 122.505 117.415 121.409 117.415 120.129C117.415 118.817 117.663 117.705 118.159 116.793C118.671 115.881 119.335 115.185 120.151 114.705C120.983 114.225 121.871 113.985 122.815 113.985C123.775 113.985 124.663 114.225 125.479 114.705C126.295 115.185 126.951 115.881 127.447 116.793C127.959 117.705 128.215 118.817 128.215 120.129C128.215 121.409 127.959 122.505 127.447 123.417C126.951 124.329 126.295 125.025 125.479 125.505C124.663 125.985 123.775 126.226 122.815 126.226ZM122.815 124.593C123.823 124.593 124.631 124.185 125.239 123.369C125.863 122.537 126.175 121.457 126.175 120.129C126.175 118.785 125.863 117.697 125.239 116.865C124.631 116.033 123.823 115.617 122.815 115.617C121.823 115.617 121.015 116.033 120.391 116.865C119.767 117.697 119.455 118.785 119.455 120.129C119.455 121.457 119.767 122.537 120.391 123.369C121.015 124.185 121.823 124.593 122.815 124.593ZM134.695 126.226C133.463 126.226 132.559 125.841 131.983 125.073C131.407 124.289 131.119 123.153 131.119 121.665V114.273H133.111V121.401C133.111 122.489 133.279 123.281 133.615 123.777C133.967 124.273 134.527 124.521 135.295 124.521C135.903 124.521 136.439 124.369 136.903 124.065C137.383 123.745 137.895 123.241 138.439 122.553V114.273H140.407V125.938H138.775L138.607 124.113H138.535C137.991 124.753 137.415 125.265 136.807 125.649C136.199 126.034 135.495 126.226 134.695 126.226ZM148.325 126.226C146.869 126.226 145.701 125.697 144.821 124.641C143.941 123.569 143.501 122.065 143.501 120.129C143.501 118.865 143.733 117.777 144.197 116.865C144.677 115.937 145.301 115.225 146.069 114.729C146.853 114.233 147.685 113.985 148.565 113.985C149.237 113.985 149.821 114.105 150.317 114.345C150.813 114.585 151.317 114.913 151.829 115.329L151.733 113.337V108.849H153.725V125.938H152.093L151.925 124.569H151.853C151.405 125.017 150.877 125.409 150.269 125.745C149.661 126.065 149.013 126.226 148.325 126.226ZM148.757 124.569C149.781 124.569 150.773 124.033 151.733 122.961V116.865C151.237 116.417 150.757 116.105 150.293 115.929C149.845 115.737 149.381 115.641 148.901 115.641C148.277 115.641 147.709 115.833 147.197 116.217C146.701 116.585 146.301 117.105 145.997 117.777C145.693 118.433 145.541 119.209 145.541 120.105C145.541 121.497 145.821 122.593 146.381 123.393C146.941 124.177 147.733 124.569 148.757 124.569Z"/></g><path fill="#7F8086" d="M153.221 51.2929C152.83 51.6834 152.83 52.3165 153.221 52.7071L159.584 59.0714C159.975 59.4619 160.608 59.4619 160.998 59.0714C161.389 58.6809 161.389 58.0478 160.999 57.6572L155.342 52.0001L160.999 46.3435C161.39 45.953 161.39 45.3198 160.999 44.9293C160.609 44.5387 159.975 44.5387 159.585 44.9292L153.221 51.2929ZM289.928 51.0068L153.928 51L153.928 53L289.928 53.0068L289.928 51.0068Z"/><defs><filter id="filter0_d_0_1" width="126.124" height="83.939" x="16.865" y="14" color-interpolation-filters="sRGB" filterUnits="userSpaceOnUse"><feFlood flood-opacity="0" result="BackgroundImageFix"/><feColorMatrix in="SourceAlpha" result="hardAlpha" type="matrix" values="0 0 0 0 0 0 0 0 0 0 0 0 0 0 0 0 0 0 127 0"/><feOffset dy="4"/><feGaussianBlur stdDeviation="2"/><feComposite in2="hardAlpha" operator="out"/><feColorMatrix type="matrix" values="0 0 0 0 0 0 0 0 0 0 0 0 0 0 0 0 0 0 0.25 0"/><feBlend in2="BackgroundImageFix" mode="normal" result="effect1_dropShadow_0_1"/><feBlend in="SourceGraphic" in2="effect1_dropShadow_0_1" mode="normal" result="shape"/></filter><filter id="filter1_d_0_1" width="157.725" height="30.009" x="0" y="108.849" color-interpolation-filters="sRGB" filterUnits="userSpaceOnUse"><feFlood flood-opacity="0" result="BackgroundImageFix"/><feColorMatrix in="SourceAlpha" result="hardAlpha" type="matrix" values="0 0 0 0 0 0 0 0 0 0 0 0 0 0 0 0 0 0 127 0"/><feOffset dy="4"/><feGaussianBlur stdDeviation="2"/><feComposite in2="hardAlpha" operator="out"/><feColorMatrix type="matrix" values="0 0 0 0 0 0 0 0 0 0 0 0 0 0 0 0 0 0 0.25 0"/><feBlend in2="BackgroundImageFix" mode="normal" result="effect1_dropShadow_0_1"/><feBlend in="SourceGraphic" in2="effect1_dropShadow_0_1" mode="normal" result="shape"/></filter></defs></svg>